<?xml version="1.0" encoding="UTF-8"?>
<svg xmlns="http://www.w3.org/2000/svg" xmlns:xlink="http://www.w3.org/1999/xlink" width="388.79999999999995" height="94.46400000000001" viewBox="0 -2.7679999999999936 388.79999999999995 100" preserveAspectRatio="xMinYMid meet"><path d="M38.41 26.82L16.16 26.82L16.16 44.17L35.60 44.17L35.60 49.21L16.16 49.21L16.16 71.28L9.97 71.28L9.97 21.71L39.17 21.71L38.41 26.82ZM52.24 33.37L69.62 33.37L69.62 66.49L80.32 66.49L80.32 71.28L51.88 71.28L51.88 66.49L63.58 66.49L63.58 38.16L52.24 38.16L52.24 33.37ZM64.80 15.62L64.80 15.62Q66.82 15.62 68.02 16.85Q69.23 18.07 69.23 19.84L69.23 19.84Q69.23 21.67 68.02 22.91Q66.82 24.16 64.80 24.16L64.80 24.16Q62.89 24.16 61.67 22.91Q60.44 21.67 60.44 19.84L60.44 19.84Q60.44 18.07 61.67 16.85Q62.89 15.62 64.80 15.62ZM113.65 71.28L94.00 71.28L94.00 66.64L99.90 66.64L99.90 38.02L94.00 38.02L94.00 33.37L104.51 33.37L105.62 42.34Q107.82 37.66 110.95 35.10Q114.08 32.54 119.23 32.54L119.23 32.54Q120.82 32.54 122.06 32.78Q123.30 33.01 124.60 33.37L124.60 33.37L122.83 38.77Q121.64 38.45 120.67 38.29Q119.70 38.12 118.44 38.12L118.44 38.12Q114.08 38.12 110.95 41.22Q107.82 44.32 105.95 50.58L105.95 50.58L105.95 66.64L113.65 66.64L113.65 71.28ZM123.73 46.19L118.76 46.19L118.76 37.94L119.38 33.37L124.60 33.37L123.73 46.19ZM163.98 44.82L163.98 63.00Q163.98 65.27 164.74 66.31Q165.49 67.36 167.08 67.86L167.08 67.86L165.60 72.11Q163.15 71.78 161.32 70.54Q159.48 69.30 158.65 66.78L158.65 66.78Q156.60 69.41 153.54 70.76Q150.48 72.11 146.77 72.11L146.77 72.11Q141.08 72.11 137.81 68.90Q134.53 65.70 134.53 60.41L134.53 60.41Q134.53 54.54 139.10 51.41Q143.68 48.28 152.32 48.28L152.32 48.28L157.90 48.28L157.90 45.11Q157.90 41.00 155.50 39.29Q153.11 37.58 148.86 37.58L148.86 37.58Q146.99 37.58 144.47 38.03Q141.95 38.48 139.00 39.53L139.00 39.53L137.41 34.96Q140.90 33.66 143.96 33.12Q147.02 32.58 149.80 32.58L149.80 32.58Q156.89 32.58 160.43 35.87Q163.98 39.17 163.98 44.82L163.98 44.82ZM148.32 67.50L148.32 67.50Q151.13 67.50 153.68 66.08Q156.24 64.66 157.90 62.14L157.90 62.14L157.90 52.38L152.42 52.38Q146.16 52.38 143.59 54.54Q141.01 56.70 141.01 60.34L141.01 60.34Q141.01 63.86 142.83 65.68Q144.65 67.50 148.32 67.50ZM241.78 20.92L241.78 20.92Q246.64 20.92 249.91 22.14Q253.19 23.36 256.14 25.74L256.14 25.74L252.65 29.81Q250.31 27.83 247.70 26.98Q245.09 26.14 242.24 26.14L242.24 26.14Q238.18 26.14 234.72 28.06Q231.26 29.99 229.16 34.43Q227.05 38.88 227.05 46.48L227.05 46.48Q227.05 53.86 229.05 58.32Q231.05 62.78 234.47 64.76Q237.89 66.74 242.10 66.74L242.10 66.74Q246.28 66.74 248.96 65.48Q251.64 64.22 253.62 62.60L253.62 62.60L256.86 66.71Q254.59 68.90 250.96 70.51Q247.32 72.11 242.03 72.11L242.03 72.11Q236.02 72.11 231.14 69.16Q226.26 66.20 223.42 60.50Q220.57 54.79 220.57 46.48L220.57 46.48Q220.57 38.12 223.47 32.44Q226.37 26.75 231.21 23.83Q236.05 20.92 241.78 20.92ZM280.87 32.58L280.87 32.58Q286.24 32.58 289.85 35.01Q293.47 37.44 295.29 41.87Q297.11 46.30 297.11 52.31L297.11 52.31Q297.11 58.10 295.24 62.57Q293.36 67.03 289.75 69.57Q286.13 72.11 280.80 72.11L280.80 72.11Q275.47 72.11 271.84 69.66Q268.20 67.21 266.35 62.77Q264.49 58.32 264.49 52.38L264.49 52.38Q264.49 46.51 266.36 42.05Q268.24 37.58 271.89 35.08Q275.54 32.58 280.87 32.58ZM280.87 37.51L280.87 37.51Q275.98 37.51 273.47 41.13Q270.97 44.75 270.97 52.38L270.97 52.38Q270.97 59.87 273.44 63.50Q275.90 67.14 280.80 67.14L280.80 67.14Q285.70 67.14 288.16 63.50Q290.63 59.87 290.63 52.31L290.63 52.31Q290.63 44.75 288.18 41.13Q285.73 37.51 280.87 37.51ZM332.32 37.04L332.32 17.35L338.36 18.11L338.36 71.28L333.07 71.28L332.50 66.28Q330.37 69.30 327.62 70.70Q324.86 72.11 321.73 72.11L321.73 72.11Q316.80 72.11 313.60 69.62Q310.39 67.14 308.84 62.69Q307.30 58.25 307.30 52.38L307.30 52.38Q307.30 46.69 309.06 42.21Q310.82 37.73 314.15 35.15Q317.48 32.58 322.16 32.58L322.16 32.58Q325.44 32.58 327.92 33.71Q330.41 34.85 332.32 37.04L332.32 37.04ZM323.75 37.44L323.75 37.44Q319.00 37.44 316.44 41.15Q313.88 44.86 313.88 52.38L313.88 52.38Q313.88 57.28 314.93 60.59Q315.97 63.90 318.01 65.56Q320.04 67.21 322.99 67.21L322.99 67.21Q326.23 67.21 328.52 65.38Q330.80 63.54 332.32 61.24L332.32 61.24L332.32 42.30Q330.77 40.00 328.57 38.72Q326.38 37.44 323.75 37.44ZM383.08 54.47L357.59 54.47Q357.77 58.86 359.28 61.65Q360.79 64.44 363.28 65.75Q365.76 67.07 368.68 67.07L368.68 67.07Q371.59 67.07 373.95 66.20Q376.31 65.34 378.79 63.65L378.79 63.65L381.64 67.64Q378.97 69.73 375.57 70.92Q372.17 72.11 368.60 72.11L368.60 72.11Q363.10 72.11 359.21 69.62Q355.32 67.14 353.29 62.69Q351.25 58.25 351.25 52.38L351.25 52.38Q351.25 46.62 353.30 42.16Q355.36 37.69 359.06 35.14Q362.77 32.58 367.81 32.58L367.81 32.58Q372.60 32.58 376.06 34.83Q379.51 37.08 381.37 41.24Q383.22 45.40 383.22 51.16L383.22 51.16Q383.22 52.13 383.18 52.97Q383.15 53.82 383.08 54.47L383.08 54.47ZM367.88 37.55L367.88 37.55Q363.67 37.55 360.85 40.54Q358.02 43.52 357.62 49.79L357.62 49.79L377.39 49.79Q377.28 43.70 374.72 40.63Q372.17 37.55 367.88 37.55Z"/></svg>