<?xml version="1.0" encoding="UTF-8"?>
<svg xmlns="http://www.w3.org/2000/svg" xmlns:xlink="http://www.w3.org/1999/xlink" width="510.552" height="78.19200000000001" viewBox="0 -10.903999999999996 510.552 100" preserveAspectRatio="xMinYMid meet"><path d="M5.18 64.94L5.18 15.26L23.54 15.26Q33.48 15.26 38.88 20.66Q44.28 26.06 44.28 36.79L44.28 36.79L44.28 43.34Q44.28 54.07 38.84 59.51Q33.41 64.94 23.40 64.94L23.40 64.94L5.18 64.94ZM11.74 59.11L23.54 59.11Q30.74 59.11 34.24 55.30Q37.73 51.48 37.73 43.49L37.73 43.49L37.73 37.15Q37.73 28.94 34.24 25.02Q30.74 21.10 23.54 21.10L23.54 21.10L11.74 21.10L11.74 59.11ZM69.34 64.94L69.34 15.26L87.70 15.26Q97.63 15.26 103.03 20.66Q108.43 26.06 108.43 36.79L108.43 36.79L108.43 43.34Q108.43 54.07 103.00 59.51Q97.56 64.94 87.55 64.94L87.55 64.94L69.34 64.94ZM75.89 59.11L87.70 59.11Q94.90 59.11 98.39 55.30Q101.88 51.48 101.88 43.49L101.88 43.49L101.88 37.15Q101.88 28.94 98.39 25.02Q94.90 21.10 87.70 21.10L87.70 21.10L75.89 21.10L75.89 59.11ZM118.01 21.96L118.01 15.34L124.13 15.34L124.13 21.96L118.01 21.96ZM118.01 64.94L118.01 28.08L124.13 28.08L124.13 64.94L118.01 64.94ZM134.35 64.94L134.35 28.08L140.40 28.08L140.40 33.05Q142.34 30.38 145.37 29.02Q148.39 27.65 152.14 27.65L152.14 27.65Q158.69 27.65 162.29 31.39Q165.89 35.14 165.89 41.76L165.89 41.76L165.89 64.94L159.77 64.94L159.77 42.55Q159.77 37.87 157.43 35.50Q155.09 33.12 150.62 33.12L150.62 33.12Q146.02 33.12 143.24 35.86Q140.47 38.59 140.47 43.34L140.47 43.34L140.47 64.94L134.35 64.94ZM226.22 21.10L198.07 21.10L198.07 36.79L222.19 36.79L222.19 42.62L198.07 42.62L198.07 59.11L226.22 59.11L226.22 64.94L191.52 64.94L191.52 15.26L226.22 15.26L226.22 21.10ZM263.52 64.94L256.97 64.94L246.82 50.62L236.81 64.94L230.26 64.94L243.58 46.08L230.90 28.08L237.46 28.08L246.82 41.33L256.10 28.08L262.66 28.08L249.98 45.86L263.52 64.94ZM269.28 76.61L269.28 28.08L275.33 28.08L275.33 33.05Q277.20 30.38 280.22 28.91Q283.25 27.43 287.06 27.43L287.06 27.43Q294.05 27.43 298.26 31.86Q302.47 36.29 302.47 44.50L302.47 44.50L302.47 48.38Q302.47 56.66 298.26 61.13Q294.05 65.59 287.06 65.59L287.06 65.59Q279.14 65.59 275.40 60.19L275.40 60.19L275.40 76.61L269.28 76.61ZM286.20 60.19Q291.02 60.19 293.69 57.17Q296.35 54.14 296.35 48.10L296.35 48.10L296.35 44.86Q296.35 38.81 293.69 35.82Q291.02 32.83 286.06 32.83Q281.09 32.83 278.24 35.89Q275.40 38.95 275.40 44.14L275.40 44.14L275.40 48.96Q275.40 54.07 278.28 57.13Q281.16 60.19 286.20 60.19L286.20 60.19ZM325.01 27.58Q332.71 27.58 336.82 31.00Q340.92 34.42 340.92 40.90L340.92 40.90L340.92 64.94L334.94 64.94L334.94 60.77Q331.13 65.38 322.92 65.38L322.92 65.38Q316.22 65.38 312.73 62.53Q309.24 59.69 309.24 54.29L309.24 54.29Q309.24 49.10 312.84 46.33Q316.44 43.56 323.35 43.56L323.35 43.56L334.80 43.56L334.80 41.04Q334.80 32.69 325.08 32.69L325.08 32.69Q320.83 32.69 318.64 34.27Q316.44 35.86 316.44 38.74L316.44 38.74L316.44 38.95L310.46 38.95L310.46 38.74Q310.46 33.55 314.35 30.56Q318.24 27.58 325.01 27.58L325.01 27.58ZM324.14 60.41Q329.62 60.41 332.21 58.10Q334.80 55.80 334.80 51.05L334.80 51.05L334.80 48.17L324.36 48.17Q319.68 48.17 317.48 49.64Q315.29 51.12 315.29 54.22L315.29 54.22Q315.29 57.38 317.45 58.90Q319.61 60.41 324.14 60.41L324.14 60.41ZM350.57 64.94L350.57 28.08L356.62 28.08L356.62 33.05Q358.56 30.38 361.58 29.02Q364.61 27.65 368.35 27.65L368.35 27.65Q374.90 27.65 378.50 31.39Q382.10 35.14 382.10 41.76L382.10 41.76L382.10 64.94L375.98 64.94L375.98 42.55Q375.98 37.87 373.64 35.50Q371.30 33.12 366.84 33.12L366.84 33.12Q362.23 33.12 359.46 35.86Q356.69 38.59 356.69 43.34L356.69 43.34L356.69 64.94L350.57 64.94ZM405.94 65.59Q398.88 65.59 394.78 61.16Q390.67 56.74 390.67 48.46L390.67 48.46L390.67 44.50Q390.67 36.29 394.81 31.82Q398.95 27.36 405.79 27.36L405.79 27.36Q409.68 27.36 412.81 28.87Q415.94 30.38 417.74 32.98L417.74 32.98L417.74 15.26L423.79 15.26L423.79 64.94L417.74 64.94L417.74 60.12Q415.94 62.78 412.92 64.19Q409.90 65.59 405.94 65.59L405.94 65.59ZM407.09 60.19Q412.13 60.19 414.94 57.17Q417.74 54.14 417.74 48.96L417.74 48.96L417.74 44.14Q417.74 38.88 414.90 35.86Q412.06 32.83 407.02 32.83L407.02 32.83Q402.12 32.83 399.46 35.82Q396.79 38.81 396.79 44.86L396.79 44.86L396.79 48.17Q396.79 54.22 399.49 57.20Q402.19 60.19 407.09 60.19L407.09 60.19ZM464.98 48.02L438.55 48.02L438.55 48.31Q438.55 60.26 449.71 60.26L449.71 60.26Q453.96 60.26 456.30 58.28Q458.64 56.30 458.71 53.28L458.71 53.28L458.71 53.06L464.76 53.06L464.76 53.35Q464.69 56.81 462.85 59.58Q461.02 62.35 457.60 63.97Q454.18 65.59 449.57 65.59L449.57 65.59Q441.50 65.59 436.97 61.09Q432.43 56.59 432.43 47.95L432.43 47.95L432.43 45Q432.43 36.50 436.75 31.93Q441.07 27.36 448.78 27.36L448.78 27.36Q456.34 27.36 460.66 31.57Q464.98 35.78 464.98 43.70L464.98 43.70L464.98 48.02ZM448.78 32.76Q444.10 32.76 441.47 35.39Q438.84 38.02 438.55 43.42L438.55 43.42L458.86 43.42L458.86 42.77Q458.86 37.73 456.23 35.24Q453.60 32.76 448.78 32.76L448.78 32.76ZM487.80 65.59Q480.74 65.59 476.64 61.16Q472.54 56.74 472.54 48.46L472.54 48.46L472.54 44.50Q472.54 36.29 476.68 31.82Q480.82 27.36 487.66 27.36L487.66 27.36Q491.54 27.36 494.68 28.87Q497.81 30.38 499.61 32.98L499.61 32.98L499.61 15.26L505.66 15.26L505.66 64.94L499.61 64.94L499.61 60.12Q497.81 62.78 494.78 64.19Q491.76 65.59 487.80 65.59L487.80 65.59ZM488.95 60.19Q493.99 60.19 496.80 57.17Q499.61 54.14 499.61 48.96L499.61 48.96L499.61 44.14Q499.61 38.88 496.76 35.86Q493.92 32.83 488.88 32.83L488.88 32.83Q483.98 32.83 481.32 35.82Q478.66 38.81 478.66 44.86L478.66 44.86L478.66 48.17Q478.66 54.22 481.36 57.20Q484.06 60.19 488.95 60.19L488.95 60.19Z"/></svg>