<?xml version="1.0" encoding="UTF-8"?>
<svg xmlns="http://www.w3.org/2000/svg" xmlns:xlink="http://www.w3.org/1999/xlink" width="982.6171875" height="90.38671875" viewBox="0 -4.806640625 982.6171875 100" preserveAspectRatio="xMinYMid meet"><path d="M2.88 39.45L2.88 39.45Q2.88 29.81 8.03 23.26Q13.18 16.70 20.21 16.70L20.21 16.70Q25.49 16.70 29.60 20.14L29.60 20.14Q30.02 19.34 30.23 18.88Q30.45 18.42 30.55 18.21Q30.66 18 30.66 17.93L30.66 17.93Q31.54 16.70 32.70 16.70L32.70 16.70Q34.84 16.70 34.84 19.65L34.84 19.65L34.84 29.67Q34.84 30.62 34.77 31.11Q34.70 31.61 34.08 32.12Q33.47 32.63 32.34 32.63L32.34 32.63Q31.32 32.63 30.74 32.22Q30.16 31.82 30.06 31.46Q29.95 31.11 29.81 30.23L29.81 30.23Q29.11 25.98 26.51 23.54Q23.91 21.09 20.53 21.09L20.53 21.09Q15.57 21.09 11.71 26.38Q7.84 31.68 7.84 39.45L7.84 39.45Q7.84 47.29 11.69 52.59Q15.54 57.90 20.60 57.90L20.60 57.90Q23.63 57.90 26.58 55.85Q29.53 53.79 29.88 49.11L29.88 49.11Q30.02 47.04 32.34 47.00L32.34 47.00Q34.88 47.00 34.84 49.39L34.84 49.39Q34.84 54.42 30.64 58.36Q26.44 62.30 20.32 62.30L20.32 62.30Q13.18 62.30 8.03 55.72Q2.88 49.15 2.88 39.45ZM41.91 45.95L41.91 45.95Q41.91 39.27 46.27 34.54Q50.63 29.81 56.67 29.81Q62.72 29.81 67.06 34.52Q71.40 39.23 71.40 45.93Q71.40 52.63 67.06 57.27Q62.72 61.91 56.67 61.91Q50.63 61.91 46.27 57.32Q41.91 52.73 41.91 45.95ZM46.86 45.42L46.86 45.42Q46.86 50.38 49.75 53.95Q52.63 57.52 56.65 57.52Q60.68 57.52 63.56 53.96Q66.45 50.41 66.45 45.42L66.45 45.42Q66.45 40.61 63.53 37.41Q60.61 34.21 56.65 34.21Q52.70 34.21 49.78 37.41Q46.86 40.61 46.86 45.42ZM75.30 59.34L75.30 59.34Q75.30 58.25 75.88 57.74Q76.46 57.23 77.13 57.16Q77.80 57.09 79.42 57.09L79.42 57.09L79.42 34.84Q77.84 34.84 77.15 34.77Q76.46 34.70 75.88 34.19Q75.30 33.68 75.30 32.63L75.30 32.63Q75.30 30.48 78.26 30.45L78.26 30.45L80.54 30.45Q81.42 30.45 81.90 30.52Q82.37 30.59 82.86 31.10Q83.36 31.61 83.43 32.63L83.43 32.63Q86.24 30.02 90.05 30.02Q93.87 30.02 95.52 33.79L95.52 33.79Q96.89 31.85 99.02 30.94Q101.14 30.02 103.08 30.02L103.08 30.02Q105.29 30.02 106.75 31.22Q108.21 32.41 108.70 34.38Q109.20 36.35 109.35 37.44Q109.51 38.53 109.51 39.66L109.51 39.66L109.51 57.09Q111.09 57.09 111.78 57.16Q112.46 57.23 113.03 57.74Q113.59 58.25 113.59 59.34L113.59 59.34Q113.59 61.49 110.64 61.49L110.64 61.49L104.91 61.49Q101.95 61.49 101.95 59.34L101.95 59.34Q101.95 58.32 102.55 57.78Q103.15 57.23 103.73 57.16Q104.31 57.09 105.47 57.09L105.47 57.09L105.47 40.32Q105.47 37.02 104.82 35.72Q104.17 34.42 102.80 34.42L102.80 34.42Q100.34 34.42 98.40 37.04Q96.47 39.66 96.47 44.19L96.47 44.19L96.47 57.09Q98.05 57.09 98.74 57.16Q99.42 57.23 100.00 57.74Q100.58 58.25 100.58 59.34L100.58 59.34Q100.58 61.49 97.63 61.49L97.63 61.49L91.86 61.49Q88.91 61.49 88.91 59.34L88.91 59.34Q88.91 58.32 89.53 57.78Q90.14 57.23 90.70 57.16Q91.27 57.09 92.43 57.09L92.43 57.09L92.43 40.32Q92.43 37.02 91.78 35.72Q91.13 34.42 89.75 34.42L89.75 34.42Q87.29 34.42 85.36 37.04Q83.43 39.66 83.43 44.19L83.43 44.19L83.43 57.09Q85.01 57.09 85.69 57.16Q86.38 57.23 86.96 57.74Q87.54 58.25 87.54 59.34L87.54 59.34Q87.54 61.49 84.59 61.49L84.59 61.49L78.26 61.49Q75.30 61.49 75.30 59.34ZM114.26 75.30L114.26 75.30Q114.26 73.09 117.21 73.09L117.21 73.09L120.38 73.09L120.38 34.84L117.11 34.84Q114.22 34.84 114.26 32.70L114.26 32.70Q114.26 30.48 117.21 30.45L117.21 30.45L122.45 30.45Q124.31 30.45 124.82 31.10Q125.33 31.75 125.33 33.54L125.33 33.54Q129.23 30.02 134.47 30.02L134.47 30.02Q140.24 30.02 144.37 34.66Q148.50 39.30 148.50 45.95L148.50 45.95Q148.50 52.73 144.09 57.32Q139.68 61.91 133.70 61.91L133.70 61.91Q128.95 61.91 125.33 58.25L125.33 58.25L125.33 73.09L128.50 73.09Q131.45 73.09 131.45 75.30L131.45 75.30Q131.45 77.45 128.57 77.48L128.57 77.48L117.11 77.48Q114.26 77.45 114.26 75.30ZM125.33 42.47L125.33 47.74Q125.33 50.98 127.49 54.25Q129.66 57.52 133.45 57.52L133.45 57.52Q137.43 57.52 140.48 54.21Q143.54 50.91 143.54 45.95L143.54 45.95Q143.54 41.20 140.77 37.81Q137.99 34.42 134.05 34.42L134.05 34.42Q130.68 34.42 128.00 36.86Q125.33 39.30 125.33 42.47L125.33 42.47ZM152.05 32.70L152.05 32.70Q152.05 30.48 155.00 30.45L155.00 30.45L160.24 30.45Q162.04 30.45 162.58 31.06Q163.13 31.68 163.13 33.40L163.13 33.40L163.13 52.84Q163.13 54 163.23 54.62Q163.34 55.23 163.81 56.02Q164.29 56.81 165.53 57.16Q166.78 57.52 168.82 57.52L168.82 57.52Q169.91 57.52 171.09 57.27Q172.27 57.02 173.71 56.34Q175.15 55.65 176.04 54.07Q176.94 52.49 176.94 50.17L176.94 50.17L176.94 34.84L173.71 34.84Q170.82 34.84 170.82 32.70L170.82 32.70Q170.82 30.48 173.78 30.45L173.78 30.45L179.05 30.45Q180.84 30.45 181.37 31.06Q181.90 31.68 181.90 33.40L181.90 33.40L181.90 57.09L185.17 57.09Q188.05 57.09 188.05 59.27L188.05 59.27Q188.05 61.49 185.10 61.49L185.10 61.49L179.82 61.49Q178.95 61.49 178.49 61.42Q178.03 61.35 177.49 60.80Q176.94 60.26 176.94 59.17L176.94 59.17Q173.36 61.91 168.36 61.91L168.36 61.91Q158.13 61.91 158.17 53.30L158.17 53.30L158.17 34.84L154.90 34.84Q152.05 34.84 152.05 32.70ZM190.76 32.70L190.76 32.70Q190.76 30.48 193.71 30.45L193.71 30.45L199.97 30.45L199.97 24.54Q199.97 23.59 200.04 23.10Q200.11 22.61 200.72 22.10Q201.34 21.59 202.50 21.59L202.50 21.59Q204.15 21.59 204.56 22.34Q204.96 23.10 204.96 24.54L204.96 24.54L204.96 30.45L216.77 30.45Q217.65 30.45 218.11 30.52Q218.57 30.59 219.09 31.13Q219.62 31.68 219.62 32.70L219.62 32.70Q219.62 34.84 216.77 34.84L216.77 34.84L204.96 34.84L204.96 52.00Q204.96 53.02 205.07 53.68Q205.17 54.35 205.63 55.41Q206.09 56.46 207.32 56.99Q208.55 57.52 210.48 57.52L210.48 57.52Q211.64 57.52 212.80 57.20Q213.96 56.88 215.14 55.62Q216.32 54.35 216.32 52.35L216.32 52.35Q216.32 51.54 216.42 51.05Q216.53 50.55 217.11 50.08Q217.69 49.61 218.78 49.61L218.78 49.61Q219.94 49.61 220.54 50.12Q221.13 50.63 221.22 51.08Q221.31 51.54 221.31 52.42L221.31 52.42Q221.31 56.88 217.92 59.40Q214.52 61.91 210.13 61.91Q205.73 61.91 202.85 59.57Q199.97 57.23 199.97 52.42L199.97 52.42L199.97 34.84L193.64 34.84Q190.76 34.84 190.76 32.70ZM235.55 57.20Q230.73 52.49 230.73 45.86Q230.73 39.23 235.27 34.52Q239.80 29.81 246.20 29.81L246.20 29.81Q252.88 29.81 256.52 34.17Q260.16 38.53 260.16 45.07L260.16 45.07Q260.16 46.02 259.95 46.58Q259.73 47.14 259.26 47.41Q258.79 47.67 258.40 47.71Q258.01 47.74 257.27 47.74L257.27 47.74L235.83 47.74Q236.71 52.21 240.12 54.86Q243.53 57.52 247.78 57.52L247.78 57.52Q253.41 57.52 255.27 53.19L255.27 53.19Q255.62 52.17 256.13 51.89Q256.64 51.61 257.66 51.61L257.66 51.61Q260.16 51.61 260.16 53.58L260.16 53.58Q260.16 54.46 259.44 55.71Q258.71 56.95 257.31 58.43Q255.90 59.91 253.25 60.91Q250.59 61.91 247.29 61.91L247.29 61.91Q240.36 61.91 235.55 57.20ZM235.90 43.42L235.90 43.42L255.06 43.42Q254.64 38.39 252.11 36.30Q249.57 34.21 246.20 34.21L246.20 34.21Q242.47 34.21 239.59 36.83Q236.71 39.45 235.90 43.42ZM266.87 59.27L266.87 59.27Q266.87 57.13 269.72 57.09L269.72 57.09L275.55 57.09L275.55 34.84L269.72 34.84Q268.84 34.84 268.38 34.77Q267.93 34.70 267.40 34.15Q266.87 33.61 266.87 32.63L266.87 32.63Q266.87 30.48 269.72 30.45L269.72 30.45L277.66 30.45Q279.46 30.45 280.00 31.06Q280.55 31.68 280.55 33.40L280.55 33.40L280.55 35.86Q285.64 30.02 292.78 30.02L292.78 30.02Q294.86 30.02 296.33 30.50Q297.81 30.97 298.46 31.73Q299.11 32.48 299.36 33.17Q299.60 33.86 299.60 34.49L299.60 34.49Q299.60 35.86 298.71 36.72Q297.81 37.58 296.58 37.58L296.58 37.58Q295.28 37.58 294.42 36.65Q293.55 35.72 293.48 34.42L293.48 34.42Q287.37 34.42 283.96 38.48Q280.55 42.54 280.55 48.09L280.55 48.09L280.55 57.09L288.53 57.09Q291.48 57.09 291.48 59.34L291.48 59.34Q291.48 61.49 288.53 61.49L288.53 61.49L269.72 61.49Q268.84 61.49 268.38 61.42Q267.93 61.35 267.40 60.82Q266.87 60.29 266.87 59.27ZM341.37 59.34L341.37 59.34Q341.37 58.25 341.91 57.74Q342.46 57.23 343.09 57.16Q343.72 57.09 345.16 57.09L345.16 57.09L345.16 21.90Q343.72 21.90 343.09 21.83Q342.46 21.76 341.91 21.25Q341.37 20.74 341.37 19.65L341.37 19.65Q341.37 17.51 344.25 17.51L344.25 17.51L348.26 17.51Q351.07 17.51 351.81 19.23L351.81 19.23Q358.49 39.30 359.02 41.70L359.02 41.70L359.09 41.70Q359.58 39.23 361.02 34.91L361.02 34.91L365.84 20.39Q366.26 19.23 366.52 18.76Q366.79 18.28 367.54 17.89Q368.30 17.51 369.74 17.51L369.74 17.51L373.75 17.51Q376.63 17.51 376.63 19.65L376.63 19.65Q376.63 20.74 376.10 21.25Q375.57 21.76 374.92 21.83Q374.27 21.90 372.83 21.90L372.83 21.90L372.83 57.09Q374.27 57.09 374.92 57.16Q375.57 57.23 376.10 57.74Q376.63 58.25 376.63 59.34L376.63 59.34Q376.63 61.49 373.75 61.49L373.75 61.49L367.84 61.49Q364.99 61.49 364.99 59.38L364.99 59.38Q364.99 58.25 365.52 57.74Q366.05 57.23 366.70 57.16Q367.35 57.09 368.79 57.09L368.79 57.09L368.79 22.75L368.72 22.75Q368.37 24.47 366.59 29.99Q364.82 35.51 363.23 40.22Q361.65 44.93 361.51 45.21L361.51 45.21Q360.56 46.79 359.02 46.79L359.02 46.79Q357.64 46.79 356.84 45.70L356.84 45.70Q356.48 45.28 354.97 40.82L354.97 40.82Q354.90 40.68 354.08 38.09Q353.25 35.51 352.30 32.66Q351.35 29.81 350.46 26.86Q349.56 23.91 349.28 22.75L349.28 22.75L349.21 22.75L349.21 57.09Q350.65 57.09 351.30 57.16Q351.95 57.23 352.49 57.74Q353.04 58.25 353.04 59.34L353.04 59.34Q353.04 61.49 350.16 61.49L350.16 61.49L344.25 61.49Q341.37 61.49 341.37 59.34ZM382.04 45.95L382.04 45.95Q382.04 39.27 386.40 34.54Q390.76 29.81 396.81 29.81Q402.86 29.81 407.20 34.52Q411.54 39.23 411.54 45.93Q411.54 52.63 407.20 57.27Q402.86 61.91 396.81 61.91Q390.76 61.91 386.40 57.32Q382.04 52.73 382.04 45.95ZM387 45.42L387 45.42Q387 50.38 389.88 53.95Q392.77 57.52 396.79 57.52Q400.82 57.52 403.70 53.96Q406.58 50.41 406.58 45.42L406.58 45.42Q406.58 40.61 403.66 37.41Q400.75 34.21 396.79 34.21Q392.84 34.21 389.92 37.41Q387 40.61 387 45.42ZM418.32 46.02L418.32 46.02Q418.32 39.23 422.72 34.63Q427.11 30.02 433.09 30.02L433.09 30.02Q437.84 30.02 441.49 33.26L441.49 33.26L441.49 21.90L438.26 21.90Q435.38 21.90 435.38 19.72L435.38 19.72Q435.38 17.51 438.33 17.51L438.33 17.51L443.60 17.51Q445.39 17.51 445.92 18.11Q446.45 18.70 446.45 20.46L446.45 20.46L446.45 57.09L449.72 57.09Q452.60 57.09 452.60 59.27L452.60 59.27Q452.60 61.49 449.65 61.49L449.65 61.49L444.38 61.49Q442.37 61.49 441.93 60.77Q441.49 60.05 441.49 57.90L441.49 57.90Q437.63 61.91 432.53 61.91L432.53 61.91Q432.49 61.91 432.42 61.91L432.42 61.91Q426.66 61.91 422.49 57.27Q418.32 52.63 418.32 46.02ZM423.28 46.02L423.28 46.02Q423.28 50.77 426.06 54.14Q428.84 57.52 432.70 57.52L432.70 57.52Q436.54 57.52 439.01 54.25Q441.49 50.98 441.49 47.53L441.49 47.53L441.49 42.40Q441.49 39.30 439.12 36.86Q436.75 34.42 433.37 34.42L433.37 34.42Q429.40 34.42 426.34 37.74Q423.28 41.06 423.28 46.02ZM462.30 57.20Q457.49 52.49 457.49 45.86Q457.49 39.23 462.02 34.52Q466.56 29.81 472.96 29.81L472.96 29.81Q479.64 29.81 483.28 34.17Q486.91 38.53 486.91 45.07L486.91 45.07Q486.91 46.02 486.70 46.58Q486.49 47.14 486.02 47.41Q485.54 47.67 485.16 47.71Q484.77 47.74 484.03 47.74L484.03 47.74L462.59 47.74Q463.46 52.21 466.88 54.86Q470.29 57.52 474.54 57.52L474.54 57.52Q480.16 57.52 482.03 53.19L482.03 53.19Q482.38 52.17 482.89 51.89Q483.40 51.61 484.42 51.61L484.42 51.61Q486.91 51.61 486.91 53.58L486.91 53.58Q486.91 54.46 486.19 55.71Q485.47 56.95 484.07 58.43Q482.66 59.91 480.01 60.91Q477.35 61.91 474.05 61.91L474.05 61.91Q467.12 61.91 462.30 57.20ZM462.66 43.42L462.66 43.42L481.82 43.42Q481.39 38.39 478.86 36.30Q476.33 34.21 472.96 34.21L472.96 34.21Q469.23 34.21 466.35 36.83Q463.46 39.45 462.66 43.42ZM493.63 59.27L493.63 59.27Q493.63 57.13 496.48 57.09L496.48 57.09L502.31 57.09L502.31 34.84L496.48 34.84Q495.60 34.84 495.14 34.77Q494.68 34.70 494.16 34.15Q493.63 33.61 493.63 32.63L493.63 32.63Q493.63 30.48 496.48 30.45L496.48 30.45L504.42 30.45Q506.21 30.45 506.76 31.06Q507.30 31.68 507.30 33.40L507.30 33.40L507.30 35.86Q512.40 30.02 519.54 30.02L519.54 30.02Q521.61 30.02 523.09 30.50Q524.57 30.97 525.22 31.73Q525.87 32.48 526.11 33.17Q526.36 33.86 526.36 34.49L526.36 34.49Q526.36 35.86 525.46 36.72Q524.57 37.58 523.34 37.58L523.34 37.58Q522.04 37.58 521.17 36.65Q520.31 35.72 520.24 34.42L520.24 34.42Q514.13 34.42 510.71 38.48Q507.30 42.54 507.30 48.09L507.30 48.09L507.30 57.09L515.29 57.09Q518.24 57.09 518.24 59.34L518.24 59.34Q518.24 61.49 515.29 61.49L515.29 61.49L496.48 61.49Q495.60 61.49 495.14 61.42Q494.68 61.35 494.16 60.82Q493.63 60.29 493.63 59.27ZM529.98 59.34L529.98 59.34Q529.98 57.13 532.93 57.09L532.93 57.09L536.10 57.09L536.10 34.84L532.83 34.84Q529.95 34.84 529.98 32.70L529.98 32.70Q529.98 30.48 532.93 30.45L532.93 30.45L538.17 30.45Q540.18 30.45 540.62 31.13Q541.05 31.82 541.05 33.86L541.05 33.86Q544.89 30.02 550.48 30.02L550.48 30.02Q559.83 30.02 559.83 40.39L559.83 40.39L559.83 57.09L563.03 57.09Q565.98 57.09 565.98 59.34L565.98 59.34Q565.98 61.49 563.10 61.49L563.10 61.49L552.06 61.49Q549.11 61.49 549.11 59.34L549.11 59.34Q549.11 57.13 552.06 57.09L552.06 57.09L554.87 57.09L554.87 40.75Q554.87 37.37 553.83 35.89Q552.80 34.42 550.05 34.42L550.05 34.42Q546.75 34.42 543.90 36.93Q541.05 39.45 541.05 44.37L541.05 44.37L541.05 57.09L544.22 57.09Q547.17 57.09 547.17 59.34L547.17 59.34Q547.17 61.49 544.29 61.49L544.29 61.49L532.83 61.49Q529.98 61.49 529.98 59.34ZM606.55 25.70L606.55 25.70L606.55 20.46Q606.55 18.67 607.13 18.09Q607.71 17.51 609.50 17.51L609.50 17.51L637.66 17.51Q639.46 17.51 640.00 18.11Q640.55 18.70 640.55 20.46L640.55 20.46L640.55 25.70Q640.55 26.65 640.48 27.14Q640.41 27.63 639.79 28.14Q639.18 28.65 638.02 28.65L638.02 28.65Q636.36 28.65 635.98 27.90Q635.59 27.14 635.59 25.70L635.59 25.70L635.59 21.90L626.06 21.90L626.06 57.09L629.82 57.09Q630.70 57.09 631.16 57.16Q631.62 57.23 632.16 57.78Q632.71 58.32 632.71 59.34L632.71 59.34Q632.71 61.49 629.82 61.49L629.82 61.49L617.34 61.49Q616.46 61.49 616.01 61.42Q615.55 61.35 615.02 60.80Q614.50 60.26 614.50 59.27L614.50 59.27Q614.50 57.13 617.34 57.09L617.34 57.09L621.11 57.09L621.11 21.90L611.54 21.90L611.54 25.70Q611.54 26.65 611.46 27.14Q611.37 27.63 610.77 28.14Q610.17 28.65 609.01 28.65L609.01 28.65Q607.36 28.65 606.96 27.90Q606.55 27.14 606.55 25.70ZM644.34 32.70L644.34 32.70Q644.34 31.68 644.89 31.13Q645.43 30.59 645.91 30.52Q646.38 30.45 647.23 30.45L647.23 30.45L655.66 30.45Q656.54 30.45 657 30.52Q657.46 30.59 658.00 31.13Q658.55 31.68 658.55 32.70L658.55 32.70Q658.55 34.84 655.66 34.84L655.66 34.84L653.87 34.84L660.55 52.14Q661.92 55.86 662.06 56.39L662.06 56.39L662.13 56.39Q662.70 53.93 664.00 50.17L664.00 50.17L669.20 34.84L667.16 34.84Q666.28 34.84 665.82 34.77Q665.37 34.70 664.84 34.15Q664.31 33.61 664.31 32.63L664.31 32.63Q664.31 30.48 667.16 30.45L667.16 30.45L675.60 30.45Q676.48 30.45 676.93 30.52Q677.39 30.59 677.94 31.13Q678.48 31.68 678.48 32.70L678.48 32.70Q678.48 34.84 675.60 34.84L675.60 34.84L673.45 34.84L662.27 67.61Q661.99 68.41 661.75 69.05Q661.50 69.68 660.48 71.53Q659.46 73.37 658.35 74.60Q657.25 75.83 655.40 76.87Q653.55 77.91 651.55 77.91L651.55 77.91Q648.95 77.91 647.26 76.15Q645.57 74.39 645.57 72L645.57 72Q645.57 70.56 646.44 69.70Q647.30 68.84 648.74 68.84L648.74 68.84Q650.11 68.84 650.97 69.70Q651.83 70.56 651.83 71.93L651.83 71.93Q651.83 72.35 651.76 72.72Q651.69 73.09 651.55 73.30L651.55 73.30L651.48 73.51Q655.14 73.30 657.25 69.33L657.25 69.33Q657.67 68.52 658.35 66.59Q659.04 64.65 659.51 63.11Q659.99 61.56 659.99 61.49L659.99 61.49Q659.99 61.28 659.67 60.54L659.67 60.54L649.48 34.84L647.23 34.84Q644.34 34.84 644.34 32.70ZM681.15 75.30L681.15 75.30Q681.15 73.09 684.11 73.09L684.11 73.09L687.27 73.09L687.27 34.84L684 34.84Q681.12 34.84 681.15 32.70L681.15 32.70Q681.15 30.48 684.11 30.45L684.11 30.45L689.34 30.45Q691.21 30.45 691.72 31.10Q692.23 31.75 692.23 33.54L692.23 33.54Q696.13 30.02 701.37 30.02L701.37 30.02Q707.13 30.02 711.26 34.66Q715.39 39.30 715.39 45.95L715.39 45.95Q715.39 52.73 710.98 57.32Q706.57 61.91 700.59 61.91L700.59 61.91Q695.85 61.91 692.23 58.25L692.23 58.25L692.23 73.09L695.39 73.09Q698.34 73.09 698.34 75.30L698.34 75.30Q698.34 77.45 695.46 77.48L695.46 77.48L684 77.48Q681.15 77.45 681.15 75.30ZM692.23 42.47L692.23 47.74Q692.23 50.98 694.39 54.25Q696.55 57.52 700.35 57.52L700.35 57.52Q704.32 57.52 707.38 54.21Q710.44 50.91 710.44 45.95L710.44 45.95Q710.44 41.20 707.66 37.81Q704.88 34.42 700.95 34.42L700.95 34.42Q697.57 34.42 694.90 36.86Q692.23 39.30 692.23 42.47L692.23 42.47ZM726.86 57.20Q722.04 52.49 722.04 45.86Q722.04 39.23 726.57 34.52Q731.11 29.81 737.51 29.81L737.51 29.81Q744.19 29.81 747.83 34.17Q751.46 38.53 751.46 45.07L751.46 45.07Q751.46 46.02 751.25 46.58Q751.04 47.14 750.57 47.41Q750.09 47.67 749.71 47.71Q749.32 47.74 748.58 47.74L748.58 47.74L727.14 47.74Q728.02 52.21 731.43 54.86Q734.84 57.52 739.09 57.52L739.09 57.52Q744.71 57.52 746.58 53.19L746.58 53.19Q746.93 52.17 747.44 51.89Q747.95 51.61 748.97 51.61L748.97 51.61Q751.46 51.61 751.46 53.58L751.46 53.58Q751.46 54.46 750.74 55.71Q750.02 56.95 748.62 58.43Q747.21 59.91 744.56 60.91Q741.90 61.91 738.60 61.91L738.60 61.91Q731.67 61.91 726.86 57.20ZM727.21 43.42L727.21 43.42L746.37 43.42Q745.95 38.39 743.41 36.30Q740.88 34.21 737.51 34.21L737.51 34.21Q733.78 34.21 730.90 36.83Q728.02 39.45 727.21 43.42ZM757.02 32.63L757.02 32.63Q757.02 31.61 757.55 31.10Q758.07 30.59 758.58 30.52Q759.09 30.45 760.04 30.45L760.04 30.45L768.30 30.45Q769.25 30.45 769.76 30.52Q770.27 30.59 770.80 31.13Q771.33 31.68 771.33 32.68Q771.33 33.68 770.80 34.19Q770.27 34.70 769.76 34.77Q769.25 34.84 768.30 34.84L768.30 34.84L764.79 34.84L768.52 56.32L768.59 56.32Q768.80 55.30 770.29 50.08Q771.79 44.86 772.00 44.44L772.00 44.44Q772.80 42.86 774.88 42.86L774.88 42.86Q776.67 42.86 777.29 43.72Q777.90 44.58 778.89 48.16L778.89 48.16Q780.61 54.21 781.00 56.32L781.00 56.32L781.07 56.32L784.65 34.84L781.14 34.84Q780.19 34.84 779.70 34.77Q779.20 34.70 778.66 34.15Q778.11 33.61 778.11 32.61Q778.11 31.61 778.66 31.10Q779.20 30.59 779.70 30.52Q780.19 30.45 781.14 30.45L781.14 30.45L789.40 30.45Q790.35 30.45 790.86 30.52Q791.37 30.59 791.89 31.10Q792.42 31.61 792.42 32.63L792.42 32.63Q792.42 33.71 791.89 34.21Q791.37 34.70 790.75 34.77Q790.14 34.84 788.77 34.84L788.77 34.84L784.44 59.03Q784.23 60.05 784.09 60.52Q783.95 61.00 783.23 61.38Q782.51 61.77 781.28 61.77L781.28 61.77Q779.13 61.77 778.25 60.54L778.25 60.54Q777.90 59.73 776.53 55.00Q775.16 50.27 774.95 47.81L774.95 47.81L774.88 47.81Q774.46 50.84 772.77 56.74L772.77 56.74Q771.75 60.19 771.12 60.98Q770.48 61.77 768.38 61.77L768.38 61.77Q767.29 61.77 766.65 61.59Q766.02 61.42 765.69 60.98Q765.35 60.54 765.25 60.19Q765.14 59.84 765 59.03L765 59.03L760.68 34.84Q759.30 34.84 758.69 34.77Q758.07 34.70 757.55 34.21Q757.02 33.71 757.02 32.63ZM795.97 59.27L795.97 59.27Q795.97 57.13 798.82 57.09L798.82 57.09L804.66 57.09L804.66 34.84L798.82 34.84Q797.94 34.84 797.48 34.77Q797.03 34.70 796.50 34.15Q795.97 33.61 795.97 32.63L795.97 32.63Q795.97 30.48 798.82 30.45L798.82 30.45L806.77 30.45Q808.56 30.45 809.10 31.06Q809.65 31.68 809.65 33.40L809.65 33.40L809.65 35.86Q814.75 30.02 821.88 30.02L821.88 30.02Q823.96 30.02 825.43 30.50Q826.91 30.97 827.56 31.73Q828.21 32.48 828.46 33.17Q828.70 33.86 828.70 34.49L828.70 34.49Q828.70 35.86 827.81 36.72Q826.91 37.58 825.68 37.58L825.68 37.58Q824.38 37.58 823.52 36.65Q822.66 35.72 822.59 34.42L822.59 34.42Q816.47 34.42 813.06 38.48Q809.65 42.54 809.65 48.09L809.65 48.09L809.65 57.09L817.63 57.09Q820.58 57.09 820.58 59.34L820.58 59.34Q820.58 61.49 817.63 61.49L817.63 61.49L798.82 61.49Q797.94 61.49 797.48 61.42Q797.03 61.35 796.50 60.82Q795.97 60.29 795.97 59.27ZM837.07 59.34L837.07 59.34Q837.07 57.13 840.02 57.09L840.02 57.09L848.74 57.09L848.74 34.84L840.59 34.84Q837.63 34.84 837.63 32.63L837.63 32.63Q837.63 30.48 840.59 30.45L840.59 30.45L850.82 30.45Q852.61 30.45 853.15 31.06Q853.70 31.68 853.70 33.40L853.70 33.40L853.70 57.09L861.26 57.09Q864.21 57.09 864.21 59.34L864.21 59.34Q864.21 61.49 861.26 61.49L861.26 61.49L840.02 61.49Q837.07 61.49 837.07 59.34ZM847.53 23.57Q846.49 22.54 846.49 21.02Q846.49 19.51 847.53 18.47Q848.57 17.44 850.08 17.44Q851.59 17.44 852.64 18.47Q853.70 19.51 853.70 21.02Q853.70 22.54 852.64 23.57Q851.59 24.61 850.08 24.61Q848.57 24.61 847.53 23.57ZM871.03 32.70L871.03 32.70Q871.03 30.48 873.98 30.45L873.98 30.45L880.24 30.45L880.24 24.54Q880.24 23.59 880.31 23.10Q880.38 22.61 881.00 22.10Q881.61 21.59 882.77 21.59L882.77 21.59Q884.43 21.59 884.83 22.34Q885.23 23.10 885.23 24.54L885.23 24.54L885.23 30.45L897.05 30.45Q897.93 30.45 898.38 30.52Q898.84 30.59 899.37 31.13Q899.89 31.68 899.89 32.70L899.89 32.70Q899.89 34.84 897.05 34.84L897.05 34.84L885.23 34.84L885.23 52.00Q885.23 53.02 885.34 53.68Q885.45 54.35 885.90 55.41Q886.36 56.46 887.59 56.99Q888.82 57.52 890.75 57.52L890.75 57.52Q891.91 57.52 893.07 57.20Q894.23 56.88 895.41 55.62Q896.59 54.35 896.59 52.35L896.59 52.35Q896.59 51.54 896.70 51.05Q896.80 50.55 897.38 50.08Q897.96 49.61 899.05 49.61L899.05 49.61Q900.21 49.61 900.81 50.12Q901.41 50.63 901.49 51.08Q901.58 51.54 901.58 52.42L901.58 52.42Q901.58 56.88 898.19 59.40Q894.80 61.91 890.40 61.91Q886.01 61.91 883.13 59.57Q880.24 57.23 880.24 52.42L880.24 52.42L880.24 34.84L873.91 34.84Q871.03 34.84 871.03 32.70ZM915.82 57.20Q911.00 52.49 911.00 45.86Q911.00 39.23 915.54 34.52Q920.07 29.81 926.47 29.81L926.47 29.81Q933.15 29.81 936.79 34.17Q940.43 38.53 940.43 45.07L940.43 45.07Q940.43 46.02 940.22 46.58Q940.01 47.14 939.53 47.41Q939.06 47.67 938.67 47.71Q938.29 47.74 937.55 47.74L937.55 47.74L916.10 47.74Q916.98 52.21 920.39 54.86Q923.80 57.52 928.05 57.52L928.05 57.52Q933.68 57.52 935.54 53.19L935.54 53.19Q935.89 52.17 936.40 51.89Q936.91 51.61 937.93 51.61L937.93 51.61Q940.43 51.61 940.43 53.58L940.43 53.58Q940.43 54.46 939.71 55.71Q938.99 56.95 937.58 58.43Q936.18 59.91 933.52 60.91Q930.87 61.91 927.56 61.91L927.56 61.91Q920.64 61.91 915.82 57.20ZM916.17 43.42L916.17 43.42L935.33 43.42Q934.91 38.39 932.38 36.30Q929.85 34.21 926.47 34.21L926.47 34.21Q922.75 34.21 919.86 36.83Q916.98 39.45 916.17 43.42ZM947.14 59.27L947.14 59.27Q947.14 57.13 949.99 57.09L949.99 57.09L955.83 57.09L955.83 34.84L949.99 34.84Q949.11 34.84 948.66 34.77Q948.20 34.70 947.67 34.15Q947.14 33.61 947.14 32.63L947.14 32.63Q947.14 30.48 949.99 30.45L949.99 30.45L957.94 30.45Q959.73 30.45 960.28 31.06Q960.82 31.68 960.82 33.40L960.82 33.40L960.82 35.86Q965.92 30.02 973.05 30.02L973.05 30.02Q975.13 30.02 976.61 30.50Q978.08 30.97 978.73 31.73Q979.38 32.48 979.63 33.17Q979.88 33.86 979.88 34.49L979.88 34.49Q979.88 35.86 978.98 36.72Q978.08 37.58 976.85 37.58L976.85 37.58Q975.55 37.58 974.69 36.65Q973.83 35.72 973.76 34.42L973.76 34.42Q967.64 34.42 964.23 38.48Q960.82 42.54 960.82 48.09L960.82 48.09L960.82 57.09L968.80 57.09Q971.75 57.09 971.75 59.34L971.75 59.34Q971.75 61.49 968.80 61.49L968.80 61.49L949.99 61.49Q949.11 61.49 948.66 61.42Q948.20 61.35 947.67 60.82Q947.14 60.29 947.14 59.27Z"/></svg>