<?xml version="1.0" encoding="utf-8"?>
<!-- Generator: Adobe Illustrator 16.0.0, SVG Export Plug-In . SVG Version: 6.00 Build 0)  -->
<!DOCTYPE svg PUBLIC "-//W3C//DTD SVG 1.1//EN" "http://www.w3.org/Graphics/SVG/1.1/DTD/svg11.dtd">
<svg version="1.1" id="Layer_1" xmlns="http://www.w3.org/2000/svg" xmlns:xlink="http://www.w3.org/1999/xlink" x="0px" y="0px"
	 width="240.016px" height="138.516px" viewBox="-26.243 -34.652 240.016 138.516"
	 enable-background="new -26.243 -34.652 240.016 138.516" xml:space="preserve">
<path fill="#FF0000" d="M145.968,17.405"/>
<g>
	<path fill="#FF0000" d="M162.105,0c-8.768,0-14.711,3.928-18.033,7.151C140.746,3.929,134.802,0,126.037,0
		c-14.205,0-25.286,10.981-25.286,24.984c0,10.881,7.554,18.234,15.01,23.977c11.99,9.271,28.009,20.152,28.21,20.25l0,0l0,0
		c0.201-0.098,16.221-11.08,28.211-20.25c7.459-5.74,15.113-13.096,15.113-23.977C187.392,10.981,176.314,0,162.105,0z
		 M167.234,43.102c-7.98,6.129-17.809,13.041-23.162,16.736c-5.354-3.695-15.184-10.607-23.166-16.736
		c-8.564-6.617-11.873-11.584-11.873-17.715c0-9.733,7.688-17.326,17.617-17.326c9.926,0,17.422,11,17.422,11s7.203-11,17.422-11
		c9.828,0,17.611,7.592,17.611,17.326C179.105,31.518,175.798,36.485,167.234,43.102z"/>
</g>
<path fill="#FF0000" d="M57.848-0.5c-10.504,0-16.39,6.351-18.045,8.785C38.249,6.149,32.542-0.5,21.78-0.5
	C7.32-0.5-4.007,10.694-4.007,24.985c0,11.158,7.686,18.582,15.204,24.372c11.84,9.154,27.989,19.197,28.398,19.396l0.218,0.105
	l0.218-0.105c0.409-0.199,16.554-10.24,28.397-19.396c7.519-5.79,15.205-13.213,15.205-24.374C83.634,10.694,72.308-0.5,57.848-0.5z
	 M21.78,5.481c11.62,0,17.53,11.346,17.588,11.46l0.446,0.877l0.445-0.877C40.318,16.827,46.212,5.48,57.848,5.48
	c10.78,0,19.888,8.737,19.888,19.08c0,8.95-5.523,15.015-14.417,21.886c-0.176,0.123-17.407,12.15-23.504,16.364L16.329,46.46
	c-8.913-6.885-14.436-12.949-14.436-21.9C1.893,14.218,11,5.481,21.78,5.481z"/>
</svg>
