<?xml version="1.0" encoding="utf-8"?>
<!-- Generator: Adobe Illustrator 22.0.1, SVG Export Plug-In . SVG Version: 6.00 Build 0)  -->
<svg version="1.1" id="Layer_1" xmlns="http://www.w3.org/2000/svg" xmlns:xlink="http://www.w3.org/1999/xlink" x="0px" y="0px"
	 viewBox="0 0 10.5 15.2" style="enable-background:new 0 0 10.5 15.2;" xml:space="preserve">
<style type="text/css">
	.st0{fill:#999999;}
</style>
<path class="st0" d="M5.2,15.2c-0.3,0-0.5-0.1-0.7-0.3l-4.2-4.2c-0.4-0.4-0.4-1,0-1.4c0.4-0.4,1-0.4,1.4,0l3.5,3.5l3.5-3.5
	c0.4-0.4,1-0.4,1.4,0c0.4,0.4,0.4,1,0,1.4l-4.2,4.2C5.8,15.1,5.5,15.2,5.2,15.2L5.2,15.2z"/>
<path class="st0" d="M5.2,0c0.3,0,0.5,0.1,0.7,0.3l4.2,4.2c0.4,0.4,0.4,1,0,1.4c-0.4,0.4-1,0.4-1.4,0L5.2,2.4L1.7,6
	c-0.4,0.4-1,0.4-1.4,0c-0.4-0.4-0.4-1,0-1.4l4.2-4.2C4.7,0.1,5,0,5.2,0L5.2,0z"/>
</svg>
