<?xml version="1.0" encoding="UTF-8"?>
<svg xmlns="http://www.w3.org/2000/svg" xmlns:xlink="http://www.w3.org/1999/xlink" width="407.52" height="72.00000000000001" viewBox="0 -13.999999999999993 407.52 100" preserveAspectRatio="xMinYMid meet"><path d="M4.32 59.83L4.32 10.15L17.21 10.15Q23.26 10.15 26.93 13.90Q30.60 17.64 30.60 25.20L30.60 25.20L30.60 44.78Q30.60 52.27 26.93 56.05Q23.26 59.83 17.21 59.83L17.21 59.83L4.32 59.83ZM9.58 55.15L17.21 55.15Q21.10 55.15 23.22 52.56Q25.34 49.97 25.34 44.86L25.34 44.86L25.34 25.70Q25.34 20.23 23.26 17.53Q21.17 14.83 17.21 14.83L17.21 14.83L9.58 14.83L9.58 55.15ZM51.26 59.83L51.26 10.15L64.15 10.15Q70.20 10.15 73.87 13.90Q77.54 17.64 77.54 25.20L77.54 25.20L77.54 44.78Q77.54 52.27 73.87 56.05Q70.20 59.83 64.15 59.83L64.15 59.83L51.26 59.83ZM56.52 55.15L64.15 55.15Q68.04 55.15 70.16 52.56Q72.29 49.97 72.29 44.86L72.29 44.86L72.29 25.70Q72.29 20.23 70.20 17.53Q68.11 14.83 64.15 14.83L64.15 14.83L56.52 14.83L56.52 55.15ZM85.97 59.83L85.97 22.61L90.86 22.61L90.86 59.83L85.97 59.83ZM85.97 16.70L85.97 10.22L90.94 10.22L90.94 16.70L85.97 16.70ZM99.86 59.83L99.86 22.61L104.62 22.61L104.62 25.99Q105.70 24.19 107.64 23.11Q109.58 22.03 111.96 22.03L111.96 22.03Q116.42 22.03 118.87 24.91Q121.32 27.79 121.32 32.90L121.32 32.90L121.32 59.83L116.42 59.83L116.42 33.12Q116.42 29.88 114.84 28.15Q113.26 26.42 110.59 26.42L110.59 26.42Q108.00 26.42 106.38 28.19Q104.76 29.95 104.76 33.12L104.76 33.12L104.76 59.83L99.86 59.83ZM155.52 60.41Q149.40 60.41 145.66 56.63Q141.91 52.85 141.91 45.36L141.91 45.36L141.91 24.62Q141.91 17.06 145.62 13.28Q149.33 9.50 155.45 9.50L155.45 9.50Q161.35 9.50 165.10 13.10Q168.84 16.70 168.84 23.98L168.84 23.98L168.84 24.62L163.58 24.62L163.58 24.12Q163.58 19.01 161.39 16.63Q159.19 14.26 155.52 14.26L155.52 14.26Q151.34 14.26 149.26 16.88Q147.17 19.51 147.17 25.13L147.17 25.13L147.17 45.43Q147.17 55.66 155.52 55.66L155.52 55.66Q159.26 55.66 161.42 53.28Q163.58 50.90 163.58 46.01L163.58 46.01L163.58 45.36L168.70 45.36L168.70 46.08Q168.70 53.28 165.02 56.84Q161.35 60.41 155.52 60.41L155.52 60.41ZM187.42 60.41Q182.09 60.41 179.14 57.35Q176.18 54.29 176.18 47.74L176.18 47.74L176.18 34.70Q176.18 28.15 179.14 25.09Q182.09 22.03 187.42 22.03L187.42 22.03Q192.60 22.03 195.52 25.13Q198.43 28.22 198.43 34.70L198.43 34.70L198.43 47.74Q198.43 54.22 195.52 57.31Q192.60 60.41 187.42 60.41L187.42 60.41ZM187.34 56.02Q190.37 56.02 191.95 53.96Q193.54 51.91 193.54 47.16L193.54 47.16L193.54 35.28Q193.54 30.53 191.95 28.48Q190.37 26.42 187.34 26.42Q184.32 26.42 182.70 28.44Q181.08 30.46 181.08 35.28L181.08 35.28L181.08 47.16Q181.08 51.98 182.70 54.00Q184.32 56.02 187.34 56.02ZM206.28 59.83L206.28 22.61L211.03 22.61L211.03 25.99Q212.11 24.19 214.06 23.11Q216 22.03 218.38 22.03L218.38 22.03Q222.84 22.03 225.29 24.91Q227.74 27.79 227.74 32.90L227.74 32.90L227.74 59.83L222.84 59.83L222.84 33.12Q222.84 29.88 221.26 28.15Q219.67 26.42 217.01 26.42L217.01 26.42Q214.42 26.42 212.80 28.19Q211.18 29.95 211.18 33.12L211.18 33.12L211.18 59.83L206.28 59.83ZM245.38 60.41Q240.98 60.41 238.28 57.28Q235.58 54.14 235.58 47.74L235.58 47.74L235.58 34.70Q235.58 28.30 238.28 25.16Q240.98 22.03 245.38 22.03L245.38 22.03Q250.06 22.03 252.50 26.21L252.50 26.21L252.50 10.15L257.40 10.15L257.40 59.83L252.50 59.83L252.50 56.45Q250.06 60.41 245.38 60.41L245.38 60.41ZM246.31 56.02Q249.34 56.02 250.92 53.78Q252.50 51.55 252.50 47.23L252.50 47.23L252.50 35.35Q252.50 26.42 246.31 26.42L246.31 26.42Q240.48 26.42 240.48 35.28L240.48 35.28L240.48 47.16Q240.48 51.91 241.96 53.96Q243.43 56.02 246.31 56.02L246.31 56.02ZM287.42 42.70L270.14 42.70L270.14 47.09Q270.14 51.98 271.84 54.07Q273.53 56.16 276.62 56.16L276.62 56.16Q282.53 56.16 282.53 48.74L282.53 48.74L282.53 48.46L287.35 48.46L287.35 48.67Q287.35 54.50 284.51 57.46Q281.66 60.41 276.48 60.41L276.48 60.41Q265.25 60.41 265.25 47.16L265.25 47.16L265.25 35.14Q265.25 28.66 268.16 25.34Q271.08 22.03 276.26 22.03Q281.45 22.03 284.44 25.34Q287.42 28.66 287.42 35.14L287.42 35.14L287.42 42.70ZM276.34 26.42Q273.31 26.42 271.73 28.48Q270.14 30.53 270.14 35.28L270.14 35.28L270.14 38.95L282.60 38.95L282.60 35.14Q282.60 30.46 280.98 28.44Q279.36 26.42 276.34 26.42ZM295.27 59.83L295.27 22.61L300.02 22.61L300.02 25.99Q301.10 24.19 303.05 23.11Q304.99 22.03 307.37 22.03L307.37 22.03Q311.83 22.03 314.28 24.91Q316.73 27.79 316.73 32.90L316.73 32.90L316.73 59.83L311.83 59.83L311.83 33.12Q311.83 29.88 310.25 28.15Q308.66 26.42 306 26.42L306 26.42Q303.41 26.42 301.79 28.19Q300.17 29.95 300.17 33.12L300.17 33.12L300.17 59.83L295.27 59.83ZM334.73 60.41Q329.69 60.41 326.77 57.56Q323.86 54.72 323.86 49.82L323.86 49.82L323.86 49.39L328.39 49.39L328.39 49.82Q328.39 52.85 330.12 54.47Q331.85 56.09 334.87 56.09L334.87 56.09Q337.68 56.09 339.37 54.61Q341.06 53.14 341.06 50.11L341.06 50.11Q341.06 47.74 339.91 46.37Q338.76 45.00 336.02 43.85L336.02 43.85L331.34 41.90Q324.22 38.95 324.22 32.18L324.22 32.18Q324.22 27.58 327.13 24.80Q330.05 22.03 334.94 22.03Q339.84 22.03 342.68 24.84Q345.53 27.65 345.53 32.40L345.53 32.40L345.53 33.34L340.99 33.34L340.99 32.90Q340.99 29.74 339.41 28.01Q337.82 26.28 334.87 26.28L334.87 26.28Q332.21 26.28 330.66 27.76Q329.11 29.23 329.11 31.82L329.11 31.82Q329.11 33.77 330.12 35.21Q331.13 36.65 333.65 37.73L333.65 37.73L338.33 39.67Q342.14 41.26 344.05 43.49Q345.96 45.72 345.96 49.75L345.96 49.75Q345.96 54.79 342.97 57.60Q339.98 60.41 334.73 60.41L334.73 60.41ZM374.26 42.70L356.98 42.70L356.98 47.09Q356.98 51.98 358.67 54.07Q360.36 56.16 363.46 56.16L363.46 56.16Q369.36 56.16 369.36 48.74L369.36 48.74L369.36 48.46L374.18 48.46L374.18 48.67Q374.18 54.50 371.34 57.46Q368.50 60.41 363.31 60.41L363.31 60.41Q352.08 60.41 352.08 47.16L352.08 47.16L352.08 35.14Q352.08 28.66 355.00 25.34Q357.91 22.03 363.10 22.03Q368.28 22.03 371.27 25.34Q374.26 28.66 374.26 35.14L374.26 35.14L374.26 42.70ZM363.17 26.42Q360.14 26.42 358.56 28.48Q356.98 30.53 356.98 35.28L356.98 35.28L356.98 38.95L369.43 38.95L369.43 35.14Q369.43 30.46 367.81 28.44Q366.19 26.42 363.17 26.42ZM391.25 60.41Q386.86 60.41 384.16 57.28Q381.46 54.14 381.46 47.74L381.46 47.74L381.46 34.70Q381.46 28.30 384.16 25.16Q386.86 22.03 391.25 22.03L391.25 22.03Q395.93 22.03 398.38 26.21L398.38 26.21L398.38 10.15L403.27 10.15L403.27 59.83L398.38 59.83L398.38 56.45Q395.93 60.41 391.25 60.41L391.25 60.41ZM392.18 56.02Q395.21 56.02 396.79 53.78Q398.38 51.55 398.38 47.23L398.38 47.23L398.38 35.35Q398.38 26.42 392.18 26.42L392.18 26.42Q386.35 26.42 386.35 35.28L386.35 35.28L386.35 47.16Q386.35 51.91 387.83 53.96Q389.30 56.02 392.18 56.02L392.18 56.02Z"/></svg>