<?xml version="1.0" encoding="UTF-8"?>
<svg xmlns="http://www.w3.org/2000/svg" xmlns:xlink="http://www.w3.org/1999/xlink" width="153.72000000000003" height="86.4" viewBox="0 -6.799999999999997 153.72000000000003 100" preserveAspectRatio="xMinYMid meet"><path d="M2.59 51.41L2.59 51.41L7.78 51.41Q7.99 54.43 9.58 56.81Q11.16 59.18 13.93 60.55Q16.70 61.92 20.45 61.92L20.45 61.92Q23.69 61.92 25.88 60.95Q28.08 59.98 29.20 58.25Q30.31 56.52 30.31 54.22L30.31 54.22Q30.31 51.84 29.16 50.40Q28.01 48.96 25.85 47.95Q23.69 46.94 20.74 46.01L20.74 46.01Q17.93 45.14 15.05 43.99Q12.17 42.84 9.68 41.18Q7.20 39.53 5.69 37.19Q4.18 34.85 4.18 31.54L4.18 31.54Q4.18 28.30 5.94 25.45Q7.70 22.61 11.12 20.84Q14.54 19.08 19.37 19.08L19.37 19.08Q26.93 19.08 30.67 23.18Q34.42 27.29 34.27 34.06L34.27 34.06L29.09 34.06Q28.94 28.94 26.21 26.71Q23.47 24.48 19.08 24.48L19.08 24.48Q15.41 24.48 12.67 26.17Q9.94 27.86 9.94 31.46L9.94 31.46Q9.94 33.05 10.55 34.24Q11.16 35.42 12.56 36.43Q13.97 37.44 16.38 38.41Q18.79 39.38 22.32 40.54L22.32 40.54Q24.62 41.26 27.04 42.26Q29.45 43.27 31.50 44.78Q33.55 46.30 34.81 48.64Q36.07 50.98 36.07 54.50L36.07 54.50Q36.07 57.89 34.45 60.80Q32.83 63.72 29.41 65.52Q25.99 67.32 20.59 67.32L20.59 67.32Q15.98 67.32 12.71 66.06Q9.43 64.80 7.34 62.78Q5.26 60.77 4.14 58.57Q3.02 56.38 2.66 54.43Q2.30 52.49 2.59 51.41ZM54.43 66.60L40.39 30.60L46.58 30.60L59.47 65.16L54.43 66.60ZM67.75 30.60L73.87 30.60L53.78 81.00L47.52 81.00L56.23 61.56L67.75 30.60ZM79.99 66.60L79.99 30.60L85.75 30.60L85.75 66.60L79.99 66.60ZM98.14 29.88L98.14 29.88Q101.02 29.88 103.32 30.74Q105.62 31.61 107.21 33.26Q108.79 34.92 109.66 37.26Q110.52 39.60 110.52 42.55L110.52 42.55L110.52 66.60L104.76 66.60L104.76 43.99Q104.76 39.82 102.82 37.73Q100.87 35.64 96.98 35.64L96.98 35.64Q94.03 35.64 91.51 37.15Q88.99 38.66 87.37 41.29Q85.75 43.92 85.39 47.38L85.39 47.38L85.32 43.20Q85.68 40.18 86.80 37.73Q87.91 35.28 89.60 33.52Q91.30 31.75 93.49 30.82Q95.69 29.88 98.14 29.88ZM145.37 55.01L145.37 55.01L150.77 55.01Q150.19 58.54 148.21 61.31Q146.23 64.08 143.03 65.70Q139.82 67.32 135.65 67.32L135.65 67.32Q130.61 67.32 126.58 64.91Q122.54 62.50 120.20 58.28Q117.86 54.07 117.86 48.67L117.86 48.67Q117.86 43.27 120.13 39.02Q122.40 34.78 126.36 32.33Q130.32 29.88 135.29 29.88L135.29 29.88Q140.54 29.88 144.18 32.22Q147.82 34.56 149.58 39.06Q151.34 43.56 150.98 50.11L150.98 50.11L123.62 50.11Q123.98 53.64 125.57 56.30Q127.15 58.97 129.74 60.44Q132.34 61.92 135.65 61.92L135.65 61.92Q139.32 61.92 141.88 60.01Q144.43 58.10 145.37 55.01ZM135.50 35.28L135.50 35.28Q131.04 35.28 128.02 37.87Q124.99 40.46 123.98 44.93L123.98 44.93L145.08 44.93Q144.79 40.18 142.02 37.73Q139.25 35.28 135.50 35.28Z"/></svg>