<?xml version="1.0" encoding="UTF-8"?>
<svg xmlns="http://www.w3.org/2000/svg" xmlns:xlink="http://www.w3.org/1999/xlink" width="864.0000000000003" height="75.528" viewBox="0 -12.235999999999997 864.0000000000003 100" preserveAspectRatio="xMinYMid meet"><path d="M34.78 61.85L6.84 61.85L6.84 57.38L17.93 57.38L17.93 21.46L7.42 21.46L7.42 16.99L34.27 16.99L34.27 21.46L23.33 21.46L23.33 57.46L34.78 57.46L34.78 61.85ZM54.43 61.85L49.10 61.85L49.10 28.94L54.43 28.94L54.43 34.92Q55.80 32.98 57.89 31.46Q59.98 29.95 62.71 29.05Q65.45 28.15 68.62 28.15L68.62 28.15Q72.14 28.15 74.84 29.56Q77.54 30.96 79.16 34.02Q80.78 37.08 80.78 42.05L80.78 42.05L80.78 61.85L75.38 61.85L75.38 42.19Q75.38 38.74 74.38 36.68Q73.37 34.63 71.46 33.73Q69.55 32.83 66.89 32.83L66.89 32.83Q64.58 32.83 62.39 33.55Q60.19 34.27 58.39 35.60Q56.59 36.94 55.51 38.81Q54.43 40.68 54.43 43.06L54.43 43.06L54.43 61.85ZM110.95 62.64L110.95 62.64Q106.63 62.64 103.00 61.38Q99.36 60.12 96.73 57.82Q94.10 55.51 92.63 52.38Q91.15 49.25 91.15 45.43L91.15 45.43Q91.15 41.69 92.63 38.56Q94.10 35.42 96.73 33.12Q99.36 30.82 103.00 29.56Q106.63 28.30 110.88 28.30L110.88 28.30Q115.70 28.30 119.56 29.92Q123.41 31.54 125.78 34.42L125.78 34.42L122.40 37.73L121.90 38.23L121.54 37.87Q121.54 37.30 121.25 36.83Q120.96 36.36 120.10 35.57L120.10 35.57Q118.01 34.06 115.56 33.44Q113.11 32.83 110.16 32.83L110.16 32.83Q107.64 32.83 105.26 33.66Q102.89 34.49 100.98 36.07Q99.07 37.66 97.92 39.92Q96.77 42.19 96.77 45.07L96.77 45.07Q96.77 47.95 97.92 50.29Q99.07 52.63 101.05 54.32Q103.03 56.02 105.70 56.95Q108.36 57.89 111.31 57.89L111.31 57.89Q113.26 57.89 115.20 57.38Q117.14 56.88 118.91 55.94Q120.67 55.01 122.04 53.71L122.04 53.71L125.21 57.46Q122.26 60.05 118.66 61.34Q115.06 62.64 110.95 62.64L110.95 62.64ZM151.13 62.42L151.13 62.42Q145.80 62.42 141.66 60.26Q137.52 58.10 135.22 54.25Q132.91 50.40 132.91 45.36L132.91 45.36Q132.91 40.32 135.22 36.47Q137.52 32.62 141.66 30.42Q145.80 28.22 151.13 28.22L151.13 28.22Q156.53 28.22 160.60 30.42Q164.66 32.62 166.97 36.47Q169.27 40.32 169.27 45.36L169.27 45.36Q169.27 50.40 166.97 54.25Q164.66 58.10 160.60 60.26Q156.53 62.42 151.13 62.42ZM151.13 57.96L151.13 57.96Q154.80 57.96 157.57 56.34Q160.34 54.72 161.93 51.88Q163.51 49.03 163.51 45.29L163.51 45.29Q163.51 41.47 161.93 38.66Q160.34 35.86 157.57 34.27Q154.80 32.69 151.13 32.69L151.13 32.69Q147.60 32.69 144.76 34.27Q141.91 35.86 140.29 38.66Q138.67 41.47 138.67 45.29L138.67 45.29Q138.67 49.03 140.29 51.88Q141.91 54.72 144.76 56.34Q147.60 57.96 151.13 57.96ZM184.03 61.85L178.70 61.85L178.70 28.94L184.03 28.94L184.03 34.92Q185.40 32.98 187.49 31.46Q189.58 29.95 192.31 29.05Q195.05 28.15 198.22 28.15L198.22 28.15Q201.74 28.15 204.44 29.56Q207.14 30.96 208.76 34.02Q210.38 37.08 210.38 42.05L210.38 42.05L210.38 61.85L204.98 61.85L204.98 42.19Q204.98 38.74 203.98 36.68Q202.97 34.63 201.06 33.73Q199.15 32.83 196.49 32.83L196.49 32.83Q194.18 32.83 191.99 33.55Q189.79 34.27 187.99 35.60Q186.19 36.94 185.11 38.81Q184.03 40.68 184.03 43.06L184.03 43.06L184.03 61.85ZM237.74 62.57L237.74 62.57Q234.22 62.57 231.30 61.99Q228.38 61.42 225.83 60.23Q223.27 59.04 221.04 57.31L221.04 57.31L224.28 52.49L224.71 51.84L225.14 52.13Q225.29 52.70 225.50 53.24Q225.72 53.78 226.58 54.58L226.58 54.58Q228.46 56.16 231.12 57.13Q233.78 58.10 237.89 58.10L237.89 58.10Q241.20 58.10 243.58 57.46Q245.95 56.81 247.28 55.66Q248.62 54.50 248.62 52.99L248.62 52.99Q248.62 51.91 248.04 51.08Q247.46 50.26 246.20 49.57Q244.94 48.89 242.93 48.20Q240.91 47.52 237.96 46.80L237.96 46.80Q233.28 45.72 229.93 44.32Q226.58 42.91 224.86 41.00Q223.13 39.10 223.13 36.58L223.13 36.58Q223.13 34.06 224.75 32.18Q226.37 30.31 229.61 29.23Q232.85 28.15 237.60 28.15L237.60 28.15Q240.55 28.15 242.82 28.48Q245.09 28.80 246.96 29.48Q248.83 30.17 250.34 31.14Q251.86 32.11 253.37 33.41L253.37 33.41L249.98 37.01L249.48 37.58L249.12 37.22Q249.12 36.65 248.80 36.18Q248.47 35.71 247.61 34.99L247.61 34.99Q245.66 33.70 243.11 33.01Q240.55 32.33 237.82 32.33L237.82 32.33Q233.86 32.33 231.23 33.30Q228.60 34.27 228.60 36.29L228.60 36.29Q228.60 37.44 229.68 38.45Q230.76 39.46 233.39 40.46Q236.02 41.47 240.48 42.48L240.48 42.48Q245.38 43.78 248.36 45.11Q251.35 46.44 252.68 48.17Q254.02 49.90 254.02 52.34L254.02 52.34Q254.02 55.15 252.25 57.49Q250.49 59.83 246.85 61.20Q243.22 62.57 237.74 62.57L237.74 62.57ZM280.73 62.42L280.73 62.42Q275.40 62.42 271.26 60.26Q267.12 58.10 264.82 54.25Q262.51 50.40 262.51 45.36L262.51 45.36Q262.51 40.32 264.82 36.47Q267.12 32.62 271.26 30.42Q275.40 28.22 280.73 28.22L280.73 28.22Q286.13 28.22 290.20 30.42Q294.26 32.62 296.57 36.47Q298.87 40.32 298.87 45.36L298.87 45.36Q298.87 50.40 296.57 54.25Q294.26 58.10 290.20 60.26Q286.13 62.42 280.73 62.42ZM280.73 57.96L280.73 57.96Q284.40 57.96 287.17 56.34Q289.94 54.72 291.53 51.88Q293.11 49.03 293.11 45.29L293.11 45.29Q293.11 41.47 291.53 38.66Q289.94 35.86 287.17 34.27Q284.40 32.69 280.73 32.69L280.73 32.69Q277.20 32.69 274.36 34.27Q271.51 35.86 269.89 38.66Q268.27 41.47 268.27 45.29L268.27 45.29Q268.27 49.03 269.89 51.88Q271.51 54.72 274.36 56.34Q277.20 57.96 280.73 57.96ZM338.76 61.85L309.24 61.85L309.24 57.46L321.26 57.46L321.26 18.36L309.74 18.36L309.74 13.97L326.81 13.97L326.81 57.46L338.76 57.46L338.76 61.85ZM363.89 62.64L363.89 62.64Q357.12 62.64 353.48 60.08Q349.85 57.53 349.85 53.57L349.85 53.57Q349.85 50.90 351.40 48.78Q352.94 46.66 355.68 45.14Q358.42 43.63 362.05 42.84Q365.69 42.05 369.72 42.05L369.72 42.05Q371.23 42.05 372.85 42.08Q374.47 42.12 376.27 42.26Q378.07 42.41 379.87 42.62L379.87 42.62L380.02 46.73Q378.50 46.51 376.78 46.40Q375.05 46.30 373.39 46.19Q371.74 46.08 370.30 46.08L370.30 46.08Q367.13 46.08 364.46 46.51Q361.80 46.94 359.75 47.81Q357.70 48.67 356.54 50.04Q355.39 51.41 355.39 53.28L355.39 53.28Q355.39 54.72 356.15 55.73Q356.90 56.74 358.16 57.35Q359.42 57.96 361.04 58.25Q362.66 58.54 364.46 58.54L364.46 58.54Q367.85 58.54 370.58 57.64Q373.32 56.74 375.30 55.04Q377.28 53.35 378.29 50.87Q379.30 48.38 379.30 45.14L379.30 45.14Q379.22 40.25 377.71 37.55Q376.20 34.85 373.36 33.70Q370.51 32.54 366.26 32.54L366.26 32.54Q363.46 32.54 360.68 33.41Q357.91 34.27 355.61 36.14L355.61 36.14L352.66 32.83Q355.39 30.53 359.03 29.38Q362.66 28.22 366.70 28.22L366.70 28.22Q370.66 28.22 373.82 29.02Q376.99 29.81 379.30 31.64Q381.60 33.48 382.86 36.58Q384.12 39.67 384.12 44.35L384.12 44.35L384.12 61.85L378.29 61.85L378.29 56.81Q377.14 58.61 375.41 59.76Q373.68 60.91 371.66 61.52Q369.65 62.14 367.63 62.39Q365.62 62.64 363.89 62.64ZM414.36 62.42L414.36 62.42Q410.54 62.42 408.17 61.34Q405.79 60.26 404.57 57.96Q403.34 55.66 402.98 52.20Q402.62 48.74 402.84 43.99L402.84 43.99L403.85 20.52L409.61 19.87L410.33 19.80L410.40 20.30Q410.04 20.81 409.79 21.31Q409.54 21.82 409.39 23.04L409.39 23.04L408.60 31.18L408.82 32.47L408.24 44.35Q407.95 49.82 408.60 52.78Q409.25 55.73 410.87 56.84Q412.49 57.96 415.30 57.96L415.30 57.96Q418.18 57.96 420.48 56.99Q422.78 56.02 425.16 54.58L425.16 54.58L426.89 58.82Q423.94 60.62 420.84 61.52Q417.74 62.42 414.36 62.42L414.36 62.42ZM394.70 33.41L394.70 28.94L422.86 28.94L422.86 33.41L394.70 33.41ZM450.29 62.64L450.29 62.64Q443.52 62.64 439.88 60.08Q436.25 57.53 436.25 53.57L436.25 53.57Q436.25 50.90 437.80 48.78Q439.34 46.66 442.08 45.14Q444.82 43.63 448.45 42.84Q452.09 42.05 456.12 42.05L456.12 42.05Q457.63 42.05 459.25 42.08Q460.87 42.12 462.67 42.26Q464.47 42.41 466.27 42.62L466.27 42.62L466.42 46.73Q464.90 46.51 463.18 46.40Q461.45 46.30 459.79 46.19Q458.14 46.08 456.70 46.08L456.70 46.08Q453.53 46.08 450.86 46.51Q448.20 46.94 446.15 47.81Q444.10 48.67 442.94 50.04Q441.79 51.41 441.79 53.28L441.79 53.28Q441.79 54.72 442.55 55.73Q443.30 56.74 444.56 57.35Q445.82 57.96 447.44 58.25Q449.06 58.54 450.86 58.54L450.86 58.54Q454.25 58.54 456.98 57.64Q459.72 56.74 461.70 55.04Q463.68 53.35 464.69 50.87Q465.70 48.38 465.70 45.14L465.70 45.14Q465.62 40.25 464.11 37.55Q462.60 34.85 459.76 33.70Q456.91 32.54 452.66 32.54L452.66 32.54Q449.86 32.54 447.08 33.41Q444.31 34.27 442.01 36.14L442.01 36.14L439.06 32.83Q441.79 30.53 445.43 29.38Q449.06 28.22 453.10 28.22L453.10 28.22Q457.06 28.22 460.22 29.02Q463.39 29.81 465.70 31.64Q468.00 33.48 469.26 36.58Q470.52 39.67 470.52 44.35L470.52 44.35L470.52 61.85L464.69 61.85L464.69 56.81Q463.54 58.61 461.81 59.76Q460.08 60.91 458.06 61.52Q456.05 62.14 454.03 62.39Q452.02 62.64 450.29 62.64ZM556.42 61.85L523.37 61.85L523.37 16.92L556.63 16.92L556.63 21.53L528.48 21.53L528.48 36.07L551.88 36.07L551.88 40.82L528.48 40.82L528.48 57.24L556.42 57.24L556.42 61.85ZM572.18 61.85L565.49 61.85L579.60 45.14L565.70 28.94L572.18 28.94L582.98 41.33L593.35 28.94L599.40 28.94L586.37 44.93L601.13 61.85L594.36 61.85L582.98 48.82L572.18 61.85ZM615.38 73.87L609.84 73.87L609.84 28.94L615.31 28.94L615.31 35.28Q616.39 32.90 618.37 31.32Q620.35 29.74 622.98 28.98Q625.61 28.22 628.49 28.22L628.49 28.22Q631.80 28.22 634.75 29.23Q637.70 30.24 639.97 32.33Q642.24 34.42 643.57 37.58Q644.90 40.75 644.90 45.14L644.90 45.14Q644.90 49.54 643.50 52.85Q642.10 56.16 639.72 58.36Q637.34 60.55 634.39 61.63Q631.44 62.71 628.34 62.71L628.34 62.71Q625.61 62.71 623.09 62.06Q620.57 61.42 618.59 60.19Q616.61 58.97 615.38 57.38L615.38 57.38L615.38 73.87ZM627.26 57.96L627.26 57.96Q629.35 57.96 631.44 57.38Q633.53 56.81 635.29 55.40Q637.06 54.00 638.14 51.55Q639.22 49.10 639.22 45.36L639.22 45.36Q639.22 41.33 637.81 38.59Q636.41 35.86 633.96 34.42Q631.51 32.98 628.20 32.83L628.20 32.83Q625.82 32.69 623.52 33.37Q621.22 34.06 619.34 35.71Q617.47 37.37 616.39 40.03Q615.31 42.70 615.31 46.51L615.31 46.51Q615.38 48.82 616.03 50.69Q616.68 52.56 617.80 53.93Q618.91 55.30 620.39 56.20Q621.86 57.10 623.63 57.53Q625.39 57.96 627.26 57.96ZM666.29 62.64L666.29 62.64Q659.52 62.64 655.88 60.08Q652.25 57.53 652.25 53.57L652.25 53.57Q652.25 50.90 653.80 48.78Q655.34 46.66 658.08 45.14Q660.82 43.63 664.45 42.84Q668.09 42.05 672.12 42.05L672.12 42.05Q673.63 42.05 675.25 42.08Q676.87 42.12 678.67 42.26Q680.47 42.41 682.27 42.62L682.27 42.62L682.42 46.73Q680.90 46.51 679.18 46.40Q677.45 46.30 675.79 46.19Q674.14 46.08 672.70 46.08L672.70 46.08Q669.53 46.08 666.86 46.51Q664.20 46.94 662.15 47.81Q660.10 48.67 658.94 50.04Q657.79 51.41 657.79 53.28L657.79 53.28Q657.79 54.72 658.55 55.73Q659.30 56.74 660.56 57.35Q661.82 57.96 663.44 58.25Q665.06 58.54 666.86 58.54L666.86 58.54Q670.25 58.54 672.98 57.64Q675.72 56.74 677.70 55.04Q679.68 53.35 680.69 50.87Q681.70 48.38 681.70 45.14L681.70 45.14Q681.62 40.25 680.11 37.55Q678.60 34.85 675.76 33.70Q672.91 32.54 668.66 32.54L668.66 32.54Q665.86 32.54 663.08 33.41Q660.31 34.27 658.01 36.14L658.01 36.14L655.06 32.83Q657.79 30.53 661.43 29.38Q665.06 28.22 669.10 28.22L669.10 28.22Q673.06 28.22 676.22 29.02Q679.39 29.81 681.70 31.64Q684.00 33.48 685.26 36.58Q686.52 39.67 686.52 44.35L686.52 44.35L686.52 61.85L680.69 61.85L680.69 56.81Q679.54 58.61 677.81 59.76Q676.08 60.91 674.06 61.52Q672.05 62.14 670.03 62.39Q668.02 62.64 666.29 62.64ZM702.43 61.85L697.10 61.85L697.10 28.94L702.43 28.94L702.43 34.92Q703.80 32.98 705.89 31.46Q707.98 29.95 710.71 29.05Q713.45 28.15 716.62 28.15L716.62 28.15Q720.14 28.15 722.84 29.56Q725.54 30.96 727.16 34.02Q728.78 37.08 728.78 42.05L728.78 42.05L728.78 61.85L723.38 61.85L723.38 42.19Q723.38 38.74 722.38 36.68Q721.37 34.63 719.46 33.73Q717.55 32.83 714.89 32.83L714.89 32.83Q712.58 32.83 710.39 33.55Q708.19 34.27 706.39 35.60Q704.59 36.94 703.51 38.81Q702.43 40.68 702.43 43.06L702.43 43.06L702.43 61.85ZM754.78 62.57L754.78 62.57Q751.68 62.57 748.73 61.49Q745.78 60.41 743.36 58.25Q740.95 56.09 739.55 52.81Q738.14 49.54 738.14 45.14L738.14 45.14Q738.14 40.61 739.62 37.37Q741.10 34.13 743.58 32.08Q746.06 30.02 749.05 29.05Q752.04 28.08 755.06 28.08L755.06 28.08Q758.09 28.08 760.46 28.84Q762.84 29.59 764.57 30.92Q766.30 32.26 767.16 33.98L767.16 33.98L767.16 13.97L772.27 13.97L772.99 13.97L772.99 14.47Q772.56 14.90 772.45 15.41Q772.34 15.91 772.34 17.14L772.34 17.14L772.42 56.74Q772.42 58.03 772.56 59.29Q772.70 60.55 773.21 61.85L773.21 61.85L767.66 61.85Q767.30 60.98 767.16 60.12Q767.02 59.26 766.94 58.43Q766.87 57.60 766.87 56.74L766.87 56.74Q765.79 58.46 763.99 59.80Q762.19 61.13 759.89 61.85Q757.58 62.57 754.78 62.57L754.78 62.57ZM755.71 57.89L755.71 57.89Q758.66 57.89 760.75 56.99Q762.84 56.09 764.17 54.40Q765.50 52.70 766.15 50.36Q766.80 48.02 766.80 45.22L766.80 45.22Q766.80 41.40 765.50 38.56Q764.21 35.71 761.62 34.13Q759.02 32.54 755.21 32.54L755.21 32.54Q752.54 32.54 750.38 33.34Q748.22 34.13 746.68 35.64Q745.13 37.15 744.34 39.35Q743.54 41.54 743.54 44.42L743.54 44.42Q743.54 48.60 745.02 51.62Q746.50 54.65 749.23 56.27Q751.97 57.89 755.71 57.89L755.71 57.89ZM801.14 62.57L801.14 62.57Q796.82 62.57 793.26 61.45Q789.70 60.34 787.10 58.18Q784.51 56.02 783.11 52.81Q781.70 49.61 781.70 45.50L781.70 45.50Q781.70 41.33 783.14 38.09Q784.58 34.85 787.10 32.65Q789.62 30.46 792.97 29.30Q796.32 28.15 799.99 28.15L799.99 28.15Q803.38 28.15 806.33 29.09Q809.28 30.02 811.51 31.97Q813.74 33.91 815.00 36.86Q816.26 39.82 816.26 43.85L816.26 43.85Q816.26 44.42 816.23 45.04Q816.19 45.65 816.05 46.22L816.05 46.22L786.96 46.22Q787.18 49.39 788.40 51.70Q789.62 54.00 791.64 55.44Q793.66 56.88 796.14 57.56Q798.62 58.25 801.29 58.25L801.29 58.25Q803.38 58.25 805.21 57.85Q807.05 57.46 808.67 56.66Q810.29 55.87 811.66 54.65L811.66 54.65L815.11 57.53Q813.46 59.18 811.30 60.34Q809.14 61.49 806.62 62.03Q804.10 62.57 801.14 62.57ZM787.25 42.05L787.25 42.05L810.65 42.05Q810.65 39.74 809.78 37.94Q808.92 36.14 807.41 34.85Q805.90 33.55 803.92 32.90Q801.94 32.26 799.56 32.26L799.56 32.26Q797.54 32.26 795.53 32.80Q793.51 33.34 791.78 34.56Q790.06 35.78 788.87 37.62Q787.68 39.46 787.25 42.05ZM841.18 62.57L841.18 62.57Q838.08 62.57 835.13 61.49Q832.18 60.41 829.76 58.25Q827.35 56.09 825.95 52.81Q824.54 49.54 824.54 45.14L824.54 45.14Q824.54 40.61 826.02 37.37Q827.50 34.13 829.98 32.08Q832.46 30.02 835.45 29.05Q838.44 28.08 841.46 28.08L841.46 28.08Q844.49 28.08 846.86 28.84Q849.24 29.59 850.97 30.92Q852.70 32.26 853.56 33.98L853.56 33.98L853.56 13.97L858.67 13.97L859.39 13.97L859.39 14.47Q858.96 14.90 858.85 15.41Q858.74 15.91 858.74 17.14L858.74 17.14L858.82 56.74Q858.82 58.03 858.96 59.29Q859.10 60.55 859.61 61.85L859.61 61.85L854.06 61.85Q853.70 60.98 853.56 60.12Q853.42 59.26 853.34 58.43Q853.27 57.60 853.27 56.74L853.27 56.74Q852.19 58.46 850.39 59.80Q848.59 61.13 846.29 61.85Q843.98 62.57 841.18 62.57L841.18 62.57ZM842.11 57.89L842.11 57.89Q845.06 57.89 847.15 56.99Q849.24 56.09 850.57 54.40Q851.90 52.70 852.55 50.36Q853.20 48.02 853.20 45.22L853.20 45.22Q853.20 41.40 851.90 38.56Q850.61 35.71 848.02 34.13Q845.42 32.54 841.61 32.54L841.61 32.54Q838.94 32.54 836.78 33.34Q834.62 34.13 833.08 35.64Q831.53 37.15 830.74 39.35Q829.94 41.54 829.94 44.42L829.94 44.42Q829.94 48.60 831.42 51.62Q832.90 54.65 835.63 56.27Q838.37 57.89 842.11 57.89L842.11 57.89Z"/></svg>