<?xml version="1.0" encoding="UTF-8"?>
<svg xmlns="http://www.w3.org/2000/svg" xmlns:xlink="http://www.w3.org/1999/xlink" width="378.144" height="72.00000000000001" viewBox="0 -13.999999999999993 378.144 100" preserveAspectRatio="xMinYMid meet"><path d="M3.49 50.72L9.54 48.92L9.54 8.17L3.35 6.01L3.35 3.78L16.81 3.78L45.68 45.86L43.74 48.46L43.74 7.78L37.15 6.01L37.15 3.78L54.11 3.78L54.11 6.01L48.06 7.78L48.06 53.39L43.60 53.39L12.60 8.68L13.86 7.81L13.86 48.92L20.45 50.72L20.45 52.92L3.49 52.92L3.49 50.72ZM73.87 19.48L73.87 19.48Q78.16 19.48 81.02 21.28Q83.88 23.08 85.43 26.55Q86.98 30.02 87.23 35.06L87.23 35.06L63.29 35.06L63.29 31.82L83.16 31.25L80.82 32.51Q80.64 29.45 79.76 27.34Q78.88 25.24 77.33 24.14Q75.78 23.04 73.44 23.04L73.44 23.04Q70.67 23.04 68.62 24.41Q66.56 25.78 65.45 28.48Q64.33 31.18 64.33 35.21L64.33 35.21Q64.33 39.56 65.90 42.57Q67.46 45.58 70.38 47.12Q73.30 48.67 77.44 48.67L77.44 48.67Q79.13 48.67 80.71 48.29Q82.30 47.92 83.79 47.23Q85.28 46.55 86.65 45.61L86.65 45.61L87.26 47.56Q85.25 49.54 83.12 50.90Q81 52.27 78.75 52.96Q76.50 53.64 74.16 53.64L74.16 53.64Q69.52 53.64 65.97 51.57Q62.42 49.50 60.41 45.76Q58.39 42.01 58.39 37.01L58.39 37.01Q58.39 31.97 60.28 28.01Q62.17 24.05 65.65 21.76Q69.12 19.48 73.87 19.48ZM129.35 47.27L136.01 23.69L131.00 22.32L131.00 20.20L143.68 20.20L143.68 22.32L139.64 23.62L130.64 53.64L127.19 53.64L116.42 25.67L118.22 25.56L107.24 53.64L103.79 53.64L94.64 24.08L89.78 22.32L89.78 20.20L105.73 20.20L105.73 22.32L100.76 23.87L108 47.66L106.27 47.66L117.11 19.48L120.17 19.48L130.90 47.27L129.35 47.27ZM160.16 19.48L160.16 19.48Q162.40 19.48 164.36 19.87Q166.32 20.27 168.80 21.28L168.80 21.28L169.52 30.13L166.86 30.13L163.12 21.31L166.68 24.66Q164.92 23.65 163.26 23.15Q161.60 22.64 159.95 22.64L159.95 22.64Q156.64 22.64 154.84 23.85Q153.04 25.06 153.04 27.29L153.04 27.29Q153.04 29.27 154.19 30.40Q155.34 31.54 157.23 32.24Q159.12 32.94 161.32 33.62L161.32 33.62Q162.97 34.13 164.61 34.81Q166.25 35.50 167.60 36.56Q168.95 37.62 169.78 39.31Q170.60 41.00 170.60 43.52L170.60 43.52Q170.60 46.76 168.97 49.01Q167.33 51.26 164.36 52.43Q161.39 53.60 157.28 53.60L157.28 53.60Q154.94 53.60 152.69 53.23Q150.44 52.85 148.64 52.09L148.64 52.09L147.02 42.84L149.87 42.84L154.55 52.24L150.12 49.10Q151.49 49.68 152.59 49.97Q153.68 50.26 154.69 50.35Q155.70 50.44 156.71 50.44L156.71 50.44Q160.85 50.44 163.06 49.05Q165.28 47.66 165.28 44.86L165.28 44.86Q165.28 43.09 164.41 42.03Q163.55 40.97 162.11 40.30Q160.67 39.64 158.99 39.15Q157.32 38.66 155.70 38.09L155.70 38.09Q153.58 37.33 151.81 36.25Q150.05 35.17 149.00 33.35Q147.96 31.54 147.96 28.62L147.96 28.62Q147.96 25.67 149.49 23.63Q151.02 21.60 153.77 20.54Q156.53 19.48 160.16 19.48ZM198.65 19.66L198.65 19.66Q200.45 19.66 201.37 20.57Q202.28 21.49 202.28 23.08L202.28 23.08Q202.28 24.91 201.38 25.97Q200.48 27.04 199.04 27.04L199.04 27.04Q197.93 27.04 196.83 26.80Q195.73 26.57 194.60 26.35Q193.46 26.14 192.20 26.14L192.20 26.14Q191.38 26.14 190.42 26.32Q189.47 26.50 188.53 26.89Q187.60 27.29 186.73 27.90L186.73 27.90L185.83 26.64Q188.28 24.66 190.21 23.33Q192.13 22.00 193.64 21.19Q195.16 20.38 196.40 20.02Q197.64 19.66 198.65 19.66ZM186.80 19.40L187.70 26.42L187.70 49.25L193.68 50.87L193.68 52.92L176.18 52.92L176.18 50.87L181.84 49.25L181.84 27.50Q181.37 27.07 180.52 26.59Q179.68 26.10 178.56 25.56Q177.44 25.02 176.11 24.44L176.11 24.44L176.11 23.36L185.83 19.40L186.80 19.40ZM220.61 19.48L220.61 19.48Q224.89 19.48 227.75 21.28Q230.62 23.08 232.16 26.55Q233.71 30.02 233.96 35.06L233.96 35.06L210.02 35.06L210.02 31.82L229.90 31.25L227.56 32.51Q227.38 29.45 226.49 27.34Q225.61 25.24 224.06 24.14Q222.52 23.04 220.18 23.04L220.18 23.04Q217.40 23.04 215.35 24.41Q213.30 25.78 212.18 28.48Q211.07 31.18 211.07 35.21L211.07 35.21Q211.07 39.56 212.63 42.57Q214.20 45.58 217.12 47.12Q220.03 48.67 224.17 48.67L224.17 48.67Q225.86 48.67 227.45 48.29Q229.03 47.92 230.53 47.23Q232.02 46.55 233.39 45.61L233.39 45.61L234.00 47.56Q231.98 49.54 229.86 50.90Q227.74 52.27 225.49 52.96Q223.24 53.64 220.90 53.64L220.90 53.64Q216.25 53.64 212.71 51.57Q209.16 49.50 207.14 45.76Q205.13 42.01 205.13 37.01L205.13 37.01Q205.13 31.97 207.02 28.01Q208.91 24.05 212.38 21.76Q215.86 19.48 220.61 19.48ZM262.19 31.97L262.19 31.97L262.01 35.24Q257.11 36.14 254.09 37.08Q251.06 38.02 249.43 39.04Q247.79 40.07 247.18 41.26Q246.56 42.44 246.56 43.92L246.56 43.92Q246.56 46.44 248.08 47.75Q249.59 49.07 252.11 49.07L252.11 49.07Q254.05 49.07 255.65 48.20Q257.26 47.34 258.21 45.92Q259.16 44.50 259.16 42.77L259.16 42.77L259.16 29.81Q259.16 26.71 257.71 25.06Q256.25 23.40 252.65 23.40L252.65 23.40Q251.17 23.40 249.62 23.69Q248.08 23.98 246.64 24.55L246.64 24.55L248.80 22.57Q248.58 23.76 248.35 24.80Q248.11 25.85 247.82 26.68Q247.54 27.50 247.14 28.12L247.14 28.12Q246.53 28.98 245.63 29.29Q244.73 29.59 243.68 29.59L243.68 29.59Q242.21 29.59 241.38 28.96Q240.55 28.33 240.55 27.43L240.55 27.43Q240.55 26.24 241.72 24.91Q242.89 23.58 244.87 22.39Q246.85 21.20 249.43 20.45Q252.00 19.69 254.81 19.69L254.81 19.69Q258.52 19.69 260.77 20.77Q263.02 21.85 264.02 23.92Q265.03 25.99 265.03 28.91L265.03 28.91L265.03 45.58Q265.03 46.80 265.41 47.59Q265.79 48.38 266.51 48.76Q267.23 49.14 268.31 49.14L268.31 49.14Q269.14 49.14 270.09 48.89Q271.04 48.64 271.98 48.20L271.98 48.20L271.98 50.36Q270.40 51.98 268.63 52.76Q266.87 53.53 265.32 53.53L265.32 53.53Q263.41 53.53 262.06 52.65Q260.71 51.77 259.99 50.04Q259.27 48.31 259.20 45.79L259.20 45.79L259.45 45.54Q258.98 47.95 257.62 49.79Q256.25 51.62 254.21 52.63Q252.18 53.64 249.70 53.64L249.70 53.64Q245.45 53.64 242.89 51.43Q240.34 49.21 240.34 45.11L240.34 45.11Q240.34 42.84 241.24 41.00Q242.14 39.17 244.49 37.62Q246.85 36.07 251.14 34.69Q255.42 33.30 262.19 31.97ZM301.28 47.27L301.28 30.60Q301.28 27.25 299.16 25.18Q297.04 23.11 292.54 23.11L292.54 23.11Q289.04 23.11 286.61 24.73Q284.18 26.35 282.92 29.34Q281.66 32.33 281.66 36.43L281.66 36.43Q281.66 40.54 283.00 43.31Q284.33 46.08 286.74 47.48Q289.15 48.89 292.50 48.89L292.50 48.89Q295.45 48.89 298.21 48.01Q300.96 47.12 303.66 45.32L303.66 45.32L303.66 47.45Q300.60 49.46 298.49 50.71Q296.39 51.95 294.89 52.58Q293.40 53.21 292.23 53.42Q291.06 53.64 289.84 53.64L289.84 53.64Q284.98 53.64 281.68 51.70Q278.39 49.75 276.71 46.24Q275.04 42.73 275.04 38.09L275.04 38.09Q275.04 33.77 276.46 30.33Q277.88 26.89 280.37 24.46Q282.85 22.03 286.15 20.75Q289.44 19.48 293.15 19.48L293.15 19.48Q295.20 19.48 297.02 19.78Q298.84 20.09 300.71 20.77Q302.58 21.46 304.70 22.61L304.70 22.61L301.28 24.55L301.28 7.92Q300.85 7.52 299.90 7.04Q298.94 6.55 297.79 6.05Q296.64 5.54 295.60 5.11L295.60 5.11L295.60 3.74L306.65 1.04L307.62 1.04L307.15 7.42L307.15 46.69Q307.48 46.98 308.12 47.36Q308.77 47.74 309.55 48.11Q310.32 48.49 311.08 48.80Q311.83 49.10 312.41 49.25L312.41 49.25L312.41 50.47L303.44 53.53L302.51 53.53L301.28 47.27ZM332.28 19.48L332.28 19.48Q336.56 19.48 339.43 21.28Q342.29 23.08 343.84 26.55Q345.38 30.02 345.64 35.06L345.64 35.06L321.70 35.06L321.70 31.82L341.57 31.25L339.23 32.51Q339.05 29.45 338.17 27.34Q337.28 25.24 335.74 24.14Q334.19 23.04 331.85 23.04L331.85 23.04Q329.08 23.04 327.02 24.41Q324.97 25.78 323.86 28.48Q322.74 31.18 322.74 35.21L322.74 35.21Q322.74 39.56 324.31 42.57Q325.87 45.58 328.79 47.12Q331.70 48.67 335.84 48.67L335.84 48.67Q337.54 48.67 339.12 48.29Q340.70 47.92 342.20 47.23Q343.69 46.55 345.06 45.61L345.06 45.61L345.67 47.56Q343.66 49.54 341.53 50.90Q339.41 52.27 337.16 52.96Q334.91 53.64 332.57 53.64L332.57 53.64Q327.92 53.64 324.38 51.57Q320.83 49.50 318.82 45.76Q316.80 42.01 316.80 37.01L316.80 37.01Q316.80 31.97 318.69 28.01Q320.58 24.05 324.05 21.76Q327.53 19.48 332.28 19.48ZM373.39 19.66L373.39 19.66Q375.19 19.66 376.11 20.57Q377.03 21.49 377.03 23.08L377.03 23.08Q377.03 24.91 376.13 25.97Q375.23 27.04 373.79 27.04L373.79 27.04Q372.67 27.04 371.57 26.80Q370.48 26.57 369.34 26.35Q368.21 26.14 366.95 26.14L366.95 26.14Q366.12 26.14 365.17 26.32Q364.21 26.50 363.28 26.89Q362.34 27.29 361.48 27.90L361.48 27.90L360.58 26.64Q363.02 24.66 364.95 23.33Q366.88 22.00 368.39 21.19Q369.90 20.38 371.14 20.02Q372.38 19.66 373.39 19.66ZM361.55 19.40L362.45 26.42L362.45 49.25L368.42 50.87L368.42 52.92L350.93 52.92L350.93 50.87L356.58 49.25L356.58 27.50Q356.11 27.07 355.27 26.59Q354.42 26.10 353.30 25.56Q352.19 25.02 350.86 24.44L350.86 24.44L350.86 23.36L360.58 19.40L361.55 19.40Z"/></svg>