<?xml version="1.0" encoding="UTF-8"?>
<svg xmlns="http://www.w3.org/2000/svg" xmlns:xlink="http://www.w3.org/1999/xlink" width="458.859375" height="102.375" viewBox="0 1.1875 458.859375 100" preserveAspectRatio="xMinYMid meet"><path d="M13.64 83.25L6.89 83.25L6.89 29.25L16.95 29.25L49.61 73.30L81.77 29.25L91.83 29.25L91.83 83.25L85.08 83.25L85.08 35.37L52.84 79.70L46.72 79.70L13.64 35.37L13.64 83.25ZM109.97 83.25L103.22 83.25L103.22 45L109.97 45L109.97 83.25ZM109.97 36L103.22 36L103.22 29.25L109.97 29.25L109.97 36ZM142.63 84.02L142.63 84.02Q135.84 84.02 131.10 83.34Q126.35 82.65 123.43 80.53Q120.52 78.40 119.18 74.14Q117.84 69.89 117.84 62.79L117.84 62.79Q117.84 55.90 119.18 51.75Q120.52 47.60 123.43 45.49Q126.35 43.38 131.10 42.68Q135.84 41.98 142.63 41.98L142.63 41.98Q150.75 41.98 156.01 42.91Q161.26 43.84 163.79 46.72Q166.32 49.61 166.32 55.51L166.32 55.51L159.86 55.51Q159.86 52.10 158.45 50.41Q157.04 48.73 153.32 48.16Q149.59 47.60 142.63 47.60L142.63 47.60Q136.37 47.60 132.71 48.13Q129.06 48.66 127.34 50.19Q125.61 51.71 125.10 54.74Q124.59 57.76 124.59 62.79L124.59 62.79Q124.59 67.99 125.10 71.12Q125.61 74.25 127.34 75.81Q129.06 77.38 132.71 77.89Q136.37 78.40 142.63 78.40L142.63 78.40Q147.94 78.40 151.31 78.10Q154.69 77.80 156.55 76.90Q158.41 76.01 159.13 74.30Q159.86 72.60 159.86 69.75L159.86 69.75L166.32 69.75Q166.32 74.46 164.92 77.31Q163.51 80.16 160.63 81.60Q157.75 83.04 153.26 83.53Q148.78 84.02 142.63 84.02ZM181.09 83.25L174.34 83.25L174.34 29.25L181.09 29.25L181.09 48.13Q182.60 46.09 184.83 44.72Q187.07 43.35 190.81 42.66Q194.55 41.98 200.64 41.98L200.64 41.98Q208.58 41.98 213.17 43.52Q217.76 45.07 219.69 49.04Q221.63 53.02 221.63 60.29L221.63 60.29L221.63 83.25L214.84 83.25L214.84 60.29Q214.84 56.14 214.14 53.61Q213.43 51.08 211.73 49.78Q210.02 48.48 207.04 48.04Q204.05 47.60 199.44 47.60L199.44 47.60Q192.41 47.60 188.40 48.76Q184.39 49.92 182.74 52.40Q181.09 54.88 181.09 58.85L181.09 58.85L181.09 83.25ZM238.01 83.25L231.26 83.25L231.26 42.75L238.01 42.75L238.01 48.34Q239.13 46.55 240.28 45.35Q241.42 44.16 243.26 43.45Q245.11 42.75 248.27 42.45Q251.44 42.15 256.61 42.15L256.61 42.15L256.61 47.81Q249.64 47.81 245.83 48.30Q242.02 48.80 240.36 49.97Q238.71 51.15 238.36 53.23Q238.01 55.30 238.01 58.50L238.01 58.50L238.01 83.25ZM288.88 84.02L288.88 84.02Q282.09 84.02 277.35 83.34Q272.60 82.65 269.68 80.53Q266.77 78.40 265.43 74.14Q264.09 69.89 264.09 62.79L264.09 62.79Q264.09 55.90 265.43 51.75Q266.77 47.60 269.68 45.49Q272.60 43.38 277.35 42.68Q282.09 41.98 288.88 41.98L288.88 41.98Q295.70 41.98 300.43 42.68Q305.16 43.38 308.07 45.49Q310.99 47.60 312.33 51.75Q313.66 55.90 313.66 62.79L313.66 62.79Q313.66 69.89 312.33 74.14Q310.99 78.40 308.07 80.53Q305.16 82.65 300.43 83.34Q295.70 84.02 288.88 84.02ZM306.91 62.79L306.91 62.79Q306.91 57.76 306.40 54.74Q305.89 51.71 304.17 50.19Q302.45 48.66 298.81 48.13Q295.17 47.60 288.88 47.60L288.88 47.60Q282.62 47.60 278.96 48.13Q275.31 48.66 273.59 50.19Q271.86 51.71 271.35 54.74Q270.84 57.76 270.84 62.79L270.84 62.79Q270.84 67.99 271.35 71.12Q271.86 74.25 273.59 75.81Q275.31 77.38 278.96 77.89Q282.62 78.40 288.88 78.40L288.88 78.40Q295.17 78.40 298.81 77.89Q302.45 77.38 304.17 75.81Q305.89 74.25 306.40 71.12Q306.91 67.99 306.91 62.79ZM328.43 83.25L321.68 83.25L321.68 42.75L328.43 42.75L328.43 47.78Q329.94 45.74 332.05 44.37Q334.16 43.00 337.45 42.31Q340.73 41.63 345.87 41.63L345.87 41.63Q352.23 41.63 356.24 43.35Q360.25 45.07 362.14 49.29L362.14 49.29Q363.87 46.62 366.29 44.91Q368.72 43.21 372.39 42.42Q376.07 41.63 381.45 41.63L381.45 41.63Q387.84 41.63 391.85 43.37Q395.86 45.11 397.74 49.29Q399.62 53.47 399.62 60.75L399.62 60.75L399.62 83.25L392.87 83.25L392.87 60.75Q392.87 55.20 391.71 52.29Q390.55 49.39 387.86 48.32Q385.17 47.25 380.60 47.25L380.60 47.25Q371.64 47.25 367.82 49.89Q364.01 52.52 364.01 58.50L364.01 58.50L364.01 58.46Q364.04 59.55 364.04 60.75L364.04 60.75L364.04 83.25L357.29 83.25L357.29 60.75Q357.29 55.20 356.13 52.29Q354.97 49.39 352.28 48.32Q349.59 47.25 345.02 47.25L345.02 47.25Q336.06 47.25 332.24 49.89Q328.43 52.52 328.43 58.50L328.43 58.50L328.43 83.25ZM429.89 84.02L429.89 84.02Q422.61 84.02 417.88 83.27Q413.16 82.51 410.85 79.95Q408.55 77.38 408.55 71.96L408.55 71.96Q408.55 66.45 410.71 63.86Q412.88 61.28 417.57 60.50Q422.26 59.73 429.89 59.73L429.89 59.73Q436.08 59.73 440.26 60.01Q444.45 60.29 447.75 61.00L447.75 61.00Q447.68 56.32 447.12 53.63Q446.55 50.94 445.01 49.64Q443.46 48.34 440.49 47.97Q437.52 47.60 432.60 47.60L432.60 47.60Q426.97 47.60 423.79 47.85Q420.61 48.09 419.17 48.73Q417.73 49.36 417.36 50.55Q416.99 51.75 416.99 53.65L416.99 53.65L410.24 53.65Q410.24 49.85 411.28 47.53Q412.31 45.21 414.81 44.02Q417.30 42.82 421.65 42.40Q425.99 41.98 432.60 41.98L432.60 41.98Q439.70 41.98 444.04 42.89Q448.38 43.80 450.65 46.18Q452.92 48.55 453.71 52.80Q454.50 57.06 454.50 63.77L454.50 63.77L454.50 83.25L447.75 83.25L447.75 80.47Q446.55 81.74 444.45 82.51Q442.34 83.29 438.84 83.65Q435.34 84.02 429.89 84.02ZM429.89 78.54L429.89 78.54Q435.90 78.54 439.49 78.40Q443.07 78.26 444.85 77.63Q446.63 76.99 447.19 75.59Q447.75 74.18 447.75 71.65L447.75 71.65L447.75 65.43L429.89 65.21Q425.14 65.14 422.24 65.34Q419.34 65.53 417.83 66.18Q416.32 66.83 415.81 68.22Q415.30 69.61 415.30 71.96L415.30 71.96Q415.30 74.25 415.81 75.59Q416.32 76.92 417.83 77.55Q419.34 78.19 422.24 78.36Q425.14 78.54 429.89 78.54Z"/></svg>