<?xml version="1.0" encoding="UTF-8"?>
<svg xmlns="http://www.w3.org/2000/svg" xmlns:xlink="http://www.w3.org/1999/xlink" width="227.80800000000005" height="87.26400000000001" viewBox="0 -6.367999999999995 227.80800000000005 100" preserveAspectRatio="xMinYMid meet"><path d="M6.12 22.68L5.11 17.93L20.74 17.93Q25.70 17.93 29.74 19.19Q33.77 20.45 36.11 23.62Q38.45 26.78 38.45 32.40L38.45 32.40Q38.45 35.28 37.08 37.94Q35.71 40.61 33.44 42.59Q31.18 44.57 28.44 45.43L28.44 45.43L43.13 70.34L35.35 70.34L21.82 46.80L12.82 46.80L12.82 70.34L6.12 70.34L6.12 22.68ZM20.74 22.90L12.82 22.90L12.82 41.90L18.58 41.90Q22.18 41.90 25.09 41.08Q28.01 40.25 29.74 38.09Q31.46 35.93 31.46 31.97L31.46 31.97Q31.46 28.87 29.95 26.89Q28.44 24.91 25.99 23.90Q23.54 22.90 20.74 22.90L20.74 22.90ZM59.83 71.28L59.83 71.28Q54.58 71.28 51.01 68.65Q47.45 66.02 45.68 61.78Q43.92 57.53 43.92 52.70L43.92 52.70Q43.92 49.10 45.00 45.68Q46.08 42.26 48.17 39.56Q50.26 36.86 53.32 35.28Q56.38 33.70 60.26 33.70L60.26 33.70Q65.59 33.70 69.16 36.29Q72.72 38.88 74.48 43.13Q76.25 47.38 76.25 52.27L76.25 52.27Q76.25 55.94 75.17 59.36Q74.09 62.78 72.04 65.45Q69.98 68.11 66.92 69.70Q63.86 71.28 59.83 71.28ZM59.90 66.74L59.90 66.74Q62.71 66.74 64.62 65.41Q66.53 64.08 67.72 61.92Q68.90 59.76 69.41 57.28Q69.91 54.79 69.91 52.49L69.91 52.49Q69.91 50.11 69.44 47.63Q68.98 45.14 67.90 43.02Q66.82 40.90 64.91 39.56Q63.00 38.23 60.19 38.23L60.19 38.23Q57.38 38.23 55.48 39.56Q53.57 40.90 52.42 43.06Q51.26 45.22 50.76 47.70Q50.26 50.18 50.26 52.49L50.26 52.49Q50.26 54.72 50.76 57.20Q51.26 59.69 52.38 61.85Q53.50 64.01 55.37 65.38Q57.24 66.74 59.90 66.74ZM96.98 33.70L96.98 33.70Q99.43 33.70 101.84 34.31Q104.26 34.92 106.27 36.22L106.27 36.22L104.18 40.82Q102.60 39.53 100.66 38.88Q98.71 38.23 96.84 38.23L96.84 38.23Q94.18 38.23 92.20 39.46Q90.22 40.68 90.22 43.13L90.22 43.13Q90.22 44.86 91.04 46.01Q91.87 47.16 93.24 47.95Q94.61 48.74 96.19 49.54L96.19 49.54Q97.99 50.40 99.83 51.30Q101.66 52.20 103.21 53.46Q104.76 54.72 105.73 56.48Q106.70 58.25 106.70 60.84L106.70 60.84Q106.70 64.44 104.94 66.78Q103.18 69.12 100.33 70.20Q97.49 71.28 94.18 71.28L94.18 71.28Q91.30 71.28 88.42 70.49Q85.54 69.70 83.09 68.26L83.09 68.26L85.61 63.86Q87.34 65.16 89.50 65.95Q91.66 66.74 93.67 66.74L93.67 66.74Q96.41 66.74 98.46 65.45Q100.51 64.15 100.51 61.56L100.51 61.56Q100.51 59.76 99.40 58.57Q98.28 57.38 96.55 56.45Q94.82 55.51 92.95 54.65L92.95 54.65Q90.79 53.57 88.74 52.31Q86.69 51.05 85.39 49.10Q84.10 47.16 84.10 44.14L84.10 44.14Q84.10 40.68 85.93 38.38Q87.77 36.07 90.72 34.88Q93.67 33.70 96.98 33.70ZM128.59 33.70L128.59 33.70Q134.28 33.70 137.16 36.79Q140.04 39.89 140.04 45.50L140.04 45.50L140.04 63.43Q140.04 64.94 140.62 65.48Q141.19 66.02 141.98 66.02L141.98 66.02Q142.63 66.02 143.35 65.84Q144.07 65.66 144.72 65.38L144.72 65.38L146.02 69.26Q144.86 69.91 143.10 70.45Q141.34 70.99 139.46 70.99L139.46 70.99Q137.59 70.99 136.08 69.95Q134.57 68.90 134.21 66.10L134.21 66.10Q132.12 68.33 129.31 69.73Q126.50 71.14 123.41 71.14L123.41 71.14Q119.16 71.14 116.35 68.62Q113.54 66.10 113.54 61.70L113.54 61.70Q113.54 57.60 115.52 55.15Q117.50 52.70 120.67 51.48Q123.84 50.26 127.40 49.82Q130.97 49.39 134.06 49.39L134.06 49.39L134.06 45.58Q134.06 43.56 133.56 41.94Q133.06 40.32 131.76 39.35Q130.46 38.38 128.09 38.38L128.09 38.38Q125.35 38.38 122.83 39.46Q120.31 40.54 117.79 42.62L117.79 42.62L114.84 38.38Q117.79 36.00 121.32 34.85Q124.85 33.70 128.59 33.70ZM134.06 56.38L134.06 54.07Q132.12 54.07 129.67 54.25Q127.22 54.43 124.92 55.12Q122.62 55.80 121.14 57.31Q119.66 58.82 119.66 61.49L119.66 61.49Q119.66 63.86 121.28 64.98Q122.90 66.10 125.35 66.10L125.35 66.10Q127.94 66.10 129.89 64.66Q131.83 63.22 132.95 60.98Q134.06 58.75 134.06 56.38L134.06 56.38ZM149.47 34.70L155.95 33.91Q157.25 37.08 157.61 40.61L157.61 40.61Q159.48 37.66 162.65 35.78Q165.82 33.91 169.34 33.91L169.34 33.91L167.90 40.25Q164.45 40.25 162.04 42.05Q159.62 43.85 157.75 46.58L157.75 46.58L157.75 70.34L151.78 70.34L151.78 44.42Q151.78 42.98 151.56 41.18Q151.34 39.38 150.84 37.66Q150.34 35.93 149.47 34.70L149.47 34.70ZM184.39 22.54L184.39 22.54Q184.39 24.34 183.13 25.63Q181.87 26.93 180.00 26.93L180.00 26.93Q178.20 26.93 176.94 25.63Q175.68 24.34 175.68 22.54L175.68 22.54Q175.68 20.74 176.94 19.44Q178.20 18.14 180.00 18.14L180.00 18.14Q181.80 18.14 183.10 19.44Q184.39 20.74 184.39 22.54ZM176.26 34.56L183.10 34.56L183.10 70.34L177.12 70.34L177.12 38.81L176.26 34.56ZM208.22 71.28L208.22 71.28Q202.97 71.28 199.40 68.65Q195.84 66.02 194.08 61.78Q192.31 57.53 192.31 52.70L192.31 52.70Q192.31 49.10 193.39 45.68Q194.47 42.26 196.56 39.56Q198.65 36.86 201.71 35.28Q204.77 33.70 208.66 33.70L208.66 33.70Q213.98 33.70 217.55 36.29Q221.11 38.88 222.88 43.13Q224.64 47.38 224.64 52.27L224.64 52.27Q224.64 55.94 223.56 59.36Q222.48 62.78 220.43 65.45Q218.38 68.11 215.32 69.70Q212.26 71.28 208.22 71.28ZM208.30 66.74L208.30 66.74Q211.10 66.74 213.01 65.41Q214.92 64.08 216.11 61.92Q217.30 59.76 217.80 57.28Q218.30 54.79 218.30 52.49L218.30 52.49Q218.30 50.11 217.84 47.63Q217.37 45.14 216.29 43.02Q215.21 40.90 213.30 39.56Q211.39 38.23 208.58 38.23L208.58 38.23Q205.78 38.23 203.87 39.56Q201.96 40.90 200.81 43.06Q199.66 45.22 199.15 47.70Q198.65 50.18 198.65 52.49L198.65 52.49Q198.65 54.72 199.15 57.20Q199.66 59.69 200.77 61.85Q201.89 64.01 203.76 65.38Q205.63 66.74 208.30 66.74Z"/></svg>