<?xml version="1.0" encoding="UTF-8"?>
<svg xmlns="http://www.w3.org/2000/svg" xmlns:xlink="http://www.w3.org/1999/xlink" width="321.6960000000001" height="93.60000000000001" viewBox="0 -3.1999999999999957 321.6960000000001 100" preserveAspectRatio="xMinYMid meet"><path d="M3.96 73.80L3.96 70.49L9.36 70.49L9.36 26.86L3.96 26.86L3.96 23.54L27.43 23.54Q34.27 23.54 37.91 26.96Q41.54 30.38 41.54 37.01L41.54 37.01Q41.54 43.56 37.80 47.16Q34.06 50.76 27.29 50.76L27.29 50.76L15.55 50.76L15.55 70.49L22.39 70.49L22.39 73.80L3.96 73.80ZM15.55 27.07L15.55 47.23L26.93 47.23Q30.82 47.23 32.87 44.78Q34.92 42.34 34.92 38.81L34.92 38.81L34.92 35.50Q34.92 31.97 32.87 29.52Q30.82 27.07 26.93 27.07L26.93 27.07L15.55 27.07ZM47.52 73.80L47.52 70.49L52.85 70.49L52.85 24.62L47.52 23.69L47.52 21.17L58.75 19.08L58.75 70.49L64.08 70.49L64.08 73.80L47.52 73.80ZM86.69 74.66L86.69 74.66Q82.73 74.66 79.60 73.26Q76.46 71.86 74.30 69.34Q72.14 66.82 70.99 63.22Q69.84 59.62 69.84 55.22L69.84 55.22Q69.84 50.90 71.10 47.34Q72.36 43.78 74.56 41.18Q76.75 38.59 79.78 37.19Q82.80 35.78 86.40 35.78L86.40 35.78Q90.07 35.78 92.95 37.08Q95.83 38.38 97.81 40.72Q99.79 43.06 100.87 46.30Q101.95 49.54 101.95 53.35L101.95 53.35L101.95 55.01L76.39 55.01L76.39 56.88Q76.39 63.00 79.45 66.53Q82.51 70.06 87.62 70.06L87.62 70.06Q92.09 70.06 94.72 68.22Q97.34 66.38 98.86 63.43L98.86 63.43L101.23 64.94Q100.51 66.82 99.25 68.58Q97.99 70.34 96.19 71.68Q94.39 73.01 92.02 73.84Q89.64 74.66 86.69 74.66ZM76.39 50.83L76.39 51.70L95.76 51.70L95.76 50.98Q95.76 48.46 95.22 46.30Q94.68 44.14 93.53 42.55Q92.38 40.97 90.61 40.07Q88.85 39.17 86.40 39.17L86.40 39.17Q83.95 39.17 82.08 40.03Q80.21 40.90 78.95 42.48Q77.69 44.06 77.04 46.19Q76.39 48.31 76.39 50.83L76.39 50.83ZM106.70 73.80L106.70 70.49L110.81 70.49L121.68 55.66L110.66 39.96L106.92 39.96L106.92 36.65L122.04 36.65L122.04 39.96L117.79 39.96L125.86 51.77L126.14 51.77L133.78 39.96L129.31 39.96L129.31 36.65L142.34 36.65L142.34 39.96L138.24 39.96L127.94 54.58L138.96 70.49L142.70 70.49L142.70 73.80L127.51 73.80L127.51 70.49L131.76 70.49L123.77 58.46L123.48 58.46L115.27 70.49L119.74 70.49L119.74 73.80L106.70 73.80ZM182.81 74.66L182.81 74.66Q178.27 74.66 175.43 73.26Q172.58 71.86 171.43 69.48L171.43 69.48L171.07 69.48L171.07 73.80L165.89 73.80L165.89 59.04L171.07 59.04L171.07 62.35Q171.07 64.15 171.61 65.70Q172.15 67.25 173.41 68.40Q174.67 69.55 176.72 70.20Q178.78 70.85 181.73 70.85L181.73 70.85Q187.99 70.85 190.76 68.18Q193.54 65.52 193.54 61.06L193.54 61.06Q193.54 57.24 191.41 55.08Q189.29 52.92 184.75 51.70L184.75 51.70L180.79 50.69Q174.10 48.96 170.42 45.50Q166.75 42.05 166.75 36.00L166.75 36.00Q166.75 32.98 167.90 30.49Q169.06 28.01 171.14 26.28Q173.23 24.55 176.15 23.62Q179.06 22.68 182.59 22.68L182.59 22.68Q186.70 22.68 189.32 23.94Q191.95 25.20 193.03 27.43L193.03 27.43L193.46 27.43L193.46 23.54L198.65 23.54L198.65 37.58L193.46 37.58L193.46 34.27Q193.46 32.47 192.92 31.03Q192.38 29.59 191.09 28.58Q189.79 27.58 187.70 27.04Q185.62 26.50 182.59 26.50L182.59 26.50Q177.55 26.50 175.03 28.80Q172.51 31.10 172.51 34.85L172.51 34.85Q172.51 38.74 174.78 40.93Q177.05 43.13 181.94 44.42L181.94 44.42L185.62 45.36Q192.17 47.09 195.70 50.54Q199.22 54.00 199.22 59.62L199.22 59.62Q199.22 62.86 198.14 65.63Q197.06 68.40 194.98 70.42Q192.89 72.43 189.83 73.55Q186.77 74.66 182.81 74.66ZM223.99 74.66L223.99 74.66Q220.03 74.66 216.90 73.26Q213.77 71.86 211.61 69.34Q209.45 66.82 208.30 63.22Q207.14 59.62 207.14 55.22L207.14 55.22Q207.14 50.90 208.40 47.34Q209.66 43.78 211.86 41.18Q214.06 38.59 217.08 37.19Q220.10 35.78 223.70 35.78L223.70 35.78Q227.38 35.78 230.26 37.08Q233.14 38.38 235.12 40.72Q237.10 43.06 238.18 46.30Q239.26 49.54 239.26 53.35L239.26 53.35L239.26 55.01L213.70 55.01L213.70 56.88Q213.70 63.00 216.76 66.53Q219.82 70.06 224.93 70.06L224.93 70.06Q229.39 70.06 232.02 68.22Q234.65 66.38 236.16 63.43L236.16 63.43L238.54 64.94Q237.82 66.82 236.56 68.58Q235.30 70.34 233.50 71.68Q231.70 73.01 229.32 73.84Q226.94 74.66 223.99 74.66ZM213.70 50.83L213.70 51.70L233.06 51.70L233.06 50.98Q233.06 48.46 232.52 46.30Q231.98 44.14 230.83 42.55Q229.68 40.97 227.92 40.07Q226.15 39.17 223.70 39.17L223.70 39.17Q221.26 39.17 219.38 40.03Q217.51 40.90 216.25 42.48Q214.99 44.06 214.34 46.19Q213.70 48.31 213.70 50.83L213.70 50.83ZM246.10 73.80L246.10 70.49L251.42 70.49L251.42 41.33L246.10 40.39L246.10 37.94L257.18 35.78L257.18 42.26L257.54 42.26Q258.05 41.11 258.80 39.96Q259.56 38.81 260.68 37.87Q261.79 36.94 263.27 36.36Q264.74 35.78 266.69 35.78L266.69 35.78Q269.86 35.78 271.76 37.30Q273.67 38.81 273.67 41.69L273.67 41.69Q273.67 43.85 272.59 45.07Q271.51 46.30 269.78 46.30L269.78 46.30Q267.84 46.30 266.69 45.25Q265.54 44.21 265.54 42.55L265.54 42.55Q265.54 41.11 266.15 40.21Q266.76 39.31 267.55 39.17L267.55 39.17L267.55 39.02Q267.26 38.95 266.83 38.92Q266.40 38.88 265.75 38.88L265.75 38.88Q264.24 38.88 262.73 39.64Q261.22 40.39 260.03 41.58Q258.84 42.77 258.08 44.28Q257.33 45.79 257.33 47.30L257.33 47.30L257.33 70.49L264.10 70.49L264.10 73.80L246.10 73.80ZM286.27 28.08L286.27 28.08Q284.40 28.08 283.43 26.96Q282.46 25.85 282.46 24.26L282.46 24.26L282.46 23.90Q282.46 22.32 283.43 21.20Q284.40 20.09 286.27 20.09L286.27 20.09Q288.14 20.09 289.15 21.20Q290.16 22.32 290.16 23.90L290.16 23.90L290.16 24.26Q290.16 25.85 289.15 26.96Q288.14 28.08 286.27 28.08ZM277.99 73.80L277.99 70.49L283.32 70.49L283.32 41.33L277.99 40.39L277.99 37.94L289.22 35.78L289.22 70.49L294.55 70.49L294.55 73.80L277.99 73.80ZM300.31 73.80L300.31 70.49L305.64 70.49L305.64 40.18L300.31 40.18L300.31 36.65L305.64 36.65L305.64 30.82Q305.64 28.22 306.50 26.06Q307.37 23.90 308.92 22.36Q310.46 20.81 312.59 19.94Q314.71 19.08 317.23 19.08L317.23 19.08Q321.12 19.08 323.39 20.59Q325.66 22.10 325.66 24.91L325.66 24.91Q325.66 26.78 324.61 27.90Q323.57 29.02 321.91 29.02L321.91 29.02Q320.33 29.02 319.36 28.01Q318.38 27.00 318.38 25.56L318.38 25.56Q318.38 23.04 320.33 22.25L320.33 22.25L320.33 22.10Q319.82 21.96 319.18 21.89Q318.53 21.82 317.74 21.82L317.74 21.82Q314.71 21.82 313.13 23.98Q311.54 26.14 311.54 30.02L311.54 30.02L311.54 36.65L319.61 36.65L319.61 40.18L311.54 40.18L311.54 70.49L318.31 70.49L318.31 73.80L300.31 73.80Z"/></svg>