<?xml version="1.0" encoding="UTF-8"?>
<svg xmlns="http://www.w3.org/2000/svg" xmlns:xlink="http://www.w3.org/1999/xlink" width="628.171875" height="91.4765625" viewBox="0 -4.26171875 628.171875 100" preserveAspectRatio="xMinYMid meet"><path d="M26.37 70.88L26.37 70.88Q16.17 70.88 8.65 62.89Q1.13 54.91 1.13 43.66L1.13 43.66Q1.13 32.84 8.19 25.56Q15.26 18.28 25.31 18.28L25.31 18.28Q28.27 18.28 31.08 18.98Q33.89 19.69 35.54 20.53Q37.20 21.38 38.50 22.18Q39.80 22.99 39.94 22.99L39.94 22.99L40.22 22.99Q40.99 22.99 42.08 21.62Q43.17 20.25 43.38 20.18L43.38 20.18Q43.73 19.97 44.30 19.97L44.30 19.97Q45.28 19.97 45.28 20.95L45.28 20.95L45.28 22.92Q45.28 24.96 45.35 27.07Q45.42 29.18 45.56 30.73Q45.70 32.27 45.81 33.50Q45.91 34.73 45.98 35.44Q46.05 36.14 46.05 36.21L46.05 36.21Q46.05 37.34 44.02 37.34L44.02 37.34Q43.03 37.34 42.82 36.67Q42.61 36 42.08 34.07Q41.55 32.13 40.08 30.09L40.08 30.09Q37.34 26.37 33.19 24.05Q29.04 21.73 24.47 21.73L24.47 21.73Q21.59 21.73 18.88 22.85Q16.17 23.98 13.75 26.30Q11.32 28.62 9.84 32.87Q8.37 37.13 8.37 42.68L8.37 42.68Q8.37 49.43 10.20 54.42Q12.02 59.41 15.01 62.02Q18 64.62 21.02 65.81Q24.05 67.01 27.14 67.01L27.14 67.01Q31.22 67.01 34.80 65.32Q38.39 63.63 39.02 62.37L39.02 62.37Q39.23 61.95 39.23 61.10L39.23 61.10L39.23 53.02Q39.23 51.61 38.32 51.19Q37.41 50.77 34.52 50.55L34.52 50.55Q33.26 50.48 32.48 50.41L32.48 50.41Q30.45 50.27 30.45 48.73L30.45 48.73Q30.45 47.11 32.06 47.11L32.06 47.11Q32.27 47.11 33.22 47.18Q34.17 47.25 35.82 47.32Q37.48 47.39 39.45 47.39L39.45 47.39L39.59 47.39Q41.63 47.39 43.38 47.32Q45.14 47.25 46.13 47.18Q47.11 47.11 47.32 47.11L47.32 47.11Q48.23 47.11 48.69 47.57Q49.15 48.02 49.15 48.59L49.15 48.59Q49.15 49.78 47.36 50.41Q45.56 51.05 45.35 51.89L45.35 51.89Q45.28 52.10 45.28 52.66L45.28 52.66L45.28 64.83Q45.28 66.23 44.30 66.23L44.30 66.23Q43.88 66.23 43.14 65.50Q42.40 64.76 42.12 64.76L42.12 64.76Q41.70 64.76 41.13 65.32L41.13 65.32Q34.80 70.88 26.37 70.88ZM51.26 54.42L51.26 54.42Q51.26 47.18 55.86 42.61Q60.47 38.04 66.80 38.04L66.80 38.04Q73.27 38.04 77.55 42.64Q81.84 47.25 81.84 54.42L81.84 54.42Q81.84 61.80 77.38 66.13Q72.91 70.45 66.52 70.45L66.52 70.45Q59.77 70.45 55.51 65.81Q51.26 61.17 51.26 54.42ZM59.55 63.32Q62.30 66.94 66.73 66.94Q71.16 66.94 74.04 63.32Q76.92 59.70 76.92 54.70L76.92 54.70Q76.92 49.08 73.72 45.25Q70.52 41.41 66.30 41.41L66.30 41.41Q62.79 41.41 59.80 44.51Q56.81 47.60 56.81 54.07L56.81 54.07Q56.81 59.70 59.55 63.32ZM109.20 66.73L109.20 66.73Q109.13 66.73 108.60 67.11Q108.07 67.50 107.19 68.03Q106.31 68.55 105.19 69.08Q104.06 69.61 102.45 70.00Q100.83 70.38 99.14 70.38L99.14 70.38Q94.71 70.38 91.76 67.64Q88.80 64.90 88.17 59.98L88.17 59.98Q87.96 57.87 87.96 55.55L87.96 55.55Q87.96 54.21 88.00 49.32Q88.03 44.44 88.03 44.02L88.03 44.02Q88.03 42.68 86.06 41.98L86.06 41.98Q85.71 41.84 84.97 41.63Q84.23 41.41 84.02 41.20Q83.81 40.99 83.81 40.43L83.81 40.43L83.81 40.22Q83.81 39.30 84.59 39.23L84.59 39.23Q91.76 38.81 92.11 38.81L92.11 38.81Q92.81 38.81 92.81 39.66L92.81 39.66L92.81 54.42Q92.81 59.13 94.15 61.88L94.15 61.88Q95.13 63.77 97.14 65.21Q99.14 66.66 101.74 66.66L101.74 66.66Q105.26 66.66 107.86 64.05L107.86 64.05Q108 63.84 108.25 63.60Q108.49 63.35 108.56 63.25Q108.63 63.14 108.77 63Q108.91 62.86 108.95 62.75Q108.98 62.65 109.05 62.51Q109.13 62.37 109.13 62.26Q109.13 62.16 109.13 61.95L109.13 61.95L109.13 44.23Q109.13 42.68 107.72 42.26L107.72 42.26Q107.37 42.12 104.34 41.63L104.34 41.63Q103.29 41.41 103.29 40.43L103.29 40.43Q103.29 39.38 104.27 39.23L104.27 39.23Q106.59 39.16 108.46 39.09Q110.32 39.02 111.06 38.99Q111.80 38.95 112.32 38.95Q112.85 38.95 113.13 38.95L113.13 38.95Q114.19 38.95 114.19 40.36L114.19 40.36L114.19 62.93Q114.19 63.14 114.22 63.25Q114.26 63.35 114.36 63.46Q114.47 63.56 114.61 63.63Q114.75 63.70 115.03 63.84Q115.31 63.98 115.66 64.13Q116.02 64.27 116.58 64.55Q117.14 64.83 117.77 65.11Q118.41 65.39 118.41 65.95L118.41 65.95Q118.41 66.73 118.09 67.01Q117.77 67.29 117.14 67.39Q116.51 67.50 114.82 68.10Q113.13 68.70 111.16 69.82L111.16 69.82Q110.74 70.10 110.39 70.10L110.39 70.10Q109.41 70.10 109.41 68.70L109.41 68.70L109.41 67.01Q109.41 66.73 109.20 66.73ZM136.83 41.55L136.83 41.55Q131.48 41.55 128.60 44.79Q125.72 48.02 125.72 53.58L125.72 53.58Q125.72 59.70 129.80 63.28Q133.88 66.87 138.23 66.87L138.23 66.87Q140.41 66.87 142.49 65.99Q144.56 65.11 144.98 63.77L144.98 63.77Q145.27 62.65 145.27 62.16L145.27 62.16L145.27 45.98Q145.27 45.07 144.49 44.30L144.49 44.30Q141.54 41.55 136.83 41.55ZM136.90 38.67L136.97 38.67Q139.08 38.67 140.91 38.92Q142.73 39.16 143.72 39.45L143.72 39.45L144.70 39.73Q145.27 39.73 145.27 39.09L145.27 39.09L145.27 27Q145.27 26.79 145.23 26.61Q145.20 26.44 145.16 26.30Q145.13 26.16 145.02 26.02Q144.91 25.88 144.84 25.80Q144.77 25.73 144.53 25.59Q144.28 25.45 144.11 25.35Q143.93 25.24 143.54 25.10Q143.16 24.96 142.84 24.82Q142.52 24.68 141.96 24.47Q141.40 24.26 140.91 24.05L140.91 24.05Q139.57 23.70 139.57 22.92L139.57 22.92Q139.57 22.50 140.20 22.08L140.20 22.08Q149.20 17.72 149.48 17.72L149.48 17.72Q150.33 17.72 150.33 18.70L150.33 18.70Q150.33 19.41 150.26 22.39Q150.19 25.38 150.15 30.62Q150.12 35.86 150.12 42.05L150.12 42.05Q150.12 61.31 150.33 63.21L150.33 63.21Q150.33 63.42 150.36 63.53Q150.40 63.63 150.47 63.74Q150.54 63.84 150.64 63.91Q150.75 63.98 150.93 64.02Q151.10 64.05 151.24 64.09Q151.38 64.13 151.70 64.13Q152.02 64.13 152.26 64.13Q152.51 64.13 152.93 64.16Q153.35 64.20 153.70 64.20L153.70 64.20Q155.11 64.20 155.11 65.25L155.11 65.25Q155.11 65.74 154.72 66.02Q154.34 66.30 153.11 66.83Q151.88 67.36 150.82 67.99L150.82 67.99Q149.41 68.77 148.29 69.57Q147.16 70.38 146.67 70.77Q146.18 71.16 145.90 71.16L145.90 71.16Q145.34 71.16 145.34 70.38L145.34 70.38L145.34 68.06Q145.34 67.85 145.13 67.85L145.13 67.85L144.70 68.13Q144.35 68.41 143.65 68.84Q142.95 69.26 142.00 69.68Q141.05 70.10 139.61 70.38Q138.16 70.66 136.62 70.66L136.62 70.66Q129.66 70.66 125.26 65.92Q120.87 61.17 120.87 54.21L120.87 54.21Q120.87 47.95 124.91 43.31Q128.95 38.67 136.90 38.67L136.90 38.67ZM161.79 85.15L161.79 85.15Q160.59 85.15 159.79 84.38Q158.98 83.60 158.98 82.55L158.98 82.55Q158.98 81.28 159.89 80.33Q160.80 79.38 162.60 78.26Q164.39 77.13 165.30 76.29L165.30 76.29Q166.85 74.88 168.50 72.18Q170.16 69.47 170.16 68.06L170.16 68.06Q170.16 66.23 162.14 50.20L162.14 50.20Q158.84 43.73 158.20 42.82L158.20 42.82Q157.78 42.19 157.04 42.08Q156.30 41.98 155.88 41.73Q155.46 41.48 155.46 40.43L155.46 40.43Q155.46 39.23 156.45 39.23L156.45 39.23Q156.59 39.23 157.29 39.27Q157.99 39.30 159.29 39.38Q160.59 39.45 162.07 39.45Q163.55 39.45 164.85 39.38Q166.15 39.30 166.89 39.27Q167.63 39.23 167.77 39.23L167.77 39.23Q168.75 39.23 168.75 40.36L168.75 40.36Q168.75 40.64 168.71 40.82Q168.68 40.99 168.68 41.13Q168.68 41.27 168.57 41.38Q168.47 41.48 168.43 41.59Q168.40 41.70 168.22 41.73Q168.05 41.77 167.98 41.80Q167.91 41.84 167.63 41.87Q167.34 41.91 167.20 41.94Q167.06 41.98 166.68 42.01Q166.29 42.05 166.08 42.05L166.08 42.05Q164.95 42.19 164.95 43.03L164.95 43.03Q164.95 43.38 165.83 45.74Q166.71 48.09 168.64 52.31Q170.58 56.53 172.83 60.75L172.83 60.75Q172.83 61.17 173.32 61.17L173.32 61.17Q173.53 61.17 173.67 61.03Q173.81 60.89 173.88 60.71Q173.95 60.54 174.02 60.47L174.02 60.47Q179.93 46.34 179.93 43.52L179.93 43.52Q179.93 43.10 179.82 42.82Q179.72 42.54 179.58 42.36Q179.44 42.19 179.09 42.12Q178.73 42.05 178.45 42.01Q178.17 41.98 177.54 41.98Q176.91 41.98 176.48 41.91L176.48 41.91Q175.15 41.77 175.15 40.50Q175.15 39.23 176.48 39.23L176.48 39.23Q176.63 39.23 177.33 39.27Q178.03 39.30 179.33 39.38Q180.63 39.45 182.11 39.45L182.11 39.45L182.18 39.45Q183.66 39.45 184.89 39.38Q186.12 39.30 186.82 39.27Q187.52 39.23 187.66 39.23L187.66 39.23Q188.51 39.23 188.51 40.71L188.51 40.71Q188.51 41.48 188.09 41.66Q187.66 41.84 185.70 42.05L185.70 42.05Q184.99 42.12 184.75 42.54Q184.50 42.96 183.66 45.21L183.66 45.21Q181.97 49.99 180 54.77L180 54.77Q173.04 71.79 167.13 80.72L167.13 80.72Q164.25 85.15 161.79 85.15ZM213.33 19.76L213.33 19.76Q215.51 19.76 219.62 19.41Q223.73 19.05 225.84 19.05L225.84 19.05Q233.65 19.05 237.80 21.94L237.80 21.94Q242.23 25.17 242.23 30.23L242.23 30.23Q242.23 33.54 240.33 36.49Q238.43 39.45 235.41 41.34L235.41 41.34L235.20 41.55Q235.20 41.63 235.48 41.77L235.48 41.77Q239.70 42.54 242.58 46.05Q245.46 49.57 245.46 54.28L245.46 54.28Q245.46 59.06 242.72 62.68Q239.98 66.30 236.32 67.92L236.32 67.92Q232.73 69.54 227.67 69.54L227.67 69.54Q225.98 69.54 222.75 69.33Q219.52 69.12 217.83 69.12L217.83 69.12Q216.63 69.12 213.96 69.19Q211.29 69.26 209.60 69.26L209.60 69.26L209.46 69.26Q209.04 69.26 208.79 69.19Q208.55 69.12 208.30 68.70Q208.05 68.27 208.05 67.50L208.05 67.50Q208.05 66.66 208.58 66.45Q209.11 66.23 211.15 66.02L211.15 66.02Q211.78 65.95 212.13 65.88L212.13 65.88Q212.63 65.81 212.87 65.71Q213.12 65.60 213.36 65.29Q213.61 64.97 213.61 64.41L213.61 64.41L213.61 25.03Q213.61 23.70 212.87 23.31Q212.13 22.92 210.23 22.78L210.23 22.78Q210.02 22.78 209.88 22.78L209.88 22.78Q208.62 22.78 208.62 20.95L208.62 20.95Q208.62 19.69 209.88 19.69L209.88 19.69Q209.95 19.69 210.38 19.72Q210.80 19.76 211.61 19.76Q212.41 19.76 213.33 19.76ZM235.83 31.78L235.83 31.78Q235.83 30.30 235.34 28.79Q234.84 27.28 233.72 25.73Q232.59 24.19 230.38 23.20Q228.16 22.22 225.21 22.22L225.21 22.22Q221.20 22.22 220.15 23.06L220.15 23.06Q219.80 23.34 219.80 23.98L219.80 23.98L219.80 24.12L219.80 39.52Q219.80 40.43 220.57 40.43L220.57 40.43L223.80 40.43L224.72 40.43Q232.31 40.43 234.77 35.86L234.77 35.86Q235.83 33.75 235.83 31.78ZM225.35 66.16L225.35 66.16Q231.05 66.16 235.05 63.11Q239.06 60.05 239.06 54.63L239.06 54.63Q239.06 51.05 236.99 47.99Q234.91 44.93 230.55 44.02L230.55 44.02Q228.23 43.52 224.51 43.52L224.51 43.52L220.85 43.52Q219.80 43.52 219.80 44.65L219.80 44.65L219.80 63.21Q219.80 63.98 219.90 64.41Q220.01 64.83 220.50 65.29Q220.99 65.74 221.98 65.88L221.98 65.88Q224.09 66.16 225.35 66.16ZM248.98 54.42L248.98 54.42Q248.98 47.18 253.58 42.61Q258.19 38.04 264.52 38.04L264.52 38.04Q270.98 38.04 275.27 42.64Q279.56 47.25 279.56 54.42L279.56 54.42Q279.56 61.80 275.10 66.13Q270.63 70.45 264.23 70.45L264.23 70.45Q257.48 70.45 253.23 65.81Q248.98 61.17 248.98 54.42ZM257.27 63.32Q260.02 66.94 264.45 66.94Q268.88 66.94 271.76 63.32Q274.64 59.70 274.64 54.70L274.64 54.70Q274.64 49.08 271.44 45.25Q268.24 41.41 264.02 41.41L264.02 41.41Q260.51 41.41 257.52 44.51Q254.53 47.60 254.53 54.07L254.53 54.07Q254.53 59.70 257.27 63.32ZM282.59 54.42L282.59 54.42Q282.59 47.18 287.19 42.61Q291.80 38.04 298.13 38.04L298.13 38.04Q304.59 38.04 308.88 42.64Q313.17 47.25 313.17 54.42L313.17 54.42Q313.17 61.80 308.71 66.13Q304.24 70.45 297.84 70.45L297.84 70.45Q291.09 70.45 286.84 65.81Q282.59 61.17 282.59 54.42ZM290.88 63.32Q293.63 66.94 298.05 66.94Q302.48 66.94 305.37 63.32Q308.25 59.70 308.25 54.70L308.25 54.70Q308.25 49.08 305.05 45.25Q301.85 41.41 297.63 41.41L297.63 41.41Q294.12 41.41 291.13 44.51Q288.14 47.60 288.14 54.07L288.14 54.07Q288.14 59.70 290.88 63.32ZM330.75 68.34L330.75 68.27Q330.75 67.36 331.28 66.97Q331.80 66.59 332.47 66.62Q333.14 66.66 333.67 66.38Q334.20 66.09 334.20 65.39Q334.20 64.69 332.30 62.02Q330.40 59.34 328.68 57.16Q326.95 54.98 326.74 54.77L326.74 54.77Q326.74 54.63 326.46 54.63Q326.18 54.63 325.34 55.55Q324.49 56.46 324.42 56.74L324.42 56.74Q324.35 56.95 324.35 57.52L324.35 57.52L324.35 64.97Q324.35 65.95 324.84 66.16Q325.34 66.38 327.66 66.66L327.66 66.66Q329.20 67.01 329.20 68.20Q329.20 69.40 328.22 69.40L328.22 69.40Q328.08 69.40 327.38 69.33Q326.67 69.26 325.41 69.19Q324.14 69.12 322.66 69.12Q321.19 69.12 319.92 69.19Q318.66 69.26 317.92 69.33Q317.18 69.40 317.04 69.40L317.04 69.40Q315.77 69.40 315.77 68.13L315.77 68.13Q315.77 67.29 316.34 66.97Q316.90 66.66 317.57 66.66Q318.23 66.66 318.83 66.30Q319.43 65.95 319.50 65.11L319.50 65.11L319.50 26.30Q319.50 25.17 318.59 24.54L318.59 24.54Q315.42 22.36 315.28 22.22L315.28 22.22L315 21.66Q315 20.95 316.48 20.46L316.48 20.46Q323.30 17.44 323.58 17.44L323.58 17.44Q324.35 17.44 324.35 18.63L324.35 18.63L324.35 52.66Q324.35 52.95 324.56 52.95L324.56 52.95Q324.84 52.95 324.98 52.66L324.98 52.66Q326.04 51.61 327.13 50.52Q328.22 49.43 328.82 48.83Q329.41 48.23 330.05 47.60Q330.68 46.97 331.00 46.62Q331.31 46.27 331.59 45.91Q331.88 45.56 331.95 45.32Q332.02 45.07 332.09 44.79Q332.16 44.51 332.16 44.16L332.16 44.16Q332.16 42.96 331.21 42.22Q330.26 41.48 330.26 41.13L330.26 41.13L330.26 40.36Q330.26 39.45 331.80 39.45L331.80 39.45L335.95 39.45Q338.06 39.45 339.86 39.38Q341.65 39.30 342.67 39.27Q343.69 39.23 343.90 39.23L343.90 39.23Q344.95 39.23 344.95 40.57L344.95 40.57Q344.95 41.41 344.60 41.70Q344.25 41.98 342.95 42.12Q341.65 42.26 340.80 42.47L340.80 42.47Q339.26 42.89 337.50 44.16Q335.74 45.42 334.62 46.55Q333.49 47.67 330.33 50.91L330.33 50.91Q329.84 51.40 329.84 51.54L329.84 51.54Q329.84 51.82 338.20 61.80L338.20 61.80Q339.47 63.28 340.24 64.09Q341.02 64.90 342.46 65.74Q343.90 66.59 345.52 66.80L345.52 66.80Q346.71 66.94 346.71 68.06L346.71 68.06Q346.71 69.54 345.52 69.54L345.52 69.54Q345.45 69.54 345.06 69.50Q344.67 69.47 344.04 69.40Q343.41 69.33 342.60 69.26Q341.79 69.19 340.73 69.15Q339.68 69.12 338.63 69.12Q337.57 69.12 336.52 69.15Q335.46 69.19 334.65 69.26Q333.84 69.33 333.21 69.40Q332.58 69.47 332.19 69.50Q331.80 69.54 331.73 69.54L331.73 69.54Q330.75 69.54 330.75 68.34L330.75 68.34ZM363.66 68.13L363.66 68.13Q363.66 69.54 362.81 69.54L362.81 69.54Q362.74 69.54 362.36 69.50Q361.97 69.47 361.34 69.40Q360.70 69.33 359.93 69.26Q359.16 69.19 358.10 69.15Q357.05 69.12 356.06 69.12Q355.08 69.12 354.09 69.15Q353.11 69.19 352.34 69.22Q351.56 69.26 350.96 69.33Q350.37 69.40 350.02 69.43Q349.66 69.47 349.59 69.47L349.59 69.47Q348.54 69.47 348.54 68.20L348.54 68.20L348.54 67.99Q348.54 67.08 349.00 66.83Q349.45 66.59 351.49 66.38L351.49 66.38Q352.76 66.23 353.14 65.57Q353.53 64.90 353.53 63.63L353.53 63.63L353.53 27Q353.53 26.79 353.50 26.61Q353.46 26.44 353.39 26.30Q353.32 26.16 353.29 26.05Q353.25 25.95 353.07 25.84Q352.90 25.73 352.79 25.66Q352.69 25.59 352.37 25.42Q352.05 25.24 351.91 25.17L351.91 25.17Q351.21 24.75 350.40 24.29Q349.59 23.84 349.28 23.63Q348.96 23.41 348.61 23.17Q348.26 22.92 348.15 22.75Q348.05 22.57 348.05 22.36L348.05 22.36L348.05 22.29Q348.05 21.94 350.72 20.53L350.72 20.53Q354.02 18.91 356.91 17.37L356.91 17.37Q357.33 17.09 357.82 17.09L357.82 17.09Q358.80 17.09 358.80 18.42L358.80 18.42L358.80 63.98Q358.80 64.41 358.84 64.69Q358.88 64.97 358.95 65.21Q359.02 65.46 359.09 65.60Q359.16 65.74 359.40 65.88Q359.65 66.02 359.75 66.09Q359.86 66.16 360.25 66.27Q360.63 66.38 360.81 66.41Q360.98 66.45 361.58 66.52Q362.18 66.59 362.46 66.66L362.46 66.66Q363.66 66.87 363.66 68.13ZM366.05 54.28L366.05 54.28Q366.05 46.97 369.91 42.54Q373.78 38.11 379.34 38.11L379.34 38.11Q382.92 38.11 386.23 40.08Q389.53 42.05 391.71 45L391.71 45Q392.27 45.70 392.27 46.55L392.27 46.55L392.27 46.69Q392.27 47.32 391.92 47.81Q391.57 48.30 390.80 48.69Q390.02 49.08 389.46 49.29Q388.90 49.50 387.81 49.85Q386.72 50.20 386.44 50.27L386.44 50.27Q371.74 55.34 371.39 55.55L371.39 55.55Q371.11 55.69 371.11 55.97L371.11 55.97Q371.11 56.39 371.32 57.38Q371.53 58.36 372.27 59.98Q373.01 61.59 374.10 62.96Q375.19 64.34 377.23 65.36Q379.27 66.38 381.80 66.38L381.80 66.38Q386.72 66.38 390.38 62.86L390.38 62.86Q391.36 61.88 391.99 61.88L391.99 61.88Q393.19 61.88 393.19 62.93L393.19 62.93Q393.19 63.35 392.63 64.05L392.63 64.05Q390.38 67.01 387 68.73Q383.63 70.45 379.90 70.45L379.90 70.45Q377.51 70.45 375.22 69.61Q372.94 68.77 370.79 67.01Q368.65 65.25 367.35 61.95Q366.05 58.64 366.05 54.28ZM385.31 46.83L385.31 46.83Q385.31 45.91 382.85 43.98Q380.39 42.05 377.72 42.05L377.72 42.05Q374.55 42.05 372.69 44.79Q370.83 47.53 370.83 52.31L370.83 52.31Q370.83 52.88 371.18 52.88L371.18 52.88Q371.32 52.88 377.89 50.31Q384.47 47.74 384.68 47.67L384.68 47.67Q385.31 47.32 385.31 46.83ZM399.02 42.82L396.70 42.82Q395.23 42.82 395.23 41.91L395.23 41.91Q395.23 41.48 396.25 40.61Q397.27 39.73 399.16 37.65Q401.06 35.58 402.75 32.77L402.75 32.77Q403.52 31.43 404.16 31.43L404.16 31.43Q405.14 31.43 405.14 32.63L405.14 32.63Q405.14 33.12 405.11 35.16Q405.07 37.20 405.07 37.69L405.07 37.69Q405.07 39.09 406.48 39.09L406.48 39.09L412.95 39.09Q413.09 39.09 413.30 39.13Q413.51 39.16 413.58 39.16L413.58 39.16Q415.41 39.16 415.41 40.50Q415.41 41.84 414.77 42.61L414.77 42.61Q414.42 42.96 413.51 42.96L413.51 42.96L405.07 42.96Q404.37 42.96 404.37 43.66L404.37 43.66Q404.37 49.50 404.33 53.37Q404.30 57.23 404.26 58.57Q404.23 59.91 404.23 60.47L404.23 60.47Q404.23 65.81 407.95 65.81L407.95 65.81Q409.43 65.81 411.05 64.72Q412.66 63.63 413.89 62.54Q415.13 61.45 415.76 61.45L415.76 61.45Q416.32 61.45 416.71 61.88Q417.09 62.30 417.09 62.79L417.09 62.79Q417.09 63.21 416.60 63.98L416.60 63.98Q410.91 70.45 406.55 70.45L406.55 70.45Q403.95 70.45 401.80 68.38Q399.66 66.30 399.30 61.73L399.30 61.73Q399.23 60.96 399.23 59.41L399.23 59.41Q399.23 57.66 399.38 50.87Q399.52 44.09 399.52 43.45Q399.52 42.82 399.02 42.82L399.02 42.82ZM422.93 42.82L420.61 42.82Q419.13 42.82 419.13 41.91L419.13 41.91Q419.13 41.48 420.15 40.61Q421.17 39.73 423.07 37.65Q424.97 35.58 426.66 32.77L426.66 32.77Q427.43 31.43 428.06 31.43L428.06 31.43Q429.05 31.43 429.05 32.63L429.05 32.63Q429.05 33.12 429.01 35.16Q428.98 37.20 428.98 37.69L428.98 37.69Q428.98 39.09 430.38 39.09L430.38 39.09L436.85 39.09Q436.99 39.09 437.20 39.13Q437.41 39.16 437.48 39.16L437.48 39.16Q439.31 39.16 439.31 40.50Q439.31 41.84 438.68 42.61L438.68 42.61Q438.33 42.96 437.41 42.96L437.41 42.96L428.98 42.96Q428.27 42.96 428.27 43.66L428.27 43.66Q428.27 49.50 428.24 53.37Q428.20 57.23 428.17 58.57Q428.13 59.91 428.13 60.47L428.13 60.47Q428.13 65.81 431.86 65.81L431.86 65.81Q433.34 65.81 434.95 64.72Q436.57 63.63 437.80 62.54Q439.03 61.45 439.66 61.45L439.66 61.45Q440.23 61.45 440.61 61.88Q441 62.30 441 62.79L441 62.79Q441 63.21 440.51 63.98L440.51 63.98Q434.81 70.45 430.45 70.45L430.45 70.45Q427.85 70.45 425.71 68.38Q423.56 66.30 423.21 61.73L423.21 61.73Q423.14 60.96 423.14 59.41L423.14 59.41Q423.14 57.66 423.28 50.87Q423.42 44.09 423.42 43.45Q423.42 42.82 422.93 42.82L422.93 42.82ZM443.25 54.28L443.25 54.28Q443.25 46.97 447.12 42.54Q450.98 38.11 456.54 38.11L456.54 38.11Q460.13 38.11 463.43 40.08Q466.73 42.05 468.91 45L468.91 45Q469.48 45.70 469.48 46.55L469.48 46.55L469.48 46.69Q469.48 47.32 469.13 47.81Q468.77 48.30 468 48.69Q467.23 49.08 466.66 49.29Q466.10 49.50 465.01 49.85Q463.92 50.20 463.64 50.27L463.64 50.27Q448.95 55.34 448.59 55.55L448.59 55.55Q448.31 55.69 448.31 55.97L448.31 55.97Q448.31 56.39 448.52 57.38Q448.73 58.36 449.47 59.98Q450.21 61.59 451.30 62.96Q452.39 64.34 454.43 65.36Q456.47 66.38 459 66.38L459 66.38Q463.92 66.38 467.58 62.86L467.58 62.86Q468.56 61.88 469.20 61.88L469.20 61.88Q470.39 61.88 470.39 62.93L470.39 62.93Q470.39 63.35 469.83 64.05L469.83 64.05Q467.58 67.01 464.20 68.73Q460.83 70.45 457.10 70.45L457.10 70.45Q454.71 70.45 452.43 69.61Q450.14 68.77 448.00 67.01Q445.85 65.25 444.55 61.95Q443.25 58.64 443.25 54.28ZM462.52 46.83L462.52 46.83Q462.52 45.91 460.05 43.98Q457.59 42.05 454.92 42.05L454.92 42.05Q451.76 42.05 449.89 44.79Q448.03 47.53 448.03 52.31L448.03 52.31Q448.03 52.88 448.38 52.88L448.38 52.88Q448.52 52.88 455.10 50.31Q461.67 47.74 461.88 47.67L461.88 47.67Q462.52 47.32 462.52 46.83ZM481.43 41.98L481.43 41.98Q481.50 41.98 482.98 40.96Q484.45 39.94 486.28 38.74Q488.11 37.55 488.95 37.27Q489.80 36.98 491.06 36.98L491.06 36.98Q493.03 36.98 494.86 37.86Q496.69 38.74 496.69 40.15L496.69 40.15L496.69 40.22Q496.69 40.64 496.41 41.06Q496.13 41.48 495.91 41.70Q495.70 41.91 495.21 42.33L495.21 42.33L494.72 42.75Q494.65 42.75 493.98 43.28Q493.31 43.80 492.82 44.02Q492.33 44.23 491.77 44.23L491.77 44.23Q490.92 44.23 489.83 43.31Q488.74 42.40 487.48 42.40L487.48 42.40Q485.93 42.40 484.17 43.52Q482.41 44.65 481.92 45.35L481.92 45.35Q481.64 45.77 481.64 46.69L481.64 46.69L481.64 63.91L481.64 64.20Q481.64 66.23 483.40 66.38L483.40 66.38Q484.10 66.45 485.30 66.52L485.30 66.52Q487.48 66.66 488.07 66.90Q488.67 67.15 488.67 68.13L488.67 68.13Q488.67 69.54 487.69 69.54L487.69 69.54Q487.62 69.54 487.23 69.50Q486.84 69.47 486.14 69.40Q485.44 69.33 484.59 69.26Q483.75 69.19 482.59 69.15Q481.43 69.12 480.38 69.12L480.38 69.12Q479.25 69.12 478.13 69.15Q477 69.19 476.12 69.26Q475.24 69.33 474.57 69.40Q473.91 69.47 473.52 69.50Q473.13 69.54 473.06 69.54L473.06 69.54Q471.87 69.54 471.87 68.34L471.87 68.34Q471.87 67.71 472.15 67.39Q472.43 67.08 472.71 66.97Q472.99 66.87 473.80 66.76Q474.61 66.66 475.10 66.52L475.10 66.52Q476.44 66.23 476.44 64.83L476.44 64.83L476.44 45.70Q476.44 45.28 476.37 45.04Q476.30 44.79 475.98 44.47Q475.66 44.16 475.35 43.95Q475.03 43.73 474.12 43.10Q473.20 42.47 472.43 41.91L472.43 41.91Q472.22 41.70 472.15 41.41L472.15 41.41Q472.15 41.13 475.03 39.80L475.03 39.80Q477.63 38.53 479.74 37.48L479.74 37.48Q479.81 37.48 479.95 37.41L479.95 37.41Q480.23 37.27 480.38 37.27L480.38 37.27Q481.22 37.27 481.22 38.74L481.22 38.74L481.22 41.63Q481.22 41.98 481.43 41.98ZM522.21 38.78Q524.25 38.81 526.57 38.81Q528.89 38.81 530.89 38.78Q532.90 38.74 534.02 38.67Q535.15 38.60 535.36 38.60L535.36 38.60Q536.34 38.60 536.34 40.15L536.34 40.15Q536.34 41.41 532.97 41.55L532.97 41.55Q531.70 41.63 530.93 41.70L530.93 41.70Q529.95 41.77 529.95 42.82L529.95 42.82L529.95 64.76Q529.95 66.16 531.21 66.23L531.21 66.23Q531.98 66.30 532.79 66.34Q533.60 66.38 534.13 66.41Q534.66 66.45 535.22 66.48Q535.78 66.52 536.06 66.59Q536.34 66.66 536.70 66.73Q537.05 66.80 537.19 66.94Q537.33 67.08 537.47 67.25Q537.61 67.43 537.64 67.68Q537.68 67.92 537.68 68.27L537.68 68.27Q537.68 69.54 536.41 69.54L536.41 69.54Q536.34 69.54 535.85 69.50Q535.36 69.47 534.52 69.40Q533.67 69.33 532.62 69.26Q531.56 69.19 530.19 69.15Q528.82 69.12 527.48 69.12Q526.15 69.12 524.81 69.15Q523.48 69.19 522.42 69.26Q521.37 69.33 520.56 69.40Q519.75 69.47 519.26 69.50Q518.77 69.54 518.70 69.54L518.70 69.54Q517.71 69.54 517.71 68.06L517.71 68.06Q517.71 66.80 518.98 66.66L518.98 66.66Q520.03 66.59 521.58 66.45L521.58 66.45Q523.62 66.38 524.04 66.16Q524.46 65.95 524.46 64.97L524.46 64.97L524.46 42.82Q524.46 41.84 523.41 41.70L523.41 41.70Q517.85 41.41 517.71 41.41L517.71 41.41Q516.66 41.13 516.66 39.73L516.66 39.73Q516.66 38.60 517.71 38.60L517.71 38.60Q517.92 38.60 519.05 38.67Q520.17 38.74 522.21 38.78ZM547.95 51.12L547.95 51.12Q547.95 56.88 551.43 61.77Q554.91 66.66 560.81 66.66L560.81 66.66Q564.05 66.66 565.63 65.32Q567.21 63.98 567.98 61.52L567.98 61.52Q568.76 58.85 568.76 56.46L568.76 56.46Q568.76 50.34 564.96 45.95Q561.16 41.55 556.24 41.55L556.24 41.55Q553.01 41.55 550.48 43.95Q547.95 46.34 547.95 51.12ZM560.18 69.47L560.18 69.47Q552.94 69.47 547.80 64.48Q542.67 59.48 542.67 52.80L542.67 52.80Q542.67 46.69 547.03 42.50Q551.39 38.32 557.51 38.32L557.51 38.32Q564.40 38.32 569.36 43.63Q574.31 48.94 574.31 56.53L574.31 56.53Q574.31 64.97 567.98 72.84Q561.66 80.72 551.53 83.81L551.53 83.81Q549.70 84.30 549.28 84.30L549.28 84.30Q548.58 84.30 548.26 83.67Q547.95 83.04 547.95 82.55L547.95 82.55Q547.95 81.70 549.14 81.35L549.14 81.35Q552.30 80.37 555.22 78.71Q558.14 77.06 560.07 75.45Q562.01 73.83 563.45 72.28Q564.89 70.73 565.56 69.82Q566.23 68.91 566.23 68.77L566.23 68.77Q566.23 68.55 566.02 68.55L566.02 68.55L565.66 68.70Q565.31 68.77 564.79 68.87Q564.26 68.98 563.55 69.12Q562.85 69.26 561.94 69.36Q561.02 69.47 560.18 69.47ZM584.44 38.78Q586.48 38.81 588.80 38.81Q591.12 38.81 593.12 38.78Q595.13 38.74 596.25 38.67Q597.38 38.60 597.59 38.60L597.59 38.60Q598.57 38.60 598.57 40.15L598.57 40.15Q598.57 41.41 595.20 41.55L595.20 41.55Q593.93 41.63 593.16 41.70L593.16 41.70Q592.17 41.77 592.17 42.82L592.17 42.82L592.17 64.76Q592.17 66.16 593.44 66.23L593.44 66.23Q594.21 66.30 595.02 66.34Q595.83 66.38 596.36 66.41Q596.88 66.45 597.45 66.48Q598.01 66.52 598.29 66.59Q598.57 66.66 598.92 66.73Q599.27 66.80 599.41 66.94Q599.55 67.08 599.70 67.25Q599.84 67.43 599.87 67.68Q599.91 67.92 599.91 68.27L599.91 68.27Q599.91 69.54 598.64 69.54L598.64 69.54Q598.57 69.54 598.08 69.50Q597.59 69.47 596.74 69.40Q595.90 69.33 594.84 69.26Q593.79 69.19 592.42 69.15Q591.05 69.12 589.71 69.12Q588.38 69.12 587.04 69.15Q585.70 69.19 584.65 69.26Q583.59 69.33 582.79 69.40Q581.98 69.47 581.48 69.50Q580.99 69.54 580.92 69.54L580.92 69.54Q579.94 69.54 579.94 68.06L579.94 68.06Q579.94 66.80 581.20 66.66L581.20 66.66Q582.26 66.59 583.80 66.45L583.80 66.45Q585.84 66.38 586.27 66.16Q586.69 65.95 586.69 64.97L586.69 64.97L586.69 42.82Q586.69 41.84 585.63 41.70L585.63 41.70Q580.08 41.41 579.94 41.41L579.94 41.41Q578.88 41.13 578.88 39.73L578.88 39.73Q578.88 38.60 579.94 38.60L579.94 38.60Q580.15 38.60 581.27 38.67Q582.40 38.74 584.44 38.78ZM610.03 38.78Q612.07 38.81 614.39 38.81Q616.71 38.81 618.71 38.78Q620.72 38.74 621.84 38.67Q622.97 38.60 623.18 38.60L623.18 38.60Q624.16 38.60 624.16 40.15L624.16 40.15Q624.16 41.41 620.79 41.55L620.79 41.55Q619.52 41.63 618.75 41.70L618.75 41.70Q617.77 41.77 617.77 42.82L617.77 42.82L617.77 64.76Q617.77 66.16 619.03 66.23L619.03 66.23Q619.80 66.30 620.61 66.34Q621.42 66.38 621.95 66.41Q622.48 66.45 623.04 66.48Q623.60 66.52 623.88 66.59Q624.16 66.66 624.52 66.73Q624.87 66.80 625.01 66.94Q625.15 67.08 625.29 67.25Q625.43 67.43 625.46 67.68Q625.50 67.92 625.50 68.27L625.50 68.27Q625.50 69.54 624.23 69.54L624.23 69.54Q624.16 69.54 623.67 69.50Q623.18 69.47 622.34 69.40Q621.49 69.33 620.44 69.26Q619.38 69.19 618.01 69.15Q616.64 69.12 615.30 69.12Q613.97 69.12 612.63 69.15Q611.30 69.19 610.24 69.26Q609.19 69.33 608.38 69.40Q607.57 69.47 607.08 69.50Q606.59 69.54 606.52 69.54L606.52 69.54Q605.53 69.54 605.53 68.06L605.53 68.06Q605.53 66.80 606.80 66.66L606.80 66.66Q607.85 66.59 609.40 66.45L609.40 66.45Q611.44 66.38 611.86 66.16Q612.28 65.95 612.28 64.97L612.28 64.97L612.28 42.82Q612.28 41.84 611.23 41.70L611.23 41.70Q605.67 41.41 605.53 41.41L605.53 41.41Q604.48 41.13 604.48 39.73L604.48 39.73Q604.48 38.60 605.53 38.60L605.53 38.60Q605.74 38.60 606.87 38.67Q607.99 38.74 610.03 38.78Z"/></svg>