<?xml version="1.0" standalone="no"?>
<!DOCTYPE svg PUBLIC "-//W3C//DTD SVG 1.1//EN" "http://www.w3.org/Graphics/SVG/1.1/DTD/svg11.dtd" >
<svg xmlns="http://www.w3.org/2000/svg">
<metadata></metadata>
<defs>
<font id="charter_itc_scbold" horiz-adv-x="1024" >
<font-face units-per-em="2048" ascent="1638" descent="-410" />
<missing-glyph horiz-adv-x="477" />
<glyph horiz-adv-x="0" />
<glyph horiz-adv-x="682" />
<glyph unicode=" "  horiz-adv-x="477" />
<glyph unicode="&#x09;" horiz-adv-x="477" />
<glyph unicode="&#xa0;" horiz-adv-x="477" />
<glyph unicode="!" horiz-adv-x="544" d="M152 100q0 48 34 80.5t86 32.5q49 0 84 -33.5t35 -79.5t-35.5 -78t-85.5 -32q-49 0 -83.5 32t-34.5 78zM152 891q0 56 31.5 87.5t88.5 31.5t88 -33t31 -94q0 -24 -4 -64l-74 -528h-82l-73 524q-6 40 -6 76z" />
<glyph unicode="&#x22;" horiz-adv-x="696" d="M84 1348q0 114 94 114q46 0 71 -27.5t25 -78.5q0 -24 -4 -56l-71 -444h-39l-72 444q-4 23 -4 48zM422 1350q0 112 96 112q94 0 94 -110q0 -12 -4 -52l-71 -444h-39l-72 444q-4 36 -4 50z" />
<glyph unicode="#" horiz-adv-x="1507" d="M119 453v122h319l90 277h-309v127h350l160 475l129 -37l-151 -438h272l156 473l129 -37l-152 -436h274v-127h-315l-90 -277h322v-122h-365l-160 -500l-131 33l154 467h-266l-164 -502l-129 37l157 465h-280zM575 575h265l94 277h-268z" />
<glyph unicode="$" horiz-adv-x="1189" d="M125 63v355h137l41 -242q113 -52 246 -55v467q-217 60 -312.5 151.5t-95.5 241.5q0 158 105 257t303 130v152h113v-150q147 -3 362 -57v-338h-133l-37 229q-38 21 -75 30t-117 17v-438q225 -59 327.5 -153.5t102.5 -243.5q0 -164 -114.5 -273.5t-315.5 -140.5v-211h-113 v211q-140 6 -233 19.5t-191 41.5zM383 1042q0 -75 40 -123t126 -77v401q-166 -40 -166 -201zM662 129q92 19 140 75t48 144q0 80 -45 130t-143 81v-430z" />
<glyph unicode="%" horiz-adv-x="1818" d="M63 971q0 201 92 314.5t253 113.5q155 0 246 -116.5t91 -313.5q0 -198 -92 -314t-250 -116t-249 115.5t-91 316.5zM258 971q0 -338 139 -338q144 0 144 338q0 336 -146 336q-137 0 -137 -336zM403 0l857 1374h143l-856 -1374h-144zM1071 401q0 203 91.5 318t254.5 115 q154 0 246 -116t92 -310q0 -201 -91 -317t-251 -116t-251 114t-91 312zM1268 406q0 -166 36 -252t105 -86q141 0 141 338q0 166 -36 251.5t-105 85.5t-105 -87t-36 -250z" />
<glyph unicode="&#x26;" horiz-adv-x="1306" d="M68 285q0 95 58 159.5t179 102.5q-153 104 -153 233q0 117 106 190.5t272 73.5q159 0 256 -67.5t97 -179.5q0 -86 -61.5 -147t-190.5 -101l246 -225q39 53 53 79t26 68l-16 21l-96 14v84h397v-84l-125 -21q-34 -83 -68 -138t-83 -105l147 -144l152 -8v-90h-400v43l-57 59 q-89 -64 -174 -93t-184 -29q-166 0 -273.5 86.5t-107.5 218.5zM324 336q0 -94 66 -154.5t169 -60.5q91 0 164 57l-328 299q-39 -30 -55 -62.5t-16 -78.5zM399 825q0 -49 30.5 -92.5t113.5 -114.5q55 37 78.5 77.5t23.5 99.5q0 69 -33 107t-92 38q-54 0 -87.5 -32t-33.5 -83z " />
<glyph unicode="'" horiz-adv-x="358" d="M84 1348q0 114 94 114q46 0 71 -27.5t25 -78.5q0 -24 -4 -56l-71 -444h-39l-72 444q-4 23 -4 48z" />
<glyph unicode="(" horiz-adv-x="876" d="M186 575q0 298 80.5 503.5t235.5 303.5q64 42 129.5 62t159.5 26v-104q-97 -17 -159 -62.5t-106 -132.5q-98 -183 -98 -583q0 -375 87 -560.5t276 -213.5v-105q-108 8 -186 35t-146 82q-132 106 -202.5 298.5t-70.5 450.5z" />
<glyph unicode=")" horiz-adv-x="876" d="M86 -186q189 28 276 213.5t87 560.5q0 460 -136 643q-42 60 -94.5 90.5t-132.5 44.5v104q115 -7 196.5 -38.5t153.5 -94.5q125 -107 189.5 -300.5t64.5 -458.5q0 -289 -85.5 -493t-246.5 -298q-62 -37 -122.5 -54.5t-149.5 -23.5v105z" />
<glyph unicode="*" d="M109 1167l147 56l219 -158l-10 -27h-268zM262 850l215 160l25 -21l-84 -254l-152 -43zM414 1346l98 124l96 -124l-80 -256h-34zM518 991l27 17l215 -158l-6 -158l-152 43zM549 1069l217 156l149 -56l-90 -131l-266 -2z" />
<glyph unicode="+" horiz-adv-x="1705" d="M254 526v170h514v525h170v-525h514v-170h-514v-526h-170v526h-514z" />
<glyph unicode="," horiz-adv-x="591" d="M63 -264q119 26 173.5 89t54.5 173v16h-127q-43 49 -43 111q0 63 39 101t104 38q86 0 136.5 -59t50.5 -160q0 -160 -105.5 -269t-282.5 -134v94z" />
<glyph unicode="-" horiz-adv-x="667" d="M74 393v201h520v-201h-520z" />
<glyph unicode="." horiz-adv-x="591" d="M133 145q0 69 47 116.5t115 47.5q66 0 115 -49t49 -115q0 -67 -48.5 -114t-117.5 -47q-66 0 -113 47t-47 114z" />
<glyph unicode="/" horiz-adv-x="1005" d="M-55 -190l866 1564h154l-867 -1564h-153z" />
<glyph unicode="0" horiz-adv-x="1226" d="M90 498q0 239 145.5 381.5t391.5 142.5q230 0 370 -144t140 -380q0 -233 -145 -373.5t-384 -140.5q-233 0 -375.5 141t-142.5 373zM375 506q0 -197 61.5 -305.5t175.5 -108.5q116 0 178 106t62 302q0 197 -63.5 305t-178.5 108q-110 0 -172.5 -108t-62.5 -299z" />
<glyph unicode="1" horiz-adv-x="860" d="M96 0v92l176 10l35 35v727l-35 33l-176 12v90h668v-90l-176 -12l-35 -33v-727l35 -35l176 -10v-92h-668z" />
<glyph unicode="2" d="M61 0v147q282 184 411.5 330.5t129.5 280.5q0 94 -53.5 153.5t-138.5 59.5q-74 0 -148 -49l-24 -185h-136v277q101 44 184 63t177 19q183 0 293 -85.5t110 -226.5q0 -97 -56.5 -186t-178.5 -184q-111 -85 -330 -221h133q188 0 502 6v-199h-875z" />
<glyph unicode="3" horiz-adv-x="1028" d="M74 35h121l34 -199q71 -31 154 -31q120 0 196 75t76 192q0 111 -70 173t-196 62q-53 0 -117 -12v145q23 -4 47 -4q131 0 203 64.5t72 181.5q0 101 -53 159t-144 58q-67 0 -137 -33l-27 -184h-120v268q187 74 356 74q175 0 280 -80.5t105 -214.5q0 -118 -79.5 -204.5 t-231.5 -133.5q190 -7 287.5 -82t97.5 -213q0 -182 -151 -295.5t-392 -113.5q-142 0 -311 49v299z" />
<glyph unicode="4" horiz-adv-x="1089" d="M35 104v152l598 766h198v-784h199v-134h-199v-423h-243v423h-553zM182 238h406v516z" />
<glyph unicode="5" horiz-adv-x="1005" d="M72 33h110l25 -189l31 -22q53 -23 124 -23q128 0 202.5 78t74.5 211q0 126 -84 195t-236 69q-78 0 -184 -20v667h729v-200h-581v-324q104 29 196 29q195 0 310.5 -100t115.5 -269q0 -129 -71.5 -234.5t-198 -165t-281.5 -59.5q-124 0 -282 48v309z" />
<glyph unicode="6" horiz-adv-x="1185" d="M98 561q0 178 60 330.5t166 260.5t258 170.5t331 66.5l25 -146l-98 23q-376 -68 -465 -480q151 103 305 103q173 0 289 -121.5t116 -304.5q0 -206 -142 -342.5t-357 -136.5q-223 0 -355.5 157t-132.5 420zM360 567q0 -215 65.5 -334.5t182.5 -119.5q95 0 153 82t58 217 q0 151 -71.5 237t-196.5 86q-93 0 -186 -55q-5 -112 -5 -113z" />
<glyph unicode="7" horiz-adv-x="991" d="M88 598v401h864v-94l-561 -1120v-100h-209l559 1103h-512l-36 -190h-105z" />
<glyph unicode="8" horiz-adv-x="1146" d="M92 346q0 120 62.5 195.5t203.5 124.5q-208 124 -208 319q0 154 127.5 255t320.5 101q180 0 295 -92.5t115 -238.5q0 -101 -56 -173t-176 -128q135 -56 207 -145.5t72 -201.5q0 -173 -137.5 -280t-358.5 -107q-213 0 -340 101t-127 270zM332 358q0 -119 68 -194.5 t175 -75.5q100 0 164 61t64 156q0 89 -70 150t-289 166q-112 -118 -112 -263zM399 1036q0 -125 138 -209q48 -29 157 -75q46 59 67 116t21 127q0 106 -53 172t-139 66q-82 0 -136.5 -56t-54.5 -141z" />
<glyph unicode="9" horiz-adv-x="1189" d="M92 553q0 204 143 337.5t363 133.5q223 0 353 -137.5t130 -370.5q0 -617 -813 -897l-61 143l98 -4q162 61 283.5 180t183.5 275q-147 -78 -278 -78q-172 0 -287 119.5t-115 298.5zM360 604q0 -155 69.5 -239t197.5 -84q72 0 168 36q22 107 22 203q0 187 -61.5 290 t-173.5 103q-98 0 -160 -85.5t-62 -223.5z" />
<glyph unicode=":" horiz-adv-x="696" d="M184 145q0 69 47 116.5t115 47.5q66 0 115 -49t49 -115q0 -67 -48.5 -114t-117.5 -47q-66 0 -113 47t-47 114zM184 836q0 69 47 116t115 47q67 0 115.5 -48.5t48.5 -114.5t-48.5 -114t-117.5 -48q-66 0 -113 47.5t-47 114.5z" />
<glyph unicode=";" horiz-adv-x="696" d="M137 -264q119 26 173.5 89t54.5 173v16h-127q-43 49 -43 111q0 63 39 101t104 38q86 0 136 -59t50 -160q0 -160 -105 -269t-282 -134v94zM197 836q0 69 46.5 116t114.5 47t116 -48t48 -115q0 -66 -48.5 -114t-117.5 -48q-66 0 -112.5 47.5t-46.5 114.5z" />
<glyph unicode="&#x3c;" horiz-adv-x="1705" d="M264 530v160l1178 486v-185l-934 -381l934 -381v-182z" />
<glyph unicode="=" horiz-adv-x="1705" d="M254 322v170h1198v-170h-1198zM254 731v170h1198v-170h-1198z" />
<glyph unicode="&#x3e;" horiz-adv-x="1705" d="M264 47v182l934 381l-934 381v185l1178 -486v-160z" />
<glyph unicode="?" horiz-adv-x="778" d="M57 844q0 72 79 118t202 46q161 0 260.5 -75t99.5 -196q0 -219 -336 -319v-133h-102v198q232 72 232 254q0 179 -213 185l-72 -166q-10 -2 -25 -2q-125 0 -125 90zM195 102q0 46 34.5 78.5t85.5 32.5q49 0 84 -33.5t35 -79.5q0 -44 -36 -77t-85 -33t-83.5 33t-34.5 79z " />
<glyph unicode="@" horiz-adv-x="1878" d="M154 498q0 194 69.5 365t190.5 293t290.5 192.5t362.5 70.5q307 0 493.5 -180.5t186.5 -478.5q0 -149 -50.5 -279.5t-144.5 -224.5q-69 -69 -150 -107t-159 -38t-116.5 39.5t-41.5 123.5q-79 -82 -148 -119.5t-140 -37.5q-113 0 -182.5 90.5t-69.5 238.5 q0 110 40.5 213.5t108 180t159 122.5t189.5 46q49 0 92 -12.5t107 -43.5l35 47h139q-23 -59 -55 -213l-74 -348q-16 -73 -16 -119q0 -35 18.5 -56t50.5 -21q75 0 145.5 73.5t114 194t43.5 248.5q0 254 -157 406.5t-418 152.5q-214 0 -387.5 -102t-272 -282.5t-98.5 -402.5 q0 -329 193.5 -530t509.5 -201q258 0 520 150l37 -82q-326 -180 -611 -180q-169 0 -317 59t-262 172q-225 222 -225 580zM758 477q0 -106 37 -161.5t108 -55.5q49 0 92 29t97 100l73 408l-73 108q-18 4 -41 4q-123 0 -208 -125.5t-85 -306.5z" />
<glyph unicode="A" horiz-adv-x="1333" d="M-23 0v100l123 19l463 1270h215l471 -1268l121 -21v-100h-553v100l129 13l15 26l-123 348h-447l-123 -346l21 -26l129 -15v-100h-441zM430 602h361l-183 506z" />
<glyph unicode="B" horiz-adv-x="1292" d="M59 0v100l123 11l33 32v1092l-33 29l-123 10v100h635q214 0 327.5 -81.5t113.5 -235.5q0 -180 -158 -273q-40 -22 -135 -53q183 -6 277.5 -92t94.5 -246q0 -188 -134.5 -290.5t-381.5 -102.5h-639zM485 117q61 -4 105 -4q175 0 256.5 66.5t81.5 207.5q0 137 -78 199.5 t-248 62.5q-23 0 -117 -4v-528zM485 764q23 -2 50 -2q164 0 240.5 62.5t76.5 197.5q0 125 -70 183.5t-219 58.5q-41 0 -78 -4v-496z" />
<glyph unicode="C" horiz-adv-x="1310" d="M84 688q0 209 92.5 371t259 251t381.5 89q200 0 418 -76v-342h-152l-39 219l-28 35q-81 33 -168 33q-207 0 -332 -157t-125 -419q0 -270 129 -428t350 -158q64 0 136 17l30 31l51 247h148v-352q-122 -40 -220 -57t-210 -17q-314 0 -510 193q-103 100 -157 233.5 t-54 286.5z" />
<glyph unicode="D" horiz-adv-x="1476" d="M59 0v100l123 11l33 32v1088l-33 33l-123 10v100h596q349 0 543.5 -179.5t194.5 -500.5q0 -221 -93.5 -384.5t-265.5 -243.5q-141 -66 -379 -66h-596zM485 117h119q244 0 362.5 141.5t118.5 433.5q0 565 -481 565h-119v-1140z" />
<glyph unicode="E" horiz-adv-x="1222" d="M59 0v100l123 11l33 32v1092l-33 29l-123 10v100h1035v-323h-144l-30 180l-27 26h-408v-485h267l28 29l21 147h121v-475h-121l-21 148l-28 28h-267v-532h476l26 33l35 217h139v-367h-1102z" />
<glyph unicode="F" horiz-adv-x="1128" d="M51 1274v100h1028v-342h-141l-31 199l-26 26h-396v-512h275l28 27l21 150h121v-476h-121l-21 150l-28 27h-275v-480l35 -32l144 -11v-100h-605v100l123 11l33 32v1092l-33 29z" />
<glyph unicode="G" horiz-adv-x="1454" d="M84 692q0 321 203.5 514t543.5 193q192 0 431 -70v-348h-150l-39 217l-31 37q-83 33 -174 33q-227 0 -358 -153t-131 -417q0 -280 135 -432.5t383 -152.5q29 0 102 6v418l-32 28l-152 10v101h598v-101l-119 -10l-32 -28v-478q-256 -84 -453 -84q-214 0 -379 90 t-255.5 253t-90.5 374z" />
<glyph unicode="H" horiz-adv-x="1562" d="M63 0v100l119 11l33 32v1088l-33 33l-119 10v100h578v-100l-123 -10l-33 -33v-449h592v449l-30 33l-123 10v100h575v-100l-119 -10l-32 -33v-1088l32 -32l119 -11v-100h-575v100l123 11l30 32v516h-592v-516l33 -32l123 -11v-100h-578z" />
<glyph unicode="I" horiz-adv-x="724" d="M59 0v100l136 11l32 32v1092l-32 29l-136 10v100h607v-100l-136 -10l-32 -29v-1092l32 -32l136 -11v-100h-607z" />
<glyph unicode="J" horiz-adv-x="954" d="M25 25v368h149l47 -270l29 -27q73 0 103.5 7t62.5 30q57 39 82.5 136t25.5 266v700l-32 29l-144 10v100h602v-100l-123 -10l-32 -29v-698q0 -290 -113 -426t-356 -136q-140 0 -301 50z" />
<glyph unicode="K" horiz-adv-x="1327" d="M59 0v100l125 11l31 32v1092l-31 29l-125 10v100h580v-100l-121 -10l-33 -29v-537h58l444 539l-12 27l-115 10v100h461v-100l-143 -14l-390 -465l437 -682l147 -13v-100h-424v72l-344 530h-119v-459l33 -32l121 -11v-100h-580z" />
<glyph unicode="L" horiz-adv-x="1110" d="M55 0v100l125 11l35 32v1092l-29 29l-131 10v100h588v-100l-125 -10l-33 -29v-1118h394l26 33l31 249h151v-399h-1032z" />
<glyph unicode="M" horiz-adv-x="1808" d="M51 0v100l131 15l29 37v1085l-25 27l-135 10v100h537v-57l319 -940l318 938v59h542v-100l-139 -10l-22 -29v-1092l22 -32l139 -11v-100h-567v100l127 11l21 32v1100l-426 -1243h-148l-416 1233v-1081l31 -37l127 -15v-100h-465z" />
<glyph unicode="N" horiz-adv-x="1488" d="M51 1274v100h471v-55l627 -973v877l-37 39l-125 16v96h467v-96l-121 -16l-35 -39v-1223h-229l-709 1100v-948l33 -37l127 -15v-100h-467v100l121 15l37 37v1083l-29 29z" />
<glyph unicode="O" horiz-adv-x="1556" d="M84 692q0 169 54 307t157 230q202 178 487 178q196 0 354 -93t247.5 -258.5t89.5 -371.5q0 -205 -89.5 -369t-250 -256t-361.5 -92t-357.5 92t-243.5 257t-87 376zM391 692q0 -267 107 -430.5t280 -163.5q175 0 281 159.5t106 422.5q0 275 -105.5 435.5t-285.5 160.5 q-172 0 -277.5 -161t-105.5 -423z" />
<glyph unicode="P" horiz-adv-x="1200" d="M49 1274v100h553q291 0 425 -97.5t134 -309.5q0 -221 -140.5 -341t-399.5 -120q-34 0 -136 6v-369l31 -32l146 -11v-100h-605v100l121 11l37 32v1092l-31 29zM485 629q53 -4 74 -4q158 0 239 82t81 243q0 149 -73.5 228t-213.5 79h-107v-628z" />
<glyph unicode="Q" horiz-adv-x="1556" d="M84 686q0 210 87.5 374t245.5 255.5t361 91.5q148 0 277.5 -55t221 -150.5t144 -231t52.5 -290.5q0 -183 -72.5 -333.5t-206.5 -244.5q-59 -40 -117.5 -63.5t-144.5 -42.5q8 -123 73.5 -180.5t200.5 -57.5q72 0 191 25v-105q-198 -43 -344 -43q-212 0 -309.5 84 t-100.5 269q-112 20 -191.5 57t-150.5 102q-105 97 -161 235.5t-56 303.5zM391 696q0 -267 108.5 -430.5t286.5 -163.5q171 0 275 159t104 421q0 272 -107 433t-290 161q-169 0 -273 -160t-104 -420z" />
<glyph unicode="R" horiz-adv-x="1376" d="M59 0v100l123 11l33 32v1092l-33 29l-123 10v100h629q235 0 358 -88.5t123 -257.5q0 -145 -86 -232t-266 -122q131 -32 193 -100.5t112 -235.5q23 -81 43.5 -125t54.5 -72q34 -27 78 -35q35 -6 90 -6h31v-98q-127 -16 -190 -16q-170 0 -264 94q-40 40 -64 87t-53 144 q-34 115 -64.5 168t-81.5 84q-67 43 -172 43q-25 0 -45 -2v-461l33 -32l125 -11v-100h-584zM485 723q61 -2 78 -2q162 0 241 67t79 205q0 129 -77.5 196.5t-225.5 67.5h-95v-534z" />
<glyph unicode="S" horiz-adv-x="1163" d="M121 45v371h155l33 -246l27 -31q95 -33 180 -33q121 0 192.5 54.5t71.5 146.5q0 98 -88 174q-36 30 -75.5 52t-139.5 69q-169 79 -248 176t-79 223q0 174 137 286t350 112q164 0 381 -70v-332h-148l-34 213l-29 29q-68 29 -148 29q-111 0 -177 -53.5t-66 -143.5 q0 -80 60 -141t202 -125q112 -51 169.5 -84.5t98.5 -71.5q113 -110 113 -258q0 -186 -150.5 -301t-396.5 -115q-190 0 -391 70z" />
<glyph unicode="T" horiz-adv-x="1234" d="M33 1012v362h1181v-362h-141l-35 219l-30 26h-246v-1114l35 -32l133 -11v-100h-613v100l134 11l34 32v1114h-245l-33 -26l-33 -219h-141z" />
<glyph unicode="U" horiz-adv-x="1441" d="M41 1274v100h586v-100l-127 -10l-29 -29v-717q0 -202 77 -291.5t249 -89.5t245.5 92.5t73.5 307.5v690l-31 35l-131 12v100h465v-100l-125 -12l-28 -35v-711q0 -283 -126 -412t-403 -129q-333 0 -463 183q-41 62 -59 146.5t-18 221.5v709l-29 29z" />
<glyph unicode="V" horiz-adv-x="1300" d="M-43 1274v100h563v-100l-119 -10l-22 -31l340 -934l330 934l-23 31l-123 10v100h449v-100l-133 -27l-455 -1251h-207l-465 1253z" />
<glyph unicode="W" horiz-adv-x="1937" d="M4 1274v100h537v-98l-127 -14l-17 -29l230 -850l295 991h206l304 -1014l215 861l-25 28l-135 25v100h446v-100l-129 -29l-313 -1245h-199l-317 1049l-311 -1049h-199l-332 1245z" />
<glyph unicode="X" horiz-adv-x="1304" d="M0 0v100l131 19l399 547l-372 589l-129 19v100h579v-100h-123l-16 -35l233 -381l267 375l-19 29l-112 12v100h458v-100l-127 -14l-381 -517l394 -618l137 -25v-100h-594v100l129 15l14 26l-250 410l-290 -406l12 -34l133 -11v-100h-473z" />
<glyph unicode="Y" horiz-adv-x="1247" d="M-23 1274v100h560v-100l-115 -10l-19 -25l281 -520l293 502l-16 32l-123 23v98h444v-100l-121 -23l-389 -661v-449l33 -28l139 -13v-100h-614v100l139 13l33 28v400l-393 712z" />
<glyph unicode="Z" horiz-adv-x="1212" d="M90 0v113l717 1144h-463l-39 -26l-33 -219h-145v362h987v-112l-717 -1139h525l20 27l37 247h147v-397h-1036z" />
<glyph unicode="[" horiz-adv-x="907" d="M279 -270v1720h550v-115h-315v-1493h315v-112h-550z" />
<glyph unicode="\" horiz-adv-x="1005" d="M-14 1374h153l856 -1564h-153z" />
<glyph unicode="]" horiz-adv-x="907" d="M78 -158h315v1493h-315v115h551v-1720h-551v112z" />
<glyph unicode="^" horiz-adv-x="2048" d="M414 897l504 565h215l501 -565h-104l-506 397l-506 -397h-104z" />
<glyph unicode="_" d="M0 -137h1024v-172h-1024v172z" />
<glyph unicode="`" d="M176 1536h254l199 -389h-140z" />
<glyph unicode="a" horiz-adv-x="1146" d="M-33 0v90l109 12l391 932h209l399 -930l105 -14v-90h-504v90l115 8l8 17l-103 241h-346l-100 -241l12 -17l115 -8v-90h-410zM391 459h258l-131 317z" />
<glyph unicode="b" horiz-adv-x="1116" d="M63 0v90l113 8l19 17v790l-19 17l-113 8v90h545q197 0 300.5 -62t103.5 -180q0 -85 -53 -140t-166 -89q136 -10 209 -74.5t73 -173.5q0 -143 -118.5 -222t-333.5 -79h-560zM461 104q25 -2 61 -2q149 0 213 43.5t64 143.5q0 188 -236 188q-36 0 -102 -4v-369zM461 578h35 q123 0 181 43t58 135q0 86 -54 126t-171 40q-26 0 -49 -2v-342z" />
<glyph unicode="c" horiz-adv-x="1191" d="M74 512q0 232 177.5 380t455.5 148q166 0 372 -61v-262h-161l-35 166l-21 22q-58 21 -119 21q-173 0 -273.5 -112t-100.5 -304q0 -195 104.5 -305.5t290.5 -110.5q48 0 92 8l21 19l43 188h159v-272q-209 -57 -374 -57q-278 0 -454.5 148.5t-176.5 383.5z" />
<glyph unicode="d" horiz-adv-x="1300" d="M63 0v90l111 8l21 17v790l-21 17l-111 8v90h521q305 0 474 -134.5t169 -377.5q0 -242 -168.5 -375t-474.5 -133h-521zM461 102h82q198 0 293.5 100.5t95.5 309.5q0 206 -96.5 307t-292.5 101h-82v-818z" />
<glyph unicode="e" horiz-adv-x="1085" d="M63 0v90l111 8l21 17v790l-19 17l-113 8v90h906v-252h-156l-27 137l-14 13h-311v-338h192l17 12l16 119h137v-365h-137l-16 119l-17 12h-192v-375h366l15 17l32 166h150v-285h-961z" />
<glyph unicode="f" horiz-adv-x="993" d="M57 930v90h901v-268h-155l-27 153l-14 13h-301v-359h201l14 14l18 117h135v-364h-135l-18 116l-17 15h-198v-342l20 -17l127 -8v-90h-542v90l110 8l19 17v790l-19 17z" />
<glyph unicode="g" horiz-adv-x="1277" d="M74 512q0 239 177 383.5t470 144.5q176 0 381 -51v-270h-160l-35 166l-20 22q-64 19 -131 19q-185 0 -291.5 -110t-106.5 -300q0 -196 109.5 -309t298.5 -113q32 0 65 6l15 2v299l-21 13l-135 8v90h541v-90l-109 -8l-18 -13v-354q-210 -67 -395 -67q-286 0 -460.5 146.5 t-174.5 385.5z" />
<glyph unicode="h" horiz-adv-x="1327" d="M63 0v90l111 8l21 17v790l-21 17l-111 8v90h533v-90l-115 -8l-20 -17v-323h405v323l-18 17l-115 8v90h531v-90l-111 -8l-20 -17v-790l20 -17l111 -8v-90h-531v90l115 8l18 17v358h-405v-358l20 -17l115 -8v-90h-533z" />
<glyph unicode="i" horiz-adv-x="663" d="M55 0v90l125 8l19 17v790l-19 17l-125 8v90h553v-90l-125 -8l-18 -17v-790l18 -17l125 -8v-90h-553z" />
<glyph unicode="j" horiz-adv-x="925" d="M72 12v293h161l41 -205l15 -12h3q115 0 157 66q43 66 43 245v506l-19 17l-129 8v90h545v-90l-113 -8l-18 -17v-504q0 -215 -102 -318t-316 -103q-62 0 -170 18q-57 9 -98 14z" />
<glyph unicode="k" horiz-adv-x="1236" d="M63 0v90l113 8l19 17v790l-19 17l-113 8v90h527v-90l-111 -8l-18 -17v-377h18l365 383l-4 11l-103 8v90h426v-90l-129 -8l-319 -334l362 -490l129 -8v-90h-393v61l-285 379h-67v-325l18 -17l111 -8v-90h-527z" />
<glyph unicode="l" horiz-adv-x="1021" d="M63 0v90l111 8l21 17v790l-17 17l-115 8v90h531v-90l-113 -8l-20 -17v-801h299l14 15l29 190h162v-309h-902z" />
<glyph unicode="m" horiz-adv-x="1556" d="M51 0v90l113 8l18 23v784l-12 17l-119 8v90h486v-51l249 -637l248 635v53h494v-90l-125 -8l-12 -17v-790l14 -17l123 -8v-90h-514v90l112 8l11 17v706l-324 -821h-154l-315 813v-692l18 -23l113 -8v-90h-424z" />
<glyph unicode="n" horiz-adv-x="1339" d="M63 0v90l109 8l23 23v784l-17 17l-115 8v90h433v-47l489 -660v588l-22 21l-113 8v90h428v-90l-107 -8l-24 -21v-901h-223l-568 762v-641l21 -23l115 -8v-90h-429z" />
<glyph unicode="o" horiz-adv-x="1351" d="M74 512q0 240 166.5 386t439.5 146q170 0 306.5 -69t214 -192t77.5 -275q0 -230 -170.5 -381.5t-431.5 -151.5q-267 0 -434.5 149.5t-167.5 387.5zM369 514q0 -191 84.5 -307.5t222.5 -116.5q137 0 222 114t85 300q0 195 -85 310.5t-226 115.5q-136 0 -219.5 -115 t-83.5 -301z" />
<glyph unicode="p" horiz-adv-x="1097" d="M55 930v90h486q250 0 369.5 -75t119.5 -232q0 -163 -122 -254.5t-339 -91.5q-49 0 -108 4v-256l18 -17l129 -8v-90h-545v90l111 8l21 19v788l-17 17zM461 475q20 -2 39 -2q129 0 191.5 56t62.5 173q0 103 -58.5 158t-165.5 55h-69v-440z" />
<glyph unicode="q" horiz-adv-x="1357" d="M74 506q0 238 167 388t431 150q268 0 440 -152t172 -388q0 -197 -121 -331t-336 -177q6 -86 55 -123t158 -37q69 0 181 23v-97q-181 -34 -314 -34q-357 0 -360 262q-224 40 -348.5 175.5t-124.5 340.5zM369 514q0 -189 88 -307.5t229 -118.5q135 0 219 115.5t84 300.5 q0 195 -86 310.5t-231 115.5q-135 0 -219 -115t-84 -301z" />
<glyph unicode="r" horiz-adv-x="1251" d="M63 0v90l113 8l19 17v790l-19 17l-113 8v90h551q206 0 314 -66.5t108 -195.5q0 -204 -274 -260q95 -20 142 -69.5t93 -176.5q40 -106 76 -133t137 -27h37v-88q-129 -14 -176 -14q-149 0 -231 67q-39 30 -63.5 70t-51.5 121q-37 114 -90.5 154t-173.5 40v-327l20 -17 l111 -8v-90h-529zM461 543q14 -2 45 -2q131 0 192.5 45.5t61.5 142.5q0 189 -238 189h-61v-375z" />
<glyph unicode="s" horiz-adv-x="999" d="M82 35v284h168l31 -188l16 -16q72 -21 137 -21q96 0 150.5 36t54.5 99q0 60 -41.5 100t-157.5 91q-193 87 -262 152t-69 161q0 137 118 222t308 85q166 0 342 -55v-256h-160l-33 162l-16 18q-53 17 -111 17q-88 0 -138 -35.5t-50 -97.5q0 -74 84 -129q26 -19 57 -33 t145 -60q254 -100 254 -278q0 -139 -131 -226t-342 -87q-175 0 -354 55z" />
<glyph unicode="t" horiz-adv-x="1062" d="M14 737v283h1035v-283h-156l-31 168l-16 13h-182v-803l20 -17l121 -8v-90h-551v90l123 8l20 17v803h-182l-16 -13l-29 -168h-156z" />
<glyph unicode="u" horiz-adv-x="1337" d="M72 930v90h528v-90l-115 -8l-16 -17v-532q0 -146 59.5 -208.5t198.5 -62.5q134 0 191 65.5t57 219.5v518l-19 17l-116 8v90h430v-90l-113 -8l-18 -17v-534q0 -209 -110.5 -306.5t-348.5 -97.5q-300 0 -412 142q-37 47 -51 105.5t-14 164.5v526l-17 17z" />
<glyph unicode="v" horiz-adv-x="1185" d="M-14 930v90h512v-90l-107 -8l-12 -17l268 -637l260 637l-12 17l-113 8v90h416v-90l-115 -17l-385 -919h-202l-394 919z" />
<glyph unicode="w" horiz-adv-x="1665" d="M0 930v90h489v-90l-110 -8l-8 -17l174 -559l231 674h207l238 -688l163 573l-12 17l-121 8v90h414v-90l-113 -15l-264 -915h-196l-254 723l-248 -723h-197l-282 915z" />
<glyph unicode="x" horiz-adv-x="1124" d="M-14 0v90l116 14l330 394l-309 420l-113 12v90h527v-90l-111 -8l-8 -9l180 -249l205 243l-10 15l-101 8v90h422v-90l-110 -10l-316 -365l326 -446l121 -19v-90h-537v90l113 8l6 17l-193 272l-223 -272l6 -17l115 -8v-90h-436z" />
<glyph unicode="y" horiz-adv-x="1089" d="M-20 930v90h507v-90l-104 -8l-8 -11l217 -348l227 336l-10 19l-104 12v90h411v-90l-106 -15l-324 -473v-327l19 -17l124 -8v-90h-553v90l125 8l19 17v291l-328 509z" />
<glyph unicode="z" horiz-adv-x="1042" d="M57 0v92l598 826h-358l-21 -15l-30 -166h-158v283h870v-92l-598 -822h406l10 13l31 190h160v-309h-910z" />
<glyph unicode="{" horiz-adv-x="1009" d="M94 539v116h31q145 0 197.5 55.5t52.5 207.5v172q0 194 99.5 274t342.5 80h45v-105q-146 -5 -199 -58t-53 -198v-129q0 -162 -69 -245.5t-228 -112.5q155 -26 227 -110.5t72 -241.5v-150q0 -81 9.5 -127.5t38.5 -76.5t75 -41.5t127 -14.5v-108q-33 -2 -76 -2 q-227 0 -319 84.5t-92 295.5v166q0 155 -53.5 213t-198.5 58q-17 0 -29 -2z" />
<glyph unicode="|" d="M424 -483v2048h178v-2048h-178z" />
<glyph unicode="}" horiz-adv-x="1009" d="M147 -166q81 3 127 14.5t75 41.5t38.5 76.5t9.5 127.5v150q0 157 72 241.5t227 110.5q-159 29 -228 112.5t-69 245.5v129q0 145 -53 198t-199 58v105h46q243 0 342.5 -80t99.5 -274v-172q0 -152 52.5 -207.5t197.5 -55.5h30v-116q-12 2 -28 2q-145 0 -198.5 -58 t-53.5 -213v-166q0 -210 -92 -295t-320 -85q-43 0 -76 2v108z" />
<glyph unicode="~" horiz-adv-x="1705" d="M176 434v187q124 79 211.5 111t181.5 32q76 0 144 -16t225 -72q123 -45 211 -45q87 0 170.5 33.5t208.5 119.5v-184q-114 -75 -203 -108t-178 -33q-56 0 -110 12.5t-156 48.5q-122 42 -189.5 58t-126.5 16q-86 0 -171 -35t-218 -125z" />
<glyph unicode="&#xa0;" horiz-adv-x="1794" d="M117 690q0 166 61.5 314.5t167 255.5t252 170t309.5 63q155 0 297 -63.5t246 -171t165.5 -255t61.5 -307.5q0 -214 -105.5 -398t-286 -292t-390.5 -108q-126 0 -244.5 40.5t-214 114t-168 171t-112 218t-39.5 248.5zM215 694q0 -143 54 -272.5t145 -224t217.5 -150 t265.5 -55.5q137 0 263.5 56t218 150.5t146 225t54.5 272.5q0 145 -54 275.5t-146 224.5t-220 149.5t-270 55.5q-180 0 -335.5 -95.5t-247 -258.5t-91.5 -353zM489 1073v72h451q155 0 236 -56t81 -163q0 -94 -58 -150t-185 -84q97 -25 137 -69t84 -174q26 -72 62.5 -97.5 t115.5 -25.5v-76q-89 -12 -127 -12q-112 0 -178 57q-29 23 -45.5 52.5t-36.5 94.5q-35 117 -78.5 158t-132.5 41h-24v-295l116 -22v-76h-411v74l102 22v705zM791 727q20 -2 38 -2q218 0 218 168t-213 168h-43v-334z" />
<glyph unicode="&#xa1;" horiz-adv-x="544" d="M154 117q0 27 4 63l73 529h82l74 -525q6 -44 6 -75q0 -56 -32 -87.5t-89 -31.5t-87.5 33t-30.5 94zM154 899q0 46 35.5 78.5t86.5 32.5q47 0 82 -32.5t35 -78.5q0 -47 -34.5 -80t-84.5 -33q-51 0 -85.5 33t-34.5 80z" />
<glyph unicode="&#xa2;" horiz-adv-x="1189" d="M121 522q0 218 135 357.5t369 164.5v209h112v-204q145 -5 293 -60v-295h-121l-30 201q-67 37 -142 37v-815q75 0 142 30l30 213h123v-309q-110 -41 -295 -49v-211h-112v213q-230 19 -367 159.5t-137 358.5zM381 520q0 -155 63 -258t181 -141v807q-120 -40 -182 -143.5 t-62 -264.5z" />
<glyph unicode="&#xa3;" horiz-adv-x="1189" d="M88 0v147q120 35 166.5 119t46.5 266q0 45 -2 80h-143v123h141q-6 71 -6 119q0 257 120 397t341 140q149 0 249.5 -68t100.5 -168q0 -61 -43.5 -100t-112.5 -39q-28 0 -84 16v238q-34 10 -76 10q-129 0 -185 -99.5t-56 -326.5q0 -66 4 -119h371v-123h-369 q0 -147 -50.5 -245t-156.5 -160l4 -17q111 15 146 15h612v-205h-1018z" />
<glyph unicode="&#xa4;" horiz-adv-x="1241" d="M74 432l202 205q-79 114 -79 248q0 71 18 128t61 120l-202 204l92 93l203 -203q65 45 121.5 63.5t127.5 18.5t128 -18.5t124 -63.5l203 203l94 -93l-204 -204q43 -65 61 -121.5t18 -126.5q0 -71 -18 -128t-61 -120l204 -205l-94 -92l-203 205q-67 -45 -122.5 -63.5 t-126.5 -18.5q-72 0 -130.5 19t-121.5 63l-203 -205zM330 885q0 -120 85 -204.5t206 -84.5q120 0 204 84.5t84 204.5t-86 205.5t-207 85.5q-117 0 -201.5 -86t-84.5 -205z" />
<glyph unicode="&#xa5;" horiz-adv-x="1218" d="M-14 1274v100h538v-100l-110 -10l-19 -25l269 -520l276 502l-16 32l-115 23v98h426v-100l-115 -23l-207 -370h271v-103h-332l-109 -196h441v-101h-436v-340l32 -28l144 -11v-102h-613v102l140 11l34 28v340h-440v101h420l-100 196h-320v103h258l-192 372z" />
<glyph unicode="&#xa6;" horiz-adv-x="1705" d="M254 696v166h1198v-502h-166v336h-1032z" />
<glyph unicode="&#xa7;" d="M94 588q0 109 56.5 183t185.5 136q-108 58 -154.5 120.5t-46.5 148.5q0 138 112.5 217.5t307.5 79.5q130 0 311 -50v-278h-108l-21 168q-110 55 -186 55q-86 0 -141.5 -45.5t-55.5 -116.5q0 -39 19.5 -69t62.5 -60q38 -22 197 -98q152 -73 223.5 -159t71.5 -193 q0 -109 -64.5 -196t-181.5 -138q112 -60 159.5 -122t47.5 -148q0 -141 -113.5 -227.5t-300.5 -86.5q-151 0 -330 66v280h117l27 -186q105 -51 188 -51q87 0 143 45.5t56 116.5q0 45 -24 81t-77 70q-36 25 -215 109q-140 69 -203 151t-63 197zM272 643q0 -61 35.5 -111.5 t112.5 -97.5q52 -30 162 -84q87 51 127.5 103.5t40.5 113.5q0 100 -119 185q-52 36 -189 98q-89 -40 -129.5 -89t-40.5 -118z" />
<glyph unicode="&#xa8;" d="M170 1333q0 56 39 94.5t96 38.5q53 0 91 -39t38 -94t-38 -93t-93 -38t-94 38.5t-39 92.5zM594 1333q0 57 38 95t95 38q54 0 92.5 -39.5t38.5 -93.5t-39 -92.5t-94 -38.5t-93 38t-38 93z" />
<glyph unicode="&#xa9;" horiz-adv-x="1878" d="M37 678q0 37 30 61.5t76 24.5q25 0 68 -12l41 -131q35 -17 72 -17q69 0 114 45t45 113q0 63 -45 100t-119 37q-22 0 -94 -6v108q16 -2 43 -2q89 0 136 35.5t47 102.5q0 60 -39.5 97.5t-102.5 37.5q-23 0 -57 -15v-137q-40 -22 -82 -22q-50 0 -80.5 25.5t-30.5 66.5 q0 75 87 126.5t214 51.5q132 0 215.5 -59.5t83.5 -153.5q0 -135 -176 -188q101 -19 155 -69.5t54 -127.5q0 -110 -106.5 -183t-266.5 -73q-121 0 -201.5 46.5t-80.5 117.5zM428 0l877 1374h145l-877 -1374h-145zM1145 217v109l432 505h154v-499h143v-115h-143v-256h-187v256 h-399zM1305 332h239v284z" />
<glyph unicode="&#xaa;" horiz-adv-x="751" d="M74 680q0 117 141 168q67 25 250 63v37q0 66 -29.5 96.5t-93.5 30.5q-18 0 -59 -6v-115h-119q-60 0 -60 45q0 60 83 101t206 41q126 0 179 -49.5t53 -167.5v-318l18 -16l66 -6v-56h-228l-16 70q-128 -80 -221 -80q-75 0 -122.5 45t-47.5 117zM244 705q0 -42 26 -67.5 t70 -25.5q50 0 125 37v201q-126 -28 -173.5 -59t-47.5 -86z" />
<glyph unicode="&#xab;" horiz-adv-x="919" d="M92 406v172l352 294v-172l-221 -208l221 -209v-172zM496 406v172l352 294v-172l-221 -208l221 -209v-172z" />
<glyph unicode="&#xac;" horiz-adv-x="477" />
<glyph unicode="&#xad;" horiz-adv-x="591" d="M133 686q0 69 47 116.5t115 47.5q67 0 115.5 -49t48.5 -115t-48.5 -114t-117.5 -48q-66 0 -113 47.5t-47 114.5z" />
<glyph unicode="&#xae;" horiz-adv-x="1794" d="M117 690q0 166 61.5 314.5t167 255.5t252 170t309.5 63q155 0 297 -63.5t246 -171t165.5 -255t61.5 -307.5q0 -214 -105.5 -398t-286 -292t-390.5 -108q-126 0 -244.5 40.5t-214 114t-168 171t-112 218t-39.5 248.5zM215 694q0 -143 54 -272.5t145 -224t217.5 -150 t265.5 -55.5q137 0 263.5 56t218 150.5t146 225t54.5 272.5q0 145 -54 275.5t-146 224.5t-220 149.5t-270 55.5q-180 0 -335.5 -95.5t-247 -258.5t-91.5 -353zM424 692q0 217 141 349.5t371 132.5q134 0 283 -52v-248h-109l-31 164q-64 37 -125 37q-136 0 -221.5 -106 t-85.5 -275q0 -170 84 -276.5t219 -106.5q60 0 131 31l31 176h107v-256q-146 -51 -293 -51q-224 0 -363 133t-139 348z" />
<glyph unicode="&#xaf;" d="M176 1237v145h678v-145h-678z" />
<glyph unicode="&#xb0;" horiz-adv-x="667" d="M74 393v201h520v-201h-520z" />
<glyph unicode="&#xb1;" horiz-adv-x="1638" d="M227 1204v152h473v-152h-61l-14 90l-15 11h-86v-426l70 -13v-51h-260v51l72 13v426h-87l-14 -11l-14 -90h-64zM752 815v51l63 13v413l-63 11v53h231v-27l119 -346l121 344v29h229v-53l-66 -13v-411l66 -13v-51h-235v49l57 15v407l-168 -471h-64l-161 471v-407l61 -13v-51 h-190z" />
<glyph unicode="&#xb2;" horiz-adv-x="749" d="M45 528v109q247 177 334.5 277t87.5 204q0 69 -39.5 110.5t-105.5 41.5q-31 0 -58 -8v-154q-59 -29 -98 -29q-49 0 -79 27t-30 70q0 81 91.5 136.5t222.5 55.5q138 0 221.5 -67t83.5 -177q0 -105 -89 -201.5t-327 -250.5h309l23 104h110v-248h-657z" />
<glyph unicode="&#xb3;" horiz-adv-x="749" d="M37 678q0 37 30 61.5t76 24.5q25 0 68 -12l41 -131q35 -17 72 -17q69 0 114 45t45 113q0 63 -45 100t-119 37q-22 0 -94 -6v108q16 -2 43 -2q89 0 136 35.5t47 102.5q0 60 -39.5 97.5t-102.5 37.5q-23 0 -57 -15v-137q-40 -22 -82 -22q-50 0 -80.5 25.5t-30.5 66.5 q0 75 87 126.5t214 51.5q132 0 215.5 -59.5t83.5 -153.5q0 -135 -176 -188q101 -19 155 -69.5t54 -127.5q0 -110 -106.5 -183t-266.5 -73q-121 0 -201.5 46.5t-80.5 117.5z" />
<glyph unicode="&#xb4;" d="M422 1147l199 389h253l-315 -389h-137z" />
<glyph unicode="&#xb5;" d="M424 -350v758h178v-758h-178zM424 674v758h178v-758h-178z" />
<glyph unicode="&#xb6;" horiz-adv-x="1005" d="M39 958q0 215 119.5 315.5t376.5 100.5h401v-88l-125 -20v-1428h-117v1438h-143v-739q-137 2 -214 16.5t-136 52.5q-83 53 -122.5 138t-39.5 214z" />
<glyph unicode="&#xb7;" horiz-adv-x="591" d="M133 686q0 69 47 116.5t115 47.5q67 0 115.5 -49t48.5 -115t-48.5 -114t-117.5 -48q-66 0 -113 47.5t-47 114.5z" />
<glyph unicode="&#xb8;" d="M324 -352q92 -17 127 -17q124 0 124 76q0 32 -24.5 50t-67.5 18q-22 0 -45 -4v229h99v-117q18 2 36 2q77 0 119.5 -40t42.5 -113q0 -93 -67 -148t-181 -55q-70 0 -163 22v97z" />
<glyph unicode="&#xb9;" horiz-adv-x="749" d="M125 1194v80l291 92h104v-741l8 -13l127 -6v-78h-481v80l135 8l10 13v585l-8 7z" />
<glyph unicode="&#xba;" horiz-adv-x="753" d="M47 827q0 143 92 228.5t246 85.5q145 0 233.5 -86.5t88.5 -227.5q0 -139 -91.5 -224t-242.5 -85q-148 0 -237 84.5t-89 224.5zM227 831q0 -117 39.5 -182t108.5 -65q72 0 111.5 63t39.5 178q0 120 -39.5 185t-111.5 65q-69 0 -108.5 -64.5t-39.5 -179.5z" />
<glyph unicode="&#xbb;" horiz-adv-x="919" d="M72 111v172l221 209l-221 208v172l352 -294v-172zM475 111v172l221 209l-221 208v172l352 -294v-172z" />
<glyph unicode="&#xbc;" horiz-adv-x="1878" d="M125 1194v80l291 92h104v-741l8 -13l127 -6v-78h-481v80l135 8l10 13v585l-8 7zM428 0l877 1374h145l-877 -1374h-145zM1174 0v109q129 95 168 125t81 67q93 85 132.5 151t39.5 138q0 69 -40 110t-107 41q-24 0 -55 -8v-153q-62 -29 -101 -29q-46 0 -76 27t-30 69 q0 82 90.5 137.5t222.5 55.5q138 0 221.5 -67t83.5 -177q0 -108 -86.5 -202.5t-328.5 -250.5h309l22 105h111v-248h-657z" />
<glyph unicode="&#xbd;" horiz-adv-x="1705" d="M254 14v170h1198v-170h-1198zM254 705v169h514v332h170v-332h514v-169h-514v-332h-170v332h-514z" />
<glyph unicode="&#xbe;" horiz-adv-x="1878" d="M125 1194v80l291 92h104v-741l8 -13l127 -6v-78h-481v80l135 8l10 13v585l-8 7zM428 0l877 1374h145l-877 -1374h-145zM1145 217v109l432 505h154v-499h143v-115h-143v-256h-187v256h-399zM1305 332h239v284z" />
<glyph unicode="&#xbf;" horiz-adv-x="778" d="M80 260q0 109 85 189.5t251 130.5v133h102v-199q-114 -35 -172.5 -100t-58.5 -154q0 -178 213 -184l71 166q10 2 25 2q125 0 125 -90q0 -72 -79 -118t-202 -46q-161 0 -260.5 74.5t-99.5 195.5zM344 897q0 46 36 78.5t87 32.5q47 0 82 -33.5t35 -79.5t-35 -78.5 t-84 -32.5q-51 0 -86 33t-35 80z" />
<glyph unicode="&#xc0;" horiz-adv-x="1333" d="M-23 0v100l123 19l463 1270h215l471 -1268l121 -21v-100h-553v100l129 13l15 26l-123 348h-447l-123 -346l21 -26l129 -15v-100h-441zM336 1812h264l184 -313h-139zM430 602h361l-183 506z" />
<glyph unicode="&#xc1;" horiz-adv-x="1333" d="M-23 0v100l123 19l463 1270h215l471 -1268l121 -21v-100h-553v100l129 13l15 26l-123 348h-447l-123 -346l21 -26l129 -15v-100h-441zM430 602h361l-183 506zM578 1499l184 313h262l-309 -313h-137z" />
<glyph unicode="&#xc2;" horiz-adv-x="1333" d="M-23 0v100l123 19l463 1270h215l471 -1268l121 -21v-100h-553v100l129 13l15 26l-123 348h-447l-123 -346l21 -26l129 -15v-100h-441zM352 1499l223 313h181l225 -313h-156l-159 187l-158 -187h-156zM430 602h361l-183 506z" />
<glyph unicode="&#xc3;" horiz-adv-x="1333" d="M-23 0v100l123 19l463 1270h215l471 -1268l121 -21v-100h-553v100l129 13l15 26l-123 348h-447l-123 -346l21 -26l129 -15v-100h-441zM338 1524q0 258 174 258q67 0 178 -53q83 -41 123 -41q74 0 74 114h110q2 -125 -45 -192.5t-135 -67.5q-77 0 -196 57q-69 35 -97 35 q-75 0 -75 -110h-111zM430 602h361l-183 506z" />
<glyph unicode="&#xc4;" horiz-adv-x="1333" d="M-23 0v100l123 19l463 1270h215l471 -1268l121 -21v-100h-553v100l129 13l15 26l-123 348h-447l-123 -346l21 -26l129 -15v-100h-441zM324 1661q0 57 38.5 95t94.5 38q54 0 91.5 -38.5t37.5 -92.5t-38.5 -92.5t-92.5 -38.5t-92.5 37.5t-38.5 91.5zM430 602h361l-183 506z M748 1661q0 57 37.5 95t93.5 38q54 0 92.5 -38.5t38.5 -92.5t-39 -92.5t-94 -38.5q-54 0 -91.5 37.5t-37.5 91.5z" />
<glyph unicode="&#xc5;" horiz-adv-x="1333" d="M-23 0v100l123 19l463 1270h215l471 -1268l121 -21v-100h-553v100l129 13l15 26l-123 348h-447l-123 -346l21 -26l129 -15v-100h-441zM406 1724q0 104 70.5 174t174.5 70q100 0 171 -71t71 -171q0 -102 -71.5 -172.5t-174.5 -70.5q-101 0 -171 70t-70 171zM430 602h361 l-183 506zM512 1726q0 -56 40 -96.5t95 -40.5q57 0 98 40.5t41 96.5q0 57 -40.5 96.5t-100.5 39.5q-54 0 -93.5 -40.5t-39.5 -95.5z" />
<glyph unicode="&#xc6;" horiz-adv-x="1828" d="M-119 0v100l123 15l672 1118l-23 31l-116 10v100h1163v-323h-144l-30 180l-27 26h-385v-485h244l28 29l21 147h119v-475h-119l-21 148l-28 28h-244v-532h451l28 33l35 217h139v-367h-1069v100l123 11l33 32v359h-457l-215 -361l15 -26l122 -15v-100h-438zM469 623h385 v639z" />
<glyph unicode="&#xc7;" horiz-adv-x="1310" d="M84 688q0 209 92.5 371t259 251t381.5 89q200 0 418 -76v-342h-152l-39 219l-28 35q-78 33 -168 33q-207 0 -332 -157t-125 -419q0 -270 129.5 -428t351.5 -158q59 0 134 17l30 31l51 247h148v-352q-209 -71 -418 -74v-92q12 2 29 2q82 0 126 -39.5t44 -113.5 q0 -93 -67 -148t-181 -55q-71 0 -164 22v97q89 -17 127 -17q60 0 92.5 19.5t32.5 56.5q0 32 -25 50t-69 18q-11 0 -43 -4v209q-285 28 -460 223t-175 485z" />
<glyph unicode="&#xc8;" horiz-adv-x="1222" d="M59 0v100l123 11l33 32v1092l-33 29l-123 10v100h1035v-323h-144l-30 180l-27 26h-408v-485h267l28 29l21 147h121v-475h-121l-21 148l-28 28h-267v-532h476l26 33l35 217h139v-367h-1102zM279 1812h264l184 -313h-139z" />
<glyph unicode="&#xc9;" horiz-adv-x="1222" d="M59 0v100l123 11l33 32v1092l-33 29l-123 10v100h1035v-323h-144l-30 180l-27 26h-408v-485h267l28 29l21 147h121v-475h-121l-21 148l-28 28h-267v-532h476l26 33l35 217h139v-367h-1102zM522 1499l185 313h262l-310 -313h-137z" />
<glyph unicode="&#xca;" horiz-adv-x="1222" d="M59 0v100l123 11l33 32v1092l-33 29l-123 10v100h1035v-323h-144l-30 180l-27 26h-408v-485h267l28 29l21 147h121v-475h-121l-21 148l-28 28h-267v-532h476l26 33l35 217h139v-367h-1102zM297 1499l223 313h180l226 -313h-156l-160 187l-157 -187h-156z" />
<glyph unicode="&#xcb;" horiz-adv-x="1222" d="M59 0v100l123 11l33 32v1092l-33 29l-123 10v100h1035v-323h-144l-30 180l-27 26h-408v-485h267l28 29l21 147h121v-475h-121l-21 148l-28 28h-267v-532h476l26 33l35 217h139v-367h-1102zM270 1661q0 57 38.5 95t94.5 38q54 0 91.5 -38.5t37.5 -92.5t-38.5 -92.5 t-92.5 -38.5t-92.5 37.5t-38.5 91.5zM694 1661q0 57 37.5 95t93.5 38q54 0 92.5 -38.5t38.5 -92.5t-39 -92.5t-94 -38.5q-54 0 -91.5 37.5t-37.5 91.5z" />
<glyph unicode="&#xcc;" horiz-adv-x="724" d="M31 1812h264l184 -313h-139zM59 0v100l136 11l32 32v1092l-32 29l-136 10v100h607v-100l-136 -10l-32 -29v-1092l32 -32l136 -11v-100h-607z" />
<glyph unicode="&#xcd;" horiz-adv-x="724" d="M59 0v100l136 11l32 32v1092l-32 29l-136 10v100h607v-100l-136 -10l-32 -29v-1092l32 -32l136 -11v-100h-607zM274 1499l185 313h262l-309 -313h-138z" />
<glyph unicode="&#xce;" horiz-adv-x="724" d="M49 1499l223 313h181l225 -313h-156l-160 187l-157 -187h-156zM61 0v100l136 11l32 32v1092l-32 29l-136 10v100h607v-100l-136 -10l-32 -29v-1092l32 -32l136 -11v-100h-607z" />
<glyph unicode="&#xcf;" horiz-adv-x="724" d="M20 1661q0 57 39 95t95 38q54 0 91.5 -38.5t37.5 -92.5t-38.5 -92.5t-92.5 -38.5t-93 37.5t-39 91.5zM59 0v100l136 11l32 32v1092l-32 29l-136 10v100h607v-100l-136 -10l-32 -29v-1092l32 -32l136 -11v-100h-607zM444 1661q0 57 37.5 95t93.5 38q54 0 93 -38.5 t39 -92.5t-39.5 -92.5t-94.5 -38.5q-54 0 -91.5 37.5t-37.5 91.5z" />
<glyph unicode="&#xd0;" horiz-adv-x="1476" d="M29 657v125h186v449l-33 33l-123 10v100h596q347 0 541.5 -179.5t194.5 -500.5q0 -221 -93.5 -384.5t-263.5 -243.5q-141 -66 -379 -66h-596v100l123 11l33 32v514h-186zM485 117h119q243 0 361 142.5t118 434.5q0 283 -119 423t-360 140h-119v-475h289v-125h-289v-540z " />
<glyph unicode="&#xd1;" horiz-adv-x="1488" d="M51 1274v100h471v-55l627 -973v877l-37 39l-125 16v96h467v-96l-121 -16l-35 -39v-1223h-229l-709 1100v-948l33 -37l127 -15v-100h-467v100l121 15l37 37v1083l-29 29zM416 1524q0 258 174 258q67 0 178 -53q83 -41 123 -41q74 0 74 114h110q2 -125 -45 -192.5 t-135 -67.5q-78 0 -197 57q-69 35 -96 35q-76 0 -76 -110h-110z" />
<glyph unicode="&#xd2;" horiz-adv-x="1556" d="M84 692q0 169 54 307t157 230q202 178 487 178q196 0 354 -93t247.5 -258.5t89.5 -371.5q0 -205 -89.5 -369t-250 -256t-361.5 -92t-357.5 92t-243.5 257t-87 376zM391 692q0 -267 107 -430.5t280 -163.5q175 0 281 159.5t106 422.5q0 275 -105.5 435.5t-285.5 160.5 q-172 0 -277.5 -161t-105.5 -423zM446 1812h265l184 -313h-139z" />
<glyph unicode="&#xd3;" horiz-adv-x="1556" d="M84 692q0 169 54 307t157 230q202 178 487 178q196 0 354 -93t247.5 -258.5t89.5 -371.5q0 -205 -89.5 -369t-250 -256t-361.5 -92t-357.5 92t-243.5 257t-87 376zM391 692q0 -267 107 -430.5t280 -163.5q175 0 281 159.5t106 422.5q0 275 -105.5 435.5t-285.5 160.5 q-172 0 -277.5 -161t-105.5 -423zM690 1499l184 313h263l-310 -313h-137z" />
<glyph unicode="&#xd4;" horiz-adv-x="1556" d="M84 692q0 169 54 307t157 230q202 178 487 178q196 0 354 -93t247.5 -258.5t89.5 -371.5q0 -205 -89.5 -369t-250 -256t-361.5 -92t-357.5 92t-243.5 257t-87 376zM391 692q0 -267 107 -430.5t280 -163.5q175 0 281 159.5t106 422.5q0 275 -105.5 435.5t-285.5 160.5 q-172 0 -277.5 -161t-105.5 -423zM465 1499l223 313h180l226 -313h-156l-160 187l-157 -187h-156z" />
<glyph unicode="&#xd5;" horiz-adv-x="1556" d="M84 692q0 169 54 307t157 230q202 178 487 178q196 0 354 -93t247.5 -258.5t89.5 -371.5q0 -205 -89.5 -369t-250 -256t-361.5 -92t-357.5 92t-243.5 257t-87 376zM391 692q0 -267 107 -430.5t280 -163.5q175 0 281 159.5t106 422.5q0 275 -105.5 435.5t-285.5 160.5 q-172 0 -277.5 -161t-105.5 -423zM449 1524q0 258 174 258q67 0 178 -53q83 -41 123 -41q38 0 55.5 27.5t17.5 86.5h111q2 -125 -45 -192.5t-135 -67.5q-78 0 -197 57q-69 35 -96 35q-76 0 -76 -110h-110z" />
<glyph unicode="&#xd6;" horiz-adv-x="1556" d="M84 692q0 169 54 307t157 230q202 178 487 178q196 0 354 -93t247.5 -258.5t89.5 -371.5q0 -205 -89.5 -369t-250 -256t-361.5 -92t-357.5 92t-243.5 257t-87 376zM391 692q0 -267 107 -430.5t280 -163.5q175 0 281 159.5t106 422.5q0 275 -105.5 435.5t-285.5 160.5 q-172 0 -277.5 -161t-105.5 -423zM436 1661q0 57 38.5 95t94.5 38q54 0 91.5 -38.5t37.5 -92.5t-38.5 -92.5t-92.5 -38.5t-92.5 37.5t-38.5 91.5zM860 1661q0 57 37.5 95t93.5 38q54 0 92.5 -38.5t38.5 -92.5t-39 -92.5t-94 -38.5q-54 0 -91.5 37.5t-37.5 91.5z" />
<glyph unicode="&#xd7;" horiz-adv-x="1705" d="M254 526v170h1198v-170h-1198z" />
<glyph unicode="&#xd8;" horiz-adv-x="1552" d="M84 686q0 326 189 523.5t501 197.5q84 0 151.5 -14.5t151.5 -49.5l117 199l100 -57l-116 -201q152 -124 221 -264.5t69 -325.5q0 -159 -51.5 -294.5t-143 -230.5t-222 -148.5t-283.5 -53.5q-88 0 -160 16.5t-155 55.5l-121 -209l-94 68l116 200q-270 223 -270 588z M377 702q0 -121 20.5 -216t69.5 -195l526 905q-54 44 -103.5 63t-111.5 19q-181 0 -291 -158.5t-110 -417.5zM541 188q60 -51 113.5 -72.5t121.5 -21.5q179 0 289.5 160t110.5 418q0 253 -103 430z" />
<glyph unicode="&#xd9;" horiz-adv-x="1441" d="M41 1274v100h586v-100l-127 -10l-29 -29v-717q0 -202 77 -291.5t249 -89.5t245.5 92.5t73.5 307.5v690l-31 35l-131 12v100h465v-100l-125 -12l-28 -35v-711q0 -283 -126 -412t-403 -129q-333 0 -463 183q-41 62 -59 146.5t-18 221.5v709l-29 29zM465 1812h264l184 -313 h-139z" />
<glyph unicode="&#xda;" horiz-adv-x="1441" d="M41 1274v100h586v-100l-127 -10l-29 -29v-717q0 -202 77 -291.5t249 -89.5t245.5 92.5t73.5 307.5v690l-31 35l-131 12v100h465v-100l-125 -12l-28 -35v-711q0 -283 -126 -412t-403 -129q-333 0 -463 183q-41 62 -59 146.5t-18 221.5v709l-29 29zM711 1499l184 313h262 l-309 -313h-137z" />
<glyph unicode="&#xdb;" horiz-adv-x="1441" d="M41 1274v100h586v-100l-127 -10l-29 -29v-717q0 -202 77 -291.5t249 -89.5t245.5 92.5t73.5 307.5v690l-31 35l-131 12v100h465v-100l-125 -12l-28 -35v-711q0 -283 -126 -412t-403 -129q-333 0 -463 183q-41 62 -59 146.5t-18 221.5v709l-29 29zM483 1499l224 313h180 l225 -313h-156l-159 187l-158 -187h-156z" />
<glyph unicode="&#xdc;" horiz-adv-x="1441" d="M41 1274v100h586v-100l-127 -10l-29 -29v-717q0 -202 77 -291.5t249 -89.5t245.5 92.5t73.5 307.5v690l-31 35l-131 12v100h465v-100l-125 -12l-28 -35v-711q0 -283 -126 -412t-403 -129q-333 0 -463 183q-41 62 -59 146.5t-18 221.5v709l-29 29zM455 1661q0 57 38.5 95 t94.5 38q54 0 91.5 -38.5t37.5 -92.5t-38.5 -92.5t-92.5 -38.5t-92.5 37.5t-38.5 91.5zM879 1661q0 57 37.5 95t93.5 38q54 0 92.5 -38.5t38.5 -92.5t-39 -92.5t-94 -38.5q-54 0 -91.5 37.5t-37.5 91.5z" />
<glyph unicode="&#xdd;" horiz-adv-x="1247" d="M-23 1274v100h560v-100l-115 -10l-19 -25l281 -520l293 502l-16 32l-123 23v98h444v-100l-121 -23l-389 -661v-449l33 -28l139 -13v-100h-614v100l139 13l33 28v400l-393 712zM535 1499l184 313h262l-309 -313h-137z" />
<glyph unicode="&#xde;" horiz-adv-x="1193" d="M59 0v100l121 11l35 32v1092l-29 29l-127 10v100h594v-100l-135 -10l-33 -33v-109h117q289 0 425 -98.5t136 -308.5q0 -215 -141 -334t-397 -119q-91 0 -140 6v-125l33 -32l135 -11v-100h-594zM485 385q37 -4 74 -4q160 0 241 80t81 237q0 308 -312 308q-47 0 -84 -2 v-619z" />
<glyph unicode="&#xdf;" horiz-adv-x="1998" d="M82 35v284h168l31 -188l16 -16q72 -21 137 -21q96 0 150.5 36t54.5 99q0 60 -41.5 100t-157.5 91q-193 87 -262 152t-69 161q0 137 118 222t308 85q166 0 342 -55v-256h-160l-33 162l-16 18q-53 17 -111 17q-88 0 -138 -35.5t-50 -97.5q0 -74 84 -129q26 -19 57 -33 t145 -60q254 -100 254 -278q0 -139 -131 -226t-342 -87q-175 0 -354 55zM1081 35v284h168l31 -188l16 -16q72 -21 138 -21q96 0 150 36t54 99q0 60 -41.5 100t-156.5 91q-193 87 -262.5 152t-69.5 161q0 136 118.5 221.5t307.5 85.5q166 0 342 -55v-256h-160l-33 162l-16 18 q-53 17 -111 17q-88 0 -138 -35.5t-50 -97.5q0 -74 84 -129q26 -19 57 -33t146 -60q254 -100 254 -278q0 -139 -131 -226t-342 -87q-176 0 -355 55z" />
<glyph unicode="&#xe0;" horiz-adv-x="1146" d="M-33 0v90l109 12l391 932h209l399 -930l105 -14v-90h-504v90l115 8l8 17l-103 241h-346l-100 -241l12 -17l115 -8v-90h-410zM238 1536h254l198 -389h-139zM391 459h258l-131 317z" />
<glyph unicode="&#xe1;" horiz-adv-x="1146" d="M-33 0v90l109 12l391 932h209l399 -930l105 -14v-90h-504v90l115 8l8 17l-103 241h-346l-100 -241l12 -17l115 -8v-90h-410zM391 459h258l-131 317zM483 1147l199 389h254l-315 -389h-138z" />
<glyph unicode="&#xe2;" horiz-adv-x="1146" d="M-33 0v90l109 12l391 932h209l399 -930l105 -14v-90h-504v90l115 8l8 17l-103 241h-346l-100 -241l12 -17l115 -8v-90h-410zM258 1147l225 389h181l225 -389h-158l-158 256l-155 -256h-160zM391 459h258l-131 317z" />
<glyph unicode="&#xe3;" horiz-adv-x="1146" d="M-33 0v90l109 12l391 932h209l399 -930l105 -14v-90h-504v90l115 8l8 17l-103 241h-346l-100 -241l12 -17l115 -8v-90h-410zM242 1184v37q0 115 46.5 178t131.5 63q72 0 186 -57q77 -39 115 -39q40 0 57.5 31t16.5 98h110q2 -140 -42 -208t-136 -68q-80 0 -201 59 q-66 35 -98 35t-53 -28.5t-21 -72.5v-28h-112zM391 459h258l-131 317z" />
<glyph unicode="&#xe4;" horiz-adv-x="1146" d="M-33 0v90l109 12l391 932h209l399 -930l105 -14v-90h-504v90l115 8l8 17l-103 241h-346l-100 -241l12 -17l115 -8v-90h-410zM231 1333q0 56 39.5 94.5t96.5 38.5q53 0 91 -39t38 -94t-38 -93t-93 -38t-94.5 38.5t-39.5 92.5zM391 459h258l-131 317zM655 1333q0 57 38 95 t95 38q54 0 93 -39.5t39 -93.5t-39.5 -92.5t-94.5 -38.5q-56 0 -93.5 38t-37.5 93z" />
<glyph unicode="&#xe5;" horiz-adv-x="1146" d="M-33 0v90l109 12l391 932h209l399 -930l105 -14v-90h-504v90l115 8l8 17l-103 241h-346l-100 -241l12 -17l115 -8v-90h-410zM332 1362q0 103 70 172.5t173 69.5q100 0 171 -71t71 -171q0 -102 -71 -173t-173 -71q-101 0 -171 70.5t-70 173.5zM391 459h258l-131 317z M438 1362q0 -56 40 -96.5t95 -40.5q57 0 97.5 40.5t40.5 96.5q0 57 -40.5 96t-99.5 39q-54 0 -93.5 -40t-39.5 -95z" />
<glyph unicode="&#xe6;" horiz-adv-x="1615" d="M-72 0v90l109 8l561 807l-12 17l-105 8v90h1018v-252h-158l-26 137l-15 13h-294v-336h176l16 12l19 119h135v-367h-135l-19 121l-16 12h-176v-377h350l16 17l31 168h151v-287h-938v90l113 8l21 17v252h-355l-174 -252l6 -17l109 -8v-90h-408zM467 471h283v403z" />
<glyph unicode="&#xe7;" horiz-adv-x="1191" d="M74 512q0 232 177.5 380t455.5 148q163 0 372 -61v-262h-161l-35 166l-21 22q-58 21 -119 21q-173 0 -273.5 -112t-100.5 -304q0 -195 104.5 -305.5t290.5 -110.5q48 0 92 8l21 19l43 188h159v-272q-204 -57 -370 -57h-33v-97h37q77 0 119 -40t42 -113 q0 -92 -66.5 -146.5t-180.5 -54.5q-68 0 -164 22v97q89 -17 127 -17q60 0 92.5 19.5t32.5 56.5q0 31 -25 48.5t-69 17.5q-18 0 -43 -2v217q-230 35 -367 177.5t-137 346.5z" />
<glyph unicode="&#xe8;" horiz-adv-x="1085" d="M63 0v90l111 8l21 17v790l-19 17l-113 8v90h906v-252h-156l-27 137l-14 13h-311v-338h192l17 12l16 119h137v-365h-137l-16 119l-17 12h-192v-375h366l15 17l32 166h150v-285h-961zM207 1536h254l198 -389h-139z" />
<glyph unicode="&#xe9;" horiz-adv-x="1085" d="M63 0v90l111 8l21 17v790l-19 17l-113 8v90h906v-252h-156l-27 137l-14 13h-311v-338h192l17 12l16 119h137v-365h-137l-16 119l-17 12h-192v-375h366l15 17l32 166h150v-285h-961zM453 1147l198 389h254l-315 -389h-137z" />
<glyph unicode="&#xea;" horiz-adv-x="1085" d="M63 0v90l111 8l21 17v790l-19 17l-113 8v90h906v-252h-156l-27 137l-14 13h-311v-338h192l17 12l16 119h137v-365h-137l-16 119l-17 12h-192v-375h366l15 17l32 166h150v-285h-961zM227 1147l226 389h180l225 -389h-158l-157 256l-156 -256h-160z" />
<glyph unicode="&#xeb;" horiz-adv-x="1085" d="M63 0v90l111 8l21 17v790l-19 17l-113 8v90h906v-252h-156l-27 137l-14 13h-311v-338h192l17 12l16 119h137v-365h-137l-16 119l-17 12h-192v-375h366l15 17l32 166h150v-285h-961zM201 1333q0 56 39 94.5t96 38.5q53 0 91 -39t38 -94t-37.5 -93t-93.5 -38 q-55 0 -94 38.5t-39 92.5zM625 1333q0 57 38 95t95 38q54 0 92.5 -39.5t38.5 -93.5t-39 -92.5t-94 -38.5q-56 0 -93.5 38t-37.5 93z" />
<glyph unicode="&#xec;" horiz-adv-x="663" d="M-4 1536h254l199 -389h-140zM55 0v90l125 8l19 17v790l-19 17l-125 8v90h553v-90l-125 -8l-18 -17v-790l18 -17l125 -8v-90h-553z" />
<glyph unicode="&#xed;" horiz-adv-x="663" d="M55 0v90l125 8l19 17v790l-19 17l-125 8v90h553v-90l-125 -8l-18 -17v-790l18 -17l125 -8v-90h-553zM242 1147l198 389h254l-315 -389h-137z" />
<glyph unicode="&#xee;" horiz-adv-x="663" d="M16 1147l226 389h180l225 -389h-158l-157 256l-156 -256h-160zM55 0v90l125 8l19 17v790l-19 17l-125 8v90h553v-90l-125 -8l-18 -17v-790l18 -17l125 -8v-90h-553z" />
<glyph unicode="&#xef;" horiz-adv-x="663" d="M20 1333q0 56 39.5 94.5t96.5 38.5q52 0 90.5 -39.5t38.5 -93.5q0 -55 -37.5 -93t-93.5 -38q-55 0 -94.5 38.5t-39.5 92.5zM55 0v90l125 8l19 17v790l-19 17l-125 8v90h553v-90l-125 -8l-18 -17v-790l18 -17l125 -8v-90h-553zM383 1317q0 57 38 95t95 38q54 0 92.5 -39.5 t38.5 -93.5t-39 -92.5t-94 -38.5q-56 0 -93.5 38t-37.5 93z" />
<glyph unicode="&#xf0;" horiz-adv-x="1300" d="M37 479v109h156v317l-21 17l-109 8v90h519q305 0 474 -134.5t169 -377.5q0 -242 -168.5 -375t-474.5 -133h-519v90l109 8l21 17v364h-156zM459 102h82q200 0 295.5 100.5t95.5 309.5q0 206 -96.5 307t-294.5 101h-82v-332h248v-109h-248v-377z" />
<glyph unicode="&#xf1;" horiz-adv-x="1339" d="M63 0v90l109 8l23 23v784l-17 17l-115 8v90h433v-47l489 -660v588l-22 21l-113 8v90h428v-90l-107 -8l-24 -21v-901h-223l-568 762v-641l21 -23l115 -8v-90h-429zM338 1184v37q0 115 46.5 178t131.5 63q72 0 186 -57q77 -39 115 -39q40 0 57.5 31t16.5 98h110 q2 -140 -42 -208t-136 -68q-79 0 -200 59q-66 35 -99 35q-32 0 -52.5 -28.5t-20.5 -72.5v-28h-113z" />
<glyph unicode="&#xf2;" horiz-adv-x="1351" d="M74 512q0 240 166.5 386t439.5 146q170 0 306.5 -69t214 -192t77.5 -275q0 -230 -170.5 -381.5t-431.5 -151.5q-267 0 -434.5 149.5t-167.5 387.5zM340 1536h254l199 -389h-140zM369 514q0 -191 84.5 -307.5t222.5 -116.5q137 0 222 114t85 300q0 195 -85 310.5 t-226 115.5q-136 0 -219.5 -115t-83.5 -301z" />
<glyph unicode="&#xf3;" horiz-adv-x="1351" d="M74 512q0 240 166.5 386t439.5 146q170 0 306.5 -69t214 -192t77.5 -275q0 -230 -170.5 -381.5t-431.5 -151.5q-267 0 -434.5 149.5t-167.5 387.5zM369 514q0 -191 84.5 -307.5t222.5 -116.5q137 0 222 114t85 300q0 195 -85 310.5t-226 115.5q-136 0 -219.5 -115 t-83.5 -301zM586 1147l198 389h254l-315 -389h-137z" />
<glyph unicode="&#xf4;" horiz-adv-x="1351" d="M74 512q0 240 166.5 386t439.5 146q170 0 306.5 -69t214 -192t77.5 -275q0 -230 -170.5 -381.5t-431.5 -151.5q-267 0 -434.5 149.5t-167.5 387.5zM360 1147l226 389h180l225 -389h-157l-158 256l-156 -256h-160zM369 514q0 -191 84.5 -307.5t222.5 -116.5q137 0 222 114 t85 300q0 195 -85 310.5t-226 115.5q-136 0 -219.5 -115t-83.5 -301z" />
<glyph unicode="&#xf5;" horiz-adv-x="1351" d="M74 512q0 240 166.5 386t439.5 146q170 0 306.5 -69t214 -192t77.5 -275q0 -230 -170.5 -381.5t-431.5 -151.5q-267 0 -434.5 149.5t-167.5 387.5zM344 1184v37q0 115 46.5 178t131.5 63q73 0 187 -57q77 -39 114 -39q40 0 57.5 31t16.5 98h111q3 -276 -179 -276 q-79 0 -200 59q-66 35 -99 35q-32 0 -52.5 -28.5t-20.5 -72.5v-28h-113zM369 514q0 -191 84.5 -307.5t222.5 -116.5q137 0 222 114t85 300q0 195 -85 310.5t-226 115.5q-136 0 -219.5 -115t-83.5 -301z" />
<glyph unicode="&#xf6;" horiz-adv-x="1351" d="M74 512q0 240 166.5 386t439.5 146q170 0 306.5 -69t214 -192t77.5 -275q0 -230 -170.5 -381.5t-431.5 -151.5q-267 0 -434.5 149.5t-167.5 387.5zM334 1333q0 56 39 94.5t96 38.5q53 0 91 -39t38 -94t-38 -93t-93 -38t-94 38.5t-39 92.5zM369 514q0 -191 84.5 -307.5 t222.5 -116.5q137 0 222 114t85 300q0 195 -85 310.5t-226 115.5q-136 0 -219.5 -115t-83.5 -301zM758 1333q0 57 38 95t95 38q54 0 92.5 -39.5t38.5 -93.5t-39 -92.5t-94 -38.5t-93 38t-38 93z" />
<glyph unicode="&#xf7;" horiz-adv-x="1705" d="M287 152l458 458l-458 461l116 117l459 -459l461 459l117 -117l-459 -461l459 -458l-117 -119l-461 461l-459 -461z" />
<glyph unicode="&#xf8;" horiz-adv-x="1351" d="M74 512q0 241 165 386.5t439 145.5q127 0 242 -38l106 157l107 -65l-99 -148q132 -98 188 -199t56 -239q0 -157 -77.5 -279.5t-217.5 -190t-319 -67.5q-125 0 -252 50l-105 -158l-106 65l100 148q-227 161 -227 432zM358 518q0 -145 58 -264l422 629q-38 29 -73.5 40 t-86.5 11q-146 0 -233 -113t-87 -303zM498 147q70 -61 174 -61q148 0 234.5 115.5t86.5 310.5q0 154 -69 272z" />
<glyph unicode="&#xf9;" horiz-adv-x="1337" d="M72 930v90h528v-90l-115 -8l-16 -17v-532q0 -146 59.5 -208.5t198.5 -62.5q134 0 191 65.5t57 219.5v518l-19 17l-116 8v90h430v-90l-113 -8l-18 -17v-534q0 -209 -110.5 -306.5t-348.5 -97.5q-300 0 -412 142q-37 47 -51 105.5t-14 164.5v526l-17 17zM334 1536h254 l198 -389h-139z" />
<glyph unicode="&#xfa;" horiz-adv-x="1337" d="M72 930v90h528v-90l-115 -8l-16 -17v-532q0 -146 59.5 -208.5t198.5 -62.5q134 0 191 65.5t57 219.5v518l-19 17l-116 8v90h430v-90l-113 -8l-18 -17v-534q0 -209 -110.5 -306.5t-348.5 -97.5q-300 0 -412 142q-37 47 -51 105.5t-14 164.5v526l-17 17zM580 1147l198 389 h254l-315 -389h-137z" />
<glyph unicode="&#xfb;" horiz-adv-x="1337" d="M72 930v90h528v-90l-115 -8l-16 -17v-532q0 -146 59.5 -208.5t198.5 -62.5q134 0 191 65.5t57 219.5v518l-19 17l-116 8v90h430v-90l-113 -8l-18 -17v-534q0 -209 -110.5 -306.5t-348.5 -97.5q-300 0 -412 142q-37 47 -51 105.5t-14 164.5v526l-17 17zM354 1147l226 389 h180l225 -389h-158l-157 256l-156 -256h-160z" />
<glyph unicode="&#xfc;" horiz-adv-x="1337" d="M72 930v90h528v-90l-115 -8l-16 -17v-532q0 -146 59.5 -208.5t198.5 -62.5q134 0 191 65.5t57 219.5v518l-19 17l-116 8v90h430v-90l-113 -8l-18 -17v-534q0 -209 -110.5 -306.5t-348.5 -97.5q-300 0 -412 142q-37 47 -51 105.5t-14 164.5v526l-17 17zM356 1333 q0 56 39.5 94.5t96.5 38.5q53 0 91 -39t38 -94t-38 -93t-94 -38q-55 0 -94 38.5t-39 92.5zM780 1333q0 57 38 95t95 38q54 0 92.5 -39.5t38.5 -93.5t-39 -92.5t-94 -38.5t-93 38t-38 93z" />
<glyph unicode="&#xfd;" horiz-adv-x="1089" d="M-20 930v90h507v-90l-104 -8l-8 -11l217 -348l227 336l-10 19l-104 12v90h411v-90l-106 -15l-324 -473v-327l19 -17l124 -8v-90h-553v90l125 8l19 17v291l-328 509zM455 1147l198 389h254l-315 -389h-137z" />
<glyph unicode="&#xfe;" horiz-adv-x="1085" d="M53 930v90h553v-90l-125 -8l-20 -17v-65h80q250 0 369.5 -76t119.5 -234q0 -164 -123 -255t-346 -91q-45 0 -100 4v-73l18 -17l115 -8v-90h-531v90l111 8l21 17v790l-19 17zM461 293q12 -2 39 -2q129 0 192.5 56t63.5 171q0 105 -58.5 161t-167.5 56h-69v-442z" />
<glyph unicode="&#xff;" horiz-adv-x="1089" d="M-20 930v90h507v-90l-104 -8l-8 -11l217 -348l227 336l-10 19l-104 12v90h411v-90l-106 -15l-324 -473v-327l19 -17l124 -8v-90h-553v90l125 8l19 17v291l-328 509zM203 1333q0 56 39 94.5t96 38.5q53 0 91 -39t38 -94t-37.5 -93t-93.5 -38q-55 0 -94 38.5t-39 92.5z M627 1333q0 57 38 95t95 38q54 0 92.5 -39.5t38.5 -93.5t-39 -92.5t-94 -38.5q-56 0 -93.5 38t-37.5 93z" />
<glyph unicode="&#x152;" horiz-adv-x="2070" d="M84 690q0 315 172.5 511t450.5 196q138 0 235.5 -52t165.5 -161v190h834v-323h-144l-26 168l-35 38h-379v-485h244l28 29l17 147h122v-475h-122l-17 145l-31 31h-241v-532h448l29 33l35 217h139v-367h-901v201q-91 -118 -190 -171t-230 -53q-174 0 -312 91t-215 254 t-77 368zM385 690q0 -261 100 -421t263 -160q164 0 264 157t100 416q0 269 -99 426.5t-268 157.5q-163 0 -261.5 -158t-98.5 -418z" />
<glyph unicode="&#x153;" horiz-adv-x="1794" d="M74 514q0 232 150.5 377t393.5 145q189 0 320 -114v98h739v-252h-153l-25 131l-20 19h-295v-334h178l16 12l15 117h137v-367h-137l-17 117l-16 18h-176v-379h350l16 17l31 168h152v-287h-795v117q-130 -133 -336 -133q-232 0 -380 148.5t-148 381.5zM369 516 q0 -185 79 -301.5t203 -116.5q128 0 208.5 114.5t80.5 295.5q0 186 -79.5 300t-211.5 114q-124 0 -202 -113t-78 -293z" />
<glyph unicode="&#x178;" horiz-adv-x="1247" d="M-23 1274v100h560v-100l-115 -10l-19 -25l281 -520l293 502l-16 32l-123 23v98h444v-100l-121 -23l-389 -661v-449l33 -28l139 -13v-100h-614v100l139 13l33 28v400l-393 712zM281 1661q0 57 38.5 95t94.5 38q54 0 91.5 -38.5t37.5 -92.5t-38.5 -92.5t-92.5 -38.5 t-92.5 37.5t-38.5 91.5zM705 1661q0 57 37.5 95t93.5 38q54 0 92.5 -38.5t38.5 -92.5t-39 -92.5t-94 -38.5q-54 0 -91.5 37.5t-37.5 91.5z" />
<glyph unicode="&#x2c6;" d="M197 1147l225 389h180l225 -389h-157l-158 256l-156 -256h-159z" />
<glyph unicode="&#x2dc;" d="M180 1184v37q0 115 46.5 178t131.5 63q73 0 187 -57q77 -39 114 -39q40 0 57.5 31t16.5 98h111q2 -140 -42 -208t-136 -68q-80 0 -201 59q-66 35 -98 35t-53 -28.5t-21 -72.5v-28h-113z" />
<glyph unicode="&#x2000;" horiz-adv-x="984" />
<glyph unicode="&#x2001;" horiz-adv-x="1968" />
<glyph unicode="&#x2002;" horiz-adv-x="984" />
<glyph unicode="&#x2003;" horiz-adv-x="1968" />
<glyph unicode="&#x2004;" horiz-adv-x="656" />
<glyph unicode="&#x2005;" horiz-adv-x="492" />
<glyph unicode="&#x2006;" horiz-adv-x="328" />
<glyph unicode="&#x2007;" horiz-adv-x="328" />
<glyph unicode="&#x2008;" horiz-adv-x="246" />
<glyph unicode="&#x2009;" horiz-adv-x="393" />
<glyph unicode="&#x200a;" horiz-adv-x="109" />
<glyph unicode="&#x2010;" horiz-adv-x="667" d="M74 393v201h520v-201h-520z" />
<glyph unicode="&#x2011;" horiz-adv-x="667" d="M74 393v201h520v-201h-520z" />
<glyph unicode="&#x2012;" horiz-adv-x="667" d="M74 393v201h520v-201h-520z" />
<glyph unicode="&#x2013;" d="M0 399v187h1024v-187h-1024z" />
<glyph unicode="&#x2014;" horiz-adv-x="2048" d="M0 401v185h2048v-185h-2048z" />
<glyph unicode="&#x2018;" horiz-adv-x="522" d="M102 1024q0 131 75 229.5t233 176.5l43 -62q-101 -67 -146 -131t-45 -141q0 -21 2 -41h123q23 -32 31 -53.5t8 -49.5q0 -64 -40 -103.5t-103 -39.5q-82 0 -131.5 59t-49.5 156z" />
<glyph unicode="&#x2019;" horiz-adv-x="522" d="M98 870q100 66 145.5 131t45.5 140q0 8 -2 43h-123q-39 55 -39 102q0 64 40 104t103 40q82 0 131.5 -59.5t49.5 -156.5q0 -130 -75.5 -228.5t-232.5 -176.5z" />
<glyph unicode="&#x201a;" horiz-adv-x="522" d="M70 -295q98 64 144 129.5t46 140.5q0 8 -2 43h-123q-39 55 -39 103q0 64 40.5 103.5t103.5 39.5q82 0 131 -59t49 -156q0 -131 -73.5 -228.5t-233.5 -176.5z" />
<glyph unicode="&#x201c;" horiz-adv-x="972" d="M102 1024q0 131 75 229.5t233 176.5l43 -62q-101 -67 -146 -131t-45 -141q0 -21 2 -41h123q23 -32 31 -53.5t8 -49.5q0 -64 -40 -103.5t-103 -39.5q-82 0 -131.5 59t-49.5 156zM553 1024q0 130 75 229t232 177l43 -62q-101 -69 -145.5 -132.5t-44.5 -139.5q0 -21 2 -41 h123q39 -52 39 -105q0 -63 -40.5 -102t-103.5 -39q-82 0 -131 59t-49 156z" />
<glyph unicode="&#x201d;" horiz-adv-x="974" d="M70 870q99 66 144.5 131t45.5 140q0 8 -2 43h-123q-39 55 -39 102q0 64 40.5 104t103.5 40q81 0 130.5 -59.5t49.5 -156.5q0 -130 -75 -228.5t-232 -176.5zM522 870q100 66 145.5 131t45.5 142q0 18 -2 41h-123q-39 52 -39 104q0 63 40 102.5t103 39.5q81 0 130.5 -59.5 t49.5 -156.5q0 -130 -75 -229t-232 -176z" />
<glyph unicode="&#x201e;" horiz-adv-x="974" d="M70 -295q98 64 144 129.5t46 140.5q0 8 -2 43h-123q-39 55 -39 103q0 64 40.5 103.5t103.5 39.5q82 0 131 -59t49 -156q0 -131 -73.5 -228.5t-233.5 -176.5zM522 -295q99 65 145 130.5t46 141.5q0 18 -2 41h-123q-39 52 -39 105q0 63 40 102t103 39q82 0 131 -59t49 -156 q0 -131 -73.5 -228.5t-233.5 -176.5z" />
<glyph unicode="&#x2022;" horiz-adv-x="1208" d="M307 760q0 125 86.5 211t212.5 86q120 0 206.5 -87t86.5 -208q0 -123 -87 -210t-210 -87t-209 86t-86 209z" />
<glyph unicode="&#x2026;" horiz-adv-x="2048" d="M178 145q0 69 47 116.5t115 47.5q66 0 115 -49t49 -115q0 -67 -48.5 -114t-117.5 -47q-66 0 -113 47t-47 114zM860 145q0 69 47 116.5t115 47.5q66 0 115 -49t49 -115q0 -67 -48.5 -114t-117.5 -47q-66 0 -113 47t-47 114zM1544 145q0 69 47 116.5t115 47.5q66 0 115 -49 t49 -115t-48.5 -113.5t-117.5 -47.5q-66 0 -113 47t-47 114z" />
<glyph unicode="&#x202f;" horiz-adv-x="393" />
<glyph unicode="&#x2039;" horiz-adv-x="516" d="M92 406v172l352 294v-172l-221 -208l221 -209v-172z" />
<glyph unicode="&#x203a;" horiz-adv-x="516" d="M72 111v172l221 209l-221 208v172l352 -294v-172z" />
<glyph unicode="&#x205f;" horiz-adv-x="492" />
<glyph unicode="&#x2122;" horiz-adv-x="1705" d="M254 526v170h1198v-170h-1198zM717 227q0 58 40 99t97 41q56 0 96.5 -41.5t40.5 -98.5t-40 -96t-97 -39q-58 0 -97.5 39t-39.5 96zM717 989q0 58 40 98.5t97 40.5q56 0 96.5 -41t40.5 -98t-40 -96t-97 -39q-58 0 -97.5 39t-39.5 96z" />
<glyph unicode="&#x25fc;" d="M0 0v1024h1024v-1024h-1024z" />
<glyph unicode="&#xfb01;" horiz-adv-x="1656" d="M57 930v90h901v-268h-155l-27 153l-14 13h-301v-359h201l14 14l18 117h135v-364h-135l-18 116l-17 15h-198v-342l20 -17l127 -8v-90h-542v90l110 8l19 17v790l-19 17zM1049 0v90l125 8l18 17v790l-18 17l-125 8v90h553v-90l-125 -8l-19 -17v-790l19 -17l125 -8v-90h-553z " />
<glyph unicode="&#xfb02;" horiz-adv-x="2015" d="M57 930v90h901v-268h-155l-27 153l-14 13h-301v-359h201l14 14l18 117h135v-364h-135l-18 116l-17 15h-198v-342l20 -17l127 -8v-90h-542v90l110 8l19 17v790l-19 17zM1057 0v90l110 8l21 17v790l-17 17l-114 8v90h530v-90l-112 -8l-21 -17v-801h299l14 15l29 190h162 v-309h-901z" />
</font>
</defs>
</svg>
