<?xml version="1.0" encoding="UTF-8"?>
<svg xmlns="http://www.w3.org/2000/svg" xmlns:xlink="http://www.w3.org/1999/xlink" width="333.21600000000007" height="86.32800000000002" viewBox="0 -6.835999999999991 333.21600000000007 100" preserveAspectRatio="xMinYMid meet"><path d="M7.42 23.62L3.46 23.26L3.46 21.31L20.81 21.31L20.81 23.26L16.85 23.62Q15.70 23.76 15.48 24.19Q15.26 24.62 15.26 27.14L15.26 27.14L15.26 64.44Q15.26 66.96 15.48 67.39Q15.70 67.82 16.85 67.97L16.85 67.97L20.81 68.40L20.81 70.27L3.46 70.27L3.46 68.40L7.42 67.97Q8.57 67.82 8.78 67.39Q9.00 66.96 9.00 64.44L9.00 64.44L9.00 27.14Q9.00 24.62 8.78 24.19Q8.57 23.76 7.42 23.62L7.42 23.62ZM63.07 67.97L67.03 68.40L67.03 70.27L50.04 70.27L50.04 68.40L54.00 67.97Q55.15 67.82 55.37 67.39Q55.58 66.96 55.58 64.44L55.58 64.44L55.58 46.51Q55.58 41.18 53.86 38.99Q52.13 36.79 48.89 36.79L48.89 36.79Q46.51 36.79 43.63 38.23Q40.75 39.67 38.23 43.85L38.23 43.85L38.23 64.44Q38.23 66.96 38.45 67.39Q38.66 67.82 39.82 67.97L39.82 67.97L43.78 68.40L43.78 70.27L26.78 70.27L26.78 68.40L30.74 67.97Q31.90 67.82 32.11 67.39Q32.33 66.96 32.33 64.44L32.33 64.44L32.33 40.46Q32.33 37.94 32.11 37.51Q31.90 37.08 30.74 36.94L30.74 36.94L26.78 36.58L26.78 34.63L37.87 34.63L37.87 40.46Q40.46 37.01 43.74 35.46Q47.02 33.91 50.33 33.91L50.33 33.91Q55.66 33.91 58.57 37.19Q61.49 40.46 61.49 46.44L61.49 46.44L61.49 64.44Q61.49 66.96 61.70 67.39Q61.92 67.82 63.07 67.97L63.07 67.97ZM75.17 36.94L71.21 36.58L71.21 34.63L82.30 34.63L82.30 40.39Q84.82 37.01 87.37 35.46Q89.93 33.91 92.59 33.91L92.59 33.91Q94.90 33.91 96.91 35.28Q98.93 36.65 100.30 39.67L100.30 39.67L95.62 42.48Q94.54 39.89 93.17 38.88Q91.80 37.87 90.14 37.87L90.14 37.87Q88.34 37.87 86.58 39.02Q84.82 40.18 82.66 43.34L82.66 43.34L82.66 64.44Q82.66 66.96 82.87 67.43Q83.09 67.90 84.24 67.97L84.24 67.97L89.64 68.40L89.64 70.27L71.21 70.27L71.21 68.40L75.17 67.97Q76.32 67.82 76.54 67.39Q76.75 66.96 76.75 64.44L76.75 64.44L76.75 40.46Q76.75 37.94 76.54 37.51Q76.32 37.08 75.17 36.94L75.17 36.94ZM111.24 26.57L111.24 26.57Q109.51 26.57 108.40 25.45Q107.28 24.34 107.28 22.54L107.28 22.54Q107.28 20.81 108.40 19.73Q109.51 18.65 111.24 18.65L111.24 18.65Q112.97 18.65 114.08 19.73Q115.20 20.81 115.20 22.54L115.20 22.54Q115.20 24.34 114.08 25.45Q112.97 26.57 111.24 26.57ZM106.78 36.94L102.82 36.58L102.82 34.63L114.26 34.63L114.26 64.44Q114.26 66.96 114.48 67.39Q114.70 67.82 115.85 67.97L115.85 67.97L119.81 68.40L119.81 70.27L102.82 70.27L102.82 68.40L106.78 67.97Q107.93 67.82 108.14 67.39Q108.36 66.96 108.36 64.44L108.36 64.44L108.36 40.46Q108.36 37.94 108.14 37.51Q107.93 37.08 106.78 36.94L106.78 36.94ZM154.01 70.78L154.01 70.78Q148.39 70.78 147.38 65.59L147.38 65.59Q144.86 68.47 141.84 69.73Q138.82 70.99 135.86 70.99L135.86 70.99Q130.82 70.99 128.45 68.18Q126.07 65.38 126.07 61.42L126.07 61.42Q126.07 57.17 128.99 54.68Q131.90 52.20 139.10 52.20L139.10 52.20L147.24 52.20L147.24 46.37Q147.24 40.61 145.26 38.41Q143.28 36.22 139.90 36.22L139.90 36.22Q137.74 36.22 136.01 37.08Q134.28 37.94 133.52 40.21Q132.77 42.48 133.34 46.80L133.34 46.80L127.66 45.94Q127.30 42.55 128.56 39.85Q129.82 37.15 132.73 35.53Q135.65 33.91 140.04 33.91L140.04 33.91Q145.30 33.91 148.10 35.68Q150.91 37.44 152.03 40.25Q153.14 43.06 153.14 46.37L153.14 46.37L153.14 62.57Q153.14 66.24 153.97 67.18Q154.80 68.11 155.81 68.11L155.81 68.11Q156.46 68.11 157.18 67.79Q157.90 67.46 158.76 66.74L158.76 66.74L160.06 68.54Q158.98 69.48 157.50 70.13Q156.02 70.78 154.01 70.78ZM137.88 67.97L137.88 67.97Q139.90 67.97 142.24 66.85Q144.58 65.74 147.24 62.35L147.24 62.35L147.24 54.50L139.90 54.50Q135.86 54.50 134.03 56.12Q132.19 57.74 132.19 61.13L132.19 61.13Q132.19 64.37 133.60 66.17Q135.00 67.97 137.88 67.97ZM196.49 68.69L196.49 68.69Q201.31 68.69 204.30 66.31Q207.29 63.94 207.29 59.33L207.29 59.33Q207.29 55.66 205.06 53.17Q202.82 50.69 197.28 49.18L197.28 49.18L192.31 47.74Q186.84 46.22 183.96 42.62Q181.08 39.02 181.08 33.84L181.08 33.84Q181.08 30.38 182.70 27.36Q184.32 24.34 187.67 22.46Q191.02 20.59 196.20 20.59L196.20 20.59Q201.96 20.59 205.49 22.72Q209.02 24.84 210.38 28.22Q211.75 31.61 211.03 35.50L211.03 35.50L204.98 36.79Q205.92 30.10 203.65 26.50Q201.38 22.90 195.84 22.90L195.84 22.90Q191.45 22.90 188.93 25.24Q186.41 27.58 186.41 32.04L186.41 32.04Q186.41 35.57 188.42 38.05Q190.44 40.54 195.55 41.98L195.55 41.98L200.52 43.42Q212.54 46.73 212.54 57.46L212.54 57.46Q212.54 61.27 210.78 64.33Q209.02 67.39 205.45 69.19Q201.89 70.99 196.49 70.99L196.49 70.99Q192.74 70.99 189.32 69.84Q185.90 68.69 183.49 65.88Q181.08 63.07 180.29 58.10L180.29 58.10L184.61 56.66Q184.97 61.42 186.70 64.01Q188.42 66.60 191.02 67.64Q193.61 68.69 196.49 68.69ZM245.88 60.98L249.70 62.06Q248.40 66.96 244.84 68.98Q241.27 70.99 236.95 70.99L236.95 70.99Q228.96 70.99 225.00 66.13Q221.04 61.27 221.04 53.14L221.04 53.14L221.04 51.70Q221.04 43.63 224.86 38.77Q228.67 33.91 235.94 33.91L235.94 33.91Q239.83 33.91 243.04 35.50Q246.24 37.08 248.15 40.18Q250.06 43.27 250.06 47.88L250.06 47.88Q250.06 50.04 249.62 52.42L249.62 52.42L227.52 52.42L227.52 54.58Q227.52 62.14 229.86 65.41Q232.20 68.69 237.46 68.69L237.46 68.69Q240.77 68.69 242.96 66.96Q245.16 65.23 245.88 60.98L245.88 60.98ZM235.94 36.22L235.94 36.22Q231.70 36.22 229.61 39.46Q227.52 42.70 227.52 50.11L227.52 50.11L243.72 50.11L243.72 49.90Q243.86 48.96 243.94 48.06Q244.01 47.16 244.01 46.44L244.01 46.44Q244.01 41.04 241.78 38.63Q239.54 36.22 235.94 36.22ZM260.78 36.94L256.82 36.58L256.82 34.63L267.91 34.63L267.91 40.39Q270.43 37.01 272.99 35.46Q275.54 33.91 278.21 33.91L278.21 33.91Q280.51 33.91 282.53 35.28Q284.54 36.65 285.91 39.67L285.91 39.67L281.23 42.48Q280.15 39.89 278.78 38.88Q277.42 37.87 275.76 37.87L275.76 37.87Q273.96 37.87 272.20 39.02Q270.43 40.18 268.27 43.34L268.27 43.34L268.27 64.44Q268.27 66.96 268.49 67.43Q268.70 67.90 269.86 67.97L269.86 67.97L275.26 68.40L275.26 70.27L256.82 70.27L256.82 68.40L260.78 67.97Q261.94 67.82 262.15 67.39Q262.37 66.96 262.37 64.44L262.37 64.44L262.37 40.46Q262.37 37.94 262.15 37.51Q261.94 37.08 260.78 36.94L260.78 36.94ZM296.86 26.57L296.86 26.57Q295.13 26.57 294.01 25.45Q292.90 24.34 292.90 22.54L292.90 22.54Q292.90 20.81 294.01 19.73Q295.13 18.65 296.86 18.65L296.86 18.65Q298.58 18.65 299.70 19.73Q300.82 20.81 300.82 22.54L300.82 22.54Q300.82 24.34 299.70 25.45Q298.58 26.57 296.86 26.57ZM292.39 36.94L288.43 36.58L288.43 34.63L299.88 34.63L299.88 64.44Q299.88 66.96 300.10 67.39Q300.31 67.82 301.46 67.97L301.46 67.97L305.42 68.40L305.42 70.27L288.43 70.27L288.43 68.40L292.39 67.97Q293.54 67.82 293.76 67.39Q293.98 66.96 293.98 64.44L293.98 64.44L293.98 40.46Q293.98 37.94 293.76 37.51Q293.54 37.08 292.39 36.94L292.39 36.94ZM322.99 67.97L328.39 68.40L328.39 70.27L309.96 70.27L309.96 68.40L313.92 67.97Q315.07 67.82 315.29 67.39Q315.50 66.96 315.50 64.44L315.50 64.44L315.50 40.46Q315.50 37.94 315.32 37.51Q315.14 37.08 313.92 36.94L313.92 36.94L309.96 36.58L309.96 34.63L315.50 34.63L315.50 29.45Q315.50 26.06 316.55 23.04Q317.59 20.02 320.18 18.14Q322.78 16.27 327.31 16.27L327.31 16.27Q333.29 16.27 336.17 19.51Q339.05 22.75 338.26 27.43L338.26 27.43L332.64 28.22Q333.29 23.26 331.96 20.92Q330.62 18.58 327.31 18.58L327.31 18.58Q325.44 18.58 324.11 19.40Q322.78 20.23 322.09 22.36Q321.41 24.48 321.41 28.44L321.41 28.44L321.41 34.63L332.86 34.63L332.86 36.94L321.41 36.94L321.41 64.44Q321.41 66.96 321.62 67.43Q321.84 67.90 322.99 67.97L322.99 67.97Z"/></svg>