<?xml version="1.0" encoding="UTF-8"?>
<svg xmlns="http://www.w3.org/2000/svg" xmlns:xlink="http://www.w3.org/1999/xlink" width="159.48000000000002" height="72.00000000000001" viewBox="0 -13.999999999999993 159.48000000000002 100" preserveAspectRatio="xMinYMid meet"><path d="M5.76 59.83L5.76 10.15L22.75 10.15Q30.67 10.15 35.32 14.72Q39.96 19.30 39.96 29.16L39.96 29.16L39.96 40.82Q39.96 50.69 35.32 55.26Q30.67 59.83 22.75 59.83L22.75 59.83L5.76 59.83ZM11.09 55.08L22.82 55.08Q34.63 55.08 34.63 41.11L34.63 41.11L34.63 29.38Q34.63 21.82 31.57 18.36Q28.51 14.90 22.82 14.90L22.82 14.90L11.09 14.90L11.09 55.08ZM66.10 59.83L66.10 10.15L83.09 10.15Q91.01 10.15 95.65 14.72Q100.30 19.30 100.30 29.16L100.30 29.16L100.30 40.82Q100.30 50.69 95.65 55.26Q91.01 59.83 83.09 59.83L83.09 59.83L66.10 59.83ZM71.42 55.08L83.16 55.08Q94.97 55.08 94.97 41.11L94.97 41.11L94.97 29.38Q94.97 21.82 91.91 18.36Q88.85 14.90 83.16 14.90L83.16 14.90L71.42 14.90L71.42 55.08ZM111.02 59.83L111.02 23.33L115.92 23.33L115.92 59.83L111.02 59.83ZM110.88 17.35L110.88 10.87L116.06 10.87L116.06 17.35L110.88 17.35ZM127.30 59.83L127.30 23.33L132.12 23.33L132.12 27.79Q133.70 25.34 136.26 24.12Q138.82 22.90 141.98 22.90L141.98 22.90Q147.82 22.90 150.95 26.32Q154.08 29.74 154.08 35.86L154.08 35.86L154.08 59.83L149.18 59.83L149.18 36.58Q149.18 32.04 146.95 29.66Q144.72 27.29 140.76 27.29L140.76 27.29Q136.87 27.29 134.53 29.70Q132.19 32.11 132.19 36.58L132.19 36.58L132.19 59.83L127.30 59.83Z"/></svg>