<?xml version="1.0" encoding="UTF-8"?>
<svg xmlns="http://www.w3.org/2000/svg" xmlns:xlink="http://www.w3.org/1999/xlink" width="242.82421875" height="41.8359375" viewBox="0 0 242.82421875 100" preserveAspectRatio="xMinYMid meet"><path d="M10.27 63.63L10.27 63.63L10.27 31.57Q10.27 27.53 3.59 27.53L3.59 27.53Q3.09 27.53 3.09 26.19Q3.09 24.86 3.59 24.86L3.59 24.86Q5.24 25.03 12.90 25.03Q20.57 25.03 22.64 24.86L22.64 24.86Q23.13 24.86 23.13 26.19Q23.13 27.53 22.64 27.53L22.64 27.53Q15.89 27.53 15.89 31.57L15.89 31.57L15.89 50.48Q15.89 75.66 13.39 79.22Q10.90 82.79 7.95 85.15Q4.99 87.50 1.16 87.50L1.16 87.50Q-0.74 87.50-2.07 86.43Q-3.41 85.36-3.41 83.25L-3.41 83.25Q-3.41 82.16-2.37 81.26Q-1.34 80.37 0.32 80.37L0.32 80.37Q2.43 80.37 3.87 81.56Q5.31 82.76 5.63 83.92L5.63 83.92Q8.09 83.07 9.18 79.91Q10.27 76.75 10.27 63.63ZM60.64 71.68L60.64 71.68Q59.66 71.79 55.85 72.65Q52.03 73.51 51.01 73.90L51.01 73.90Q50.91 73.93 50.77 73.93L50.77 73.93Q50.20 73.93 50.20 72.35L50.20 72.35L50.20 70.77Q50.20 69.93 49.80 69.93Q49.39 69.93 48.83 70.45L48.83 70.45Q45.49 73.58 40.61 73.58L40.61 73.58Q36.91 73.58 34.10 69.86Q31.29 66.13 31.29 62.19L31.29 62.19L31.29 50.41Q31.29 45.25 27.39 45.25L27.39 45.25Q26.86 45.25 26.86 44.26Q26.86 43.28 27.39 43.28L27.39 43.28Q31.08 43.28 33.35 42.96Q35.61 42.64 36.28 42.64Q36.95 42.64 36.95 43.21L36.95 43.21Q36.67 47.53 36.67 48.55L36.67 48.55L36.67 61.03Q36.67 65.07 38.06 67.62Q39.45 70.17 42.33 70.17L42.33 70.17Q45.42 70.17 47.81 68.34Q50.20 66.52 50.20 63.91L50.20 63.91L50.20 50.41Q50.20 45.25 46.30 45.25L46.30 45.25Q45.77 45.25 45.77 44.26Q45.77 43.28 46.30 43.28L46.30 43.28Q50.63 43.28 52.65 42.96Q54.67 42.64 55.09 42.64L55.09 42.64Q55.79 42.64 55.79 43.59L55.79 43.59Q55.58 46.65 55.58 48.48L55.58 48.48L55.58 64.79Q55.58 67.78 56.36 68.84Q57.13 69.89 57.80 69.89Q58.46 69.89 59.29 69.79Q60.12 69.68 60.28 69.68Q60.43 69.68 60.59 69.84Q60.75 70.00 60.84 70.45Q60.93 70.91 60.93 71.16L60.93 71.16Q60.93 71.65 60.64 71.68ZM93.09 56.07L93.09 68.31Q93.09 71.05 97.14 71.05L97.14 71.05Q97.63 71.05 97.63 72.05Q97.63 73.05 97.14 73.05L97.14 73.05Q94.43 72.77 90.56 72.77Q86.70 72.77 83.85 73.05L83.85 73.05Q83.36 73.05 83.36 72.05Q83.36 71.05 83.85 71.05L83.85 71.05Q87.71 71.05 87.71 68.31L87.71 68.31L87.71 54.14Q87.71 51.19 87.21 49.13Q86.70 47.07 85.61 46.21Q84.52 45.35 81.77 45.35L81.77 45.35Q80.30 45.35 79.10 45.95Q77.91 46.55 76.76 47.37Q75.62 48.20 74.83 49.41Q74.04 50.63 74.04 52.03L74.04 52.03L74.04 68.31Q74.04 71.05 77.80 71.05L77.80 71.05Q78.29 71.05 78.29 72.05Q78.29 73.05 77.80 73.05L77.80 73.05Q75.09 72.77 71.23 72.77Q67.36 72.77 64.62 73.05L64.62 73.05Q64.13 73.05 64.13 72.05Q64.13 71.05 64.62 71.05L64.62 71.05Q68.66 71.05 68.66 68.31L68.66 68.31L68.66 52.59Q68.66 48.09 65.71 48.09L65.71 48.09Q65.11 48.09 65.11 47.11Q65.11 46.13 65.71 46.13L65.71 46.13Q67.04 46.13 68.78 45.07Q70.52 44.02 71.82 42.87Q73.13 41.73 73.65 41.73L73.65 41.73Q74.14 41.73 74.14 42.28Q74.14 42.82 74.07 43.75Q74.00 44.68 74.00 45.40Q74.00 46.13 74.53 46.13L74.53 46.13Q74.81 46.13 75.06 45.91L75.06 45.91Q78.82 42.19 84.16 42.19L84.16 42.19Q89.37 42.19 91.93 47.36L91.93 47.36Q93.09 49.68 93.09 56.07L93.09 56.07ZM115.59 73.05L115.59 73.05Q112.92 72.77 109.02 72.77Q105.12 72.77 102.27 73.05L102.27 73.05Q101.78 73.05 101.78 72.05Q101.78 71.05 102.27 71.05L102.27 71.05Q106.24 71.05 106.24 68.31L106.24 68.31L106.24 52.70Q106.24 47.85 103.01 47.85L103.01 47.85Q102.41 47.85 102.41 46.86Q102.41 45.88 103.01 45.88L103.01 45.88Q104.17 45.88 106.44 44.68Q108.70 43.49 109.86 42.61Q111.02 41.73 111.41 41.73L111.41 41.73Q111.83 41.73 111.83 42.29L111.83 42.29Q111.62 46.09 111.62 48.13L111.62 48.13L111.62 68.31Q111.62 71.05 115.59 71.05L115.59 71.05Q116.09 71.05 116.09 72.05Q116.09 73.05 115.59 73.05ZM104.45 32.10Q104.45 30.52 105.52 29.44Q106.59 28.37 108.18 28.37Q109.76 28.37 110.88 29.44Q112.01 30.52 112.01 32.10Q112.01 33.68 110.88 34.80Q109.76 35.93 108.18 35.93Q106.59 35.93 105.52 34.80Q104.45 33.68 104.45 32.10ZM143.02 67.43L143.02 67.43Q143.40 67.25 143.88 67.97Q144.35 68.70 144.35 68.98L144.35 68.98Q144.35 69.19 144.18 69.36L144.18 69.36Q143.26 70.17 140.41 71.86Q137.57 73.55 132.57 73.58L132.57 73.58Q127.44 73.58 123.68 69.47Q119.92 65.36 119.92 58.85L119.92 58.85Q119.92 52.35 124.21 47.27Q128.50 42.19 135.28 42.19L135.28 42.19Q142.17 42.19 143.47 44.75L143.47 44.75Q143.68 45.18 143.68 46.20L143.68 46.20Q143.68 46.86 142.91 47.83Q142.14 48.80 141.54 48.80Q140.94 48.80 140.59 48.30L140.59 48.30Q137.85 44.54 134.51 44.54L134.51 44.54Q131.17 44.54 128.43 48.15Q125.68 51.75 125.65 57.30L125.65 57.30Q125.65 62.86 128.79 66.23Q131.94 69.61 135.53 69.61L135.53 69.61Q138.23 69.61 143.02 67.43ZM146.81 57.73L146.81 57.73Q146.81 51.82 151.21 47.00Q155.60 42.19 161.72 42.19L161.72 42.19Q167.84 42.19 172.09 47.00Q176.34 51.82 176.34 58.01L176.34 58.01Q176.34 64.20 172.44 68.89Q168.54 73.58 162 73.58L162 73.58Q155.46 73.58 151.14 68.61Q146.81 63.63 146.81 57.73ZM152.54 57.94L152.54 57.94Q152.54 64.20 155.41 67.73Q158.27 71.26 161.58 71.26L161.58 71.26Q164.95 71.26 167.78 67.69Q170.61 64.13 170.61 57.94L170.61 57.94Q170.61 51.75 167.80 48.02Q164.99 44.30 161.65 44.26L161.65 44.26Q158.27 44.26 155.41 47.97Q152.54 51.68 152.54 57.94ZM181.16 58.32L181.16 58.32Q181.16 51.68 185.80 46.93Q190.44 42.19 197.86 42.19L197.86 42.19Q200.32 42.19 201.87 42.68L201.87 42.68Q202.29 42.82 202.54 42.82L202.54 42.82Q203.03 42.82 203.03 41.94L203.03 41.94L203.03 31.61Q203.03 26.68 199.79 26.68L199.79 26.68Q199.20 26.68 199.20 25.72Q199.20 24.75 199.79 24.75L199.79 24.75Q200.67 24.75 203.19 23.47Q205.70 22.18 206.81 21.38Q207.91 20.57 208.28 20.57Q208.65 20.57 208.65 20.95Q208.65 21.34 208.53 23.20Q208.41 25.07 208.41 26.65L208.41 26.65L208.41 64.65Q208.41 69.89 211.29 69.89L211.29 69.89Q211.68 69.89 212.31 69.79Q212.94 69.68 213.05 69.68Q213.15 69.68 213.28 69.89Q213.40 70.10 213.49 70.52Q213.57 70.95 213.57 71.31Q213.57 71.68 213.35 71.68Q213.12 71.68 211.54 71.98Q209.95 72.28 206.93 73.00Q203.91 73.72 203.63 73.93L203.63 73.93Q203.03 73.93 203.03 72.21L203.03 72.21L203.03 70.77Q203.03 69.96 202.62 69.96Q202.22 69.96 201.66 70.45L201.66 70.45Q198.35 73.58 194.77 73.58L194.77 73.58Q187.84 73.58 184.50 69.28Q181.16 64.97 181.16 58.32ZM203.03 65.78L203.03 65.78L203.03 49.29Q203.03 46.65 202.25 45.98L202.25 45.98Q200.18 44.26 197.05 44.26L197.05 44.26Q192.34 44.26 189.62 48.18Q186.89 52.10 186.89 57.30L186.89 57.30Q186.89 62.51 189.81 66.34Q192.73 70.17 196.56 70.17L196.56 70.17Q199.30 70.17 201.16 68.73Q203.03 67.29 203.03 65.78ZM216.35 57.62L216.35 57.62Q216.35 51.36 220.34 46.78Q224.33 42.19 229.29 42.19L229.29 42.19Q234.25 42.19 237.30 45.63Q240.36 49.08 240.36 51.26Q240.36 53.44 238.57 53.47L238.57 53.47L222.79 53.47Q221.73 53.47 221.73 55.79L221.73 55.79Q221.73 61.42 224.42 65.44Q227.11 69.47 231.86 69.47L231.86 69.47Q235.41 69.47 238.92 67.36L238.92 67.36Q239.10 67.25 239.31 67.25L239.31 67.25Q239.73 67.25 240.05 67.64L240.05 67.64Q240.29 67.89 240.29 68.38L240.29 68.38Q240.29 68.55 240.15 68.66L240.15 68.66Q234.60 73.58 229.22 73.58L229.22 73.58Q223.84 73.58 220.10 68.73Q216.35 63.88 216.35 57.62ZM222.54 50.63L222.54 50.63Q222.54 51.12 223.38 51.12L223.38 51.12L234.67 51.12Q235.20 51.12 235.20 50.52L235.20 50.52Q235.20 48.97 233.28 46.62Q231.36 44.26 229.29 44.26L229.29 44.26Q227.00 44.26 225.33 45.79Q223.66 47.32 222.64 50.10L222.64 50.10Q222.54 50.38 222.54 50.63Z"/></svg>