<?xml version="1.0" encoding="UTF-8"?>
<svg xmlns="http://www.w3.org/2000/svg" xmlns:xlink="http://www.w3.org/1999/xlink" width="419.688" height="98.71200000000002" viewBox="0 -0.6439999999999912 419.688 100" preserveAspectRatio="xMinYMid meet"><path d="M35.28 26.71L35.28 32.98L20.95 32.98L20.95 78.41L15.19 78.41L15.19 32.98L0.79 32.98L0.79 26.71L35.28 26.71ZM61.13 61.63L61.13 61.63L38.59 61.63Q39.02 73.94 47.38 73.94L47.38 73.94Q50.54 73.94 52.85 71.86Q55.15 69.77 55.51 66.60L55.51 66.60L60.70 66.60Q59.69 72.72 56.12 76.10Q52.56 79.49 47.23 79.49L47.23 79.49Q40.68 79.49 36.86 74.34Q33.05 69.19 33.05 60.26L33.05 60.26Q33.05 50.83 37.01 45.25Q40.97 39.67 47.66 39.67L47.66 39.67Q53.93 39.67 57.35 44.82Q60.77 49.97 61.13 61.63ZM38.59 56.59L55.73 56.59Q54.94 45.29 47.45 45.29L47.45 45.29Q43.70 45.29 41.26 48.42Q38.81 51.55 38.59 56.59L38.59 56.59ZM86.90 51.91L101.74 78.41L94.68 78.41L83.30 57.17L71.57 78.41L64.66 78.41L79.78 51.91L65.59 26.71L72.79 26.71L83.52 46.51L94.25 26.71L101.09 26.71L86.90 51.91ZM160.85 50.76L160.85 78.41L157.10 78.41L155.81 71.71Q150.26 79.78 141.48 79.78L141.48 79.78Q132.55 79.78 127.33 72.07Q122.11 64.37 122.11 53.21L122.11 53.21Q122.11 40.75 127.66 33.05Q133.20 25.34 142.13 25.34L142.13 25.34Q149.18 25.34 154.08 29.88Q158.98 34.42 160.13 42.41L160.13 42.41L154.58 42.41Q151.99 31.61 142.20 31.61L142.20 31.61Q135.65 31.61 131.83 37.37Q128.02 43.13 128.02 52.99L128.02 52.99Q128.02 63.14 131.69 68.47Q135.36 73.80 142.34 73.80L142.34 73.80Q148.18 73.80 151.81 69.55Q155.45 65.30 155.45 56.74L155.45 56.74L142.27 56.74L142.27 50.76L160.85 50.76ZM188.35 40.75L194.11 40.75L182.95 77.69Q181.08 83.74 180.07 86.54Q179.06 89.35 177.70 91.22Q176.33 93.10 175.03 93.46Q173.74 93.82 171.22 93.82L171.22 93.82Q170.28 93.82 169.13 93.38L169.13 93.38L168.70 93.24L168.70 87.48Q170.21 88.13 171.86 88.13Q173.52 88.13 174.28 87.19Q175.03 86.26 176.04 83.30L176.04 83.30L177.34 79.42L165.89 40.75L171.72 40.75L180 71.64L188.35 40.75ZM214.34 39.89L214.34 46.37L212.40 46.37Q208.94 46.37 206.71 49.21Q204.48 52.06 204.48 56.45L204.48 56.45L204.48 78.41L199.30 78.41L199.30 40.75L204.19 40.75L204.19 47.16Q206.28 43.13 208.30 41.40Q210.31 39.67 212.98 39.67L212.98 39.67Q213.62 39.67 214.34 39.89L214.34 39.89ZM244.15 61.63L244.15 61.63L221.62 61.63Q222.05 73.94 230.40 73.94L230.40 73.94Q233.57 73.94 235.87 71.86Q238.18 69.77 238.54 66.60L238.54 66.60L243.72 66.60Q242.71 72.72 239.15 76.10Q235.58 79.49 230.26 79.49L230.26 79.49Q223.70 79.49 219.89 74.34Q216.07 69.19 216.07 60.26L216.07 60.26Q216.07 50.83 220.03 45.25Q223.99 39.67 230.69 39.67L230.69 39.67Q236.95 39.67 240.37 44.82Q243.79 49.97 244.15 61.63ZM221.62 56.59L238.75 56.59Q237.96 45.29 230.47 45.29L230.47 45.29Q226.73 45.29 224.28 48.42Q221.83 51.55 221.62 56.59L221.62 56.59ZM301.10 26.71L301.10 78.41L295.34 78.41L295.34 54.36L273.24 54.36L273.24 78.41L267.48 78.41L267.48 26.71L273.24 26.71L273.24 48.10L295.34 48.10L295.34 26.71L301.10 26.71ZM336.02 61.63L336.02 61.63L313.49 61.63Q313.92 73.94 322.27 73.94L322.27 73.94Q325.44 73.94 327.74 71.86Q330.05 69.77 330.41 66.60L330.41 66.60L335.59 66.60Q334.58 72.72 331.02 76.10Q327.46 79.49 322.13 79.49L322.13 79.49Q315.58 79.49 311.76 74.34Q307.94 69.19 307.94 60.26L307.94 60.26Q307.94 50.83 311.90 45.25Q315.86 39.67 322.56 39.67L322.56 39.67Q328.82 39.67 332.24 44.82Q335.66 49.97 336.02 61.63ZM313.49 56.59L330.62 56.59Q329.83 45.29 322.34 45.29L322.34 45.29Q318.60 45.29 316.15 48.42Q313.70 51.55 313.49 56.59L313.49 56.59ZM357.98 39.89L357.98 46.37L356.04 46.37Q352.58 46.37 350.35 49.21Q348.12 52.06 348.12 56.45L348.12 56.45L348.12 78.41L342.94 78.41L342.94 40.75L347.83 40.75L347.83 47.16Q349.92 43.13 351.94 41.40Q353.95 39.67 356.62 39.67L356.62 39.67Q357.26 39.67 357.98 39.89L357.98 39.89ZM388.08 59.54L388.08 59.54Q388.08 68.33 384.08 73.87Q380.09 79.42 373.75 79.42Q367.42 79.42 363.42 73.87Q359.42 68.33 359.42 59.54L359.42 59.54Q359.42 50.62 363.42 45.14Q367.42 39.67 373.97 39.67L373.97 39.67Q380.16 39.67 384.12 45.25Q388.08 50.83 388.08 59.54ZM382.68 59.54L382.68 59.54Q382.68 53.06 380.27 49.14Q377.86 45.22 373.90 45.22L373.90 45.22Q369.72 45.22 367.27 49.07Q364.82 52.92 364.82 59.54L364.82 59.54Q364.82 66.10 367.27 69.98Q369.72 73.87 373.75 73.87Q377.78 73.87 380.23 69.98Q382.68 66.10 382.68 59.54ZM417.53 67.10L417.53 67.10Q417.53 72.79 414.07 76.14Q410.62 79.49 404.71 79.49L404.71 79.49Q398.66 79.49 395.53 76.32Q392.40 73.15 392.04 66.31L392.04 66.31L397.08 66.31Q397.37 70.34 399.24 72.14Q401.11 73.94 405.07 73.94L405.07 73.94Q408.46 73.94 410.40 72.36Q412.34 70.78 412.34 68.04L412.34 68.04Q412.34 65.95 411.08 64.84Q409.82 63.72 406.22 62.64L406.22 62.64L400.18 60.84Q393.05 58.68 393.05 51.55L393.05 51.55Q393.05 46.15 396.29 42.91Q399.53 39.67 404.86 39.67L404.86 39.67Q410.11 39.67 413.14 42.73Q416.16 45.79 416.52 51.48L416.52 51.48L411.48 51.48Q411.19 45.22 404.50 45.22L404.50 45.22Q401.54 45.22 399.82 46.66Q398.09 48.10 398.09 50.54L398.09 50.54Q398.09 52.56 399.17 53.53Q400.25 54.50 403.63 55.51L403.63 55.51L408.89 57.10Q413.57 58.46 415.55 60.80Q417.53 63.14 417.53 67.10Z"/></svg>