<?xml version="1.0" encoding="UTF-8"?>
<svg xmlns="http://www.w3.org/2000/svg" xmlns:xlink="http://www.w3.org/1999/xlink" width="268.06640625" height="86.73046875" viewBox="0 -6.634765625 268.06640625 100" preserveAspectRatio="xMinYMid meet"><path d="M1.76 62.93L1.76 62.93Q1.93 62.12 2.44 62.05Q2.95 61.98 5.55 61.98L5.55 61.98Q9.07 61.84 9.97 60.66Q10.86 59.48 10.86 54.88L10.86 54.88L10.86 27.49Q10.86 22.89 9.97 21.55Q9.07 20.21 5.27 20.21L5.27 20.21Q5.13 20.21 4.94 20.21Q4.75 20.21 4.61 20.21Q4.46 20.21 4.29 20.21Q4.11 20.21 4.01 20.18Q3.90 20.14 3.74 20.07Q3.59 20.00 3.45 19.86Q3.30 19.72 3.23 19.58L3.23 19.58Q3.02 19.16 3.52 18.07L3.52 18.07Q3.73 17.72 4.75 17.72L4.75 17.72Q16.52 17.65 24.56 17.65Q32.59 17.65 36.88 17.72L36.88 17.72Q38.25 17.72 38.21 18.42L38.21 18.42Q38.50 20.74 38.62 22.68Q38.74 24.61 38.78 26.16Q38.81 27.70 38.88 28.30L38.88 28.30Q38.74 29.00 37.16 28.51L37.16 28.51Q36.67 28.44 36.63 27.70L36.63 27.70Q35.93 23.31 34.63 22.20Q33.33 21.09 28.86 21.02L28.86 21.02Q24.71 20.88 22.08 20.88L22.08 20.88Q20.32 20.88 19.23 20.95L19.23 20.95Q18.81 20.95 18.33 21.53Q17.86 22.11 17.86 22.54L17.86 22.54L17.86 37.09Q17.86 37.65 18.18 38.13Q18.49 38.60 18.88 38.60L18.88 38.60L27.35 38.60Q31.61 38.60 32.54 37.88Q33.47 37.16 34.00 33.26L34.00 33.26Q34.14 32.77 35.58 32.91L35.58 32.91Q35.93 32.98 36.14 34.00L36.14 34.00Q36.21 35.40 36.21 37.72L36.21 37.72Q36.21 41.20 36.07 46.79L36.07 46.79Q36.07 47.74 35.19 47.81L35.19 47.81Q33.96 47.95 33.93 47.46L33.93 47.46Q33.36 43.73 32.38 42.96Q31.39 42.19 27.14 42.12L27.14 42.12L18.88 42.05Q17.86 42.33 17.86 43.21L17.86 43.21L17.86 55.30Q17.86 59.48 18.62 60.31Q19.37 61.14 23.27 61.14L23.27 61.14L29.00 61.14Q33.05 61.14 34.45 60.80Q35.86 60.47 36.81 59.41L36.81 59.41Q38.53 57.34 39.45 53.58L39.45 53.58Q39.59 52.95 40.18 52.77L40.18 52.77Q41.48 52.63 41.70 53.05L41.70 53.05Q41.70 55.37 41.48 57.43Q41.27 59.48 41.01 61.38Q40.75 63.28 40.68 63.63L40.68 63.63Q40.54 64.65 37.79 64.65L37.79 64.65Q12.16 64.65 2.67 64.72L2.67 64.72Q1.97 64.58 1.79 64.23L1.79 64.23Q1.69 63.95 1.69 63.60L1.69 63.60Q1.69 63.28 1.76 62.93ZM47.00 28.86L47.00 28.86Q47.29 22.96 48.13 16.49L48.13 16.49Q48.62 16.07 49.25 16.07L49.25 16.07Q49.36 16.07 49.43 16.07L49.43 16.07Q50.17 16.14 50.31 16.49L50.31 16.49Q50.87 17.72 54.35 17.72L54.35 17.72Q59.55 17.61 66.97 17.61Q74.39 17.61 83.99 17.72L83.99 17.72Q84.62 17.75 85.15 17.75L85.15 17.75Q86.73 17.75 87.22 17.58L87.22 17.58Q87.86 17.37 88.17 16.49L88.17 16.49Q88.38 16.14 89.17 16.21Q89.96 16.28 90.35 16.49L90.35 16.49L91.48 28.93Q91.48 29.07 91.44 29.23Q91.41 29.39 91.30 29.46Q91.20 29.53 91.09 29.57Q90.98 29.60 90.84 29.64Q90.70 29.67 90.56 29.67L90.56 29.67Q90.14 29.67 89.88 29.64Q89.61 29.60 89.47 29.37Q89.33 29.14 89.30 29.04Q89.26 28.93 89.19 28.58L89.19 28.58Q88.31 24.12 87.28 22.64Q86.24 21.16 84.27 21.16L84.27 21.16L73.76 21.16Q73.41 21.16 73.09 21.64Q72.77 22.11 72.77 22.46L72.77 22.46Q72.77 26.05 72.77 32.06Q72.77 38.07 72.77 45.28Q72.77 52.49 72.77 54.88L72.77 54.88L72.77 57.38Q72.77 60.19 73.88 61.01Q74.99 61.84 78.22 61.84L78.22 61.84L80.33 61.84Q80.96 61.84 81.35 62.79L81.35 62.79Q81.56 63.42 81.35 64.16L81.35 64.16Q81.14 64.72 80.19 64.72L80.19 64.72Q76.61 64.58 71.86 64.58L71.86 64.58Q65.92 64.58 58.15 64.79L58.15 64.79Q57.45 64.79 57.27 64.30L57.27 64.30Q56.99 63.42 57.27 62.58L57.27 62.58Q57.55 62.09 58.22 61.91L58.22 61.91Q60.54 61.91 60.96 61.98L60.96 61.98Q63.70 61.98 64.71 60.87Q65.71 59.77 65.71 56.88L65.71 56.88L65.71 54.88L65.71 22.32Q65.71 21.97 65.13 21.57Q64.55 21.16 64.05 21.16L64.05 21.16L55.76 21.16L54.25 21.16Q52.24 21.16 51.17 22.78Q50.10 24.40 49.15 29.32L49.15 29.32Q48.80 29.53 48.29 29.57Q47.78 29.60 47.39 29.41Q47.00 29.21 47.00 28.86ZM113.24 64.79Q112.68 64.72 112.68 63.54Q112.68 62.37 113.17 62.19L113.17 62.19Q114.54 61.98 114.89 62.12L114.89 62.12Q119.57 62.12 120.66 61.01Q121.75 59.91 121.75 54.95L121.75 54.95L121.75 27.42Q121.75 22.15 120.81 21.11Q119.88 20.07 115.49 20.07L115.49 20.07L113.84 20.07Q113.27 20.07 113.33 18.90Q113.38 17.72 113.84 17.65L113.84 17.65L114.47 17.58Q119.88 17.02 135 16.98L135 16.98Q139.46 16.98 141.49 17.38Q143.51 17.79 146.21 19.02L146.21 19.02Q149.10 20.39 150.80 22.87Q152.51 25.35 152.51 28.30L152.51 28.30Q152.51 31.39 150.63 33.84Q148.75 36.28 145.58 37.44L145.58 37.44Q145.02 37.65 145.72 38.00L145.72 38.00L147.16 38.74Q155.29 42.68 155.29 50.17L155.29 50.17Q155.29 55.13 152.12 59.13Q148.96 63.14 144.28 64.09L144.28 64.09Q140.45 64.83 136.27 64.83L136.27 64.83Q135.42 64.83 134.58 64.79L134.58 64.79Q128.88 64.69 123.54 64.69Q118.20 64.69 113.24 64.79L113.24 64.79ZM128.74 40.75L128.74 51.86Q128.74 55.69 129.09 57.59L129.09 57.59Q129.90 61.84 136.93 61.84L136.93 61.84Q141.61 61.84 144.60 58.61Q147.59 55.37 147.59 50.63L147.59 50.63Q147.59 47.60 146.11 45Q144.63 42.40 142.07 40.89L142.07 40.89Q140.98 40.25 139.85 39.85Q138.73 39.45 137.39 39.34L137.39 39.34Q136.13 39.23 135.28 39.20L135.28 39.20Q134.86 39.20 134.23 39.20Q133.59 39.20 132.75 39.20L132.75 39.20Q131.06 39.23 130.32 39.23L130.32 39.23Q128.74 39.52 128.74 40.75L128.74 40.75ZM128.74 20.67L128.74 35.37Q128.74 35.86 128.95 36.21Q129.16 36.56 129.34 36.69Q129.52 36.81 129.59 36.81L129.59 36.81Q130.08 36.81 131.77 36.88L131.77 36.88Q132.61 36.88 133.24 36.88Q133.88 36.88 134.30 36.88L134.30 36.88Q135.21 36.84 136.62 36.74Q138.02 36.63 139.13 36.39Q140.24 36.14 141.19 35.72L141.19 35.72Q145.02 34.14 145.02 28.72L145.02 28.72Q145.02 24.12 141.82 21.38L141.82 21.38Q139.50 19.51 136.02 19.16L136.02 19.16Q134.58 19.02 133.24 19.02L133.24 19.02Q131.38 19.02 129.73 19.30L129.73 19.30Q129.45 19.37 129.09 19.79Q128.74 20.21 128.74 20.67L128.74 20.67ZM160.17 49.61L160.17 49.61Q160.17 42.68 164.81 38.11Q169.45 33.54 176.38 33.54L176.38 33.54Q183.38 33.54 188.12 38.18L188.12 38.18Q192.80 42.75 192.80 49.46L192.80 49.46Q192.80 49.57 192.80 49.68L192.80 49.68Q192.80 56.36 188.12 60.98Q183.45 65.60 176.59 65.60L176.59 65.60Q169.59 65.60 164.88 61.03Q160.17 56.46 160.17 49.61ZM166.43 47.32L166.43 47.32Q166.43 53.86 169.68 58.39Q172.93 62.93 177.47 62.93L177.47 62.93Q181.30 62.93 183.85 59.68Q186.40 56.43 186.40 51.40L186.40 51.40Q186.40 45.14 183.11 40.64Q179.82 36.14 175.36 36.14L175.36 36.14Q171.53 36.14 168.98 39.30Q166.43 42.47 166.43 47.32ZM196.38 49.61L196.38 49.61Q196.38 42.68 201.02 38.11Q205.66 33.54 212.59 33.54L212.59 33.54Q219.59 33.54 224.33 38.18L224.33 38.18Q229.01 42.75 229.01 49.46L229.01 49.46Q229.01 49.57 229.01 49.68L229.01 49.68Q229.01 56.36 224.33 60.98Q219.66 65.60 212.80 65.60L212.80 65.60Q205.80 65.60 201.09 61.03Q196.38 56.46 196.38 49.61ZM202.64 47.32L202.64 47.32Q202.64 53.86 205.89 58.39Q209.14 62.93 213.68 62.93L213.68 62.93Q217.51 62.93 220.06 59.68Q222.61 56.43 222.61 51.40L222.61 51.40Q222.61 45.14 219.32 40.64Q216.04 36.14 211.57 36.14L211.57 36.14Q207.74 36.14 205.19 39.30Q202.64 42.47 202.64 47.32ZM232.31 17.44Q231.89 17.30 231.89 16.45Q231.89 15.61 232.31 15.47L232.31 15.47Q234.39 14.98 236.92 13.94Q239.45 12.90 240.75 12.52L240.75 12.52Q241.07 12.45 241.31 12.45L241.31 12.45Q242.33 12.45 242.33 13.75L242.33 13.75L242.40 44.44Q242.40 45.53 243.84 44.65L243.84 44.65L251.47 39.09Q253.34 37.72 253.34 37.37L253.34 37.37Q253.34 36.49 250.10 36.49L250.10 36.49Q249.22 36.07 249.29 35.19L249.29 35.19Q249.36 34.63 249.56 34.42Q249.75 34.21 250.31 34.21L250.31 34.21Q252.21 34.24 254.32 34.24L254.32 34.24Q258.57 34.24 263.71 34.14L263.71 34.14Q264.41 34.14 264.41 35.30L264.41 35.30Q264.41 36.53 263.99 36.49L263.99 36.49Q259.31 36.56 255.13 39.83L255.13 39.83Q250.10 43.56 247.50 45.35L247.50 45.35Q247.01 45.84 247.78 46.65L247.78 46.65Q256.43 55.58 260.82 59.98L260.82 59.98Q262.27 61.42 263.16 61.93Q264.06 62.44 265.78 62.44L265.78 62.44L266.52 62.44Q266.87 62.58 266.98 63.14L266.98 63.14Q267.01 63.39 267.01 63.60L267.01 63.60Q267.01 63.95 266.94 64.23L266.94 64.23Q266.80 64.72 266.52 64.72L266.52 64.72Q263.29 64.55 259.38 64.55Q255.48 64.55 250.88 64.72L250.88 64.72Q250.31 64.72 250.31 63.49L250.31 63.49Q250.31 62.79 250.49 62.61Q250.66 62.44 251.40 62.44L251.40 62.44Q253.90 62.44 253.90 61.45L253.90 61.45Q253.90 61.00 252.25 59.17L252.25 59.17L242.96 49.32Q242.54 49.04 242.47 49.75L242.47 49.75Q242.40 50.03 242.40 50.48L242.40 50.48L242.40 55.58Q242.40 60.61 242.89 61.49Q243.39 62.37 246.27 62.37L246.27 62.37L247.15 62.37Q247.71 62.37 247.71 63.56L247.71 63.56Q247.71 64.09 247.57 64.44L247.57 64.44Q247.46 64.76 247.22 64.72L247.22 64.72Q247.18 64.72 247.15 64.72L247.15 64.72Q243.28 64.65 239.61 64.65Q235.93 64.65 232.45 64.72L232.45 64.72Q231.96 64.72 231.96 63.56L231.96 63.56Q231.89 62.75 232.07 62.53Q232.24 62.30 233.02 62.30L233.02 62.30Q235.62 62.30 236.16 61.17Q236.71 60.05 236.71 55.02L236.71 55.02L236.71 23.24Q236.71 20.78 236.64 19.44L236.64 19.44Q236.57 18.35 234.18 17.86L234.18 17.86Q233.96 17.79 233.79 17.75Q233.61 17.72 233.44 17.68Q233.26 17.65 233.07 17.61Q232.88 17.58 232.77 17.54Q232.66 17.51 232.56 17.47Q232.45 17.44 232.38 17.44L232.38 17.44L232.31 17.44Z"/></svg>