<?xml version="1.0" encoding="UTF-8"?>
<svg xmlns="http://www.w3.org/2000/svg" xmlns:xlink="http://www.w3.org/1999/xlink" width="390.8671875" height="93.5859375" viewBox="0 -3.20703125 390.8671875 100" preserveAspectRatio="xMinYMid meet"><path d="M25.38 68.77L25.38 68.77Q20.74 68.77 16.70 66.94Q12.66 65.11 9.60 61.95Q6.54 58.78 4.82 54.60Q3.09 50.41 3.09 45.70L3.09 45.70Q3.09 40.71 4.85 36.32Q6.61 31.92 9.77 28.58Q12.94 25.24 17.12 23.34Q21.30 21.45 26.16 21.45L26.16 21.45Q30.30 21.45 34.59 21.87Q38.88 22.29 43.24 23.20L43.24 23.20L43.10 33.33Q43.10 34.38 41.63 34.38L41.63 34.38Q40.92 34.38 40.71 34.03L40.71 34.03Q40.50 33.12 40.18 32.17Q39.87 31.22 38.88 29.67L38.88 29.67Q37.20 27.21 34.07 25.80Q30.94 24.40 26.37 24.40L26.37 24.40Q22.92 24.40 19.90 26.05Q16.88 27.70 14.59 30.52Q12.30 33.33 11.04 36.88Q9.77 40.43 9.77 44.23L9.77 44.23Q9.77 50.06 11.74 54.70L11.74 54.70Q13.71 59.48 17.96 62.61Q22.22 65.74 28.05 65.74L28.05 65.74Q35.02 65.74 38.81 61.66L38.81 61.66Q39.94 60.47 40.57 58.85Q41.20 57.23 41.55 56.04Q41.91 54.84 42.26 54.84L42.26 54.84Q42.68 54.84 43.28 54.95Q43.88 55.05 44.23 55.27L44.23 55.27L44.58 55.48Q44.58 55.90 44.30 57.45Q44.02 58.99 43.59 60.86Q43.17 62.72 42.79 64.13Q42.40 65.53 42.19 65.67L42.19 65.67Q36.98 68.77 25.38 68.77ZM56.39 68.20L48.73 68.55Q48.45 68.27 48.45 67.36L48.45 67.36Q48.45 66.52 48.73 66.52L48.73 66.52Q49.29 66.52 50.27 66.30Q51.26 66.09 52.10 65.74Q52.95 65.39 53.02 65.11L53.02 65.11Q53.30 64.13 53.40 62.86Q53.51 61.59 53.51 60.19L53.51 60.19L53.51 46.90Q53.51 44.23 52.52 43.10L52.52 43.10Q51.82 42.26 50.87 41.98Q49.92 41.70 49.18 41.66Q48.45 41.63 48.45 41.48L48.45 41.48Q48.45 39.80 48.87 39.73L48.87 39.73Q56.53 38.53 57.73 38.18L57.73 38.18L58.92 37.83Q59.20 37.76 59.27 38.39Q59.34 39.02 59.27 39.30L59.27 39.30L58.85 42.82Q60.12 40.92 62.33 39.27Q64.55 37.62 66.73 37.62L66.73 37.62Q70.80 37.62 72.21 39.66L72.21 39.66Q72.21 42.12 71.44 43.24Q70.66 44.37 69.54 44.37L69.54 44.37Q68.27 44.37 67.22 43.17L67.22 43.17Q66.16 41.98 64.34 41.98L64.34 41.98Q62.93 41.98 61.66 42.93Q60.40 43.88 59.66 45.32Q58.92 46.76 58.92 48.30L58.92 48.30L58.92 58.85Q58.92 60.89 59.06 62.44Q59.20 63.98 59.48 65.11L59.48 65.11Q59.63 65.39 60.47 65.74Q61.31 66.09 62.33 66.30Q63.35 66.52 63.77 66.52L63.77 66.52Q63.98 66.52 64.05 67.36Q64.13 68.20 63.98 68.55L63.98 68.55L56.39 68.20ZM83.04 68.20L75.38 68.55Q75.09 68.27 75.09 67.36L75.09 67.36Q75.09 66.52 75.38 66.52L75.38 66.52Q75.94 66.52 76.92 66.30Q77.91 66.09 78.75 65.74Q79.59 65.39 79.66 65.11L79.66 65.11Q79.95 64.13 80.05 62.86Q80.16 61.59 80.16 60.19L80.16 60.19L80.16 46.90Q80.16 44.23 79.17 43.10L79.17 43.10Q78.47 42.19 77.48 41.94Q76.50 41.70 75.80 41.66Q75.09 41.63 75.09 41.48L75.09 41.48Q75.09 39.80 75.52 39.73L75.52 39.73Q79.24 39.16 81.21 38.78Q83.18 38.39 84.73 38.04L84.73 38.04L85.57 37.83Q85.85 37.76 85.92 38.39Q85.99 39.02 85.92 39.30L85.92 39.30Q85.78 40.71 85.68 41.98Q85.57 43.24 85.57 44.37L85.57 44.37L85.57 58.85Q85.57 60.89 85.71 62.44Q85.85 63.98 86.13 65.11L86.13 65.11Q86.27 65.39 87.12 65.74Q87.96 66.09 88.95 66.30Q89.93 66.52 90.35 66.52L90.35 66.52Q90.56 66.52 90.63 67.36Q90.70 68.20 90.56 68.55L90.56 68.55L83.04 68.20ZM82.34 30.16L82.34 30.16Q80.93 30.16 79.88 29.11Q78.82 28.05 78.82 26.65L78.82 26.65Q78.82 25.17 79.88 24.15Q80.93 23.13 82.34 23.13L82.34 23.13Q83.81 23.13 84.83 24.15Q85.85 25.17 85.85 26.65L85.85 26.65Q85.85 28.05 84.83 29.11Q83.81 30.16 82.34 30.16ZM102.52 68.20L94.85 68.55Q94.57 68.27 94.57 67.36L94.57 67.36Q94.57 66.52 94.85 66.52L94.85 66.52Q95.41 66.52 96.40 66.30Q97.38 66.09 98.23 65.74Q99.07 65.39 99.14 65.11L99.14 65.11Q99.42 64.13 99.53 62.86Q99.63 61.59 99.63 60.19L99.63 60.19L99.63 46.90Q99.63 44.23 98.65 43.10L98.65 43.10Q97.95 42.26 97.00 41.98Q96.05 41.70 95.31 41.66Q94.57 41.63 94.57 41.48L94.57 41.48Q94.57 39.80 94.99 39.73L94.99 39.73Q98.72 39.16 100.86 38.74Q103.01 38.32 104.13 38.04L104.13 38.04L105.05 37.83Q105.33 37.76 105.40 38.36Q105.47 38.95 105.40 39.30L105.40 39.30Q105.26 40.29 105.19 40.99Q105.12 41.70 105.12 42.12L105.12 42.12Q105.12 42.40 105.26 42.40L105.26 42.40Q105.33 42.40 105.47 42.26L105.47 42.26Q107.09 40.57 109.86 39.06Q112.64 37.55 115.17 37.55L115.17 37.55Q117.98 37.55 119.85 39.06Q121.71 40.57 122.41 42.54L122.41 42.54Q127.76 37.55 133.31 37.55L133.31 37.55Q142.17 37.55 142.17 51.05L142.17 51.05L142.17 58.85Q142.17 60.89 142.31 62.44Q142.45 63.98 142.73 65.11L142.73 65.11Q142.88 65.39 143.72 65.74Q144.56 66.09 145.55 66.30Q146.53 66.52 146.95 66.52L146.95 66.52Q147.16 66.52 147.23 67.36Q147.30 68.20 147.16 68.55L147.16 68.55L139.64 68.20L131.98 68.55Q131.70 68.27 131.70 67.36L131.70 67.36Q131.70 66.52 131.98 66.52L131.98 66.52Q132.54 66.52 133.52 66.30Q134.51 66.09 135.35 65.74Q136.20 65.39 136.27 65.11L136.27 65.11Q136.55 64.13 136.65 62.96Q136.76 61.80 136.76 60.61L136.76 60.61L136.76 52.66Q136.76 41.84 129.66 41.84L129.66 41.84Q127.97 41.84 126.49 42.57Q125.02 43.31 124.14 44.23Q123.26 45.14 123.26 45.84L123.26 45.84Q123.47 47.18 123.54 48.55Q123.61 49.92 123.61 51.54L123.61 51.54L123.61 59.48Q123.61 61.24 123.75 62.61Q123.89 63.98 124.17 65.11L124.17 65.11Q124.31 65.39 125.16 65.74Q126 66.09 126.98 66.30Q127.97 66.52 128.39 66.52L128.39 66.52Q128.60 66.52 128.67 67.36Q128.74 68.20 128.60 68.55L128.60 68.55L121.08 68.20L113.41 68.55Q113.13 68.27 113.13 67.36L113.13 67.36Q113.13 66.52 113.41 66.52L113.41 66.52Q113.98 66.52 114.96 66.30Q115.95 66.09 116.79 65.74Q117.63 65.39 117.70 65.11L117.70 65.11Q117.98 64.13 118.09 62.86Q118.20 61.59 118.20 60.19L118.20 60.19L118.20 53.02Q118.20 41.84 111.45 41.84L111.45 41.84Q110.04 41.84 108.56 42.57Q107.09 43.31 106.07 44.40Q105.05 45.49 105.05 46.48L105.05 46.48L105.05 58.85Q105.05 60.89 105.19 62.44Q105.33 63.98 105.61 65.11L105.61 65.11Q105.75 65.39 106.59 65.74Q107.44 66.09 108.42 66.30Q109.41 66.52 109.83 66.52L109.83 66.52Q110.04 66.52 110.11 67.36Q110.18 68.20 110.04 68.55L110.04 68.55L102.52 68.20ZM161.23 69.12L161.23 69.12Q159.05 69.12 157.29 68.63Q155.53 68.13 153 67.78L153 67.78Q152.72 67.01 152.44 65.67Q152.16 64.34 151.98 62.86Q151.80 61.38 151.80 60.47L151.80 60.47Q152.37 60.05 152.65 60.05L152.65 60.05Q153.70 60.05 153.77 60.47L153.77 60.47Q154.05 61.88 155.18 63.28Q156.30 64.69 157.92 65.64Q159.54 66.59 161.23 66.59L161.23 66.59Q163.48 66.59 164.92 65.36Q166.36 64.13 166.36 61.80L166.36 61.80Q166.36 59.34 164.46 57.73L164.46 57.73Q162.98 56.53 161.96 56.00Q160.95 55.48 160.00 55.02Q159.05 54.56 157.64 53.72L157.64 53.72Q152.16 50.55 152.16 46.20L152.16 46.20Q152.16 43.66 153.56 41.73Q154.97 39.80 157.32 38.71Q159.68 37.62 162.35 37.62L162.35 37.62Q163.13 37.62 164.11 37.72Q165.09 37.83 166.29 37.97L166.29 37.97Q167.48 38.18 168.26 38.32Q169.03 38.46 169.52 38.53L169.52 38.53Q170.30 41.77 170.37 45.70L170.37 45.70Q170.37 46.05 169.45 46.05L169.45 46.05Q168.47 46.05 168.40 45.56L168.40 45.56Q168.05 43.59 166.39 41.84Q164.74 40.08 162.63 40.08L162.63 40.08Q157.57 40.08 157.57 44.23L157.57 44.23Q157.57 45.28 157.82 46.09Q158.06 46.90 158.98 47.60L158.98 47.60Q161.16 49.29 164.14 50.98Q167.13 52.66 169.10 54.14L169.10 54.14Q172.05 56.39 172.05 59.41L172.05 59.41Q172.05 62.16 170.58 64.37Q169.10 66.59 166.64 67.85Q164.18 69.12 161.23 69.12ZM192.16 68.84L192.16 68.84Q187.95 68.84 184.43 66.73Q180.91 64.62 178.84 61.03Q176.77 57.45 176.77 53.16L176.77 53.16Q176.77 48.80 178.77 45.28Q180.77 41.77 184.22 39.69Q187.66 37.62 192.02 37.62L192.02 37.62Q196.24 37.62 199.72 39.73Q203.20 41.84 205.28 45.35Q207.35 48.87 207.35 53.16L207.35 53.16Q207.35 57.45 205.31 61.03Q203.27 64.62 199.86 66.73Q196.45 68.84 192.16 68.84ZM192.80 66.09L192.80 66.09Q195.33 66.09 197.23 64.48Q199.13 62.86 200.21 60.12Q201.30 57.38 201.30 54.14L201.30 54.14Q201.30 50.34 199.90 47.21Q198.49 44.09 196.21 42.22Q193.92 40.36 191.25 40.36L191.25 40.36Q188.79 40.36 186.86 41.94Q184.92 43.52 183.87 46.16Q182.81 48.80 182.81 52.10L182.81 52.10Q182.81 55.90 184.18 59.10Q185.55 62.30 187.84 64.20Q190.13 66.09 192.80 66.09ZM220.01 68.20L212.34 68.55Q212.06 68.27 212.06 67.36L212.06 67.36Q212.06 66.52 212.34 66.52L212.34 66.52Q212.91 66.52 213.89 66.30Q214.88 66.09 215.72 65.74Q216.56 65.39 216.63 65.11L216.63 65.11Q216.91 64.13 217.02 62.86Q217.13 61.59 217.13 60.19L217.13 60.19L217.13 46.90Q217.13 44.23 216.14 43.10L216.14 43.10Q215.44 42.26 214.49 41.98Q213.54 41.70 212.80 41.66Q212.06 41.63 212.06 41.48L212.06 41.48Q212.06 39.80 212.48 39.73L212.48 39.73Q216.21 39.16 218.53 38.71Q220.85 38.25 221.41 38.11L221.41 38.11L222.54 37.83Q222.82 37.76 222.89 38.39Q222.96 39.02 222.89 39.30L222.89 39.30Q222.75 40.29 222.68 40.99Q222.61 41.70 222.61 42.12L222.61 42.12Q222.61 42.40 222.75 42.40L222.75 42.40Q222.82 42.40 222.96 42.26L222.96 42.26Q224.58 40.57 227.36 39.06Q230.13 37.55 232.66 37.55L232.66 37.55Q237.59 37.55 239.55 41.06Q241.52 44.58 241.52 52.45L241.52 52.45L241.52 58.85Q241.52 60.89 241.66 62.44Q241.80 63.98 242.09 65.11L242.09 65.11Q242.23 65.39 243.07 65.74Q243.91 66.09 244.90 66.30Q245.88 66.52 246.30 66.52L246.30 66.52Q246.52 66.52 246.59 67.36Q246.66 68.20 246.52 68.55L246.52 68.55L238.99 68.20L231.61 68.55Q231.33 68.27 231.33 67.36L231.33 67.36Q231.33 66.52 231.61 66.52L231.61 66.52Q232.17 66.52 233.09 66.30Q234 66.09 234.77 65.74Q235.55 65.39 235.62 65.11L235.62 65.11Q235.90 64.13 236.00 62.86Q236.11 61.59 236.11 60.19L236.11 60.19L236.11 53.16Q236.11 46.62 234.42 44.23Q232.73 41.84 228.94 41.84L228.94 41.84Q227.46 41.84 225.98 42.64Q224.51 43.45 223.52 44.51Q222.54 45.56 222.54 46.48L222.54 46.48L222.54 58.85Q222.54 60.89 222.68 62.44Q222.82 63.98 223.10 65.11L223.10 65.11Q223.24 65.39 224.09 65.74Q224.93 66.09 225.91 66.30Q226.90 66.52 227.32 66.52L227.32 66.52Q227.53 66.52 227.60 67.36Q227.67 68.20 227.53 68.55L227.53 68.55L220.01 68.20ZM288 68.20L279.56 68.55Q279.28 68.27 279.28 67.50L279.28 67.50Q279.28 66.52 279.56 66.52L279.56 66.52Q280.20 66.52 281.25 66.34Q282.30 66.16 283.22 65.81Q284.13 65.46 284.27 65.11L284.27 65.11Q284.55 64.13 284.66 62.58Q284.77 61.03 284.77 58.85L284.77 58.85L284.77 33.40Q284.77 27.28 284.13 26.16L284.13 26.16Q283.64 25.10 276.54 25.10L276.54 25.10Q273.87 25.10 272.39 25.56Q270.91 26.02 270.14 27.35Q269.37 28.69 268.66 31.36L268.66 31.36Q268.52 31.71 267.96 31.71L267.96 31.71Q266.77 31.71 266.27 31.22L266.27 31.22L267.61 21.16Q269.16 21.52 270.35 21.73Q271.55 21.94 272.46 21.94L272.46 21.94Q277.52 21.94 281.39 22.08Q285.26 22.22 287.86 22.22L287.86 22.22Q293.27 22.22 297.18 22.08Q301.08 21.94 303.33 21.94L303.33 21.94Q304.24 21.94 305.44 21.73Q306.63 21.52 308.18 21.16L308.18 21.16L309.52 31.22Q309.02 31.71 307.83 31.71L307.83 31.71Q307.27 31.71 307.13 31.36L307.13 31.36Q306.49 28.69 305.68 27.35Q304.88 26.02 303.40 25.56Q301.92 25.10 299.25 25.10L299.25 25.10Q291.87 25.10 291.52 26.16L291.52 26.16Q290.88 28.34 290.88 33.19L290.88 33.19L290.88 58.57Q290.88 62.65 291.52 65.11L291.52 65.11Q291.66 65.39 292.57 65.74Q293.48 66.09 294.54 66.30Q295.59 66.52 296.02 66.52L296.02 66.52Q296.30 66.52 296.30 67.57L296.30 67.57Q296.30 67.99 296.16 68.55L296.16 68.55Q292.64 68.41 290.60 68.31Q288.56 68.20 288 68.20L288 68.20ZM322.52 68.77L322.52 68.77Q318.66 68.77 315.42 66.73Q312.19 64.69 310.25 61.28Q308.32 57.87 308.32 53.65L308.32 53.65Q308.32 48.73 310.15 45.14Q311.98 41.55 315.14 39.62Q318.30 37.69 322.24 37.69L322.24 37.69Q325.48 37.69 327.94 38.92Q330.40 40.15 331.73 42.05L331.73 42.05Q333 44.02 333.60 46.02Q334.20 48.02 334.20 49.99L334.20 49.99Q334.20 51.40 333.77 51.71Q333.35 52.03 332.16 52.03L332.16 52.03L314.44 52.03Q313.88 52.03 313.88 52.38L313.88 52.38Q313.88 55.34 315.07 58.04Q316.27 60.75 318.59 62.51Q320.91 64.27 324.28 64.27L324.28 64.27Q327.23 64.27 329.24 63.39Q331.24 62.51 332.16 61.80L332.16 61.80L332.65 61.45Q333.07 61.45 333.07 62.37L333.07 62.37Q333.07 62.86 332.65 63.63L332.65 63.63Q331.24 65.60 328.50 67.18Q325.76 68.77 322.52 68.77ZM314.44 49.08L314.44 49.08L328.15 49.08Q328.50 49.08 328.50 48.38L328.50 48.38Q328.50 46.83 327.69 44.96Q326.88 43.10 325.27 41.70Q323.65 40.29 321.19 40.29L321.19 40.29Q318.94 40.29 317.32 41.80Q315.70 43.31 314.86 45.25Q314.02 47.18 314.02 48.59L314.02 48.59Q314.02 49.08 314.44 49.08ZM343.20 68.20L336.38 68.55Q336.30 68.27 336.27 68.03Q336.23 67.78 336.23 67.57L336.23 67.57Q336.23 66.52 336.52 66.52L336.52 66.52Q341.30 65.74 342.84 63.56L342.84 63.56L349.95 54.07Q350.23 53.58 350.23 53.44L350.23 53.44Q350.23 53.16 350.02 52.88L350.02 52.88L342.84 42.33Q342.42 41.70 341.37 41.13Q340.31 40.57 339.12 40.22Q337.92 39.87 337.08 39.87L337.08 39.87Q336.87 39.30 336.87 38.88L336.87 38.88Q336.87 38.25 337.15 37.83L337.15 37.83L344.18 38.18L351.56 37.83Q351.63 38.04 351.63 38.67L351.63 38.67Q351.63 39.87 351.42 39.87L351.42 39.87Q348.61 39.87 348.61 41.06L348.61 41.06Q348.61 41.34 348.96 41.91L348.96 41.91L353.53 49.01Q354.52 47.39 355.32 46.27Q356.13 45.14 356.63 44.44L356.63 44.44Q357.19 43.59 357.68 42.61Q358.17 41.63 358.17 41.13L358.17 41.13Q358.17 40.43 357.40 40.22Q356.63 40.01 355.71 39.97Q354.80 39.94 354.38 39.87L354.38 39.87Q354.16 39.73 354.16 38.74L354.16 38.74Q354.16 38.11 354.38 37.83L354.38 37.83L361.76 38.18L368.16 37.83Q368.23 38.18 368.26 38.43Q368.30 38.67 368.30 38.81L368.30 38.81Q368.30 39.87 368.09 39.87L368.09 39.87Q363.38 40.43 361.97 42.26L361.97 42.26L355.50 50.70Q355.08 51.19 355.08 51.61L355.08 51.61Q355.08 52.03 355.36 52.38L355.36 52.38L362.81 63.42Q364.64 66.16 368.72 66.52L368.72 66.52Q368.93 66.52 368.93 67.50L368.93 67.50Q368.93 68.27 368.65 68.55L368.65 68.55L362.04 68.20L354.23 68.55Q354.16 68.20 354.13 67.96Q354.09 67.71 354.09 67.64L354.09 67.64Q354.09 66.52 354.30 66.52L354.30 66.52Q357.26 66.30 357.26 65.25L357.26 65.25Q357.26 65.04 357.12 64.83L357.12 64.83L351.77 56.39L346.92 63.63Q346.43 64.34 346.43 64.97L346.43 64.97Q346.43 65.60 347.48 66.06Q348.54 66.52 349.95 66.52L349.95 66.52L350.30 66.52Q350.51 66.52 350.51 67.57L350.51 67.57Q350.51 68.27 350.23 68.55L350.23 68.55L343.20 68.20ZM382.64 68.84L382.64 68.84Q379.13 68.84 376.77 66.52Q374.41 64.20 374.41 59.91L374.41 59.91L374.41 42.05L370.34 42.05Q369.98 42.05 369.98 40.57L369.98 40.57Q369.98 40.15 370.05 40.08L370.05 40.08Q372.16 39.09 374.48 36.35L374.48 36.35Q376.10 34.45 376.91 33.05Q377.72 31.64 377.72 31.36L377.72 31.36Q379.83 31.36 379.83 31.71L379.83 31.71L379.83 38.67L385.38 38.74L389.32 38.74Q389.88 38.74 389.88 39.38L389.88 39.38Q389.88 40.71 389.18 42.05L389.18 42.05L379.83 42.05L379.83 59.27Q379.83 62.09 381.27 63.77Q382.71 65.46 385.03 65.46L385.03 65.46Q387.21 65.46 389.39 64.13L389.39 64.13Q389.60 63.98 390.02 64.72Q390.45 65.46 390.38 65.53L390.38 65.53Q389.32 66.66 387.14 67.75Q384.96 68.84 382.64 68.84Z"/></svg>