<?xml version="1.0" encoding="UTF-8"?>
<svg xmlns="http://www.w3.org/2000/svg" xmlns:xlink="http://www.w3.org/1999/xlink" width="315.00000000000006" height="87.19200000000001" viewBox="0 -6.403999999999996 315.00000000000006 100" preserveAspectRatio="xMinYMid meet"><path d="M29.88 20.74L29.88 20.74Q33.19 20.74 36.76 21.38Q40.32 22.03 42.48 23.26L42.48 23.26Q43.13 23.62 43.31 23.90Q43.49 24.19 43.56 24.98L43.56 24.98L44.35 33.05Q44.35 33.19 43.99 33.30Q43.63 33.41 43.56 33.12L43.56 33.12Q41.90 27.29 37.51 24.80Q33.12 22.32 27.07 22.32L27.07 22.32Q21.53 22.32 17.46 24.73Q13.39 27.14 11.16 31.50Q8.93 35.86 8.93 41.69L8.93 41.69Q8.93 46.80 10.51 51.30Q12.10 55.80 14.94 59.18Q17.78 62.57 21.49 64.48Q25.20 66.38 29.38 66.38L29.38 66.38Q34.42 66.38 38.27 63.61Q42.12 60.84 44.21 54.79L44.21 54.79Q44.28 54.50 44.68 54.61Q45.07 54.72 45.07 54.86L45.07 54.86L44.06 63.00Q43.92 63.86 43.74 64.12Q43.56 64.37 42.91 64.66L42.91 64.66Q39.46 66.10 36.07 66.74Q32.69 67.39 29.23 67.39L29.23 67.39Q22.39 67.39 17.50 65.27Q12.60 63.14 9.50 59.65Q6.41 56.16 4.97 51.95Q3.53 47.74 3.53 43.63L3.53 43.63Q3.53 38.45 5.69 34.27Q7.85 30.10 11.59 27.07Q15.34 24.05 20.05 22.39Q24.77 20.74 29.88 20.74ZM64.80 67.46L64.80 67.46Q60.55 67.46 57.38 65.38Q54.22 63.29 52.49 59.80Q50.76 56.30 50.76 52.27L50.76 52.27Q50.76 48.53 52.13 45.79Q53.50 43.06 55.80 41.29Q58.10 39.53 60.80 38.66Q63.50 37.80 66.10 37.80L66.10 37.80Q70.49 37.80 73.62 39.96Q76.75 42.12 78.41 45.50Q80.06 48.89 80.06 52.63L80.06 52.63Q80.06 57.24 77.98 60.55Q75.89 63.86 72.43 65.66Q68.98 67.46 64.80 67.46ZM66.89 66.10L66.89 66.10Q70.70 66.10 72.94 63.40Q75.17 60.70 75.17 54.65L75.17 54.65Q75.17 50.11 73.69 46.62Q72.22 43.13 69.62 41.15Q67.03 39.17 63.72 39.17L63.72 39.17Q59.90 39.17 57.74 41.98Q55.58 44.78 55.58 50.04L55.58 50.04Q55.58 54.43 57.02 58.10Q58.46 61.78 61.02 63.94Q63.58 66.10 66.89 66.10ZM92.95 47.02L92.95 47.02L92.66 46.22Q95.33 42.98 97.06 41.22Q98.78 39.46 100.04 38.77Q101.30 38.09 102.46 38.09L102.46 38.09Q103.97 38.09 105.44 38.95Q106.92 39.82 106.92 41.04L106.92 41.04Q106.92 41.98 106.31 42.62Q105.70 43.27 104.54 43.27L104.54 43.27Q103.61 43.27 102.96 42.70Q102.31 42.12 101.59 41.62Q100.87 41.11 99.72 41.11L99.72 41.11Q99.07 41.11 98.35 41.47Q97.63 41.83 96.41 43.09Q95.18 44.35 92.95 47.02ZM85.90 66.53L85.90 66.53Q85.68 66.53 85.68 66.10Q85.68 65.66 85.90 65.66L85.90 65.66Q88.70 65.66 89.53 64.69Q90.36 63.72 90.36 60.70L90.36 60.70L90.36 46.44Q90.36 44.06 89.82 42.95Q89.28 41.83 87.84 41.83L87.84 41.83Q87.12 41.83 86.15 42.12Q85.18 42.41 83.95 42.91L83.95 42.91Q83.66 42.98 83.48 42.62Q83.30 42.26 83.59 42.12L83.59 42.12L91.94 38.16Q92.16 38.09 92.38 38.09L92.38 38.09Q92.88 38.09 93.67 39.60Q94.46 41.11 94.46 43.99L94.46 43.99L94.46 60.70Q94.46 62.71 94.97 63.83Q95.47 64.94 96.98 65.30Q98.50 65.66 101.45 65.66L101.45 65.66Q101.74 65.66 101.74 66.10Q101.74 66.53 101.45 66.53L101.45 66.53Q99.72 66.53 97.38 66.46Q95.04 66.38 92.45 66.38L92.45 66.38Q90.58 66.38 88.85 66.46Q87.12 66.53 85.90 66.53ZM149.18 66.53L149.18 66.53Q148.97 66.53 148.97 66.10Q148.97 65.66 149.18 65.66L149.18 65.66Q151.99 65.66 152.86 64.69Q153.72 63.72 153.72 60.70L153.72 60.70L153.72 49.25Q153.72 40.82 147.53 40.82L147.53 40.82Q144.94 40.82 142.38 42.52Q139.82 44.21 137.88 47.09L137.88 47.09L137.59 46.22Q140.69 41.90 143.71 39.96Q146.74 38.02 149.90 38.02L149.90 38.02Q153.65 38.02 155.70 40.14Q157.75 42.26 157.75 46.73L157.75 46.73L157.75 60.70Q157.75 63.72 158.58 64.69Q159.41 65.66 162.29 65.66L162.29 65.66Q162.50 65.66 162.50 66.10Q162.50 66.53 162.29 66.53L162.29 66.53Q161.06 66.53 159.34 66.46Q157.61 66.38 155.74 66.38L155.74 66.38Q153.86 66.38 152.17 66.46Q150.48 66.53 149.18 66.53ZM130.61 66.53L130.61 66.53Q130.39 66.53 130.39 66.10Q130.39 65.66 130.61 65.66L130.61 65.66Q133.42 65.66 134.24 64.69Q135.07 63.72 135.07 60.70L135.07 60.70L135.07 49.25Q135.07 40.82 128.95 40.82L128.95 40.82Q126.36 40.82 123.80 42.52Q121.25 44.21 119.30 47.09L119.30 47.09L119.02 46.22Q122.04 41.90 125.06 39.96Q128.09 38.02 131.26 38.02L131.26 38.02Q135 38.02 137.09 40.10Q139.18 42.19 139.18 46.58L139.18 46.58L139.18 60.70Q139.18 63.72 140.00 64.69Q140.83 65.66 143.71 65.66L143.71 65.66Q143.93 65.66 143.93 66.10Q143.93 66.53 143.71 66.53L143.71 66.53Q142.42 66.53 140.72 66.46Q139.03 66.38 137.16 66.38L137.16 66.38Q135.29 66.38 133.56 66.46Q131.83 66.53 130.61 66.53ZM112.10 66.53L112.10 66.53Q111.89 66.53 111.89 66.10Q111.89 65.66 112.10 65.66L112.10 65.66Q114.91 65.66 115.74 64.69Q116.57 63.72 116.57 60.70L116.57 60.70L116.57 46.44Q116.57 44.06 116.03 42.95Q115.49 41.83 114.05 41.83L114.05 41.83Q113.33 41.83 112.36 42.12Q111.38 42.41 110.16 42.91L110.16 42.91Q109.87 42.98 109.69 42.62Q109.51 42.26 109.80 42.12L109.80 42.12L118.15 38.16Q118.37 38.09 118.58 38.09L118.58 38.09Q119.09 38.09 119.88 39.60Q120.67 41.11 120.67 43.99L120.67 43.99L120.67 60.70Q120.67 63.72 121.50 64.69Q122.33 65.66 125.14 65.66L125.14 65.66Q125.35 65.66 125.35 66.10Q125.35 66.53 125.14 66.53L125.14 66.53Q123.91 66.53 122.22 66.46Q120.53 66.38 118.66 66.38L118.66 66.38Q116.78 66.38 115.06 66.46Q113.33 66.53 112.10 66.53ZM180.43 67.46L180.43 67.46Q176.18 67.46 173.02 65.38Q169.85 63.29 168.12 59.80Q166.39 56.30 166.39 52.27L166.39 52.27Q166.39 48.53 167.76 45.79Q169.13 43.06 171.43 41.29Q173.74 39.53 176.44 38.66Q179.14 37.80 181.73 37.80L181.73 37.80Q186.12 37.80 189.25 39.96Q192.38 42.12 194.04 45.50Q195.70 48.89 195.70 52.63L195.70 52.63Q195.70 57.24 193.61 60.55Q191.52 63.86 188.06 65.66Q184.61 67.46 180.43 67.46ZM182.52 66.10L182.52 66.10Q186.34 66.10 188.57 63.40Q190.80 60.70 190.80 54.65L190.80 54.65Q190.80 50.11 189.32 46.62Q187.85 43.13 185.26 41.15Q182.66 39.17 179.35 39.17L179.35 39.17Q175.54 39.17 173.38 41.98Q171.22 44.78 171.22 50.04L171.22 50.04Q171.22 54.43 172.66 58.10Q174.10 61.78 176.65 63.94Q179.21 66.10 182.52 66.10ZM208.58 47.02L208.58 47.02L208.30 46.22Q210.96 42.98 212.69 41.22Q214.42 39.46 215.68 38.77Q216.94 38.09 218.09 38.09L218.09 38.09Q219.60 38.09 221.08 38.95Q222.55 39.82 222.55 41.04L222.55 41.04Q222.55 41.98 221.94 42.62Q221.33 43.27 220.18 43.27L220.18 43.27Q219.24 43.27 218.59 42.70Q217.94 42.12 217.22 41.62Q216.50 41.11 215.35 41.11L215.35 41.11Q214.70 41.11 213.98 41.47Q213.26 41.83 212.04 43.09Q210.82 44.35 208.58 47.02ZM201.53 66.53L201.53 66.53Q201.31 66.53 201.31 66.10Q201.31 65.66 201.53 65.66L201.53 65.66Q204.34 65.66 205.16 64.69Q205.99 63.72 205.99 60.70L205.99 60.70L205.99 46.44Q205.99 44.06 205.45 42.95Q204.91 41.83 203.47 41.83L203.47 41.83Q202.75 41.83 201.78 42.12Q200.81 42.41 199.58 42.91L199.58 42.91Q199.30 42.98 199.12 42.62Q198.94 42.26 199.22 42.12L199.22 42.12L207.58 38.16Q207.79 38.09 208.01 38.09L208.01 38.09Q208.51 38.09 209.30 39.60Q210.10 41.11 210.10 43.99L210.10 43.99L210.10 60.70Q210.10 62.71 210.60 63.83Q211.10 64.94 212.62 65.30Q214.13 65.66 217.08 65.66L217.08 65.66Q217.37 65.66 217.37 66.10Q217.37 66.53 217.08 66.53L217.08 66.53Q215.35 66.53 213.01 66.46Q210.67 66.38 208.08 66.38L208.08 66.38Q206.21 66.38 204.48 66.46Q202.75 66.53 201.53 66.53ZM253.30 63.43L245.88 66.96Q245.59 67.10 245.30 67.10L245.30 67.10Q244.37 67.10 243.50 65.56Q242.64 64.01 242.64 61.06L242.64 61.06L242.64 48.17Q242.64 44.78 242.03 42.91Q241.42 41.04 240.37 40.32Q239.33 39.60 238.03 39.60L238.03 39.60Q236.23 39.60 235.08 40.50Q233.93 41.40 233.35 42.77Q232.78 44.14 232.56 45.50L232.56 45.50Q232.49 46.51 231.95 47.38Q231.41 48.24 229.90 48.24L229.90 48.24Q228.74 48.24 228.10 47.66Q227.45 47.09 227.45 46.08L227.45 46.08Q227.45 44.78 228.74 43.38Q230.04 41.98 232.02 40.79Q234.00 39.60 236.20 38.84Q238.39 38.09 240.34 38.09L240.34 38.09Q243.07 38.09 244.87 40.00Q246.67 41.90 246.67 46.01L246.67 46.01L246.67 58.75Q246.67 61.27 247.32 62.42Q247.97 63.58 249.41 63.58L249.41 63.58Q250.70 63.58 253.01 62.64L253.01 62.64Q253.37 62.50 253.51 62.89Q253.66 63.29 253.30 63.43L253.30 63.43ZM231.77 67.03L231.77 67.03Q229.46 67.03 228.31 65.77Q227.16 64.51 227.16 62.86L227.16 62.86Q227.16 60.84 228.74 59.65Q230.33 58.46 233.93 57.24L233.93 57.24L243.36 53.86L243.58 54.65L235.22 57.82Q233.57 58.46 232.88 59.26Q232.20 60.05 232.20 61.27L232.20 61.27Q232.20 62.78 233.06 63.61Q233.93 64.44 235.30 64.44L235.30 64.44Q236.09 64.44 236.81 64.26Q237.53 64.08 238.25 63.72L238.25 63.72L244.37 60.62L244.51 61.49L238.25 64.87Q236.09 65.95 234.65 66.49Q233.21 67.03 231.77 67.03ZM276.05 66.53L276.05 66.53Q275.83 66.53 275.83 66.10Q275.83 65.66 276.05 65.66L276.05 65.66Q278.86 65.66 279.68 64.69Q280.51 63.72 280.51 60.70L280.51 60.70L280.51 49.03Q280.51 44.71 278.93 42.73Q277.34 40.75 273.89 40.75L273.89 40.75Q271.30 40.75 268.56 42.41Q265.82 44.06 263.88 46.94L263.88 46.94L263.59 46.08Q266.76 41.83 269.89 39.82Q273.02 37.80 276.26 37.80L276.26 37.80Q280.22 37.80 282.42 40.00Q284.62 42.19 284.62 46.58L284.62 46.58L284.62 60.70Q284.62 63.72 285.44 64.69Q286.27 65.66 289.08 65.66L289.08 65.66Q289.30 65.66 289.30 66.10Q289.30 66.53 289.08 66.53L289.08 66.53Q287.86 66.53 286.16 66.46Q284.47 66.38 282.60 66.38L282.60 66.38Q280.73 66.38 279 66.46Q277.27 66.53 276.05 66.53ZM256.68 66.53L256.68 66.53Q256.46 66.53 256.46 66.10Q256.46 65.66 256.68 65.66L256.68 65.66Q259.49 65.66 260.32 64.69Q261.14 63.72 261.14 60.70L261.14 60.70L261.14 46.44Q261.14 44.06 260.60 42.95Q260.06 41.83 258.62 41.83L258.62 41.83Q257.90 41.83 256.93 42.12Q255.96 42.41 254.74 42.91L254.74 42.91Q254.45 42.98 254.27 42.62Q254.09 42.26 254.38 42.12L254.38 42.12L262.73 38.16Q262.94 38.09 263.16 38.09L263.16 38.09Q263.66 38.09 264.46 39.60Q265.25 41.11 265.25 43.99L265.25 43.99L265.25 60.70Q265.25 63.72 266.08 64.69Q266.90 65.66 269.71 65.66L269.71 65.66Q269.93 65.66 269.93 66.10Q269.93 66.53 269.71 66.53L269.71 66.53Q268.49 66.53 266.80 66.46Q265.10 66.38 263.23 66.38L263.23 66.38Q261.36 66.38 259.63 66.46Q257.90 66.53 256.68 66.53ZM304.20 67.39L304.20 67.39Q302.47 67.39 300.89 66.85Q299.30 66.31 298.30 65.02Q297.29 63.72 297.29 61.49L297.29 61.49L297.29 44.57Q297.29 42.84 297.07 41.98Q296.86 41.11 296.06 40.86Q295.27 40.61 293.62 40.61L293.62 40.61Q293.33 40.61 293.33 40.14Q293.33 39.67 293.62 39.67L293.62 39.67Q296.50 39.60 298.33 38.09Q300.17 36.58 300.38 34.20L300.38 34.20Q300.38 33.98 300.92 33.98Q301.46 33.98 301.46 34.20L301.46 34.20L301.46 59.04Q301.46 61.99 302.94 63.43Q304.42 64.87 307.15 64.87L307.15 64.87Q309.02 64.87 310.50 64.26Q311.98 63.65 312.91 62.86L312.91 62.86Q313.20 62.71 313.45 63.04Q313.70 63.36 313.42 63.58L313.42 63.58Q310.75 65.59 308.63 66.49Q306.50 67.39 304.20 67.39ZM311.18 42.26L311.18 42.26Q308.38 41.54 305.78 41.33Q303.19 41.11 300.24 41.11L300.24 41.11L300.24 39.53Q303.12 39.53 305.78 39.31Q308.45 39.10 311.47 38.81L311.47 38.81Q311.62 38.81 311.80 39.31Q311.98 39.82 311.98 40.54L311.98 40.54Q311.98 41.04 311.72 41.69Q311.47 42.34 311.18 42.26Z"/></svg>