<svg width="721" height="428" viewBox="0 0 721 428" fill="none" xmlns="http://www.w3.org/2000/svg">
<rect width="721" height="428" rx="6" fill="white"/>
<rect x="30" y="63" width="140" height="64" rx="6" fill="#F8F8F8"/>
<path d="M59.6416 91.1719H56.0205V102H53.9287V91.1719H50.3164V89.3965H59.6416V91.1719ZM69.2568 102H67.2178V97.0781C67.2178 95.2969 66.623 94.4062 65.4336 94.4062C64.8359 94.4062 64.332 94.6641 63.9219 95.1797C63.5117 95.6953 63.3066 96.3545 63.3066 97.1572V102H61.2588V88.6758H63.3066V94.4941H63.3418C64.0215 93.3574 64.9941 92.7891 66.2598 92.7891C68.2578 92.7891 69.2568 94.0107 69.2568 96.4541V102ZM79.3555 98.0537H73.2207C73.2441 98.8857 73.499 99.5273 73.9854 99.9785C74.4775 100.43 75.1514 100.655 76.0068 100.655C76.9678 100.655 77.8496 100.368 78.6523 99.7939V101.438C77.832 101.953 76.748 102.211 75.4004 102.211C74.0762 102.211 73.0361 101.804 72.2803 100.989C71.5303 100.169 71.1553 99.0176 71.1553 97.5352C71.1553 96.1348 71.5684 94.9951 72.3945 94.1162C73.2266 93.2314 74.2578 92.7891 75.4883 92.7891C76.7188 92.7891 77.6709 93.1846 78.3447 93.9756C79.0186 94.7666 79.3555 95.8652 79.3555 97.2715V98.0537ZM77.3867 96.6123C77.3809 95.8799 77.208 95.3115 76.8682 94.9072C76.5283 94.4971 76.0596 94.292 75.4619 94.292C74.876 94.292 74.3779 94.5059 73.9678 94.9336C73.5635 95.3613 73.3145 95.9209 73.2207 96.6123H77.3867ZM88.6279 102H86.4746V89.3965H88.6279V102ZM99.5264 102H97.4873V96.9287C97.4873 95.2471 96.8926 94.4062 95.7031 94.4062C95.082 94.4062 94.5693 94.6406 94.165 95.1094C93.7607 95.5723 93.5586 96.1582 93.5586 96.8672V102H91.5107V93H93.5586V94.4941H93.5938C94.2676 93.3574 95.2402 92.7891 96.5117 92.7891C97.4902 92.7891 98.2373 93.1084 98.7529 93.7471C99.2686 94.3799 99.5264 95.2969 99.5264 96.498V102ZM106.769 101.903C106.37 102.103 105.846 102.202 105.195 102.202C103.449 102.202 102.576 101.364 102.576 99.6885V94.5996H101.073V93H102.576V90.917L104.615 90.3369V93H106.769V94.5996H104.615V99.0996C104.615 99.6328 104.712 100.014 104.905 100.242C105.099 100.471 105.421 100.585 105.872 100.585C106.218 100.585 106.517 100.485 106.769 100.286V101.903ZM116.041 98.0537H109.906C109.93 98.8857 110.185 99.5273 110.671 99.9785C111.163 100.43 111.837 100.655 112.692 100.655C113.653 100.655 114.535 100.368 115.338 99.7939V101.438C114.518 101.953 113.434 102.211 112.086 102.211C110.762 102.211 109.722 101.804 108.966 100.989C108.216 100.169 107.841 99.0176 107.841 97.5352C107.841 96.1348 108.254 94.9951 109.08 94.1162C109.912 93.2314 110.943 92.7891 112.174 92.7891C113.404 92.7891 114.356 93.1846 115.03 93.9756C115.704 94.7666 116.041 95.8652 116.041 97.2715V98.0537ZM114.072 96.6123C114.066 95.8799 113.894 95.3115 113.554 94.9072C113.214 94.4971 112.745 94.292 112.147 94.292C111.562 94.292 111.063 94.5059 110.653 94.9336C110.249 95.3613 110 95.9209 109.906 96.6123H114.072ZM123.204 94.9424C122.958 94.749 122.604 94.6523 122.141 94.6523C121.537 94.6523 121.033 94.9248 120.629 95.4697C120.225 96.0146 120.022 96.7559 120.022 97.6934V102H117.983V93H120.022V94.8545H120.058C120.257 94.2217 120.562 93.7295 120.972 93.3779C121.388 93.0205 121.851 92.8418 122.36 92.8418C122.729 92.8418 123.011 92.8975 123.204 93.0088V94.9424ZM132.661 102H130.622V96.9287C130.622 95.2471 130.027 94.4062 128.838 94.4062C128.217 94.4062 127.704 94.6406 127.3 95.1094C126.896 95.5723 126.693 96.1582 126.693 96.8672V102H124.646V93H126.693V94.4941H126.729C127.402 93.3574 128.375 92.7891 129.646 92.7891C130.625 92.7891 131.372 93.1084 131.888 93.7471C132.403 94.3799 132.661 95.2969 132.661 96.498V102ZM142.777 98.0537H136.643C136.666 98.8857 136.921 99.5273 137.407 99.9785C137.899 100.43 138.573 100.655 139.429 100.655C140.39 100.655 141.271 100.368 142.074 99.7939V101.438C141.254 101.953 140.17 102.211 138.822 102.211C137.498 102.211 136.458 101.804 135.702 100.989C134.952 100.169 134.577 99.0176 134.577 97.5352C134.577 96.1348 134.99 94.9951 135.816 94.1162C136.648 93.2314 137.68 92.7891 138.91 92.7891C140.141 92.7891 141.093 93.1846 141.767 93.9756C142.44 94.7666 142.777 95.8652 142.777 97.2715V98.0537ZM140.809 96.6123C140.803 95.8799 140.63 95.3115 140.29 94.9072C139.95 94.4971 139.481 94.292 138.884 94.292C138.298 94.292 137.8 94.5059 137.39 94.9336C136.985 95.3613 136.736 95.9209 136.643 96.6123H140.809ZM149.466 101.903C149.067 102.103 148.543 102.202 147.893 102.202C146.146 102.202 145.273 101.364 145.273 99.6885V94.5996H143.771V93H145.273V90.917L147.312 90.3369V93H149.466V94.5996H147.312V99.0996C147.312 99.6328 147.409 100.014 147.603 100.242C147.796 100.471 148.118 100.585 148.569 100.585C148.915 100.585 149.214 100.485 149.466 100.286V101.903Z" fill="#333230"/>
<rect x="30" y="63" width="140" height="64" rx="6" stroke="#333230" stroke-opacity="0.5"/>
<rect x="532" y="51" width="159" height="88" rx="6" fill="#F8F8F8"/>
<path d="M564.373 90H562.088L556.067 80.7363C555.915 80.502 555.789 80.2588 555.689 80.0068H555.637C555.684 80.2764 555.707 80.8535 555.707 81.7383V90H553.686V77.3965H556.12L561.938 86.4404C562.185 86.8154 562.343 87.0732 562.413 87.2139H562.448C562.39 86.8799 562.36 86.3145 562.36 85.5176V77.3965H564.373V90ZM571.264 90.2109C569.875 90.2109 568.765 89.792 567.933 88.9541C567.106 88.1104 566.693 86.9941 566.693 85.6055C566.693 84.0938 567.124 82.9131 567.985 82.0635C568.853 81.2139 570.019 80.7891 571.483 80.7891C572.89 80.7891 573.985 81.2021 574.771 82.0283C575.556 82.8545 575.948 84 575.948 85.4648C575.948 86.9004 575.523 88.0518 574.674 88.9189C573.83 89.7803 572.693 90.2109 571.264 90.2109ZM571.36 82.415C570.563 82.415 569.934 82.6934 569.471 83.25C569.008 83.8066 568.776 84.5742 568.776 85.5527C568.776 86.4961 569.011 87.2402 569.479 87.7852C569.948 88.3242 570.575 88.5938 571.36 88.5938C572.163 88.5938 572.778 88.3271 573.206 87.7939C573.64 87.2607 573.856 86.502 573.856 85.5176C573.856 84.5273 573.64 83.7627 573.206 83.2236C572.778 82.6846 572.163 82.415 571.36 82.415ZM586.214 90H584.175V88.4707H584.14C583.483 89.6309 582.473 90.2109 581.107 90.2109C580 90.2109 579.112 89.8096 578.444 89.0068C577.782 88.1982 577.451 87.0996 577.451 85.7109C577.451 84.2227 577.817 83.0303 578.55 82.1338C579.288 81.2373 580.27 80.7891 581.494 80.7891C582.707 80.7891 583.589 81.2754 584.14 82.248H584.175V76.6758H586.214V90ZM584.201 85.8867V84.709C584.201 84.0703 583.993 83.5283 583.577 83.083C583.161 82.6377 582.631 82.415 581.986 82.415C581.225 82.415 580.624 82.6992 580.185 83.2676C579.751 83.8359 579.534 84.624 579.534 85.6318C579.534 86.5459 579.742 87.2695 580.158 87.8027C580.58 88.3301 581.146 88.5938 581.854 88.5938C582.552 88.5938 583.117 88.3389 583.551 87.8291C583.984 87.3135 584.201 86.666 584.201 85.8867ZM596.497 86.0537H590.362C590.386 86.8857 590.641 87.5273 591.127 87.9785C591.619 88.4297 592.293 88.6553 593.148 88.6553C594.109 88.6553 594.991 88.3682 595.794 87.7939V89.4375C594.974 89.9531 593.89 90.2109 592.542 90.2109C591.218 90.2109 590.178 89.8037 589.422 88.9893C588.672 88.1689 588.297 87.0176 588.297 85.5352C588.297 84.1348 588.71 82.9951 589.536 82.1162C590.368 81.2314 591.399 80.7891 592.63 80.7891C593.86 80.7891 594.812 81.1846 595.486 81.9756C596.16 82.7666 596.497 83.8652 596.497 85.2715V86.0537ZM594.528 84.6123C594.522 83.8799 594.35 83.3115 594.01 82.9072C593.67 82.4971 593.201 82.292 592.604 82.292C592.018 82.292 591.52 82.5059 591.109 82.9336C590.705 83.3613 590.456 83.9209 590.362 84.6123H594.528ZM599.283 90.1934C598.932 90.1934 598.633 90.0791 598.387 89.8506C598.141 89.6162 598.018 89.3379 598.018 89.0156C598.018 88.6875 598.141 88.4062 598.387 88.1719C598.633 87.9375 598.932 87.8203 599.283 87.8203C599.641 87.8203 599.942 87.9375 600.188 88.1719C600.44 88.4062 600.566 88.6875 600.566 89.0156C600.566 89.3379 600.44 89.6162 600.188 89.8506C599.942 90.0791 599.641 90.1934 599.283 90.1934ZM604.82 89.6221C604.82 91.0986 604.51 92.2354 603.889 93.0322C603.268 93.835 602.38 94.2363 601.226 94.2363C600.798 94.2363 600.382 94.1426 599.978 93.9551V92.2061C600.358 92.4697 600.719 92.6016 601.059 92.6016C602.207 92.6016 602.781 91.5879 602.781 89.5605V81H604.82V89.6221ZM603.818 79.1104C603.484 79.1104 603.197 79.002 602.957 78.7852C602.723 78.5684 602.605 78.293 602.605 77.959C602.605 77.625 602.723 77.3467 602.957 77.124C603.197 76.9014 603.484 76.79 603.818 76.79C604.158 76.79 604.448 76.9014 604.688 77.124C604.929 77.3467 605.049 77.625 605.049 77.959C605.049 78.2754 604.929 78.5479 604.688 78.7764C604.448 78.999 604.158 79.1104 603.818 79.1104ZM606.93 89.7188V87.8291C607.691 88.4092 608.532 88.6992 609.452 88.6992C610.683 88.6992 611.298 88.3359 611.298 87.6094C611.298 87.4043 611.245 87.2314 611.14 87.0908C611.034 86.9443 610.891 86.8154 610.709 86.7041C610.533 86.5928 610.322 86.4932 610.076 86.4053C609.836 86.3174 609.566 86.2178 609.268 86.1064C608.898 85.96 608.564 85.8047 608.266 85.6406C607.973 85.4766 607.727 85.292 607.527 85.0869C607.334 84.876 607.188 84.6387 607.088 84.375C606.988 84.1113 606.938 83.8037 606.938 83.4521C606.938 83.0186 607.041 82.6377 607.246 82.3096C607.451 81.9756 607.727 81.6973 608.072 81.4746C608.418 81.2461 608.811 81.0762 609.25 80.9648C609.689 80.8477 610.144 80.7891 610.612 80.7891C611.444 80.7891 612.188 80.915 612.845 81.167V82.9512C612.212 82.5176 611.485 82.3008 610.665 82.3008C610.407 82.3008 610.173 82.3271 609.962 82.3799C609.757 82.4326 609.581 82.5059 609.435 82.5996C609.288 82.6934 609.174 82.8076 609.092 82.9424C609.01 83.0713 608.969 83.2148 608.969 83.373C608.969 83.5664 609.01 83.7305 609.092 83.8652C609.174 84 609.294 84.1201 609.452 84.2256C609.616 84.3252 609.81 84.4189 610.032 84.5068C610.261 84.5889 610.521 84.6797 610.814 84.7793C611.201 84.9375 611.547 85.0986 611.852 85.2627C612.162 85.4268 612.426 85.6143 612.643 85.8252C612.859 86.0303 613.026 86.2705 613.144 86.5459C613.261 86.8154 613.319 87.1377 613.319 87.5127C613.319 87.9697 613.214 88.3682 613.003 88.708C612.792 89.0479 612.511 89.3291 612.159 89.5518C611.808 89.7744 611.4 89.9385 610.938 90.0439C610.48 90.1553 609.997 90.2109 609.487 90.2109C608.503 90.2109 607.65 90.0469 606.93 89.7188ZM619.867 89.499V87.3457C620.061 87.5215 620.289 87.6797 620.553 87.8203C620.822 87.9609 621.106 88.0811 621.405 88.1807C621.704 88.2744 622.003 88.3477 622.302 88.4004C622.601 88.4531 622.876 88.4795 623.128 88.4795C624.007 88.4795 624.66 88.333 625.088 88.04C625.521 87.7471 625.738 87.3223 625.738 86.7656C625.738 86.4668 625.665 86.209 625.519 85.9922C625.378 85.7695 625.179 85.5674 624.921 85.3857C624.663 85.2041 624.358 85.0312 624.007 84.8672C623.661 84.6973 623.289 84.5215 622.891 84.3398C622.463 84.1113 622.064 83.8799 621.695 83.6455C621.326 83.4111 621.004 83.1533 620.729 82.8721C620.459 82.585 620.245 82.2627 620.087 81.9053C619.935 81.5479 619.858 81.1289 619.858 80.6484C619.858 80.0566 619.99 79.5439 620.254 79.1104C620.523 78.6709 620.875 78.3105 621.309 78.0293C621.748 77.7422 622.246 77.5312 622.803 77.3965C623.359 77.2559 623.928 77.1855 624.508 77.1855C625.826 77.1855 626.787 77.335 627.391 77.6338V79.6992C626.676 79.1836 625.756 78.9258 624.631 78.9258C624.32 78.9258 624.01 78.9551 623.699 79.0137C623.395 79.0723 623.119 79.1689 622.873 79.3037C622.633 79.4385 622.437 79.6113 622.284 79.8223C622.132 80.0332 622.056 80.2881 622.056 80.5869C622.056 80.8682 622.114 81.1113 622.231 81.3164C622.349 81.5215 622.519 81.709 622.741 81.8789C622.97 82.0488 623.245 82.2158 623.567 82.3799C623.896 82.5381 624.273 82.7109 624.701 82.8984C625.141 83.127 625.554 83.3672 625.94 83.6191C626.333 83.8711 626.676 84.1494 626.969 84.4541C627.268 84.7588 627.502 85.0986 627.672 85.4736C627.848 85.8428 627.936 86.2646 627.936 86.7393C627.936 87.3779 627.807 87.917 627.549 88.3564C627.291 88.7959 626.942 89.1533 626.503 89.4287C626.069 89.7041 625.568 89.9033 625 90.0264C624.432 90.1494 623.831 90.2109 623.198 90.2109C622.987 90.2109 622.727 90.1934 622.416 90.1582C622.111 90.1289 621.798 90.082 621.476 90.0176C621.153 89.959 620.849 89.8857 620.562 89.7979C620.274 89.71 620.043 89.6104 619.867 89.499ZM637.647 86.0537H631.513C631.536 86.8857 631.791 87.5273 632.277 87.9785C632.77 88.4297 633.443 88.6553 634.299 88.6553C635.26 88.6553 636.142 88.3682 636.944 87.7939V89.4375C636.124 89.9531 635.04 90.2109 633.692 90.2109C632.368 90.2109 631.328 89.8037 630.572 88.9893C629.822 88.1689 629.447 87.0176 629.447 85.5352C629.447 84.1348 629.86 82.9951 630.687 82.1162C631.519 81.2314 632.55 80.7891 633.78 80.7891C635.011 80.7891 635.963 81.1846 636.637 81.9756C637.311 82.7666 637.647 83.8652 637.647 85.2715V86.0537ZM635.679 84.6123C635.673 83.8799 635.5 83.3115 635.16 82.9072C634.82 82.4971 634.352 82.292 633.754 82.292C633.168 82.292 632.67 82.5059 632.26 82.9336C631.855 83.3613 631.606 83.9209 631.513 84.6123H635.679ZM644.811 82.9424C644.564 82.749 644.21 82.6523 643.747 82.6523C643.144 82.6523 642.64 82.9248 642.235 83.4697C641.831 84.0146 641.629 84.7559 641.629 85.6934V90H639.59V81H641.629V82.8545H641.664C641.863 82.2217 642.168 81.7295 642.578 81.3779C642.994 81.0205 643.457 80.8418 643.967 80.8418C644.336 80.8418 644.617 80.8975 644.811 81.0088V82.9424ZM654.725 81L651.244 90H649.038L645.725 81H647.939L649.935 87.293C650.087 87.7559 650.181 88.1602 650.216 88.5059H650.242C650.295 88.0723 650.377 87.6797 650.488 87.3281L652.58 81H654.725ZM663.593 86.0537H657.458C657.481 86.8857 657.736 87.5273 658.223 87.9785C658.715 88.4297 659.389 88.6553 660.244 88.6553C661.205 88.6553 662.087 88.3682 662.89 87.7939V89.4375C662.069 89.9531 660.985 90.2109 659.638 90.2109C658.313 90.2109 657.273 89.8037 656.518 88.9893C655.768 88.1689 655.393 87.0176 655.393 85.5352C655.393 84.1348 655.806 82.9951 656.632 82.1162C657.464 81.2314 658.495 80.7891 659.726 80.7891C660.956 80.7891 661.908 81.1846 662.582 81.9756C663.256 82.7666 663.593 83.8652 663.593 85.2715V86.0537ZM661.624 84.6123C661.618 83.8799 661.445 83.3115 661.105 82.9072C660.766 82.4971 660.297 82.292 659.699 82.292C659.113 82.292 658.615 82.5059 658.205 82.9336C657.801 83.3613 657.552 83.9209 657.458 84.6123H661.624ZM670.756 82.9424C670.51 82.749 670.155 82.6523 669.692 82.6523C669.089 82.6523 668.585 82.9248 668.181 83.4697C667.776 84.0146 667.574 84.7559 667.574 85.6934V90H665.535V81H667.574V82.8545H667.609C667.809 82.2217 668.113 81.7295 668.523 81.3779C668.939 81.0205 669.402 80.8418 669.912 80.8418C670.281 80.8418 670.562 80.8975 670.756 81.0088V82.9424ZM594.897 116.865H593.175C591.323 114.791 590.397 112.233 590.397 109.192C590.397 106.14 591.323 103.541 593.175 101.396H594.906C593.09 103.623 592.182 106.216 592.182 109.175C592.182 112.11 593.087 114.674 594.897 116.865ZM596.629 114V101.396H600.628C601.847 101.396 602.811 101.663 603.52 102.196C604.234 102.729 604.592 103.424 604.592 104.279C604.592 104.994 604.39 105.615 603.985 106.143C603.581 106.67 603.021 107.045 602.307 107.268V107.303C603.174 107.402 603.865 107.725 604.381 108.27C604.902 108.809 605.163 109.512 605.163 110.379C605.163 111.457 604.738 112.33 603.889 112.998C603.039 113.666 601.967 114 600.672 114H596.629ZM598.712 103.075V106.661H600.065C600.792 106.661 601.36 106.491 601.771 106.151C602.187 105.806 602.395 105.319 602.395 104.692C602.395 103.614 601.674 103.075 600.232 103.075H598.712ZM598.712 108.34V112.33H600.496C601.275 112.33 601.876 112.151 602.298 111.794C602.726 111.431 602.939 110.933 602.939 110.3C602.939 108.993 602.034 108.34 600.224 108.34H598.712ZM609.329 114H607.281V100.676H609.329V114ZM615.982 114.211C614.594 114.211 613.483 113.792 612.651 112.954C611.825 112.11 611.412 110.994 611.412 109.605C611.412 108.094 611.843 106.913 612.704 106.063C613.571 105.214 614.737 104.789 616.202 104.789C617.608 104.789 618.704 105.202 619.489 106.028C620.274 106.854 620.667 108 620.667 109.465C620.667 110.9 620.242 112.052 619.393 112.919C618.549 113.78 617.412 114.211 615.982 114.211ZM616.079 106.415C615.282 106.415 614.652 106.693 614.189 107.25C613.727 107.807 613.495 108.574 613.495 109.553C613.495 110.496 613.729 111.24 614.198 111.785C614.667 112.324 615.294 112.594 616.079 112.594C616.882 112.594 617.497 112.327 617.925 111.794C618.358 111.261 618.575 110.502 618.575 109.518C618.575 108.527 618.358 107.763 617.925 107.224C617.497 106.685 616.882 106.415 616.079 106.415ZM627.496 113.903C627.098 114.103 626.573 114.202 625.923 114.202C624.177 114.202 623.304 113.364 623.304 111.688V106.6H621.801V105H623.304V102.917L625.343 102.337V105H627.496V106.6H625.343V111.1C625.343 111.633 625.439 112.014 625.633 112.242C625.826 112.471 626.148 112.585 626.6 112.585C626.945 112.585 627.244 112.485 627.496 112.286V113.903ZM629.834 116.865H628.111C629.928 114.674 630.836 112.11 630.836 109.175C630.836 106.216 629.925 103.623 628.103 101.396H629.843C631.7 103.541 632.629 106.14 632.629 109.192C632.629 112.233 631.697 114.791 629.834 116.865Z" fill="#333230"/>
<rect x="532" y="51" width="159" height="88" rx="6" stroke="#333230" stroke-opacity="0.5"/>
<rect x="255" y="30" width="192" height="130" rx="6" fill="#F8F8F8"/>
<path d="M334.743 69H332.458L326.438 59.7363C326.285 59.502 326.159 59.2588 326.06 59.0068H326.007C326.054 59.2764 326.077 59.8535 326.077 60.7383V69H324.056V56.3965H326.49L332.309 65.4404C332.555 65.8154 332.713 66.0732 332.783 66.2139H332.818C332.76 65.8799 332.73 65.3145 332.73 64.5176V56.3965H334.743V69ZM347.707 68.1387C346.395 68.8535 344.933 69.2109 343.321 69.2109C341.458 69.2109 339.949 68.6309 338.795 67.4707C337.641 66.3105 337.063 64.7754 337.063 62.8652C337.063 60.9141 337.693 59.3145 338.953 58.0664C340.219 56.8125 341.824 56.1855 343.77 56.1855C345.17 56.1855 346.348 56.3906 347.303 56.8008V58.9541C346.336 58.3096 345.185 57.9873 343.849 57.9873C342.507 57.9873 341.405 58.4297 340.544 59.3145C339.688 60.1992 339.261 61.3447 339.261 62.751C339.261 64.1982 339.63 65.3379 340.368 66.1699C341.106 66.9961 342.108 67.4092 343.374 67.4092C344.241 67.4092 344.991 67.2422 345.624 66.9082V63.9111H342.97V62.1533H347.707V68.1387ZM352.567 69H350.414V56.3965H352.567V69ZM366.366 69H364.081L358.061 59.7363C357.908 59.502 357.782 59.2588 357.683 59.0068H357.63C357.677 59.2764 357.7 59.8535 357.7 60.7383V69H355.679V56.3965H358.113L363.932 65.4404C364.178 65.8154 364.336 66.0732 364.406 66.2139H364.441C364.383 65.8799 364.354 65.3145 364.354 64.5176V56.3965H366.366V69ZM378.917 69H376.412L373.828 64.377C373.752 64.2363 373.667 64.0371 373.573 63.7793H373.538C373.485 63.9082 373.397 64.1074 373.274 64.377L370.611 69H368.089L372.22 62.6631L368.423 56.3965H370.98L373.257 60.6504C373.403 60.9316 373.535 61.2129 373.652 61.4941H373.679C373.849 61.125 373.995 60.832 374.118 60.6152L376.482 56.3965H378.838L374.953 62.6455L378.917 69Z" fill="#333230"/>
<path d="M287.767 109.613C287.191 109.613 286.696 109.411 286.281 109.007C285.866 108.603 285.658 108.114 285.658 107.538C285.658 106.968 285.866 106.476 286.281 106.061C286.696 105.64 287.191 105.43 287.767 105.43C288.342 105.43 288.832 105.637 289.236 106.052C289.64 106.467 289.842 106.963 289.842 107.538C289.842 108.114 289.64 108.603 289.236 109.007C288.832 109.411 288.342 109.613 287.767 109.613ZM301.504 112.519V110.875C301.693 111.041 301.917 111.19 302.177 111.323C302.442 111.456 302.719 111.569 303.007 111.664C303.3 111.752 303.593 111.821 303.887 111.871C304.18 111.921 304.451 111.946 304.7 111.946C305.558 111.946 306.197 111.788 306.618 111.473C307.044 111.152 307.257 110.692 307.257 110.095C307.257 109.774 307.185 109.494 307.041 109.256C306.903 109.018 306.709 108.803 306.46 108.609C306.211 108.41 305.915 108.222 305.572 108.044C305.234 107.862 304.869 107.671 304.476 107.472C304.061 107.261 303.674 107.048 303.314 106.833C302.954 106.617 302.642 106.379 302.376 106.119C302.11 105.859 301.9 105.565 301.745 105.239C301.596 104.907 301.521 104.519 301.521 104.077C301.521 103.534 301.64 103.064 301.878 102.666C302.116 102.262 302.429 101.93 302.816 101.669C303.203 101.409 303.643 101.216 304.136 101.088C304.634 100.961 305.14 100.897 305.655 100.897C306.828 100.897 307.683 101.039 308.22 101.321V102.89C307.517 102.403 306.615 102.159 305.514 102.159C305.209 102.159 304.905 102.192 304.601 102.259C304.296 102.32 304.025 102.422 303.787 102.566C303.549 102.71 303.355 102.895 303.206 103.122C303.057 103.349 302.982 103.626 302.982 103.952C302.982 104.257 303.037 104.519 303.148 104.741C303.264 104.962 303.433 105.164 303.654 105.347C303.876 105.529 304.144 105.706 304.459 105.878C304.78 106.049 305.148 106.238 305.563 106.442C305.99 106.653 306.394 106.874 306.775 107.106C307.157 107.339 307.492 107.596 307.78 107.878C308.068 108.161 308.294 108.473 308.46 108.816C308.632 109.16 308.718 109.552 308.718 109.995C308.718 110.582 308.602 111.08 308.369 111.489C308.142 111.893 307.832 112.222 307.439 112.477C307.052 112.732 306.604 112.914 306.095 113.025C305.586 113.141 305.049 113.199 304.484 113.199C304.296 113.199 304.064 113.183 303.787 113.149C303.51 113.122 303.228 113.077 302.94 113.017C302.653 112.961 302.379 112.892 302.119 112.809C301.864 112.721 301.659 112.624 301.504 112.519ZM310.536 112.519V110.875C310.724 111.041 310.948 111.19 311.208 111.323C311.474 111.456 311.75 111.569 312.038 111.664C312.331 111.752 312.625 111.821 312.918 111.871C313.211 111.921 313.482 111.946 313.731 111.946C314.589 111.946 315.228 111.788 315.649 111.473C316.075 111.152 316.288 110.692 316.288 110.095C316.288 109.774 316.216 109.494 316.072 109.256C315.934 109.018 315.74 108.803 315.491 108.609C315.242 108.41 314.946 108.222 314.603 108.044C314.265 107.862 313.9 107.671 313.507 107.472C313.092 107.261 312.705 107.048 312.345 106.833C311.986 106.617 311.673 106.379 311.407 106.119C311.142 105.859 310.931 105.565 310.776 105.239C310.627 104.907 310.552 104.519 310.552 104.077C310.552 103.534 310.671 103.064 310.909 102.666C311.147 102.262 311.46 101.93 311.847 101.669C312.235 101.409 312.674 101.216 313.167 101.088C313.665 100.961 314.171 100.897 314.686 100.897C315.859 100.897 316.714 101.039 317.251 101.321V102.89C316.548 102.403 315.646 102.159 314.545 102.159C314.241 102.159 313.936 102.192 313.632 102.259C313.327 102.32 313.056 102.422 312.818 102.566C312.58 102.71 312.387 102.895 312.237 103.122C312.088 103.349 312.013 103.626 312.013 103.952C312.013 104.257 312.069 104.519 312.179 104.741C312.295 104.962 312.464 105.164 312.686 105.347C312.907 105.529 313.175 105.706 313.491 105.878C313.812 106.049 314.18 106.238 314.595 106.442C315.021 106.653 315.425 106.874 315.807 107.106C316.188 107.339 316.523 107.596 316.811 107.878C317.099 108.161 317.326 108.473 317.492 108.816C317.663 109.16 317.749 109.552 317.749 109.995C317.749 110.582 317.633 111.08 317.4 111.489C317.174 111.893 316.864 112.222 316.471 112.477C316.083 112.732 315.635 112.914 315.126 113.025C314.617 113.141 314.08 113.199 313.516 113.199C313.327 113.199 313.095 113.183 312.818 113.149C312.542 113.122 312.259 113.077 311.972 113.017C311.684 112.961 311.41 112.892 311.15 112.809C310.895 112.721 310.691 112.624 310.536 112.519ZM326.299 113H320.123V101.097H321.518V111.738H326.299V113ZM336.55 112.917C336.229 113.094 335.806 113.183 335.28 113.183C333.792 113.183 333.047 112.353 333.047 110.692V105.662H331.586V104.5H333.047V102.425L334.409 101.985V104.5H336.55V105.662H334.409V110.452C334.409 111.022 334.506 111.428 334.699 111.672C334.893 111.915 335.214 112.037 335.662 112.037C336.005 112.037 336.301 111.943 336.55 111.755V112.917ZM345.2 109.09H339.198C339.22 110.037 339.475 110.767 339.962 111.282C340.449 111.796 341.118 112.054 341.971 112.054C342.928 112.054 343.808 111.738 344.61 111.107V112.386C343.863 112.928 342.875 113.199 341.647 113.199C340.446 113.199 339.503 112.815 338.816 112.045C338.13 111.271 337.787 110.183 337.787 108.783C337.787 107.461 338.161 106.384 338.908 105.554C339.66 104.719 340.593 104.301 341.705 104.301C342.817 104.301 343.678 104.66 344.287 105.38C344.895 106.099 345.2 107.098 345.2 108.376V109.09ZM343.805 107.937C343.8 107.151 343.609 106.539 343.232 106.102C342.862 105.665 342.344 105.446 341.68 105.446C341.038 105.446 340.493 105.676 340.045 106.135C339.597 106.595 339.32 107.195 339.215 107.937H343.805ZM351.699 105.878C351.461 105.695 351.118 105.604 350.67 105.604C350.089 105.604 349.602 105.878 349.209 106.426C348.822 106.974 348.628 107.721 348.628 108.667V113H347.267V104.5H348.628V106.251H348.661C348.855 105.654 349.151 105.189 349.549 104.857C349.948 104.519 350.393 104.351 350.886 104.351C351.24 104.351 351.511 104.389 351.699 104.467V105.878ZM365.246 113H363.885V108.119C363.885 107.178 363.738 106.498 363.445 106.077C363.157 105.657 362.67 105.446 361.984 105.446C361.403 105.446 360.908 105.712 360.498 106.243C360.094 106.774 359.892 107.411 359.892 108.152V113H358.531V107.953C358.531 106.282 357.886 105.446 356.597 105.446C355.999 105.446 355.507 105.698 355.119 106.202C354.732 106.7 354.538 107.35 354.538 108.152V113H353.177V104.5H354.538V105.845H354.571C355.174 104.815 356.054 104.301 357.211 104.301C357.792 104.301 358.298 104.464 358.73 104.791C359.162 105.111 359.458 105.535 359.618 106.061C360.249 104.887 361.19 104.301 362.44 104.301C364.311 104.301 365.246 105.455 365.246 107.762V113ZM368.517 102.342C368.273 102.342 368.066 102.259 367.894 102.093C367.722 101.927 367.637 101.716 367.637 101.462C367.637 101.207 367.722 100.997 367.894 100.831C368.066 100.66 368.273 100.574 368.517 100.574C368.766 100.574 368.976 100.66 369.147 100.831C369.325 100.997 369.413 101.207 369.413 101.462C369.413 101.705 369.325 101.913 369.147 102.084C368.976 102.256 368.766 102.342 368.517 102.342ZM369.181 113H367.819V104.5H369.181V113ZM378.992 113H377.631V108.152C377.631 106.348 376.972 105.446 375.655 105.446C374.975 105.446 374.41 105.704 373.962 106.218C373.519 106.727 373.298 107.372 373.298 108.152V113H371.937V104.5H373.298V105.911H373.331C373.973 104.838 374.903 104.301 376.12 104.301C377.05 104.301 377.761 104.602 378.253 105.206C378.746 105.803 378.992 106.669 378.992 107.804V113ZM387.65 113H386.289V111.672H386.255C385.663 112.69 384.792 113.199 383.641 113.199C382.794 113.199 382.13 112.975 381.648 112.527C381.173 112.079 380.935 111.484 380.935 110.742C380.935 109.154 381.87 108.23 383.74 107.97L386.289 107.613C386.289 106.168 385.705 105.446 384.537 105.446C383.513 105.446 382.589 105.795 381.765 106.492V105.098C382.6 104.566 383.563 104.301 384.653 104.301C386.651 104.301 387.65 105.358 387.65 107.472V113ZM386.289 108.7L384.238 108.982C383.607 109.071 383.132 109.229 382.811 109.456C382.49 109.677 382.329 110.073 382.329 110.643C382.329 111.058 382.476 111.398 382.769 111.664C383.068 111.924 383.464 112.054 383.956 112.054C384.631 112.054 385.187 111.819 385.625 111.348C386.067 110.872 386.289 110.272 386.289 109.547V108.7ZM394.158 112.917C393.837 113.094 393.413 113.183 392.888 113.183C391.399 113.183 390.655 112.353 390.655 110.692V105.662H389.194V104.5H390.655V102.425L392.016 101.985V104.5H394.158V105.662H392.016V110.452C392.016 111.022 392.113 111.428 392.307 111.672C392.5 111.915 392.821 112.037 393.27 112.037C393.613 112.037 393.909 111.943 394.158 111.755V112.917ZM396.673 102.342C396.429 102.342 396.222 102.259 396.05 102.093C395.879 101.927 395.793 101.716 395.793 101.462C395.793 101.207 395.879 100.997 396.05 100.831C396.222 100.66 396.429 100.574 396.673 100.574C396.922 100.574 397.132 100.66 397.304 100.831C397.481 100.997 397.569 101.207 397.569 101.462C397.569 101.705 397.481 101.913 397.304 102.084C397.132 102.256 396.922 102.342 396.673 102.342ZM397.337 113H395.976V104.5H397.337V113ZM403.646 113.199C402.389 113.199 401.385 112.804 400.632 112.012C399.885 111.215 399.512 110.161 399.512 108.85C399.512 107.422 399.902 106.307 400.682 105.504C401.462 104.702 402.517 104.301 403.845 104.301C405.112 104.301 406.1 104.691 406.808 105.471C407.522 106.251 407.879 107.333 407.879 108.717C407.879 110.073 407.494 111.16 406.725 111.979C405.961 112.792 404.935 113.199 403.646 113.199ZM403.745 105.446C402.871 105.446 402.179 105.745 401.67 106.343C401.161 106.935 400.906 107.754 400.906 108.8C400.906 109.807 401.164 110.601 401.678 111.182C402.193 111.763 402.882 112.054 403.745 112.054C404.625 112.054 405.3 111.769 405.771 111.199C406.246 110.629 406.484 109.818 406.484 108.767C406.484 107.704 406.246 106.885 405.771 106.31C405.3 105.734 404.625 105.446 403.745 105.446ZM417.109 113H415.748V108.152C415.748 106.348 415.09 105.446 413.772 105.446C413.092 105.446 412.527 105.704 412.079 106.218C411.636 106.727 411.415 107.372 411.415 108.152V113H410.054V104.5H411.415V105.911H411.448C412.09 104.838 413.02 104.301 414.237 104.301C415.167 104.301 415.878 104.602 416.371 105.206C416.863 105.803 417.109 106.669 417.109 107.804V113ZM287.767 132.613C287.191 132.613 286.696 132.411 286.281 132.007C285.866 131.603 285.658 131.114 285.658 130.538C285.658 129.968 285.866 129.476 286.281 129.061C286.696 128.64 287.191 128.43 287.767 128.43C288.342 128.43 288.832 128.637 289.236 129.052C289.64 129.467 289.842 129.963 289.842 130.538C289.842 131.114 289.64 131.603 289.236 132.007C288.832 132.411 288.342 132.613 287.767 132.613ZM301.504 135.519V133.875C301.693 134.041 301.917 134.19 302.177 134.323C302.442 134.456 302.719 134.569 303.007 134.664C303.3 134.752 303.593 134.821 303.887 134.871C304.18 134.921 304.451 134.946 304.7 134.946C305.558 134.946 306.197 134.788 306.618 134.473C307.044 134.152 307.257 133.692 307.257 133.095C307.257 132.774 307.185 132.494 307.041 132.256C306.903 132.018 306.709 131.803 306.46 131.609C306.211 131.41 305.915 131.222 305.572 131.044C305.234 130.862 304.869 130.671 304.476 130.472C304.061 130.261 303.674 130.048 303.314 129.833C302.954 129.617 302.642 129.379 302.376 129.119C302.11 128.859 301.9 128.565 301.745 128.239C301.596 127.907 301.521 127.519 301.521 127.077C301.521 126.534 301.64 126.064 301.878 125.666C302.116 125.262 302.429 124.93 302.816 124.669C303.203 124.409 303.643 124.216 304.136 124.088C304.634 123.961 305.14 123.897 305.655 123.897C306.828 123.897 307.683 124.039 308.22 124.321V125.89C307.517 125.403 306.615 125.159 305.514 125.159C305.209 125.159 304.905 125.192 304.601 125.259C304.296 125.32 304.025 125.422 303.787 125.566C303.549 125.71 303.355 125.895 303.206 126.122C303.057 126.349 302.982 126.626 302.982 126.952C302.982 127.257 303.037 127.519 303.148 127.741C303.264 127.962 303.433 128.164 303.654 128.347C303.876 128.529 304.144 128.706 304.459 128.878C304.78 129.049 305.148 129.238 305.563 129.442C305.99 129.653 306.394 129.874 306.775 130.106C307.157 130.339 307.492 130.596 307.78 130.878C308.068 131.161 308.294 131.473 308.46 131.816C308.632 132.16 308.718 132.552 308.718 132.995C308.718 133.582 308.602 134.08 308.369 134.489C308.142 134.893 307.832 135.222 307.439 135.477C307.052 135.732 306.604 135.914 306.095 136.025C305.586 136.141 305.049 136.199 304.484 136.199C304.296 136.199 304.064 136.183 303.787 136.149C303.51 136.122 303.228 136.077 302.94 136.017C302.653 135.961 302.379 135.892 302.119 135.809C301.864 135.721 301.659 135.624 301.504 135.519ZM317.741 132.09H311.739C311.761 133.037 312.016 133.767 312.503 134.282C312.99 134.796 313.66 135.054 314.512 135.054C315.469 135.054 316.349 134.738 317.151 134.107V135.386C316.404 135.928 315.417 136.199 314.188 136.199C312.987 136.199 312.044 135.815 311.357 135.045C310.671 134.271 310.328 133.183 310.328 131.783C310.328 130.461 310.702 129.384 311.449 128.554C312.201 127.719 313.134 127.301 314.246 127.301C315.358 127.301 316.219 127.66 316.828 128.38C317.436 129.099 317.741 130.098 317.741 131.376V132.09ZM316.346 130.937C316.341 130.151 316.15 129.539 315.773 129.102C315.403 128.665 314.885 128.446 314.221 128.446C313.579 128.446 313.034 128.676 312.586 129.135C312.138 129.595 311.861 130.195 311.756 130.937H316.346ZM324.24 128.878C324.002 128.695 323.659 128.604 323.211 128.604C322.63 128.604 322.143 128.878 321.75 129.426C321.363 129.974 321.169 130.721 321.169 131.667V136H319.808V127.5H321.169V129.251H321.202C321.396 128.654 321.692 128.189 322.09 127.857C322.489 127.519 322.934 127.351 323.427 127.351C323.781 127.351 324.052 127.389 324.24 127.467V128.878ZM332.4 127.5L329.013 136H327.677L324.456 127.5H325.95L328.108 133.676C328.269 134.13 328.368 134.525 328.407 134.863H328.44C328.496 134.437 328.584 134.052 328.706 133.709L330.964 127.5H332.4ZM340.701 132.09H334.699C334.721 133.037 334.976 133.767 335.463 134.282C335.95 134.796 336.619 135.054 337.472 135.054C338.429 135.054 339.309 134.738 340.111 134.107V135.386C339.364 135.928 338.376 136.199 337.148 136.199C335.947 136.199 335.004 135.815 334.317 135.045C333.631 134.271 333.288 133.183 333.288 131.783C333.288 130.461 333.662 129.384 334.409 128.554C335.161 127.719 336.094 127.301 337.206 127.301C338.318 127.301 339.179 127.66 339.788 128.38C340.396 129.099 340.701 130.098 340.701 131.376V132.09ZM339.306 130.937C339.301 130.151 339.11 129.539 338.733 129.102C338.363 128.665 337.845 128.446 337.181 128.446C336.539 128.446 335.994 128.676 335.546 129.135C335.098 129.595 334.821 130.195 334.716 130.937H339.306ZM342.253 135.693V134.232C342.994 134.78 343.811 135.054 344.702 135.054C345.897 135.054 346.495 134.655 346.495 133.858C346.495 133.632 346.442 133.441 346.337 133.286C346.237 133.125 346.099 132.984 345.922 132.862C345.75 132.741 345.546 132.633 345.308 132.539C345.075 132.439 344.823 132.337 344.552 132.231C344.176 132.082 343.844 131.933 343.556 131.783C343.274 131.628 343.036 131.457 342.842 131.269C342.654 131.075 342.51 130.856 342.411 130.613C342.317 130.369 342.27 130.084 342.27 129.758C342.27 129.359 342.361 129.008 342.543 128.704C342.726 128.394 342.97 128.136 343.274 127.932C343.578 127.721 343.924 127.564 344.312 127.458C344.704 127.353 345.108 127.301 345.523 127.301C346.259 127.301 346.918 127.428 347.499 127.683V129.061C346.874 128.651 346.154 128.446 345.341 128.446C345.086 128.446 344.857 128.477 344.652 128.538C344.447 128.593 344.27 128.673 344.121 128.778C343.977 128.883 343.863 129.011 343.78 129.16C343.703 129.304 343.664 129.465 343.664 129.642C343.664 129.863 343.703 130.048 343.78 130.198C343.863 130.347 343.982 130.48 344.137 130.596C344.292 130.712 344.48 130.818 344.702 130.912C344.923 131.006 345.175 131.108 345.457 131.219C345.833 131.363 346.171 131.512 346.47 131.667C346.769 131.816 347.023 131.988 347.233 132.182C347.444 132.37 347.604 132.588 347.715 132.837C347.831 133.086 347.889 133.382 347.889 133.726C347.889 134.146 347.795 134.511 347.607 134.821C347.424 135.131 347.178 135.389 346.868 135.593C346.558 135.798 346.201 135.95 345.797 136.05C345.393 136.149 344.97 136.199 344.527 136.199C343.653 136.199 342.895 136.03 342.253 135.693ZM354.14 135.693V134.232C354.881 134.78 355.697 135.054 356.588 135.054C357.784 135.054 358.381 134.655 358.381 133.858C358.381 133.632 358.329 133.441 358.224 133.286C358.124 133.125 357.986 132.984 357.809 132.862C357.637 132.741 357.432 132.633 357.194 132.539C356.962 132.439 356.71 132.337 356.439 132.231C356.063 132.082 355.731 131.933 355.443 131.783C355.161 131.628 354.923 131.457 354.729 131.269C354.541 131.075 354.397 130.856 354.297 130.613C354.203 130.369 354.156 130.084 354.156 129.758C354.156 129.359 354.248 129.008 354.43 128.704C354.613 128.394 354.856 128.136 355.161 127.932C355.465 127.721 355.811 127.564 356.198 127.458C356.591 127.353 356.995 127.301 357.41 127.301C358.146 127.301 358.805 127.428 359.386 127.683V129.061C358.76 128.651 358.041 128.446 357.228 128.446C356.973 128.446 356.743 128.477 356.539 128.538C356.334 128.593 356.157 128.673 356.007 128.778C355.863 128.883 355.75 129.011 355.667 129.16C355.59 129.304 355.551 129.465 355.551 129.642C355.551 129.863 355.59 130.048 355.667 130.198C355.75 130.347 355.869 130.48 356.024 130.596C356.179 130.712 356.367 130.818 356.588 130.912C356.81 131.006 357.062 131.108 357.344 131.219C357.72 131.363 358.058 131.512 358.356 131.667C358.655 131.816 358.91 131.988 359.12 132.182C359.33 132.37 359.491 132.588 359.602 132.837C359.718 133.086 359.776 133.382 359.776 133.726C359.776 134.146 359.682 134.511 359.494 134.821C359.311 135.131 359.065 135.389 358.755 135.593C358.445 135.798 358.088 135.95 357.684 136.05C357.28 136.149 356.857 136.199 356.414 136.199C355.54 136.199 354.782 136.03 354.14 135.693ZM365.819 135.917C365.498 136.094 365.075 136.183 364.549 136.183C363.06 136.183 362.316 135.353 362.316 133.692V128.662H360.855V127.5H362.316V125.425L363.677 124.985V127.5H365.819V128.662H363.677V133.452C363.677 134.022 363.774 134.428 363.968 134.672C364.161 134.915 364.482 135.037 364.931 135.037C365.274 135.037 365.57 134.943 365.819 134.755V135.917ZM373.721 136H372.36V134.672H372.327C371.735 135.69 370.863 136.199 369.712 136.199C368.865 136.199 368.201 135.975 367.72 135.527C367.244 135.079 367.006 134.484 367.006 133.742C367.006 132.154 367.941 131.23 369.812 130.97L372.36 130.613C372.36 129.168 371.776 128.446 370.608 128.446C369.585 128.446 368.66 128.795 367.836 129.492V128.098C368.672 127.566 369.634 127.301 370.725 127.301C372.722 127.301 373.721 128.358 373.721 130.472V136ZM372.36 131.7L370.31 131.982C369.679 132.071 369.203 132.229 368.882 132.456C368.561 132.677 368.4 133.073 368.4 133.643C368.4 134.058 368.547 134.398 368.84 134.664C369.139 134.924 369.535 135.054 370.027 135.054C370.702 135.054 371.259 134.819 371.696 134.348C372.139 133.872 372.36 133.272 372.36 132.547V131.7ZM380.229 135.917C379.908 136.094 379.485 136.183 378.959 136.183C377.47 136.183 376.726 135.353 376.726 133.692V128.662H375.265V127.5H376.726V125.425L378.087 124.985V127.5H380.229V128.662H378.087V133.452C378.087 134.022 378.184 134.428 378.378 134.672C378.572 134.915 378.893 135.037 379.341 135.037C379.684 135.037 379.98 134.943 380.229 134.755V135.917ZM382.744 125.342C382.501 125.342 382.293 125.259 382.122 125.093C381.95 124.927 381.864 124.716 381.864 124.462C381.864 124.207 381.95 123.997 382.122 123.831C382.293 123.66 382.501 123.574 382.744 123.574C382.993 123.574 383.203 123.66 383.375 123.831C383.552 123.997 383.641 124.207 383.641 124.462C383.641 124.705 383.552 124.913 383.375 125.084C383.203 125.256 382.993 125.342 382.744 125.342ZM383.408 136H382.047V127.5H383.408V136ZM391.958 135.61C391.305 136.003 390.53 136.199 389.634 136.199C388.422 136.199 387.442 135.806 386.695 135.021C385.954 134.229 385.583 133.205 385.583 131.949C385.583 130.549 385.984 129.426 386.787 128.579C387.589 127.727 388.66 127.301 389.999 127.301C390.746 127.301 391.405 127.439 391.975 127.716V129.11C391.344 128.668 390.669 128.446 389.949 128.446C389.08 128.446 388.367 128.759 387.808 129.384C387.254 130.004 386.978 130.82 386.978 131.833C386.978 132.829 387.238 133.615 387.758 134.19C388.284 134.766 388.986 135.054 389.866 135.054C390.608 135.054 391.305 134.807 391.958 134.315V135.61ZM402.882 124.611C402.616 124.462 402.315 124.387 401.977 124.387C401.025 124.387 400.549 124.988 400.549 126.188V127.5H402.542V128.662H400.549V136H399.196V128.662H397.744V127.5H399.196V126.122C399.196 125.231 399.454 124.528 399.968 124.014C400.483 123.493 401.125 123.233 401.894 123.233C402.309 123.233 402.638 123.283 402.882 123.383V124.611ZM404.708 125.342C404.465 125.342 404.257 125.259 404.085 125.093C403.914 124.927 403.828 124.716 403.828 124.462C403.828 124.207 403.914 123.997 404.085 123.831C404.257 123.66 404.465 123.574 404.708 123.574C404.957 123.574 405.167 123.66 405.339 123.831C405.516 123.997 405.604 124.207 405.604 124.462C405.604 124.705 405.516 124.913 405.339 125.084C405.167 125.256 404.957 125.342 404.708 125.342ZM405.372 136H404.011V127.5H405.372V136ZM409.489 136H408.128V123.416H409.489V136ZM419.077 132.09H413.075C413.097 133.037 413.352 133.767 413.839 134.282C414.326 134.796 414.995 135.054 415.848 135.054C416.805 135.054 417.685 134.738 418.487 134.107V135.386C417.74 135.928 416.752 136.199 415.524 136.199C414.323 136.199 413.38 135.815 412.693 135.045C412.007 134.271 411.664 133.183 411.664 131.783C411.664 130.461 412.038 129.384 412.785 128.554C413.537 127.719 414.47 127.301 415.582 127.301C416.694 127.301 417.555 127.66 418.164 128.38C418.772 129.099 419.077 130.098 419.077 131.376V132.09ZM417.682 130.937C417.677 130.151 417.486 129.539 417.109 129.102C416.739 128.665 416.221 128.446 415.557 128.446C414.915 128.446 414.37 128.676 413.922 129.135C413.474 129.595 413.197 130.195 413.092 130.937H417.682ZM420.629 135.693V134.232C421.37 134.78 422.187 135.054 423.078 135.054C424.273 135.054 424.871 134.655 424.871 133.858C424.871 133.632 424.818 133.441 424.713 133.286C424.613 133.125 424.475 132.984 424.298 132.862C424.126 132.741 423.922 132.633 423.684 132.539C423.451 132.439 423.199 132.337 422.928 132.231C422.552 132.082 422.22 131.933 421.932 131.783C421.65 131.628 421.412 131.457 421.218 131.269C421.03 131.075 420.886 130.856 420.787 130.613C420.693 130.369 420.646 130.084 420.646 129.758C420.646 129.359 420.737 129.008 420.919 128.704C421.102 128.394 421.346 128.136 421.65 127.932C421.954 127.721 422.3 127.564 422.688 127.458C423.08 127.353 423.484 127.301 423.899 127.301C424.635 127.301 425.294 127.428 425.875 127.683V129.061C425.25 128.651 424.53 128.446 423.717 128.446C423.462 128.446 423.233 128.477 423.028 128.538C422.823 128.593 422.646 128.673 422.497 128.778C422.353 128.883 422.239 129.011 422.156 129.16C422.079 129.304 422.04 129.465 422.04 129.642C422.04 129.863 422.079 130.048 422.156 130.198C422.239 130.347 422.358 130.48 422.513 130.596C422.668 130.712 422.856 130.818 423.078 130.912C423.299 131.006 423.551 131.108 423.833 131.219C424.209 131.363 424.547 131.512 424.846 131.667C425.145 131.816 425.399 131.988 425.609 132.182C425.82 132.37 425.98 132.588 426.091 132.837C426.207 133.086 426.265 133.382 426.265 133.726C426.265 134.146 426.171 134.511 425.983 134.821C425.8 135.131 425.554 135.389 425.244 135.593C424.934 135.798 424.577 135.95 424.173 136.05C423.769 136.149 423.346 136.199 422.903 136.199C422.029 136.199 421.271 136.03 420.629 135.693Z" fill="#333230"/>
<rect x="255" y="30" width="192" height="130" rx="6" stroke="#333230" stroke-opacity="0.5"/>
<rect x="351" y="245" width="248" height="153" rx="6" fill="#F8F8F8"/>
<path d="M464.294 284H461.851L459.838 280.625C459.656 280.314 459.478 280.051 459.302 279.834C459.132 279.611 458.956 279.43 458.774 279.289C458.599 279.148 458.405 279.046 458.194 278.981C457.983 278.917 457.746 278.885 457.482 278.885H456.639V284H454.556V271.396H458.704C459.296 271.396 459.841 271.467 460.339 271.607C460.837 271.748 461.271 271.962 461.64 272.249C462.009 272.53 462.296 272.885 462.501 273.312C462.712 273.734 462.817 274.229 462.817 274.798C462.817 275.243 462.75 275.653 462.615 276.028C462.486 276.397 462.299 276.729 462.053 277.021C461.812 277.309 461.52 277.555 461.174 277.76C460.834 277.965 460.45 278.123 460.022 278.234V278.27C460.251 278.398 460.45 278.542 460.62 278.7C460.79 278.853 460.951 279.011 461.104 279.175C461.256 279.339 461.405 279.526 461.552 279.737C461.704 279.942 461.871 280.183 462.053 280.458L464.294 284ZM456.639 273.093V277.188H458.379C458.701 277.188 458.997 277.139 459.267 277.039C459.542 276.939 459.779 276.796 459.979 276.608C460.178 276.421 460.333 276.192 460.444 275.923C460.556 275.653 460.611 275.352 460.611 275.018C460.611 274.414 460.421 273.942 460.04 273.603C459.659 273.263 459.111 273.093 458.396 273.093H456.639ZM472.688 280.054H466.553C466.576 280.886 466.831 281.527 467.317 281.979C467.81 282.43 468.483 282.655 469.339 282.655C470.3 282.655 471.182 282.368 471.984 281.794V283.438C471.164 283.953 470.08 284.211 468.732 284.211C467.408 284.211 466.368 283.804 465.612 282.989C464.862 282.169 464.487 281.018 464.487 279.535C464.487 278.135 464.9 276.995 465.727 276.116C466.559 275.231 467.59 274.789 468.82 274.789C470.051 274.789 471.003 275.185 471.677 275.976C472.351 276.767 472.688 277.865 472.688 279.271V280.054ZM470.719 278.612C470.713 277.88 470.54 277.312 470.2 276.907C469.86 276.497 469.392 276.292 468.794 276.292C468.208 276.292 467.71 276.506 467.3 276.934C466.896 277.361 466.646 277.921 466.553 278.612H470.719ZM482.812 284H480.773V282.471H480.738C480.082 283.631 479.071 284.211 477.706 284.211C476.599 284.211 475.711 283.81 475.043 283.007C474.381 282.198 474.05 281.1 474.05 279.711C474.05 278.223 474.416 277.03 475.148 276.134C475.887 275.237 476.868 274.789 478.093 274.789C479.306 274.789 480.188 275.275 480.738 276.248H480.773V270.676H482.812V284ZM480.8 279.887V278.709C480.8 278.07 480.592 277.528 480.176 277.083C479.76 276.638 479.229 276.415 478.585 276.415C477.823 276.415 477.223 276.699 476.783 277.268C476.35 277.836 476.133 278.624 476.133 279.632C476.133 280.546 476.341 281.27 476.757 281.803C477.179 282.33 477.744 282.594 478.453 282.594C479.15 282.594 479.716 282.339 480.149 281.829C480.583 281.313 480.8 280.666 480.8 279.887ZM486.504 273.11C486.17 273.11 485.883 273.002 485.643 272.785C485.408 272.568 485.291 272.293 485.291 271.959C485.291 271.625 485.408 271.347 485.643 271.124C485.883 270.901 486.17 270.79 486.504 270.79C486.85 270.79 487.143 270.901 487.383 271.124C487.623 271.347 487.743 271.625 487.743 271.959C487.743 272.275 487.623 272.548 487.383 272.776C487.143 272.999 486.85 273.11 486.504 273.11ZM487.515 284H485.476V275H487.515V284ZM489.624 283.719V281.829C490.386 282.409 491.227 282.699 492.146 282.699C493.377 282.699 493.992 282.336 493.992 281.609C493.992 281.404 493.939 281.231 493.834 281.091C493.729 280.944 493.585 280.815 493.403 280.704C493.228 280.593 493.017 280.493 492.771 280.405C492.53 280.317 492.261 280.218 491.962 280.106C491.593 279.96 491.259 279.805 490.96 279.641C490.667 279.477 490.421 279.292 490.222 279.087C490.028 278.876 489.882 278.639 489.782 278.375C489.683 278.111 489.633 277.804 489.633 277.452C489.633 277.019 489.735 276.638 489.94 276.31C490.146 275.976 490.421 275.697 490.767 275.475C491.112 275.246 491.505 275.076 491.944 274.965C492.384 274.848 492.838 274.789 493.307 274.789C494.139 274.789 494.883 274.915 495.539 275.167V276.951C494.906 276.518 494.18 276.301 493.359 276.301C493.102 276.301 492.867 276.327 492.656 276.38C492.451 276.433 492.275 276.506 492.129 276.6C491.982 276.693 491.868 276.808 491.786 276.942C491.704 277.071 491.663 277.215 491.663 277.373C491.663 277.566 491.704 277.73 491.786 277.865C491.868 278 491.988 278.12 492.146 278.226C492.311 278.325 492.504 278.419 492.727 278.507C492.955 278.589 493.216 278.68 493.509 278.779C493.896 278.938 494.241 279.099 494.546 279.263C494.856 279.427 495.12 279.614 495.337 279.825C495.554 280.03 495.721 280.271 495.838 280.546C495.955 280.815 496.014 281.138 496.014 281.513C496.014 281.97 495.908 282.368 495.697 282.708C495.486 283.048 495.205 283.329 494.854 283.552C494.502 283.774 494.095 283.938 493.632 284.044C493.175 284.155 492.691 284.211 492.182 284.211C491.197 284.211 490.345 284.047 489.624 283.719Z" fill="#333230"/>
<path d="M383.767 324.613C383.191 324.613 382.696 324.411 382.281 324.007C381.866 323.603 381.658 323.114 381.658 322.538C381.658 321.968 381.866 321.476 382.281 321.061C382.696 320.64 383.191 320.43 383.767 320.43C384.342 320.43 384.832 320.637 385.236 321.052C385.64 321.467 385.842 321.963 385.842 322.538C385.842 323.114 385.64 323.603 385.236 324.007C384.832 324.411 384.342 324.613 383.767 324.613ZM397.504 327.519V325.875C397.693 326.041 397.917 326.19 398.177 326.323C398.442 326.456 398.719 326.569 399.007 326.664C399.3 326.752 399.593 326.821 399.887 326.871C400.18 326.921 400.451 326.946 400.7 326.946C401.558 326.946 402.197 326.788 402.618 326.473C403.044 326.152 403.257 325.692 403.257 325.095C403.257 324.774 403.185 324.494 403.041 324.256C402.903 324.018 402.709 323.803 402.46 323.609C402.211 323.41 401.915 323.222 401.572 323.044C401.234 322.862 400.869 322.671 400.476 322.472C400.061 322.261 399.674 322.048 399.314 321.833C398.954 321.617 398.642 321.379 398.376 321.119C398.11 320.859 397.9 320.565 397.745 320.239C397.596 319.907 397.521 319.519 397.521 319.077C397.521 318.534 397.64 318.064 397.878 317.666C398.116 317.262 398.429 316.93 398.816 316.669C399.203 316.409 399.643 316.216 400.136 316.088C400.634 315.961 401.14 315.897 401.655 315.897C402.828 315.897 403.683 316.039 404.22 316.321V317.89C403.517 317.403 402.615 317.159 401.514 317.159C401.209 317.159 400.905 317.192 400.601 317.259C400.296 317.32 400.025 317.422 399.787 317.566C399.549 317.71 399.355 317.895 399.206 318.122C399.057 318.349 398.982 318.626 398.982 318.952C398.982 319.257 399.037 319.519 399.148 319.741C399.264 319.962 399.433 320.164 399.654 320.347C399.876 320.529 400.144 320.706 400.459 320.878C400.78 321.049 401.148 321.238 401.563 321.442C401.99 321.653 402.394 321.874 402.775 322.106C403.157 322.339 403.492 322.596 403.78 322.878C404.068 323.161 404.294 323.473 404.46 323.816C404.632 324.16 404.718 324.552 404.718 324.995C404.718 325.582 404.602 326.08 404.369 326.489C404.142 326.893 403.832 327.222 403.439 327.477C403.052 327.732 402.604 327.914 402.095 328.025C401.586 328.141 401.049 328.199 400.484 328.199C400.296 328.199 400.064 328.183 399.787 328.149C399.51 328.122 399.228 328.077 398.94 328.017C398.653 327.961 398.379 327.892 398.119 327.809C397.864 327.721 397.659 327.624 397.504 327.519ZM410.304 327.917C409.983 328.094 409.56 328.183 409.034 328.183C407.546 328.183 406.801 327.353 406.801 325.692V320.662H405.34V319.5H406.801V317.425L408.163 316.985V319.5H410.304V320.662H408.163V325.452C408.163 326.022 408.259 326.428 408.453 326.672C408.647 326.915 408.968 327.037 409.416 327.037C409.759 327.037 410.055 326.943 410.304 326.755V327.917ZM415.675 328.199C414.419 328.199 413.414 327.804 412.662 327.012C411.915 326.215 411.541 325.161 411.541 323.85C411.541 322.422 411.931 321.307 412.711 320.504C413.492 319.702 414.546 319.301 415.874 319.301C417.141 319.301 418.129 319.691 418.837 320.471C419.551 321.251 419.908 322.333 419.908 323.717C419.908 325.073 419.524 326.16 418.754 326.979C417.991 327.792 416.964 328.199 415.675 328.199ZM415.774 320.446C414.9 320.446 414.208 320.745 413.699 321.343C413.19 321.935 412.936 322.754 412.936 323.8C412.936 324.807 413.193 325.601 413.708 326.182C414.222 326.763 414.911 327.054 415.774 327.054C416.654 327.054 417.329 326.769 417.8 326.199C418.276 325.629 418.514 324.818 418.514 323.767C418.514 322.704 418.276 321.885 417.8 321.31C417.329 320.734 416.654 320.446 415.774 320.446ZM426.516 320.878C426.278 320.695 425.935 320.604 425.486 320.604C424.905 320.604 424.418 320.878 424.025 321.426C423.638 321.974 423.444 322.721 423.444 323.667V328H422.083V319.5H423.444V321.251H423.478C423.671 320.654 423.967 320.189 424.366 319.857C424.764 319.519 425.21 319.351 425.702 319.351C426.056 319.351 426.327 319.389 426.516 319.467V320.878ZM434.825 324.09H428.823C428.845 325.037 429.1 325.767 429.587 326.282C430.074 326.796 430.743 327.054 431.596 327.054C432.553 327.054 433.433 326.738 434.235 326.107V327.386C433.488 327.928 432.5 328.199 431.272 328.199C430.071 328.199 429.128 327.815 428.441 327.045C427.755 326.271 427.412 325.183 427.412 323.783C427.412 322.461 427.786 321.384 428.533 320.554C429.285 319.719 430.218 319.301 431.33 319.301C432.442 319.301 433.303 319.66 433.912 320.38C434.52 321.099 434.825 322.098 434.825 323.376V324.09ZM433.43 322.937C433.425 322.151 433.234 321.539 432.857 321.102C432.487 320.665 431.969 320.446 431.305 320.446C430.663 320.446 430.118 320.676 429.67 321.135C429.222 321.595 428.945 322.195 428.84 322.937H433.43ZM436.377 327.693V326.232C437.118 326.78 437.935 327.054 438.826 327.054C440.021 327.054 440.619 326.655 440.619 325.858C440.619 325.632 440.566 325.441 440.461 325.286C440.361 325.125 440.223 324.984 440.046 324.862C439.874 324.741 439.67 324.633 439.432 324.539C439.199 324.439 438.947 324.337 438.676 324.231C438.3 324.082 437.968 323.933 437.68 323.783C437.398 323.628 437.16 323.457 436.966 323.269C436.778 323.075 436.634 322.856 436.535 322.613C436.441 322.369 436.394 322.084 436.394 321.758C436.394 321.359 436.485 321.008 436.667 320.704C436.85 320.394 437.094 320.136 437.398 319.932C437.702 319.721 438.048 319.564 438.436 319.458C438.828 319.353 439.232 319.301 439.647 319.301C440.383 319.301 441.042 319.428 441.623 319.683V321.061C440.998 320.651 440.278 320.446 439.465 320.446C439.21 320.446 438.981 320.477 438.776 320.538C438.571 320.593 438.394 320.673 438.245 320.778C438.101 320.883 437.987 321.011 437.904 321.16C437.827 321.304 437.788 321.465 437.788 321.642C437.788 321.863 437.827 322.048 437.904 322.198C437.987 322.347 438.106 322.48 438.261 322.596C438.416 322.712 438.604 322.818 438.826 322.912C439.047 323.006 439.299 323.108 439.581 323.219C439.957 323.363 440.295 323.512 440.594 323.667C440.893 323.816 441.147 323.988 441.357 324.182C441.568 324.37 441.728 324.588 441.839 324.837C441.955 325.086 442.013 325.382 442.013 325.726C442.013 326.146 441.919 326.511 441.731 326.821C441.548 327.131 441.302 327.389 440.992 327.593C440.682 327.798 440.325 327.95 439.921 328.05C439.517 328.149 439.094 328.199 438.651 328.199C437.777 328.199 437.019 328.03 436.377 327.693ZM448.405 327.519V325.875C448.593 326.041 448.817 326.19 449.077 326.323C449.343 326.456 449.619 326.569 449.907 326.664C450.201 326.752 450.494 326.821 450.787 326.871C451.08 326.921 451.352 326.946 451.601 326.946C452.458 326.946 453.097 326.788 453.518 326.473C453.944 326.152 454.157 325.692 454.157 325.095C454.157 324.774 454.085 324.494 453.941 324.256C453.803 324.018 453.609 323.803 453.36 323.609C453.111 323.41 452.815 323.222 452.472 323.044C452.135 322.862 451.769 322.671 451.376 322.472C450.961 322.261 450.574 322.048 450.214 321.833C449.855 321.617 449.542 321.379 449.276 321.119C449.011 320.859 448.8 320.565 448.646 320.239C448.496 319.907 448.421 319.519 448.421 319.077C448.421 318.534 448.54 318.064 448.778 317.666C449.016 317.262 449.329 316.93 449.716 316.669C450.104 316.409 450.544 316.216 451.036 316.088C451.534 315.961 452.041 315.897 452.555 315.897C453.728 315.897 454.583 316.039 455.12 316.321V317.89C454.417 317.403 453.515 317.159 452.414 317.159C452.11 317.159 451.805 317.192 451.501 317.259C451.197 317.32 450.925 317.422 450.688 317.566C450.45 317.71 450.256 317.895 450.106 318.122C449.957 318.349 449.882 318.626 449.882 318.952C449.882 319.257 449.938 319.519 450.048 319.741C450.165 319.962 450.333 320.164 450.555 320.347C450.776 320.529 451.044 320.706 451.36 320.878C451.681 321.049 452.049 321.238 452.464 321.442C452.89 321.653 453.294 321.874 453.676 322.106C454.058 322.339 454.392 322.596 454.68 322.878C454.968 323.161 455.195 323.473 455.361 323.816C455.532 324.16 455.618 324.552 455.618 324.995C455.618 325.582 455.502 326.08 455.27 326.489C455.043 326.893 454.733 327.222 454.34 327.477C453.952 327.732 453.504 327.914 452.995 328.025C452.486 328.141 451.949 328.199 451.385 328.199C451.197 328.199 450.964 328.183 450.688 328.149C450.411 328.122 450.129 328.077 449.841 328.017C449.553 327.961 449.279 327.892 449.019 327.809C448.764 327.721 448.56 327.624 448.405 327.519ZM457.436 327.519V325.875C457.624 326.041 457.848 326.19 458.108 326.323C458.374 326.456 458.651 326.569 458.938 326.664C459.232 326.752 459.525 326.821 459.818 326.871C460.112 326.921 460.383 326.946 460.632 326.946C461.49 326.946 462.129 326.788 462.549 326.473C462.975 326.152 463.188 325.692 463.188 325.095C463.188 324.774 463.117 324.494 462.973 324.256C462.834 324.018 462.641 323.803 462.392 323.609C462.143 323.41 461.847 323.222 461.503 323.044C461.166 322.862 460.801 322.671 460.408 322.472C459.993 322.261 459.605 322.048 459.246 321.833C458.886 321.617 458.573 321.379 458.308 321.119C458.042 320.859 457.832 320.565 457.677 320.239C457.527 319.907 457.453 319.519 457.453 319.077C457.453 318.534 457.572 318.064 457.81 317.666C458.048 317.262 458.36 316.93 458.748 316.669C459.135 316.409 459.575 316.216 460.067 316.088C460.565 315.961 461.072 315.897 461.586 315.897C462.76 315.897 463.615 316.039 464.151 316.321V317.89C463.449 317.403 462.547 317.159 461.445 317.159C461.141 317.159 460.837 317.192 460.532 317.259C460.228 317.32 459.957 317.422 459.719 317.566C459.481 317.71 459.287 317.895 459.138 318.122C458.988 318.349 458.914 318.626 458.914 318.952C458.914 319.257 458.969 319.519 459.08 319.741C459.196 319.962 459.365 320.164 459.586 320.347C459.807 320.529 460.076 320.706 460.391 320.878C460.712 321.049 461.08 321.238 461.495 321.442C461.921 321.653 462.325 321.874 462.707 322.106C463.089 322.339 463.424 322.596 463.711 322.878C463.999 323.161 464.226 323.473 464.392 323.816C464.564 324.16 464.649 324.552 464.649 324.995C464.649 325.582 464.533 326.08 464.301 326.489C464.074 326.893 463.764 327.222 463.371 327.477C462.984 327.732 462.535 327.914 462.026 328.025C461.517 328.141 460.98 328.199 460.416 328.199C460.228 328.199 459.995 328.183 459.719 328.149C459.442 328.122 459.16 328.077 458.872 328.017C458.584 327.961 458.31 327.892 458.05 327.809C457.796 327.721 457.591 327.624 457.436 327.519ZM473.199 328H467.023V316.097H468.418V326.738H473.199V328ZM485.302 327.61C484.649 328.003 483.874 328.199 482.978 328.199C481.766 328.199 480.786 327.806 480.039 327.021C479.298 326.229 478.927 325.205 478.927 323.949C478.927 322.549 479.328 321.426 480.13 320.579C480.933 319.727 482.004 319.301 483.343 319.301C484.09 319.301 484.748 319.439 485.318 319.716V321.11C484.688 320.668 484.012 320.446 483.293 320.446C482.424 320.446 481.71 320.759 481.151 321.384C480.598 322.004 480.321 322.82 480.321 323.833C480.321 324.829 480.581 325.615 481.102 326.19C481.627 326.766 482.33 327.054 483.21 327.054C483.951 327.054 484.649 326.807 485.302 326.315V327.61ZM494.192 324.09H488.19C488.213 325.037 488.467 325.767 488.954 326.282C489.441 326.796 490.111 327.054 490.963 327.054C491.92 327.054 492.8 326.738 493.603 326.107V327.386C492.855 327.928 491.868 328.199 490.639 328.199C489.438 328.199 488.495 327.815 487.809 327.045C487.122 326.271 486.779 325.183 486.779 323.783C486.779 322.461 487.153 321.384 487.9 320.554C488.653 319.719 489.585 319.301 490.697 319.301C491.81 319.301 492.67 319.66 493.279 320.38C493.888 321.099 494.192 322.098 494.192 323.376V324.09ZM492.797 322.937C492.792 322.151 492.601 321.539 492.225 321.102C491.854 320.665 491.336 320.446 490.672 320.446C490.03 320.446 489.485 320.676 489.037 321.135C488.589 321.595 488.312 322.195 488.207 322.937H492.797ZM500.691 320.878C500.453 320.695 500.11 320.604 499.662 320.604C499.081 320.604 498.594 320.878 498.201 321.426C497.814 321.974 497.62 322.721 497.62 323.667V328H496.259V319.5H497.62V321.251H497.653C497.847 320.654 498.143 320.189 498.542 319.857C498.94 319.519 499.385 319.351 499.878 319.351C500.232 319.351 500.503 319.389 500.691 319.467V320.878ZM506.112 327.917C505.791 328.094 505.368 328.183 504.842 328.183C503.353 328.183 502.609 327.353 502.609 325.692V320.662H501.148V319.5H502.609V317.425L503.97 316.985V319.5H506.112V320.662H503.97V325.452C503.97 326.022 504.067 326.428 504.261 326.672C504.454 326.915 504.775 327.037 505.224 327.037C505.567 327.037 505.863 326.943 506.112 326.755V327.917ZM508.627 317.342C508.383 317.342 508.176 317.259 508.004 317.093C507.833 316.927 507.747 316.716 507.747 316.462C507.747 316.207 507.833 315.997 508.004 315.831C508.176 315.66 508.383 315.574 508.627 315.574C508.876 315.574 509.086 315.66 509.258 315.831C509.435 315.997 509.523 316.207 509.523 316.462C509.523 316.705 509.435 316.913 509.258 317.084C509.086 317.256 508.876 317.342 508.627 317.342ZM509.291 328H507.93V319.5H509.291V328ZM516.247 316.611C515.981 316.462 515.68 316.387 515.342 316.387C514.39 316.387 513.915 316.988 513.915 318.188V319.5H515.907V320.662H513.915V328H512.562V320.662H511.109V319.5H512.562V318.122C512.562 317.231 512.819 316.528 513.333 316.014C513.848 315.493 514.49 315.233 515.259 315.233C515.674 315.233 516.004 315.283 516.247 315.383V316.611ZM518.073 317.342C517.83 317.342 517.622 317.259 517.451 317.093C517.279 316.927 517.193 316.716 517.193 316.462C517.193 316.207 517.279 315.997 517.451 315.831C517.622 315.66 517.83 315.574 518.073 315.574C518.322 315.574 518.533 315.66 518.704 315.831C518.881 315.997 518.97 316.207 518.97 316.462C518.97 316.705 518.881 316.913 518.704 317.084C518.533 317.256 518.322 317.342 518.073 317.342ZM518.737 328H517.376V319.5H518.737V328ZM527.287 327.61C526.634 328.003 525.859 328.199 524.963 328.199C523.751 328.199 522.771 327.806 522.024 327.021C521.283 326.229 520.912 325.205 520.912 323.949C520.912 322.549 521.313 321.426 522.116 320.579C522.918 319.727 523.989 319.301 525.328 319.301C526.075 319.301 526.734 319.439 527.304 319.716V321.11C526.673 320.668 525.998 320.446 525.278 320.446C524.41 320.446 523.696 320.759 523.137 321.384C522.583 322.004 522.307 322.82 522.307 323.833C522.307 324.829 522.567 325.615 523.087 326.19C523.613 326.766 524.315 327.054 525.195 327.054C525.937 327.054 526.634 326.807 527.287 326.315V327.61ZM535.43 328H534.069V326.672H534.036C533.444 327.69 532.572 328.199 531.421 328.199C530.574 328.199 529.91 327.975 529.429 327.527C528.953 327.079 528.715 326.484 528.715 325.742C528.715 324.154 529.65 323.23 531.521 322.97L534.069 322.613C534.069 321.168 533.485 320.446 532.317 320.446C531.294 320.446 530.369 320.795 529.545 321.492V320.098C530.381 319.566 531.343 319.301 532.434 319.301C534.431 319.301 535.43 320.358 535.43 322.472V328ZM534.069 323.7L532.019 323.982C531.388 324.071 530.912 324.229 530.591 324.456C530.27 324.677 530.109 325.073 530.109 325.643C530.109 326.058 530.256 326.398 530.549 326.664C530.848 326.924 531.244 327.054 531.736 327.054C532.411 327.054 532.968 326.819 533.405 326.348C533.847 325.872 534.069 325.272 534.069 324.547V323.7ZM541.938 327.917C541.617 328.094 541.194 328.183 540.668 328.183C539.179 328.183 538.435 327.353 538.435 325.692V320.662H536.974V319.5H538.435V317.425L539.796 316.985V319.5H541.938V320.662H539.796V325.452C539.796 326.022 539.893 326.428 540.087 326.672C540.281 326.915 540.602 327.037 541.05 327.037C541.393 327.037 541.689 326.943 541.938 326.755V327.917ZM550.587 324.09H544.586C544.608 325.037 544.863 325.767 545.35 326.282C545.837 326.796 546.506 327.054 547.358 327.054C548.316 327.054 549.196 326.738 549.998 326.107V327.386C549.251 327.928 548.263 328.199 547.035 328.199C545.834 328.199 544.89 327.815 544.204 327.045C543.518 326.271 543.175 325.183 543.175 323.783C543.175 322.461 543.548 321.384 544.295 320.554C545.048 319.719 545.98 319.301 547.093 319.301C548.205 319.301 549.066 319.66 549.674 320.38C550.283 321.099 550.587 322.098 550.587 323.376V324.09ZM549.193 322.937C549.187 322.151 548.996 321.539 548.62 321.102C548.249 320.665 547.732 320.446 547.068 320.446C546.426 320.446 545.881 320.676 545.433 321.135C544.984 321.595 544.708 322.195 544.603 322.937H549.193ZM552.14 327.693V326.232C552.881 326.78 553.697 327.054 554.588 327.054C555.784 327.054 556.381 326.655 556.381 325.858C556.381 325.632 556.329 325.441 556.224 325.286C556.124 325.125 555.986 324.984 555.809 324.862C555.637 324.741 555.432 324.633 555.194 324.539C554.962 324.439 554.71 324.337 554.439 324.231C554.063 324.082 553.731 323.933 553.443 323.783C553.161 323.628 552.923 323.457 552.729 323.269C552.541 323.075 552.397 322.856 552.297 322.613C552.203 322.369 552.156 322.084 552.156 321.758C552.156 321.359 552.248 321.008 552.43 320.704C552.613 320.394 552.856 320.136 553.161 319.932C553.465 319.721 553.811 319.564 554.198 319.458C554.591 319.353 554.995 319.301 555.41 319.301C556.146 319.301 556.805 319.428 557.386 319.683V321.061C556.76 320.651 556.041 320.446 555.228 320.446C554.973 320.446 554.743 320.477 554.539 320.538C554.334 320.593 554.157 320.673 554.007 320.778C553.863 320.883 553.75 321.011 553.667 321.16C553.59 321.304 553.551 321.465 553.551 321.642C553.551 321.863 553.59 322.048 553.667 322.198C553.75 322.347 553.869 322.48 554.024 322.596C554.179 322.712 554.367 322.818 554.588 322.912C554.81 323.006 555.062 323.108 555.344 323.219C555.72 323.363 556.058 323.512 556.356 323.667C556.655 323.816 556.91 323.988 557.12 324.182C557.33 324.37 557.491 324.588 557.602 324.837C557.718 325.086 557.776 325.382 557.776 325.726C557.776 326.146 557.682 326.511 557.494 326.821C557.311 327.131 557.065 327.389 556.755 327.593C556.445 327.798 556.088 327.95 555.684 328.05C555.28 328.149 554.857 328.199 554.414 328.199C553.54 328.199 552.782 328.03 552.14 327.693ZM383.767 347.613C383.191 347.613 382.696 347.411 382.281 347.007C381.866 346.603 381.658 346.114 381.658 345.538C381.658 344.968 381.866 344.476 382.281 344.061C382.696 343.64 383.191 343.43 383.767 343.43C384.342 343.43 384.832 343.637 385.236 344.052C385.64 344.467 385.842 344.963 385.842 345.538C385.842 346.114 385.64 346.603 385.236 347.007C384.832 347.411 384.342 347.613 383.767 347.613ZM397.504 350.519V348.875C397.693 349.041 397.917 349.19 398.177 349.323C398.442 349.456 398.719 349.569 399.007 349.664C399.3 349.752 399.593 349.821 399.887 349.871C400.18 349.921 400.451 349.946 400.7 349.946C401.558 349.946 402.197 349.788 402.618 349.473C403.044 349.152 403.257 348.692 403.257 348.095C403.257 347.774 403.185 347.494 403.041 347.256C402.903 347.018 402.709 346.803 402.46 346.609C402.211 346.41 401.915 346.222 401.572 346.044C401.234 345.862 400.869 345.671 400.476 345.472C400.061 345.261 399.674 345.048 399.314 344.833C398.954 344.617 398.642 344.379 398.376 344.119C398.11 343.859 397.9 343.565 397.745 343.239C397.596 342.907 397.521 342.519 397.521 342.077C397.521 341.534 397.64 341.064 397.878 340.666C398.116 340.262 398.429 339.93 398.816 339.669C399.203 339.409 399.643 339.216 400.136 339.088C400.634 338.961 401.14 338.897 401.655 338.897C402.828 338.897 403.683 339.039 404.22 339.321V340.89C403.517 340.403 402.615 340.159 401.514 340.159C401.209 340.159 400.905 340.192 400.601 340.259C400.296 340.32 400.025 340.422 399.787 340.566C399.549 340.71 399.355 340.895 399.206 341.122C399.057 341.349 398.982 341.626 398.982 341.952C398.982 342.257 399.037 342.519 399.148 342.741C399.264 342.962 399.433 343.164 399.654 343.347C399.876 343.529 400.144 343.706 400.459 343.878C400.78 344.049 401.148 344.238 401.563 344.442C401.99 344.653 402.394 344.874 402.775 345.106C403.157 345.339 403.492 345.596 403.78 345.878C404.068 346.161 404.294 346.473 404.46 346.816C404.632 347.16 404.718 347.552 404.718 347.995C404.718 348.582 404.602 349.08 404.369 349.489C404.142 349.893 403.832 350.222 403.439 350.477C403.052 350.732 402.604 350.914 402.095 351.025C401.586 351.141 401.049 351.199 400.484 351.199C400.296 351.199 400.064 351.183 399.787 351.149C399.51 351.122 399.228 351.077 398.94 351.017C398.653 350.961 398.379 350.892 398.119 350.809C397.864 350.721 397.659 350.624 397.504 350.519ZM410.304 350.917C409.983 351.094 409.56 351.183 409.034 351.183C407.546 351.183 406.801 350.353 406.801 348.692V343.662H405.34V342.5H406.801V340.425L408.163 339.985V342.5H410.304V343.662H408.163V348.452C408.163 349.022 408.259 349.428 408.453 349.672C408.647 349.915 408.968 350.037 409.416 350.037C409.759 350.037 410.055 349.943 410.304 349.755V350.917ZM415.675 351.199C414.419 351.199 413.414 350.804 412.662 350.012C411.915 349.215 411.541 348.161 411.541 346.85C411.541 345.422 411.931 344.307 412.711 343.504C413.492 342.702 414.546 342.301 415.874 342.301C417.141 342.301 418.129 342.691 418.837 343.471C419.551 344.251 419.908 345.333 419.908 346.717C419.908 348.073 419.524 349.16 418.754 349.979C417.991 350.792 416.964 351.199 415.675 351.199ZM415.774 343.446C414.9 343.446 414.208 343.745 413.699 344.343C413.19 344.935 412.936 345.754 412.936 346.8C412.936 347.807 413.193 348.601 413.708 349.182C414.222 349.763 414.911 350.054 415.774 350.054C416.654 350.054 417.329 349.769 417.8 349.199C418.276 348.629 418.514 347.818 418.514 346.767C418.514 345.704 418.276 344.885 417.8 344.31C417.329 343.734 416.654 343.446 415.774 343.446ZM426.516 343.878C426.278 343.695 425.935 343.604 425.486 343.604C424.905 343.604 424.418 343.878 424.025 344.426C423.638 344.974 423.444 345.721 423.444 346.667V351H422.083V342.5H423.444V344.251H423.478C423.671 343.654 423.967 343.189 424.366 342.857C424.764 342.519 425.21 342.351 425.702 342.351C426.056 342.351 426.327 342.389 426.516 342.467V343.878ZM434.825 347.09H428.823C428.845 348.037 429.1 348.767 429.587 349.282C430.074 349.796 430.743 350.054 431.596 350.054C432.553 350.054 433.433 349.738 434.235 349.107V350.386C433.488 350.928 432.5 351.199 431.272 351.199C430.071 351.199 429.128 350.815 428.441 350.045C427.755 349.271 427.412 348.183 427.412 346.783C427.412 345.461 427.786 344.384 428.533 343.554C429.285 342.719 430.218 342.301 431.33 342.301C432.442 342.301 433.303 342.66 433.912 343.38C434.52 344.099 434.825 345.098 434.825 346.376V347.09ZM433.43 345.937C433.425 345.151 433.234 344.539 432.857 344.102C432.487 343.665 431.969 343.446 431.305 343.446C430.663 343.446 430.118 343.676 429.67 344.135C429.222 344.595 428.945 345.195 428.84 345.937H433.43ZM436.377 350.693V349.232C437.118 349.78 437.935 350.054 438.826 350.054C440.021 350.054 440.619 349.655 440.619 348.858C440.619 348.632 440.566 348.441 440.461 348.286C440.361 348.125 440.223 347.984 440.046 347.862C439.874 347.741 439.67 347.633 439.432 347.539C439.199 347.439 438.947 347.337 438.676 347.231C438.3 347.082 437.968 346.933 437.68 346.783C437.398 346.628 437.16 346.457 436.966 346.269C436.778 346.075 436.634 345.856 436.535 345.613C436.441 345.369 436.394 345.084 436.394 344.758C436.394 344.359 436.485 344.008 436.667 343.704C436.85 343.394 437.094 343.136 437.398 342.932C437.702 342.721 438.048 342.564 438.436 342.458C438.828 342.353 439.232 342.301 439.647 342.301C440.383 342.301 441.042 342.428 441.623 342.683V344.061C440.998 343.651 440.278 343.446 439.465 343.446C439.21 343.446 438.981 343.477 438.776 343.538C438.571 343.593 438.394 343.673 438.245 343.778C438.101 343.883 437.987 344.011 437.904 344.16C437.827 344.304 437.788 344.465 437.788 344.642C437.788 344.863 437.827 345.048 437.904 345.198C437.987 345.347 438.106 345.48 438.261 345.596C438.416 345.712 438.604 345.818 438.826 345.912C439.047 346.006 439.299 346.108 439.581 346.219C439.957 346.363 440.295 346.512 440.594 346.667C440.893 346.816 441.147 346.988 441.357 347.182C441.568 347.37 441.728 347.588 441.839 347.837C441.955 348.086 442.013 348.382 442.013 348.726C442.013 349.146 441.919 349.511 441.731 349.821C441.548 350.131 441.302 350.389 440.992 350.593C440.682 350.798 440.325 350.95 439.921 351.05C439.517 351.149 439.094 351.199 438.651 351.199C437.777 351.199 437.019 351.03 436.377 350.693ZM454.863 351H453.501V349.672H453.468C452.876 350.69 452.005 351.199 450.854 351.199C450.007 351.199 449.343 350.975 448.861 350.527C448.385 350.079 448.147 349.484 448.147 348.742C448.147 347.154 449.083 346.23 450.953 345.97L453.501 345.613C453.501 344.168 452.918 343.446 451.75 343.446C450.726 343.446 449.802 343.795 448.978 344.492V343.098C449.813 342.566 450.776 342.301 451.866 342.301C453.864 342.301 454.863 343.358 454.863 345.472V351ZM453.501 346.7L451.451 346.982C450.82 347.071 450.344 347.229 450.023 347.456C449.702 347.677 449.542 348.073 449.542 348.643C449.542 349.058 449.689 349.398 449.982 349.664C450.281 349.924 450.676 350.054 451.169 350.054C451.844 350.054 452.4 349.819 452.837 349.348C453.28 348.872 453.501 348.272 453.501 347.547V346.7ZM458.789 351H457.428V338.416H458.789V351ZM462.906 351H461.545V338.416H462.906V351ZM477.582 351H476.221V349.556H476.188C475.557 350.651 474.583 351.199 473.266 351.199C472.198 351.199 471.343 350.82 470.701 350.062C470.064 349.298 469.746 348.261 469.746 346.949C469.746 345.544 470.1 344.417 470.809 343.571C471.517 342.724 472.46 342.301 473.639 342.301C474.807 342.301 475.656 342.76 476.188 343.679H476.221V338.416H477.582V351ZM476.221 347.157V345.903C476.221 345.217 475.994 344.636 475.54 344.16C475.086 343.684 474.511 343.446 473.813 343.446C472.983 343.446 472.33 343.751 471.854 344.359C471.379 344.968 471.141 345.809 471.141 346.883C471.141 347.862 471.368 348.637 471.821 349.207C472.281 349.771 472.895 350.054 473.664 350.054C474.422 350.054 475.036 349.78 475.507 349.232C475.983 348.684 476.221 347.992 476.221 347.157ZM486.422 351H485.061V349.672H485.028C484.436 350.69 483.564 351.199 482.413 351.199C481.566 351.199 480.902 350.975 480.421 350.527C479.945 350.079 479.707 349.484 479.707 348.742C479.707 347.154 480.642 346.23 482.513 345.97L485.061 345.613C485.061 344.168 484.477 343.446 483.31 343.446C482.286 343.446 481.362 343.795 480.537 344.492V343.098C481.373 342.566 482.336 342.301 483.426 342.301C485.424 342.301 486.422 343.358 486.422 345.472V351ZM485.061 346.7L483.011 346.982C482.38 347.071 481.904 347.229 481.583 347.456C481.262 347.677 481.102 348.073 481.102 348.643C481.102 349.058 481.248 349.398 481.542 349.664C481.84 349.924 482.236 350.054 482.729 350.054C483.404 350.054 483.96 349.819 484.397 349.348C484.84 348.872 485.061 348.272 485.061 347.547V346.7ZM492.93 350.917C492.609 351.094 492.186 351.183 491.66 351.183C490.172 351.183 489.427 350.353 489.427 348.692V343.662H487.966V342.5H489.427V340.425L490.789 339.985V342.5H492.93V343.662H490.789V348.452C490.789 349.022 490.885 349.428 491.079 349.672C491.273 349.915 491.594 350.037 492.042 350.037C492.385 350.037 492.681 349.943 492.93 349.755V350.917ZM500.833 351H499.471V349.672H499.438C498.846 350.69 497.974 351.199 496.823 351.199C495.977 351.199 495.312 350.975 494.831 350.527C494.355 350.079 494.117 349.484 494.117 348.742C494.117 347.154 495.052 346.23 496.923 345.97L499.471 345.613C499.471 344.168 498.887 343.446 497.72 343.446C496.696 343.446 495.772 343.795 494.947 344.492V343.098C495.783 342.566 496.746 342.301 497.836 342.301C499.834 342.301 500.833 343.358 500.833 345.472V351ZM499.471 346.7L497.421 346.982C496.79 347.071 496.314 347.229 495.993 347.456C495.672 347.677 495.512 348.073 495.512 348.643C495.512 349.058 495.658 349.398 495.952 349.664C496.25 349.924 496.646 350.054 497.139 350.054C497.814 350.054 498.37 349.819 498.807 349.348C499.25 348.872 499.471 348.272 499.471 347.547V346.7ZM512.005 350.917C511.684 351.094 511.261 351.183 510.735 351.183C509.247 351.183 508.502 350.353 508.502 348.692V343.662H507.042V342.5H508.502V340.425L509.864 339.985V342.5H512.005V343.662H509.864V348.452C509.864 349.022 509.961 349.428 510.154 349.672C510.348 349.915 510.669 350.037 511.117 350.037C511.46 350.037 511.756 349.943 512.005 349.755V350.917ZM520.879 351H519.518V346.103C519.518 344.332 518.859 343.446 517.542 343.446C516.878 343.446 516.319 343.704 515.865 344.218C515.411 344.727 515.185 345.383 515.185 346.186V351H513.823V338.416H515.185V343.911H515.218C515.871 342.838 516.8 342.301 518.007 342.301C519.922 342.301 520.879 343.455 520.879 345.762V351ZM529.537 351H528.175V349.672H528.142C527.55 350.69 526.678 351.199 525.527 351.199C524.681 351.199 524.017 350.975 523.535 350.527C523.059 350.079 522.821 349.484 522.821 348.742C522.821 347.154 523.757 346.23 525.627 345.97L528.175 345.613C528.175 344.168 527.591 343.446 526.424 343.446C525.4 343.446 524.476 343.795 523.651 344.492V343.098C524.487 342.566 525.45 342.301 526.54 342.301C528.538 342.301 529.537 343.358 529.537 345.472V351ZM528.175 346.7L526.125 346.982C525.494 347.071 525.018 347.229 524.697 347.456C524.376 347.677 524.216 348.073 524.216 348.643C524.216 349.058 524.362 349.398 524.656 349.664C524.955 349.924 525.35 350.054 525.843 350.054C526.518 350.054 527.074 349.819 527.511 349.348C527.954 348.872 528.175 348.272 528.175 347.547V346.7ZM536.044 350.917C535.723 351.094 535.3 351.183 534.774 351.183C533.286 351.183 532.542 350.353 532.542 348.692V343.662H531.081V342.5H532.542V340.425L533.903 339.985V342.5H536.044V343.662H533.903V348.452C533.903 349.022 534 349.428 534.193 349.672C534.387 349.915 534.708 350.037 535.156 350.037C535.499 350.037 535.795 349.943 536.044 349.755V350.917ZM403.672 373.61C403.019 374.003 402.244 374.199 401.348 374.199C400.136 374.199 399.156 373.806 398.409 373.021C397.668 372.229 397.297 371.205 397.297 369.949C397.297 368.549 397.698 367.426 398.5 366.579C399.303 365.727 400.374 365.301 401.713 365.301C402.46 365.301 403.118 365.439 403.688 365.716V367.11C403.058 366.668 402.382 366.446 401.663 366.446C400.794 366.446 400.08 366.759 399.521 367.384C398.968 368.004 398.691 368.82 398.691 369.833C398.691 370.829 398.951 371.615 399.472 372.19C399.997 372.766 400.7 373.054 401.58 373.054C402.322 373.054 403.019 372.807 403.672 372.315V373.61ZM411.815 374H410.454V372.672H410.42C409.828 373.69 408.957 374.199 407.806 374.199C406.959 374.199 406.295 373.975 405.813 373.527C405.338 373.079 405.1 372.484 405.1 371.742C405.1 370.154 406.035 369.23 407.905 368.97L410.454 368.613C410.454 367.168 409.87 366.446 408.702 366.446C407.678 366.446 406.754 366.795 405.93 367.492V366.098C406.765 365.566 407.728 365.301 408.818 365.301C410.816 365.301 411.815 366.358 411.815 368.472V374ZM410.454 369.7L408.403 369.982C407.772 370.071 407.297 370.229 406.976 370.456C406.655 370.677 406.494 371.073 406.494 371.643C406.494 372.058 406.641 372.398 406.934 372.664C407.233 372.924 407.629 373.054 408.121 373.054C408.796 373.054 409.352 372.819 409.79 372.348C410.232 371.872 410.454 371.272 410.454 370.547V369.7ZM421.436 374H420.074V369.152C420.074 367.348 419.416 366.446 418.099 366.446C417.418 366.446 416.854 366.704 416.405 367.218C415.963 367.727 415.741 368.372 415.741 369.152V374H414.38V365.5H415.741V366.911H415.774C416.416 365.838 417.346 365.301 418.563 365.301C419.493 365.301 420.204 365.602 420.697 366.206C421.189 366.803 421.436 367.669 421.436 368.804V374ZM425.686 361.897L424.523 365.6H423.544L424.465 361.897H425.686ZM431.853 373.917C431.532 374.094 431.109 374.183 430.583 374.183C429.094 374.183 428.35 373.353 428.35 371.692V366.662H426.889V365.5H428.35V363.425L429.711 362.985V365.5H431.853V366.662H429.711V371.452C429.711 372.022 429.808 372.428 430.002 372.672C430.196 372.915 430.517 373.037 430.965 373.037C431.308 373.037 431.604 372.943 431.853 372.755V373.917ZM439.73 372.771H439.697V374H438.336V361.416H439.697V366.994H439.73C440.4 365.865 441.38 365.301 442.669 365.301C443.759 365.301 444.611 365.683 445.226 366.446C445.845 367.204 446.155 368.223 446.155 369.501C446.155 370.923 445.809 372.063 445.118 372.921C444.426 373.773 443.48 374.199 442.279 374.199C441.155 374.199 440.306 373.723 439.73 372.771ZM439.697 369.343V370.53C439.697 371.233 439.924 371.831 440.378 372.323C440.837 372.81 441.418 373.054 442.121 373.054C442.946 373.054 443.59 372.738 444.055 372.107C444.526 371.477 444.761 370.599 444.761 369.476C444.761 368.53 444.542 367.788 444.105 367.251C443.668 366.715 443.076 366.446 442.329 366.446C441.537 366.446 440.901 366.723 440.419 367.276C439.938 367.824 439.697 368.513 439.697 369.343ZM455.162 370.09H449.16C449.182 371.037 449.437 371.767 449.924 372.282C450.411 372.796 451.08 373.054 451.933 373.054C452.89 373.054 453.77 372.738 454.572 372.107V373.386C453.825 373.928 452.837 374.199 451.609 374.199C450.408 374.199 449.465 373.815 448.778 373.045C448.092 372.271 447.749 371.183 447.749 369.783C447.749 368.461 448.123 367.384 448.87 366.554C449.622 365.719 450.555 365.301 451.667 365.301C452.779 365.301 453.64 365.66 454.249 366.38C454.857 367.099 455.162 368.098 455.162 369.376V370.09ZM453.767 368.937C453.762 368.151 453.571 367.539 453.194 367.102C452.824 366.665 452.306 366.446 451.642 366.446C451 366.446 450.455 366.676 450.007 367.135C449.559 367.595 449.282 368.195 449.177 368.937H453.767ZM465.446 374.199C464.19 374.199 463.186 373.804 462.433 373.012C461.686 372.215 461.312 371.161 461.312 369.85C461.312 368.422 461.703 367.307 462.483 366.504C463.263 365.702 464.317 365.301 465.646 365.301C466.913 365.301 467.901 365.691 468.609 366.471C469.323 367.251 469.68 368.333 469.68 369.717C469.68 371.073 469.295 372.16 468.526 372.979C467.762 373.792 466.736 374.199 465.446 374.199ZM465.546 366.446C464.672 366.446 463.98 366.745 463.471 367.343C462.962 367.935 462.707 368.754 462.707 369.8C462.707 370.807 462.964 371.601 463.479 372.182C463.994 372.763 464.683 373.054 465.546 373.054C466.426 373.054 467.101 372.769 467.571 372.199C468.047 371.629 468.285 370.818 468.285 369.767C468.285 368.704 468.047 367.885 467.571 367.31C467.101 366.734 466.426 366.446 465.546 366.446ZM478.91 374H477.549V369.152C477.549 367.348 476.89 366.446 475.573 366.446C474.893 366.446 474.328 366.704 473.88 367.218C473.437 367.727 473.216 368.372 473.216 369.152V374H471.854V365.5H473.216V366.911H473.249C473.891 365.838 474.821 365.301 476.038 365.301C476.968 365.301 477.679 365.602 478.171 366.206C478.664 366.803 478.91 367.669 478.91 368.804V374ZM493.403 374H492.042V372.556H492.009C491.378 373.651 490.404 374.199 489.087 374.199C488.019 374.199 487.164 373.82 486.522 373.062C485.886 372.298 485.567 371.261 485.567 369.949C485.567 368.544 485.922 367.417 486.63 366.571C487.338 365.724 488.282 365.301 489.46 365.301C490.628 365.301 491.478 365.76 492.009 366.679H492.042V361.416H493.403V374ZM492.042 370.157V368.903C492.042 368.217 491.815 367.636 491.361 367.16C490.908 366.684 490.332 366.446 489.635 366.446C488.805 366.446 488.152 366.751 487.676 367.359C487.2 367.968 486.962 368.809 486.962 369.883C486.962 370.862 487.189 371.637 487.643 372.207C488.102 372.771 488.716 373.054 489.485 373.054C490.243 373.054 490.858 372.78 491.328 372.232C491.804 371.684 492.042 370.992 492.042 370.157ZM496.856 363.342C496.613 363.342 496.405 363.259 496.234 363.093C496.062 362.927 495.977 362.716 495.977 362.462C495.977 362.207 496.062 361.997 496.234 361.831C496.405 361.66 496.613 361.574 496.856 361.574C497.105 361.574 497.316 361.66 497.487 361.831C497.664 361.997 497.753 362.207 497.753 362.462C497.753 362.705 497.664 362.913 497.487 363.084C497.316 363.256 497.105 363.342 496.856 363.342ZM497.521 374H496.159V365.5H497.521V374ZM499.762 373.693V372.232C500.503 372.78 501.319 373.054 502.21 373.054C503.406 373.054 504.003 372.655 504.003 371.858C504.003 371.632 503.951 371.441 503.846 371.286C503.746 371.125 503.608 370.984 503.431 370.862C503.259 370.741 503.054 370.633 502.816 370.539C502.584 370.439 502.332 370.337 502.061 370.231C501.685 370.082 501.353 369.933 501.065 369.783C500.783 369.628 500.545 369.457 500.351 369.269C500.163 369.075 500.019 368.856 499.919 368.613C499.825 368.369 499.778 368.084 499.778 367.758C499.778 367.359 499.87 367.008 500.052 366.704C500.235 366.394 500.478 366.136 500.783 365.932C501.087 365.721 501.433 365.564 501.82 365.458C502.213 365.353 502.617 365.301 503.032 365.301C503.768 365.301 504.427 365.428 505.008 365.683V367.061C504.382 366.651 503.663 366.446 502.85 366.446C502.595 366.446 502.365 366.477 502.161 366.538C501.956 366.593 501.779 366.673 501.629 366.778C501.486 366.883 501.372 367.011 501.289 367.16C501.212 367.304 501.173 367.465 501.173 367.642C501.173 367.863 501.212 368.048 501.289 368.198C501.372 368.347 501.491 368.48 501.646 368.596C501.801 368.712 501.989 368.818 502.21 368.912C502.432 369.006 502.684 369.108 502.966 369.219C503.342 369.363 503.68 369.512 503.979 369.667C504.277 369.816 504.532 369.988 504.742 370.182C504.952 370.37 505.113 370.588 505.224 370.837C505.34 371.086 505.398 371.382 505.398 371.726C505.398 372.146 505.304 372.511 505.116 372.821C504.933 373.131 504.687 373.389 504.377 373.593C504.067 373.798 503.71 373.95 503.306 374.05C502.902 374.149 502.479 374.199 502.036 374.199C501.162 374.199 500.404 374.03 499.762 373.693ZM514.554 374H512.645L508.893 369.916H508.859V374H507.498V361.416H508.859V369.393H508.893L512.462 365.5H514.247L510.304 369.601L514.554 374ZM524.813 362.611C524.548 362.462 524.246 362.387 523.909 362.387C522.957 362.387 522.481 362.988 522.481 364.188V365.5H524.473V366.662H522.481V374H521.128V366.662H519.675V365.5H521.128V364.122C521.128 363.231 521.385 362.528 521.9 362.014C522.415 361.493 523.056 361.233 523.826 361.233C524.241 361.233 524.57 361.283 524.813 361.383V362.611ZM529.495 374.199C528.239 374.199 527.235 373.804 526.482 373.012C525.735 372.215 525.361 371.161 525.361 369.85C525.361 368.422 525.751 367.307 526.532 366.504C527.312 365.702 528.366 365.301 529.694 365.301C530.962 365.301 531.949 365.691 532.658 366.471C533.372 367.251 533.729 368.333 533.729 369.717C533.729 371.073 533.344 372.16 532.575 372.979C531.811 373.792 530.785 374.199 529.495 374.199ZM529.595 366.446C528.72 366.446 528.029 366.745 527.52 367.343C527.01 367.935 526.756 368.754 526.756 369.8C526.756 370.807 527.013 371.601 527.528 372.182C528.042 372.763 528.731 373.054 529.595 373.054C530.475 373.054 531.15 372.769 531.62 372.199C532.096 371.629 532.334 370.818 532.334 369.767C532.334 368.704 532.096 367.885 531.62 367.31C531.15 366.734 530.475 366.446 529.595 366.446ZM540.336 366.878C540.098 366.695 539.755 366.604 539.307 366.604C538.726 366.604 538.239 366.878 537.846 367.426C537.458 367.974 537.265 368.721 537.265 369.667V374H535.903V365.5H537.265V367.251H537.298C537.492 366.654 537.788 366.189 538.186 365.857C538.584 365.519 539.03 365.351 539.522 365.351C539.877 365.351 540.148 365.389 540.336 365.467V366.878ZM546.661 374V362.097H550.048C551.077 362.097 551.893 362.348 552.497 362.852C553.1 363.356 553.401 364.011 553.401 364.819C553.401 365.494 553.219 366.081 552.854 366.579C552.488 367.077 551.985 367.431 551.343 367.642V367.675C552.145 367.769 552.787 368.073 553.269 368.588C553.75 369.097 553.991 369.761 553.991 370.58C553.991 371.598 553.625 372.423 552.895 373.054C552.165 373.685 551.243 374 550.131 374H546.661ZM548.056 363.358V367.202H549.483C550.247 367.202 550.847 367.019 551.285 366.654C551.722 366.283 551.94 365.763 551.94 365.093C551.94 363.937 551.18 363.358 549.658 363.358H548.056ZM548.056 368.455V372.738H549.948C550.767 372.738 551.401 372.545 551.849 372.157C552.303 371.77 552.53 371.239 552.53 370.563C552.53 369.158 551.572 368.455 549.658 368.455H548.056ZM557.585 374H556.224V361.416H557.585V374ZM563.894 374.199C562.637 374.199 561.633 373.804 560.88 373.012C560.133 372.215 559.76 371.161 559.76 369.85C559.76 368.422 560.15 367.307 560.93 366.504C561.71 365.702 562.765 365.301 564.093 365.301C565.36 365.301 566.348 365.691 567.056 366.471C567.77 367.251 568.127 368.333 568.127 369.717C568.127 371.073 567.742 372.16 566.973 372.979C566.209 373.792 565.183 374.199 563.894 374.199ZM563.993 366.446C563.119 366.446 562.427 366.745 561.918 367.343C561.409 367.935 561.154 368.754 561.154 369.8C561.154 370.807 561.412 371.601 561.926 372.182C562.441 372.763 563.13 373.054 563.993 373.054C564.873 373.054 565.548 372.769 566.019 372.199C566.494 371.629 566.732 370.818 566.732 369.767C566.732 368.704 566.494 367.885 566.019 367.31C565.548 366.734 564.873 366.446 563.993 366.446ZM574.245 373.917C573.924 374.094 573.5 374.183 572.975 374.183C571.486 374.183 570.742 373.353 570.742 371.692V366.662H569.281V365.5H570.742V363.425L572.103 362.985V365.5H574.245V366.662H572.103V371.452C572.103 372.022 572.2 372.428 572.394 372.672C572.587 372.915 572.908 373.037 573.356 373.037C573.7 373.037 573.996 372.943 574.245 372.755V373.917ZM576.536 374.183C576.281 374.183 576.062 374.091 575.88 373.909C575.703 373.726 575.614 373.507 575.614 373.253C575.614 372.998 575.703 372.78 575.88 372.597C576.062 372.409 576.281 372.315 576.536 372.315C576.796 372.315 577.017 372.409 577.2 372.597C577.382 372.78 577.474 372.998 577.474 373.253C577.474 373.507 577.382 373.726 577.2 373.909C577.017 374.091 576.796 374.183 576.536 374.183Z" fill="#333230"/>
<rect x="351" y="245" width="248" height="153" rx="6" stroke="#333230" stroke-opacity="0.5"/>
<path d="M189 88.3397C189 87.5113 187.985 86.9255 187.268 87.3397L175.732 94C175.015 94.4142 175.015 95.5858 175.732 96L187.268 102.66C187.985 103.074 189 102.489 189 101.66V88.3397ZM236 101.66C236 102.489 237.015 103.074 237.732 102.66L249.268 96C249.985 95.5858 249.985 94.4142 249.268 94L237.732 87.3397C237.015 86.9255 236 87.5113 236 88.3397V101.66ZM187.5 96.5H237.5V93.5H187.5V96.5Z" fill="#8C8C8C"/>
<path d="M466 88.3397C466 87.5113 464.985 86.9255 464.268 87.3397L452.732 94C452.015 94.4142 452.015 95.5858 452.732 96L464.268 102.66C464.985 103.074 466 102.489 466 101.66V88.3397ZM513 101.66C513 102.489 514.015 103.074 514.732 102.66L526.268 96C526.985 95.5858 526.985 94.4142 526.268 94L514.732 87.3397C514.015 86.9255 513 87.5113 513 88.3397V101.66ZM464.5 96.5H514.5V93.5H464.5V96.5Z" fill="#8C8C8C"/>
<path d="M357.66 179C358.489 179 359.074 177.985 358.66 177.268L352 165.732C351.586 165.015 350.414 165.015 350 165.732L343.34 177.268C342.926 177.985 343.511 179 344.34 179H357.66ZM468.34 226C467.511 226 466.926 227.015 467.34 227.732L474 239.268C474.414 239.985 475.586 239.985 476 239.268L482.66 227.732C483.074 227.015 482.489 226 481.66 226H468.34ZM349.5 177.5V178.5H352.5V177.5H349.5ZM375 204H451V201H375V204ZM473.5 226.5V227.5H476.5V226.5H473.5ZM451 204C463.426 204 473.5 214.074 473.5 226.5H476.5C476.5 212.417 465.083 201 451 201V204ZM349.5 178.5C349.5 192.583 360.917 204 375 204V201C362.574 201 352.5 190.926 352.5 178.5H349.5Z" fill="#8C8C8C"/>
<path d="M618.16 158C618.989 158 619.574 156.985 619.16 156.268L612.5 144.732C612.086 144.015 610.914 144.015 610.5 144.732L603.84 156.268C603.426 156.985 604.011 158 604.84 158H618.16ZM468.34 226C467.511 226 466.926 227.015 467.34 227.732L474 239.268C474.414 239.985 475.586 239.985 476 239.268L482.66 227.732C483.074 227.015 482.489 226 481.66 226H468.34ZM610 156.5V182H613V156.5H610ZM587.5 204.5H499V207.5H587.5V204.5ZM499 204.5C484.917 204.5 473.5 215.917 473.5 230H476.5C476.5 217.574 486.574 207.5 499 207.5V204.5ZM610 182C610 194.426 599.926 204.5 587.5 204.5V207.5C601.583 207.5 613 196.083 613 182H610Z" fill="#8C8C8C"/>
</svg>
