<?xml version="1.0" encoding="UTF-8"?>
<svg xmlns="http://www.w3.org/2000/svg" xmlns:xlink="http://www.w3.org/1999/xlink" width="187.05600000000004" height="106.70400000000001" viewBox="0 3.352000000000004 187.05600000000004 100" preserveAspectRatio="xMinYMid meet"><path d="M19.44 86.54L19.44 86.54Q13.54 86.54 10.01 84.24Q6.48 81.94 4.97 77.65Q3.46 73.37 3.46 67.61L3.46 67.61L3.46 45.50Q3.46 39.74 5.00 35.60Q6.55 31.46 10.04 29.27Q13.54 27.07 19.44 27.07L19.44 27.07Q25.34 27.07 28.80 29.30Q32.26 31.54 33.80 35.64Q35.35 39.74 35.35 45.50L35.35 45.50L35.35 67.68Q35.35 73.37 33.80 77.62Q32.26 81.86 28.80 84.20Q25.34 86.54 19.44 86.54ZM19.44 80.14L19.44 80.14Q22.68 80.14 24.34 78.80Q25.99 77.47 26.57 75.06Q27.14 72.65 27.14 69.41L27.14 69.41L27.14 43.85Q27.14 40.61 26.57 38.27Q25.99 35.93 24.34 34.67Q22.68 33.41 19.44 33.41L19.44 33.41Q16.20 33.41 14.51 34.67Q12.82 35.93 12.24 38.27Q11.66 40.61 11.66 43.85L11.66 43.85L11.66 69.41Q11.66 72.65 12.24 75.06Q12.82 77.47 14.51 78.80Q16.20 80.14 19.44 80.14ZM52.34 86.47L52.34 86.47Q47.23 86.47 44.14 83.27Q41.04 80.06 40.61 74.81L40.61 74.81L47.02 72.86Q47.59 76.82 48.96 78.80Q50.33 80.78 52.99 80.78L52.99 80.78Q55.08 80.78 56.16 79.60Q57.24 78.41 57.24 76.39L57.24 76.39Q57.24 74.59 56.45 73.15Q55.66 71.71 53.86 70.20L53.86 70.20L46.73 64.08Q44.57 62.21 43.09 59.90Q41.62 57.60 41.62 53.93L41.62 53.93Q41.62 50.62 42.95 48.35Q44.28 46.08 46.69 44.89Q49.10 43.70 52.34 43.70L52.34 43.70Q57.31 43.70 59.94 46.91Q62.57 50.11 62.93 54.65L62.93 54.65L57.74 56.59Q57.46 54.43 56.88 52.81Q56.30 51.19 55.30 50.29Q54.29 49.39 52.63 49.39L52.63 49.39Q50.76 49.39 49.64 50.65Q48.53 51.91 48.53 53.64L48.53 53.64Q48.53 54.72 49.00 55.76Q49.46 56.81 50.62 57.82L50.62 57.82L57.96 64.58Q59.47 65.95 60.80 67.54Q62.14 69.12 63.00 71.14Q63.86 73.15 63.86 75.82L63.86 75.82Q63.86 79.34 62.42 81.72Q60.98 84.10 58.39 85.28Q55.80 86.47 52.34 86.47ZM81.36 85.90L74.45 85.90L67.75 44.28L74.09 44.28L78.41 74.95L83.95 44.28L89.86 44.28L95.40 74.81L99.72 44.28L106.06 44.28L99.14 85.90L92.66 85.90L86.98 56.52L81.36 85.90ZM119.45 86.47L119.45 86.47Q117.00 86.47 115.13 85.07Q113.26 83.66 112.18 81.47Q111.10 79.27 111.10 76.82L111.10 76.82Q111.10 72.94 112.39 70.27Q113.69 67.61 115.96 65.77Q118.22 63.94 121.21 62.57Q124.20 61.20 127.51 59.90L127.51 59.90L127.51 56.95Q127.51 54.43 127.22 52.78Q126.94 51.12 126.04 50.29Q125.14 49.46 123.34 49.46L123.34 49.46Q121.75 49.46 120.78 50.18Q119.81 50.90 119.38 52.24Q118.94 53.57 118.94 55.37L118.94 55.37L118.94 57.46L111.31 57.17Q111.46 50.26 114.48 46.98Q117.50 43.70 123.84 43.70L123.84 43.70Q130.03 43.70 132.62 47.09Q135.22 50.47 135.22 56.88L135.22 56.88L135.22 75.89Q135.22 77.83 135.32 79.63Q135.43 81.43 135.61 82.98Q135.79 84.53 135.94 85.90L135.94 85.90L128.88 85.90Q128.66 84.74 128.34 82.98Q128.02 81.22 127.87 79.78L127.87 79.78Q127.15 82.22 125.10 84.35Q123.05 86.47 119.45 86.47ZM122.47 79.85L122.47 79.85Q123.62 79.85 124.63 79.20Q125.64 78.55 126.43 77.72Q127.22 76.90 127.51 76.39L127.51 76.39L127.51 64.58Q125.71 65.59 124.13 66.60Q122.54 67.61 121.36 68.72Q120.17 69.84 119.48 71.24Q118.80 72.65 118.80 74.45L118.80 74.45Q118.80 76.97 119.74 78.41Q120.67 79.85 122.47 79.85ZM151.06 85.90L143.35 85.90L143.35 27.58L151.06 27.58L151.06 85.90ZM168.77 86.47L168.77 86.47Q163.51 86.47 160.92 82.62Q158.33 78.77 158.33 69.55L158.33 69.55L158.33 61.49Q158.33 56.74 159.12 52.67Q159.91 48.60 162.11 46.15Q164.30 43.70 168.55 43.70L168.55 43.70Q170.64 43.70 172.37 44.64Q174.10 45.58 175.46 46.94L175.46 46.94L175.46 27.58L183.17 27.58L183.17 85.90L175.46 85.90L175.46 83.23Q174.10 84.67 172.48 85.57Q170.86 86.47 168.77 86.47ZM170.71 80.42L170.71 80.42Q171.79 80.42 173.02 80.03Q174.24 79.63 175.46 78.84L175.46 78.84L175.46 51.55Q174.46 50.83 173.23 50.29Q172.01 49.75 170.57 49.75L170.57 49.75Q167.90 49.75 166.97 52.31Q166.03 54.86 166.03 58.46L166.03 58.46L166.03 70.20Q166.03 73.08 166.36 75.42Q166.68 77.76 167.69 79.09Q168.70 80.42 170.71 80.42Z"/></svg>