<?xml version="1.0" encoding="UTF-8"?>
<svg xmlns="http://www.w3.org/2000/svg" xmlns:xlink="http://www.w3.org/1999/xlink" width="368.85600000000005" height="90.504" viewBox="0 -4.7479999999999976 368.85600000000005 100" preserveAspectRatio="xMinYMid meet"><path d="M19.58 71.71L19.58 71.71Q14.62 71.71 10.37 69.80Q6.12 67.90 3.02 64.73L3.02 64.73L6.62 60.55Q9.14 63.22 12.56 64.84Q15.98 66.46 19.66 66.46L19.66 66.46Q24.34 66.46 26.93 64.33Q29.52 62.21 29.52 58.75L29.52 58.75Q29.52 56.30 28.48 54.86Q27.43 53.42 25.67 52.42Q23.90 51.41 21.67 50.40L21.67 50.40L14.90 47.45Q12.67 46.51 10.48 45.00Q8.28 43.49 6.80 41.11Q5.33 38.74 5.33 35.28L5.33 35.28Q5.33 31.68 7.24 28.84Q9.14 25.99 12.53 24.37Q15.91 22.75 20.16 22.75L20.16 22.75Q24.41 22.75 28.01 24.37Q31.61 25.99 34.13 28.58L34.13 28.58L30.89 32.47Q28.73 30.38 26.10 29.20Q23.47 28.01 20.16 28.01L20.16 28.01Q16.20 28.01 13.79 29.88Q11.38 31.75 11.38 34.92L11.38 34.92Q11.38 37.15 12.56 38.63Q13.75 40.10 15.55 41.04Q17.35 41.98 19.22 42.77L19.22 42.77L25.92 45.65Q28.66 46.80 30.85 48.42Q33.05 50.04 34.34 52.38Q35.64 54.72 35.64 58.25L35.64 58.25Q35.64 61.99 33.70 65.05Q31.75 68.11 28.15 69.91Q24.55 71.71 19.58 71.71ZM57.96 71.71L57.96 71.71Q53.71 71.71 50.00 69.55Q46.30 67.39 44.03 63.29Q41.76 59.18 41.76 53.42L41.76 53.42Q41.76 47.52 44.03 43.42Q46.30 39.31 50.00 37.15Q53.71 34.99 57.96 34.99L57.96 34.99Q62.28 34.99 65.95 37.15Q69.62 39.31 71.89 43.42Q74.16 47.52 74.16 53.42L74.16 53.42Q74.16 59.18 71.89 63.29Q69.62 67.39 65.95 69.55Q62.28 71.71 57.96 71.71ZM57.96 66.82L57.96 66.82Q62.50 66.82 65.27 63.11Q68.04 59.40 68.04 53.42L68.04 53.42Q68.04 47.38 65.27 43.63Q62.50 39.89 57.96 39.89L57.96 39.89Q53.50 39.89 50.69 43.63Q47.88 47.38 47.88 53.42L47.88 53.42Q47.88 59.40 50.69 63.11Q53.50 66.82 57.96 66.82ZM93.60 71.71L93.60 71.71Q88.06 71.71 85.46 68.22Q82.87 64.73 82.87 58.03L82.87 58.03L82.87 35.86L88.85 35.86L88.85 57.24Q88.85 62.14 90.40 64.37Q91.94 66.60 95.40 66.60L95.40 66.60Q98.14 66.60 100.26 65.20Q102.38 63.79 104.83 60.70L104.83 60.70L104.83 35.86L110.74 35.86L110.74 70.85L105.84 70.85L105.34 65.38L105.12 65.38Q102.67 68.26 99.94 69.98Q97.20 71.71 93.60 71.71ZM128.45 70.85L122.54 70.85L122.54 35.86L127.44 35.86L127.94 42.19L128.16 42.19Q129.96 38.88 132.55 36.94Q135.14 34.99 138.10 34.99L138.10 34.99Q140.18 34.99 141.84 35.71L141.84 35.71L140.69 40.90Q139.82 40.61 139.10 40.46Q138.38 40.32 137.30 40.32L137.30 40.32Q135.07 40.32 132.66 42.12Q130.25 43.92 128.45 48.38L128.45 48.38L128.45 70.85ZM161.35 71.71L161.35 71.71Q156.74 71.71 153.00 69.55Q149.26 67.39 147.10 63.29Q144.94 59.18 144.94 53.42L144.94 53.42Q144.94 47.52 147.28 43.42Q149.62 39.31 153.47 37.15Q157.32 34.99 161.78 34.99L161.78 34.99Q165.24 34.99 167.72 36.22Q170.21 37.44 172.01 39.10L172.01 39.10L168.98 42.98Q167.47 41.62 165.78 40.75Q164.09 39.89 162.00 39.89L162.00 39.89Q158.83 39.89 156.35 41.58Q153.86 43.27 152.46 46.33Q151.06 49.39 151.06 53.42L151.06 53.42Q151.06 59.40 154.04 63.11Q157.03 66.82 161.86 66.82L161.86 66.82Q164.30 66.82 166.39 65.77Q168.48 64.73 170.06 63.29L170.06 63.29L172.66 67.25Q170.28 69.34 167.40 70.52Q164.52 71.71 161.35 71.71ZM194.54 71.71L194.54 71.71Q189.86 71.71 186.05 69.52Q182.23 67.32 180.00 63.22Q177.77 59.11 177.77 53.42L177.77 53.42Q177.77 47.66 180.04 43.56Q182.30 39.46 185.90 37.22Q189.50 34.99 193.46 34.99L193.46 34.99Q200.16 34.99 203.80 39.46Q207.43 43.92 207.43 51.41L207.43 51.41Q207.43 52.34 207.40 53.24Q207.36 54.14 207.22 54.79L207.22 54.79L183.60 54.79Q183.96 60.34 187.09 63.65Q190.22 66.96 195.26 66.96L195.26 66.96Q197.78 66.96 199.91 66.20Q202.03 65.45 203.98 64.22L203.98 64.22L206.06 68.11Q203.83 69.55 200.99 70.63Q198.14 71.71 194.54 71.71ZM183.53 50.54L183.53 50.54L202.25 50.54Q202.25 45.22 199.98 42.44Q197.71 39.67 193.61 39.67L193.61 39.67Q189.94 39.67 187.02 42.52Q184.10 45.36 183.53 50.54ZM244.15 71.71L244.15 71.71Q239.18 71.71 234.94 69.80Q230.69 67.90 227.59 64.73L227.59 64.73L231.19 60.55Q233.71 63.22 237.13 64.84Q240.55 66.46 244.22 66.46L244.22 66.46Q248.90 66.46 251.50 64.33Q254.09 62.21 254.09 58.75L254.09 58.75Q254.09 56.30 253.04 54.86Q252 53.42 250.24 52.42Q248.47 51.41 246.24 50.40L246.24 50.40L239.47 47.45Q237.24 46.51 235.04 45.00Q232.85 43.49 231.37 41.11Q229.90 38.74 229.90 35.28L229.90 35.28Q229.90 31.68 231.80 28.84Q233.71 25.99 237.10 24.37Q240.48 22.75 244.73 22.75L244.73 22.75Q248.98 22.75 252.58 24.37Q256.18 25.99 258.70 28.58L258.70 28.58L255.46 32.47Q253.30 30.38 250.67 29.20Q248.04 28.01 244.73 28.01L244.73 28.01Q240.77 28.01 238.36 29.88Q235.94 31.75 235.94 34.92L235.94 34.92Q235.94 37.15 237.13 38.63Q238.32 40.10 240.12 41.04Q241.92 41.98 243.79 42.77L243.79 42.77L250.49 45.65Q253.22 46.80 255.42 48.42Q257.62 50.04 258.91 52.38Q260.21 54.72 260.21 58.25L260.21 58.25Q260.21 61.99 258.26 65.05Q256.32 68.11 252.72 69.91Q249.12 71.71 244.15 71.71ZM276.98 71.71L276.98 71.71Q272.59 71.71 269.68 69.08Q266.76 66.46 266.76 61.78L266.76 61.78Q266.76 56.02 271.91 52.96Q277.06 49.90 288.22 48.67L288.22 48.67Q288.22 46.44 287.60 44.42Q286.99 42.41 285.44 41.15Q283.90 39.89 281.02 39.89L281.02 39.89Q277.99 39.89 275.33 41.04Q272.66 42.19 270.58 43.63L270.58 43.63L268.27 39.53Q270.72 37.94 274.28 36.47Q277.85 34.99 282.02 34.99L282.02 34.99Q288.43 34.99 291.31 38.92Q294.19 42.84 294.19 49.39L294.19 49.39L294.19 70.85L289.30 70.85L288.79 66.67L288.58 66.67Q286.13 68.69 283.21 70.20Q280.30 71.71 276.98 71.71ZM278.71 66.96L278.71 66.96Q281.23 66.96 283.46 65.74Q285.70 64.51 288.22 62.28L288.22 62.28L288.22 52.56Q279.50 53.64 276.01 55.80Q272.52 57.96 272.52 61.34L272.52 61.34Q272.52 64.30 274.32 65.63Q276.12 66.96 278.71 66.96ZM311.11 70.85L305.21 70.85L305.21 35.86L310.10 35.86L310.61 40.90L310.82 40.90Q313.34 38.38 316.15 36.68Q318.96 34.99 322.56 34.99L322.56 34.99Q328.10 34.99 330.66 38.48Q333.22 41.98 333.22 48.67L333.22 48.67L333.22 70.85L327.31 70.85L327.31 49.46Q327.31 44.57 325.73 42.34Q324.14 40.10 320.69 40.10L320.69 40.10Q318.02 40.10 315.90 41.47Q313.78 42.84 311.11 45.50L311.11 45.50L311.11 70.85ZM353.74 71.71L353.74 71.71Q349.99 71.71 346.61 70.31Q343.22 68.90 340.70 66.89L340.70 66.89L343.66 62.93Q345.96 64.73 348.41 65.92Q350.86 67.10 353.95 67.10L353.95 67.10Q357.41 67.10 359.14 65.48Q360.86 63.86 360.86 61.63L360.86 61.63Q360.86 59.83 359.68 58.61Q358.49 57.38 356.65 56.56Q354.82 55.73 352.87 55.01L352.87 55.01Q350.42 54.07 348.05 52.88Q345.67 51.70 344.16 49.79Q342.65 47.88 342.65 44.93L342.65 44.93Q342.65 40.68 345.85 37.84Q349.06 34.99 354.74 34.99L354.74 34.99Q357.98 34.99 360.79 36.14Q363.60 37.30 365.62 38.95L365.62 38.95L362.74 42.70Q360.94 41.33 358.99 40.46Q357.05 39.60 354.74 39.60L354.74 39.60Q351.43 39.60 349.88 41.11Q348.34 42.62 348.34 44.64L348.34 44.64Q348.34 46.30 349.42 47.34Q350.50 48.38 352.22 49.14Q353.95 49.90 355.90 50.69L355.90 50.69Q358.42 51.62 360.86 52.81Q363.31 54.00 364.93 55.98Q366.55 57.96 366.55 61.27L366.55 61.27Q366.55 64.08 365.08 66.46Q363.60 68.83 360.76 70.27Q357.91 71.71 353.74 71.71Z"/></svg>