<?xml version="1.0" encoding="utf-8"?>
<!-- Generator: Adobe Illustrator 22.0.1, SVG Export Plug-In . SVG Version: 6.00 Build 0)  -->
<svg version="1.1" id="Layer_1" xmlns="http://www.w3.org/2000/svg" xmlns:xlink="http://www.w3.org/1999/xlink" x="0px" y="0px"
	 viewBox="0 0 42.6 42.6" style="enable-background:new 0 0 42.6 42.6;" xml:space="preserve">
<path fill="rgba(0,0,0,0.4)" d="M42.6,40.5L28.2,26.1c2.4-2.8,3.7-6.4,3.7-10.2c0-4.3-1.7-8.3-4.7-11.3c-3-3-7-4.7-11.3-4.7S7.7,1.7,4.7,4.7
	c-6.2,6.2-6.2,16.3,0,22.5c3,3,7,4.7,11.3,4.7c3.8,0,7.3-1.3,10.2-3.7l14.4,14.4L42.6,40.5z M6.8,25.1c-5-5-5-13.2,0-18.3
	C9.2,4.3,12.5,3,15.9,3c3.5,0,6.7,1.3,9.1,3.8c2.4,2.4,3.8,5.7,3.8,9.1c0,3.5-1.3,6.7-3.8,9.1c-2.4,2.4-5.7,3.8-9.1,3.8
	C12.5,28.9,9.2,27.5,6.8,25.1z"/>
</svg>
