<?xml version="1.0" encoding="utf-8"?>
<!-- Generator: Adobe Illustrator 22.0.1, SVG Export Plug-In . SVG Version: 6.00 Build 0)  -->
<svg version="1.1" id="Layer_1" xmlns="http://www.w3.org/2000/svg" xmlns:xlink="http://www.w3.org/1999/xlink" x="0px" y="0px"
	 viewBox="0 0 77.3 71.6" style="enable-background:new 0 0 77.3 71.6;" xml:space="preserve">
<title>109all</title>
<path fill="rgba(0,0,0,0.4)" d="M60.3,30.6c0.8,0.8,2,0.8,2.8,0c0,0,0,0,0,0L76.7,17c0.1-0.1,0.2-0.2,0.2-0.3c0,0,0.1-0.1,0.1-0.1c0.1-0.1,0.1-0.3,0.2-0.4
	c0-0.1,0-0.1,0.1-0.2c0.1-0.3,0.1-0.5,0-0.8c0-0.1,0-0.1-0.1-0.2c0-0.1-0.1-0.3-0.2-0.4c0,0,0-0.1-0.1-0.1c-0.1-0.1-0.2-0.2-0.2-0.3
	L63.1,0.6c-0.8-0.8-2-0.8-2.8,0c-0.8,0.8-0.8,2,0,2.8l10.2,10.2H44c-0.6,0-1.1,0.2-1.5,0.6L25.1,32.9L3.5,9.7c-0.8-0.8-2-0.8-2.8,0
	c-0.7,0.7-0.8,1.9-0.1,2.7l21.8,23.4L0.6,59.2c-0.8,0.8-0.8,2,0,2.8c0.8,0.8,2,0.8,2.8,0c0,0,0.1-0.1,0.1-0.1l21.6-23.2l17.4,18.6
	c0.4,0.4,0.9,0.6,1.5,0.6h26.5L60.3,68.2c-0.8,0.8-0.8,2,0,2.8s2,0.8,2.8,0l13.5-13.6c0.1-0.1,0.2-0.2,0.2-0.3c0,0,0.1-0.1,0.1-0.2
	c0.1-0.1,0.1-0.3,0.2-0.4c0-0.1,0-0.1,0.1-0.2c0.1-0.3,0.1-0.5,0-0.8c0-0.1,0-0.1-0.1-0.2c0-0.1-0.1-0.3-0.2-0.4c0,0,0-0.1-0.1-0.2
	c-0.1-0.1-0.2-0.2-0.2-0.3L63.1,41c-0.9-0.7-2.1-0.5-2.8,0.4c-0.5,0.7-0.5,1.7,0,2.4L70.5,54H44.9l-17-18.2l17-18.2h25.6L60.3,27.8
	C59.5,28.6,59.5,29.8,60.3,30.6z"/>
</svg>
