<?xml version="1.0" encoding="UTF-8"?>
<svg xmlns="http://www.w3.org/2000/svg" xmlns:xlink="http://www.w3.org/1999/xlink" width="296.56800000000004" height="102.24000000000001" viewBox="0 1.1200000000000045 296.56800000000004 100" preserveAspectRatio="xMinYMid meet"><path d="M3.46 32.76L28.30 32.76Q33.05 32.76 36.36 34.34Q39.67 35.93 41.47 38.95Q43.27 41.98 43.27 46.22L43.27 46.22Q43.27 50.76 41.15 54.14Q39.02 57.53 35.21 59.44Q31.39 61.34 26.28 61.34L26.28 61.34L14.47 61.34L14.47 57.31L31.03 57.31Q34.27 55.15 35.75 52.63Q37.22 50.11 37.22 46.73L37.22 46.73Q37.22 41.83 34.60 39.31Q31.97 36.79 26.93 36.79L26.93 36.79L17.57 36.79L17.57 76.32L27.50 77.76L27.50 79.92L3.46 79.92L3.46 77.98Q4.68 77.33 6.55 76.93Q8.42 76.54 11.16 76.32L11.16 76.32L11.88 36.43L3.46 34.85L3.46 32.76ZM66.38 79.92L50.04 79.92L50.04 78.19Q51.12 77.69 52.38 77.26Q53.64 76.82 55.08 76.61L55.08 76.61L55.73 51.77L51.98 47.09Q54.07 45.86 56.27 45.11Q58.46 44.35 60.98 44.06L60.98 44.06L60.98 76.75L66.38 78.12L66.38 79.92ZM59.11 28.73L59.11 28.73Q60.26 29.81 61.09 31.21Q61.92 32.62 62.14 34.06L62.14 34.06Q61.20 35.21 59.76 36.04Q58.32 36.86 56.88 37.08L56.88 37.08Q55.73 36.07 54.90 34.67Q54.07 33.26 53.78 31.75L53.78 31.75Q54.79 30.60 56.20 29.81Q57.60 29.02 59.11 28.73ZM98.57 80.35L98.57 80.35Q96.26 80.35 94.36 78.70Q92.45 77.04 91.73 73.73L91.73 73.73L92.59 51.91Q87.77 48.10 80.78 48.10L80.78 48.10Q79.42 48.10 78.05 48.28Q76.68 48.46 75.46 48.82L75.46 48.82L78.62 47.16L77.33 57.46Q74.88 57.02 73.66 55.80Q72.43 54.58 72.43 52.78L72.43 52.78Q72.43 50.40 74.12 48.42Q75.82 46.44 78.70 45.29Q81.58 44.14 85.03 44.14L85.03 44.14Q88.85 44.14 92.12 45.65Q95.40 47.16 97.85 49.97L97.85 49.97L97.85 74.95L104.98 74.59Q104.62 76.46 103.64 77.76Q102.67 79.06 101.34 79.70Q100.01 80.35 98.57 80.35ZM82.44 80.64L82.44 80.64Q77.47 80.57 74.48 77.94Q71.50 75.31 71.50 71.14L71.50 71.14Q71.50 69.12 72.43 67.57Q73.37 66.02 75.74 64.76Q78.12 63.50 82.51 62.17Q86.90 60.84 93.74 59.18L93.74 59.18L93.74 62.64L76.54 65.95L78.41 65.02Q78.05 66.10 77.87 67.32Q77.69 68.54 77.69 69.55L77.69 69.55Q77.69 72.58 79.09 74.16Q80.50 75.74 83.45 75.74L83.45 75.74Q85.61 75.74 87.98 74.92Q90.36 74.09 93.02 72.22L93.02 72.22L93.02 73.44Q90.79 75.67 88.27 77.51Q85.75 79.34 82.44 80.64ZM138.46 79.92L108.86 79.92L108.86 78.34L130.61 48.31L114.26 48.46L112.32 56.45L110.38 56.45L110.16 44.78L138.10 44.78L138.10 46.44L116.35 76.46L134.35 76.32L136.30 67.90L138.17 67.90L138.46 79.92ZM175.10 79.92L145.51 79.92L145.51 78.34L167.26 48.31L150.91 48.46L148.97 56.45L147.02 56.45L146.81 44.78L174.74 44.78L174.74 46.44L153.00 76.46L171.00 76.32L172.94 67.90L174.82 67.90L175.10 79.92ZM197.71 80.57L197.71 80.57Q193.10 80.57 189.68 78.37Q186.26 76.18 184.39 72.22Q182.52 68.26 182.52 62.93L182.52 62.93Q182.52 57.31 184.54 53.10Q186.55 48.89 190.15 46.51Q193.75 44.14 198.50 44.14L198.50 44.14Q203.18 44.14 206.64 46.37Q210.10 48.60 212.04 52.56Q213.98 56.52 213.98 61.85L213.98 61.85Q213.98 67.46 211.93 71.68Q209.88 75.89 206.24 78.23Q202.61 80.57 197.71 80.57ZM198.14 76.75L198.14 76.75Q201.17 76.75 203.40 75.02Q205.63 73.30 206.93 70.02Q208.22 66.74 208.22 62.21L208.22 62.21Q208.22 57.74 206.96 54.65Q205.70 51.55 203.40 49.90Q201.10 48.24 198.00 48.24L198.00 48.24Q196.06 48.24 193.79 48.96Q191.52 49.68 188.78 51.12L188.78 51.12L191.88 48.74Q190.15 51.98 189.22 55.37Q188.28 58.75 188.28 62.57L188.28 62.57Q188.28 66.96 189.54 70.16Q190.80 73.37 193.00 75.06Q195.19 76.75 198.14 76.75ZM235.94 79.92L219.60 79.92L219.60 78.19Q220.54 77.76 221.72 77.33Q222.91 76.90 224.64 76.61L224.64 76.61L225.43 34.20L221.54 29.16Q223.63 28.01 225.83 27.22Q228.02 26.42 230.54 26.14L230.54 26.14L230.54 76.75L235.94 78.12L235.94 79.92ZM256.54 79.92L240.19 79.92L240.19 78.19Q241.13 77.76 242.32 77.33Q243.50 76.90 245.23 76.61L245.23 76.61L246.02 34.20L242.14 29.16Q244.22 28.01 246.42 27.22Q248.62 26.42 251.14 26.14L251.14 26.14L251.14 76.75L256.54 78.12L256.54 79.92ZM289.44 80.35L289.44 80.35Q287.14 80.35 285.23 78.70Q283.32 77.04 282.60 73.73L282.60 73.73L283.46 51.91Q278.64 48.10 271.66 48.10L271.66 48.10Q270.29 48.10 268.92 48.28Q267.55 48.46 266.33 48.82L266.33 48.82L269.50 47.16L268.20 57.46Q265.75 57.02 264.53 55.80Q263.30 54.58 263.30 52.78L263.30 52.78Q263.30 50.40 265.00 48.42Q266.69 46.44 269.57 45.29Q272.45 44.14 275.90 44.14L275.90 44.14Q279.72 44.14 283.00 45.65Q286.27 47.16 288.72 49.97L288.72 49.97L288.72 74.95L295.85 74.59Q295.49 76.46 294.52 77.76Q293.54 79.06 292.21 79.70Q290.88 80.35 289.44 80.35ZM273.31 80.64L273.31 80.64Q268.34 80.57 265.36 77.94Q262.37 75.31 262.37 71.14L262.37 71.14Q262.37 69.12 263.30 67.57Q264.24 66.02 266.62 64.76Q268.99 63.50 273.38 62.17Q277.78 60.84 284.62 59.18L284.62 59.18L284.62 62.64L267.41 65.95L269.28 65.02Q268.92 66.10 268.74 67.32Q268.56 68.54 268.56 69.55L268.56 69.55Q268.56 72.58 269.96 74.16Q271.37 75.74 274.32 75.74L274.32 75.74Q276.48 75.74 278.86 74.92Q281.23 74.09 283.90 72.22L283.90 72.22L283.90 73.44Q281.66 75.67 279.14 77.51Q276.62 79.34 273.31 80.64Z"/></svg>