<?xml version="1.0" encoding="UTF-8"?>
<svg xmlns="http://www.w3.org/2000/svg" xmlns:xlink="http://www.w3.org/1999/xlink" width="778.7109375" height="89.578125" viewBox="0 -5.2109375 778.7109375 100" preserveAspectRatio="xMinYMid meet"><path d="M8.75 53.02Q5.84 47.07 5.84 40.24Q5.84 33.40 8.75 27.46Q11.67 21.52 17.24 17.77Q22.82 14.03 29.74 14.03L29.74 14.03Q36.60 14.03 43.63 16.49L43.63 16.49L42.68 21.45Q40.46 20.21 39.20 19.63Q37.93 19.05 35.28 18.44Q32.63 17.82 29.67 17.82L29.67 17.82Q21.62 17.82 16.24 24.42Q10.86 31.01 10.86 40.22L10.86 40.22Q10.86 49.29 16.19 55.95Q21.52 62.61 29.74 62.61L29.74 62.61Q33.40 62.61 36.25 61.86Q39.09 61.10 40.13 60.57Q41.17 60.05 44.05 58.22L44.05 58.22L44.44 62.40Q41.84 63.84 40.39 64.53Q38.95 65.21 36.14 65.83Q33.33 66.45 29.74 66.45L29.74 66.45Q22.82 66.45 17.24 62.70Q11.67 58.96 8.75 53.02ZM51.19 48.23L51.19 48.23Q51.19 40.68 55.90 35.53Q60.61 30.38 67.18 30.38L67.18 30.38Q73.86 30.38 78.47 35.67Q83.07 40.96 83.07 48.23L83.07 48.23Q83.07 55.79 78.33 60.79Q73.58 65.78 67.18 65.78L67.18 65.78Q60.57 65.78 55.88 60.64Q51.19 55.51 51.19 48.23ZM55.79 47.36L55.79 47.36Q55.79 51.82 56.99 54.91Q58.18 58.01 60.08 59.45Q61.98 60.89 63.70 61.47Q65.43 62.05 67.18 62.05L67.18 62.05Q69.05 62.05 70.88 61.37Q72.70 60.68 74.51 59.17Q76.32 57.66 77.40 54.67Q78.47 51.68 78.47 47.57L78.47 47.57Q78.47 43.66 77.40 40.87Q76.32 38.07 74.51 36.63Q72.70 35.19 70.88 34.58Q69.05 33.96 67.17 33.96Q65.29 33.96 63.46 34.58Q61.63 35.19 59.82 36.60Q58.01 38.00 56.90 40.76Q55.79 43.52 55.79 47.36ZM96.54 65.21L91.86 65.21L91.86 31.22L96.33 31.22L96.33 38.21Q97.49 35.40 100.18 33.03Q102.87 30.66 107.19 30.66L107.19 30.66Q110.14 30.66 112.20 31.48Q114.26 32.31 115.26 33.75Q116.26 35.19 116.60 36.02Q116.93 36.84 117.21 38.07L117.21 38.07Q117.28 38.29 117.28 38.36L117.28 38.36Q118.58 35.40 121.24 33.03Q123.89 30.66 128.21 30.66L128.21 30.66Q131.10 30.66 133.15 31.55Q135.21 32.45 136.21 33.57Q137.21 34.70 137.76 36.60Q138.30 38.50 138.38 39.66Q138.45 40.82 138.45 42.54L138.45 42.54L138.45 65.21L133.84 65.21L133.84 42.82Q133.84 41.52 133.77 40.73Q133.70 39.94 133.26 38.57Q132.82 37.20 132.03 36.37Q131.24 35.54 129.62 34.89Q128.00 34.24 125.68 34.24L125.68 34.24Q121.78 34.24 119.64 37.42Q117.49 40.61 117.49 45.77L117.49 45.77L117.49 65.21L112.82 65.21L112.82 42.82Q112.82 41.52 112.78 40.73Q112.75 39.94 112.31 38.57Q111.87 37.20 111.08 36.37Q110.29 35.54 108.67 34.89Q107.05 34.24 104.73 34.24L104.73 34.24Q100.83 34.24 98.65 37.42Q96.47 40.61 96.47 45.77L96.47 45.77Q96.47 45.91 96.50 46.05Q96.54 46.20 96.54 46.34L96.54 46.34L96.54 65.21ZM154.69 77.24L150.01 77.24L150.01 31.22L154.55 31.22L154.55 36.14Q159.08 30.66 165.48 30.66L165.48 30.66Q170.75 30.66 174.39 35.74Q178.03 40.82 178.03 48.09L178.03 48.09Q178.03 55.93 173.74 60.86Q169.45 65.78 163.97 65.78L163.97 65.78Q161.44 65.78 159.17 64.53Q156.90 63.28 156.34 62.56Q155.78 61.84 154.69 60.47L154.69 60.47L154.69 77.24ZM154.69 40.61L154.69 55.86Q154.69 58.08 156.74 60.13Q158.80 62.19 161.75 62.19L161.75 62.19Q166.43 62.19 169.91 58.13Q173.39 54.07 173.39 48.16L173.39 48.16Q173.39 42.47 170.16 38.39Q166.92 34.31 162.46 34.31L162.46 34.31Q158.73 34.31 156.13 37.20L156.13 37.20Q155.04 38.57 154.86 38.97Q154.69 39.38 154.69 40.61L154.69 40.61ZM187.21 55.65L187.21 55.65L187.21 31.22L191.88 31.22L191.88 56.43Q191.88 59.73 193.11 61.07Q194.34 62.40 198.49 62.40L198.49 62.40Q202.54 62.40 205.35 59.85Q208.16 57.30 208.16 52.63L208.16 52.63L208.16 31.22L212.77 31.22L212.77 65.21L208.23 65.21L208.23 59.03Q206.37 62.19 202.94 63.98Q199.51 65.78 195.54 65.78L195.54 65.78Q192.73 65.78 190.93 64.88Q189.14 63.98 188.38 62.26Q187.63 60.54 187.42 59.13Q187.21 57.73 187.21 55.65ZM226.83 34.84L220.01 34.84L220.01 31.22L226.93 31.22L226.93 21.52L231.29 21.52L231.29 31.22L242.47 31.22L242.47 34.84L231.29 34.84L231.29 55.27Q231.29 62.05 235.41 62.05L235.41 62.05Q236.29 62.05 237.08 61.95Q237.87 61.84 238.55 61.58Q239.24 61.31 239.77 61.10Q240.29 60.89 240.84 60.54Q241.38 60.19 241.68 59.99Q241.98 59.80 242.37 59.45Q242.75 59.10 242.82 59.10L242.82 59.10L243.77 62.61Q238.68 65.78 232.80 65.78L232.80 65.78Q226.83 65.78 226.83 55.79L226.83 55.79L226.83 34.84ZM248.94 47.92L248.94 47.92Q248.94 40.85 253.20 35.61Q257.45 30.38 263.78 30.38L263.78 30.38Q265.99 30.38 268.05 31.06Q270.11 31.75 272.27 33.40Q274.43 35.05 275.77 38.62Q277.10 42.19 277.10 47.21L277.10 47.21L253.27 47.21L253.27 47.78Q253.27 54.32 256.80 58.25Q260.33 62.19 264.94 62.19L264.94 62.19Q271.05 62.19 276.57 57.23L276.57 57.23L276.96 61.17Q271.41 65.78 264.94 65.78L264.94 65.78Q258.33 65.78 253.63 60.63Q248.94 55.48 248.94 47.92ZM253.62 44.33L253.62 44.33L273.20 44.33Q272.71 38.85 269.93 36.40Q267.15 33.96 263.78 33.96L263.78 33.96Q260.12 33.96 257.27 36.91Q254.43 39.87 253.62 44.33ZM289.83 65.21L285.29 65.21L285.29 31.22L289.62 31.22L289.62 36.70L289.69 40.08Q290.25 38.64 291.25 37.20Q292.25 35.75 293.85 34.21Q295.45 32.66 297.90 31.69Q300.34 30.73 303.29 30.66L303.29 30.66L303.29 34.70Q300.97 34.77 298.74 35.49Q296.51 36.21 294.43 37.72Q292.36 39.23 291.09 41.92Q289.83 44.61 289.83 48.23L289.83 48.23L289.83 65.21ZM340.17 65.21L335.64 65.21L335.64 15.19L342.25 15.19L356.80 50.87L360.11 59.38L361.13 56.50L377.82 15.19L384.50 15.19L384.50 65.21L379.97 65.21L379.97 19.86L374.38 34.24L362.21 63.98L357.89 63.98L342.77 26.75L340.17 19.86L340.17 65.21ZM394.80 48.23L394.80 48.23Q394.80 40.68 399.52 35.53Q404.23 30.38 410.80 30.38L410.80 30.38Q417.48 30.38 422.09 35.67Q426.69 40.96 426.69 48.23L426.69 48.23Q426.69 55.79 421.95 60.79Q417.20 65.78 410.80 65.78L410.80 65.78Q404.19 65.78 399.50 60.64Q394.80 55.51 394.80 48.23ZM399.41 47.36L399.41 47.36Q399.41 51.82 400.61 54.91Q401.80 58.01 403.70 59.45Q405.60 60.89 407.32 61.47Q409.04 62.05 410.80 62.05L410.80 62.05Q412.66 62.05 414.49 61.37Q416.32 60.68 418.13 59.17Q419.94 57.66 421.01 54.67Q422.09 51.68 422.09 47.57L422.09 47.57Q422.09 43.66 421.01 40.87Q419.94 38.07 418.13 36.63Q416.32 35.19 414.49 34.58Q412.66 33.96 410.78 33.96Q408.90 33.96 407.07 34.58Q405.25 35.19 403.44 36.60Q401.63 38.00 400.52 40.76Q399.41 43.52 399.41 47.36ZM433.02 48.23L433.02 48.23Q433.02 40.61 437.13 35.63Q441.25 30.66 446.63 30.66L446.63 30.66Q452.39 30.66 456.50 35.68L456.50 35.68L456.50 15.19L461.04 15.19L461.04 65.21L456.43 65.21L456.43 62.19L456.36 59.94Q452.39 65.78 446.13 65.78L446.13 65.78Q440.58 65.78 436.80 60.57Q433.02 55.37 433.02 48.23ZM437.70 48.23L437.70 48.23Q437.70 52.42 438.82 55.35Q439.95 58.29 441.70 59.66Q443.46 61.03 445.11 61.61Q446.77 62.19 448.42 62.19L448.42 62.19Q452.46 62.19 455.13 58.68L455.13 58.68Q455.34 58.32 455.63 57.88Q455.91 57.45 456.03 57.27Q456.15 57.09 456.26 56.76Q456.36 56.43 456.40 56.04Q456.43 55.65 456.43 55.05L456.43 55.05L456.43 39.87Q456.43 37.79 454.24 36.02Q452.04 34.24 449.09 34.24L449.09 34.24Q447.93 34.24 446.63 34.54Q445.32 34.84 443.67 35.74Q442.02 36.63 440.77 38.07Q439.52 39.52 438.61 42.19Q437.70 44.86 437.70 48.23ZM469.93 47.92L469.93 47.92Q469.93 40.85 474.19 35.61Q478.44 30.38 484.77 30.38L484.77 30.38Q486.98 30.38 489.04 31.06Q491.10 31.75 493.26 33.40Q495.42 35.05 496.76 38.62Q498.09 42.19 498.09 47.21L498.09 47.21L474.26 47.21L474.26 47.78Q474.26 54.32 477.79 58.25Q481.32 62.19 485.93 62.19L485.93 62.19Q492.05 62.19 497.57 57.23L497.57 57.23L497.95 61.17Q492.40 65.78 485.93 65.78L485.93 65.78Q479.32 65.78 474.63 60.63Q469.93 55.48 469.93 47.92ZM474.61 44.33L474.61 44.33L494.19 44.33Q493.70 38.85 490.92 36.40Q488.14 33.96 484.77 33.96L484.77 33.96Q481.11 33.96 478.27 36.91Q475.42 39.87 474.61 44.33ZM510.82 65.21L506.29 65.21L506.29 31.22L510.61 31.22L510.61 36.70L510.68 40.08Q511.24 38.64 512.24 37.20Q513.25 35.75 514.85 34.21Q516.45 32.66 518.89 31.69Q521.33 30.73 524.29 30.66L524.29 30.66L524.29 34.70Q521.96 34.77 519.73 35.49Q517.50 36.21 515.43 37.72Q513.35 39.23 512.09 41.92Q510.82 44.61 510.82 48.23L510.82 48.23L510.82 65.21ZM535.85 65.21L531.18 65.21L531.18 31.22L535.64 31.22L535.64 38.21Q537.01 35.05 539.74 32.85Q542.46 30.66 546.43 30.66L546.43 30.66Q549.32 30.66 551.37 31.55Q553.43 32.45 554.43 33.61Q555.43 34.77 556.01 36.63Q556.59 38.50 556.66 39.66Q556.73 40.82 556.73 42.54L556.73 42.54L556.73 65.21L552.13 65.21L552.13 42.82Q552.13 41.52 552.09 40.73Q552.06 39.94 551.62 38.57Q551.18 37.20 550.39 36.37Q549.60 35.54 547.98 34.89Q546.36 34.24 544.04 34.24L544.04 34.24Q540.81 34.24 538.33 36.88Q535.85 39.52 535.85 46.34L535.85 46.34L535.85 65.21ZM611.75 65.21L593.68 65.21L593.68 15.19L609.82 15.19Q615.09 15.19 619.14 16.44Q623.18 17.68 625.34 19.67Q627.50 21.66 628.59 23.75Q629.68 25.84 629.68 27.77L629.68 27.77Q629.68 28.93 629.24 30.15Q628.80 31.36 627.63 33.13Q626.45 34.91 623.60 36.49Q620.75 38.07 616.57 39.09L616.57 39.09Q622.83 39.97 627.29 43.42Q631.76 46.86 631.76 51.68L631.76 51.68Q631.76 56.85 627.01 60.63Q622.27 64.41 615.55 65.07L615.55 65.07Q614.25 65.21 611.75 65.21L611.75 65.21ZM598.50 43.84L598.50 61.38L610.03 61.38Q618.61 61.38 622.81 58.32Q627.01 55.27 627.01 51.61L627.01 51.61Q627.01 50.03 626.08 48.34Q625.15 46.65 623.20 44.95Q621.25 43.24 617.57 42.13Q613.90 41.03 609.15 41.03L609.15 41.03L598.57 41.03L598.50 43.84ZM598.50 21.66L598.50 37.41L607.78 37.41Q612.67 37.20 615.16 36.70Q617.66 36.21 620.68 34.31L620.68 34.31Q625.08 31.57 625.08 27.91L625.08 27.91Q625.08 24.68 620.79 21.87Q616.50 19.05 607.92 19.05L607.92 19.05L598.57 19.05L598.50 21.66ZM646.28 65.21L641.74 65.21L641.74 31.22L646.07 31.22L646.07 36.70L646.14 40.08Q646.70 38.64 647.70 37.20Q648.70 35.75 650.30 34.21Q651.90 32.66 654.35 31.69Q656.79 30.73 659.74 30.66L659.74 30.66L659.74 34.70Q657.42 34.77 655.19 35.49Q652.96 36.21 650.88 37.72Q648.81 39.23 647.54 41.92Q646.28 44.61 646.28 48.23L646.28 48.23L646.28 65.21ZM671.17 65.21L666.63 65.21L666.63 31.22L671.17 31.22L671.17 65.21ZM671.17 19.79L666.63 19.79L666.63 15.26L671.17 15.26L671.17 19.79ZM680.34 48.16L680.34 48.16Q680.34 40.75 684.63 35.70Q688.92 30.66 694.55 30.66L694.55 30.66Q700.38 30.66 703.83 36.91L703.83 36.91L703.83 30.66L708.36 30.66L708.36 64.58Q708.36 70.84 704.72 74.65Q701.09 78.47 695.53 78.47L695.53 78.47Q688.92 78.47 682.21 75.23L682.21 75.23L682.21 71.33Q684.35 72.42 685.71 73.04Q687.06 73.65 689.78 74.25Q692.51 74.85 695.39 74.85L695.39 74.85Q698.77 74.85 701.26 72.26Q703.76 69.68 703.76 64.34L703.76 64.34L703.76 58.75L703.69 56.21Q702.53 59.17 700.12 61.58Q697.71 63.98 693.74 63.98L693.74 63.98Q688.32 63.98 684.33 59.41Q680.34 54.84 680.34 48.16ZM685.02 48.16L685.02 48.16Q685.02 53.44 688.31 56.92Q691.59 60.40 695.74 60.40L695.74 60.40Q697.96 60.40 699.63 59.17Q701.30 57.94 702.12 55.88Q702.95 53.82 703.35 51.71Q703.76 49.61 703.76 47.21L703.76 47.21L703.83 47.21L703.83 42.47Q703.83 39.87 701.95 37.05Q700.07 34.24 696.62 34.24L696.62 34.24Q692.02 34.24 688.52 38.29Q685.02 42.33 685.02 48.16ZM724.68 65.21L720 65.21L720 15.19L724.54 15.19L724.54 34.91L724.61 38.00Q725.77 35.26 728.38 32.96Q731.00 30.66 735.26 30.66L735.26 30.66Q738.14 30.66 740.20 31.52Q742.25 32.38 743.26 33.54Q744.26 34.70 744.84 36.56Q745.42 38.43 745.49 39.62Q745.56 40.82 745.56 42.54L745.56 42.54L745.56 65.21L740.95 65.21L740.95 42.82Q740.95 41.52 740.92 40.73Q740.88 39.94 740.44 38.57Q740.00 37.20 739.21 36.37Q738.42 35.54 736.80 34.89Q735.19 34.24 732.87 34.24L732.87 34.24Q729.63 34.24 727.15 36.88Q724.68 39.52 724.68 46.34L724.68 46.34L724.68 65.21ZM759.62 34.84L752.80 34.84L752.80 31.22L759.73 31.22L759.73 21.52L764.09 21.52L764.09 31.22L775.27 31.22L775.27 34.84L764.09 34.84L764.09 55.27Q764.09 62.05 768.20 62.05L768.20 62.05Q769.08 62.05 769.87 61.95Q770.66 61.84 771.35 61.58Q772.03 61.31 772.56 61.10Q773.09 60.89 773.63 60.54Q774.18 60.19 774.47 59.99Q774.77 59.80 775.16 59.45Q775.55 59.10 775.62 59.10L775.62 59.10L776.57 62.61Q771.47 65.78 765.60 65.78L765.60 65.78Q759.62 65.78 759.62 55.79L759.62 55.79L759.62 34.84Z"/></svg>