<?xml version="1.0" encoding="UTF-8"?>
<svg xmlns="http://www.w3.org/2000/svg" xmlns:xlink="http://www.w3.org/1999/xlink" width="713.1796875" height="92.49609375" viewBox="0 -3.751953125 713.1796875 100" preserveAspectRatio="xMinYMid meet"><path d="M4.75 40.61L4.75 40.61Q4.75 34.70 6.80 29.60Q8.86 24.50 12.16 21.18Q15.47 17.86 19.44 15.96Q23.41 14.06 27.28 14.06L27.28 14.06Q30.09 14.06 31.71 14.17Q33.33 14.27 35.93 14.80Q38.53 15.33 41.55 16.49L41.55 16.49L40.46 22.46Q37.23 20.53 34.66 19.60Q32.10 18.67 28.23 18.67L28.23 18.67Q21.02 18.67 16.12 25.07Q11.21 31.46 11.21 40.61L11.21 40.61Q11.21 49.82 16.15 56.20Q21.09 62.58 28.44 62.58L28.44 62.58Q29.81 62.58 31.04 62.47Q32.27 62.37 33.13 62.26Q34.00 62.16 35.03 61.79Q36.07 61.42 36.58 61.28Q37.09 61.14 38.06 60.56Q39.02 59.98 39.27 59.84Q39.52 59.70 40.61 59.01Q41.70 58.32 41.91 58.18L41.91 58.18L42.33 63.21Q38.43 65.53 35.63 66.36Q32.84 67.18 28.37 67.18L28.37 67.18Q18.07 67.18 11.41 59.26Q4.75 51.33 4.75 40.61ZM48.13 49.68L48.13 49.68Q48.13 42.40 52.79 37.41Q57.45 32.41 63.91 32.41L63.91 32.41Q70.70 32.41 75.23 37.63Q79.77 42.86 79.77 49.75L79.77 49.75Q79.77 56.88 75.01 61.65Q70.24 66.41 63.91 66.41Q57.59 66.41 52.86 61.61Q48.13 56.81 48.13 49.68ZM53.75 48.97L53.75 48.97Q53.75 55.30 56.81 58.54Q59.87 61.77 63.91 61.77Q67.96 61.77 71.02 58.50Q74.07 55.23 74.07 48.97L74.07 48.97Q74.07 42.93 71.02 39.90Q67.96 36.88 63.91 36.88L63.91 36.88Q59.94 36.88 56.85 39.90Q53.75 42.93 53.75 48.97ZM93.38 65.60L87.75 65.60L87.75 33.19L92.99 33.19L92.99 38.25Q97.17 32.84 103.50 32.84L103.50 32.84Q110.50 32.84 112.64 38.67L112.64 38.67Q117.04 32.84 123.54 32.84L123.54 32.84Q126.28 32.84 128.25 33.73Q130.22 34.63 131.19 35.82Q132.15 37.02 132.70 38.88Q133.24 40.75 133.31 41.94Q133.38 43.14 133.38 44.86L133.38 44.86L133.38 65.60L127.69 65.60L127.69 45.39Q127.69 45.25 127.69 44.95Q127.69 44.65 127.55 43.79Q127.41 42.93 127.16 42.17Q126.91 41.41 126.40 40.48Q125.89 39.55 125.17 38.87Q124.45 38.18 123.31 37.71Q122.17 37.23 120.73 37.23L120.73 37.23Q116.89 37.23 115.14 40.46Q113.38 43.70 113.38 48.30L113.38 48.30L113.38 65.60L107.75 65.60L107.75 45.39Q107.75 44.16 107.72 43.44Q107.68 42.71 107.30 41.38Q106.91 40.04 106.22 39.25Q105.54 38.46 104.13 37.85Q102.73 37.23 100.69 37.23L100.69 37.23Q96.86 37.23 95.12 40.46Q93.38 43.70 93.38 48.30L93.38 48.30L93.38 65.60ZM150.61 79.63L144.98 79.63L144.98 33.57L150.36 33.57L150.36 37.09Q155.64 32.84 162.32 32.84L162.32 32.84Q167.27 32.84 170.49 37.81Q173.71 42.79 173.71 49.46L173.71 49.46Q173.71 56.88 169.72 61.65Q165.73 66.41 160.31 66.41L160.31 66.41Q154.97 66.41 150.61 62.30L150.61 62.30L150.61 79.63ZM150.61 41.55L150.61 56.53Q150.61 58.11 152.65 60.06Q154.69 62.02 157.57 62.02L157.57 62.02Q161.61 62.02 164.81 58.55Q168.01 55.09 168.01 49.61L168.01 49.61Q168.01 44.72 165.29 41.08Q162.56 37.44 158.24 37.44L158.24 37.44Q157.43 37.44 156.71 37.55Q155.99 37.65 155.37 37.92Q154.76 38.18 154.23 38.43Q153.70 38.67 153.23 38.99Q152.75 39.30 152.40 39.60Q152.05 39.90 151.72 40.25Q151.38 40.61 151.21 40.83Q151.03 41.06 150.82 41.27L150.82 41.27L150.61 41.55ZM182.11 56.81L182.11 56.81L182.11 33.57L187.73 33.57L187.73 57.69Q187.80 60.22 188.91 61.29Q190.02 62.37 193.46 62.37L193.46 62.37Q197.19 62.37 199.48 60.38Q201.76 58.39 202.04 55.79L202.04 55.79Q202.11 55.09 202.11 53.72L202.11 53.72L202.11 33.57L207.74 33.57L207.74 65.60L202.25 65.60L202.25 62.16Q197.37 66.41 189.67 66.41L189.67 66.41Q187.52 66.41 185.99 65.72Q184.46 65.04 183.71 64.16Q182.95 63.28 182.57 61.73Q182.18 60.19 182.14 59.29Q182.11 58.39 182.11 56.81ZM220.89 37.79L214.84 37.79L214.84 33.57L221.03 33.57L221.03 24.50L226.05 24.50L226.05 33.57L236.21 33.57L236.21 37.79L226.05 37.79L226.05 55.51Q226.05 61.77 229.96 61.77L229.96 61.77Q232.98 61.77 236.29 59.41L236.29 59.41L237.45 63.67Q232.35 66.41 226.79 66.41L226.79 66.41Q220.89 66.41 220.89 57.16L220.89 57.16L220.89 37.79ZM241.98 49.32L241.98 49.32Q241.98 42.19 246.32 37.30Q250.66 32.41 256.50 32.41L256.50 32.41Q258.64 32.41 260.60 33.10Q262.55 33.79 264.53 35.37Q266.52 36.95 267.82 40.11Q269.12 43.28 269.33 47.67L269.33 47.67L269.33 49.75L247.01 49.75Q247.22 55.16 250.31 58.55Q253.41 61.95 257.66 61.95L257.66 61.95Q263.14 61.95 268.59 57.97L268.59 57.97L269.05 62.72Q263.57 66.38 257.66 66.41L257.66 66.41Q250.80 66.41 246.39 61.33Q241.98 56.25 241.98 49.32ZM247.36 45.81L247.36 45.81L265.22 45.81Q264.80 43.00 263.67 41.04Q262.55 39.09 261.14 38.27Q259.73 37.44 258.63 37.16Q257.52 36.88 256.50 36.88L256.50 36.88Q252.84 36.88 250.45 39.69Q248.06 42.50 247.36 45.81ZM282.69 65.60L277.31 65.60L277.31 33.19L282.34 33.19L282.34 39.69Q283.22 38.32 284.43 37.05Q285.64 35.79 288.56 34.35Q291.48 32.91 294.96 32.84L294.96 32.84L294.96 37.65Q293.10 37.72 291.22 38.34Q289.34 38.95 287.28 40.29Q285.22 41.63 283.96 44.37Q282.69 47.11 282.69 50.77L282.69 50.77L282.69 65.60ZM332.86 65.60L327.23 65.60L327.23 15.64L335.43 15.64L346.54 44.51Q351.14 57.02 351.49 58.99L351.49 58.99L351.56 58.99Q351.91 56.46 356.45 44.58L356.45 44.58L367.56 15.64L375.82 15.64L375.82 65.60L370.20 65.60L370.20 22.99L370.13 20.67L369.42 23.34L365.10 35.16L354.02 64.02L348.82 64.02L338.03 36Q333.42 23.48 332.86 20.67L332.86 20.67L332.86 65.60ZM385.17 49.68L385.17 49.68Q385.17 42.40 389.83 37.41Q394.49 32.41 400.96 32.41L400.96 32.41Q407.74 32.41 412.28 37.63Q416.81 42.86 416.81 49.75L416.81 49.75Q416.81 56.88 412.05 61.65Q407.29 66.41 400.96 66.41Q394.63 66.41 389.90 61.61Q385.17 56.81 385.17 49.68ZM390.80 48.97L390.80 48.97Q390.80 55.30 393.86 58.54Q396.91 61.77 400.96 61.77Q405 61.77 408.06 58.50Q411.12 55.23 411.12 48.97L411.12 48.97Q411.12 42.93 408.06 39.90Q405 36.88 400.96 36.88L400.96 36.88Q396.98 36.88 393.89 39.90Q390.80 42.93 390.80 48.97ZM421.56 49.68L421.56 49.68Q421.56 42.54 425.30 37.65Q429.05 32.77 434.36 32.77L434.36 32.77Q439.84 32.77 444.80 36.74L444.80 36.74L444.80 13.61L450.28 13.61L450.28 65.60L444.59 65.60L444.59 61.88Q439.91 66.41 433.93 66.41L433.93 66.41Q428.59 66.41 425.07 61.38Q421.56 56.36 421.56 49.68ZM427.15 49.61L427.15 49.61Q427.15 56.00 430.17 58.97Q433.20 61.95 436.89 61.95L436.89 61.95Q439.91 61.95 442.25 59.89Q444.59 57.83 444.59 55.97L444.59 55.97L444.59 42.19Q444.59 40.82 443.07 39.41L443.07 39.41Q440.75 37.27 437.73 37.23L437.73 37.23L437.59 37.23Q435.87 37.23 434.18 37.88Q432.49 38.53 430.84 39.87Q429.19 41.20 428.17 43.72Q427.15 46.23 427.15 49.61ZM458.68 49.32L458.68 49.32Q458.68 42.19 463.03 37.30Q467.37 32.41 473.20 32.41L473.20 32.41Q475.35 32.41 477.30 33.10Q479.25 33.79 481.24 35.37Q483.22 36.95 484.52 40.11Q485.82 43.28 486.04 47.67L486.04 47.67L486.04 49.75L463.71 49.75Q463.92 55.16 467.02 58.55Q470.11 61.95 474.36 61.95L474.36 61.95Q479.85 61.95 485.30 57.97L485.30 57.97L485.75 62.72Q480.27 66.38 474.36 66.41L474.36 66.41Q467.51 66.41 463.10 61.33Q458.68 56.25 458.68 49.32ZM464.06 45.81L464.06 45.81L481.92 45.81Q481.50 43.00 480.38 41.04Q479.25 39.09 477.84 38.27Q476.44 37.44 475.33 37.16Q474.22 36.88 473.20 36.88L473.20 36.88Q469.55 36.88 467.16 39.69Q464.77 42.50 464.06 45.81ZM499.39 65.60L494.02 65.60L494.02 33.19L499.04 33.19L499.04 39.69Q499.92 38.32 501.13 37.05Q502.35 35.79 505.27 34.35Q508.18 32.91 511.66 32.84L511.66 32.84L511.66 37.65Q509.80 37.72 507.92 38.34Q506.04 38.95 503.98 40.29Q501.93 41.63 500.66 44.37Q499.39 47.11 499.39 50.77L499.39 50.77L499.39 65.60ZM524.18 65.60L518.55 65.60L518.55 33.19L523.79 33.19L523.79 38.25Q527.98 32.84 534.30 32.84L534.30 32.84Q536.98 32.84 538.89 33.63Q540.81 34.42 541.81 35.58Q542.81 36.74 543.36 38.50Q543.90 40.25 544.04 41.63Q544.18 43.00 544.18 44.86L544.18 44.86L544.18 65.60L538.56 65.60L538.56 45.39Q538.56 44.16 538.52 43.44Q538.49 42.71 538.10 41.38Q537.71 40.04 537.03 39.25Q536.34 38.46 534.94 37.85Q533.53 37.23 531.49 37.23L531.49 37.23Q527.66 37.23 525.92 40.46Q524.18 43.70 524.18 48.30L524.18 48.30L524.18 65.60ZM577.09 62.23L577.09 62.23L578.18 56.25Q585.74 62.23 593.58 62.23L593.58 62.23Q598.25 62.23 601.17 59.34Q604.09 56.46 604.09 52.70L604.09 52.70Q604.09 49.89 602.40 47.55Q600.71 45.21 597.90 44.09L597.90 44.09Q597.76 44.02 588.97 41.70L588.97 41.70Q584.58 40.54 581.24 36.98Q577.90 33.43 577.90 28.23L577.90 28.23Q577.90 22.68 582.40 18.37Q586.90 14.06 594.14 14.06L594.14 14.06Q600.93 14.06 607.32 17.51L607.32 17.51L606.34 23.48Q603.32 21.16 600.71 20.02Q598.11 18.88 594.07 18.88L594.07 18.88Q589.39 18.88 586.51 21.43Q583.63 23.98 583.63 27.39L583.63 27.39Q583.63 29.92 585.26 31.99Q586.90 34.07 589.39 35.09L589.39 35.09Q590.41 35.51 594.63 36.51Q598.85 37.51 600.22 38.11L600.22 38.11Q604.20 39.76 607.03 43.40Q609.86 47.04 609.86 52.00L609.86 52.00Q609.86 58.11 605.29 62.65Q600.71 67.18 593.58 67.18L593.58 67.18Q584.93 67.18 577.09 62.23ZM617.03 57.48L617.03 57.48Q617.03 54.81 619.05 52.82Q621.07 50.84 624.34 49.87Q627.61 48.90 630.74 48.43Q633.87 47.95 637.03 47.95L637.03 47.95L637.03 45.53Q636.89 40.92 635.17 38.88L635.17 38.88Q633.38 36.74 630.63 36.74L630.63 36.74Q625.08 36.74 619.84 40.39L619.84 40.39L619.42 35.58Q624.83 32.41 630.70 32.41L630.70 32.41Q635.66 32.41 639.02 35.68Q642.38 38.95 642.66 43.63L642.66 43.63L642.66 65.60L637.21 65.60L637.21 63.07Q636.93 63.35 635.87 64.00Q634.82 64.65 631.79 65.53Q628.77 66.41 625.25 66.41L625.25 66.41Q621.14 66.41 619.08 63.49Q617.03 60.57 617.03 57.48ZM622.30 57.41L622.30 57.41Q622.30 59.34 624.20 60.64Q626.10 61.95 628.98 61.95L628.98 61.95Q632.07 61.95 634.55 60.64Q637.03 59.34 637.03 56.25L637.03 56.25L637.03 51.71Q634.82 51.71 632.51 52.00Q630.21 52.28 627.77 52.86Q625.32 53.44 623.81 54.63Q622.30 55.83 622.30 57.41ZM659.81 65.60L654.19 65.60L654.19 33.19L659.43 33.19L659.43 38.25Q663.61 32.84 669.94 32.84L669.94 32.84Q672.61 32.84 674.53 33.63Q676.44 34.42 677.44 35.58Q678.45 36.74 678.99 38.50Q679.54 40.25 679.68 41.63Q679.82 43.00 679.82 44.86L679.82 44.86L679.82 65.60L674.19 65.60L674.19 45.39Q674.19 44.16 674.16 43.44Q674.12 42.71 673.73 41.38Q673.35 40.04 672.66 39.25Q671.98 38.46 670.57 37.85Q669.16 37.23 667.13 37.23L667.13 37.23Q663.29 37.23 661.55 40.46Q659.81 43.70 659.81 48.30L659.81 48.30L659.81 65.60ZM687.55 63.14L687.55 63.14L688.43 58.25Q688.57 58.32 689.36 58.80Q690.15 59.27 690.56 59.48Q690.96 59.70 691.86 60.13Q692.75 60.57 693.51 60.82Q694.27 61.07 695.27 61.35Q696.27 61.63 697.39 61.75Q698.52 61.88 699.71 61.88L699.71 61.88Q703.30 61.88 704.87 60.35Q706.43 58.82 706.43 56.95L706.43 56.95Q706.43 55.16 705.13 53.96Q703.83 52.77 702.39 52.35L702.39 52.35Q701.68 52.14 699.19 51.63Q696.69 51.12 695.50 50.77L695.50 50.77Q692.54 49.82 690.28 47.55Q688.01 45.28 688.01 41.91L688.01 41.91Q688.01 40.25 688.50 38.78Q688.99 37.30 690.19 35.75Q691.38 34.21 693.86 33.31Q696.34 32.41 699.79 32.41L699.79 32.41Q704.95 32.41 710.30 34.63L710.30 34.63L709.52 39.41Q709.45 39.34 708.70 39.01Q707.94 38.67 707.84 38.60Q707.73 38.53 707.04 38.25Q706.36 37.97 706.10 37.88Q705.83 37.79 705.20 37.55Q704.57 37.30 704.20 37.27Q703.83 37.23 703.14 37.05Q702.46 36.88 701.93 36.84Q701.40 36.81 700.68 36.77Q699.96 36.74 699.15 36.74L699.15 36.74Q695.85 36.74 694.48 38.07Q693.11 39.41 693.11 41.13L693.11 41.13Q693.11 43.52 695.02 44.56Q696.94 45.60 700.38 46.20Q703.83 46.79 705.27 47.46L705.27 47.46Q707.87 48.62 709.70 50.92Q711.53 53.23 711.53 56.46L711.53 56.46Q711.53 58.11 711.04 59.70Q710.54 61.28 709.35 62.86Q708.15 64.44 705.67 65.43Q703.20 66.41 699.79 66.41L699.79 66.41Q693.46 66.38 687.55 63.14Z"/></svg>