<?xml version="1.0" encoding="UTF-8"?>
<svg xmlns="http://www.w3.org/2000/svg" xmlns:xlink="http://www.w3.org/1999/xlink" width="155.65909090909093" height="87.13636363636364" viewBox="0 -6.43181818181818 155.65909090909093 100" preserveAspectRatio="xMinYMid meet"><path d="M6.34 17.39L12.68 17.39L12.68 69.75L6.34 69.75L6.34 17.39ZM30.58 46.13L30.58 46.13L30.58 69.75L24.55 69.75L24.55 30.48L30.38 30.48L30.38 36.61L30.89 36.61Q32.27 33.62 35.08 31.79Q37.89 29.97 42.34 29.97L42.34 29.97Q46.33 29.97 49.32 31.59Q52.31 33.21 53.97 36.50Q55.64 39.78 55.64 44.80L55.64 44.80L55.64 69.75L49.60 69.75L49.60 45.20Q49.60 40.58 47.20 37.98Q44.80 35.39 40.60 35.39L40.60 35.39Q37.71 35.39 35.45 36.64Q33.19 37.89 31.88 40.30Q30.58 42.70 30.58 46.13ZM63.41 30.48L83.76 30.48L83.76 35.59L63.41 35.59L63.41 30.48ZM69.34 60.14L69.34 21.07L75.38 21.07L75.38 58.50Q75.38 61.06 76.13 62.32Q76.88 63.59 78.07 64.01Q79.26 64.43 80.59 64.43L80.59 64.43Q81.59 64.43 82.23 64.32Q82.87 64.20 83.25 64.13L83.25 64.13L84.48 69.55Q83.86 69.78 82.76 70.02Q81.66 70.26 79.98 70.26L79.98 70.26Q77.42 70.26 74.98 69.16Q72.54 68.06 70.94 65.81Q69.34 63.56 69.34 60.14L69.34 60.14ZM108.92 70.57L108.92 70.57Q103.24 70.57 99.14 68.05Q95.04 65.53 92.83 60.99Q90.61 56.45 90.61 50.42L90.61 50.42Q90.61 44.39 92.83 39.77Q95.04 35.16 99.01 32.56Q102.99 29.97 108.31 29.97L108.31 29.97Q111.38 29.97 114.37 30.99Q117.36 32.01 119.81 34.30Q122.27 36.59 123.72 40.35Q125.18 44.11 125.18 49.60L125.18 49.60L125.18 52.16L94.91 52.16L94.91 46.94L119.05 46.94Q119.05 43.62 117.73 41.01Q116.41 38.40 114.00 36.89Q111.58 35.39 108.31 35.39L108.31 35.39Q104.70 35.39 102.08 37.16Q99.46 38.94 98.05 41.78Q96.65 44.62 96.65 47.86L96.65 47.86L96.65 51.34Q96.65 55.79 98.19 58.87Q99.74 61.95 102.50 63.55Q105.26 65.15 108.92 65.15L108.92 65.15Q111.30 65.15 113.23 64.47Q115.16 63.79 116.57 62.42Q117.97 61.06 118.74 59.01L118.74 59.01L124.57 60.65Q123.65 63.61 121.47 65.85Q119.30 68.09 116.11 69.33Q112.91 70.57 108.92 70.57ZM140.42 69.75L134.39 69.75L134.39 30.48L140.22 30.48L140.22 36.41L140.63 36.41Q141.70 33.49 144.51 31.68Q147.32 29.86 150.85 29.86L150.85 29.86Q151.52 29.86 152.51 29.89Q153.51 29.91 154.02 29.97L154.02 29.97L154.02 36.10Q153.72 36.03 152.63 35.86Q151.54 35.69 150.34 35.69L150.34 35.69Q147.48 35.69 145.24 36.88Q143.00 38.07 141.71 40.15Q140.42 42.24 140.42 44.90L140.42 44.90L140.42 69.75Z"/></svg>