<?xml version="1.0" encoding="UTF-8"?>
<svg xmlns="http://www.w3.org/2000/svg" xmlns:xlink="http://www.w3.org/1999/xlink" width="347.76000000000005" height="90.00000000000001" viewBox="0 -4.999999999999993 347.76000000000005 100" preserveAspectRatio="xMinYMid meet"><path d="M56.16 76.68L56.16 76.68Q56.74 76.68 57.06 77.00Q57.38 77.33 57.38 77.90L57.38 77.90Q57.38 78.98 56.20 80.03Q55.01 81.07 53.06 81.97Q51.12 82.87 48.92 83.38Q46.73 83.88 44.71 83.88L44.71 83.88Q40.46 83.88 37.55 82.91Q34.63 81.94 32.29 80.68Q29.95 79.42 27.50 78.44Q25.06 77.47 21.67 77.47L21.67 77.47Q20.38 77.47 19.33 77.87Q18.29 78.26 17.53 78.66Q16.78 79.06 16.13 79.06L16.13 79.06Q15.55 79.06 15.12 78.62Q14.69 78.19 14.69 77.54L14.69 77.54Q14.69 76.68 15.48 76.32L15.48 76.32L27.07 72.29L33.70 72.00L23.11 75.46L23.04 74.88Q26.21 74.88 28.73 75.82Q31.25 76.75 33.59 78.01Q35.93 79.27 38.59 80.21Q41.26 81.14 44.71 81.14L44.71 81.14Q47.81 81.14 49.82 80.28Q51.84 79.42 52.99 78.77L52.99 78.77Q54.00 78.19 54.68 77.44Q55.37 76.68 56.16 76.68ZM51.70 46.80L51.70 46.80Q51.70 52.56 49.93 57.31Q48.17 62.06 44.93 65.52Q41.69 68.98 37.30 70.85Q32.90 72.72 27.65 72.72L27.65 72.72Q22.39 72.72 18.00 70.85Q13.61 68.98 10.37 65.52Q7.13 62.06 5.36 57.31Q3.60 52.56 3.60 46.80L3.60 46.80Q3.60 41.04 5.36 36.29Q7.13 31.54 10.37 28.08Q13.61 24.62 18.00 22.75Q22.39 20.88 27.65 20.88L27.65 20.88Q32.90 20.88 37.30 22.75Q41.69 24.62 44.93 28.08Q48.17 31.54 49.93 36.29Q51.70 41.04 51.70 46.80ZM48.67 46.80L48.67 46.80Q48.67 39.89 45.97 34.70Q43.27 29.52 38.56 26.64Q33.84 23.76 27.65 23.76L27.65 23.76Q21.53 23.76 16.78 26.64Q12.02 29.52 9.32 34.70Q6.62 39.89 6.62 46.80L6.62 46.80Q6.62 53.71 9.32 58.90Q12.02 64.08 16.78 66.96Q21.53 69.84 27.65 69.84L27.65 69.84Q33.84 69.84 38.56 66.96Q43.27 64.08 45.97 58.90Q48.67 53.71 48.67 46.80ZM89.42 36.07L89.42 36.07Q90.07 36.07 90.47 36.50Q90.86 36.94 90.86 37.51L90.86 37.51L90.86 58.46Q90.86 65.45 86.94 68.94Q83.02 72.43 76.54 72.43L76.54 72.43Q70.13 72.43 66.20 68.94Q62.28 65.45 62.28 58.46L62.28 58.46L62.28 37.51Q62.28 36.94 62.71 36.50Q63.14 36.07 63.72 36.07L63.72 36.07Q64.37 36.07 64.76 36.50Q65.16 36.94 65.16 37.51L65.16 37.51L65.16 58.46Q65.16 63.94 68.22 66.82Q71.28 69.70 76.54 69.70L76.54 69.70Q81.86 69.70 84.92 66.82Q87.98 63.94 87.98 58.46L87.98 58.46L87.98 37.51Q87.98 36.94 88.38 36.50Q88.78 36.07 89.42 36.07ZM105.70 36.36L105.70 70.56Q105.70 71.14 105.26 71.57Q104.83 72.00 104.26 72.00L104.26 72.00Q103.61 72.00 103.21 71.57Q102.82 71.14 102.82 70.56L102.82 70.56L102.82 36.36Q102.82 35.78 103.25 35.35Q103.68 34.92 104.26 34.92L104.26 34.92Q104.90 34.92 105.30 35.35Q105.70 35.78 105.70 36.36L105.70 36.36ZM104.26 30.02L104.26 30.02Q103.10 30.02 102.42 29.38Q101.74 28.73 101.74 27.72L101.74 27.72L101.74 27.14Q101.74 26.14 102.46 25.49Q103.18 24.84 104.33 24.84L104.33 24.84Q105.34 24.84 106.02 25.49Q106.70 26.14 106.70 27.14L106.70 27.14L106.70 27.72Q106.70 28.73 106.02 29.38Q105.34 30.02 104.26 30.02ZM133.56 34.92L133.56 34.92Q136.80 34.92 139.64 35.64Q142.49 36.36 144.25 37.55Q146.02 38.74 146.02 40.03L146.02 40.03Q146.02 40.54 145.62 41.00Q145.22 41.47 144.65 41.47L144.65 41.47Q143.86 41.47 143.39 41.04Q142.92 40.61 142.42 40.00Q141.91 39.38 140.83 38.88L140.83 38.88Q139.82 38.38 137.99 38.02Q136.15 37.66 133.49 37.66L133.49 37.66Q129.31 37.66 125.86 39.82Q122.40 41.98 120.35 45.61Q118.30 49.25 118.30 53.78L118.30 53.78Q118.30 58.39 120.20 62.06Q122.11 65.74 125.53 67.86Q128.95 69.98 133.49 69.98L133.49 69.98Q136.73 69.98 138.42 69.37Q140.11 68.76 141.34 68.04L141.34 68.04Q142.85 67.18 143.42 66.38Q144 65.59 144.79 65.59L144.79 65.59Q145.37 65.59 145.69 65.95Q146.02 66.31 146.02 66.89L146.02 66.89Q146.02 67.75 144.43 69.16Q142.85 70.56 140.00 71.64Q137.16 72.72 133.27 72.72L133.27 72.72Q128.02 72.72 123.98 70.24Q119.95 67.75 117.68 63.47Q115.42 59.18 115.42 53.78L115.42 53.78Q115.42 48.74 117.68 44.46Q119.95 40.18 124.02 37.55Q128.09 34.92 133.56 34.92ZM156.67 72.00L156.67 72.00Q156.02 72.00 155.63 71.57Q155.23 71.14 155.23 70.56L155.23 70.56L155.23 20.16Q155.23 19.58 155.63 19.15Q156.02 18.72 156.67 18.72L156.67 18.72Q157.32 18.72 157.72 19.15Q158.11 19.58 158.11 20.16L158.11 20.16L158.11 70.56Q158.11 71.14 157.72 71.57Q157.32 72.00 156.67 72.00ZM181.66 35.64L181.66 35.64Q182.23 35.64 182.66 36.07Q183.10 36.50 183.10 37.15L183.10 37.15Q183.10 37.80 182.59 38.23L182.59 38.23L157.61 59.04L157.46 55.58L180.72 36.07Q181.15 35.64 181.66 35.64ZM182.09 72.00L182.09 72.00Q181.51 72.00 181.01 71.50L181.01 71.50L163.58 52.92L165.74 51.05L183.10 69.48Q183.53 69.91 183.53 70.56L183.53 70.56Q183.53 71.28 182.95 71.64Q182.38 72.00 182.09 72.00ZM190.22 66.24L190.22 66.24Q189.72 65.38 189.76 64.84Q189.79 64.30 190.30 63.94L190.30 63.94Q190.66 63.58 191.27 63.61Q191.88 63.65 192.31 64.15L192.31 64.15Q194.18 66.82 197.10 68.47Q200.02 70.13 203.98 70.13L203.98 70.13Q206.35 70.13 208.55 69.34Q210.74 68.54 212.15 66.96Q213.55 65.38 213.55 63.07L213.55 63.07Q213.55 60.62 212.18 59.15Q210.82 57.67 208.66 56.81Q206.50 55.94 204.12 55.37L204.12 55.37Q201.60 54.72 199.33 53.89Q197.06 53.06 195.34 51.80Q193.61 50.54 192.60 48.82Q191.59 47.09 191.59 44.71L191.59 44.71Q191.59 41.90 193.10 39.67Q194.62 37.44 197.35 36.18Q200.09 34.92 203.69 34.92L203.69 34.92Q205.42 34.92 207.36 35.35Q209.30 35.78 211.25 36.83Q213.19 37.87 214.85 39.74L214.85 39.74Q215.42 40.18 215.39 40.79Q215.35 41.40 214.85 41.90L214.85 41.90Q214.42 42.19 213.91 42.19Q213.41 42.19 213.05 41.76L213.05 41.76Q211.18 39.67 208.69 38.66Q206.21 37.66 203.40 37.66L203.40 37.66Q201.02 37.66 198.97 38.45Q196.92 39.24 195.62 40.79Q194.33 42.34 194.33 44.71L194.33 44.71Q194.47 46.94 195.88 48.38Q197.28 49.82 199.62 50.76Q201.96 51.70 204.91 52.49L204.91 52.49Q207.29 53.06 209.34 53.82Q211.39 54.58 212.94 55.73Q214.49 56.88 215.39 58.61Q216.29 60.34 216.29 62.93L216.29 62.93Q216.29 65.95 214.67 68.15Q213.05 70.34 210.20 71.53Q207.36 72.72 203.69 72.72L203.69 72.72Q199.94 72.72 196.49 71.21Q193.03 69.70 190.22 66.24ZM256.03 36.07L256.03 36.07Q256.68 36.07 257.08 36.50Q257.47 36.94 257.47 37.51L257.47 37.51L257.47 70.56Q257.47 71.14 257.04 71.57Q256.61 72.00 256.03 72.00L256.03 72.00Q255.38 72.00 254.99 71.57Q254.59 71.14 254.59 70.56L254.59 70.56L254.59 60.34L255.74 59.40Q255.74 61.70 254.59 64.08Q253.44 66.46 251.42 68.40Q249.41 70.34 246.67 71.53Q243.94 72.72 240.77 72.72L240.77 72.72Q235.94 72.72 232.16 70.20Q228.38 67.68 226.22 63.36Q224.06 59.04 224.06 53.64L224.06 53.64Q224.06 48.17 226.26 43.96Q228.46 39.74 232.24 37.33Q236.02 34.92 240.77 34.92L240.77 34.92Q243.86 34.92 246.60 36.04Q249.34 37.15 251.39 39.17Q253.44 41.18 254.59 43.88Q255.74 46.58 255.74 49.75L255.74 49.75L254.59 47.95L254.59 37.51Q254.59 36.94 254.99 36.50Q255.38 36.07 256.03 36.07ZM240.91 69.98L240.91 69.98Q244.94 69.98 248.11 67.86Q251.28 65.74 253.08 62.03Q254.88 58.32 254.88 53.64L254.88 53.64Q254.88 49.18 253.08 45.54Q251.28 41.90 248.11 39.78Q244.94 37.66 240.91 37.66L240.91 37.66Q236.95 37.66 233.78 39.71Q230.62 41.76 228.78 45.36Q226.94 48.96 226.94 53.64L226.94 53.64Q226.94 58.32 228.74 62.03Q230.54 65.74 233.71 67.86Q236.88 69.98 240.91 69.98ZM285.77 34.92L285.77 34.92Q290.30 34.92 293.15 36.72Q295.99 38.52 297.32 41.62Q298.66 44.71 298.66 48.53L298.66 48.53L298.66 70.56Q298.66 71.14 298.22 71.57Q297.79 72.00 297.22 72.00L297.22 72.00Q296.57 72.00 296.17 71.57Q295.78 71.14 295.78 70.56L295.78 70.56L295.78 48.82Q295.78 45.72 294.73 43.20Q293.69 40.68 291.42 39.17Q289.15 37.66 285.48 37.66L285.48 37.66Q282.31 37.66 279.29 39.17Q276.26 40.68 274.28 43.20Q272.30 45.72 272.30 48.82L272.30 48.82L272.30 70.56Q272.30 71.14 271.87 71.57Q271.44 72.00 270.86 72.00L270.86 72.00Q270.22 72.00 269.82 71.57Q269.42 71.14 269.42 70.56L269.42 70.56L269.42 37.51Q269.42 36.94 269.86 36.50Q270.29 36.07 270.86 36.07L270.86 36.07Q271.51 36.07 271.91 36.50Q272.30 36.94 272.30 37.51L272.30 37.51L272.30 44.57L270.50 48.02Q270.50 45.43 271.87 43.06Q273.24 40.68 275.47 38.84Q277.70 37.01 280.40 35.96Q283.10 34.92 285.77 34.92ZM340.34 18.72L340.34 18.72Q340.99 18.72 341.39 19.15Q341.78 19.58 341.78 20.16L341.78 20.16L341.78 70.56Q341.78 71.14 341.35 71.57Q340.92 72.00 340.34 72.00L340.34 72.00Q339.70 72.00 339.30 71.57Q338.90 71.14 338.90 70.56L338.90 70.56L338.90 60.34L340.06 58.75Q340.06 61.20 338.94 63.68Q337.82 66.17 335.77 68.22Q333.72 70.27 330.98 71.50Q328.25 72.72 325.08 72.72L325.08 72.72Q320.33 72.72 316.55 70.24Q312.77 67.75 310.57 63.47Q308.38 59.18 308.38 53.78L308.38 53.78Q308.38 48.38 310.57 44.10Q312.77 39.82 316.55 37.37Q320.33 34.92 325.08 34.92L325.08 34.92Q328.03 34.92 330.73 36.04Q333.43 37.15 335.52 39.17Q337.61 41.18 338.83 43.88Q340.06 46.58 340.06 49.75L340.06 49.75L338.90 47.95L338.90 20.16Q338.90 19.58 339.30 19.15Q339.70 18.72 340.34 18.72ZM325.22 69.98L325.22 69.98Q329.33 69.98 332.46 67.90Q335.59 65.81 337.39 62.14Q339.19 58.46 339.19 53.78L339.19 53.78Q339.19 49.10 337.39 45.47Q335.59 41.83 332.42 39.74Q329.26 37.66 325.22 37.66L325.22 37.66Q321.26 37.66 318.10 39.74Q314.93 41.83 313.09 45.47Q311.26 49.10 311.26 53.78L311.26 53.78Q311.26 58.39 313.09 62.06Q314.93 65.74 318.10 67.86Q321.26 69.98 325.22 69.98Z"/></svg>