<svg xmlns="http://www.w3.org/2000/svg" viewBox="0 0 36 30">
  <path d="M15.8 1H3C1.3 1 0 2.4 0 4v23c0 1.6 1.3 3 3 3h30c1.7 0 3-1.4 3-3V6c0-1.6-1.3-3-3-3H18.3l-2.5-2z" fill="#fff"/>
  <path d="M35.1 13.3s-2.3-2.4-6.7-2.4H7.6c-4.4 0-6.7 2.4-6.7 2.4" fill="none" stroke="#000" stroke-width="1.75" stroke-miterlimit="10"/>
  <path d="M15.1 2.8l2.1 1.6.5.4H33c.7 0 1.2.6 1.2 1.2v21c0 .7-.6 1.2-1.2 1.2H3c-.7 0-1.2-.6-1.2-1.2V4c0-.7.6-1.2 1.2-1.2h12.1m.7-1.8H3C1.3 1 0 2.4 0 4v23c0 1.6 1.3 3 3 3h30c1.7 0 3-1.4 3-3V6c0-1.6-1.3-3-3-3H18.3l-2.5-2z"/>
</svg>
