<?xml version="1.0" encoding="UTF-8"?>
<svg xmlns="http://www.w3.org/2000/svg" xmlns:xlink="http://www.w3.org/1999/xlink" width="332.42400000000004" height="106.56000000000002" viewBox="0 3.2800000000000082 332.42400000000004 100" preserveAspectRatio="xMinYMid meet"><path d="M6.70 86.69L6.70 86.69Q4.46 86.69 2.74 85.61Q1.01 84.53 1.01 82.01L1.01 82.01Q1.01 78.05 2.70 73.94Q4.39 69.84 6.88 65.84Q9.36 61.85 11.84 58.03Q14.33 54.22 16.02 50.76Q17.71 47.30 17.71 44.35L17.71 44.35Q17.71 41.98 16.56 41.98L16.56 41.98Q15.77 41.98 14.76 43.24Q13.75 44.50 13.32 46.94L13.32 46.94L12.53 46.80Q12.53 42.70 14.47 39.85Q16.42 37.01 19.44 35.57Q22.46 34.13 25.63 34.13L25.63 34.13Q29.30 34.13 32.51 36.22Q35.71 38.30 36.94 42.84L36.94 42.84Q37.44 44.64 37.69 46.87Q37.94 49.10 38.02 50.72Q38.09 52.34 38.09 52.34L38.09 52.34Q38.23 58.18 38.34 62.21Q38.45 66.24 38.74 68.98Q39.02 71.71 39.53 73.58L39.53 73.58Q40.03 75.38 40.86 76.50Q41.69 77.62 42.98 77.62L42.98 77.62Q44.21 77.62 45.11 76.90Q46.01 76.18 46.30 75.53L46.30 75.53L46.80 75.89Q46.80 79.20 45.50 81.65Q44.21 84.10 42.12 85.39Q40.03 86.69 37.73 86.69L37.73 86.69Q35.50 86.69 33.37 85.36Q31.25 84.02 29.66 81.22Q28.08 78.41 27.58 73.94L27.58 73.94Q25.34 73.80 23.22 73.69Q21.10 73.58 19.37 73.58L19.37 73.58Q18.22 73.58 17.17 73.62Q16.13 73.66 15.12 73.73L15.12 73.73Q14.47 75.96 14.08 78.23Q13.68 80.50 13.68 82.66L13.68 82.66Q13.68 84.31 11.52 85.50Q9.36 86.69 6.70 86.69ZM17.50 67.03L17.50 67.03Q19.30 66.53 21.31 66.35Q23.33 66.17 25.63 66.17L25.63 66.17L27.22 66.17Q27.07 60.84 26.82 55.22Q26.57 49.61 24.98 44.78L24.98 44.78Q24.41 49.97 22.10 55.66Q19.80 61.34 17.50 67.03ZM67.90 100.80L67.90 100.80Q64.37 100.80 62.06 98.71Q59.76 96.62 59.76 92.81L59.76 92.81Q59.76 88.70 62.64 83.16L62.64 83.16Q62.14 83.30 61.63 83.38Q61.13 83.45 60.62 83.45L60.62 83.45Q56.45 83.45 53.60 79.81Q50.76 76.18 50.76 69.70L50.76 69.70Q50.76 63.86 53.03 59.40Q55.30 54.94 58.82 52.42Q62.35 49.90 66.17 49.90L66.17 49.90Q68.83 49.90 70.99 51.23Q73.15 52.56 74.52 55.51L74.52 55.51Q74.59 54.79 74.59 54.22Q74.59 53.64 74.59 53.14L74.59 53.14Q74.59 51.91 76.46 51.12Q78.34 50.33 80.64 50.33L80.64 50.33Q82.73 50.33 84.53 51.12Q86.33 51.91 86.90 53.78L86.90 53.78L87.05 54.22Q86.40 54.79 85.93 57.96Q85.46 61.13 84.82 66.74L84.82 66.74Q84.38 70.27 83.74 74.77Q83.09 79.27 81.97 83.84Q80.86 88.42 79.06 92.27Q77.26 96.12 74.52 98.46Q71.78 100.80 67.90 100.80ZM65.52 75.17L65.52 75.17Q67.61 75.17 70.16 71.75Q72.72 68.33 74.23 61.92L74.23 61.92Q72.94 59.11 71.60 57.92Q70.27 56.74 68.90 56.74L68.90 56.74Q67.10 56.74 65.52 58.54Q63.94 60.34 62.96 63.11Q61.99 65.88 61.99 68.83L61.99 68.83Q61.99 71.86 63.00 73.51Q64.01 75.17 65.52 75.17ZM64.66 92.52L64.66 92.52Q67.10 92.52 69.66 87.73Q72.22 82.94 73.22 74.23L73.22 74.23Q67.75 81.65 65.63 85.64Q63.50 89.64 63.50 91.30L63.50 91.30Q63.50 92.52 64.66 92.52ZM109.44 86.69L109.44 86.69Q106.56 86.69 104.18 85.43Q101.81 84.17 100.30 81.72L100.30 81.72Q100.22 83.09 99.29 84.24Q98.35 85.39 95.76 85.39L95.76 85.39Q92.88 85.39 91.51 83.81Q90.14 82.22 90.14 79.63L90.14 79.63Q90.14 78.05 90.58 75.06Q91.01 72.07 91.62 68.33Q92.23 64.58 92.84 60.55Q93.46 56.52 93.89 52.70Q94.32 48.89 94.32 45.86L94.32 45.86Q94.32 43.85 94.10 42.34Q93.89 40.82 93.31 39.96L93.31 39.96L93.31 39.53Q94.97 37.73 96.77 36.83Q98.57 35.93 100.22 35.93L100.22 35.93Q102.67 35.93 104.40 37.87Q106.13 39.82 106.13 44.06L106.13 44.06Q106.13 46.15 105.70 49.93Q105.26 53.71 104.62 57.46L104.62 57.46Q107.21 53.78 110.12 51.84Q113.04 49.90 115.78 49.90L115.78 49.90Q119.45 49.90 122.04 53.39Q124.63 56.88 124.63 63.94L124.63 63.94Q124.63 68.11 123.66 72.18Q122.69 76.25 120.74 79.52Q118.80 82.80 115.96 84.74Q113.11 86.69 109.44 86.69ZM105.84 79.42L105.84 79.42Q108.14 79.42 109.76 77.40Q111.38 75.38 112.21 72.25Q113.04 69.12 113.04 65.81L113.04 65.81Q113.04 63.65 112.68 61.67Q112.32 59.69 111.60 58.43Q110.88 57.17 109.73 57.17L109.73 57.17Q107.71 57.17 105.16 61.88Q102.60 66.60 101.16 75.24L101.16 75.24Q102.46 79.42 105.84 79.42ZM154.80 86.76L154.80 86.76Q152.28 86.76 150.41 85.10Q148.54 83.45 148.54 79.70L148.54 79.70Q148.54 79.34 148.54 78.98Q148.54 78.62 148.61 78.26L148.61 78.26Q146.45 82.58 143.75 84.64Q141.05 86.69 138.31 86.69L138.31 86.69Q135.79 86.69 133.56 84.92Q131.33 83.16 129.96 79.70Q128.59 76.25 128.59 71.35L128.59 71.35Q128.59 66.31 130.00 62.35Q131.40 58.39 133.70 55.66Q136.01 52.92 138.74 51.52Q141.48 50.11 144.07 50.11L144.07 50.11Q146.95 50.11 149.26 51.88Q151.56 53.64 152.42 57.46L152.42 57.46Q152.64 56.23 152.75 55.22Q152.86 54.22 152.86 53.86L152.86 53.86Q152.93 51.91 154.84 50.98Q156.74 50.04 159.05 50.04L159.05 50.04Q161.06 50.04 162.86 50.83Q164.66 51.62 165.31 53.50L165.31 53.50L165.46 53.93Q164.59 55.87 163.73 58.61Q162.86 61.34 162.14 64.33Q161.42 67.32 160.99 70.16Q160.56 73.01 160.56 75.17L160.56 75.17Q160.56 77.54 161.06 78.44Q161.57 79.34 162.29 79.34L162.29 79.34Q163.51 79.34 164.52 77.62L164.52 77.62L165.10 77.90Q165.10 80.35 163.51 82.37Q161.93 84.38 159.55 85.57Q157.18 86.76 154.80 86.76ZM143.06 77.62L143.06 77.62Q144.94 77.62 147.20 74.27Q149.47 70.92 151.13 64.66L151.13 64.66Q151.27 64.01 151.42 63.40Q151.56 62.78 151.63 62.21L151.63 62.21Q150.48 59.54 149.22 58.43Q147.96 57.31 146.74 57.31L146.74 57.31Q144.94 57.31 143.39 59.22Q141.84 61.13 140.87 64.01Q139.90 66.89 139.90 69.77L139.90 69.77Q139.90 73.73 140.80 75.67Q141.70 77.62 143.06 77.62ZM177.41 86.69L177.41 86.69Q175.46 86.69 173.63 85.72Q171.79 84.74 170.64 82.58Q169.49 80.42 169.49 77.04L169.49 77.04Q169.49 74.02 170.32 69.95Q171.14 65.88 172.19 61.49Q173.23 57.10 174.02 52.92Q174.82 48.74 174.74 45.50L174.74 45.50Q174.74 42.41 174.02 41.11L174.02 41.11L173.95 40.90Q174.74 38.59 176.76 37.30Q178.78 36 181.01 36L181.01 36Q183.53 36 185.51 37.91Q187.49 39.82 187.49 44.28L187.49 44.28Q187.49 46.66 186.91 49.93Q186.34 53.21 185.54 56.92Q184.75 60.62 183.92 64.22Q183.10 67.82 182.52 70.85Q181.94 73.87 181.94 75.82L181.94 75.82Q181.94 77.83 182.52 78.59Q183.10 79.34 183.82 79.34L183.82 79.34Q184.61 79.34 185.33 78.73Q186.05 78.12 186.26 77.62L186.26 77.62L186.84 77.76Q186.77 80.35 185.36 82.37Q183.96 84.38 181.84 85.54Q179.71 86.69 177.41 86.69ZM200.81 86.69L200.81 86.69Q197.57 86.69 195.37 84.02Q193.18 81.36 193.18 76.90L193.18 76.90Q193.18 74.45 193.75 71.64Q194.33 68.83 194.90 66.31L194.90 66.31Q195.41 64.44 195.73 62.82Q196.06 61.20 196.06 60.19L196.06 60.19Q196.06 58.90 195.52 58.32Q194.98 57.74 194.26 57.74L194.26 57.74Q193.54 57.74 192.82 58.21Q192.10 58.68 191.66 59.62L191.66 59.62L191.09 59.40Q191.09 56.45 192.53 54.36Q193.97 52.27 196.20 51.19Q198.43 50.11 200.74 50.11L200.74 50.11Q202.61 50.11 204.34 50.87Q206.06 51.62 207.18 53.21Q208.30 54.79 208.30 57.17L208.30 57.17Q208.30 58.61 207.90 60.62Q207.50 62.64 207.00 64.80L207.00 64.80Q206.50 67.03 206.03 69.30Q205.56 71.57 205.56 73.30L205.56 73.30Q205.56 74.88 206.06 75.89Q206.57 76.90 207.58 76.90L207.58 76.90Q209.45 76.90 211.79 73.44Q214.13 69.98 215.57 64.15L215.57 64.15Q215.86 63 216.07 61.70Q216.29 60.41 216.29 59.04L216.29 59.04Q216.29 57.96 216.14 56.84Q216.00 55.73 215.71 54.58L215.71 54.58L215.71 54.07Q216.86 52.13 218.70 51.12Q220.54 50.11 222.41 50.11L222.41 50.11Q224.93 50.11 226.94 51.84Q228.96 53.57 228.96 56.88L228.96 56.88Q228.96 58.82 228.24 61.38Q227.52 63.94 226.66 66.67L226.66 66.67Q225.79 69.34 225.07 71.93Q224.35 74.52 224.35 76.54L224.35 76.54Q224.35 79.49 226.44 79.49L226.44 79.49Q227.02 79.49 227.84 79.16Q228.67 78.84 229.39 77.83L229.39 77.83L229.90 77.98Q229.90 80.57 228.49 82.55Q227.09 84.53 224.93 85.61Q222.77 86.69 220.46 86.69L220.46 86.69Q217.51 86.69 215.17 84.53Q212.83 82.37 212.83 77.47L212.83 77.47L212.83 77.33Q209.88 82.37 206.71 84.53Q203.54 86.69 200.81 86.69ZM241.42 86.69L241.42 86.69Q238.82 86.69 236.77 84.56Q234.72 82.44 234.72 78.70L234.72 78.70Q234.72 76.82 235.22 74.41Q235.73 72 236.34 69.48Q236.95 66.96 237.46 64.73Q237.96 62.50 237.96 60.98L237.96 60.98Q237.96 59.76 237.38 59.00Q236.81 58.25 235.87 58.25L235.87 58.25Q234.65 58.25 233.21 59.69L233.21 59.69L232.78 59.40Q232.70 58.25 233.28 56.66Q233.86 55.08 235.15 53.60Q236.45 52.13 238.54 51.12Q240.62 50.11 243.50 50.11L243.50 50.11Q246.74 50.11 248.36 52.38Q249.98 54.65 249.98 57.82L249.98 57.82Q249.98 58.18 249.98 58.57Q249.98 58.97 249.91 59.33L249.91 59.33Q251.28 57.10 253.12 55.01Q254.95 52.92 257.29 51.52Q259.63 50.11 262.37 50.11L262.37 50.11Q265.90 50.11 267.26 52.38Q268.63 54.65 268.63 57.53L268.63 57.53Q268.63 58.10 268.60 58.64Q268.56 59.18 268.49 59.69L268.49 59.69Q270.00 57.46 271.84 55.26Q273.67 53.06 276.05 51.59Q278.42 50.11 281.52 50.11L281.52 50.11Q285.34 50.11 286.74 52.34Q288.14 54.58 288.14 57.60L288.14 57.60Q288.14 60.26 287.50 63.68Q286.85 67.10 286.20 70.42Q285.55 73.73 285.55 76.03L285.55 76.03Q285.55 77.40 285.95 78.26Q286.34 79.13 287.28 79.13L287.28 79.13Q288.07 79.13 288.76 78.66Q289.44 78.19 289.73 77.54L289.73 77.54L290.30 77.76Q290.30 80.42 288.79 82.44Q287.28 84.46 284.98 85.57Q282.67 86.69 280.37 86.69L280.37 86.69Q277.56 86.69 275.44 84.82Q273.31 82.94 273.31 78.62L273.31 78.62Q273.31 75.96 274.00 72.86Q274.68 69.77 275.36 66.85Q276.05 63.94 276.05 62.06L276.05 62.06Q276.05 59.40 274.18 59.40L274.18 59.40Q272.81 59.40 271.48 60.52Q270.14 61.63 269.10 63.47Q268.06 65.30 267.41 67.32Q266.76 69.34 266.76 71.21L266.76 71.21Q266.76 72.94 267.16 74.99Q267.55 77.04 267.55 78.91L267.55 78.91Q267.55 82.66 265.46 84.67Q263.38 86.69 260.57 86.69L260.57 86.69Q257.98 86.69 255.92 84.96Q253.87 83.23 253.87 79.78L253.87 79.78Q253.87 78.19 254.30 75.92Q254.74 73.66 255.28 71.17Q255.82 68.69 256.25 66.38Q256.68 64.08 256.68 62.35L256.68 62.35Q256.68 60.98 256.28 60.19Q255.89 59.40 254.74 59.40L254.74 59.40Q253.08 59.40 251.57 61.06Q250.06 62.71 248.98 65.05Q247.90 67.39 247.54 69.55L247.54 69.55Q247.46 70.06 247.43 70.34Q247.39 70.63 247.39 70.63L247.39 70.63Q247.39 72.86 247.90 74.70Q248.40 76.54 248.40 78.48L248.40 78.48Q248.40 82.01 246.28 84.35Q244.15 86.69 241.42 86.69ZM309.46 86.90L309.46 86.90Q304.06 86.90 300.53 84.74Q297 82.58 295.31 79.02Q293.62 75.46 293.62 71.42L293.62 71.42Q293.62 67.61 295.02 63.79Q296.42 59.98 299.12 56.84Q301.82 53.71 305.71 51.80Q309.60 49.90 314.64 49.90L314.64 49.90Q320.04 49.90 323.53 52.09Q327.02 54.29 328.72 57.89Q330.41 61.49 330.41 65.59L330.41 65.59Q330.41 69.34 329.04 73.12Q327.67 76.90 324.97 80.03Q322.27 83.16 318.38 85.03Q314.50 86.90 309.46 86.90ZM311.40 80.78L311.40 80.78Q313.34 80.78 314.64 78.77Q315.94 76.75 316.58 73.62Q317.23 70.49 317.23 67.25L317.23 67.25Q317.23 64.37 316.69 61.81Q316.15 59.26 315.07 57.64Q313.99 56.02 312.26 56.02L312.26 56.02Q310.39 56.02 309.06 58.03Q307.73 60.05 307.08 63.14Q306.43 66.24 306.43 69.55L306.43 69.55Q306.43 72.43 306.97 74.99Q307.51 77.54 308.59 79.16Q309.67 80.78 311.40 80.78Z"/></svg>