<?xml version="1.0" encoding="UTF-8"?>
<svg xmlns="http://www.w3.org/2000/svg" xmlns:xlink="http://www.w3.org/1999/xlink" width="396.00000000000006" height="75.528" viewBox="0 -12.235999999999997 396.00000000000006 100" preserveAspectRatio="xMinYMid meet"><path d="M29.02 61.85L5.83 61.85L5.83 57.60L14.69 57.60L14.69 21.24L6.34 21.24L6.34 16.99L28.58 16.99L28.58 21.24L19.73 21.24L19.73 57.67L29.02 57.67L29.02 61.85ZM46.22 61.85L41.18 61.85L41.18 28.94L46.22 28.94L46.22 34.78Q47.52 32.76 49.25 31.28Q50.98 29.81 53.06 28.98Q55.15 28.15 57.38 28.15L57.38 28.15Q60.12 28.15 62.28 29.52Q64.44 30.89 65.74 33.91Q67.03 36.94 67.03 41.90L67.03 41.90L67.03 61.85L61.99 61.85L61.99 42.05Q61.99 38.59 61.20 36.54Q60.41 34.49 59.04 33.59Q57.67 32.69 55.94 32.69L55.94 32.69Q54.29 32.69 52.60 33.41Q50.90 34.13 49.46 35.46Q48.02 36.79 47.12 38.66Q46.22 40.54 46.22 42.91L46.22 42.91L46.22 61.85ZM92.52 62.64L92.52 62.64Q88.92 62.64 85.90 61.34Q82.87 60.05 80.68 57.74Q78.48 55.44 77.26 52.31Q76.03 49.18 76.03 45.43L76.03 45.43Q76.03 41.76 77.26 38.63Q78.48 35.50 80.68 33.19Q82.87 30.89 85.90 29.59Q88.92 28.30 92.45 28.30L92.45 28.30Q96.48 28.30 99.68 29.92Q102.89 31.54 104.90 34.42L104.90 34.42L101.66 37.58L101.16 38.09L100.80 37.73Q100.80 37.15 100.55 36.65Q100.30 36.14 99.43 35.28L99.43 35.28Q97.85 33.84 96.05 33.26Q94.25 32.69 91.87 32.69L91.87 32.69Q89.78 32.69 87.91 33.55Q86.04 34.42 84.56 36.04Q83.09 37.66 82.22 39.96Q81.36 42.26 81.36 45.07L81.36 45.07Q81.36 47.88 82.22 50.22Q83.09 52.56 84.60 54.29Q86.11 56.02 88.24 56.99Q90.36 57.96 92.81 57.96L92.81 57.96Q94.46 57.96 95.98 57.49Q97.49 57.02 98.86 56.12Q100.22 55.22 101.38 53.93L101.38 53.93L104.40 57.46Q101.95 60.05 98.96 61.34Q95.98 62.64 92.52 62.64L92.52 62.64ZM126.00 62.42L126.00 62.42Q121.54 62.42 118.12 60.23Q114.70 58.03 112.75 54.18Q110.81 50.33 110.81 45.36L110.81 45.36Q110.81 40.32 112.75 36.47Q114.70 32.62 118.12 30.42Q121.54 28.22 126.00 28.22L126.00 28.22Q130.46 28.22 133.88 30.42Q137.30 32.62 139.25 36.47Q141.19 40.32 141.19 45.36L141.19 45.36Q141.19 50.33 139.25 54.18Q137.30 58.03 133.88 60.23Q130.46 62.42 126.00 62.42ZM126.00 58.10L126.00 58.10Q128.88 58.10 131.04 56.45Q133.20 54.79 134.46 51.91Q135.72 49.03 135.72 45.29L135.72 45.29Q135.72 41.54 134.46 38.66Q133.20 35.78 131.04 34.16Q128.88 32.54 126.00 32.54L126.00 32.54Q123.19 32.54 121.00 34.16Q118.80 35.78 117.54 38.66Q116.28 41.54 116.28 45.29L116.28 45.29Q116.28 49.03 117.54 51.91Q118.80 54.79 121.00 56.45Q123.19 58.10 126.00 58.10ZM154.22 61.85L149.18 61.85L149.18 28.94L154.22 28.94L154.22 34.78Q155.52 32.76 157.25 31.28Q158.98 29.81 161.06 28.98Q163.15 28.15 165.38 28.15L165.38 28.15Q168.12 28.15 170.28 29.52Q172.44 30.89 173.74 33.91Q175.03 36.94 175.03 41.90L175.03 41.90L175.03 61.85L169.99 61.85L169.99 42.05Q169.99 38.59 169.20 36.54Q168.41 34.49 167.04 33.59Q165.67 32.69 163.94 32.69L163.94 32.69Q162.29 32.69 160.60 33.41Q158.90 34.13 157.46 35.46Q156.02 36.79 155.12 38.66Q154.22 40.54 154.22 42.91L154.22 42.91L154.22 61.85ZM198.07 62.57L198.07 62.57Q195.34 62.57 192.85 61.99Q190.37 61.42 188.17 60.26Q185.98 59.11 184.10 57.38L184.10 57.38L186.98 52.49L187.42 51.84L187.85 52.13Q187.99 52.70 188.17 53.32Q188.35 53.93 189.14 54.79L189.14 54.79Q190.66 56.30 192.78 57.28Q194.90 58.25 198.22 58.25L198.22 58.25Q200.88 58.25 202.72 57.60Q204.55 56.95 205.56 55.76Q206.57 54.58 206.57 52.99L206.57 52.99Q206.57 51.91 206.14 51.08Q205.70 50.26 204.73 49.54Q203.76 48.82 202.18 48.10Q200.59 47.38 198.29 46.66L198.29 46.66Q194.54 45.58 191.74 44.14Q188.93 42.70 187.42 40.79Q185.90 38.88 185.90 36.43L185.90 36.43Q185.90 33.91 187.27 32.08Q188.64 30.24 191.34 29.20Q194.04 28.15 198.00 28.15L198.00 28.15Q200.30 28.15 202.18 28.48Q204.05 28.80 205.63 29.45Q207.22 30.10 208.55 31.07Q209.88 32.04 211.10 33.34L211.10 33.34L208.15 36.94L207.65 37.51L207.29 37.15Q207.22 36.58 206.96 36.04Q206.71 35.50 205.92 34.70L205.92 34.70Q204.26 33.41 202.18 32.72Q200.09 32.04 198.14 32.04L198.14 32.04Q195.26 32.04 193.18 33.05Q191.09 34.06 191.09 36.14L191.09 36.14Q191.09 37.22 191.84 38.27Q192.60 39.31 194.62 40.36Q196.63 41.40 200.38 42.48L200.38 42.48Q204.48 43.78 206.96 45.11Q209.45 46.44 210.56 48.17Q211.68 49.90 211.68 52.27L211.68 52.27Q211.68 55.01 210.20 57.38Q208.73 59.76 205.70 61.16Q202.68 62.57 198.07 62.57L198.07 62.57ZM234.00 62.42L234.00 62.42Q229.54 62.42 226.12 60.23Q222.70 58.03 220.75 54.18Q218.81 50.33 218.81 45.36L218.81 45.36Q218.81 40.32 220.75 36.47Q222.70 32.62 226.12 30.42Q229.54 28.22 234.00 28.22L234.00 28.22Q238.46 28.22 241.88 30.42Q245.30 32.62 247.25 36.47Q249.19 40.32 249.19 45.36L249.19 45.36Q249.19 50.33 247.25 54.18Q245.30 58.03 241.88 60.23Q238.46 62.42 234.00 62.42ZM234.00 58.10L234.00 58.10Q236.88 58.10 239.04 56.45Q241.20 54.79 242.46 51.91Q243.72 49.03 243.72 45.29L243.72 45.29Q243.72 41.54 242.46 38.66Q241.20 35.78 239.04 34.16Q236.88 32.54 234.00 32.54L234.00 32.54Q231.19 32.54 229.00 34.16Q226.80 35.78 225.54 38.66Q224.28 41.54 224.28 45.29L224.28 45.29Q224.28 49.03 225.54 51.91Q226.80 54.79 229.00 56.45Q231.19 58.10 234.00 58.10ZM282.31 61.85L257.69 61.85L257.69 57.67L267.41 57.67L267.41 18.14L258.12 18.14L258.12 13.97L272.66 13.97L272.66 57.67L282.31 57.67L282.31 61.85ZM303.19 62.64L303.19 62.64Q297.58 62.64 294.55 60.08Q291.53 57.53 291.53 53.57L291.53 53.57Q291.53 50.90 292.82 48.78Q294.12 46.66 296.39 45.18Q298.66 43.70 301.68 42.91Q304.70 42.12 308.09 42.12L308.09 42.12Q309.31 42.12 310.57 42.16Q311.83 42.19 313.24 42.30Q314.64 42.41 316.15 42.62L316.15 42.62L316.30 46.58Q315.00 46.37 313.67 46.26Q312.34 46.15 311.04 46.08Q309.74 46.01 308.52 46.01L308.52 46.01Q305.93 46.01 303.77 46.44Q301.61 46.87 300.02 47.74Q298.44 48.60 297.58 49.97Q296.71 51.34 296.71 53.28L296.71 53.28Q296.71 54.79 297.25 55.84Q297.79 56.88 298.73 57.49Q299.66 58.10 300.92 58.39Q302.18 58.68 303.70 58.68L303.70 58.68Q306.50 58.68 308.70 57.78Q310.90 56.88 312.44 55.15Q313.99 53.42 314.78 50.90Q315.58 48.38 315.58 45.14L315.58 45.14Q315.58 40.25 314.42 37.51Q313.27 34.78 311.00 33.62Q308.74 32.47 305.21 32.47L305.21 32.47Q302.83 32.47 300.53 33.37Q298.22 34.27 296.35 36.14L296.35 36.14L293.83 32.83Q296.14 30.53 299.16 29.38Q302.18 28.22 305.57 28.22L305.57 28.22Q308.81 28.22 311.47 29.02Q314.14 29.81 316.04 31.64Q317.95 33.48 319.00 36.58Q320.04 39.67 320.04 44.35L320.04 44.35L320.04 61.85L314.42 61.85L314.42 56.81Q313.49 58.61 312.16 59.76Q310.82 60.91 309.31 61.52Q307.80 62.14 306.22 62.39Q304.63 62.64 303.19 62.64ZM345.53 62.35L345.53 62.35Q342.36 62.35 340.34 61.27Q338.33 60.19 337.25 57.92Q336.17 55.66 335.84 52.20Q335.52 48.74 335.66 43.99L335.66 43.99L336.53 20.52L341.93 19.87L342.65 19.80L342.72 20.30Q342.36 20.81 342.11 21.31Q341.86 21.82 341.71 23.04L341.71 23.04L341.06 31.18L341.28 32.47L340.78 44.35Q340.56 49.82 341.06 52.81Q341.57 55.80 342.86 56.92Q344.16 58.03 346.32 58.03L346.32 58.03Q348.70 58.03 350.53 57.10Q352.37 56.16 354.38 54.72L354.38 54.72L355.97 58.82Q353.52 60.62 350.93 61.49Q348.34 62.35 345.53 62.35L345.53 62.35ZM329.04 33.19L329.04 28.94L352.73 28.94L352.73 33.19L329.04 33.19ZM375.19 62.64L375.19 62.64Q369.58 62.64 366.55 60.08Q363.53 57.53 363.53 53.57L363.53 53.57Q363.53 50.90 364.82 48.78Q366.12 46.66 368.39 45.18Q370.66 43.70 373.68 42.91Q376.70 42.12 380.09 42.12L380.09 42.12Q381.31 42.12 382.57 42.16Q383.83 42.19 385.24 42.30Q386.64 42.41 388.15 42.62L388.15 42.62L388.30 46.58Q387.00 46.37 385.67 46.26Q384.34 46.15 383.04 46.08Q381.74 46.01 380.52 46.01L380.52 46.01Q377.93 46.01 375.77 46.44Q373.61 46.87 372.02 47.74Q370.44 48.60 369.58 49.97Q368.71 51.34 368.71 53.28L368.71 53.28Q368.71 54.79 369.25 55.84Q369.79 56.88 370.73 57.49Q371.66 58.10 372.92 58.39Q374.18 58.68 375.70 58.68L375.70 58.68Q378.50 58.68 380.70 57.78Q382.90 56.88 384.44 55.15Q385.99 53.42 386.78 50.90Q387.58 48.38 387.58 45.14L387.58 45.14Q387.58 40.25 386.42 37.51Q385.27 34.78 383.00 33.62Q380.74 32.47 377.21 32.47L377.21 32.47Q374.83 32.47 372.53 33.37Q370.22 34.27 368.35 36.14L368.35 36.14L365.83 32.83Q368.14 30.53 371.16 29.38Q374.18 28.22 377.57 28.22L377.57 28.22Q380.81 28.22 383.47 29.02Q386.14 29.81 388.04 31.64Q389.95 33.48 391.00 36.58Q392.04 39.67 392.04 44.35L392.04 44.35L392.04 61.85L386.42 61.85L386.42 56.81Q385.49 58.61 384.16 59.76Q382.82 60.91 381.31 61.52Q379.80 62.14 378.22 62.39Q376.63 62.64 375.19 62.64Z"/></svg>