<?xml version="1.0" encoding="UTF-8"?>
<svg xmlns="http://www.w3.org/2000/svg" xmlns:xlink="http://www.w3.org/1999/xlink" width="386.928" height="86.4" viewBox="0 -6.799999999999997 386.928 100" preserveAspectRatio="xMinYMid meet"><path d="M24.62 18.65L40.03 64.80L34.13 64.80L33.05 60.19L30.46 52.27L20.09 52.06L10.73 52.27L7.92 59.90L6.77 64.80L1.01 64.80L17.93 18.65L24.62 18.65ZM20.59 47.52L28.87 47.38L21.38 24.62L20.88 24.62L12.53 47.38L20.59 47.52ZM53.42 14.26L52.99 50.33L53.35 64.80L47.66 64.80L48.10 50.76L47.74 14.76L53.42 14.26ZM88.42 48.02L67.75 48.10L67.75 48.24Q67.75 54.29 70.49 57.53Q73.22 60.77 78.26 60.77L78.26 60.77Q80.78 60.77 83.30 59.94Q85.82 59.11 87.91 57.60L87.91 57.60L88.49 58.03L87.62 62.93Q82.58 65.38 77.54 65.38L77.54 65.38Q70.49 65.38 66.46 60.88Q62.42 56.38 62.42 48.53L62.42 48.53Q62.42 40.61 66.46 35.93Q70.49 31.25 77.33 31.25L77.33 31.25Q83.09 31.25 86.26 34.52Q89.42 37.80 89.42 43.63L89.42 43.63Q89.42 45.58 89.14 47.30L89.14 47.30L88.42 48.02ZM77.33 35.28Q73.73 35.28 71.32 37.62Q68.90 39.96 68.11 44.21L68.11 44.21L84.02 43.92L84.17 42.91Q84.17 39.24 82.40 37.26Q80.64 35.28 77.33 35.28L77.33 35.28ZM126.79 34.63Q124.56 35.28 120.17 36.14L120.17 36.14L120.02 36.43Q121.61 38.95 121.61 42.55L121.61 42.55Q121.61 47.81 118.12 50.90Q114.62 54.00 108.65 54.00L108.65 54.00Q106.27 54.00 104.18 53.42L104.18 53.42Q102.96 54.36 102.53 54.94Q102.10 55.51 102.10 56.23L102.10 56.23Q102.10 57.74 103.97 58.36Q105.84 58.97 110.09 59.62L110.09 59.62Q114.26 60.19 116.93 60.91Q119.59 61.63 121.54 63.25Q123.48 64.87 123.48 67.75L123.48 67.75Q123.48 70.78 121.43 73.30Q119.38 75.82 115.81 77.26Q112.25 78.70 108.00 78.70L108.00 78.70Q102.24 78.70 99.04 76.07Q95.83 73.44 95.83 69.26L95.83 69.26Q97.56 65.81 102.17 63.00L102.17 63.00L102.17 62.64Q99.58 61.85 98.17 60.52Q96.77 59.18 96.77 56.88L96.77 56.88Q98.28 54.36 101.16 52.49L101.16 52.49L101.16 52.20Q98.86 50.76 97.67 48.42Q96.48 46.08 96.48 42.98L96.48 42.98Q96.48 37.58 99.97 34.52Q103.46 31.46 109.30 31.46L109.30 31.46Q113.11 31.46 115.78 32.76L115.78 32.76Q120.74 31.82 126.22 30.31L126.22 30.31L126.79 30.74L126.79 34.63ZM108.94 50.11Q112.54 50.11 114.52 48.10Q116.50 46.08 116.50 42.48L116.50 42.48Q116.50 39.02 114.62 37.15Q112.75 35.28 109.22 35.28L109.22 35.28Q105.62 35.28 103.61 37.22Q101.59 39.17 101.59 42.77L101.59 42.77Q101.59 46.22 103.50 48.17Q105.41 50.11 108.94 50.11L108.94 50.11ZM118.44 68.83Q118.44 66.46 116.03 65.52Q113.62 64.58 108.72 63.86L108.72 63.86L106.42 63.50Q103.68 65.16 102.28 66.67Q100.87 68.18 100.87 69.84L100.87 69.84Q100.87 71.93 102.92 73.30Q104.98 74.66 108.65 74.66L108.65 74.66Q112.82 74.66 115.63 72.97Q118.44 71.28 118.44 68.83L118.44 68.83ZM147.82 31.75Q148.68 31.75 149.69 31.90L149.69 31.90L149.69 37.44L149.04 37.66Q147.82 37.30 146.38 37.30L146.38 37.30Q144.00 37.30 142.02 39.20Q140.04 41.11 138.10 45.29L138.10 45.29L138.02 50.33L138.38 64.80L132.70 64.80L133.06 50.83L132.77 32.18L138.17 31.68L138.10 38.45L138.53 38.45Q140.54 34.85 142.99 33.30Q145.44 31.75 147.82 31.75L147.82 31.75ZM179.14 48.02L158.47 48.10L158.47 48.24Q158.47 54.29 161.21 57.53Q163.94 60.77 168.98 60.77L168.98 60.77Q171.50 60.77 174.02 59.94Q176.54 59.11 178.63 57.60L178.63 57.60L179.21 58.03L178.34 62.93Q173.30 65.38 168.26 65.38L168.26 65.38Q161.21 65.38 157.18 60.88Q153.14 56.38 153.14 48.53L153.14 48.53Q153.14 40.61 157.18 35.93Q161.21 31.25 168.05 31.25L168.05 31.25Q173.81 31.25 176.98 34.52Q180.14 37.80 180.14 43.63L180.14 43.63Q180.14 45.58 179.86 47.30L179.86 47.30L179.14 48.02ZM168.05 35.28Q164.45 35.28 162.04 37.62Q159.62 39.96 158.83 44.21L158.83 44.21L174.74 43.92L174.89 42.91Q174.89 39.24 173.12 37.26Q171.36 35.28 168.05 35.28L168.05 35.28ZM189.36 31.61L190.44 35.86L198.36 58.61L198.86 58.61L207.07 36.36L208.15 31.82L213.26 31.82L201.46 63.65Q199.66 68.54 197.60 71.35Q195.55 74.16 192.64 75.78Q189.72 77.40 184.97 78.55L184.97 78.55L184.46 78.55Q182.95 77.04 182.09 75.17L182.09 75.17L182.23 74.52Q187.70 73.44 190.62 71.46Q193.54 69.48 196.06 64.80L196.06 64.80L183.96 31.97L189.36 31.61ZM229.54 31.25Q234.22 31.25 236.92 33.55Q239.62 35.86 239.62 39.89L239.62 39.89Q239.62 41.11 239.18 48.74L239.18 48.74Q238.75 56.38 238.75 57.67L238.75 57.67Q238.75 59.26 239.26 59.87Q239.76 60.48 240.98 60.48L240.98 60.48Q242.06 60.48 243.43 60.05L243.43 60.05L244.01 60.55L243.43 63.79Q241.34 65.02 239.33 65.23L239.33 65.23Q237.10 65.02 235.76 63.65Q234.43 62.28 234.36 59.90L234.36 59.90L233.86 59.90Q229.97 63.86 226.15 65.30L226.15 65.30Q221.33 65.30 218.63 62.89Q215.93 60.48 215.93 56.30L215.93 56.30Q215.93 53.14 217.62 51.26Q219.31 49.39 222.62 48.60L222.62 48.60L234.29 45.86L234.36 41.18Q234.36 38.38 232.88 36.86Q231.41 35.35 228.67 35.35L228.67 35.35Q226.22 35.35 223.78 36.50Q221.33 37.66 218.52 40.10L218.52 40.10L217.94 39.82L217.22 35.71Q223.20 31.25 229.54 31.25L229.54 31.25ZM234.22 49.54L223.78 52.06Q222.34 52.49 221.69 53.24Q221.04 54.00 221.04 55.51L221.04 55.51Q221.04 57.89 222.37 59.22Q223.70 60.55 225.94 60.55L225.94 60.55Q229.90 60.55 234.00 55.44L234.00 55.44L234.22 49.54ZM277.27 18.29Q282.24 18.29 287.57 20.45L287.57 20.45L286.63 25.99L285.62 26.28Q283.54 24.70 281.20 23.83Q278.86 22.97 276.55 22.97L276.55 22.97Q273.89 22.97 271.91 24.05Q269.93 25.13 268.88 26.86Q267.84 28.58 267.84 30.46L267.84 30.46Q267.84 32.40 269.03 33.88Q270.22 35.35 272.02 36.43Q273.82 37.51 276.91 39.02L276.91 39.02Q280.80 40.82 283.18 42.37Q285.55 43.92 287.24 46.30Q288.94 48.67 288.94 52.06L288.94 52.06Q288.94 55.66 286.99 58.68Q285.05 61.70 281.52 63.50Q277.99 65.30 273.46 65.30L273.46 65.30Q270.43 65.30 267.16 64.48Q263.88 63.65 261.07 62.06L261.07 62.06L261.79 56.16L262.58 55.80Q265.10 58.25 268.16 59.44Q271.22 60.62 274.03 60.62L274.03 60.62Q276.77 60.62 278.89 59.54Q281.02 58.46 282.13 56.66Q283.25 54.86 283.25 52.85L283.25 52.85Q283.25 49.82 280.94 47.99Q278.64 46.15 273.96 43.99L273.96 43.99Q270.14 42.12 267.84 40.64Q265.54 39.17 263.88 36.83Q262.22 34.49 262.22 31.10L262.22 31.10Q262.22 27.58 264.13 24.62Q266.04 21.67 269.46 19.98Q272.88 18.29 277.27 18.29L277.27 18.29ZM307.22 31.25Q311.90 31.25 314.60 33.55Q317.30 35.86 317.30 39.89L317.30 39.89Q317.30 41.11 316.87 48.74L316.87 48.74Q316.44 56.38 316.44 57.67L316.44 57.67Q316.44 59.26 316.94 59.87Q317.45 60.48 318.67 60.48L318.67 60.48Q319.75 60.48 321.12 60.05L321.12 60.05L321.70 60.55L321.12 63.79Q319.03 65.02 317.02 65.23L317.02 65.23Q314.78 65.02 313.45 63.65Q312.12 62.28 312.05 59.90L312.05 59.90L311.54 59.90Q307.66 63.86 303.84 65.30L303.84 65.30Q299.02 65.30 296.32 62.89Q293.62 60.48 293.62 56.30L293.62 56.30Q293.62 53.14 295.31 51.26Q297.00 49.39 300.31 48.60L300.31 48.60L311.98 45.86L312.05 41.18Q312.05 38.38 310.57 36.86Q309.10 35.35 306.36 35.35L306.36 35.35Q303.91 35.35 301.46 36.50Q299.02 37.66 296.21 40.10L296.21 40.10L295.63 39.82L294.91 35.71Q300.89 31.25 307.22 31.25L307.22 31.25ZM311.90 49.54L301.46 52.06Q300.02 52.49 299.38 53.24Q298.73 54.00 298.73 55.51L298.73 55.51Q298.73 57.89 300.06 59.22Q301.39 60.55 303.62 60.55L303.62 60.55Q307.58 60.55 311.69 55.44L311.69 55.44L311.90 49.54ZM349.34 64.80L349.70 42.41Q349.78 39.46 348.34 37.80Q346.90 36.14 344.09 36.14L344.09 36.14Q339.55 36.14 334.30 41.26L334.30 41.26L334.30 50.33L334.58 64.80L328.90 64.80L329.26 50.83L328.97 32.18L334.37 31.68L334.37 36.50L334.80 36.50Q339.26 32.54 343.94 31.39L343.94 31.39Q349.34 31.39 352.19 33.91Q355.03 36.43 354.96 41.11L354.96 41.11L354.82 50.47L355.10 64.80L349.34 64.80ZM375.05 31.32Q379.15 31.32 382.97 32.90L382.97 32.90L382.18 37.58L381.31 37.80Q377.71 35.42 374.40 35.42L374.40 35.42Q371.95 35.42 370.44 36.79Q368.93 38.16 368.93 40.10L368.93 40.10Q368.93 42.05 370.48 43.24Q372.02 44.42 375.26 45.94L375.26 45.94Q378.07 47.23 379.76 48.28Q381.46 49.32 382.68 51.05Q383.90 52.78 383.90 55.30L383.90 55.30Q383.90 57.96 382.54 60.26Q381.17 62.57 378.50 63.97Q375.84 65.38 372.17 65.38L372.17 65.38Q367.13 65.38 362.59 63.00L362.59 63.00L363.31 58.10L363.96 57.67Q365.98 59.40 368.32 60.34Q370.66 61.27 372.74 61.27L372.74 61.27Q375.41 61.27 377.06 59.80Q378.72 58.32 378.72 56.30L378.72 56.30Q378.72 54.36 377.17 53.17Q375.62 51.98 372.38 50.47L372.38 50.47Q369.58 49.18 367.85 48.13Q366.12 47.09 364.90 45.29Q363.67 43.49 363.67 40.82L363.67 40.82Q363.67 36.65 366.73 33.98Q369.79 31.32 375.05 31.32L375.05 31.32Z"/></svg>