<?xml version="1.0" encoding="utf-8"?>
<!-- Generator: Adobe Illustrator 16.0.0, SVG Export Plug-In . SVG Version: 6.00 Build 0)  -->
<!DOCTYPE svg PUBLIC "-//W3C//DTD SVG 1.1//EN" "http://www.w3.org/Graphics/SVG/1.1/DTD/svg11.dtd">
<svg version="1.1" id="Layer_1" xmlns="http://www.w3.org/2000/svg" xmlns:xlink="http://www.w3.org/1999/xlink" x="0px" y="0px"
	 width="86.546px" height="69.212px" viewBox="-0.257 0 86.546 69.212" enable-background="new -0.257 0 86.546 69.212"
	 xml:space="preserve">
<path fill="#000000" d="M44.96,17.405"/>
<g>
	<path fill="#000000" d="M61.098,0c-8.768,0-14.711,3.928-18.034,7.151C39.738,3.928,33.795,0,25.03,0
		C10.824,0-0.257,10.981-0.257,24.985c0,10.881,7.554,18.234,15.01,23.977c11.99,9.27,28.009,20.152,28.21,20.25l0,0l0,0
		c0.201-0.098,16.221-11.08,28.211-20.25c7.459-5.742,15.113-13.096,15.113-23.977C86.385,10.981,75.307,0,61.098,0z M66.227,43.101
		c-7.981,6.13-17.809,13.042-23.163,16.738C37.71,56.143,27.881,49.23,19.899,43.101C11.334,36.485,8.026,31.518,8.026,25.387
		c0-9.733,7.688-17.326,17.617-17.326c9.926,0,17.421,11,17.421,11s7.203-11,17.422-11c9.828,0,17.612,7.592,17.612,17.326
		C78.098,31.518,74.791,36.485,66.227,43.101z"/>
</g>
</svg>
