<?xml version="1.0" encoding="UTF-8"?>
<svg xmlns="http://www.w3.org/2000/svg" xmlns:xlink="http://www.w3.org/1999/xlink" width="578.7421875" height="82.828125" viewBox="0 -8.5859375 578.7421875 100" preserveAspectRatio="xMinYMid meet"><path d="M52.31 22.08L52.31 66.45L50.70 66.45L13.01 20.39L13.01 56.32Q13.01 58.92 13.32 60.43Q13.64 61.95 14.48 62.72L14.48 62.72Q15.33 63.49 16.66 63.70Q18 63.91 20.04 63.91L20.04 63.91L20.04 65.67Q18.21 65.67 15.93 65.64Q13.64 65.60 11.32 65.60L11.32 65.60Q8.93 65.60 6.68 65.60Q4.43 65.60 2.67 65.67L2.67 65.67L2.67 63.91Q4.85 63.91 6.40 63.67Q7.95 63.42 8.86 62.65L8.86 62.65Q9.84 61.88 10.27 60.40Q10.69 58.92 10.69 56.39L10.69 56.39L10.69 22.15Q10.69 18 8.44 16.49Q6.19 14.98 1.41 14.98L1.41 14.98L1.41 13.22Q2.25 13.36 3.73 13.36Q5.20 13.36 6.82 13.36L6.82 13.36Q8.44 13.36 9.88 13.32Q11.32 13.29 12.09 13.22L12.09 13.22L49.99 58.50L49.99 22.08Q49.99 19.90 49.68 18.53Q49.36 17.16 48.59 16.38L48.59 16.38Q47.81 15.61 46.41 15.33Q45 15.05 42.82 14.98L42.82 14.98L42.82 13.15Q44.16 13.22 46.48 13.25Q48.80 13.29 51.19 13.29L51.19 13.29Q53.65 13.29 55.90 13.25Q58.15 13.22 59.41 13.15L59.41 13.15L59.41 14.98Q57.09 14.98 55.72 15.22Q54.35 15.47 53.58 16.24L53.58 16.24Q52.80 17.02 52.56 18.39Q52.31 19.76 52.31 22.08L52.31 22.08ZM83.81 58.78L83.81 48.52Q76.08 50.84 72.25 52.84Q68.41 54.84 68.41 57.94L68.41 57.94Q68.41 61.17 70.07 62.33Q71.72 63.49 74.67 63.49L74.67 63.49Q77.27 63.49 79.66 62.09Q82.05 60.68 83.81 58.78L83.81 58.78ZM94.22 61.80L94.43 63Q92.88 64.48 91.16 65.67Q89.44 66.87 87.68 66.87L87.68 66.87Q85.99 66.87 84.97 65.32Q83.95 63.77 83.81 60.82L83.81 60.82Q81.21 63.56 78.05 65.21Q74.88 66.87 71.44 66.87L71.44 66.87Q68.27 66.87 66.09 64.79Q63.91 62.72 64.05 59.55L64.05 59.55Q64.13 56.95 65.64 55.09Q67.15 53.23 69.82 51.82L69.82 51.82Q72.42 50.41 76.01 49.22Q79.59 48.02 83.81 46.69L83.81 46.69L83.81 41.84Q83.81 38.74 82.37 36.74Q80.93 34.73 76.78 34.73L76.78 34.73Q73.83 34.73 71.54 36.46Q69.26 38.18 69.19 40.64L69.19 40.64Q69.19 42.33 68.52 43.10Q67.85 43.88 66.87 43.88L66.87 43.88Q66.02 43.88 65.57 43.17Q65.11 42.47 65.11 41.34L65.11 41.34Q65.11 39.45 66.90 37.69Q68.70 35.93 72.70 33.82L72.70 33.82Q75.02 32.55 76.54 31.99Q78.05 31.43 79.73 31.43L79.73 31.43Q83.11 31.43 85.61 33.47Q88.10 35.51 88.10 39.38L88.10 39.38L88.10 58.57Q88.10 62.51 89.82 63.07Q91.55 63.63 94.22 61.80L94.22 61.80ZM108.77 31.43L108.77 31.43Q108.56 33.33 108.53 35.16Q108.49 36.98 108.49 37.90L108.49 37.90Q111.66 35.58 115.31 33.47Q118.97 31.36 122.34 31.36L122.34 31.36Q126.56 31.36 128.39 34.42Q130.22 37.48 130.22 41.84L130.22 41.84L130.22 58.50Q130.22 61.45 131.20 62.68Q132.19 63.91 135.35 63.91L135.35 63.91L135.35 65.67Q134.37 65.67 133.49 65.67Q132.61 65.67 131.77 65.60L131.77 65.60Q130.92 65.60 130.04 65.57Q129.16 65.53 128.18 65.53L128.18 65.53Q127.13 65.53 126.25 65.57Q125.37 65.60 124.52 65.60L124.52 65.60Q123.68 65.60 122.80 65.64Q121.92 65.67 120.94 65.67L120.94 65.67L120.94 63.91Q123.96 63.91 124.95 62.68Q125.93 61.45 125.93 58.50L125.93 58.50L125.93 41.77Q125.93 38.25 124.31 36.70Q122.70 35.16 118.97 35.16L118.97 35.16Q117.91 35.23 116.51 35.68Q115.10 36.14 113.70 36.77L113.70 36.77Q112.22 37.48 110.85 38.32Q109.48 39.16 108.49 40.01L108.49 40.01L108.49 58.50Q108.49 61.45 109.48 62.68Q110.46 63.91 113.63 63.91L113.63 63.91L113.63 65.67Q112.57 65.67 111.73 65.67Q110.88 65.67 110.04 65.60L110.04 65.60Q109.20 65.60 108.32 65.57Q107.44 65.53 106.45 65.53L106.45 65.53Q105.40 65.53 104.52 65.57Q103.64 65.60 102.80 65.60L102.80 65.60Q101.88 65.60 101.00 65.64Q100.13 65.67 99.14 65.67L99.14 65.67L99.14 63.91Q102.23 63.91 103.18 62.68Q104.13 61.45 104.13 58.50L104.13 58.50L104.13 41.98Q104.13 40.08 104.03 38.95Q103.92 37.83 103.50 37.20L103.50 37.20Q103.08 36.56 102.23 36.35Q101.39 36.14 99.91 36.14L99.91 36.14L99.91 34.66Q102.16 34.31 104.03 33.61Q105.89 32.91 107.44 31.43L107.44 31.43L108.77 31.43ZM166.29 66.30L166.29 60.05Q162.91 62.79 159.26 64.83Q155.60 66.87 152.09 66.87L152.09 66.87Q150.75 66.87 149.41 66.41Q148.08 65.95 146.95 64.83L146.95 64.83Q145.90 63.77 145.23 62.09Q144.56 60.40 144.56 57.94L144.56 57.94L144.56 38.53Q144.56 36.14 143.65 35.33Q142.73 34.52 140.06 34.38L140.06 34.38L140.06 33.05Q141.05 33.05 142.03 32.98Q143.02 32.91 144.14 32.84L144.14 32.84Q145.27 32.77 146.46 32.66Q147.66 32.55 149.13 32.41L149.13 32.41Q148.99 33.82 148.96 35.65Q148.92 37.48 148.92 38.53L148.92 38.53L148.92 54.14Q148.92 59.63 150.36 61.38Q151.80 63.14 154.97 63.14L154.97 63.14Q157.64 63.14 160.77 61.73Q163.90 60.33 166.36 58.01L166.36 58.01L166.36 38.53Q166.36 36.14 165.02 35.33Q163.69 34.52 161.09 34.38L161.09 34.38L161.09 33.05Q162.07 33.05 163.20 32.98Q164.32 32.91 165.52 32.84L165.52 32.84Q166.71 32.77 168.05 32.66Q169.38 32.55 170.86 32.41L170.86 32.41Q170.72 33.82 170.68 35.65Q170.65 37.48 170.65 38.53L170.65 38.53L170.65 60.40Q170.65 62.65 171.74 63.11Q172.83 63.56 175.57 63.35L175.57 63.35L175.57 64.69Q174.87 64.83 173.85 65.07Q172.83 65.32 171.70 65.67L171.70 65.67Q170.51 65.95 169.35 66.27Q168.19 66.59 167.13 66.87L167.13 66.87Q166.71 67.01 166.50 66.87Q166.29 66.73 166.29 66.30L166.29 66.30ZM189.63 31.43L189.63 31.43Q189.42 33.33 189.39 35.23Q189.35 37.13 189.35 37.97L189.35 37.97Q190.83 36.91 192.48 35.72Q194.13 34.52 195.82 33.61L195.82 33.61Q197.58 32.63 199.34 31.99Q201.09 31.36 202.85 31.36L202.85 31.36Q205.38 31.36 207.39 32.80Q209.39 34.24 210.38 37.83L210.38 37.83Q213.33 35.51 216.77 33.43Q220.22 31.36 223.73 31.36L223.73 31.36Q225.84 31.36 227.36 32.24Q228.87 33.12 229.85 34.59L229.85 34.59Q230.84 36.07 231.33 38.00Q231.82 39.94 231.82 41.98L231.82 41.98L231.82 58.71Q231.82 61.66 232.77 62.79Q233.72 63.91 236.67 63.91L236.67 63.91L236.67 65.67Q233.79 65.60 229.75 65.57Q225.70 65.53 222.61 65.67L222.61 65.67L222.61 63.91Q225.63 63.91 226.58 62.79Q227.53 61.66 227.53 58.71L227.53 58.71L227.53 44.58Q227.53 42.68 227.32 40.96Q227.11 39.23 226.41 37.97L226.41 37.97Q225.70 36.70 224.33 35.93Q222.96 35.16 220.57 35.16L220.57 35.16Q219.23 35.16 217.79 35.68Q216.35 36.21 214.95 36.98L214.95 36.98Q213.61 37.69 212.45 38.53Q211.29 39.38 210.59 39.94L210.59 39.94L210.59 58.71Q210.59 61.66 211.61 62.79Q212.63 63.91 215.72 63.91L215.72 63.91L215.72 65.67Q214.17 65.67 212.31 65.64Q210.45 65.60 208.55 65.60L208.55 65.60Q206.58 65.60 204.71 65.60Q202.85 65.60 201.38 65.67L201.38 65.67L201.38 63.91Q204.33 63.91 205.28 62.79Q206.23 61.66 206.23 58.71L206.23 58.71L206.23 44.58Q206.23 42.68 206.05 40.96Q205.88 39.23 205.17 37.97L205.17 37.97Q204.47 36.70 203.13 35.93Q201.80 35.16 199.41 35.16L199.41 35.16Q198.35 35.16 197.05 35.61Q195.75 36.07 194.34 36.77L194.34 36.77Q192.94 37.55 191.64 38.43Q190.34 39.30 189.35 40.22L189.35 40.22L189.35 58.71Q189.35 61.66 190.30 62.79Q191.25 63.91 194.27 63.91L194.27 63.91L194.27 65.67Q191.25 65.60 187.14 65.57Q183.02 65.53 179.86 65.67L179.86 65.67L179.86 63.91Q183.02 63.91 184.01 62.79Q184.99 61.66 184.99 58.71L184.99 58.71L184.99 41.98Q184.99 40.08 184.89 38.95Q184.78 37.83 184.36 37.20L184.36 37.20Q183.94 36.56 183.09 36.35Q182.25 36.14 180.77 36.14L180.77 36.14L180.77 34.66Q183.02 34.31 184.89 33.61Q186.75 32.91 188.30 31.43L188.30 31.43L189.63 31.43ZM275.55 13.15L297.07 59.13L318.16 13.22Q319.01 13.36 320.52 13.39Q322.03 13.43 323.65 13.43L323.65 13.43Q325.34 13.43 326.81 13.36Q328.29 13.29 329.13 13.15L329.13 13.15L329.13 14.98Q325.34 14.98 323.89 16.52Q322.45 18.07 322.45 21.38L322.45 21.38L323.23 56.18Q323.30 58.50 323.65 60.01Q324 61.52 324.91 62.37L324.91 62.37Q325.76 63.21 327.38 63.56Q328.99 63.91 331.66 63.91L331.66 63.91L331.66 65.67Q329.98 65.67 327.09 65.67Q324.21 65.67 321.12 65.67L321.12 65.67Q318.02 65.67 315.21 65.67Q312.40 65.67 310.85 65.67L310.85 65.67L310.85 63.91Q313.17 63.91 314.68 63.60Q316.20 63.28 317.04 62.44L317.04 62.44Q317.88 61.59 318.23 60.08Q318.59 58.57 318.59 56.18L318.59 56.18L318.09 19.34L296.58 66.16L295.52 66.16L274.36 20.67L273.66 56.39Q273.66 60.47 274.78 62.12Q275.91 63.77 279.49 63.91L279.49 63.91L279.49 65.67Q277.80 65.67 275.55 65.64Q273.30 65.60 270.91 65.60L270.91 65.60Q268.52 65.60 266.27 65.60Q264.02 65.60 262.27 65.67L262.27 65.67L262.27 63.91Q264.59 63.84 266.24 63.56Q267.89 63.28 268.95 62.51L268.95 62.51Q270 61.66 270.53 60.19Q271.05 58.71 271.20 56.18L271.20 56.18L272.11 21.45Q272.11 17.93 270.42 16.45Q268.73 14.98 265.43 14.98L265.43 14.98L265.43 13.15Q266.55 13.29 268.00 13.32Q269.44 13.36 270.84 13.36L270.84 13.36Q272.25 13.36 273.52 13.32Q274.78 13.29 275.55 13.15L275.55 13.15ZM350.23 63.42L350.23 63.42Q349.38 61.38 347.91 57.73Q346.43 54.07 344.88 50.20L344.88 50.20Q343.27 46.34 341.89 42.89Q340.52 39.45 339.96 37.76L339.96 37.76Q339.33 36 338.20 35.12Q337.08 34.24 334.97 34.24L334.97 34.24L334.97 32.41Q336.02 32.55 338.03 32.55Q340.03 32.55 342.14 32.55L342.14 32.55Q344.25 32.55 346.11 32.52Q347.98 32.48 348.82 32.41L348.82 32.41L348.82 34.38Q346.08 34.52 345.16 35.40Q344.25 36.28 344.88 38.25L344.88 38.25L352.48 57.87L360.49 38.67Q361.34 36.49 360.56 35.40Q359.79 34.31 357.47 34.31L357.47 34.31L357.47 32.41Q358.31 32.55 359.86 32.59Q361.41 32.63 363.09 32.63L363.09 32.63Q364.78 32.63 366.26 32.59Q367.73 32.55 368.51 32.41L368.51 32.41L368.51 34.31Q366.05 34.31 364.92 35.44Q363.80 36.56 362.74 39.23L362.74 39.23L345.66 79.17Q344.74 81.28 343.16 81.98Q341.58 82.69 339.89 82.69L339.89 82.69Q338.70 82.69 337.61 81.98Q336.52 81.28 336.52 79.73L336.52 79.73Q336.52 78.19 337.64 77.63Q338.77 77.06 339.82 77.20L339.82 77.20Q340.10 77.20 340.45 77.38Q340.80 77.55 341.16 77.77L341.16 77.77Q341.51 77.91 341.86 78.08Q342.21 78.26 342.49 78.33L342.49 78.33Q343.13 78.33 343.62 78.08Q344.11 77.84 344.46 77.13L344.46 77.13L350.23 63.42ZM397.76 44.86L377.02 44.86Q376.80 45.91 376.80 47.11Q376.80 48.30 376.95 50.20L376.95 50.20Q377.30 55.55 380.25 59.17Q383.20 62.79 388.34 62.79L388.34 62.79Q391.85 62.79 394.42 61.42Q396.98 60.05 398.67 58.01L398.67 58.01L399.66 58.64Q397.69 62.16 394.35 64.51Q391.01 66.87 386.86 66.87L386.86 66.87Q383.84 66.87 381.27 65.60Q378.70 64.34 376.80 62.09L376.80 62.09Q374.91 59.84 373.82 56.81Q372.73 53.79 372.73 50.20L372.73 50.20Q372.73 45.77 373.85 42.26Q374.98 38.74 376.88 36.35L376.88 36.35Q378.84 33.89 381.48 32.63Q384.12 31.36 387.14 31.36L387.14 31.36Q389.25 31.36 391.36 32.06Q393.47 32.77 395.16 34.17L395.16 34.17Q396.84 35.65 397.90 37.86Q398.95 40.08 399.02 43.10L399.02 43.10Q399.02 43.95 398.81 44.33Q398.60 44.72 397.76 44.86L397.76 44.86ZM377.23 42.61L392.06 42.61Q393.33 42.61 393.89 42.22Q394.45 41.84 394.45 40.78L394.45 40.78Q394.45 39.66 393.93 38.39Q393.40 37.13 392.48 36.07L392.48 36.07Q391.50 35.02 390.09 34.31Q388.69 33.61 386.86 33.61L386.86 33.61Q382.85 33.61 380.43 36.11Q378 38.60 377.23 42.61L377.23 42.61ZM439.03 48.94L439.03 48.94Q439.03 52.66 437.70 55.93Q436.36 59.20 434.11 61.59L434.11 61.59Q431.86 64.05 428.87 65.46Q425.88 66.87 422.51 66.87L422.51 66.87Q418.99 66.87 415.83 65.67Q412.66 64.48 410.27 62.16L410.27 62.16Q407.88 59.91 406.48 56.64Q405.07 53.37 405.07 49.29L405.07 49.29Q405.07 45.63 406.30 42.36Q407.53 39.09 409.71 36.63L409.71 36.63Q411.96 34.24 414.98 32.80Q418.01 31.36 421.59 31.36L421.59 31.36Q425.25 31.36 428.45 32.59Q431.65 33.82 433.97 36.14L433.97 36.14Q436.29 38.39 437.66 41.66Q439.03 44.93 439.03 48.94ZM433.83 49.71L433.83 49.71Q433.83 47.11 433.20 44.19Q432.56 41.27 431.16 38.88L431.16 38.88Q429.68 36.42 427.39 34.84Q425.11 33.26 421.80 33.26L421.80 33.26Q418.64 33.26 416.43 34.66Q414.21 36.07 412.88 38.25L412.88 38.25Q411.54 40.50 410.94 43.21Q410.34 45.91 410.34 48.52L410.34 48.52Q410.34 50.98 410.98 53.82Q411.61 56.67 413.02 59.13L413.02 59.13Q414.42 61.59 416.71 63.25Q418.99 64.90 422.37 64.90L422.37 64.90Q425.53 64.90 427.71 63.49Q429.89 62.09 431.23 59.84L431.23 59.84Q432.63 57.66 433.23 54.95Q433.83 52.24 433.83 49.71ZM454.01 31.43L454.01 31.43Q453.80 33.33 453.76 35.16Q453.73 36.98 453.73 37.90L453.73 37.90Q456.89 35.58 460.55 33.47Q464.20 31.36 467.58 31.36L467.58 31.36Q471.80 31.36 473.63 34.42Q475.45 37.48 475.45 41.84L475.45 41.84L475.45 58.50Q475.45 61.45 476.44 62.68Q477.42 63.91 480.59 63.91L480.59 63.91L480.59 65.67Q479.60 65.67 478.72 65.67Q477.84 65.67 477 65.60L477 65.60Q476.16 65.60 475.28 65.57Q474.40 65.53 473.41 65.53L473.41 65.53Q472.36 65.53 471.48 65.57Q470.60 65.60 469.76 65.60L469.76 65.60Q468.91 65.60 468.04 65.64Q467.16 65.67 466.17 65.67L466.17 65.67L466.17 63.91Q469.20 63.91 470.18 62.68Q471.16 61.45 471.16 58.50L471.16 58.50L471.16 41.77Q471.16 38.25 469.55 36.70Q467.93 35.16 464.20 35.16L464.20 35.16Q463.15 35.23 461.74 35.68Q460.34 36.14 458.93 36.77L458.93 36.77Q457.45 37.48 456.08 38.32Q454.71 39.16 453.73 40.01L453.73 40.01L453.73 58.50Q453.73 61.45 454.71 62.68Q455.70 63.91 458.86 63.91L458.86 63.91L458.86 65.67Q457.80 65.67 456.96 65.67Q456.12 65.67 455.27 65.60L455.27 65.60Q454.43 65.60 453.55 65.57Q452.67 65.53 451.69 65.53L451.69 65.53Q450.63 65.53 449.75 65.57Q448.88 65.60 448.03 65.60L448.03 65.60Q447.12 65.60 446.24 65.64Q445.36 65.67 444.38 65.67L444.38 65.67L444.38 63.91Q447.47 63.91 448.42 62.68Q449.37 61.45 449.37 58.50L449.37 58.50L449.37 41.98Q449.37 40.08 449.26 38.95Q449.16 37.83 448.73 37.20L448.73 37.20Q448.31 36.56 447.47 36.35Q446.63 36.14 445.15 36.14L445.15 36.14L445.15 34.66Q447.40 34.31 449.26 33.61Q451.13 32.91 452.67 31.43L452.67 31.43L454.01 31.43ZM516.94 33.47L516.94 36.63L509.55 36.35Q510.26 37.20 510.86 39.09Q511.45 40.99 511.45 42.33L511.45 42.33Q511.45 47.88 507.83 50.87Q504.21 53.86 498.30 53.86L498.30 53.86Q497.46 53.86 496.44 53.82Q495.42 53.79 494.37 53.51L494.37 53.51Q493.52 54.14 492.93 54.60Q492.33 55.05 491.98 55.48L491.98 55.48Q491.55 55.90 491.41 56.39Q491.27 56.88 491.27 57.52L491.27 57.52Q491.27 57.94 491.34 58.61Q491.41 59.27 491.98 59.91L491.98 59.91Q492.54 60.54 493.73 61.00Q494.93 61.45 497.18 61.45L497.18 61.45Q498.52 61.45 499.82 61.49Q501.12 61.52 502.31 61.52L502.31 61.52Q503.58 61.52 504.70 61.52Q505.83 61.52 507.02 61.52L507.02 61.52Q511.45 61.52 514.27 63.49Q517.08 65.46 517.08 69.75L517.08 69.75Q517.08 72.35 515.60 74.71Q514.13 77.06 511.52 78.89L511.52 78.89Q508.99 80.72 505.48 81.81Q501.96 82.90 497.95 82.90L497.95 82.90Q494.58 82.90 492.05 82.05Q489.52 81.21 487.83 79.95L487.83 79.95Q486.14 78.68 485.33 77.13Q484.52 75.59 484.52 73.97L484.52 73.97Q484.52 70.31 487.09 68.06Q489.66 65.81 492.75 64.90L492.75 64.90Q488.95 64.05 487.72 61.59Q486.49 59.13 487.27 56.46L487.27 56.46Q488.74 55.62 490.29 54.53Q491.84 53.44 492.47 52.80L492.47 52.80Q489.87 51.47 488.00 49.11Q486.14 46.76 486.14 42.89L486.14 42.89Q486.14 37.97 489.55 34.66Q492.96 31.36 499.50 31.36L499.50 31.36Q500.98 31.36 502.73 31.68Q504.49 31.99 505.90 32.34L505.90 32.34Q507.38 32.91 509.13 33.29Q510.89 33.68 513.42 33.68L513.42 33.68Q513.91 33.68 514.27 33.71Q514.62 33.75 514.97 33.68L514.97 33.68Q515.32 33.68 515.74 33.64Q516.16 33.61 516.94 33.47L516.94 33.47ZM488.32 72.91L488.32 72.91Q488.32 76.71 491.55 78.64Q494.79 80.58 499.08 80.58L499.08 80.58Q501.96 80.58 504.53 79.95Q507.09 79.31 509.06 78.19L509.06 78.19Q510.96 77.06 512.09 75.52Q513.21 73.97 513.21 72L513.21 72Q513.21 70.24 512.26 69.01Q511.31 67.78 509.77 67.08L509.77 67.08Q508.15 66.30 506.07 65.99Q504 65.67 501.68 65.67L501.68 65.67Q495.14 65.67 491.73 67.68Q488.32 69.68 488.32 72.91ZM490.99 42.12L490.99 42.12Q490.99 46.13 492.96 49.08Q494.93 52.03 498.87 52.03L498.87 52.03Q503.37 52.03 505.23 49.36Q507.09 46.69 507.09 43.10L507.09 43.10Q507.09 41.41 506.60 39.62Q506.11 37.83 505.13 36.42L505.13 36.42Q504.14 35.02 502.52 34.10Q500.91 33.19 498.66 33.19L498.66 33.19Q496.62 33.19 495.14 34.03Q493.66 34.88 492.75 36.14L492.75 36.14Q491.84 37.48 491.41 39.06Q490.99 40.64 490.99 42.12ZM526.50 68.70L526.50 41.98Q526.50 40.08 526.36 38.95Q526.22 37.83 525.80 37.20L525.80 37.20Q525.38 36.56 524.53 36.35Q523.69 36.14 522.21 36.14L522.21 36.14L522.21 34.66Q524.46 34.31 526.32 33.61Q528.19 32.91 529.80 31.43L529.80 31.43L531.07 31.43Q530.86 33.33 530.82 35.47Q530.79 37.62 530.79 39.30L530.79 39.30L530.79 67.92Q530.79 71.44 529.95 73.93Q529.10 76.43 527.70 78.05L527.70 78.05Q526.29 79.80 524.43 80.82Q522.56 81.84 520.52 82.48L520.52 82.48L520.03 81.21Q523.83 79.31 525.16 76.50Q526.50 73.69 526.50 68.70L526.50 68.70ZM525.16 16.03L525.16 16.03Q525.16 14.63 526.18 13.57Q527.20 12.52 528.61 12.52L528.61 12.52Q530.02 12.52 531.07 13.57Q532.13 14.63 532.13 16.03L532.13 16.03Q532.13 17.44 531.07 18.46Q530.02 19.48 528.61 19.48L528.61 19.48Q527.20 19.48 526.18 18.46Q525.16 17.44 525.16 16.03ZM575.51 48.94L575.51 48.94Q575.51 52.66 574.17 55.93Q572.84 59.20 570.59 61.59L570.59 61.59Q568.34 64.05 565.35 65.46Q562.36 66.87 558.98 66.87L558.98 66.87Q555.47 66.87 552.30 65.67Q549.14 64.48 546.75 62.16L546.75 62.16Q544.36 59.91 542.95 56.64Q541.55 53.37 541.55 49.29L541.55 49.29Q541.55 45.63 542.78 42.36Q544.01 39.09 546.19 36.63L546.19 36.63Q548.44 34.24 551.46 32.80Q554.48 31.36 558.07 31.36L558.07 31.36Q561.73 31.36 564.93 32.59Q568.13 33.82 570.45 36.14L570.45 36.14Q572.77 38.39 574.14 41.66Q575.51 44.93 575.51 48.94ZM570.30 49.71L570.30 49.71Q570.30 47.11 569.67 44.19Q569.04 41.27 567.63 38.88L567.63 38.88Q566.16 36.42 563.87 34.84Q561.59 33.26 558.28 33.26L558.28 33.26Q555.12 33.26 552.90 34.66Q550.69 36.07 549.35 38.25L549.35 38.25Q548.02 40.50 547.42 43.21Q546.82 45.91 546.82 48.52L546.82 48.52Q546.82 50.98 547.45 53.82Q548.09 56.67 549.49 59.13L549.49 59.13Q550.90 61.59 553.18 63.25Q555.47 64.90 558.84 64.90L558.84 64.90Q562.01 64.90 564.19 63.49Q566.37 62.09 567.70 59.84L567.70 59.84Q569.11 57.66 569.71 54.95Q570.30 52.24 570.30 49.71Z"/></svg>