<?xml version="1.0" encoding="UTF-8"?>
<svg xmlns="http://www.w3.org/2000/svg" xmlns:xlink="http://www.w3.org/1999/xlink" width="203.34375" height="91.08984375" viewBox="0 -4.455078125 203.34375 100" preserveAspectRatio="xMinYMid meet"><path d="M1.76 32.98L8.16 34.77L8.16 69.79L2.29 71.44L2.00 74.04L18.70 74.04L19.09 71.23L12.66 70.03L12.66 40.25L35.96 75.09L41.34 74.00L41.34 34.31L47.21 32.98L47.67 30.30L30.97 30.30L30.55 32.98L37.05 34.45L37.05 64.41L14.45 30.30L2.14 30.30L1.76 32.98ZM62.09 75.09Q65.53 75.09 68.54 73.85Q71.54 72.60 73.65 70.38L73.65 70.38L72.91 68.52Q71.19 69.43 69.89 69.86Q68.59 70.28 67.61 70.37Q66.62 70.45 64.93 70.45L64.93 70.45Q61.84 70.45 59.68 68.68Q57.52 66.90 56.39 64.13Q55.27 61.35 55.13 58.39L55.13 58.39L72.14 58.18Q72.35 57.27 72.53 55.85Q72.70 54.42 72.70 53.61L72.70 53.61Q72.70 50.03 71.46 47.51Q70.21 45 68.06 43.72Q65.92 42.43 63.32 42.43L63.32 42.43Q59.80 42.43 56.46 44.44Q53.12 46.44 50.99 50.20Q48.87 53.96 48.87 58.99L48.87 58.99Q48.87 64.09 50.73 67.75Q52.59 71.40 55.63 73.25Q58.68 75.09 62.09 75.09L62.09 75.09ZM61.59 45.88Q66.45 45.88 66.45 52.42L66.45 52.42Q66.45 52.95 66.39 53.70Q66.34 54.46 66.23 54.84L66.23 54.84L55.20 55.65Q55.37 52.42 56.34 50.22Q57.30 48.02 58.71 46.95Q60.12 45.88 61.59 45.88L61.59 45.88ZM80.72 48.45L80.72 64.65Q80.72 70.03 82.81 72.44Q84.90 74.85 88.56 74.85L88.56 74.85Q94.89 74.85 98.61 69.43L98.61 69.43L99.07 69.43L99.07 69.75Q99.07 72.04 100.39 73.44Q101.71 74.85 104.24 74.85L104.24 74.85Q105.79 74.85 106.84 74.71Q107.89 74.57 109.55 74.18L109.55 74.18L109.86 71.26L108.25 70.91Q106.80 70.59 106.07 70.24Q105.33 69.89 104.89 69.03Q104.45 68.17 104.45 66.48L104.45 66.48L104.45 43.84L103.71 43.00L93.38 43.95L93.02 47.18L98.61 48.66L98.61 67.32Q97.35 68.63 95.82 69.33Q94.29 70.03 92.07 70.03L92.07 70.03Q86.66 70.03 86.66 62.89L86.66 62.89L86.66 43.84L85.78 43.00L76.36 43.73L75.87 46.51L80.72 48.45ZM115.88 47.21L115.73 64.90Q115.70 70.38 117.69 72.62Q119.67 74.85 123.22 74.85L123.22 74.85Q126.18 74.85 128.64 73.48Q131.10 72.11 132.75 69.68L132.75 69.68L132.01 67.78Q132.01 67.82 131.19 68.34Q130.36 68.87 129.23 69.31Q128.11 69.75 126.95 69.75L126.95 69.75Q125.09 69.75 123.96 69.12Q122.84 68.48 122.31 66.97Q121.78 65.46 121.78 62.82L121.78 62.82L121.89 47.29L131.59 47.29L131.91 44.19L121.96 44.19L121.96 35.82L120.09 35.82Q118.20 38.43 115.88 40.99Q113.55 43.56 111.41 45.32L111.41 45.32L111.41 47.21L115.88 47.21ZM149.52 74.99Q153.60 74.99 156.97 72.91Q160.35 70.84 162.30 67.08Q164.25 63.32 164.25 58.54L164.25 58.54Q164.25 53.72 162.58 50.04Q160.91 46.37 157.76 44.33Q154.62 42.29 150.36 42.29L150.36 42.29Q146.36 42.29 142.86 44.30Q139.36 46.30 137.21 50.12Q135.07 53.93 135.07 59.06L135.07 59.06Q135.07 63.63 136.78 67.24Q138.48 70.84 141.73 72.91Q144.98 74.99 149.52 74.99L149.52 74.99ZM148.89 45.98Q152.02 45.98 154.07 48.29Q156.13 50.59 157.06 54.11Q157.99 57.62 157.99 61.42L157.99 61.42Q157.99 64.02 157.18 66.34Q156.38 68.66 154.72 70.12Q153.07 71.58 150.71 71.58L150.71 71.58Q147.45 71.58 145.34 69.43Q143.23 67.29 142.28 63.88Q141.33 60.47 141.33 56.57L141.33 56.57Q141.33 53.68 142.14 51.28Q142.95 48.87 144.65 47.43Q146.36 45.98 148.89 45.98L148.89 45.98ZM183.69 74.04L184.18 71.26L178.95 70.03L178.95 50.31Q180.25 48.87 182.07 48.08Q183.90 47.29 185.87 47.29L185.87 47.29Q188.65 47.29 190.32 48.88Q191.99 50.48 191.99 53.75L191.99 53.75L191.99 70.03L187.14 71.47L186.79 74.04L202.57 74.04L202.92 71.26L197.86 70.03L197.86 52.38Q197.86 47.64 195.68 45.04Q193.50 42.43 189.39 42.43L189.39 42.43Q186.29 42.43 183.55 44.02Q180.81 45.60 178.80 47.99L178.80 47.99L178.45 47.99L179.05 43.49L178.45 42.82L167.98 44.19L167.63 46.86L173.04 48.69L173.04 70.03L167.73 71.47L167.38 74.04L183.69 74.04Z"/></svg>