<?xml version="1.0" encoding="UTF-8"?>
<svg xmlns="http://www.w3.org/2000/svg" xmlns:xlink="http://www.w3.org/1999/xlink" width="249.40800000000002" height="97.992" viewBox="0 -1.0039999999999978 249.40800000000002 100" preserveAspectRatio="xMinYMid meet"><path d="M23.90 73.87L23.90 73.87L23.69 73.37L23.98 70.56Q26.50 70.34 27.86 70.06Q29.23 69.77 29.81 69.23Q30.38 68.69 30.38 67.82L30.38 67.82Q30.38 67.10 30.24 66.24Q30.10 65.38 29.74 64.37L29.74 64.37L27.36 56.52Q26.06 56.45 23.72 56.45Q21.38 56.45 19.87 56.45L19.87 56.45Q17.78 56.45 15.52 56.66Q13.25 56.88 12.02 57.02L12.02 57.02L9.36 64.51Q8.71 66.46 8.71 67.32L8.71 67.32Q8.71 68.90 9.76 69.59Q10.80 70.27 13.03 70.27L13.03 70.27L17.14 70.27L17.28 70.56L16.85 73.66Q16.85 73.66 15.34 73.51Q13.82 73.37 11.52 73.26Q9.22 73.15 6.84 73.15L6.84 73.15Q5.11 73.15 3.28 73.19Q1.44 73.22 0.18 73.30Q-1.08 73.37-1.08 73.37L-1.08 73.37L-0.50 69.98Q1.51 69.77 2.74 68.62Q3.96 67.46 5.11 64.44L5.11 64.44L19.15 27.65L23.69 26.42L24.26 26.42Q24.26 26.42 24.73 28.12Q25.20 29.81 26.03 32.80Q26.86 35.78 27.97 39.64Q29.09 43.49 30.35 47.81Q31.61 52.13 32.98 56.56Q34.34 60.98 35.71 65.02L35.71 65.02Q36.58 67.68 38.05 68.76Q39.53 69.84 42.62 70.13L42.62 70.13L42.77 70.42L42.26 73.37Q42.26 73.37 40.86 73.30Q39.46 73.22 37.66 73.19Q35.86 73.15 34.63 73.15L34.63 73.15Q31.90 73.15 29.41 73.33Q26.93 73.51 25.42 73.69Q23.90 73.87 23.90 73.87ZM20.16 34.27L13.32 53.50L19.66 53.50Q21.10 53.50 23.11 53.35Q25.13 53.21 26.35 53.14L26.35 53.14L20.66 34.27L20.16 34.27ZM42.55 74.02L42.55 74.02L42.84 71.06Q44.93 70.49 45.76 69.59Q46.58 68.69 46.73 67.18Q46.87 65.66 46.87 63.43L46.87 63.43L46.87 28.08Q46.87 26.28 46.55 25.45Q46.22 24.62 45.32 24.41Q44.42 24.19 42.62 24.41L42.62 24.41L42.41 24.26L42.70 21.82Q45.36 21.46 48.02 20.95Q50.69 20.45 53.35 19.73L53.35 19.73L53.78 20.66Q53.50 21.17 53.21 23.94Q52.92 26.71 52.67 31.21Q52.42 35.71 52.20 41.40Q51.98 47.09 51.88 53.42Q51.77 59.76 51.77 66.10L51.77 66.10Q51.77 68.26 52.34 69.19Q52.92 70.13 54.29 70.13L54.29 70.13L56.81 69.98L56.95 70.27L56.38 73.37Q55.22 73.30 53.32 73.22Q51.41 73.15 49.97 73.15L49.97 73.15Q48.67 73.15 46.69 73.40Q44.71 73.66 42.55 74.02ZM75.89 74.02L75.89 74.02Q71.35 74.02 67.97 72.00Q64.58 69.98 62.68 66.42Q60.77 62.86 60.77 58.10L60.77 58.10Q60.77 54.43 62.03 51.12Q63.29 47.81 65.52 45.25Q67.75 42.70 70.60 41.22Q73.44 39.74 76.68 39.74L76.68 39.74Q87.41 39.74 87.41 50.18L87.41 50.18Q87.41 51.12 87.26 52.13Q87.12 53.14 86.98 53.71L86.98 53.71L86.04 54.58L66.17 54.58Q66.10 60.98 68.51 64.69Q70.92 68.40 75.31 69.01Q79.70 69.62 85.68 66.89L85.68 66.89L86.11 67.03L86.90 69.12Q85.46 70.13 83.48 71.28Q81.50 72.43 79.49 73.22Q77.47 74.02 75.89 74.02ZM66.46 51.91L66.46 51.91L79.49 51.26Q80.57 51.12 80.93 50.76Q81.29 50.40 81.29 49.32L81.29 49.32Q81.29 46.44 79.74 44.93Q78.19 43.42 75.31 43.42L75.31 43.42Q72 43.42 69.55 45.68Q67.10 47.95 66.46 51.91ZM105.05 90.58L105.05 90.58Q101.66 90.58 99.22 89.42Q96.77 88.27 95.44 86.11Q94.10 83.95 94.10 81.00L94.10 81.00Q95.11 79.78 97.02 78.01Q98.93 76.25 101.23 74.52L101.23 74.52L101.23 74.09Q97.49 73.44 95.51 71.64Q93.53 69.84 93.38 67.03L93.38 67.03Q94.68 65.81 96.19 64.62Q97.70 63.43 99.43 62.42L99.43 62.42L99.43 61.42L103.18 62.64Q100.94 63.79 99.97 64.69Q99 65.59 99 66.53L99 66.53Q99 67.97 100.73 68.65Q102.46 69.34 105.16 69.66Q107.86 69.98 110.92 70.34Q113.98 70.70 116.68 71.46Q119.38 72.22 121.10 73.69Q122.83 75.17 122.83 77.83L122.83 77.83Q122.83 80.21 121.36 82.51Q119.88 84.82 117.32 86.62Q114.77 88.42 111.60 89.50Q108.43 90.58 105.05 90.58ZM107.50 87.05L107.50 87.05Q110.30 87.05 112.75 86.08Q115.20 85.10 116.71 83.45Q118.22 81.79 118.22 79.92L118.22 79.92Q118.22 78.48 117.14 77.62Q116.06 76.75 113.08 76.07Q110.09 75.38 104.33 74.66L104.33 74.66Q102.17 76.18 101.02 78.01Q99.86 79.85 99.86 81.65L99.86 81.65Q99.86 84.10 101.95 85.57Q104.04 87.05 107.50 87.05ZM107.78 60.62L107.78 60.62Q111.10 60.62 113.00 58.54Q114.91 56.45 114.91 52.78L114.91 52.78Q114.91 48.60 112.61 46.01Q110.30 43.42 106.63 43.42L106.63 43.42Q103.32 43.42 101.41 45.58Q99.50 47.74 99.50 51.41L99.50 51.41Q99.50 55.51 101.81 58.07Q104.11 60.62 107.78 60.62ZM106.13 63.79L106.13 63.79Q102.60 63.79 99.90 62.39Q97.20 60.98 95.65 58.50Q94.10 56.02 94.10 52.85L94.10 52.85Q94.10 49.25 95.94 46.30Q97.78 43.34 100.84 41.54Q103.90 39.74 107.50 39.74L107.50 39.74Q109.51 39.74 111.35 40.14Q113.18 40.54 114.55 40.54L114.55 40.54Q115.99 40.39 118.62 39.82Q121.25 39.24 124.49 38.38L124.49 38.38L124.70 38.66L123.91 42.70Q122.33 42.91 120.60 43.06Q118.87 43.20 117.72 43.34L117.72 43.34L117.43 43.70Q120.31 46.87 120.31 51.05L120.31 51.05Q120.31 54.58 118.40 57.46Q116.50 60.34 113.29 62.06Q110.09 63.79 106.13 63.79ZM129.67 73.44L130.03 70.56Q132.19 70.34 132.91 69.16Q133.63 67.97 133.63 64.58L133.63 64.58L133.63 48.74Q133.63 46.37 132.98 45.36Q132.34 44.35 130.90 44.35L130.90 44.35Q130.32 44.35 129.85 44.46Q129.38 44.57 129.38 44.57L129.38 44.57L129.02 44.06L129.24 41.83Q131.47 41.40 133.70 40.90Q135.94 40.39 137.45 40.03Q138.96 39.67 138.96 39.67L138.96 39.67L139.46 40.10Q139.46 40.10 139.28 41.26Q139.10 42.41 138.96 44.10Q138.82 45.79 138.82 47.52L138.82 47.52L139.10 47.74Q141.34 44.35 144.22 42.19Q147.10 40.03 149.26 40.03L149.26 40.03Q150.48 40.03 150.98 40.18Q151.49 40.32 151.49 40.32L151.49 40.32L151.70 40.61Q151.70 40.61 151.56 41.58Q151.42 42.55 151.20 44.10Q150.98 45.65 150.80 47.45Q150.62 49.25 150.55 50.90L150.55 50.90L147.74 51.12Q147.74 48.17 147.38 47.20Q147.02 46.22 145.80 46.22L145.80 46.22Q144.22 46.22 142.42 47.52Q140.62 48.82 139.10 51.12L139.10 51.12Q139.10 51.12 139.03 52.45Q138.96 53.78 138.89 55.80Q138.82 57.82 138.74 59.94Q138.67 62.06 138.60 63.68Q138.53 65.30 138.53 65.81L138.53 65.81Q138.53 68.26 139.25 69.12Q139.97 69.98 141.98 69.98L141.98 69.98Q142.78 69.98 143.96 69.91Q145.15 69.84 145.15 69.84L145.15 69.84L145.22 70.13L144.58 73.30Q144.58 73.30 143.86 73.26Q143.14 73.22 141.98 73.22Q140.83 73.22 139.57 73.19Q138.31 73.15 137.23 73.15L137.23 73.15Q135.14 73.15 133.42 73.22Q131.69 73.30 130.68 73.37Q129.67 73.44 129.67 73.44L129.67 73.44ZM170.35 74.02L170.35 74.02Q165.82 74.02 162.43 72.00Q159.05 69.98 157.14 66.42Q155.23 62.86 155.23 58.10L155.23 58.10Q155.23 54.43 156.49 51.12Q157.75 47.81 159.98 45.25Q162.22 42.70 165.06 41.22Q167.90 39.74 171.14 39.74L171.14 39.74Q181.87 39.74 181.87 50.18L181.87 50.18Q181.87 51.12 181.73 52.13Q181.58 53.14 181.44 53.71L181.44 53.71L180.50 54.58L160.63 54.58Q160.56 60.98 162.97 64.69Q165.38 68.40 169.78 69.01Q174.17 69.62 180.14 66.89L180.14 66.89L180.58 67.03L181.37 69.12Q179.93 70.13 177.95 71.28Q175.97 72.43 173.95 73.22Q171.94 74.02 170.35 74.02ZM160.92 51.91L160.92 51.91L173.95 51.26Q175.03 51.12 175.39 50.76Q175.75 50.40 175.75 49.32L175.75 49.32Q175.75 46.44 174.20 44.93Q172.66 43.42 169.78 43.42L169.78 43.42Q166.46 43.42 164.02 45.68Q161.57 47.95 160.92 51.91ZM187.49 90.50L187.49 90.50Q187.20 90.50 186.70 90.00Q186.19 89.50 185.65 88.81Q185.11 88.13 184.72 87.44Q184.32 86.76 184.32 86.40L184.32 86.40L184.68 85.90Q188.86 85.90 192.31 82.48Q195.77 79.06 198.22 73.15L198.22 73.15Q197.57 71.06 196.70 68.40Q195.84 65.74 194.87 62.82Q193.90 59.90 192.92 56.99Q191.95 54.07 191.02 51.41Q190.08 48.74 189.29 46.66L189.29 46.66Q188.57 44.78 187.38 44.03Q186.19 43.27 184.39 43.20L184.39 43.20L184.25 42.91L184.68 40.54Q184.68 40.54 185.83 40.54Q186.98 40.54 188.42 40.57Q189.86 40.61 190.66 40.61L190.66 40.61Q192.24 40.61 193.79 40.54Q195.34 40.46 196.56 40.36Q197.78 40.25 198.54 40.18Q199.30 40.10 199.30 40.10L199.30 40.10L199.44 40.46L199.01 42.70Q196.56 42.77 195.73 43.16Q194.90 43.56 194.90 44.57L194.90 44.57Q194.90 45.22 195.37 47.05Q195.84 48.89 196.56 51.34Q197.28 53.78 198.07 56.41Q198.86 59.04 199.58 61.31Q200.30 63.58 200.77 64.98Q201.24 66.38 201.24 66.38L201.24 66.38L201.53 66.38Q202.75 63.43 204.19 59.94Q205.63 56.45 206.89 53.21Q208.15 49.97 208.98 47.66Q209.81 45.36 209.81 44.86L209.81 44.86Q209.81 43.85 209.16 43.42Q208.51 42.98 207.07 42.98L207.07 42.98L203.76 42.98L203.62 42.70L204.05 40.32Q204.05 40.32 205.16 40.39Q206.28 40.46 207.97 40.54Q209.66 40.61 211.39 40.61L211.39 40.61Q212.69 40.61 214.09 40.57Q215.50 40.54 216.50 40.54Q217.51 40.54 217.51 40.54L217.51 40.54L217.01 43.20Q215.42 43.49 214.60 44.35Q213.77 45.22 212.98 47.30L212.98 47.30L203.83 69.19Q201.17 75.60 199.15 79.78Q197.14 83.95 195.37 86.33Q193.61 88.70 191.74 89.64Q189.86 90.58 187.49 90.50ZM242.64 74.02L242.64 74.02Q239.76 74.02 238.14 72.54Q236.52 71.06 236.23 68.18L236.23 68.18L235.94 68.11Q234.22 69.84 232.67 71.10Q231.12 72.36 229.93 73.04Q228.74 73.73 228.02 73.73L228.02 73.73Q225.36 73.73 223.27 72.58Q221.18 71.42 220.00 69.41Q218.81 67.39 218.81 64.80L218.81 64.80Q218.81 62.71 219.85 61.13Q220.90 59.54 222.62 59.04L222.62 59.04L236.30 55.30L236.38 52.13Q236.38 48.53 234.72 46.51Q233.06 44.50 230.04 44.50L230.04 44.50Q228.02 44.50 225.79 45.43Q223.56 46.37 221.40 48.10L221.40 48.10L221.04 47.88L220.18 44.78Q222.05 43.70 224.35 42.52Q226.66 41.33 228.74 40.54Q230.83 39.74 231.91 39.74L231.91 39.74Q235.08 39.74 237.31 40.86Q239.54 41.98 240.73 44.03Q241.92 46.08 241.92 49.03L241.92 49.03Q241.92 49.97 241.74 52.06Q241.56 54.14 241.27 56.70Q240.98 59.26 240.80 61.63Q240.62 64.01 240.62 65.59L240.62 65.59Q240.62 67.18 241.42 68.04Q242.21 68.90 243.58 68.90L243.58 68.90Q244.80 68.90 246.02 68.29Q247.25 67.68 247.90 67.10L247.90 67.10L248.90 68.26Q248.33 69.19 247.36 70.38Q246.38 71.57 245.20 72.58Q244.01 73.58 242.64 74.02ZM229.25 68.83L229.25 68.83Q230.62 68.83 232.45 67.86Q234.29 66.89 235.80 65.38L235.80 65.38L236.16 58.03L226.37 60.98Q224.28 61.63 224.28 64.01L224.28 64.01Q224.28 66.02 225.68 67.43Q227.09 68.83 229.25 68.83Z"/></svg>