<?xml version="1.0" encoding="UTF-8"?>
<svg xmlns="http://www.w3.org/2000/svg" xmlns:xlink="http://www.w3.org/1999/xlink" width="281.44800000000004" height="100.296" viewBox="0 0.14800000000000324 281.44800000000004 100" preserveAspectRatio="xMinYMid meet"><path d="M23.18 68.98L23.18 68.98Q20.59 61.99 17.96 55.19Q15.34 48.38 12.89 42.19Q10.44 36.00 8.28 31.03L8.28 31.03Q6.77 27.50 5.90 25.78Q5.04 24.05 4.25 23.47Q3.46 22.90 2.16 22.75L2.16 22.75Q1.94 21.89 1.87 21.06Q1.80 20.23 1.80 19.66L1.80 19.66Q2.52 19.73 3.53 19.76Q4.54 19.80 5.72 19.84Q6.91 19.87 8.14 19.87Q9.36 19.87 10.51 19.87L10.51 19.87Q12.82 19.87 15.01 19.80Q17.21 19.73 19.22 19.66L19.22 19.66Q19.22 20.30 19.12 21.13Q19.01 21.96 18.86 22.75L18.86 22.75Q16.49 22.90 15.34 23.51Q14.18 24.12 14.36 25.74Q14.54 27.36 15.98 30.67L15.98 30.67Q17.93 35.28 19.80 40.03Q21.67 44.78 23.51 49.64Q25.34 54.50 27.22 59.69L27.22 59.69L26.14 59.69Q28.22 55.01 30.13 50.40Q32.04 45.79 33.88 41.08Q35.71 36.36 37.44 31.54L37.44 31.54Q38.81 27.50 38.27 25.31Q37.73 23.11 34.49 22.75L34.49 22.75Q34.27 21.96 34.20 21.10Q34.13 20.23 34.13 19.66L34.13 19.66Q35.21 19.73 36.18 19.76Q37.15 19.80 38.16 19.84Q39.17 19.87 40.25 19.87L40.25 19.87Q41.90 19.87 43.96 19.80Q46.01 19.73 47.59 19.66L47.59 19.66Q47.59 20.45 47.52 21.20Q47.45 21.96 47.23 22.75L47.23 22.75Q45.00 23.26 43.70 25.45Q42.41 27.65 41.04 31.25L41.04 31.25Q37.44 40.54 33.66 49.90Q29.88 59.26 25.99 68.69L25.99 68.69Q25.27 68.83 24.66 68.90Q24.05 68.98 23.18 68.98ZM68.54 69.19L68.54 69.19Q63.65 69.19 59.98 67.07Q56.30 64.94 54.29 61.09Q52.27 57.24 52.27 52.06L52.27 52.06Q52.27 47.16 54.36 43.27Q56.45 39.38 60.12 37.15Q63.79 34.92 68.54 34.92L68.54 34.92Q73.66 34.92 77.29 37.08Q80.93 39.24 82.87 43.09Q84.82 46.94 84.82 52.06L84.82 52.06Q84.82 56.95 82.76 60.84Q80.71 64.73 77.08 66.96Q73.44 69.19 68.54 69.19ZM69.12 65.74L69.12 65.74Q73.44 65.74 75.53 62.17Q77.62 58.61 77.62 52.92L77.62 52.92Q77.62 48.46 76.28 45.18Q74.95 41.90 72.72 40.14Q70.49 38.38 67.82 38.38L67.82 38.38Q63.65 38.38 61.60 41.76Q59.54 45.14 59.54 50.54L59.54 50.54Q59.54 55.37 60.73 58.79Q61.92 62.21 64.08 63.97Q66.24 65.74 69.12 65.74ZM90.29 68.76L90.29 68.76Q90.29 68.04 90.36 67.21Q90.43 66.38 90.65 65.66L90.65 65.66Q93.53 65.66 94.57 64.33Q95.62 63.00 95.62 59.40L95.62 59.40L95.62 27.14Q95.62 25.42 95.29 24.30Q94.97 23.18 93.82 22.61Q92.66 22.03 90.22 22.03L90.22 22.03Q90.22 21.24 90.36 20.59Q90.50 19.94 90.86 19.37L90.86 19.37Q91.94 19.37 93.92 19.01Q95.90 18.65 97.78 18.07Q99.65 17.50 100.51 16.92L100.51 16.92Q101.16 17.14 101.63 17.78Q102.10 18.43 102.10 19.80L102.10 19.80L102.10 59.40Q102.10 63.00 103.07 64.33Q104.04 65.66 106.34 65.66L106.34 65.66Q106.56 66.38 106.63 67.32Q106.70 68.26 106.70 68.76L106.70 68.76Q105.48 68.69 104.11 68.65Q102.74 68.62 101.34 68.58Q99.94 68.54 98.57 68.54L98.57 68.54Q97.20 68.54 95.72 68.58Q94.25 68.62 92.88 68.65Q91.51 68.69 90.29 68.76ZM111.82 68.76L111.82 68.76Q111.82 68.04 111.89 67.21Q111.96 66.38 112.18 65.66L112.18 65.66Q115.06 65.66 116.10 64.33Q117.14 63.00 117.14 59.40L117.14 59.40L117.14 27.14Q117.14 25.42 116.82 24.30Q116.50 23.18 115.34 22.61Q114.19 22.03 111.74 22.03L111.74 22.03Q111.74 21.24 111.89 20.59Q112.03 19.94 112.39 19.37L112.39 19.37Q113.47 19.37 115.45 19.01Q117.43 18.65 119.30 18.07Q121.18 17.50 122.04 16.92L122.04 16.92Q122.69 17.14 123.16 17.78Q123.62 18.43 123.62 19.80L123.62 19.80L123.62 59.40Q123.62 63.00 124.60 64.33Q125.57 65.66 127.87 65.66L127.87 65.66Q128.09 66.38 128.16 67.32Q128.23 68.26 128.23 68.76L128.23 68.76Q127.01 68.69 125.64 68.65Q124.27 68.62 122.87 68.58Q121.46 68.54 120.10 68.54L120.10 68.54Q118.73 68.54 117.25 68.58Q115.78 68.62 114.41 68.65Q113.04 68.69 111.82 68.76ZM133.34 68.76L133.34 68.76Q133.34 68.04 133.42 67.21Q133.49 66.38 133.70 65.66L133.70 65.66Q136.58 65.66 137.63 64.33Q138.67 63.00 138.67 59.40L138.67 59.40L138.67 27.14Q138.67 25.42 138.35 24.30Q138.02 23.18 136.87 22.61Q135.72 22.03 133.27 22.03L133.27 22.03Q133.27 21.24 133.42 20.59Q133.56 19.94 133.92 19.37L133.92 19.37Q135 19.37 136.98 19.01Q138.96 18.65 140.83 18.07Q142.70 17.50 143.57 16.92L143.57 16.92Q144.22 17.14 144.68 17.78Q145.15 18.43 145.15 19.80L145.15 19.80L145.15 59.40Q145.15 63.00 146.12 64.33Q147.10 65.66 149.40 65.66L149.40 65.66Q149.62 66.38 149.69 67.32Q149.76 68.26 149.76 68.76L149.76 68.76Q147.89 68.62 145.80 68.58Q143.71 68.54 141.62 68.54L141.62 68.54Q140.26 68.54 138.78 68.58Q137.30 68.62 135.94 68.65Q134.57 68.69 133.34 68.76ZM158.98 69.19L158.98 69.19Q157.75 67.32 156.02 65.02Q154.30 62.71 152.28 60.23Q150.26 57.74 148.14 55.40Q146.02 53.06 144.07 51.19L144.07 51.19L150.48 45.29Q152.93 43.06 154.01 41.65Q155.09 40.25 155.09 39.53L155.09 39.53Q155.09 38.95 154.55 38.66Q154.01 38.38 153 38.38L153 38.38Q152.78 37.66 152.68 36.94Q152.57 36.22 152.57 35.42L152.57 35.42Q154.15 35.50 155.48 35.53Q156.82 35.57 157.97 35.57Q159.12 35.57 160.06 35.57L160.06 35.57Q161.28 35.57 163.08 35.53Q164.88 35.50 166.82 35.42L166.82 35.42Q166.82 36.14 166.72 36.97Q166.61 37.80 166.32 38.45L166.32 38.45Q164.95 38.45 163.62 38.88Q162.29 39.31 160.81 40.25Q159.34 41.18 157.54 42.84L157.54 42.84L149.62 50.04L149.47 47.74Q151.99 50.33 154.66 53.32Q157.32 56.30 161.06 60.91L161.06 60.91Q162.50 62.64 163.55 63.58Q164.59 64.51 165.74 64.91Q166.90 65.30 168.55 65.45L168.55 65.45Q168.55 66.46 168.48 67.21Q168.41 67.97 168.19 68.54L168.19 68.54Q166.46 68.54 164.95 68.62Q163.44 68.69 162 68.80Q160.56 68.90 158.98 69.19ZM189.14 69.19L189.14 69.19Q184.25 69.19 180.58 67.07Q176.90 64.94 174.89 61.09Q172.87 57.24 172.87 52.06L172.87 52.06Q172.87 47.16 174.96 43.27Q177.05 39.38 180.72 37.15Q184.39 34.92 189.14 34.92L189.14 34.92Q194.26 34.92 197.89 37.08Q201.53 39.24 203.47 43.09Q205.42 46.94 205.42 52.06L205.42 52.06Q205.42 56.95 203.36 60.84Q201.31 64.73 197.68 66.96Q194.04 69.19 189.14 69.19ZM189.72 65.74L189.72 65.74Q194.04 65.74 196.13 62.17Q198.22 58.61 198.22 52.92L198.22 52.92Q198.22 48.46 196.88 45.18Q195.55 41.90 193.32 40.14Q191.09 38.38 188.42 38.38L188.42 38.38Q184.25 38.38 182.20 41.76Q180.14 45.14 180.14 50.54L180.14 50.54Q180.14 55.37 181.33 58.79Q182.52 62.21 184.68 63.97Q186.84 65.74 189.72 65.74ZM222.77 52.20L222.77 57.96Q222.77 61.06 223.42 62.68Q224.06 64.30 225.50 64.91Q226.94 65.52 229.18 65.66L229.18 65.66Q229.39 66.24 229.46 67.00Q229.54 67.75 229.54 68.76L229.54 68.76Q228.46 68.69 226.98 68.65Q225.50 68.62 223.85 68.58Q222.19 68.54 220.46 68.54L220.46 68.54Q217.94 68.54 215.17 68.58Q212.40 68.62 210.96 68.76L210.96 68.76Q210.96 67.75 211.03 67.00Q211.10 66.24 211.32 65.66L211.32 65.66Q213.26 65.52 214.34 64.98Q215.42 64.44 215.86 63.11Q216.29 61.78 216.29 59.40L216.29 59.40L216.29 52.20L222.77 52.20ZM221.54 46.44L222.77 47.45L222.77 53.14L216.29 53.14L216.29 45.14L222.77 38.09Q222.77 40.54 222.34 42.52Q221.90 44.50 221.54 46.44L221.54 46.44ZM222.77 51.05L221.18 46.87Q221.98 44.86 222.41 43.56Q222.84 42.26 223.34 41.40L223.34 41.40Q224.93 38.88 227.09 37.22Q229.25 35.57 232.06 35.57L232.06 35.57Q234.79 35.57 237.02 37.30L237.02 37.30Q236.88 38.45 236.74 39.96Q236.59 41.47 236.56 42.98Q236.52 44.50 236.52 45.79L236.52 45.79Q235.87 46.01 234.76 46.22Q233.64 46.44 232.42 46.44L232.42 46.44Q232.27 42.98 231.30 41.90Q230.33 40.82 228.89 40.82L228.89 40.82Q227.66 40.82 226.22 42.23Q224.78 43.63 223.78 45.94Q222.77 48.24 222.77 51.05L222.77 51.05ZM222.77 38.09L216.29 53.14L216.29 45.14Q216.29 43.42 215.93 42.34Q215.57 41.26 214.42 40.68Q213.26 40.10 210.89 40.03L210.89 40.03Q210.89 39.24 211.03 38.59Q211.18 37.94 211.54 37.37L211.54 37.37Q213.77 37.22 216.65 36.50Q219.53 35.78 221.18 34.92L221.18 34.92Q221.83 35.14 222.30 35.82Q222.77 36.50 222.77 38.09L222.77 38.09ZM252.94 38.09L246.46 53.14L246.46 45.14Q246.46 43.42 246.10 42.34Q245.74 41.26 244.58 40.68Q243.43 40.10 241.06 40.03L241.06 40.03Q241.06 39.24 241.20 38.59Q241.34 37.94 241.70 37.37L241.70 37.37Q243.94 37.22 246.82 36.50Q249.70 35.78 251.35 34.92L251.35 34.92Q252.00 35.14 252.47 35.82Q252.94 36.50 252.94 38.09L252.94 38.09ZM274.25 47.02L274.25 59.40Q274.25 63.14 275.29 64.40Q276.34 65.66 278.50 65.66L278.50 65.66Q278.71 66.31 278.78 67.03Q278.86 67.75 278.86 68.76L278.86 68.76Q277.27 68.62 275.26 68.58Q273.24 68.54 271.01 68.54L271.01 68.54Q269.57 68.54 267.98 68.58Q266.40 68.62 265.00 68.65Q263.59 68.69 262.44 68.76L262.44 68.76Q262.44 67.75 262.51 67.00Q262.58 66.24 262.80 65.66L262.80 65.66Q265.39 65.66 266.58 64.33Q267.77 63.00 267.77 59.40L267.77 59.40L267.77 48.46Q267.77 43.34 265.90 41.51Q264.02 39.67 261.07 39.67L261.07 39.67Q259.20 39.67 257.33 40.86Q255.46 42.05 254.20 44.68Q252.94 47.30 252.94 51.70L252.94 51.70L252.94 59.40Q252.94 63.00 254.02 64.33Q255.10 65.66 257.90 65.66L257.90 65.66Q258.12 66.31 258.19 67.03Q258.26 67.75 258.26 68.76L258.26 68.76Q257.26 68.69 255.82 68.65Q254.38 68.62 252.79 68.58Q251.21 68.54 249.70 68.54L249.70 68.54Q248.26 68.54 246.67 68.58Q245.09 68.62 243.65 68.65Q242.21 68.69 241.13 68.76L241.13 68.76Q241.13 67.75 241.20 67.00Q241.27 66.24 241.49 65.66L241.49 65.66Q244.30 65.66 245.38 64.33Q246.46 63.00 246.46 59.40L246.46 59.40L246.46 45.14L252.94 38.09Q252.94 38.95 252.86 40.03Q252.79 41.11 252.43 42.34L252.43 42.34Q252.65 41.98 252.86 41.51Q253.08 41.04 253.51 40.46L253.51 40.46Q254.74 38.81 257.44 37.04Q260.14 35.28 263.95 35.28L263.95 35.28Q266.69 35.28 269.03 36.40Q271.37 37.51 272.81 40.07Q274.25 42.62 274.25 47.02L274.25 47.02Z"/></svg>