<?xml version="1.0" encoding="UTF-8"?>
<svg xmlns="http://www.w3.org/2000/svg" xmlns:xlink="http://www.w3.org/1999/xlink" width="374.90625" height="99.6328125" viewBox="0 -0.18359375 374.90625 100" preserveAspectRatio="xMinYMid meet"><path d="M8.61 26.61L2.04 26.61Q7.77 21.83 8.86 21.83L8.86 21.83L39.55 21.83Q39.06 21.90 38.06 22.78Q37.05 23.66 36.35 24.28Q35.65 24.89 34.98 25.38L34.98 25.38Q33.40 26.61 32.70 26.61L32.70 26.61L15.47 26.61L15.47 45.74L32.52 45.74Q32.06 45.81 31.04 46.71Q30.02 47.60 29.32 48.20Q28.62 48.80 27.95 49.32L27.95 49.32Q26.40 50.55 25.66 50.55L25.66 50.55L15.47 50.55L15.47 58.78Q15.47 65.11 12.94 67.64L12.94 67.64L24.22 67.64Q23.73 67.71 22.73 68.59Q21.73 69.47 21.02 70.08Q20.32 70.70 19.65 71.23L19.65 71.23Q18.07 72.42 17.37 72.42L17.37 72.42L5.45 72.42Q8.61 67.50 8.61 64.02L8.61 64.02L8.61 50.55L3.69 50.55Q6.15 48.59 8.61 46.69L8.61 46.69L8.61 26.61ZM65.78 42.05Q67.57 44.09 68.57 46.71Q69.57 49.32 69.57 51.96Q69.57 54.60 68.80 57.11Q68.03 59.63 66.64 61.95Q65.25 64.27 63.37 66.29Q61.49 68.31 59.24 69.82L59.24 69.82Q54.46 73.02 49.57 73.02L49.57 73.02Q43.84 73.02 39.83 68.55L39.83 68.55Q35.93 64.27 35.93 58.50L35.93 58.50Q35.93 53.58 38.92 48.62L38.92 48.62Q43.38 41.10 51.08 38.46L51.08 38.46Q53.54 37.58 56.29 37.58Q59.03 37.58 61.51 38.79Q63.98 40.01 65.78 42.05ZM49.15 42.29L49.15 42.29Q45.63 42.29 44.02 45.70L44.02 45.70Q42.75 48.38 42.75 51.75Q42.75 55.13 43.65 58.03Q44.54 60.93 46.30 63.21L46.30 63.21Q50.20 68.34 56.36 68.34L56.36 68.34Q59.94 68.34 61.56 64.76L61.56 64.76Q62.72 62.09 62.72 58.61L62.72 58.61Q62.72 51.82 58.94 47.06Q55.16 42.29 49.15 42.29ZM78.79 70.03L78.79 70.03L78.82 47.43Q78.82 45.07 78.19 44.26L78.19 44.26Q77.10 42.86 75.16 42.86Q73.23 42.86 71.72 43.42L71.72 43.42Q72.63 43.07 74.11 41.77L74.11 41.77Q76.82 39.27 77.94 38.85L77.94 38.85Q80.05 38.00 81.65 38.00Q83.25 38.00 84.04 38.53Q84.83 39.06 85.18 39.94L85.18 39.94Q85.64 41.03 85.64 44.09L85.64 44.09Q92.21 38.29 97.95 38.29L97.95 38.29Q101.07 38.29 103.39 40.25L103.39 40.25Q105.82 42.36 105.82 45.39L105.82 45.39L105.82 62.75Q105.82 65.36 106.38 66.34L106.38 66.34Q107.44 68.20 109.90 68.20L109.90 68.20Q111.30 68.20 112.57 67.68L112.57 67.68Q109.44 70.38 108.25 71.16L108.25 71.16Q105.50 72.95 103.45 72.95Q101.39 72.95 100.53 72.21Q99.67 71.47 99.32 70.35L99.32 70.35Q98.93 69.12 98.93 65.32L98.93 65.32L98.93 52.17Q98.93 45.88 94.82 43.88L94.82 43.88Q93.34 43.17 91.27 43.17L91.27 43.17Q86.17 43.17 85.75 50.73L85.75 50.73Q85.64 52.63 85.64 54.14L85.64 54.14L85.64 65.00Q85.64 67.25 87.01 68.06L87.01 68.06Q87.50 68.38 88.24 68.38Q88.98 68.38 89.79 68.03L89.79 68.03Q89.05 68.66 88.03 69.54Q87.01 70.42 85.89 71.23L85.89 71.23Q83.11 73.13 81.46 73.13L81.46 73.13Q78.79 73.13 78.79 70.03ZM126.60 40.43Q129.06 39.06 131.77 38.30Q134.47 37.55 136.34 37.55Q138.20 37.55 139.61 37.79L139.61 37.79L139.61 26.26Q139.61 22.50 138.23 21.27L138.23 21.27Q137.60 20.71 136.69 20.71L136.69 20.71Q135.60 20.71 133.49 21.23L133.49 21.23Q142.31 14.52 146.43 12.41L146.43 12.41L146.43 62.68Q146.43 65.53 147.02 66.45L147.02 66.45Q148.08 68.20 150.68 68.20L150.68 68.20Q151.73 68.20 152.75 67.99L152.75 67.99Q151.73 68.80 150.73 69.68Q149.73 70.56 148.64 71.30L148.64 71.30Q146.14 72.98 144.25 72.98Q142.35 72.98 141.52 72.63Q140.70 72.28 140.24 71.61L140.24 71.61Q139.54 70.59 139.54 67.78L139.54 67.78Q132.33 73.13 127.97 73.13L127.97 73.13Q121.54 73.13 118.13 68.84L118.13 68.84Q114.96 64.90 114.96 58.29L114.96 58.29Q114.96 52.88 118.34 47.95L118.34 47.95Q121.46 43.28 126.60 40.43L126.60 40.43ZM139.61 64.79L139.61 47.39Q138.02 44.86 135.49 43.56Q132.96 42.26 130.22 42.26Q127.48 42.26 125.86 43.19Q124.24 44.12 123.33 45.67L123.33 45.67Q121.75 48.34 121.75 52.37Q121.75 56.39 122.45 59.12Q123.15 61.84 124.66 63.91L124.66 63.91Q127.97 68.38 134.33 68.38L134.33 68.38Q135.70 68.38 137.04 67.57L137.04 67.57Q139.61 66.09 139.61 64.79L139.61 64.79ZM180.04 47.71L180.04 62.02L179.96 64.48Q179.96 67.22 181.51 67.96L181.51 67.96Q182.11 68.24 182.88 68.24L182.88 68.24Q184.11 68.24 185.41 67.68L185.41 67.68Q184.08 68.24 183.09 69.15Q182.11 70.07 181.09 70.95L181.09 70.95Q178.56 73.05 175.99 73.05L175.99 73.05Q173.43 73.05 173.25 70.10L173.25 70.10Q173.18 69.33 173.18 68.55L173.18 68.55Q166.85 72.95 161.58 72.95L161.58 72.95Q157.11 72.95 155.39 70.24L155.39 70.24Q154.76 69.26 154.76 67.54Q154.76 65.81 155.81 64.07Q156.87 62.33 158.48 60.89L158.48 60.89Q161.37 58.22 165.45 56.50L165.45 56.50Q168.47 55.20 173.21 55.02L173.21 55.02L173.21 53.47Q173.21 47.88 172.20 45.91Q171.18 43.95 169.56 43.01Q167.94 42.08 165.76 42.08L165.76 42.08Q162.07 42.08 159.26 43.52L159.26 43.52Q163.13 40.32 164.92 39.30L164.92 39.30Q168.61 37.23 171.62 37.23Q174.62 37.23 176.13 38.11Q177.64 38.99 178.52 40.43L178.52 40.43Q180.04 42.96 180.04 47.71L180.04 47.71ZM163.51 67.06Q164.36 67.68 165.48 67.96Q166.61 68.24 168.82 68.24Q171.04 68.24 173.21 67.18L173.21 67.18L173.21 59.80L167.52 59.80Q164.46 59.80 162.18 60.22L162.18 60.22Q161.72 61.73 161.72 63.11Q161.72 64.48 162.19 65.46Q162.67 66.45 163.51 67.06ZM217.30 44.26L217.30 44.26Q225.11 38.29 229.18 38.29L229.18 38.29Q231.93 38.29 233.51 40.57L233.51 40.57Q234.88 42.50 234.88 45.39L234.88 45.39L234.88 62.19Q234.88 65.39 235.27 66.34L235.27 66.34Q236.11 68.20 238.85 68.20L238.85 68.20Q240.26 68.20 241.52 67.68L241.52 67.68Q238.39 70.38 237.20 71.16L237.20 71.16Q234.46 72.95 232.40 72.95Q230.34 72.95 229.48 72.23Q228.62 71.51 228.27 70.38L228.27 70.38Q227.88 69.15 227.88 65.32L227.88 65.32L227.88 52.07Q227.88 48.20 227.16 46.53Q226.44 44.86 225.39 44.02Q224.33 43.17 222.91 43.17Q221.48 43.17 220.71 43.59Q219.94 44.02 219.38 44.68L219.38 44.68Q217.27 47.18 217.27 52.77L217.27 52.77L217.27 62.75Q217.27 65.36 217.83 66.34L217.83 66.34Q218.88 68.20 221.34 68.20L221.34 68.20Q222.75 68.20 224.02 67.68L224.02 67.68Q220.89 70.38 219.69 71.16L219.69 71.16Q216.95 72.95 214.89 72.95Q212.84 72.95 211.97 72.23Q211.11 71.51 210.76 70.38L210.76 70.38Q210.38 69.15 210.38 65.32L210.38 65.32L210.38 52.07Q210.38 48.20 209.65 46.53Q208.93 44.86 207.88 44.02Q206.82 43.17 205.35 43.17Q203.87 43.17 203.06 43.73Q202.25 44.30 201.67 45.23Q201.09 46.16 200.74 47.34Q200.39 48.52 200.18 49.75L200.18 49.75Q199.86 51.86 199.86 54.14L199.86 54.14L199.86 65.00Q199.86 67.25 201.23 68.06L201.23 68.06Q201.73 68.38 202.46 68.38Q203.20 68.38 204.01 68.03L204.01 68.03Q199.97 71.51 198.32 72.32Q196.66 73.13 195.68 73.13L195.68 73.13Q193.01 73.13 193.01 70.03L193.01 70.03L193.01 49.78Q193.01 48.55 193.04 47.32Q193.08 46.09 192.80 45.07L192.80 45.07Q192.13 42.86 188.96 42.86L188.96 42.86Q187.45 42.86 185.94 43.42L185.94 43.42Q186.86 43.10 188.30 41.77L188.30 41.77Q191.11 39.23 192.20 38.81L192.20 38.81Q194.45 38.00 195.98 38.00Q197.51 38.00 198.30 38.57Q199.09 39.13 199.44 40.01L199.44 40.01Q199.86 41.10 199.86 44.23L199.86 44.23Q204.43 40.61 208.72 38.92L208.72 38.92Q210.34 38.29 211.64 38.29Q212.94 38.29 213.94 38.78Q214.95 39.27 215.65 40.11L215.65 40.11Q217.09 41.84 217.30 44.26ZM270.60 65.92L270.60 65.92Q265.78 71.30 258.64 72.63L258.64 72.63Q256.99 72.91 254.57 72.91Q252.14 72.91 250.00 71.56Q247.85 70.21 246.48 68.06L246.48 68.06Q243.88 63.91 243.88 57.94L243.88 57.94Q243.88 54 246.90 49.22L246.90 49.22Q249.86 44.51 254.11 41.34L254.11 41.34Q258.68 37.97 262.76 37.97L262.76 37.97Q264.87 37.97 266.31 39.52L266.31 39.52Q267.64 41.03 267.64 42.96Q267.64 44.89 266.80 46.53Q265.96 48.16 264.60 49.71Q263.25 51.26 261.51 52.68Q259.77 54.11 257.94 55.34L257.94 55.34Q255.38 57.09 251.47 59.31L251.47 59.31Q252.60 63.56 255.45 65.87Q258.29 68.17 262.79 68.17L262.79 68.17Q266.59 68.17 270.60 65.92ZM259.98 51.82L259.98 51.82Q260.93 50.31 260.93 48.87Q260.93 47.43 260.61 46.42Q260.30 45.42 259.70 44.65L259.70 44.65Q258.33 42.89 256.15 42.89L256.15 42.89Q250.80 42.89 250.80 53.79L250.80 53.79Q250.80 55.72 251.12 57.62L251.12 57.62Q257.31 55.90 259.98 51.82ZM278.68 70.03L278.68 70.03L278.72 47.43Q278.72 45.07 278.09 44.26L278.09 44.26Q277.00 42.86 275.06 42.86Q273.13 42.86 271.62 43.42L271.62 43.42Q272.53 43.07 274.01 41.77L274.01 41.77Q276.71 39.27 277.84 38.85L277.84 38.85Q279.95 38.00 281.55 38.00Q283.15 38.00 283.94 38.53Q284.73 39.06 285.08 39.94L285.08 39.94Q285.54 41.03 285.54 44.09L285.54 44.09Q292.11 38.29 297.84 38.29L297.84 38.29Q300.97 38.29 303.29 40.25L303.29 40.25Q305.72 42.36 305.72 45.39L305.72 45.39L305.72 62.75Q305.72 65.36 306.28 66.34L306.28 66.34Q307.34 68.20 309.80 68.20L309.80 68.20Q311.20 68.20 312.47 67.68L312.47 67.68Q309.34 70.38 308.14 71.16L308.14 71.16Q305.40 72.95 303.35 72.95Q301.29 72.95 300.43 72.21Q299.57 71.47 299.21 70.35L299.21 70.35Q298.83 69.12 298.83 65.32L298.83 65.32L298.83 52.17Q298.83 45.88 294.71 43.88L294.71 43.88Q293.24 43.17 291.16 43.17L291.16 43.17Q286.07 43.17 285.64 50.73L285.64 50.73Q285.54 52.63 285.54 54.14L285.54 54.14L285.54 65.00Q285.54 67.25 286.91 68.06L286.91 68.06Q287.40 68.38 288.14 68.38Q288.88 68.38 289.69 68.03L289.69 68.03Q288.95 68.66 287.93 69.54Q286.91 70.42 285.79 71.23L285.79 71.23Q283.01 73.13 281.36 73.13L281.36 73.13Q278.68 73.13 278.68 70.03ZM318.41 41.94L313.84 41.94L318.41 38.36L318.41 33.36Q320.31 32.03 321.12 31.32Q321.93 30.62 322.49 30.30Q323.05 29.99 323.65 29.64L323.65 29.64Q325.16 28.76 325.27 28.58L325.27 28.58L325.27 37.16L336.52 37.16Q336.06 37.20 334.20 38.85L334.20 38.85Q330.64 41.94 329.70 41.94L329.70 41.94L325.27 41.94L325.27 60.79Q325.27 67.25 328.99 68.27L328.99 68.27Q330.12 68.55 331.10 68.55L331.10 68.55Q332.72 68.55 333.84 68.08Q334.97 67.61 335.71 67.22L335.71 67.22Q333.56 70.49 329.70 72.21L329.70 72.21Q327.69 73.09 325.39 73.09Q323.09 73.09 321.82 72.28Q320.55 71.47 319.78 70.17L319.78 70.17Q318.41 67.78 318.41 63.84L318.41 63.84L318.41 41.94ZM368.58 42.05Q370.37 44.09 371.37 46.71Q372.38 49.32 372.38 51.96Q372.38 54.60 371.60 57.11Q370.83 59.63 369.44 61.95Q368.05 64.27 366.17 66.29Q364.29 68.31 362.04 69.82L362.04 69.82Q357.26 73.02 352.37 73.02L352.37 73.02Q346.64 73.02 342.63 68.55L342.63 68.55Q338.73 64.27 338.73 58.50L338.73 58.50Q338.73 53.58 341.72 48.62L341.72 48.62Q346.18 41.10 353.88 38.46L353.88 38.46Q356.34 37.58 359.09 37.58Q361.83 37.58 364.31 38.79Q366.79 40.01 368.58 42.05ZM351.95 42.29L351.95 42.29Q348.43 42.29 346.82 45.70L346.82 45.70Q345.55 48.38 345.55 51.75Q345.55 55.13 346.45 58.03Q347.34 60.93 349.10 63.21L349.10 63.21Q353.00 68.34 359.16 68.34L359.16 68.34Q362.74 68.34 364.36 64.76L364.36 64.76Q365.52 62.09 365.52 58.61L365.52 58.61Q365.52 51.82 361.74 47.06Q357.96 42.29 351.95 42.29Z"/></svg>