<?xml version="1.0" encoding="UTF-8"?>
<svg xmlns="http://www.w3.org/2000/svg" xmlns:xlink="http://www.w3.org/1999/xlink" width="376.84800000000007" height="72.00000000000001" viewBox="0 -13.999999999999993 376.84800000000007 100" preserveAspectRatio="xMinYMid meet"><path d="M25.78 52.13L40.61 7.20L47.45 7.20L30.24 58.32L17.93 58.32L0.72 7.20L7.56 7.20L22.39 52.13L25.78 52.13ZM56.74 14.69Q54.94 14.69 53.68 13.46Q52.42 12.24 52.42 10.44L52.42 10.44Q52.42 8.64 53.68 7.34Q54.94 6.05 56.74 6.05L56.74 6.05Q58.54 6.05 59.80 7.34Q61.06 8.64 61.06 10.44L61.06 10.44Q61.06 12.24 59.80 13.46Q58.54 14.69 56.74 14.69L56.74 14.69ZM59.98 58.32L53.50 58.32L53.50 23.76L59.98 23.76L59.98 58.32ZM87.55 22.61Q91.73 22.61 95.18 24.34Q98.64 26.06 100.69 29.59Q102.74 33.12 102.74 38.30L102.74 38.30L102.74 43.78Q102.74 48.96 100.69 52.49Q98.64 56.02 95.18 57.74Q91.73 59.47 87.55 59.47L87.55 59.47L83.38 59.47Q79.20 59.47 75.74 57.74Q72.29 56.02 70.24 52.49Q68.18 48.96 68.18 43.78L68.18 43.78L68.18 38.30Q68.18 33.12 70.24 29.59Q72.29 26.06 75.74 24.34Q79.20 22.61 83.38 22.61L83.38 22.61L87.55 22.61ZM96.26 39.46Q96.26 34.27 93.78 31.54Q91.30 28.80 85.46 28.80L85.46 28.80Q79.63 28.80 77.15 31.54Q74.66 34.27 74.66 39.46L74.66 39.46L74.66 42.62Q74.66 47.81 77.15 50.54Q79.63 53.28 85.46 53.28L85.46 53.28Q91.30 53.28 93.78 50.54Q96.26 47.81 96.26 42.62L96.26 42.62L96.26 39.46ZM111.38 6.05L117.86 6.05L117.86 58.32L111.38 58.32L111.38 6.05ZM145.15 22.61Q149.40 22.61 153.04 24.34Q156.67 26.06 158.87 29.63Q161.06 33.19 161.06 38.30L161.06 38.30L161.06 42.26L132.77 42.26L132.77 42.62Q132.77 47.81 135.32 50.54Q137.88 53.28 143.78 53.28L143.78 53.28Q152.14 53.28 154.01 47.16L154.01 47.16L160.78 47.16Q159.84 53.21 155.70 56.34Q151.56 59.47 145.87 59.47L145.87 59.47L141.70 59.47Q134.93 59.47 130.72 55.51Q126.50 51.55 126.50 43.78L126.50 43.78L126.50 38.30Q126.50 33.19 128.70 29.63Q130.90 26.06 134.53 24.34Q138.17 22.61 142.42 22.61L142.42 22.61L145.15 22.61ZM143.78 28.80Q138.31 28.80 135.83 30.85Q133.34 32.90 132.91 36.94L132.91 36.94L154.66 36.94Q154.22 32.90 151.74 30.85Q149.26 28.80 143.78 28.80L143.78 28.80ZM186.70 29.95L176.98 29.95L176.98 42.91Q176.98 47.52 178.70 49.82Q180.43 52.13 184.54 52.13L184.54 52.13L186.70 52.13L186.70 58.32L182.45 58.32Q177.12 58.32 173.81 54.94Q170.50 51.55 170.50 44.06L170.50 44.06L170.50 29.95L165.38 29.95L165.38 23.76L170.50 23.76L170.50 6.05L176.98 6.05L176.98 23.76L186.70 23.76L186.70 29.95ZM217.87 43.20Q218.88 48.02 222.84 50.54Q226.80 53.06 233.35 53.06L233.35 53.06Q240.05 53.06 243.50 50.69Q246.96 48.31 246.96 44.14L246.96 44.14Q246.96 41.11 245.16 39.35Q243.36 37.58 240.12 36.58Q236.88 35.57 230.76 34.42L230.76 34.42Q225.00 33.34 221.29 31.97Q217.58 30.60 215.21 27.94Q212.83 25.27 212.83 20.74L212.83 20.74Q212.83 13.90 217.69 9.97Q222.55 6.05 231.19 6.05L231.19 6.05Q240.19 6.05 245.05 10.19Q249.91 14.33 250.85 21.74L250.85 21.74L244.37 21.74Q243.58 17.28 240.48 14.76Q237.38 12.24 231.19 12.24L231.19 12.24Q225.86 12.24 222.59 14.47Q219.31 16.70 219.31 20.52L219.31 20.52Q219.31 23.04 220.86 24.48Q222.41 25.92 224.93 26.64Q227.45 27.36 231.62 28.08L231.62 28.08Q239.18 29.38 243.50 30.74Q247.82 32.11 250.63 35.21Q253.44 38.30 253.44 43.99L253.44 43.99Q253.44 51.12 248.51 55.30Q243.58 59.47 232.70 59.47L232.70 59.47Q223.70 59.47 217.73 55.37Q211.75 51.26 210.67 43.20L210.67 43.20L217.87 43.20ZM291.89 49.46Q291.89 52.13 294.70 52.13L294.70 52.13L294.70 58.32Q291.31 58.32 289.12 57.67Q286.92 57.02 285.98 54.58L285.98 54.58Q284.33 57.17 280.94 58.28Q277.56 59.40 273.67 59.40L273.67 59.40Q267.84 59.40 263.88 56.74Q259.92 54.07 259.92 48.02L259.92 48.02L259.92 47.23Q259.92 42.41 263.66 39.42Q267.41 36.43 273.67 36.43L273.67 36.43L285.41 36.43Q285.34 33.77 284.76 32.15Q284.18 30.53 282.56 29.66Q280.94 28.80 277.85 28.80L277.85 28.80L273.53 28.80Q270.86 28.80 269.10 30.06Q267.34 31.32 267.34 33.12L267.34 33.12L260.86 33.12Q260.86 30.46 262.40 28.04Q263.95 25.63 266.72 24.12Q269.50 22.61 272.88 22.61L272.88 22.61L279.94 22.61Q285.26 22.61 288.58 25.99Q291.89 29.38 291.89 36.86L291.89 36.86L291.89 49.46ZM275.76 53.21Q279.00 53.21 282.20 51.91Q285.41 50.62 285.41 47.59L285.41 47.59L285.41 41.90L275.76 41.90Q270.36 41.90 268.38 43.67Q266.40 45.43 266.40 47.74L266.40 47.74Q266.40 50.76 268.52 51.98Q270.65 53.21 275.76 53.21L275.76 53.21ZM320.11 22.61Q323.42 22.61 326.38 24.01Q329.33 25.42 331.24 28.62Q333.14 31.82 333.14 36.86L333.14 36.86L333.14 58.32L326.66 58.32L326.66 38.02Q326.66 33.19 324.61 31.00Q322.56 28.80 318.02 28.80L318.02 28.80Q315.94 28.80 313.70 29.92Q311.47 31.03 309.92 33.59Q308.38 36.14 308.38 40.25L308.38 40.25L308.38 58.32L301.90 58.32L301.90 23.76L307.94 23.76L307.94 29.45Q309.74 26.50 313.24 24.55Q316.73 22.61 320.11 22.61L320.11 22.61ZM373.61 47.88Q373.61 53.28 369.58 56.38Q365.54 59.47 357.48 59.47L357.48 59.47Q350.06 59.47 346.00 56.63Q341.93 53.78 340.70 48.38L340.70 48.38L347.90 48.38Q349.06 53.28 357.55 53.28L357.55 53.28Q367.13 53.28 367.13 47.81L367.13 47.81Q367.13 46.22 366.16 45.36Q365.18 44.50 362.70 43.96Q360.22 43.42 354.82 42.77L354.82 42.77Q347.76 41.90 344.95 39.67Q342.14 37.44 342.14 33.34L342.14 33.34Q342.14 28.37 346.10 25.49Q350.06 22.61 357.12 22.61L357.12 22.61Q362.81 22.61 366.88 25.20Q370.94 27.79 372.10 32.83L372.10 32.83L364.90 32.83Q364.32 30.82 362.34 29.70Q360.36 28.58 356.40 28.58L356.40 28.58Q352.94 28.58 350.78 29.77Q348.62 30.96 348.62 32.76L348.62 32.76Q348.62 34.85 350.50 35.71Q352.37 36.58 356.98 37.01L356.98 37.01Q363.46 37.66 367.06 38.99Q370.66 40.32 372.13 42.44Q373.61 44.57 373.61 47.88L373.61 47.88Z"/></svg>