<?xml version="1.0" encoding="UTF-8"?>
<svg xmlns="http://www.w3.org/2000/svg" xmlns:xlink="http://www.w3.org/1999/xlink" width="359.5078125" height="89.82421875" viewBox="0 -5.087890625 359.5078125 100" preserveAspectRatio="xMinYMid meet"><path d="M7.45 62.23L7.45 62.23Q3.62 62.23 1.81 60.82Q0 59.41 0 57.41L0 57.41Q0 55.86 1.11 55.18Q2.21 54.49 3.30 54.49L3.30 54.49Q3.83 54.49 4.45 54.88Q5.06 55.27 5.06 56.11L5.06 56.11Q5.06 56.78 4.46 57.32Q3.87 57.87 3.06 57.87L3.06 57.87Q2.60 57.87 2.18 57.80Q1.76 57.73 1.41 57.52L1.41 57.52L1.41 57.69Q1.41 59.24 2.92 60.24Q4.43 61.24 7.00 61.24L7.00 61.24Q9.25 61.24 11.30 60.47Q13.36 59.70 15.84 57.52Q18.32 55.34 21.71 51.15Q25.10 46.97 30.06 40.15L30.06 40.15Q28.09 38.85 28.09 37.05L28.09 37.05Q28.09 35.47 29.46 34.45Q30.83 33.43 32.34 33.43L32.34 33.43Q33.01 33.43 33.12 33.61Q33.22 33.79 33.22 33.79L33.22 33.79Q33.22 34.00 32.80 34.07L32.80 34.07Q31.18 34.31 30.34 35.33Q29.50 36.35 29.50 37.72L29.50 37.72Q29.50 38.53 30.66 39.30L30.66 39.30L31.15 38.64Q34.98 33.47 38.41 29.57Q41.84 25.66 45.23 22.59Q48.62 19.51 52.38 16.95L52.38 16.95L53.82 16.00Q51.82 14.77 48.69 14.13Q45.56 13.50 41.27 13.50L41.27 13.50Q34.56 13.50 28.56 15.40Q22.57 17.30 18 20.37Q13.43 23.45 10.88 27.09Q8.33 30.73 8.44 34.21L8.44 34.21Q8.54 37.09 10.13 38.21Q11.71 39.34 13.22 39.34L13.22 39.34Q15.75 39.34 18.32 37.79Q20.88 36.25 23.22 33.82Q25.56 31.39 27.42 28.69Q29.29 25.98 30.43 23.57Q31.57 21.16 31.75 19.72L31.75 19.72Q31.85 18.53 32.24 18.53L32.24 18.53Q32.59 18.53 32.59 19.62L32.59 19.62Q32.70 22.68 31.39 26.24Q30.09 29.81 27.54 33.01Q25.00 36.21 21.34 38.25Q17.68 40.29 13.11 40.29L13.11 40.29Q11.14 40.29 9.28 38.67Q7.42 37.05 7.35 34.42L7.35 34.42Q7.24 30.97 9.14 27.77Q11.04 24.57 14.41 21.83Q17.79 19.09 22.17 17.05Q26.54 15.01 31.43 13.87Q36.32 12.73 41.20 12.73L41.20 12.73Q45.60 12.73 49.04 13.39Q52.49 14.06 55.02 15.29L55.02 15.29Q57.20 14.06 58.87 13.50Q60.54 12.94 61.38 12.94L61.38 12.94Q62.05 12.94 62.09 13.29L62.09 13.29Q62.09 13.50 61.93 13.64Q61.77 13.78 61.17 13.85L61.17 13.85Q58.85 14.31 56.29 15.96L56.29 15.96Q59.13 17.65 60.54 20.00Q61.95 22.36 61.95 25.10L61.95 25.10Q61.95 28.37 60.05 31.43Q58.15 34.49 54.91 36.91Q51.68 39.34 47.62 40.76Q43.56 42.19 39.23 42.19L39.23 42.19Q36.46 42.19 34.10 41.70L34.10 41.70Q28.34 49.43 23.55 53.91Q18.77 58.39 14.78 60.31Q10.79 62.23 7.45 62.23ZM39.09 41.27L39.09 41.27Q41.91 41.27 45.14 40.10Q48.38 38.92 51.24 36.60Q54.11 34.28 55.92 30.81Q57.73 27.35 57.73 22.82L57.73 22.82Q57.73 19.09 55.02 16.84L55.02 16.84Q51.19 19.62 46.97 24.61Q42.75 29.60 38.04 36.21L38.04 36.21Q37.20 37.44 36.39 38.58Q35.58 39.73 34.77 40.82L34.77 40.82Q36.95 41.27 39.09 41.27ZM67.01 31.36L67.01 31.36Q66.02 31.36 65.44 30.74Q64.86 30.13 64.86 29.18L64.86 29.18Q64.86 27.95 65.90 26.91Q66.94 25.88 68.38 25.88L68.38 25.88Q69.36 25.88 69.94 26.53Q70.52 27.18 70.52 28.09L70.52 28.09Q70.52 29.39 69.42 30.38Q68.31 31.36 67.01 31.36ZM49.04 62.23L49.04 62.23Q46.90 62.23 45.58 61.44Q44.26 60.64 44.26 59.31L44.26 59.31Q44.26 58.25 44.79 56.87Q45.32 55.48 46.81 53.23Q48.30 50.98 51.17 47.37Q54.04 43.77 58.71 38.32L58.71 38.32Q59.03 38.36 60.22 38.39Q61.42 38.43 62.09 38.43L62.09 38.43Q62.68 38.43 62.98 38.41Q63.28 38.39 63.56 38.36L63.56 38.36Q58.43 44.40 55.18 48.30Q51.93 52.21 50.17 54.53Q48.41 56.85 47.74 58.08Q47.07 59.31 47.07 60.05L47.07 60.05Q47.07 60.96 48.06 61.10Q49.04 61.24 49.64 61.24L49.64 61.24Q51.54 61.24 53.79 59.96Q56.04 58.68 58.27 56.76Q60.50 54.84 62.42 52.88Q64.34 50.91 65.57 49.48Q66.80 48.06 67.01 47.85L67.01 47.85L67.71 48.48Q67.32 48.90 66.02 50.41Q64.72 51.93 62.79 53.91Q60.86 55.90 58.55 57.80Q56.25 59.70 53.81 60.96Q51.36 62.23 49.04 62.23ZM86.13 62.23L86.13 62.23Q84.20 62.23 82.78 61.49Q81.35 60.75 81.35 59.52L81.35 59.52Q81.35 58.57 81.77 57.29Q82.20 56.00 83.79 53.75Q85.39 51.50 88.84 47.64L88.84 47.64Q91.62 44.51 92.67 42.79Q93.73 41.06 93.73 40.22L93.73 40.22Q93.73 39.73 93.38 39.34Q93.02 38.95 92.04 38.95L92.04 38.95Q91.34 38.95 90.16 39.41Q88.98 39.87 87.36 40.96L87.36 40.96Q84.59 42.86 80.54 46.81Q76.50 50.77 71.26 57.20L71.26 57.20L67.99 61.49Q67.08 61.31 65.95 61.31L65.95 61.31Q64.69 61.31 63.86 61.44Q63.04 61.56 62.61 61.66L62.61 61.66Q66.55 55.97 69.19 52.22Q71.82 48.48 73.42 46.23Q75.02 43.98 75.81 42.80Q76.61 41.63 76.89 41.12Q77.17 40.61 77.20 40.29L77.20 40.29Q77.27 39.27 76.43 39.27L76.43 39.27Q75.94 39.27 74.88 40.25Q73.83 41.24 72.51 42.71Q71.19 44.19 69.93 45.76Q68.66 47.32 67.71 48.48L67.71 48.48Q67.46 48.62 67.08 48.30L67.08 48.30Q66.87 47.99 66.97 47.88L66.97 47.88Q67.99 46.79 69.28 45.16Q70.56 43.52 71.96 41.89Q73.37 40.25 74.85 39.16Q76.32 38.07 77.70 38.07L77.70 38.07Q78.71 38.07 79.72 38.51Q80.72 38.95 80.54 40.61L80.54 40.61Q80.51 41.17 80.19 42.03Q79.88 42.89 78.93 44.23L78.93 44.23L71.54 54.49L71.72 54.88Q77.20 48.69 80.88 45.16Q84.55 41.63 87.08 39.94L87.08 39.94Q88.77 38.81 90.05 38.44Q91.34 38.07 92.43 38.07L92.43 38.07Q94.71 38.07 95.64 39.18Q96.57 40.29 96.54 41.63L96.54 41.63Q96.50 43.03 95.61 44.98Q94.71 46.93 92.55 49.83Q90.39 52.73 86.48 56.99L86.48 56.99Q84.69 58.89 84.32 59.43Q83.95 59.98 83.95 60.43L83.95 60.43Q83.95 60.79 84.67 61.01Q85.39 61.24 86.48 61.24L86.48 61.24Q88.63 61.24 90.88 60.01Q93.13 58.78 95.26 56.94Q97.38 55.09 99.14 53.16Q100.90 51.22 102.08 49.75Q103.25 48.27 103.61 47.88L103.61 47.88L104.34 48.48Q103.92 48.94 102.71 50.45Q101.50 51.96 99.67 53.95Q97.84 55.93 95.63 57.83Q93.41 59.73 90.98 60.98Q88.56 62.23 86.13 62.23ZM83.21 89.82L83.21 89.82Q81.70 89.82 80.93 89.05Q80.16 88.28 80.16 87.47L80.16 87.47Q80.16 85.57 82.35 83.27Q84.55 80.96 89.98 77.94Q95.41 74.92 105.05 70.88L105.05 70.88Q107.96 67.32 111.48 62.82Q115.00 58.32 119.36 52.73L119.36 52.73L118.97 52.59Q117 54.70 114.03 56.94Q111.06 59.17 107.82 60.70Q104.59 62.23 101.74 62.23L101.74 62.23Q97.80 62.23 97.80 59.31L97.80 59.31Q97.80 58.04 98.24 56.72Q98.68 55.41 99.97 53.30Q101.25 51.19 103.82 47.57L103.82 47.57Q105.43 45.60 107.70 43.28Q109.97 40.96 112.61 38.29L112.61 38.29Q113.73 38.39 114.28 38.44Q114.82 38.50 115.63 38.50L115.63 38.50Q117.18 38.50 118.13 38.39L118.13 38.39Q115.70 40.57 114.24 42.10Q112.78 43.63 111.60 45.02Q110.43 46.41 108.77 48.16L108.77 48.16Q107.96 49.08 106.56 50.63Q105.15 52.17 103.69 53.91Q102.23 55.65 101.23 57.20Q100.23 58.75 100.23 59.70L100.23 59.70Q100.23 60.86 100.86 61.08Q101.50 61.31 102.02 61.31L102.02 61.31Q105.19 61.31 108.54 59.50Q111.90 57.69 115.00 54.93Q118.09 52.17 120.45 49.29L120.45 49.29Q124.03 45.35 126.19 42.75Q128.36 40.15 129.76 38.39L129.76 38.39Q130.15 38.46 130.75 38.55Q131.34 38.64 131.94 38.64L131.94 38.64Q132.40 38.64 133.21 38.60Q134.02 38.57 134.47 38.50L134.47 38.50L122.24 53.58Q118.90 58.11 116.03 61.91Q113.17 65.71 110.67 68.87L110.67 68.87Q115.52 66.55 118.81 64.49Q122.10 62.44 124.63 60.17Q127.16 57.90 129.69 54.95Q132.22 52.00 135.60 47.88L135.60 47.88L136.34 48.48Q133.42 52.00 131.12 54.63Q128.81 57.27 126.70 59.34Q124.59 61.42 122.20 63.19Q119.81 64.97 116.75 66.69Q113.70 68.41 109.44 70.42L109.44 70.42Q104.48 76.68 100.85 80.51Q97.21 84.34 94.32 86.36Q91.44 88.38 88.80 89.10Q86.17 89.82 83.21 89.82ZM83.36 88.88L83.36 88.88Q85.32 88.88 87.22 88.17Q89.12 87.47 91.39 85.69Q93.66 83.92 96.66 80.68Q99.67 77.45 103.82 72.39L103.82 72.39Q95.80 75.80 90.83 78.47Q85.85 81.14 83.57 83.30Q81.28 85.46 81.28 87.47L81.28 87.47Q81.28 87.86 81.77 88.37Q82.27 88.88 83.36 88.88ZM137.64 62.23L137.64 62.23Q134.68 62.23 133.28 60.87Q131.87 59.52 131.70 57.55L131.70 57.55Q131.59 55.16 132.70 52.42Q133.80 49.68 135.11 47.81L135.11 47.81Q136.83 45.39 139.29 43.15Q141.75 40.92 144.69 39.50Q147.62 38.07 150.71 38.07L150.71 38.07Q152.58 38.07 153.93 39.04Q155.29 40.01 155.43 42.12L155.43 42.12Q155.60 45.11 154.27 48.39Q152.93 51.68 150.64 54.49L150.64 54.49Q150.89 55.51 152.23 55.51L152.23 55.51Q153.53 55.51 155.07 54.47Q156.62 53.44 158.08 52.03Q159.54 50.63 160.59 49.43Q161.65 48.23 162 47.88L162 47.88L162.77 48.48Q162.11 49.11 160.88 50.43Q159.64 51.75 158.15 53.14Q156.66 54.53 155.09 55.51Q153.53 56.50 152.16 56.50L152.16 56.50Q150.47 56.50 149.87 55.44L149.87 55.44Q147.27 58.39 144.02 60.31Q140.77 62.23 137.64 62.23ZM138.55 61.17L138.55 61.17Q139.78 61.17 141.40 60.47Q143.02 59.77 144.63 58.61L144.63 58.61Q147.34 56.67 149.52 54.07L149.52 54.07L149.52 53.93Q149.52 51.75 150.66 50.47Q151.80 49.18 152.89 48.83L152.89 48.83Q154.62 45.25 154.44 42.40L154.44 42.40Q154.34 40.68 153.54 40.01Q152.75 39.34 151.80 39.34L151.80 39.34Q149.77 39.34 146.79 41.75Q143.82 44.16 140.17 48.69L140.17 48.69Q137.57 51.96 136.53 54.21Q135.49 56.46 135.63 58.11L135.63 58.11Q135.63 59.06 136.28 60.12Q136.93 61.17 138.55 61.17ZM181.20 62.23L181.20 62.23Q179.26 62.23 177.84 61.49Q176.41 60.75 176.41 59.52L176.41 59.52Q176.41 58.57 176.84 57.29Q177.26 56.00 178.86 53.75Q180.46 51.50 183.90 47.64L183.90 47.64Q186.68 44.51 187.73 42.79Q188.79 41.06 188.79 40.22L188.79 40.22Q188.79 39.73 188.44 39.34Q188.09 38.95 187.10 38.95L187.10 38.95Q186.40 38.95 185.22 39.41Q184.04 39.87 182.43 40.96L182.43 40.96Q179.65 42.86 175.61 46.81Q171.56 50.77 166.32 57.20L166.32 57.20L163.05 61.49Q162.14 61.31 161.02 61.31L161.02 61.31Q159.75 61.31 158.92 61.44Q158.10 61.56 157.68 61.66L157.68 61.66Q161.61 55.97 164.25 52.22Q166.89 48.48 168.49 46.23Q170.09 43.98 170.88 42.80Q171.67 41.63 171.95 41.12Q172.23 40.61 172.27 40.29L172.27 40.29Q172.34 39.27 171.49 39.27L171.49 39.27Q171 39.27 169.95 40.25Q168.89 41.24 167.57 42.71Q166.25 44.19 164.99 45.76Q163.72 47.32 162.77 48.48L162.77 48.48Q162.53 48.62 162.14 48.30L162.14 48.30Q161.93 47.99 162.04 47.88L162.04 47.88Q163.05 46.79 164.34 45.16Q165.62 43.52 167.03 41.89Q168.43 40.25 169.91 39.16Q171.39 38.07 172.76 38.07L172.76 38.07Q173.78 38.07 174.78 38.51Q175.78 38.95 175.61 40.61L175.61 40.61Q175.57 41.17 175.25 42.03Q174.94 42.89 173.99 44.23L173.99 44.23L166.61 54.49L166.78 54.88Q172.27 48.69 175.94 45.16Q179.61 41.63 182.14 39.94L182.14 39.94Q183.83 38.81 185.12 38.44Q186.40 38.07 187.49 38.07L187.49 38.07Q189.77 38.07 190.71 39.18Q191.64 40.29 191.60 41.63L191.60 41.63Q191.57 43.03 190.67 44.98Q189.77 46.93 187.61 49.83Q185.45 52.73 181.55 56.99L181.55 56.99Q179.75 58.89 179.38 59.43Q179.02 59.98 179.02 60.43L179.02 60.43Q179.02 60.79 179.74 61.01Q180.46 61.24 181.55 61.24L181.55 61.24Q183.69 61.24 185.94 60.01Q188.19 58.78 190.32 56.94Q192.45 55.09 194.20 53.16Q195.96 51.22 197.14 49.75Q198.32 48.27 198.67 47.88L198.67 47.88L199.41 48.48Q198.98 48.94 197.77 50.45Q196.56 51.96 194.73 53.95Q192.90 55.93 190.69 57.83Q188.47 59.73 186.05 60.98Q183.62 62.23 181.20 62.23ZM221.20 62.23L221.20 62.23Q217.37 62.23 215.24 60.82Q213.12 59.41 213.12 57.41L213.12 57.41Q213.12 55.86 214.21 55.18Q215.30 54.49 216.39 54.49L216.39 54.49Q216.98 54.49 217.56 54.88Q218.14 55.27 218.14 56.11L218.14 56.11Q218.14 56.78 217.55 57.32Q216.95 57.87 216.14 57.87L216.14 57.87Q215.09 57.87 214.52 57.52L214.52 57.52L214.52 57.69Q214.52 59.24 216.30 60.31Q218.07 61.38 220.64 61.38L220.64 61.38Q224.40 61.38 227.43 59.50Q230.45 57.62 233.02 54.53Q235.58 51.43 237.88 47.67Q240.19 43.91 242.47 40.11L242.47 40.11L243.18 38.95Q237.62 38.74 233.24 37.28Q228.87 35.82 226.42 33.29Q223.98 30.76 224.19 27.42L224.19 27.42Q224.37 24.29 226.44 21.64Q228.52 18.98 231.98 17.03Q235.44 15.08 239.82 13.99Q244.20 12.90 249.01 12.90L249.01 12.90Q251.61 12.90 253.56 13.39Q255.52 13.89 255.52 14.38L255.52 14.38Q255.52 14.52 255.09 14.52L255.09 14.52Q254.85 14.52 254.62 14.47Q254.39 14.41 254.11 14.38L254.11 14.38Q252.98 14.10 251.81 13.90Q250.63 13.71 248.98 13.71L248.98 13.71Q244.90 13.71 240.98 14.75Q237.06 15.79 233.84 17.68Q230.63 19.58 228.67 22.22Q226.72 24.86 226.55 28.09L226.55 28.09Q226.41 30.20 228.22 32.45Q230.03 34.70 233.89 36.28Q237.76 37.86 243.74 38.07L243.74 38.07Q252.14 24.86 259.17 18.88Q266.20 12.90 272.53 12.90L272.53 12.90Q274.64 12.90 275.87 14.03Q277.10 15.15 277.00 17.26L277.00 17.26Q276.86 19.97 274.62 23.34Q272.39 26.72 268.56 29.95Q264.73 33.19 259.73 35.58Q254.74 37.97 249.01 38.71L249.01 38.71Q246.02 43.31 242.93 47.55Q239.84 51.79 236.48 55.09Q233.12 58.39 229.34 60.31Q225.56 62.23 221.20 62.23ZM249.68 37.72L249.68 37.72Q254.74 36.88 259.28 34.58Q263.81 32.27 267.33 29.21Q270.84 26.16 272.90 22.96Q274.96 19.76 275.10 17.12L275.10 17.12Q275.27 15.22 274.36 14.48Q273.45 13.75 272.50 13.78L272.50 13.78Q268.14 13.92 263.23 19.05Q258.33 24.19 252.18 33.86L252.18 33.86Q251.54 34.84 250.91 35.79Q250.28 36.74 249.68 37.72ZM257.41 62.37L257.41 62.37Q253.69 62.37 251.91 60.52Q250.14 58.68 250.14 56.04L250.14 56.04Q250.14 53.75 251.21 51.21Q252.28 48.66 254.50 46.02L254.50 46.02Q258.33 41.52 262.60 39.74Q266.87 37.97 269.96 38.07L269.96 38.07Q272.32 38.14 273.25 39.18Q274.18 40.22 274.22 41.34L274.22 41.34Q274.29 42.86 273.08 44.03Q271.86 45.21 270.49 45.21L270.49 45.21Q269.68 45.21 268.96 44.68Q268.24 44.16 268.21 43.14L268.21 43.14Q268.17 42.15 268.96 41.48Q269.75 40.82 270.84 40.78L270.84 40.78Q271.69 40.75 272.64 41.17L272.64 41.17L272.64 41.03Q272.64 40.11 272.02 39.55Q271.41 38.99 269.96 38.99L269.96 38.99Q267.61 38.99 264.32 41.59Q261.04 44.19 256.89 49.61L256.89 49.61Q254.95 52.17 254.25 54.12Q253.55 56.07 253.55 57.62L253.55 57.62Q253.55 59.13 254.69 60.24Q255.83 61.35 257.63 61.35L257.63 61.35Q261.04 61.35 264.06 60.05Q267.08 58.75 269.58 56.81Q272.07 54.88 273.92 52.89Q275.77 50.91 276.84 49.48Q277.91 48.06 278.09 47.88L278.09 47.88L278.86 48.48Q278.68 48.69 277.56 50.15Q276.43 51.61 274.50 53.65Q272.57 55.69 269.96 57.69Q267.36 59.70 264.18 61.03Q261 62.37 257.41 62.37ZM283.75 62.23L283.75 62.23Q281.78 62.23 280.55 61.22Q279.32 60.22 279.32 58.61L279.32 58.61Q279.32 55.79 283.43 51.82Q287.54 47.85 294.57 43.14L294.57 43.14Q290.99 42.54 288.40 41.94Q285.82 41.34 284.27 40.64L284.27 40.64Q283.57 42.05 282.23 44.09Q280.90 46.13 278.82 48.48L278.82 48.48Q277.42 50.13 276.71 50.80Q276.01 51.47 275.75 51.59Q275.48 51.71 275.45 51.79L275.45 51.79Q275.34 51.82 275.33 51.57Q275.31 51.33 275.34 51.19L275.34 51.19Q275.34 51.05 275.87 50.52Q276.40 49.99 278.09 47.88L278.09 47.88Q279.84 45.67 281.21 43.66Q282.59 41.66 283.32 40.15L283.32 40.15Q282.06 39.34 281.85 38.36L281.85 38.36Q281.57 36.67 282.52 35.30Q283.46 33.93 284.98 33.93L284.98 33.93Q286.84 33.93 286.84 35.54L286.84 35.54Q286.84 36.35 286.52 36.91Q286.21 37.48 285.89 38.00L285.89 38.00Q285.26 38.74 285.26 39.87L285.26 39.87Q285.26 40.22 286.47 40.62Q287.68 41.03 289.46 41.40Q291.23 41.77 292.96 42.03Q294.68 42.29 295.66 42.36L295.66 42.36Q296.33 42.40 296.49 42.59Q296.65 42.79 296.65 42.89L296.65 42.89Q296.65 43.24 295.63 44.05L295.63 44.05Q293.70 45.53 291.66 47.62Q289.62 49.71 287.86 51.94Q286.10 54.18 285.01 56.14Q283.92 58.11 283.92 59.38L283.92 59.38Q283.92 61.03 285.26 61.03L285.26 61.03Q286.98 61.03 289.02 59.87Q291.06 58.71 293.15 56.95Q295.24 55.20 297.09 53.31Q298.93 51.43 300.27 49.94Q301.61 48.45 302.13 47.88L302.13 47.88L302.84 48.48Q302.06 49.22 300.64 50.82Q299.21 52.42 297.32 54.37Q295.42 56.32 293.19 58.11Q290.95 59.91 288.56 61.07Q286.17 62.23 283.75 62.23ZM318.09 31.36L318.09 31.36Q317.11 31.36 316.53 30.74Q315.95 30.13 315.95 29.18L315.95 29.18Q315.95 27.95 316.99 26.91Q318.02 25.88 319.46 25.88L319.46 25.88Q320.45 25.88 321.03 26.53Q321.61 27.18 321.61 28.09L321.61 28.09Q321.61 29.39 320.50 30.38Q319.39 31.36 318.09 31.36ZM300.13 62.23L300.13 62.23Q297.98 62.23 296.67 61.44Q295.35 60.64 295.35 59.31L295.35 59.31Q295.35 58.25 295.88 56.87Q296.40 55.48 297.90 53.23Q299.39 50.98 302.26 47.37Q305.12 43.77 309.80 38.32L309.80 38.32Q310.11 38.36 311.31 38.39Q312.50 38.43 313.17 38.43L313.17 38.43Q313.77 38.43 314.07 38.41Q314.37 38.39 314.65 38.36L314.65 38.36Q309.52 44.40 306.26 48.30Q303.01 52.21 301.25 54.53Q299.50 56.85 298.83 58.08Q298.16 59.31 298.16 60.05L298.16 60.05Q298.16 60.96 299.14 61.10Q300.13 61.24 300.73 61.24L300.73 61.24Q302.63 61.24 304.88 59.96Q307.13 58.68 309.36 56.76Q311.59 54.84 313.51 52.88Q315.42 50.91 316.65 49.48Q317.88 48.06 318.09 47.85L318.09 47.85L318.80 48.48Q318.41 48.90 317.11 50.41Q315.81 51.93 313.88 53.91Q311.94 55.90 309.64 57.80Q307.34 59.70 304.89 60.96Q302.45 62.23 300.13 62.23ZM292.39 87.08L292.39 87.08Q291.97 87.08 291.15 86.99Q290.32 86.91 289.83 86.77L289.83 86.77Q292.54 83.11 295.95 78.50Q299.36 73.90 302.99 68.91Q306.63 63.91 310.10 59.12Q313.56 54.32 316.30 50.31L316.30 50.31Q318.34 47.50 319.71 45.63Q321.08 43.77 322.26 42.22Q323.44 40.68 324.79 38.88Q326.14 37.09 328.10 34.47Q330.05 31.85 333.04 27.81L333.04 27.81Q334.30 27.95 335.06 27.98Q335.81 28.02 336.34 28.02L336.34 28.02Q336.83 28.02 337.34 27.97Q337.85 27.91 338.34 27.77L338.34 27.77Q335.25 31.54 333.14 34.08Q331.03 36.63 329.59 38.41Q328.15 40.18 327.02 41.63Q325.90 43.07 324.79 44.54Q323.68 46.02 322.24 47.97Q320.80 49.92 318.66 52.80L318.66 52.80L318.90 53.09Q329.84 42.57 335.04 39.87L335.04 39.87Q336.69 39.02 337.97 38.55Q339.26 38.07 341.40 38.07L341.40 38.07Q343.16 38.07 343.95 38.88Q344.74 39.69 344.74 40.99L344.74 40.99Q344.74 43.66 342.40 46.83Q340.07 49.99 334.16 54.18L334.16 54.18Q330.64 56.67 329.59 57.78Q328.54 58.89 328.54 59.66L328.54 59.66Q328.54 61.24 331.03 61.24L331.03 61.24Q333.49 61.24 336.06 59.68Q338.63 58.11 341.02 55.85Q343.41 53.58 345.32 51.36Q347.24 49.15 348.33 47.88L348.33 47.88L349.10 48.48Q348.05 49.68 346.10 51.93Q344.14 54.18 341.60 56.55Q339.05 58.92 336.27 60.57Q333.49 62.23 330.82 62.23L330.82 62.23Q328.75 62.23 327.74 61.29Q326.74 60.36 326.74 58.75L326.74 58.75Q326.74 56.36 329.38 53.02Q332.02 49.68 338.31 45L338.31 45Q341.44 42.75 342.14 41.73Q342.84 40.71 342.84 40.08L342.84 40.08Q342.84 39.66 342.47 39.30Q342.11 38.95 341.40 38.95L341.40 38.95Q339.75 38.95 338.17 39.52Q336.59 40.08 334.76 41.17L334.76 41.17Q332.51 42.47 329.66 44.72Q326.81 46.97 323.79 49.76Q320.77 52.56 317.87 55.58Q314.96 58.61 312.54 61.49L312.54 61.49Q310.78 63.81 308.62 66.97Q306.46 70.14 304.26 73.48Q302.06 76.82 300.18 79.73Q298.30 82.65 297.09 84.59Q295.88 86.52 295.70 86.80L295.70 86.80Q295.35 86.91 294.54 86.99Q293.73 87.08 292.39 87.08ZM345.90 62.23L345.90 62.23Q343.97 62.23 343.00 61.45Q342.04 60.68 342.04 59.48L342.04 59.48Q342.04 58.54 342.28 57.60Q342.53 56.67 343.34 55.23Q344.14 53.79 345.80 51.35Q347.45 48.90 350.26 44.93L350.26 44.93L359.33 32.17L356.55 32.17Q355.50 32.17 355.50 31.71L355.50 31.71Q355.50 31.15 356.84 31.15L356.84 31.15L360.04 31.15L366.54 22.01Q367.00 22.08 367.75 22.13Q368.51 22.18 369.91 22.15L369.91 22.15Q370.62 22.15 371.43 22.01L371.43 22.01L364.64 31.15L373.71 31.15Q374.70 31.15 374.70 31.64L374.70 31.64Q374.70 32.17 373.82 32.17L373.82 32.17L363.87 32.17L354.59 44.68Q351.28 49.11 349.28 51.96Q347.27 54.81 346.24 56.46Q345.20 58.11 344.83 58.92Q344.46 59.73 344.46 60.12L344.46 60.12Q344.46 61.17 346.22 61.24L346.22 61.24Q348.64 61.21 351.23 59.64Q353.81 58.08 356.20 55.81Q358.59 53.54 360.49 51.35Q362.39 49.15 363.45 47.88L363.45 47.88L364.22 48.48Q363.20 49.68 361.23 51.93Q359.26 54.18 356.71 56.55Q354.16 58.92 351.39 60.57Q348.61 62.23 345.90 62.23Z"/></svg>