<?xml version="1.0" encoding="UTF-8"?>
<svg xmlns="http://www.w3.org/2000/svg" xmlns:xlink="http://www.w3.org/1999/xlink" width="608.688" height="185.68800000000002" viewBox="0 42.84400000000001 608.688 100" preserveAspectRatio="xMinYMid meet"><path d="M27.65 119.74L26.21 122.62L4.32 122.62L4.32 120.38L11.09 115.06L11.09 71.42L3.60 68.90L5.04 66.02L26.93 66.02L26.93 68.26L20.09 73.58L20.09 117.14L27.65 119.74ZM81.22 119.81L79.78 122.69L66.10 122.69L66.10 98.42Q66.10 94.46 64.87 92.88Q63.65 91.30 60.48 91.30L60.48 91.30Q58.10 91.30 55.76 92.16Q53.42 93.02 50.26 95.47L50.26 95.47L50.26 117.29L56.74 119.81L55.30 122.69L35.21 122.69L35.21 120.46L41.62 115.42L41.62 95.04L35.21 91.30L35.21 89.06L47.52 83.02L49.90 92.38L60.12 84.24Q61.63 83.66 64.08 83.66L64.08 83.66Q68.98 83.66 71.86 86.65Q74.74 89.64 74.74 94.75L74.74 94.75L74.74 117.22L81.22 119.81ZM100.58 117.22L107.06 119.74L105.62 122.62L85.54 122.62L85.54 120.38L91.94 115.34L91.94 71.06L85.54 66.60L85.54 64.37L97.85 59.76L100.58 59.76L100.58 117.22ZM131.54 119.74L130.10 122.62L117.94 122.62L104.40 103.61L117.86 92.30L110.95 87.26L112.39 84.38L129.60 84.38L129.60 86.62L112.90 100.66L125.06 117.22L131.54 119.74ZM182.59 119.81L181.15 122.69L167.47 122.69L167.47 98.42Q167.47 94.46 166.25 92.88Q165.02 91.30 161.86 91.30L161.86 91.30Q159.48 91.30 157.14 92.16Q154.80 93.02 151.63 95.47L151.63 95.47L151.63 117.29L158.11 119.81L156.67 122.69L136.58 122.69L136.58 120.46L142.99 115.42L142.99 95.04L136.58 91.30L136.58 89.06L148.90 83.02L151.27 92.38L161.50 84.24Q163.01 83.66 165.46 83.66L165.46 83.66Q170.35 83.66 173.23 86.65Q176.11 89.64 176.11 94.75L176.11 94.75L176.11 117.22L182.59 119.81ZM232.20 119.74L230.76 122.62L217.08 122.62L217.08 115.13L207.94 122.76Q206.42 123.34 203.98 123.34L203.98 123.34Q199.08 123.34 196.20 120.35Q193.32 117.36 193.32 112.25L193.32 112.25L193.32 95.04L186.91 91.30L186.91 89.06L199.22 83.02L201.96 83.02L201.96 108.65Q201.96 112.61 203.18 114.19Q204.41 115.78 207.58 115.78L207.58 115.78Q209.81 115.78 211.97 114.95Q214.13 114.12 217.08 111.67L217.08 111.67L217.08 95.04L210.67 91.30L210.67 89.06L222.98 83.02L225.72 83.02L225.72 117.22L232.20 119.74ZM266.47 117.00L259.20 122.76Q257.54 123.34 255.17 123.34L255.17 123.34Q249.19 123.34 246.42 120.20Q243.65 117.07 243.65 110.52L243.65 110.52L243.65 89.50L235.87 89.50L235.87 86.54L249.55 70.63L252.29 70.63L252.29 86.54L265.25 86.54L265.25 89.50L252.29 89.50L252.29 111.38Q252.29 117.22 257.90 117.22L257.90 117.22Q259.42 117.22 260.82 116.57Q262.22 115.92 264.31 114.26L264.31 114.26L266.47 117.00ZM350.28 119.74L348.84 122.62L326.95 122.62L326.95 120.38L333.72 115.13L328.18 101.81L303.98 101.81L298.08 115.42L310.75 119.74L309.31 122.62L287.42 122.62L287.42 120.38L294.19 115.06L314.57 68.33L322.06 64.66L343.08 115.34L350.28 119.74ZM326.88 98.57L316.37 73.30L305.42 98.57L326.88 98.57ZM400.25 119.81L398.81 122.69L385.13 122.69L385.13 98.42Q385.13 94.46 383.90 92.88Q382.68 91.30 379.51 91.30L379.51 91.30Q377.14 91.30 374.80 92.16Q372.46 93.02 369.29 95.47L369.29 95.47L369.29 117.29L375.77 119.81L374.33 122.69L354.24 122.69L354.24 120.46L360.65 115.42L360.65 95.04L354.24 91.30L354.24 89.06L366.55 83.02L368.93 92.38L379.15 84.24Q380.66 83.66 383.11 83.66L383.11 83.66Q388.01 83.66 390.89 86.65Q393.77 89.64 393.77 94.75L393.77 94.75L393.77 117.22L400.25 119.81ZM433.80 117.00L426.53 122.76Q424.87 123.34 422.50 123.34L422.50 123.34Q416.52 123.34 413.75 120.20Q410.98 117.07 410.98 110.52L410.98 110.52L410.98 89.50L403.20 89.50L403.20 86.54L416.88 70.63L419.62 70.63L419.62 86.54L432.58 86.54L432.58 89.50L419.62 89.50L419.62 111.38Q419.62 117.22 425.23 117.22L425.23 117.22Q426.74 117.22 428.15 116.57Q429.55 115.92 431.64 114.26L431.64 114.26L433.80 117.00ZM460.37 119.74L458.93 122.62L438.84 122.62L438.84 120.38L445.25 115.34L445.25 94.32L438.84 89.86L438.84 87.62L451.15 83.02L453.89 83.02L453.89 117.22L460.37 119.74ZM449.28 61.42Q451.44 61.42 452.84 63.00Q454.25 64.58 454.25 66.96L454.25 66.96Q454.25 68.62 453.24 70.09Q452.23 71.57 450.72 72.43Q449.21 73.30 447.77 73.30L447.77 73.30Q445.61 73.30 444.20 71.71Q442.80 70.13 442.80 67.75L442.80 67.75Q442.80 66.10 443.81 64.62Q444.82 63.14 446.33 62.28Q447.84 61.42 449.28 61.42L449.28 61.42ZM511.85 138.10L510.41 140.98L486.72 140.98L486.72 138.74L496.73 133.42L496.73 117.50L490.03 122.83Q487.73 123.41 484.49 123.41L484.49 123.41Q479.74 123.41 475.96 120.92Q472.18 118.44 470.05 114.19Q467.93 109.94 467.93 104.83L467.93 104.83Q467.93 99.29 471.31 94.43Q474.70 89.57 479.77 86.65Q484.85 83.74 489.60 83.74L489.60 83.74Q495.14 83.74 499.03 87.98L499.03 87.98L502.63 82.94L505.37 82.94L505.37 135.50L511.85 138.10ZM488.16 117.29Q490.32 117.29 492.30 116.68Q494.28 116.06 496.73 114.34L496.73 114.34L496.73 97.92Q496.30 94.32 493.38 92.05Q490.46 89.78 485.42 89.78L485.42 89.78Q477.29 89.78 477.29 101.38L477.29 101.38Q477.29 108.14 480.10 112.72Q482.90 117.29 488.16 117.29L488.16 117.29ZM561.46 119.74L560.02 122.62L546.34 122.62L546.34 115.13L537.19 122.76Q535.68 123.34 533.23 123.34L533.23 123.34Q528.34 123.34 525.46 120.35Q522.58 117.36 522.58 112.25L522.58 112.25L522.58 95.04L516.17 91.30L516.17 89.06L528.48 83.02L531.22 83.02L531.22 108.65Q531.22 112.61 532.44 114.19Q533.66 115.78 536.83 115.78L536.83 115.78Q539.06 115.78 541.22 114.95Q543.38 114.12 546.34 111.67L546.34 111.67L546.34 95.04L539.93 91.30L539.93 89.06L552.24 83.02L554.98 83.02L554.98 117.22L561.46 119.74ZM606.89 119.74L605.45 122.62L591.77 122.62L591.77 116.35L583.63 122.76Q582.19 123.34 580.03 123.34L580.03 123.34Q573.84 123.34 571.07 120.24Q568.30 117.14 568.30 112.82L568.30 112.82Q568.30 110.23 570.17 107.71Q572.04 105.19 575.50 102.96L575.50 102.96L591.77 102.96L591.77 98.35Q591.77 93.67 589.28 91.73Q586.80 89.78 582.48 89.78L582.48 89.78Q578.02 89.78 571.54 95.18L571.54 95.18L569.38 92.45L579.74 84.24Q582.62 83.66 586.66 83.66L586.66 83.66Q593.21 83.66 596.81 86.87Q600.41 90.07 600.41 96.19L600.41 96.19L600.41 117.22L606.89 119.74ZM582.34 117.22Q586.73 117.22 591.77 113.18L591.77 113.18L591.77 105.91L579.02 105.91Q578.09 107.06 577.69 108.22Q577.30 109.37 577.30 110.74L577.30 110.74Q577.30 113.40 578.66 115.31Q580.03 117.22 582.34 117.22L582.34 117.22Z"/></svg>