<?xml version="1.0" encoding="UTF-8"?>
<svg xmlns="http://www.w3.org/2000/svg" xmlns:xlink="http://www.w3.org/1999/xlink" width="581.58984375" height="94.1484375" viewBox="0 -2.92578125 581.58984375 100" preserveAspectRatio="xMinYMid meet"><path d="M4.04 42.71L4.04 42.71Q4.04 31.85 11.46 24.21Q18.88 16.56 29.07 16.56L29.07 16.56Q32.24 16.56 35.05 17.72Q37.86 18.88 39.16 19.88Q40.46 20.88 42.33 22.75L42.33 22.75L45.95 17.44Q46.51 16.56 47.09 16.56Q47.67 16.56 47.78 16.89Q47.88 17.23 47.88 18.28L47.88 18.28L47.88 35.37Q47.88 36.53 47.74 36.81Q47.60 37.09 46.72 37.09L46.72 37.09Q46.02 37.09 45.86 36.88Q45.70 36.67 45.56 35.86L45.56 35.86Q44.47 28.09 40.17 23.45Q35.86 18.81 29.88 18.81L29.88 18.81Q28.16 18.81 26.24 19.20Q24.33 19.58 21.57 21.06Q18.81 22.54 16.68 24.98Q14.55 27.42 13.01 32.04Q11.46 36.67 11.46 42.79L11.46 42.79Q11.46 48.83 13.01 53.47Q14.55 58.11 16.68 60.52Q18.81 62.93 21.57 64.41Q24.33 65.88 26.28 66.29Q28.23 66.69 29.95 66.69L29.95 66.69Q36.14 66.69 40.89 62.30Q45.63 57.90 46.09 50.48L46.09 50.48Q46.16 50.13 46.16 49.97Q46.16 49.82 46.23 49.64Q46.30 49.46 46.48 49.39Q46.65 49.32 46.93 49.32L46.93 49.32Q47.88 49.32 47.88 50.55L47.88 50.55Q47.88 57.41 42.63 63.16Q37.37 68.91 29.07 68.91L29.07 68.91Q18.84 68.91 11.44 61.31Q4.04 53.72 4.04 42.71ZM58.73 63.44Q53.96 58.75 53.96 51.91Q53.96 45.07 58.62 40.06Q63.28 35.05 69.96 35.05L69.96 35.05Q76.50 35.05 81.19 40.03Q85.89 45 85.89 51.93L85.89 51.93Q85.89 58.71 81.16 63.42Q76.43 68.13 69.89 68.13L69.89 68.13Q63.49 68.13 58.73 63.44ZM59.94 51.33L59.94 51.33Q59.94 58.32 61.77 61.49L61.77 61.49Q64.58 66.30 69.96 66.30L69.96 66.30Q72.63 66.30 74.87 64.86Q77.10 63.42 78.33 61.00L78.33 61.00Q79.91 57.83 79.91 51.33L79.91 51.33Q79.91 44.40 78.01 41.34L78.01 41.34Q75.20 36.67 69.89 36.67L69.89 36.67Q67.57 36.67 65.30 37.88Q63.04 39.09 61.66 41.48L61.66 41.48Q59.94 44.65 59.94 51.33ZM90.28 67.32L90.28 67.32L90.28 65.11Q94.11 65.11 94.99 64.63Q95.87 64.16 95.87 61.84L95.87 61.84L95.87 42.54Q95.87 39.87 94.94 39.20Q94.01 38.53 90.28 38.53L90.28 38.53L90.28 36.28L100.41 35.51L100.41 43.07Q103.78 35.51 111.06 35.51L111.06 35.51Q119.50 35.51 120.66 42.54L120.66 42.54Q121.89 39.80 124.47 37.65Q127.05 35.51 131.10 35.51L131.10 35.51Q136.51 35.51 138.66 38.18L138.66 38.18Q140.24 39.97 140.55 41.98Q140.87 43.98 140.87 49.18L140.87 49.18L140.87 62.93Q140.94 64.44 142.10 64.78Q143.26 65.11 146.50 65.11L146.50 65.11L146.50 67.32Q139.15 67.11 138.45 67.11L138.45 67.11Q137.88 67.11 130.29 67.32L130.29 67.32L130.29 65.11Q134.12 65.11 135.02 64.63Q135.91 64.16 135.91 61.84L135.91 61.84L135.91 45.07Q135.91 41.41 134.79 39.25Q133.66 37.09 130.57 37.09L130.57 37.09Q126.84 37.09 123.86 40.22Q120.87 43.35 120.87 48.62L120.87 48.62L120.87 61.84Q120.87 64.16 121.76 64.63Q122.66 65.11 126.49 65.11L126.49 65.11L126.49 67.32Q119.14 67.11 118.41 67.11L118.41 67.11Q117.84 67.11 110.29 67.32L110.29 67.32L110.29 65.11Q114.12 65.11 115.01 64.63Q115.91 64.16 115.91 61.84L115.91 61.84L115.91 45.07Q115.91 41.41 114.79 39.25Q113.66 37.09 110.57 37.09L110.57 37.09Q106.84 37.09 103.85 40.22Q100.86 43.35 100.86 48.62L100.86 48.62L100.86 61.84Q100.86 64.16 101.76 64.63Q102.66 65.11 106.45 65.11L106.45 65.11L106.45 67.32Q99.11 67.11 98.40 67.11L98.40 67.11Q97.84 67.11 90.28 67.32ZM149.91 81.28L149.91 79.07Q153.74 79.07 154.63 78.59Q155.53 78.12 155.53 75.83L155.53 75.83L155.53 42.12Q155.53 39.73 154.63 39.13Q153.74 38.53 149.91 38.53L149.91 38.53L149.91 36.28L160.28 35.51L160.28 40.25Q164.60 35.51 170.37 35.51L170.37 35.51Q176.48 35.51 180.95 40.25Q185.41 45 185.41 51.79L185.41 51.79Q185.41 58.64 180.67 63.39Q175.92 68.13 169.35 68.13L169.35 68.13Q165.76 68.13 163.35 66.29Q160.95 64.44 160.49 63.07L160.49 63.07L160.49 63.74L160.49 75.83Q160.49 78.15 161.40 78.61Q162.32 79.07 166.11 79.07L166.11 79.07L166.11 81.28Q158.55 81.07 157.99 81.07L157.99 81.07Q157.29 81.07 149.91 81.28L149.91 81.28ZM160.49 43.07L160.49 59.13Q160.49 60.22 160.65 60.61Q160.80 61.00 161.51 62.16L161.51 62.16Q164.36 66.52 169.00 66.52L169.00 66.52Q169.03 66.52 169.07 66.52L169.07 66.52Q173.18 66.52 176.31 62.31Q179.44 58.11 179.44 51.79L179.44 51.79Q179.44 45.74 176.59 41.52Q173.74 37.30 169.80 37.30L169.80 37.30Q166.99 37.30 164.53 38.81Q162.07 40.32 160.49 43.07L160.49 43.07ZM190.16 38.53L190.16 38.53L190.16 36.28L200.74 35.51L200.74 59.41Q200.74 61.14 200.88 62.14Q201.02 63.14 201.60 64.30Q202.18 65.46 203.54 65.99Q204.89 66.52 207.07 66.52L207.07 66.52Q210.97 66.52 213.38 63.32Q215.79 60.12 215.79 55.37L215.79 55.37L215.79 42.54Q215.79 39.87 214.84 39.20Q213.89 38.53 210.16 38.53L210.16 38.53L210.16 36.28L220.75 35.51L220.75 61.07Q220.75 63.74 221.68 64.42Q222.61 65.11 226.37 65.11L226.37 65.11L226.37 67.32L216 68.13L216 61.63Q212.98 68.10 206.72 68.13L206.72 68.13Q203.55 68.13 201.39 67.32Q199.23 66.52 198.14 65.51Q197.05 64.51 196.47 62.58Q195.89 60.64 195.82 59.45Q195.75 58.25 195.75 55.93L195.75 55.93L195.75 45.14Q195.75 40.25 195.05 39.39Q194.34 38.53 190.16 38.53ZM235.27 38.53L229.15 38.53L229.15 36.95Q232.45 36.81 234.65 34.47Q236.85 32.13 237.60 29.25Q238.36 26.37 238.43 23.03L238.43 23.03L240.22 23.03L240.22 36.28L250.52 36.28L250.52 38.53L240.22 38.53L240.22 58.54Q240.22 66.30 245.07 66.30L245.07 66.30Q247.15 66.30 248.52 64.18Q249.89 62.05 249.89 58.25L249.89 58.25L249.89 54.28L251.68 54.28L251.68 58.39Q251.68 62.30 249.89 65.21Q248.10 68.13 244.55 68.13L244.55 68.13Q243.25 68.13 241.96 67.80Q240.68 67.46 239.01 66.60Q237.34 65.74 236.30 63.62Q235.27 61.49 235.27 58.39L235.27 58.39L235.27 38.53ZM257.70 51.47L257.70 51.47Q257.70 44.68 262.05 39.87Q266.41 35.05 272.67 35.05L272.67 35.05Q279 35.05 282.29 39.16Q285.57 43.28 285.57 49.18L285.57 49.18Q285.57 50.27 285.29 50.48Q285.01 50.70 283.78 50.70L283.78 50.70L263.67 50.70Q263.67 58.04 265.85 61.49L265.85 61.49Q268.88 66.30 273.97 66.30L273.97 66.30Q274.68 66.30 275.52 66.16Q276.36 66.02 278.09 65.41Q279.81 64.79 281.32 63.14Q282.83 61.49 283.71 58.89L283.71 58.89Q283.92 57.87 284.63 57.90L284.63 57.90Q285.57 57.90 285.57 58.75L285.57 58.75Q285.57 59.38 284.89 60.80Q284.20 62.23 282.90 63.91Q281.60 65.60 279.09 66.87Q276.57 68.13 273.55 68.13L273.55 68.13Q267.22 68.13 262.46 63.33Q257.70 58.54 257.70 51.47ZM263.74 49.18L263.74 49.18L280.83 49.18Q280.83 47.67 280.56 45.98Q280.30 44.30 279.54 41.96Q278.79 39.62 277.03 38.14Q275.27 36.67 272.67 36.67L272.67 36.67Q271.51 36.67 270.26 37.16Q269.02 37.65 267.50 38.85Q265.99 40.04 264.94 42.75Q263.88 45.46 263.74 49.18ZM289.65 67.32L289.65 67.32L289.65 65.11Q293.48 65.11 294.38 64.63Q295.28 64.16 295.28 61.84L295.28 61.84L295.28 42.54Q295.28 39.87 294.35 39.20Q293.41 38.53 289.65 38.53L289.65 38.53L289.65 36.28L299.67 35.51L299.67 43.42Q300.69 40.32 302.85 37.92Q305.02 35.51 308.53 35.51L308.53 35.51Q310.85 35.51 312.35 36.81Q313.84 38.11 313.84 39.90L313.84 39.90Q313.84 41.48 312.87 42.28Q311.91 43.07 310.75 43.07L310.75 43.07Q309.45 43.07 308.55 42.24Q307.65 41.41 307.65 39.97L307.65 39.97Q307.65 39.09 308.06 38.41Q308.46 37.72 308.78 37.48Q309.09 37.23 309.30 37.16L309.30 37.16Q309.16 37.09 308.53 37.09L308.53 37.09Q304.56 37.09 302.29 41.04Q300.02 45 300.02 50.63L300.02 50.63L300.02 61.70Q300.02 63.77 300.88 64.44Q301.75 65.11 305.51 65.11L305.51 65.11L307.02 65.11L307.02 67.32Q304.14 67.11 297.88 67.11L297.88 67.11Q297 67.11 295.63 67.15Q294.26 67.18 292.46 67.25Q290.67 67.32 289.65 67.32ZM342.39 67.32L342.39 67.32L342.39 65.11Q344.99 65.11 346.64 64.60Q348.29 64.09 348.91 63.12Q349.52 62.16 349.66 61.51Q349.80 60.86 349.80 59.77L349.80 59.77L349.80 23.77Q349.80 21.69 348.91 21.04Q348.01 20.39 344.11 20.39L344.11 20.39L342.39 20.39L342.39 18.14L354.55 18.14Q355.85 18.14 356.20 18.37Q356.55 18.60 357.08 19.72L357.08 19.72L372.69 60.05L388.44 19.51Q388.79 18.49 389.13 18.32Q389.46 18.14 390.83 18.14L390.83 18.14L403.00 18.14L403.00 20.39L401.27 20.39Q397.37 20.39 396.47 21.04Q395.58 21.69 395.58 23.77L395.58 23.77L395.58 61.70Q395.58 63.77 396.47 64.44Q397.37 65.11 401.27 65.11L401.27 65.11L403.00 65.11L403.00 67.32Q400.32 67.11 392.70 67.11L392.70 67.11Q385.00 67.11 382.32 67.32L382.32 67.32L382.32 65.11L384.08 65.11Q387.98 65.11 388.86 64.46Q389.74 63.81 389.74 61.70L389.74 61.70L389.74 20.39L389.67 20.39L371.99 65.95Q371.50 67.32 370.69 67.32L370.69 67.32Q369.81 67.32 369.25 65.74L369.25 65.74L351.88 20.95L351.81 20.95L351.81 59.77Q351.81 60.86 351.95 61.51Q352.09 62.16 352.71 63.12Q353.32 64.09 354.97 64.60Q356.63 65.11 359.23 65.11L359.23 65.11L359.23 67.32Q351.67 67.11 350.81 67.11Q349.95 67.11 342.39 67.32ZM412.40 63.44Q407.64 58.75 407.64 51.91Q407.64 45.07 412.29 40.06Q416.95 35.05 423.63 35.05L423.63 35.05Q430.17 35.05 434.87 40.03Q439.56 45 439.56 51.93L439.56 51.93Q439.56 58.71 434.83 63.42Q430.10 68.13 423.56 68.13L423.56 68.13Q417.16 68.13 412.40 63.44ZM413.61 51.33L413.61 51.33Q413.61 58.32 415.44 61.49L415.44 61.49Q418.25 66.30 423.63 66.30L423.63 66.30Q426.30 66.30 428.54 64.86Q430.77 63.42 432 61.00L432 61.00Q433.58 57.83 433.58 51.33L433.58 51.33Q433.58 44.40 431.68 41.34L431.68 41.34Q428.87 36.67 423.56 36.67L423.56 36.67Q421.24 36.67 418.97 37.88Q416.71 39.09 415.34 41.48L415.34 41.48Q413.61 44.65 413.61 51.33ZM444.09 51.86L444.09 51.86Q444.09 45 448.88 40.25Q453.66 35.51 460.13 35.51L460.13 35.51Q465.61 35.51 469.20 39.97L469.20 39.97L469.20 24.40Q469.20 21.73 468.26 21.06Q467.33 20.39 463.61 20.39L463.61 20.39L463.61 18.14L473.98 17.37L473.98 61.07Q473.98 63.74 474.91 64.42Q475.84 65.11 479.57 65.11L479.57 65.11L479.57 67.32L468.98 68.13L468.98 63.35Q465.26 68.10 459.35 68.13L459.35 68.13Q453.16 68.13 448.63 63.39Q444.09 58.64 444.09 51.86ZM450.07 51.93L450.07 51.93Q450.07 58.61 452.14 61.91L452.14 61.91Q455.03 66.52 459.70 66.52L459.70 66.52Q465.05 66.52 468.21 61.49L468.21 61.49Q469.02 60.26 468.98 58.82L468.98 58.82L468.98 44.05Q468.98 42.61 468.21 41.41L468.21 41.41Q465.26 37.09 460.44 37.09L460.44 37.09Q455.41 37.09 452.29 41.70L452.29 41.70Q450.07 45.14 450.07 51.93ZM483.57 51.47L483.57 51.47Q483.57 44.68 487.93 39.87Q492.29 35.05 498.55 35.05L498.55 35.05Q504.88 35.05 508.17 39.16Q511.45 43.28 511.45 49.18L511.45 49.18Q511.45 50.27 511.17 50.48Q510.89 50.70 509.66 50.70L509.66 50.70L489.55 50.70Q489.55 58.04 491.73 61.49L491.73 61.49Q494.75 66.30 499.85 66.30L499.85 66.30Q500.55 66.30 501.40 66.16Q502.24 66.02 503.96 65.41Q505.69 64.79 507.20 63.14Q508.71 61.49 509.59 58.89L509.59 58.89Q509.80 57.87 510.50 57.90L510.50 57.90Q511.45 57.90 511.45 58.75L511.45 58.75Q511.45 59.38 510.77 60.80Q510.08 62.23 508.78 63.91Q507.48 65.60 504.97 66.87Q502.45 68.13 499.43 68.13L499.43 68.13Q493.10 68.13 488.34 63.33Q483.57 58.54 483.57 51.47ZM489.62 49.18L489.62 49.18L506.71 49.18Q506.71 47.67 506.44 45.98Q506.18 44.30 505.42 41.96Q504.67 39.62 502.91 38.14Q501.15 36.67 498.55 36.67L498.55 36.67Q497.39 36.67 496.14 37.16Q494.89 37.65 493.38 38.85Q491.87 40.04 490.82 42.75Q489.76 45.46 489.62 49.18ZM515.53 67.32L515.53 67.32L515.53 65.11Q519.36 65.11 520.26 64.63Q521.16 64.16 521.16 61.84L521.16 61.84L521.16 42.54Q521.16 39.87 520.22 39.20Q519.29 38.53 515.53 38.53L515.53 38.53L515.53 36.28L525.55 35.51L525.55 43.42Q526.57 40.32 528.73 37.92Q530.89 35.51 534.41 35.51L534.41 35.51Q536.73 35.51 538.22 36.81Q539.72 38.11 539.72 39.90L539.72 39.90Q539.72 41.48 538.75 42.28Q537.79 43.07 536.63 43.07L536.63 43.07Q535.32 43.07 534.43 42.24Q533.53 41.41 533.53 39.97L533.53 39.97Q533.53 39.09 533.94 38.41Q534.34 37.72 534.66 37.48Q534.97 37.23 535.18 37.16L535.18 37.16Q535.04 37.09 534.41 37.09L534.41 37.09Q530.44 37.09 528.17 41.04Q525.90 45 525.90 50.63L525.90 50.63L525.90 61.70Q525.90 63.77 526.76 64.44Q527.63 65.11 531.39 65.11L531.39 65.11L532.90 65.11L532.90 67.32Q530.02 67.11 523.76 67.11L523.76 67.11Q522.88 67.11 521.51 67.15Q520.14 67.18 518.34 67.25Q516.55 67.32 515.53 67.32ZM543.97 67.32L543.97 67.32L543.97 65.11Q547.80 65.11 548.68 64.63Q549.56 64.16 549.56 61.84L549.56 61.84L549.56 42.54Q549.56 39.87 548.63 39.20Q547.70 38.53 543.97 38.53L543.97 38.53L543.97 36.28L554.10 35.51L554.10 43.07Q557.47 35.51 564.75 35.51L564.75 35.51Q570.16 35.51 572.31 38.18L572.31 38.18Q573.89 39.97 574.22 41.98Q574.56 43.98 574.56 49.18L574.56 49.18L574.56 62.93Q574.63 64.44 575.79 64.78Q576.95 65.11 580.18 65.11L580.18 65.11L580.18 67.32Q572.84 67.11 572.10 67.11L572.10 67.11Q571.54 67.11 563.98 67.32L563.98 67.32L563.98 65.11Q567.81 65.11 568.71 64.63Q569.60 64.16 569.60 61.84L569.60 61.84L569.60 45.07Q569.60 41.41 568.48 39.25Q567.35 37.09 564.26 37.09L564.26 37.09Q560.53 37.09 557.54 40.22Q554.55 43.35 554.55 48.62L554.55 48.62L554.55 61.84Q554.55 64.16 555.45 64.63Q556.35 65.11 560.14 65.11L560.14 65.11L560.14 67.32Q552.80 67.11 552.09 67.11L552.09 67.11Q551.53 67.11 543.97 67.32Z"/></svg>