<?xml version="1.0" encoding="UTF-8"?>
<svg xmlns="http://www.w3.org/2000/svg" xmlns:xlink="http://www.w3.org/1999/xlink" width="414.36" height="111.52800000000002" viewBox="0 5.76400000000001 414.36 100" preserveAspectRatio="xMinYMid meet"><path d="M39.74 55.58Q50.76 58.18 50.76 67.68L50.76 67.68Q50.76 74.16 45.86 77.65Q40.97 81.14 31.90 81.14L31.90 81.14L2.59 81.14L2.59 75.17L11.88 75.17L11.88 37.73L2.59 37.73L2.59 31.75L30.74 31.75Q38.59 31.75 42.88 35.28Q47.16 38.81 47.16 44.57L47.16 44.57Q47.16 48.46 45.18 51.23Q43.20 54 39.74 55.58L39.74 55.58ZM30.24 37.73L19.22 37.73L19.22 53.50L28.94 53.50Q33.98 53.50 36.83 51.52Q39.67 49.54 39.67 45.43L39.67 45.43Q39.67 41.47 37.01 39.60Q34.34 37.73 30.24 37.73L30.24 37.73ZM31.18 75.17Q43.27 75.17 43.27 67.10L43.27 67.10Q43.27 62.93 40.07 60.98Q36.86 59.04 31.10 58.97L31.10 58.97L19.22 58.97L19.22 75.17L31.18 75.17ZM66.89 39.53Q64.58 39.53 63.00 38.30Q61.42 37.08 61.42 35.21L61.42 35.21Q61.42 33.26 63.00 32.00Q64.58 30.74 66.89 30.74L66.89 30.74Q69.34 30.74 70.92 32.00Q72.50 33.26 72.50 35.21L72.50 35.21Q72.50 37.08 70.92 38.30Q69.34 39.53 66.89 39.53L66.89 39.53ZM71.21 75.46L78.91 75.46L78.91 81.14L56.52 81.14L56.52 75.46L64.15 75.46L64.15 52.92L56.52 52.92L56.52 47.23L71.21 47.23L71.21 75.46ZM101.30 82.15Q96.34 82.15 92.02 79.92Q87.70 77.69 85.14 73.58Q82.58 69.48 82.58 64.22L82.58 64.22Q82.58 58.90 85.14 54.83Q87.70 50.76 92.02 48.53Q96.34 46.30 101.30 46.30L101.30 46.30Q106.20 46.30 110.48 48.53Q114.77 50.76 117.36 54.86Q119.95 58.97 119.95 64.22L119.95 64.22Q119.95 69.48 117.43 73.58Q114.91 77.69 110.63 79.92Q106.34 82.15 101.30 82.15L101.30 82.15ZM101.30 76.46Q104.54 76.46 107.14 74.95Q109.73 73.44 111.20 70.67Q112.68 67.90 112.68 64.22L112.68 64.22Q112.68 60.55 111.20 57.78Q109.73 55.01 107.14 53.50Q104.54 51.98 101.30 51.98L101.30 51.98Q96.34 51.98 93.13 55.33Q89.93 58.68 89.93 64.22L89.93 64.22Q89.93 69.77 93.13 73.12Q96.34 76.46 101.30 76.46L101.30 76.46ZM199.22 72.14L202.90 76.97Q198.36 82.15 192.38 82.15L192.38 82.15Q186.12 82.15 181.84 77.62Q177.55 73.08 174.89 63.65L174.89 63.65L173.74 60.05L163.44 60.05L163.44 75.17L172.51 75.17L172.51 81.14L146.74 81.14L146.74 75.24L156.02 75.24L156.02 37.73L146.74 37.73L146.74 31.75L175.39 31.75Q183.82 31.75 188.71 35.57Q193.61 39.38 193.61 45.94L193.61 45.94Q193.61 51.34 190.12 55.04Q186.62 58.75 180.29 59.69L180.29 59.69L181.58 63.22Q183.82 69.55 186.55 72.43Q189.29 75.31 192.74 75.31L192.74 75.31Q194.90 75.31 196.42 74.45Q197.93 73.58 199.22 72.14L199.22 72.14ZM163.44 37.73L163.44 54.43L175.61 54.43Q180.22 54.43 183.24 52.16Q186.26 49.90 186.26 45.94L186.26 45.94Q186.26 42.12 183.28 39.92Q180.29 37.73 175.61 37.73L175.61 37.73L163.44 37.73ZM245.38 75.46L252.14 75.46L252.14 81.14L232.13 81.14L232.13 75.46L238.39 75.46L238.39 61.42Q238.39 57.24 236.41 54.94Q234.43 52.63 230.69 52.63L230.69 52.63Q224.86 52.63 217.73 60.55L217.73 60.55L217.73 75.46L223.92 75.46L223.92 81.14L203.04 81.14L203.04 75.46L210.67 75.46L210.67 37.44L203.04 37.44L203.04 31.75L217.73 31.75L217.73 55.01Q221.69 50.69 225.40 48.53Q229.10 46.37 233.50 46.37L233.50 46.37Q239.33 46.37 242.35 50.08Q245.38 53.78 245.38 61.20L245.38 61.20L245.38 75.46ZM297.50 47.23L297.50 52.92L292.18 52.92L277.92 84.89Q274.90 91.58 271.12 94.93Q267.34 98.28 262.30 98.28L262.30 98.28Q259.49 98.28 257.22 97.38Q254.95 96.48 252.29 94.75L252.29 94.75L255.17 89.35Q258.84 92.02 262.30 92.02L262.30 92.02Q265.39 92.02 267.84 90.04Q270.29 88.06 272.16 83.74L272.16 83.74L272.66 82.58L258.12 52.92L252.50 52.92L252.50 47.23L271.51 47.23L271.51 52.42L265.68 52.42L275.90 75.17L285.91 52.42L280.37 52.42L280.37 47.23L297.50 47.23ZM366.77 75.46L373.46 75.46L373.46 81.14L353.59 81.14L353.59 75.46L359.71 75.46L359.71 60.98Q359.71 57.24 358.06 55.08Q356.40 52.92 353.09 52.92L353.09 52.92Q350.14 52.92 347.04 54.86Q343.94 56.81 340.99 60.41L340.99 60.41L340.99 60.77L340.99 75.46L347.18 75.46L347.18 81.14L327.74 81.14L327.74 75.46L333.94 75.46L333.94 60.98Q333.94 57.24 332.21 55.08Q330.48 52.92 327.17 52.92L327.17 52.92Q324.22 52.92 321.12 54.90Q318.02 56.88 315.00 60.55L315.00 60.55L315.00 75.46L321.26 75.46L321.26 81.14L300.31 81.14L300.31 75.46L307.94 75.46L307.94 52.92L300.31 52.92L300.31 47.23L315.00 47.23L315.00 54.65Q318.17 50.69 321.91 48.53Q325.66 46.37 329.69 46.37L329.69 46.37Q333.79 46.37 336.56 48.64Q339.34 50.90 340.42 55.30L340.42 55.30Q343.66 51.05 347.51 48.71Q351.36 46.37 355.54 46.37L355.54 46.37Q360.79 46.37 363.78 50.08Q366.77 53.78 366.77 60.77L366.77 60.77L366.77 75.46ZM408.60 71.50L411.62 76.10Q404.71 82.15 395.86 82.15L395.86 82.15Q391.03 82.15 386.71 80.14Q382.39 78.12 379.73 74.23Q377.06 70.34 377.06 65.02L377.06 65.02Q377.06 59.33 379.80 55.08Q382.54 50.83 386.93 48.56Q391.32 46.30 396.14 46.30L396.14 46.30Q400.39 46.30 403.74 47.66Q407.09 49.03 409.00 51.48Q410.90 53.93 410.90 57.10L410.90 57.10Q410.90 61.85 406.84 64.48Q402.77 67.10 397.08 67.10L397.08 67.10Q393.41 67.10 390.24 66.35Q387.07 65.59 383.83 64.15L383.83 64.15L383.83 64.80Q383.83 68.18 385.45 70.78Q387.07 73.37 389.81 74.74Q392.54 76.10 395.78 76.10L395.78 76.10Q403.13 76.10 408.60 71.50L408.60 71.50ZM396.65 51.91Q392.76 51.91 389.41 54.14Q386.06 56.38 384.62 60.19L384.62 60.19Q390.10 62.14 395.57 62.14L395.57 62.14Q399.17 62.14 401.51 60.80Q403.85 59.47 403.85 57.10L403.85 57.10Q403.85 54.79 401.83 53.35Q399.82 51.91 396.65 51.91L396.65 51.91Z"/></svg>