<?xml version="1.0" encoding="UTF-8"?>
<svg xmlns="http://www.w3.org/2000/svg" xmlns:xlink="http://www.w3.org/1999/xlink" width="456.43359375" height="72" viewBox="0 -14 456.43359375 100" preserveAspectRatio="xMinYMid meet"><path d="M8.23 48.45L8.23 48.45L8.23 16.38Q8.23 12.34 2.88 12.34L2.88 12.34Q2.46 12.34 2.46 11.00Q2.46 9.67 2.88 9.67L2.88 9.67Q4.18 9.84 10.32 9.84Q16.45 9.84 18.11 9.67L18.11 9.67Q18.49 9.67 18.49 11.00Q18.49 12.34 18.11 12.34L18.11 12.34Q12.73 12.34 12.73 16.38L12.73 16.38L12.73 35.30Q12.73 60.47 10.72 64.04Q8.72 67.61 6.36 69.96Q4.01 72.32 0.91 72.32L0.91 72.32Q-0.60 72.32-1.67 71.24Q-2.74 70.17-2.74 68.06L-2.74 68.06Q-2.74 66.94-1.92 66.06Q-1.09 65.18 0.25 65.18L0.25 65.18Q1.93 65.18 3.09 66.38Q4.25 67.57 4.50 68.73L4.50 68.73Q6.47 67.89 7.35 64.72Q8.23 61.56 8.23 48.45ZM48.48 56.50L48.48 56.50Q47.71 56.60 44.65 57.46Q41.59 58.32 40.78 58.71L40.78 58.71Q40.71 58.75 40.57 58.75L40.57 58.75Q40.15 58.75 40.15 57.16L40.15 57.16L40.15 55.58Q40.15 54.74 39.81 54.74Q39.48 54.74 39.02 55.27L39.02 55.27Q36.35 58.39 32.45 58.39L32.45 58.39Q29.50 58.39 27.25 54.67Q25.00 50.94 25.00 47.00L25.00 47.00L25.00 35.23Q25.00 30.06 21.87 30.06L21.87 30.06Q21.45 30.06 21.45 29.07Q21.45 28.09 21.87 28.09L21.87 28.09Q24.82 28.09 26.65 27.77Q28.48 27.46 29.00 27.46L29.00 27.46Q29.57 27.46 29.53 28.02L29.53 28.02Q29.32 32.34 29.32 33.36L29.32 33.36L29.32 45.84Q29.32 49.89 30.43 52.44Q31.54 54.98 33.82 54.98L33.82 54.98Q36.32 54.98 38.23 53.16Q40.15 51.33 40.15 48.73L40.15 48.73L40.15 35.23Q40.15 30.06 37.02 30.06L37.02 30.06Q36.60 30.06 36.60 29.07Q36.60 28.09 37.02 28.09L37.02 28.09Q40.46 28.09 42.08 27.77Q43.70 27.46 44.05 27.46L44.05 27.46Q44.65 27.46 44.61 28.41L44.61 28.41Q44.44 31.46 44.44 33.29L44.44 33.29L44.44 49.61Q44.44 55.05 46.76 54.70L46.76 54.70L48.06 54.49Q48.55 54.42 48.69 55.44L48.69 55.44Q48.73 55.76 48.73 55.97L48.73 55.97Q48.73 56.46 48.48 56.50ZM74.43 40.89L74.43 53.12Q74.43 55.86 77.66 55.86L77.66 55.86Q78.05 55.86 78.05 56.87Q78.05 57.87 77.66 57.87L77.66 57.87Q75.48 57.59 72.37 57.59Q69.26 57.59 67.01 57.87L67.01 57.87Q66.62 57.87 66.62 56.87Q66.62 55.86 67.01 55.86L67.01 55.86Q70.10 55.86 70.10 53.12L70.10 53.12L70.10 38.95Q70.10 36 69.71 33.94Q69.33 31.89 68.45 31.03Q67.57 30.16 65.36 30.16L65.36 30.16Q64.16 30.16 63.21 30.76Q62.26 31.36 61.35 32.19Q60.43 33.01 59.80 34.22Q59.17 35.44 59.17 36.84L59.17 36.84L59.17 53.12Q59.17 55.86 62.19 55.86L62.19 55.86Q62.58 55.86 62.58 56.87Q62.58 57.87 62.19 57.87L62.19 57.87Q60.01 57.59 56.94 57.59Q53.86 57.59 51.64 57.87L51.64 57.87Q51.26 57.87 51.26 56.87Q51.26 55.86 51.64 55.86L51.64 55.86Q54.88 55.86 54.88 53.12L54.88 53.12L54.88 37.41Q54.88 32.91 52.52 32.91L52.52 32.91Q52.03 32.91 52.03 31.92Q52.03 30.94 52.52 30.94L52.52 30.94Q53.58 30.94 54.97 29.88Q56.36 28.83 57.39 27.69Q58.43 26.54 58.85 26.54L58.85 26.54Q59.24 26.54 59.24 27.63L59.24 27.63L59.17 30.20Q59.17 30.94 59.55 30.94L59.55 30.94Q59.80 30.94 59.98 30.73L59.98 30.73Q62.96 27 67.25 27L67.25 27Q71.44 27 73.48 32.17L73.48 32.17Q74.43 34.49 74.43 40.89L74.43 40.89ZM92.43 57.87L92.43 57.87Q90.28 57.59 87.15 57.59Q84.02 57.59 81.74 57.87L81.74 57.87Q81.35 57.87 81.35 56.87Q81.35 55.86 81.74 55.86L81.74 55.86Q84.94 55.86 84.94 53.12L84.94 53.12L84.94 37.51Q84.94 32.66 82.34 32.66L82.34 32.66Q81.88 32.66 81.88 31.68Q81.88 30.69 82.34 30.69L82.34 30.69Q83.29 30.69 85.10 29.50Q86.91 28.30 87.84 27.42Q88.77 26.54 89.05 26.54L89.05 26.54Q89.40 26.54 89.40 27.11L89.40 27.11Q89.23 30.90 89.23 32.94L89.23 32.94L89.23 53.12Q89.23 55.86 92.43 55.86L92.43 55.86Q92.81 55.86 92.81 56.87Q92.81 57.87 92.43 57.87ZM86.48 13.18Q87.75 13.18 88.65 14.26Q89.54 15.33 89.54 16.91L89.54 16.91Q89.54 18.49 88.65 19.62Q87.75 20.74 86.48 20.74L86.48 20.74Q85.22 20.74 84.36 19.62Q83.50 18.49 83.50 16.91L83.50 16.91Q83.50 15.33 84.36 14.26Q85.22 13.18 86.48 13.18L86.48 13.18ZM114.19 52.24L114.19 52.24Q114.50 52.07 114.89 52.79Q115.28 53.51 115.28 53.79L115.28 53.79Q115.28 54 115.14 54.18L115.14 54.18Q114.40 55.02 112.11 56.71Q109.83 58.39 105.82 58.39L105.82 58.39Q101.71 58.39 98.72 54.28Q95.73 50.17 95.73 43.66L95.73 43.66Q95.73 37.16 99.16 32.08Q102.59 27 108 27L108 27Q113.52 27 114.57 29.57L114.57 29.57Q114.75 29.99 114.75 31.01L114.75 31.01Q114.75 31.68 114.13 32.64Q113.52 33.61 113.03 33.61Q112.54 33.61 112.25 33.12L112.25 33.12Q110.07 29.36 107.40 29.36L107.40 29.36Q104.73 29.36 102.52 32.94Q100.30 36.53 100.30 42.12L100.30 42.12Q100.30 47.67 102.81 51.05Q105.33 54.42 108.21 54.42L108.21 54.42Q110.36 54.42 114.19 52.24ZM116.86 42.54L116.86 42.54Q116.86 36.63 120.38 31.82Q123.89 27 128.78 27L128.78 27Q133.66 27 137.07 31.80Q140.48 36.60 140.48 42.82L140.48 42.82Q140.48 49.01 137.37 53.70Q134.26 58.39 129.02 58.39L129.02 58.39Q123.82 58.39 120.34 53.40Q116.86 48.41 116.86 42.54ZM121.46 42.75L121.46 42.75Q121.46 48.97 123.75 52.52Q126.04 56.07 128.67 56.07L128.67 56.07Q131.31 56.07 133.61 52.52Q135.91 48.97 135.91 42.75L135.91 42.75Q135.91 36.56 133.66 32.82Q131.41 29.07 128.71 29.07L128.71 29.07Q126.04 29.07 123.75 32.78Q121.46 36.49 121.46 42.75ZM166.15 9.70L166.15 49.46Q166.15 54.70 168.43 54.70L168.43 54.70Q168.75 54.70 169.77 54.49L169.77 54.49Q170.12 54.42 170.26 55.79L170.26 55.79Q170.33 56.46 170.12 56.50L170.12 56.50Q169.07 56.67 165.81 57.60Q162.56 58.54 162.32 58.75L162.32 58.75Q161.82 58.75 161.82 57.02L161.82 57.02L161.82 55.58Q161.82 54.77 161.51 54.77Q161.19 54.77 160.73 55.27L160.73 55.27Q158.10 58.39 155.21 58.39L155.21 58.39Q149.70 58.39 147.02 54.09Q144.35 49.78 144.35 43.14L144.35 43.14Q144.35 36.49 148.06 31.75Q151.77 27 157.71 27L157.71 27Q159.68 27 160.91 27.49L160.91 27.49Q161.26 27.63 161.44 27.63L161.44 27.63Q161.82 27.63 161.82 26.75L161.82 26.75L161.82 16.42Q161.82 11.50 159.26 11.50L159.26 11.50Q158.77 11.50 158.77 10.53Q158.77 9.56 159.26 9.56L159.26 9.56Q159.96 9.56 161.96 8.28Q163.97 7.00 164.87 6.19Q165.76 5.38 166.04 5.38L166.04 5.38Q166.32 5.38 166.32 5.91L166.32 5.91L166.15 9.70ZM161.82 50.59L161.82 50.59L161.82 34.10Q161.82 31.46 161.23 30.80L161.23 30.80Q159.57 29.07 157.04 29.07L157.04 29.07Q153.28 29.07 151.10 32.99Q148.92 36.91 148.92 42.12L148.92 42.12Q148.92 47.36 151.26 51.17Q153.60 54.98 156.66 54.98L156.66 54.98Q158.87 54.98 160.35 53.54Q161.82 52.10 161.82 50.59ZM172.27 42.43L172.27 42.43Q172.27 36.18 175.46 31.59Q178.66 27 182.60 27L182.60 27Q186.57 27 189.02 30.45Q191.46 33.89 191.46 36.07L191.46 36.07Q191.46 38.29 190.05 38.29L190.05 38.29L177.40 38.29Q176.55 38.29 176.55 40.61L176.55 40.61Q176.55 46.23 178.72 50.26Q180.88 54.28 184.68 54.28L184.68 54.28Q187.52 54.28 190.34 52.17L190.34 52.17Q190.48 52.07 190.62 52.07L190.62 52.07Q190.97 52.07 191.21 52.45L191.21 52.45Q191.43 52.70 191.43 53.19L191.43 53.19Q191.43 53.37 191.32 53.47L191.32 53.47Q186.86 58.39 182.57 58.39L182.57 58.39Q178.24 58.39 175.25 53.54Q172.27 48.69 172.27 42.43ZM177.22 35.44L177.22 35.44Q177.22 35.93 177.89 35.93L177.89 35.93L186.93 35.93Q187.35 35.93 187.35 35.33L187.35 35.33Q187.35 33.79 185.82 31.43Q184.29 29.07 182.60 29.07L182.60 29.07Q180.77 29.07 179.46 30.60Q178.14 32.13 177.29 34.91L177.29 34.91Q177.22 35.19 177.22 35.44ZM211.71 34.84L211.71 34.84Q211.71 27 214.38 21.22Q217.05 15.43 221.36 12.16Q225.67 8.89 231.96 8.89L231.96 8.89Q235.09 8.89 239.52 9.95L239.52 9.95L240.12 10.09Q243.67 10.93 243.74 10.93L243.74 10.93Q244.55 15.64 244.55 21.87L244.55 21.87Q244.44 22.43 243.56 22.43Q242.68 22.43 242.61 21.94L242.61 21.94Q241.84 11.39 231.15 11.39L231.15 11.39Q225.42 11.39 221.26 17.86Q217.09 24.33 217.09 32.73L217.09 32.73Q217.09 42.68 221.17 49.29Q225.25 55.90 231.08 55.90L231.08 55.90Q241.03 55.90 243.81 46.44L243.81 46.44Q243.91 46.05 244.60 46.05Q245.29 46.05 245.57 46.34L245.57 46.34Q245.67 46.44 245.67 46.83L245.67 46.83Q244.62 53.54 243.14 56.32L243.14 56.32Q242.26 56.46 241.00 56.92L241.00 56.92Q236.85 58.54 230.41 58.54L230.41 58.54Q225.39 58.54 221.13 55.51Q216.88 52.49 214.29 47.16Q211.71 41.84 211.71 34.84ZM249.29 42.54L249.29 42.54Q249.29 36.63 252.81 31.82Q256.32 27 261.21 27L261.21 27Q266.10 27 269.51 31.80Q272.92 36.60 272.92 42.82L272.92 42.82Q272.92 49.01 269.81 53.70Q266.70 58.39 261.46 58.39L261.46 58.39Q256.25 58.39 252.77 53.40Q249.29 48.41 249.29 42.54ZM253.90 42.75L253.90 42.75Q253.90 48.97 256.18 52.52Q258.47 56.07 261.11 56.07L261.11 56.07Q263.74 56.07 266.04 52.52Q268.35 48.97 268.35 42.75L268.35 42.75Q268.35 36.56 266.10 32.82Q263.85 29.07 261.14 29.07L261.14 29.07Q258.47 29.07 256.18 32.78Q253.90 36.49 253.90 42.75ZM300.13 40.89L300.13 53.12Q300.13 55.86 303.36 55.86L303.36 55.86Q303.75 55.86 303.75 56.87Q303.75 57.87 303.36 57.87L303.36 57.87Q301.18 57.59 298.07 57.59Q294.96 57.59 292.71 57.87L292.71 57.87Q292.32 57.87 292.32 56.87Q292.32 55.86 292.71 55.86L292.71 55.86Q295.80 55.86 295.80 53.12L295.80 53.12L295.80 38.95Q295.80 36 295.42 33.94Q295.03 31.89 294.15 31.03Q293.27 30.16 291.06 30.16L291.06 30.16Q289.86 30.16 288.91 30.76Q287.96 31.36 287.05 32.19Q286.14 33.01 285.50 34.22Q284.87 35.44 284.87 36.84L284.87 36.84L284.87 53.12Q284.87 55.86 287.89 55.86L287.89 55.86Q288.28 55.86 288.28 56.87Q288.28 57.87 287.89 57.87L287.89 57.87Q285.71 57.59 282.64 57.59Q279.56 57.59 277.35 57.87L277.35 57.87Q276.96 57.87 276.96 56.87Q276.96 55.86 277.35 55.86L277.35 55.86Q280.58 55.86 280.58 53.12L280.58 53.12L280.58 37.41Q280.58 32.91 278.23 32.91L278.23 32.91Q277.73 32.91 277.73 31.92Q277.73 30.94 278.23 30.94L278.23 30.94Q279.28 30.94 280.67 29.88Q282.06 28.83 283.10 27.69Q284.13 26.54 284.55 26.54L284.55 26.54Q284.94 26.54 284.94 27.63L284.94 27.63L284.87 30.20Q284.87 30.94 285.26 30.94L285.26 30.94Q285.50 30.94 285.68 30.73L285.68 30.73Q288.67 27 292.96 27L292.96 27Q297.14 27 299.18 32.17L299.18 32.17Q300.13 34.49 300.13 40.89L300.13 40.89ZM327.23 9.70L327.23 49.46Q327.23 54.70 329.52 54.70L329.52 54.70Q329.84 54.70 330.86 54.49L330.86 54.49Q331.21 54.42 331.35 55.79L331.35 55.79Q331.42 56.46 331.21 56.50L331.21 56.50Q330.15 56.67 326.90 57.60Q323.65 58.54 323.40 58.75L323.40 58.75Q322.91 58.75 322.91 57.02L322.91 57.02L322.91 55.58Q322.91 54.77 322.59 54.77Q322.28 54.77 321.82 55.27L321.82 55.27Q319.18 58.39 316.30 58.39L316.30 58.39Q310.78 58.39 308.11 54.09Q305.44 49.78 305.44 43.14L305.44 43.14Q305.44 36.49 309.15 31.75Q312.86 27 318.80 27L318.80 27Q320.77 27 322.00 27.49L322.00 27.49Q322.35 27.63 322.52 27.63L322.52 27.63Q322.91 27.63 322.91 26.75L322.91 26.75L322.91 16.42Q322.91 11.50 320.34 11.50L320.34 11.50Q319.85 11.50 319.85 10.53Q319.85 9.56 320.34 9.56L320.34 9.56Q321.05 9.56 323.05 8.28Q325.05 7.00 325.95 6.19Q326.85 5.38 327.13 5.38L327.13 5.38Q327.41 5.38 327.41 5.91L327.41 5.91L327.23 9.70ZM322.91 50.59L322.91 50.59L322.91 34.10Q322.91 31.46 322.31 30.80L322.31 30.80Q320.66 29.07 318.13 29.07L318.13 29.07Q314.37 29.07 312.19 32.99Q310.01 36.91 310.01 42.12L310.01 42.12Q310.01 47.36 312.35 51.17Q314.68 54.98 317.74 54.98L317.74 54.98Q319.96 54.98 321.43 53.54Q322.91 52.10 322.91 50.59ZM333.35 42.43L333.35 42.43Q333.35 36.18 336.55 31.59Q339.75 27 343.69 27L343.69 27Q347.66 27 350.10 30.45Q352.55 33.89 352.55 36.07L352.55 36.07Q352.55 38.29 351.14 38.29L351.14 38.29L338.48 38.29Q337.64 38.29 337.64 40.61L337.64 40.61Q337.64 46.23 339.80 50.26Q341.96 54.28 345.76 54.28L345.76 54.28Q348.61 54.28 351.42 52.17L351.42 52.17Q351.56 52.07 351.70 52.07L351.70 52.07Q352.05 52.07 352.30 52.45L352.30 52.45Q352.51 52.70 352.51 53.19L352.51 53.19Q352.51 53.37 352.41 53.47L352.41 53.47Q347.94 58.39 343.65 58.39L343.65 58.39Q339.33 58.39 336.34 53.54Q333.35 48.69 333.35 42.43ZM338.31 35.44L338.31 35.44Q338.31 35.93 338.98 35.93L338.98 35.93L348.01 35.93Q348.43 35.93 348.43 35.33L348.43 35.33Q348.43 33.79 346.90 31.43Q345.38 29.07 343.69 29.07L343.69 29.07Q341.86 29.07 340.54 30.60Q339.22 32.13 338.38 34.91L338.38 34.91Q338.31 35.19 338.31 35.44ZM379.72 40.89L379.72 53.12Q379.72 55.86 382.96 55.86L382.96 55.86Q383.34 55.86 383.34 56.87Q383.34 57.87 382.96 57.87L382.96 57.87Q380.78 57.59 377.67 57.59Q374.55 57.59 372.30 57.87L372.30 57.87Q371.92 57.87 371.92 56.87Q371.92 55.86 372.30 55.86L372.30 55.86Q375.40 55.86 375.40 53.12L375.40 53.12L375.40 38.95Q375.40 36 375.01 33.94Q374.63 31.89 373.75 31.03Q372.87 30.16 370.65 30.16L370.65 30.16Q369.46 30.16 368.51 30.76Q367.56 31.36 366.64 32.19Q365.73 33.01 365.10 34.22Q364.46 35.44 364.46 36.84L364.46 36.84L364.46 53.12Q364.46 55.86 367.49 55.86L367.49 55.86Q367.88 55.86 367.88 56.87Q367.88 57.87 367.49 57.87L367.49 57.87Q365.31 57.59 362.23 57.59Q359.16 57.59 356.94 57.87L356.94 57.87Q356.55 57.87 356.55 56.87Q356.55 55.86 356.94 55.86L356.94 55.86Q360.18 55.86 360.18 53.12L360.18 53.12L360.18 37.41Q360.18 32.91 357.82 32.91L357.82 32.91Q357.33 32.91 357.33 31.92Q357.33 30.94 357.82 30.94L357.82 30.94Q358.88 30.94 360.26 29.88Q361.65 28.83 362.69 27.69Q363.73 26.54 364.15 26.54L364.15 26.54Q364.54 26.54 364.54 27.63L364.54 27.63L364.46 30.20Q364.46 30.94 364.85 30.94L364.85 30.94Q365.10 30.94 365.27 30.73L365.27 30.73Q368.26 27 372.55 27L372.55 27Q376.73 27 378.77 32.17L378.77 32.17Q379.72 34.49 379.72 40.89L379.72 40.89ZM402.82 48.94L402.82 48.94Q402.82 51.79 401.64 54.02Q400.46 56.25 398.41 57.36Q396.35 58.46 394.07 58.46L394.07 58.46Q389.71 58.46 387.32 56.36L387.32 56.36Q386.75 54.14 386.75 50.31L386.75 50.31L386.75 48.73Q386.75 48.20 387.42 48.20Q388.09 48.20 388.16 48.73L388.16 48.73Q388.30 50.10 389.99 53.16Q391.68 56.21 395.02 56.21L395.02 56.21Q396.67 56.21 398.11 54.91Q399.55 53.61 399.55 51.15L399.55 51.15Q399.55 48.69 398.34 47.20Q397.13 45.70 394.01 44.67Q390.90 43.63 389.04 41.34Q387.18 39.06 387.18 35.54L387.18 35.54Q387.18 31.96 389.53 29.48Q391.89 27 395.51 27L395.51 27Q399.13 27 401.34 28.27L401.34 28.27Q402.22 31.22 402.22 34.24L402.22 34.24L402.22 34.63Q402.22 35.12 401.59 35.12Q400.96 35.12 400.89 34.63L400.89 34.63Q400.61 32.73 398.99 30.94Q397.37 29.14 395.19 29.14L395.19 29.14Q393.05 29.14 391.73 30.46Q390.41 31.78 390.41 34.03L390.41 34.03Q390.41 36.18 391.34 37.34Q392.27 38.50 396.02 39.85Q399.76 41.20 401.29 43.26Q402.82 45.32 402.82 48.94ZM406.83 42.43L406.83 42.43Q406.83 36.18 410.03 31.59Q413.23 27 417.16 27L417.16 27Q421.14 27 423.58 30.45Q426.02 33.89 426.02 36.07L426.02 36.07Q426.02 38.29 424.62 38.29L424.62 38.29L411.96 38.29Q411.12 38.29 411.12 40.61L411.12 40.61Q411.12 46.23 413.28 50.26Q415.44 54.28 419.24 54.28L419.24 54.28Q422.09 54.28 424.90 52.17L424.90 52.17Q425.04 52.07 425.18 52.07L425.18 52.07Q425.53 52.07 425.78 52.45L425.78 52.45Q425.99 52.70 425.99 53.19L425.99 53.19Q425.99 53.37 425.88 53.47L425.88 53.47Q421.42 58.39 417.13 58.39L417.13 58.39Q412.80 58.39 409.82 53.54Q406.83 48.69 406.83 42.43ZM411.79 35.44L411.79 35.44Q411.79 35.93 412.45 35.93L412.45 35.93L421.49 35.93Q421.91 35.93 421.91 35.33L421.91 35.33Q421.91 33.79 420.38 31.43Q418.85 29.07 417.16 29.07L417.16 29.07Q415.34 29.07 414.02 30.60Q412.70 32.13 411.86 34.91L411.86 34.91Q411.79 35.19 411.79 35.44ZM451.65 9.70L451.65 49.46Q451.65 54.70 453.94 54.70L453.94 54.70Q454.25 54.70 455.27 54.49L455.27 54.49Q455.63 54.42 455.77 55.79L455.77 55.79Q455.84 56.46 455.63 56.50L455.63 56.50Q454.57 56.67 451.32 57.60Q448.07 58.54 447.82 58.75L447.82 58.75Q447.33 58.75 447.33 57.02L447.33 57.02L447.33 55.58Q447.33 54.77 447.01 54.77Q446.70 54.77 446.24 55.27L446.24 55.27Q443.60 58.39 440.72 58.39L440.72 58.39Q435.20 58.39 432.53 54.09Q429.86 49.78 429.86 43.14L429.86 43.14Q429.86 36.49 433.56 31.75Q437.27 27 443.21 27L443.21 27Q445.18 27 446.41 27.49L446.41 27.49Q446.77 27.63 446.94 27.63L446.94 27.63Q447.33 27.63 447.33 26.75L447.33 26.75L447.33 16.42Q447.33 11.50 444.76 11.50L444.76 11.50Q444.27 11.50 444.27 10.53Q444.27 9.56 444.76 9.56L444.76 9.56Q445.46 9.56 447.47 8.28Q449.47 7.00 450.37 6.19Q451.27 5.38 451.55 5.38L451.55 5.38Q451.83 5.38 451.83 5.91L451.83 5.91L451.65 9.70ZM447.33 50.59L447.33 50.59L447.33 34.10Q447.33 31.46 446.73 30.80L446.73 30.80Q445.08 29.07 442.55 29.07L442.55 29.07Q438.79 29.07 436.61 32.99Q434.43 36.91 434.43 42.12L434.43 42.12Q434.43 47.36 436.76 51.17Q439.10 54.98 442.16 54.98L442.16 54.98Q444.38 54.98 445.85 53.54Q447.33 52.10 447.33 50.59Z"/></svg>