<?xml version="1.0" encoding="UTF-8"?>
<svg xmlns="http://www.w3.org/2000/svg" xmlns:xlink="http://www.w3.org/1999/xlink" width="506.25" height="63.28125" viewBox="0 -18.359375 506.25 100" preserveAspectRatio="xMinYMid meet"><path d="M7.03 49.22L7.03 45.70L3.52 45.70L3.52 10.55L10.55 10.55L10.55 42.19L14.06 42.19L14.06 45.70L17.58 45.70L17.58 49.22L24.61 49.22L24.61 45.70L28.13 45.70L28.13 42.19L31.64 42.19L31.64 10.55L38.67 10.55L38.67 45.70L35.16 45.70L35.16 49.22L31.64 49.22L31.64 52.73L28.13 52.73L28.13 56.25L24.61 56.25L24.61 59.77L17.58 59.77L17.58 56.25L14.06 56.25L14.06 52.73L10.55 52.73L10.55 49.22L7.03 49.22ZM56.25 49.22L56.25 52.73L70.31 52.73L70.31 49.22L73.83 49.22L73.83 45.70L80.86 45.70L80.86 52.73L77.34 52.73L77.34 56.25L73.83 56.25L73.83 59.77L52.73 59.77L52.73 56.25L49.22 56.25L49.22 52.73L45.70 52.73L45.70 17.58L49.22 17.58L49.22 14.06L52.73 14.06L52.73 10.55L73.83 10.55L73.83 14.06L77.34 14.06L77.34 17.58L80.86 17.58L80.86 24.61L73.83 24.61L73.83 21.09L70.31 21.09L70.31 17.58L56.25 17.58L56.25 21.09L52.73 21.09L52.73 49.22L56.25 49.22ZM112.50 17.58L94.92 17.58L94.92 31.64L112.50 31.64L112.50 28.13L116.02 28.13L116.02 21.09L112.50 21.09L112.50 17.58ZM98.44 42.19L98.44 38.67L94.92 38.67L94.92 59.77L87.89 59.77L87.89 10.55L116.02 10.55L116.02 14.06L119.53 14.06L119.53 17.58L123.05 17.58L123.05 31.64L119.53 31.64L119.53 35.16L116.02 35.16L116.02 38.67L108.98 38.67L108.98 42.19L112.50 42.19L112.50 45.70L116.02 45.70L116.02 49.22L119.53 49.22L119.53 52.73L123.05 52.73L123.05 59.77L116.02 59.77L116.02 56.25L112.50 56.25L112.50 52.73L108.98 52.73L108.98 49.22L105.47 49.22L105.47 45.70L101.95 45.70L101.95 42.19L98.44 42.19ZM196.88 21.09L196.88 17.58L182.81 17.58L182.81 21.09L179.30 21.09L179.30 49.22L182.81 49.22L182.81 52.73L196.88 52.73L196.88 49.22L200.39 49.22L200.39 21.09L196.88 21.09ZM175.78 14.06L179.30 14.06L179.30 10.55L200.39 10.55L200.39 14.06L203.91 14.06L203.91 17.58L207.42 17.58L207.42 52.73L203.91 52.73L203.91 56.25L200.39 56.25L200.39 59.77L179.30 59.77L179.30 56.25L175.78 56.25L175.78 52.73L172.27 52.73L172.27 17.58L175.78 17.58L175.78 14.06ZM246.09 14.06L246.09 17.58L249.61 17.58L249.61 24.61L242.58 24.61L242.58 21.09L239.06 21.09L239.06 17.58L225 17.58L225 21.09L221.48 21.09L221.48 28.13L225 28.13L225 31.64L242.58 31.64L242.58 35.16L246.09 35.16L246.09 38.67L249.61 38.67L249.61 52.73L246.09 52.73L246.09 56.25L242.58 56.25L242.58 59.77L221.48 59.77L221.48 56.25L217.97 56.25L217.97 52.73L214.45 52.73L214.45 45.70L221.48 45.70L221.48 49.22L225 49.22L225 52.73L239.06 52.73L239.06 49.22L242.58 49.22L242.58 42.19L239.06 42.19L239.06 38.67L221.48 38.67L221.48 35.16L217.97 35.16L217.97 31.64L214.45 31.64L214.45 17.58L217.97 17.58L217.97 14.06L221.48 14.06L221.48 10.55L242.58 10.55L242.58 14.06L246.09 14.06ZM281.25 17.58L263.67 17.58L263.67 52.73L281.25 52.73L281.25 49.22L284.77 49.22L284.77 21.09L281.25 21.09L281.25 17.58ZM284.77 59.77L256.64 59.77L256.64 10.55L284.77 10.55L284.77 14.06L288.28 14.06L288.28 17.58L291.80 17.58L291.80 52.73L288.28 52.73L288.28 56.25L284.77 56.25L284.77 59.77ZM348.05 28.13L348.05 59.77L341.02 59.77L341.02 10.55L348.05 10.55L348.05 17.58L351.56 17.58L351.56 21.09L355.08 21.09L355.08 24.61L362.11 24.61L362.11 21.09L365.63 21.09L365.63 17.58L369.14 17.58L369.14 10.55L376.17 10.55L376.17 59.77L369.14 59.77L369.14 28.13L365.63 28.13L365.63 31.64L362.11 31.64L362.11 38.67L355.08 38.67L355.08 31.64L351.56 31.64L351.56 28.13L348.05 28.13ZM393.75 49.22L393.75 52.73L407.81 52.73L407.81 49.22L411.33 49.22L411.33 31.64L407.81 31.64L407.81 28.13L393.75 28.13L393.75 31.64L390.23 31.64L390.23 49.22L393.75 49.22ZM411.33 59.77L390.23 59.77L390.23 56.25L386.72 56.25L386.72 52.73L383.20 52.73L383.20 28.13L386.72 28.13L386.72 24.61L390.23 24.61L390.23 21.09L411.33 21.09L411.33 24.61L414.84 24.61L414.84 28.13L418.36 28.13L418.36 52.73L414.84 52.73L414.84 56.25L411.33 56.25L411.33 59.77ZM435.94 31.64L432.42 31.64L432.42 59.77L425.39 59.77L425.39 21.09L432.42 21.09L432.42 24.61L435.94 24.61L435.94 21.09L453.52 21.09L453.52 24.61L457.03 24.61L457.03 28.13L460.55 28.13L460.55 59.77L453.52 59.77L453.52 31.64L450 31.64L450 28.13L435.94 28.13L435.94 31.64ZM478.13 49.22L478.13 52.73L492.19 52.73L492.19 49.22L495.70 49.22L495.70 31.64L492.19 31.64L492.19 28.13L478.13 28.13L478.13 31.64L474.61 31.64L474.61 49.22L478.13 49.22ZM495.70 59.77L474.61 59.77L474.61 56.25L471.09 56.25L471.09 52.73L467.58 52.73L467.58 28.13L471.09 28.13L471.09 24.61L474.61 24.61L474.61 21.09L495.70 21.09L495.70 24.61L499.22 24.61L499.22 28.13L502.73 28.13L502.73 52.73L499.22 52.73L499.22 56.25L495.70 56.25L495.70 59.77Z"/></svg>