<?xml version="1.0" encoding="UTF-8"?>
<svg xmlns="http://www.w3.org/2000/svg" xmlns:xlink="http://www.w3.org/1999/xlink" width="258.84000000000003" height="109.58400000000002" viewBox="0 4.792000000000009 258.84000000000003 100" preserveAspectRatio="xMinYMid meet"><path d="M19.01 76.97L19.01 76.97Q14.54 76.97 11.45 76.14Q8.35 75.31 5.04 73.66L5.04 73.66L4.32 61.85L5.47 61.85L9.00 69.48Q11.59 71.64 14.04 72.61Q16.49 73.58 19.01 73.58L19.01 73.58Q23.26 73.58 25.67 71.35Q28.08 69.12 28.08 65.30L28.08 65.30Q28.08 62.14 26.68 60.34Q25.27 58.54 22.64 57.13Q20.02 55.73 16.42 53.93L16.42 53.93Q13.03 52.20 10.66 50.54Q8.28 48.89 7.06 46.69Q5.83 44.50 5.83 41.18L5.83 41.18Q5.83 38.74 7.02 36.40Q8.21 34.06 10.26 32.15Q12.31 30.24 14.87 29.12Q17.42 28.01 20.16 28.01L20.16 28.01Q23.47 28.01 26.28 28.80Q29.09 29.59 32.04 31.03L32.04 31.03L32.76 42.55L31.61 42.55L28.30 34.99Q25.78 33.12 23.90 32.29Q22.03 31.46 19.58 31.46L19.58 31.46Q16.42 31.46 14.36 33.62Q12.31 35.78 12.31 38.95L12.31 38.95Q12.31 42.62 14.54 44.68Q16.78 46.73 21.53 49.03L21.53 49.03Q25.92 51.19 28.73 53.03Q31.54 54.86 32.90 57.24Q34.27 59.62 34.27 63.29L34.27 63.29Q34.27 66.67 32.83 69.23Q31.39 71.78 29.12 73.51Q26.86 75.24 24.16 76.10Q21.46 76.97 19.01 76.97ZM57.10 92.81L41.69 92.81L41.69 91.66L46.22 89.35L46.22 51.34L41.90 47.59L41.90 47.09L50.83 43.13L51.26 43.13L51.84 47.52L52.34 47.52Q55.08 45.22 57.60 44.17Q60.12 43.13 63.07 43.13L63.07 43.13Q66.74 43.13 69.55 45Q72.36 46.87 73.98 50.29Q75.60 53.71 75.60 58.46L75.60 58.46Q75.60 64.37 73.40 68.51Q71.21 72.65 67.46 74.81Q63.72 76.97 59.26 76.97L59.26 76.97Q55.22 76.97 51.98 76.25L51.98 76.25L51.98 89.35L57.10 91.66L57.10 92.81ZM59.11 48.10L59.11 48.10Q57.38 48.10 55.55 48.64Q53.71 49.18 51.98 50.26L51.98 50.26L51.98 70.49Q54.14 72.22 56.38 72.86Q58.61 73.51 61.34 73.51L61.34 73.51Q64.80 73.51 67.32 70.60Q69.84 67.68 69.84 60.84L69.84 60.84Q69.84 56.38 68.40 53.57Q66.96 50.76 64.51 49.43Q62.06 48.10 59.11 48.10ZM97.70 76.97L97.70 76.97Q90.72 76.97 86.69 72.72Q82.66 68.47 82.66 61.49L82.66 61.49Q82.66 56.09 84.78 51.95Q86.90 47.81 90.40 45.47Q93.89 43.13 97.99 43.13L97.99 43.13Q103.68 43.13 106.96 47.09Q110.23 51.05 110.23 58.46L110.23 58.46L109.87 58.82L88.34 58.82Q88.42 62.14 89.64 65.05Q90.86 67.97 93.56 69.77Q96.26 71.57 100.80 71.57L100.80 71.57Q104.76 71.57 110.09 68.69L110.09 68.69L110.30 68.69L110.30 69.41Q108.65 72.50 105.37 74.74Q102.10 76.97 97.70 76.97ZM96.84 46.30L96.84 46.30Q93.38 46.30 91.19 48.71Q88.99 51.12 88.49 55.51L88.49 55.51L104.76 55.51Q103.97 50.62 101.99 48.46Q100.01 46.30 96.84 46.30ZM132.55 76.97L132.55 76.97Q125.57 76.97 121.54 72.72Q117.50 68.47 117.50 61.49L117.50 61.49Q117.50 56.09 119.70 51.95Q121.90 47.81 125.64 45.47Q129.38 43.13 134.06 43.13L134.06 43.13Q136.94 43.13 139.68 44.10Q142.42 45.07 143.86 46.66L143.86 46.66Q145.01 48.02 145.01 48.82L145.01 48.82Q145.01 49.82 144.07 50.54L144.07 50.54L141.34 52.85L140.83 52.85L138.38 49.54Q137.30 48.10 135.68 47.20Q134.06 46.30 131.69 46.30L131.69 46.30Q127.73 46.30 125.46 49.43Q123.19 52.56 123.19 58.18L123.19 58.18Q123.19 61.63 124.34 64.69Q125.50 67.75 128.20 69.66Q130.90 71.57 135.65 71.57L135.65 71.57Q139.61 71.57 144.94 68.69L144.94 68.69L145.15 68.69L145.15 69.41Q143.50 72.50 140.22 74.74Q136.94 76.97 132.55 76.97ZM163.37 76.97L163.37 76.97Q160.20 76.97 157.90 75.10Q155.59 73.22 155.59 69.84L155.59 69.84L155.59 47.23L149.69 47.23L149.69 46.80L155.81 43.85L160.92 35.93L161.35 35.93L161.35 43.85L170.86 43.85L170.86 47.23L161.35 47.23L161.35 68.62Q161.35 70.49 163.01 71.35Q164.66 72.22 166.90 72.22L166.90 72.22Q168.26 72.22 169.45 72.07Q170.64 71.93 171.50 71.71L171.50 71.71L171.72 71.71L171.72 72.43Q171.00 74.09 168.88 75.53Q166.75 76.97 163.37 76.97ZM193.03 76.25L177.62 76.25L177.62 75.10L182.16 72.79L182.16 51.34L177.84 47.59L177.84 47.09L186.77 43.13L187.20 43.13L187.85 49.25L188.14 49.25Q189.79 46.58 191.20 45.25Q192.60 43.92 193.82 43.52Q195.05 43.13 196.27 43.13L196.27 43.13Q196.85 43.13 197.60 43.34Q198.36 43.56 198.86 43.78L198.86 43.78Q199.66 44.14 200.34 44.64Q201.02 45.14 201.02 45.79L201.02 45.79Q201.02 46.44 200.74 47.09L200.74 47.09L199.30 50.62L198.79 50.62L196.06 49.54Q195.26 49.18 194.51 49.10Q193.75 49.03 193.03 49.03L193.03 49.03Q190.01 49.03 187.92 52.13L187.92 52.13L187.92 72.79L193.03 75.10L193.03 76.25ZM213.70 76.97L213.70 76.97Q210.31 76.97 208.08 74.99Q205.85 73.01 205.85 69.48L205.85 69.48Q205.85 65.95 208.48 63.36Q211.10 60.77 217.30 59.33L217.30 59.33L224.14 57.74L224.14 52.49Q224.14 50.04 222.16 48.28Q220.18 46.51 217.66 46.51L217.66 46.51Q214.92 46.51 213.84 47.99Q212.76 49.46 212.76 51.91L212.76 51.91L212.76 53.93L212.40 54.29L208.66 54.29Q207.58 54.29 207.18 53.93Q206.78 53.57 206.78 52.27L206.78 52.27Q206.78 50.69 207.72 49.03Q208.66 47.38 210.60 46.15L210.60 46.15Q212.62 44.86 214.81 43.99Q217.01 43.13 219.53 43.13L219.53 43.13Q222.05 43.13 224.46 43.85Q226.87 44.57 228.38 46.26Q229.90 47.95 229.90 50.98L229.90 50.98L229.90 71.42Q230.40 71.93 231.34 72.29Q232.27 72.65 233.93 72.65L233.93 72.65L236.66 72.65L236.88 72.79L236.88 73.01Q236.02 74.59 234.32 75.78Q232.63 76.97 230.18 76.97L230.18 76.97Q227.95 76.97 226.55 75.78Q225.14 74.59 224.57 72.65L224.57 72.65L224.14 72.65Q222.26 74.52 219.49 75.74Q216.72 76.97 213.70 76.97ZM211.46 68.04L211.46 68.04Q211.46 72.50 216.86 72.50L216.86 72.50Q218.59 72.50 220.28 72.14Q221.98 71.78 224.14 70.85L224.14 70.85L224.14 60.19Q218.38 61.27 215.71 62.46Q213.05 63.65 212.26 65.02Q211.46 66.38 211.46 68.04ZM255.67 76.25L240.84 76.25L240.84 75.10L245.38 72.79L245.38 30.46L241.06 26.71L241.06 26.21L250.70 22.25L251.14 22.25L251.14 72.79L255.67 75.10L255.67 76.25Z"/></svg>