<?xml version="1.0" encoding="UTF-8"?>
<svg xmlns="http://www.w3.org/2000/svg" xmlns:xlink="http://www.w3.org/1999/xlink" width="192.24000000000004" height="85.68" viewBox="0 -7.159999999999997 192.24000000000004 100" preserveAspectRatio="xMinYMid meet"><path d="M25.63 68.40L24.55 68.40Q20.30 68.40 16.60 67.18Q12.89 65.95 10.12 63.22Q7.34 60.48 5.76 56.05Q4.18 51.62 4.18 45.22L4.18 45.22L4.18 40.75Q4.18 34.49 5.76 30.06Q7.34 25.63 10.12 22.86Q12.89 20.09 16.52 18.83Q20.16 17.57 24.34 17.57L24.34 17.57L25.42 17.57Q29.30 17.57 32.80 18.65Q36.29 19.73 38.95 22.07Q41.62 24.41 43.16 28.19Q44.71 31.97 44.71 37.37L44.71 37.37L36.29 37.37Q36.29 32.26 34.81 29.48Q33.34 26.71 30.74 25.60Q28.15 24.48 24.84 24.48L24.84 24.48Q22.39 24.48 20.30 25.20Q18.22 25.92 16.70 27.58Q15.19 29.23 14.36 32.00Q13.54 34.78 13.54 38.88L13.54 38.88L13.54 47.09Q13.54 52.56 14.98 55.69Q16.42 58.82 18.97 60.16Q21.53 61.49 24.84 61.49L24.84 61.49Q28.37 61.49 31.00 60.37Q33.62 59.26 35.10 56.48Q36.58 53.71 36.58 48.67L36.58 48.67L44.71 48.67Q44.71 53.86 43.20 57.60Q41.69 61.34 39.06 63.72Q36.43 66.10 32.98 67.25Q29.52 68.40 25.63 68.40L25.63 68.40ZM62.06 67.68L53.71 67.68L53.71 15.84L62.06 15.84L62.06 35.71Q64.08 32.98 67.00 31.57Q69.91 30.17 73.22 30.17L73.22 30.17Q76.90 30.17 79.74 31.61Q82.58 33.05 84.24 35.82Q85.90 38.59 85.90 42.62L85.90 42.62L85.90 67.68L77.54 67.68L77.54 44.14Q77.54 40.03 75.60 38.27Q73.66 36.50 70.27 36.50L70.27 36.50Q68.04 36.50 66.17 37.62Q64.30 38.74 63.18 40.61Q62.06 42.48 62.06 44.86L62.06 44.86L62.06 67.68ZM105.48 67.68L97.13 67.68L97.13 30.89L105.48 30.89L105.48 67.68ZM105.70 22.61L96.91 22.61L96.91 15.84L105.70 15.84L105.70 22.61ZM135.00 67.68L125.86 67.68L112.39 30.89L121.32 30.89L130.68 57.74L131.04 57.74L140.47 30.89L148.61 30.89L135.00 67.68ZM171.50 68.40L170.35 68.40Q165.46 68.40 161.57 66.17Q157.68 63.94 155.48 59.76Q153.29 55.58 153.29 49.90L153.29 49.90L153.29 48.67Q153.29 42.91 155.48 38.77Q157.68 34.63 161.53 32.40Q165.38 30.17 170.28 30.17L170.28 30.17L171.43 30.17Q176.40 30.17 180.25 32.40Q184.10 34.63 186.30 38.77Q188.50 42.91 188.50 48.67L188.50 48.67L188.50 49.90Q188.50 55.58 186.30 59.76Q184.10 63.94 180.25 66.17Q176.40 68.40 171.50 68.40L171.50 68.40ZM170.86 62.71L170.86 62.71Q173.38 62.71 175.36 61.52Q177.34 60.34 178.52 57.96Q179.71 55.58 179.71 52.20L179.71 52.20L179.71 46.37Q179.71 42.91 178.52 40.57Q177.34 38.23 175.36 37.04Q173.38 35.86 170.86 35.86L170.86 35.86Q168.41 35.86 166.43 37.04Q164.45 38.23 163.26 40.57Q162.07 42.91 162.07 46.37L162.07 46.37L162.07 52.20Q162.07 55.58 163.26 57.96Q164.45 60.34 166.43 61.52Q168.41 62.71 170.86 62.71Z"/></svg>