<?xml version="1.0" encoding="UTF-8"?>
<svg xmlns="http://www.w3.org/2000/svg" xmlns:xlink="http://www.w3.org/1999/xlink" width="237.024" height="87.69600000000001" viewBox="0 -6.151999999999994 237.024 100" preserveAspectRatio="xMinYMid meet"><path d="M3.10 46.37L3.10 46.37Q3.10 35.14 9.97 28.26Q16.85 21.38 28.08 21.38L28.08 21.38Q34.56 21.38 42.34 23.83L42.34 23.83L42.34 34.92L38.30 34.92L37.22 28.37L36.29 27.07Q32.18 25.20 28.22 25.20L28.22 25.20Q20.09 25.20 15.30 30.74Q10.51 36.29 10.51 45.86L10.51 45.86Q10.51 56.09 15.52 61.85Q20.52 67.61 29.30 67.61L29.30 67.61Q32.47 67.61 35.57 66.67L35.57 66.67L36.72 65.52L38.30 57.53L42.34 57.53L42.34 68.90Q35.14 71.42 27.79 71.42L27.79 71.42Q20.66 71.42 15.55 68.54L15.55 68.54Q9.79 65.23 6.44 59.33Q3.10 53.42 3.10 46.37ZM52.42 22.39L46.87 22.39L46.87 20.16L55.66 17.57L58.39 17.57L58.39 39.53Q66.24 35.21 70.06 35.21L70.06 35.21Q74.74 35.21 77.22 37.98Q79.70 40.75 79.70 46.15L79.70 46.15L79.70 66.46L81 67.61L84.82 67.97L84.82 70.56L69.12 70.56L69.12 67.97L72.50 67.61L73.73 66.46L73.73 47.38Q73.73 43.42 72.07 41.69Q70.42 39.96 66.46 39.96L66.46 39.96Q63.07 39.96 58.39 42.34L58.39 42.34L58.39 66.46L59.69 67.61L63.07 67.97L63.07 70.56L47.30 70.56L47.30 67.97L51.19 67.61L52.42 66.46L52.42 22.39ZM89.14 61.85L89.14 61.85Q89.14 56.59 93.64 54.11Q98.14 51.62 110.16 48.74L110.16 48.74L110.16 46.44Q110.16 42.05 108.76 40.21Q107.35 38.38 103.54 38.38L103.54 38.38Q100.87 38.38 98.06 39.53L98.06 39.53L98.06 45.58L93.10 45.58Q91.87 45.58 91.37 45.11Q90.86 44.64 90.86 43.34L90.86 43.34Q90.86 39.96 94.82 37.58Q98.78 35.21 105.41 35.21L105.41 35.21Q111.10 35.21 113.62 37.66Q116.14 40.10 116.14 45.58L116.14 45.58L116.14 66.46L117.43 67.61L121.25 67.97L121.25 70.56L111.10 70.56L110.16 66.38Q103.32 71.06 98.35 71.06L98.35 71.06Q94.10 71.06 91.62 68.51Q89.14 65.95 89.14 61.85ZM95.47 61.27L95.47 61.27Q95.47 63.94 97.02 65.56Q98.57 67.18 101.23 67.18L101.23 67.18Q104.54 67.18 110.16 63.94L110.16 63.94L110.16 51.26Q101.88 53.57 98.68 55.55Q95.47 57.53 95.47 61.27ZM142.13 70.56L124.78 70.56L124.78 67.97L128.59 67.61L129.89 66.46L129.89 40.39L124.78 40.39L124.78 38.16L133.13 35.57L135.86 35.57L135.86 42.34Q139.32 38.74 143.57 35.35L143.57 35.35Q144.14 35.21 145.37 35.21L145.37 35.21Q147.53 35.21 149.69 36.14L149.69 36.14L149.69 42.34L147.38 42.34Q145.94 40.61 143.71 40.61L143.71 40.61Q140.33 40.61 135.86 45.86L135.86 45.86L135.86 66.46L137.09 67.61L142.13 67.97L142.13 70.56ZM156.46 40.25L151.92 40.25L151.92 38.02L156.67 35.93L159.77 29.23L162.43 29.23L162.43 36.86L173.38 36.86L173.38 40.25L162.43 40.25L162.43 59.26Q162.43 63.58 163.62 65.34Q164.81 67.10 168.41 67.10L168.41 67.10Q170.71 67.10 173.38 66.53L173.38 66.53L173.38 69.19Q168.41 70.78 163.94 70.78L163.94 70.78Q159.62 70.78 158.04 69.12Q156.46 67.46 156.46 63.50L156.46 63.50L156.46 40.25ZM176.83 53.50L176.83 53.50Q176.83 45.36 181.51 40.28Q186.19 35.21 193.46 35.21L193.46 35.21Q199.37 35.21 202.90 38.99Q206.42 42.77 206.42 49.39L206.42 49.39Q206.42 50.83 206.35 51.62L206.35 51.62L183.02 51.62L183.02 52.42Q183.02 59.26 186.30 63.18Q189.58 67.10 195.12 67.10L195.12 67.10Q200.16 67.10 206.42 62.93L206.42 62.93L206.42 66.89Q199.94 71.21 192.89 71.21L192.89 71.21Q185.76 71.21 181.30 66.31Q176.83 61.42 176.83 53.50ZM183.38 48.60L183.38 48.60L200.02 48.60L200.02 47.45Q200.02 43.06 198.07 40.75Q196.13 38.45 192.53 38.45L192.53 38.45Q189 38.45 186.34 41.29Q183.67 44.14 183.38 48.60ZM229.03 70.56L211.68 70.56L211.68 67.97L215.50 67.61L216.79 66.46L216.79 40.39L211.68 40.39L211.68 38.16L220.03 35.57L222.77 35.57L222.77 42.34Q226.22 38.74 230.47 35.35L230.47 35.35Q231.05 35.21 232.27 35.21L232.27 35.21Q234.43 35.21 236.59 36.14L236.59 36.14L236.59 42.34L234.29 42.34Q232.85 40.61 230.62 40.61L230.62 40.61Q227.23 40.61 222.77 45.86L222.77 45.86L222.77 66.46L223.99 67.61L229.03 67.97L229.03 70.56Z"/></svg>