<?xml version="1.0" encoding="UTF-8"?>
<svg xmlns="http://www.w3.org/2000/svg" xmlns:xlink="http://www.w3.org/1999/xlink" width="388.79999999999995" height="93.60000000000001" viewBox="0 -3.1999999999999957 388.79999999999995 100" preserveAspectRatio="xMinYMid meet"><path d="M12.53 73.80L6.48 73.80L6.48 23.54L24.77 23.54Q31.75 23.54 35.42 27.36Q39.10 31.18 39.10 38.02L39.10 38.02Q39.10 44.86 35.42 48.67Q31.75 52.49 24.77 52.49L24.77 52.49L12.53 52.49L12.53 73.80ZM12.53 28.80L12.53 47.23L24.62 47.23Q28.44 47.23 30.56 45.32Q32.69 43.42 32.69 39.89L32.69 39.89L32.69 36.14Q32.69 32.62 30.56 30.71Q28.44 28.80 24.62 28.80L24.62 28.80L12.53 28.80ZM48.96 73.80L48.96 68.90L61.92 68.90L61.92 25.42L48.96 25.42L48.96 20.52L67.68 20.52L67.68 68.90L80.64 68.90L80.64 73.80L48.96 73.80ZM108.65 74.66L108.65 74.66Q104.62 74.66 101.41 73.30Q98.21 71.93 95.94 69.37Q93.67 66.82 92.45 63.25Q91.22 59.69 91.22 55.30L91.22 55.30Q91.22 50.83 92.48 47.23Q93.74 43.63 95.98 41.08Q98.21 38.52 101.34 37.15Q104.47 35.78 108.29 35.78L108.29 35.78Q112.03 35.78 115.09 37.15Q118.15 38.52 120.31 40.93Q122.47 43.34 123.62 46.66Q124.78 49.97 124.78 53.93L124.78 53.93L124.78 56.66L97.27 56.66L97.27 58.39Q97.27 60.84 98.06 62.93Q98.86 65.02 100.33 66.53Q101.81 68.04 103.93 68.87Q106.06 69.70 108.65 69.70L108.65 69.70Q112.39 69.70 115.13 67.97Q117.86 66.24 119.30 63.22L119.30 63.22L123.55 66.10Q121.90 69.84 118.04 72.25Q114.19 74.66 108.65 74.66ZM108.29 40.54L108.29 40.54Q105.91 40.54 103.90 41.40Q101.88 42.26 100.40 43.78Q98.93 45.29 98.10 47.34Q97.27 49.39 97.27 51.84L97.27 51.84L97.27 52.34L118.58 52.34L118.58 51.55Q118.58 49.10 117.83 47.09Q117.07 45.07 115.74 43.60Q114.41 42.12 112.50 41.33Q110.59 40.54 108.29 40.54ZM140.62 73.80L133.99 73.80L147.82 54.94L134.35 36.65L141.26 36.65L146.88 44.50L151.34 50.69L151.63 50.69L155.95 44.50L161.50 36.65L168.12 36.65L154.51 54.86L168.48 73.80L161.57 73.80L155.30 65.09L151.06 59.18L150.77 59.18L146.66 65.09L140.62 73.80ZM248.76 73.80L248.76 48.60L248.76 32.69L248.18 32.69L237.60 58.54L227.02 32.69L226.44 32.69L226.44 48.60L226.44 73.80L220.90 73.80L220.90 23.54L228.67 23.54L237.53 45.72L237.96 45.72L246.82 23.54L254.30 23.54L254.30 73.80L248.76 73.80ZM280.80 74.66L280.80 74.66Q276.91 74.66 273.78 73.30Q270.65 71.93 268.45 69.37Q266.26 66.82 265.10 63.25Q263.95 59.69 263.95 55.22L263.95 55.22Q263.95 50.83 265.10 47.23Q266.26 43.63 268.45 41.08Q270.65 38.52 273.78 37.15Q276.91 35.78 280.80 35.78L280.80 35.78Q284.69 35.78 287.82 37.15Q290.95 38.52 293.15 41.08Q295.34 43.63 296.50 47.23Q297.65 50.83 297.65 55.22L297.65 55.22Q297.65 59.69 296.50 63.25Q295.34 66.82 293.15 69.37Q290.95 71.93 287.82 73.30Q284.69 74.66 280.80 74.66ZM280.80 69.70L280.80 69.70Q285.62 69.70 288.58 66.82Q291.53 63.94 291.53 57.89L291.53 57.89L291.53 52.56Q291.53 46.51 288.58 43.63Q285.62 40.75 280.80 40.75L280.80 40.75Q275.98 40.75 273.02 43.63Q270.07 46.51 270.07 52.56L270.07 52.56L270.07 57.89Q270.07 63.94 273.02 66.82Q275.98 69.70 280.80 69.70ZM315.22 73.80L309.46 73.80L309.46 36.65L315.22 36.65L315.22 42.70L315.50 42.70Q316.08 41.33 316.94 40.07Q317.81 38.81 319.07 37.87Q320.33 36.94 322.06 36.36Q323.78 35.78 326.09 35.78L326.09 35.78Q331.92 35.78 335.45 39.49Q338.98 43.20 338.98 49.97L338.98 49.97L338.98 73.80L333.22 73.80L333.22 50.98Q333.22 45.86 330.98 43.38Q328.75 40.90 324.43 40.90L324.43 40.90Q322.70 40.90 321.05 41.33Q319.39 41.76 318.10 42.62Q316.80 43.49 316.01 44.86Q315.22 46.22 315.22 48.02L315.22 48.02L315.22 73.80ZM367.20 74.66L367.20 74.66Q363.31 74.66 360.18 73.30Q357.05 71.93 354.85 69.37Q352.66 66.82 351.50 63.25Q350.35 59.69 350.35 55.22L350.35 55.22Q350.35 50.83 351.50 47.23Q352.66 43.63 354.85 41.08Q357.05 38.52 360.18 37.15Q363.31 35.78 367.20 35.78L367.20 35.78Q371.09 35.78 374.22 37.15Q377.35 38.52 379.55 41.08Q381.74 43.63 382.90 47.23Q384.05 50.83 384.05 55.22L384.05 55.22Q384.05 59.69 382.90 63.25Q381.74 66.82 379.55 69.37Q377.35 71.93 374.22 73.30Q371.09 74.66 367.20 74.66ZM367.20 69.70L367.20 69.70Q372.02 69.70 374.98 66.82Q377.93 63.94 377.93 57.89L377.93 57.89L377.93 52.56Q377.93 46.51 374.98 43.63Q372.02 40.75 367.20 40.75L367.20 40.75Q362.38 40.75 359.42 43.63Q356.47 46.51 356.47 52.56L356.47 52.56L356.47 57.89Q356.47 63.94 359.42 66.82Q362.38 69.70 367.20 69.70Z"/></svg>