<?xml version="1.0" encoding="UTF-8"?>
<svg xmlns="http://www.w3.org/2000/svg" xmlns:xlink="http://www.w3.org/1999/xlink" width="169.20000000000002" height="84.168" viewBox="0 -7.915999999999997 169.20000000000002 100" preserveAspectRatio="xMinYMid meet"><path d="M12.17 42.62L33.26 20.81L41.04 20.81L12.17 50.54L12.17 42.62ZM16.27 43.56L20.30 39.89L42.26 66.02L34.92 66.02L16.27 43.56ZM7.27 66.02L7.27 20.81L12.96 20.81L12.96 66.02L7.27 66.02ZM77.22 66.02L72.32 66.02L71.60 58.46L71.60 43.70Q71.60 39.06 69.62 37.03Q67.64 34.99 63.68 34.99L63.68 34.99Q61.45 34.99 59.63 35.64Q57.82 36.29 56.75 37.64Q55.69 38.99 55.69 41.11L55.69 41.11L49.43 41.11Q49.43 37.37 51.26 35.08Q53.10 32.80 56.32 31.77Q59.54 30.74 63.68 30.74L63.68 30.74Q67.64 30.74 70.70 32.08Q73.76 33.41 75.49 36.31Q77.22 39.20 77.22 43.85L77.22 43.85L77.22 66.02ZM60.59 66.89L60.59 66.89Q56.34 66.89 53.57 65.38Q50.80 63.86 49.43 61.45Q48.06 59.04 48.06 56.38L48.06 56.38Q48.06 52.88 49.81 50.69Q51.55 48.49 54.58 47.47Q57.60 46.44 61.38 46.44L61.38 46.44Q64.08 46.44 66.80 46.98Q69.52 47.52 72.11 48.46L72.11 48.46L72.11 51.98Q69.95 51.12 67.23 50.62Q64.51 50.11 62.24 50.11L62.24 50.11Q58.79 50.11 56.41 51.53Q54.04 52.96 54.04 56.38L54.04 56.38Q54.04 58.90 55.85 60.70Q57.67 62.50 61.67 62.50L61.67 62.50Q64.48 62.50 66.73 61.18Q68.98 59.87 70.29 57.89Q71.60 55.91 71.60 53.93L71.60 53.93L72.97 53.93Q72.97 57.38 71.48 60.34Q69.98 63.29 67.21 65.09Q64.44 66.89 60.59 66.89ZM96.26 66.02L90.65 66.02L90.65 31.54L96.26 31.54L96.26 66.02ZM96.26 50.47L94.54 50.47Q94.54 43.92 95.80 39.58Q97.06 35.24 99.49 33.10Q101.92 30.96 105.41 30.96L105.41 30.96Q106.56 30.96 107.51 31.12Q108.47 31.28 109.44 31.61L109.44 31.61L109.08 37.15Q108.07 36.83 106.88 36.59Q105.70 36.36 104.76 36.36L104.76 36.36Q101.70 36.36 99.83 38.11Q97.96 39.85 97.11 43.02Q96.26 46.19 96.26 50.47L96.26 50.47ZM122.29 66.02L116.68 66.02L116.68 16.92L122.29 16.92L122.29 66.02ZM163.04 66.02L158.15 66.02L157.43 58.46L157.43 43.70Q157.43 39.06 155.45 37.03Q153.47 34.99 149.51 34.99L149.51 34.99Q147.28 34.99 145.46 35.64Q143.64 36.29 142.58 37.64Q141.52 38.99 141.52 41.11L141.52 41.11L135.25 41.11Q135.25 37.37 137.09 35.08Q138.92 32.80 142.15 31.77Q145.37 30.74 149.51 30.74L149.51 30.74Q153.47 30.74 156.53 32.08Q159.59 33.41 161.32 36.31Q163.04 39.20 163.04 43.85L163.04 43.85L163.04 66.02ZM146.41 66.89L146.41 66.89Q142.16 66.89 139.39 65.38Q136.62 63.86 135.25 61.45Q133.88 59.04 133.88 56.38L133.88 56.38Q133.88 52.88 135.63 50.69Q137.38 48.49 140.40 47.47Q143.42 46.44 147.20 46.44L147.20 46.44Q149.90 46.44 152.62 46.98Q155.34 47.52 157.93 48.46L157.93 48.46L157.93 51.98Q155.77 51.12 153.05 50.62Q150.34 50.11 148.07 50.11L148.07 50.11Q144.61 50.11 142.24 51.53Q139.86 52.96 139.86 56.38L139.86 56.38Q139.86 58.90 141.68 60.70Q143.50 62.50 147.49 62.50L147.49 62.50Q150.30 62.50 152.55 61.18Q154.80 59.87 156.11 57.89Q157.43 55.91 157.43 53.93L157.43 53.93L158.80 53.93Q158.80 57.38 157.30 60.34Q155.81 63.29 153.04 65.09Q150.26 66.89 146.41 66.89Z"/></svg>