<?xml version="1.0" encoding="UTF-8"?>
<svg xmlns="http://www.w3.org/2000/svg" xmlns:xlink="http://www.w3.org/1999/xlink" width="502.632" height="91.87200000000001" viewBox="0 -4.063999999999993 502.632 100" preserveAspectRatio="xMinYMid meet"><path d="M22.54 71.86L22.54 71.86Q17.06 71.86 12.74 69.91Q8.42 67.97 5.94 64.04Q3.46 60.12 3.46 54.22L3.46 54.22L3.46 52.70L9.43 52.70L9.43 54.22Q9.43 60.48 13.10 63.54Q16.78 66.60 22.54 66.60L22.54 66.60Q28.44 66.60 31.54 63.94Q34.63 61.27 34.63 57.24L34.63 57.24Q34.63 54.43 33.23 52.78Q31.82 51.12 29.30 50.08Q26.78 49.03 23.40 48.24L23.40 48.24L19.66 47.30Q15.26 46.15 11.88 44.50Q8.50 42.84 6.59 40.14Q4.68 37.44 4.68 33.19L4.68 33.19Q4.68 28.94 6.80 25.85Q8.93 22.75 12.78 21.10Q16.63 19.44 21.67 19.44L21.67 19.44Q26.78 19.44 30.85 21.20Q34.92 22.97 37.26 26.39Q39.60 29.81 39.60 34.99L39.60 34.99L39.60 38.02L33.62 38.02L33.62 34.99Q33.62 31.32 32.08 29.09Q30.53 26.86 27.83 25.78Q25.13 24.70 21.67 24.70L21.67 24.70Q16.70 24.70 13.68 26.89Q10.66 29.09 10.66 33.12L10.66 33.12Q10.66 35.78 11.95 37.44Q13.25 39.10 15.62 40.14Q18.00 41.18 21.31 41.98L21.31 41.98L25.06 42.91Q29.45 43.85 32.94 45.47Q36.43 47.09 38.52 49.86Q40.61 52.63 40.61 57.10L40.61 57.10Q40.61 61.56 38.38 64.87Q36.14 68.18 32.08 70.02Q28.01 71.86 22.54 71.86ZM55.80 85.25L50.11 85.25L50.11 35.64L55.66 35.64L55.66 41.47L56.66 41.47Q58.03 38.81 61.09 36.72Q64.15 34.63 69.62 34.63L69.62 34.63Q74.16 34.63 77.94 36.83Q81.72 39.02 83.99 43.06Q86.26 47.09 86.26 52.78L86.26 52.78L86.26 53.71Q86.26 59.33 84.02 63.43Q81.79 67.54 78.01 69.70Q74.23 71.86 69.62 71.86L69.62 71.86Q65.95 71.86 63.40 70.88Q60.84 69.91 59.26 68.40Q57.67 66.89 56.81 65.30L56.81 65.30L55.80 65.30L55.80 85.25ZM68.11 66.82L68.11 66.82Q73.58 66.82 77.00 63.32Q80.42 59.83 80.42 53.57L80.42 53.57L80.42 52.92Q80.42 46.66 77.00 43.16Q73.58 39.67 68.11 39.67L68.11 39.67Q62.71 39.67 59.22 43.16Q55.73 46.66 55.73 52.92L55.73 52.92L55.73 53.57Q55.73 59.83 59.22 63.32Q62.71 66.82 68.11 66.82ZM107.28 71.86L107.28 71.86Q103.61 71.86 100.58 70.56Q97.56 69.26 95.83 66.82Q94.10 64.37 94.10 60.84L94.10 60.84Q94.10 57.24 95.83 54.90Q97.56 52.56 100.58 51.37Q103.61 50.18 107.35 50.18L107.35 50.18L119.23 50.18L119.23 47.59Q119.23 43.85 117.04 41.69Q114.84 39.53 110.52 39.53L110.52 39.53Q106.27 39.53 103.90 41.58Q101.52 43.63 100.66 47.09L100.66 47.09L95.33 45.36Q96.19 42.41 98.06 40.00Q99.94 37.58 103.07 36.11Q106.20 34.63 110.59 34.63L110.59 34.63Q117.36 34.63 121.10 38.12Q124.85 41.62 124.85 47.95L124.85 47.95L124.85 63.86Q124.85 66.02 126.86 66.02L126.86 66.02L130.10 66.02L130.10 70.85L125.14 70.85Q122.76 70.85 121.32 69.52Q119.88 68.18 119.88 65.95L119.88 65.95L119.88 65.59L119.02 65.59Q118.22 66.96 116.89 68.44Q115.56 69.91 113.26 70.88Q110.95 71.86 107.28 71.86ZM107.93 66.96L107.93 66.96Q112.97 66.96 116.10 63.97Q119.23 60.98 119.23 55.58L119.23 55.58L119.23 54.79L107.57 54.79Q104.18 54.79 101.99 56.27Q99.79 57.74 99.79 60.70L99.79 60.70Q99.79 63.65 102.06 65.30Q104.33 66.96 107.93 66.96ZM153.07 71.86L153.07 71.86Q147.96 71.86 143.89 69.66Q139.82 67.46 137.48 63.36Q135.14 59.26 135.14 53.64L135.14 53.64L135.14 52.85Q135.14 47.16 137.48 43.09Q139.82 39.02 143.89 36.83Q147.96 34.63 153.07 34.63L153.07 34.63Q158.11 34.63 161.68 36.50Q165.24 38.38 167.29 41.47Q169.34 44.57 169.92 48.10L169.92 48.10L164.38 49.25Q164.02 46.66 162.68 44.50Q161.35 42.34 158.98 41.04Q156.60 39.74 153.14 39.74L153.14 39.74Q149.62 39.74 146.84 41.33Q144.07 42.91 142.45 45.86Q140.83 48.82 140.83 52.92L140.83 52.92L140.83 53.57Q140.83 57.67 142.45 60.62Q144.07 63.58 146.84 65.16Q149.62 66.74 153.14 66.74L153.14 66.74Q158.40 66.74 161.17 64.01Q163.94 61.27 164.59 57.24L164.59 57.24L170.21 58.46Q169.42 61.92 167.33 65.02Q165.24 68.11 161.68 69.98Q158.11 71.86 153.07 71.86ZM196.06 71.86L196.06 71.86Q190.73 71.86 186.70 69.59Q182.66 67.32 180.43 63.22Q178.20 59.11 178.20 53.71L178.20 53.71L178.20 52.85Q178.20 47.38 180.43 43.27Q182.66 39.17 186.62 36.90Q190.58 34.63 195.70 34.63L195.70 34.63Q200.66 34.63 204.48 36.76Q208.30 38.88 210.46 42.84Q212.62 46.80 212.62 52.13L212.62 52.13L212.62 54.72L183.89 54.72Q184.10 60.41 187.56 63.61Q191.02 66.82 196.20 66.82L196.20 66.82Q200.74 66.82 203.18 64.73Q205.63 62.64 206.93 59.76L206.93 59.76L211.82 62.14Q210.74 64.37 208.84 66.60Q206.93 68.83 203.87 70.34Q200.81 71.86 196.06 71.86ZM183.96 50.04L183.96 50.04L206.86 50.04Q206.57 45.14 203.51 42.41Q200.45 39.67 195.70 39.67L195.70 39.67Q190.87 39.67 187.78 42.41Q184.68 45.14 183.96 50.04ZM258.41 71.86L258.41 71.86Q252.79 71.86 248.51 69.52Q244.22 67.18 241.81 62.64Q239.40 58.10 239.40 51.41L239.40 51.41L239.40 39.89Q239.40 29.88 244.73 24.66Q250.06 19.44 259.06 19.44L259.06 19.44Q267.98 19.44 272.66 24.34Q277.34 29.23 277.34 37.44L277.34 37.44L277.34 37.80L271.37 37.80L271.37 37.30Q271.37 33.70 270.07 30.89Q268.78 28.08 266.04 26.46Q263.30 24.84 259.06 24.84L259.06 24.84Q252.65 24.84 249.05 28.76Q245.45 32.69 245.45 39.74L245.45 39.74L245.45 51.55Q245.45 58.61 249.05 62.53Q252.65 66.46 259.13 66.46L259.13 66.46Q265.46 66.46 268.45 62.86Q271.44 59.26 271.44 53.28L271.44 53.28L271.44 52.06L256.18 52.06L256.18 46.87L277.34 46.87L277.34 70.85L271.87 70.85L271.87 65.38L270.86 65.38Q270.07 66.96 268.63 68.47Q267.19 69.98 264.74 70.92Q262.30 71.86 258.41 71.86ZM294.26 70.85L288.58 70.85L288.58 35.64L294.12 35.64L294.12 39.96L295.13 39.96Q296.06 37.66 298.01 36.58Q299.95 35.50 303.12 35.50L303.12 35.50L307.30 35.50L307.30 40.68L302.76 40.68Q298.94 40.68 296.60 42.80Q294.26 44.93 294.26 49.39L294.26 49.39L294.26 70.85ZM330.70 71.86L330.70 71.86Q325.37 71.86 321.30 69.62Q317.23 67.39 314.96 63.32Q312.70 59.26 312.70 53.71L312.70 53.71L312.70 52.78Q312.70 47.30 314.96 43.20Q317.23 39.10 321.30 36.86Q325.37 34.63 330.70 34.63L330.70 34.63Q336.02 34.63 340.09 36.86Q344.16 39.10 346.43 43.20Q348.70 47.30 348.70 52.78L348.70 52.78L348.70 53.71Q348.70 59.26 346.43 63.32Q344.16 67.39 340.09 69.62Q336.02 71.86 330.70 71.86ZM330.70 66.74L330.70 66.74Q336.31 66.74 339.66 63.18Q343.01 59.62 343.01 53.57L343.01 53.57L343.01 52.92Q343.01 46.87 339.66 43.31Q336.31 39.74 330.70 39.74L330.70 39.74Q325.15 39.74 321.77 43.31Q318.38 46.87 318.38 52.92L318.38 52.92L318.38 53.57Q318.38 59.62 321.77 63.18Q325.15 66.74 330.70 66.74ZM379.80 70.85L370.44 70.85Q367.42 70.85 365.80 69.19Q364.18 67.54 364.18 64.66L364.18 64.66L364.18 40.61L353.59 40.61L353.59 35.64L364.18 35.64L364.18 23.11L369.86 23.11L369.86 35.64L381.38 35.64L381.38 40.61L369.86 40.61L369.86 63.79Q369.86 65.95 371.95 65.95L371.95 65.95L379.80 65.95L379.80 70.85ZM405.43 71.86L405.43 71.86Q400.10 71.86 396.07 69.59Q392.04 67.32 389.81 63.22Q387.58 59.11 387.58 53.71L387.58 53.71L387.58 52.85Q387.58 47.38 389.81 43.27Q392.04 39.17 396 36.90Q399.96 34.63 405.07 34.63L405.07 34.63Q410.04 34.63 413.86 36.76Q417.67 38.88 419.83 42.84Q421.99 46.80 421.99 52.13L421.99 52.13L421.99 54.72L393.26 54.72Q393.48 60.41 396.94 63.61Q400.39 66.82 405.58 66.82L405.58 66.82Q410.11 66.82 412.56 64.73Q415.01 62.64 416.30 59.76L416.30 59.76L421.20 62.14Q420.12 64.37 418.21 66.60Q416.30 68.83 413.24 70.34Q410.18 71.86 405.43 71.86ZM393.34 50.04L393.34 50.04L416.23 50.04Q415.94 45.14 412.88 42.41Q409.82 39.67 405.07 39.67L405.07 39.67Q400.25 39.67 397.15 42.41Q394.06 45.14 393.34 50.04ZM446.11 71.86L446.11 71.86Q439.56 71.86 435.06 68.83Q430.56 65.81 429.62 59.26L429.62 59.26L435.02 58.03Q435.60 61.49 437.18 63.47Q438.77 65.45 441.11 66.28Q443.45 67.10 446.11 67.10L446.11 67.10Q450.07 67.10 452.38 65.52Q454.68 63.94 454.68 61.27L454.68 61.27Q454.68 58.54 452.48 57.42Q450.29 56.30 446.47 55.58L446.47 55.58L443.52 55.08Q440.14 54.50 437.33 53.28Q434.52 52.06 432.86 49.97Q431.21 47.88 431.21 44.71L431.21 44.71Q431.21 39.96 434.88 37.30Q438.55 34.63 444.60 34.63L444.60 34.63Q450.58 34.63 454.28 37.33Q457.99 40.03 459.07 44.93L459.07 44.93L453.74 46.30Q453.10 42.48 450.65 40.93Q448.20 39.38 444.60 39.38L444.60 39.38Q441 39.38 438.91 40.72Q436.82 42.05 436.82 44.64L436.82 44.64Q436.82 47.16 438.80 48.35Q440.78 49.54 444.10 50.11L444.10 50.11L447.05 50.62Q450.79 51.26 453.78 52.38Q456.77 53.50 458.53 55.58Q460.30 57.67 460.30 61.06L460.30 61.06Q460.30 66.24 456.44 69.05Q452.59 71.86 446.11 71.86ZM475.56 70.85L469.87 70.85L469.87 20.45L475.56 20.45L475.56 50.11L476.57 50.11L492.70 35.64L500.62 35.64L481.10 52.78L501.19 70.85L493.34 70.85L476.57 55.51L475.56 55.51L475.56 70.85Z"/></svg>