<?xml version="1.0" encoding="UTF-8"?>
<svg xmlns="http://www.w3.org/2000/svg" xmlns:xlink="http://www.w3.org/1999/xlink" width="580.95703125" height="80.61328125" viewBox="0 -9.693359375 580.95703125 100" preserveAspectRatio="xMinYMid meet"><path d="M30.13 43.42L30.13 43.42L30.13 43.21Q30.13 39.90 24.47 26.68L24.47 26.68Q23.48 24.40 23.45 24.40L23.45 24.40L22.43 26.75Q16.59 40.36 16.59 43.28L16.59 43.28Q16.59 43.77 17.21 43.80Q17.82 43.84 18.14 43.84L18.14 43.84L20.88 43.91L23.38 43.91L23.63 43.88Q30.13 43.88 30.13 43.42ZM0.81 62.16L0.81 62.16Q0.81 61.28 2.81 60.12Q4.82 58.96 5.77 57.16Q6.71 55.37 8.44 50.68Q10.16 45.98 13.13 38.85Q16.10 31.71 17.84 26.03Q19.58 20.36 20.21 18.84L20.21 18.84Q21.66 15.40 24.29 15.40L24.29 15.40L25.28 15.40Q25.95 15.40 26.93 16.14L26.93 16.14Q28.93 17.65 31.11 22.61L31.11 22.61Q31.85 24.29 33.33 28.39Q34.80 32.48 39.23 44.40Q43.66 56.32 44.19 57.38L44.19 57.38Q45.07 59.20 47.18 60.31Q49.29 61.42 49.29 62.09L49.29 62.09Q49.29 63.56 47.53 63.91L47.53 63.91Q46.34 64.16 41.48 64.16L41.48 64.16L39.45 64.20Q32.94 64.20 32.94 62.44L32.94 62.44Q32.94 62.12 33.77 60.93Q34.59 59.73 34.59 57.90Q34.59 56.07 33.28 52.66Q31.96 49.25 31.06 48.45Q30.16 47.64 23.41 47.64Q16.66 47.64 15.54 48.38Q14.41 49.11 13.11 52.35Q11.81 55.58 11.81 57.60Q11.81 59.63 13.06 61.17Q14.31 62.72 14.31 62.79L14.31 62.79Q14.31 64.05 10.00 64.05Q5.70 64.05 3.25 63.72Q0.81 63.39 0.81 62.16ZM68.91 64.72L68.91 64.72L68.10 64.72Q66.45 64.72 64.83 61.66L64.83 61.66Q64.02 60.12 59.87 49.54Q55.72 38.95 54.81 37.32Q53.89 35.68 51.96 34.40Q50.03 33.12 50.03 32.45L50.03 32.45Q50.03 31.36 51.57 31.04Q53.12 30.73 58.64 30.73Q64.16 30.73 64.16 32.31L64.16 32.31Q64.16 32.41 63.77 33.45Q63.39 34.49 63.39 35.72L63.39 35.72Q63.39 40.54 68.87 53.23L68.87 53.23Q69.89 55.55 70.31 55.55Q70.73 55.55 71.68 53.44L71.68 53.44Q77.34 40.92 77.34 36.07L77.34 36.07Q77.34 34.88 76.43 33.54Q75.52 32.20 75.52 32.17L75.52 32.17Q75.52 30.66 82.05 30.66L82.05 30.66L82.90 30.66Q87.19 30.66 87.19 32.13L87.19 32.13Q87.19 33.40 85.32 34.61Q83.46 35.82 82.48 37.62L82.48 37.62Q82.02 38.43 77.80 48.88Q73.58 59.34 72.11 62.03Q70.63 64.72 68.91 64.72ZM112.78 41.41L112.78 41.41L112.78 40.32Q112.78 37.72 110.92 35.63Q109.05 33.54 106.35 33.54L106.35 33.54L105.68 33.54Q105.19 33.61 105.01 33.61L105.01 33.61Q102.55 33.61 100.35 36.42Q98.16 39.23 98.16 42.43L98.16 42.43L98.16 42.89Q98.16 44.02 99.49 44.02L99.49 44.02Q100.02 44.12 100.05 44.12L100.05 44.12L100.86 44.16L101.07 44.16L101.32 44.12L108.11 43.73L109.37 43.59Q112.78 43.59 112.78 41.41ZM98.16 50.73L98.16 50.73Q98.16 54.74 101.18 57.45Q104.20 60.15 108.84 60.15L108.84 60.15Q110.71 60.15 112.24 59.61Q113.77 59.06 115.58 58.29Q117.39 57.52 117.84 57.52L117.84 57.52Q119.25 57.52 119.25 59.03L119.25 59.03Q119.25 61.07 114.05 63.39L114.05 63.39Q110.67 64.90 106.80 64.90L106.80 64.90L106.03 64.90Q99.42 64.90 95.06 60.89L95.06 60.89Q92.71 58.71 91.41 55.32Q90.11 51.93 90.11 48.02L90.11 48.02L90.14 47.21L90.14 46.41Q90.14 43.03 91.69 39.76L91.69 39.76Q93.27 36.49 95.45 34.38L95.45 34.38Q100.05 29.95 106.38 29.92L106.38 29.92Q115.95 29.92 119.11 37.37L119.11 37.37Q120.09 39.73 120.09 41.70L120.09 41.70L120.09 42.40Q120.09 44.82 118.09 45.65Q116.09 46.48 108.63 47.00Q101.18 47.53 100.55 47.71L100.55 47.71Q98.16 48.30 98.16 50.73ZM144.11 62.89L144.11 62.89Q144.11 64.27 137.74 64.27L137.74 64.27L134.02 64.27L132.54 64.20L130.32 64.16Q126.60 64.16 126.60 62.82L126.60 62.82Q126.60 61.88 128.27 60.80Q129.94 59.73 130.52 58.03Q131.10 56.32 131.10 47.95Q131.10 39.59 130.55 37.79Q130.01 36 128.85 35.23L128.85 35.23Q126.77 33.86 126.77 33.22Q126.77 32.59 127.51 32.10L127.51 32.10Q129.69 30.62 134.89 30.62L134.89 30.62L135.56 30.62Q137.57 30.62 138.41 32.64Q139.25 34.66 139.78 34.66Q140.31 34.66 141.59 33.68Q142.88 32.70 144.69 31.71Q146.50 30.73 148.71 30.73Q150.93 30.73 152.10 31.87Q153.28 33.01 153.28 34.80L153.28 34.80Q153.25 36.63 152.33 37.55Q151.42 38.46 150.36 38.46Q149.31 38.46 147.59 37.60Q145.86 36.74 144.70 36.74Q143.54 36.74 142.17 37.71Q140.80 38.67 139.83 41.15Q138.87 43.63 138.87 49.62Q138.87 55.62 139.71 57.36Q140.55 59.10 142.33 60.54Q144.11 61.98 144.11 62.89ZM170.89 18.35L170.89 19.13Q170.89 20.67 169.58 21.99Q168.26 23.31 166.96 23.31L166.96 23.31Q166.68 23.38 166.50 23.38L166.50 23.38L165.73 23.45Q163.97 23.45 162.58 22.29Q161.19 21.13 161.19 19.30L161.19 19.30L161.19 18.67Q161.19 16.84 162.65 15.59Q164.11 14.34 166.01 14.34L166.01 14.34L166.18 14.34L167.38 14.48Q168.47 14.48 169.65 15.66Q170.82 16.84 170.82 18.04L170.82 18.04L170.89 18.35ZM159.71 34.80Q157.89 33.93 157.89 33.15Q157.89 32.38 158.63 31.92L158.63 31.92Q161.19 30.38 166.75 30.38L166.75 30.38L167.77 30.38Q169.66 30.38 169.91 32.13L169.91 32.13Q170.05 33.08 170.05 44.91Q170.05 56.74 170.54 58.48Q171.04 60.22 172.90 61.15Q174.76 62.09 174.76 63.04L174.76 63.04Q174.76 64.37 166.04 64.37L166.04 64.37L164.99 64.41L160.70 64.41Q158.13 64.41 158.13 63.14L158.13 63.14Q158.13 62.09 159.70 61.10Q161.26 60.12 161.86 58.92L161.86 58.92Q162.53 57.62 162.53 52.84L162.53 52.84L162.56 51.71L162.56 50.63L162.60 48.97L162.60 47.88L162.63 46.79Q162.63 38.46 162.09 37.07Q161.54 35.68 159.71 34.80ZM198.95 47.99L198.95 47.99L198.35 47.99Q193.75 47.99 190.67 50.04Q187.59 52.10 187.59 55.16L187.59 55.16L187.59 55.86Q187.59 57.66 188.70 59.08Q189.81 60.50 191.57 60.50L191.57 60.50L191.99 60.57L193.04 60.57Q196.70 60.57 199.02 57.59L199.02 57.59Q200.04 56.29 200.04 52.24L200.04 52.24Q200.04 51.93 200.04 51.61L200.04 51.61L200.07 50.77L200.07 49.92Q200.07 47.99 198.95 47.99ZM181.86 36.63L181.86 36.63Q181.86 34.03 185.99 31.97Q190.13 29.92 194.55 29.92L194.55 29.92Q194.70 29.92 194.84 29.92L194.84 29.92Q199.05 29.92 201.59 30.94L201.59 30.94Q206.72 32.98 207.46 39.59L207.46 39.59Q207.53 40.25 207.53 48.43Q207.53 56.60 207.97 58.01Q208.41 59.41 210.36 60.08Q212.31 60.75 212.31 61.35L212.31 61.35Q212.31 62.61 211.04 63.28L211.04 63.28Q208.51 64.62 206.07 64.62Q203.63 64.62 202.43 63.49L202.43 63.49Q200.29 61.49 200.14 61.49Q200.00 61.49 196.17 63.26Q192.34 65.04 189.46 65.04L189.46 65.04Q185.13 65.04 182.67 62.65Q180.21 60.26 180.21 56.85L180.21 56.85L180.21 55.97Q180.21 52.31 183.38 49.54Q186.54 46.76 194.77 45.21L194.77 45.21Q197.75 44.65 198.53 44.16L198.53 44.16Q200.07 43.17 200.07 40.15Q200.07 37.13 198.46 35.51Q196.84 33.89 194.13 33.89Q191.43 33.89 188.91 37.04Q186.40 40.18 184.32 40.18L184.32 40.18Q181.86 40.18 181.86 36.63ZM259.52 20.67Q256.64 18.70 253.04 18.70Q249.43 18.70 247.15 20.58Q244.86 22.46 244.86 25.86Q244.86 29.25 248.27 31.85L248.27 31.85Q250.31 33.43 256.61 36.14Q262.90 38.85 265.36 41.13L265.36 41.13Q270.07 45.49 270.07 50.20L270.07 50.20L270.07 51.47Q270.07 57.30 265.43 60.96L265.43 60.96Q263.29 62.65 260.09 63.65Q256.89 64.65 253.69 64.65L253.69 64.65L252.39 64.65Q245.14 64.65 239.70 62.47L239.70 62.47Q237.23 61.49 237.23 57.09L237.23 57.09L237.23 55.86Q237.23 50.66 239.03 50.66L239.03 50.66Q240.26 50.66 242.37 54Q244.48 57.34 247.24 59.03Q250.00 60.71 253.90 60.71Q257.80 60.71 260.19 58.66Q262.58 56.60 262.58 53.58L262.58 53.58Q262.58 49.43 258.71 46.58L258.71 46.58Q257.06 45.39 250.42 42.31Q243.77 39.23 241.21 36.56L241.21 36.56Q237.69 32.91 237.69 27.63Q237.69 22.36 241.45 18.88L241.45 18.88Q243.53 16.95 246.62 15.87Q249.71 14.80 252.95 14.80L252.95 14.80L254.25 14.80Q255.59 14.80 258.05 15.26L258.05 15.26L259.28 15.50Q261.46 15.93 261.63 15.96L261.63 15.96L262.72 16.03L263.78 16.07Q265.25 16.17 265.85 16.42L265.85 16.42Q267.93 17.26 267.93 22.29Q267.93 27.32 265.96 27.32L265.96 27.32Q264.97 27.32 263.00 24.50Q261.04 21.69 259.52 20.67L259.52 20.67ZM298.69 41.41L298.69 41.41L298.69 40.32Q298.69 37.72 296.82 35.63Q294.96 33.54 292.25 33.54L292.25 33.54L291.59 33.54Q291.09 33.61 290.92 33.61L290.92 33.61Q288.46 33.61 286.26 36.42Q284.06 39.23 284.06 42.43L284.06 42.43L284.06 42.89Q284.06 44.02 285.40 44.02L285.40 44.02Q285.93 44.12 285.96 44.12L285.96 44.12L286.77 44.16L286.98 44.16L287.23 44.12L294.01 43.73L295.28 43.59Q298.69 43.59 298.69 41.41ZM284.06 50.73L284.06 50.73Q284.06 54.74 287.09 57.45Q290.11 60.15 294.75 60.15L294.75 60.15Q296.61 60.15 298.14 59.61Q299.67 59.06 301.48 58.29Q303.29 57.52 303.75 57.52L303.75 57.52Q305.16 57.52 305.16 59.03L305.16 59.03Q305.16 61.07 299.95 63.39L299.95 63.39Q296.58 64.90 292.71 64.90L292.71 64.90L291.94 64.90Q285.33 64.90 280.97 60.89L280.97 60.89Q278.61 58.71 277.31 55.32Q276.01 51.93 276.01 48.02L276.01 48.02L276.05 47.21L276.05 46.41Q276.05 43.03 277.59 39.76L277.59 39.76Q279.18 36.49 281.36 34.38L281.36 34.38Q285.96 29.95 292.29 29.92L292.29 29.92Q301.85 29.92 305.02 37.37L305.02 37.37Q306 39.73 306 41.70L306 41.70L306 42.40Q306 44.82 304.00 45.65Q301.99 46.48 294.54 47.00Q287.09 47.53 286.45 47.71L286.45 47.71Q284.06 48.30 284.06 50.73ZM330.01 62.89L330.01 62.89Q330.01 64.27 323.65 64.27L323.65 64.27L319.92 64.27L318.45 64.20L316.23 64.16Q312.50 64.16 312.50 62.82L312.50 62.82Q312.50 61.88 314.17 60.80Q315.84 59.73 316.42 58.03Q317.00 56.32 317.00 47.95Q317.00 39.59 316.46 37.79Q315.91 36 314.75 35.23L314.75 35.23Q312.68 33.86 312.68 33.22Q312.68 32.59 313.42 32.10L313.42 32.10Q315.60 30.62 320.80 30.62L320.80 30.62L321.47 30.62Q323.47 30.62 324.32 32.64Q325.16 34.66 325.69 34.66Q326.21 34.66 327.50 33.68Q328.78 32.70 330.59 31.71Q332.40 30.73 334.62 30.73Q336.83 30.73 338.01 31.87Q339.19 33.01 339.19 34.80L339.19 34.80Q339.15 36.63 338.24 37.55Q337.32 38.46 336.27 38.46Q335.21 38.46 333.49 37.60Q331.77 36.74 330.61 36.74Q329.45 36.74 328.08 37.71Q326.71 38.67 325.74 41.15Q324.77 43.63 324.77 49.62Q324.77 55.62 325.62 57.36Q326.46 59.10 328.24 60.54Q330.01 61.98 330.01 62.89ZM356.80 18.35L356.80 19.13Q356.80 20.67 355.48 21.99Q354.16 23.31 352.86 23.31L352.86 23.31Q352.58 23.38 352.41 23.38L352.41 23.38L351.63 23.45Q349.88 23.45 348.49 22.29Q347.10 21.13 347.10 19.30L347.10 19.30L347.10 18.67Q347.10 16.84 348.56 15.59Q350.02 14.34 351.91 14.34L351.91 14.34L352.09 14.34L353.29 14.48Q354.38 14.48 355.55 15.66Q356.73 16.84 356.73 18.04L356.73 18.04L356.80 18.35ZM345.62 34.80Q343.79 33.93 343.79 33.15Q343.79 32.38 344.53 31.92L344.53 31.92Q347.10 30.38 352.65 30.38L352.65 30.38L353.67 30.38Q355.57 30.38 355.82 32.13L355.82 32.13Q355.96 33.08 355.96 44.91Q355.96 56.74 356.45 58.48Q356.94 60.22 358.80 61.15Q360.67 62.09 360.67 63.04L360.67 63.04Q360.67 64.37 351.95 64.37L351.95 64.37L350.89 64.41L346.61 64.41Q344.04 64.41 344.04 63.14L344.04 63.14Q344.04 62.09 345.60 61.10Q347.17 60.12 347.77 58.92L347.77 58.92Q348.43 57.62 348.43 52.84L348.43 52.84L348.47 51.71L348.47 50.63L348.50 48.97L348.50 47.88L348.54 46.79Q348.54 38.46 347.99 37.07Q347.45 35.68 345.62 34.80ZM378.88 65.07L378.88 65.07L376.95 65.07Q366.64 65.07 366.64 63.49L366.64 63.49Q366.64 62.58 368.38 61.49Q370.13 60.40 370.67 58.48Q371.21 56.57 371.21 47.64Q371.21 38.71 370.71 37.48Q370.20 36.25 368.82 35.31Q367.45 34.38 367.45 33.63Q367.45 32.87 369.02 30.92Q370.58 28.97 371.21 26.23L371.21 26.23Q372.83 19.41 375.68 16.31L375.68 16.31Q379.30 12.34 385.84 12.34L385.84 12.34Q389.00 12.34 390.90 13.45Q392.80 14.55 392.80 16.31Q392.80 18.07 391.87 18.91Q390.94 19.76 389.90 19.76Q388.86 19.76 386.53 18.49Q384.19 17.23 382.99 17.23L382.99 17.23Q381.06 17.23 380.02 19.63Q378.98 22.04 378.98 24.93Q378.98 27.81 380.18 29.14L380.18 29.14Q380.60 29.60 383.31 30.99Q386.02 32.38 386.02 33.43L386.02 33.43Q386.02 34.24 383.24 35.07Q380.46 35.89 379.79 36.88L379.79 36.88Q378.67 38.53 378.67 47.55Q378.67 56.57 379.32 58.39Q379.97 60.22 381.87 61.59Q383.77 62.96 383.77 63.70L383.77 63.70Q383.77 65.07 378.88 65.07ZM434.29 64.34L434.29 64.34L433.23 64.34L432.18 64.30L426.94 64.30Q414.46 64.30 413.47 64.13L413.47 64.13Q411.64 63.81 411.64 62.58L411.64 62.58Q411.64 62.05 413.56 60.71Q415.48 59.38 416.06 56.87Q416.64 54.35 416.64 38.39Q416.64 22.43 416.23 21.04Q415.83 19.65 414.18 18.95L414.18 18.95Q411.57 17.82 411.57 16.56Q411.57 15.29 415.51 15.29L415.51 15.29L417.62 15.29L418.64 15.33L421.80 15.36Q430.31 15.36 430.31 16.63L430.31 16.63Q430.31 17.05 427.82 19.48L427.82 19.48Q426.41 20.85 425.79 24.17Q425.18 27.49 425.18 41.87Q425.18 56.25 425.62 57.59Q426.06 58.92 427.68 59.45L427.68 59.45Q428.66 59.77 431.54 59.77L431.54 59.77Q437.77 59.77 440.86 58.15L440.86 58.15Q442.62 57.23 444.66 54.39Q446.70 51.54 447.84 51.54Q448.98 51.54 448.98 53.02L448.98 53.02L448.98 53.93Q448.98 61.66 447.08 63.39L447.08 63.39Q446.03 64.34 434.29 64.34ZM466.66 18.35L466.66 19.13Q466.66 20.67 465.35 21.99Q464.03 23.31 462.73 23.31L462.73 23.31Q462.45 23.38 462.27 23.38L462.27 23.38L461.50 23.45Q459.74 23.45 458.35 22.29Q456.96 21.13 456.96 19.30L456.96 19.30L456.96 18.67Q456.96 16.84 458.42 15.59Q459.88 14.34 461.78 14.34L461.78 14.34L461.95 14.34L463.15 14.48Q464.24 14.48 465.42 15.66Q466.59 16.84 466.59 18.04L466.59 18.04L466.66 18.35ZM455.48 34.80Q453.66 33.93 453.66 33.15Q453.66 32.38 454.39 31.92L454.39 31.92Q456.96 30.38 462.52 30.38L462.52 30.38L463.54 30.38Q465.43 30.38 465.68 32.13L465.68 32.13Q465.82 33.08 465.82 44.91Q465.82 56.74 466.31 58.48Q466.80 60.22 468.67 61.15Q470.53 62.09 470.53 63.04L470.53 63.04Q470.53 64.37 461.81 64.37L461.81 64.37L460.76 64.41L456.47 64.41Q453.90 64.41 453.90 63.14L453.90 63.14Q453.90 62.09 455.47 61.10Q457.03 60.12 457.63 58.92L457.63 58.92Q458.30 57.62 458.30 52.84L458.30 52.84L458.33 51.71L458.33 50.63L458.37 48.97L458.37 47.88L458.40 46.79Q458.40 38.46 457.86 37.07Q457.31 35.68 455.48 34.80ZM494.86 34.31L494.86 34.31L493.84 34.31Q491.98 34.31 490.20 35.35Q488.43 36.39 487.46 37.90Q486.49 39.41 486.49 46.55L486.49 46.55L486.49 52.14Q486.49 57.34 488.07 59.33Q489.66 61.31 493.52 61.31L493.52 61.31L494.26 61.31Q497.99 61.31 500.27 57.78Q502.56 54.25 502.56 49.75L502.56 49.75L502.63 48.94L502.63 46.44Q502.63 41.27 500.38 37.79Q498.13 34.31 494.86 34.31ZM478.48 60.08L478.48 60.08Q478.48 59.70 478.88 56.53Q479.29 53.37 479.29 48.87L479.29 48.87L479.29 38.74L479.32 37.02L479.32 29.99L479.29 28.27L479.29 26.54L479.25 25.70Q479.21 24.82 479.21 22.78L479.21 22.78Q479.21 18.60 476.98 17.54Q474.75 16.49 474.75 15.50L474.75 15.50Q474.75 14.77 475.77 14.27L475.77 14.27Q478.30 13.04 483.54 13.04L483.54 13.04Q485.65 13.04 486.25 15.43L486.25 15.43Q486.60 16.80 486.60 24.96Q486.60 33.12 487.90 33.12L487.90 33.12Q488.71 33.12 491.48 31.99Q494.26 30.87 497.29 30.87L497.29 30.87Q503.09 30.87 506.90 35.30Q510.71 39.73 510.71 46.86L510.71 46.86L510.71 47.78Q510.71 51.22 509.48 54.46L509.48 54.46Q507.06 60.79 501.29 63.35L501.29 63.35Q498.20 64.72 494.93 64.72L494.93 64.72L494.09 64.72Q492.71 64.72 489.90 64.05Q487.09 63.39 484.31 63.39L484.31 63.39L481.43 63.63Q478.48 63.63 478.48 60.08ZM534.73 62.89L534.73 62.89Q534.73 64.27 528.36 64.27L528.36 64.27L524.64 64.27L523.16 64.20L520.95 64.16Q517.22 64.16 517.22 62.82L517.22 62.82Q517.22 61.88 518.89 60.80Q520.56 59.73 521.14 58.03Q521.72 56.32 521.72 47.95Q521.72 39.59 521.17 37.79Q520.63 36 519.47 35.23L519.47 35.23Q517.39 33.86 517.39 33.22Q517.39 32.59 518.13 32.10L518.13 32.10Q520.31 30.62 525.52 30.62L525.52 30.62L526.18 30.62Q528.19 30.62 529.03 32.64Q529.88 34.66 530.40 34.66Q530.93 34.66 532.21 33.68Q533.50 32.70 535.31 31.71Q537.12 30.73 539.33 30.73Q541.55 30.73 542.72 31.87Q543.90 33.01 543.90 34.80L543.90 34.80Q543.87 36.63 542.95 37.55Q542.04 38.46 540.98 38.46Q539.93 38.46 538.21 37.60Q536.48 36.74 535.32 36.74Q534.16 36.74 532.79 37.71Q531.42 38.67 530.46 41.15Q529.49 43.63 529.49 49.62Q529.49 55.62 530.33 57.36Q531.18 59.10 532.95 60.54Q534.73 61.98 534.73 62.89ZM570.30 41.41L570.30 41.41L570.30 40.32Q570.30 37.72 568.44 35.63Q566.58 33.54 563.87 33.54L563.87 33.54L563.20 33.54Q562.71 33.61 562.54 33.61L562.54 33.61Q560.07 33.61 557.88 36.42Q555.68 39.23 555.68 42.43L555.68 42.43L555.68 42.89Q555.68 44.02 557.02 44.02L557.02 44.02Q557.54 44.12 557.58 44.12L557.58 44.12L558.39 44.16L558.60 44.16L558.84 44.12L565.63 43.73L566.89 43.59Q570.30 43.59 570.30 41.41ZM555.68 50.73L555.68 50.73Q555.68 54.74 558.70 57.45Q561.73 60.15 566.37 60.15L566.37 60.15Q568.23 60.15 569.76 59.61Q571.29 59.06 573.10 58.29Q574.91 57.52 575.37 57.52L575.37 57.52Q576.77 57.52 576.77 59.03L576.77 59.03Q576.77 61.07 571.57 63.39L571.57 63.39Q568.20 64.90 564.33 64.90L564.33 64.90L563.55 64.90Q556.95 64.90 552.59 60.89L552.59 60.89Q550.23 58.71 548.93 55.32Q547.63 51.93 547.63 48.02L547.63 48.02L547.66 47.21L547.66 46.41Q547.66 43.03 549.21 39.76L549.21 39.76Q550.79 36.49 552.97 34.38L552.97 34.38Q557.58 29.95 563.91 29.92L563.91 29.92Q573.47 29.92 576.63 37.37L576.63 37.37Q577.62 39.73 577.62 41.70L577.62 41.70L577.62 42.40Q577.62 44.82 575.61 45.65Q573.61 46.48 566.16 47.00Q558.70 47.53 558.07 47.71L558.07 47.71Q555.68 48.30 555.68 50.73Z"/></svg>