<?xml version="1.0" encoding="UTF-8"?>
<svg xmlns="http://www.w3.org/2000/svg" xmlns:xlink="http://www.w3.org/1999/xlink" width="604.8" height="75.528" viewBox="0 -12.235999999999997 604.8 100" preserveAspectRatio="xMinYMid meet"><path d="M23.26 61.85L4.68 61.85L4.68 57.67L11.52 57.67L11.52 21.17L5.04 21.17L5.04 16.99L22.90 16.99L22.90 21.17L16.06 21.17L16.06 57.74L23.26 57.74L23.26 61.85ZM37.15 61.85L32.83 61.85L32.83 28.94L37.15 28.94L37.15 34.49Q38.16 32.47 39.53 31.07Q40.90 29.66 42.52 28.91Q44.14 28.15 45.94 28.15L45.94 28.15Q48.24 28.15 50.00 29.38Q51.77 30.60 52.78 33.55Q53.78 36.50 53.78 41.62L53.78 41.62L53.78 61.85L49.46 61.85L49.46 41.76Q49.46 38.30 48.89 36.25Q48.31 34.20 47.23 33.30Q46.15 32.40 44.78 32.40L44.78 32.40Q43.42 32.40 42.08 33.12Q40.75 33.84 39.64 35.17Q38.52 36.50 37.84 38.38Q37.15 40.25 37.15 42.62L37.15 42.62L37.15 61.85ZM73.94 62.64L73.94 62.64Q70.99 62.64 68.54 61.42Q66.10 60.19 64.37 57.96Q62.64 55.73 61.70 52.56Q60.77 49.39 60.77 45.43L60.77 45.43Q60.77 41.26 61.78 38.05Q62.78 34.85 64.58 32.69Q66.38 30.53 68.80 29.41Q71.21 28.30 73.87 28.30L73.87 28.30Q77.26 28.30 79.81 29.74Q82.37 31.18 83.88 33.84L83.88 33.84L81.29 37.01L80.86 37.58L80.50 37.30Q80.35 36.72 80.21 36.11Q80.06 35.50 79.27 34.56L79.27 34.56Q78.05 33.41 76.72 32.94Q75.38 32.47 73.51 32.47L73.51 32.47Q72.00 32.47 70.52 33.23Q69.05 33.98 67.90 35.53Q66.74 37.08 66.06 39.53Q65.38 41.98 65.38 45.22L65.38 45.22Q65.38 48.38 66.02 50.83Q66.67 53.28 67.82 54.94Q68.98 56.59 70.60 57.42Q72.22 58.25 74.23 58.25L74.23 58.25Q75.53 58.25 76.75 57.85Q77.98 57.46 79.09 56.63Q80.21 55.80 81.07 54.50L81.07 54.50L83.45 58.18Q81.58 60.41 79.16 61.52Q76.75 62.64 73.94 62.64L73.94 62.64ZM100.80 62.42L100.80 62.42Q97.27 62.42 94.54 60.44Q91.80 58.46 90.22 54.65Q88.63 50.83 88.63 45.36L88.63 45.36Q88.63 39.82 90.22 36Q91.80 32.18 94.54 30.20Q97.27 28.22 100.80 28.22L100.80 28.22Q104.40 28.22 107.14 30.20Q109.87 32.18 111.42 36Q112.97 39.82 112.97 45.36L112.97 45.36Q112.97 50.83 111.42 54.65Q109.87 58.46 107.14 60.44Q104.40 62.42 100.80 62.42ZM100.80 58.25L100.80 58.25Q103.10 58.25 104.76 56.74Q106.42 55.22 107.35 52.34Q108.29 49.46 108.29 45.29L108.29 45.29Q108.29 41.04 107.35 38.16Q106.42 35.28 104.76 33.84Q103.10 32.40 100.80 32.40L100.80 32.40Q98.64 32.40 96.95 33.84Q95.26 35.28 94.28 38.16Q93.31 41.04 93.31 45.29L93.31 45.29Q93.31 49.46 94.28 52.34Q95.26 55.22 96.95 56.74Q98.64 58.25 100.80 58.25ZM123.55 61.85L119.23 61.85L119.23 28.94L123.55 28.94L123.55 34.49Q124.56 32.47 125.93 31.07Q127.30 29.66 128.92 28.91Q130.54 28.15 132.34 28.15L132.34 28.15Q134.64 28.15 136.40 29.38Q138.17 30.60 139.18 33.55Q140.18 36.50 140.18 41.62L140.18 41.62L140.18 61.85L135.86 61.85L135.86 41.76Q135.86 38.30 135.29 36.25Q134.71 34.20 133.63 33.30Q132.55 32.40 131.18 32.40L131.18 32.40Q129.82 32.40 128.48 33.12Q127.15 33.84 126.04 35.17Q124.92 36.50 124.24 38.38Q123.55 40.25 123.55 42.62L123.55 42.62L123.55 61.85ZM158.18 62.57L158.18 62.57Q155.74 62.57 153.76 62.03Q151.78 61.49 150.08 60.52Q148.39 59.54 147.02 58.18L147.02 58.18L149.40 53.71L149.76 53.06L150.19 53.28Q150.34 53.86 150.48 54.47Q150.62 55.08 151.42 55.94L151.42 55.94Q152.64 57.17 154.30 57.85Q155.95 58.54 158.33 58.54L158.33 58.54Q160.34 58.54 161.78 57.89Q163.22 57.24 164.02 55.98Q164.81 54.72 164.81 52.99L164.81 52.99Q164.81 51.91 164.48 51.08Q164.16 50.26 163.44 49.54Q162.72 48.82 161.50 48.13Q160.27 47.45 158.47 46.73L158.47 46.73Q155.38 45.58 153.11 44.14Q150.84 42.70 149.62 40.86Q148.39 39.02 148.39 36.50L148.39 36.50Q148.39 34.06 149.51 32.18Q150.62 30.31 152.86 29.23Q155.09 28.15 158.40 28.15L158.40 28.15Q160.27 28.15 161.82 28.44Q163.37 28.73 164.63 29.34Q165.89 29.95 166.93 30.89Q167.98 31.82 168.84 33.05L168.84 33.05L166.39 36.58L165.96 37.15L165.60 36.86Q165.46 36.29 165.35 35.64Q165.24 34.99 164.52 34.13L164.52 34.13Q163.22 32.98 161.68 32.44Q160.13 31.90 158.54 31.90L158.54 31.90Q155.95 31.90 154.40 33.05Q152.86 34.20 152.86 36.14L152.86 36.14Q152.86 37.44 153.43 38.48Q154.01 39.53 155.59 40.54Q157.18 41.54 160.13 42.77L160.13 42.77Q163.44 44.14 165.42 45.36Q167.40 46.58 168.30 48.20Q169.20 49.82 169.20 52.27L169.20 52.27Q169.20 55.37 167.94 57.71Q166.68 60.05 164.23 61.31Q161.78 62.57 158.18 62.57L158.18 62.57ZM187.20 62.42L187.20 62.42Q183.67 62.42 180.94 60.44Q178.20 58.46 176.62 54.65Q175.03 50.83 175.03 45.36L175.03 45.36Q175.03 39.82 176.62 36Q178.20 32.18 180.94 30.20Q183.67 28.22 187.20 28.22L187.20 28.22Q190.80 28.22 193.54 30.20Q196.27 32.18 197.82 36Q199.37 39.82 199.37 45.36L199.37 45.36Q199.37 50.83 197.82 54.65Q196.27 58.46 193.54 60.44Q190.80 62.42 187.20 62.42ZM187.20 58.25L187.20 58.25Q189.50 58.25 191.16 56.74Q192.82 55.22 193.75 52.34Q194.69 49.46 194.69 45.29L194.69 45.29Q194.69 41.04 193.75 38.16Q192.82 35.28 191.16 33.84Q189.50 32.40 187.20 32.40L187.20 32.40Q185.04 32.40 183.35 33.84Q181.66 35.28 180.68 38.16Q179.71 41.04 179.71 45.29L179.71 45.29Q179.71 49.46 180.68 52.34Q181.66 55.22 183.35 56.74Q185.04 58.25 187.20 58.25ZM225.86 61.85L206.14 61.85L206.14 57.82L213.84 57.82L213.84 18L206.50 18L206.50 13.97L218.30 13.97L218.30 57.82L225.86 57.82L225.86 61.85ZM242.50 62.64L242.50 62.64Q238.03 62.64 235.62 59.98Q233.21 57.31 233.21 53.35L233.21 53.35Q233.21 50.40 234.22 48.28Q235.22 46.15 236.99 44.75Q238.75 43.34 241.20 42.66Q243.65 41.98 246.46 41.98L246.46 41.98Q247.39 41.98 248.40 42.05Q249.41 42.12 250.56 42.26Q251.71 42.41 252.86 42.62L252.86 42.62L253.01 46.51Q251.93 46.30 250.88 46.19Q249.84 46.08 248.80 46.01Q247.75 45.94 246.74 45.94L246.74 45.94Q244.73 45.94 243.00 46.33Q241.27 46.73 240.05 47.59Q238.82 48.46 238.18 49.82Q237.53 51.19 237.53 53.14L237.53 53.14Q237.53 54.65 237.92 55.69Q238.32 56.74 239.08 57.38Q239.83 58.03 240.80 58.32Q241.78 58.61 242.93 58.61L242.93 58.61Q245.09 58.61 246.78 57.74Q248.47 56.88 249.66 55.15Q250.85 53.42 251.46 50.90Q252.07 48.38 252.07 45.14L252.07 45.14Q252.07 40.18 251.28 37.44Q250.49 34.70 248.76 33.59Q247.03 32.47 244.15 32.47L244.15 32.47Q242.21 32.47 240.44 33.26Q238.68 34.06 237.17 35.71L237.17 35.71L235.01 32.33Q236.95 30.31 239.33 29.27Q241.70 28.22 244.44 28.22L244.44 28.22Q247.18 28.22 249.34 28.98Q251.50 29.74 252.97 31.54Q254.45 33.34 255.20 36.47Q255.96 39.60 255.96 44.35L255.96 44.35L255.96 61.85L251.35 61.85L251.35 56.81Q250.63 58.61 249.59 59.76Q248.54 60.91 247.36 61.52Q246.17 62.14 244.91 62.39Q243.65 62.64 242.50 62.64ZM276.55 62.50L276.55 62.50Q274.03 62.50 272.38 61.49Q270.72 60.48 269.82 58.28Q268.92 56.09 268.63 52.56Q268.34 49.03 268.49 43.99L268.49 43.99L269.14 20.52L273.82 19.87L274.54 19.80L274.61 20.30Q274.25 20.81 274.00 21.31Q273.74 21.82 273.67 23.04L273.67 23.04L273.10 31.75L273.31 32.69L272.88 44.35Q272.74 49.68 273.13 52.70Q273.53 55.73 274.54 56.99Q275.54 58.25 277.27 58.25L277.27 58.25Q279.14 58.25 280.66 57.28Q282.17 56.30 283.68 55.01L283.68 55.01L284.98 59.11Q282.96 60.91 280.87 61.70Q278.78 62.50 276.55 62.50L276.55 62.50ZM263.09 33.48L263.09 29.38L282.31 29.38L282.31 33.48L263.09 33.48ZM300.10 62.64L300.10 62.64Q295.63 62.64 293.22 59.98Q290.81 57.31 290.81 53.35L290.81 53.35Q290.81 50.40 291.82 48.28Q292.82 46.15 294.59 44.75Q296.35 43.34 298.80 42.66Q301.25 41.98 304.06 41.98L304.06 41.98Q304.99 41.98 306.00 42.05Q307.01 42.12 308.16 42.26Q309.31 42.41 310.46 42.62L310.46 42.62L310.61 46.51Q309.53 46.30 308.48 46.19Q307.44 46.08 306.40 46.01Q305.35 45.94 304.34 45.94L304.34 45.94Q302.33 45.94 300.60 46.33Q298.87 46.73 297.65 47.59Q296.42 48.46 295.78 49.82Q295.13 51.19 295.13 53.14L295.13 53.14Q295.13 54.65 295.52 55.69Q295.92 56.74 296.68 57.38Q297.43 58.03 298.40 58.32Q299.38 58.61 300.53 58.61L300.53 58.61Q302.69 58.61 304.38 57.74Q306.07 56.88 307.26 55.15Q308.45 53.42 309.06 50.90Q309.67 48.38 309.67 45.14L309.67 45.14Q309.67 40.18 308.88 37.44Q308.09 34.70 306.36 33.59Q304.63 32.47 301.75 32.47L301.75 32.47Q299.81 32.47 298.04 33.26Q296.28 34.06 294.77 35.71L294.77 35.71L292.61 32.33Q294.55 30.31 296.93 29.27Q299.30 28.22 302.04 28.22L302.04 28.22Q304.78 28.22 306.94 28.98Q309.10 29.74 310.57 31.54Q312.05 33.34 312.80 36.47Q313.56 39.60 313.56 44.35L313.56 44.35L313.56 61.85L308.95 61.85L308.95 56.81Q308.23 58.61 307.19 59.76Q306.14 60.91 304.96 61.52Q303.77 62.14 302.51 62.39Q301.25 62.64 300.10 62.64ZM362.02 62.57L362.02 62.57Q359.14 62.57 356.58 61.31Q354.02 60.05 352.12 57.31Q350.21 54.58 349.09 50.22Q347.98 45.86 347.98 39.67L347.98 39.67Q347.98 34.20 348.77 30.24Q349.56 26.28 350.96 23.65Q352.37 21.02 354.17 19.48Q355.97 17.93 357.95 17.28Q359.93 16.63 361.87 16.63L361.87 16.63Q365.83 16.63 368.57 18.76Q371.30 20.88 372.60 24.70L372.60 24.70L369.14 26.93L368.57 27.29L368.28 26.86Q368.35 26.28 368.28 25.70Q368.21 25.13 367.70 24.12L367.70 24.12Q366.34 22.03 364.86 21.38Q363.38 20.74 361.80 20.74L361.80 20.74Q359.64 20.74 357.91 21.89Q356.18 23.04 354.92 25.38Q353.66 27.72 353.02 31.21Q352.37 34.70 352.37 39.31L352.37 39.31Q352.37 43.78 353.12 47.27Q353.88 50.76 355.18 53.24Q356.47 55.73 358.24 57.02Q360.00 58.32 361.94 58.32L361.94 58.32Q363.38 58.32 364.68 57.71Q365.98 57.10 367.09 55.98Q368.21 54.86 369.00 53.28L369.00 53.28L372.10 56.02Q370.37 59.26 367.96 60.91Q365.54 62.57 362.02 62.57L362.02 62.57ZM388.80 62.42L388.80 62.42Q385.27 62.42 382.54 60.44Q379.80 58.46 378.22 54.65Q376.63 50.83 376.63 45.36L376.63 45.36Q376.63 39.82 378.22 36Q379.80 32.18 382.54 30.20Q385.27 28.22 388.80 28.22L388.80 28.22Q392.40 28.22 395.14 30.20Q397.87 32.18 399.42 36Q400.97 39.82 400.97 45.36L400.97 45.36Q400.97 50.83 399.42 54.65Q397.87 58.46 395.14 60.44Q392.40 62.42 388.80 62.42ZM388.80 58.25L388.80 58.25Q391.10 58.25 392.76 56.74Q394.42 55.22 395.35 52.34Q396.29 49.46 396.29 45.29L396.29 45.29Q396.29 41.04 395.35 38.16Q394.42 35.28 392.76 33.84Q391.10 32.40 388.80 32.40L388.80 32.40Q386.64 32.40 384.95 33.84Q383.26 35.28 382.28 38.16Q381.31 41.04 381.31 45.29L381.31 45.29Q381.31 49.46 382.28 52.34Q383.26 55.22 384.95 56.74Q386.64 58.25 388.80 58.25ZM411.55 61.85L407.23 61.85L407.23 28.94L411.55 28.94L411.55 34.49Q412.56 32.47 413.93 31.07Q415.30 29.66 416.92 28.91Q418.54 28.15 420.34 28.15L420.34 28.15Q422.64 28.15 424.40 29.38Q426.17 30.60 427.18 33.55Q428.18 36.50 428.18 41.62L428.18 41.62L428.18 61.85L423.86 61.85L423.86 41.76Q423.86 38.30 423.29 36.25Q422.71 34.20 421.63 33.30Q420.55 32.40 419.18 32.40L419.18 32.40Q417.82 32.40 416.48 33.12Q415.15 33.84 414.04 35.17Q412.92 36.50 412.24 38.38Q411.55 40.25 411.55 42.62L411.55 42.62L411.55 61.85ZM445.25 62.57L445.25 62.57Q443.23 62.57 441.32 61.63Q439.42 60.70 437.87 58.68Q436.32 56.66 435.42 53.28Q434.52 49.90 434.52 45.07L434.52 45.07Q434.52 40.25 435.46 36.97Q436.39 33.70 437.98 31.75Q439.56 29.81 441.50 28.94Q443.45 28.08 445.54 28.08L445.54 28.08Q447.41 28.08 448.85 28.76Q450.29 29.45 451.37 30.64Q452.45 31.82 452.95 33.55L452.95 33.55L452.95 13.97L457.20 13.97L457.92 13.97L457.92 14.47Q457.49 14.90 457.38 15.41Q457.27 15.91 457.27 17.14L457.27 17.14L457.27 56.74Q457.27 58.03 457.38 59.29Q457.49 60.55 457.85 61.85L457.85 61.85L453.46 61.85Q453.24 61.13 453.06 60.34Q452.88 59.54 452.84 58.72Q452.81 57.89 452.81 57.02L452.81 57.02Q452.02 58.61 450.90 59.87Q449.78 61.13 448.38 61.85Q446.98 62.57 445.25 62.57L445.25 62.57ZM446.04 58.18L446.04 58.18Q447.77 58.18 449.03 57.35Q450.29 56.52 451.12 54.86Q451.94 53.21 452.34 50.76Q452.74 48.31 452.74 45.22L452.74 45.22Q452.74 41.04 451.98 38.20Q451.22 35.35 449.68 33.84Q448.13 32.33 445.82 32.33L445.82 32.33Q444.10 32.33 442.80 33.05Q441.50 33.77 440.64 35.21Q439.78 36.65 439.34 38.92Q438.91 41.18 438.91 44.28L438.91 44.28Q438.91 49.25 439.78 52.31Q440.64 55.37 442.22 56.77Q443.81 58.18 446.04 58.18L446.04 58.18ZM476.42 62.57L476.42 62.57Q473.47 62.57 471.10 61.52Q468.72 60.48 467.03 58.39Q465.34 56.30 464.47 53.06Q463.61 49.82 463.61 45.50L463.61 45.50Q463.61 41.11 464.47 37.84Q465.34 34.56 466.96 32.44Q468.58 30.31 470.81 29.23Q473.04 28.15 475.70 28.15L475.70 28.15Q478.01 28.15 479.99 29.02Q481.97 29.88 483.37 31.72Q484.78 33.55 485.57 36.54Q486.36 39.53 486.36 43.78L486.36 43.78Q486.36 44.42 486.36 44.96Q486.36 45.50 486.29 46.08L486.29 46.08L467.93 46.08Q468.07 49.46 468.72 51.88Q469.37 54.29 470.48 55.73Q471.60 57.17 473.15 57.85Q474.70 58.54 476.57 58.54L476.57 58.54Q478.01 58.54 479.20 58.14Q480.38 57.74 481.36 56.99Q482.33 56.23 483.12 55.15L483.12 55.15L485.64 57.82Q484.56 59.33 483.16 60.41Q481.75 61.49 480.06 62.03Q478.37 62.57 476.42 62.57ZM468.07 42.19L468.07 42.19L481.82 42.19Q481.82 39.67 481.39 37.76Q480.96 35.86 480.17 34.56Q479.38 33.26 478.19 32.62Q477.00 31.97 475.42 31.97L475.42 31.97Q473.98 31.97 472.79 32.51Q471.60 33.05 470.63 34.27Q469.66 35.50 469.04 37.44Q468.43 39.38 468.07 42.19ZM497.95 61.85L493.63 61.85L493.63 28.94L497.95 28.94L497.95 34.49Q498.96 32.47 500.33 31.07Q501.70 29.66 503.32 28.91Q504.94 28.15 506.74 28.15L506.74 28.15Q509.04 28.15 510.80 29.38Q512.57 30.60 513.58 33.55Q514.58 36.50 514.58 41.62L514.58 41.62L514.58 61.85L510.26 61.85L510.26 41.76Q510.26 38.30 509.69 36.25Q509.11 34.20 508.03 33.30Q506.95 32.40 505.58 32.40L505.58 32.40Q504.22 32.40 502.88 33.12Q501.55 33.84 500.44 35.17Q499.32 36.50 498.64 38.38Q497.95 40.25 497.95 42.62L497.95 42.62L497.95 61.85ZM532.58 62.57L532.58 62.57Q530.14 62.57 528.16 62.03Q526.18 61.49 524.48 60.52Q522.79 59.54 521.42 58.18L521.42 58.18L523.80 53.71L524.16 53.06L524.59 53.28Q524.74 53.86 524.88 54.47Q525.02 55.08 525.82 55.94L525.82 55.94Q527.04 57.17 528.70 57.85Q530.35 58.54 532.73 58.54L532.73 58.54Q534.74 58.54 536.18 57.89Q537.62 57.24 538.42 55.98Q539.21 54.72 539.21 52.99L539.21 52.99Q539.21 51.91 538.88 51.08Q538.56 50.26 537.84 49.54Q537.12 48.82 535.90 48.13Q534.67 47.45 532.87 46.73L532.87 46.73Q529.78 45.58 527.51 44.14Q525.24 42.70 524.02 40.86Q522.79 39.02 522.79 36.50L522.79 36.50Q522.79 34.06 523.91 32.18Q525.02 30.31 527.26 29.23Q529.49 28.15 532.80 28.15L532.80 28.15Q534.67 28.15 536.22 28.44Q537.77 28.73 539.03 29.34Q540.29 29.95 541.33 30.89Q542.38 31.82 543.24 33.05L543.24 33.05L540.79 36.58L540.36 37.15L540.00 36.86Q539.86 36.29 539.75 35.64Q539.64 34.99 538.92 34.13L538.92 34.13Q537.62 32.98 536.08 32.44Q534.53 31.90 532.94 31.90L532.94 31.90Q530.35 31.90 528.80 33.05Q527.26 34.20 527.26 36.14L527.26 36.14Q527.26 37.44 527.83 38.48Q528.41 39.53 529.99 40.54Q531.58 41.54 534.53 42.77L534.53 42.77Q537.84 44.14 539.82 45.36Q541.80 46.58 542.70 48.20Q543.60 49.82 543.60 52.27L543.60 52.27Q543.60 55.37 542.34 57.71Q541.08 60.05 538.63 61.31Q536.18 62.57 532.58 62.57L532.58 62.57ZM562.82 62.57L562.82 62.57Q559.87 62.57 557.50 61.52Q555.12 60.48 553.43 58.39Q551.74 56.30 550.87 53.06Q550.01 49.82 550.01 45.50L550.01 45.50Q550.01 41.11 550.87 37.84Q551.74 34.56 553.36 32.44Q554.98 30.31 557.21 29.23Q559.44 28.15 562.10 28.15L562.10 28.15Q564.41 28.15 566.39 29.02Q568.37 29.88 569.77 31.72Q571.18 33.55 571.97 36.54Q572.76 39.53 572.76 43.78L572.76 43.78Q572.76 44.42 572.76 44.96Q572.76 45.50 572.69 46.08L572.69 46.08L554.33 46.08Q554.47 49.46 555.12 51.88Q555.77 54.29 556.88 55.73Q558 57.17 559.55 57.85Q561.10 58.54 562.97 58.54L562.97 58.54Q564.41 58.54 565.60 58.14Q566.78 57.74 567.76 56.99Q568.73 56.23 569.52 55.15L569.52 55.15L572.04 57.82Q570.96 59.33 569.56 60.41Q568.15 61.49 566.46 62.03Q564.77 62.57 562.82 62.57ZM554.47 42.19L554.47 42.19L568.22 42.19Q568.22 39.67 567.79 37.76Q567.36 35.86 566.57 34.56Q565.78 33.26 564.59 32.62Q563.40 31.97 561.82 31.97L561.82 31.97Q560.38 31.97 559.19 32.51Q558 33.05 557.03 34.27Q556.06 35.50 555.44 37.44Q554.83 39.38 554.47 42.19ZM589.25 62.57L589.25 62.57Q587.23 62.57 585.32 61.63Q583.42 60.70 581.87 58.68Q580.32 56.66 579.42 53.28Q578.52 49.90 578.52 45.07L578.52 45.07Q578.52 40.25 579.46 36.97Q580.39 33.70 581.98 31.75Q583.56 29.81 585.50 28.94Q587.45 28.08 589.54 28.08L589.54 28.08Q591.41 28.08 592.85 28.76Q594.29 29.45 595.37 30.64Q596.45 31.82 596.95 33.55L596.95 33.55L596.95 13.97L601.20 13.97L601.92 13.97L601.92 14.47Q601.49 14.90 601.38 15.41Q601.27 15.91 601.27 17.14L601.27 17.14L601.27 56.74Q601.27 58.03 601.38 59.29Q601.49 60.55 601.85 61.85L601.85 61.85L597.46 61.85Q597.24 61.13 597.06 60.34Q596.88 59.54 596.84 58.72Q596.81 57.89 596.81 57.02L596.81 57.02Q596.02 58.61 594.90 59.87Q593.78 61.13 592.38 61.85Q590.98 62.57 589.25 62.57L589.25 62.57ZM590.04 58.18L590.04 58.18Q591.77 58.18 593.03 57.35Q594.29 56.52 595.12 54.86Q595.94 53.21 596.34 50.76Q596.74 48.31 596.74 45.22L596.74 45.22Q596.74 41.04 595.98 38.20Q595.22 35.35 593.68 33.84Q592.13 32.33 589.82 32.33L589.82 32.33Q588.10 32.33 586.80 33.05Q585.50 33.77 584.64 35.21Q583.78 36.65 583.34 38.92Q582.91 41.18 582.91 44.28L582.91 44.28Q582.91 49.25 583.78 52.31Q584.64 55.37 586.22 56.77Q587.81 58.18 590.04 58.18L590.04 58.18Z"/></svg>