<?xml version="1.0" standalone="no"?>
<!DOCTYPE svg PUBLIC "-//W3C//DTD SVG 1.1//EN" "http://www.w3.org/Graphics/SVG/1.1/DTD/svg11.dtd">
<svg xmlns="http://www.w3.org/2000/svg">
<defs >
<font id="FiraSans" horiz-adv-x="529" ><font-face
    font-family="Fira Sans Thin"
    units-per-em="1000"
    panose-1="2 11 3 3 5 0 0 2 0 4"
    ascent="935"
    descent="-265"
    alphabetic="0" />
<glyph unicode=" " glyph-name="space" horiz-adv-x="296" />
<glyph unicode="!" glyph-name="exclam" horiz-adv-x="238" d="M129 681V202H108V681H129ZM130 38T136 32T143 14Q143 5 137 -1T119 -8Q109 -8 103 -2T96 14Q96 25 102 31T119 38Q130 38 136 32Z" />
<glyph unicode="&quot;" glyph-name="quotedbl" horiz-adv-x="327" d="M86 441L83 681H106L103 441H86ZM224 441L221 681H244L241 441H224Z" />
<glyph unicode="#" glyph-name="numbersign" horiz-adv-x="488" d="M473 460H390L359 220H436V200H356L330 0H308L334 200H120L93 0H71L98 200H15V220H100L132 460H52V479H135L159 662H181L157 479H371L395 662H417L393 479H473V460ZM337 220L368 460H154L122 220H337Z" />
<glyph unicode="$" glyph-name="dollar" horiz-adv-x="523" d="M454 98T403 47T267 -10V-146H248V-10Q188 -9 142 11T54 68L68 83Q107 48 149 30T250 11Q332 11 382 56T432 176Q432 224 415 254T361 305T259 347Q190 369 152 391T96 443T79 517Q79 582 126 625T249
670V811H269V670Q321 668 359 652T433 603L418 587Q383 620 345 635T256 650Q186 650 144 613T101 517Q101 477 117 451T168 406T267 367Q335 345 375 322T434 265T454 177Q454 98 403 47Z" />
<glyph unicode="%" glyph-name="percent" horiz-adv-x="760" d="M606 695L624 684L163 -15L144 -4L606 695ZM259 673T295 632T332 519Q332 447 296 404T198 361Q137 361 100 403T63 516Q63 589 99 631T198 673Q259 673 295 632ZM143 654T115 616T86 516Q86 456
114 418T198 380Q253 380 281 418T310 519Q310 579 281 616T198 654Q143 654 115 616ZM624 302T660 261T697 148Q697 76 661 33T562 -10Q501 -10 465 32T428 145Q428 217 463 259T562 302Q624 302 660 261ZM507 283T479 245T450 145Q450 85 478 47T562 9Q617 9
645 47T674 148Q674 209 646 246T562 283Q507 283 479 245Z" />
<glyph unicode="&amp;" glyph-name="ampersand" horiz-adv-x="715" d="M368 692T409 652T450 548Q450 490 412 450T285 362L522 140Q547 190 564 240T593 354L615 348Q588 219 536 126L666 5L648 -7L525 107Q484 51 431 21T300 -10Q245 -10 201 12T130 75T104
165Q104 231 140 277T252 365Q193 422 171 457T148 544Q148 586 168 619T223 672T302 692Q368 692 409 652ZM244 672T208 636T171 545Q171 514 178 492T206 444T271 376Q354 420 391 458T428 548Q428 605 393 638T302 672Q244 672 208 636ZM196 313T162 269T127
165Q127 121 149 86T210 31T300 11Q371 11 421 39T510 121L267 352Q196 313 162 269Z" />
<glyph unicode="&apos;" glyph-name="quotesingle" horiz-adv-x="189" d="M86 441L83 681H106L103 441H86Z" />
<glyph unicode="(" glyph-name="parenleft" horiz-adv-x="325" d="M256 820Q200 737 167 677T113 535T91 350Q91 246 112 165T167 24T256 -120L241 -129Q182 -45 148 17T91 161T69 350Q69 457 91 539T147 683T241 829L256 820Z" />
<glyph unicode=")" glyph-name="parenright" horiz-adv-x="325" d="M143 745T177 683T234 539T256 350Q256 243 234 161T178 17T84 -129L69 -120Q125 -37 158 23T212 165T234 350Q234 454 213 535T158 676T69 820L84 829Q143 745 177 683Z" />
<glyph unicode="*" glyph-name="asterisk" horiz-adv-x="432" d="M382 603L230 557L325 429L307 416L216 546L124 416L106 429L202 556L49 603L56 623L207 572L205 732H227L226 572L376 623L382 603Z" />
<glyph unicode="+" glyph-name="plus" horiz-adv-x="485" d="M254 496V341H407V320H254V165H232V320H78V341H232V496H254Z" />
<glyph unicode="," glyph-name="comma" horiz-adv-x="163" d="M92 38T98 32T105 14Q105 6 96 -17L52 -130H35L73 -6Q58 -2 58 14Q58 25 64 31T81 38Q92 38 98 32Z" />
<glyph unicode="-" glyph-name="hyphen" horiz-adv-x="399" d="M78 302V323H321V302H78Z" />
<glyph unicode="." glyph-name="period" horiz-adv-x="163" d="M92 38T98 32T105 14Q105 5 99 -1T81 -8Q71 -8 65 -2T58 14Q58 25 64 31T81 38Q92 38 98 32Z" />
<glyph unicode="/" glyph-name="slash" horiz-adv-x="520" d="M366 798L386 792L154 -95L134 -89L366 798Z" />
<glyph unicode="0" glyph-name="zero" horiz-adv-x="541" d="M366 673T415 587T465 330Q465 161 416 76T271 -10Q175 -10 126 76T76 332Q76 501 125 587T271 673Q366 673 415 587ZM187 652T143 572T99 332Q99 172 142 92T271 11Q356 11 399 90T442 330Q442 652
271 652Q187 652 143 572Z" />
<glyph unicode="1" glyph-name="one" horiz-adv-x="393" d="M260 661V0H238V635L64 525L53 542L242 661H260Z" />
<glyph unicode="2" glyph-name="two" horiz-adv-x="464" d="M299 673T344 626T390 506Q390 438 363 381T278 253T75 22H405L401 0H47V21Q193 181 254 255T341 385T367 504Q367 571 328 611T221 652Q170 652 132 632T60 572L43 583Q81 629 123 651T221 673Q299
673 344 626Z" />
<glyph unicode="3" glyph-name="three" horiz-adv-x="474" d="M294 673T339 629T385 512Q385 442 347 401T250 353Q316 351 359 306T403 182Q403 126 379 83T311 15T208 -10Q151 -10 108 10T28 73L43 85Q80 45 118 28T208 11Q288 11 334 58T380 181Q380 261 335
301T212 342H174L177 362H211Q273 362 317 400T362 511Q362 575 323 613T216 652Q171 652 134 637T60 586L46 600Q82 637 123 655T217 673Q294 673 339 629Z" />
<glyph unicode="4" glyph-name="four" horiz-adv-x="503" d="M463 207V187H370V0H348V187H51V205L257 673L276 665L75 207H348L351 418H370V207H463Z" />
<glyph unicode="5" glyph-name="five" horiz-adv-x="474" d="M389 641H109V376Q165 415 232 415Q317 415 365 362T414 214Q414 114 361 52T217 -10Q113 -10 43 65L59 79Q91 45 129 28T218 11Q298 11 344 66T391 214Q391 301 349 347T232 394Q193 394 166 385T105
354H87V661H393L389 641Z" />
<glyph unicode="6" glyph-name="six" horiz-adv-x="513" d="M358 427T404 375T451 222Q451 114 403 52T274 -10Q172 -10 124 72T76 288Q76 406 103 492T181 626T303 673Q336 673 362 664T412 636L399 619Q378 636 355 644T302 652Q239 652 194 608T125 487T99
310Q173 427 283 427Q358 427 404 375ZM348 11T388 68T429 221Q429 312 389 359T282 406Q224 406 178 372T99 278Q101 155 143 83T274 11Q348 11 388 68Z" />
<glyph unicode="7" glyph-name="seven" horiz-adv-x="432" d="M389 661V643L114 -6L93 2L365 641H38V661H389Z" />
<glyph unicode="8" glyph-name="eight" horiz-adv-x="526" d="M393 312T428 273T463 167Q463 86 408 38T263 -10Q171 -10 117 39T63 168Q63 303 217 362Q150 390 122 424T93 513Q93 561 116 597T178 653T263 673Q309 673 348 655T410 600T434 512Q434 457 405
419T308 345Q393 312 428 273ZM116 462T143 431T242 371L289 353Q354 386 383 422T412 511Q412 578 370 615T263 652Q200 652 158 615T116 512Q116 462 143 431ZM343 12T391 53T440 167Q440 212 424 241T374 292T281 337L241 352Q159 322 123 279T86 168Q86 94
134 53T263 12Q343 12 391 53Z" />
<glyph unicode="9" glyph-name="nine" horiz-adv-x="508" d="M437 673T437 397Q437 276 401 197T298 68T126 -15L119 3Q214 33 277 77T375 192T415 365Q344 255 236 255Q186 255 146 280T84 351T61 459Q61 524 85 572T152 647T250 673Q437 673 437 397ZM293 276T336
305T415 394Q413 522 375 587T250 652Q175 652 130 601T85 458Q85 374 127 325T238 276Q293 276 336 305Z" />
<glyph unicode=":" glyph-name="colon" horiz-adv-x="163" d="M92 38T98 32T105 14Q105 5 99 -1T81 -8Q71 -8 65 -2T58 14Q58 25 64 31T81 38Q92 38 98 32ZM92 453T98 447T105 429Q105 420 99 414T81 407Q71 407 65 413T58 429Q58 440 64 446T81 453Q92 453 98 447Z" />
<glyph unicode=";" glyph-name="semicolon" horiz-adv-x="163" d="M92 38T98 32T105 14Q105 6 96 -17L52 -130H35L73 -6Q58 -2 58 14Q58 25 64 31T81 38Q92 38 98 32ZM92 453T98 447T105 429Q105 420 99 414T81 407Q71 407 65 413T58 429Q58 440 64 446T81 453Q92
453 98 447Z" />
<glyph unicode="&lt;" glyph-name="less" horiz-adv-x="495" d="M406 503L415 484L104 333L415 178L406 159L79 325V341L406 503Z" />
<glyph unicode="=" glyph-name="equal" horiz-adv-x="485" d="M78 399V420H407V399H78ZM78 497V518H407V497H78Z" />
<glyph unicode="&gt;" glyph-name="greater" horiz-adv-x="495" d="M88 503L415 341V325L88 159L79 178L390 333L79 484L88 503Z" />
<glyph unicode="?" glyph-name="question" horiz-adv-x="441" d="M301 691T343 652T385 555Q385 521 373 497T343 457T295 418Q264 396 246 379T214 335T201 271V202H180V273Q180 314 193 342T226 389T278 430Q307 451 323 466T351 503T362 555Q362 607 326 639T232
671Q182 671 145 653T72 594L56 606Q94 650 135 670T232 691Q301 691 343 652ZM203 38T209 32T215 14Q215 5 209 -1T192 -8Q182 -8 176 -2T169 14Q169 25 175 31T192 38Q203 38 209 32Z" />
<glyph unicode="@" glyph-name="at" horiz-adv-x="1020" d="M653 692T741 640T875 500T920 309Q920 152 872 84T755 15Q708 15 678 47T639 137Q591 17 488 17Q443 17 406 41T348 114T326 232Q326 314 352 369T423 450T523 477Q591 477 655 443V184Q655 111 681
73T755 34Q816 34 856 96T897 308Q897 408 854 490T728 622T527 671Q409 671 317 614T174 458T123 240Q123 112 174 18T316 -126T525 -176Q624 -176 709 -144L715 -164Q671 -180 626 -188T525 -197Q402 -197 306 -145T155 7T100 240Q100 364 154 467T305 631T527
692Q653 692 741 640ZM540 37T578 73T633 168V430Q579 456 524 456Q445 456 397 398T349 232Q349 137 387 87T490 37Q540 37 578 73Z" />
<glyph unicode="A" glyph-name="A" horiz-adv-x="557" d="M505 0L435 203H121L51 0H28L265 681H292L530 0H505ZM128 224H428L278 663L128 224Z" />
<glyph unicode="B" glyph-name="B" horiz-adv-x="587" d="M433 357T479 312T525 184Q525 94 466 47T299 0H123V681H264Q373 681 431 639T490 513Q490 448 456 410T362 361Q433 357 479 312ZM146 660V370H316Q384 370 425 409T467 512Q467 586 416 623T267 660H146ZM395
21T448 61T502 184Q502 264 453 307T321 350H146V21H300Q395 21 448 61Z" />
<glyph unicode="C" glyph-name="C" horiz-adv-x="538" d="M397 691T433 677T505 633L492 617Q457 645 425 657T346 670Q275 670 220 635T133 525T101 340Q101 235 132 161T217 50T342 12Q395 12 430 27T499 71L513 54Q478 24 438 7T342 -10Q265 -10 205 30T112
150T78 340Q78 455 112 534T207 652T344 691Q397 691 433 677Z" />
<glyph unicode="D" glyph-name="D" horiz-adv-x="619" d="M376 681T459 610T542 348Q542 154 457 77T249 0H123V681H245Q376 681 459 610ZM146 660V21H250Q366 21 442 93T518 348Q518 530 442 595T243 660H146Z" />
<glyph unicode="E" glyph-name="E" horiz-adv-x="494" d="M444 681L441 660H146V370H400V349H146V21H451V0H123V681H444Z" />
<glyph unicode="F" glyph-name="F" horiz-adv-x="471" d="M123 0V681H439L436 660H146V356H396V335H146V0H123Z" />
<glyph unicode="G" glyph-name="G" horiz-adv-x="605" d="M399 691T438 677T516 632L503 616Q467 644 430 657T348 670Q284 670 228 636T137 528T101 345Q101 182 168 97T353 12Q439 12 510 53V333H365L362 354H533V41Q446 -10 353 -10Q270 -10 208 30T112 150T78
345Q78 458 116 536T216 652T348 691Q399 691 438 677Z" />
<glyph unicode="H" glyph-name="H" horiz-adv-x="660" d="M514 0V349H146V0H123V681H146V371H514V681H537V0H514Z" />
<glyph unicode="I" glyph-name="I" horiz-adv-x="268" d="M146 681V0H123V681H146Z" />
<glyph unicode="J" glyph-name="J" horiz-adv-x="277" d="M161 87Q161 35 151 3T113 -52T30 -100L23 -83Q70 -61 94 -40T128 11T138 89V681H161V87Z" />
<glyph unicode="K" glyph-name="K" horiz-adv-x="510" d="M146 681V0H123V681H146ZM490 681L178 367L506 0H478L149 367L463 681H490Z" />
<glyph unicode="L" glyph-name="L" horiz-adv-x="456" d="M146 681V22H434L430 0H123V681H146Z" />
<glyph unicode="M" glyph-name="M" horiz-adv-x="762" d="M684 0H662L623 345L589 660L392 84H370L170 660Q170 656 156 528L137 354L100 0H78L151 681H185L381 112L575 681H609L684 0Z" />
<glyph unicode="N" glyph-name="N" horiz-adv-x="661" d="M538 0H510L142 656Q145 604 145 477V0H123V681H152L519 26Q516 146 516 205V681H538V0Z" />
<glyph unicode="O" glyph-name="O" horiz-adv-x="689" d="M425 691T485 651T578 532T611 340Q611 175 541 83T344 -10Q264 -10 204 31T111 150T78 339Q78 449 111 528T205 649T344 691Q425 691 485 651ZM271 670T217 632T132 519T101 339Q101 235 131 162T216
50T344 12Q460 12 524 96T588 340Q588 500 523 585T344 670Q271 670 217 632Z" />
<glyph unicode="P" glyph-name="P" horiz-adv-x="558" d="M380 681T440 634T501 484Q501 379 436 331T256 282H146V0H123V681H261Q380 681 440 634ZM362 303T419 345T477 483Q477 577 424 618T261 660H146V303H258Q362 303 419 345Z" />
<glyph unicode="Q" glyph-name="Q" horiz-adv-x="689" d="M481 4T535 -11T630 -62L614 -81Q564 -39 504 -24T344 -8Q264 -8 204 32T111 151T78 339Q78 449 111 528T205 649T344 691Q425 691 485 651T578 532T611 340Q611 191 558 108T413 6Q481 4 535 -11ZM101
235T131 162T216 50T344 12Q460 12 524 96T588 340Q588 500 523 585T344 670Q271 670 217 632T132 519T101 339Q101 235 131 162Z" />
<glyph unicode="R" glyph-name="R" horiz-adv-x="572" d="M313 324H146V0H123V681H272Q388 681 442 636T496 504Q496 425 454 383T337 327L528 0H501L313 324ZM287 345Q374 345 423 384T473 504Q473 581 426 620T269 660H146V345H287Z" />
<glyph unicode="S" glyph-name="S" horiz-adv-x="536" d="M323 691T364 674T445 622L430 605Q394 639 356 654T265 670Q192 670 148 632T103 534Q103 492 119 465T172 418T274 378Q344 356 385 332T446 273T466 182Q466 126 440 82T366 14T258 -10Q194 -10 146
11T54 72L69 87Q109 50 152 31T257 12Q341 12 392 58T444 181Q444 231 426 262T371 315T266 358Q195 380 155 403T98 457T80 534Q80 578 103 614T168 670T265 691Q323 691 364 674Z" />
<glyph unicode="T" glyph-name="T" horiz-adv-x="476" d="M463 681L459 659H249V0H226V659H16V681H463Z" />
<glyph unicode="U" glyph-name="U" horiz-adv-x="640" d="M528 207Q528 108 477 49T321 -10Q215 -10 164 49T113 207V681H136V210Q136 117 180 65T321 12Q416 12 460 65T505 210V681H528V207Z" />
<glyph unicode="V" glyph-name="V" horiz-adv-x="534" d="M506 681L281 0H253L28 681H52L267 21L482 681H506Z" />
<glyph unicode="W" glyph-name="W" horiz-adv-x="790" d="M752 681L593 0H567L395 659L223 0H197L38 681H62L212 24L381 681H409L580 24L729 681H752Z" />
<glyph unicode="X" glyph-name="X" horiz-adv-x="486" d="M254 370L469 0H444L240 355L41 0H16L227 369L41 681H67L240 384L413 681H437L254 370Z" />
<glyph unicode="Y" glyph-name="Y" horiz-adv-x="494" d="M473 681L260 271V0H237V270L21 681H47L249 292L447 681H473Z" />
<glyph unicode="Z" glyph-name="Z" horiz-adv-x="509" d="M459 681V662L69 22H446L443 0H41V21L432 660H79V681H459Z" />
<glyph unicode="[" glyph-name="bracketleft" horiz-adv-x="312" d="M229 796V778H123V-88H229V-106H103V796H229Z" />
<glyph unicode="\" glyph-name="backslash" horiz-adv-x="520" d="M154 798L386 -89L366 -95L134 792L154 798Z" />
<glyph unicode="]" glyph-name="bracketright" horiz-adv-x="312" d="M209 796V-106H83V-88H189V778H83V796H209Z" />
<glyph unicode="^" glyph-name="asciicircum" horiz-adv-x="524" d="M269 823L446 527H418L261 796L104 527H76L253 823H269Z" />
<glyph unicode="_" glyph-name="underscore" horiz-adv-x="520" d="M42 -100V-79H478V-100H42Z" />
<glyph unicode="`" glyph-name="grave" horiz-adv-x="246" d="M40 761L216 670L208 654L30 738L40 761Z" />
<glyph unicode="a" glyph-name="a" horiz-adv-x="528" d="M410 59T420 37T457 6L451 -10Q420 0 406 22T391 91Q334 -10 222 -10Q149 -10 108 32T66 144Q66 222 121 265T270 308H388V370Q388 440 358 474T255 509Q192 509 112 476L105 495Q187 529 255 529Q336
529 373 490T410 372V110Q410 59 420 37ZM281 11T321 38T388 119V288H274Q187 288 139 251T90 144Q90 82 125 47T222 11Q281 11 321 38Z" />
<glyph unicode="b" glyph-name="b" horiz-adv-x="569" d="M397 529T444 461T491 264Q491 135 443 63T302 -10Q249 -10 208 15T139 81L137 0H118V733L140 736V436Q207 529 308 529Q397 529 444 461ZM382 11T425 77T469 264Q469 384 428 446T308 509Q254 509 215
484T140 410V106Q204 11 301 11Q382 11 425 77Z" />
<glyph unicode="c" glyph-name="c" horiz-adv-x="464" d="M325 529T357 517T418 479L405 464Q379 487 350 498T284 509Q199 509 148 443T96 257Q96 139 147 75T283 11Q355 11 410 59L423 44Q362 -10 284 -10Q221 -10 174 21T100 113T73 257Q73 340 99 401T172
496T283 529Q325 529 357 517Z" />
<glyph unicode="d" glyph-name="d" horiz-adv-x="574" d="M456 733V0H437L434 89Q380 -10 270 -10Q182 -10 130 61T78 258Q78 338 102 399T172 495T280 529Q379 529 434 446V736L456 733ZM329 11T367 39T434 123V418Q376 509 281 509Q227 509 186 479T123 391T101
258Q101 141 146 76T271 11Q329 11 367 39Z" />
<glyph unicode="e" glyph-name="e" d="M461 268T459 246H96Q100 130 149 71T280 11Q324 11 357 24T427 68L439 51Q403 21 366 6T280 -10Q185 -10 129 60T73 255Q73 339 97 401T167 496T272 529Q365 529 413 463T461 284Q461 268 459 246ZM439 292Q439 391 398
450T274 509Q196 509 147 447T96 265H439V292Z" />
<glyph unicode="f" glyph-name="f" horiz-adv-x="307" d="M197 716T170 691T143 614V519H290L286 499H143V0H121V499H31V519H121V617Q121 674 154 705T244 737Q306 737 360 706L352 689Q300 716 246 716Q197 716 170 691Z" />
<glyph unicode="g" glyph-name="g" horiz-adv-x="488" d="M471 526Q417 512 318 512Q368 495 395 456T422 356Q422 279 375 235T245 190Q208 190 171 204Q119 175 119 129Q119 99 143 82T218 64H305Q377 64 417 31T458 -57Q458 -125 407 -161T251 -197Q142 -197
93 -165T44 -58H66Q67 -102 85 -128T143 -165T251 -176Q436 -176 436 -58Q436 -11 401 16T304 43H216Q158 43 127 66T96 126Q96 176 153 212Q66 257 66 358Q66 435 114 482T243 529Q345 528 385 533T463 550L471 526ZM169 509T129 468T88 358Q88 288 133 249T245
210Q317 210 358 248T399 356Q399 428 358 468T244 509Q169 509 129 468Z" />
<glyph unicode="h" glyph-name="h" horiz-adv-x="581" d="M399 529T434 488T469 369V0H447V367Q447 509 330 509Q270 509 225 477T140 384V0H118V733L140 736V414Q217 529 330 529Q399 529 434 488Z" />
<glyph unicode="i" glyph-name="i" horiz-adv-x="258" d="M140 519V0H118V519H140ZM139 724T144 718T150 704Q150 696 145 691T129 685Q120 685 115 690T109 704Q109 712 114 718T129 724Q139 724 144 718Z" />
<glyph unicode="j" glyph-name="j" horiz-adv-x="258" d="M141 6Q141 -56 129 -93T94 -151T28 -195L22 -178Q59 -158 79 -138T109 -85T119 7V519H141V6ZM139 724T144 718T150 704Q150 696 145 691T129 685Q120 685 115 690T109 704Q109 712 114 718T129 724Q139
724 144 718Z" />
<glyph unicode="k" glyph-name="k" horiz-adv-x="463" d="M140 736V0H118V733L140 736ZM420 519L174 284L445 0H418L146 284L392 519H420Z" />
<glyph unicode="l" glyph-name="l" horiz-adv-x="276" d="M152 -10T133 10T113 72V733L135 736V73Q135 11 186 11Q207 11 226 19L232 0Q206 -10 185 -10Q152 -10 133 10Z" />
<glyph unicode="m" glyph-name="m" horiz-adv-x="848" d="M668 529T701 487T735 369V0H713V367Q713 436 686 472T606 509Q509 509 437 384V0H415V369Q415 437 388 473T308 509Q212 509 140 384V0H118V519H137L139 414Q171 468 215 498T309 529Q363 529 395 498T435
410Q468 466 511 497T606 529Q668 529 701 487Z" />
<glyph unicode="n" glyph-name="n" horiz-adv-x="581" d="M400 529T434 488T469 369V0H447V367Q447 509 330 509Q270 509 225 477T140 384V0H118V519H137L139 413Q217 529 330 529Q400 529 434 488Z" />
<glyph unicode="o" glyph-name="o" horiz-adv-x="560" d="M377 529T432 460T488 262Q488 134 432 62T280 -10Q183 -10 128 61T73 259Q73 386 129 457T281 529Q377 529 432 460ZM195 509T146 444T96 259Q96 141 144 76T280 11Q366 11 415 76T465 262Q465 380 417
444T281 509Q195 509 146 444Z" />
<glyph unicode="p" glyph-name="p" horiz-adv-x="569" d="M397 529T444 461T491 264Q491 135 443 63T303 -10Q250 -10 209 15T140 80V-192L118 -196V519H137L139 434Q205 529 308 529Q397 529 444 461ZM383 11T426 77T469 264Q469 384 428 446T308 509Q254 509
215 484T140 410V106Q206 11 302 11Q383 11 426 77Z" />
<glyph unicode="q" glyph-name="q" horiz-adv-x="574" d="M456 519V-196L434 -192V88Q380 -10 270 -10Q182 -10 130 61T78 258Q78 338 102 399T171 495T280 529Q379 529 435 446L437 519H456ZM329 11T367 39T434 121V418Q378 509 281 509Q227 509 186 479T123
391T101 258Q101 141 146 76T271 11Q329 11 367 39Z" />
<glyph unicode="r" glyph-name="r" horiz-adv-x="362" d="M321 529T345 523L340 504Q318 509 294 509Q237 509 201 470T140 344V0H118V519H137L138 390Q160 462 197 495T294 529Q321 529 345 523Z" />
<glyph unicode="s" glyph-name="s" horiz-adv-x="460" d="M275 529T311 516T383 474L370 458Q335 485 304 497T230 509Q171 509 133 480T94 401Q94 356 125 331T236 285Q297 268 331 250T381 205T397 134Q397 70 350 30T228 -10Q172 -10 132 7T53 56L66 71Q103
40 139 26T228 11Q292 11 333 43T374 134Q374 172 361 195T316 235T226 267Q142 289 107 319T71 401Q71 457 116 493T229 529Q275 529 311 516Z" />
<glyph unicode="t" glyph-name="t" horiz-adv-x="324" d="M325 20Q277 -10 224 -10Q171 -10 142 22T112 117V499H26V519H112V650L134 652V519H278L274 499H134V118Q134 65 157 38T226 11Q272 11 315 37L325 20Z" />
<glyph unicode="u" glyph-name="u" horiz-adv-x="576" d="M459 0H439V106Q410 53 365 22T259 -10Q190 -10 152 31T113 149V519H135V151Q135 81 167 46T262 11Q319 11 361 43T437 133V519H459V0Z" />
<glyph unicode="v" glyph-name="v" horiz-adv-x="447" d="M424 519L243 0H214L23 519H48L228 19L400 519H424Z" />
<glyph unicode="w" glyph-name="w" horiz-adv-x="680" d="M647 519L511 0H482L341 497L200 0H171L33 519H57L186 21L328 519H355L496 21L624 519H647Z" />
<glyph unicode="x" glyph-name="x" horiz-adv-x="433" d="M229 279L415 0H389L215 265L43 0H18L202 278L43 519H69L216 292L364 519H390L229 279Z" />
<glyph unicode="y" glyph-name="y" horiz-adv-x="444" d="M240 -1Q218 -63 198 -98T146 -156T59 -195L56 -177Q106 -162 134 -141T180 -89T219 0H211L23 519H47L225 17L396 519H421L240 -1Z" />
<glyph unicode="z" glyph-name="z" horiz-adv-x="410" d="M374 519V501L59 21H366L364 0H31V18L346 499H58V519H374Z" />
<glyph unicode="{" glyph-name="braceleft" horiz-adv-x="328" d="M244 800Q202 800 183 779T164 712V441Q164 396 146 375T88 349Q128 344 146 323T164 257V-14Q164 -59 183 -80T244 -102V-120Q144 -120 144 -17V266Q144 338 64 338V360Q144 360 144 432V715Q144
818 244 818V800Z" />
<glyph unicode="|" glyph-name="bar" horiz-adv-x="413" d="M217 801V-98H195V801H217Z" />
<glyph unicode="}" glyph-name="braceright" horiz-adv-x="328" d="M184 818T184 715V432Q184 360 264 360V338Q184 338 184 266V-17Q184 -120 84 -120V-102Q126 -102 145 -81T164 -14V257Q164 302 182 323T240 349Q200 354 182 375T164 441V712Q164 757 145 778T84
800V818Q184 818 184 715Z" />
<glyph unicode="~" glyph-name="asciitilde" horiz-adv-x="457" d="M287 280T269 287T226 309Q202 322 186 328T155 335Q132 335 118 325T86 293L71 302Q90 329 108 343T155 357Q174 357 192 350T235 328Q260 315 275 309T305 302Q327 302 341 312T371 343L386
335Q368 308 350 294T305 280Q287 280 269 287Z" />
<glyph unicode="&#xa0;" glyph-name="uni00A0" horiz-adv-x="297" />
<glyph unicode="&#xa1;" glyph-name="exclamdown" horiz-adv-x="238" d="M129 453T136 446T143 430Q143 420 136 413T119 406Q108 406 102 413T96 430Q96 440 102 446T119 453Q129 453 136 446ZM130 252V-192H109V252H130Z" />
<glyph unicode="&#xa2;" glyph-name="cent" horiz-adv-x="464" d="M365 -7T291 -10V-146H271V-10Q181 -5 127 65T73 257Q73 380 127 452T273 529V676H292V529Q330 527 360 516T418 479L405 464Q379 487 350 498T284 509Q199 509 148 443T96 257Q96 139 147 75T283
11Q355 11 410 59L423 44Q365 -7 291 -10Z" />
<glyph unicode="&#xa3;" glyph-name="sterling" horiz-adv-x="498" d="M167 89T151 64T95 21H434L431 0H63V21Q109 42 127 66T145 135V343H83V364H145V505Q145 578 185 625T300 673Q345 673 379 657T443 606L428 592Q401 623 372 637T300 652Q236 652 202 611T167
505V364H384V343H167V137Q167 89 151 64Z" />
<glyph unicode="&#xa4;" glyph-name="currency" horiz-adv-x="560" d="M453 265T407 213L487 134L472 119L391 199Q347 161 280 161Q215 161 169 199L88 119L73 134L154 214Q132 238 120 271T108 340Q108 413 152 465L73 544L88 559L167 479Q213 520 280 520Q347
520 393 480L472 559L487 544L408 465Q430 441 441 409T453 340Q453 265 407 213ZM130 269T170 225T280 181Q351 181 391 225T431 340Q431 411 392 455T280 500Q210 500 170 456T130 340Q130 269 170 225Z" />
<glyph unicode="&#xa5;" glyph-name="yen" horiz-adv-x="485" d="M464 661L265 329H388V308H255V190H388V168H255V0H233V168H101V190H233V308H101V329H223L21 661H48L244 331L438 661H464Z" />
<glyph unicode="&#xa6;" glyph-name="brokenbar" horiz-adv-x="413" d="M217 801V443H195V801H217ZM217 262V-98H195V262H217Z" />
<glyph unicode="&#xa7;" glyph-name="section" horiz-adv-x="532" d="M382 143T395 120T409 62Q409 5 366 -29T257 -64Q210 -64 174 -53T102 -20L114 -2Q146 -23 180 -33T257 -43Q316 -43 351 -14T386 61Q386 90 376 109T338 144T257 178Q196 199 163 217T115
259T99 322Q99 359 120 390T184 451Q152 469 139 491T126 547Q126 603 168 637T271 672Q316 672 349 662T417 629L405 612Q372 633 342 642T272 652Q218 652 183 622T148 548Q148 519 159 500T199 465T286 430Q367 402 399 371T432 285Q432 246 413 216T352 160Q382
143 395 120ZM122 290T134 270T176 233T263 196Q315 178 335 168Q375 193 392 220T410 284Q410 316 400 337T361 375T280 411Q230 428 201 442Q160 415 141 386T122 322Q122 290 134 270Z" />
<glyph unicode="&#xa8;" glyph-name="dieresis" horiz-adv-x="265" d="M59 712T64 706T70 692Q70 684 65 679T50 673Q41 673 36 678T30 692Q30 700 35 706T50 712Q59 712 64 706ZM225 712T230 707T235 692Q235 684 230 679T216 673Q206 673 201 678T195 692Q195
701 200 706T216 712Q225 712 230 707Z" />
<glyph unicode="&#xa9;" glyph-name="copyright" horiz-adv-x="810" d="M484 722T547 686T647 584T683 435Q683 353 647 288T548 185T405 148Q326 148 263 184T163 286T127 435Q127 517 163 582T262 685T405 722Q484 722 547 686ZM332 701T274 667T182 573T149
435Q149 357 182 297T273 203T406 169Q479 169 537 203T628 297T661 435Q661 513 628 573T537 667T406 701Q332 701 274 667ZM432 606T452 599T491 577L480 562Q464 574 447 580T404 586Q361 586 328 551T295 437Q295 360 325 323T405 285Q433 285 453 292T490
314L500 297Q460 265 405 265Q345 265 309 310T272 437Q272 494 291 532T341 588T404 606Q432 606 452 599Z" />
<glyph unicode="&#xaa;" glyph-name="ordfeminine" horiz-adv-x="500" d="M159 277T126 308T92 393Q92 452 136 484T256 517H349V561Q349 613 326 637T244 661Q195 661 131 637L124 656Q190 681 244 681Q310 681 340 652T371 563V367Q371 330 379 315T407 292L402
277Q377 284 365 300T352 349Q305 277 218 277Q159 277 126 308ZM192 496T154 470T116 393Q116 348 143 323T218 297Q303 297 349 377V496H260Q192 496 154 470ZM91 21H420V0H91V21Z" />
<glyph unicode="&#xab;" glyph-name="guillemotleft" horiz-adv-x="533" d="M240 503L255 494L115 288L255 83L240 74L89 281V295L240 503ZM429 503L444 494L304 288L444 83L429 74L278 281V295L429 503Z" />
<glyph unicode="&#xac;" glyph-name="logicalnot" horiz-adv-x="495" d="M417 331V198H394V309H78V331H417Z" />
<glyph unicode="&#xad;" glyph-name="uni00AD" horiz-adv-x="399" d="M78 302V323H321V302H78Z" />
<glyph unicode="&#xae;" glyph-name="registered" horiz-adv-x="637" d="M381 721T432 693T512 614T541 502Q541 441 513 390T433 308T318 278Q255 278 205 306T125 385T96 498Q96 559 124 610T204 691T318 721Q381 721 432 693ZM376 297T422 324T495 399T521
502Q521 558 495 604T422 676T318 702Q261 702 215 675T142 601T116 498Q116 441 142 396T215 324T318 297Q376 297 422 324ZM407 503T344 490L418 369H391L322 487H267V369H245V638H305Q407 638 407 560Q407 503 344 490ZM267 506H320Q385 506 385 560Q385 591
366 604T309 618H267V506Z" />
<glyph unicode="&#xaf;" glyph-name="overscore" horiz-adv-x="267" d="M237 685H30V706H237V685Z" />
<glyph unicode="&#xb0;" glyph-name="degree" horiz-adv-x="520" d="M183 411T152 428T103 477T84 552Q84 592 102 624T152 673T219 691Q279 691 317 653T355 551Q355 488 317 450T219 411Q183 411 152 428ZM272 432T302 464T333 551Q333 605 303 638T219 671Q170
671 139 638T107 552Q107 499 138 466T219 432Q272 432 302 464Z" />
<glyph unicode="&#xb1;" glyph-name="plusminus" horiz-adv-x="485" d="M78 0V21H407V0H78ZM254 496V341H407V320H254V165H232V320H78V341H232V496H254Z" />
<glyph unicode="&#xb2;" glyph-name="uni00B2" horiz-adv-x="400" d="M249 738T279 709T309 633Q309 591 292 556T238 479T111 343H321L317 322H84V342Q175 436 214 482T270 561T286 632Q286 672 263 695T198 718Q137 718 96 670L79 682Q104 711 133 724T198 738Q249
738 279 709Z" />
<glyph unicode="&#xb3;" glyph-name="uni00B3" horiz-adv-x="400" d="M252 740T283 712T314 639Q314 597 290 572T226 541Q269 539 296 512T324 436Q324 382 289 349T194 315Q157 315 128 328T75 368L90 379Q113 355 138 345T193 335Q245 335 273 362T302 435Q302
483 274 506T197 530H172L175 549H195Q234 549 263 571T292 638Q292 676 267 698T200 720Q171 720 148 711T99 681L86 694Q113 718 139 729T201 740Q252 740 283 712Z" />
<glyph unicode="&#xb4;" glyph-name="acute" horiz-adv-x="246" d="M206 761L216 738L38 654L30 670L206 761Z" />
<glyph unicode="&#xb5;" glyph-name="uni00B5" horiz-adv-x="582" d="M465 -5Q452 29 446 56T438 123Q370 -10 258 -10Q162 -10 136 74Q140 3 140 -64V-192L118 -194V519H140V142Q140 74 173 43T258 11Q367 11 434 152V519H456V170Q456 118 463 78T485 -3L465 -5Z" />
<glyph unicode="&#xb6;" glyph-name="paragraph" horiz-adv-x="686" d="M517 681V-192L495 -196V662H353V-192L331 -196V306Q218 308 167 360T116 494Q116 583 173 632T333 681H517Z" />
<glyph unicode="&#xb7;" glyph-name="middot" horiz-adv-x="163" d="M92 350T98 344T105 326Q105 317 99 311T81 304Q71 304 65 310T58 326Q58 337 64 343T81 350Q92 350 98 344Z" />
<glyph unicode="&#xb8;" glyph-name="cedilla" horiz-adv-x="212" d="M91 -74Q182 -79 182 -140Q182 -174 158 -193T98 -212Q61 -212 30 -194L40 -177Q63 -192 98 -192Q124 -192 141 -179T159 -140Q159 -115 138 -103T70 -90L76 9H92L91 -74Z" />
<glyph unicode="&#xb9;" glyph-name="uni00B9" horiz-adv-x="400" d="M241 732V322H219V707L109 642L98 658L224 732H241Z" />
<glyph unicode="&#xba;" glyph-name="ordmasculine" horiz-adv-x="500" d="M327 681T371 629T416 481Q416 385 371 331T248 277Q170 277 126 330T81 479Q81 574 126 627T249 681Q327 681 371 629ZM182 661T143 614T104 479Q104 393 142 345T248 297Q316 297 354
344T393 481Q393 568 356 614T250 661Q182 661 143 614ZM84 0V21H413V0H84Z" />
<glyph unicode="&#xbb;" glyph-name="guillemotright" horiz-adv-x="524" d="M104 503L255 295V281L104 74L89 83L230 288L90 494L104 503ZM284 503L435 295V281L284 74L269 83L410 288L270 494L284 503Z" />
<glyph unicode="&#xbc;" glyph-name="onequarter" horiz-adv-x="892" d="M241 681V271H219V656L109 591L98 607L224 681H241ZM641 742L659 733L251 -66L233 -57L641 742ZM827 132V112H769V0H747V112H556V130L688 418L706 411L578 132H747L750 259H769V132H827Z" />
<glyph unicode="&#xbd;" glyph-name="onehalf" horiz-adv-x="892" d="M241 681V271H219V656L109 591L98 607L224 681H241ZM641 742L659 733L251 -66L233 -57L641 742ZM741 416T771 387T801 311Q801 269 784 234T730 157T603 21H813L809 0H576V20Q667 114 706 160T762
239T778 310Q778 350 755 373T690 396Q629 396 588 348L571 360Q596 389 625 402T690 416Q741 416 771 387Z" />
<glyph unicode="&#xbe;" glyph-name="threequarters" horiz-adv-x="892" d="M252 689T283 661T314 588Q314 546 290 521T226 490Q269 488 296 461T324 385Q324 331 289 298T194 264Q157 264 128 277T75 317L90 328Q113 304 138 294T193 284Q245 284 273 311T302
384Q302 432 274 455T197 479H172L175 498H195Q234 498 263 520T292 587Q292 625 267 647T200 669Q171 669 148 660T99 630L86 643Q113 667 139 678T201 689Q252 689 283 661ZM641 742L659 733L251 -66L233 -57L641 742ZM827 132V112H769V0H747V112H556V130L688
418L706 411L578 132H747L750 259H769V132H827Z" />
<glyph unicode="&#xbf;" glyph-name="questiondown" horiz-adv-x="441" d="M238 406T232 413T225 430Q225 439 231 446T249 453Q259 453 265 446T272 430Q272 420 266 413T249 406Q238 406 232 413ZM164 -197T129 -180T75 -133T56 -69Q56 -34 68 -9T99 32T148
71Q178 92 196 108T226 149T239 206V252H261V204Q261 167 248 141T216 97T166 58Q137 37 120 22T91 -15T79 -69Q79 -115 115 -145T209 -176Q259 -176 296 -158T369 -99L385 -112Q347 -156 305 -176T209 -197Q164 -197 129 -180Z" />
<glyph unicode="&#xc0;" glyph-name="Agrave" horiz-adv-x="557" d="M505 0L435 203H121L51 0H28L265 681H292L530 0H505ZM128 224H428L278 663L128 224ZM200 861L374 779L367 764L188 838L200 861Z" />
<glyph unicode="&#xc1;" glyph-name="Aacute" horiz-adv-x="557" d="M505 0L435 203H121L51 0H28L265 681H292L530 0H505ZM128 224H428L278 663L128 224ZM360 861L371 838L192 764L185 779L360 861Z" />
<glyph unicode="&#xc2;" glyph-name="Acircumflex" horiz-adv-x="557" d="M505 0L435 203H121L51 0H28L265 681H292L530 0H505ZM128 224H428L278 663L128 224ZM164 766L153 780L273 869H285L405 780L393 766L279 845L164 766Z" />
<glyph unicode="&#xc3;" glyph-name="Atilde" horiz-adv-x="557" d="M505 0L435 203H121L51 0H28L265 681H292L530 0H505ZM128 224H428L278 663L128 224ZM320 804T306 809T268 828Q251 838 241 842T220 847Q202 847 189 839T160 812L146 821Q163 844 180 855T220
867Q241 867 277 846Q298 835 310 830T337 824Q354 824 367 833T396 865L410 857Q395 829 377 817T337 804Q320 804 306 809Z" />
<glyph unicode="&#xc4;" glyph-name="Adieresis" horiz-adv-x="557" d="M505 0L435 203H121L51 0H28L265 681H292L530 0H505ZM128 224H428L278 663L128 224ZM205 838T210 832T216 818Q216 810 211 805T196 799Q187 799 182 804T176 818Q176 826 181 832T196 838Q205
838 210 832ZM371 838T376 833T381 818Q381 810 376 805T362 799Q352 799 347 804T341 818Q341 827 346 832T362 838Q371 838 376 833Z" />
<glyph unicode="&#xc5;" glyph-name="Aring" horiz-adv-x="557" d="M505 0L435 203H121L51 0H28L265 681H292L530 0H505ZM128 224H428L278 663L128 224ZM316 927T337 906T359 849Q359 813 337 792T279 770Q243 770 222 791T200 848Q200 884 222 905T279 927Q316
927 337 906ZM251 909T236 893T221 848Q221 820 236 804T279 788Q307 788 322 804T338 849Q338 877 323 893T279 909Q251 909 236 893Z" />
<glyph unicode="&#xc6;" glyph-name="AE" horiz-adv-x="755" d="M481 21H712V0H464L412 196H110L35 0H12L275 681H659L656 660H313L389 370H651V349H395L481 21ZM119 218H406L289 663L119 218Z" />
<glyph unicode="&#xc7;" glyph-name="Ccedilla" horiz-adv-x="538" d="M433 -79T433 -140Q433 -174 409 -193T349 -212Q312 -212 281 -194L291 -177Q314 -192 349 -192Q375 -192 392 -179T410 -140Q410 -115 389 -103T321 -90L326 -10Q253 -5 197 36T110 155T78
340Q78 455 112 534T207 652T344 691Q397 691 433 677T505 633L492 617Q457 645 425 657T346 670Q275 670 220 635T133 525T101 340Q101 235 132 161T217 50T342 12Q395 12 430 27T499 71L513 54Q478 24 438 7T343 -10L342 -74Q433 -79 433 -140Z" />
<glyph unicode="&#xc8;" glyph-name="Egrave" horiz-adv-x="494" d="M444 681L441 660H146V370H400V349H146V21H451V0H123V681H444ZM208 861L382 779L375 764L196 838L208 861Z" />
<glyph unicode="&#xc9;" glyph-name="Eacute" horiz-adv-x="494" d="M444 681L441 660H146V370H400V349H146V21H451V0H123V681H444ZM368 861L379 838L200 764L193 779L368 861Z" />
<glyph unicode="&#xca;" glyph-name="Ecircumflex" horiz-adv-x="494" d="M444 681L441 660H146V370H400V349H146V21H451V0H123V681H444ZM172 766L161 780L281 869H293L413 780L401 766L287 845L172 766Z" />
<glyph unicode="&#xcb;" glyph-name="Edieresis" horiz-adv-x="494" d="M444 681L441 660H146V370H400V349H146V21H451V0H123V681H444ZM213 838T218 832T224 818Q224 810 219 805T204 799Q195 799 190 804T184 818Q184 826 189 832T204 838Q213 838 218 832ZM379
838T384 833T389 818Q389 810 384 805T370 799Q360 799 355 804T349 818Q349 827 354 832T370 838Q379 838 384 833Z" />
<glyph unicode="&#xcc;" glyph-name="Igrave" horiz-adv-x="268" d="M146 681V0H123V681H146ZM55 861L229 779L222 764L43 838L55 861Z" />
<glyph unicode="&#xcd;" glyph-name="Iacute" horiz-adv-x="268" d="M146 681V0H123V681H146ZM215 861L226 838L47 764L40 779L215 861Z" />
<glyph unicode="&#xce;" glyph-name="Icircumflex" horiz-adv-x="268" d="M146 681V0H123V681H146ZM19 766L8 780L128 869H140L260 780L248 766L134 845L19 766Z" />
<glyph unicode="&#xcf;" glyph-name="Idieresis" horiz-adv-x="268" d="M146 681V0H123V681H146ZM60 838T65 832T71 818Q71 810 66 805T51 799Q42 799 37 804T31 818Q31 826 36 832T51 838Q60 838 65 832ZM226 838T231 833T236 818Q236 810 231 805T217 799Q207
799 202 804T196 818Q196 827 201 832T217 838Q226 838 231 833Z" />
<glyph unicode="&#xd0;" glyph-name="Eth" horiz-adv-x="617" d="M374 681T457 610T540 348Q540 154 455 77T247 0H121V341H26V363H121V681H243Q374 681 457 610ZM364 21T440 93T516 348Q516 530 440 595T241 660H144V363H335V341H144V21H248Q364 21 440 93Z" />
<glyph unicode="&#xd1;" glyph-name="Ntilde" horiz-adv-x="661" d="M538 0H510L142 656Q145 604 145 477V0H123V681H152L519 26Q516 146 516 205V681H538V0ZM378 804T364 809T326 828Q309 838 299 842T278 847Q260 847 247 839T218 812L204 821Q221 844 238 855T278
867Q299 867 335 846Q356 835 368 830T395 824Q412 824 425 833T454 865L468 857Q453 829 435 817T395 804Q378 804 364 809Z" />
<glyph unicode="&#xd2;" glyph-name="Ograve" horiz-adv-x="689" d="M425 691T485 651T578 532T611 340Q611 175 541 83T344 -10Q264 -10 204 31T111 150T78 339Q78 449 111 528T205 649T344 691Q425 691 485 651ZM271 670T217 632T132 519T101 339Q101 235 131
162T216 50T344 12Q460 12 524 96T588 340Q588 500 523 585T344 670Q271 670 217 632ZM266 861L440 779L433 764L254 838L266 861Z" />
<glyph unicode="&#xd3;" glyph-name="Oacute" horiz-adv-x="689" d="M425 691T485 651T578 532T611 340Q611 175 541 83T344 -10Q264 -10 204 31T111 150T78 339Q78 449 111 528T205 649T344 691Q425 691 485 651ZM271 670T217 632T132 519T101 339Q101 235 131
162T216 50T344 12Q460 12 524 96T588 340Q588 500 523 585T344 670Q271 670 217 632ZM426 861L437 838L258 764L251 779L426 861Z" />
<glyph unicode="&#xd4;" glyph-name="Ocircumflex" horiz-adv-x="689" d="M425 691T485 651T578 532T611 340Q611 175 541 83T344 -10Q264 -10 204 31T111 150T78 339Q78 449 111 528T205 649T344 691Q425 691 485 651ZM271 670T217 632T132 519T101 339Q101 235
131 162T216 50T344 12Q460 12 524 96T588 340Q588 500 523 585T344 670Q271 670 217 632ZM230 766L219 780L339 869H351L471 780L459 766L345 845L230 766Z" />
<glyph unicode="&#xd5;" glyph-name="Otilde" horiz-adv-x="689" d="M425 691T485 651T578 532T611 340Q611 175 541 83T344 -10Q264 -10 204 31T111 150T78 339Q78 449 111 528T205 649T344 691Q425 691 485 651ZM271 670T217 632T132 519T101 339Q101 235 131
162T216 50T344 12Q460 12 524 96T588 340Q588 500 523 585T344 670Q271 670 217 632ZM386 804T372 809T334 828Q317 838 307 842T286 847Q268 847 255 839T226 812L212 821Q229 844 246 855T286 867Q307 867 343 846Q364 835 376 830T403 824Q420 824 433 833T462
865L476 857Q461 829 443 817T403 804Q386 804 372 809Z" />
<glyph unicode="&#xd6;" glyph-name="Odieresis" horiz-adv-x="689" d="M425 691T485 651T578 532T611 340Q611 175 541 83T344 -10Q264 -10 204 31T111 150T78 339Q78 449 111 528T205 649T344 691Q425 691 485 651ZM271 670T217 632T132 519T101 339Q101 235
131 162T216 50T344 12Q460 12 524 96T588 340Q588 500 523 585T344 670Q271 670 217 632ZM271 838T276 832T282 818Q282 810 277 805T262 799Q253 799 248 804T242 818Q242 826 247 832T262 838Q271 838 276 832ZM437 838T442 833T447 818Q447 810 442 805T428
799Q418 799 413 804T407 818Q407 827 412 832T428 838Q437 838 442 833Z" />
<glyph unicode="&#xd7;" glyph-name="multiply" horiz-adv-x="485" d="M371 455L387 440L257 308L387 175L371 160L243 293L114 160L98 175L226 307L98 440L114 455L241 321L371 455Z" />
<glyph unicode="&#xd8;" glyph-name="Oslash" horiz-adv-x="689" d="M527 636T569 552T611 340Q611 175 541 83T344 -10Q296 -10 255 5L224 -111L201 -104L237 12Q162 47 120 131T78 339Q78 449 111 528T205 649T344 691Q390 691 432 677V678L465 798L488 792L450
670Q527 636 569 552ZM101 222T139 144T245 33L427 656Q388 670 344 670Q271 670 217 632T132 519T101 339Q101 222 139 144ZM460 12T524 96T588 340Q588 461 551 539T443 650L261 26Q301 12 344 12Q460 12 524 96Z" />
<glyph unicode="&#xd9;" glyph-name="Ugrave" horiz-adv-x="640" d="M528 207Q528 108 477 49T321 -10Q215 -10 164 49T113 207V681H136V210Q136 117 180 65T321 12Q416 12 460 65T505 210V681H528V207ZM242 861L416 779L409 764L230 838L242 861Z" />
<glyph unicode="&#xda;" glyph-name="Uacute" horiz-adv-x="640" d="M528 207Q528 108 477 49T321 -10Q215 -10 164 49T113 207V681H136V210Q136 117 180 65T321 12Q416 12 460 65T505 210V681H528V207ZM402 861L413 838L234 764L227 779L402 861Z" />
<glyph unicode="&#xdb;" glyph-name="Ucircumflex" horiz-adv-x="640" d="M528 207Q528 108 477 49T321 -10Q215 -10 164 49T113 207V681H136V210Q136 117 180 65T321 12Q416 12 460 65T505 210V681H528V207ZM206 766L195 780L315 869H327L447 780L435 766L321
845L206 766Z" />
<glyph unicode="&#xdc;" glyph-name="Udieresis" horiz-adv-x="640" d="M528 207Q528 108 477 49T321 -10Q215 -10 164 49T113 207V681H136V210Q136 117 180 65T321 12Q416 12 460 65T505 210V681H528V207ZM247 838T252 832T258 818Q258 810 253 805T238 799Q229
799 224 804T218 818Q218 826 223 832T238 838Q247 838 252 832ZM413 838T418 833T423 818Q423 810 418 805T404 799Q394 799 389 804T383 818Q383 827 388 832T404 838Q413 838 418 833Z" />
<glyph unicode="&#xdd;" glyph-name="Yacute" horiz-adv-x="494" d="M473 681L260 271V0H237V270L21 681H47L249 292L447 681H473ZM328 861L339 838L160 764L153 779L328 861Z" />
<glyph unicode="&#xde;" glyph-name="Thorn" horiz-adv-x="558" d="M380 554T440 506T501 355Q501 147 256 147H146V0H123V681H146V554H261Q380 554 440 506ZM363 168T420 211T477 355Q477 450 424 491T261 533H146V168H258Q363 168 420 211Z" />
<glyph unicode="&#xdf;" glyph-name="germandbls" horiz-adv-x="572" d="M357 737T398 702T439 611Q439 571 421 547T368 492Q343 472 331 457T318 421Q318 396 335 378T391 335Q429 310 454 288T496 232T514 148Q514 77 475 34T369 -10Q317 -10 277 12L286 29Q320
11 368 11Q425 11 458 47T492 148Q492 193 476 224T436 276T377 320Q335 348 316 369T296 421Q296 445 309 462T350 502Q382 528 399 551T416 611Q416 658 382 687T291 716Q223 716 182 671T140 538V0H118V541Q118 634 166 685T291 737Q357 737 398 702Z" />
<glyph unicode="&#xe0;" glyph-name="agrave" horiz-adv-x="528" d="M410 59T420 37T457 6L451 -10Q420 0 406 22T391 91Q334 -10 222 -10Q149 -10 108 32T66 144Q66 222 121 265T270 308H388V370Q388 440 358 474T255 509Q192 509 112 476L105 495Q187 529 255
529Q336 529 373 490T410 372V110Q410 59 420 37ZM281 11T321 38T388 119V288H274Q187 288 139 251T90 144Q90 82 125 47T222 11Q281 11 321 38ZM172 761L348 670L340 654L162 738L172 761Z" />
<glyph unicode="&#xe1;" glyph-name="aacute" horiz-adv-x="528" d="M410 59T420 37T457 6L451 -10Q420 0 406 22T391 91Q334 -10 222 -10Q149 -10 108 32T66 144Q66 222 121 265T270 308H388V370Q388 440 358 474T255 509Q192 509 112 476L105 495Q187 529 255
529Q336 529 373 490T410 372V110Q410 59 420 37ZM281 11T321 38T388 119V288H274Q187 288 139 251T90 144Q90 82 125 47T222 11Q281 11 321 38ZM328 761L338 738L160 654L152 670L328 761Z" />
<glyph unicode="&#xe2;" glyph-name="acircumflex" horiz-adv-x="528" d="M410 59T420 37T457 6L451 -10Q420 0 406 22T391 91Q334 -10 222 -10Q149 -10 108 32T66 144Q66 222 121 265T270 308H388V370Q388 440 358 474T255 509Q192 509 112 476L105 495Q187 529
255 529Q336 529 373 490T410 372V110Q410 59 420 37ZM281 11T321 38T388 119V288H274Q187 288 139 251T90 144Q90 82 125 47T222 11Q281 11 321 38ZM139 654L128 667L248 762H260L380 667L368 654L254 738L139 654Z" />
<glyph unicode="&#xe3;" glyph-name="atilde" horiz-adv-x="528" d="M410 59T420 37T457 6L451 -10Q420 0 406 22T391 91Q334 -10 222 -10Q149 -10 108 32T66 144Q66 222 121 265T270 308H388V370Q388 440 358 474T255 509Q192 509 112 476L105 495Q187 529 255
529Q336 529 373 490T410 372V110Q410 59 420 37ZM281 11T321 38T388 119V288H274Q187 288 139 251T90 144Q90 82 125 47T222 11Q281 11 321 38ZM296 678T282 683T244 702Q227 712 217 716T196 721Q178 721 165 713T136 686L122 695Q139 718 156 729T196 741Q217
741 253 720Q274 709 286 704T313 698Q330 698 343 707T372 739L386 731Q371 703 353 691T313 678Q296 678 282 683Z" />
<glyph unicode="&#xe4;" glyph-name="adieresis" horiz-adv-x="528" d="M410 59T420 37T457 6L451 -10Q420 0 406 22T391 91Q334 -10 222 -10Q149 -10 108 32T66 144Q66 222 121 265T270 308H388V370Q388 440 358 474T255 509Q192 509 112 476L105 495Q187 529
255 529Q336 529 373 490T410 372V110Q410 59 420 37ZM281 11T321 38T388 119V288H274Q187 288 139 251T90 144Q90 82 125 47T222 11Q281 11 321 38ZM180 712T185 706T191 692Q191 684 186 679T171 673Q162 673 157 678T151 692Q151 700 156 706T171 712Q180 712
185 706ZM346 712T351 707T356 692Q356 684 351 679T337 673Q327 673 322 678T316 692Q316 701 321 706T337 712Q346 712 351 707Z" />
<glyph unicode="&#xe5;" glyph-name="aring" horiz-adv-x="528" d="M410 59T420 37T457 6L451 -10Q420 0 406 22T391 91Q334 -10 222 -10Q149 -10 108 32T66 144Q66 222 121 265T270 308H388V370Q388 440 358 474T255 509Q192 509 112 476L105 495Q187 529 255
529Q336 529 373 490T410 372V110Q410 59 420 37ZM281 11T321 38T388 119V288H274Q187 288 139 251T90 144Q90 82 125 47T222 11Q281 11 321 38ZM291 801T312 780T334 723Q334 687 312 666T254 644Q218 644 197 665T175 722Q175 758 197 779T254 801Q291 801 312
780ZM226 783T211 767T196 722Q196 694 211 678T254 662Q282 662 297 678T313 723Q313 751 298 767T254 783Q226 783 211 767Z" />
<glyph unicode="&#xe6;" glyph-name="ae" horiz-adv-x="844" d="M776 268T774 246H411Q415 130 464 71T595 11Q640 11 673 24T742 68L754 51Q718 21 681 6T595 -10Q532 -10 486 21T414 111Q372 46 327 18T222 -10Q149 -10 108 32T66 144Q66 222 121 265T270 308H388V370Q388
440 358 474T255 509Q192 509 112 476L105 495Q187 529 255 529Q331 529 368 494T410 389Q433 458 479 493T590 529Q682 529 729 463T776 284Q776 268 774 246ZM754 292Q754 391 713 450T591 509Q512 509 463 447T411 265H754V292ZM279 11T321 39T406 132Q388 185
388 255V288H274Q187 288 139 251T90 144Q90 82 125 47T222 11Q279 11 321 39Z" />
<glyph unicode="&#xe7;" glyph-name="ccedilla" horiz-adv-x="464" d="M377 -79T377 -140Q377 -174 353 -193T293 -212Q256 -212 225 -194L235 -177Q258 -192 293 -192Q319 -192 336 -179T354 -140Q354 -115 333 -103T265 -90L270 -10Q180 -4 127 66T73 257Q73
340 99 401T172 496T283 529Q325 529 357 517T418 479L405 464Q379 487 350 498T284 509Q199 509 148 443T96 257Q96 139 147 75T283 11Q355 11 410 59L423 44Q364 -9 287 -10L286 -74Q377 -79 377 -140Z" />
<glyph unicode="&#xe8;" glyph-name="egrave" d="M461 268T459 246H96Q100 130 149 71T280 11Q324 11 357 24T427 68L439 51Q403 21 366 6T280 -10Q185 -10 129 60T73 255Q73 339 97 401T167 496T272 529Q365 529 413 463T461 284Q461 268 459 246ZM439 292Q439
391 398 450T274 509Q196 509 147 447T96 265H439V292ZM193 761L369 670L361 654L183 738L193 761Z" />
<glyph unicode="&#xe9;" glyph-name="eacute" d="M461 268T459 246H96Q100 130 149 71T280 11Q324 11 357 24T427 68L439 51Q403 21 366 6T280 -10Q185 -10 129 60T73 255Q73 339 97 401T167 496T272 529Q365 529 413 463T461 284Q461 268 459 246ZM439 292Q439
391 398 450T274 509Q196 509 147 447T96 265H439V292ZM349 761L359 738L181 654L173 670L349 761Z" />
<glyph unicode="&#xea;" glyph-name="ecircumflex" d="M461 268T459 246H96Q100 130 149 71T280 11Q324 11 357 24T427 68L439 51Q403 21 366 6T280 -10Q185 -10 129 60T73 255Q73 339 97 401T167 496T272 529Q365 529 413 463T461 284Q461 268 459 246ZM439 292Q439
391 398 450T274 509Q196 509 147 447T96 265H439V292ZM160 654L149 667L269 762H281L401 667L389 654L275 738L160 654Z" />
<glyph unicode="&#xeb;" glyph-name="edieresis" d="M461 268T459 246H96Q100 130 149 71T280 11Q324 11 357 24T427 68L439 51Q403 21 366 6T280 -10Q185 -10 129 60T73 255Q73 339 97 401T167 496T272 529Q365 529 413 463T461 284Q461 268 459 246ZM439 292Q439
391 398 450T274 509Q196 509 147 447T96 265H439V292ZM201 712T206 706T212 692Q212 684 207 679T192 673Q183 673 178 678T172 692Q172 700 177 706T192 712Q201 712 206 706ZM367 712T372 707T377 692Q377 684 372 679T358 673Q348 673 343 678T337 692Q337
701 342 706T358 712Q367 712 372 707Z" />
<glyph unicode="&#xec;" glyph-name="igrave" horiz-adv-x="258" d="M140 519V0H118V519H140ZM47 761L223 670L215 654L37 738L47 761Z" />
<glyph unicode="&#xed;" glyph-name="iacute" horiz-adv-x="258" d="M140 519V0H118V519H140ZM203 761L213 738L35 654L27 670L203 761Z" />
<glyph unicode="&#xee;" glyph-name="icircumflex" horiz-adv-x="258" d="M140 519V0H118V519H140ZM14 654L3 667L123 762H135L255 667L243 654L129 738L14 654Z" />
<glyph unicode="&#xef;" glyph-name="idieresis" horiz-adv-x="258" d="M140 519V0H118V519H140ZM55 712T60 706T66 692Q66 684 61 679T46 673Q37 673 32 678T26 692Q26 700 31 706T46 712Q55 712 60 706ZM221 712T226 707T231 692Q231 684 226 679T212 673Q202
673 197 678T191 692Q191 701 196 706T212 712Q221 712 226 707Z" />
<glyph unicode="&#xf0;" glyph-name="eth" horiz-adv-x="543" d="M385 607T425 520T465 301Q465 145 413 68T268 -10Q176 -10 125 55T73 230Q73 292 95 345T159 429T260 461Q364 461 441 361Q434 455 398 526T292 651L210 566L191 573L278 662Q249 681 214 696T144
718L149 738Q228 720 292 676L358 746L373 734L307 666Q385 607 425 520ZM352 11T397 84T442 303V334Q361 441 261 441Q210 441 173 413T116 337T96 229Q96 127 141 69T268 11Q352 11 397 84Z" />
<glyph unicode="&#xf1;" glyph-name="ntilde" horiz-adv-x="581" d="M400 529T434 488T469 369V0H447V367Q447 509 330 509Q270 509 225 477T140 384V0H118V519H137L139 413Q217 529 330 529Q400 529 434 488ZM338 678T324 683T286 702Q269 712 259 716T238 721Q220
721 207 713T178 686L164 695Q181 718 198 729T238 741Q259 741 295 720Q316 709 328 704T355 698Q372 698 385 707T414 739L428 731Q413 703 395 691T355 678Q338 678 324 683Z" />
<glyph unicode="&#xf2;" glyph-name="ograve" horiz-adv-x="560" d="M377 529T432 460T488 262Q488 134 432 62T280 -10Q183 -10 128 61T73 259Q73 386 129 457T281 529Q377 529 432 460ZM195 509T146 444T96 259Q96 141 144 76T280 11Q366 11 415 76T465 262Q465
380 417 444T281 509Q195 509 146 444ZM199 761L375 670L367 654L189 738L199 761Z" />
<glyph unicode="&#xf3;" glyph-name="oacute" horiz-adv-x="560" d="M377 529T432 460T488 262Q488 134 432 62T280 -10Q183 -10 128 61T73 259Q73 386 129 457T281 529Q377 529 432 460ZM195 509T146 444T96 259Q96 141 144 76T280 11Q366 11 415 76T465 262Q465
380 417 444T281 509Q195 509 146 444ZM355 761L365 738L187 654L179 670L355 761Z" />
<glyph unicode="&#xf4;" glyph-name="ocircumflex" horiz-adv-x="560" d="M377 529T432 460T488 262Q488 134 432 62T280 -10Q183 -10 128 61T73 259Q73 386 129 457T281 529Q377 529 432 460ZM195 509T146 444T96 259Q96 141 144 76T280 11Q366 11 415 76T465
262Q465 380 417 444T281 509Q195 509 146 444ZM166 654L155 667L275 762H287L407 667L395 654L281 738L166 654Z" />
<glyph unicode="&#xf5;" glyph-name="otilde" horiz-adv-x="560" d="M377 529T432 460T488 262Q488 134 432 62T280 -10Q183 -10 128 61T73 259Q73 386 129 457T281 529Q377 529 432 460ZM195 509T146 444T96 259Q96 141 144 76T280 11Q366 11 415 76T465 262Q465
380 417 444T281 509Q195 509 146 444ZM323 678T309 683T271 702Q254 712 244 716T223 721Q205 721 192 713T163 686L149 695Q166 718 183 729T223 741Q244 741 280 720Q301 709 313 704T340 698Q357 698 370 707T399 739L413 731Q398 703 380 691T340 678Q323
678 309 683Z" />
<glyph unicode="&#xf6;" glyph-name="odieresis" horiz-adv-x="560" d="M377 529T432 460T488 262Q488 134 432 62T280 -10Q183 -10 128 61T73 259Q73 386 129 457T281 529Q377 529 432 460ZM195 509T146 444T96 259Q96 141 144 76T280 11Q366 11 415 76T465 262Q465
380 417 444T281 509Q195 509 146 444ZM207 712T212 706T218 692Q218 684 213 679T198 673Q189 673 184 678T178 692Q178 700 183 706T198 712Q207 712 212 706ZM373 712T378 707T383 692Q383 684 378 679T364 673Q354 673 349 678T343 692Q343 701 348 706T364
712Q373 712 378 707Z" />
<glyph unicode="&#xf7;" glyph-name="divide" horiz-adv-x="485" d="M253 147T259 141T266 123Q266 114 260 108T242 101Q232 101 226 107T219 123Q219 134 225 140T242 147Q253 147 259 141ZM253 561T259 555T266 537Q266 528 260 522T242 515Q232 515 226 521T219
537Q219 548 225 554T242 561Q253 561 259 555ZM78 320V341H407V320H78Z" />
<glyph unicode="&#xf8;" glyph-name="oslash" horiz-adv-x="560" d="M429 480T458 418T488 262Q488 134 432 62T280 -10Q239 -10 206 3L164 -118L145 -113L187 11Q133 40 103 104T73 259Q73 386 129 457T281 529Q323 529 355 516L395 639L415 633L374 508Q429
480 458 418ZM96 174T121 117T195 32L349 497Q318 509 281 509Q195 509 146 444T96 259Q96 174 121 117ZM366 11T415 76T465 262Q465 347 440 404T367 488L213 23Q243 11 280 11Q366 11 415 76Z" />
<glyph unicode="&#xf9;" glyph-name="ugrave" horiz-adv-x="576" d="M459 0H439V106Q410 53 365 22T259 -10Q190 -10 152 31T113 149V519H135V151Q135 81 167 46T262 11Q319 11 361 43T437 133V519H459V0ZM205 761L381 670L373 654L195 738L205 761Z" />
<glyph unicode="&#xfa;" glyph-name="uacute" horiz-adv-x="576" d="M459 0H439V106Q410 53 365 22T259 -10Q190 -10 152 31T113 149V519H135V151Q135 81 167 46T262 11Q319 11 361 43T437 133V519H459V0ZM361 761L371 738L193 654L185 670L361 761Z" />
<glyph unicode="&#xfb;" glyph-name="ucircumflex" horiz-adv-x="576" d="M459 0H439V106Q410 53 365 22T259 -10Q190 -10 152 31T113 149V519H135V151Q135 81 167 46T262 11Q319 11 361 43T437 133V519H459V0ZM172 654L161 667L281 762H293L413 667L401 654L287
738L172 654Z" />
<glyph unicode="&#xfc;" glyph-name="udieresis" horiz-adv-x="576" d="M459 0H439V106Q410 53 365 22T259 -10Q190 -10 152 31T113 149V519H135V151Q135 81 167 46T262 11Q319 11 361 43T437 133V519H459V0ZM213 712T218 706T224 692Q224 684 219 679T204 673Q195
673 190 678T184 692Q184 700 189 706T204 712Q213 712 218 706ZM379 712T384 707T389 692Q389 684 384 679T370 673Q360 673 355 678T349 692Q349 701 354 706T370 712Q379 712 384 707Z" />
<glyph unicode="&#xfd;" glyph-name="yacute" horiz-adv-x="444" d="M240 -1Q218 -63 198 -98T146 -156T59 -195L56 -177Q106 -162 134 -141T180 -89T219 0H211L23 519H47L225 17L396 519H421L240 -1ZM296 761L306 738L128 654L120 670L296 761Z" />
<glyph unicode="&#xfe;" glyph-name="thorn" horiz-adv-x="569" d="M397 529T444 461T491 264Q491 135 443 63T303 -10Q250 -10 209 15T140 80V-192L118 -196V733L140 736V435Q207 529 308 529Q397 529 444 461ZM383 11T426 77T469 264Q469 384 428 446T308 509Q254
509 215 484T140 410V106Q206 11 302 11Q383 11 426 77Z" />
<glyph unicode="&#xff;" glyph-name="ydieresis" horiz-adv-x="444" d="M240 -1Q218 -63 198 -98T146 -156T59 -195L56 -177Q106 -162 134 -141T180 -89T219 0H211L23 519H47L225 17L396 519H421L240 -1ZM148 712T153 706T159 692Q159 684 154 679T139 673Q130
673 125 678T119 692Q119 700 124 706T139 712Q148 712 153 706ZM314 712T319 707T324 692Q324 684 319 679T305 673Q295 673 290 678T284 692Q284 701 289 706T305 712Q314 712 319 707Z" />
<glyph unicode="&#x2013;" glyph-name="endash" horiz-adv-x="520" d="M49 302V323H471V302H49Z" />
<glyph unicode="&#x2014;" glyph-name="emdash" horiz-adv-x="775" d="M49 303V323H726V303H49Z" />
<glyph unicode="&#x2018;" glyph-name="quoteleft" horiz-adv-x="214" d="M95 562T89 568T83 584Q83 595 93 617L138 724H154L116 604Q129 598 129 584Q129 575 123 569T106 562Q95 562 89 568Z" />
<glyph unicode="&#x2019;" glyph-name="quoteright" horiz-adv-x="214" d="M119 725T125 719T131 703Q131 693 121 670L76 563H60L98 683Q85 690 85 703Q85 712 91 718T108 725Q119 725 125 719Z" />
<glyph unicode="&#x201a;" glyph-name="quotesinglbase" horiz-adv-x="214" d="M119 38T125 32T131 16Q131 6 121 -17L76 -124H60L98 -4Q85 3 85 16Q85 25 91 31T108 38Q119 38 125 32Z" />
<glyph unicode="&#x201c;" glyph-name="quotedblleft" horiz-adv-x="326" d="M95 583T89 589T83 605Q83 616 93 638L138 745H154L116 625Q129 619 129 605Q129 596 123 590T106 583Q95 583 89 589ZM207 583T201 589T195 605Q195 616 205 638L250 745H266L228 625Q241
619 241 605Q241 596 235 590T218 583Q207 583 201 589Z" />
<glyph unicode="&#x201d;" glyph-name="quotedblright" horiz-adv-x="326" d="M119 725T125 719T131 703Q131 693 121 670L76 563H60L98 683Q85 690 85 703Q85 712 91 718T108 725Q119 725 125 719ZM231 725T237 719T243 703Q243 693 233 670L188 563H172L210
683Q197 690 197 703Q197 712 203 718T220 725Q231 725 237 719Z" />
<glyph unicode="&#x201e;" glyph-name="quotedblbase" horiz-adv-x="326" d="M119 38T125 32T131 16Q131 6 121 -17L76 -124H60L98 -4Q85 3 85 16Q85 25 91 31T108 38Q119 38 125 32ZM231 38T237 32T243 16Q243 6 233 -17L188 -124H172L210 -4Q197 3 197 16Q197
25 203 31T220 38Q231 38 237 32Z" />
<glyph unicode="&#x2022;" glyph-name="bullet" horiz-adv-x="247" d="M138 383T147 374T156 350Q156 336 147 327T123 318Q109 318 100 327T91 350Q91 364 100 373T123 383Q138 383 147 374Z" />
<glyph unicode="&#x2039;" glyph-name="guilsinglleft" horiz-adv-x="345" d="M240 503L255 494L115 288L255 83L240 74L89 281V295L240 503Z" />
<glyph unicode="&#x203a;" glyph-name="guilsinglright" horiz-adv-x="345" d="M104 503L255 295V281L104 74L89 83L230 288L90 494L104 503Z" />
</font>
</defs>
</svg>
