<?xml version="1.0" standalone="no"?>
<!DOCTYPE svg PUBLIC "-//W3C//DTD SVG 1.1//EN" "http://www.w3.org/Graphics/SVG/1.1/DTD/svg11.dtd">
<svg xmlns="http://www.w3.org/2000/svg">
<defs >
<font id="FiraSans" horiz-adv-x="544" ><font-face
    font-family="Fira Sans Light"
    units-per-em="1000"
    panose-1="2 11 4 3 5 0 0 2 0 4"
    ascent="935"
    descent="-265"
    alphabetic="0" />
<glyph unicode=" " glyph-name="space" horiz-adv-x="279" />
<glyph unicode="!" glyph-name="exclam" horiz-adv-x="240" d="M150 685L146 218H93L88 685H150ZM141 84T154 71T168 37Q168 17 155 3T120 -11Q100 -11 86 3T72 37Q72 57 86 70T120 84Q141 84 154 71Z" />
<glyph unicode="&quot;" glyph-name="quotedbl" horiz-adv-x="362" d="M80 434L71 685H133L124 434H80ZM238 434L229 685H291L282 434H238Z" />
<glyph unicode="#" glyph-name="numbersign" horiz-adv-x="503" d="M488 452H410L380 226H451V180H374L350 0H298L322 180H139L115 0H63L87 180H15V226H93L123 452H52V499H129L151 665H203L181 499H364L386 665H438L416 499H488V452ZM328 226L358 452H175L145 226H328Z" />
<glyph unicode="$" glyph-name="dollar" horiz-adv-x="526" d="M472 105T423 54T289 -9V-151H238V-11Q121 -7 39 72L74 109Q110 75 152 57T250 39Q322 39 367 76T412 180Q412 220 398 246T350 291T254 329Q152 361 109 401T65 511Q65 578 112 623T238 674V819H289V674Q340
670 377 652T451 601L416 564Q381 597 345 611T261 625Q200 625 163 595T125 513Q125 478 139 456T185 415T279 379Q345 358 386 335T449 275T472 182Q472 105 423 54Z" />
<glyph unicode="%" glyph-name="percent" horiz-adv-x="793" d="M610 703L653 676L189 -24L147 4L610 703ZM270 676T311 632T352 514Q352 440 312 396T203 351Q136 351 95 395T53 513Q53 587 94 631T203 676Q270 676 311 632ZM153 634T130 600T107 513Q107 461
130 427T203 393Q253 393 275 427T298 514Q298 566 276 600T203 634Q153 634 130 600ZM657 314T698 270T740 153Q740 78 699 34T590 -11Q524 -11 483 33T441 151Q441 226 481 270T590 314Q657 314 698 270ZM541 272T518 238T495 151Q495 99 518 65T590 31Q640 31
663 65T686 153Q686 204 663 238T590 272Q541 272 518 238Z" />
<glyph unicode="&amp;" glyph-name="ampersand" horiz-adv-x="722" d="M374 696T420 655T467 548Q467 491 430 449T314 364L519 172Q563 262 585 362L640 346Q608 226 555 137L679 23L636 -11L524 94Q481 43 428 16T300 -11Q241 -11 193 11T118 75T90 171Q90 235
126 281T234 370Q179 422 156 458T133 544Q133 610 179 653T301 696Q374 696 420 655ZM251 651T221 621T191 545Q191 507 209 477T280 396Q347 433 378 467T410 546Q410 595 380 623T301 651Q251 651 221 621ZM209 302T180 263T150 173Q150 112 193 75T305 37Q365
37 408 59T488 127L269 338Q209 302 180 263Z" />
<glyph unicode="&apos;" glyph-name="quotesingle" horiz-adv-x="204" d="M80 434L71 685H133L124 434H80Z" />
<glyph unicode="(" glyph-name="parenleft" horiz-adv-x="324" d="M270 813Q217 734 185 673T134 532T114 350Q114 247 133 168T185 28T270 -113L233 -137Q171 -50 136 12T77 157T54 350Q54 460 77 543T135 688T233 837L270 813Z" />
<glyph unicode=")" glyph-name="parenright" horiz-adv-x="324" d="M153 750T188 688T247 543T270 350Q270 240 247 157T189 12T91 -137L54 -113Q107 -34 139 27T190 168T210 350Q210 453 191 532T139 672T54 813L91 837Q153 750 188 688Z" />
<glyph unicode="*" glyph-name="asterisk" horiz-adv-x="436" d="M402 582L250 542L349 420L303 386L218 518L133 386L87 419L186 541L34 582L51 634L198 577L189 736H246L238 577L384 634L402 582Z" />
<glyph unicode="+" glyph-name="plus" horiz-adv-x="493" d="M274 508V356H424V306H274V154H219V306H69V356H219V508H274Z" />
<glyph unicode="," glyph-name="comma" horiz-adv-x="207" d="M124 84T137 71T151 37Q151 15 136 -18L80 -151H38L78 -4Q67 2 61 13T55 37Q55 57 69 70T103 84Q124 84 137 71Z" />
<glyph unicode="-" glyph-name="hyphen" horiz-adv-x="401" d="M68 288V338H333V288H68Z" />
<glyph unicode="." glyph-name="period" horiz-adv-x="207" d="M124 84T137 71T151 37Q151 16 138 3T103 -11Q83 -11 69 3T55 37Q55 57 69 70T103 84Q124 84 137 71Z" />
<glyph unicode="/" glyph-name="slash" horiz-adv-x="520" d="M351 803L401 790L169 -100L119 -87L351 803Z" />
<glyph unicode="0" glyph-name="zero" horiz-adv-x="550" d="M378 676T431 589T484 332Q484 164 431 77T275 -11Q172 -11 119 76T66 333Q66 502 119 589T275 676Q378 676 431 589ZM126 628T126 333Q126 37 275 37Q348 37 385 109T423 332Q423 483 386 555T275
628Q126 628 126 333Z" />
<glyph unicode="1" glyph-name="one" horiz-adv-x="413" d="M292 665V0H234V601L70 499L43 542L242 665H292Z" />
<glyph unicode="2" glyph-name="two" horiz-adv-x="479" d="M309 676T358 627T408 501Q408 436 381 379T297 254T111 51H426L418 0H43V49Q180 195 239 265T323 387T348 498Q348 557 314 592T222 627Q176 627 141 608T73 551L33 581Q73 630 119 653T225 676Q309
676 358 627Z" />
<glyph unicode="3" glyph-name="three" horiz-adv-x="486" d="M277 676T318 654T382 595T404 510Q404 445 368 405T273 354Q338 351 380 308T423 188Q423 130 397 85T323 15T211 -11Q95 -11 20 75L57 108Q91 71 127 55T209 38Q281 38 322 79T363 187Q363 327 213
327H169L177 374H209Q266 374 306 408T346 507Q346 562 311 594T218 627Q176 627 141 613T70 565L39 601Q79 639 123 657T221 676Q277 676 318 654Z" />
<glyph unicode="4" glyph-name="four" horiz-adv-x="518" d="M483 223V175H393V0H336V175H45V218L248 676L297 656L107 223H336L343 418H393V223H483Z" />
<glyph unicode="5" glyph-name="five" horiz-adv-x="487" d="M405 617H135V390Q190 421 249 421Q335 421 385 366T436 214Q436 149 410 98T335 18T222 -11Q111 -11 34 69L70 104Q102 70 138 54T222 38Q293 38 334 85T375 215Q375 295 338 334T236 374Q204 374
180 367T125 342H79V665H414L405 617Z" />
<glyph unicode="6" glyph-name="six" horiz-adv-x="524" d="M373 433T423 380T473 224Q473 153 448 100T378 18T277 -11Q167 -11 117 73T66 300Q66 415 95 500T178 630T306 676Q373 676 430 637L405 597Q357 628 305 628Q224 628 176 547T125 335Q192 433 296
433Q373 433 423 380ZM343 37T378 87T414 222Q414 305 380 345T288 385Q238 385 197 356T125 275Q128 159 164 98T277 37Q343 37 378 87Z" />
<glyph unicode="7" glyph-name="seven" horiz-adv-x="437" d="M401 665V620L139 -8L85 10L341 616H30V665H401Z" />
<glyph unicode="8" glyph-name="eight" horiz-adv-x="538" d="M414 321T449 280T485 173Q485 118 458 77T381 12T267 -11Q203 -11 155 12T80 76T53 172Q53 300 196 357Q137 384 110 419T82 510Q82 561 108 599T177 656T269 676Q318 676 361 657T430 601T457 511Q457
459 428 422T337 352Q414 321 449 280ZM140 461T167 433T263 380L294 369Q350 399 374 431T399 509Q399 566 364 598T269 630Q212 630 176 598T140 509Q140 461 167 433ZM339 38T381 73T424 173Q424 213 409 239T363 285T276 326L242 339Q175 313 145 273T114 172Q114
108 156 73T268 38Q339 38 381 73Z" />
<glyph unicode="9" glyph-name="nine" horiz-adv-x="518" d="M356 676T406 606T457 408Q457 279 420 197T312 66T123 -19L108 26Q246 68 318 141T398 341Q368 297 326 273T234 248Q182 248 141 273T77 346T53 458Q53 524 79 573T152 649T255 676Q356 676 406 606ZM291
296T328 321T398 396Q399 515 365 571T257 628Q190 628 152 584T113 457Q113 380 148 338T244 296Q291 296 328 321Z" />
<glyph unicode=":" glyph-name="colon" horiz-adv-x="207" d="M124 84T137 71T151 37Q151 16 138 3T103 -11Q83 -11 69 3T55 37Q55 57 69 70T103 84Q124 84 137 71ZM124 474T137 461T151 427Q151 406 138 393T103 379Q83 379 69 393T55 427Q55 447 69 460T103
474Q124 474 137 461Z" />
<glyph unicode=";" glyph-name="semicolon" horiz-adv-x="207" d="M124 84T137 71T151 37Q151 15 136 -18L80 -151H38L78 -4Q67 2 61 13T55 37Q55 57 69 70T103 84Q124 84 137 71ZM124 474T137 461T151 427Q151 406 138 393T103 379Q83 379 69 393T55 427Q55 447
69 460T103 474Q124 474 137 461Z" />
<glyph unicode="&lt;" glyph-name="less" horiz-adv-x="497" d="M412 529L433 480L115 333L433 183L412 135L64 306V360L412 529Z" />
<glyph unicode="=" glyph-name="equal" horiz-adv-x="493" d="M69 393V444H424V393H69ZM69 474V525H424V474H69Z" />
<glyph unicode="&gt;" glyph-name="greater" horiz-adv-x="497" d="M85 529L433 360V306L85 135L64 183L381 333L64 480L85 529Z" />
<glyph unicode="?" glyph-name="question" horiz-adv-x="447" d="M288 696T327 676T386 623T407 550Q407 514 394 488T363 445T313 407Q283 386 266 370T236 330T224 273V218H167V277Q167 319 181 348T215 396T267 437Q307 464 326 487T346 547Q346 593 315 619T231
646Q186 646 151 629T81 572L41 604Q82 651 128 673T234 696Q288 696 327 676ZM219 84T232 71T246 37Q246 17 233 3T198 -11Q177 -11 164 3T150 37Q150 57 163 70T198 84Q219 84 232 71Z" />
<glyph unicode="@" glyph-name="at" horiz-adv-x="1020" d="M656 696T748 643T888 502T935 308Q935 164 885 88T754 12Q704 12 673 43T632 122Q610 72 574 43T484 14Q436 14 398 40T338 115T316 232Q316 315 343 371T418 456T525 484Q600 484 670 448V190Q670
59 753 59Q809 59 842 117T876 306Q876 404 836 481T716 602T526 646Q412 646 326 593T192 447T144 239Q144 120 190 31T323 -107T525 -156Q622 -156 714 -122L730 -169Q678 -187 632 -196T524 -205Q396 -205 297 -151T141 3T85 239Q85 367 140 471T296 636T526
696Q656 696 748 643ZM538 60T570 91T616 166V419Q574 439 527 439Q454 439 414 385T374 232Q374 148 405 104T490 60Q538 60 570 91Z" />
<glyph unicode="A" glyph-name="A" horiz-adv-x="565" d="M485 0L425 187H137L77 0H16L245 685H320L548 0H485ZM154 238H409L282 636L154 238Z" />
<glyph unicode="B" glyph-name="B" horiz-adv-x="598" d="M456 355T500 314T544 190Q544 94 479 47T298 0H111V685H264Q383 685 447 642T512 514Q512 451 478 412T386 363Q456 355 500 314ZM171 635V384H309Q373 384 412 417T451 510Q451 577 406 606T270 635H171ZM482
50T482 190Q482 264 437 300T316 336H171V50H298Q482 50 482 190Z" />
<glyph unicode="C" glyph-name="C" horiz-adv-x="550" d="M400 696T439 681T519 633L487 593Q452 621 420 633T347 645Q250 645 190 571T129 343Q129 243 157 175T233 75T344 42Q393 42 427 56T496 99L527 60Q452 -11 342 -11Q262 -11 200 30T102 150T66 343Q66
456 103 535T202 655T343 696Q400 696 439 681Z" />
<glyph unicode="D" glyph-name="D" horiz-adv-x="632" d="M389 685T477 613T566 348Q566 155 477 78T258 0H111V685H247Q389 685 477 613ZM171 635V50H262Q503 50 503 348Q503 466 468 529T380 613T255 635H171Z" />
<glyph unicode="E" glyph-name="E" horiz-adv-x="512" d="M459 685L452 635H171V380H414V330H171V50H466V0H111V685H459Z" />
<glyph unicode="F" glyph-name="F" horiz-adv-x="481" d="M111 0V685H453L446 635H171V368H408V318H171V0H111Z" />
<glyph unicode="G" glyph-name="G" horiz-adv-x="618" d="M410 696T453 680T540 628L504 590Q467 619 432 632T352 645Q293 645 243 614T161 516T129 345Q129 192 187 116T349 40Q429 40 493 76V319H359L352 369H552V45Q454 -11 349 -11Q218 -11 142 80T66 345Q66
458 105 537T210 656T352 696Q410 696 453 680Z" />
<glyph unicode="H" glyph-name="H" horiz-adv-x="670" d="M499 0V335H171V0H111V685H171V386H499V685H559V0H499Z" />
<glyph unicode="I" glyph-name="I" horiz-adv-x="282" d="M171 685V0H111V685H171Z" />
<glyph unicode="J" glyph-name="J" horiz-adv-x="291" d="M185 92Q185 31 170 -7T121 -71T29 -119L13 -75Q59 -55 83 -34T116 17T125 95V685H185V92Z" />
<glyph unicode="K" glyph-name="K" horiz-adv-x="547" d="M171 685V0H111V685H171ZM530 685L246 370L547 0H474L175 367L461 685H530Z" />
<glyph unicode="L" glyph-name="L" horiz-adv-x="477" d="M171 685V54H457L449 0H111V685H171Z" />
<glyph unicode="M" glyph-name="M" horiz-adv-x="770" d="M701 0H643L612 328Q593 519 586 626L414 81H357L179 626Q174 529 159 369L156 330L126 0H69L134 685H217L387 152L551 685H635L701 0Z" />
<glyph unicode="N" glyph-name="N" horiz-adv-x="673" d="M562 0H483L160 619Q168 494 168 383V0H111V685H188L513 66Q505 182 505 269V685H562V0Z" />
<glyph unicode="O" glyph-name="O" horiz-adv-x="691" d="M429 696T492 656T590 535T625 342Q625 231 591 152T493 31T345 -11Q262 -11 199 30T101 150T66 341Q66 452 101 532T199 654T345 696Q429 696 492 656ZM245 645T187 569T129 341Q129 192 187 116T345
40Q448 40 505 115T562 342Q562 494 505 569T345 645Q245 645 187 569Z" />
<glyph unicode="P" glyph-name="P" horiz-adv-x="570" d="M394 685T459 635T525 480Q525 370 457 319T269 267H171V0H111V685H272Q394 685 459 635ZM362 316T412 353T462 479Q462 563 414 599T271 636H171V316H269Q362 316 412 353Z" />
<glyph unicode="Q" glyph-name="Q" horiz-adv-x="690" d="M509 23T559 7T649 -42L609 -93Q555 -45 497 -27T345 -9Q262 -9 199 31T101 150T66 341Q66 452 101 532T199 654T345 696Q429 696 492 656T590 535T625 342Q625 87 452 24Q509 23 559 7ZM129 192T187 116T345
40Q448 40 505 115T562 342Q562 494 505 569T345 645Q245 645 187 569T129 341Q129 192 187 116Z" />
<glyph unicode="R" glyph-name="R" horiz-adv-x="590" d="M308 307H171V0H111V685H277Q521 685 521 499Q521 425 482 381T368 318L556 0H485L308 307ZM285 356Q457 356 457 499Q457 569 414 602T275 636H171V356H285Z" />
<glyph unicode="S" glyph-name="S" horiz-adv-x="539" d="M330 696T375 678T464 620L429 582Q390 615 353 630T269 645Q205 645 166 614T127 529Q127 493 141 470T190 428T287 390Q355 369 397 345T462 283T485 187Q485 129 457 84T378 14T258 -11Q130 -11 39
75L73 113Q115 77 158 59T257 40Q331 40 377 79T424 185Q424 227 409 254T359 300T261 340Q156 372 111 414T66 528Q66 576 91 614T162 674T267 696Q330 696 375 678Z" />
<glyph unicode="T" glyph-name="T" horiz-adv-x="495" d="M485 685L478 632H277V0H218V632H15V685H485Z" />
<glyph unicode="U" glyph-name="U" horiz-adv-x="652" d="M551 214Q551 112 493 51T326 -11Q216 -11 159 50T101 214V685H161V219Q161 133 201 87T326 41Q410 41 450 87T490 219V685H551V214Z" />
<glyph unicode="V" glyph-name="V" horiz-adv-x="546" d="M530 685L307 0H240L16 685H81L274 62L468 685H530Z" />
<glyph unicode="W" glyph-name="W" horiz-adv-x="810" d="M779 685L629 0H554L404 618L254 0H181L30 685H91L221 56L371 685H438L591 56L722 685H779Z" />
<glyph unicode="X" glyph-name="X" horiz-adv-x="514" d="M290 371L504 0H436L254 329L75 0H10L219 368L31 685H99L255 408L411 685H476L290 371Z" />
<glyph unicode="Y" glyph-name="Y" horiz-adv-x="523" d="M509 685L292 268V0H232V267L13 685H80L264 321L445 685H509Z" />
<glyph unicode="Z" glyph-name="Z" horiz-adv-x="516" d="M468 685V636L104 53H462L454 0H35V50L402 633H73V685H468Z" />
<glyph unicode="[" glyph-name="bracketleft" horiz-adv-x="317" d="M251 807V758H139V-64H251V-112H84V807H251Z" />
<glyph unicode="\" glyph-name="backslash" horiz-adv-x="520" d="M169 803L401 -87L350 -100L119 791L169 803Z" />
<glyph unicode="]" glyph-name="bracketright" horiz-adv-x="317" d="M233 807V-112H66V-64H178V758H66V807H233Z" />
<glyph unicode="^" glyph-name="asciicircum" horiz-adv-x="531" d="M290 832L474 527H409L265 775L122 527H56L241 832H290Z" />
<glyph unicode="_" glyph-name="underscore" horiz-adv-x="520" d="M29 -122V-71H492V-122H29Z" />
<glyph unicode="`" glyph-name="grave" horiz-adv-x="274" d="M56 782L244 679L226 645L30 730L56 782Z" />
<glyph unicode="a" glyph-name="a" horiz-adv-x="536" d="M431 75T441 57T475 30L462 -11Q426 -4 407 16T381 77Q327 -11 218 -11Q143 -11 100 31T56 145Q56 226 113 270T273 314H373V365Q373 428 345 456T252 485Q192 485 110 455L95 499Q183 534 260 534Q431
534 431 368V116Q431 75 441 57ZM322 36T373 128V272H282Q202 272 160 241T118 148Q118 94 147 65T228 36Q322 36 373 128Z" />
<glyph unicode="b" glyph-name="b" horiz-adv-x="581" d="M412 534T462 464T512 264Q512 137 460 63T313 -11Q266 -11 228 10T163 66L157 0H106V736L164 743V450Q226 534 321 534Q412 534 462 464ZM373 37T411 94T450 264Q450 486 309 486Q262 486 228 463T164
396V121Q189 82 224 60T302 37Q373 37 411 94Z" />
<glyph unicode="c" glyph-name="c" horiz-adv-x="469" d="M330 534T365 522T433 481L404 443Q378 464 351 474T288 484Q214 484 170 427T126 259Q126 150 169 95T287 40Q322 40 350 51T408 84L436 45Q370 -11 286 -11Q219 -11 169 21T92 113T64 258Q64 341 91
403T169 500T285 534Q330 534 365 522Z" />
<glyph unicode="d" glyph-name="d" horiz-adv-x="585" d="M479 736V0H429L422 80Q368 -11 265 -11Q174 -11 122 61T69 259Q69 340 93 402T164 499T274 534Q363 534 421 463V743L479 736ZM324 37T358 61T421 134V407Q365 486 284 486Q213 486 172 427T131 260Q131
152 169 95T274 37Q324 37 358 61Z" />
<glyph unicode="e" glyph-name="e" horiz-adv-x="536" d="M477 259T475 239H126Q131 137 174 88T289 38Q330 38 361 50T430 90L457 53Q418 21 377 5T286 -11Q182 -11 123 60T64 257Q64 340 89 402T162 499T273 534Q373 534 425 467T477 281Q477 259 475 239ZM420
299Q420 387 384 436T275 486Q210 486 170 436T126 284H420V299Z" />
<glyph unicode="f" glyph-name="f" horiz-adv-x="321" d="M215 695T193 674T170 607V523H308L300 476H170V0H112V476H21V523H112V609Q112 671 150 707T257 743Q318 743 379 715L359 672Q307 695 260 695Q215 695 193 674Z" />
<glyph unicode="g" glyph-name="g" horiz-adv-x="503" d="M495 512Q447 499 350 497Q439 455 439 355Q439 278 388 231T250 183Q211 183 182 193Q163 182 153 167T142 133Q142 79 225 79H310Q387 79 432 42T478 -55Q478 -127 421 -166T251 -205Q134 -205 84 -170T33
-55H87Q88 -93 103 -115T153 -147T251 -157Q339 -157 379 -132T419 -58Q419 -16 388 6T301 29H216Q154 29 121 55T87 121Q87 147 102 170T144 210Q99 233 78 269T56 357Q56 436 109 485T248 534Q343 533 386 541T477 568L495 512ZM183 489T150 453T116 357Q116
295 151 260T248 225Q312 225 346 259T380 356Q380 419 347 454T248 489Q183 489 150 453Z" />
<glyph unicode="h" glyph-name="h" horiz-adv-x="584" d="M407 534T445 492T483 374V0H425V366Q425 487 326 487Q276 487 238 460T164 379V0H106V736L164 743V436Q234 534 337 534Q407 534 445 492Z" />
<glyph unicode="i" glyph-name="i" horiz-adv-x="270" d="M164 523V0H106V523H164ZM154 753T166 741T178 711Q178 693 166 681T134 669Q115 669 103 681T91 711Q91 729 103 741T134 753Q154 753 166 741Z" />
<glyph unicode="j" glyph-name="j" horiz-adv-x="270" d="M164 19Q164 -49 149 -89T105 -154T23 -203L6 -161Q44 -142 64 -124T95 -73T106 17V523H164V19ZM154 753T166 741T178 711Q178 693 166 681T134 669Q115 669 103 681T91 711Q91 729 103 741T134 753Q154
753 166 741Z" />
<glyph unicode="k" glyph-name="k" horiz-adv-x="488" d="M164 743V0H106V736L164 743ZM457 523L237 289L480 0H410L170 286L390 523H457Z" />
<glyph unicode="l" glyph-name="l" horiz-adv-x="284" d="M150 -11T126 14T101 88V736L159 743V90Q159 39 201 39Q222 39 237 46L253 3Q225 -11 193 -11Q150 -11 126 14Z" />
<glyph unicode="m" glyph-name="m" horiz-adv-x="853" d="M679 534T715 491T752 374V0H694V366Q694 428 671 457T605 487Q561 487 526 459T458 379V0H400V366Q400 428 377 457T311 487Q266 487 231 459T164 379V0H106V523H156L161 434Q191 481 232 507T322 534Q372
534 406 507T452 430Q483 479 524 506T616 534Q679 534 715 491Z" />
<glyph unicode="n" glyph-name="n" horiz-adv-x="584" d="M408 534T445 492T483 374V0H425V366Q425 429 400 458T326 487Q276 487 238 460T164 379V0H106V523H156L162 434Q194 481 238 507T337 534Q408 534 445 492Z" />
<glyph unicode="o" glyph-name="o" horiz-adv-x="571" d="M390 534T448 463T507 263Q507 136 448 63T285 -11Q181 -11 123 61T64 261Q64 344 91 406T168 501T286 534Q390 534 448 463ZM210 485T168 428T126 261Q126 152 167 95T285 38Q361 38 403 95T446 263Q446
372 405 428T286 485Q210 485 168 428Z" />
<glyph unicode="p" glyph-name="p" horiz-adv-x="581" d="M417 534T464 464T512 264Q512 138 461 64T313 -11Q266 -11 228 8T164 61V-197L106 -205V523H156L161 447Q190 488 231 511T322 534Q417 534 464 464ZM374 38T412 95T450 264Q450 486 311 486Q264 486
230 462T164 396V118Q216 38 302 38Q374 38 412 95Z" />
<glyph unicode="q" glyph-name="q" horiz-adv-x="585" d="M479 523V-205L421 -197V76Q396 36 357 13T265 -11Q174 -11 122 61T69 259Q69 340 94 402T165 499T275 534Q365 534 425 460L429 523H479ZM325 37T359 61T421 133V408Q366 486 285 486Q214 486 172 427T131
260Q131 152 169 95T275 37Q325 37 359 61Z" />
<glyph unicode="r" glyph-name="r" horiz-adv-x="373" d="M340 534T361 528L350 473Q328 479 304 479Q251 479 219 441T164 320V0H106V523H156L161 406Q182 471 218 502T309 534Q340 534 361 528Z" />
<glyph unicode="s" glyph-name="s" horiz-adv-x="464" d="M283 534T323 520T401 476L374 438Q338 463 306 474T236 486Q184 486 152 462T120 398Q120 360 147 339T247 299Q336 276 375 241T415 141Q415 71 361 30T226 -11Q166 -11 121 6T39 56L71 93Q106 65 142
52T225 38Q283 38 318 64T354 138Q354 170 342 190T301 224T216 254Q133 276 97 309T60 397Q60 436 83 467T145 516T234 534Q283 534 323 520Z" />
<glyph unicode="t" glyph-name="t" horiz-adv-x="341" d="M344 22Q294 -11 234 -11Q174 -11 140 24T106 127V476H18V523H106V648L164 655V523H299L292 476H164V130Q164 84 183 62T241 39Q281 39 321 62L344 22Z" />
<glyph unicode="u" glyph-name="u" horiz-adv-x="579" d="M473 0H423L420 93Q358 -11 249 -11Q178 -11 140 30T101 149V523H159V155Q159 94 184 66T262 37Q353 37 415 144V523H473V0Z" />
<glyph unicode="v" glyph-name="v" horiz-adv-x="470" d="M455 523L274 0H202L15 523H79L238 51L393 523H455Z" />
<glyph unicode="w" glyph-name="w" horiz-adv-x="698" d="M673 523L545 0H467L351 469L233 0H156L25 523H85L197 45L319 523H385L505 44L616 523H673Z" />
<glyph unicode="x" glyph-name="x" horiz-adv-x="459" d="M264 280L448 0H378L227 243L77 0H10L194 278L34 523H102L230 314L359 523H425L264 280Z" />
<glyph unicode="y" glyph-name="y" horiz-adv-x="468" d="M273 -2Q252 -63 227 -102T162 -166T59 -204L53 -159Q105 -146 134 -127T181 -80T217 0H197L15 523H78L236 43L391 523H452L273 -2Z" />
<glyph unicode="z" glyph-name="z" horiz-adv-x="422" d="M388 523V478L96 50H386L380 0H28V45L320 473H52V523H388Z" />
<glyph unicode="{" glyph-name="braceleft" horiz-adv-x="326" d="M262 783Q215 783 195 765T175 705V451Q175 402 157 381T99 349Q140 338 157 318T175 247V-6Q175 -47 195 -65T262 -84V-129Q188 -129 154 -100T120 -4V251Q120 290 102 307T44 324V374Q83 374
101 391T120 448V703Q120 769 154 798T262 828V783Z" />
<glyph unicode="|" glyph-name="bar" horiz-adv-x="407" d="M230 804V-100H176V804H230Z" />
<glyph unicode="}" glyph-name="braceright" horiz-adv-x="326" d="M137 828T171 799T206 703V448Q206 408 224 391T282 374V324Q243 324 225 307T206 251V-4Q206 -70 172 -99T64 -129V-84Q111 -84 131 -66T151 -6V247Q151 297 168 317T227 349Q187 360 169 381T151
451V705Q151 746 131 764T64 783V828Q137 828 171 799Z" />
<glyph unicode="~" glyph-name="asciitilde" horiz-adv-x="472" d="M289 264T269 272T221 297Q199 310 186 316T158 322Q136 322 120 310T88 275L51 295Q73 331 98 351T162 371Q185 371 205 363T252 338Q276 325 289 319T316 313Q338 313 353 324T384 357L420
337Q399 303 375 284T312 264Q289 264 269 272Z" />
<glyph unicode="&#xa0;" glyph-name="uni00A0" horiz-adv-x="280" />
<glyph unicode="&#xa1;" glyph-name="exclamdown" horiz-adv-x="240" d="M141 475T154 461T168 427Q168 407 155 394T120 380Q99 380 86 393T72 427Q72 447 85 461T120 475Q141 475 154 461ZM147 249L152 -197H90L95 249H147Z" />
<glyph unicode="&#xa2;" glyph-name="cent" horiz-adv-x="469" d="M380 -3T311 -10V-150H260V-10Q170 -1 117 69T64 258Q64 376 117 450T261 533V680H311V533Q380 527 433 481L404 443Q378 464 351 474T288 484Q214 484 170 427T126 259Q126 150 169 95T287 40Q322
40 350 51T408 84L436 45Q380 -3 311 -10Z" />
<glyph unicode="&#xa3;" glyph-name="sterling" horiz-adv-x="509" d="M192 122T177 96T125 51H453L446 0H51V48Q99 69 116 94T134 170V331H69V374H134V500Q134 577 179 626T306 676Q357 676 396 658T468 601L429 570Q403 600 375 613T308 627Q252 627 222 593T192
499V374H406V331H192V171Q192 122 177 96Z" />
<glyph unicode="&#xa4;" glyph-name="currency" horiz-adv-x="560" d="M473 267T432 215L511 138L475 102L396 181Q347 146 280 146Q213 146 165 183L84 102L49 138L130 217Q90 269 90 341Q90 412 129 463L49 543L85 579L165 499Q214 535 280 535Q347 535 396
500L476 579L511 543L433 465Q473 413 473 341Q473 267 432 215ZM347 193T382 233T417 341Q417 409 382 449T281 489Q216 489 181 449T146 341Q146 273 181 233T281 193Q347 193 382 233Z" />
<glyph unicode="&#xa5;" glyph-name="yen" horiz-adv-x="512" d="M499 665L304 338H422V295H286V192H422V149H286V0H227V149H91V192H227V295H91V338H208L13 665H79L258 353L436 665H499Z" />
<glyph unicode="&#xa6;" glyph-name="brokenbar" horiz-adv-x="407" d="M230 804V443H176V804H230ZM230 262V-100H176V262H230Z" />
<glyph unicode="&#xa7;" glyph-name="section" horiz-adv-x="532" d="M400 149T413 126T426 68Q426 6 377 -31T251 -68Q162 -68 88 -21L113 20Q144 0 177 -10T253 -20Q305 -20 336 3T367 63Q367 90 358 106T322 137T243 170Q183 190 150 208T100 252T84 317Q84
353 104 385T163 441Q134 460 122 483T109 540Q109 601 156 638T276 675Q325 675 361 663T434 626L410 587Q377 608 346 617T276 627Q226 627 197 604T167 543Q167 517 177 500T215 468T297 435Q379 407 414 375T449 289Q449 218 372 167Q400 149 413 126ZM141
295T151 278T186 246T260 215Q311 197 335 186Q365 208 378 231T392 282Q392 309 383 326T349 359T274 392Q231 407 199 422Q141 377 141 323Q141 295 151 278Z" />
<glyph unicode="&#xa8;" glyph-name="dieresis" horiz-adv-x="329" d="M87 742T98 731T110 702Q110 685 99 674T70 663Q53 663 42 674T30 702Q30 719 41 730T70 742Q87 742 98 731ZM276 742T287 731T299 702Q299 685 288 674T259 663Q242 663 231 674T219 702Q219
719 230 730T259 742Q276 742 287 731Z" />
<glyph unicode="&#xa9;" glyph-name="copyright" horiz-adv-x="810" d="M488 736T556 698T663 591T702 435Q702 349 663 280T556 173T405 134Q322 134 254 172T147 279T108 435Q108 521 147 590T254 697T405 736Q488 736 556 698ZM334 697T276 664T186 571T153
435Q153 358 185 299T275 206T406 173Q478 173 535 206T624 299T657 435Q657 512 625 571T535 664T406 697Q334 697 276 664ZM438 616T462 608T509 581L485 548Q467 561 449 567T408 573Q367 573 339 541T310 436Q310 367 337 333T409 298Q434 298 453 305T493
327L515 294Q467 254 407 254Q340 254 300 302T259 436Q259 495 279 535T333 596T406 616Q438 616 462 608Z" />
<glyph unicode="&#xaa;" glyph-name="ordfeminine" horiz-adv-x="500" d="M331 521V555Q331 600 310 619T238 639Q189 639 125 617L110 659Q182 685 244 685Q318 685 353 654T388 559V375Q388 345 396 333T421 313L409 274Q379 279 363 294T340 337Q295 274 210
274Q149 274 114 306T79 392Q79 454 126 487T255 521H331ZM293 319T331 385V481H263Q139 481 139 395Q139 358 160 339T221 319Q293 319 331 385ZM80 51H435V0H80V51Z" />
<glyph unicode="&#xab;" glyph-name="guillemotleft" horiz-adv-x="555" d="M235 520L271 495L134 288L271 80L235 56L71 268V307L235 520ZM448 520L484 495L347 288L484 80L448 56L284 268V307L448 520Z" />
<glyph unicode="&#xac;" glyph-name="logicalnot" horiz-adv-x="499" d="M430 347V168H375V296H69V347H430Z" />
<glyph unicode="&#xad;" glyph-name="uni00AD" horiz-adv-x="401" d="M68 288V338H333V288H68Z" />
<glyph unicode="&#xae;" glyph-name="registered" horiz-adv-x="639" d="M386 737T441 706T528 619T560 497Q560 431 528 376T441 289T319 257Q253 257 198 288T112 374T80 495Q80 561 112 616T198 704T319 737Q386 737 441 706ZM375 293T421 320T493 393T520
497Q520 555 494 601T422 674T319 700Q264 700 219 673T147 599T120 495Q120 438 146 392T218 319T319 293Q375 293 421 320ZM419 499T355 482L429 364H379L315 475H278V364H236V636H305Q419 636 419 555Q419 499 355 482ZM278 510H317Q376 510 376 555Q376 580
360 590T311 601H278V510Z" />
<glyph unicode="&#xaf;" glyph-name="overscore" horiz-adv-x="301" d="M271 676H30V723H271V676Z" />
<glyph unicode="&#xb0;" glyph-name="degree" horiz-adv-x="521" d="M180 395T146 413T90 465T69 546Q69 591 90 625T145 677T219 696Q260 696 294 678T349 626T370 545Q370 500 350 466T295 414T219 395Q180 395 146 413ZM263 439T290 467T318 545Q318 595 291
623T219 652Q177 652 149 624T120 546Q120 497 148 468T219 439Q263 439 290 467Z" />
<glyph unicode="&#xb1;" glyph-name="plusminus" horiz-adv-x="493" d="M69 0V51H424V0H69ZM274 518V366H424V316H274V164H219V316H69V366H219V518H274Z" />
<glyph unicode="&#xb2;" glyph-name="uni00B2" horiz-adv-x="400" d="M254 743T288 711T322 630Q322 592 305 559T251 484T135 366H334L327 323H75V364Q161 450 199 492T253 564T269 626Q269 661 249 680T193 700Q164 700 143 689T101 655L66 681Q93 713 125 728T197
743Q254 743 288 711Z" />
<glyph unicode="&#xb3;" glyph-name="uni00B3" horiz-adv-x="400" d="M257 744T291 715T325 640Q325 601 302 576T239 543Q281 541 308 514T336 440Q336 385 297 350T192 315Q114 315 63 371L94 399Q135 357 189 357Q234 357 258 380T283 441Q283 521 192 521H162L169
560H189Q224 560 248 579T273 635Q273 667 252 685T196 703Q169 703 147 694T101 665L74 696Q102 720 132 732T199 744Q257 744 291 715Z" />
<glyph unicode="&#xb4;" glyph-name="acute" horiz-adv-x="274" d="M218 782L244 730L49 645L30 679L218 782Z" />
<glyph unicode="&#xb5;" glyph-name="uni00B5" horiz-adv-x="585" d="M446 -9Q434 21 429 44T420 102Q358 -11 262 -11Q221 -11 195 5T153 52Q164 -6 164 -80V-197L106 -203V523H164V150Q164 93 191 67T262 40Q357 40 414 158V523H472V177Q472 77 499 -2L446 -9Z" />
<glyph unicode="&#xb6;" glyph-name="paragraph" horiz-adv-x="708" d="M557 685V-197L503 -206V637H375V-197L321 -206V294Q207 298 154 351T101 490Q101 583 162 634T333 685H557Z" />
<glyph unicode="&#xb7;" glyph-name="middot" horiz-adv-x="207" d="M124 366T137 353T151 319Q151 298 138 285T103 271Q83 271 69 285T55 319Q55 339 69 352T103 366Q124 366 137 353Z" />
<glyph unicode="&#xb8;" glyph-name="cedilla" horiz-adv-x="245" d="M123 -64Q170 -68 192 -88T215 -140Q215 -181 185 -204T110 -227Q62 -227 30 -206L48 -170Q75 -185 109 -185Q133 -185 148 -174T164 -140Q164 -118 143 -107T75 -96L85 16H123V-64Z" />
<glyph unicode="&#xb9;" glyph-name="uni00B9" horiz-adv-x="400" d="M258 737V323H207V682L104 622L81 658L214 737H258Z" />
<glyph unicode="&#xba;" glyph-name="ordmasculine" horiz-adv-x="500" d="M334 685T382 632T430 481Q430 385 382 330T248 274Q164 274 116 328T68 479Q68 574 116 629T249 685Q334 685 382 632ZM192 639T160 599T128 479Q128 401 159 361T249 320Q307 320 338
360T370 481Q370 560 339 599T250 639Q192 639 160 599ZM71 0V51H426V0H71Z" />
<glyph unicode="&#xbb;" glyph-name="guillemotright" horiz-adv-x="546" d="M107 520L271 307V268L107 56L71 80L209 288L71 495L107 520ZM311 520L475 307V268L311 56L275 80L413 288L275 495L311 520Z" />
<glyph unicode="&#xbc;" glyph-name="onequarter" horiz-adv-x="914" d="M258 685V271H207V630L104 570L81 606L214 685H258ZM641 747L681 728L274 -71L233 -51L641 747ZM861 145V103H805V0H755V103H566V140L696 421L740 404L620 145H755L760 260H805V145H861Z" />
<glyph unicode="&#xbd;" glyph-name="onehalf" horiz-adv-x="914" d="M258 685V271H207V630L104 570L81 606L214 685H258ZM641 747L681 728L274 -71L233 -51L641 747ZM768 420T802 388T836 307Q836 269 819 236T765 161T649 43H848L841 0H589V41Q675 127 713 169T767
241T783 303Q783 338 763 357T707 377Q678 377 657 366T615 332L580 358Q607 390 639 405T711 420Q768 420 802 388Z" />
<glyph unicode="&#xbe;" glyph-name="threequarters" horiz-adv-x="914" d="M257 692T291 663T325 588Q325 549 302 524T239 491Q281 489 308 462T336 388Q336 333 297 298T192 263Q114 263 63 319L94 347Q135 305 189 305Q234 305 258 328T283 389Q283 469 192
469H162L169 508H189Q224 508 248 527T273 583Q273 615 252 633T196 651Q169 651 147 642T101 613L74 644Q102 668 132 680T199 692Q257 692 291 663ZM641 747L681 728L274 -71L233 -51L641 747ZM861 145V103H805V0H755V103H566V140L696 421L740 404L620 145H755L760
260H805V145H861Z" />
<glyph unicode="&#xbf;" glyph-name="questiondown" horiz-adv-x="447" d="M229 380T216 393T202 427Q202 448 215 461T250 475Q270 475 283 461T297 427Q297 407 284 394T250 380Q229 380 216 393ZM160 -206T121 -186T62 -134T41 -64Q41 -27 54 -1T86 43T137
81Q180 111 201 136T223 204V249H280V200Q280 161 267 134T234 89T183 50Q142 23 122 0T102 -62Q102 -104 133 -130T216 -157Q260 -157 296 -139T366 -82L407 -114Q365 -161 319 -183T213 -206Q160 -206 121 -186Z" />
<glyph unicode="&#xc0;" glyph-name="Agrave" horiz-adv-x="565" d="M485 0L425 187H137L77 0H16L245 685H320L548 0H485ZM154 238H409L282 636L154 238ZM197 888L385 792L369 758L171 836L197 888Z" />
<glyph unicode="&#xc1;" glyph-name="Aacute" horiz-adv-x="565" d="M485 0L425 187H137L77 0H16L245 685H320L548 0H485ZM154 238H409L282 636L154 238ZM364 888L390 836L192 758L176 792L364 888Z" />
<glyph unicode="&#xc2;" glyph-name="Acircumflex" horiz-adv-x="565" d="M485 0L425 187H137L77 0H16L245 685H320L548 0H485ZM154 238H409L282 636L154 238ZM161 762L135 792L265 894H301L430 792L404 762L283 842L161 762Z" />
<glyph unicode="&#xc3;" glyph-name="Atilde" horiz-adv-x="565" d="M485 0L425 187H137L77 0H16L245 685H320L548 0H485ZM154 238H409L282 636L154 238ZM323 792T308 798T271 818Q255 828 245 833T224 838Q207 838 195 829T168 798L132 816Q169 884 224 884Q241
884 255 878T288 860Q306 849 317 844T341 839Q357 839 369 849T397 882L433 864Q398 792 341 792Q323 792 308 798Z" />
<glyph unicode="&#xc4;" glyph-name="Adieresis" horiz-adv-x="565" d="M485 0L425 187H137L77 0H16L245 685H320L548 0H485ZM154 238H409L282 636L154 238ZM205 868T216 857T228 828Q228 811 217 800T188 789Q171 789 160 800T148 828Q148 845 159 856T188 868Q205
868 216 857ZM394 868T405 857T417 828Q417 811 406 800T377 789Q360 789 349 800T337 828Q337 845 348 856T377 868Q394 868 405 857Z" />
<glyph unicode="&#xc5;" glyph-name="Aring" horiz-adv-x="565" d="M485 0L425 187H137L77 0H16L245 685H320L548 0H485ZM154 238H409L282 636L154 238ZM326 947T353 921T381 853Q381 812 354 786T283 759Q239 759 212 785T184 853Q184 894 211 920T283 947Q326
947 353 921ZM256 911T242 896T227 853Q227 825 241 810T283 795Q309 795 323 810T338 853Q338 880 324 895T283 911Q256 911 242 896Z" />
<glyph unicode="&#xc6;" glyph-name="AE" horiz-adv-x="784" d="M509 50H737V0H461L415 184H130L60 0H0L267 685H690L683 635H358L424 379H682V330H437L509 50ZM149 235H402L302 637L149 235Z" />
<glyph unicode="&#xc7;" glyph-name="Ccedilla" horiz-adv-x="550" d="M405 -68T427 -88T450 -140Q450 -181 420 -204T345 -227Q297 -227 265 -206L283 -170Q310 -185 344 -185Q368 -185 383 -174T399 -140Q399 -118 378 -107T310 -96L318 -10Q244 -4 187 38T98
158T66 343Q66 456 103 535T202 655T343 696Q400 696 439 681T519 633L487 593Q452 621 420 633T347 645Q250 645 190 571T129 343Q129 243 157 175T233 75T344 42Q393 42 427 56T496 99L527 60Q460 -6 358 -11V-64Q405 -68 427 -88Z" />
<glyph unicode="&#xc8;" glyph-name="Egrave" horiz-adv-x="512" d="M459 685L452 635H171V380H414V330H171V50H466V0H111V685H459ZM203 888L391 792L375 758L177 836L203 888Z" />
<glyph unicode="&#xc9;" glyph-name="Eacute" horiz-adv-x="512" d="M459 685L452 635H171V380H414V330H171V50H466V0H111V685H459ZM370 888L396 836L198 758L182 792L370 888Z" />
<glyph unicode="&#xca;" glyph-name="Ecircumflex" horiz-adv-x="512" d="M459 685L452 635H171V380H414V330H171V50H466V0H111V685H459ZM167 762L141 792L271 894H307L436 792L410 762L289 842L167 762Z" />
<glyph unicode="&#xcb;" glyph-name="Edieresis" horiz-adv-x="512" d="M459 685L452 635H171V380H414V330H171V50H466V0H111V685H459ZM211 868T222 857T234 828Q234 811 223 800T194 789Q177 789 166 800T154 828Q154 845 165 856T194 868Q211 868 222 857ZM400
868T411 857T423 828Q423 811 412 800T383 789Q366 789 355 800T343 828Q343 845 354 856T383 868Q400 868 411 857Z" />
<glyph unicode="&#xcc;" glyph-name="Igrave" horiz-adv-x="282" d="M171 685V0H111V685H171ZM54 888L242 792L226 758L28 836L54 888Z" />
<glyph unicode="&#xcd;" glyph-name="Iacute" horiz-adv-x="282" d="M171 685V0H111V685H171ZM221 888L247 836L49 758L33 792L221 888Z" />
<glyph unicode="&#xce;" glyph-name="Icircumflex" horiz-adv-x="282" d="M171 685V0H111V685H171ZM18 762L-8 792L122 894H158L287 792L261 762L140 842L18 762Z" />
<glyph unicode="&#xcf;" glyph-name="Idieresis" horiz-adv-x="282" d="M171 685V0H111V685H171ZM62 868T73 857T85 828Q85 811 74 800T45 789Q28 789 17 800T5 828Q5 845 16 856T45 868Q62 868 73 857ZM251 868T262 857T274 828Q274 811 263 800T234 789Q217
789 206 800T194 828Q194 845 205 856T234 868Q251 868 262 857Z" />
<glyph unicode="&#xd0;" glyph-name="Eth" horiz-adv-x="637" d="M394 685T482 613T571 348Q571 155 482 78T263 0H116V328H23V376H116V685H252Q394 685 482 613ZM508 50T508 348Q508 466 473 529T385 613T260 635H176V376H351V328H176V50H267Q508 50 508 348Z" />
<glyph unicode="&#xd1;" glyph-name="Ntilde" horiz-adv-x="673" d="M562 0H483L160 619Q168 494 168 383V0H111V685H188L513 66Q505 182 505 269V685H562V0ZM385 792T370 798T333 818Q317 828 307 833T286 838Q269 838 257 829T230 798L194 816Q231 884 286 884Q303
884 317 878T350 860Q368 849 379 844T403 839Q419 839 431 849T459 882L495 864Q460 792 403 792Q385 792 370 798Z" />
<glyph unicode="&#xd2;" glyph-name="Ograve" horiz-adv-x="691" d="M429 696T492 656T590 535T625 342Q625 231 591 152T493 31T345 -11Q262 -11 199 30T101 150T66 341Q66 452 101 532T199 654T345 696Q429 696 492 656ZM245 645T187 569T129 341Q129 192 187
116T345 40Q448 40 505 115T562 342Q562 494 505 569T345 645Q245 645 187 569ZM259 888L447 792L431 758L233 836L259 888Z" />
<glyph unicode="&#xd3;" glyph-name="Oacute" horiz-adv-x="691" d="M429 696T492 656T590 535T625 342Q625 231 591 152T493 31T345 -11Q262 -11 199 30T101 150T66 341Q66 452 101 532T199 654T345 696Q429 696 492 656ZM245 645T187 569T129 341Q129 192 187
116T345 40Q448 40 505 115T562 342Q562 494 505 569T345 645Q245 645 187 569ZM426 888L452 836L254 758L238 792L426 888Z" />
<glyph unicode="&#xd4;" glyph-name="Ocircumflex" horiz-adv-x="691" d="M429 696T492 656T590 535T625 342Q625 231 591 152T493 31T345 -11Q262 -11 199 30T101 150T66 341Q66 452 101 532T199 654T345 696Q429 696 492 656ZM245 645T187 569T129 341Q129 192
187 116T345 40Q448 40 505 115T562 342Q562 494 505 569T345 645Q245 645 187 569ZM223 762L197 792L327 894H363L492 792L466 762L345 842L223 762Z" />
<glyph unicode="&#xd5;" glyph-name="Otilde" horiz-adv-x="691" d="M429 696T492 656T590 535T625 342Q625 231 591 152T493 31T345 -11Q262 -11 199 30T101 150T66 341Q66 452 101 532T199 654T345 696Q429 696 492 656ZM245 645T187 569T129 341Q129 192 187
116T345 40Q448 40 505 115T562 342Q562 494 505 569T345 645Q245 645 187 569ZM385 792T370 798T333 818Q317 828 307 833T286 838Q269 838 257 829T230 798L194 816Q231 884 286 884Q303 884 317 878T350 860Q368 849 379 844T403 839Q419 839 431 849T459 882L495
864Q460 792 403 792Q385 792 370 798Z" />
<glyph unicode="&#xd6;" glyph-name="Odieresis" horiz-adv-x="691" d="M429 696T492 656T590 535T625 342Q625 231 591 152T493 31T345 -11Q262 -11 199 30T101 150T66 341Q66 452 101 532T199 654T345 696Q429 696 492 656ZM245 645T187 569T129 341Q129 192
187 116T345 40Q448 40 505 115T562 342Q562 494 505 569T345 645Q245 645 187 569ZM267 868T278 857T290 828Q290 811 279 800T250 789Q233 789 222 800T210 828Q210 845 221 856T250 868Q267 868 278 857ZM456 868T467 857T479 828Q479 811 468 800T439 789Q422
789 411 800T399 828Q399 845 410 856T439 868Q456 868 467 857Z" />
<glyph unicode="&#xd7;" glyph-name="multiply" horiz-adv-x="493" d="M371 471L409 434L284 308L409 180L371 144L248 272L122 144L85 180L208 306L85 434L122 471L245 342L371 471Z" />
<glyph unicode="&#xd8;" glyph-name="Oslash" horiz-adv-x="691" d="M543 632T584 549T625 342Q625 231 591 152T493 31T345 -11Q303 -11 267 -1L235 -120L182 -105L221 17Q147 55 107 137T66 341Q66 452 101 532T199 654T345 696Q385 696 421 687L456 810L509
796L469 669Q543 632 584 549ZM129 235T158 167T241 66L410 636Q380 645 345 645Q245 645 187 569T129 341Q129 235 158 167ZM448 40T505 115T562 342Q562 558 448 621L279 49Q309 40 345 40Q448 40 505 115Z" />
<glyph unicode="&#xd9;" glyph-name="Ugrave" horiz-adv-x="652" d="M551 214Q551 112 493 51T326 -11Q216 -11 159 50T101 214V685H161V219Q161 133 201 87T326 41Q410 41 450 87T490 219V685H551V214ZM240 888L428 792L412 758L214 836L240 888Z" />
<glyph unicode="&#xda;" glyph-name="Uacute" horiz-adv-x="652" d="M551 214Q551 112 493 51T326 -11Q216 -11 159 50T101 214V685H161V219Q161 133 201 87T326 41Q410 41 450 87T490 219V685H551V214ZM407 888L433 836L235 758L219 792L407 888Z" />
<glyph unicode="&#xdb;" glyph-name="Ucircumflex" horiz-adv-x="652" d="M551 214Q551 112 493 51T326 -11Q216 -11 159 50T101 214V685H161V219Q161 133 201 87T326 41Q410 41 450 87T490 219V685H551V214ZM204 762L178 792L308 894H344L473 792L447 762L326
842L204 762Z" />
<glyph unicode="&#xdc;" glyph-name="Udieresis" horiz-adv-x="652" d="M551 214Q551 112 493 51T326 -11Q216 -11 159 50T101 214V685H161V219Q161 133 201 87T326 41Q410 41 450 87T490 219V685H551V214ZM248 868T259 857T271 828Q271 811 260 800T231 789Q214
789 203 800T191 828Q191 845 202 856T231 868Q248 868 259 857ZM437 868T448 857T460 828Q460 811 449 800T420 789Q403 789 392 800T380 828Q380 845 391 856T420 868Q437 868 448 857Z" />
<glyph unicode="&#xdd;" glyph-name="Yacute" horiz-adv-x="523" d="M509 685L292 268V0H232V267L13 685H80L264 321L445 685H509ZM342 888L368 836L170 758L154 792L342 888Z" />
<glyph unicode="&#xde;" glyph-name="Thorn" horiz-adv-x="570" d="M395 563T460 512T525 356Q525 242 457 189T269 136H171V0H111V685H171V563H272Q395 563 460 512ZM362 186T412 223T462 355Q462 440 414 476T271 513H171V186H269Q362 186 412 223Z" />
<glyph unicode="&#xdf;" glyph-name="germandbls" horiz-adv-x="582" d="M367 743T412 705T458 609Q458 569 440 544T389 492Q364 471 353 457T341 424Q341 401 358 384T412 341Q450 315 474 294T516 238T534 155Q534 81 488 35T371 -11Q317 -11 275 12L293 53Q325
38 367 38Q416 38 445 69T474 156Q474 193 460 220T425 266T371 308Q328 337 307 361T286 421Q286 450 300 468T342 509Q372 534 386 553T401 606Q401 648 371 672T293 696Q234 696 199 657T164 538V0H106V540Q106 637 157 690T294 743Q367 743 412 705Z" />
<glyph unicode="&#xe0;" glyph-name="agrave" horiz-adv-x="536" d="M431 75T441 57T475 30L462 -11Q426 -4 407 16T381 77Q327 -11 218 -11Q143 -11 100 31T56 145Q56 226 113 270T273 314H373V365Q373 428 345 456T252 485Q192 485 110 455L95 499Q183 534 260
534Q431 534 431 368V116Q431 75 441 57ZM322 36T373 128V272H282Q202 272 160 241T118 148Q118 94 147 65T228 36Q322 36 373 128ZM181 782L369 679L351 645L155 730L181 782Z" />
<glyph unicode="&#xe1;" glyph-name="aacute" horiz-adv-x="536" d="M431 75T441 57T475 30L462 -11Q426 -4 407 16T381 77Q327 -11 218 -11Q143 -11 100 31T56 145Q56 226 113 270T273 314H373V365Q373 428 345 456T252 485Q192 485 110 455L95 499Q183 534 260
534Q431 534 431 368V116Q431 75 441 57ZM322 36T373 128V272H282Q202 272 160 241T118 148Q118 94 147 65T228 36Q322 36 373 128ZM333 782L359 730L164 645L145 679L333 782Z" />
<glyph unicode="&#xe2;" glyph-name="acircumflex" horiz-adv-x="536" d="M431 75T441 57T475 30L462 -11Q426 -4 407 16T381 77Q327 -11 218 -11Q143 -11 100 31T56 145Q56 226 113 270T273 314H373V365Q373 428 345 456T252 485Q192 485 110 455L95 499Q183
534 260 534Q431 534 431 368V116Q431 75 441 57ZM322 36T373 128V272H282Q202 272 160 241T118 148Q118 94 147 65T228 36Q322 36 373 128ZM136 643L110 674L239 779H275L405 674L379 643L257 728L136 643Z" />
<glyph unicode="&#xe3;" glyph-name="atilde" horiz-adv-x="536" d="M431 75T441 57T475 30L462 -11Q426 -4 407 16T381 77Q327 -11 218 -11Q143 -11 100 31T56 145Q56 226 113 270T273 314H373V365Q373 428 345 456T252 485Q192 485 110 455L95 499Q183 534 260
534Q431 534 431 368V116Q431 75 441 57ZM322 36T373 128V272H282Q202 272 160 241T118 148Q118 94 147 65T228 36Q322 36 373 128ZM298 666T283 672T246 692Q230 702 220 707T199 712Q182 712 170 703T143 672L107 690Q144 758 199 758Q216 758 230 752T263 734Q281
723 292 718T316 713Q332 713 344 723T372 756L408 738Q373 666 316 666Q298 666 283 672Z" />
<glyph unicode="&#xe4;" glyph-name="adieresis" horiz-adv-x="536" d="M431 75T441 57T475 30L462 -11Q426 -4 407 16T381 77Q327 -11 218 -11Q143 -11 100 31T56 145Q56 226 113 270T273 314H373V365Q373 428 345 456T252 485Q192 485 110 455L95 499Q183 534
260 534Q431 534 431 368V116Q431 75 441 57ZM322 36T373 128V272H282Q202 272 160 241T118 148Q118 94 147 65T228 36Q322 36 373 128ZM180 742T191 731T203 702Q203 685 192 674T163 663Q146 663 135 674T123 702Q123 719 134 730T163 742Q180 742 191 731ZM369
742T380 731T392 702Q392 685 381 674T352 663Q335 663 324 674T312 702Q312 719 323 730T352 742Q369 742 380 731Z" />
<glyph unicode="&#xe5;" glyph-name="aring" horiz-adv-x="536" d="M431 75T441 57T475 30L462 -11Q426 -4 407 16T381 77Q327 -11 218 -11Q143 -11 100 31T56 145Q56 226 113 270T273 314H373V365Q373 428 345 456T252 485Q192 485 110 455L95 499Q183 534 260
534Q431 534 431 368V116Q431 75 441 57ZM322 36T373 128V272H282Q202 272 160 241T118 148Q118 94 147 65T228 36Q322 36 373 128ZM301 821T328 795T356 727Q356 686 329 660T258 633Q214 633 187 659T159 727Q159 768 186 794T258 821Q301 821 328 795ZM231 785T217
770T202 727Q202 699 216 684T258 669Q284 669 298 684T313 727Q313 754 299 769T258 785Q231 785 217 770Z" />
<glyph unicode="&#xe6;" glyph-name="ae" horiz-adv-x="847" d="M788 259T786 239H437Q441 137 484 88T599 38Q640 38 672 50T740 90L768 53Q729 21 688 5T596 -11Q533 -11 486 16T410 96Q370 39 325 14T220 -11Q144 -11 100 32T56 145Q56 226 114 270T275 315H375V365Q375
428 347 456T254 485Q194 485 112 455L96 499Q184 534 261 534Q327 534 366 509T421 433Q475 534 588 534Q685 534 736 467T788 281Q788 259 786 239ZM730 299Q730 387 694 436T587 486Q522 486 482 436T437 284H730V299ZM279 36T316 60T391 141Q375 195 375 256V272H283Q204
272 162 241T119 148Q119 94 148 65T229 36Q279 36 316 60Z" />
<glyph unicode="&#xe7;" glyph-name="ccedilla" horiz-adv-x="469" d="M345 -68T367 -88T390 -140Q390 -181 360 -204T285 -227Q237 -227 205 -206L223 -170Q250 -185 284 -185Q308 -185 323 -174T339 -140Q339 -118 318 -107T250 -96L258 -9Q168 1 116 71T64
258Q64 341 91 403T169 500T285 534Q330 534 365 522T433 481L404 443Q378 464 351 474T288 484Q214 484 170 427T126 259Q126 150 169 95T287 40Q322 40 350 51T408 84L436 45Q377 -7 298 -11V-64Q345 -68 367 -88Z" />
<glyph unicode="&#xe8;" glyph-name="egrave" horiz-adv-x="536" d="M477 259T475 239H126Q131 137 174 88T289 38Q330 38 361 50T430 90L457 53Q418 21 377 5T286 -11Q182 -11 123 60T64 257Q64 340 89 402T162 499T273 534Q373 534 425 467T477 281Q477 259
475 239ZM420 299Q420 387 384 436T275 486Q210 486 170 436T126 284H420V299ZM199 782L387 679L369 645L173 730L199 782Z" />
<glyph unicode="&#xe9;" glyph-name="eacute" horiz-adv-x="536" d="M477 259T475 239H126Q131 137 174 88T289 38Q330 38 361 50T430 90L457 53Q418 21 377 5T286 -11Q182 -11 123 60T64 257Q64 340 89 402T162 499T273 534Q373 534 425 467T477 281Q477 259
475 239ZM420 299Q420 387 384 436T275 486Q210 486 170 436T126 284H420V299ZM351 782L377 730L182 645L163 679L351 782Z" />
<glyph unicode="&#xea;" glyph-name="ecircumflex" horiz-adv-x="536" d="M477 259T475 239H126Q131 137 174 88T289 38Q330 38 361 50T430 90L457 53Q418 21 377 5T286 -11Q182 -11 123 60T64 257Q64 340 89 402T162 499T273 534Q373 534 425 467T477 281Q477
259 475 239ZM420 299Q420 387 384 436T275 486Q210 486 170 436T126 284H420V299ZM154 643L128 674L257 779H293L423 674L397 643L275 728L154 643Z" />
<glyph unicode="&#xeb;" glyph-name="edieresis" horiz-adv-x="536" d="M477 259T475 239H126Q131 137 174 88T289 38Q330 38 361 50T430 90L457 53Q418 21 377 5T286 -11Q182 -11 123 60T64 257Q64 340 89 402T162 499T273 534Q373 534 425 467T477 281Q477 259
475 239ZM420 299Q420 387 384 436T275 486Q210 486 170 436T126 284H420V299ZM198 742T209 731T221 702Q221 685 210 674T181 663Q164 663 153 674T141 702Q141 719 152 730T181 742Q198 742 209 731ZM387 742T398 731T410 702Q410 685 399 674T370 663Q353 663
342 674T330 702Q330 719 341 730T370 742Q387 742 398 731Z" />
<glyph unicode="&#xec;" glyph-name="igrave" horiz-adv-x="270" d="M164 523V0H106V523H164ZM58 782L246 679L228 645L32 730L58 782Z" />
<glyph unicode="&#xed;" glyph-name="iacute" horiz-adv-x="270" d="M164 523V0H106V523H164ZM210 782L236 730L41 645L22 679L210 782Z" />
<glyph unicode="&#xee;" glyph-name="icircumflex" horiz-adv-x="270" d="M164 523V0H106V523H164ZM13 643L-13 674L116 779H152L282 674L256 643L134 728L13 643Z" />
<glyph unicode="&#xef;" glyph-name="idieresis" horiz-adv-x="270" d="M164 523V0H106V523H164ZM57 742T68 731T80 702Q80 685 69 674T40 663Q23 663 12 674T0 702Q0 719 11 730T40 742Q57 742 68 731ZM246 742T257 731T269 702Q269 685 258 674T229 663Q212
663 201 674T189 702Q189 719 200 730T229 742Q246 742 257 731Z" />
<glyph unicode="&#xf0;" glyph-name="eth" horiz-adv-x="556" d="M409 600T448 509T487 280Q487 141 429 65T273 -11Q178 -11 121 54T64 233Q64 295 86 348T153 435T259 468Q354 468 421 388Q410 464 379 522T289 628L212 551L170 570L250 653Q184 687 128 698L141
744Q218 729 286 689L355 762L390 731L324 664Q409 600 448 509ZM346 37T387 100T428 282Q428 302 426 330Q360 421 267 421Q197 421 161 369T124 234Q124 140 163 89T273 37Q346 37 387 100Z" />
<glyph unicode="&#xf1;" glyph-name="ntilde" horiz-adv-x="584" d="M408 534T445 492T483 374V0H425V366Q425 429 400 458T326 487Q276 487 238 460T164 379V0H106V523H156L162 434Q194 481 238 507T337 534Q408 534 445 492ZM337 666T322 672T285 692Q269 702
259 707T238 712Q221 712 209 703T182 672L146 690Q183 758 238 758Q255 758 269 752T302 734Q320 723 331 718T355 713Q371 713 383 723T411 756L447 738Q412 666 355 666Q337 666 322 672Z" />
<glyph unicode="&#xf2;" glyph-name="ograve" horiz-adv-x="571" d="M390 534T448 463T507 263Q507 136 448 63T285 -11Q181 -11 123 61T64 261Q64 344 91 406T168 501T286 534Q390 534 448 463ZM210 485T168 428T126 261Q126 152 167 95T285 38Q361 38 403 95T446
263Q446 372 405 428T286 485Q210 485 168 428ZM209 782L397 679L379 645L183 730L209 782Z" />
<glyph unicode="&#xf3;" glyph-name="oacute" horiz-adv-x="571" d="M390 534T448 463T507 263Q507 136 448 63T285 -11Q181 -11 123 61T64 261Q64 344 91 406T168 501T286 534Q390 534 448 463ZM210 485T168 428T126 261Q126 152 167 95T285 38Q361 38 403 95T446
263Q446 372 405 428T286 485Q210 485 168 428ZM361 782L387 730L192 645L173 679L361 782Z" />
<glyph unicode="&#xf4;" glyph-name="ocircumflex" horiz-adv-x="571" d="M390 534T448 463T507 263Q507 136 448 63T285 -11Q181 -11 123 61T64 261Q64 344 91 406T168 501T286 534Q390 534 448 463ZM210 485T168 428T126 261Q126 152 167 95T285 38Q361 38 403
95T446 263Q446 372 405 428T286 485Q210 485 168 428ZM164 643L138 674L267 779H303L433 674L407 643L285 728L164 643Z" />
<glyph unicode="&#xf5;" glyph-name="otilde" horiz-adv-x="571" d="M390 534T448 463T507 263Q507 136 448 63T285 -11Q181 -11 123 61T64 261Q64 344 91 406T168 501T286 534Q390 534 448 463ZM210 485T168 428T126 261Q126 152 167 95T285 38Q361 38 403 95T446
263Q446 372 405 428T286 485Q210 485 168 428ZM326 666T311 672T274 692Q258 702 248 707T227 712Q210 712 198 703T171 672L135 690Q172 758 227 758Q244 758 258 752T291 734Q309 723 320 718T344 713Q360 713 372 723T400 756L436 738Q401 666 344 666Q326
666 311 672Z" />
<glyph unicode="&#xf6;" glyph-name="odieresis" horiz-adv-x="571" d="M390 534T448 463T507 263Q507 136 448 63T285 -11Q181 -11 123 61T64 261Q64 344 91 406T168 501T286 534Q390 534 448 463ZM210 485T168 428T126 261Q126 152 167 95T285 38Q361 38 403
95T446 263Q446 372 405 428T286 485Q210 485 168 428ZM208 742T219 731T231 702Q231 685 220 674T191 663Q174 663 163 674T151 702Q151 719 162 730T191 742Q208 742 219 731ZM397 742T408 731T420 702Q420 685 409 674T380 663Q363 663 352 674T340 702Q340
719 351 730T380 742Q397 742 408 731Z" />
<glyph unicode="&#xf7;" glyph-name="divide" horiz-adv-x="493" d="M268 160T281 147T295 113Q295 92 282 79T247 65Q227 65 213 79T199 113Q199 133 213 146T247 160Q268 160 281 147ZM268 598T281 585T295 551Q295 530 282 517T247 503Q227 503 213 517T199
551Q199 571 213 584T247 598Q268 598 281 585ZM69 306V357H424V306H69Z" />
<glyph unicode="&#xf8;" glyph-name="oslash" horiz-adv-x="571" d="M450 477T478 415T507 263Q507 136 448 63T285 -11Q254 -11 224 -3L183 -125L134 -111L177 15Q123 46 94 109T64 261Q64 344 91 406T168 501T286 534Q319 534 349 526L388 648L437 634L396 507Q450
477 478 415ZM126 111T199 61L337 478Q316 485 286 485Q210 485 168 428T126 261Q126 111 199 61ZM361 38T403 95T446 263Q446 412 374 461L236 44Q259 38 285 38Q361 38 403 95Z" />
<glyph unicode="&#xf9;" glyph-name="ugrave" horiz-adv-x="579" d="M473 0H423L420 93Q358 -11 249 -11Q178 -11 140 30T101 149V523H159V155Q159 94 184 66T262 37Q353 37 415 144V523H473V0ZM210 782L398 679L380 645L184 730L210 782Z" />
<glyph unicode="&#xfa;" glyph-name="uacute" horiz-adv-x="579" d="M473 0H423L420 93Q358 -11 249 -11Q178 -11 140 30T101 149V523H159V155Q159 94 184 66T262 37Q353 37 415 144V523H473V0ZM362 782L388 730L193 645L174 679L362 782Z" />
<glyph unicode="&#xfb;" glyph-name="ucircumflex" horiz-adv-x="579" d="M473 0H423L420 93Q358 -11 249 -11Q178 -11 140 30T101 149V523H159V155Q159 94 184 66T262 37Q353 37 415 144V523H473V0ZM165 643L139 674L268 779H304L434 674L408 643L286 728L165 643Z" />
<glyph unicode="&#xfc;" glyph-name="udieresis" horiz-adv-x="579" d="M473 0H423L420 93Q358 -11 249 -11Q178 -11 140 30T101 149V523H159V155Q159 94 184 66T262 37Q353 37 415 144V523H473V0ZM209 742T220 731T232 702Q232 685 221 674T192 663Q175 663 164
674T152 702Q152 719 163 730T192 742Q209 742 220 731ZM398 742T409 731T421 702Q421 685 410 674T381 663Q364 663 353 674T341 702Q341 719 352 730T381 742Q398 742 409 731Z" />
<glyph unicode="&#xfd;" glyph-name="yacute" horiz-adv-x="468" d="M273 -2Q252 -63 227 -102T162 -166T59 -204L53 -159Q105 -146 134 -127T181 -80T217 0H197L15 523H78L236 43L391 523H452L273 -2ZM309 782L335 730L140 645L121 679L309 782Z" />
<glyph unicode="&#xfe;" glyph-name="thorn" horiz-adv-x="581" d="M417 534T464 464T512 264Q512 138 461 64T313 -11Q266 -11 228 8T164 61V-195L106 -205V736L164 743V451Q193 491 233 512T322 534Q417 534 464 464ZM374 38T412 95T450 264Q450 486 311 486Q264
486 230 462T164 396V118Q216 38 302 38Q374 38 412 95Z" />
<glyph unicode="&#xff;" glyph-name="ydieresis" horiz-adv-x="468" d="M273 -2Q252 -63 227 -102T162 -166T59 -204L53 -159Q105 -146 134 -127T181 -80T217 0H197L15 523H78L236 43L391 523H452L273 -2ZM156 742T167 731T179 702Q179 685 168 674T139 663Q122
663 111 674T99 702Q99 719 110 730T139 742Q156 742 167 731ZM345 742T356 731T368 702Q368 685 357 674T328 663Q311 663 300 674T288 702Q288 719 299 730T328 742Q345 742 356 731Z" />
<glyph unicode="&#x2013;" glyph-name="endash" horiz-adv-x="520" d="M40 288V338H480V288H40Z" />
<glyph unicode="&#x2014;" glyph-name="emdash" horiz-adv-x="783" d="M40 288V338H743V288H40Z" />
<glyph unicode="&#x2018;" glyph-name="quoteleft" horiz-adv-x="219" d="M87 527T74 540T61 571Q61 580 64 589T75 617L132 741H171L133 607Q153 595 153 571Q153 553 140 540T107 527Q87 527 74 540Z" />
<glyph unicode="&#x2019;" glyph-name="quoteright" horiz-adv-x="219" d="M133 741T145 729T158 697Q158 688 155 679T144 651L87 527H48L86 661Q66 673 66 697Q66 715 79 728T112 741Q133 741 145 729Z" />
<glyph unicode="&#x201a;" glyph-name="quotesinglbase" horiz-adv-x="219" d="M133 75T145 63T158 31Q158 22 155 13T144 -15L87 -139H48L86 -5Q66 7 66 31Q66 49 79 62T112 75Q133 75 145 63Z" />
<glyph unicode="&#x201c;" glyph-name="quotedblleft" horiz-adv-x="371" d="M87 527T74 540T61 571Q61 580 64 589T75 617L132 741H171L133 607Q153 595 153 571Q153 553 140 540T107 527Q87 527 74 540ZM239 527T226 540T213 571Q213 580 216 589T227 617L284
741H323L285 607Q305 595 305 571Q305 553 292 540T259 527Q239 527 226 540Z" />
<glyph unicode="&#x201d;" glyph-name="quotedblright" horiz-adv-x="371" d="M133 741T145 729T158 697Q158 688 155 679T144 651L87 527H48L86 661Q66 673 66 697Q66 715 79 728T112 741Q133 741 145 729ZM285 741T297 729T310 697Q310 688 307 679T296 651L239
527H200L238 661Q218 673 218 697Q218 715 231 728T264 741Q285 741 297 729Z" />
<glyph unicode="&#x201e;" glyph-name="quotedblbase" horiz-adv-x="371" d="M133 75T145 63T158 31Q158 22 155 13T144 -15L87 -139H48L86 -5Q66 7 66 31Q66 49 79 62T112 75Q133 75 145 63ZM285 75T297 63T310 31Q310 22 307 13T296 -15L239 -139H200L238 -5Q218
7 218 31Q218 49 231 62T264 75Q285 75 297 63Z" />
<glyph unicode="&#x2022;" glyph-name="bullet" horiz-adv-x="287" d="M176 420T197 399T218 345Q218 314 197 293T143 272Q111 272 90 293T69 346Q69 378 90 399T143 420Q176 420 197 399Z" />
<glyph unicode="&#x2039;" glyph-name="guilsinglleft" horiz-adv-x="342" d="M235 520L271 495L134 288L271 80L235 56L71 268V307L235 520Z" />
<glyph unicode="&#x203a;" glyph-name="guilsinglright" horiz-adv-x="342" d="M107 520L271 307V268L107 56L71 80L209 288L71 495L107 520Z" />
</font>
</defs>
</svg>
