<?xml version="1.0" standalone="no"?>
<!DOCTYPE svg PUBLIC "-//W3C//DTD SVG 1.1//EN" "http://www.w3.org/Graphics/SVG/1.1/DTD/svg11.dtd">
<svg xmlns="http://www.w3.org/2000/svg">
<defs >
<font id="FiraSans" horiz-adv-x="579" ><font-face
    font-family="Fira Sans ExtraBold"
    units-per-em="1000"
    panose-1="2 11 9 3 5 0 0 2 0 4"
    ascent="935"
    descent="-265"
    alphabetic="0" />
<glyph unicode=" " glyph-name="space" horiz-adv-x="228" />
<glyph unicode="!" glyph-name="exclam" horiz-adv-x="240" d="M214 695L191 262H49L26 695H214ZM160 175T188 147T217 78Q217 38 189 10T120 -18Q80 -18 52 10T23 78Q23 118 51 146T120 175Q160 175 188 147Z" />
<glyph unicode="&quot;" glyph-name="quotedbl" horiz-adv-x="452" d="M64 410L44 695H200L180 410H64ZM272 410L252 695H408L388 410H272Z" />
<glyph unicode="#" glyph-name="numbersign" horiz-adv-x="568" d="M553 438H486L461 252H516V137H446L428 0H281L299 137H215L197 0H50L68 137H15V252H83L108 438H52V554H124L140 678H286L270 554H355L371 678H518L502 554H553V438ZM314 252L339 438H254L230 252H314Z" />
<glyph unicode="$" glyph-name="dollar" horiz-adv-x="555" d="M535 126T486 72T349 -2V-163H224V-8Q154 -2 99 23T5 88L93 184Q168 119 257 119Q303 119 327 138T351 189Q351 212 342 227T308 254T237 281Q125 316 79 366T33 491Q33 568 85 619T224 684V832H349V683Q450
667 517 600L437 507Q371 561 294 561Q256 561 235 547T214 505Q214 486 224 474T260 450T338 421Q440 389 487 340T535 204Q535 126 486 72Z" />
<glyph unicode="%" glyph-name="percent" horiz-adv-x="869" d="M614 722L722 655L258 -42L151 25L614 722ZM258 693T299 671T365 607T389 510Q389 455 365 414T300 350T207 327Q156 327 115 349T49 413T25 510Q25 565 49 606T114 670T207 693Q258 693 299 671ZM174
589T161 567T147 510Q147 476 160 454T207 431Q266 431 266 510Q266 589 207 589Q174 589 161 567ZM713 347T754 325T820 261T844 164Q844 109 820 68T755 5T662 -18Q611 -18 570 4T504 68T479 164Q479 219 503 260T569 324T662 347Q713 347 754 325ZM602 243T602
164Q602 86 662 86Q721 86 721 164Q721 243 662 243Q602 243 602 164Z" />
<glyph unicode="&amp;" glyph-name="ampersand" horiz-adv-x="770" d="M386 713T436 692T513 634T540 551Q540 492 507 448T410 360L533 244Q560 304 577 380L723 338Q685 230 630 155L754 48L599 -18L526 51Q433 -18 308 -18Q232 -18 175 6T85 74T53 178Q53 238
85 282T188 372Q133 426 113 462T92 543Q92 588 116 626T191 689T316 713Q386 713 436 692ZM293 601T278 585T262 543Q262 520 272 502T313 452Q343 474 357 496T371 546Q371 571 357 586T318 601Q293 601 278 585ZM241 240T241 189Q241 151 267 129T340 106Q396
106 439 134L289 277Q241 240 241 189Z" />
<glyph unicode="&apos;" glyph-name="quotesingle" horiz-adv-x="244" d="M64 410L44 695H200L180 410H64Z" />
<glyph unicode="(" glyph-name="parenleft" horiz-adv-x="325" d="M321 786Q251 687 221 585T190 350Q190 218 220 116T321 -86L207 -163Q143 -75 104 -8T38 149T12 350Q12 462 38 551T103 707T207 863L321 786Z" />
<glyph unicode=")" glyph-name="parenright" horiz-adv-x="325" d="M181 776T221 708T287 551T313 350Q313 238 287 149T221 -8T117 -163L3 -86Q73 12 103 114T134 350Q134 483 104 585T3 786L117 863Q181 776 221 708Z" />
<glyph unicode="*" glyph-name="asterisk" horiz-adv-x="452" d="M448 528L310 507L411 410L289 321L226 446L165 320L43 409L142 507L4 527L50 667L174 603L151 743H301L278 602L402 668L448 528Z" />
<glyph unicode="+" glyph-name="plus" horiz-adv-x="540" d="M343 558V400H496V264H343V106H197V264H44V400H197V558H343Z" />
<glyph unicode="," glyph-name="comma" horiz-adv-x="240" d="M161 175T189 147T217 78Q217 56 209 33T181 -38L118 -181H23L66 -1Q23 27 23 79Q23 120 51 147T120 175Q161 175 189 147Z" />
<glyph unicode="-" glyph-name="hyphen" horiz-adv-x="409" d="M40 245V381H369V245H40Z" />
<glyph unicode="." glyph-name="period" horiz-adv-x="240" d="M160 175T188 147T217 78Q217 38 189 10T120 -18Q80 -18 52 10T23 78Q23 118 51 146T120 175Q160 175 188 147Z" />
<glyph unicode="/" glyph-name="slash" horiz-adv-x="520" d="M300 819L456 783L221 -115L64 -79L300 819Z" />
<glyph unicode="0" glyph-name="zero" horiz-adv-x="594" d="M425 693T493 601T561 338Q561 167 493 75T297 -18Q169 -18 101 74T32 338Q32 510 100 601T297 693Q425 693 493 601ZM266 563T248 543T222 474T214 338Q214 250 222 202T248 133T297 112Q328 112 345
131T371 199T379 338Q379 428 371 476T346 544T297 563Q266 563 248 543Z" />
<glyph unicode="1" glyph-name="one" horiz-adv-x="473" d="M399 678V0H226V507L84 420L7 537L241 678H399Z" />
<glyph unicode="2" glyph-name="two" horiz-adv-x="523" d="M318 693T372 667T455 596T483 497Q483 444 463 398T389 290T228 135H498L479 0H26V124Q145 239 201 299T279 399T301 478Q301 515 280 536T222 558Q187 558 160 542T104 489L1 572Q44 629 104 661T241
693Q318 693 372 667Z" />
<glyph unicode="3" glyph-name="three" horiz-adv-x="526" d="M317 693T370 671T450 609T477 521Q477 460 443 419T343 358Q412 351 455 310T499 190Q499 133 469 86T378 10T232 -18Q77 -18 -9 88L85 179Q119 146 150 131T220 116Q263 116 290 139T317 204Q317
251 291 272T213 294H155L175 414H215Q258 414 281 435T305 492Q305 526 283 544T222 563Q152 563 92 505L4 598Q102 693 243 693Q317 693 370 671Z" />
<glyph unicode="4" glyph-name="four" horiz-adv-x="575" d="M557 272V140H484V0H310L309 140H24V257L213 697L365 642L207 272H311L331 426H484V272H557Z" />
<glyph unicode="5" glyph-name="five" horiz-adv-x="546" d="M465 552H225V427Q273 449 322 449Q378 449 422 423T492 346T518 226Q518 154 484 99T388 13T242 -18Q97 -18 9 89L108 180Q160 114 234 114Q283 114 309 142T336 224Q336 329 249 329Q230 329 212
324T172 305H54V678H484L465 552Z" />
<glyph unicode="6" glyph-name="six" horiz-adv-x="573" d="M414 459T458 432T528 354T553 232Q553 164 523 107T435 16T299 -18Q165 -18 99 68T32 308Q32 423 69 510T176 645T340 693Q432 693 498 648L434 543Q390 569 344 569Q292 569 259 527T219 405Q277 459
357 459Q414 459 458 432ZM338 107T356 139T375 230Q375 290 358 314T303 339Q282 339 260 329T219 298Q219 227 226 186T251 126T300 107Q338 107 356 139Z" />
<glyph unicode="7" glyph-name="seven" horiz-adv-x="475" d="M461 678V559L213 -18L52 36L275 545H9V678H461Z" />
<glyph unicode="8" glyph-name="eight" horiz-adv-x="590" d="M501 330T533 286T565 184Q565 129 533 83T439 10T291 -18Q209 -18 149 8T57 80T25 181Q25 238 57 280T148 347Q51 408 51 509Q51 562 82 604T168 669T295 693Q405 693 472 646T539 517Q539 474 513
434T432 364Q501 330 533 286ZM262 575T243 558T223 506Q223 476 239 456T292 419L315 409Q345 431 356 454T367 508Q367 538 349 556T296 575Q262 575 243 558ZM341 107T364 129T388 186Q388 223 368 244T296 285L261 298Q202 263 202 191Q202 153 228 130T297
107Q341 107 364 129Z" />
<glyph unicode="9" glyph-name="nine" horiz-adv-x="571" d="M410 693T478 621T546 430Q546 293 499 201T356 54T105 -30L70 93Q158 113 213 138T303 199T353 291Q326 261 294 247T216 232Q163 232 119 259T48 337T21 456Q21 526 55 579T149 663T283 693Q410 693
478 621ZM298 354T321 367T363 406Q364 468 357 503T331 553T281 569Q243 569 221 542T199 464Q199 354 273 354Q298 354 321 367Z" />
<glyph unicode=":" glyph-name="colon" horiz-adv-x="240" d="M160 175T188 147T217 78Q217 38 189 10T120 -18Q80 -18 52 10T23 78Q23 118 51 146T120 175Q160 175 188 147ZM160 514T188 486T217 417Q217 377 189 349T120 321Q80 321 52 349T23 417Q23 457 51
485T120 514Q160 514 188 486Z" />
<glyph unicode=";" glyph-name="semicolon" horiz-adv-x="240" d="M161 175T189 147T217 78Q217 56 209 33T181 -38L118 -181H23L66 -1Q23 27 23 79Q23 120 51 147T120 175Q161 175 189 147ZM160 514T188 486T217 417Q217 377 189 349T120 321Q80 321 52 349T23
417Q23 457 51 485T120 514Q160 514 188 486Z" />
<glyph unicode="&lt;" glyph-name="less" horiz-adv-x="524" d="M440 583L495 462L182 333L495 210L440 83L30 256V409L440 583Z" />
<glyph unicode="=" glyph-name="equal" horiz-adv-x="524" d="M44 371V507H480V371H44ZM44 412V548H480V412H44Z" />
<glyph unicode="&gt;" glyph-name="greater" horiz-adv-x="524" d="M85 583L495 409V256L85 83L30 210L342 333L30 462L85 583Z" />
<glyph unicode="?" glyph-name="question" horiz-adv-x="488" d="M324 713T375 690T452 629T478 543Q478 501 464 471T428 422T374 381Q335 353 317 333T299 281V262H139V287Q139 336 153 369T188 421T239 461Q267 480 279 493T292 526Q292 549 277 561T232 574Q174
574 121 516L10 604Q102 713 251 713Q324 713 375 690ZM260 175T288 147T317 78Q317 38 289 10T220 -18Q180 -18 152 10T124 78Q124 118 152 146T220 175Q260 175 288 147Z" />
<glyph unicode="@" glyph-name="at" horiz-adv-x="1020" d="M570 506T617 494T706 459V217Q706 154 714 132T746 109Q781 109 801 155T822 316Q822 446 750 516T526 586Q422 586 349 543T238 423T200 243Q200 82 284 -7T528 -96Q577 -96 631 -86T725 -61L767 -181Q720
-200 654 -212T527 -224Q380 -224 271 -167T102 -5T42 242Q42 378 104 485T277 653T527 713Q665 713 767 658T924 513T978 318Q978 226 950 155T870 43T754 3Q699 3 663 33T619 104Q600 59 564 33T476 7Q380 7 335 68T290 233Q290 358 352 432T528 506Q570 506
617 494ZM519 116T533 127T556 155V388Q539 396 519 396Q486 396 467 360T448 233Q448 167 459 142T499 116Q519 116 533 127Z" />
<glyph unicode="A" glyph-name="A" horiz-adv-x="596" d="M419 0L388 142H204L173 0H-19L187 695H409L615 0H419ZM233 274H359L296 563L233 274Z" />
<glyph unicode="B" glyph-name="B" horiz-adv-x="619" d="M513 354T556 317T599 204Q599 91 517 46T288 0H54V695H261Q411 695 490 654T570 516Q570 455 534 419T443 368Q513 354 556 317ZM239 566V421H287Q336 421 359 439T382 497Q382 534 358 550T278 566H239ZM348
132T378 149T408 215Q408 261 380 281T299 302H239V132H289Q348 132 378 149Z" />
<glyph unicode="C" glyph-name="C" d="M416 713T469 693T568 634L481 531Q450 554 421 566T359 578Q293 578 256 521T219 349Q219 234 256 178T361 122Q397 122 427 136T494 179L576 75Q535 34 478 8T353 -18Q254 -18 181 24T67 149T27 349Q27 463 68 545T182
670T350 713Q416 713 469 693Z" />
<glyph unicode="D" glyph-name="D" horiz-adv-x="654" d="M427 695T527 621T627 350Q627 0 276 0H54V695H262Q427 695 527 621ZM239 563V132H287Q363 132 399 180T436 350Q436 434 419 480T369 545T286 563H239Z" />
<glyph unicode="E" glyph-name="E" horiz-adv-x="523" d="M495 695L476 564H239V416H446V289H239V131H492V0H54V695H495Z" />
<glyph unicode="F" glyph-name="F" horiz-adv-x="486" d="M54 0V695H481L462 564H239V397H435V266H239V0H54Z" />
<glyph unicode="G" glyph-name="G" horiz-adv-x="649" d="M507 713T607 625L516 530Q478 557 448 569T378 582Q303 582 261 524T218 347Q218 260 232 210T274 137T348 115Q393 115 430 134V277H351L333 404H609V58Q555 22 487 2T353 -18Q27 -18 27 348Q27 462
71 544T193 670T368 713Q507 713 607 625Z" />
<glyph unicode="H" glyph-name="H" horiz-adv-x="661" d="M423 0V289H239V0H54V695H239V432H423V695H608V0H423Z" />
<glyph unicode="I" glyph-name="I" horiz-adv-x="293" d="M239 695V0H54V695H239Z" />
<glyph unicode="J" glyph-name="J" horiz-adv-x="321" d="M270 108Q270 21 238 -35T155 -124T34 -179L-15 -49Q28 -32 49 -10T78 41T85 115V695H270V108Z" />
<glyph unicode="K" glyph-name="K" horiz-adv-x="646" d="M239 695V0H54V695H239ZM644 695L435 385L662 0H450L245 370L451 695H644Z" />
<glyph unicode="L" glyph-name="L" horiz-adv-x="517" d="M239 695V144H506L486 0H54V695H239Z" />
<glyph unicode="M" glyph-name="M" horiz-adv-x="789" d="M765 0H583L574 259L573 302Q571 362 571 393Q571 468 577 543L482 72H307L206 543Q215 426 215 337Q215 286 214 259L206 0H24L75 695H305L398 234L482 695H713L765 0Z" />
<glyph unicode="N" glyph-name="N" horiz-adv-x="657" d="M603 0H370L194 523L197 502Q207 433 212 373T218 235V0H54V695H282L464 170Q452 245 446 305T439 443V695H603V0Z" />
<glyph unicode="O" glyph-name="O" horiz-adv-x="690" d="M496 713T580 617T664 348Q664 235 627 153T517 26T345 -18Q194 -18 111 78T27 348Q27 461 64 543T173 669T345 713Q496 713 580 617ZM280 580T250 526T219 348Q219 224 250 170T345 115Q411 115 441 169T471
348Q471 472 441 526T345 580Q280 580 250 526Z" />
<glyph unicode="P" glyph-name="P" horiz-adv-x="605" d="M432 695T509 637T587 465Q587 347 512 286T310 224H239V0H54V695H292Q432 695 509 637ZM345 356T371 382T398 464Q398 565 289 565H239V356H293Q345 356 371 382Z" />
<glyph unicode="Q" glyph-name="Q" horiz-adv-x="690" d="M568 46T617 31T710 -17L600 -160Q545 -93 483 -54T333 -15Q238 -15 170 27T64 152T27 348Q27 461 64 543T173 669T345 713Q496 713 580 617T664 348Q664 233 618 160T499 46Q568 46 617 31ZM219 224T250
170T345 115Q411 115 441 169T471 348Q471 472 441 526T345 580Q280 580 250 526T219 348Q219 224 250 170Z" />
<glyph unicode="R" glyph-name="R" horiz-adv-x="620" d="M290 256H239V0H54V695H295Q442 695 514 642T587 479Q587 413 557 369T459 290L632 0H426L290 256ZM239 382H301Q397 382 397 479Q397 524 371 545T291 566H239V382Z" />
<glyph unicode="S" glyph-name="S" horiz-adv-x="580" d="M373 713T433 690T542 621L459 523Q387 580 308 580Q267 580 246 565T224 521Q224 501 235 488T272 463T354 433Q461 399 510 348T560 205Q560 139 526 89T428 10T276 -18Q110 -18 5 83L96 184Q179 116
269 116Q316 116 342 136T368 191Q368 215 358 230T323 258T248 286Q130 323 82 375T34 506Q34 568 67 615T160 687T294 713Q373 713 433 690Z" />
<glyph unicode="T" glyph-name="T" horiz-adv-x="547" d="M549 695L530 554H366V0H181V554H7V695H549Z" />
<glyph unicode="U" glyph-name="U" horiz-adv-x="647" d="M604 233Q604 161 573 104T478 15T324 -18Q186 -18 115 49T44 233V695H229V239Q229 176 251 147T324 117Q374 117 396 147T418 239V695H604V233Z" />
<glyph unicode="V" glyph-name="V" horiz-adv-x="575" d="M594 695L410 0H174L-19 695H176L295 135L405 695H594Z" />
<glyph unicode="W" glyph-name="W" horiz-adv-x="853" d="M848 695L740 0H499L425 515L345 0H110L5 695H189L246 137L331 695H525L601 137L671 695H848Z" />
<glyph unicode="X" glyph-name="X" horiz-adv-x="594" d="M404 374L601 0H400L292 251L189 0H-7L183 369L7 695H206L294 484L390 695H585L404 374Z" />
<glyph unicode="Y" glyph-name="Y" horiz-adv-x="607" d="M618 695L396 259V0H211V258L-11 695H191L306 400L422 695H618Z" />
<glyph unicode="Z" glyph-name="Z" horiz-adv-x="550" d="M522 695V556L233 146H530L511 0H14V137L311 553H43V695H522Z" />
<glyph unicode="[" glyph-name="bracketleft" horiz-adv-x="324" d="M307 825V694H193V5H307V-125H24V825H307Z" />
<glyph unicode="\" glyph-name="backslash" horiz-adv-x="520" d="M220 819L456 -79L299 -115L64 783L220 819Z" />
<glyph unicode="]" glyph-name="bracketright" horiz-adv-x="324" d="M300 825V-125H18V5H131V695H18V825H300Z" />
<glyph unicode="^" glyph-name="asciicircum" horiz-adv-x="564" d="M364 846L553 527H381L281 715L186 527H12L201 846H364Z" />
<glyph unicode="_" glyph-name="underscore" horiz-adv-x="520" d="M7 -179V-43H513V-179H7Z" />
<glyph unicode="`" glyph-name="grave" horiz-adv-x="352" d="M98 846L322 707L274 618L30 714L98 846Z" />
<glyph unicode="a" glyph-name="a" horiz-adv-x="550" d="M494 135T501 121T528 100L492 -15Q441 -11 409 6T356 60Q305 -18 195 -18Q116 -18 69 28T21 149Q21 237 86 284T274 331H320V349Q320 392 302 407T237 423Q212 423 175 416T98 395L59 510Q107 530 162
540T264 551Q384 551 439 504T494 358V164Q494 135 501 121ZM271 107T289 118T320 150V236H290Q242 236 219 219T196 166Q196 139 210 123T249 107Q271 107 289 118Z" />
<glyph unicode="b" glyph-name="b" horiz-adv-x="598" d="M467 551T518 476T569 266Q569 184 544 120T470 19T356 -18Q312 -18 277 -1T217 49L210 0H52V743L230 761V481Q253 513 291 532T372 551Q467 551 518 476ZM342 110T363 146T385 266Q385 356 366 389T310
422Q263 422 230 366V155Q257 110 303 110Q342 110 363 146Z" />
<glyph unicode="c" glyph-name="c" horiz-adv-x="479" d="M351 551T397 534T481 483L406 379Q360 416 309 416Q260 416 235 381T210 263Q210 183 235 152T307 120Q332 120 353 128T404 155L481 46Q404 -18 298 -18Q214 -18 153 17T58 115T25 262Q25 346 58 411T151
514T293 551Q351 551 397 534Z" />
<glyph unicode="d" glyph-name="d" horiz-adv-x="600" d="M548 743V0H390L383 59Q359 25 322 4T232 -18Q132 -18 81 58T30 268Q30 350 57 414T135 515T250 551Q322 551 370 505V761L548 743ZM338 110T370 163V386Q353 405 337 414T300 423Q260 423 237 386T213
267Q213 177 233 144T290 110Q338 110 370 163Z" />
<glyph unicode="e" glyph-name="e" horiz-adv-x="555" d="M535 269T532 215H206Q213 154 240 132T319 109Q349 109 378 120T443 156L515 58Q473 23 419 3T302 -18Q166 -18 96 58T25 264Q25 345 54 410T142 513T282 551Q399 551 467 479T535 275Q535 269 532 215ZM360
325Q359 378 342 407T285 436Q248 436 229 410T205 319H360V325Z" />
<glyph unicode="f" glyph-name="f" horiz-adv-x="363" d="M282 632T268 617T254 563V533H379L359 411H254V0H76V411H0V533H76V571Q76 654 131 707T291 761Q332 761 372 752T442 726L394 612Q355 632 314 632Q282 632 268 617Z" />
<glyph unicode="g" glyph-name="g" horiz-adv-x="561" d="M561 499Q506 476 408 476Q461 455 485 423T510 338Q510 287 482 247T402 184T280 161Q245 161 221 166Q206 156 206 141Q206 128 217 120T262 112H340Q403 112 451 92T524 37T550 -44Q550 -129 476 -176T263
-224Q162 -224 105 -203T24 -144T1 -50H160Q160 -73 168 -85T200 -103T268 -109Q327 -109 349 -95T371 -57Q371 -37 355 -24T305 -11H229Q142 -11 100 18T57 95Q57 125 75 153T123 199Q71 227 48 264T25 353Q25 446 91 498T267 551Q345 548 403 568T521 627L561
499ZM240 435T221 415T202 357Q202 317 221 296T273 275Q343 275 343 359Q343 398 326 416T272 435Q240 435 221 415Z" />
<glyph unicode="h" glyph-name="h" horiz-adv-x="575" d="M450 551T489 509T528 391V0H350V359Q350 394 340 407T309 421Q268 421 230 360V0H52V743L230 761V481Q263 517 300 534T382 551Q450 551 489 509Z" />
<glyph unicode="i" glyph-name="i" horiz-adv-x="282" d="M230 533V0H52V533H230ZM186 820T214 792T243 722Q243 680 215 652T141 624Q96 624 68 652T39 722Q39 764 67 792T141 820Q186 820 214 792Z" />
<glyph unicode="j" glyph-name="j" horiz-adv-x="282" d="M230 69Q230 -17 201 -74T123 -165T2 -224L-58 -95Q-20 -77 3 -60T39 -14T52 58V533H230V69ZM186 820T214 792T243 722Q243 680 215 652T141 624Q96 624 68 652T39 722Q39 764 67 792T141 820Q186 820 214 792Z" />
<glyph unicode="k" glyph-name="k" horiz-adv-x="564" d="M230 761V0H52V743L230 761ZM565 533L414 299L576 0H378L234 291L387 533H565Z" />
<glyph unicode="l" glyph-name="l" horiz-adv-x="299" d="M129 -18T88 24T47 145V743L225 761V151Q225 122 251 122Q262 122 274 126L307 0Q266 -18 204 -18Q129 -18 88 24Z" />
<glyph unicode="m" glyph-name="m" horiz-adv-x="841" d="M718 551T756 509T794 391V0H616V359Q616 421 580 421Q543 421 512 360V0H334V359Q334 421 298 421Q261 421 230 360V0H52V533H207L220 474Q251 513 288 532T375 551Q417 551 449 531T497 471Q530 512
568 531T656 551Q718 551 756 509Z" />
<glyph unicode="n" glyph-name="n" horiz-adv-x="575" d="M450 551T489 509T528 391V0H350V359Q350 394 340 407T310 421Q268 421 230 360V0H52V533H207L220 473Q256 513 295 532T382 551Q450 551 489 509Z" />
<glyph unicode="o" glyph-name="o" horiz-adv-x="584" d="M417 551T488 476T559 266Q559 180 527 116T435 17T292 -18Q167 -18 96 57T25 267Q25 353 57 417T149 516T292 551Q417 551 488 476ZM249 422T229 385T208 267Q208 184 228 148T292 111Q335 111 355 148T376
266Q376 348 356 385T292 422Q249 422 229 385Z" />
<glyph unicode="p" glyph-name="p" horiz-adv-x="598" d="M469 551T519 477T569 268Q569 186 543 121T469 19T357 -18Q278 -18 230 36V-206L52 -224V533H210L218 477Q249 516 288 533T369 551Q469 551 519 477ZM385 110T385 266Q385 357 367 389T311 422Q263 422
230 366V152Q245 130 261 120T300 110Q385 110 385 266Z" />
<glyph unicode="q" glyph-name="q" horiz-adv-x="600" d="M548 533V-224L370 -206V46Q318 -18 232 -18Q132 -18 81 58T30 268Q30 350 57 414T134 515T250 551Q329 551 385 492L393 533H548ZM338 110T370 163V386Q353 405 337 414T300 423Q260 423 237 386T213
267Q213 177 233 144T290 110Q338 110 370 163Z" />
<glyph unicode="r" glyph-name="r" horiz-adv-x="405" d="M384 549T412 540L383 368Q357 376 335 376Q290 376 267 346T230 253V0H52V533H207L223 432Q239 485 276 517T358 549Q384 549 412 540Z" />
<glyph unicode="s" glyph-name="s" horiz-adv-x="488" d="M311 551T363 533T453 484L389 386Q325 426 260 426Q232 426 219 418T205 394Q205 381 212 373T241 356T313 331Q395 307 434 269T473 161Q473 107 442 67T355 4T229 -18Q161 -18 102 3T1 63L86 158Q117
134 152 120T224 106Q256 106 273 116T291 148Q291 164 284 173T255 190T183 214Q28 260 28 383Q28 430 55 468T132 529T253 551Q311 551 363 533Z" />
<glyph unicode="t" glyph-name="t" horiz-adv-x="393" d="M406 26Q375 4 334 -7T254 -18Q69 -18 69 186V411H0V533H69V646L247 667V533H368L350 411H247V188Q247 152 258 137T293 122Q321 122 347 137L406 26Z" />
<glyph unicode="u" glyph-name="u" horiz-adv-x="569" d="M517 0H362L355 63Q299 -18 196 -18Q122 -18 85 26T47 150V533H225V173Q225 139 235 126T267 112Q286 112 304 125T339 165V533H517V0Z" />
<glyph unicode="v" glyph-name="v" horiz-adv-x="520" d="M530 533L367 0H156L-10 533H183L263 131L349 533H530Z" />
<glyph unicode="w" glyph-name="w" horiz-adv-x="758" d="M759 533L651 0H443L379 374L316 0H110L0 533H179L223 135L300 533H469L533 135L588 533H759Z" />
<glyph unicode="x" glyph-name="x" horiz-adv-x="520" d="M367 285L535 0H335L254 191L177 0H-15L152 280L0 533H198L261 369L320 533H508L367 285Z" />
<glyph unicode="y" glyph-name="y" horiz-adv-x="526" d="M370 0Q337 -107 260 -163T55 -225L36 -102Q112 -94 149 -72T207 0H146L-10 533H179L260 111L353 533H536L370 0Z" />
<glyph unicode="z" glyph-name="z" horiz-adv-x="465" d="M445 533V408L216 133H452L436 0H9V125L241 401H29V533H445Z" />
<glyph unicode="{" glyph-name="braceleft" horiz-adv-x="324" d="M304 719Q263 719 249 707T234 662V492Q234 425 207 394T122 349Q178 338 206 306T235 208V38Q235 6 249 -6T304 -19V-141Q210 -141 159 -122T88 -67T68 28V194Q68 240 55 258T5 277V423Q42 423
55 441T68 506V672Q68 731 87 767T158 822T304 841V719Z" />
<glyph unicode="|" glyph-name="bar" horiz-adv-x="368" d="M267 811V-106H101V811H267Z" />
<glyph unicode="}" glyph-name="braceright" horiz-adv-x="324" d="M115 841T166 822T236 767T256 672V506Q256 460 269 442T320 423V277Q282 277 269 259T256 194V28Q256 -30 237 -66T166 -122T21 -141V-19Q62 -19 76 -7T90 38V208Q90 274 118 306T203 349Q145
363 118 394T91 492V662Q91 694 77 706T21 719V841Q115 841 166 822Z" />
<glyph unicode="~" glyph-name="asciitilde" horiz-adv-x="522" d="M309 226T284 236T231 263Q210 276 198 281T171 287Q154 287 143 281T121 262T102 236L11 282Q41 344 80 381T178 418Q213 418 236 409T291 382Q311 370 324 364T352 358Q372 358 384 367T407
389T421 406L511 361Q481 300 442 263T344 226Q309 226 284 236Z" />
<glyph unicode="&#xa0;" glyph-name="uni00A0" horiz-adv-x="228" />
<glyph unicode="&#xa1;" glyph-name="exclamdown" horiz-adv-x="240" d="M160 514T188 486T217 417Q217 377 189 349T120 320Q80 320 52 348T23 417Q23 457 51 485T120 514Q160 514 188 486ZM191 232L214 -213H26L49 232H191Z" />
<glyph unicode="&#xa2;" glyph-name="cent" horiz-adv-x="479" d="M481 46Q425 -1 351 -14V-163H226V-11Q131 10 78 82T25 262Q25 371 79 447T227 544V694H351V546Q425 533 481 483L406 379Q360 416 309 416Q260 416 235 381T210 263Q210 183 235 152T307 120Q332
120 353 128T404 155L481 46Z" />
<glyph unicode="&#xa3;" glyph-name="sterling" horiz-adv-x="545" d="M282 209T269 181T217 133H520L500 0H24V127Q62 137 79 152T102 187T107 242V307H39V396H107V478Q107 575 164 634T328 693Q400 693 451 668T539 589L432 510Q413 538 393 550T347 562Q282
562 282 477V396H460V307H282V252Q282 209 269 181Z" />
<glyph unicode="&#xa4;" glyph-name="currency" horiz-adv-x="560" d="M504 277T471 224L547 149L473 75L395 151Q345 122 280 122Q219 122 166 151L88 75L14 149L90 225Q58 279 58 342Q58 406 90 458L14 535L88 610L166 532Q219 561 280 561Q343 561 396 532L473
610L547 535L472 459Q504 405 504 342Q504 277 471 224ZM325 239T348 266T371 342Q371 391 348 417T281 443Q237 443 214 417T191 342Q191 293 214 266T281 239Q325 239 348 266Z" />
<glyph unicode="&#xa5;" glyph-name="yen" horiz-adv-x="578" d="M589 678L416 354H510V265H378V200H510V111H378V0H202V111H71V200H202V265H71V354H163L-11 678H177L293 401L406 678H589Z" />
<glyph unicode="&#xa6;" glyph-name="brokenbar" horiz-adv-x="368" d="M267 811V443H101V811H267ZM267 262V-106H101V262H267Z" />
<glyph unicode="&#xa7;" glyph-name="section" horiz-adv-x="555" d="M458 164T471 139T484 76Q484 28 456 -9T376 -66T254 -87Q140 -87 55 -32L111 72Q177 33 243 33Q278 33 297 43T316 71Q316 86 309 95T276 116T198 144Q123 166 85 200T47 294Q47 368 128 417Q99
439 86 465T73 528Q73 575 100 612T177 671T296 692Q351 692 403 678T496 636L438 537Q374 572 308 572Q241 572 241 534Q241 518 249 509T280 489T356 464Q431 441 469 407T508 311Q508 232 428 184Q458 164 471 139ZM312 240T334 230Q344 244 349 259T355 286Q355
309 335 324T260 358Q239 365 217 373Q200 346 200 320Q200 297 215 284T273 254Q312 240 334 230Z" />
<glyph unicode="&#xa8;" glyph-name="dieresis" horiz-adv-x="474" d="M153 809T178 784T204 723Q204 687 179 662T116 637Q80 637 54 662T28 723Q28 759 54 784T116 809Q153 809 178 784ZM391 809T416 784T442 723Q442 687 417 662T354 637Q318 637 292 662T266
723Q266 759 292 784T354 809Q391 809 416 784Z" />
<glyph unicode="&#xa9;" glyph-name="copyright" horiz-adv-x="810" d="M501 772T580 729T704 608T750 432Q750 334 705 257T580 136T406 93Q310 93 231 136T106 256T60 432Q60 530 106 607T231 728T406 772Q501 772 580 729ZM336 684T280 653T193 564T161 432Q161
358 192 301T280 212T406 180Q476 180 531 211T618 300T650 432Q650 506 619 563T532 652T406 684Q336 684 280 653ZM446 631T481 617T543 578L491 513Q472 527 457 532T422 537Q390 537 371 512T352 433Q352 328 419 328Q462 328 499 358L547 288Q519 262 484
248T409 233Q325 233 276 285T227 433Q227 523 277 577T408 631Q446 631 481 617Z" />
<glyph unicode="&#xaa;" glyph-name="ordfeminine" horiz-adv-x="500" d="M278 529V536Q278 565 266 574T216 584Q175 584 106 563L71 663Q111 678 157 686T240 695Q341 695 386 659T432 545V412Q432 391 437 381T458 366L426 266Q386 268 359 280T311 319Q290
290 256 276T182 262Q119 262 80 298T41 391Q41 458 94 493T248 529H278ZM200 373T235 373Q258 373 278 391V447H263Q200 447 200 404Q200 373 235 373ZM45 136H464V0H45V136Z" />
<glyph unicode="&#xab;" glyph-name="guillemotleft" horiz-adv-x="644" d="M224 563L334 490L208 284L334 78L224 5L31 228V339L224 563ZM503 563L613 490L487 284L613 78L503 5L310 228V339L503 563Z" />
<glyph unicode="&#xac;" glyph-name="logicalnot" horiz-adv-x="541" d="M496 398V105H351V262H44V398H496Z" />
<glyph unicode="&#xad;" glyph-name="uni00AD" horiz-adv-x="409" d="M40 245V381H369V245H40Z" />
<glyph unicode="&#xae;" glyph-name="registered" horiz-adv-x="636" d="M399 761T462 726T562 627T599 482Q599 402 563 339T463 240T319 204Q239 204 175 239T74 338T37 482Q37 563 74 626T175 725T319 761Q399 761 462 726ZM376 276T420 301T489 373T514 482Q514
544 490 591T421 663T319 689Q262 689 217 664T147 591T122 482Q122 420 147 374T217 302T319 276Q376 276 420 301ZM434 518T419 498T378 467L451 349H364L308 451H287V349H211V633H297Q434 633 434 545Q434 518 419 498ZM287 513H316Q334 513 345 521T356 547Q356
577 315 577H287V513Z" />
<glyph unicode="&#xaf;" glyph-name="overscore" horiz-adv-x="375" d="M345 652H30V773H345V652Z" />
<glyph unicode="&#xb0;" glyph-name="degree" horiz-adv-x="520" d="M172 366T130 387T62 449T35 541Q35 593 61 632T129 692T217 713Q263 713 305 692T373 632T400 541Q400 489 374 449T305 388T217 366Q172 366 130 387ZM248 467T265 487T282 541Q282 573 265
593T217 614Q187 614 170 594T153 541Q153 508 170 488T217 467Q248 467 265 487Z" />
<glyph unicode="&#xb1;" glyph-name="plusminus" horiz-adv-x="541" d="M52 0V136H488V0H52ZM343 646V488H496V352H343V194H197V352H44V488H197V646H343Z" />
<glyph unicode="&#xb2;" glyph-name="uni00B2" horiz-adv-x="400" d="M247 753T284 736T340 689T359 626Q359 595 346 568T298 506T195 418H368L355 320H49V410Q124 476 160 512T211 570T225 614Q225 634 213 645T179 657Q157 657 140 647T104 615L31 673Q59 710
100 731T194 753Q247 753 284 736Z" />
<glyph unicode="&#xb3;" glyph-name="uni00B3" horiz-adv-x="400" d="M275 753T316 722T358 641Q358 606 335 581T263 543Q314 539 343 514T373 441Q373 404 353 374T291 325T192 307Q85 307 27 377L98 445Q117 424 137 415T182 405Q207 405 222 416T238 449Q238
474 223 485T176 497H137L151 584H179Q231 584 231 622Q231 640 218 649T182 658Q138 658 99 624L35 690Q101 753 199 753Q275 753 316 722Z" />
<glyph unicode="&#xb4;" glyph-name="acute" horiz-adv-x="352" d="M254 846L322 714L78 618L30 707L254 846Z" />
<glyph unicode="&#xb5;" glyph-name="uni00B5" horiz-adv-x="581" d="M382 -18Q373 0 369 16T359 62Q316 -7 259 -7Q232 -7 212 1T173 33Q197 -5 208 -37T219 -118V-206L52 -223V533H230V170Q230 118 272 118Q290 118 308 131T343 171V533H521V183Q521 76 545 0L382 -18Z" />
<glyph unicode="&#xb6;" glyph-name="paragraph" horiz-adv-x="804" d="M696 695V-205L541 -225V573H456V-205L301 -225V258Q184 260 121 319T58 475Q58 578 128 636T325 695H696Z" />
<glyph unicode="&#xb7;" glyph-name="middot" horiz-adv-x="240" d="M160 404T188 376T217 307Q217 267 189 239T120 211Q80 211 52 239T23 307Q23 347 51 375T120 404Q160 404 188 376Z" />
<glyph unicode="&#xb8;" glyph-name="cedilla" horiz-adv-x="335" d="M198 -45Q251 -52 278 -78T305 -149Q305 -202 263 -235T149 -269Q113 -269 82 -260T30 -236L70 -157Q101 -175 133 -175Q179 -175 179 -147Q179 -131 157 -124T86 -116L103 16H198V-45Z" />
<glyph unicode="&#xb9;" glyph-name="uni00B9" horiz-adv-x="400" d="M307 743V320H179V622L89 566L32 652L190 743H307Z" />
<glyph unicode="&#xba;" glyph-name="ordmasculine" horiz-adv-x="500" d="M353 695T411 639T470 478Q470 379 412 321T251 262Q148 262 90 318T31 479Q31 578 90 636T250 695Q353 695 411 639ZM220 583T206 559T192 479Q192 423 206 399T251 374Q281 374 294
398T308 478Q308 535 295 559T250 583Q220 583 206 559ZM32 0V136H468V0H32Z" />
<glyph unicode="&#xbb;" glyph-name="guillemotright" horiz-adv-x="643" d="M141 563L334 339V228L141 5L31 78L158 284L31 490L141 563ZM419 563L612 339V228L419 5L309 78L436 284L309 490L419 563Z" />
<glyph unicode="&#xbc;" glyph-name="onequarter" horiz-adv-x="980" d="M307 695V272H179V574L89 518L32 604L190 695H307ZM646 761L747 711L334 -88L233 -38L646 761ZM960 175V81H915V0H793V81H599V166L718 433L827 393L732 175H794L819 266H915V175H960Z" />
<glyph unicode="&#xbd;" glyph-name="onehalf" horiz-adv-x="980" d="M307 695V272H179V574L89 518L32 604L190 695H307ZM646 761L747 711L334 -88L233 -38L646 761ZM827 433T864 416T920 369T939 306Q939 275 926 248T878 186T775 98H948L935 0H629V90Q704 156
740 192T791 250T805 294Q805 314 793 325T759 337Q737 337 720 327T684 295L611 353Q639 390 680 411T774 433Q827 433 864 416Z" />
<glyph unicode="&#xbe;" glyph-name="threequarters" horiz-adv-x="980" d="M275 705T316 674T358 593Q358 558 335 533T263 495Q314 491 343 466T373 393Q373 356 353 326T291 277T192 259Q85 259 27 329L98 397Q117 376 137 367T182 357Q207 357 222 368T238
401Q238 426 223 437T176 449H137L151 536H179Q231 536 231 574Q231 592 218 601T182 610Q138 610 99 576L35 642Q101 705 199 705Q275 705 316 674ZM646 761L747 711L334 -88L233 -38L646 761ZM960 175V81H915V0H793V81H599V166L718 433L827 393L732 175H794L819
266H915V175H960Z" />
<glyph unicode="&#xbf;" glyph-name="questiondown" horiz-adv-x="488" d="M228 320T200 348T171 417Q171 457 199 485T268 514Q308 514 336 486T364 417Q364 377 336 349T268 320Q228 320 200 348ZM164 -225T113 -202T36 -140T10 -54Q10 -12 24 17T60 66T114
107Q152 133 170 154T189 206V232H349V200Q349 151 335 119T300 67T249 27Q222 9 209 -4T196 -38Q196 -60 211 -72T256 -85Q314 -85 367 -28L478 -115Q385 -225 237 -225Q164 -225 113 -202Z" />
<glyph unicode="&#xc0;" glyph-name="Agrave" horiz-adv-x="596" d="M419 0L388 142H204L173 0H-19L187 695H409L615 0H419ZM233 274H359L296 563L233 274ZM215 970L442 840L397 750L150 839L215 970Z" />
<glyph unicode="&#xc1;" glyph-name="Aacute" horiz-adv-x="596" d="M419 0L388 142H204L173 0H-19L187 695H409L615 0H419ZM233 274H359L296 563L233 274ZM380 970L444 839L197 750L152 840L380 970Z" />
<glyph unicode="&#xc2;" glyph-name="Acircumflex" horiz-adv-x="596" d="M419 0L388 142H204L173 0H-19L187 695H409L615 0H419ZM233 274H359L296 563L233 274ZM163 753L101 824L244 959H352L495 824L433 753L298 838L163 753Z" />
<glyph unicode="&#xc3;" glyph-name="Atilde" horiz-adv-x="596" d="M419 0L388 142H204L173 0H-19L187 695H409L615 0H419ZM233 274H359L296 563L233 274ZM333 754T317 761T281 781Q271 788 261 793T242 798Q224 798 213 788T189 755L103 797Q123 852 158 888T238
924Q262 924 279 917T315 897Q325 890 335 885T354 880Q371 880 382 890T406 923L492 881Q471 825 436 790T356 754Q333 754 317 761Z" />
<glyph unicode="&#xc4;" glyph-name="Adieresis" horiz-adv-x="596" d="M419 0L388 142H204L173 0H-19L187 695H409L615 0H419ZM233 274H359L296 563L233 274ZM214 935T239 910T265 849Q265 813 240 788T177 763Q141 763 115 788T89 849Q89 885 115 910T177 935Q214
935 239 910ZM452 935T477 910T503 849Q503 813 478 788T415 763Q379 763 353 788T327 849Q327 885 353 910T415 935Q452 935 477 910Z" />
<glyph unicode="&#xc5;" glyph-name="Aring" horiz-adv-x="596" d="M419 0L388 142H204L173 0H-19L187 695H409L615 0H419ZM233 274H359L296 563L233 274ZM365 1003T405 963T445 864Q445 827 427 795T376 744T298 725Q254 725 221 744T170 795T152 864Q152 922
192 962T298 1003Q365 1003 405 963ZM279 912T268 900T256 864Q256 841 267 829T298 816Q317 816 329 828T341 864Q341 888 330 900T298 912Q279 912 268 900Z" />
<glyph unicode="&#xc6;" glyph-name="AE" horiz-adv-x="854" d="M596 131H828V0H440L418 142H219L173 0H-27L245 695H792L772 564H514L542 415H783V287H566L596 131ZM261 274H398L353 561L261 274Z" />
<glyph unicode="&#xc7;" glyph-name="Ccedilla" d="M438 -52T465 -78T492 -149Q492 -202 450 -235T336 -269Q300 -269 269 -260T217 -236L257 -157Q288 -175 320 -175Q366 -175 366 -147Q366 -131 344 -124T273 -116L286 -13Q164 8 96 101T27 349Q27 463 68 545T182
670T350 713Q416 713 469 693T568 634L481 531Q450 554 421 566T359 578Q293 578 256 521T219 349Q219 234 256 178T361 122Q397 122 427 136T494 179L576 75Q541 40 492 15T385 -16V-45Q438 -52 465 -78Z" />
<glyph unicode="&#xc8;" glyph-name="Egrave" horiz-adv-x="523" d="M495 695L476 564H239V416H446V289H239V131H492V0H54V695H495ZM192 970L419 840L374 750L127 839L192 970Z" />
<glyph unicode="&#xc9;" glyph-name="Eacute" horiz-adv-x="523" d="M495 695L476 564H239V416H446V289H239V131H492V0H54V695H495ZM357 970L421 839L174 750L129 840L357 970Z" />
<glyph unicode="&#xca;" glyph-name="Ecircumflex" horiz-adv-x="523" d="M495 695L476 564H239V416H446V289H239V131H492V0H54V695H495ZM140 753L78 824L221 959H329L472 824L410 753L275 838L140 753Z" />
<glyph unicode="&#xcb;" glyph-name="Edieresis" horiz-adv-x="523" d="M495 695L476 564H239V416H446V289H239V131H492V0H54V695H495ZM191 935T216 910T242 849Q242 813 217 788T154 763Q118 763 92 788T66 849Q66 885 92 910T154 935Q191 935 216 910ZM429 935T454
910T480 849Q480 813 455 788T392 763Q356 763 330 788T304 849Q304 885 330 910T392 935Q429 935 454 910Z" />
<glyph unicode="&#xcc;" glyph-name="Igrave" horiz-adv-x="293" d="M239 695V0H54V695H239ZM63 970L290 840L245 750L-2 839L63 970Z" />
<glyph unicode="&#xcd;" glyph-name="Iacute" horiz-adv-x="293" d="M239 695V0H54V695H239ZM228 970L292 839L45 750L0 840L228 970Z" />
<glyph unicode="&#xce;" glyph-name="Icircumflex" horiz-adv-x="293" d="M239 695V0H54V695H239ZM11 753L-51 824L92 959H200L343 824L281 753L146 838L11 753Z" />
<glyph unicode="&#xcf;" glyph-name="Idieresis" horiz-adv-x="293" d="M239 695V0H54V695H239ZM62 935T87 910T113 849Q113 813 88 788T25 763Q-11 763 -37 788T-63 849Q-63 885 -37 910T25 935Q62 935 87 910ZM300 935T325 910T351 849Q351 813 326 788T263
763Q227 763 201 788T175 849Q175 885 201 910T263 935Q300 935 325 910Z" />
<glyph unicode="&#xd0;" glyph-name="Eth" horiz-adv-x="668" d="M441 695T541 621T641 350Q641 0 290 0H68V299H12V407H68V695H276Q441 695 541 621ZM377 132T413 180T450 350Q450 434 433 480T383 545T300 563H253V407H381V299H253V132H301Q377 132 413 180Z" />
<glyph unicode="&#xd1;" glyph-name="Ntilde" horiz-adv-x="657" d="M603 0H370L194 523L197 502Q207 433 212 373T218 235V0H54V695H282L464 170Q452 245 446 305T439 443V695H603V0ZM366 754T350 761T314 781Q304 788 294 793T275 798Q257 798 246 788T222 755L136
797Q156 852 191 888T271 924Q295 924 312 917T348 897Q358 890 368 885T387 880Q404 880 415 890T439 923L525 881Q504 825 469 790T389 754Q366 754 350 761Z" />
<glyph unicode="&#xd2;" glyph-name="Ograve" horiz-adv-x="690" d="M496 713T580 617T664 348Q664 235 627 153T517 26T345 -18Q194 -18 111 78T27 348Q27 461 64 543T173 669T345 713Q496 713 580 617ZM280 580T250 526T219 348Q219 224 250 170T345 115Q411
115 441 169T471 348Q471 472 441 526T345 580Q280 580 250 526ZM262 970L489 840L444 750L197 839L262 970Z" />
<glyph unicode="&#xd3;" glyph-name="Oacute" horiz-adv-x="690" d="M496 713T580 617T664 348Q664 235 627 153T517 26T345 -18Q194 -18 111 78T27 348Q27 461 64 543T173 669T345 713Q496 713 580 617ZM280 580T250 526T219 348Q219 224 250 170T345 115Q411
115 441 169T471 348Q471 472 441 526T345 580Q280 580 250 526ZM427 970L491 839L244 750L199 840L427 970Z" />
<glyph unicode="&#xd4;" glyph-name="Ocircumflex" horiz-adv-x="690" d="M496 713T580 617T664 348Q664 235 627 153T517 26T345 -18Q194 -18 111 78T27 348Q27 461 64 543T173 669T345 713Q496 713 580 617ZM280 580T250 526T219 348Q219 224 250 170T345 115Q411
115 441 169T471 348Q471 472 441 526T345 580Q280 580 250 526ZM210 753L148 824L291 959H399L542 824L480 753L345 838L210 753Z" />
<glyph unicode="&#xd5;" glyph-name="Otilde" horiz-adv-x="690" d="M496 713T580 617T664 348Q664 235 627 153T517 26T345 -18Q194 -18 111 78T27 348Q27 461 64 543T173 669T345 713Q496 713 580 617ZM280 580T250 526T219 348Q219 224 250 170T345 115Q411
115 441 169T471 348Q471 472 441 526T345 580Q280 580 250 526ZM380 754T364 761T328 781Q318 788 308 793T289 798Q271 798 260 788T236 755L150 797Q170 852 205 888T285 924Q309 924 326 917T362 897Q372 890 382 885T401 880Q418 880 429 890T453 923L539
881Q518 825 483 790T403 754Q380 754 364 761Z" />
<glyph unicode="&#xd6;" glyph-name="Odieresis" horiz-adv-x="690" d="M496 713T580 617T664 348Q664 235 627 153T517 26T345 -18Q194 -18 111 78T27 348Q27 461 64 543T173 669T345 713Q496 713 580 617ZM280 580T250 526T219 348Q219 224 250 170T345 115Q411
115 441 169T471 348Q471 472 441 526T345 580Q280 580 250 526ZM261 935T286 910T312 849Q312 813 287 788T224 763Q188 763 162 788T136 849Q136 885 162 910T224 935Q261 935 286 910ZM499 935T524 910T550 849Q550 813 525 788T462 763Q426 763 400 788T374
849Q374 885 400 910T462 935Q499 935 524 910Z" />
<glyph unicode="&#xd7;" glyph-name="multiply" horiz-adv-x="524" d="M377 518L473 421L358 309L473 191L377 95L264 215L147 95L51 191L165 303L51 421L147 518L259 398L377 518Z" />
<glyph unicode="&#xd8;" glyph-name="Oslash" horiz-adv-x="690" d="M591 623T627 542T664 348Q664 235 627 153T517 26T345 -18Q329 -18 301 -16L264 -137L128 -100L168 29Q99 73 63 154T27 348Q27 461 64 543T173 669T345 713Q361 713 389 711L426 830L563 794L522
667Q591 623 627 542ZM280 580T250 526T219 348Q219 219 246 167L369 579Q362 580 345 580Q280 580 250 526ZM411 115T441 169T471 348Q471 477 445 528L322 116Q329 115 345 115Q411 115 441 169Z" />
<glyph unicode="&#xd9;" glyph-name="Ugrave" horiz-adv-x="647" d="M604 233Q604 161 573 104T478 15T324 -18Q186 -18 115 49T44 233V695H229V239Q229 176 251 147T324 117Q374 117 396 147T418 239V695H604V233ZM241 970L468 840L423 750L176 839L241 970Z" />
<glyph unicode="&#xda;" glyph-name="Uacute" horiz-adv-x="647" d="M604 233Q604 161 573 104T478 15T324 -18Q186 -18 115 49T44 233V695H229V239Q229 176 251 147T324 117Q374 117 396 147T418 239V695H604V233ZM406 970L470 839L223 750L178 840L406 970Z" />
<glyph unicode="&#xdb;" glyph-name="Ucircumflex" horiz-adv-x="647" d="M604 233Q604 161 573 104T478 15T324 -18Q186 -18 115 49T44 233V695H229V239Q229 176 251 147T324 117Q374 117 396 147T418 239V695H604V233ZM189 753L127 824L270 959H378L521 824L459
753L324 838L189 753Z" />
<glyph unicode="&#xdc;" glyph-name="Udieresis" horiz-adv-x="647" d="M604 233Q604 161 573 104T478 15T324 -18Q186 -18 115 49T44 233V695H229V239Q229 176 251 147T324 117Q374 117 396 147T418 239V695H604V233ZM240 935T265 910T291 849Q291 813 266 788T203
763Q167 763 141 788T115 849Q115 885 141 910T203 935Q240 935 265 910ZM478 935T503 910T529 849Q529 813 504 788T441 763Q405 763 379 788T353 849Q353 885 379 910T441 935Q478 935 503 910Z" />
<glyph unicode="&#xdd;" glyph-name="Yacute" horiz-adv-x="607" d="M618 695L396 259V0H211V258L-11 695H191L306 400L422 695H618ZM385 970L449 839L202 750L157 840L385 970Z" />
<glyph unicode="&#xde;" glyph-name="Thorn" horiz-adv-x="605" d="M432 589T509 531T587 357Q587 235 512 173T310 110H239V0H54V695H239V589H292Q432 589 509 531ZM345 242T371 269T398 357Q398 459 289 459H239V242H293Q345 242 371 269Z" />
<glyph unicode="&#xdf;" glyph-name="germandbls" horiz-adv-x="610" d="M366 761T414 741T488 686T513 610Q513 573 498 549T455 496Q435 477 426 464T416 433Q416 413 431 398T478 360Q515 334 539 311T580 253T598 167Q598 81 540 32T390 -18Q356 -18 324 -11T266
9L319 129Q341 118 366 118Q389 118 401 131T414 170Q414 202 398 222T346 269Q306 299 285 326T264 401Q264 440 275 462T309 508Q327 527 336 544T346 586Q346 610 332 624T294 638Q230 638 230 537V0H52V532Q52 640 115 700T298 761Q366 761 414 741Z" />
<glyph unicode="&#xe0;" glyph-name="agrave" horiz-adv-x="550" d="M494 135T501 121T528 100L492 -15Q441 -11 409 6T356 60Q305 -18 195 -18Q116 -18 69 28T21 149Q21 237 86 284T274 331H320V349Q320 392 302 407T237 423Q212 423 175 416T98 395L59 510Q107
530 162 540T264 551Q384 551 439 504T494 358V164Q494 135 501 121ZM271 107T289 118T320 150V236H290Q242 236 219 219T196 166Q196 139 210 123T249 107Q271 107 289 118ZM206 846L430 707L382 618L138 714L206 846Z" />
<glyph unicode="&#xe1;" glyph-name="aacute" horiz-adv-x="550" d="M494 135T501 121T528 100L492 -15Q441 -11 409 6T356 60Q305 -18 195 -18Q116 -18 69 28T21 149Q21 237 86 284T274 331H320V349Q320 392 302 407T237 423Q212 423 175 416T98 395L59 510Q107
530 162 540T264 551Q384 551 439 504T494 358V164Q494 135 501 121ZM271 107T289 118T320 150V236H290Q242 236 219 219T196 166Q196 139 210 123T249 107Q271 107 289 118ZM344 846L412 714L168 618L120 707L344 846Z" />
<glyph unicode="&#xe2;" glyph-name="acircumflex" horiz-adv-x="550" d="M494 135T501 121T528 100L492 -15Q441 -11 409 6T356 60Q305 -18 195 -18Q116 -18 69 28T21 149Q21 237 86 284T274 331H320V349Q320 392 302 407T237 423Q212 423 175 416T98 395L59
510Q107 530 162 540T264 551Q384 551 439 504T494 358V164Q494 135 501 121ZM271 107T289 118T320 150V236H290Q242 236 219 219T196 166Q196 139 210 123T249 107Q271 107 289 118ZM139 616L77 687L220 831H327L471 687L409 616L274 710L139 616Z" />
<glyph unicode="&#xe3;" glyph-name="atilde" horiz-adv-x="550" d="M494 135T501 121T528 100L492 -15Q441 -11 409 6T356 60Q305 -18 195 -18Q116 -18 69 28T21 149Q21 237 86 284T274 331H320V349Q320 392 302 407T237 423Q212 423 175 416T98 395L59 510Q107
530 162 540T264 551Q384 551 439 504T494 358V164Q494 135 501 121ZM271 107T289 118T320 150V236H290Q242 236 219 219T196 166Q196 139 210 123T249 107Q271 107 289 118ZM309 628T293 635T257 655Q247 662 237 667T218 672Q200 672 189 662T165 629L79 671Q99
726 134 762T214 798Q238 798 255 791T291 771Q301 764 311 759T330 754Q347 754 358 764T382 797L468 755Q447 699 412 664T332 628Q309 628 293 635Z" />
<glyph unicode="&#xe4;" glyph-name="adieresis" horiz-adv-x="550" d="M494 135T501 121T528 100L492 -15Q441 -11 409 6T356 60Q305 -18 195 -18Q116 -18 69 28T21 149Q21 237 86 284T274 331H320V349Q320 392 302 407T237 423Q212 423 175 416T98 395L59 510Q107
530 162 540T264 551Q384 551 439 504T494 358V164Q494 135 501 121ZM271 107T289 118T320 150V236H290Q242 236 219 219T196 166Q196 139 210 123T249 107Q271 107 289 118ZM191 809T216 784T242 723Q242 687 217 662T154 637Q118 637 92 662T66 723Q66 759 92
784T154 809Q191 809 216 784ZM429 809T454 784T480 723Q480 687 455 662T392 637Q356 637 330 662T304 723Q304 759 330 784T392 809Q429 809 454 784Z" />
<glyph unicode="&#xe5;" glyph-name="aring" horiz-adv-x="550" d="M494 135T501 121T528 100L492 -15Q441 -11 409 6T356 60Q305 -18 195 -18Q116 -18 69 28T21 149Q21 237 86 284T274 331H320V349Q320 392 302 407T237 423Q212 423 175 416T98 395L59 510Q107
530 162 540T264 551Q384 551 439 504T494 358V164Q494 135 501 121ZM271 107T289 118T320 150V236H290Q242 236 219 219T196 166Q196 139 210 123T249 107Q271 107 289 118ZM341 877T381 837T421 738Q421 701 403 669T352 618T274 599Q230 599 197 618T146 669T128
738Q128 796 168 836T274 877Q341 877 381 837ZM255 786T244 774T232 738Q232 715 243 703T274 690Q293 690 305 702T317 738Q317 762 306 774T274 786Q255 786 244 774Z" />
<glyph unicode="&#xe6;" glyph-name="ae" horiz-adv-x="857" d="M838 251T834 215H508Q515 154 543 132T621 109Q651 109 680 120T745 156L818 58Q724 -18 605 -18Q533 -18 478 5T387 71Q325 -18 199 -18Q117 -18 69 28T21 149Q21 237 87 284T281 331H327V347Q327
390 309 406T244 422Q219 422 182 415T105 394L66 510Q114 530 169 540T271 551Q382 551 435 487Q499 551 598 551Q668 551 722 519T807 424T838 275Q838 251 834 215ZM662 325Q661 378 645 407T588 436Q551 436 532 410T507 319H662V325ZM282 107T301 121T340
163Q332 191 330 227V232H298Q252 232 230 216T207 163Q207 137 220 122T258 107Q282 107 301 121Z" />
<glyph unicode="&#xe7;" glyph-name="ccedilla" horiz-adv-x="479" d="M417 -8T328 -17V-45Q381 -52 408 -78T435 -149Q435 -202 393 -235T279 -269Q243 -269 212 -260T160 -236L200 -157Q231 -175 263 -175Q309 -175 309 -147Q309 -131 287 -124T216 -116L229
-11Q133 8 79 81T25 262Q25 346 58 411T151 514T293 551Q351 551 397 534T481 483L406 379Q360 416 309 416Q260 416 235 381T210 263Q210 183 235 152T307 120Q332 120 353 128T404 155L481 46Q417 -8 328 -17Z" />
<glyph unicode="&#xe8;" glyph-name="egrave" horiz-adv-x="555" d="M535 269T532 215H206Q213 154 240 132T319 109Q349 109 378 120T443 156L515 58Q473 23 419 3T302 -18Q166 -18 96 58T25 264Q25 345 54 410T142 513T282 551Q399 551 467 479T535 275Q535
269 532 215ZM360 325Q359 378 342 407T285 436Q248 436 229 410T205 319H360V325ZM216 846L440 707L392 618L148 714L216 846Z" />
<glyph unicode="&#xe9;" glyph-name="eacute" horiz-adv-x="555" d="M535 269T532 215H206Q213 154 240 132T319 109Q349 109 378 120T443 156L515 58Q473 23 419 3T302 -18Q166 -18 96 58T25 264Q25 345 54 410T142 513T282 551Q399 551 467 479T535 275Q535
269 532 215ZM360 325Q359 378 342 407T285 436Q248 436 229 410T205 319H360V325ZM354 846L422 714L178 618L130 707L354 846Z" />
<glyph unicode="&#xea;" glyph-name="ecircumflex" horiz-adv-x="555" d="M535 269T532 215H206Q213 154 240 132T319 109Q349 109 378 120T443 156L515 58Q473 23 419 3T302 -18Q166 -18 96 58T25 264Q25 345 54 410T142 513T282 551Q399 551 467 479T535 275Q535
269 532 215ZM360 325Q359 378 342 407T285 436Q248 436 229 410T205 319H360V325ZM149 616L87 687L230 831H337L481 687L419 616L284 710L149 616Z" />
<glyph unicode="&#xeb;" glyph-name="edieresis" horiz-adv-x="555" d="M535 269T532 215H206Q213 154 240 132T319 109Q349 109 378 120T443 156L515 58Q473 23 419 3T302 -18Q166 -18 96 58T25 264Q25 345 54 410T142 513T282 551Q399 551 467 479T535 275Q535
269 532 215ZM360 325Q359 378 342 407T285 436Q248 436 229 410T205 319H360V325ZM201 809T226 784T252 723Q252 687 227 662T164 637Q128 637 102 662T76 723Q76 759 102 784T164 809Q201 809 226 784ZM439 809T464 784T490 723Q490 687 465 662T402 637Q366
637 340 662T314 723Q314 759 340 784T402 809Q439 809 464 784Z" />
<glyph unicode="&#xec;" glyph-name="igrave" horiz-adv-x="282" d="M230 533V0H52V533H230ZM73 846L297 707L249 618L5 714L73 846Z" />
<glyph unicode="&#xed;" glyph-name="iacute" horiz-adv-x="282" d="M230 533V0H52V533H230ZM211 846L279 714L35 618L-13 707L211 846Z" />
<glyph unicode="&#xee;" glyph-name="icircumflex" horiz-adv-x="282" d="M230 533V0H52V533H230ZM6 616L-56 687L87 831H194L338 687L276 616L141 710L6 616Z" />
<glyph unicode="&#xef;" glyph-name="idieresis" horiz-adv-x="282" d="M230 533V0H52V533H230ZM58 809T83 784T109 723Q109 687 84 662T21 637Q-15 637 -41 662T-67 723Q-67 759 -41 784T21 809Q58 809 83 784ZM296 809T321 784T347 723Q347 687 322 662T259
637Q223 637 197 662T171 723Q171 759 197 784T259 809Q296 809 321 784Z" />
<glyph unicode="&#xf0;" glyph-name="eth" horiz-adv-x="581" d="M464 601T508 505T552 280Q552 197 521 129T430 22T284 -18Q210 -18 151 12T59 99T25 233Q25 303 53 359T129 448T234 481Q273 481 304 471T362 440Q348 481 326 512T266 574L216 524L105 575L156
628Q115 640 72 647L107 761Q176 750 251 726L326 804L415 727L361 673Q464 601 508 505ZM332 110T351 144T370 253V326Q336 358 286 358Q205 358 205 236Q205 110 288 110Q332 110 351 144Z" />
<glyph unicode="&#xf1;" glyph-name="ntilde" horiz-adv-x="575" d="M450 551T489 509T528 391V0H350V359Q350 394 340 407T310 421Q268 421 230 360V0H52V533H207L220 473Q256 513 295 532T382 551Q450 551 489 509ZM327 628T311 635T275 655Q265 662 255 667T236
672Q218 672 207 662T183 629L97 671Q117 726 152 762T232 798Q256 798 273 791T309 771Q319 764 329 759T348 754Q365 754 376 764T400 797L486 755Q465 699 430 664T350 628Q327 628 311 635Z" />
<glyph unicode="&#xf2;" glyph-name="ograve" horiz-adv-x="584" d="M417 551T488 476T559 266Q559 180 527 116T435 17T292 -18Q167 -18 96 57T25 267Q25 353 57 417T149 516T292 551Q417 551 488 476ZM249 422T229 385T208 267Q208 184 228 148T292 111Q335
111 355 148T376 266Q376 348 356 385T292 422Q249 422 229 385ZM224 846L448 707L400 618L156 714L224 846Z" />
<glyph unicode="&#xf3;" glyph-name="oacute" horiz-adv-x="584" d="M417 551T488 476T559 266Q559 180 527 116T435 17T292 -18Q167 -18 96 57T25 267Q25 353 57 417T149 516T292 551Q417 551 488 476ZM249 422T229 385T208 267Q208 184 228 148T292 111Q335
111 355 148T376 266Q376 348 356 385T292 422Q249 422 229 385ZM362 846L430 714L186 618L138 707L362 846Z" />
<glyph unicode="&#xf4;" glyph-name="ocircumflex" horiz-adv-x="584" d="M417 551T488 476T559 266Q559 180 527 116T435 17T292 -18Q167 -18 96 57T25 267Q25 353 57 417T149 516T292 551Q417 551 488 476ZM249 422T229 385T208 267Q208 184 228 148T292 111Q335
111 355 148T376 266Q376 348 356 385T292 422Q249 422 229 385ZM157 616L95 687L238 831H345L489 687L427 616L292 710L157 616Z" />
<glyph unicode="&#xf5;" glyph-name="otilde" horiz-adv-x="584" d="M417 551T488 476T559 266Q559 180 527 116T435 17T292 -18Q167 -18 96 57T25 267Q25 353 57 417T149 516T292 551Q417 551 488 476ZM249 422T229 385T208 267Q208 184 228 148T292 111Q335
111 355 148T376 266Q376 348 356 385T292 422Q249 422 229 385ZM327 628T311 635T275 655Q265 662 255 667T236 672Q218 672 207 662T183 629L97 671Q117 726 152 762T232 798Q256 798 273 791T309 771Q319 764 329 759T348 754Q365 754 376 764T400 797L486 755Q465
699 430 664T350 628Q327 628 311 635Z" />
<glyph unicode="&#xf6;" glyph-name="odieresis" horiz-adv-x="584" d="M417 551T488 476T559 266Q559 180 527 116T435 17T292 -18Q167 -18 96 57T25 267Q25 353 57 417T149 516T292 551Q417 551 488 476ZM249 422T229 385T208 267Q208 184 228 148T292 111Q335
111 355 148T376 266Q376 348 356 385T292 422Q249 422 229 385ZM209 809T234 784T260 723Q260 687 235 662T172 637Q136 637 110 662T84 723Q84 759 110 784T172 809Q209 809 234 784ZM447 809T472 784T498 723Q498 687 473 662T410 637Q374 637 348 662T322 723Q322
759 348 784T410 809Q447 809 472 784Z" />
<glyph unicode="&#xf7;" glyph-name="divide" horiz-adv-x="524" d="M302 184T330 156T359 87Q359 47 331 19T262 -9Q222 -9 194 19T165 87Q165 127 193 155T262 184Q302 184 330 156ZM302 674T330 646T359 577Q359 537 331 509T262 481Q222 481 194 509T165 577Q165
617 193 645T262 674Q302 674 330 646ZM44 264V400H480V264H44Z" />
<glyph unicode="&#xf8;" glyph-name="oslash" horiz-adv-x="584" d="M501 476T530 414T559 266Q559 180 527 116T435 17T292 -18Q273 -18 264 -17L227 -136L99 -99L138 22Q83 57 54 119T25 267Q25 353 57 417T149 516T292 551Q311 551 320 550L359 670L486 632L446
511Q501 476 530 414ZM242 422T217 385T192 267Q192 182 211 146L302 422H292Q242 422 217 385ZM342 111T367 148T392 266Q392 351 374 385L283 111H292Q342 111 367 148Z" />
<glyph unicode="&#xf9;" glyph-name="ugrave" horiz-adv-x="569" d="M517 0H362L355 63Q299 -18 196 -18Q122 -18 85 26T47 150V533H225V173Q225 139 235 126T267 112Q286 112 304 125T339 165V533H517V0ZM215 846L439 707L391 618L147 714L215 846Z" />
<glyph unicode="&#xfa;" glyph-name="uacute" horiz-adv-x="569" d="M517 0H362L355 63Q299 -18 196 -18Q122 -18 85 26T47 150V533H225V173Q225 139 235 126T267 112Q286 112 304 125T339 165V533H517V0ZM353 846L421 714L177 618L129 707L353 846Z" />
<glyph unicode="&#xfb;" glyph-name="ucircumflex" horiz-adv-x="569" d="M517 0H362L355 63Q299 -18 196 -18Q122 -18 85 26T47 150V533H225V173Q225 139 235 126T267 112Q286 112 304 125T339 165V533H517V0ZM148 616L86 687L229 831H336L480 687L418 616L283
710L148 616Z" />
<glyph unicode="&#xfc;" glyph-name="udieresis" horiz-adv-x="569" d="M517 0H362L355 63Q299 -18 196 -18Q122 -18 85 26T47 150V533H225V173Q225 139 235 126T267 112Q286 112 304 125T339 165V533H517V0ZM200 809T225 784T251 723Q251 687 226 662T163 637Q127
637 101 662T75 723Q75 759 101 784T163 809Q200 809 225 784ZM438 809T463 784T489 723Q489 687 464 662T401 637Q365 637 339 662T313 723Q313 759 339 784T401 809Q438 809 463 784Z" />
<glyph unicode="&#xfd;" glyph-name="yacute" horiz-adv-x="526" d="M370 0Q337 -107 260 -163T55 -225L36 -102Q112 -94 149 -72T207 0H146L-10 533H179L260 111L353 533H536L370 0ZM333 846L401 714L157 618L109 707L333 846Z" />
<glyph unicode="&#xfe;" glyph-name="thorn" horiz-adv-x="598" d="M468 551T518 477T569 268Q569 186 543 121T469 19T357 -18Q278 -18 230 36V-205L52 -224V743L230 761V487Q259 521 294 536T366 551Q468 551 518 477ZM385 110T385 266Q385 357 366 389T308
422Q287 422 267 408T230 366V152Q245 130 261 120T300 110Q385 110 385 266Z" />
<glyph unicode="&#xff;" glyph-name="ydieresis" horiz-adv-x="526" d="M370 0Q337 -107 260 -163T55 -225L36 -102Q112 -94 149 -72T207 0H146L-10 533H179L260 111L353 533H536L370 0ZM180 809T205 784T231 723Q231 687 206 662T143 637Q107 637 81 662T55 723Q55
759 81 784T143 809Q180 809 205 784ZM418 809T443 784T469 723Q469 687 444 662T381 637Q345 637 319 662T293 723Q293 759 319 784T381 809Q418 809 443 784Z" />
<glyph unicode="&#x2013;" glyph-name="endash" horiz-adv-x="520" d="M18 245V381H502V245H18Z" />
<glyph unicode="&#x2014;" glyph-name="emdash" horiz-adv-x="798" d="M18 245V381H780V245H18Z" />
<glyph unicode="&#x2018;" glyph-name="quoteleft" horiz-adv-x="247" d="M87 452T62 476T36 538Q36 559 43 582T69 643L131 771H218L177 612Q217 584 217 537Q217 501 191 477T126 452Q87 452 62 476Z" />
<glyph unicode="&#x2019;" glyph-name="quoteright" horiz-adv-x="247" d="M160 770T185 746T211 684Q211 663 204 640T178 579L116 451H29L70 610Q30 638 30 685Q30 721 56 745T121 770Q160 770 185 746Z" />
<glyph unicode="&#x201a;" glyph-name="quotesinglbase" horiz-adv-x="247" d="M160 153T185 129T211 67Q211 46 204 23T178 -38L116 -166H29L70 -7Q30 21 30 68Q30 104 56 128T121 153Q160 153 185 129Z" />
<glyph unicode="&#x201c;" glyph-name="quotedblleft" horiz-adv-x="461" d="M87 452T62 476T36 538Q36 559 43 582T69 643L131 771H218L177 612Q217 584 217 537Q217 501 191 477T126 452Q87 452 62 476ZM301 452T276 476T250 538Q250 559 257 582T283 643L345
771H432L391 612Q431 584 431 537Q431 501 405 477T340 452Q301 452 276 476Z" />
<glyph unicode="&#x201d;" glyph-name="quotedblright" horiz-adv-x="461" d="M160 770T185 746T211 684Q211 663 204 640T178 579L116 451H29L70 610Q30 638 30 685Q30 721 56 745T121 770Q160 770 185 746ZM374 770T399 746T425 684Q425 663 418 640T392 579L330
451H243L284 610Q244 638 244 685Q244 721 270 745T335 770Q374 770 399 746Z" />
<glyph unicode="&#x201e;" glyph-name="quotedblbase" horiz-adv-x="461" d="M160 153T185 129T211 67Q211 46 204 23T178 -38L116 -166H29L70 -7Q30 21 30 68Q30 104 56 128T121 153Q160 153 185 129ZM374 153T399 129T425 67Q425 46 418 23T392 -38L330 -166H243L284
-7Q244 21 244 68Q244 104 270 128T335 153Q374 153 399 129Z" />
<glyph unicode="&#x2022;" glyph-name="bullet" horiz-adv-x="353" d="M218 487T251 468T304 416T323 341Q323 300 304 267T252 215T177 196Q114 196 73 238T31 342Q31 404 72 445T177 487Q218 487 251 468Z" />
<glyph unicode="&#x2039;" glyph-name="guilsinglleft" horiz-adv-x="365" d="M224 563L334 490L208 284L334 78L224 5L31 228V339L224 563Z" />
<glyph unicode="&#x203a;" glyph-name="guilsinglright" horiz-adv-x="365" d="M141 563L334 339V228L141 5L31 78L158 284L31 490L141 563Z" />
</font>
</defs>
</svg>
