<?xml version="1.0" standalone="no"?>
<!DOCTYPE svg PUBLIC "-//W3C//DTD SVG 1.1//EN" "http://www.w3.org/Graphics/SVG/1.1/DTD/svg11.dtd">
<svg xmlns="http://www.w3.org/2000/svg">
<defs >
<font id="FiraSans" horiz-adv-x="569" ><font-face
    font-family="Fira Sans ExtraBold"
    units-per-em="1000"
    panose-1="2 11 9 3 5 0 0 2 0 4"
    ascent="935"
    descent="-265"
    alphabetic="0" />
<glyph unicode=" " glyph-name="space" horiz-adv-x="217" />
<glyph unicode="!" glyph-name="exclam" horiz-adv-x="229" d="M44 263L82 695H267L183 263H44ZM46 -19T22 6T-2 69Q-2 112 29 143T105 175Q142 175 165 151T189 89Q189 45 158 13T83 -19Q46 -19 22 6Z" />
<glyph unicode="&quot;" glyph-name="quotedbl" horiz-adv-x="441" d="M80 410L100 695H254L194 410H80ZM288 410L308 695H462L402 410H288Z" />
<glyph unicode="#" glyph-name="numbersign" horiz-adv-x="558" d="M568 438H501L451 252H505L489 137H420L383 0H238L275 137H194L157 0H12L49 137H-4L12 252H80L130 438H75L91 554H161L194 678H339L306 554H387L420 678H566L533 554H584L568 438ZM306 252L356
438H275L225 252H306Z" />
<glyph unicode="$" glyph-name="dollar" horiz-adv-x="544" d="M435 388T476 340T518 222Q518 171 496 124T424 43T300 -4L278 -163H155L177 -7Q113 0 63 26T-20 91L80 185Q112 153 151 136T232 119Q279 119 307 141T335 197Q335 227 315 245T243 283Q152 316
112 362T71 473Q71 552 126 611T282 684L302 832H425L403 683Q498 666 566 598L477 508Q409 561 344 561Q301 561 278 545T254 499Q254 473 274 457T354 417Q435 388 476 340Z" />
<glyph unicode="%" glyph-name="percent" horiz-adv-x="858" d="M668 722L117 25L213 -42L766 655L668 722ZM148 327T104 369T59 482Q59 532 81 580T150 661T263 693Q333 693 377 651T421 538Q421 488 399 440T330 359T217 327Q148 327 104 369ZM266 432T283 463T300
535Q300 588 253 588Q211 588 195 556T179 486Q179 432 227 432Q266 432 283 463ZM546 -19T502 23T457 137Q457 187 480 235T549 315T662 347Q732 347 776 305T820 193Q820 143 798 94T729 13T616 -19Q546 -19 502 23ZM665 86T682 117T699 189Q699 243 652 243Q610
243 594 211T578 140Q578 86 626 86Q665 86 682 117Z" />
<glyph unicode="&amp;" glyph-name="ampersand" horiz-adv-x="765" d="M428 713T475 693T548 638T573 558Q573 504 538 459T418 359L521 245Q553 296 582 368L720 323Q672 230 606 152L703 50L554 -19L492 51Q441 15 387 -2T271 -19Q202 -19 151 4T72 68T44 160Q44
228 80 277T201 376Q162 422 146 455T129 530Q129 574 152 615T227 685T362 713Q428 713 475 693ZM329 601T312 583T294 534Q294 513 303 495T333 453Q375 481 392 504T409 555Q409 577 395 589T358 601Q329 601 312 583ZM256 252T244 228T231 173Q231 141 250
124T308 106Q361 106 413 136L288 277Q256 252 244 228Z" />
<glyph unicode="&apos;" glyph-name="quotesingle" horiz-adv-x="233" d="M80 410L100 695H254L194 410H80Z" />
<glyph unicode="(" glyph-name="parenleft" horiz-adv-x="314" d="M387 785Q186 545 186 219Q186 129 204 55T263 -92L142 -162Q100 -90 74 -35T30 89T13 238Q13 366 44 470T132 665T281 864L387 785Z" />
<glyph unicode=")" glyph-name="parenright" horiz-adv-x="314" d="M237 790T263 735T307 610T324 459Q324 333 293 229T204 33T55 -164L-50 -85Q151 156 151 479Q151 571 133 645T73 792L195 862Q237 790 263 735Z" />
<glyph unicode="*" glyph-name="asterisk" horiz-adv-x="441" d="M476 528L336 507L422 410L291 321L246 445L168 320L61 409L172 507L38 527L101 665L216 603L210 743H366L322 604L449 668L476 528Z" />
<glyph unicode="+" glyph-name="plus" horiz-adv-x="528" d="M376 558L354 400H505L486 264H335L313 106H170L193 264H42L61 400H212L233 558H376Z" />
<glyph unicode="," glyph-name="comma" horiz-adv-x="240" d="M142 175T166 152T190 91Q190 66 180 42T138 -39L56 -181H-39L31 0Q-1 23 -1 66Q-1 111 30 143T105 175Q142 175 166 152Z" />
<glyph unicode="-" glyph-name="hyphen" horiz-adv-x="399" d="M35 245L53 381H377L359 245H35Z" />
<glyph unicode="." glyph-name="period" horiz-adv-x="240" d="M46 -19T22 6T-2 69Q-2 112 29 143T105 175Q142 175 165 151T189 89Q189 45 158 13T83 -19Q46 -19 22 6Z" />
<glyph unicode="/" glyph-name="slash" horiz-adv-x="509" d="M370 820L520 783L163 -115L13 -78L370 820Z" />
<glyph unicode="0" glyph-name="zero" horiz-adv-x="583" d="M234 693T164 623T64 451T34 244Q34 118 91 50T255 -19Q368 -19 438 52T539 226T569 433Q569 559 512 626T348 693Q234 693 164 623ZM367 563T381 543T395 470Q395 394 382 311T339 170T266 112Q237
112 223 134T209 208Q209 285 222 367T264 506T338 563Q367 563 381 543Z" />
<glyph unicode="1" glyph-name="one" horiz-adv-x="462" d="M449 678L354 0H183L254 498L101 411L42 537L292 678H449Z" />
<glyph unicode="2" glyph-name="two" horiz-adv-x="513" d="M359 693T408 669T483 604T508 512Q508 461 487 413T400 297T205 134L470 135L433 0H-12L4 126Q150 252 215 315T303 416T326 493Q326 523 308 540T257 558Q224 558 196 542T131 490L37 579Q90 635 151
664T289 693Q359 693 408 669Z" />
<glyph unicode="3" glyph-name="three" horiz-adv-x="515" d="M395 693T449 648T504 531Q504 474 468 427T349 357Q407 351 444 316T481 218Q481 164 451 110T355 18T189 -19Q112 -19 56 9T-35 89L72 176Q97 145 126 131T193 116Q241 116 272 145T303 227Q303
262 281 278T214 294H155L191 414H229Q283 414 307 441T331 504Q331 533 313 548T261 563Q191 563 124 504L48 603Q104 648 164 670T295 693Q395 693 449 648Z" />
<glyph unicode="4" glyph-name="four" horiz-adv-x="564" d="M548 272L529 140H458L438 0H267L286 140H5L21 257L263 697L409 642L212 272H305L347 426H498L476 272H548Z" />
<glyph unicode="5" glyph-name="five" horiz-adv-x="536" d="M496 552H261L243 427Q288 449 342 449Q416 449 461 400T506 261Q506 198 475 134T375 25T202 -19Q62 -19 -18 87L88 177Q136 114 207 114Q262 114 294 152T327 251Q327 329 257 329Q236 329 217 324T175
305H57L109 678H533L496 552Z" />
<glyph unicode="6" glyph-name="six" horiz-adv-x="564" d="M453 460T498 411T543 275Q543 212 515 144T423 29T264 -19Q147 -19 89 46T31 228Q31 350 75 456T201 628T391 693Q484 693 542 645L465 544Q430 568 384 568Q332 568 293 527T235 408Q301 460 376 460Q453
460 498 411ZM322 107T344 158T367 270Q367 307 354 323T314 339Q267 339 219 296Q211 232 211 199Q211 150 225 129T271 107Q322 107 344 158Z" />
<glyph unicode="7" glyph-name="seven" horiz-adv-x="464" d="M509 678L493 559L172 -18L18 36L307 545H46L65 678H509Z" />
<glyph unicode="8" glyph-name="eight" horiz-adv-x="579" d="M546 302T546 204Q546 143 511 92T408 11T250 -19Q174 -19 120 5T38 72T10 167Q10 222 46 270T159 349Q82 402 82 486Q82 537 110 584T198 662T344 693Q445 693 506 650T567 532Q567 427 438 362Q546
302 546 204ZM290 575T271 550T251 493Q251 468 264 450T307 418L327 410Q369 437 383 464T397 519Q397 545 381 560T335 575Q290 575 271 550ZM316 107T343 135T371 206Q371 233 354 250T295 286L262 298Q221 276 204 244T187 179Q187 146 208 127T267 107Q316
107 343 135Z" />
<glyph unicode="9" glyph-name="nine" horiz-adv-x="560" d="M440 693T501 634T563 475Q563 298 453 157T64 -30L42 94Q174 124 243 166T349 288Q319 260 286 246T210 232Q163 232 126 254T67 318T45 417Q45 482 75 545T169 651T328 693Q440 693 501 634ZM221
354T278 354Q303 354 328 368T376 409Q384 459 384 487Q384 531 369 549T319 568Q267 568 244 525T221 427Q221 354 278 354Z" />
<glyph unicode=":" glyph-name="colon" horiz-adv-x="240" d="M46 -19T22 6T-2 69Q-2 112 29 143T105 175Q142 175 165 151T189 89Q189 45 158 13T83 -19Q46 -19 22 6ZM93 320T69 345T45 408Q45 451 76 482T152 514Q189 514 212 490T236 428Q236 384 205 352T130
320Q93 320 69 345Z" />
<glyph unicode=";" glyph-name="semicolon" horiz-adv-x="242" d="M144 175T168 152T192 91Q192 66 182 42T140 -39L58 -181H-37L33 0Q1 23 1 66Q1 111 32 143T107 175Q144 175 168 152ZM95 320T71 345T47 408Q47 451 78 482T154 514Q191 514 214 490T238 428Q238
384 207 352T132 320Q95 320 71 345Z" />
<glyph unicode="&lt;" glyph-name="less" horiz-adv-x="516" d="M475 584L519 453L188 333L478 210L406 82L28 256L49 409L475 584Z" />
<glyph unicode="=" glyph-name="equal" horiz-adv-x="514" d="M57 371L76 507H505L486 371H57ZM283 412L302 548H731L712 412H283Z" />
<glyph unicode="&gt;" glyph-name="greater" horiz-adv-x="514" d="M127 584L505 409L483 256L57 82L16 219L345 336L56 462L127 584Z" />
<glyph unicode="?" glyph-name="question" horiz-adv-x="477" d="M404 713T456 669T509 556Q509 505 490 471T443 417T373 374Q328 350 306 331T284 280Q284 272 286 260L132 237Q125 259 125 285Q125 332 142 363T184 413T247 453Q286 475 304 492T323 535Q323
554 310 564T273 574Q217 574 153 515L56 605Q161 713 306 713Q404 713 456 669ZM156 -19T132 6T108 69Q108 112 139 143T215 175Q252 175 275 151T299 89Q299 45 268 13T193 -19Q156 -19 132 6Z" />
<glyph unicode="@" glyph-name="at" horiz-adv-x="1009" d="M697 713T788 665T928 535T976 349Q976 268 948 188T862 55T724 2Q669 2 633 31T589 101Q534 7 438 7Q362 7 321 54T279 180Q279 253 305 328T393 454T553 506Q595 506 641 493T724 458L685 162Q684
156 684 145Q684 109 716 109Q749 109 773 146T809 240T822 351Q822 466 756 526T558 586Q426 586 344 524T227 370T192 182Q192 55 267 -20T484 -95Q526 -95 578 -85T671 -60L697 -182Q648 -201 586 -212T470 -224Q337 -224 239 -173T87 -29T34 183Q34 303 92
425T272 630T572 713Q697 713 788 665ZM508 116T534 157L568 389Q553 396 534 396Q481 396 458 328T434 176Q434 116 474 116Q508 116 534 157Z" />
<glyph unicode="A" glyph-name="A" horiz-adv-x="585" d="M374 0L363 142H182L133 0H-57L242 695H462L566 0H374ZM227 274H354L331 575L227 274Z" />
<glyph unicode="B" glyph-name="B" horiz-adv-x="609" d="M507 355T544 322T582 221Q582 121 504 61T247 0H16L113 695H320Q454 695 525 658T597 535Q597 465 554 424T445 367Q507 355 544 322ZM361 421T385 447T409 513Q409 541 388 553T322 566H276L256 421H303Q361
421 385 447ZM339 132T367 159T395 236Q395 302 301 302H240L216 132H264Q339 132 367 159Z" />
<glyph unicode="C" glyph-name="C" horiz-adv-x="568" d="M530 713T607 627L510 533Q484 555 457 566T397 578Q334 578 295 528T238 408T220 271Q220 196 249 160T332 123Q368 123 399 138T469 181L538 74Q493 33 433 7T302 -19Q221 -19 160 14T66 113T32 270Q32
376 69 477T188 646T395 713Q530 713 607 627Z" />
<glyph unicode="D" glyph-name="D" horiz-adv-x="643" d="M460 695T547 637T634 431Q634 240 541 120T235 0H16L113 695H316Q460 695 547 637ZM277 562L217 132H262Q364 132 405 221T447 430Q447 505 417 533T325 562H277Z" />
<glyph unicode="E" glyph-name="E" horiz-adv-x="514" d="M548 695L510 564H277L256 417H460L443 289H239L217 131H466L448 0H16L113 695H548Z" />
<glyph unicode="F" glyph-name="F" horiz-adv-x="477" d="M534 695L497 564H277L254 397H447L429 266H236L198 0H16L113 695H534Z" />
<glyph unicode="G" glyph-name="G" horiz-adv-x="637" d="M494 713T550 689T645 622L545 532Q513 558 485 569T418 581Q344 581 299 530T236 403T218 244Q218 174 242 145T318 115Q360 115 404 134L424 276H345L347 404H618L570 57Q512 21 443 1T309 -19Q169 -19
100 51T31 259Q31 373 71 476T199 646T421 713Q494 713 550 689Z" />
<glyph unicode="H" glyph-name="H" horiz-adv-x="650" d="M198 0H16L113 695H295L258 432H437L474 695H656L559 0H377L416 289H239L198 0Z" />
<glyph unicode="I" glyph-name="I" horiz-adv-x="290" d="M295 695L198 0H16L113 695H295Z" />
<glyph unicode="J" glyph-name="J" horiz-adv-x="314" d="M241 107Q228 20 189 -36T95 -125T-31 -180L-64 -48Q-19 -32 6 -10T42 42T59 116L140 695H322L241 107Z" />
<glyph unicode="K" glyph-name="K" horiz-adv-x="635" d="M16 0L113 695H296L199 0H16ZM408 0L256 370L502 695H694L443 375L615 0H408Z" />
<glyph unicode="L" glyph-name="L" horiz-adv-x="510" d="M295 695L219 144H480L441 0H16L113 695H295Z" />
<glyph unicode="M" glyph-name="M" horiz-adv-x="776" d="M715 0H536L563 260Q577 401 606 559L447 71H272L238 557Q235 467 228 399T208 257L165 0H-14L133 695H354L379 219L528 695H761L715 0Z" />
<glyph unicode="N" glyph-name="N" horiz-adv-x="647" d="M556 0H326L220 542Q223 491 223 435Q223 329 208 225L176 0H16L113 695H340L449 153Q445 208 445 270Q445 358 458 453L493 695H653L556 0Z" />
<glyph unicode="O" glyph-name="O" horiz-adv-x="679" d="M531 713T601 639T671 428Q671 322 636 221T517 50T302 -19Q172 -19 102 56T32 267Q32 373 67 474T185 644T400 713Q531 713 601 639ZM323 580T286 525T234 395T219 253Q219 180 243 148T316 115Q380 115
417 170T469 299T483 443Q483 516 460 548T387 580Q323 580 286 525Z" />
<glyph unicode="P" glyph-name="P" horiz-adv-x="595" d="M471 695T540 645T609 497Q609 429 578 367T477 265T301 224H229L198 0H16L113 695H347Q471 695 540 645ZM366 356T393 396T421 487Q421 526 398 545T328 564H277L248 356H300Q366 356 393 396Z" />
<glyph unicode="Q" glyph-name="Q" horiz-adv-x="679" d="M671 309T625 203T474 44Q545 41 589 26T671 -21L545 -163Q500 -96 445 -58T302 -19Q172 -19 102 56T32 267Q32 373 67 474T185 644T400 713Q531 713 601 639T671 428Q671 309 625 203ZM219 178T243 147T316
115Q380 115 417 170T469 301T483 449Q483 518 460 549T387 580Q323 580 286 525T234 393T219 248Q219 178 243 147Z" />
<glyph unicode="R" glyph-name="R" horiz-adv-x="610" d="M610 435T578 381T457 286L584 0H386L288 256H234L198 0H16L113 695H351Q477 695 543 645T610 507Q610 435 578 381ZM251 382H313Q370 382 396 415T422 496Q422 532 399 549T329 566H277L251 382Z" />
<glyph unicode="S" glyph-name="S" d="M489 713T582 620L488 524Q456 553 422 566T348 580Q305 580 280 562T255 513Q255 486 278 470T367 432Q457 402 500 355T544 233Q544 169 514 112T415 18T240 -19Q81 -19 -21 85L83 189Q149 121 244 121Q295 121 323 142T352
201Q352 231 329 251T248 292Q149 325 106 373T63 490Q63 548 93 599T187 681T342 713Q489 713 582 620Z" />
<glyph unicode="T" glyph-name="T" horiz-adv-x="536" d="M600 695L561 554H400L322 0H140L218 554H47L66 695H600Z" />
<glyph unicode="U" glyph-name="U" horiz-adv-x="636" d="M589 232Q579 160 541 103T436 14T281 -19Q159 -19 98 36T36 188Q36 211 39 235L103 695H285L221 238Q218 216 218 198Q218 156 236 137T294 117Q344 117 371 147T407 241L471 695H653L589 232Z" />
<glyph unicode="V" glyph-name="V" horiz-adv-x="564" d="M643 695L365 0H134L41 695H231L269 136L455 695H643Z" />
<glyph unicode="W" glyph-name="W" horiz-adv-x="842" d="M896 695L692 0H456L455 514L304 0H73L66 695H246L224 137L385 695H577L573 137L720 695H896Z" />
<glyph unicode="X" glyph-name="X" horiz-adv-x="583" d="M634 695L411 374L552 0H357L287 259L150 0H-45L193 369L66 695H260L315 476L439 695H634Z" />
<glyph unicode="Y" glyph-name="Y" horiz-adv-x="596" d="M668 695L389 258L352 0H170L206 257L49 695H244L317 400L473 695H668Z" />
<glyph unicode="Z" glyph-name="Z" horiz-adv-x="540" d="M-24 0L-6 137L343 553H83L102 695H573L554 556L210 146H503L465 0H-24Z" />
<glyph unicode="[" glyph-name="bracketleft" horiz-adv-x="314" d="M378 825L359 694H248L151 5H263L244 -125H-34L100 825H378Z" />
<glyph unicode="\" glyph-name="backslash" horiz-adv-x="509" d="M292 819L399 -79L240 -115L134 783L292 819Z" />
<glyph unicode="]" glyph-name="bracketright" horiz-adv-x="314" d="M372 825L238 -125H-40L-21 6H91L188 695H76L94 825H372Z" />
<glyph unicode="^" glyph-name="asciicircum" horiz-adv-x="554" d="M438 846L579 527H411L340 715L220 527H47L278 846H438Z" />
<glyph unicode="_" glyph-name="underscore" horiz-adv-x="509" d="M-56 -180L-37 -43H459L440 -180H-56Z" />
<glyph unicode="`" glyph-name="grave" horiz-adv-x="345" d="M167 846L374 705L325 620L93 714L167 846Z" />
<glyph unicode="a" glyph-name="a" horiz-adv-x="573" d="M388 551T446 537T557 492L509 162Q507 144 507 139Q507 123 512 114T533 99L483 -15Q435 -12 400 10T351 73Q287 -19 192 -19Q109 -19 64 38T18 196Q18 281 50 362T152 497T330 551Q388 551 446 537ZM260
427T230 356T199 196Q199 148 212 130T250 111Q298 111 339 178L374 419Q347 427 324 427Q260 427 230 356Z" />
<glyph unicode="b" glyph-name="b" horiz-adv-x="582" d="M480 551T521 498T563 344Q563 255 535 173T436 36T244 -19Q131 -19 17 29L117 743L294 761L256 490Q284 518 322 534T400 551Q480 551 521 498ZM281 422T239 365L205 121Q236 110 264 110Q305 110 332
145T371 233T383 338Q383 385 369 403T329 422Q281 422 239 365Z" />
<glyph unicode="c" glyph-name="c" horiz-adv-x="470" d="M432 551T501 480L416 379Q376 416 327 416Q259 416 231 353T203 209Q203 160 222 141T279 121Q304 121 326 129T379 157L443 44Q356 -19 255 -19Q144 -19 82 44T19 214Q19 290 51 368T153 498T326 551Q432
551 501 480Z" />
<glyph unicode="d" glyph-name="d" horiz-adv-x="585" d="M602 743L498 0H342L343 72Q279 -19 185 -19Q103 -19 61 37T18 197Q18 277 46 359T132 496T276 551Q312 551 342 539T393 504L428 761L602 743ZM273 423T247 387T210 298T199 197Q199 148 212 130T248
111Q295 111 350 201L377 393Q351 423 315 423Q273 423 247 387Z" />
<glyph unicode="e" glyph-name="e" horiz-adv-x="537" d="M535 224T195 192Q200 110 282 110Q315 110 346 121T416 159L478 55Q374 -19 260 -19Q141 -19 80 42T19 209Q19 289 50 367T152 498T330 551Q427 551 481 509T535 402Q535 224 195 192ZM288 301T323 330T359
394Q359 412 349 424T314 436Q269 436 242 397T202 296Q288 301 323 330Z" />
<glyph unicode="f" glyph-name="f" horiz-adv-x="352" d="M330 632T313 616T290 562L286 533H408L372 410H269L220 67Q208 -19 172 -75T84 -165T-43 -224L-86 -97Q-25 -75 5 -41T45 59L93 410H19L35 533H110L116 573Q127 656 187 708T346 761Q393 761 432 749T501
716L441 611Q406 632 362 632Q330 632 313 616Z" />
<glyph unicode="g" glyph-name="g" horiz-adv-x="576" d="M393 551T452 537T562 492L499 50Q478 -96 410 -160T207 -225Q157 -225 102 -209T3 -164L60 -50Q137 -92 206 -92Q254 -92 284 -69T325 20L332 66Q274 0 195 0Q110 0 65 56T19 209Q19 289 51 367T154 498T335
551Q393 551 452 537ZM284 427T255 394T213 311T200 214Q200 131 254 131Q300 131 345 196L380 419Q351 427 330 427Q284 427 255 394Z" />
<glyph unicode="h" glyph-name="h" horiz-adv-x="563" d="M474 551T505 517T537 423Q537 401 535 389L480 0H305L354 346L356 370Q356 406 331 406Q286 406 228 285L188 0H13L117 743L294 761L250 447Q277 494 322 522T418 551Q474 551 505 517Z" />
<glyph unicode="i" glyph-name="i" horiz-adv-x="277" d="M263 533L189 0H14L88 533H263ZM149 624T125 648T100 710Q100 757 132 788T213 820Q254 820 278 796T303 734Q303 687 271 656T190 624Q149 624 125 648Z" />
<glyph unicode="j" glyph-name="j" horiz-adv-x="275" d="M-109 -99Q-48 -75 -18 -41T21 59L87 533H262L197 67Q185 -19 149 -75T60 -165T-66 -224L-109 -99ZM149 624T125 648T100 710Q100 757 132 788T213 820Q254 820 278 796T303 734Q303 687 271 656T190 624Q149
624 125 648Z" />
<glyph unicode="k" glyph-name="k" horiz-adv-x="573" d="M254 470Q329 551 428 551Q496 551 536 516T576 422Q576 298 437 237L529 0H338L251 256Q332 283 365 315T398 389Q398 429 356 429Q295 429 234 333L189 0H13L117 743L295 761L254 470Z" />
<glyph unicode="l" glyph-name="l" horiz-adv-x="288" d="M204 155Q200 122 224 122Q231 122 247 126L266 2Q243 -8 214 -13T157 -19Q94 -19 60 14T25 110Q25 127 28 146L112 743L289 761L204 155Z" />
<glyph unicode="m" glyph-name="m" horiz-adv-x="826" d="M737 551T768 518T800 424Q800 402 798 390L743 0H568L618 346Q620 366 620 371Q620 406 595 406Q553 406 506 291L466 0H291L340 346Q342 364 342 369Q342 390 336 398T316 406Q296 406 273 374T230 287L189
0H14L88 533H240L239 450Q270 498 312 524T403 551Q450 551 481 527T520 456Q551 500 594 525T681 551Q737 551 768 518Z" />
<glyph unicode="n" glyph-name="n" horiz-adv-x="564" d="M475 551T506 518T538 425Q538 409 535 389L481 0H306L355 346Q357 364 357 368Q357 406 331 406Q308 406 283 375T230 285L189 0H14L88 533H240L239 442Q272 492 320 521T419 551Q475 551 506 518Z" />
<glyph unicode="o" glyph-name="o" horiz-adv-x="573" d="M140 -19T80 41T20 210Q20 295 50 372T148 500T323 551Q430 551 491 491T552 325Q552 241 523 163T425 33T248 -19Q140 -19 80 41ZM325 111T349 183T373 337Q373 381 358 401T310 422Q247 422 223 352T199
200Q199 153 214 132T262 111Q325 111 349 183Z" />
<glyph unicode="p" glyph-name="p" horiz-adv-x="582" d="M88 533H243L244 476Q281 515 321 533T399 551Q481 551 522 498T564 344Q564 258 536 175T445 37T281 -19Q226 -19 187 -4L157 -206L-18 -225L88 533ZM306 110T333 145T372 233T384 338Q384 385 370 403T330
422Q282 422 240 365L206 121Q235 110 264 110Q306 110 333 145Z" />
<glyph unicode="q" glyph-name="q" horiz-adv-x="574" d="M324 41Q309 19 272 0T191 -19Q108 -19 63 38T18 196Q18 284 50 365T153 498T333 551Q390 551 449 537T560 492L462 -206L286 -225L324 41ZM300 111T341 178L377 419Q348 427 326 427Q282 427 254 392T212
304T199 196Q199 148 213 130T252 111Q300 111 341 178Z" />
<glyph unicode="r" glyph-name="r" horiz-adv-x="396" d="M417 549T442 540L392 368Q368 375 346 375Q301 375 274 339T222 235L189 0H14L88 533H240V436Q267 490 306 519T389 549Q417 549 442 540Z" />
<glyph unicode="s" glyph-name="s" horiz-adv-x="477" d="M332 551T383 533T474 482L398 387Q370 406 338 416T274 426Q214 426 214 391Q214 379 221 372T249 356T315 333Q382 311 416 272T450 171Q450 121 426 78T346 8T206 -19Q136 -19 75 6T-22 72L64 163Q127
107 207 107Q239 107 258 118T277 150Q277 164 269 173T241 190T174 216Q106 240 73 277T40 374Q40 423 67 463T147 527T273 551Q332 551 383 533Z" />
<glyph unicode="t" glyph-name="t" horiz-adv-x="383" d="M286 122T319 137L364 22Q331 2 289 -8T210 -19Q133 -19 93 22T52 141Q52 163 55 187L86 410H19L35 533H111L144 649L297 667L279 533H399L363 410H262L231 187Q229 169 229 163Q229 141 238 132T264 122Q286
122 319 137Z" />
<glyph unicode="u" glyph-name="u" horiz-adv-x="558" d="M91 -19T59 16T26 113Q26 132 29 151L83 533H258L209 183Q207 167 207 161Q207 124 238 124Q275 124 322 195L369 533H544L470 0H318L321 73Q247 -19 154 -19Q91 -19 59 16Z" />
<glyph unicode="v" glyph-name="v" horiz-adv-x="509" d="M558 533L326 0H116L27 533H215L240 132L375 533H558Z" />
<glyph unicode="w" glyph-name="w" horiz-adv-x="748" d="M784 533L605 0H402L391 374L278 0H73L39 533H216L203 135L333 533H500L508 135L616 533H784Z" />
<glyph unicode="x" glyph-name="x" horiz-adv-x="511" d="M535 533L364 281L488 0H298L244 186L140 0H-52L150 283L36 533H227L266 369L347 533H535Z" />
<glyph unicode="y" glyph-name="y" horiz-adv-x="514" d="M331 -1Q239 -215 -15 -225L-19 -102Q58 -93 98 -71T168 0H106L27 533H209L232 112L380 533H563L331 -1Z" />
<glyph unicode="z" glyph-name="z" horiz-adv-x="455" d="M474 533L457 408L207 133H424L390 0H-30L-14 125L239 401H46L64 533H474Z" />
<glyph unicode="{" glyph-name="braceleft" horiz-adv-x="314" d="M360 719Q319 719 304 706T282 661L259 491Q250 424 219 394T129 348Q175 339 199 316T223 242Q223 226 220 206L196 37Q194 23 194 18Q194 -3 207 -11T254 -19L240 -141Q129 -141 79 -106T29
-3Q29 18 31 30L54 196Q57 216 57 230Q57 256 45 266T2 277L23 423Q59 423 75 442T98 507L121 673Q130 732 153 768T229 822T375 841L360 719Z" />
<glyph unicode="|" glyph-name="bar" horiz-adv-x="357" d="M336 811L209 -106H45L173 811H336Z" />
<glyph unicode="}" glyph-name="braceright" horiz-adv-x="314" d="M-22 -19Q19 -19 34 -6T55 39L79 209Q88 276 119 306T209 352Q163 361 139 384T115 456Q115 473 118 494L142 663Q143 669 143 681Q143 702 130 710T83 719L97 841Q209 841 258 807T308 703Q308
682 306 670L284 504Q281 485 281 470Q281 444 293 434T336 423L315 277Q278 277 262 258T239 193L216 27Q208 -32 185 -68T108 -122T-38 -141L-22 -19Z" />
<glyph unicode="~" glyph-name="asciitilde" horiz-adv-x="511" d="M299 226T276 235T228 263Q211 275 199 281T173 287Q148 287 133 274T98 231L12 283Q49 344 92 381T194 418Q228 418 250 409T298 382Q315 370 327 364T354 358Q378 358 394 372T428 413L515
360Q478 299 435 263T333 226Q299 226 276 235Z" />
<glyph unicode="&#xa0;" glyph-name="uni00A0" horiz-adv-x="217" />
<glyph unicode="&#xa1;" glyph-name="exclamdown" horiz-adv-x="227" d="M91 320T67 345T43 408Q43 451 74 482T150 514Q187 514 210 490T234 428Q234 384 203 352T128 320Q91 320 67 345ZM180 232L141 -206H-44L41 232H180Z" />
<glyph unicode="&#xa2;" glyph-name="cent" horiz-adv-x="470" d="M443 44Q371 -8 292 -17L272 -163H149L171 -8Q98 14 59 72T19 214Q19 279 43 347T119 469T248 542L270 694H391L370 547Q447 535 501 480L416 379Q376 416 327 416Q259 416 231 353T203 209Q203
160 222 141T279 121Q304 121 326 129T379 157L443 44Z" />
<glyph unicode="&#xa3;" glyph-name="sterling" horiz-adv-x="534" d="M268 207T252 180T195 132H492L454 0H-14L3 127Q42 138 62 153T89 189T101 243L110 307H43L57 396H123L136 489Q149 584 210 638T376 693Q446 693 494 667T574 587L461 513Q447 541 430 551T387
562Q351 562 332 543T307 484L295 396H470L457 307H283L275 251Q268 207 252 180Z" />
<glyph unicode="&#xa4;" glyph-name="currency" horiz-adv-x="560" d="M504 278T472 224L547 150L473 75L395 151Q345 122 280 122Q216 122 167 151L88 75L14 150L90 225Q58 279 58 342Q58 406 90 458L14 535L88 610L166 532Q219 561 280 561Q343 561 396 532L473
610L547 535L472 459Q504 405 504 342Q504 278 472 224ZM325 239T347 266T370 342Q370 391 348 417T281 443Q237 443 214 417T191 342Q191 293 214 266T281 239Q325 239 347 266Z" />
<glyph unicode="&#xa5;" glyph-name="yen" horiz-adv-x="568" d="M637 678L422 354H513L501 265H372L363 200H492L479 111H350L335 0H161L176 111H48L60 200H189L198 265H69L82 354H172L47 678H228L303 401L453 678H637Z" />
<glyph unicode="&#xa6;" glyph-name="brokenbar" horiz-adv-x="357" d="M336 811L285 443H121L173 811H336ZM260 262L209 -106H45L96 262H260Z" />
<glyph unicode="&#xa7;" glyph-name="section" horiz-adv-x="544" d="M438 444T472 412T506 325Q506 275 479 240T403 179Q427 159 438 136T450 83Q450 11 391 -38T207 -87Q150 -87 100 -71T14 -27L81 75Q142 34 203 34Q247 34 264 45T282 77Q282 91 274 100T245
119T179 144Q114 164 81 196T48 282Q48 367 152 422Q106 464 106 523Q106 600 169 646T339 692Q394 692 446 675T539 630L468 533Q412 572 345 572Q273 572 273 528Q273 515 281 506T310 487T374 463Q438 444 472 412ZM294 241T319 229Q352 262 352 291Q352 311
335 326T278 355Q249 365 229 374Q203 345 203 314Q203 275 262 253Q294 241 319 229Z" />
<glyph unicode="&#xa8;" glyph-name="dieresis" horiz-adv-x="471" d="M137 638T116 659T94 713Q94 754 122 781T193 809Q229 809 250 788T272 733Q272 692 244 665T173 638Q137 638 116 659ZM371 638T350 659T328 713Q328 754 356 781T427 809Q463 809 484 788T506
733Q506 692 478 665T407 638Q371 638 350 659Z" />
<glyph unicode="&#xa9;" glyph-name="copyright" horiz-adv-x="810" d="M525 772T604 729T728 608T774 432Q774 334 729 257T604 136T429 92Q333 92 254 135T129 256T83 432Q83 530 129 607T254 728T429 772Q525 772 604 729ZM359 684T303 652T216 563T184 432Q184
358 215 301T303 213T429 181Q499 181 554 212T641 301T673 432Q673 506 642 563T555 652T429 684Q359 684 303 652ZM468 632T504 618T566 578L514 513Q495 527 480 531T445 536Q413 536 394 512T375 433Q375 328 443 328Q485 328 522 358L570 288Q542 262 507
248T432 233Q348 233 299 285T250 433Q250 493 273 538T337 607T431 632Q468 632 504 618Z" />
<glyph unicode="&#xaa;" glyph-name="ordfeminine" horiz-adv-x="477" d="M120 262T86 296T51 382Q51 446 102 487T273 529H305L306 540Q307 545 307 552Q307 569 297 576T262 584Q213 584 142 563L120 663Q162 678 209 686T297 695Q377 695 417 663T457 561Q457
542 454 521L439 410Q437 398 437 393Q437 383 441 377T458 366L414 265Q375 268 350 281T308 320Q259 262 178 262Q120 262 86 296ZM252 373T265 379T286 395L294 447H277Q243 447 227 436T211 400Q211 373 237 373Q252 373 265 379ZM-6 0L13 136H424L406 0H-6Z"
/>
<glyph unicode="&#xab;" glyph-name="guillemotleft" horiz-adv-x="633" d="M258 563L358 490L205 284L300 78L183 5L23 228L38 339L258 563ZM537 563L637 490L484 284L579 78L462 5L302 228L317 339L537 563Z" />
<glyph unicode="&#xac;" glyph-name="logicalnot" horiz-adv-x="528" d="M505 399L463 105H312L334 262H42L61 399H505Z" />
<glyph unicode="&#xad;" glyph-name="uni00AD" horiz-adv-x="399" d="M35 245L53 381H377L359 245H35Z" />
<glyph unicode="&#xae;" glyph-name="registered" horiz-adv-x="636" d="M430 761T493 726T593 627T630 482Q630 401 594 338T494 240T350 204Q270 204 206 239T104 338T67 482Q67 563 104 626T205 725T350 761Q430 761 493 726ZM407 276T451 301T520 373T545
482Q545 544 520 591T451 663T350 689Q293 689 248 664T178 591T153 482Q153 420 178 374T248 302T350 276Q407 276 451 301ZM464 518T449 498T408 467L481 349H395L338 451H317V349H241V633H328Q396 633 430 611T464 544Q464 518 449 498ZM317 513H346Q364 513
375 521T387 547Q387 577 345 577H317V513Z" />
<glyph unicode="&#xaf;" glyph-name="overscore" horiz-adv-x="371" d="M395 652H85L102 774H412L395 652Z" />
<glyph unicode="&#xb0;" glyph-name="degree" horiz-adv-x="509" d="M159 366T115 407T70 517Q70 575 97 619T169 688T269 713Q339 713 384 672T429 561Q429 503 402 459T329 390T229 366Q159 366 115 407ZM272 465T292 490T313 555Q313 583 300 598T262 614Q227
614 207 589T186 524Q186 496 199 481T237 465Q272 465 292 490Z" />
<glyph unicode="&#xb1;" glyph-name="plusminus" horiz-adv-x="528" d="M13 0L32 136H461L442 0H13ZM388 646L366 488H517L498 352H347L325 194H182L205 352H54L73 488H224L245 646H388Z" />
<glyph unicode="&#xb2;" glyph-name="uni00B2" horiz-adv-x="389" d="M326 753T364 720T402 637Q402 596 381 562T323 498T215 418H382L356 320H54L67 411L106 443Q192 512 230 551T269 624Q269 640 259 648T231 657Q211 657 193 647T154 615L84 674Q158 753 257
753Q326 753 364 720Z" />
<glyph unicode="&#xb3;" glyph-name="uni00B3" horiz-adv-x="389" d="M328 753T366 725T404 650Q404 609 375 582T294 542Q338 539 363 517T389 453Q389 409 363 376T293 325T195 307Q90 307 41 378L116 441Q149 403 195 403Q223 403 241 417T259 461Q259 480
246 488T205 497H165L191 584H216Q243 584 259 595T275 629Q275 658 236 658Q191 658 146 623L91 693Q166 753 261 753Q328 753 366 725Z" />
<glyph unicode="&#xb4;" glyph-name="acute" horiz-adv-x="346" d="M325 846L380 714L127 618L88 707L325 846Z" />
<glyph unicode="&#xb5;" glyph-name="uni00B5" horiz-adv-x="571" d="M492 127T492 80Q492 32 498 -1L335 -17Q325 20 325 63Q302 25 277 8T217 -10Q180 -10 159 11Q167 -25 167 -50Q167 -76 161 -119L148 -206L-18 -223L88 533H263L211 164Q210 159 210 151Q210
115 243 115Q262 115 283 128T323 169L373 533H548L499 182Q492 127 492 80Z" />
<glyph unicode="&#xb6;" glyph-name="paragraph" horiz-adv-x="793" d="M745 695L619 -206L465 -226L576 573H491L382 -206L229 -226L296 258Q193 259 139 309T85 444Q85 523 123 579T229 665T388 695H745Z" />
<glyph unicode="&#xb7;" glyph-name="middot" horiz-adv-x="240" d="M78 210T54 235T30 298Q30 341 61 372T137 404Q174 404 197 380T221 318Q221 274 190 242T115 210Q78 210 54 235Z" />
<glyph unicode="&#xb8;" glyph-name="cedilla" horiz-adv-x="331" d="M149 -45Q195 -51 219 -75T243 -139Q243 -169 226 -199T171 -249T74 -269Q7 -269 -40 -235L9 -158Q38 -174 69 -174Q119 -174 119 -144Q119 -128 99 -122T32 -116L65 16H160L149 -45Z" />
<glyph unicode="&#xb9;" glyph-name="uni00B9" horiz-adv-x="389" d="M366 743L307 320H182L224 622L129 566L83 652L250 743H366Z" />
<glyph unicode="&#xba;" glyph-name="ordmasculine" horiz-adv-x="489" d="M392 695T442 649T493 517Q493 443 463 385T376 295T247 262Q157 262 107 307T56 438Q56 513 86 571T173 662T302 695Q392 695 442 649ZM251 582T233 538T214 435Q214 404 224 389T258
374Q298 374 316 419T335 523Q335 554 324 568T291 582Q251 582 233 538ZM-8 0L11 136H440L421 0H-8Z" />
<glyph unicode="&#xbb;" glyph-name="guillemotright" horiz-adv-x="633" d="M177 563L337 339L322 228L101 5L1 78L156 284L59 490L177 563ZM456 563L616 339L601 228L380 5L280 78L435 284L338 490L456 563Z" />
<glyph unicode="&#xbc;" glyph-name="onequarter" horiz-adv-x="947" d="M359 695L300 272H175L217 574L122 518L76 604L243 695H359ZM695 761L789 711L272 -88L178 -38L695 761ZM916 175L902 81H859L848 0H728L739 81H549L561 166L715 433L817 393L694 175H754L791
266H885L872 175H916Z" />
<glyph unicode="&#xbd;" glyph-name="onehalf" horiz-adv-x="947" d="M359 695L300 272H175L217 574L122 518L76 604L243 695H359ZM695 761L789 711L272 -88L178 -38L695 761ZM839 433T877 400T915 317Q915 276 894 242T836 178T728 98H895L869 0H567L580 91L619
123Q705 192 743 231T782 304Q782 320 772 328T744 337Q724 337 706 327T667 295L597 354Q671 433 770 433Q839 433 877 400Z" />
<glyph unicode="&#xbe;" glyph-name="threequarters" horiz-adv-x="947" d="M321 705T359 677T397 602Q397 561 368 534T287 494Q331 491 356 469T382 405Q382 361 356 328T286 277T188 259Q83 259 34 330L109 393Q142 355 188 355Q216 355 234 369T252 413Q252
432 239 440T198 449H158L184 536H209Q236 536 252 547T268 581Q268 610 229 610Q184 610 139 575L84 645Q159 705 254 705Q321 705 359 677ZM695 761L789 711L272 -88L178 -38L695 761ZM916 175L902 81H859L848 0H728L739 81H549L561 166L715 433L817 393L694
175H754L791 266H885L872 175H916Z" />
<glyph unicode="&#xbf;" glyph-name="questiondown" horiz-adv-x="476" d="M314 509T338 484T362 421Q362 378 331 347T255 315Q218 315 195 339T171 401Q171 445 202 477T277 509Q314 509 338 484ZM67 -225T15 -183T-38 -75Q-38 -23 -19 12T27 67T96 109Q142
134 164 154T186 208Q186 222 184 228L339 251Q346 225 346 203Q346 158 329 127T288 78T226 37Q186 14 167 -3T148 -49Q148 -85 199 -85Q256 -85 317 -27L415 -117Q310 -225 165 -225Q67 -225 15 -183Z" />
<glyph unicode="&#xc0;" glyph-name="Agrave" horiz-adv-x="585" d="M374 0L363 142H182L133 0H-57L242 695H462L566 0H374ZM227 274H354L331 575L227 274ZM313 962L517 832L472 746L240 830L313 962Z" />
<glyph unicode="&#xc1;" glyph-name="Aacute" horiz-adv-x="585" d="M374 0L363 142H182L133 0H-57L242 695H462L566 0H374ZM227 274H354L331 575L227 274ZM474 963L529 831L276 744L238 832L474 963Z" />
<glyph unicode="&#xc2;" glyph-name="Acircumflex" horiz-adv-x="585" d="M374 0L363 142H182L133 0H-57L242 695H462L566 0H374ZM227 274H354L331 575L227 274ZM224 753L169 824L329 960H435L556 824L489 753L368 839L224 753Z" />
<glyph unicode="&#xc3;" glyph-name="Atilde" horiz-adv-x="585" d="M374 0L363 142H182L133 0H-57L242 695H462L566 0H374ZM227 274H354L331 575L227 274ZM405 754T390 761T356 780Q342 789 333 793T315 798Q297 798 284 788T255 753L176 798Q204 853 242 888T324
924Q346 924 361 917T396 897Q407 888 415 884T432 880Q448 880 461 890T491 924L570 880Q542 824 504 789T423 754Q405 754 390 761Z" />
<glyph unicode="&#xc4;" glyph-name="Adieresis" horiz-adv-x="585" d="M374 0L363 142H182L133 0H-57L242 695H462L566 0H374ZM227 274H354L331 575L227 274ZM208 764T187 785T165 839Q165 880 193 907T264 935Q300 935 321 914T343 859Q343 818 315 791T244
764Q208 764 187 785ZM442 764T421 785T399 839Q399 880 427 907T498 935Q534 935 555 914T577 859Q577 818 549 791T478 764Q442 764 421 785Z" />
<glyph unicode="&#xc5;" glyph-name="Aring" horiz-adv-x="585" d="M374 0L363 142H182L133 0H-57L242 695H462L566 0H374ZM227 274H354L331 575L227 274ZM455 1003T488 968T522 877Q522 838 502 803T445 747T359 725Q300 725 266 760T232 850Q232 889 252 924T310
981T394 1003Q455 1003 488 968ZM361 914T347 896T332 854Q332 835 341 825T368 815Q393 815 407 832T422 873Q422 893 413 903T386 914Q361 914 347 896Z" />
<glyph unicode="&#xc6;" glyph-name="AE" horiz-adv-x="840" d="M803 564H548L555 415H791L774 287H561L568 131H796L778 0H405L401 142H201L136 0H-61L293 695H839L803 564ZM261 274H398L391 561L261 274Z" />
<glyph unicode="&#xc7;" glyph-name="Ccedilla" horiz-adv-x="568" d="M454 -3T345 -16L340 -45Q386 -51 410 -75T434 -139Q434 -169 417 -199T362 -249T265 -269Q198 -269 151 -235L200 -158Q229 -174 260 -174Q310 -174 310 -144Q310 -128 290 -122T223 -116L248
-15Q147 1 90 74T32 270Q32 376 69 477T188 646T395 713Q530 713 607 627L510 533Q484 555 457 566T397 578Q334 578 295 528T238 408T220 271Q220 196 249 160T332 123Q368 123 399 138T469 181L538 74Q454 -3 345 -16Z" />
<glyph unicode="&#xc8;" glyph-name="Egrave" horiz-adv-x="514" d="M548 695L510 564H277L256 417H460L443 289H239L217 131H466L448 0H16L113 695H548ZM293 962L497 832L452 746L220 830L293 962Z" />
<glyph unicode="&#xc9;" glyph-name="Eacute" horiz-adv-x="514" d="M548 695L510 564H277L256 417H460L443 289H239L217 131H466L448 0H16L113 695H548ZM454 963L509 831L256 744L218 832L454 963Z" />
<glyph unicode="&#xca;" glyph-name="Ecircumflex" horiz-adv-x="514" d="M548 695L510 564H277L256 417H460L443 289H239L217 131H466L448 0H16L113 695H548ZM204 753L149 824L309 960H415L536 824L469 753L348 839L204 753Z" />
<glyph unicode="&#xcb;" glyph-name="Edieresis" horiz-adv-x="514" d="M548 695L510 564H277L256 417H460L443 289H239L217 131H466L448 0H16L113 695H548ZM188 764T167 785T145 839Q145 880 173 907T244 935Q280 935 301 914T323 859Q323 818 295 791T224 764Q188
764 167 785ZM422 764T401 785T379 839Q379 880 407 907T478 935Q514 935 535 914T557 859Q557 818 529 791T458 764Q422 764 401 785Z" />
<glyph unicode="&#xcc;" glyph-name="Igrave" horiz-adv-x="290" d="M295 695L198 0H16L113 695H295ZM165 962L369 832L324 746L92 830L165 962Z" />
<glyph unicode="&#xcd;" glyph-name="Iacute" horiz-adv-x="290" d="M295 695L198 0H16L113 695H295ZM326 963L381 831L128 744L90 832L326 963Z" />
<glyph unicode="&#xce;" glyph-name="Icircumflex" horiz-adv-x="290" d="M295 695L198 0H16L113 695H295ZM76 753L21 824L181 960H287L408 824L341 753L220 839L76 753Z" />
<glyph unicode="&#xcf;" glyph-name="Idieresis" horiz-adv-x="290" d="M295 695L198 0H16L113 695H295ZM60 764T39 785T17 839Q17 880 45 907T116 935Q152 935 173 914T195 859Q195 818 167 791T96 764Q60 764 39 785ZM294 764T273 785T251 839Q251 880 279 907T350
935Q386 935 407 914T429 859Q429 818 401 791T330 764Q294 764 273 785Z" />
<glyph unicode="&#xd0;" glyph-name="Eth" horiz-adv-x="652" d="M469 695T556 637T643 431Q643 240 550 120T244 0H25L67 299H12L27 407H82L122 695H325Q469 695 556 637ZM373 132T414 221T456 430Q456 505 426 533T334 562H286L264 407H389L375 299H249L226
132H271Q373 132 414 221Z" />
<glyph unicode="&#xd1;" glyph-name="Ntilde" horiz-adv-x="647" d="M556 0H326L220 542Q223 491 223 435Q223 329 208 225L176 0H16L113 695H340L449 153Q445 208 445 270Q445 358 458 453L493 695H653L556 0ZM439 754T424 761T390 780Q376 789 367 793T349 798Q331
798 318 788T289 753L210 798Q238 853 276 888T358 924Q380 924 395 917T430 897Q441 888 449 884T466 880Q482 880 495 890T525 924L604 880Q576 824 538 789T457 754Q439 754 424 761Z" />
<glyph unicode="&#xd2;" glyph-name="Ograve" horiz-adv-x="679" d="M531 713T601 639T671 428Q671 322 636 221T517 50T302 -19Q172 -19 102 56T32 267Q32 373 67 474T185 644T400 713Q531 713 601 639ZM323 580T286 525T234 395T219 253Q219 180 243 148T316
115Q380 115 417 170T469 299T483 443Q483 516 460 548T387 580Q323 580 286 525ZM361 962L565 832L520 746L288 830L361 962Z" />
<glyph unicode="&#xd3;" glyph-name="Oacute" horiz-adv-x="679" d="M531 713T601 639T671 428Q671 322 636 221T517 50T302 -19Q172 -19 102 56T32 267Q32 373 67 474T185 644T400 713Q531 713 601 639ZM323 580T286 525T234 395T219 253Q219 180 243 148T316
115Q380 115 417 170T469 299T483 443Q483 516 460 548T387 580Q323 580 286 525ZM522 963L577 831L324 744L286 832L522 963Z" />
<glyph unicode="&#xd4;" glyph-name="Ocircumflex" horiz-adv-x="679" d="M531 713T601 639T671 428Q671 322 636 221T517 50T302 -19Q172 -19 102 56T32 267Q32 373 67 474T185 644T400 713Q531 713 601 639ZM323 580T286 525T234 395T219 253Q219 180 243 148T316
115Q380 115 417 170T469 299T483 443Q483 516 460 548T387 580Q323 580 286 525ZM272 753L217 824L377 960H483L604 824L537 753L416 839L272 753Z" />
<glyph unicode="&#xd5;" glyph-name="Otilde" horiz-adv-x="679" d="M531 713T601 639T671 428Q671 322 636 221T517 50T302 -19Q172 -19 102 56T32 267Q32 373 67 474T185 644T400 713Q531 713 601 639ZM323 580T286 525T234 395T219 253Q219 180 243 148T316
115Q380 115 417 170T469 299T483 443Q483 516 460 548T387 580Q323 580 286 525ZM453 754T438 761T404 780Q390 789 381 793T363 798Q345 798 332 788T303 753L224 798Q252 853 290 888T372 924Q394 924 409 917T444 897Q455 888 463 884T480 880Q496 880 509
890T539 924L618 880Q590 824 552 789T471 754Q453 754 438 761Z" />
<glyph unicode="&#xd6;" glyph-name="Odieresis" horiz-adv-x="679" d="M531 713T601 639T671 428Q671 322 636 221T517 50T302 -19Q172 -19 102 56T32 267Q32 373 67 474T185 644T400 713Q531 713 601 639ZM323 580T286 525T234 395T219 253Q219 180 243 148T316
115Q380 115 417 170T469 299T483 443Q483 516 460 548T387 580Q323 580 286 525ZM256 764T235 785T213 839Q213 880 241 907T312 935Q348 935 369 914T391 859Q391 818 363 791T292 764Q256 764 235 785ZM490 764T469 785T447 839Q447 880 475 907T546 935Q582
935 603 914T625 859Q625 818 597 791T526 764Q490 764 469 785Z" />
<glyph unicode="&#xd7;" glyph-name="multiply" horiz-adv-x="515" d="M403 518L487 421L357 309L456 188L350 95L255 214L124 95L39 192L168 305L70 424L177 518L271 400L403 518Z" />
<glyph unicode="&#xd8;" glyph-name="Oslash" horiz-adv-x="679" d="M619 630T645 570T671 428Q671 322 636 221T517 50T302 -19Q278 -19 257 -16L204 -137L73 -100L132 30Q83 66 58 126T32 267Q32 373 67 474T185 644T400 713Q416 713 444 711L498 830L628 794L569
666Q619 630 645 570ZM323 580T285 524T231 392T215 248Q215 196 225 164L406 579Q400 580 387 580Q323 580 285 524ZM380 115T418 170T471 302T486 449Q486 501 477 529L297 115H316Q380 115 418 170Z" />
<glyph unicode="&#xd9;" glyph-name="Ugrave" horiz-adv-x="636" d="M589 232Q579 160 541 103T436 14T281 -19Q159 -19 98 36T36 188Q36 211 39 235L103 695H285L221 238Q218 216 218 198Q218 156 236 137T294 117Q344 117 371 147T407 241L471 695H653L589 232ZM339
962L543 832L498 746L266 830L339 962Z" />
<glyph unicode="&#xda;" glyph-name="Uacute" horiz-adv-x="636" d="M589 232Q579 160 541 103T436 14T281 -19Q159 -19 98 36T36 188Q36 211 39 235L103 695H285L221 238Q218 216 218 198Q218 156 236 137T294 117Q344 117 371 147T407 241L471 695H653L589 232ZM500
963L555 831L302 744L264 832L500 963Z" />
<glyph unicode="&#xdb;" glyph-name="Ucircumflex" horiz-adv-x="636" d="M589 232Q579 160 541 103T436 14T281 -19Q159 -19 98 36T36 188Q36 211 39 235L103 695H285L221 238Q218 216 218 198Q218 156 236 137T294 117Q344 117 371 147T407 241L471 695H653L589
232ZM250 753L195 824L355 960H461L582 824L515 753L394 839L250 753Z" />
<glyph unicode="&#xdc;" glyph-name="Udieresis" horiz-adv-x="636" d="M589 232Q579 160 541 103T436 14T281 -19Q159 -19 98 36T36 188Q36 211 39 235L103 695H285L221 238Q218 216 218 198Q218 156 236 137T294 117Q344 117 371 147T407 241L471 695H653L589
232ZM234 764T213 785T191 839Q191 880 219 907T290 935Q326 935 347 914T369 859Q369 818 341 791T270 764Q234 764 213 785ZM468 764T447 785T425 839Q425 880 453 907T524 935Q560 935 581 914T603 859Q603 818 575 791T504 764Q468 764 447 785Z" />
<glyph unicode="&#xdd;" glyph-name="Yacute" horiz-adv-x="596" d="M668 695L389 258L352 0H170L206 257L49 695H244L317 400L473 695H668ZM481 963L536 831L283 744L245 832L481 963Z" />
<glyph unicode="&#xde;" glyph-name="Thorn" horiz-adv-x="595" d="M457 589T525 538T594 386Q594 320 565 258T467 153T285 110H213L198 0H16L113 695H295L280 589H331Q457 589 525 538ZM350 242T378 285T406 381Q406 459 313 459H262L232 242H284Q350 242 378 285Z" />
<glyph unicode="&#xdf;" glyph-name="germandbls" horiz-adv-x="597" d="M-109 -97Q-50 -75 -20 -45T19 41L87 533Q102 641 172 701T359 761Q451 761 501 720T552 614Q552 573 534 548T480 493Q455 473 443 458T431 424Q431 406 442 393T481 357Q510 333 528 314T560
263T574 190Q574 139 550 91T474 12T344 -19Q310 -19 278 -11T220 12L285 128Q309 117 330 117Q364 117 378 137T393 179Q393 206 380 225T338 270Q307 297 291 320T275 381Q275 425 290 452T336 510Q361 535 372 553T384 599Q384 617 373 627T343 638Q277 638
263 536L198 67Q186 -19 150 -75T61 -165T-65 -224L-109 -97Z" />
<glyph unicode="&#xe0;" glyph-name="agrave" horiz-adv-x="573" d="M388 551T446 537T557 492L509 162Q507 144 507 139Q507 123 512 114T533 99L483 -15Q435 -12 400 10T351 73Q287 -19 192 -19Q109 -19 64 38T18 196Q18 281 50 362T152 497T330 551Q388 551
446 537ZM260 427T230 356T199 196Q199 148 212 130T250 111Q298 111 339 178L374 419Q347 427 324 427Q260 427 230 356ZM314 846L521 705L472 620L240 714L314 846Z" />
<glyph unicode="&#xe1;" glyph-name="aacute" horiz-adv-x="573" d="M388 551T446 537T557 492L509 162Q507 144 507 139Q507 123 512 114T533 99L483 -15Q435 -12 400 10T351 73Q287 -19 192 -19Q109 -19 64 38T18 196Q18 281 50 362T152 497T330 551Q388 551
446 537ZM260 427T230 356T199 196Q199 148 212 130T250 111Q298 111 339 178L374 419Q347 427 324 427Q260 427 230 356ZM462 846L517 714L264 618L225 707L462 846Z" />
<glyph unicode="&#xe2;" glyph-name="acircumflex" horiz-adv-x="573" d="M388 551T446 537T557 492L509 162Q507 144 507 139Q507 123 512 114T533 99L483 -15Q435 -12 400 10T351 73Q287 -19 192 -19Q109 -19 64 38T18 196Q18 281 50 362T152 497T330 551Q388
551 446 537ZM260 427T230 356T199 196Q199 148 212 130T250 111Q298 111 339 178L374 419Q347 427 324 427Q260 427 230 356ZM225 616L171 687L331 831H437L558 687L488 616L370 710L225 616Z" />
<glyph unicode="&#xe3;" glyph-name="atilde" horiz-adv-x="573" d="M388 551T446 537T557 492L509 162Q507 144 507 139Q507 123 512 114T533 99L483 -15Q435 -12 400 10T351 73Q287 -19 192 -19Q109 -19 64 38T18 196Q18 281 50 362T152 497T330 551Q388 551
446 537ZM260 427T230 356T199 196Q199 148 212 130T250 111Q298 111 339 178L374 419Q347 427 324 427Q260 427 230 356ZM403 628T388 635T354 654Q340 663 331 667T313 672Q295 672 282 662T253 627L174 672Q202 727 240 762T322 798Q344 798 359 791T394 771Q405
762 413 758T430 754Q446 754 459 764T489 798L568 754Q540 698 502 663T421 628Q403 628 388 635Z" />
<glyph unicode="&#xe4;" glyph-name="adieresis" horiz-adv-x="573" d="M388 551T446 537T557 492L509 162Q507 144 507 139Q507 123 512 114T533 99L483 -15Q435 -12 400 10T351 73Q287 -19 192 -19Q109 -19 64 38T18 196Q18 281 50 362T152 497T330 551Q388
551 446 537ZM260 427T230 356T199 196Q199 148 212 130T250 111Q298 111 339 178L374 419Q347 427 324 427Q260 427 230 356ZM209 638T188 659T166 713Q166 754 194 781T265 809Q301 809 322 788T344 733Q344 692 316 665T245 638Q209 638 188 659ZM443 638T422
659T400 713Q400 754 428 781T499 809Q535 809 556 788T578 733Q578 692 550 665T479 638Q443 638 422 659Z" />
<glyph unicode="&#xe5;" glyph-name="aring" horiz-adv-x="573" d="M388 551T446 537T557 492L509 162Q507 144 507 139Q507 123 512 114T533 99L483 -15Q435 -12 400 10T351 73Q287 -19 192 -19Q109 -19 64 38T18 196Q18 281 50 362T152 497T330 551Q388 551
446 537ZM260 427T230 356T199 196Q199 148 212 130T250 111Q298 111 339 178L374 419Q347 427 324 427Q260 427 230 356ZM451 877T484 842T518 751Q518 712 498 677T441 621T355 599Q296 599 262 634T228 724Q228 763 248 798T306 855T390 877Q451 877 484 842ZM357
788T343 770T328 728Q328 709 337 699T364 689Q389 689 403 706T418 747Q418 767 409 777T382 788Q357 788 343 770Z" />
<glyph unicode="&#xe6;" glyph-name="ae" horiz-adv-x="838" d="M350 551T387 534T450 483Q481 514 529 532T630 551Q727 551 781 509T836 402Q836 225 495 193Q498 146 520 128T583 110Q616 110 647 121T717 159L779 55Q675 -19 560 -19Q490 -19 440 3T363 68Q320
21 272 1T168 -19Q93 -19 48 21T3 127Q3 212 67 269T285 326H337Q342 344 354 373Q349 396 325 409T264 422Q199 422 121 396L94 512Q195 551 289 551Q350 551 387 534ZM567 436T540 396T503 296Q562 300 597 316T646 353T660 391Q660 436 611 436Q567 436 540
396ZM287 226Q240 226 214 208T188 153Q188 108 234 108Q258 108 279 121T326 160Q321 185 323 226H287Z" />
<glyph unicode="&#xe7;" glyph-name="ccedilla" horiz-adv-x="470" d="M367 -11T282 -18L277 -45Q323 -51 347 -75T371 -139Q371 -169 354 -199T299 -249T202 -269Q135 -269 88 -235L137 -158Q166 -174 197 -174Q247 -174 247 -144Q247 -128 227 -122T160 -116L186
-12Q106 7 63 66T19 214Q19 290 51 368T153 498T326 551Q432 551 501 480L416 379Q376 416 327 416Q259 416 231 353T203 209Q203 160 222 141T279 121Q304 121 326 129T379 157L443 44Q367 -11 282 -18Z" />
<glyph unicode="&#xe8;" glyph-name="egrave" horiz-adv-x="537" d="M535 224T195 192Q200 110 282 110Q315 110 346 121T416 159L478 55Q374 -19 260 -19Q141 -19 80 42T19 209Q19 289 50 367T152 498T330 551Q427 551 481 509T535 402Q535 224 195 192ZM288
301T323 330T359 394Q359 412 349 424T314 436Q269 436 242 397T202 296Q288 301 323 330ZM285 846L492 705L443 620L211 714L285 846Z" />
<glyph unicode="&#xe9;" glyph-name="eacute" horiz-adv-x="537" d="M535 224T195 192Q200 110 282 110Q315 110 346 121T416 159L478 55Q374 -19 260 -19Q141 -19 80 42T19 209Q19 289 50 367T152 498T330 551Q427 551 481 509T535 402Q535 224 195 192ZM288
301T323 330T359 394Q359 412 349 424T314 436Q269 436 242 397T202 296Q288 301 323 330ZM433 846L488 714L235 618L196 707L433 846Z" />
<glyph unicode="&#xea;" glyph-name="ecircumflex" horiz-adv-x="537" d="M535 224T195 192Q200 110 282 110Q315 110 346 121T416 159L478 55Q374 -19 260 -19Q141 -19 80 42T19 209Q19 289 50 367T152 498T330 551Q427 551 481 509T535 402Q535 224 195 192ZM288
301T323 330T359 394Q359 412 349 424T314 436Q269 436 242 397T202 296Q288 301 323 330ZM196 616L142 687L302 831H408L529 687L459 616L341 710L196 616Z" />
<glyph unicode="&#xeb;" glyph-name="edieresis" horiz-adv-x="537" d="M535 224T195 192Q200 110 282 110Q315 110 346 121T416 159L478 55Q374 -19 260 -19Q141 -19 80 42T19 209Q19 289 50 367T152 498T330 551Q427 551 481 509T535 402Q535 224 195 192ZM288
301T323 330T359 394Q359 412 349 424T314 436Q269 436 242 397T202 296Q288 301 323 330ZM180 638T159 659T137 713Q137 754 165 781T236 809Q272 809 293 788T315 733Q315 692 287 665T216 638Q180 638 159 659ZM414 638T393 659T371 713Q371 754 399 781T470
809Q506 809 527 788T549 733Q549 692 521 665T450 638Q414 638 393 659Z" />
<glyph unicode="&#xec;" glyph-name="igrave" horiz-adv-x="277" d="M263 533L189 0H14L88 533H263ZM144 846L351 705L302 620L70 714L144 846Z" />
<glyph unicode="&#xed;" glyph-name="iacute" horiz-adv-x="277" d="M263 533L189 0H14L88 533H263ZM292 846L347 714L94 618L55 707L292 846Z" />
<glyph unicode="&#xee;" glyph-name="icircumflex" horiz-adv-x="277" d="M263 533L189 0H14L88 533H263ZM55 616L1 687L161 831H267L388 687L318 616L200 710L55 616Z" />
<glyph unicode="&#xef;" glyph-name="idieresis" horiz-adv-x="277" d="M263 533L189 0H14L88 533H263ZM39 638T18 659T-4 713Q-4 754 24 781T95 809Q131 809 152 788T174 733Q174 692 146 665T75 638Q39 638 18 659ZM273 638T252 659T230 713Q230 754 258 781T329
809Q365 809 386 788T408 733Q408 692 380 665T309 638Q273 638 252 659Z" />
<glyph unicode="&#xf0;" glyph-name="eth" horiz-adv-x="574" d="M485 613T518 540T552 374Q552 262 516 173T410 32T246 -19Q180 -19 128 6T46 80T16 196Q16 265 44 330T127 438T259 481Q298 481 327 470T382 438Q373 481 356 513T306 575L249 524L146 575L204
629Q173 638 125 647L173 760Q248 748 309 725L394 805L473 727L411 670Q485 613 518 540ZM298 110T320 136T354 208T374 327Q344 358 296 358Q242 358 219 308T195 190Q195 110 259 110Q298 110 320 136Z" />
<glyph unicode="&#xf1;" glyph-name="ntilde" horiz-adv-x="564" d="M475 551T506 518T538 425Q538 409 535 389L481 0H306L355 346Q357 364 357 368Q357 406 331 406Q308 406 283 375T230 285L189 0H14L88 533H240L239 442Q272 492 320 521T419 551Q475 551 506
518ZM381 628T366 635T332 654Q318 663 309 667T291 672Q273 672 260 662T231 627L152 672Q180 727 218 762T300 798Q322 798 337 791T372 771Q383 762 391 758T408 754Q424 754 437 764T467 798L546 754Q518 698 480 663T399 628Q381 628 366 635Z" />
<glyph unicode="&#xf2;" glyph-name="ograve" horiz-adv-x="573" d="M140 -19T80 41T20 210Q20 295 50 372T148 500T323 551Q430 551 491 491T552 325Q552 241 523 163T425 33T248 -19Q140 -19 80 41ZM325 111T349 183T373 337Q373 381 358 401T310 422Q247 422
223 352T199 200Q199 153 214 132T262 111Q325 111 349 183ZM285 846L492 705L443 620L211 714L285 846Z" />
<glyph unicode="&#xf3;" glyph-name="oacute" horiz-adv-x="573" d="M140 -19T80 41T20 210Q20 295 50 372T148 500T323 551Q430 551 491 491T552 325Q552 241 523 163T425 33T248 -19Q140 -19 80 41ZM325 111T349 183T373 337Q373 381 358 401T310 422Q247 422
223 352T199 200Q199 153 214 132T262 111Q325 111 349 183ZM433 846L488 714L235 618L196 707L433 846Z" />
<glyph unicode="&#xf4;" glyph-name="ocircumflex" horiz-adv-x="573" d="M140 -19T80 41T20 210Q20 295 50 372T148 500T323 551Q430 551 491 491T552 325Q552 241 523 163T425 33T248 -19Q140 -19 80 41ZM325 111T349 183T373 337Q373 381 358 401T310 422Q247
422 223 352T199 200Q199 153 214 132T262 111Q325 111 349 183ZM196 616L142 687L302 831H408L529 687L459 616L341 710L196 616Z" />
<glyph unicode="&#xf5;" glyph-name="otilde" horiz-adv-x="573" d="M140 -19T80 41T20 210Q20 295 50 372T148 500T323 551Q430 551 491 491T552 325Q552 241 523 163T425 33T248 -19Q140 -19 80 41ZM325 111T349 183T373 337Q373 381 358 401T310 422Q247 422
223 352T199 200Q199 153 214 132T262 111Q325 111 349 183ZM374 628T359 635T325 654Q311 663 302 667T284 672Q266 672 253 662T224 627L145 672Q173 727 211 762T293 798Q315 798 330 791T365 771Q376 762 384 758T401 754Q417 754 430 764T460 798L539 754Q511
698 473 663T392 628Q374 628 359 635Z" />
<glyph unicode="&#xf6;" glyph-name="odieresis" horiz-adv-x="573" d="M140 -19T80 41T20 210Q20 295 50 372T148 500T323 551Q430 551 491 491T552 325Q552 241 523 163T425 33T248 -19Q140 -19 80 41ZM325 111T349 183T373 337Q373 381 358 401T310 422Q247
422 223 352T199 200Q199 153 214 132T262 111Q325 111 349 183ZM180 638T159 659T137 713Q137 754 165 781T236 809Q272 809 293 788T315 733Q315 692 287 665T216 638Q180 638 159 659ZM414 638T393 659T371 713Q371 754 399 781T470 809Q506 809 527 788T549
733Q549 692 521 665T450 638Q414 638 393 659Z" />
<glyph unicode="&#xf7;" glyph-name="divide" horiz-adv-x="514" d="M188 -10T164 15T140 78Q140 121 171 152T247 184Q284 184 307 160T331 98Q331 54 300 22T225 -10Q188 -10 164 15ZM256 480T232 505T208 568Q208 611 239 642T315 674Q352 674 375 650T399
588Q399 544 368 512T293 480Q256 480 232 505ZM42 264L61 400H490L471 264H42Z" />
<glyph unicode="&#xf8;" glyph-name="oslash" horiz-adv-x="573" d="M510 476T531 430T552 327Q552 242 523 163T425 33T248 -19Q229 -19 219 -18L167 -137L46 -99L102 26Q63 56 42 103T20 210Q20 295 50 372T148 500T323 551Q334 551 354 549L408 670L530 632L470
506Q510 476 531 430ZM264 422T235 385T193 298T181 204Q181 168 190 147L318 422H313Q264 422 235 385ZM309 111T337 147T378 233T390 325Q390 358 382 380L257 111H261Q309 111 337 147Z" />
<glyph unicode="&#xf9;" glyph-name="ugrave" horiz-adv-x="558" d="M91 -19T59 16T26 113Q26 132 29 151L83 533H258L209 183Q207 167 207 161Q207 124 238 124Q275 124 322 195L369 533H544L470 0H318L321 73Q247 -19 154 -19Q91 -19 59 16ZM283 846L490 705L441
620L209 714L283 846Z" />
<glyph unicode="&#xfa;" glyph-name="uacute" horiz-adv-x="558" d="M91 -19T59 16T26 113Q26 132 29 151L83 533H258L209 183Q207 167 207 161Q207 124 238 124Q275 124 322 195L369 533H544L470 0H318L321 73Q247 -19 154 -19Q91 -19 59 16ZM431 846L486 714L233
618L194 707L431 846Z" />
<glyph unicode="&#xfb;" glyph-name="ucircumflex" horiz-adv-x="558" d="M91 -19T59 16T26 113Q26 132 29 151L83 533H258L209 183Q207 167 207 161Q207 124 238 124Q275 124 322 195L369 533H544L470 0H318L321 73Q247 -19 154 -19Q91 -19 59 16ZM194 616L140
687L300 831H406L527 687L457 616L339 710L194 616Z" />
<glyph unicode="&#xfc;" glyph-name="udieresis" horiz-adv-x="558" d="M91 -19T59 16T26 113Q26 132 29 151L83 533H258L209 183Q207 167 207 161Q207 124 238 124Q275 124 322 195L369 533H544L470 0H318L321 73Q247 -19 154 -19Q91 -19 59 16ZM178 638T157
659T135 713Q135 754 163 781T234 809Q270 809 291 788T313 733Q313 692 285 665T214 638Q178 638 157 659ZM412 638T391 659T369 713Q369 754 397 781T468 809Q504 809 525 788T547 733Q547 692 519 665T448 638Q412 638 391 659Z" />
<glyph unicode="&#xfd;" glyph-name="yacute" horiz-adv-x="514" d="M331 -1Q239 -215 -15 -225L-19 -102Q58 -93 98 -71T168 0H106L27 533H209L232 112L380 533H563L331 -1ZM412 846L467 714L214 618L175 707L412 846Z" />
<glyph unicode="&#xfe;" glyph-name="thorn" horiz-adv-x="582" d="M480 551T521 498T563 344Q563 257 536 175T446 37T278 -19Q252 -19 228 -15T187 -5L158 -206L-19 -225L117 743L294 761L256 491Q284 518 323 534T398 551Q480 551 521 498ZM305 110T332 145T371
233T383 338Q383 385 369 403T328 422Q281 422 239 365L205 121Q236 110 264 110Q305 110 332 145Z" />
<glyph unicode="&#xff;" glyph-name="ydieresis" horiz-adv-x="514" d="M331 -1Q239 -215 -15 -225L-19 -102Q58 -93 98 -71T168 0H106L27 533H209L232 112L380 533H563L331 -1ZM159 638T138 659T116 713Q116 754 144 781T215 809Q251 809 272 788T294 733Q294
692 266 665T195 638Q159 638 138 659ZM393 638T372 659T350 713Q350 754 378 781T449 809Q485 809 506 788T528 733Q528 692 500 665T429 638Q393 638 372 659Z" />
<glyph unicode="&#x2013;" glyph-name="endash" horiz-adv-x="509" d="M14 245L33 381H508L489 245H14Z" />
<glyph unicode="&#x2014;" glyph-name="emdash" horiz-adv-x="782" d="M14 245L33 381H781L761 245H14Z" />
<glyph unicode="&#x2018;" glyph-name="quoteleft" horiz-adv-x="245" d="M120 452T97 473T74 528Q74 552 82 573T110 627L199 771H286L222 610Q253 584 253 546Q253 506 225 479T155 452Q120 452 97 473Z" />
<glyph unicode="&#x2019;" glyph-name="quoteright" horiz-adv-x="245" d="M222 770T245 749T268 694Q268 670 260 649T232 595L143 451H56L120 612Q89 638 89 676Q89 716 117 743T187 770Q222 770 245 749Z" />
<glyph unicode="&#x201a;" glyph-name="quotesinglbase" horiz-adv-x="245" d="M135 153T158 132T181 77Q181 53 173 32T145 -22L56 -166H-31L33 -5Q2 21 2 59Q2 99 30 126T100 153Q135 153 158 132Z" />
<glyph unicode="&#x201c;" glyph-name="quotedblleft" horiz-adv-x="459" d="M120 452T97 473T74 528Q74 552 82 573T110 627L199 771H286L222 610Q253 584 253 546Q253 506 225 479T155 452Q120 452 97 473ZM334 452T311 473T288 528Q288 552 296 573T324 627L413
771H500L436 610Q467 584 467 546Q467 506 439 479T369 452Q334 452 311 473Z" />
<glyph unicode="&#x201d;" glyph-name="quotedblright" horiz-adv-x="459" d="M222 770T245 749T268 694Q268 670 260 649T232 595L143 451H56L120 612Q89 638 89 676Q89 716 117 743T187 770Q222 770 245 749ZM436 770T459 749T482 694Q482 670 474 649T446 595L357
451H270L334 612Q303 638 303 676Q303 716 331 743T401 770Q436 770 459 749Z" />
<glyph unicode="&#x201e;" glyph-name="quotedblbase" horiz-adv-x="459" d="M135 153T158 132T181 77Q181 53 173 32T145 -22L56 -166H-31L33 -5Q2 21 2 59Q2 99 30 126T100 153Q135 153 158 132ZM349 153T372 132T395 77Q395 53 387 32T359 -22L270 -166H183L247
-5Q216 21 216 59Q216 99 244 126T314 153Q349 153 372 132Z" />
<glyph unicode="&#x2022;" glyph-name="bullet" horiz-adv-x="342" d="M256 487T291 452T327 361Q327 316 305 278T245 218T164 196Q107 196 72 231T37 322Q37 367 59 405T119 465T200 487Q256 487 291 452Z" />
<glyph unicode="&#x2039;" glyph-name="guilsinglleft" horiz-adv-x="354" d="M258 563L358 490L205 284L300 78L183 5L23 228L38 339L258 563Z" />
<glyph unicode="&#x203a;" glyph-name="guilsinglright" horiz-adv-x="354" d="M177 563L337 339L322 228L101 5L1 78L156 284L59 490L177 563Z" />
</font>
</defs>
</svg>
