<?xml version="1.0" standalone="no"?>
<!DOCTYPE svg PUBLIC "-//W3C//DTD SVG 1.1//EN" "http://www.w3.org/Graphics/SVG/1.1/DTD/svg11.dtd">
<svg xmlns="http://www.w3.org/2000/svg">
<defs >
<font id="FiraSans" horiz-adv-x="584" ><font-face
    font-family="Fira Sans Black"
    units-per-em="1000"
    panose-1="2 11 10 3 5 0 0 2 0 4"
    ascent="935"
    descent="-265"
    alphabetic="0" />
<glyph unicode=" " glyph-name="space" horiz-adv-x="220" />
<glyph unicode="!" glyph-name="exclam" horiz-adv-x="240" d="M224 696L198 270H42L16 696H224ZM163 186T193 156T223 83Q223 41 193 11T120 -20Q77 -20 47 10T17 83Q17 125 47 155T120 186Q163 186 193 156Z" />
<glyph unicode="&quot;" glyph-name="quotedbl" horiz-adv-x="464" d="M62 406L40 696H210L188 406H62ZM276 406L254 696H424L402 406H276Z" />
<glyph unicode="#" glyph-name="numbersign" horiz-adv-x="580" d="M565 436H500L476 257H528V131H459L442 0H279L296 131H228L211 0H48L65 131H15V257H82L106 436H52V562H122L138 680H301L285 562H353L369 680H532L516 562H565V436ZM313 257L337 436H269L245 257H313Z" />
<glyph unicode="$" glyph-name="dollar" horiz-adv-x="560" d="M545 130T496 75T358 0V-165H223V-7Q88 5 0 91L96 196Q171 132 259 132Q300 132 320 148T341 191Q341 211 332 224T301 249T234 274Q119 310 74 361T28 488Q28 567 81 619T223 685V834H358V684Q460
668 528 600L442 498Q375 551 300 551Q265 551 247 539T229 504Q229 487 239 476T272 455T348 429Q452 395 498 345T545 208Q545 130 496 75Z" />
<glyph unicode="%" glyph-name="percent" horiz-adv-x="879" d="M614 725L732 652L268 -45L151 28L614 725ZM259 696T301 673T369 608T394 510Q394 454 369 412T302 347T207 324Q155 324 113 347T45 412T20 510Q20 566 45 608T112 673T207 696Q259 696 301 673ZM152
582T152 510Q152 438 207 438Q261 438 261 510Q261 582 207 582Q152 582 152 510ZM724 352T766 329T834 264T859 166Q859 110 834 68T767 3T672 -20Q620 -20 577 3T509 68T484 166Q484 221 509 263T577 329T672 352Q724 352 766 329ZM617 238T617 166Q617 94 672
94Q726 94 726 166Q726 238 672 238Q617 238 617 166Z" />
<glyph unicode="&amp;" glyph-name="ampersand" horiz-adv-x="779" d="M392 716T445 695T525 636T553 551Q553 492 521 448T425 358L536 255Q559 305 576 383L736 336Q698 230 643 157L769 49L593 -20L526 44Q433 -20 309 -20Q231 -20 172 4T80 74T47 179Q47 238
78 281T180 372Q124 427 105 462T85 542Q85 587 110 627T189 691T319 716Q392 716 445 695ZM300 593T287 580T274 542Q274 522 282 506T318 461Q344 480 354 500T365 547Q365 568 354 580T322 593Q300 593 287 580ZM256 236T256 191Q256 157 280 137T346 116Q394
116 431 134L292 266Q256 236 256 191Z" />
<glyph unicode="&apos;" glyph-name="quotesingle" horiz-adv-x="250" d="M62 406L40 696H210L188 406H62Z" />
<glyph unicode="(" glyph-name="parenleft" horiz-adv-x="325" d="M330 782Q261 686 232 583T203 350Q203 221 232 118T330 -82L203 -167Q139 -80 99 -12T32 147T5 350Q5 462 31 552T98 711T203 867L330 782Z" />
<glyph unicode=")" glyph-name="parenright" horiz-adv-x="325" d="M186 780T226 712T293 553T320 350Q320 238 294 148T227 -11T122 -167L-5 -82Q64 14 93 117T122 350Q122 479 93 582T-5 782L122 867Q186 780 226 712Z" />
<glyph unicode="*" glyph-name="asterisk" horiz-adv-x="455" d="M455 520L321 502L420 409L287 312L228 435L170 311L37 408L135 502L0 519L51 672L170 608L146 744H310L286 608L404 673L455 520Z" />
<glyph unicode="+" glyph-name="plus" horiz-adv-x="550" d="M355 567V407H510V257H355V97H195V257H40V407H195V567H355Z" />
<glyph unicode="," glyph-name="comma" horiz-adv-x="240" d="M164 186T193 157T223 83Q223 59 215 34T183 -44L121 -184H19L63 -1Q41 13 29 35T17 84Q17 128 46 157T120 186Q164 186 193 157Z" />
<glyph unicode="-" glyph-name="hyphen" horiz-adv-x="410" d="M35 238V388H375V238H35Z" />
<glyph unicode="." glyph-name="period" horiz-adv-x="240" d="M163 186T193 156T223 83Q223 41 193 11T120 -20Q77 -20 47 10T17 83Q17 125 47 155T120 186Q163 186 193 156Z" />
<glyph unicode="/" glyph-name="slash" horiz-adv-x="520" d="M292 822L466 782L229 -117L54 -77L292 822Z" />
<glyph unicode="0" glyph-name="zero" horiz-adv-x="602" d="M433 696T504 604T575 339Q575 167 504 74T301 -20Q169 -20 98 73T27 339Q27 511 98 603T301 696Q433 696 504 604ZM273 553T258 535T236 470T229 339Q229 253 235 208T257 143T301 124Q330 124 345
141T366 205T373 339Q373 428 367 473T345 536T301 553Q273 553 258 535Z" />
<glyph unicode="1" glyph-name="one" horiz-adv-x="482" d="M417 680V0H225V492L86 407L0 536L241 680H417Z" />
<glyph unicode="2" glyph-name="two" horiz-adv-x="530" d="M325 696T382 669T467 597T496 497Q496 446 478 402T406 298T247 148H510L490 0H23V136Q139 246 194 305T272 402T294 475Q294 509 275 528T222 548Q189 548 163 532T108 480L-5 570Q38 628 101 662T244
696Q325 696 382 669Z" />
<glyph unicode="3" glyph-name="three" horiz-adv-x="532" d="M324 696T378 674T461 613T489 524Q489 463 455 421T355 359Q424 351 468 310T512 189Q512 132 481 85T387 9T236 -20Q75 -20 -15 90L88 191Q123 157 153 143T222 128Q261 128 285 148T310 206Q310
249 287 269T213 289H153L175 421H216Q257 421 278 439T299 490Q299 520 279 536T222 553Q153 553 94 496L-3 598Q98 696 247 696Q324 696 378 674Z" />
<glyph unicode="4" glyph-name="four" horiz-adv-x="585" d="M570 280V134H500V0H306L305 134H20V263L207 701L376 641L223 280H307L330 428H500V280H570Z" />
<glyph unicode="5" glyph-name="five" horiz-adv-x="557" d="M475 542H240V433Q286 454 335 454Q391 454 435 428T506 350T532 229Q532 155 497 99T397 11T246 -20Q95 -20 5 93L114 192Q164 126 237 126Q282 126 306 151T330 226Q330 278 310 300T251 323Q218
323 179 299H50V680H496L475 542Z" />
<glyph unicode="6" glyph-name="six" horiz-adv-x="582" d="M427 464T472 436T542 356T567 233Q567 165 536 108T445 15T303 -20Q165 -20 96 67T27 306Q27 423 66 511T177 647T347 696Q396 696 437 684T510 650L439 535Q417 547 398 553T353 560Q305 560 275 524T235
416Q295 464 368 464Q427 464 472 436ZM338 118T353 148T369 232Q369 288 355 310T306 333Q271 333 235 303Q235 232 241 193T263 136T305 118Q338 118 353 148Z" />
<glyph unicode="7" glyph-name="seven" horiz-adv-x="482" d="M472 680V550L225 -20L46 40L264 534H5V680H472Z" />
<glyph unicode="8" glyph-name="eight" horiz-adv-x="599" d="M516 330T547 286T579 185Q579 130 546 83T449 8T295 -20Q209 -20 147 7T53 81T20 182Q20 238 51 279T141 346Q46 408 46 509Q46 562 77 604T166 671T300 696Q416 696 484 649T553 519Q553 477 527
436T448 365Q516 330 547 286ZM271 567T254 552T237 506Q237 480 250 461T293 426L317 416Q344 437 353 459T362 508Q362 535 347 551T301 567Q271 567 254 552ZM342 118T362 138T383 188Q383 221 365 240T304 277L266 291Q241 274 229 249T216 194Q216 160 239
139T302 118Q342 118 362 138Z" />
<glyph unicode="9" glyph-name="nine" horiz-adv-x="582" d="M376 696T438 663T531 570T562 433Q562 296 513 202T363 51T102 -32L63 104Q151 123 205 145T292 199T346 283Q318 255 288 242T213 229Q159 229 114 256T42 335T15 456Q15 526 50 580T148 665T288
696Q376 696 438 663ZM301 363T322 374T359 408Q360 466 354 498T332 545T286 560Q253 560 233 536T213 466Q213 363 279 363Q301 363 322 374Z" />
<glyph unicode=":" glyph-name="colon" horiz-adv-x="240" d="M163 186T193 156T223 83Q223 41 193 11T120 -20Q77 -20 47 10T17 83Q17 125 47 155T120 186Q163 186 193 156ZM163 518T193 488T223 415Q223 373 193 343T120 312Q77 312 47 342T17 415Q17 457 47
487T120 518Q163 518 193 488Z" />
<glyph unicode=";" glyph-name="semicolon" horiz-adv-x="240" d="M164 186T193 157T223 83Q223 59 215 34T183 -44L121 -184H19L63 -1Q41 13 29 35T17 84Q17 128 46 157T120 186Q164 186 193 157ZM163 518T193 488T223 415Q223 373 193 343T120 312Q77 312 47
342T17 415Q17 457 47 487T120 518Q163 518 193 488Z" />
<glyph unicode="&lt;" glyph-name="less" horiz-adv-x="530" d="M445 591L505 459L196 333L505 215L445 75L25 249V416L445 591Z" />
<glyph unicode="=" glyph-name="equal" horiz-adv-x="530" d="M40 367V517H490V367H40ZM40 403V553H490V403H40Z" />
<glyph unicode="&gt;" glyph-name="greater" horiz-adv-x="530" d="M85 591L505 416V249L85 75L25 215L334 333L25 459L85 591Z" />
<glyph unicode="?" glyph-name="question" horiz-adv-x="495" d="M330 716T383 693T463 630T490 542Q490 499 475 469T439 420T384 378Q346 351 329 332T311 283V270H135V289Q135 339 150 373T185 426T235 466Q261 483 272 494T283 523Q283 542 270 552T232 562Q179
562 128 508L5 604Q100 716 254 716Q330 716 383 693ZM267 186T297 156T327 83Q327 41 297 11T224 -20Q181 -20 151 10T121 83Q121 125 151 155T224 186Q267 186 297 156Z" />
<glyph unicode="@" glyph-name="at" horiz-adv-x="1020" d="M571 509T621 496T711 461V222Q711 179 713 157T723 126T745 116Q776 116 795 160T814 319Q814 577 526 577Q372 577 290 488T208 244Q208 85 289 0T528 -86Q576 -86 632 -76T727 -51L772 -183Q726 -202
657 -214T527 -227Q377 -227 266 -170T95 -6T35 243Q35 380 99 488T275 656T527 716Q666 716 770 661T929 515T985 321Q985 227 955 154T872 41T754 1Q699 1 663 31T618 102Q598 56 562 31T475 6Q376 6 331 68T286 234Q286 358 348 433T528 509Q571 509 621 496ZM530
125T546 153V383Q532 389 517 389Q491 389 476 355T460 233Q460 169 469 147T501 125Q530 125 546 153Z" />
<glyph unicode="A" glyph-name="A" horiz-adv-x="601" d="M408 0L381 135H216L190 0H-25L178 696H424L626 0H408ZM245 279H352L298 552L245 279Z" />
<glyph unicode="B" glyph-name="B" horiz-adv-x="622" d="M521 355T564 318T607 206Q607 91 524 46T287 0H43V696H260Q415 696 496 655T578 516Q578 454 542 419T452 369Q521 355 564 318ZM249 555V427H284Q331 427 350 442T369 495Q369 526 349 540T279 555H249ZM341
145T368 161T395 220Q395 260 371 278T297 297H249V145H289Q341 145 368 161Z" />
<glyph unicode="C" glyph-name="C" d="M481 716T576 634L481 522Q451 544 423 556T362 568Q301 568 268 513T234 350Q234 242 268 189T365 135Q399 135 428 149T494 191L584 77Q542 35 483 8T355 -20Q252 -20 177 22T61 148T20 350Q20 464 62 546T179 672T352
716Q481 716 576 634Z" />
<glyph unicode="D" glyph-name="D" horiz-adv-x="656" d="M434 696T535 622T636 351Q636 158 539 79T278 0H43V696H266Q434 696 535 622ZM249 551V145H290Q338 145 367 164T410 227T424 351Q424 429 410 472T366 533T291 551H249Z" />
<glyph unicode="E" glyph-name="E" horiz-adv-x="520" d="M500 696L479 553H249V423H451V284H249V144H495V0H43V696H500Z" />
<glyph unicode="F" glyph-name="F" horiz-adv-x="485" d="M43 0V696H485L464 553H249V401H438V258H249V0H43Z" />
<glyph unicode="G" glyph-name="G" horiz-adv-x="653" d="M446 716T508 691T618 625L518 521Q481 548 451 560T383 572Q310 572 271 517T232 348Q232 263 244 215T281 146T349 126Q386 126 420 143V270H350L331 409H618V60Q563 22 492 1T355 -20Q184 -20 102 73T20
349Q20 464 65 547T190 673T371 716Q446 716 508 691Z" />
<glyph unicode="H" glyph-name="H" horiz-adv-x="657" d="M408 0V281H249V0H43V696H249V439H408V696H614V0H408Z" />
<glyph unicode="I" glyph-name="I" horiz-adv-x="292" d="M249 696V0H43V696H249Z" />
<glyph unicode="J" glyph-name="J" horiz-adv-x="325" d="M284 111Q284 20 249 -39T161 -132T35 -189L-20 -44Q23 -28 44 -6T71 45T78 118V696H284V111Z" />
<glyph unicode="K" glyph-name="K" horiz-adv-x="659" d="M249 696V0H43V696H249ZM661 696L464 387L679 0H445L255 371L449 696H661Z" />
<glyph unicode="L" glyph-name="L" horiz-adv-x="522" d="M249 696V158H512L491 0H43V696H249Z" />
<glyph unicode="M" glyph-name="M" horiz-adv-x="791" d="M776 0H573L568 247Q567 276 567 334Q567 436 575 531L493 70H298L210 531Q223 392 223 293V248L218 0H15L65 696H319L399 245L471 696H726L776 0Z" />
<glyph unicode="N" glyph-name="N" horiz-adv-x="651" d="M608 0H350L198 508L201 486Q212 413 218 353T225 216V0H43V696H296L454 186L451 207Q439 276 433 335T426 473V696H608V0Z" />
<glyph unicode="O" glyph-name="O" horiz-adv-x="690" d="M501 716T585 620T670 349Q670 236 632 153T521 25T345 -20Q189 -20 105 77T20 349Q20 462 58 544T169 671T345 716Q501 716 585 620ZM286 570T260 520T234 349Q234 229 260 178T345 126Q405 126 430 177T456
349Q456 469 430 519T345 570Q286 570 260 520Z" />
<glyph unicode="P" glyph-name="P" horiz-adv-x="611" d="M437 696T516 637T596 462Q596 343 521 280T317 217H249V0H43V696H294Q437 696 516 637ZM386 362T386 462Q386 553 291 553H249V362H297Q386 362 386 462Z" />
<glyph unicode="Q" glyph-name="Q" horiz-adv-x="690" d="M576 48T625 33T720 -15L599 -173Q546 -103 483 -60T330 -16Q233 -16 164 27T57 152T20 349Q20 462 58 544T169 671T345 716Q501 716 585 620T670 349Q670 235 623 163T504 48Q576 48 625 33ZM234 229T260
178T345 126Q405 126 430 177T456 349Q456 469 430 519T345 570Q286 570 260 520T234 349Q234 229 260 178Z" />
<glyph unicode="R" glyph-name="R" horiz-adv-x="624" d="M287 248H249V0H43V696H298Q449 696 523 643T597 475Q597 410 568 367T474 286L644 0H416L287 248ZM249 386H303Q345 386 366 408T387 475Q387 555 293 555H249V386Z" />
<glyph unicode="S" glyph-name="S" horiz-adv-x="588" d="M458 716T556 621L465 514Q395 570 316 570Q279 570 260 557T241 520Q241 502 251 491T286 469T366 441Q476 406 524 353T573 208Q573 141 538 90T436 9T280 -20Q188 -20 118 9T0 85L101 196Q180 128 272
128Q315 128 337 145T359 191Q359 212 350 226T316 252T246 278Q125 316 77 369T29 503Q29 568 64 616T160 690T299 716Q458 716 556 621Z" />
<glyph unicode="T" glyph-name="T" horiz-adv-x="554" d="M559 696L538 542H380V0H174V542H5V696H559Z" />
<glyph unicode="U" glyph-name="U" horiz-adv-x="644" d="M611 236Q611 163 579 105T482 14T322 -20Q179 -20 106 49T33 236V696H239V242Q239 183 258 156T322 128Q366 128 385 155T405 242V696H611V236Z" />
<glyph unicode="V" glyph-name="V" horiz-adv-x="579" d="M604 696L428 0H162L-25 696H192L298 143L393 696H604Z" />
<glyph unicode="W" glyph-name="W" horiz-adv-x="859" d="M859 696L758 0H490L428 500L359 0H97L0 696H206L250 149L324 696H539L601 149L661 696H859Z" />
<glyph unicode="X" glyph-name="X" horiz-adv-x="606" d="M422 375L616 0H394L298 239L208 0H-10L176 369L3 696H224L300 496L385 696H602L422 375Z" />
<glyph unicode="Y" glyph-name="Y" horiz-adv-x="620" d="M635 696L413 257V0H207V256L-15 696H210L313 412L417 696H635Z" />
<glyph unicode="Z" glyph-name="Z" horiz-adv-x="557" d="M533 696V543L256 161H542L522 0H10V151L296 540H38V696H533Z" />
<glyph unicode="[" glyph-name="bracketleft" horiz-adv-x="325" d="M315 827V684H203V15H315V-127H15V827H315Z" />
<glyph unicode="\" glyph-name="backslash" horiz-adv-x="520" d="M228 822L466 -77L291 -117L54 782L228 822Z" />
<glyph unicode="]" glyph-name="bracketright" horiz-adv-x="325" d="M310 827V-127H10V16H122V685H10V827H310Z" />
<glyph unicode="^" glyph-name="asciicircum" horiz-adv-x="570" d="M376 847L565 527H376L284 705L198 527H5L194 847H376Z" />
<glyph unicode="_" glyph-name="underscore" horiz-adv-x="520" d="M5 -188V-38H515V-188H5Z" />
<glyph unicode="`" glyph-name="grave" horiz-adv-x="364" d="M104 856L334 712L281 613L30 712L104 856Z" />
<glyph unicode="a" glyph-name="a" horiz-adv-x="551" d="M504 145T511 132T536 111L496 -16Q442 -12 408 4T352 58Q300 -20 191 -20Q112 -20 64 27T15 150Q15 239 81 286T273 333H311V346Q311 386 295 400T234 414Q210 414 173 407T96 386L53 512Q102 532 159
543T264 554Q390 554 447 506T504 357V173Q504 145 511 132ZM270 119T285 128T311 151V230H290Q248 230 228 215T208 169Q208 146 220 133T252 119Q270 119 285 128Z" />
<glyph unicode="b" glyph-name="b" horiz-adv-x="599" d="M477 554T527 479T577 266Q577 184 552 119T478 17T363 -20Q320 -20 285 -3T225 46L218 0H42V744L240 764V487Q262 517 300 535T380 554Q477 554 527 479ZM337 121T355 154T374 266Q374 352 358 382T310
412Q269 412 240 362V160Q263 121 303 121Q337 121 355 154Z" />
<glyph unicode="c" glyph-name="c" horiz-adv-x="479" d="M409 554T489 483L407 368Q361 405 313 405Q267 405 245 373T223 263Q223 188 245 161T311 133Q334 133 354 140T404 167L489 46Q408 -20 300 -20Q213 -20 149 15T51 115T17 263Q17 347 51 413T149 516T295
554Q409 554 489 483Z" />
<glyph unicode="d" glyph-name="d" horiz-adv-x="601" d="M559 744V0H383L376 55Q319 -20 225 -20Q124 -20 73 57T22 270Q22 352 50 416T128 517T245 554Q314 554 361 512V764L559 744ZM334 122T361 169V383Q347 398 333 405T302 413Q267 413 246 379T225 268Q225
180 242 151T292 122Q334 122 361 169Z" />
<glyph unicode="e" glyph-name="e" horiz-adv-x="557" d="M545 249T541 211H217Q225 157 250 139T324 120Q352 120 381 131T445 167L525 59Q428 -20 305 -20Q163 -20 90 58T17 266Q17 346 47 411T138 515T283 554Q362 554 421 521T512 425T545 274Q545 249 541
211ZM350 330Q349 377 336 403T287 429Q254 429 238 406T216 323H350V330Z" />
<glyph unicode="f" glyph-name="f" horiz-adv-x="369" d="M294 622T281 607T268 555V534H392L370 400H268V0H70V400H-2V534H70V565Q70 652 128 708T296 764Q338 764 381 754T453 727L401 602Q364 622 323 622Q294 622 281 607Z" />
<glyph unicode="g" glyph-name="g" horiz-adv-x="570" d="M570 498Q517 474 418 474Q472 451 497 420T522 334Q522 284 493 244T411 181T285 158Q246 158 228 161Q216 155 216 142Q216 131 226 124T268 117H345Q411 117 460 97T535 41T562 -42Q562 -128 486 -177T266
-227Q161 -227 102 -205T19 -144T-5 -49H172Q172 -70 180 -81T209 -97T272 -102Q326 -102 344 -90T363 -56Q363 -39 350 -28T306 -17H232Q140 -17 96 12T52 90Q52 121 71 150T120 197Q66 226 43 263T20 353Q20 448 88 501T271 554Q347 551 407 573T527 636L570
498ZM250 426T233 408T216 357Q216 321 233 303T277 284Q338 284 338 360Q338 395 323 410T277 426Q250 426 233 408Z" />
<glyph unicode="h" glyph-name="h" horiz-adv-x="572" d="M458 554T496 512T535 394V0H337V358Q337 388 330 399T307 410Q274 410 240 357V0H42V744L240 764V486Q274 522 310 538T391 554Q458 554 496 512Z" />
<glyph unicode="i" glyph-name="i" horiz-adv-x="282" d="M240 534V0H42V534H240ZM189 829T220 799T252 723Q252 678 221 648T141 617Q93 617 62 647T30 723Q30 768 61 798T141 829Q189 829 220 799Z" />
<glyph unicode="j" glyph-name="j" horiz-adv-x="282" d="M240 77Q240 -53 176 -121T-2 -227L-70 -83Q-31 -65 -8 -48T28 -4T42 65V534H240V77ZM189 829T220 799T252 723Q252 678 221 648T141 617Q93 617 62 647T30 723Q30 768 61 798T141 829Q189 829 220 799Z" />
<glyph unicode="k" glyph-name="k" horiz-adv-x="576" d="M240 764V0H42V744L240 764ZM583 534L442 300L591 0H372L244 292L387 534H583Z" />
<glyph unicode="l" glyph-name="l" horiz-adv-x="300" d="M124 -20T81 25T37 154V744L235 764V162Q235 135 259 135Q270 135 280 139L315 -2Q268 -20 205 -20Q124 -20 81 25Z" />
<glyph unicode="m" glyph-name="m" horiz-adv-x="837" d="M725 554T762 512T800 394V0H602V358Q602 387 595 398T575 410Q560 410 546 397T520 357V0H322V358Q322 387 315 398T295 410Q280 410 266 397T240 357V0H42V534H215L229 480Q261 519 298 536T384 554Q426
554 457 534T504 477Q538 517 576 535T664 554Q725 554 762 512Z" />
<glyph unicode="n" glyph-name="n" horiz-adv-x="572" d="M458 554T496 512T535 394V0H337V358Q337 388 330 399T307 410Q274 410 240 357V0H42V534H215L229 479Q266 518 304 536T391 554Q458 554 496 512Z" />
<glyph unicode="o" glyph-name="o" d="M420 554T493 479T567 266Q567 180 534 115T438 15T292 -20Q164 -20 91 55T17 268Q17 354 50 419T146 519T292 554Q420 554 493 479ZM254 412T237 378T220 268Q220 189 237 156T292 122Q330 122 347 156T364 266Q364 345
347 378T292 412Q254 412 237 378Z" />
<glyph unicode="p" glyph-name="p" horiz-adv-x="599" d="M476 554T526 479T577 269Q577 186 551 121T476 18T364 -20Q288 -20 240 33V-207L42 -227V534H218L226 482Q258 520 297 537T377 554Q476 554 526 479ZM374 121T374 266Q374 327 366 359T345 401T310 412Q268
412 240 362V158Q253 138 267 130T299 121Q374 121 374 266Z" />
<glyph unicode="q" glyph-name="q" horiz-adv-x="601" d="M559 534V-227L361 -207V41Q309 -20 225 -20Q124 -20 73 57T22 270Q22 352 50 417T129 518T246 554Q323 554 377 497L386 534H559ZM334 122T361 169V383Q346 398 333 405T303 413Q267 413 246 379T225
268Q225 180 242 151T292 122Q334 122 361 169Z" />
<glyph unicode="r" glyph-name="r" horiz-adv-x="410" d="M392 551T420 542L389 351Q362 359 340 359Q296 359 275 330T240 243V0H42V534H215L231 434Q248 487 285 519T366 551Q392 551 420 542Z" />
<glyph unicode="s" glyph-name="s" horiz-adv-x="493" d="M315 554T369 536T461 485L391 378Q362 396 329 406T264 417Q219 417 219 393Q219 383 225 377T253 361T326 336Q406 311 444 273T483 164Q483 110 451 68T361 3T230 -20Q160 -20 99 2T-5 65L89 169Q119
145 154 131T225 116Q252 116 266 124T281 149Q281 163 275 170T248 185T178 208Q23 254 23 381Q23 430 50 469T130 531T256 554Q315 554 369 536Z" />
<glyph unicode="t" glyph-name="t" horiz-adv-x="401" d="M416 26Q385 4 341 -8T256 -20Q157 -19 110 35T62 197V400H-2V534H62V646L260 669V534H380L360 400H260V199Q260 164 271 150T302 135Q327 135 352 149L416 26Z" />
<glyph unicode="u" glyph-name="u" horiz-adv-x="566" d="M524 0H351L344 58Q289 -20 186 -20Q111 -20 74 25T37 150V534H235V176Q235 147 243 136T268 124Q282 124 297 135T326 168V534H524V0Z" />
<glyph unicode="v" glyph-name="v" horiz-adv-x="526" d="M541 534L382 0H148L-15 534H200L267 143L341 534H541Z" />
<glyph unicode="w" glyph-name="w" horiz-adv-x="768" d="M773 534L668 0H441L383 358L328 0H102L-5 534H195L227 151L297 534H482L538 151L583 534H773Z" />
<glyph unicode="x" glyph-name="x" horiz-adv-x="528" d="M383 286L548 0H327L257 184L193 0H-20L143 280L-6 534H213L265 377L312 534H519L383 286Z" />
<glyph unicode="y" glyph-name="y" horiz-adv-x="534" d="M385 1Q351 -110 269 -167T53 -228L32 -93Q109 -85 146 -65T205 0H137L-15 534H195L262 121L345 534H549L385 1Z" />
<glyph unicode="z" glyph-name="z" horiz-adv-x="472" d="M455 534V397L236 146H462L445 0H5V138L227 390H25V534H455Z" />
<glyph unicode="{" glyph-name="braceleft" horiz-adv-x="325" d="M310 708Q270 708 258 697T246 654V500Q246 429 217 396T125 349Q185 339 216 304T247 200V46Q247 15 259 4T310 -8V-142Q210 -142 156 -122T82 -65T62 32V185Q62 232 50 250T0 269V431Q37 431
49 449T62 515V668Q62 728 82 765T156 822T310 842V708Z" />
<glyph unicode="|" glyph-name="bar" horiz-adv-x="360" d="M273 812V-107H87V812H273Z" />
<glyph unicode="}" glyph-name="braceright" horiz-adv-x="325" d="M115 842T169 823T243 766T263 668V515Q263 468 275 450T325 431V269Q288 269 276 251T263 185V32Q263 -28 243 -65T169 -122T15 -142V-8Q54 -8 66 3T78 46V200Q78 269 109 304T200 349Q138 363
109 396T79 500V654Q79 685 67 696T15 708V842Q115 842 169 823Z" />
<glyph unicode="~" glyph-name="asciitilde" horiz-adv-x="530" d="M313 221T289 230T234 258Q212 271 200 276T173 281Q151 281 139 271T118 249T105 231L5 281Q37 348 78 387T180 426Q217 426 241 417T296 389Q318 376 330 371T357 366Q378 366 390 375T411
396T426 414L525 366Q493 299 452 260T350 221Q313 221 289 230Z" />
<glyph unicode="&#xa0;" glyph-name="uni00A0" horiz-adv-x="220" />
<glyph unicode="&#xa1;" glyph-name="exclamdown" horiz-adv-x="240" d="M163 518T193 488T223 415Q223 373 193 343T120 312Q77 312 47 342T17 415Q17 457 47 487T120 518Q163 518 193 488ZM198 228L224 -215H16L42 228H198Z" />
<glyph unicode="&#xa2;" glyph-name="cent" horiz-adv-x="479" d="M489 46Q429 -3 356 -15V-165H221V-11Q125 11 71 84T17 263Q17 371 72 447T222 546V696H356V549Q431 535 489 483L407 368Q361 405 313 405Q267 405 245 373T223 263Q223 188 245 161T311 133Q334
133 354 140T404 167L489 46Z" />
<glyph unicode="&#xa3;" glyph-name="sterling" horiz-adv-x="551" d="M298 222T285 195T232 146H531L509 0H20V139Q59 149 77 164T99 198T104 250V304H35V399H104V475Q104 574 162 635T332 696Q407 696 460 669T551 587L432 501Q415 529 397 540T355 552Q324
552 311 532T298 473V399H469V304H298V263Q298 222 285 195Z" />
<glyph unicode="&#xa4;" glyph-name="currency" horiz-adv-x="560" d="M507 277T476 226L551 151L472 72L394 148Q343 120 281 120Q219 120 168 148L89 72L10 151L86 226Q55 279 55 342Q55 404 86 457L10 534L89 613L167 536Q218 564 281 564Q345 564 395 535L472
613L551 534L476 458Q507 405 507 342Q507 277 476 226ZM322 247T342 271T363 342Q363 387 343 411T281 435Q241 435 220 411T199 342Q199 297 220 272T281 247Q322 247 342 271Z" />
<glyph unicode="&#xa5;" glyph-name="yen" horiz-adv-x="588" d="M603 680L434 356H523V261H393V201H523V106H393V0H197V106H69V201H197V261H69V356H155L-15 680H193L298 407L400 680H603Z" />
<glyph unicode="&#xa6;" glyph-name="brokenbar" horiz-adv-x="360" d="M273 812V443H87V812H273ZM273 262V-107H87V262H273Z" />
<glyph unicode="&#xa7;" glyph-name="section" horiz-adv-x="560" d="M468 166T481 141T494 76Q494 28 465 -10T382 -69T256 -91Q136 -91 50 -34L111 79Q179 41 241 41Q308 41 308 72Q308 85 301 93T270 112T192 139Q119 161 81 195T42 290Q42 365 124 414Q93
437 81 463T68 527Q68 574 95 612T176 673T300 696Q355 696 409 681T506 639L443 531Q380 564 314 564Q254 564 254 532Q254 519 261 511T292 493T367 469Q441 447 479 413T518 315Q518 235 438 187Q468 166 481 141ZM333 237Q350 263 350 288Q350 308 331 322T258
354L222 366Q210 343 210 319Q210 300 224 287T277 259L333 237Z" />
<glyph unicode="&#xa8;" glyph-name="dieresis" horiz-adv-x="495" d="M163 818T190 791T218 726Q218 687 191 660T123 633Q84 633 56 660T28 726Q28 764 56 791T123 818Q163 818 190 791ZM408 818T435 791T463 726Q463 687 436 660T368 633Q329 633 301 660T273
726Q273 764 301 791T368 818Q408 818 435 791Z" />
<glyph unicode="&#xa9;" glyph-name="copyright" horiz-adv-x="810" d="M504 777T584 733T711 610T758 431Q758 331 712 253T585 130T406 86Q308 86 227 130T99 252T52 431Q52 531 99 610T227 733T406 777Q504 777 584 733ZM336 681T281 650T195 562T163 431Q163
357 194 301T281 213T406 182Q475 182 530 213T616 300T648 431Q648 505 617 561T530 649T406 681Q336 681 281 650ZM446 633T483 618T547 576L491 507Q473 521 459 525T424 530Q395 530 377 507T359 432Q359 333 421 333Q464 333 500 362L551 287Q522 260 486
245T409 230Q322 230 273 282T223 432Q223 523 274 578T408 633Q446 633 483 618Z" />
<glyph unicode="&#xaa;" glyph-name="ordfeminine" horiz-adv-x="500" d="M270 530V533Q270 560 259 568T213 576Q195 576 165 571T104 555L66 663Q105 678 153 687T239 696Q344 696 391 659T439 543V418Q439 398 444 388T463 374L428 264Q387 266 358 278T308
317Q286 287 252 274T178 260Q114 260 75 296T36 390Q36 458 90 494T246 530H270ZM210 381T237 381Q256 381 270 393V442H262Q235 442 223 433T210 405Q210 381 237 381ZM40 150H467V0H40V150Z" />
<glyph unicode="&#xab;" glyph-name="guillemotleft" horiz-adv-x="660" d="M223 569L346 488L221 283L346 78L223 -3L25 222V344L223 569ZM512 569L635 488L510 283L635 78L512 -3L314 222V344L512 569Z" />
<glyph unicode="&#xac;" glyph-name="logicalnot" horiz-adv-x="550" d="M510 407V97H350V257H40V407H510Z" />
<glyph unicode="&#xad;" glyph-name="uni00AD" horiz-adv-x="410" d="M35 238V388H375V238H35Z" />
<glyph unicode="&#xae;" glyph-name="registered" horiz-adv-x="635" d="M401 764T466 728T568 627T605 479Q605 396 568 332T466 232T319 196Q237 196 171 232T68 332T30 479Q30 562 67 627T171 728T319 764Q401 764 466 728ZM406 274T459 329T513 479Q513 541
489 588T420 660T319 686Q262 686 217 661T147 588T122 479Q122 417 147 371T217 299T319 274Q406 274 459 329ZM435 517T421 497T381 465L454 347H363L307 448H287V347H207V633H295Q435 633 435 543Q435 517 421 497ZM287 514H316Q332 514 342 522T353 546Q353
560 343 567T315 574H287V514Z" />
<glyph unicode="&#xaf;" glyph-name="overscore" horiz-adv-x="385" d="M355 648H30V782H355V648Z" />
<glyph unicode="&#xb0;" glyph-name="degree" horiz-adv-x="519" d="M171 362T128 384T57 447T30 541Q30 594 57 633T127 694T217 716Q264 716 307 695T377 634T404 541Q404 488 377 448T307 385T217 362Q171 362 128 384ZM246 473T261 492T276 541Q276 570 261
589T217 608Q188 608 173 589T158 541Q158 512 173 493T217 473Q246 473 261 492Z" />
<glyph unicode="&#xb1;" glyph-name="plusminus" horiz-adv-x="550" d="M50 0V150H500V0H50ZM355 670V510H510V360H355V200H195V360H40V510H195V670H355Z" />
<glyph unicode="&#xb2;" glyph-name="uni00B2" horiz-adv-x="400" d="M249 755T288 737T346 690T365 626Q365 596 353 570T307 510T204 426H374L360 320H45V417Q118 480 154 515T204 572T218 613Q218 631 207 641T177 651Q156 651 139 641T104 610L25 672Q53 710
96 732T194 755Q249 755 288 737Z" />
<glyph unicode="&#xb3;" glyph-name="uni00B3" horiz-adv-x="400" d="M278 755T320 724T363 642Q363 608 340 582T266 543Q318 540 348 515T379 441Q379 404 358 374T295 325T192 306Q83 306 21 378L98 452Q117 431 136 422T181 413Q203 413 217 422T231 451Q231
473 217 483T173 494H133L149 588H177Q225 588 225 620Q225 636 213 644T180 652Q135 652 98 618L28 690Q96 755 200 755Q278 755 320 724Z" />
<glyph unicode="&#xb4;" glyph-name="acute" horiz-adv-x="364" d="M260 856L334 712L83 613L30 712L260 856Z" />
<glyph unicode="&#xb5;" glyph-name="uni00B5" horiz-adv-x="579" d="M371 -20Q363 -3 359 12T349 57Q309 -6 258 -6Q233 -6 213 2T174 32Q202 -10 214 -41T227 -123V-207L42 -225V534H240V173Q240 130 273 130Q287 130 302 141T331 174V534H529V184Q529 79 552
0L371 -20Z" />
<glyph unicode="&#xb6;" glyph-name="paragraph" horiz-adv-x="820" d="M720 696V-206L548 -227V563H470V-206L298 -227V252Q179 253 115 313T50 473Q50 577 121 636T323 696H720Z" />
<glyph unicode="&#xb7;" glyph-name="middot" horiz-adv-x="240" d="M163 409T193 379T223 306Q223 264 193 234T120 203Q77 203 47 233T17 306Q17 348 47 378T120 409Q163 409 193 379Z" />
<glyph unicode="&#xb8;" glyph-name="cedilla" horiz-adv-x="349" d="M209 -43Q319 -57 319 -151Q319 -205 275 -240T155 -275Q118 -275 86 -266T30 -241L73 -155Q106 -173 137 -173Q182 -173 182 -149Q182 -133 160 -127T88 -120L105 16H209V-43Z" />
<glyph unicode="&#xb9;" glyph-name="uni00B9" horiz-adv-x="400" d="M315 744V320H175V614L87 558L24 651L186 744H315Z" />
<glyph unicode="&#xba;" glyph-name="ordmasculine" horiz-adv-x="500" d="M355 696T415 640T476 477Q476 377 416 319T251 260Q146 260 86 316T25 479Q25 579 86 637T250 696Q355 696 415 640ZM225 574T214 552T202 479Q202 426 213 404T251 382Q276 382 287
404T299 477Q299 530 288 552T250 574Q225 574 214 552ZM25 0V150H475V0H25Z" />
<glyph unicode="&#xbb;" glyph-name="guillemotright" horiz-adv-x="661" d="M148 569L346 344V222L148 -3L25 78L150 283L25 488L148 569ZM438 569L636 344V222L438 -3L315 78L440 283L315 488L438 569Z" />
<glyph unicode="&#xbc;" glyph-name="onequarter" horiz-adv-x="991" d="M315 696V272H175V566L87 510L24 603L186 696H315ZM647 764L758 709L344 -90L233 -35L647 764ZM976 179V77H933V0H800V77H605V170L722 435L841 392L750 179H801L831 267H933V179H976Z" />
<glyph unicode="&#xbd;" glyph-name="onehalf" horiz-adv-x="991" d="M315 696V272H175V566L87 510L24 603L186 696H315ZM647 764L758 709L344 -90L233 -35L647 764ZM840 435T879 417T937 370T956 306Q956 276 944 250T898 190T795 106H965L951 0H636V97Q709 160
745 195T795 252T809 293Q809 311 798 321T768 331Q747 331 730 321T695 290L616 352Q644 390 687 412T785 435Q840 435 879 417Z" />
<glyph unicode="&#xbe;" glyph-name="threequarters" horiz-adv-x="991" d="M278 707T320 676T363 594Q363 560 340 534T266 495Q318 492 348 467T379 393Q379 356 358 326T295 277T192 258Q83 258 21 330L98 404Q117 383 136 374T181 365Q203 365 217 374T231
403Q231 425 217 435T173 446H133L149 540H177Q225 540 225 572Q225 588 213 596T180 604Q135 604 98 570L28 642Q96 707 200 707Q278 707 320 676ZM647 764L758 709L344 -90L233 -35L647 764ZM976 179V77H933V0H800V77H605V170L722 435L841 392L750 179H801L831
267H933V179H976Z" />
<glyph unicode="&#xbf;" glyph-name="questiondown" horiz-adv-x="495" d="M228 312T198 342T168 415Q168 457 198 487T271 518Q314 518 344 488T374 415Q374 373 344 343T271 312Q228 312 198 342ZM165 -227T112 -204T32 -141T5 -53Q5 -10 20 20T56 69T111 111Q149
138 166 157T184 206V229H360V200Q360 150 345 116T310 63T260 23Q235 6 224 -5T212 -34Q212 -53 225 -63T263 -73Q316 -73 367 -19L490 -115Q395 -227 241 -227Q165 -227 112 -204Z" />
<glyph unicode="&#xc0;" glyph-name="Agrave" horiz-adv-x="601" d="M408 0L381 135H216L190 0H-25L178 696H424L626 0H408ZM245 279H352L298 552L245 279ZM220 984L453 848L403 749L149 840L220 984Z" />
<glyph unicode="&#xc1;" glyph-name="Aacute" horiz-adv-x="601" d="M408 0L381 135H216L190 0H-25L178 696H424L626 0H408ZM245 279H352L298 552L245 279ZM383 984L453 840L199 749L149 848L383 984Z" />
<glyph unicode="&#xc2;" glyph-name="Acircumflex" horiz-adv-x="601" d="M408 0L381 135H216L190 0H-25L178 696H424L626 0H408ZM245 279H352L298 552L245 279ZM164 752L97 829L242 970H360L505 829L438 752L301 838L164 752Z" />
<glyph unicode="&#xc3;" glyph-name="Atilde" horiz-adv-x="601" d="M408 0L381 135H216L190 0H-25L178 696H424L626 0H408ZM245 279H352L298 552L245 279ZM335 748T319 755T283 775Q271 783 263 787T246 791Q228 791 217 781T193 748L100 793Q121 852 157 890T241
929Q266 929 283 922T320 902Q332 894 340 890T357 886Q374 886 385 896T409 929L502 884Q481 824 444 786T359 748Q335 748 319 755Z" />
<glyph unicode="&#xc4;" glyph-name="Adieresis" horiz-adv-x="601" d="M408 0L381 135H216L190 0H-25L178 696H424L626 0H408ZM245 279H352L298 552L245 279ZM216 944T243 917T271 852Q271 813 244 786T176 759Q137 759 109 786T81 852Q81 890 109 917T176 944Q216
944 243 917ZM461 944T488 917T516 852Q516 813 489 786T421 759Q382 759 354 786T326 852Q326 890 354 917T421 944Q461 944 488 917Z" />
<glyph unicode="&#xc5;" glyph-name="Aring" horiz-adv-x="601" d="M408 0L381 135H216L190 0H-25L178 696H424L626 0H408ZM245 279H352L298 552L245 279ZM348 1012T383 992T436 939T455 866Q455 826 437 793T383 739T301 719Q254 719 219 739T166 792T147 866Q147
906 165 939T219 992T301 1012Q348 1012 383 992ZM283 912T272 901T261 866Q261 843 272 832T301 820Q319 820 330 831T341 866Q341 889 330 900T301 912Q283 912 272 901Z" />
<glyph unicode="&#xc6;" glyph-name="AE" horiz-adv-x="863" d="M610 144H843V0H436L418 135H235L194 0H-30L241 696H808L787 553H540L563 421H799V282H586L610 144ZM279 279H398L362 549L279 279Z" />
<glyph unicode="&#xc7;" glyph-name="Ccedilla" d="M498 -57T498 -151Q498 -205 454 -240T334 -275Q297 -275 265 -266T209 -241L252 -155Q285 -173 316 -173Q361 -173 361 -149Q361 -133 339 -127T267 -120L280 -14Q158 8 89 101T20 350Q20 464 62 546T179 672T352
716Q481 716 576 634L481 522Q451 544 423 556T362 568Q301 568 268 513T234 350Q234 242 268 189T365 135Q399 135 428 149T494 191L584 77Q547 40 497 14T388 -18V-43Q498 -57 498 -151Z" />
<glyph unicode="&#xc8;" glyph-name="Egrave" horiz-adv-x="520" d="M500 696L479 553H249V423H451V284H249V144H495V0H43V696H500ZM191 984L424 848L374 749L120 840L191 984Z" />
<glyph unicode="&#xc9;" glyph-name="Eacute" horiz-adv-x="520" d="M500 696L479 553H249V423H451V284H249V144H495V0H43V696H500ZM354 984L424 840L170 749L120 848L354 984Z" />
<glyph unicode="&#xca;" glyph-name="Ecircumflex" horiz-adv-x="520" d="M500 696L479 553H249V423H451V284H249V144H495V0H43V696H500ZM135 752L68 829L213 970H331L476 829L409 752L272 838L135 752Z" />
<glyph unicode="&#xcb;" glyph-name="Edieresis" horiz-adv-x="520" d="M500 696L479 553H249V423H451V284H249V144H495V0H43V696H500ZM187 944T214 917T242 852Q242 813 215 786T147 759Q108 759 80 786T52 852Q52 890 80 917T147 944Q187 944 214 917ZM432 944T459
917T487 852Q487 813 460 786T392 759Q353 759 325 786T297 852Q297 890 325 917T392 944Q432 944 459 917Z" />
<glyph unicode="&#xcc;" glyph-name="Igrave" horiz-adv-x="292" d="M249 696V0H43V696H249ZM65 984L298 848L248 749L-6 840L65 984Z" />
<glyph unicode="&#xcd;" glyph-name="Iacute" horiz-adv-x="292" d="M249 696V0H43V696H249ZM228 984L298 840L44 749L-6 848L228 984Z" />
<glyph unicode="&#xce;" glyph-name="Icircumflex" horiz-adv-x="292" d="M249 696V0H43V696H249ZM9 752L-58 829L87 970H205L350 829L283 752L146 838L9 752Z" />
<glyph unicode="&#xcf;" glyph-name="Idieresis" horiz-adv-x="292" d="M249 696V0H43V696H249ZM61 944T88 917T116 852Q116 813 89 786T21 759Q-18 759 -46 786T-74 852Q-74 890 -46 917T21 944Q61 944 88 917ZM306 944T333 917T361 852Q361 813 334 786T266
759Q227 759 199 786T171 852Q171 890 199 917T266 944Q306 944 333 917Z" />
<glyph unicode="&#xd0;" glyph-name="Eth" horiz-adv-x="671" d="M449 696T550 622T651 351Q651 158 554 79T293 0H58V295H10V411H58V696H281Q449 696 550 622ZM353 145T382 164T425 227T439 351Q439 429 425 472T381 533T306 551H264V411H385V295H264V145H305Q353
145 382 164Z" />
<glyph unicode="&#xd1;" glyph-name="Ntilde" horiz-adv-x="651" d="M608 0H350L198 508L201 486Q212 413 218 353T225 216V0H43V696H296L454 186L451 207Q439 276 433 335T426 473V696H608V0ZM360 748T344 755T308 775Q296 783 288 787T271 791Q253 791 242 781T218
748L125 793Q146 852 182 890T266 929Q291 929 308 922T345 902Q357 894 365 890T382 886Q399 886 410 896T434 929L527 884Q506 824 469 786T384 748Q360 748 344 755Z" />
<glyph unicode="&#xd2;" glyph-name="Ograve" horiz-adv-x="690" d="M501 716T585 620T670 349Q670 236 632 153T521 25T345 -20Q189 -20 105 77T20 349Q20 462 58 544T169 671T345 716Q501 716 585 620ZM286 570T260 520T234 349Q234 229 260 178T345 126Q405
126 430 177T456 349Q456 469 430 519T345 570Q286 570 260 520ZM264 984L497 848L447 749L193 840L264 984Z" />
<glyph unicode="&#xd3;" glyph-name="Oacute" horiz-adv-x="690" d="M501 716T585 620T670 349Q670 236 632 153T521 25T345 -20Q189 -20 105 77T20 349Q20 462 58 544T169 671T345 716Q501 716 585 620ZM286 570T260 520T234 349Q234 229 260 178T345 126Q405
126 430 177T456 349Q456 469 430 519T345 570Q286 570 260 520ZM427 984L497 840L243 749L193 848L427 984Z" />
<glyph unicode="&#xd4;" glyph-name="Ocircumflex" horiz-adv-x="690" d="M501 716T585 620T670 349Q670 236 632 153T521 25T345 -20Q189 -20 105 77T20 349Q20 462 58 544T169 671T345 716Q501 716 585 620ZM286 570T260 520T234 349Q234 229 260 178T345 126Q405
126 430 177T456 349Q456 469 430 519T345 570Q286 570 260 520ZM208 752L141 829L286 970H404L549 829L482 752L345 838L208 752Z" />
<glyph unicode="&#xd5;" glyph-name="Otilde" horiz-adv-x="690" d="M501 716T585 620T670 349Q670 236 632 153T521 25T345 -20Q189 -20 105 77T20 349Q20 462 58 544T169 671T345 716Q501 716 585 620ZM286 570T260 520T234 349Q234 229 260 178T345 126Q405
126 430 177T456 349Q456 469 430 519T345 570Q286 570 260 520ZM379 748T363 755T327 775Q315 783 307 787T290 791Q272 791 261 781T237 748L144 793Q165 852 201 890T285 929Q310 929 327 922T364 902Q376 894 384 890T401 886Q418 886 429 896T453 929L546
884Q525 824 488 786T403 748Q379 748 363 755Z" />
<glyph unicode="&#xd6;" glyph-name="Odieresis" horiz-adv-x="690" d="M501 716T585 620T670 349Q670 236 632 153T521 25T345 -20Q189 -20 105 77T20 349Q20 462 58 544T169 671T345 716Q501 716 585 620ZM286 570T260 520T234 349Q234 229 260 178T345 126Q405
126 430 177T456 349Q456 469 430 519T345 570Q286 570 260 520ZM260 944T287 917T315 852Q315 813 288 786T220 759Q181 759 153 786T125 852Q125 890 153 917T220 944Q260 944 287 917ZM505 944T532 917T560 852Q560 813 533 786T465 759Q426 759 398 786T370
852Q370 890 398 917T465 944Q505 944 532 917Z" />
<glyph unicode="&#xd7;" glyph-name="multiply" horiz-adv-x="530" d="M378 525L484 419L370 309L484 193L378 87L267 206L152 87L46 193L159 303L46 419L152 525L262 406L378 525Z" />
<glyph unicode="&#xd8;" glyph-name="Oslash" horiz-adv-x="690" d="M599 623T634 542T670 349Q670 236 632 153T521 25T345 -20Q332 -20 306 -18L269 -139L119 -99L159 30Q91 74 56 155T20 349Q20 462 58 544T169 671T345 716Q358 716 384 714L421 833L571 793L531
667Q599 623 634 542ZM286 570T260 520T234 349Q234 242 249 192L363 569Q357 570 345 570Q286 570 260 520ZM405 126T430 177T456 349Q456 455 441 504L328 127Q333 126 345 126Q405 126 430 177Z" />
<glyph unicode="&#xd9;" glyph-name="Ugrave" horiz-adv-x="644" d="M611 236Q611 163 579 105T482 14T322 -20Q179 -20 106 49T33 236V696H239V242Q239 183 258 156T322 128Q366 128 385 155T405 242V696H611V236ZM241 984L474 848L424 749L170 840L241 984Z" />
<glyph unicode="&#xda;" glyph-name="Uacute" horiz-adv-x="644" d="M611 236Q611 163 579 105T482 14T322 -20Q179 -20 106 49T33 236V696H239V242Q239 183 258 156T322 128Q366 128 385 155T405 242V696H611V236ZM404 984L474 840L220 749L170 848L404 984Z" />
<glyph unicode="&#xdb;" glyph-name="Ucircumflex" horiz-adv-x="644" d="M611 236Q611 163 579 105T482 14T322 -20Q179 -20 106 49T33 236V696H239V242Q239 183 258 156T322 128Q366 128 385 155T405 242V696H611V236ZM185 752L118 829L263 970H381L526 829L459
752L322 838L185 752Z" />
<glyph unicode="&#xdc;" glyph-name="Udieresis" horiz-adv-x="644" d="M611 236Q611 163 579 105T482 14T322 -20Q179 -20 106 49T33 236V696H239V242Q239 183 258 156T322 128Q366 128 385 155T405 242V696H611V236ZM237 944T264 917T292 852Q292 813 265 786T197
759Q158 759 130 786T102 852Q102 890 130 917T197 944Q237 944 264 917ZM482 944T509 917T537 852Q537 813 510 786T442 759Q403 759 375 786T347 852Q347 890 375 917T442 944Q482 944 509 917Z" />
<glyph unicode="&#xdd;" glyph-name="Yacute" horiz-adv-x="620" d="M635 696L413 257V0H207V256L-15 696H210L313 412L417 696H635ZM392 984L462 840L208 749L158 848L392 984Z" />
<glyph unicode="&#xde;" glyph-name="Thorn" horiz-adv-x="611" d="M437 593T516 534T596 358Q596 234 521 170T317 106H249V0H43V696H249V593H294Q437 593 516 534ZM341 251T363 277T386 358Q386 450 291 450H249V251H297Q341 251 363 277Z" />
<glyph unicode="&#xdf;" glyph-name="germandbls" horiz-adv-x="614" d="M370 764T420 743T496 687T522 611Q522 575 508 551T466 498Q447 478 438 464T428 434Q428 416 442 402T488 364Q525 338 549 315T591 255T609 168Q609 81 549 31T393 -20Q359 -20 325 -12T264
9L323 142Q344 131 366 131Q404 131 404 172Q404 201 389 220T342 262Q303 291 282 319T261 396Q261 436 271 458T303 506Q320 526 328 541T336 582Q336 603 325 616T294 629Q266 629 253 606T240 537V0H42V530Q42 640 108 702T299 764Q370 764 420 743Z" />
<glyph unicode="&#xe0;" glyph-name="agrave" horiz-adv-x="551" d="M504 145T511 132T536 111L496 -16Q442 -12 408 4T352 58Q300 -20 191 -20Q112 -20 64 27T15 150Q15 239 81 286T273 333H311V346Q311 386 295 400T234 414Q210 414 173 407T96 386L53 512Q102
532 159 543T264 554Q390 554 447 506T504 357V173Q504 145 511 132ZM270 119T285 128T311 151V230H290Q248 230 228 215T208 169Q208 146 220 133T252 119Q270 119 285 128ZM209 856L439 712L386 613L135 712L209 856Z" />
<glyph unicode="&#xe1;" glyph-name="aacute" horiz-adv-x="551" d="M504 145T511 132T536 111L496 -16Q442 -12 408 4T352 58Q300 -20 191 -20Q112 -20 64 27T15 150Q15 239 81 286T273 333H311V346Q311 386 295 400T234 414Q210 414 173 407T96 386L53 512Q102
532 159 543T264 554Q390 554 447 506T504 357V173Q504 145 511 132ZM270 119T285 128T311 151V230H290Q248 230 228 215T208 169Q208 146 220 133T252 119Q270 119 285 128ZM345 856L419 712L168 613L115 712L345 856Z" />
<glyph unicode="&#xe2;" glyph-name="acircumflex" horiz-adv-x="551" d="M504 145T511 132T536 111L496 -16Q442 -12 408 4T352 58Q300 -20 191 -20Q112 -20 64 27T15 150Q15 239 81 286T273 333H311V346Q311 386 295 400T234 414Q210 414 173 407T96 386L53
512Q102 532 159 543T264 554Q390 554 447 506T504 357V173Q504 145 511 132ZM270 119T285 128T311 151V230H290Q248 230 228 215T208 169Q208 146 220 133T252 119Q270 119 285 128ZM140 612L73 689L218 840H336L481 689L414 612L277 708L140 612Z" />
<glyph unicode="&#xe3;" glyph-name="atilde" horiz-adv-x="551" d="M504 145T511 132T536 111L496 -16Q442 -12 408 4T352 58Q300 -20 191 -20Q112 -20 64 27T15 150Q15 239 81 286T273 333H311V346Q311 386 295 400T234 414Q210 414 173 407T96 386L53 512Q102
532 159 543T264 554Q390 554 447 506T504 357V173Q504 145 511 132ZM270 119T285 128T311 151V230H290Q248 230 228 215T208 169Q208 146 220 133T252 119Q270 119 285 128ZM311 622T295 629T259 649Q247 657 239 661T222 665Q204 665 193 655T169 622L76 667Q97
726 133 764T217 803Q242 803 259 796T296 776Q308 768 316 764T333 760Q350 760 361 770T385 803L478 758Q457 698 420 660T335 622Q311 622 295 629Z" />
<glyph unicode="&#xe4;" glyph-name="adieresis" horiz-adv-x="551" d="M504 145T511 132T536 111L496 -16Q442 -12 408 4T352 58Q300 -20 191 -20Q112 -20 64 27T15 150Q15 239 81 286T273 333H311V346Q311 386 295 400T234 414Q210 414 173 407T96 386L53 512Q102
532 159 543T264 554Q390 554 447 506T504 357V173Q504 145 511 132ZM270 119T285 128T311 151V230H290Q248 230 228 215T208 169Q208 146 220 133T252 119Q270 119 285 128ZM194 818T221 791T249 726Q249 687 222 660T154 633Q115 633 87 660T59 726Q59 764 87
791T154 818Q194 818 221 791ZM439 818T466 791T494 726Q494 687 467 660T399 633Q360 633 332 660T304 726Q304 764 332 791T399 818Q439 818 466 791Z" />
<glyph unicode="&#xe5;" glyph-name="aring" horiz-adv-x="551" d="M504 145T511 132T536 111L496 -16Q442 -12 408 4T352 58Q300 -20 191 -20Q112 -20 64 27T15 150Q15 239 81 286T273 333H311V346Q311 386 295 400T234 414Q210 414 173 407T96 386L53 512Q102
532 159 543T264 554Q390 554 447 506T504 357V173Q504 145 511 132ZM270 119T285 128T311 151V230H290Q248 230 228 215T208 169Q208 146 220 133T252 119Q270 119 285 128ZM324 886T359 866T412 813T431 740Q431 700 413 667T359 613T277 593Q230 593 195 613T142
666T123 740Q123 780 141 813T195 866T277 886Q324 886 359 866ZM259 786T248 775T237 740Q237 717 248 706T277 694Q295 694 306 705T317 740Q317 763 306 774T277 786Q259 786 248 775Z" />
<glyph unicode="&#xe6;" glyph-name="ae" horiz-adv-x="859" d="M847 249T843 211H519Q527 157 552 139T626 120Q654 120 683 131T747 167L827 59Q730 -20 607 -20Q533 -20 477 3T384 68Q322 -20 195 -20Q112 -20 64 27T15 150Q15 239 82 286T281 333H319V344Q319
384 303 398T242 412Q218 412 181 405T104 384L61 512Q110 532 167 543T272 554Q382 554 437 493Q503 554 601 554Q672 554 728 521T815 425T847 274Q847 249 843 211ZM652 330Q651 377 638 403T589 429Q556 429 540 406T518 323H652V330ZM284 119T299 131T331
166Q324 196 323 220V225H300Q259 225 240 211T221 165Q221 144 232 132T263 119Q284 119 299 131Z" />
<glyph unicode="&#xe7;" glyph-name="ccedilla" horiz-adv-x="479" d="M420 -10T333 -18V-43Q443 -57 443 -151Q443 -205 399 -240T279 -275Q242 -275 210 -266T154 -241L197 -155Q230 -173 261 -173Q306 -173 306 -149Q306 -133 284 -127T212 -120L225 -12Q127
9 72 82T17 263Q17 347 51 413T149 516T295 554Q409 554 489 483L407 368Q361 405 313 405Q267 405 245 373T223 263Q223 188 245 161T311 133Q334 133 354 140T404 167L489 46Q420 -10 333 -18Z" />
<glyph unicode="&#xe8;" glyph-name="egrave" horiz-adv-x="557" d="M545 249T541 211H217Q225 157 250 139T324 120Q352 120 381 131T445 167L525 59Q428 -20 305 -20Q163 -20 90 58T17 266Q17 346 47 411T138 515T283 554Q362 554 421 521T512 425T545 274Q545
249 541 211ZM350 330Q349 377 336 403T287 429Q254 429 238 406T216 323H350V330ZM217 856L447 712L394 613L143 712L217 856Z" />
<glyph unicode="&#xe9;" glyph-name="eacute" horiz-adv-x="557" d="M545 249T541 211H217Q225 157 250 139T324 120Q352 120 381 131T445 167L525 59Q428 -20 305 -20Q163 -20 90 58T17 266Q17 346 47 411T138 515T283 554Q362 554 421 521T512 425T545 274Q545
249 541 211ZM350 330Q349 377 336 403T287 429Q254 429 238 406T216 323H350V330ZM353 856L427 712L176 613L123 712L353 856Z" />
<glyph unicode="&#xea;" glyph-name="ecircumflex" horiz-adv-x="557" d="M545 249T541 211H217Q225 157 250 139T324 120Q352 120 381 131T445 167L525 59Q428 -20 305 -20Q163 -20 90 58T17 266Q17 346 47 411T138 515T283 554Q362 554 421 521T512 425T545
274Q545 249 541 211ZM350 330Q349 377 336 403T287 429Q254 429 238 406T216 323H350V330ZM148 612L81 689L226 840H344L489 689L422 612L285 708L148 612Z" />
<glyph unicode="&#xeb;" glyph-name="edieresis" horiz-adv-x="557" d="M545 249T541 211H217Q225 157 250 139T324 120Q352 120 381 131T445 167L525 59Q428 -20 305 -20Q163 -20 90 58T17 266Q17 346 47 411T138 515T283 554Q362 554 421 521T512 425T545 274Q545
249 541 211ZM350 330Q349 377 336 403T287 429Q254 429 238 406T216 323H350V330ZM202 818T229 791T257 726Q257 687 230 660T162 633Q123 633 95 660T67 726Q67 764 95 791T162 818Q202 818 229 791ZM447 818T474 791T502 726Q502 687 475 660T407 633Q368 633
340 660T312 726Q312 764 340 791T407 818Q447 818 474 791Z" />
<glyph unicode="&#xec;" glyph-name="igrave" horiz-adv-x="282" d="M240 534V0H42V534H240ZM73 856L303 712L250 613L-1 712L73 856Z" />
<glyph unicode="&#xed;" glyph-name="iacute" horiz-adv-x="282" d="M240 534V0H42V534H240ZM209 856L283 712L32 613L-21 712L209 856Z" />
<glyph unicode="&#xee;" glyph-name="icircumflex" horiz-adv-x="282" d="M240 534V0H42V534H240ZM4 612L-63 689L82 840H200L345 689L278 612L141 708L4 612Z" />
<glyph unicode="&#xef;" glyph-name="idieresis" horiz-adv-x="282" d="M240 534V0H42V534H240ZM58 818T85 791T113 726Q113 687 86 660T18 633Q-21 633 -49 660T-77 726Q-77 764 -49 791T18 818Q58 818 85 791ZM303 818T330 791T358 726Q358 687 331 660T263
633Q224 633 196 660T168 726Q168 764 196 791T263 818Q303 818 330 791Z" />
<glyph unicode="&#xf0;" glyph-name="eth" d="M471 602T516 507T562 284Q562 201 531 132T437 21T286 -20Q209 -20 148 10T52 98T17 233Q17 305 46 362T124 450T229 482Q266 482 295 473T352 447Q338 484 317 512T261 567L216 521L94 576L139 624Q96 634 63 639L101
763Q175 753 244 731L320 811L417 726L366 674Q471 602 516 507ZM330 121T345 151T360 250V326Q329 348 289 348Q218 348 218 235Q218 173 236 147T290 121Q330 121 345 151Z" />
<glyph unicode="&#xf1;" glyph-name="ntilde" horiz-adv-x="572" d="M458 554T496 512T535 394V0H337V358Q337 388 330 399T307 410Q274 410 240 357V0H42V534H215L229 479Q266 518 304 536T391 554Q458 554 496 512ZM325 622T309 629T273 649Q261 657 253 661T236
665Q218 665 207 655T183 622L90 667Q111 726 147 764T231 803Q256 803 273 796T310 776Q322 768 330 764T347 760Q364 760 375 770T399 803L492 758Q471 698 434 660T349 622Q325 622 309 629Z" />
<glyph unicode="&#xf2;" glyph-name="ograve" d="M420 554T493 479T567 266Q567 180 534 115T438 15T292 -20Q164 -20 91 55T17 268Q17 354 50 419T146 519T292 554Q420 554 493 479ZM254 412T237 378T220 268Q220 189 237 156T292 122Q330 122 347 156T364 266Q364
345 347 378T292 412Q254 412 237 378ZM224 856L454 712L401 613L150 712L224 856Z" />
<glyph unicode="&#xf3;" glyph-name="oacute" d="M420 554T493 479T567 266Q567 180 534 115T438 15T292 -20Q164 -20 91 55T17 268Q17 354 50 419T146 519T292 554Q420 554 493 479ZM254 412T237 378T220 268Q220 189 237 156T292 122Q330 122 347 156T364 266Q364
345 347 378T292 412Q254 412 237 378ZM360 856L434 712L183 613L130 712L360 856Z" />
<glyph unicode="&#xf4;" glyph-name="ocircumflex" d="M420 554T493 479T567 266Q567 180 534 115T438 15T292 -20Q164 -20 91 55T17 268Q17 354 50 419T146 519T292 554Q420 554 493 479ZM254 412T237 378T220 268Q220 189 237 156T292 122Q330 122 347 156T364
266Q364 345 347 378T292 412Q254 412 237 378ZM155 612L88 689L233 840H351L496 689L429 612L292 708L155 612Z" />
<glyph unicode="&#xf5;" glyph-name="otilde" d="M420 554T493 479T567 266Q567 180 534 115T438 15T292 -20Q164 -20 91 55T17 268Q17 354 50 419T146 519T292 554Q420 554 493 479ZM254 412T237 378T220 268Q220 189 237 156T292 122Q330 122 347 156T364 266Q364
345 347 378T292 412Q254 412 237 378ZM326 622T310 629T274 649Q262 657 254 661T237 665Q219 665 208 655T184 622L91 667Q112 726 148 764T232 803Q257 803 274 796T311 776Q323 768 331 764T348 760Q365 760 376 770T400 803L493 758Q472 698 435 660T350 622Q326
622 310 629Z" />
<glyph unicode="&#xf6;" glyph-name="odieresis" d="M420 554T493 479T567 266Q567 180 534 115T438 15T292 -20Q164 -20 91 55T17 268Q17 354 50 419T146 519T292 554Q420 554 493 479ZM254 412T237 378T220 268Q220 189 237 156T292 122Q330 122 347 156T364
266Q364 345 347 378T292 412Q254 412 237 378ZM209 818T236 791T264 726Q264 687 237 660T169 633Q130 633 102 660T74 726Q74 764 102 791T169 818Q209 818 236 791ZM454 818T481 791T509 726Q509 687 482 660T414 633Q375 633 347 660T319 726Q319 764 347 791T414
818Q454 818 481 791Z" />
<glyph unicode="&#xf7;" glyph-name="divide" horiz-adv-x="530" d="M308 186T338 156T368 83Q368 41 338 11T265 -20Q222 -20 192 10T162 83Q162 125 192 155T265 186Q308 186 338 156ZM308 684T338 654T368 581Q368 539 338 509T265 478Q222 478 192 508T162
581Q162 623 192 653T265 684Q308 684 338 654ZM40 257V407H490V257H40Z" />
<glyph unicode="&#xf8;" glyph-name="oslash" d="M508 477T537 415T567 266Q567 180 534 115T438 15T292 -20Q277 -20 270 -19L233 -138L93 -97L131 22Q76 58 47 120T17 268Q17 354 50 419T146 519T292 554Q307 554 314 553L353 673L493 632L453 512Q508 477 537
415ZM246 412T223 377T200 268Q200 194 213 162L296 412H292Q246 412 223 377ZM338 122T361 157T384 266Q384 340 371 372L288 122H292Q338 122 361 157Z" />
<glyph unicode="&#xf9;" glyph-name="ugrave" horiz-adv-x="566" d="M524 0H351L344 58Q289 -20 186 -20Q111 -20 74 25T37 150V534H235V176Q235 147 243 136T268 124Q282 124 297 135T326 168V534H524V0ZM213 856L443 712L390 613L139 712L213 856Z" />
<glyph unicode="&#xfa;" glyph-name="uacute" horiz-adv-x="566" d="M524 0H351L344 58Q289 -20 186 -20Q111 -20 74 25T37 150V534H235V176Q235 147 243 136T268 124Q282 124 297 135T326 168V534H524V0ZM349 856L423 712L172 613L119 712L349 856Z" />
<glyph unicode="&#xfb;" glyph-name="ucircumflex" horiz-adv-x="566" d="M524 0H351L344 58Q289 -20 186 -20Q111 -20 74 25T37 150V534H235V176Q235 147 243 136T268 124Q282 124 297 135T326 168V534H524V0ZM144 612L77 689L222 840H340L485 689L418 612L281
708L144 612Z" />
<glyph unicode="&#xfc;" glyph-name="udieresis" horiz-adv-x="566" d="M524 0H351L344 58Q289 -20 186 -20Q111 -20 74 25T37 150V534H235V176Q235 147 243 136T268 124Q282 124 297 135T326 168V534H524V0ZM198 818T225 791T253 726Q253 687 226 660T158 633Q119
633 91 660T63 726Q63 764 91 791T158 818Q198 818 225 791ZM443 818T470 791T498 726Q498 687 471 660T403 633Q364 633 336 660T308 726Q308 764 336 791T403 818Q443 818 470 791Z" />
<glyph unicode="&#xfd;" glyph-name="yacute" horiz-adv-x="534" d="M385 1Q351 -110 269 -167T53 -228L32 -93Q109 -85 146 -65T205 0H137L-15 534H195L262 121L345 534H549L385 1ZM335 856L409 712L158 613L105 712L335 856Z" />
<glyph unicode="&#xfe;" glyph-name="thorn" horiz-adv-x="599" d="M475 554T526 480T577 269Q577 186 551 121T476 18T364 -20Q288 -20 240 33V-207L42 -227V744L240 764V492Q270 525 305 539T373 554Q475 554 526 480ZM374 121T374 266Q374 328 366 359T343
401T306 412Q268 412 240 362V158Q253 138 267 130T299 121Q374 121 374 266Z" />
<glyph unicode="&#xff;" glyph-name="ydieresis" horiz-adv-x="534" d="M385 1Q351 -110 269 -167T53 -228L32 -93Q109 -85 146 -65T205 0H137L-15 534H195L262 121L345 534H549L385 1ZM184 818T211 791T239 726Q239 687 212 660T144 633Q105 633 77 660T49 726Q49
764 77 791T144 818Q184 818 211 791ZM429 818T456 791T484 726Q484 687 457 660T389 633Q350 633 322 660T294 726Q294 764 322 791T389 818Q429 818 456 791Z" />
<glyph unicode="&#x2013;" glyph-name="endash" horiz-adv-x="520" d="M15 238V388H505V238H15Z" />
<glyph unicode="&#x2014;" glyph-name="emdash" horiz-adv-x="800" d="M15 238V388H785V238H15Z" />
<glyph unicode="&#x2018;" glyph-name="quoteleft" horiz-adv-x="252" d="M89 443T62 469T35 535Q35 559 43 584T71 650L132 775H226L184 614Q227 584 227 534Q227 495 199 469T130 443Q89 443 62 469Z" />
<glyph unicode="&#x2019;" glyph-name="quoteright" horiz-adv-x="252" d="M163 774T190 748T217 682Q217 658 209 633T181 567L120 442H26L68 603Q25 633 25 683Q25 722 53 748T122 774Q163 774 190 748Z" />
<glyph unicode="&#x201a;" glyph-name="quotesinglbase" horiz-adv-x="252" d="M163 164T190 138T217 72Q217 48 209 23T181 -43L120 -168H26L68 -7Q25 23 25 73Q25 112 53 138T122 164Q163 164 190 138Z" />
<glyph unicode="&#x201c;" glyph-name="quotedblleft" horiz-adv-x="474" d="M89 443T62 469T35 535Q35 559 43 584T71 650L132 775H226L184 614Q227 584 227 534Q227 495 199 469T130 443Q89 443 62 469ZM311 443T284 469T257 535Q257 559 265 584T293 650L354
775H448L406 614Q449 584 449 534Q449 495 421 469T352 443Q311 443 284 469Z" />
<glyph unicode="&#x201d;" glyph-name="quotedblright" horiz-adv-x="474" d="M163 774T190 748T217 682Q217 658 209 633T181 567L120 442H26L68 603Q25 633 25 683Q25 722 53 748T122 774Q163 774 190 748ZM385 774T412 748T439 682Q439 658 431 633T403 567L342
442H248L290 603Q247 633 247 683Q247 722 275 748T344 774Q385 774 412 748Z" />
<glyph unicode="&#x201e;" glyph-name="quotedblbase" horiz-adv-x="474" d="M163 164T190 138T217 72Q217 48 209 23T181 -43L120 -168H26L68 -7Q25 23 25 73Q25 112 53 138T122 164Q163 164 190 138ZM385 164T412 138T439 72Q439 48 431 23T403 -43L342 -168H248L290
-7Q247 23 247 73Q247 112 275 138T344 164Q385 164 412 138Z" />
<glyph unicode="&#x2022;" glyph-name="bullet" horiz-adv-x="360" d="M223 495T258 475T314 420T334 341Q334 298 314 263T259 208T180 188Q137 188 102 208T46 264T26 342Q26 385 46 420T101 475T180 495Q223 495 258 475Z" />
<glyph unicode="&#x2039;" glyph-name="guilsinglleft" horiz-adv-x="371" d="M223 569L346 488L221 283L346 78L223 -3L25 222V344L223 569Z" />
<glyph unicode="&#x203a;" glyph-name="guilsinglright" horiz-adv-x="371" d="M148 569L346 344V222L148 -3L25 78L150 283L25 488L148 569Z" />
</font>
</defs>
</svg>
