<?xml version="1.0" standalone="no"?>
<!DOCTYPE svg PUBLIC "-//W3C//DTD SVG 1.1//EN" "http://www.w3.org/Graphics/SVG/1.1/DTD/svg11.dtd">
<svg xmlns="http://www.w3.org/2000/svg">
<defs >
<font id="FiraSans" horiz-adv-x="553" ><font-face
    font-family="Fira Sans"
    units-per-em="1000"
    panose-1="2 11 5 3 5 0 0 2 0 4"
    ascent="935"
    descent="-265"
    alphabetic="0" />
<glyph unicode=" " glyph-name="space" horiz-adv-x="259" />
<glyph unicode="!" glyph-name="exclam" horiz-adv-x="235" d="M71 230L126 689H227L152 230H71ZM58 -12T41 6T23 51Q23 83 44 105T97 127Q125 127 142 109T160 64Q160 32 138 10T85 -12Q58 -12 41 6Z" />
<glyph unicode="&quot;" glyph-name="quotedbl" horiz-adv-x="393" d="M95 427L118 689H216L164 427H95ZM275 427L298 689H396L344 427H275Z" />
<glyph unicode="#" glyph-name="numbersign" horiz-adv-x="512" d="M524 447H448L390 232H457L447 163H371L327 0H249L293 163H141L97 0H20L64 163H0L10 232H83L141 447H77L87 517H160L201 669H279L238 517H390L431 669H508L467 517H534L524 447ZM312 232L371
447H219L160 232H312Z" />
<glyph unicode="$" glyph-name="dollar" horiz-adv-x="525" d="M384 361T430 318T477 201Q477 121 423 62T261 -10L241 -155H162L182 -11Q67 -1 -1 77L57 131Q118 64 224 64Q291 64 336 96T382 195Q382 236 355 263T258 314Q171 344 128 386T84 494Q84 575 137
624T279 679L300 824H379L358 676Q445 662 511 600L456 546Q390 604 303 604Q246 604 212 579T177 500Q177 460 204 435T303 387Q384 361 430 318Z" />
<glyph unicode="%" glyph-name="percent" horiz-adv-x="820" d="M670 711L114 11L173 -31L729 669L670 711ZM158 341T119 380T79 484Q79 529 98 574T158 649T260 679Q324 679 363 640T403 539Q403 494 385 449T325 372T221 341Q158 341 119 380ZM278 403T300 447T323
539Q323 617 260 617Q204 617 181 574T158 484Q158 403 222 403Q278 403 300 447ZM516 -12T477 27T437 131Q437 176 456 221T516 296T618 326Q682 326 721 287T761 186Q761 141 743 96T683 19T579 -12Q516 -12 477 27ZM636 50T658 94T681 186Q681 264 618 264Q562
264 539 221T516 131Q516 50 580 50Q636 50 658 94Z" />
<glyph unicode="&amp;" glyph-name="ampersand" horiz-adv-x="723" d="M425 701T473 661T522 557Q522 512 500 479T443 421T353 367L505 200Q556 280 584 355L666 325Q617 223 557 144L652 40L582 -12L499 82Q450 35 395 12T273 -12Q213 -12 168 11T100 73T76
162Q76 227 109 277T232 380Q195 422 176 458T157 534Q157 580 179 618T245 678T347 701Q425 701 473 661ZM299 633T273 606T246 534Q246 503 260 475T303 417Q369 454 401 484T433 557Q433 592 410 612T347 633Q299 633 273 606ZM211 287T190 249T169 164Q169
116 198 89T281 61Q328 61 369 80T450 136L278 326Q211 287 190 249Z" />
<glyph unicode="&apos;" glyph-name="quotesingle" horiz-adv-x="213" d="M95 427L118 689H216L164 427H95Z" />
<glyph unicode="(" glyph-name="parenleft" horiz-adv-x="318" d="M357 803Q240 659 188 528T135 229Q135 129 157 55T227 -109L167 -143Q124 -69 100 -19T59 97T42 240Q42 366 71 465T156 651T303 847L357 803Z" />
<glyph unicode=")" glyph-name="parenright" horiz-adv-x="318" d="M218 769T242 719T283 603T300 460Q300 334 271 235T186 49T39 -147L-15 -103Q102 41 155 173T208 473Q208 572 185 646T115 809L175 843Q218 769 242 719Z" />
<glyph unicode="*" glyph-name="asterisk" horiz-adv-x="433" d="M456 561L299 527L386 412L309 359L249 492L153 359L88 411L207 528L60 561L96 641L231 581L237 739H330L292 582L438 644L456 561Z" />
<glyph unicode="+" glyph-name="plus" horiz-adv-x="493" d="M324 519L303 369H447L436 293H292L271 144H187L208 293H65L76 369H219L240 519H324Z" />
<glyph unicode="," glyph-name="comma" horiz-adv-x="241" d="M125 127T143 109T161 64Q161 46 155 29T135 -15L47 -166H-20L45 2Q24 20 24 51Q24 82 45 104T98 127Q125 127 143 109Z" />
<glyph unicode="-" glyph-name="hyphen" horiz-adv-x="397" d="M59 274L70 352H351L340 274H59Z" />
<glyph unicode="." glyph-name="period" horiz-adv-x="240" d="M58 -12T41 6T23 51Q23 83 44 105T97 127Q125 127 142 109T160 64Q160 32 138 10T85 -12Q58 -12 41 6Z" />
<glyph unicode="/" glyph-name="slash" horiz-adv-x="514" d="M408 809L485 789L130 -104L53 -83L408 809Z" />
<glyph unicode="0" glyph-name="zero" horiz-adv-x="552" d="M234 679T172 609T83 436T56 229Q56 112 102 50T238 -12Q337 -12 399 58T488 232T515 438Q515 555 469 617T333 679Q234 679 172 609ZM376 606T399 570T423 455Q423 364 404 274T345 122T242 61Q196
61 173 97T149 212Q149 303 168 393T227 545T330 606Q376 606 399 570Z" />
<glyph unicode="1" glyph-name="one" horiz-adv-x="427" d="M376 669L282 0H190L270 562L103 467L72 541L295 669H376Z" />
<glyph unicode="2" glyph-name="two" horiz-adv-x="489" d="M363 679T412 633T462 511Q462 456 434 403T333 274T117 75L414 77L392 0H1L11 75Q173 224 244 297T341 415T367 508Q367 554 342 578T272 603Q230 603 196 585T124 528L66 581Q114 631 166 655T279
679Q363 679 412 633Z" />
<glyph unicode="3" glyph-name="three" horiz-adv-x="493" d="M360 679T407 634T454 521Q454 461 416 417T302 354Q358 349 394 313T430 216Q430 162 402 110T316 23T178 -12Q117 -12 69 11T-11 80L49 130Q76 94 108 79T182 63Q251 63 294 109T337 227Q337 275
308 294T221 314H169L190 385H222Q288 385 325 422T362 517Q362 559 338 582T269 605Q229 605 195 590T122 543L77 601Q171 679 276 679Q360 679 407 634Z" />
<glyph unicode="4" glyph-name="four" horiz-adv-x="526" d="M493 238L483 165H397L374 0H285L308 165H25L34 231L292 679L369 647L135 238H319L353 418H433L408 238H493Z" />
<glyph unicode="5" glyph-name="five" horiz-adv-x="495" d="M463 597H204L176 401Q226 426 282 426Q359 426 402 379T446 245Q446 187 419 128T334 28T188 -12Q125 -12 80 10T0 75L60 126Q85 93 116 78T190 63Q247 63 283 92T336 163T353 247Q353 355 254 355Q226
355 204 350T152 332H80L127 669H485L463 597Z" />
<glyph unicode="6" glyph-name="six" horiz-adv-x="526" d="M394 440T439 394T484 262Q484 201 458 138T377 31T242 -12Q145 -12 100 49T54 221Q54 338 89 443T194 613T358 679Q434 679 491 637L450 577Q409 606 355 606Q283 606 230 538T156 354Q231 440 325
440Q394 440 439 394ZM298 61T331 94T379 173T393 263Q393 367 307 367Q262 367 221 341T146 271Q144 225 144 210Q144 131 168 96T245 61Q298 61 331 94Z" />
<glyph unicode="7" glyph-name="seven" horiz-adv-x="438" d="M466 669L457 600L126 -10L43 18L362 594H70L81 669H466Z" />
<glyph unicode="8" glyph-name="eight" horiz-adv-x="545" d="M490 304T490 202Q490 141 457 92T365 16T236 -12Q142 -12 87 36T31 162Q31 223 66 271T187 354Q105 401 105 493Q105 547 133 589T211 655T322 679Q372 679 415 662T484 609T510 525Q510 467 478
428T375 357Q490 304 490 202ZM254 610T224 576T193 494Q193 451 218 428T299 386L313 382Q376 415 398 449T421 524Q421 565 396 587T319 610Q254 610 224 576ZM310 61T353 101T397 206Q397 245 369 269T271 320L249 327Q125 273 125 163Q125 115 155 88T240 61Q310
61 353 101Z" />
<glyph unicode="9" glyph-name="nine" horiz-adv-x="518" d="M398 679T447 622T496 466Q496 356 464 264T340 95T80 -23L65 48Q203 86 285 153T391 329Q363 291 322 267T231 243Q185 243 148 265T90 329T69 424Q69 487 95 545T174 641T304 679Q398 679 447 622ZM335
315T401 408Q405 439 405 468Q405 541 380 573T302 606Q226 606 193 549T159 420Q159 369 183 342T249 315Q335 315 401 408Z" />
<glyph unicode=":" glyph-name="colon" horiz-adv-x="240" d="M58 -12T41 6T23 51Q23 83 44 105T97 127Q125 127 142 109T160 64Q160 32 138 10T85 -12Q58 -12 41 6ZM110 356T93 374T75 419Q75 451 96 473T149 495Q177 495 194 477T212 432Q212 400 190 378T137
356Q110 356 93 374Z" />
<glyph unicode=";" glyph-name="semicolon" horiz-adv-x="244" d="M125 127T143 109T161 64Q161 46 155 29T135 -15L47 -166H-20L45 2Q24 20 24 51Q24 82 45 104T98 127Q125 127 143 109ZM114 356T97 374T79 419Q79 451 100 473T153 495Q181 495 198 477T216 432Q216
400 194 378T141 356Q114 356 97 374Z" />
<glyph unicode="&lt;" glyph-name="less" horiz-adv-x="496" d="M451 551L479 472L131 331L435 189L392 115L52 286L65 380L451 551Z" />
<glyph unicode="=" glyph-name="equal" horiz-adv-x="495" d="M79 389L90 466H462L451 389H79ZM308 452L319 529H691L680 452H308Z" />
<glyph unicode="&gt;" glyph-name="greater" horiz-adv-x="494" d="M121 551L461 380L448 286L62 115L36 191L383 338L79 475L121 551Z" />
<glyph unicode="?" glyph-name="question" horiz-adv-x="453" d="M375 701T419 661T464 560Q464 510 445 477T399 426T327 383Q290 364 269 350T234 314T219 262Q219 245 222 233L140 219Q136 230 133 244T130 269Q130 313 148 343T192 392T260 433Q297 453 318
467T354 504T369 558Q369 591 347 608T284 625Q245 625 207 607T133 551L76 604Q170 701 292 701Q375 701 419 661ZM148 -12T131 6T113 51Q113 83 134 105T187 127Q215 127 232 109T250 64Q250 32 228 10T175 -12Q148 -12 131 6Z" />
<glyph unicode="@" glyph-name="at" horiz-adv-x="1014" d="M691 701T777 656T908 531T952 351Q952 277 929 199T852 65T716 9Q661 9 633 39T600 110Q545 11 450 11Q382 11 341 58T299 186Q299 260 324 330T407 446T551 492Q632 492 704 450L665 168Q663 148 663
139Q663 111 674 96T715 80Q767 80 800 124T847 232T862 357Q862 485 786 555T568 625Q422 625 329 557T195 387T154 183Q154 92 192 20T302 -95T473 -137Q568 -137 669 -102L688 -175Q631 -194 581 -203T469 -213Q350 -213 258 -162T114 -21T62 185Q62 303 114
422T281 621T570 701Q691 701 777 656ZM510 78T540 109T584 173L619 413Q588 426 553 426Q463 426 425 353T387 181Q387 78 463 78Q510 78 540 109Z" />
<glyph unicode="A" glyph-name="A" horiz-adv-x="567" d="M427 0L400 173H141L65 0H-32L284 689H403L524 0H427ZM174 250H388L332 610L174 250Z" />
<glyph unicode="B" glyph-name="B" horiz-adv-x="602" d="M473 353T511 320T550 220Q550 120 481 60T252 0H62L159 689H349Q447 689 506 651T565 535Q565 466 521 422T411 364Q473 353 511 320ZM242 614L212 397H313Q380 397 424 431T469 532Q469 578 438 596T352
614H242ZM365 76T408 114T452 222Q452 324 316 324H202L167 76H256Q365 76 408 114Z" />
<glyph unicode="C" glyph-name="C" horiz-adv-x="555" d="M452 701T497 683T579 630L525 577Q494 601 464 612T398 623Q314 623 261 568T184 429T160 260Q160 161 201 115T312 68Q357 68 392 83T467 127L509 63Q420 -12 306 -12Q193 -12 127 61T61 268Q61 368
96 468T207 634T394 701Q452 701 497 683Z" />
<glyph unicode="D" glyph-name="D" horiz-adv-x="639" d="M437 689T519 633T601 428Q601 311 563 214T442 59T228 0H62L159 689H300Q437 689 519 633ZM242 613L167 75H242Q336 75 395 127T479 259T505 430Q505 506 479 546T412 599T314 613H242Z" />
<glyph unicode="E" glyph-name="E" horiz-adv-x="529" d="M528 689L507 613H242L210 388H440L430 312H200L167 76H450L439 0H62L159 689H528Z" />
<glyph unicode="F" glyph-name="F" horiz-adv-x="485" d="M521 689L500 613H242L209 378H432L422 303H199L156 0H62L159 689H521Z" />
<glyph unicode="G" glyph-name="G" horiz-adv-x="625" d="M469 701T517 681T607 622L548 571Q513 599 481 611T406 623Q322 623 267 567T185 424T159 247Q159 153 198 110T315 66Q387 66 446 100L476 305H356V382H580L535 54Q483 21 427 5T302 -12Q189 -12 125
57T60 259Q60 365 97 466T213 634T405 701Q469 701 517 681Z" />
<glyph unicode="H" glyph-name="H" horiz-adv-x="674" d="M156 0H62L159 689H253L212 401H500L541 689H635L538 0H444L489 323H201L156 0Z" />
<glyph unicode="I" glyph-name="I" horiz-adv-x="292" d="M253 689L156 0H62L159 689H253Z" />
<glyph unicode="J" glyph-name="J" horiz-adv-x="300" d="M182 93Q168 -9 118 -59T-26 -138L-45 -67Q3 -49 29 -28T69 24T89 103L172 689H266L182 93Z" />
<glyph unicode="K" glyph-name="K" horiz-adv-x="583" d="M62 0L159 689H254L157 0H62ZM434 0L213 368L515 689H626L319 365L546 0H434Z" />
<glyph unicode="L" glyph-name="L" horiz-adv-x="492" d="M253 689L168 83H448L426 0H62L159 689H253Z" />
<glyph unicode="M" glyph-name="M" horiz-adv-x="772" d="M673 0H582L602 314Q612 490 623 591L405 78H315L232 590Q220 490 179 301L115 0H25L179 689H298L376 190L580 689H713L673 0Z" />
<glyph unicode="N" glyph-name="N" horiz-adv-x="677" d="M541 0H418L221 607Q220 488 195 313L151 0H62L159 689H283L481 81Q481 149 484 200T496 316L549 689H638L541 0Z" />
<glyph unicode="O" glyph-name="O" horiz-adv-x="686" d="M516 701T582 628T648 421Q648 320 614 221T503 55T308 -12Q194 -12 128 60T61 265Q61 364 95 464T206 632T402 701Q516 701 582 628ZM311 623T258 566T182 427T159 262Q159 66 311 66Q399 66 452 123T528
263T550 428Q550 623 398 623Q311 623 258 566Z" />
<glyph unicode="P" glyph-name="P" horiz-adv-x="575" d="M451 689T513 644T576 507Q576 438 547 381T451 289T280 253H191L156 0H62L159 689H336Q451 689 513 644ZM389 328T432 378T476 507Q476 565 439 590T329 615H242L202 328H282Q389 328 432 378Z" />
<glyph unicode="Q" glyph-name="Q" horiz-adv-x="683" d="M648 345T628 269T564 130T452 37Q503 36 543 19T622 -26L552 -103Q518 -67 486 -48T412 -20T308 -12Q194 -12 128 60T61 265Q61 364 95 464T206 632T402 701Q516 701 582 628T648 421Q648 345 628 269ZM159
157T199 112T311 66Q399 66 452 124T528 266T550 438Q550 532 511 577T398 623Q311 623 258 566T182 424T159 255Q159 157 199 112Z" />
<glyph unicode="R" glyph-name="R" horiz-adv-x="599" d="M572 448T531 390T398 306L537 0H433L306 292H197L156 0H62L159 689H336Q572 689 572 518Q572 448 531 390ZM207 365H308Q396 365 434 410T473 517Q473 570 439 592T331 615H242L207 365Z" />
<glyph unicode="S" glyph-name="S" horiz-adv-x="539" d="M389 701T438 680T527 618L468 563Q436 595 402 609T324 623Q263 623 223 593T183 511Q183 471 210 447T312 398Q398 371 445 330T492 209Q492 153 463 103T373 20T222 -12Q80 -12 -1 80L59 136Q91 101
131 84T224 66Q301 66 347 103T394 204Q394 248 367 273T267 324Q173 357 130 396T87 506Q87 553 115 598T196 672T324 701Q389 701 438 680Z" />
<glyph unicode="T" glyph-name="T" horiz-adv-x="511" d="M562 689L540 608H350L265 0H171L256 608H62L74 689H562Z" />
<glyph unicode="U" glyph-name="U" horiz-adv-x="656" d="M561 218Q546 113 475 51T292 -12Q190 -12 135 40T80 182Q80 203 83 224L149 689H243L178 225Q175 203 175 183Q175 125 204 97T296 68Q445 68 468 231L533 689H627L561 218Z" />
<glyph unicode="V" glyph-name="V" horiz-adv-x="550" d="M604 689L289 0H188L65 689H163L251 103L506 689H604Z" />
<glyph unicode="W" glyph-name="W" horiz-adv-x="820" d="M855 689L619 0H498L454 577L246 0H128L86 689H176L200 83L417 689H519L568 83L768 689H855Z" />
<glyph unicode="X" glyph-name="X" horiz-adv-x="534" d="M567 689L335 371L492 0H389L275 304L72 0H-33L225 367L83 689H186L285 430L463 689H567Z" />
<glyph unicode="Y" glyph-name="Y" horiz-adv-x="544" d="M600 689L320 265L283 0H187L225 264L65 689H164L282 348L497 689H600Z" />
<glyph unicode="Z" glyph-name="Z" horiz-adv-x="516" d="M-8 0L2 76L416 609H114L125 689H532L522 612L111 80L446 81L424 0H-8Z" />
<glyph unicode="[" glyph-name="bracketleft" horiz-adv-x="316" d="M346 816L335 739H216L106 -40H225L215 -116H10L141 816H346Z" />
<glyph unicode="\" glyph-name="backslash" horiz-adv-x="514" d="M255 805L360 -87L282 -104L179 789L255 805Z" />
<glyph unicode="]" glyph-name="bracketright" horiz-adv-x="316" d="M331 816L200 -116H-5L5 -40H124L234 739H115L126 816H331Z" />
<glyph unicode="^" glyph-name="asciicircum" horiz-adv-x="534" d="M389 840L532 527H436L339 760L174 527H76L308 840H389Z" />
<glyph unicode="_" glyph-name="underscore" horiz-adv-x="514" d="M-41 -142L-30 -63H452L441 -142H-41Z" />
<glyph unicode="`" glyph-name="grave" horiz-adv-x="293" d="M140 801L323 687L294 638L95 724L140 801Z" />
<glyph unicode="a" glyph-name="a" horiz-adv-x="569" d="M380 539T424 528T516 494L462 120Q460 104 460 98Q460 80 467 69T494 51L468 -12Q426 -7 403 14T375 76Q343 35 303 12T218 -12Q138 -12 94 43T50 190Q50 270 79 350T172 484T331 539Q380 539 424 528ZM270
466T229 424T168 318T148 189Q148 124 171 93T237 61Q278 61 310 86T378 158L419 449Q398 458 379 462T333 466Q270 466 229 424Z" />
<glyph unicode="b" glyph-name="b" horiz-adv-x="579" d="M442 539T485 485T528 332Q528 250 499 172T407 41T246 -12Q202 -12 160 -4T60 23L161 739L253 750L215 475Q251 507 288 523T367 539Q442 539 485 485ZM302 466T270 446T203 390L160 77Q185 68 205 65T253
61Q314 61 354 103T414 210T433 339Q433 466 341 466Q302 466 270 446Z" />
<glyph unicode="c" glyph-name="c" horiz-adv-x="472" d="M411 539T472 481L423 424Q399 445 375 454T320 463Q258 463 220 422T165 319T148 196Q148 66 255 66Q288 66 315 76T377 107L414 43Q337 -12 249 -12Q155 -12 104 44T52 203Q52 279 80 356T168 486T319
539Q411 539 472 481Z" />
<glyph unicode="d" glyph-name="d" horiz-adv-x="587" d="M560 738L456 0H376L377 87Q348 40 308 14T218 -12Q138 -12 95 44T51 197Q51 273 76 352T157 485T296 539Q379 539 431 473L470 748L560 738ZM254 466T217 422T164 315T148 190Q148 125 171 93T236 61Q282
61 317 91T391 183L422 402Q401 434 375 450T313 466Q254 466 217 422Z" />
<glyph unicode="e" glyph-name="e" horiz-adv-x="517" d="M490 304T400 259T148 196Q151 65 262 65Q299 65 333 77T403 114L442 52Q353 -12 253 -12Q157 -12 105 44T52 202Q52 281 79 358T168 487T323 539Q403 539 446 500T490 405Q490 304 400 259ZM277 280T335
309T394 402Q394 426 377 446T322 466Q246 466 205 408T153 266Q277 280 335 309Z" />
<glyph unicode="f" glyph-name="f" horiz-adv-x="329" d="M289 676T267 657T240 597L230 527H357L337 456H220L160 29Q150 -44 127 -87T66 -158T-37 -213L-63 -144Q-21 -125 3 -107T44 -57T69 29L129 456H36L46 527H139L150 602Q159 670 206 710T329 750Q365 750
393 741T453 712L418 651Q381 676 332 676Q289 676 267 657Z" />
<glyph unicode="g" glyph-name="g" horiz-adv-x="580" d="M387 539T431 528T523 494L450 12Q432 -109 370 -162T209 -216Q162 -216 114 -202T27 -165L62 -95Q91 -112 128 -124T204 -137Q267 -137 308 -106T361 13L370 80Q339 43 301 22T220 0Q141 0 96 53T51 198Q51
283 81 361T175 489T337 539Q387 539 431 528ZM274 466T232 427T169 327T149 197Q149 134 173 104T239 73Q279 73 313 99T383 172L426 449Q403 458 383 462T337 466Q274 466 232 427Z" />
<glyph unicode="h" glyph-name="h" horiz-adv-x="581" d="M441 539T475 504T509 407Q509 385 507 373L454 0H363L415 368Q417 390 417 398Q417 433 403 447T362 462Q314 462 271 421T191 316L148 0H57L161 738L253 748L207 428Q281 539 381 539Q441 539 475 504Z" />
<glyph unicode="i" glyph-name="i" horiz-adv-x="279" d="M222 527L148 0H57L131 527H222ZM171 655T155 671T139 712Q139 741 159 760T208 780Q235 780 251 764T267 723Q267 694 247 675T198 655Q171 655 155 671Z" />
<glyph unicode="j" glyph-name="j" horiz-adv-x="279" d="M-71 -145Q-29 -126 -5 -108T36 -57T61 29L131 527H222L152 29Q142 -44 119 -87T58 -158T-45 -213L-71 -145ZM172 655T156 671T140 712Q140 741 160 760T209 780Q236 780 252 764T268 723Q268 694 248
675T199 655Q172 655 156 671Z" />
<glyph unicode="k" glyph-name="k" horiz-adv-x="545" d="M209 435Q246 487 292 513T389 539Q445 539 481 506T517 419Q517 355 476 307T354 233L473 0H371L245 257Q338 283 379 318T420 409Q420 437 405 451T363 466Q318 466 271 428T192 316L148 0H57L161 739L253
750L209 435Z" />
<glyph unicode="l" glyph-name="l" horiz-adv-x="288" d="M158 103Q157 98 157 90Q157 76 163 70T182 64Q197 64 218 71L237 5Q199 -12 164 -12Q118 -12 93 13T67 87Q67 96 69 118L157 739L249 750L158 103Z" />
<glyph unicode="m" glyph-name="m" horiz-adv-x="848" d="M714 539T745 504T777 408Q777 386 775 375L722 0H631L683 368Q685 380 685 399Q685 435 670 448T628 462Q590 462 553 423T479 318L434 0H343L395 368Q397 380 397 399Q397 435 382 448T340 462Q302 462
265 422T191 316L148 0H57L131 527H209L201 426Q240 481 281 510T373 539Q417 539 449 511T488 432Q528 485 570 512T661 539Q714 539 745 504Z" />
<glyph unicode="n" glyph-name="n" horiz-adv-x="580" d="M442 539T475 504T509 406Q509 390 506 370L454 0H363L415 368Q417 390 417 397Q417 432 402 447T359 462Q313 462 271 421T192 316L148 0H57L131 527H209L201 424Q240 479 285 509T384 539Q442 539 475 504Z" />
<glyph unicode="o" glyph-name="o" horiz-adv-x="578" d="M157 -12T105 46T52 206Q52 280 79 356T168 486T325 539Q422 539 474 481T526 321Q526 248 499 172T411 42T254 -12Q157 -12 105 46ZM320 62T359 105T414 210T430 331Q430 465 322 465Q259 465 220 422T165
317T148 196Q148 62 257 62Q320 62 359 105Z" />
<glyph unicode="p" glyph-name="p" horiz-adv-x="579" d="M131 527H209L207 461Q246 504 285 521T367 539Q442 539 485 485T528 332Q528 251 499 172T407 41T248 -12Q199 -12 148 5L118 -204L27 -216L131 527ZM314 61T354 103T414 210T433 339Q433 466 341 466Q302
466 270 446T203 390L160 77Q185 68 205 65T253 61Q314 61 354 103Z" />
<glyph unicode="q" glyph-name="q" horiz-adv-x="576" d="M366 64Q340 31 301 10T218 -12Q139 -12 95 43T50 190Q50 270 79 350T172 484T331 539Q380 539 424 529T519 494L418 -204L327 -216L366 64ZM278 61T310 86T378 158L420 449Q398 458 379 462T333 466Q270
466 229 424T168 318T148 189Q148 124 171 93T237 61Q278 61 310 86Z" />
<glyph unicode="r" glyph-name="r" horiz-adv-x="381" d="M381 539T409 532L382 443Q363 448 339 448Q290 448 254 406T188 279L148 0H57L131 527H209L203 419Q232 479 271 509T356 539Q381 539 409 532Z" />
<glyph unicode="s" glyph-name="s" horiz-adv-x="461" d="M363 539T436 474L391 419Q332 466 262 466Q214 466 186 447T157 395Q157 365 180 349T263 315Q340 291 376 255T412 157Q412 101 381 63T301 7T193 -12Q76 -12 -2 64L50 117Q115 62 197 62Q260 62 288
88T316 148Q316 175 306 191T273 219T205 245Q129 268 97 301T64 389Q64 426 86 460T153 517T263 539Q363 539 436 474Z" />
<glyph unicode="t" glyph-name="t" horiz-adv-x="355" d="M173 139Q171 119 171 113Q171 88 182 77T218 65Q236 65 253 70T294 87L324 23Q269 -12 207 -12Q146 -12 113 19T80 109Q80 130 82 141L126 456H35L45 527H140L173 649L245 657L227 527H351L331 456H217L173 139Z" />
<glyph unicode="u" glyph-name="u" horiz-adv-x="576" d="M139 -12T105 22T70 118Q70 135 73 153L126 527H217L165 157Q162 139 162 124Q162 90 176 75T220 60Q265 60 303 94T380 184L428 527H519L445 0H367L374 97Q335 43 294 16T200 -12Q139 -12 105 22Z" />
<glyph unicode="v" glyph-name="v" horiz-adv-x="486" d="M514 527L262 0H153L47 527H146L218 83L414 527H514Z" />
<glyph unicode="w" glyph-name="w" horiz-adv-x="711" d="M728 527L537 0H412L384 444L227 0H106L58 527H148L177 64L344 527H447L480 64L640 527H728Z" />
<glyph unicode="x" glyph-name="x" horiz-adv-x="480" d="M493 527L297 275L438 0H336L236 222L75 0H-32L189 283L64 527H165L249 332L387 527H493Z" />
<glyph unicode="y" glyph-name="y" horiz-adv-x="486" d="M270 -5Q229 -96 164 -149T-5 -213L-9 -141Q45 -132 78 -115T135 -72T182 0H148L47 527H143L217 70L419 527H514L270 -5Z" />
<glyph unicode="z" glyph-name="z" horiz-adv-x="431" d="M436 527L427 457L109 77H376L355 0H-13L-4 69L313 449H73L84 527H436Z" />
<glyph unicode="{" glyph-name="braceleft" horiz-adv-x="316" d="M345 765Q295 765 270 749T240 694L206 455Q199 404 179 383T116 347Q148 336 163 319T178 267Q178 259 176 239L142 0Q141 -6 141 -16Q141 -43 160 -54T225 -65L219 -136Q56 -136 56 -15Q56 5
58 16L89 238Q91 258 91 264Q91 290 77 300T27 311L38 387Q77 387 96 406T122 468L153 690Q161 744 182 775T243 821T351 836L345 765Z" />
<glyph unicode="|" glyph-name="bar" horiz-adv-x="397" d="M316 807L189 -102H106L233 807H316Z" />
<glyph unicode="}" glyph-name="braceright" horiz-adv-x="315" d="M-5 -65Q45 -65 70 -49T100 6L134 245Q141 296 161 317T224 353Q192 364 177 381T162 433Q162 441 164 461L198 700Q199 706 199 716Q199 743 180 754T115 765L121 836Q284 836 284 715Q284 695
282 684L251 462Q249 442 249 436Q249 410 263 400T313 389L302 313Q263 313 244 294T218 232L187 10Q179 -44 158 -75T97 -121T-11 -136L-5 -65Z" />
<glyph unicode="~" glyph-name="asciitilde" horiz-adv-x="482" d="M291 250T272 259T230 286Q213 299 201 305T175 312Q130 312 91 256L37 289Q97 384 183 384Q207 384 225 376T266 350Q284 336 297 330T325 323Q350 323 371 337T407 373L460 339Q401 250 317
250Q291 250 272 259Z" />
<glyph unicode="&#xa0;" glyph-name="uni00A0" horiz-adv-x="259" />
<glyph unicode="&#xa1;" glyph-name="exclamdown" horiz-adv-x="235" d="M110 356T93 374T75 419Q75 451 96 473T149 495Q177 495 194 477T212 432Q212 400 190 378T137 356Q110 356 93 374ZM160 247L107 -202H6L79 247H160Z" />
<glyph unicode="&#xa2;" glyph-name="cent" horiz-adv-x="472" d="M258 463T220 422T165 319T148 196Q148 66 255 66Q288 66 315 76T377 107L414 43Q346 -5 272 -11L252 -154H173L194 -6Q126 10 89 64T52 203Q52 272 75 343T147 467T271 535L292 684H370L349 537Q422
529 472 481L423 424Q399 445 375 454T320 463Q258 463 220 422Z" />
<glyph unicode="&#xa3;" glyph-name="sterling" horiz-adv-x="514" d="M417 679T458 658T530 594L468 551Q448 579 424 591T364 604Q314 604 282 575T243 491L228 382H433L424 322H219L202 201Q195 150 179 123T126 76H441L419 0H2L10 74Q47 87 66 102T96 141T112
208L128 322H63L72 382H137L153 496Q165 579 220 629T361 679Q417 679 458 658Z" />
<glyph unicode="&#xa4;" glyph-name="currency" horiz-adv-x="560" d="M492 272T455 218L531 143L476 88L398 164Q345 132 278 132Q214 132 161 166L84 88L29 143L107 221Q71 274 71 341Q71 406 106 460L29 540L84 595L162 515Q211 549 278 549Q345 549 398 517L476
595L531 540L455 463Q492 411 492 341Q492 272 455 218ZM340 205T371 241T403 342Q403 407 372 443T281 479Q222 479 190 443T158 342Q158 277 190 241T281 205Q340 205 371 241Z" />
<glyph unicode="&#xa5;" glyph-name="yen" horiz-adv-x="530" d="M583 669L348 346H460L451 284H315L302 194H438L430 133H294L275 0H181L200 133H63L71 194H209L222 284H84L93 346H206L62 669H162L282 374L486 669H583Z" />
<glyph unicode="&#xa6;" glyph-name="brokenbar" horiz-adv-x="397" d="M316 807L265 443H182L233 807H316ZM240 262L189 -102H106L157 262H240Z" />
<glyph unicode="&#xa7;" glyph-name="section" horiz-adv-x="527" d="M395 419T429 386T463 306Q463 263 440 231T369 170Q410 135 410 79Q410 41 389 7T321 -49T204 -71Q156 -71 114 -57T38 -20L78 40Q134 1 209 1Q268 1 293 21T319 75Q319 97 310 111T279 136T212
162Q138 187 107 218T75 297Q75 385 173 436Q130 473 130 525Q130 597 186 637T325 677Q424 677 497 621L457 566Q425 587 394 596T325 606Q269 606 245 586T220 533Q220 502 242 483T325 443Q395 419 429 386ZM348 227T361 247T375 293Q375 322 356 341T284 378Q243
392 222 404Q189 379 177 358T165 309Q165 280 181 262T242 230Q282 217 315 203Q348 227 361 247Z" />
<glyph unicode="&#xa8;" glyph-name="dieresis" horiz-adv-x="384" d="M123 654T108 668T93 705Q93 732 111 749T156 767Q179 767 194 753T209 716Q209 689 191 672T146 654Q123 654 108 668ZM331 654T316 668T301 705Q301 732 319 749T364 767Q387 767 402 753T417
716Q417 689 399 672T354 654Q331 654 316 668Z" />
<glyph unicode="&#xa9;" glyph-name="copyright" horiz-adv-x="810" d="M516 748T587 708T700 596T742 434Q742 344 701 273T588 161T430 121Q344 121 272 161T158 272T116 434Q116 524 158 595T272 707T430 748Q516 748 587 708ZM358 696T301 663T210 570T177
434Q177 358 210 299T300 207T430 174Q501 174 558 207T649 299T682 434Q682 510 649 570T559 663T430 696Q358 696 301 663ZM468 625T495 615T549 585L514 538Q476 565 436 565Q395 565 370 533T345 435Q345 372 369 340T436 308Q461 308 480 315T520 339L552
291Q500 245 433 245Q359 245 314 295T269 435Q269 495 291 538T350 603T432 625Q468 625 495 615Z" />
<glyph unicode="&#xaa;" glyph-name="ordfeminine" horiz-adv-x="494" d="M144 271T112 303T79 385Q79 444 126 484T284 525H343L346 545Q348 563 348 569Q348 597 332 608T278 620Q231 620 162 598L145 662Q223 689 296 689Q367 689 401 661T436 575Q436 560
435 551L412 381Q410 369 410 364Q410 352 416 345T436 332L411 272Q346 278 332 330Q283 271 202 271Q144 271 112 303ZM284 337T325 394L336 470H284Q223 470 197 447T171 389Q171 337 224 337Q284 337 325 394ZM25 0L36 77H408L397 0H25Z" />
<glyph unicode="&#xab;" glyph-name="guillemotleft" horiz-adv-x="569" d="M259 535L314 497L150 287L255 77L198 39L53 255L60 318L259 535ZM494 535L549 497L385 287L490 77L433 39L288 255L295 318L494 535Z" />
<glyph unicode="&#xac;" glyph-name="logicalnot" horiz-adv-x="494" d="M447 361L416 141H329L349 284H64L75 361H447Z" />
<glyph unicode="&#xad;" glyph-name="uni00AD" horiz-adv-x="397" d="M59 274L70 352H351L340 274H59Z" />
<glyph unicode="&#xae;" glyph-name="registered" horiz-adv-x="641" d="M423 750T481 716T573 622T607 493Q607 423 574 365T482 272T352 238Q283 238 225 272T134 364T100 493Q100 563 133 622T225 715T352 750Q423 750 481 716ZM410 287T455 313T526 387T552
493Q552 552 527 599T456 674T352 701Q296 701 251 674T181 600T155 493Q155 434 180 387T251 314T352 287Q410 287 455 313ZM461 522T443 503T396 474L470 359H403L342 465H318V359H261V635H339Q461 635 461 551Q461 522 443 503ZM318 509H348Q402 509 402 551Q402
572 389 581T346 591H318V509Z" />
<glyph unicode="&#xaf;" glyph-name="overscore" horiz-adv-x="331" d="M358 667H87L96 736H367L358 667Z" />
<glyph unicode="&#xb0;" glyph-name="degree" horiz-adv-x="517" d="M172 381T132 418T92 519Q92 569 115 611T180 677T271 701Q334 701 374 664T414 563Q414 513 391 471T326 405T235 381Q172 381 132 418ZM284 444T311 477T339 564Q339 601 321 619T269 638Q222
638 195 605T167 518Q167 481 185 463T237 444Q284 444 311 477Z" />
<glyph unicode="&#xb1;" glyph-name="plusminus" horiz-adv-x="494" d="M24 0L35 77H407L396 0H24ZM328 542L307 392H451L440 316H296L275 167H191L212 316H69L80 392H223L244 542H328Z" />
<glyph unicode="&#xb2;" glyph-name="uni00B2" horiz-adv-x="394" d="M317 746T349 716T382 638Q382 596 356 557T292 483T173 384H358L341 322H74L82 382L121 416Q186 471 221 504T280 572T303 637Q303 660 289 672T250 684Q224 684 203 673T157 637L111 680Q175
746 259 746Q317 746 349 716Z" />
<glyph unicode="&#xb3;" glyph-name="uni00B3" horiz-adv-x="394" d="M318 746T350 718T383 648Q383 606 357 580T283 542Q321 538 345 516T369 457Q369 417 347 384T287 332T202 313Q158 313 123 329T66 375L115 413Q133 392 154 383T202 374Q242 374 266 397T291
461Q291 490 274 501T221 512H185L202 568H223Q260 568 283 589T306 642Q306 664 292 675T251 687Q226 687 204 678T156 651L121 695Q184 746 260 746Q318 746 350 718Z" />
<glyph unicode="&#xb4;" glyph-name="acute" horiz-adv-x="294" d="M301 801L331 724L111 638L90 687L301 801Z" />
<glyph unicode="&#xb5;" glyph-name="uni00B5" horiz-adv-x="582" d="M463 127T463 81Q463 38 470 -2L386 -10Q378 15 376 35T375 85Q345 43 306 16T218 -12Q166 -12 138 22Q141 9 141 -11Q141 -47 133 -99L119 -202L27 -213L131 527H222L169 153Q167 135 167
129Q167 64 233 64Q317 64 378 163L428 527H519L470 177Q463 127 463 81Z" />
<glyph unicode="&#xb6;" glyph-name="paragraph" horiz-adv-x="728" d="M649 689L524 -202L442 -215L558 615H439L326 -202L244 -215L314 283Q216 288 167 334T118 454Q118 527 152 580T249 661T391 689H649Z" />
<glyph unicode="&#xb7;" glyph-name="middot" horiz-adv-x="239" d="M93 241T76 259T58 304Q58 336 79 358T132 380Q160 380 177 362T195 317Q195 285 173 263T120 241Q93 241 76 259Z" />
<glyph unicode="&#xb8;" glyph-name="cedilla" horiz-adv-x="272" d="M103 -56Q143 -60 164 -82T185 -137Q185 -181 151 -211T56 -241Q-1 -241 -37 -214L-6 -165Q8 -173 21 -177T56 -181Q80 -181 95 -170T110 -138Q110 -116 93 -108T28 -99L56 16H115L103 -56Z" />
<glyph unicode="&#xb9;" glyph-name="uni00B9" horiz-adv-x="394" d="M337 739L278 322H202L249 660L145 603L118 656L268 739H337Z" />
<glyph unicode="&#xba;" glyph-name="ordmasculine" horiz-adv-x="494" d="M385 689T428 644T472 519Q472 449 445 393T368 304T252 271Q171 271 127 316T83 441Q83 511 110 567T188 656T304 689Q385 689 428 644ZM238 620T207 567T176 436Q176 340 254 340Q317
340 348 393T379 525Q379 620 302 620Q238 620 207 567ZM24 0L35 77H407L396 0H24Z" />
<glyph unicode="&#xbb;" glyph-name="guillemotright" horiz-adv-x="569" d="M141 535L287 318L280 255L79 39L26 77L189 287L85 497L141 535ZM376 535L522 318L515 255L314 39L261 77L424 287L320 497L376 535Z" />
<glyph unicode="&#xbc;" glyph-name="onequarter" horiz-adv-x="914" d="M330 689L271 272H195L242 610L138 553L111 606L261 689H330ZM696 750L752 721L239 -78L182 -49L696 750ZM858 156L849 96H798L784 0H709L722 96H538L545 150L710 424L773 399L627 156H731L753
261H821L806 156H858Z" />
<glyph unicode="&#xbd;" glyph-name="onehalf" horiz-adv-x="914" d="M330 689L271 272H195L242 610L138 553L111 606L261 689H330ZM696 750L752 721L239 -78L182 -49L696 750ZM792 424T824 394T857 316Q857 274 831 235T767 161T648 62H833L816 0H549L557 60L596
94Q661 149 696 182T755 250T778 315Q778 338 764 350T725 362Q699 362 678 351T632 315L586 358Q650 424 734 424Q792 424 824 394Z" />
<glyph unicode="&#xbe;" glyph-name="threequarters" horiz-adv-x="914" d="M311 696T343 668T376 598Q376 556 350 530T276 492Q314 488 338 466T362 407Q362 367 340 334T280 282T195 263Q151 263 116 279T59 325L108 363Q126 342 147 333T195 324Q235 324 259
347T284 411Q284 440 267 451T214 462H178L195 518H216Q253 518 276 539T299 592Q299 614 285 625T244 637Q219 637 197 628T149 601L114 645Q177 696 253 696Q311 696 343 668ZM696 750L752 721L239 -78L182 -49L696 750ZM858 156L849 96H798L784 0H709L722 96H538L545
150L710 424L773 399L627 156H731L753 261H821L806 156H858Z" />
<glyph unicode="&#xbf;" glyph-name="questiondown" horiz-adv-x="454" d="M299 507T316 489T334 444Q334 412 313 390T260 368Q232 368 215 386T197 431Q197 463 219 485T272 507Q299 507 316 489ZM72 -216T28 -176T-17 -75Q-17 -25 2 8T48 59T120 102Q157 121
178 135T213 171T228 223Q228 240 225 252L307 266Q311 255 314 241T317 216Q317 172 299 142T255 93T187 52Q150 32 129 18T93 -19T78 -73Q78 -106 100 -123T163 -140Q202 -140 240 -122T314 -66L371 -119Q277 -216 155 -216Q72 -216 28 -176Z" />
<glyph unicode="&#xc0;" glyph-name="Agrave" horiz-adv-x="567" d="M427 0L400 173H141L65 0H-32L284 689H403L524 0H427ZM174 250H388L332 610L174 250ZM294 907L480 803L451 754L252 830L294 907Z" />
<glyph unicode="&#xc1;" glyph-name="Aacute" horiz-adv-x="567" d="M427 0L400 173H141L65 0H-32L284 689H403L524 0H427ZM174 250H388L332 610L174 250ZM451 908L481 831L261 755L242 804L451 908Z" />
<glyph unicode="&#xc2;" glyph-name="Acircumflex" horiz-adv-x="567" d="M427 0L400 173H141L65 0H-32L284 689H403L524 0H427ZM174 250H388L332 610L174 250ZM229 759L192 804L341 914H401L520 804L479 759L364 840L229 759Z" />
<glyph unicode="&#xc3;" glyph-name="Atilde" horiz-adv-x="567" d="M427 0L400 173H141L65 0H-32L284 689H403L524 0H427ZM174 250H388L332 610L174 250ZM399 782T383 790T348 812Q336 821 328 825T311 830Q293 830 279 818T248 782L196 814Q249 900 313 900Q335
900 349 893T382 871Q395 861 403 857T420 852Q436 852 450 863T481 898L535 866Q510 824 481 803T422 782Q399 782 383 790Z" />
<glyph unicode="&#xc4;" glyph-name="Adieresis" horiz-adv-x="567" d="M427 0L400 173H141L65 0H-32L284 689H403L524 0H427ZM174 250H388L332 610L174 250ZM235 780T220 794T205 831Q205 858 223 875T268 893Q291 893 306 879T321 842Q321 815 303 798T258 780Q235
780 220 794ZM443 780T428 794T413 831Q413 858 431 875T476 893Q499 893 514 879T529 842Q529 815 511 798T466 780Q443 780 428 794Z" />
<glyph unicode="&#xc5;" glyph-name="Aring" horiz-adv-x="567" d="M427 0L400 173H141L65 0H-32L284 689H403L524 0H427ZM174 250H388L332 610L174 250ZM426 962T454 935T483 866Q483 818 447 784T359 750Q313 750 285 777T256 846Q256 894 292 928T380 962Q426
962 454 935ZM349 912T333 893T317 847Q317 825 328 813T361 800Q390 800 406 820T423 866Q423 888 411 900T378 912Q349 912 333 893Z" />
<glyph unicode="&#xc6;" glyph-name="AE" horiz-adv-x="808" d="M753 613H446L470 387H723L713 311H479L504 76H729L718 0H421L405 173H139L51 0H-49L317 689H775L753 613ZM179 250H398L364 613L179 250Z" />
<glyph unicode="&#xc7;" glyph-name="Ccedilla" horiz-adv-x="555" d="M314 623T261 568T184 429T160 260Q160 161 201 115T312 68Q357 68 392 83T467 127L509 63Q433 -2 336 -11L328 -56Q368 -60 389 -82T410 -137Q410 -181 376 -211T281 -241Q224 -241 188 -214L219
-165Q233 -173 246 -177T281 -181Q305 -181 320 -170T335 -138Q335 -116 318 -108T253 -99L275 -10Q175 0 118 72T61 268Q61 368 96 468T207 634T394 701Q452 701 497 683T579 630L525 577Q494 601 464 612T398 623Q314 623 261 568Z" />
<glyph unicode="&#xc8;" glyph-name="Egrave" horiz-adv-x="529" d="M528 689L507 613H242L210 388H440L430 312H200L167 76H450L439 0H62L159 689H528ZM297 907L483 803L454 754L255 830L297 907Z" />
<glyph unicode="&#xc9;" glyph-name="Eacute" horiz-adv-x="529" d="M528 689L507 613H242L210 388H440L430 312H200L167 76H450L439 0H62L159 689H528ZM454 908L484 831L264 755L245 804L454 908Z" />
<glyph unicode="&#xca;" glyph-name="Ecircumflex" horiz-adv-x="529" d="M528 689L507 613H242L210 388H440L430 312H200L167 76H450L439 0H62L159 689H528ZM232 759L195 804L344 914H404L523 804L482 759L367 840L232 759Z" />
<glyph unicode="&#xcb;" glyph-name="Edieresis" horiz-adv-x="529" d="M528 689L507 613H242L210 388H440L430 312H200L167 76H450L439 0H62L159 689H528ZM238 780T223 794T208 831Q208 858 226 875T271 893Q294 893 309 879T324 842Q324 815 306 798T261 780Q238
780 223 794ZM446 780T431 794T416 831Q416 858 434 875T479 893Q502 893 517 879T532 842Q532 815 514 798T469 780Q446 780 431 794Z" />
<glyph unicode="&#xcc;" glyph-name="Igrave" horiz-adv-x="292" d="M253 689L156 0H62L159 689H253ZM156 907L342 803L313 754L114 830L156 907Z" />
<glyph unicode="&#xcd;" glyph-name="Iacute" horiz-adv-x="292" d="M253 689L156 0H62L159 689H253ZM313 908L343 831L123 755L104 804L313 908Z" />
<glyph unicode="&#xce;" glyph-name="Icircumflex" horiz-adv-x="292" d="M253 689L156 0H62L159 689H253ZM91 759L54 804L203 914H263L382 804L341 759L226 840L91 759Z" />
<glyph unicode="&#xcf;" glyph-name="Idieresis" horiz-adv-x="292" d="M253 689L156 0H62L159 689H253ZM97 780T82 794T67 831Q67 858 85 875T130 893Q153 893 168 879T183 842Q183 815 165 798T120 780Q97 780 82 794ZM305 780T290 794T275 831Q275 858 293
875T338 893Q361 893 376 879T391 842Q391 815 373 798T328 780Q305 780 290 794Z" />
<glyph unicode="&#xd0;" glyph-name="Eth" horiz-adv-x="649" d="M447 689T529 633T611 428Q611 311 573 214T452 59T238 0H72L117 318H29L38 388H127L169 689H310Q447 689 529 633ZM346 75T405 127T489 259T515 430Q515 506 489 546T422 599T324 613H252L221
388H378L369 318H211L177 75H252Q346 75 405 127Z" />
<glyph unicode="&#xd1;" glyph-name="Ntilde" horiz-adv-x="677" d="M541 0H418L221 607Q220 488 195 313L151 0H62L159 689H283L481 81Q481 149 484 200T496 316L549 689H638L541 0ZM465 782T449 790T414 812Q402 821 394 825T377 830Q359 830 345 818T314 782L262
814Q315 900 379 900Q401 900 415 893T448 871Q461 861 469 857T486 852Q502 852 516 863T547 898L601 866Q576 824 547 803T488 782Q465 782 449 790Z" />
<glyph unicode="&#xd2;" glyph-name="Ograve" horiz-adv-x="686" d="M516 701T582 628T648 421Q648 320 614 221T503 55T308 -12Q194 -12 128 60T61 265Q61 364 95 464T206 632T402 701Q516 701 582 628ZM311 623T258 566T182 427T159 262Q159 66 311 66Q399 66
452 123T528 263T550 428Q550 623 398 623Q311 623 258 566ZM357 907L543 803L514 754L315 830L357 907Z" />
<glyph unicode="&#xd3;" glyph-name="Oacute" horiz-adv-x="686" d="M516 701T582 628T648 421Q648 320 614 221T503 55T308 -12Q194 -12 128 60T61 265Q61 364 95 464T206 632T402 701Q516 701 582 628ZM311 623T258 566T182 427T159 262Q159 66 311 66Q399 66
452 123T528 263T550 428Q550 623 398 623Q311 623 258 566ZM514 908L544 831L324 755L305 804L514 908Z" />
<glyph unicode="&#xd4;" glyph-name="Ocircumflex" horiz-adv-x="686" d="M516 701T582 628T648 421Q648 320 614 221T503 55T308 -12Q194 -12 128 60T61 265Q61 364 95 464T206 632T402 701Q516 701 582 628ZM311 623T258 566T182 427T159 262Q159 66 311 66Q399
66 452 123T528 263T550 428Q550 623 398 623Q311 623 258 566ZM292 759L255 804L404 914H464L583 804L542 759L427 840L292 759Z" />
<glyph unicode="&#xd5;" glyph-name="Otilde" horiz-adv-x="686" d="M516 701T582 628T648 421Q648 320 614 221T503 55T308 -12Q194 -12 128 60T61 265Q61 364 95 464T206 632T402 701Q516 701 582 628ZM311 623T258 566T182 427T159 262Q159 66 311 66Q399 66
452 123T528 263T550 428Q550 623 398 623Q311 623 258 566ZM462 782T446 790T411 812Q399 821 391 825T374 830Q356 830 342 818T311 782L259 814Q312 900 376 900Q398 900 412 893T445 871Q458 861 466 857T483 852Q499 852 513 863T544 898L598 866Q573 824
544 803T485 782Q462 782 446 790Z" />
<glyph unicode="&#xd6;" glyph-name="Odieresis" horiz-adv-x="686" d="M516 701T582 628T648 421Q648 320 614 221T503 55T308 -12Q194 -12 128 60T61 265Q61 364 95 464T206 632T402 701Q516 701 582 628ZM311 623T258 566T182 427T159 262Q159 66 311 66Q399
66 452 123T528 263T550 428Q550 623 398 623Q311 623 258 566ZM298 780T283 794T268 831Q268 858 286 875T331 893Q354 893 369 879T384 842Q384 815 366 798T321 780Q298 780 283 794ZM506 780T491 794T476 831Q476 858 494 875T539 893Q562 893 577 879T592
842Q592 815 574 798T529 780Q506 780 491 794Z" />
<glyph unicode="&#xd7;" glyph-name="multiply" horiz-adv-x="495" d="M397 486L447 429L311 308L415 184L352 129L250 252L111 129L61 186L197 306L93 431L156 486L258 362L397 486Z" />
<glyph unicode="&#xd8;" glyph-name="Oslash" horiz-adv-x="686" d="M592 631T620 570T648 421Q648 320 614 221T503 55T308 -12Q270 -12 241 -5L188 -127L111 -106L169 25Q117 58 89 119T61 265Q61 364 95 464T206 632T402 701Q439 701 467 694L522 819L599 798L539
665Q592 631 620 570ZM311 623T258 566T182 424T159 255Q159 140 211 96L442 619Q423 623 398 623Q311 623 258 566ZM399 66T452 124T528 266T550 438Q550 553 496 595L266 70Q285 66 311 66Q399 66 452 124Z" />
<glyph unicode="&#xd9;" glyph-name="Ugrave" horiz-adv-x="656" d="M561 218Q546 113 475 51T292 -12Q190 -12 135 40T80 182Q80 203 83 224L149 689H243L178 225Q175 203 175 183Q175 125 204 97T296 68Q445 68 468 231L533 689H627L561 218ZM338 907L524 803L495
754L296 830L338 907Z" />
<glyph unicode="&#xda;" glyph-name="Uacute" horiz-adv-x="656" d="M561 218Q546 113 475 51T292 -12Q190 -12 135 40T80 182Q80 203 83 224L149 689H243L178 225Q175 203 175 183Q175 125 204 97T296 68Q445 68 468 231L533 689H627L561 218ZM495 908L525 831L305
755L286 804L495 908Z" />
<glyph unicode="&#xdb;" glyph-name="Ucircumflex" horiz-adv-x="656" d="M561 218Q546 113 475 51T292 -12Q190 -12 135 40T80 182Q80 203 83 224L149 689H243L178 225Q175 203 175 183Q175 125 204 97T296 68Q445 68 468 231L533 689H627L561 218ZM273 759L236
804L385 914H445L564 804L523 759L408 840L273 759Z" />
<glyph unicode="&#xdc;" glyph-name="Udieresis" horiz-adv-x="656" d="M561 218Q546 113 475 51T292 -12Q190 -12 135 40T80 182Q80 203 83 224L149 689H243L178 225Q175 203 175 183Q175 125 204 97T296 68Q445 68 468 231L533 689H627L561 218ZM279 780T264
794T249 831Q249 858 267 875T312 893Q335 893 350 879T365 842Q365 815 347 798T302 780Q279 780 264 794ZM487 780T472 794T457 831Q457 858 475 875T520 893Q543 893 558 879T573 842Q573 815 555 798T510 780Q487 780 472 794Z" />
<glyph unicode="&#xdd;" glyph-name="Yacute" horiz-adv-x="544" d="M600 689L320 265L283 0H187L225 264L65 689H164L282 348L497 689H600ZM442 908L472 831L252 755L233 804L442 908Z" />
<glyph unicode="&#xde;" glyph-name="Thorn" horiz-adv-x="575" d="M434 571T496 525T559 385Q559 319 531 261T436 165T262 127H174L156 0H62L159 689H253L236 571H319Q434 571 496 525ZM369 202T414 254T459 385Q459 446 422 471T313 497H226L184 202H264Q369
202 414 254Z" />
<glyph unicode="&#xdf;" glyph-name="germandbls" horiz-adv-x="587" d="M-71 -144Q-29 -125 -5 -107T36 -57T61 29L133 542Q146 642 204 696T357 750Q433 750 476 714T520 621Q520 575 499 548T438 492Q411 472 398 457T384 422Q384 401 397 385T440 344Q469
320 488 300T521 249T535 175Q535 130 512 87T444 16T335 -12Q299 -12 268 -3T214 19L247 81Q263 73 285 68T328 62Q387 62 415 96T443 172Q443 212 424 238T367 299Q332 328 315 351T297 409Q297 449 315 472T369 524Q401 547 417 567T433 618Q433 648 412 663T356
678Q301 678 267 642T223 536L152 29Q142 -44 119 -87T58 -158T-45 -213L-71 -144Z" />
<glyph unicode="&#xe0;" glyph-name="agrave" horiz-adv-x="569" d="M380 539T424 528T516 494L462 120Q460 104 460 98Q460 80 467 69T494 51L468 -12Q426 -7 403 14T375 76Q343 35 303 12T218 -12Q138 -12 94 43T50 190Q50 270 79 350T172 484T331 539Q380 539
424 528ZM270 466T229 424T168 318T148 189Q148 124 171 93T237 61Q278 61 310 86T378 158L419 449Q398 458 379 462T333 466Q270 466 229 424ZM304 801L487 687L458 638L259 724L304 801Z" />
<glyph unicode="&#xe1;" glyph-name="aacute" horiz-adv-x="569" d="M380 539T424 528T516 494L462 120Q460 104 460 98Q460 80 467 69T494 51L468 -12Q426 -7 403 14T375 76Q343 35 303 12T218 -12Q138 -12 94 43T50 190Q50 270 79 350T172 484T331 539Q380 539
424 528ZM270 466T229 424T168 318T148 189Q148 124 171 93T237 61Q278 61 310 86T378 158L419 449Q398 458 379 462T333 466Q270 466 229 424ZM456 801L486 724L266 638L245 687L456 801Z" />
<glyph unicode="&#xe2;" glyph-name="acircumflex" horiz-adv-x="569" d="M380 539T424 528T516 494L462 120Q460 104 460 98Q460 80 467 69T494 51L468 -12Q426 -7 403 14T375 76Q343 35 303 12T218 -12Q138 -12 94 43T50 190Q50 270 79 350T172 484T331 539Q380
539 424 528ZM270 466T229 424T168 318T148 189Q148 124 171 93T237 61Q278 61 310 86T378 158L419 449Q398 458 379 462T333 466Q270 466 229 424ZM230 634L193 679L342 792H402L521 679L477 634L364 718L230 634Z" />
<glyph unicode="&#xe3;" glyph-name="atilde" horiz-adv-x="569" d="M380 539T424 528T516 494L462 120Q460 104 460 98Q460 80 467 69T494 51L468 -12Q426 -7 403 14T375 76Q343 35 303 12T218 -12Q138 -12 94 43T50 190Q50 270 79 350T172 484T331 539Q380 539
424 528ZM270 466T229 424T168 318T148 189Q148 124 171 93T237 61Q278 61 310 86T378 158L419 449Q398 458 379 462T333 466Q270 466 229 424ZM398 656T382 664T347 686Q335 695 327 699T310 704Q292 704 278 692T247 656L195 688Q248 774 312 774Q334 774 348
767T381 745Q394 735 402 731T419 726Q435 726 449 737T480 772L534 740Q509 698 480 677T421 656Q398 656 382 664Z" />
<glyph unicode="&#xe4;" glyph-name="adieresis" horiz-adv-x="569" d="M380 539T424 528T516 494L462 120Q460 104 460 98Q460 80 467 69T494 51L468 -12Q426 -7 403 14T375 76Q343 35 303 12T218 -12Q138 -12 94 43T50 190Q50 270 79 350T172 484T331 539Q380
539 424 528ZM270 466T229 424T168 318T148 189Q148 124 171 93T237 61Q278 61 310 86T378 158L419 449Q398 458 379 462T333 466Q270 466 229 424ZM231 654T216 668T201 705Q201 732 219 749T264 767Q287 767 302 753T317 716Q317 689 299 672T254 654Q231 654
216 668ZM439 654T424 668T409 705Q409 732 427 749T472 767Q495 767 510 753T525 716Q525 689 507 672T462 654Q439 654 424 668Z" />
<glyph unicode="&#xe5;" glyph-name="aring" horiz-adv-x="569" d="M380 539T424 528T516 494L462 120Q460 104 460 98Q460 80 467 69T494 51L468 -12Q426 -7 403 14T375 76Q343 35 303 12T218 -12Q138 -12 94 43T50 190Q50 270 79 350T172 484T331 539Q380 539
424 528ZM270 466T229 424T168 318T148 189Q148 124 171 93T237 61Q278 61 310 86T378 158L419 449Q398 458 379 462T333 466Q270 466 229 424ZM423 836T451 809T480 740Q480 692 444 658T356 624Q310 624 282 651T253 720Q253 768 289 802T377 836Q423 836 451
809ZM346 786T330 767T314 721Q314 699 325 687T358 674Q387 674 403 694T420 740Q420 762 408 774T375 786Q346 786 330 767Z" />
<glyph unicode="&#xe6;" glyph-name="ae" horiz-adv-x="817" d="M405 539T443 456Q473 493 519 516T623 539Q703 539 746 500T790 405Q790 334 745 292T625 231T443 200Q444 129 475 97T562 65Q599 65 633 77T703 114L742 52Q653 -12 553 -12Q491 -12 447 12T379
81Q337 31 290 10T185 -12Q112 -12 70 26T28 127Q28 205 89 256T284 308H365Q373 349 385 384Q383 420 352 442T271 464Q235 464 206 458T132 438L114 507Q200 539 285 539Q405 539 443 456ZM547 466T505 409T449 270Q534 279 585 292T665 332T694 402Q694 426
677 446T622 466Q547 466 505 409ZM292 245Q210 245 169 217T128 126Q128 57 201 57Q246 57 283 80T357 151Q355 160 355 204Q355 238 356 245H292Z" />
<glyph unicode="&#xe7;" glyph-name="ccedilla" horiz-adv-x="472" d="M258 463T220 422T165 319T148 196Q148 66 255 66Q288 66 315 76T377 107L414 43Q344 -6 265 -12L258 -56Q298 -60 319 -82T340 -137Q340 -181 306 -211T211 -241Q154 -241 118 -214L149 -165Q163
-173 176 -177T211 -181Q235 -181 250 -170T265 -138Q265 -116 248 -108T183 -99L205 -8Q132 5 92 59T52 203Q52 279 80 356T168 486T319 539Q411 539 472 481L423 424Q399 445 375 454T320 463Q258 463 220 422Z" />
<glyph unicode="&#xe8;" glyph-name="egrave" horiz-adv-x="517" d="M490 304T400 259T148 196Q151 65 262 65Q299 65 333 77T403 114L442 52Q353 -12 253 -12Q157 -12 105 44T52 202Q52 281 79 358T168 487T323 539Q403 539 446 500T490 405Q490 304 400 259ZM277
280T335 309T394 402Q394 426 377 446T322 466Q246 466 205 408T153 266Q277 280 335 309ZM280 801L463 687L434 638L235 724L280 801Z" />
<glyph unicode="&#xe9;" glyph-name="eacute" horiz-adv-x="517" d="M490 304T400 259T148 196Q151 65 262 65Q299 65 333 77T403 114L442 52Q353 -12 253 -12Q157 -12 105 44T52 202Q52 281 79 358T168 487T323 539Q403 539 446 500T490 405Q490 304 400 259ZM277
280T335 309T394 402Q394 426 377 446T322 466Q246 466 205 408T153 266Q277 280 335 309ZM432 801L462 724L242 638L221 687L432 801Z" />
<glyph unicode="&#xea;" glyph-name="ecircumflex" horiz-adv-x="517" d="M490 304T400 259T148 196Q151 65 262 65Q299 65 333 77T403 114L442 52Q353 -12 253 -12Q157 -12 105 44T52 202Q52 281 79 358T168 487T323 539Q403 539 446 500T490 405Q490 304 400
259ZM277 280T335 309T394 402Q394 426 377 446T322 466Q246 466 205 408T153 266Q277 280 335 309ZM206 634L169 679L318 792H378L497 679L453 634L340 718L206 634Z" />
<glyph unicode="&#xeb;" glyph-name="edieresis" horiz-adv-x="517" d="M490 304T400 259T148 196Q151 65 262 65Q299 65 333 77T403 114L442 52Q353 -12 253 -12Q157 -12 105 44T52 202Q52 281 79 358T168 487T323 539Q403 539 446 500T490 405Q490 304 400 259ZM277
280T335 309T394 402Q394 426 377 446T322 466Q246 466 205 408T153 266Q277 280 335 309ZM207 654T192 668T177 705Q177 732 195 749T240 767Q263 767 278 753T293 716Q293 689 275 672T230 654Q207 654 192 668ZM415 654T400 668T385 705Q385 732 403 749T448
767Q471 767 486 753T501 716Q501 689 483 672T438 654Q415 654 400 668Z" />
<glyph unicode="&#xec;" glyph-name="igrave" horiz-adv-x="279" d="M222 527L148 0H57L131 527H222ZM142 801L325 687L296 638L97 724L142 801Z" />
<glyph unicode="&#xed;" glyph-name="iacute" horiz-adv-x="279" d="M222 527L148 0H57L131 527H222ZM294 801L324 724L104 638L83 687L294 801Z" />
<glyph unicode="&#xee;" glyph-name="icircumflex" horiz-adv-x="279" d="M222 527L148 0H57L131 527H222ZM68 634L31 679L180 792H240L359 679L315 634L202 718L68 634Z" />
<glyph unicode="&#xef;" glyph-name="idieresis" horiz-adv-x="279" d="M222 527L148 0H57L131 527H222ZM69 654T54 668T39 705Q39 732 57 749T102 767Q125 767 140 753T155 716Q155 689 137 672T92 654Q69 654 54 668ZM277 654T262 668T247 705Q247 732 265 749T310
767Q333 767 348 753T363 716Q363 689 345 672T300 654Q277 654 262 668Z" />
<glyph unicode="&#xf0;" glyph-name="eth" horiz-adv-x="574" d="M455 608T483 539T512 377Q512 266 482 178T391 39T240 -12Q155 -12 102 41T49 190Q49 256 74 321T152 431T281 475Q373 475 421 413Q418 475 398 523T335 610L252 539L192 571L278 647Q232 668
171 680L196 749Q282 731 336 700L418 776L466 729L392 660Q455 608 483 539ZM324 61T367 136T418 328Q379 403 293 403Q211 403 177 338T142 188Q142 125 168 93T242 61Q324 61 367 136Z" />
<glyph unicode="&#xf1;" glyph-name="ntilde" horiz-adv-x="580" d="M442 539T475 504T509 406Q509 390 506 370L454 0H363L415 368Q417 390 417 397Q417 432 402 447T359 462Q313 462 271 421T192 316L148 0H57L131 527H209L201 424Q240 479 285 509T384 539Q442
539 475 504ZM387 656T371 664T336 686Q324 695 316 699T299 704Q281 704 267 692T236 656L184 688Q237 774 301 774Q323 774 337 767T370 745Q383 735 391 731T408 726Q424 726 438 737T469 772L523 740Q498 698 469 677T410 656Q387 656 371 664Z" />
<glyph unicode="&#xf2;" glyph-name="ograve" horiz-adv-x="578" d="M157 -12T105 46T52 206Q52 280 79 356T168 486T325 539Q422 539 474 481T526 321Q526 248 499 172T411 42T254 -12Q157 -12 105 46ZM320 62T359 105T414 210T430 331Q430 465 322 465Q259 465
220 422T165 317T148 196Q148 62 257 62Q320 62 359 105ZM292 801L475 687L446 638L247 724L292 801Z" />
<glyph unicode="&#xf3;" glyph-name="oacute" horiz-adv-x="578" d="M157 -12T105 46T52 206Q52 280 79 356T168 486T325 539Q422 539 474 481T526 321Q526 248 499 172T411 42T254 -12Q157 -12 105 46ZM320 62T359 105T414 210T430 331Q430 465 322 465Q259 465
220 422T165 317T148 196Q148 62 257 62Q320 62 359 105ZM444 801L474 724L254 638L233 687L444 801Z" />
<glyph unicode="&#xf4;" glyph-name="ocircumflex" horiz-adv-x="578" d="M157 -12T105 46T52 206Q52 280 79 356T168 486T325 539Q422 539 474 481T526 321Q526 248 499 172T411 42T254 -12Q157 -12 105 46ZM320 62T359 105T414 210T430 331Q430 465 322 465Q259
465 220 422T165 317T148 196Q148 62 257 62Q320 62 359 105ZM218 634L181 679L330 792H390L509 679L465 634L352 718L218 634Z" />
<glyph unicode="&#xf5;" glyph-name="otilde" horiz-adv-x="578" d="M157 -12T105 46T52 206Q52 280 79 356T168 486T325 539Q422 539 474 481T526 321Q526 248 499 172T411 42T254 -12Q157 -12 105 46ZM320 62T359 105T414 210T430 331Q430 465 322 465Q259 465
220 422T165 317T148 196Q148 62 257 62Q320 62 359 105ZM386 656T370 664T335 686Q323 695 315 699T298 704Q280 704 266 692T235 656L183 688Q236 774 300 774Q322 774 336 767T369 745Q382 735 390 731T407 726Q423 726 437 737T468 772L522 740Q497 698 468
677T409 656Q386 656 370 664Z" />
<glyph unicode="&#xf6;" glyph-name="odieresis" horiz-adv-x="578" d="M157 -12T105 46T52 206Q52 280 79 356T168 486T325 539Q422 539 474 481T526 321Q526 248 499 172T411 42T254 -12Q157 -12 105 46ZM320 62T359 105T414 210T430 331Q430 465 322 465Q259
465 220 422T165 317T148 196Q148 62 257 62Q320 62 359 105ZM219 654T204 668T189 705Q189 732 207 749T252 767Q275 767 290 753T305 716Q305 689 287 672T242 654Q219 654 204 668ZM427 654T412 668T397 705Q397 732 415 749T460 767Q483 767 498 753T513 716Q513
689 495 672T450 654Q427 654 412 668Z" />
<glyph unicode="&#xf7;" glyph-name="divide" horiz-adv-x="494" d="M195 35T178 53T160 98Q160 130 181 152T234 174Q262 174 279 156T297 111Q297 79 275 57T222 35Q195 35 178 53ZM259 492T242 510T224 555Q224 587 245 609T298 631Q326 631 343 613T361 568Q361
536 339 514T286 492Q259 492 242 510ZM65 294L76 371H448L437 294H65Z" />
<glyph unicode="&#xf8;" glyph-name="oslash" horiz-adv-x="578" d="M485 478T505 431T526 321Q526 248 499 172T411 42T254 -12Q228 -12 201 -7L146 -130L73 -108L133 21Q93 48 73 95T52 206Q52 280 79 356T168 486T325 539Q351 539 378 534L433 656L506 634L447
508L446 506Q485 478 505 431ZM259 465T220 422T165 317T148 196Q148 119 178 89L353 462Q338 465 322 465Q259 465 220 422ZM320 62T359 105T414 210T430 331Q430 404 402 437L226 64Q246 62 257 62Q320 62 359 105Z" />
<glyph unicode="&#xf9;" glyph-name="ugrave" horiz-adv-x="576" d="M139 -12T105 22T70 118Q70 135 73 153L126 527H217L165 157Q162 139 162 124Q162 90 176 75T220 60Q265 60 303 94T380 184L428 527H519L445 0H367L374 97Q335 43 294 16T200 -12Q139 -12 105
22ZM289 801L472 687L443 638L244 724L289 801Z" />
<glyph unicode="&#xfa;" glyph-name="uacute" horiz-adv-x="576" d="M139 -12T105 22T70 118Q70 135 73 153L126 527H217L165 157Q162 139 162 124Q162 90 176 75T220 60Q265 60 303 94T380 184L428 527H519L445 0H367L374 97Q335 43 294 16T200 -12Q139 -12 105
22ZM441 801L471 724L251 638L230 687L441 801Z" />
<glyph unicode="&#xfb;" glyph-name="ucircumflex" horiz-adv-x="576" d="M139 -12T105 22T70 118Q70 135 73 153L126 527H217L165 157Q162 139 162 124Q162 90 176 75T220 60Q265 60 303 94T380 184L428 527H519L445 0H367L374 97Q335 43 294 16T200 -12Q139
-12 105 22ZM215 634L178 679L327 792H387L506 679L462 634L349 718L215 634Z" />
<glyph unicode="&#xfc;" glyph-name="udieresis" horiz-adv-x="576" d="M139 -12T105 22T70 118Q70 135 73 153L126 527H217L165 157Q162 139 162 124Q162 90 176 75T220 60Q265 60 303 94T380 184L428 527H519L445 0H367L374 97Q335 43 294 16T200 -12Q139 -12
105 22ZM216 654T201 668T186 705Q186 732 204 749T249 767Q272 767 287 753T302 716Q302 689 284 672T239 654Q216 654 201 668ZM424 654T409 668T394 705Q394 732 412 749T457 767Q480 767 495 753T510 716Q510 689 492 672T447 654Q424 654 409 668Z" />
<glyph unicode="&#xfd;" glyph-name="yacute" horiz-adv-x="486" d="M270 -5Q229 -96 164 -149T-5 -213L-9 -141Q45 -132 78 -115T135 -72T182 0H148L47 527H143L217 70L419 527H514L270 -5ZM398 801L428 724L208 638L187 687L398 801Z" />
<glyph unicode="&#xfe;" glyph-name="thorn" horiz-adv-x="579" d="M444 539T486 485T528 332Q528 250 499 172T407 41T246 -12Q196 -12 148 8L119 -204L26 -217L161 739L253 750L214 474Q251 507 288 523T368 539Q444 539 486 485ZM314 61T354 103T414 210T433
339Q433 466 339 466Q301 466 269 446T203 390L160 78Q186 69 206 65T253 61Q314 61 354 103Z" />
<glyph unicode="&#xff;" glyph-name="ydieresis" horiz-adv-x="486" d="M270 -5Q229 -96 164 -149T-5 -213L-9 -141Q45 -132 78 -115T135 -72T182 0H148L47 527H143L217 70L419 527H514L270 -5ZM173 654T158 668T143 705Q143 732 161 749T206 767Q229 767 244
753T259 716Q259 689 241 672T196 654Q173 654 158 668ZM381 654T366 668T351 705Q351 732 369 749T414 767Q437 767 452 753T467 716Q467 689 449 672T404 654Q381 654 366 668Z" />
<glyph unicode="&#x2013;" glyph-name="endash" horiz-adv-x="514" d="M32 274L43 352H495L484 274H32Z" />
<glyph unicode="&#x2014;" glyph-name="emdash" horiz-adv-x="780" d="M32 274L43 352H761L750 274H32Z" />
<glyph unicode="&#x2018;" glyph-name="quoteleft" horiz-adv-x="222" d="M114 490T98 505T81 545Q81 563 85 576T104 613L191 753H252L187 599Q209 583 209 553Q209 526 189 508T140 490Q114 490 98 505Z" />
<glyph unicode="&#x2019;" glyph-name="quoteright" horiz-adv-x="222" d="M209 753T225 738T242 698Q242 680 238 667T219 630L132 490H71L136 644Q114 660 114 690Q114 717 134 735T183 753Q209 753 225 738Z" />
<glyph unicode="&#x201a;" glyph-name="quotesinglbase" horiz-adv-x="222" d="M118 107T134 92T151 52Q151 34 147 21T128 -16L41 -156H-20L45 -2Q23 14 23 44Q23 71 43 89T92 107Q118 107 134 92Z" />
<glyph unicode="&#x201c;" glyph-name="quotedblleft" horiz-adv-x="400" d="M114 490T98 505T81 545Q81 563 85 576T104 613L191 753H252L187 599Q209 583 209 553Q209 526 189 508T140 490Q114 490 98 505ZM292 490T276 505T259 545Q259 563 263 576T282 613L369
753H430L365 599Q387 583 387 553Q387 526 367 508T318 490Q292 490 276 505Z" />
<glyph unicode="&#x201d;" glyph-name="quotedblright" horiz-adv-x="400" d="M209 753T225 738T242 698Q242 680 238 667T219 630L132 490H71L136 644Q114 660 114 690Q114 717 134 735T183 753Q209 753 225 738ZM387 753T403 738T420 698Q420 680 416 667T397
630L310 490H249L314 644Q292 660 292 690Q292 717 312 735T361 753Q387 753 403 738Z" />
<glyph unicode="&#x201e;" glyph-name="quotedblbase" horiz-adv-x="400" d="M118 107T134 92T151 52Q151 34 147 21T128 -16L41 -156H-20L45 -2Q23 14 23 44Q23 71 43 89T92 107Q118 107 134 92ZM296 107T312 92T329 52Q329 34 325 21T306 -16L219 -156H158L223
-2Q201 14 201 44Q201 71 221 89T270 107Q296 107 312 92Z" />
<glyph unicode="&#x2022;" glyph-name="bullet" horiz-adv-x="318" d="M226 454T253 426T281 354Q281 301 245 265T158 229Q114 229 87 257T59 328Q59 381 95 417T182 454Q226 454 253 426Z" />
<glyph unicode="&#x2039;" glyph-name="guilsinglleft" horiz-adv-x="334" d="M259 535L314 497L150 287L255 77L198 39L53 255L60 318L259 535Z" />
<glyph unicode="&#x203a;" glyph-name="guilsinglright" horiz-adv-x="334" d="M141 535L287 318L280 255L79 39L26 77L189 287L85 497L141 535Z" />
</font>
</defs>
</svg>
