<?xml version="1.0" encoding="UTF-8"?>
<svg xmlns="http://www.w3.org/2000/svg" xmlns:xlink="http://www.w3.org/1999/xlink" width="295.9200000000001" height="86.4" viewBox="0 -6.799999999999997 295.9200000000001 100" preserveAspectRatio="xMinYMid meet"><path d="M14.04 67.32L7.20 67.32L7.20 17.71L33.55 17.71L32.76 23.18L14.04 23.18L14.04 40.10L30.24 40.10L30.24 45.50L14.04 45.50L14.04 67.32ZM42.19 29.38L48.82 29.38L48.82 67.32L42.19 67.32L42.19 29.38ZM45.43 11.16Q47.52 11.16 48.82 12.46Q50.11 13.75 50.11 15.70L50.11 15.70Q50.11 17.64 48.82 18.90Q47.52 20.16 45.43 20.16L45.43 20.16Q43.42 20.16 42.12 18.90Q40.82 17.64 40.82 15.70L40.82 15.70Q40.82 13.75 42.12 12.46Q43.42 11.16 45.43 11.16L45.43 11.16ZM78.98 28.51Q81 28.51 82.73 28.94L82.73 28.94L81.50 35.42Q79.78 34.99 78.19 34.99L78.19 34.99Q74.66 34.99 72.50 37.58Q70.34 40.18 69.12 45.65L69.12 45.65L69.12 67.32L62.50 67.32L62.50 29.38L68.18 29.38L68.83 37.08Q70.34 32.83 72.94 30.67Q75.53 28.51 78.98 28.51L78.98 28.51ZM115.85 58.46Q115.85 60.77 116.64 61.88Q117.43 63.00 119.02 63.58L119.02 63.58L117.50 68.18Q114.55 67.82 112.75 66.53Q110.95 65.23 110.09 62.50L110.09 62.50Q106.27 68.18 98.78 68.18L98.78 68.18Q93.17 68.18 89.93 65.02Q86.69 61.85 86.69 56.74L86.69 56.74Q86.69 50.69 91.04 47.45Q95.40 44.21 103.39 44.21L103.39 44.21L109.22 44.21L109.22 41.40Q109.22 37.37 107.28 35.64Q105.34 33.91 101.30 33.91L101.30 33.91Q97.13 33.91 91.08 35.93L91.08 35.93L89.42 31.10Q96.48 28.51 102.53 28.51L102.53 28.51Q109.22 28.51 112.54 31.79Q115.85 35.06 115.85 41.11L115.85 41.11L115.85 58.46ZM100.30 63.22Q105.98 63.22 109.22 57.31L109.22 57.31L109.22 48.60L104.26 48.60Q93.74 48.60 93.74 56.38L93.74 56.38Q93.74 59.76 95.40 61.49Q97.06 63.22 100.30 63.22L100.30 63.22ZM161.14 16.85Q166.10 16.85 169.63 18.25Q173.16 19.66 176.47 22.61L176.47 22.61L172.73 26.78Q169.92 24.55 167.22 23.51Q164.52 22.46 161.42 22.46L161.42 22.46Q157.54 22.46 155.02 24.26Q152.50 26.06 152.50 29.52L152.50 29.52Q152.50 31.68 153.36 33.16Q154.22 34.63 156.56 35.86Q158.90 37.08 163.37 38.45L163.37 38.45Q168.05 39.89 171.14 41.54Q174.24 43.20 176.15 46.12Q178.06 49.03 178.06 53.50L178.06 53.50Q178.06 57.82 175.93 61.13Q173.81 64.44 169.81 66.31Q165.82 68.18 160.34 68.18L160.34 68.18Q150.05 68.18 143.50 61.78L143.50 61.78L147.24 57.60Q150.26 60.05 153.36 61.31Q156.46 62.57 160.27 62.57L160.27 62.57Q164.88 62.57 167.90 60.30Q170.93 58.03 170.93 53.71L170.93 53.71Q170.93 51.26 169.99 49.64Q169.06 48.02 166.79 46.73Q164.52 45.43 160.20 44.14L160.20 44.14Q152.57 41.83 149.04 38.59Q145.51 35.35 145.51 29.81L145.51 29.81Q145.51 26.06 147.49 23.11Q149.47 20.16 153.04 18.50Q156.60 16.85 161.14 16.85L161.14 16.85ZM213.34 58.46Q213.34 60.77 214.13 61.88Q214.92 63.00 216.50 63.58L216.50 63.58L214.99 68.18Q212.04 67.82 210.24 66.53Q208.44 65.23 207.58 62.50L207.58 62.50Q203.76 68.18 196.27 68.18L196.27 68.18Q190.66 68.18 187.42 65.02Q184.18 61.85 184.18 56.74L184.18 56.74Q184.18 50.69 188.53 47.45Q192.89 44.21 200.88 44.21L200.88 44.21L206.71 44.21L206.71 41.40Q206.71 37.37 204.77 35.64Q202.82 33.91 198.79 33.91L198.79 33.91Q194.62 33.91 188.57 35.93L188.57 35.93L186.91 31.10Q193.97 28.51 200.02 28.51L200.02 28.51Q206.71 28.51 210.02 31.79Q213.34 35.06 213.34 41.11L213.34 41.11L213.34 58.46ZM197.78 63.22Q203.47 63.22 206.71 57.31L206.71 57.31L206.71 48.60L201.74 48.60Q191.23 48.60 191.23 56.38L191.23 56.38Q191.23 59.76 192.89 61.49Q194.54 63.22 197.78 63.22L197.78 63.22ZM244.80 28.51Q249.98 28.51 252.90 31.61Q255.82 34.70 255.82 40.10L255.82 40.10L255.82 67.32L249.19 67.32L249.19 41.04Q249.19 37.01 247.68 35.35Q246.17 33.70 243.22 33.70L243.22 33.70Q240.19 33.70 237.89 35.42Q235.58 37.15 233.57 40.39L233.57 40.39L233.57 67.32L226.94 67.32L226.94 29.38L232.63 29.38L233.21 34.99Q235.22 31.97 238.21 30.24Q241.20 28.51 244.80 28.51L244.80 28.51ZM279.43 28.51Q283.32 28.51 286.42 29.59Q289.51 30.67 292.32 32.83L292.32 32.83L289.51 37.01Q286.92 35.35 284.58 34.56Q282.24 33.77 279.65 33.77L279.65 33.77Q276.41 33.77 274.54 35.10Q272.66 36.43 272.66 38.74L272.66 38.74Q272.66 41.04 274.43 42.34Q276.19 43.63 280.80 44.86L280.80 44.86Q287.14 46.44 290.27 49.18Q293.40 51.91 293.40 56.66L293.40 56.66Q293.40 62.28 289.04 65.23Q284.69 68.18 278.42 68.18L278.42 68.18Q269.78 68.18 264.10 63.22L264.10 63.22L267.62 59.18Q272.45 62.86 278.28 62.86L278.28 62.86Q282.02 62.86 284.22 61.31Q286.42 59.76 286.42 57.10L286.42 57.10Q286.42 55.15 285.62 53.96Q284.83 52.78 282.89 51.88Q280.94 50.98 277.20 49.97L277.20 49.97Q271.15 48.38 268.45 45.72Q265.75 43.06 265.75 38.95L265.75 38.95Q265.75 36 267.52 33.59Q269.28 31.18 272.41 29.84Q275.54 28.51 279.43 28.51L279.43 28.51Z"/></svg>