<?xml version="1.0" encoding="UTF-8"?>
<svg xmlns="http://www.w3.org/2000/svg" xmlns:xlink="http://www.w3.org/1999/xlink" width="311.61600000000004" height="93.60000000000001" viewBox="0 -3.1999999999999957 311.61600000000004 100" preserveAspectRatio="xMinYMid meet"><path d="M12.74 73.80L6.70 73.80L6.70 23.54L26.71 23.54Q33.48 23.54 37.12 27.40Q40.75 31.25 40.75 37.94L40.75 37.94Q40.75 44.64 37.12 48.49Q33.48 52.34 26.71 52.34L26.71 52.34L12.74 52.34L12.74 73.80ZM12.74 28.87L12.74 47.02L26.71 47.02Q30.31 47.02 32.29 45.14Q34.27 43.27 34.27 39.82L34.27 39.82L34.27 36.07Q34.27 32.62 32.29 30.74Q30.31 28.87 26.71 28.87L26.71 28.87L12.74 28.87ZM60.98 73.80L55.87 73.80Q52.85 73.80 51.30 72.11Q49.75 70.42 49.75 67.82L49.75 67.82L49.75 20.52L55.51 20.52L55.51 68.76L60.98 68.76L60.98 73.80ZM83.30 74.66L83.30 74.66Q79.49 74.66 76.43 73.30Q73.37 71.93 71.17 69.37Q68.98 66.82 67.79 63.25Q66.60 59.69 66.60 55.22L66.60 55.22Q66.60 50.83 67.79 47.23Q68.98 43.63 71.17 41.08Q73.37 38.52 76.43 37.15Q79.49 35.78 83.30 35.78L83.30 35.78Q87.05 35.78 90.00 37.15Q92.95 38.52 95.04 40.93Q97.13 43.34 98.24 46.66Q99.36 49.97 99.36 53.93L99.36 53.93L99.36 56.66L72.65 56.66L72.65 58.39Q72.65 60.77 73.40 62.82Q74.16 64.87 75.56 66.38Q76.97 67.90 79.02 68.76Q81.07 69.62 83.66 69.62L83.66 69.62Q87.19 69.62 89.82 67.97Q92.45 66.31 93.89 63.22L93.89 63.22L97.99 66.17Q96.19 69.98 92.38 72.32Q88.56 74.66 83.30 74.66ZM83.30 40.61L83.30 40.61Q80.93 40.61 78.98 41.44Q77.04 42.26 75.64 43.78Q74.23 45.29 73.44 47.34Q72.65 49.39 72.65 51.84L72.65 51.84L72.65 52.34L93.17 52.34L93.17 51.55Q93.17 46.58 90.47 43.60Q87.77 40.61 83.30 40.61ZM109.80 73.80L103.39 73.80L117.14 55.08L103.97 36.65L110.74 36.65L120.17 50.47L120.38 50.47L130.18 36.65L136.58 36.65L123.48 54.65L136.87 73.80L130.10 73.80L120.46 59.26L120.24 59.26L109.80 73.80ZM176.18 74.66L176.18 74.66Q170.06 74.66 165.74 72.32Q161.42 69.98 158.40 65.88L158.40 65.88L162.86 62.14Q165.53 65.66 168.77 67.50Q172.01 69.34 176.40 69.34L176.40 69.34Q181.80 69.34 184.64 66.74Q187.49 64.15 187.49 59.83L187.49 59.83Q187.49 56.23 185.33 54.29Q183.17 52.34 178.20 51.19L178.20 51.19L174.10 50.26Q167.18 48.67 163.55 45.47Q159.91 42.26 159.91 36.43L159.91 36.43Q159.91 33.12 161.14 30.53Q162.36 27.94 164.56 26.21Q166.75 24.48 169.81 23.58Q172.87 22.68 176.54 22.68L176.54 22.68Q182.23 22.68 186.30 24.77Q190.37 26.86 193.18 30.89L193.18 30.89L188.64 34.20Q186.55 31.32 183.60 29.66Q180.65 28.01 176.26 28.01L176.26 28.01Q171.43 28.01 168.66 30.06Q165.89 32.11 165.89 36.22L165.89 36.22Q165.89 39.82 168.23 41.65Q170.57 43.49 175.32 44.57L175.32 44.57L179.42 45.50Q186.84 47.16 190.15 50.54Q193.46 53.93 193.46 59.54L193.46 59.54Q193.46 63.00 192.28 65.81Q191.09 68.62 188.86 70.56Q186.62 72.50 183.42 73.58Q180.22 74.66 176.18 74.66ZM233.57 73.80L230.33 73.80Q227.09 73.80 225.68 72.07Q224.28 70.34 223.92 67.75L223.92 67.75L223.56 67.75Q222.34 71.21 219.53 72.94Q216.72 74.66 212.83 74.66L212.83 74.66Q206.93 74.66 203.65 71.64Q200.38 68.62 200.38 63.43L200.38 63.43Q200.38 58.18 204.23 55.37Q208.08 52.56 216.22 52.56L216.22 52.56L223.56 52.56L223.56 48.89Q223.56 44.93 221.40 42.84Q219.24 40.75 214.78 40.75L214.78 40.75Q211.39 40.75 209.12 42.26Q206.86 43.78 205.34 46.30L205.34 46.30L201.89 43.06Q203.40 40.03 206.71 37.91Q210.02 35.78 215.06 35.78L215.06 35.78Q221.83 35.78 225.58 39.10Q229.32 42.41 229.32 48.31L229.32 48.31L229.32 68.76L233.57 68.76L233.57 73.80ZM213.77 69.77L213.77 69.77Q215.93 69.77 217.73 69.26Q219.53 68.76 220.82 67.82Q222.12 66.89 222.84 65.66Q223.56 64.44 223.56 63.00L223.56 63.00L223.56 56.88L215.93 56.88Q210.96 56.88 208.69 58.32Q206.42 59.76 206.42 62.50L206.42 62.50L206.42 64.01Q206.42 66.74 208.40 68.26Q210.38 69.77 213.77 69.77ZM247.54 73.80L241.78 73.80L241.78 36.65L247.54 36.65L247.54 42.70L247.82 42.70Q249.19 39.53 251.68 37.66Q254.16 35.78 258.34 35.78L258.34 35.78Q264.10 35.78 267.44 39.49Q270.79 43.20 270.79 49.97L270.79 49.97L270.79 73.80L265.03 73.80L265.03 50.98Q265.03 40.97 256.61 40.97L256.61 40.97Q254.88 40.97 253.26 41.40Q251.64 41.83 250.34 42.70Q249.05 43.56 248.29 44.89Q247.54 46.22 247.54 48.02L247.54 48.02L247.54 73.80ZM293.83 74.66L293.83 74.66Q288.65 74.66 285.16 72.68Q281.66 70.70 279.14 67.39L279.14 67.39L283.25 64.08Q285.41 66.82 288.07 68.29Q290.74 69.77 294.26 69.77L294.26 69.77Q297.94 69.77 299.99 68.18Q302.04 66.60 302.04 63.72L302.04 63.72Q302.04 61.56 300.64 60.01Q299.23 58.46 295.56 57.89L295.56 57.89L292.61 57.46Q290.02 57.10 287.86 56.34Q285.70 55.58 284.08 54.32Q282.46 53.06 281.56 51.19Q280.66 49.32 280.66 46.73L280.66 46.73Q280.66 43.99 281.66 41.94Q282.67 39.89 284.44 38.52Q286.20 37.15 288.65 36.47Q291.10 35.78 293.90 35.78L293.90 35.78Q298.44 35.78 301.50 37.37Q304.56 38.95 306.86 41.76L306.86 41.76L303.05 45.22Q301.82 43.49 299.45 42.08Q297.07 40.68 293.47 40.68L293.47 40.68Q289.87 40.68 288.04 42.23Q286.20 43.78 286.20 46.44L286.20 46.44Q286.20 49.18 288.04 50.40Q289.87 51.62 293.33 52.20L293.33 52.20L296.21 52.63Q302.40 53.57 304.99 56.20Q307.58 58.82 307.58 63.07L307.58 63.07Q307.58 68.47 303.91 71.57Q300.24 74.66 293.83 74.66Z"/></svg>