<?xml version="1.0" encoding="utf-8"?>
<!-- Generator: Adobe Illustrator 16.0.0, SVG Export Plug-In . SVG Version: 6.00 Build 0)  -->
<!DOCTYPE svg PUBLIC "-//W3C//DTD SVG 1.1//EN" "http://www.w3.org/Graphics/SVG/1.1/DTD/svg11.dtd">
<svg version="1.1" id="Layer_1" xmlns="http://www.w3.org/2000/svg" xmlns:xlink="http://www.w3.org/1999/xlink" x="0px" y="0px"
	 width="86.545px" height="73.453px" viewBox="100.751 -4.242 86.545 73.453" enable-background="new 100.751 -4.242 86.545 73.453"
	 xml:space="preserve">
<path fill="#fc625d" d="M145.968,17.405"/>
<g>
	<path fill="#fc625d" d="M162.105,0c-8.768,0-14.711,3.928-18.033,7.15C140.746,3.929,134.802,0,126.037,0
		c-14.205,0-25.286,10.98-25.286,24.983c0,10.882,7.554,18.234,15.01,23.978c11.99,9.271,28.009,20.151,28.21,20.25l0,0l0,0
		c0.201-0.099,16.221-11.08,28.211-20.25c7.459-5.74,15.113-13.096,15.113-23.978C187.392,10.981,176.314,0,162.105,0z
		 M167.234,43.102c-7.979,6.129-17.809,13.041-23.162,16.736c-5.354-3.695-15.184-10.607-23.166-16.736
		c-8.563-6.617-11.872-11.584-11.872-17.715c0-9.733,7.688-17.326,17.616-17.326c9.927,0,17.422,11,17.422,11s7.203-11,17.423-11
		c9.827,0,17.61,7.592,17.61,17.326C179.105,31.518,175.798,36.485,167.234,43.102z"/>
</g>
</svg>
