<?xml version="1.0" encoding="UTF-8"?>
<svg xmlns="http://www.w3.org/2000/svg" xmlns:xlink="http://www.w3.org/1999/xlink" width="376.56000000000006" height="84.456" viewBox="0 -7.7719999999999985 376.56000000000006 100" preserveAspectRatio="xMinYMid meet"><path d="M23.76 66.96L16.63 66.96L2.59 19.44L8.57 19.44L20.30 61.70L31.46 19.44L38.02 19.44L49.18 61.85L60.91 19.44L66.60 19.44L52.63 66.96L45.50 66.96L37.08 36.14L34.63 25.42L34.56 25.42L32.11 36.14L23.76 66.96ZM90.79 30.24L90.79 30.24Q95.90 30.24 99.83 32.47Q103.75 34.70 105.98 38.92Q108.22 43.13 108.22 48.96L108.22 48.96Q108.22 54.79 105.98 59.00Q103.75 63.22 99.83 65.45Q95.90 67.68 90.79 67.68L90.79 67.68Q85.75 67.68 81.79 65.45Q77.83 63.22 75.60 59.00Q73.37 54.79 73.37 48.96L73.37 48.96Q73.37 43.13 75.60 38.92Q77.83 34.70 81.79 32.47Q85.75 30.24 90.79 30.24ZM90.79 35.21L90.79 35.21Q87.12 35.21 84.53 36.86Q81.94 38.52 80.53 41.58Q79.13 44.64 79.13 48.96L79.13 48.96Q79.13 53.21 80.53 56.30Q81.94 59.40 84.53 61.06Q87.12 62.71 90.79 62.71L90.79 62.71Q94.46 62.71 97.06 61.06Q99.65 59.40 101.05 56.30Q102.46 53.21 102.46 48.96L102.46 48.96Q102.46 44.64 101.05 41.58Q99.65 38.52 97.06 36.86Q94.46 35.21 90.79 35.21ZM124.85 66.96L119.09 66.96L119.09 30.96L123.77 30.96L124.56 36.86Q126.07 33.55 128.99 31.90Q131.90 30.24 136.08 30.24L136.08 30.24Q137.02 30.24 138.13 30.38Q139.25 30.53 140.04 30.96L140.04 30.96L139.03 36.22Q138.24 35.93 137.30 35.78Q136.37 35.64 134.64 35.64L134.64 35.64Q132.41 35.64 130.14 36.94Q127.87 38.23 126.36 40.86Q124.85 43.49 124.85 47.52L124.85 47.52L124.85 66.96ZM172.80 30.96L180.07 30.96L164.52 46.51L163.15 47.88L151.34 59.69L151.34 52.49L172.80 30.96ZM148.46 14.40L154.22 14.40L154.22 66.96L148.46 66.96L148.46 14.40ZM160.20 46.80L165.02 43.56L180.94 66.96L173.95 66.96L160.20 46.80ZM230.18 18.72L230.18 18.72Q236.45 18.72 240.98 21.28Q245.52 23.83 248.54 28.80L248.54 28.80L243.72 32.54Q241.06 27.94 237.71 26.03Q234.36 24.12 229.61 24.12L229.61 24.12Q225.79 24.12 223.31 25.20Q220.82 26.28 219.67 28.04Q218.52 29.81 218.52 32.04L218.52 32.04Q218.52 34.56 220.10 36.47Q221.69 38.38 226.44 39.46L226.44 39.46L236.74 41.76Q243.58 43.27 246.28 46.33Q248.98 49.39 248.98 53.93L248.98 53.93Q248.98 57.96 246.71 61.09Q244.44 64.22 240.34 65.95Q236.23 67.68 230.69 67.68L230.69 67.68Q225.50 67.68 221.58 66.28Q217.66 64.87 214.85 62.50Q212.04 60.12 210.24 57.17L210.24 57.17L215.28 53.06Q216.65 55.80 218.81 57.89Q220.97 59.98 224.03 61.13Q227.09 62.28 231.05 62.28L231.05 62.28Q234.72 62.28 237.42 61.38Q240.12 60.48 241.56 58.72Q243.00 56.95 243.00 54.43L243.00 54.43Q243.00 52.13 241.49 50.29Q239.98 48.46 235.80 47.52L235.80 47.52L224.64 45.00Q220.25 43.99 217.55 42.23Q214.85 40.46 213.66 38.05Q212.47 35.64 212.47 32.83L212.47 32.83Q212.47 29.02 214.60 25.81Q216.72 22.61 220.72 20.66Q224.71 18.72 230.18 18.72ZM281.02 53.64L281.02 43.70Q281.02 39.67 278.86 37.48Q276.70 35.28 272.74 35.28L272.74 35.28Q268.99 35.28 266.40 36.90Q263.81 38.52 262.58 42.12L262.58 42.12L257.90 39.24Q259.34 35.21 263.23 32.72Q267.12 30.24 272.88 30.24L272.88 30.24Q276.77 30.24 279.94 31.57Q283.10 32.90 284.94 35.60Q286.78 38.30 286.78 42.55L286.78 42.55L286.78 59.98Q286.78 62.57 289.51 62.57L289.51 62.57Q290.88 62.57 292.18 62.21L292.18 62.21L291.89 66.74Q290.45 67.46 288.14 67.46L288.14 67.46Q286.06 67.46 284.40 66.67Q282.74 65.88 281.81 64.26Q280.87 62.64 280.87 60.19L280.87 60.19L280.87 59.47L282.31 59.69Q281.45 62.50 279.36 64.26Q277.27 66.02 274.68 66.85Q272.09 67.68 269.57 67.68L269.57 67.68Q266.40 67.68 263.66 66.60Q260.93 65.52 259.31 63.32Q257.69 61.13 257.69 57.89L257.69 57.89Q257.69 53.86 260.39 51.23Q263.09 48.60 267.91 47.66L267.91 47.66L282.17 44.86L282.17 49.61L270.58 51.98Q267.05 52.70 265.32 54.00Q263.59 55.30 263.59 57.60L263.59 57.60Q263.59 59.83 265.36 61.24Q267.12 62.64 270.36 62.64L270.36 62.64Q272.45 62.64 274.36 62.10Q276.26 61.56 277.78 60.44Q279.29 59.33 280.15 57.64Q281.02 55.94 281.02 53.64L281.02 53.64ZM306.50 66.96L300.74 66.96L300.74 30.96L305.78 30.96L306.29 39.02L305.35 38.23Q306.50 35.35 308.45 33.59Q310.39 31.82 312.95 31.03Q315.50 30.24 318.24 30.24L318.24 30.24Q322.13 30.24 325.30 31.72Q328.46 33.19 330.37 36.22Q332.28 39.24 332.28 43.92L332.28 43.92L332.28 66.96L326.52 66.96L326.52 45.94Q326.52 39.96 323.96 37.62Q321.41 35.28 317.66 35.28L317.66 35.28Q315.07 35.28 312.48 36.50Q309.89 37.73 308.20 40.46Q306.50 43.20 306.50 47.81L306.50 47.81L306.50 66.96ZM358.27 67.68L358.27 67.68Q353.02 67.68 348.59 65.45Q344.16 63.22 341.78 59.11L341.78 59.11L346.68 55.58Q348.26 58.90 351.32 60.77Q354.38 62.64 358.70 62.64L358.70 62.64Q362.52 62.64 364.68 61.16Q366.84 59.69 366.84 57.31L366.84 57.31Q366.84 55.80 365.87 54.54Q364.90 53.28 362.16 52.70L362.16 52.70L353.52 50.90Q348.26 49.82 346.00 47.30Q343.73 44.78 343.73 41.04L343.73 41.04Q343.73 38.09 345.42 35.64Q347.11 33.19 350.24 31.72Q353.38 30.24 357.62 30.24L357.62 30.24Q362.95 30.24 366.62 32.33Q370.30 34.42 372.10 38.23L372.10 38.23L367.27 41.40Q366.05 38.23 363.31 36.76Q360.58 35.28 357.62 35.28L357.62 35.28Q355.03 35.28 353.20 36Q351.36 36.72 350.39 37.98Q349.42 39.24 349.42 40.82L349.42 40.82Q349.42 42.41 350.50 43.74Q351.58 45.07 354.53 45.65L354.53 45.65L363.53 47.52Q368.57 48.53 370.58 50.83Q372.60 53.14 372.60 56.45L372.60 56.45Q372.60 59.83 370.80 62.39Q369.00 64.94 365.76 66.31Q362.52 67.68 358.27 67.68Z"/></svg>