<?xml version="1.0" encoding="UTF-8"?>
<svg xmlns="http://www.w3.org/2000/svg" xmlns:xlink="http://www.w3.org/1999/xlink" width="195.55200000000002" height="72.00000000000001" viewBox="0 -13.999999999999993 195.55200000000002 100" preserveAspectRatio="xMinYMid meet"><path d="M17.14 5.90Q17.14 4.32 18.72 4.32Q20.30 4.32 20.30 5.90Q20.30 7.49 18.72 7.49Q17.14 7.49 17.14 5.90ZM13.25 9Q13.25 10.58 11.66 10.58Q10.08 10.58 10.08 9Q10.08 7.42 11.66 7.42Q13.25 7.42 13.25 9ZM6.41 16.06Q6.41 14.47 7.99 14.47Q9.58 14.47 9.58 16.06Q9.58 17.64 7.99 17.64Q6.41 17.64 6.41 16.06ZM13.03 23.33Q13.03 24.91 11.45 24.91Q9.86 24.91 9.86 23.33Q9.86 21.74 11.45 21.74Q13.03 21.74 13.03 23.33ZM19.44 28.80Q19.44 30.38 17.86 30.38Q16.27 30.38 16.27 28.80Q16.27 27.22 17.86 27.22Q19.44 27.22 19.44 28.80ZM23.04 34.06Q23.04 32.47 24.62 32.47Q26.21 32.47 26.21 34.06Q26.21 35.64 24.62 35.64Q23.04 35.64 23.04 34.06ZM29.38 41.83Q29.38 43.42 27.79 43.42Q26.21 43.42 26.21 41.83Q26.21 40.25 27.79 40.25Q29.38 40.25 29.38 41.83ZM5.62 48.74Q5.62 50.33 4.03 50.33Q2.45 50.33 2.45 48.74Q2.45 47.16 4.03 47.16Q5.62 47.16 5.62 48.74ZM26.42 49.75Q26.42 51.34 24.84 51.34Q23.26 51.34 23.26 49.75Q23.26 48.17 24.84 48.17Q26.42 48.17 26.42 49.75ZM11.81 53.14Q11.81 54.72 10.22 54.72Q8.64 54.72 8.64 53.14Q8.64 51.55 10.22 51.55Q11.81 51.55 11.81 53.14ZM19.58 53.86Q19.58 55.44 18.00 55.44Q16.42 55.44 16.42 53.86Q16.42 52.27 18.00 52.27Q19.58 52.27 19.58 53.86ZM47.02 21.31Q47.02 19.73 48.60 19.73Q50.18 19.73 50.18 21.31Q50.18 22.90 48.60 22.90Q47.02 22.90 47.02 21.31ZM55.01 21.31Q55.01 19.73 56.59 19.73Q58.18 19.73 58.18 21.31Q58.18 22.90 56.59 22.90Q55.01 22.90 55.01 21.31ZM61.78 25.27Q61.78 23.69 63.36 23.69Q64.94 23.69 64.94 25.27Q64.94 26.86 63.36 26.86Q61.78 26.86 61.78 25.27ZM43.99 25.92Q43.99 27.50 42.41 27.50Q40.82 27.50 40.82 25.92Q40.82 24.34 42.41 24.34Q43.99 24.34 43.99 25.92ZM67.32 32.90Q67.32 34.49 65.74 34.49Q64.15 34.49 64.15 32.90Q64.15 31.32 65.74 31.32Q67.32 31.32 67.32 32.90ZM41.04 33.34Q41.04 34.92 39.46 34.92Q37.87 34.92 37.87 33.34Q37.87 31.75 39.46 31.75Q41.04 31.75 41.04 33.34ZM55.44 35.64Q55.44 34.06 57.02 34.06Q58.61 34.06 58.61 35.64Q58.61 37.22 57.02 37.22Q55.44 37.22 55.44 35.64ZM46.66 38.30Q46.66 36.72 48.24 36.72Q49.82 36.72 49.82 38.30Q49.82 39.89 48.24 39.89Q46.66 39.89 46.66 38.30ZM41.04 41.11Q41.04 42.70 39.46 42.70Q37.87 42.70 37.87 41.11Q37.87 39.53 39.46 39.53Q41.04 39.53 41.04 41.11ZM43.85 48.46Q43.85 50.04 42.26 50.04Q40.68 50.04 40.68 48.46Q40.68 46.87 42.26 46.87Q43.85 46.87 43.85 48.46ZM62.78 51.91Q62.78 50.33 64.37 50.33Q65.95 50.33 65.95 51.91Q65.95 53.50 64.37 53.50Q62.78 53.50 62.78 51.91ZM50.18 52.99Q50.18 54.58 48.60 54.58Q47.02 54.58 47.02 52.99Q47.02 51.41 48.60 51.41Q50.18 51.41 50.18 52.99ZM58.18 53.86Q58.18 55.44 56.59 55.44Q55.01 55.44 55.01 53.86Q55.01 52.27 56.59 52.27Q58.18 52.27 58.18 53.86ZM78.34 6.48Q78.34 4.90 79.92 4.90Q81.50 4.90 81.50 6.48Q81.50 8.06 79.92 8.06Q78.34 8.06 78.34 6.48ZM81.50 14.26Q81.50 15.84 79.92 15.84Q78.34 15.84 78.34 14.26Q78.34 12.67 79.92 12.67Q81.50 12.67 81.50 14.26ZM81.50 22.03Q81.50 23.62 79.92 23.62Q78.34 23.62 78.34 22.03Q78.34 20.45 79.92 20.45Q81.50 20.45 81.50 22.03ZM81.50 29.81Q81.50 31.39 79.92 31.39Q78.34 31.39 78.34 29.81Q78.34 28.22 79.92 28.22Q81.50 28.22 81.50 29.81ZM78.34 37.58Q78.34 36 79.92 36Q81.50 36 81.50 37.58Q81.50 39.17 79.92 39.17Q78.34 39.17 78.34 37.58ZM78.34 45.36Q78.34 43.78 79.92 43.78Q81.50 43.78 81.50 45.36Q81.50 46.94 79.92 46.94Q78.34 46.94 78.34 45.36ZM81.50 53.14Q81.50 54.72 79.92 54.72Q78.34 54.72 78.34 53.14Q78.34 51.55 79.92 51.55Q81.50 51.55 81.50 53.14ZM104.54 21.31Q104.54 19.73 106.13 19.73Q107.71 19.73 107.71 21.31Q107.71 22.90 106.13 22.90Q104.54 22.90 104.54 21.31ZM99.65 22.90Q99.65 24.48 98.06 24.48Q96.48 24.48 96.48 22.90Q96.48 21.31 98.06 21.31Q99.65 21.31 99.65 22.90ZM115.63 23.26Q115.63 24.84 114.05 24.84Q112.46 24.84 112.46 23.26Q112.46 21.67 114.05 21.67Q115.63 21.67 115.63 23.26ZM119.66 29.81Q119.66 31.39 118.08 31.39Q116.50 31.39 116.50 29.81Q116.50 28.22 118.08 28.22Q119.66 28.22 119.66 29.81ZM111.38 36.50Q111.38 38.09 109.80 38.09Q108.22 38.09 108.22 36.50Q108.22 34.92 109.80 34.92Q111.38 34.92 111.38 36.50ZM102.82 36.58Q102.82 38.16 101.23 38.16Q99.65 38.16 99.65 36.58Q99.65 34.99 101.23 34.99Q102.82 34.99 102.82 36.58ZM119.66 37.58Q119.66 39.17 118.08 39.17Q116.50 39.17 116.50 37.58Q116.50 36 118.08 36Q119.66 36 119.66 37.58ZM95.83 41.40Q95.83 42.98 94.25 42.98Q92.66 42.98 92.66 41.40Q92.66 39.82 94.25 39.82Q95.83 39.82 95.83 41.40ZM119.66 45.36Q119.66 46.94 118.08 46.94Q116.50 46.94 116.50 45.36Q116.50 43.78 118.08 43.78Q119.66 43.78 119.66 45.36ZM95.83 49.32Q95.83 50.90 94.25 50.90Q92.66 50.90 92.66 49.32Q92.66 47.74 94.25 47.74Q95.83 47.74 95.83 49.32ZM111.31 51.91Q111.31 53.50 109.73 53.50Q108.14 53.50 108.14 51.91Q108.14 50.33 109.73 50.33Q111.31 50.33 111.31 51.91ZM119.66 53.14Q119.66 54.72 118.08 54.72Q116.50 54.72 116.50 53.14Q116.50 51.55 118.08 51.55Q119.66 51.55 119.66 53.14ZM102.96 53.50Q102.96 55.08 101.38 55.08Q99.79 55.08 99.79 53.50Q99.79 51.91 101.38 51.91Q102.96 51.91 102.96 53.50ZM154.08 22.03Q154.08 20.45 155.66 20.45Q157.25 20.45 157.25 22.03Q157.25 23.62 155.66 23.62Q154.08 23.62 154.08 22.03ZM127.58 22.03Q127.58 20.45 129.17 20.45Q130.75 20.45 130.75 22.03Q130.75 23.62 129.17 23.62Q127.58 23.62 127.58 22.03ZM153.94 29.81Q153.94 31.39 152.35 31.39Q150.77 31.39 150.77 29.81Q150.77 28.22 152.35 28.22Q153.94 28.22 153.94 29.81ZM134.06 29.81Q134.06 31.39 132.48 31.39Q130.90 31.39 130.90 29.81Q130.90 28.22 132.48 28.22Q134.06 28.22 134.06 29.81ZM150.62 37.58Q150.62 39.17 149.04 39.17Q147.46 39.17 147.46 37.58Q147.46 36 149.04 36Q150.62 36 150.62 37.58ZM137.38 37.58Q137.38 39.17 135.79 39.17Q134.21 39.17 134.21 37.58Q134.21 36 135.79 36Q137.38 36 137.38 37.58ZM147.53 45.36Q147.53 46.94 145.94 46.94Q144.36 46.94 144.36 45.36Q144.36 43.78 145.94 43.78Q147.53 43.78 147.53 45.36ZM140.47 45.36Q140.47 46.94 138.89 46.94Q137.30 46.94 137.30 45.36Q137.30 43.78 138.89 43.78Q140.47 43.78 140.47 45.36ZM144 53.14Q144 54.72 142.42 54.72Q140.83 54.72 140.83 53.14Q140.83 51.55 142.42 51.55Q144 51.55 144 53.14ZM189.29 22.03Q189.29 20.45 190.87 20.45Q192.46 20.45 192.46 22.03Q192.46 23.62 190.87 23.62Q189.29 23.62 189.29 22.03ZM163.01 22.03Q163.01 20.45 164.59 20.45Q166.18 20.45 166.18 22.03Q166.18 23.62 164.59 23.62Q163.01 23.62 163.01 22.03ZM166.25 29.81Q166.25 28.22 167.83 28.22Q169.42 28.22 169.42 29.81Q169.42 31.39 167.83 31.39Q166.25 31.39 166.25 29.81ZM186.12 29.81Q186.12 28.22 187.70 28.22Q189.29 28.22 189.29 29.81Q189.29 31.39 187.70 31.39Q186.12 31.39 186.12 29.81ZM172.80 37.58Q172.80 39.17 171.22 39.17Q169.63 39.17 169.63 37.58Q169.63 36 171.22 36Q172.80 36 172.80 37.58ZM185.98 37.58Q185.98 39.17 184.39 39.17Q182.81 39.17 182.81 37.58Q182.81 36 184.39 36Q185.98 36 185.98 37.58ZM182.88 45.36Q182.88 46.94 181.30 46.94Q179.71 46.94 179.71 45.36Q179.71 43.78 181.30 43.78Q182.88 43.78 182.88 45.36ZM176.04 45.36Q176.04 46.94 174.46 46.94Q172.87 46.94 172.87 45.36Q172.87 43.78 174.46 43.78Q176.04 43.78 176.04 45.36ZM179.42 53.14Q179.42 54.72 177.84 54.72Q176.26 54.72 176.26 53.14Q176.26 51.55 177.84 51.55Q179.42 51.55 179.42 53.14ZM176.47 60.70Q176.47 59.11 178.06 59.11Q179.64 59.11 179.64 60.70Q179.64 62.28 178.06 62.28Q176.47 62.28 176.47 60.70ZM172.66 67.03Q172.66 65.45 174.24 65.45Q175.82 65.45 175.82 67.03Q175.82 68.62 174.24 68.62Q172.66 68.62 172.66 67.03ZM168.70 68.69Q168.70 70.27 167.11 70.27Q165.53 70.27 165.53 68.69Q165.53 67.10 167.11 67.10Q168.70 67.10 168.70 68.69Z"/></svg>