<?xml version="1.0" encoding="UTF-8"?>
<svg xmlns="http://www.w3.org/2000/svg" xmlns:xlink="http://www.w3.org/1999/xlink" width="607.11328125" height="74.53125" viewBox="0 -12.734375 607.11328125 100" preserveAspectRatio="xMinYMid meet"><path d="M40.54 56.99L40.54 56.99Q36.98 55.27 35.79 53.75L35.79 53.75Q34.52 52.10 34.38 47.81L34.38 47.81Q34.38 47.32 34.05 47.21Q33.71 47.11 33.40 47.46L33.40 47.46Q31.92 49.04 30.43 50.61Q28.93 52.17 27.46 53.75L27.46 53.75Q20.57 60.93 13.01 52.88L13.01 52.88Q10.37 50.10 7.80 49.20Q5.24 48.30 2.81 50.45L2.81 50.45Q2.18 50.94 1.74 50.45Q1.30 49.96 1.97 49.36L1.97 49.36L10.86 41.87L10.90 41.84Q15.36 37.55 14.19 34.37Q13.01 31.18 9.95 28.02L9.95 28.02Q7.35 25.38 5.55 21.60Q3.76 17.82 6.57 13.11L6.57 13.11Q8.79 9.42 12.45 7.79Q16.10 6.15 18.84 6.26L18.84 6.26Q23.77 6.47 25.03 10.28Q26.30 14.10 22.92 16.66L22.92 16.66Q22.15 17.30 21.60 16.65Q21.06 16.00 21.90 15.29L21.90 15.29Q24.75 13.08 23.29 10.60Q21.83 8.12 18.88 7.95L18.88 7.95Q16.73 7.84 14.92 9.39Q13.11 10.93 13.04 13.11L13.04 13.11Q12.90 17.19 14.57 18.74Q16.24 20.29 17.37 21.38L17.37 21.38Q23.13 27.32 22.38 31.71Q21.62 36.11 13.29 41.80L13.29 41.80Q12.90 42.05 12.94 42.38Q12.97 42.71 13.50 42.82L13.50 42.82Q15.68 43.31 16.86 44.63Q18.04 45.95 19.37 47.18L19.37 47.18Q23.91 51.40 27.39 49.92Q30.87 48.45 34.17 44.65L34.17 44.65Q34.31 44.47 34.31 44.26L34.31 44.26L34.10 18.88Q34.10 16.28 32.13 15.50L32.13 15.50Q30.52 14.77 32.20 13.82L32.20 13.82Q35.72 12.13 39.23 10.37Q42.75 8.61 46.30 6.86L46.30 6.86Q46.93 6.50 47.41 6.98Q47.88 7.45 47.14 8.12L47.14 8.12Q44.40 10.09 43.47 13.41Q42.54 16.73 42.57 21.16L42.57 21.16L42.82 45.91Q42.86 51.54 48.20 49.61L48.20 49.61Q48.90 49.32 49.29 49.80Q49.68 50.27 49.15 50.77L49.15 50.77L42.43 56.81Q42.01 57.16 41.48 57.20Q40.96 57.23 40.54 56.99ZM65.36 29.81L65.36 43.80Q65.32 49.46 67.46 50.34L67.46 50.34Q67.71 50.52 67.71 50.82Q67.71 51.12 67.46 51.26L67.46 51.26Q64.30 53.65 62.33 57.62L62.33 57.62Q62.12 57.90 61.80 57.90Q61.49 57.90 61.28 57.62L61.28 57.62Q59.31 53.65 55.93 51.29L55.93 51.29Q55.72 51.15 55.72 50.84Q55.72 50.52 55.97 50.34L55.97 50.34Q58.25 49.46 58.25 43.80L58.25 43.80L58.25 32.13Q58.25 28.55 56.92 27.74L56.92 27.74Q55.37 26.72 54.39 28.48L54.39 28.48Q54 29.21 53.51 28.83Q53.02 28.44 53.54 27.60L53.54 27.60Q54.56 25.98 55.49 24.29Q56.43 22.61 57.41 20.92L57.41 20.92Q57.97 19.90 58.99 20.50L58.99 20.50L59.03 20.53Q64.20 23.13 65.21 26.89L65.21 26.89Q65.29 27.28 65.57 27.35Q65.85 27.42 66.13 27.21L66.13 27.21Q68.06 25.59 70.10 23.80Q72.14 22.01 72.88 20.50L72.88 20.50Q73.27 19.58 74.14 20.53L74.14 20.53Q76.25 22.75 77.75 24.05Q79.24 25.35 82.83 25.98L82.83 25.98Q83.46 26.12 83.48 26.53Q83.50 26.93 83.04 27.07L83.04 27.07Q82.13 27.42 81.42 28.28Q80.72 29.14 80.72 31.15L80.72 31.15L80.72 46.02Q80.72 49.61 82.05 50.41L82.05 50.41Q83.60 51.36 84.55 49.64L84.55 49.64Q84.94 48.97 85.45 49.34Q85.96 49.71 85.43 50.55L85.43 50.55Q84.38 52.21 83.44 53.88Q82.51 55.55 81.56 57.20L81.56 57.20Q80.93 58.18 79.98 57.66L79.98 57.66Q73.58 54.56 73.58 48.48L73.58 48.48L73.62 30.48Q73.62 29.43 73.09 29.11L73.09 29.11L73.05 29.11L73.05 29.04L70.07 26.58Q69.68 26.30 69.26 26.54L69.26 26.54L65.60 29.39Q65.36 29.57 65.36 29.81L65.36 29.81ZM93.41 48.23L93.41 48.23L93.16 28.97Q93.16 28.30 92.95 27.88L92.95 27.88Q92.11 26.51 91.51 27.21L91.51 27.21L90.11 28.65Q89.54 29.29 89.03 28.79Q88.52 28.30 89.19 27.42L89.19 27.42Q90.74 25.49 91.97 23.55Q93.20 21.62 94.50 19.72L94.50 19.72Q95.06 19.05 95.80 19.76L95.80 19.76Q97.28 21.55 98.68 22.90Q100.09 24.26 102.69 25.77L102.69 25.77Q103.43 26.05 103.34 26.44Q103.25 26.82 102.87 26.86L102.87 26.86Q101.95 27.21 101.25 28.07Q100.55 28.93 100.55 30.94L100.55 30.94L100.55 45.81Q100.55 49.39 101.88 50.20L101.88 50.20Q103.43 51.12 104.41 49.43L104.41 49.43Q104.77 48.76 105.28 49.13Q105.79 49.50 105.26 50.34L105.26 50.34Q104.20 52.00 103.29 53.67Q102.38 55.34 101.43 56.99L101.43 56.99Q100.76 57.97 99.77 57.41L99.77 57.41Q96.61 55.90 95.01 53.72Q93.41 51.54 93.41 48.23ZM98.51 6.50L98.51 6.50Q102.41 6.50 102.06 10.27L102.06 10.27Q101.85 12.16 99.69 14.08Q97.52 16.00 96.26 15.96L96.26 15.96Q94.99 15.96 94.32 13.96Q93.66 11.95 93.80 10.27L93.80 10.27Q93.90 8.65 95.36 7.58Q96.82 6.50 98.51 6.50ZM118.76 20.95L118.76 20.95L124.84 20.95Q125.40 20.95 125.40 21.52L125.40 21.52L125.40 23.70Q125.40 24.26 124.84 24.26L124.84 24.26L120.59 24.26Q120.34 24.26 120.15 24.47Q119.95 24.68 120.02 24.89L120.02 24.89Q120.23 26.86 119.92 30.38L119.92 30.38L116.37 67.36Q116.23 68.55 115.66 68.57Q115.10 68.59 114.96 67.29L114.96 67.29Q114.08 56.53 113.17 45.81Q112.25 35.09 111.23 24.33L111.23 24.33L107.16 24.33Q106.63 24.33 106.61 23.82Q106.59 23.31 107.02 23.24L107.02 23.24Q109.30 22.85 110.81 20.88Q112.32 18.91 112.11 15.75L112.11 15.75Q111.87 10.76 113.41 7.37Q114.96 3.97 119.60 5.48L119.60 5.48Q122.17 6.36 124.29 7.01Q126.42 7.66 127.30 6.29L127.30 6.29Q127.72 5.55 128.07 5.66Q128.43 5.77 127.97 7.03L127.97 7.03Q126.70 11.04 124.68 12.43Q122.66 13.82 118.41 11.78L118.41 11.78Q114.29 9.88 113.57 13.66Q112.85 17.44 115.10 18.60L115.10 18.60Q117.28 19.79 117.95 20.57L117.95 20.57Q118.34 20.95 118.76 20.95ZM138.62 30.13L138.62 30.13L138.59 47.18Q138.59 48.30 139.15 48.62L139.15 48.62L141.68 50.10Q142.49 50.59 144.14 48.38L144.14 48.38Q144.49 47.92 145.02 48.18Q145.55 48.45 145.02 49.08L145.02 49.08Q141.33 53.19 139.36 57.16L139.36 57.16Q138.76 57.97 138.06 57.16L138.06 57.16Q136.09 54.88 134.38 53.68Q132.68 52.49 129.38 51.71L129.38 51.71Q128.74 51.54 128.74 51.15Q128.74 50.77 129.20 50.59L129.20 50.59Q131.55 50.20 131.52 46.55L131.52 46.55L131.52 31.68Q131.52 28.09 130.18 27.28L130.18 27.28Q128.64 26.26 127.65 28.02L127.65 28.02Q127.27 28.76 126.77 28.37Q126.28 27.98 126.81 27.14L126.81 27.14Q127.83 25.52 128.76 23.84Q129.69 22.15 130.68 20.46L130.68 20.46Q131.27 19.41 132.26 20.07L132.26 20.07Q137.43 22.57 138.45 26.40L138.45 26.40Q138.55 26.75 138.87 26.84Q139.18 26.93 139.43 26.61L139.43 26.61L144.84 20.39Q145.05 20.18 145.34 20.20Q145.62 20.21 145.79 20.50L145.79 20.50L149.48 27.56Q149.63 27.88 149.41 28.16L149.41 28.16L145.20 33.22Q144.95 33.47 144.65 33.43Q144.35 33.40 144.25 33.12L144.25 33.12L141.40 27.84Q141.26 27.63 140.96 27.58Q140.66 27.53 140.41 27.77L140.41 27.77L138.76 29.78Q138.62 29.92 138.62 30.13ZM169.73 51.54L169.73 51.54Q167.94 52.91 165.80 54.54Q163.65 56.18 161.82 57.55L161.82 57.55Q161.19 58.04 160.82 57.97Q160.45 57.90 160.52 57.34L160.52 57.34Q160.52 56.60 158.34 54.53L158.34 54.53Q152.61 49.15 152.82 40.54L152.82 40.54Q153.04 33.15 159.68 28.05L159.68 28.05Q161.72 26.51 163.49 24.79Q165.27 23.06 166.64 20.60L166.64 20.60Q167.20 19.51 168.19 20.53L168.19 20.53Q173.53 26.58 178.88 27.67L178.88 27.67Q180.56 27.98 179.23 29.00L179.23 29.00Q177.57 30.20 177.43 31.96L177.43 31.96L177.43 32.03L177.54 48.09Q177.54 49.71 178.72 50.31Q179.89 50.91 181.27 49.39L181.27 49.39Q181.79 48.80 182.27 49.10Q182.74 49.39 182.29 50.17L182.29 50.17Q181.02 52.07 179.84 53.89Q178.66 55.72 177.86 57.69L177.86 57.69L177.82 57.73Q177.33 58.54 176.63 57.73L176.63 57.73Q176.24 57.30 175.71 57.16L175.71 57.16Q171.70 56.29 170.65 51.86L170.65 51.86Q170.58 51.64 170.30 51.43L170.30 51.43Q169.98 51.40 169.73 51.54ZM170.12 30.83L170.12 30.83Q167.94 30.23 165.02 27.46L165.02 27.46Q163.62 25.77 162.77 27.14L162.77 27.14Q159.05 32.70 159.86 39.41L159.86 39.41Q160.98 49.01 166.61 51.26L166.61 51.26Q166.64 51.26 166.68 51.29L166.68 51.29Q168.12 51.75 170.16 49.57L170.16 49.57Q170.30 49.36 170.30 49.18L170.30 49.18Q170.26 48.66 170.26 47.53L170.26 47.53L170.58 31.39Q170.58 30.97 170.12 30.83ZM185.55 26.58L185.55 26.58Q185.63 26.09 186.29 25.95L186.29 25.95Q188.44 25.42 189.30 24.13Q190.16 22.85 190.05 19.65L190.05 19.65Q189.67 16.28 188.67 14.13Q187.66 11.99 186.12 10.41L186.12 10.41Q185.52 9.81 186.01 9.39Q186.50 8.96 187.17 9.63L187.17 9.63Q187.98 10.62 188.84 11.74Q189.70 12.87 190.30 14.06L190.30 14.06Q190.48 14.41 190.81 14.41Q191.14 14.41 191.32 14.13L191.32 14.13Q193.43 10.62 197.10 8.46Q200.78 6.29 205.07 6.43L205.07 6.43Q205.80 6.47 205.88 7.12Q205.95 7.77 205.07 7.77L205.07 7.77Q201.59 7.77 199.49 9.77Q197.40 11.78 197.40 17.47L197.40 17.47Q197.40 17.93 197.84 18.05Q198.28 18.18 198.53 17.72L198.53 17.72Q200.67 13.04 205.03 11.81L205.03 11.81Q205.77 11.78 205.77 12.38L205.77 12.38L205.77 18.60Q205.80 19.34 205.14 19.16L205.14 19.16Q201.30 18.67 198.49 21.38L198.49 21.38Q197.96 22.11 198.04 22.89Q198.11 23.66 198.95 23.66L198.95 23.66L205.00 23.66Q205.56 23.66 205.56 24.22L205.56 24.22L205.56 26.47Q205.56 27.07 205.00 27.07L205.00 27.07L197.89 27.07Q197.40 27.07 197.40 27.70L197.40 27.70L197.37 47.53Q197.37 48.66 197.89 48.97L197.89 48.97L200.43 50.41Q201.23 50.80 202.85 48.73L202.85 48.73Q203.20 48.30 203.70 48.66Q204.19 49.01 203.77 49.43L203.77 49.43Q200.07 53.54 198.11 57.52L198.11 57.52Q197.68 58.25 196.84 57.52L196.84 57.52Q195.05 55.16 193.38 53.95Q191.71 52.73 188.16 52.07L188.16 52.07Q187.59 52.00 187.58 51.56Q187.56 51.12 187.95 50.94L187.95 50.94Q188.82 50.63 189.54 49.76Q190.27 48.90 190.27 46.90L190.27 46.90L190.23 27.77Q190.23 27.07 189.53 27.07L189.53 27.07L186.33 27.07Q185.52 27.07 185.55 26.58ZM220.96 27.84L220.96 27.84L220.92 47.53Q220.92 48.62 221.45 48.97L221.45 48.97L223.98 50.41Q224.72 51.05 226.44 48.73L226.44 48.73Q226.76 48.27 227.30 48.59Q227.85 48.90 227.36 49.43L227.36 49.43Q223.59 53.54 221.70 57.52L221.70 57.52Q221.10 58.25 220.39 57.52L220.39 57.52Q218.43 55.20 216.74 54.04Q215.05 52.88 211.71 52.07L211.71 52.07Q211.15 51.96 211.11 51.54Q211.08 51.12 211.54 50.94L211.54 50.94Q213.89 50.38 213.86 46.90L213.86 46.90L213.82 27.88Q213.86 27.25 213.29 27.25L213.29 27.25L209.14 27.25Q208.65 27.25 208.51 26.86L208.51 26.86Q208.37 26.47 208.83 26.19L208.83 26.19Q213.05 23.20 217.42 18.98Q221.80 14.77 225.39 10.97L225.39 10.97Q225.84 10.48 226.28 10.78Q226.72 11.07 226.30 11.64L226.30 11.64Q224.68 13.64 223.05 16.84Q221.41 20.04 221.06 22.68L221.06 22.68Q220.99 23.03 221.10 23.20L221.10 23.20Q221.31 23.41 221.59 23.41L221.59 23.41L227.67 23.41Q227.92 23.41 228.09 23.59L228.09 23.59Q228.27 23.84 228.27 24.05L228.27 24.05L228.13 26.68Q228.06 27.25 227.53 27.25L227.53 27.25L221.45 27.25Q220.96 27.25 220.96 27.84ZM251.96 47.81L251.96 47.81L252 33.15Q252 27.25 249.86 26.61L249.86 26.61Q249.61 26.44 249.61 26.17Q249.61 25.91 249.86 25.70L249.86 25.70Q252.98 23.45 255.02 19.37L255.02 19.37Q255.16 19.05 255.52 19.05Q255.87 19.05 256.04 19.37L256.04 19.37Q257.91 23.41 261.39 25.66L261.39 25.66Q261.63 25.88 261.63 26.17Q261.63 26.47 261.35 26.61L261.35 26.61Q259.03 27.28 259.10 33.15L259.10 33.15L259.10 45.53Q259.10 49.15 260.44 49.96L260.44 49.96Q261.91 50.94 262.93 49.18L262.93 49.18Q263.32 48.52 263.83 48.88Q264.34 49.25 263.81 50.10L263.81 50.10Q262.76 51.71 261.83 53.40Q260.89 55.09 259.95 56.71L259.95 56.71Q259.35 57.73 258.29 57.09L258.29 57.09Q253.05 54.60 252.14 50.77L252.14 50.77Q252.07 50.48 251.72 50.38Q251.37 50.27 251.23 50.48L251.23 50.48Q249.22 52.10 247.22 53.88Q245.21 55.65 244.48 57.13L244.48 57.13Q243.88 57.97 243.18 57.09L243.18 57.09Q241.24 54.84 239.40 53.65Q237.55 52.45 234.49 51.71L234.49 51.71Q233.82 51.47 233.86 51.12Q233.89 50.77 234.32 50.59L234.32 50.59Q235.20 50.27 235.92 49.41Q236.64 48.55 236.64 46.55L236.64 46.55L236.64 31.68Q236.64 28.09 235.30 27.28L235.30 27.28Q233.72 26.33 232.77 28.05L232.77 28.05Q232.38 28.72 231.89 28.34Q231.40 27.95 231.93 27.11L231.93 27.11Q232.95 25.52 233.88 23.84Q234.81 22.15 235.79 20.46L235.79 20.46Q236.39 19.41 237.38 20.07L237.38 20.07L237.41 20.07Q243.77 23.41 243.77 29.21L243.77 29.21L243.70 47.21Q243.70 48.23 244.23 48.59L244.23 48.59L247.25 51.08Q247.61 51.40 248.06 51.15L248.06 51.15Q250.91 48.90 251.75 48.27L251.75 48.27Q251.96 48.13 251.96 47.81ZM279.81 30.13L279.81 30.13L279.77 47.18Q279.77 48.30 280.34 48.62L280.34 48.62L282.87 50.10Q283.68 50.59 285.33 48.38L285.33 48.38Q285.68 47.92 286.21 48.18Q286.73 48.45 286.21 49.08L286.21 49.08Q282.52 53.19 280.55 57.16L280.55 57.16Q279.95 57.97 279.25 57.16L279.25 57.16Q277.28 54.88 275.57 53.68Q273.87 52.49 270.56 51.71L270.56 51.71Q269.93 51.54 269.93 51.15Q269.93 50.77 270.39 50.59L270.39 50.59Q272.74 50.20 272.71 46.55L272.71 46.55L272.71 31.68Q272.71 28.09 271.37 27.28L271.37 27.28Q269.82 26.26 268.84 28.02L268.84 28.02Q268.45 28.76 267.96 28.37Q267.47 27.98 268.00 27.14L268.00 27.14Q269.02 25.52 269.95 23.84Q270.88 22.15 271.86 20.46L271.86 20.46Q272.46 19.41 273.45 20.07L273.45 20.07Q278.61 22.57 279.63 26.40L279.63 26.40Q279.74 26.75 280.05 26.84Q280.37 26.93 280.62 26.61L280.62 26.61L286.03 20.39Q286.24 20.18 286.52 20.20Q286.80 20.21 286.98 20.50L286.98 20.50L290.67 27.56Q290.81 27.88 290.60 28.16L290.60 28.16L286.38 33.22Q286.14 33.47 285.84 33.43Q285.54 33.40 285.43 33.12L285.43 33.12L282.59 27.84Q282.45 27.63 282.15 27.58Q281.85 27.53 281.60 27.77L281.60 27.77L279.95 29.78Q279.81 29.92 279.81 30.13ZM333.07 37.05L333.07 37.05Q333.14 35.09 332.14 34.61Q331.14 34.14 327.90 34.88L327.90 34.88Q322.91 36.07 318.97 32.66Q315.04 29.25 315.04 22.50L315.04 22.50Q315.07 15.79 319.92 10.90Q324.77 6.01 331.52 6.01L331.52 6.01Q334.58 6.01 338.17 7.52Q341.75 9.04 344.29 12.02L344.29 12.02Q344.50 12.30 344.74 12.27Q344.99 12.23 345.16 11.95L345.16 11.95Q346.71 9.42 349.15 7.70Q351.60 5.98 355.64 6.08L355.64 6.08Q360.88 6.33 365.03 12.55L365.03 12.55Q365.24 12.87 365.55 12.87Q365.87 12.87 366.05 12.52L366.05 12.52Q367.52 9.77 369.77 8.02Q372.02 6.26 375.40 6.26L375.40 6.26Q379.72 6.33 382.54 8.89Q385.35 11.46 386.61 17.51L386.61 17.51Q387.39 21.69 389.85 21.94L389.85 21.94Q390.55 21.97 390.60 22.54Q390.66 23.10 389.74 23.38L389.74 23.38Q382.92 25.70 380.36 30.81Q377.79 35.93 380.57 43.84L380.57 43.84Q381.80 47.43 384.10 48.88Q386.40 50.34 389.14 48.66L389.14 48.66Q390.16 48.06 390.67 48.67Q391.18 49.29 390.48 49.89L390.48 49.89Q388.09 51.79 385.75 53.67Q383.41 55.55 381.06 57.41L381.06 57.41Q380.67 57.69 380.32 57.41L380.32 57.41Q372.83 51.40 371.30 44.05Q369.77 36.70 380.99 26.65L380.99 26.65Q381.23 26.40 381.22 26.16Q381.20 25.91 380.88 25.73L380.88 25.73Q378.42 24.08 377.26 17.26L377.26 17.26Q376.03 10.51 371.78 10.44L371.78 10.44Q368.75 10.37 366.64 14.87L366.64 14.87Q366.50 15.12 366.64 15.36L366.64 15.36Q368.02 18.28 368.63 21.87Q369.25 25.45 368.68 29.46L368.68 29.46Q367.28 39.16 364.52 44.10Q361.76 49.04 357.96 53.96L357.96 53.96Q352.93 60.26 348.47 55.34L348.47 55.34Q347.20 53.93 345.81 53.51Q344.43 53.09 342.63 54.49L342.63 54.49Q341.96 55.05 341.49 54.62Q341.02 54.18 341.54 53.51L341.54 53.51Q346.04 47.25 348.70 46.37Q351.35 45.49 353.88 47.85L353.88 47.85Q355.96 49.78 357.70 49.92Q359.44 50.06 360.42 47.32L360.42 47.32Q362.32 42.05 361.78 32.57Q361.23 23.10 357.94 18.04Q354.66 12.97 351.69 12.08Q348.71 11.18 346.29 13.64L346.29 13.64Q345.94 13.99 346.25 14.38L346.25 14.38Q350.44 20.18 350.75 27.81L350.75 27.81Q350.96 34.07 348.33 39.81Q345.69 45.56 341.54 50.84L341.54 50.84Q337.01 56.60 332.95 57.45Q328.89 58.29 325.51 53.33L325.51 53.33Q322.56 48.90 319.50 52.24L319.50 52.24Q318.76 52.88 318.18 52.28Q317.60 51.68 318.34 50.91L318.34 50.91Q327.94 41.13 333.42 48.34L333.42 48.34Q334.30 49.54 335.09 50.55Q335.88 51.57 337.46 51.50L337.46 51.50Q339.50 51.43 341.75 47.04Q344.00 42.64 344.00 35.96L344.00 35.96Q343.93 27.21 339.43 20.62Q334.93 14.03 329.13 13.39L329.13 13.39Q323.33 12.80 319.99 15.57Q316.65 18.35 316.76 22.15L316.76 22.15Q316.86 26.02 318.81 28.34Q320.77 30.66 326.04 29.29L326.04 29.29Q336.20 26.68 334.86 36.77L334.86 36.77Q334.72 37.83 333.90 37.85Q333.07 37.86 333.07 37.05ZM411.64 51.54L411.64 51.54Q409.85 52.91 407.71 54.54Q405.56 56.18 403.73 57.55L403.73 57.55Q403.10 58.04 402.73 57.97Q402.36 57.90 402.43 57.34L402.43 57.34Q402.43 56.60 400.25 54.53L400.25 54.53Q394.52 49.15 394.73 40.54L394.73 40.54Q394.95 33.15 401.59 28.05L401.59 28.05Q403.63 26.51 405.40 24.79Q407.18 23.06 408.55 20.60L408.55 20.60Q409.11 19.51 410.10 20.53L410.10 20.53Q415.44 26.58 420.79 27.67L420.79 27.67Q422.47 27.98 421.14 29.00L421.14 29.00Q419.48 30.20 419.34 31.96L419.34 31.96L419.34 32.03L419.45 48.09Q419.45 49.71 420.63 50.31Q421.80 50.91 423.18 49.39L423.18 49.39Q423.70 48.80 424.18 49.10Q424.65 49.39 424.20 50.17L424.20 50.17Q422.93 52.07 421.75 53.89Q420.57 55.72 419.77 57.69L419.77 57.69L419.73 57.73Q419.24 58.54 418.54 57.73L418.54 57.73Q418.15 57.30 417.62 57.16L417.62 57.16Q413.61 56.29 412.56 51.86L412.56 51.86Q412.49 51.64 412.21 51.43L412.21 51.43Q411.89 51.40 411.64 51.54ZM412.03 30.83L412.03 30.83Q409.85 30.23 406.93 27.46L406.93 27.46Q405.53 25.77 404.68 27.14L404.68 27.14Q400.96 32.70 401.77 39.41L401.77 39.41Q402.89 49.01 408.52 51.26L408.52 51.26Q408.55 51.26 408.59 51.29L408.59 51.29Q410.03 51.75 412.07 49.57L412.07 49.57Q412.21 49.36 412.21 49.18L412.21 49.18Q412.17 48.66 412.17 47.53L412.17 47.53L412.49 31.39Q412.49 30.97 412.03 30.83ZM446.94 52.17L446.94 52.17Q444.41 53.33 440.86 54.76Q437.31 56.18 435.30 57.66L435.30 57.66Q434.57 58.15 434.25 58.04Q433.93 57.94 434.00 57.45L434.00 57.45Q434.04 56.81 433.46 55.30Q432.88 53.79 432.07 52.59L432.07 52.59Q429.82 49.32 429.15 46.62Q428.48 43.91 428.06 40.18L428.06 40.18Q427.68 36.60 429.66 33.40Q431.65 30.20 434.88 27.70L434.88 27.70Q436.92 26.16 438.71 24.43Q440.51 22.71 441.84 20.25L441.84 20.25Q442.44 19.16 443.43 20.18L443.43 20.18Q448.70 26.16 454.68 27.39L454.68 27.39Q456.22 27.77 455.34 28.51L455.34 28.51Q452.11 33.26 452.46 38.20Q452.81 43.14 454.75 48.20L454.75 48.20L454.75 48.23L454.78 48.27Q457.95 59.84 452.65 65.06Q447.36 70.28 442.16 70.80L442.16 70.80Q433.16 71.68 430.24 66.16L430.24 66.16Q429.57 64.90 430.22 63.77Q430.88 62.65 432.14 62.44L432.14 62.44Q434.64 62.02 436.54 65.67L436.54 65.67Q439.14 70.91 444.13 68.87L444.13 68.87Q448.42 67.08 449.05 62.68Q449.68 58.29 447.79 52.59L447.79 52.59Q447.79 52.52 447.75 52.49L447.75 52.49L447.71 52.45Q447.50 51.93 446.94 52.17ZM448.98 32.55L448.98 32.55Q447.01 31.75 444.30 30.06Q441.60 28.37 440.33 27.21L440.33 27.21L440.26 27.18Q440.26 27.14 440.26 27.11L440.26 27.11Q439.00 25.24 438.01 26.79L438.01 26.79Q434.29 32.34 435.06 39.06L435.06 39.06Q435.59 43.52 436.99 47.29Q438.40 51.05 441.35 52.21L441.35 52.21L441.39 52.24L441.42 52.24Q443.39 52.77 446.52 50.77L446.52 50.77Q446.87 50.59 446.77 50.10L446.77 50.10Q445.29 46.05 445.66 41.89Q446.03 37.72 449.23 33.40L449.23 33.40Q449.54 32.84 448.98 32.55ZM481.71 47.81L481.71 47.81L481.75 33.15Q481.75 27.25 479.60 26.61L479.60 26.61Q479.36 26.44 479.36 26.17Q479.36 25.91 479.60 25.70L479.60 25.70Q482.73 23.45 484.77 19.37L484.77 19.37Q484.91 19.05 485.26 19.05Q485.61 19.05 485.79 19.37L485.79 19.37Q487.65 23.41 491.13 25.66L491.13 25.66Q491.38 25.88 491.38 26.17Q491.38 26.47 491.10 26.61L491.10 26.61Q488.78 27.28 488.85 33.15L488.85 33.15L488.85 45.53Q488.85 49.15 490.18 49.96L490.18 49.96Q491.66 50.94 492.68 49.18L492.68 49.18Q493.07 48.52 493.58 48.88Q494.09 49.25 493.56 50.10L493.56 50.10Q492.50 51.71 491.57 53.40Q490.64 55.09 489.69 56.71L489.69 56.71Q489.09 57.73 488.04 57.09L488.04 57.09Q482.80 54.60 481.89 50.77L481.89 50.77Q481.82 50.48 481.46 50.38Q481.11 50.27 480.97 50.48L480.97 50.48Q478.97 52.10 476.96 53.88Q474.96 55.65 474.22 57.13L474.22 57.13Q473.63 57.97 472.92 57.09L472.92 57.09Q470.99 54.84 469.14 53.65Q467.30 52.45 464.24 51.71L464.24 51.71Q463.57 51.47 463.61 51.12Q463.64 50.77 464.06 50.59L464.06 50.59Q464.94 50.27 465.66 49.41Q466.38 48.55 466.38 46.55L466.38 46.55L466.38 31.68Q466.38 28.09 465.05 27.28L465.05 27.28Q463.46 26.33 462.52 28.05L462.52 28.05Q462.13 28.72 461.64 28.34Q461.14 27.95 461.67 27.11L461.67 27.11Q462.69 25.52 463.62 23.84Q464.55 22.15 465.54 20.46L465.54 20.46Q466.14 19.41 467.12 20.07L467.12 20.07L467.16 20.07Q473.52 23.41 473.52 29.21L473.52 29.21L473.45 47.21Q473.45 48.23 473.98 48.59L473.98 48.59L477 51.08Q477.35 51.40 477.81 51.15L477.81 51.15Q480.66 48.90 481.50 48.27L481.50 48.27Q481.71 48.13 481.71 47.81ZM509.80 29.81L509.80 43.80Q509.77 49.46 511.91 50.34L511.91 50.34Q512.16 50.52 512.16 50.82Q512.16 51.12 511.91 51.26L511.91 51.26Q508.75 53.65 506.78 57.62L506.78 57.62Q506.57 57.90 506.25 57.90Q505.93 57.90 505.72 57.62L505.72 57.62Q503.75 53.65 500.38 51.29L500.38 51.29Q500.17 51.15 500.17 50.84Q500.17 50.52 500.41 50.34L500.41 50.34Q502.70 49.46 502.70 43.80L502.70 43.80L502.70 32.13Q502.70 28.55 501.36 27.74L501.36 27.74Q499.82 26.72 498.83 28.48L498.83 28.48Q498.45 29.21 497.95 28.83Q497.46 28.44 497.99 27.60L497.99 27.60Q499.01 25.98 499.94 24.29Q500.87 22.61 501.86 20.92L501.86 20.92Q502.42 19.90 503.44 20.50L503.44 20.50L503.47 20.53Q508.64 23.13 509.66 26.89L509.66 26.89Q509.73 27.28 510.01 27.35Q510.29 27.42 510.57 27.21L510.57 27.21Q512.51 25.59 514.55 23.80Q516.59 22.01 517.32 20.50L517.32 20.50Q517.71 19.58 518.59 20.53L518.59 20.53Q520.70 22.75 522.19 24.05Q523.69 25.35 527.27 25.98L527.27 25.98Q527.91 26.12 527.92 26.53Q527.94 26.93 527.48 27.07L527.48 27.07Q526.57 27.42 525.87 28.28Q525.16 29.14 525.16 31.15L525.16 31.15L525.16 46.02Q525.16 49.61 526.50 50.41L526.50 50.41Q528.05 51.36 529.00 49.64L529.00 49.64Q529.38 48.97 529.89 49.34Q530.40 49.71 529.88 50.55L529.88 50.55Q528.82 52.21 527.89 53.88Q526.96 55.55 526.01 57.20L526.01 57.20Q525.38 58.18 524.43 57.66L524.43 57.66Q518.03 54.56 518.03 48.48L518.03 48.48L518.06 30.48Q518.06 29.43 517.54 29.11L517.54 29.11L517.50 29.11L517.50 29.04L514.51 26.58Q514.13 26.30 513.70 26.54L513.70 26.54L510.05 29.39Q509.80 29.57 509.80 29.81L509.80 29.81ZM545.52 27.84L545.52 27.84L545.48 47.53Q545.48 48.62 546.01 48.97L546.01 48.97L548.54 50.41Q549.28 51.05 551.00 48.73L551.00 48.73Q551.32 48.27 551.87 48.59Q552.41 48.90 551.92 49.43L551.92 49.43Q548.16 53.54 546.26 57.52L546.26 57.52Q545.66 58.25 544.96 57.52L544.96 57.52Q542.99 55.20 541.30 54.04Q539.61 52.88 536.27 52.07L536.27 52.07Q535.71 51.96 535.68 51.54Q535.64 51.12 536.10 50.94L536.10 50.94Q538.45 50.38 538.42 46.90L538.42 46.90L538.38 27.88Q538.42 27.25 537.86 27.25L537.86 27.25L533.71 27.25Q533.21 27.25 533.07 26.86L533.07 26.86Q532.93 26.47 533.39 26.19L533.39 26.19Q537.61 23.20 541.99 18.98Q546.36 14.77 549.95 10.97L549.95 10.97Q550.41 10.48 550.85 10.78Q551.29 11.07 550.86 11.64L550.86 11.64Q549.25 13.64 547.61 16.84Q545.98 20.04 545.63 22.68L545.63 22.68Q545.55 23.03 545.66 23.20L545.66 23.20Q545.87 23.41 546.15 23.41L546.15 23.41L552.23 23.41Q552.48 23.41 552.66 23.59L552.66 23.59Q552.83 23.84 552.83 24.05L552.83 24.05L552.69 26.68Q552.62 27.25 552.09 27.25L552.09 27.25L546.01 27.25Q545.52 27.25 545.52 27.84ZM560.11 48.23L560.11 48.23L559.86 28.97Q559.86 28.30 559.65 27.88L559.65 27.88Q558.81 26.51 558.21 27.21L558.21 27.21L556.80 28.65Q556.24 29.29 555.73 28.79Q555.22 28.30 555.89 27.42L555.89 27.42Q557.44 25.49 558.67 23.55Q559.90 21.62 561.20 19.72L561.20 19.72Q561.76 19.05 562.50 19.76L562.50 19.76Q563.98 21.55 565.38 22.90Q566.79 24.26 569.39 25.77L569.39 25.77Q570.13 26.05 570.04 26.44Q569.95 26.82 569.57 26.86L569.57 26.86Q568.65 27.21 567.95 28.07Q567.25 28.93 567.25 30.94L567.25 30.94L567.25 45.81Q567.25 49.39 568.58 50.20L568.58 50.20Q570.13 51.12 571.11 49.43L571.11 49.43Q571.46 48.76 571.97 49.13Q572.48 49.50 571.96 50.34L571.96 50.34Q570.90 52.00 569.99 53.67Q569.07 55.34 568.13 56.99L568.13 56.99Q567.46 57.97 566.47 57.41L566.47 57.41Q563.31 55.90 561.71 53.72Q560.11 51.54 560.11 48.23ZM565.21 6.50L565.21 6.50Q569.11 6.50 568.76 10.27L568.76 10.27Q568.55 12.16 566.38 14.08Q564.22 16.00 562.96 15.96L562.96 15.96Q561.69 15.96 561.02 13.96Q560.36 11.95 560.50 10.27L560.50 10.27Q560.60 8.65 562.06 7.58Q563.52 6.50 565.21 6.50ZM592.73 51.54L592.73 51.54Q590.94 52.91 588.80 54.54Q586.65 56.18 584.82 57.55L584.82 57.55Q584.19 58.04 583.82 57.97Q583.45 57.90 583.52 57.34L583.52 57.34Q583.52 56.60 581.34 54.53L581.34 54.53Q575.61 49.15 575.82 40.54L575.82 40.54Q576.04 33.15 582.68 28.05L582.68 28.05Q584.72 26.51 586.49 24.79Q588.27 23.06 589.64 20.60L589.64 20.60Q590.20 19.51 591.19 20.53L591.19 20.53Q596.53 26.58 601.88 27.67L601.88 27.67Q603.56 27.98 602.23 29.00L602.23 29.00Q600.57 30.20 600.43 31.96L600.43 31.96L600.43 32.03L600.54 48.09Q600.54 49.71 601.72 50.31Q602.89 50.91 604.27 49.39L604.27 49.39Q604.79 48.80 605.27 49.10Q605.74 49.39 605.29 50.17L605.29 50.17Q604.02 52.07 602.84 53.89Q601.66 55.72 600.86 57.69L600.86 57.69L600.82 57.73Q600.33 58.54 599.63 57.73L599.63 57.73Q599.24 57.30 598.71 57.16L598.71 57.16Q594.70 56.29 593.65 51.86L593.65 51.86Q593.58 51.64 593.30 51.43L593.30 51.43Q592.98 51.40 592.73 51.54ZM593.12 30.83L593.12 30.83Q590.94 30.23 588.02 27.46L588.02 27.46Q586.62 25.77 585.77 27.14L585.77 27.14Q582.05 32.70 582.86 39.41L582.86 39.41Q583.98 49.01 589.61 51.26L589.61 51.26Q589.64 51.26 589.68 51.29L589.68 51.29Q591.12 51.75 593.16 49.57L593.16 49.57Q593.30 49.36 593.30 49.18L593.30 49.18Q593.26 48.66 593.26 47.53L593.26 47.53L593.58 31.39Q593.58 30.97 593.12 30.83Z"/></svg>