<?xml version="1.0" standalone="no"?><!DOCTYPE svg PUBLIC "-//W3C//DTD SVG 1.1//EN" "http://www.w3.org/Graphics/SVG/1.1/DTD/svg11.dtd" ><svg version="1.1" xmlns="http://www.w3.org/2000/svg"><defs><font horiz-adv-x="0" id="font"><font-face ascent="750" bbox="-255 -226 1388 968" cap-height="780" descent="-250" font-family="Cooper Hewitt" font-stretch="normal" font-style="normal" font-weight="600" units-per-em="1000" x-height="530" /><missing-glyph d="M801 115V665L526 390ZM161 665V115L436 390ZM481 435 760 714H202ZM202 66H760L481 345ZM91 780H871V0H91Z" horiz-adv-x="962" /><glyph d="M256 308H384L320 595ZM432 782 627 0H454L416 168H225L188 0H14L209 782Z" glyph-name="A" horiz-adv-x="641" unicode="A" /><glyph d="M280 310H402L371 594ZM845 780V640H521L544 468H795V328H564L590 140H845V0H437L418 170H236L182 0H8L280 780Z" glyph-name="AE" horiz-adv-x="885" unicode="&#198;" /><glyph d="M462 950 398 840H242L297 950ZM256 308H384L320 595ZM432 782 627 0H454L416 168H225L188 0H14L209 782Z" glyph-name="Aacute" horiz-adv-x="641" unicode="&#193;" /><glyph d="M256 308H384L320 595ZM320 825Q265 825 229.5 835Q194 845 173.5 862Q153 879 145 901.5Q137 924 137 950H246Q246 930 263 920Q280 910 320 910Q360 910 377 920Q394 930 394 950H503Q503 924 495 901.5Q487 879 466.5 862Q446 845 410.5 835Q375 825 320 825ZM432 782 627 0H454L416 168H225L188 0H14L209 782Z" glyph-name="Abreve" horiz-adv-x="641" unicode="&#258;" /><glyph d="M256 308H384L320 595ZM116 840 240 950H400L524 840H382L320 884L258 840ZM432 782 627 0H454L416 168H225L188 0H14L209 782Z" glyph-name="Acircumflex" horiz-adv-x="641" unicode="&#194;" /><glyph d="M474 845H341V945H474ZM299 845H166V945H299ZM256 308H384L320 595ZM432 782 627 0H454L416 168H225L188 0H14L209 782Z" glyph-name="Adieresis" horiz-adv-x="641" unicode="&#196;" /><glyph d="M343 950 398 840H242L178 950ZM256 308H384L320 595ZM432 782 627 0H454L416 168H225L188 0H14L209 782Z" glyph-name="Agrave" horiz-adv-x="641" unicode="&#192;" /><glyph d="M256 308H384L320 595ZM171 943H469V847H171ZM432 782 627 0H454L416 168H225L188 0H14L209 782Z" glyph-name="Amacron" horiz-adv-x="641" unicode="&#256;" /><glyph d="M432 782 627 0H454L320 595L188 0H14L209 782Z" glyph-name="Anocross" horiz-adv-x="641" unicode="&#59185;" /><glyph d="M256 308H384L320 595ZM565 -69Q565 -85 576.5 -95Q588 -105 608 -105Q622 -105 633 -101.5Q644 -98 650 -94L686 -190Q670 -200 642 -207.5Q614 -215 583 -215Q522 -215 485 -188.5Q448 -162 448 -107Q448 -75 460 -48Q472 -21 492 0H454L416 168H225L188 0H14L209 782H432L627 0Q598 -13 581.5 -29.5Q565 -46 565 -69Z" glyph-name="Aogonek" horiz-adv-x="641" unicode="&#260;" /><glyph d="M269 858Q269 837 284 822Q299 807 320 807Q341 807 356 822Q371 837 371 858Q371 879 356 893.5Q341 908 320 908Q299 908 284 893.5Q269 879 269 858ZM256 308H384L320 595ZM215 858Q215 880 223 899Q231 918 245.5 932Q260 946 279 954.5Q298 963 320 963Q342 963 361 954.5Q380 946 394 932Q408 918 416.5 899Q425 880 425 858Q425 835 416 815.5Q407 796 393 782H432L627 0H454L416 168H225L188 0H14L209 782H247Q215 812 215 858Z" glyph-name="Aring" horiz-adv-x="641" unicode="&#197;" /><glyph d="M256 308H384L320 595ZM505 947Q505 914 496.5 891.5Q488 869 473.5 854.5Q459 840 440.5 834Q422 828 402 828Q378 828 357 835.5Q336 843 317.5 852Q299 861 283 868.5Q267 876 253 876Q239 876 229.5 869.5Q220 863 220 843H135Q135 876 143.5 898.5Q152 921 166 935.5Q180 950 199 956Q218 962 238 962Q262 962 283 954.5Q304 947 322.5 938Q341 929 357 921.5Q373 914 387 914Q401 914 410.5 920.5Q420 927 420 947ZM432 782 627 0H454L416 168H225L188 0H14L209 782Z" glyph-name="Atilde" horiz-adv-x="641" unicode="&#195;" /><glyph d="M218 640V469H311Q327 469 342.5 472.5Q358 476 370.5 484.5Q383 493 391 508.5Q399 524 399 548V561Q399 585 391 600.5Q383 616 370.5 624.5Q358 633 342.5 636.5Q327 640 311 640ZM218 328V140H325Q342 140 358.5 144Q375 148 388.5 158.5Q402 169 410.5 186Q419 203 419 230V239Q419 266 410.5 283Q402 300 388.5 310Q375 320 358.5 324Q342 328 325 328ZM312 780Q358 780 403 772Q448 764 483.5 740.5Q519 717 541 675Q563 633 563 564V544Q563 490 542 456.5Q521 423 487 403Q529 383 556 345Q583 307 583 244V224Q583 153 559.5 109Q536 65 498.5 41Q461 17 414 8.5Q367 0 320 0H56V780Z" glyph-name="B" horiz-adv-x="631" unicode="B" /><glyph d="M365 845H231V945H365ZM218 640V469H311Q327 469 342.5 472.5Q358 476 370.5 484.5Q383 493 391 508.5Q399 524 399 548V561Q399 585 391 600.5Q383 616 370.5 624.5Q358 633 342.5 636.5Q327 640 311 640ZM218 328V140H325Q342 140 358.5 144Q375 148 388.5 158.5Q402 169 410.5 186Q419 203 419 230V239Q419 266 410.5 283Q402 300 388.5 310Q375 320 358.5 324Q342 328 325 328ZM312 780Q358 780 403 772Q448 764 483.5 740.5Q519 717 541 675Q563 633 563 564V544Q563 490 542 456.5Q521 423 487 403Q529 383 556 345Q583 307 583 244V224Q583 153 559.5 109Q536 65 498.5 41Q461 17 414 8.5Q367 0 320 0H56V780Z" glyph-name="Bdotaccent" horiz-adv-x="631" unicode="&#7682;" /><glyph d="M203 370Q203 311 208.5 266Q214 221 228.5 190Q243 159 268 143Q293 127 332 127H341Q400 127 424.5 165Q449 203 449 266H611V257Q611 113 541 50Q471 -13 332 -13Q256 -13 200.5 9Q145 31 109 77.5Q73 124 56 196.5Q39 269 39 370V410Q39 511 56 583.5Q73 656 109 702.5Q145 749 200.5 771Q256 793 332 793Q471 793 541 729.5Q611 666 611 520V484H449Q449 524 444 555.5Q439 587 427 608.5Q415 630 394 641.5Q373 653 341 653H332Q293 653 268 637Q243 621 228.5 590Q214 559 208.5 513.5Q203 468 203 410Z" glyph-name="C" horiz-adv-x="650" unicode="C" /><glyph d="M474 950 410 840H254L309 950ZM203 370Q203 311 208.5 266Q214 221 228.5 190Q243 159 268 143Q293 127 332 127H341Q400 127 424.5 165Q449 203 449 266H611V257Q611 113 541 50Q471 -13 332 -13Q256 -13 200.5 9Q145 31 109 77.5Q73 124 56 196.5Q39 269 39 370V410Q39 511 56 583.5Q73 656 109 702.5Q145 749 200.5 771Q256 793 332 793Q471 793 541 729.5Q611 666 611 520V484H449Q449 524 444 555.5Q439 587 427 608.5Q415 630 394 641.5Q373 653 341 653H332Q293 653 268 637Q243 621 228.5 590Q214 559 208.5 513.5Q203 468 203 410Z" glyph-name="Cacute" horiz-adv-x="650" unicode="&#262;" /><glyph d="M270 950 332 905 394 950H536L412 840H252L128 950ZM203 370Q203 311 208.5 266Q214 221 228.5 190Q243 159 268 143Q293 127 332 127H341Q400 127 424.5 165Q449 203 449 266H611V257Q611 113 541 50Q471 -13 332 -13Q256 -13 200.5 9Q145 31 109 77.5Q73 124 56 196.5Q39 269 39 370V410Q39 511 56 583.5Q73 656 109 702.5Q145 749 200.5 771Q256 793 332 793Q471 793 541 729.5Q611 666 611 520V484H449Q449 524 444 555.5Q439 587 427 608.5Q415 630 394 641.5Q373 653 341 653H332Q293 653 268 637Q243 621 228.5 590Q214 559 208.5 513.5Q203 468 203 410Z" glyph-name="Ccaron" horiz-adv-x="650" unicode="&#268;" /><glyph d="M258 -124Q270 -132 290 -136.5Q310 -141 330 -141Q356 -141 366.5 -135Q377 -129 377 -118Q377 -95 329 -95Q322 -95 315 -96Q308 -97 303 -98Q297 -99 291 -100L276 -72L300 -12Q232 -8 183 16.5Q134 41 102 87.5Q70 134 54.5 204Q39 274 39 370V410Q39 511 56 583.5Q73 656 109 702.5Q145 749 200.5 771Q256 793 332 793Q471 793 541 729.5Q611 666 611 520V484H449Q449 524 444 555.5Q439 587 427 608.5Q415 630 394 641.5Q373 653 341 653H332Q293 653 268 637Q243 621 228.5 590Q214 559 208.5 513.5Q203 468 203 410V370Q203 311 208.5 266Q214 221 228.5 190Q243 159 268 143Q293 127 332 127H341Q400 127 424.5 165Q449 203 449 266H611V257Q611 124 551 60.5Q491 -3 373 -11L362 -40Q404 -43 433 -64Q462 -85 462 -127Q462 -215 342 -215Q305 -215 277 -207Q249 -199 235 -190Z" glyph-name="Ccedilla" horiz-adv-x="650" unicode="&#199;" /><glyph d="M128 840 252 950H412L536 840H394L332 884L270 840ZM203 370Q203 311 208.5 266Q214 221 228.5 190Q243 159 268 143Q293 127 332 127H341Q400 127 424.5 165Q449 203 449 266H611V257Q611 113 541 50Q471 -13 332 -13Q256 -13 200.5 9Q145 31 109 77.5Q73 124 56 196.5Q39 269 39 370V410Q39 511 56 583.5Q73 656 109 702.5Q145 749 200.5 771Q256 793 332 793Q471 793 541 729.5Q611 666 611 520V484H449Q449 524 444 555.5Q439 587 427 608.5Q415 630 394 641.5Q373 653 341 653H332Q293 653 268 637Q243 621 228.5 590Q214 559 208.5 513.5Q203 468 203 410Z" glyph-name="Ccircumflex" horiz-adv-x="650" unicode="&#264;" /><glyph d="M399 845H265V945H399ZM203 370Q203 311 208.5 266Q214 221 228.5 190Q243 159 268 143Q293 127 332 127H341Q400 127 424.5 165Q449 203 449 266H611V257Q611 113 541 50Q471 -13 332 -13Q256 -13 200.5 9Q145 31 109 77.5Q73 124 56 196.5Q39 269 39 370V410Q39 511 56 583.5Q73 656 109 702.5Q145 749 200.5 771Q256 793 332 793Q471 793 541 729.5Q611 666 611 520V484H449Q449 524 444 555.5Q439 587 427 608.5Q415 630 394 641.5Q373 653 341 653H332Q293 653 268 637Q243 621 228.5 590Q214 559 208.5 513.5Q203 468 203 410Z" glyph-name="Cdotaccent" horiz-adv-x="650" unicode="&#266;" /><glyph d="M286 140Q337 140 370 154Q403 168 423 196.5Q443 225 451 268Q459 311 459 370V410Q459 468 451 511.5Q443 555 423 583.5Q403 612 370 626Q337 640 286 640H218V140ZM624 370Q624 269 605 198.5Q586 128 546.5 84Q507 40 444.5 20Q382 0 295 0H56V780H295Q382 780 444.5 760Q507 740 546.5 696Q586 652 605 581.5Q624 511 624 410Z" glyph-name="D" horiz-adv-x="663" unicode="D" /><glyph d="M251 950 313 905 375 950H517L393 840H233L109 950ZM286 140Q337 140 370 154Q403 168 423 196.5Q443 225 451 268Q459 311 459 370V410Q459 468 451 511.5Q443 555 423 583.5Q403 612 370 626Q337 640 286 640H218V140ZM624 370Q624 269 605 198.5Q586 128 546.5 84Q507 40 444.5 20Q382 0 295 0H56V780H295Q382 780 444.5 760Q507 740 546.5 696Q586 652 605 581.5Q624 511 624 410Z" glyph-name="Dcaron" horiz-adv-x="663" unicode="&#270;" /><glyph d="M278 460H443V339H278V140H346Q397 140 430 154Q463 168 483 196.5Q503 225 511 268Q519 311 519 370V410Q519 468 511 511.5Q503 555 483 583.5Q463 612 430 626Q397 640 346 640H278ZM12 460H116V780H355Q442 780 504.5 760Q567 740 606.5 696Q646 652 665 581.5Q684 511 684 410V370Q684 269 665 198.5Q646 128 606.5 84Q567 40 504.5 20Q442 0 355 0H116V339H12Z" glyph-name="Dcroat" horiz-adv-x="723" unicode="&#272;" /><glyph d="M380 845H246V945H380ZM286 140Q337 140 370 154Q403 168 423 196.5Q443 225 451 268Q459 311 459 370V410Q459 468 451 511.5Q443 555 423 583.5Q403 612 370 626Q337 640 286 640H218V140ZM624 370Q624 269 605 198.5Q586 128 546.5 84Q507 40 444.5 20Q382 0 295 0H56V780H295Q382 780 444.5 760Q507 740 546.5 696Q586 652 605 581.5Q624 511 624 410Z" glyph-name="Ddotaccent" horiz-adv-x="663" unicode="&#7690;" /><glyph d="M533 780V640H218V468H483V328H218V140H533V0H56V780Z" glyph-name="E" horiz-adv-x="573" unicode="E" /><glyph d="M438 950 374 840H218L273 950ZM533 780V640H218V468H483V328H218V140H533V0H56V780Z" glyph-name="Eacute" horiz-adv-x="573" unicode="&#201;" /><glyph d="M533 780V640H218V468H483V328H218V140H533V0H56V780ZM296 825Q241 825 205.5 835Q170 845 149.5 862Q129 879 121 901.5Q113 924 113 950H222Q222 930 239 920Q256 910 296 910Q336 910 353 920Q370 930 370 950H479Q479 924 471 901.5Q463 879 442.5 862Q422 845 386.5 835Q351 825 296 825Z" glyph-name="Ebreve" horiz-adv-x="573" unicode="&#276;" /><glyph d="M234 950 296 905 358 950H500L376 840H216L92 950ZM533 780V640H218V468H483V328H218V140H533V0H56V780Z" glyph-name="Ecaron" horiz-adv-x="573" unicode="&#282;" /><glyph d="M92 840 216 950H376L500 840H358L296 884L234 840ZM533 780V640H218V468H483V328H218V140H533V0H56V780Z" glyph-name="Ecircumflex" horiz-adv-x="573" unicode="&#202;" /><glyph d="M450 845H317V945H450ZM275 845H142V945H275ZM533 780V640H218V468H483V328H218V140H533V0H56V780Z" glyph-name="Edieresis" horiz-adv-x="573" unicode="&#203;" /><glyph d="M363 845H229V945H363ZM533 780V640H218V468H483V328H218V140H533V0H56V780Z" glyph-name="Edotaccent" horiz-adv-x="573" unicode="&#278;" /><glyph d="M319 950 374 840H218L154 950ZM533 780V640H218V468H483V328H218V140H533V0H56V780Z" glyph-name="Egrave" horiz-adv-x="573" unicode="&#200;" /><glyph d="M147 943H445V847H147ZM533 780V640H218V468H483V328H218V140H533V0H56V780Z" glyph-name="Emacron" horiz-adv-x="573" unicode="&#274;" /><glyph d="M627 -16Q627 -71 612.5 -108.5Q598 -146 572 -169.5Q546 -193 509.5 -203Q473 -213 428 -213Q392 -213 371 -208.5Q350 -204 343 -200V-71Q348 -73 363 -75.5Q378 -78 392 -78Q422 -78 442 -67.5Q462 -57 468 -24L204 484L209 327V0H56V780H227L478 296L473 453V780H627Z" glyph-name="Eng" horiz-adv-x="683" unicode="&#330;" /><glyph d="M533 780V640H218V468H483V328H218V140H533V0H532Q503 -13 486.5 -29.5Q470 -46 470 -69Q470 -85 481.5 -95Q493 -105 513 -105Q527 -105 538 -101.5Q549 -98 555 -94L591 -190Q575 -200 547 -207.5Q519 -215 488 -215Q427 -215 390 -188.5Q353 -162 353 -107Q353 -75 365 -48Q377 -21 397 0H56V780Z" glyph-name="Eogonek" horiz-adv-x="573" unicode="&#280;" /><glyph d="M426 651Q415 652 405.5 652.5Q396 653 386 653Q213 653 213 528V0H51V533Q51 660 131.5 726.5Q212 793 386 793Q449 793 505.5 783.5Q562 774 607 756V645L494 464L525 460Q588 452 636 436Q684 420 716.5 393Q749 366 765 327Q781 288 781 234V224Q781 111 716.5 49Q652 -13 528 -13Q464 -13 416.5 1Q369 15 337.5 46.5Q306 78 290 129.5Q274 181 274 257V266H436Q436 226 443 199.5Q450 173 462.5 157Q475 141 491.5 134Q508 127 526 127H535Q571 127 594 150.5Q617 174 617 219V224Q617 266 589.5 291.5Q562 317 497 324L304 347V458Z" glyph-name="Eszett" horiz-adv-x="805" unicode="&#7838;" /><glyph d="M278 460H443V339H278V140H346Q397 140 430 154Q463 168 483 196.5Q503 225 511 268Q519 311 519 370V410Q519 468 511 511.5Q503 555 483 583.5Q463 612 430 626Q397 640 346 640H278ZM12 460H116V780H355Q442 780 504.5 760Q567 740 606.5 696Q646 652 665 581.5Q684 511 684 410V370Q684 269 665 198.5Q646 128 606.5 84Q567 40 504.5 20Q442 0 355 0H116V339H12Z" glyph-name="Eth" horiz-adv-x="723" unicode="&#208;" /><glyph d="M31 309V450H96Q102 631 164 712Q226 793 345 793Q459 793 510.5 732Q562 671 562 537V500H424Q424 580 408 616Q392 652 354 652H345Q303 652 284 600Q265 548 262 450H465L396 309H263Q268 221 286.5 174.5Q305 128 345 128H354Q424 128 424 250H562V241Q562 108 510.5 47.5Q459 -13 345 -13Q288 -13 243.5 5.5Q199 24 168 63Q137 102 119 163Q101 224 97 309Z" glyph-name="Euro" horiz-adv-x="600" unicode="&#8364;" /><glyph d="M529 780V640H218V468H479V328H218V0H56V780Z" glyph-name="F" horiz-adv-x="549" unicode="F" /><glyph d="M363 845H229V945H363ZM529 780V640H218V468H479V328H218V0H56V780Z" glyph-name="Fdotaccent" horiz-adv-x="549" unicode="&#7710;" /><glyph d="M348 -13Q268 -13 210 9Q152 31 114 77.5Q76 124 57.5 196.5Q39 269 39 370V410Q39 511 57.5 583.5Q76 656 113 702.5Q150 749 206 771Q262 793 338 793Q408 793 461 778Q514 763 550 730Q586 697 604 645Q622 593 622 520V484H460Q460 524 455 555.5Q450 587 437 608.5Q424 630 402.5 641.5Q381 653 347 653H338Q298 653 272 637Q246 621 231 590Q216 559 210 513.5Q204 468 204 410V370Q204 311 210 266Q216 221 231.5 190Q247 159 274 143Q301 127 344 127H353Q388 127 414.5 135.5Q441 144 459 157V282H356V422H621V78Q599 60 573 43.5Q547 27 514 14.5Q481 2 440 -5.5Q399 -13 348 -13Z" glyph-name="G" horiz-adv-x="673" unicode="G" /><glyph d="M338 825Q283 825 247.5 835Q212 845 191.5 862Q171 879 163 901.5Q155 924 155 950H264Q264 930 281 920Q298 910 338 910Q378 910 395 920Q412 930 412 950H521Q521 924 513 901.5Q505 879 484.5 862Q464 845 428.5 835Q393 825 338 825ZM348 -13Q268 -13 210 9Q152 31 114 77.5Q76 124 57.5 196.5Q39 269 39 370V410Q39 511 57.5 583.5Q76 656 113 702.5Q150 749 206 771Q262 793 338 793Q408 793 461 778Q514 763 550 730Q586 697 604 645Q622 593 622 520V484H460Q460 524 455 555.5Q450 587 437 608.5Q424 630 402.5 641.5Q381 653 347 653H338Q298 653 272 637Q246 621 231 590Q216 559 210 513.5Q204 468 204 410V370Q204 311 210 266Q216 221 231.5 190Q247 159 274 143Q301 127 344 127H353Q388 127 414.5 135.5Q441 144 459 157V282H356V422H621V78Q599 60 573 43.5Q547 27 514 14.5Q481 2 440 -5.5Q399 -13 348 -13Z" glyph-name="Gbreve" horiz-adv-x="673" unicode="&#286;" /><glyph d="M134 840 258 950H418L542 840H400L338 884L276 840ZM348 -13Q268 -13 210 9Q152 31 114 77.5Q76 124 57.5 196.5Q39 269 39 370V410Q39 511 57.5 583.5Q76 656 113 702.5Q150 749 206 771Q262 793 338 793Q408 793 461 778Q514 763 550 730Q586 697 604 645Q622 593 622 520V484H460Q460 524 455 555.5Q450 587 437 608.5Q424 630 402.5 641.5Q381 653 347 653H338Q298 653 272 637Q246 621 231 590Q216 559 210 513.5Q204 468 204 410V370Q204 311 210 266Q216 221 231.5 190Q247 159 274 143Q301 127 344 127H353Q388 127 414.5 135.5Q441 144 459 157V282H356V422H621V78Q599 60 573 43.5Q547 27 514 14.5Q481 2 440 -5.5Q399 -13 348 -13Z" glyph-name="Gcircumflex" horiz-adv-x="673" unicode="&#284;" /><glyph d="M419 -101Q419 -168 383 -197Q347 -226 272 -226V-172Q304 -172 325 -164Q346 -156 356 -136H277V-44H419ZM348 -13Q268 -13 210 9Q152 31 114 77.5Q76 124 57.5 196.5Q39 269 39 370V410Q39 511 57.5 583.5Q76 656 113 702.5Q150 749 206 771Q262 793 338 793Q408 793 461 778Q514 763 550 730Q586 697 604 645Q622 593 622 520V484H460Q460 524 455 555.5Q450 587 437 608.5Q424 630 402.5 641.5Q381 653 347 653H338Q298 653 272 637Q246 621 231 590Q216 559 210 513.5Q204 468 204 410V370Q204 311 210 266Q216 221 231.5 190Q247 159 274 143Q301 127 344 127H353Q388 127 414.5 135.5Q441 144 459 157V282H356V422H621V78Q599 60 573 43.5Q547 27 514 14.5Q481 2 440 -5.5Q399 -13 348 -13Z" glyph-name="Gcommaaccent" horiz-adv-x="673" unicode="&#290;" /><glyph d="M405 845H271V945H405ZM348 -13Q268 -13 210 9Q152 31 114 77.5Q76 124 57.5 196.5Q39 269 39 370V410Q39 511 57.5 583.5Q76 656 113 702.5Q150 749 206 771Q262 793 338 793Q408 793 461 778Q514 763 550 730Q586 697 604 645Q622 593 622 520V484H460Q460 524 455 555.5Q450 587 437 608.5Q424 630 402.5 641.5Q381 653 347 653H338Q298 653 272 637Q246 621 231 590Q216 559 210 513.5Q204 468 204 410V370Q204 311 210 266Q216 221 231.5 190Q247 159 274 143Q301 127 344 127H353Q388 127 414.5 135.5Q441 144 459 157V282H356V422H621V78Q599 60 573 43.5Q547 27 514 14.5Q481 2 440 -5.5Q399 -13 348 -13Z" glyph-name="Gdotaccent" horiz-adv-x="673" unicode="&#288;" /><glyph d="M607 780V0H445V328H218V0H56V780H218V468H445V780Z" glyph-name="H" horiz-adv-x="663" unicode="H" /><glyph d="M445 468V564H218V468ZM607 780V0H445V328H218V0H56V780H218V685H445V780Z" glyph-name="Hbar" horiz-adv-x="663" unicode="&#294;" /><glyph d="M127 840 251 950H411L535 840H393L331 884L269 840ZM607 780V0H445V328H218V0H56V780H218V468H445V780Z" glyph-name="Hcircumflex" horiz-adv-x="663" unicode="&#292;" /><glyph d="M223 0H61V780H223Z" glyph-name="I" horiz-adv-x="283" unicode="I" /><glyph d="M223 0H61V780H223ZM395 780H557V191Q557 135 542.5 96Q528 57 502 33Q476 9 440 -2Q404 -13 361 -13Q322 -13 298 -7.5Q274 -2 266 3V136Q272 133 288 130Q304 127 318 127Q354 127 374.5 143Q395 159 395 209Z" glyph-name="IJ" horiz-adv-x="607" unicode="&#306;" /><glyph d="M284 950 220 840H64L119 950ZM223 0H61V780H223Z" glyph-name="Iacute" horiz-adv-x="283" unicode="&#205;" /><glyph d="M142 825Q87 825 51.5 835Q16 845 -4.5 862Q-25 879 -33 901.5Q-41 924 -41 950H68Q68 930 85 920Q102 910 142 910Q182 910 199 920Q216 930 216 950H325Q325 924 317 901.5Q309 879 288.5 862Q268 845 232.5 835Q197 825 142 825ZM223 0H61V780H223Z" glyph-name="Ibreve" horiz-adv-x="283" unicode="&#300;" /><glyph d="M-62 840 62 950H222L346 840H204L142 884L80 840ZM223 0H61V780H223Z" glyph-name="Icircumflex" horiz-adv-x="283" unicode="&#206;" /><glyph d="M121 845H-12V945H121ZM296 845H163V945H296ZM223 0H61V780H223Z" glyph-name="Idieresis" horiz-adv-x="283" unicode="&#207;" /><glyph d="M209 845H75V945H209ZM223 0H61V780H223Z" glyph-name="Idotaccent" horiz-adv-x="283" unicode="&#304;" /><glyph d="M165 950 220 840H64L0 950ZM223 0H61V780H223Z" glyph-name="Igrave" horiz-adv-x="283" unicode="&#204;" /><glyph d="M-7 943H291V847H-7ZM223 0H61V780H223Z" glyph-name="Imacron" horiz-adv-x="283" unicode="&#298;" /><glyph d="M160 -69Q160 -85 171.5 -95Q183 -105 203 -105Q217 -105 228 -101.5Q239 -98 245 -94L281 -190Q265 -200 237 -207.5Q209 -215 178 -215Q117 -215 80 -188.5Q43 -162 43 -107Q43 -67 61 -35V780H223V0H222Q193 -13 176.5 -29.5Q160 -46 160 -69Z" glyph-name="Iogonek" horiz-adv-x="283" unicode="&#302;" /><glyph d="M327 947Q327 914 318.5 891.5Q310 869 295.5 854.5Q281 840 262.5 834Q244 828 224 828Q200 828 179 835.5Q158 843 139.5 852Q121 861 105 868.5Q89 876 75 876Q61 876 51.5 869.5Q42 863 42 843H-43Q-43 876 -34.5 898.5Q-26 921 -12 935.5Q2 950 21 956Q40 962 60 962Q84 962 105 954.5Q126 947 144.5 938Q163 929 179 921.5Q195 914 209 914Q223 914 232.5 920.5Q242 927 242 947ZM223 0H61V780H223Z" glyph-name="Itilde" horiz-adv-x="283" unicode="&#296;" /><glyph d="M486 780V238Q486 119 432 53Q378 -13 254 -13Q189 -13 145 4Q101 21 74 53Q47 85 35 132.5Q23 180 23 240V266H176Q176 197 191.5 162Q207 127 250 127Q294 127 309 161Q324 195 324 258V780Z" glyph-name="J" horiz-adv-x="537" unicode="J" /><glyph d="M201 840 325 950H485L609 840H467L405 884L343 840ZM486 780V238Q486 119 432 53Q378 -13 254 -13Q189 -13 145 4Q101 21 74 53Q47 85 35 132.5Q23 180 23 240V266H176Q176 197 191.5 162Q207 127 250 127Q294 127 309 161Q324 195 324 258V780Z" glyph-name="Jcircumflex" horiz-adv-x="537" unicode="&#308;" /><glyph d="M218 474 410 780H606L387 467L606 0H426L284 319L218 225V0H56V780H218Z" glyph-name="K" horiz-adv-x="625" unicode="K" /><glyph d="M385 -101Q385 -168 349 -197Q313 -226 238 -226V-172Q270 -172 291 -164Q312 -156 322 -136H243V-44H385ZM218 474 410 780H606L387 467L606 0H426L284 319L218 225V0H56V780H218Z" glyph-name="Kcommaaccent" horiz-adv-x="625" unicode="&#310;" /><glyph d="M56 0V780H218V140H506V0Z" glyph-name="L" horiz-adv-x="521" unicode="L" /><glyph d="M279 950 215 840H59L114 950ZM56 0V780H218V140H506V0Z" glyph-name="Lacute" horiz-adv-x="521" unicode="&#313;" /><glyph d="M427 800 401 596H331V800ZM56 0V780H218V140H506V0Z" glyph-name="Lcaron" horiz-adv-x="521" unicode="&#317;" /><glyph d="M352 -101Q352 -168 316 -197Q280 -226 205 -226V-172Q237 -172 258 -164Q279 -156 289 -136H210V-44H352ZM56 0V780H218V140H506V0Z" glyph-name="Lcommaaccent" horiz-adv-x="521" unicode="&#315;" /><glyph d="M478 315H313V481H478ZM56 0V780H218V140H506V0Z" glyph-name="Ldot" horiz-adv-x="521" unicode="&#319;" /><glyph d="M12 323 116 374V780H278V454L459 543V409L278 319V140H566V0H116V239L12 188Z" glyph-name="Lslash" horiz-adv-x="581" unicode="&#321;" /><glyph d="M517 0H352L213 499L218 343V0H56V780H295L435 281L574 780H814V0H652V343L656 499Z" glyph-name="M" horiz-adv-x="869" unicode="M" /><glyph d="M502 845H368V945H502ZM517 0H352L213 499L218 343V0H56V780H295L435 281L574 780H814V0H652V343L656 499Z" glyph-name="Mdotaccent" horiz-adv-x="869" unicode="&#7744;" /><glyph d="M627 0H456L204 484L209 327V0H56V780H227L478 296L473 453V780H627Z" glyph-name="N" horiz-adv-x="683" unicode="N" /><glyph d="M483 950 419 840H263L318 950ZM627 0H456L204 484L209 327V0H56V780H227L478 296L473 453V780H627Z" glyph-name="Nacute" horiz-adv-x="683" unicode="&#323;" /><glyph d="M279 950 341 905 403 950H545L421 840H261L137 950ZM627 0H456L204 484L209 327V0H56V780H227L478 296L473 453V780H627Z" glyph-name="Ncaron" horiz-adv-x="683" unicode="&#327;" /><glyph d="M412 -101Q412 -168 376 -197Q340 -226 265 -226V-172Q297 -172 318 -164Q339 -156 349 -136H270V-44H412ZM627 0H456L204 484L209 327V0H56V780H227L478 296L473 453V780H627Z" glyph-name="Ncommaaccent" horiz-adv-x="683" unicode="&#325;" /><glyph d="M526 947Q526 914 517.5 891.5Q509 869 494.5 854.5Q480 840 461.5 834Q443 828 423 828Q399 828 378 835.5Q357 843 338.5 852Q320 861 304 868.5Q288 876 274 876Q260 876 250.5 869.5Q241 863 241 843H156Q156 876 164.5 898.5Q173 921 187 935.5Q201 950 220 956Q239 962 259 962Q283 962 304 954.5Q325 947 343.5 938Q362 929 378 921.5Q394 914 408 914Q422 914 431.5 920.5Q441 927 441 947ZM627 0H456L204 484L209 327V0H56V780H227L478 296L473 453V780H627Z" glyph-name="Ntilde" horiz-adv-x="683" unicode="&#209;" /><glyph d="M341 127Q378 127 403 143Q428 159 442.5 190Q457 221 463 266Q469 311 469 370V410Q469 468 463 513.5Q457 559 442.5 590Q428 621 403 637Q378 653 341 653H332Q294 653 269.5 637Q245 621 230 590Q215 559 209 513.5Q203 468 203 410V370Q203 311 209 266Q215 221 230 190Q245 159 269.5 143Q294 127 332 127ZM336 -13Q260 -13 204 9Q148 31 111.5 77.5Q75 124 57 196.5Q39 269 39 370V410Q39 511 57 583.5Q75 656 111.5 702.5Q148 749 204 771Q260 793 336 793Q412 793 468 771Q524 749 561 702.5Q598 656 616 583.5Q634 511 634 410V370Q634 269 616 196.5Q598 124 561 77.5Q524 31 468 9Q412 -13 336 -13Z" glyph-name="O" horiz-adv-x="673" unicode="O" /><glyph d="M376 640Q326 640 292.5 626Q259 612 239 583.5Q219 555 211 511.5Q203 468 203 410V370Q203 311 211 268Q219 225 239 196.5Q259 168 292.5 154Q326 140 376 140H423V640ZM39 410Q39 511 57.5 581.5Q76 652 116 696Q156 740 218 760Q280 780 367 780H900V640H585V468H850V328H585V140H900V0H367Q280 0 218 20Q156 40 116 84Q76 128 57.5 198.5Q39 269 39 370Z" glyph-name="OE" horiz-adv-x="940" unicode="&#338;" /><glyph d="M478 950 414 840H258L313 950ZM341 127Q378 127 403 143Q428 159 442.5 190Q457 221 463 266Q469 311 469 370V410Q469 468 463 513.5Q457 559 442.5 590Q428 621 403 637Q378 653 341 653H332Q294 653 269.5 637Q245 621 230 590Q215 559 209 513.5Q203 468 203 410V370Q203 311 209 266Q215 221 230 190Q245 159 269.5 143Q294 127 332 127ZM336 -13Q260 -13 204 9Q148 31 111.5 77.5Q75 124 57 196.5Q39 269 39 370V410Q39 511 57 583.5Q75 656 111.5 702.5Q148 749 204 771Q260 793 336 793Q412 793 468 771Q524 749 561 702.5Q598 656 616 583.5Q634 511 634 410V370Q634 269 616 196.5Q598 124 561 77.5Q524 31 468 9Q412 -13 336 -13Z" glyph-name="Oacute" horiz-adv-x="673" unicode="&#211;" /><glyph d="M336 825Q281 825 245.5 835Q210 845 189.5 862Q169 879 161 901.5Q153 924 153 950H262Q262 930 279 920Q296 910 336 910Q376 910 393 920Q410 930 410 950H519Q519 924 511 901.5Q503 879 482.5 862Q462 845 426.5 835Q391 825 336 825ZM341 127Q378 127 403 143Q428 159 442.5 190Q457 221 463 266Q469 311 469 370V410Q469 468 463 513.5Q457 559 442.5 590Q428 621 403 637Q378 653 341 653H332Q294 653 269.5 637Q245 621 230 590Q215 559 209 513.5Q203 468 203 410V370Q203 311 209 266Q215 221 230 190Q245 159 269.5 143Q294 127 332 127ZM336 -13Q260 -13 204 9Q148 31 111.5 77.5Q75 124 57 196.5Q39 269 39 370V410Q39 511 57 583.5Q75 656 111.5 702.5Q148 749 204 771Q260 793 336 793Q412 793 468 771Q524 749 561 702.5Q598 656 616 583.5Q634 511 634 410V370Q634 269 616 196.5Q598 124 561 77.5Q524 31 468 9Q412 -13 336 -13Z" glyph-name="Obreve" horiz-adv-x="673" unicode="&#334;" /><glyph d="M132 840 256 950H416L540 840H398L336 884L274 840ZM341 127Q378 127 403 143Q428 159 442.5 190Q457 221 463 266Q469 311 469 370V410Q469 468 463 513.5Q457 559 442.5 590Q428 621 403 637Q378 653 341 653H332Q294 653 269.5 637Q245 621 230 590Q215 559 209 513.5Q203 468 203 410V370Q203 311 209 266Q215 221 230 190Q245 159 269.5 143Q294 127 332 127ZM336 -13Q260 -13 204 9Q148 31 111.5 77.5Q75 124 57 196.5Q39 269 39 370V410Q39 511 57 583.5Q75 656 111.5 702.5Q148 749 204 771Q260 793 336 793Q412 793 468 771Q524 749 561 702.5Q598 656 616 583.5Q634 511 634 410V370Q634 269 616 196.5Q598 124 561 77.5Q524 31 468 9Q412 -13 336 -13Z" glyph-name="Ocircumflex" horiz-adv-x="673" unicode="&#212;" /><glyph d="M490 845H357V945H490ZM315 845H182V945H315ZM341 127Q378 127 403 143Q428 159 442.5 190Q457 221 463 266Q469 311 469 370V410Q469 468 463 513.5Q457 559 442.5 590Q428 621 403 637Q378 653 341 653H332Q294 653 269.5 637Q245 621 230 590Q215 559 209 513.5Q203 468 203 410V370Q203 311 209 266Q215 221 230 190Q245 159 269.5 143Q294 127 332 127ZM336 -13Q260 -13 204 9Q148 31 111.5 77.5Q75 124 57 196.5Q39 269 39 370V410Q39 511 57 583.5Q75 656 111.5 702.5Q148 749 204 771Q260 793 336 793Q412 793 468 771Q524 749 561 702.5Q598 656 616 583.5Q634 511 634 410V370Q634 269 616 196.5Q598 124 561 77.5Q524 31 468 9Q412 -13 336 -13Z" glyph-name="Odieresis" horiz-adv-x="673" unicode="&#214;" /><glyph d="M359 950 414 840H258L194 950ZM341 127Q378 127 403 143Q428 159 442.5 190Q457 221 463 266Q469 311 469 370V410Q469 468 463 513.5Q457 559 442.5 590Q428 621 403 637Q378 653 341 653H332Q294 653 269.5 637Q245 621 230 590Q215 559 209 513.5Q203 468 203 410V370Q203 311 209 266Q215 221 230 190Q245 159 269.5 143Q294 127 332 127ZM336 -13Q260 -13 204 9Q148 31 111.5 77.5Q75 124 57 196.5Q39 269 39 370V410Q39 511 57 583.5Q75 656 111.5 702.5Q148 749 204 771Q260 793 336 793Q412 793 468 771Q524 749 561 702.5Q598 656 616 583.5Q634 511 634 410V370Q634 269 616 196.5Q598 124 561 77.5Q524 31 468 9Q412 -13 336 -13Z" glyph-name="Ograve" horiz-adv-x="673" unicode="&#210;" /><glyph d="M553 950 489 840H350L404 950ZM378 950 322 840H183L229 950ZM341 127Q378 127 403 143Q428 159 442.5 190Q457 221 463 266Q469 311 469 370V410Q469 468 463 513.5Q457 559 442.5 590Q428 621 403 637Q378 653 341 653H332Q294 653 269.5 637Q245 621 230 590Q215 559 209 513.5Q203 468 203 410V370Q203 311 209 266Q215 221 230 190Q245 159 269.5 143Q294 127 332 127ZM336 -13Q260 -13 204 9Q148 31 111.5 77.5Q75 124 57 196.5Q39 269 39 370V410Q39 511 57 583.5Q75 656 111.5 702.5Q148 749 204 771Q260 793 336 793Q412 793 468 771Q524 749 561 702.5Q598 656 616 583.5Q634 511 634 410V370Q634 269 616 196.5Q598 124 561 77.5Q524 31 468 9Q412 -13 336 -13Z" glyph-name="Ohungarumlaut" horiz-adv-x="673" unicode="&#336;" /><glyph d="M187 943H485V847H187ZM341 127Q378 127 403 143Q428 159 442.5 190Q457 221 463 266Q469 311 469 370V410Q469 468 463 513.5Q457 559 442.5 590Q428 621 403 637Q378 653 341 653H332Q294 653 269.5 637Q245 621 230 590Q215 559 209 513.5Q203 468 203 410V370Q203 311 209 266Q215 221 230 190Q245 159 269.5 143Q294 127 332 127ZM336 -13Q260 -13 204 9Q148 31 111.5 77.5Q75 124 57 196.5Q39 269 39 370V410Q39 511 57 583.5Q75 656 111.5 702.5Q148 749 204 771Q260 793 336 793Q412 793 468 771Q524 749 561 702.5Q598 656 616 583.5Q634 511 634 410V370Q634 269 616 196.5Q598 124 561 77.5Q524 31 468 9Q412 -13 336 -13Z" glyph-name="Omacron" horiz-adv-x="673" unicode="&#332;" /><glyph d="M203 370Q203 311 209 268L429 613Q398 653 341 653H332Q294 653 269.5 637Q245 621 230 590Q215 559 209 513.5Q203 468 203 410ZM469 410Q469 468 463 513L243 168Q273 127 332 127H341Q378 127 403 143Q428 159 442.5 190Q457 221 463 266Q469 311 469 370ZM39 410Q39 511 57 583.5Q75 656 111.5 702.5Q148 749 204 771Q260 793 336 793Q446 793 514 747L535 780H633L573 686Q634 594 634 410V370Q634 269 616 196.5Q598 124 561 77.5Q524 31 468 9Q412 -13 336 -13Q225 -13 157 34L136 0H38L99 95Q39 188 39 370Z" glyph-name="Oslash" horiz-adv-x="670" unicode="&#216;" /><glyph d="M521 947Q521 914 512.5 891.5Q504 869 489.5 854.5Q475 840 456.5 834Q438 828 418 828Q394 828 373 835.5Q352 843 333.5 852Q315 861 299 868.5Q283 876 269 876Q255 876 245.5 869.5Q236 863 236 843H151Q151 876 159.5 898.5Q168 921 182 935.5Q196 950 215 956Q234 962 254 962Q278 962 299 954.5Q320 947 338.5 938Q357 929 373 921.5Q389 914 403 914Q417 914 426.5 920.5Q436 927 436 947ZM341 127Q378 127 403 143Q428 159 442.5 190Q457 221 463 266Q469 311 469 370V410Q469 468 463 513.5Q457 559 442.5 590Q428 621 403 637Q378 653 341 653H332Q294 653 269.5 637Q245 621 230 590Q215 559 209 513.5Q203 468 203 410V370Q203 311 209 266Q215 221 230 190Q245 159 269.5 143Q294 127 332 127ZM336 -13Q260 -13 204 9Q148 31 111.5 77.5Q75 124 57 196.5Q39 269 39 370V410Q39 511 57 583.5Q75 656 111.5 702.5Q148 749 204 771Q260 793 336 793Q412 793 468 771Q524 749 561 702.5Q598 656 616 583.5Q634 511 634 410V370Q634 269 616 196.5Q598 124 561 77.5Q524 31 468 9Q412 -13 336 -13Z" glyph-name="Otilde" horiz-adv-x="673" unicode="&#213;" /><glyph d="M319 420Q335 420 353 424Q371 428 385.5 439.5Q400 451 409.5 471.5Q419 492 419 525V535Q419 568 409.5 588.5Q400 609 385.5 620.5Q371 632 353 636Q335 640 319 640H218V420ZM218 0H56V780H312Q360 780 408 771.5Q456 763 495 737.5Q534 712 558.5 665Q583 618 583 540V520Q583 442 558.5 394.5Q534 347 495 321.5Q456 296 408 288Q360 280 312 280H218Z" glyph-name="P" horiz-adv-x="609" unicode="P" /><glyph d="M360 845H226V945H360ZM319 420Q335 420 353 424Q371 428 385.5 439.5Q400 451 409.5 471.5Q419 492 419 525V535Q419 568 409.5 588.5Q400 609 385.5 620.5Q371 632 353 636Q335 640 319 640H218V420ZM218 0H56V780H312Q360 780 408 771.5Q456 763 495 737.5Q534 712 558.5 665Q583 618 583 540V520Q583 442 558.5 394.5Q534 347 495 321.5Q456 296 408 288Q360 280 312 280H218Z" glyph-name="Pdotaccent" horiz-adv-x="609" unicode="&#7766;" /><glyph d="M427 165Q450 194 459.5 246Q469 298 469 370V410Q469 468 463 513.5Q457 559 442.5 590Q428 621 403 637Q378 653 341 653H332Q294 653 269.5 637Q245 621 230 590Q215 559 209 513.5Q203 468 203 410V370Q203 314 208.5 270Q214 226 227.5 195.5Q241 165 263 147.5Q285 130 319 127L267 262H389ZM336 -13Q260 -13 204 9Q148 31 111.5 77.5Q75 124 57 196.5Q39 269 39 370V410Q39 511 57 583.5Q75 656 111.5 702.5Q148 749 204 771Q260 793 336 793Q412 793 468 771Q524 749 561 702.5Q598 656 616 583.5Q634 511 634 410V370Q634 226 597.5 140Q561 54 486 17L533 -100H407L373 -11Q364 -12 355 -12.5Q346 -13 336 -13Z" glyph-name="Q" horiz-adv-x="673" unicode="Q" /><glyph d="M319 420Q335 420 353 424Q371 428 385.5 439.5Q400 451 409.5 471.5Q419 492 419 525V535Q419 568 409.5 588.5Q400 609 385.5 620.5Q371 632 353 636Q335 640 319 640H218V420ZM218 0H56V780H312Q360 780 408 771.5Q456 763 495 737.5Q534 712 558.5 665Q583 618 583 540V520Q583 473 573.5 437Q564 401 547.5 375Q531 349 508.5 331.5Q486 314 460 303L583 0H408L301 280H218Z" glyph-name="R" horiz-adv-x="623" unicode="R" /><glyph d="M440 950 376 840H220L275 950ZM319 420Q335 420 353 424Q371 428 385.5 439.5Q400 451 409.5 471.5Q419 492 419 525V535Q419 568 409.5 588.5Q400 609 385.5 620.5Q371 632 353 636Q335 640 319 640H218V420ZM218 0H56V780H312Q360 780 408 771.5Q456 763 495 737.5Q534 712 558.5 665Q583 618 583 540V520Q583 473 573.5 437Q564 401 547.5 375Q531 349 508.5 331.5Q486 314 460 303L583 0H408L301 280H218Z" glyph-name="Racute" horiz-adv-x="623" unicode="&#340;" /><glyph d="M236 950 298 905 360 950H502L378 840H218L94 950ZM319 420Q335 420 353 424Q371 428 385.5 439.5Q400 451 409.5 471.5Q419 492 419 525V535Q419 568 409.5 588.5Q400 609 385.5 620.5Q371 632 353 636Q335 640 319 640H218V420ZM218 0H56V780H312Q360 780 408 771.5Q456 763 495 737.5Q534 712 558.5 665Q583 618 583 540V520Q583 473 573.5 437Q564 401 547.5 375Q531 349 508.5 331.5Q486 314 460 303L583 0H408L301 280H218Z" glyph-name="Rcaron" horiz-adv-x="623" unicode="&#344;" /><glyph d="M379 -101Q379 -168 343 -197Q307 -226 232 -226V-172Q264 -172 285 -164Q306 -156 316 -136H237V-44H379ZM319 420Q335 420 353 424Q371 428 385.5 439.5Q400 451 409.5 471.5Q419 492 419 525V535Q419 568 409.5 588.5Q400 609 385.5 620.5Q371 632 353 636Q335 640 319 640H218V420ZM218 0H56V780H312Q360 780 408 771.5Q456 763 495 737.5Q534 712 558.5 665Q583 618 583 540V520Q583 473 573.5 437Q564 401 547.5 375Q531 349 508.5 331.5Q486 314 460 303L583 0H408L301 280H218Z" glyph-name="Rcommaaccent" horiz-adv-x="623" unicode="&#342;" /><glyph d="M290 326Q226 335 179 351Q132 367 101 393.5Q70 420 55 458.5Q40 497 40 550V561Q40 667 110.5 730Q181 793 315 793Q459 793 525 727.5Q591 662 591 525V504H429Q429 581 403.5 617Q378 653 316 653H307Q258 653 231 629Q204 605 204 567V562Q204 541 209.5 524.5Q215 508 230 495.5Q245 483 271.5 474.5Q298 466 341 460Q405 451 453 435Q501 419 533 392.5Q565 366 581 327Q597 288 597 234V224Q597 111 525 49Q453 -13 315 -13Q177 -13 105.5 51.5Q34 116 34 257V266H196Q196 192 225 159.5Q254 127 311 127H320Q377 127 404.5 153.5Q432 180 432 219V224Q432 245 425.5 261.5Q419 278 403 290.5Q387 303 359.5 311.5Q332 320 290 326Z" glyph-name="S" horiz-adv-x="631" unicode="S" /><glyph d="M457 950 393 840H237L292 950ZM290 326Q226 335 179 351Q132 367 101 393.5Q70 420 55 458.5Q40 497 40 550V561Q40 667 110.5 730Q181 793 315 793Q459 793 525 727.5Q591 662 591 525V504H429Q429 581 403.5 617Q378 653 316 653H307Q258 653 231 629Q204 605 204 567V562Q204 541 209.5 524.5Q215 508 230 495.5Q245 483 271.5 474.5Q298 466 341 460Q405 451 453 435Q501 419 533 392.5Q565 366 581 327Q597 288 597 234V224Q597 111 525 49Q453 -13 315 -13Q177 -13 105.5 51.5Q34 116 34 257V266H196Q196 192 225 159.5Q254 127 311 127H320Q377 127 404.5 153.5Q432 180 432 219V224Q432 245 425.5 261.5Q419 278 403 290.5Q387 303 359.5 311.5Q332 320 290 326Z" glyph-name="Sacute" horiz-adv-x="631" unicode="&#346;" /><glyph d="M253 950 315 905 377 950H519L395 840H235L111 950ZM290 326Q226 335 179 351Q132 367 101 393.5Q70 420 55 458.5Q40 497 40 550V561Q40 667 110.5 730Q181 793 315 793Q459 793 525 727.5Q591 662 591 525V504H429Q429 581 403.5 617Q378 653 316 653H307Q258 653 231 629Q204 605 204 567V562Q204 541 209.5 524.5Q215 508 230 495.5Q245 483 271.5 474.5Q298 466 341 460Q405 451 453 435Q501 419 533 392.5Q565 366 581 327Q597 288 597 234V224Q597 111 525 49Q453 -13 315 -13Q177 -13 105.5 51.5Q34 116 34 257V266H196Q196 192 225 159.5Q254 127 311 127H320Q377 127 404.5 153.5Q432 180 432 219V224Q432 245 425.5 261.5Q419 278 403 290.5Q387 303 359.5 311.5Q332 320 290 326Z" glyph-name="Scaron" horiz-adv-x="631" unicode="&#352;" /><glyph d="M232 -124Q244 -132 264 -136.5Q284 -141 304 -141Q330 -141 340.5 -135Q351 -129 351 -118Q351 -95 303 -95Q296 -95 289 -96Q282 -97 277 -98Q271 -99 265 -100L250 -72L274 -11Q156 -3 95 61.5Q34 126 34 257V266H196Q196 192 225 159.5Q254 127 311 127H320Q377 127 404.5 153.5Q432 180 432 219V224Q432 245 425.5 261.5Q419 278 403 290.5Q387 303 359.5 311.5Q332 320 290 326Q226 335 179 351Q132 367 101 393.5Q70 420 55 458.5Q40 497 40 550V561Q40 667 110.5 730Q181 793 315 793Q459 793 525 727.5Q591 662 591 525V504H429Q429 581 403.5 617Q378 653 316 653H307Q258 653 231 629Q204 605 204 567V562Q204 541 209.5 524.5Q215 508 230 495.5Q245 483 271.5 474.5Q298 466 341 460Q405 451 453 435Q501 419 533 392.5Q565 366 581 327Q597 288 597 234V224Q597 118 533 57Q469 -4 346 -12L336 -40Q378 -43 407 -64Q436 -85 436 -127Q436 -215 316 -215Q279 -215 251 -207Q223 -199 209 -190Z" glyph-name="Scedilla" horiz-adv-x="631" unicode="&#350;" /><glyph d="M111 840 235 950H395L519 840H377L315 884L253 840ZM290 326Q226 335 179 351Q132 367 101 393.5Q70 420 55 458.5Q40 497 40 550V561Q40 667 110.5 730Q181 793 315 793Q459 793 525 727.5Q591 662 591 525V504H429Q429 581 403.5 617Q378 653 316 653H307Q258 653 231 629Q204 605 204 567V562Q204 541 209.5 524.5Q215 508 230 495.5Q245 483 271.5 474.5Q298 466 341 460Q405 451 453 435Q501 419 533 392.5Q565 366 581 327Q597 288 597 234V224Q597 111 525 49Q453 -13 315 -13Q177 -13 105.5 51.5Q34 116 34 257V266H196Q196 192 225 159.5Q254 127 311 127H320Q377 127 404.5 153.5Q432 180 432 219V224Q432 245 425.5 261.5Q419 278 403 290.5Q387 303 359.5 311.5Q332 320 290 326Z" glyph-name="Scircumflex" horiz-adv-x="631" unicode="&#348;" /><glyph d="M386 -101Q386 -168 350 -197Q314 -226 239 -226V-172Q271 -172 292 -164Q313 -156 323 -136H244V-44H386ZM290 326Q226 335 179 351Q132 367 101 393.5Q70 420 55 458.5Q40 497 40 550V561Q40 667 110.5 730Q181 793 315 793Q459 793 525 727.5Q591 662 591 525V504H429Q429 581 403.5 617Q378 653 316 653H307Q258 653 231 629Q204 605 204 567V562Q204 541 209.5 524.5Q215 508 230 495.5Q245 483 271.5 474.5Q298 466 341 460Q405 451 453 435Q501 419 533 392.5Q565 366 581 327Q597 288 597 234V224Q597 111 525 49Q453 -13 315 -13Q177 -13 105.5 51.5Q34 116 34 257V266H196Q196 192 225 159.5Q254 127 311 127H320Q377 127 404.5 153.5Q432 180 432 219V224Q432 245 425.5 261.5Q419 278 403 290.5Q387 303 359.5 311.5Q332 320 290 326Z" glyph-name="Scommaaccent" horiz-adv-x="631" unicode="&#536;" /><glyph d="M359 0H197V640H17V780H540V640H359Z" glyph-name="T" horiz-adv-x="557" unicode="T" /><glyph d="M359 463H473V333H359V0H197V333H84V463H197V640H17V780H540V640H359Z" glyph-name="Tbar" horiz-adv-x="557" unicode="&#358;" /><glyph d="M216 950 278 905 340 950H482L358 840H198L74 950ZM359 0H197V640H17V780H540V640H359Z" glyph-name="Tcaron" horiz-adv-x="557" unicode="&#356;" /><glyph d="M349 -101Q349 -168 313 -197Q277 -226 202 -226V-172Q234 -172 255 -164Q276 -156 286 -136H207V-44H349ZM359 0H197V640H17V780H540V640H359Z" glyph-name="Tcommaaccent" horiz-adv-x="557" unicode="&#354;" /><glyph d="M345 845H211V945H345ZM359 0H197V640H17V780H540V640H359Z" glyph-name="Tdotaccent" horiz-adv-x="557" unicode="&#7786;" /><glyph d="M319 280Q335 280 353 284Q371 288 385.5 299.5Q400 311 409.5 331.5Q419 352 419 385V395Q419 428 409.5 448.5Q400 469 385.5 480.5Q371 492 353 496Q335 500 319 500H218V280ZM218 640H312Q360 640 408 631.5Q456 623 495 597.5Q534 572 558.5 525Q583 478 583 400V380Q583 302 558.5 255Q534 208 495 182.5Q456 157 408 148.5Q360 140 312 140H218V0H56V780H218Z" glyph-name="Thorn" horiz-adv-x="609" unicode="&#222;" /><glyph d="M331 -13Q251 -13 197.5 3.5Q144 20 111.5 53Q79 86 65 134.5Q51 183 51 247V780H213V252Q213 189 237.5 158Q262 127 331 127Q400 127 425 158Q450 189 450 252V780H612V247Q612 183 598 134.5Q584 86 551 53Q518 20 464 3.5Q410 -13 331 -13Z" glyph-name="U" horiz-adv-x="663" unicode="U" /><glyph d="M473 950 409 840H253L308 950ZM331 -13Q251 -13 197.5 3.5Q144 20 111.5 53Q79 86 65 134.5Q51 183 51 247V780H213V252Q213 189 237.5 158Q262 127 331 127Q400 127 425 158Q450 189 450 252V780H612V247Q612 183 598 134.5Q584 86 551 53Q518 20 464 3.5Q410 -13 331 -13Z" glyph-name="Uacute" horiz-adv-x="663" unicode="&#218;" /><glyph d="M331 -13Q251 -13 197.5 3.5Q144 20 111.5 53Q79 86 65 134.5Q51 183 51 247V780H213V252Q213 189 237.5 158Q262 127 331 127Q400 127 425 158Q450 189 450 252V780H612V247Q612 183 598 134.5Q584 86 551 53Q518 20 464 3.5Q410 -13 331 -13ZM331 825Q276 825 240.5 835Q205 845 184.5 862Q164 879 156 901.5Q148 924 148 950H257Q257 930 274 920Q291 910 331 910Q371 910 388 920Q405 930 405 950H514Q514 924 506 901.5Q498 879 477.5 862Q457 845 421.5 835Q386 825 331 825Z" glyph-name="Ubreve" horiz-adv-x="663" unicode="&#364;" /><glyph d="M127 840 251 950H411L535 840H393L331 884L269 840ZM331 -13Q251 -13 197.5 3.5Q144 20 111.5 53Q79 86 65 134.5Q51 183 51 247V780H213V252Q213 189 237.5 158Q262 127 331 127Q400 127 425 158Q450 189 450 252V780H612V247Q612 183 598 134.5Q584 86 551 53Q518 20 464 3.5Q410 -13 331 -13Z" glyph-name="Ucircumflex" horiz-adv-x="663" unicode="&#219;" /><glyph d="M485 845H352V945H485ZM310 845H177V945H310ZM331 -13Q251 -13 197.5 3.5Q144 20 111.5 53Q79 86 65 134.5Q51 183 51 247V780H213V252Q213 189 237.5 158Q262 127 331 127Q400 127 425 158Q450 189 450 252V780H612V247Q612 183 598 134.5Q584 86 551 53Q518 20 464 3.5Q410 -13 331 -13Z" glyph-name="Udieresis" horiz-adv-x="663" unicode="&#220;" /><glyph d="M354 950 409 840H253L189 950ZM331 -13Q251 -13 197.5 3.5Q144 20 111.5 53Q79 86 65 134.5Q51 183 51 247V780H213V252Q213 189 237.5 158Q262 127 331 127Q400 127 425 158Q450 189 450 252V780H612V247Q612 183 598 134.5Q584 86 551 53Q518 20 464 3.5Q410 -13 331 -13Z" glyph-name="Ugrave" horiz-adv-x="663" unicode="&#217;" /><glyph d="M373 950 317 840H178L224 950ZM548 950 484 840H345L399 950ZM331 -13Q251 -13 197.5 3.5Q144 20 111.5 53Q79 86 65 134.5Q51 183 51 247V780H213V252Q213 189 237.5 158Q262 127 331 127Q400 127 425 158Q450 189 450 252V780H612V247Q612 183 598 134.5Q584 86 551 53Q518 20 464 3.5Q410 -13 331 -13Z" glyph-name="Uhungarumlaut" horiz-adv-x="663" unicode="&#368;" /><glyph d="M182 943H480V847H182ZM331 -13Q251 -13 197.5 3.5Q144 20 111.5 53Q79 86 65 134.5Q51 183 51 247V780H213V252Q213 189 237.5 158Q262 127 331 127Q400 127 425 158Q450 189 450 252V780H612V247Q612 183 598 134.5Q584 86 551 53Q518 20 464 3.5Q410 -13 331 -13Z" glyph-name="Umacron" horiz-adv-x="663" unicode="&#362;" /><glyph d="M390 -69Q390 -85 401.5 -95Q413 -105 433 -105Q447 -105 458 -101.5Q469 -98 475 -94L511 -190Q495 -200 467 -207.5Q439 -215 408 -215Q347 -215 310 -188.5Q273 -162 273 -107Q273 -53 306 -12Q234 -9 185 8.5Q136 26 106.5 59Q77 92 64 139Q51 186 51 247V780H213V252Q213 189 237.5 158Q262 127 331 127Q400 127 425 158Q450 189 450 252V780H612V247Q612 147 575.5 84.5Q539 22 452 0Q421 -8 405.5 -27Q390 -46 390 -69Z" glyph-name="Uogonek" horiz-adv-x="663" unicode="&#370;" /><glyph d="M280 858Q280 837 295 822Q310 807 331 807Q352 807 367 822Q382 837 382 858Q382 879 367 893.5Q352 908 331 908Q310 908 295 893.5Q280 879 280 858ZM226 858Q226 880 234 899Q242 918 256.5 932Q271 946 290 954.5Q309 963 331 963Q353 963 372 954.5Q391 946 405 932Q419 918 427.5 899Q436 880 436 858Q436 836 427.5 817Q419 798 405 783.5Q391 769 372 760.5Q353 752 331 752Q309 752 290 760.5Q271 769 256.5 783.5Q242 798 234 817Q226 836 226 858ZM331 -13Q251 -13 197.5 3.5Q144 20 111.5 53Q79 86 65 134.5Q51 183 51 247V780H213V252Q213 189 237.5 158Q262 127 331 127Q400 127 425 158Q450 189 450 252V780H612V247Q612 183 598 134.5Q584 86 551 53Q518 20 464 3.5Q410 -13 331 -13Z" glyph-name="Uring" horiz-adv-x="663" unicode="&#366;" /><glyph d="M331 -13Q251 -13 197.5 3.5Q144 20 111.5 53Q79 86 65 134.5Q51 183 51 247V780H213V252Q213 189 237.5 158Q262 127 331 127Q400 127 425 158Q450 189 450 252V780H612V247Q612 183 598 134.5Q584 86 551 53Q518 20 464 3.5Q410 -13 331 -13ZM516 947Q516 914 507.5 891.5Q499 869 484.5 854.5Q470 840 451.5 834Q433 828 413 828Q389 828 368 835.5Q347 843 328.5 852Q310 861 294 868.5Q278 876 264 876Q250 876 240.5 869.5Q231 863 231 843H146Q146 876 154.5 898.5Q163 921 177 935.5Q191 950 210 956Q229 962 249 962Q273 962 294 954.5Q315 947 333.5 938Q352 929 368 921.5Q384 914 398 914Q412 914 421.5 920.5Q431 927 431 947Z" glyph-name="Utilde" horiz-adv-x="663" unicode="&#360;" /><glyph d="M209 -2 14 780H187L320 185L453 780H627L432 -2Z" glyph-name="V" horiz-adv-x="641" unicode="V" /><glyph d="M468 595 355 -2H148L19 780H188L263 219L368 780H569L674 219L749 780H918L789 -2H581Z" glyph-name="W" horiz-adv-x="937" unicode="W" /><glyph d="M610 950 546 840H390L445 950ZM468 595 355 -2H148L19 780H188L263 219L368 780H569L674 219L749 780H918L789 -2H581Z" glyph-name="Wacute" horiz-adv-x="937" unicode="&#7810;" /><glyph d="M264 840 388 950H548L672 840H530L468 884L406 840ZM468 595 355 -2H148L19 780H188L263 219L368 780H569L674 219L749 780H918L789 -2H581Z" glyph-name="Wcircumflex" horiz-adv-x="937" unicode="&#372;" /><glyph d="M622 845H489V945H622ZM447 845H314V945H447ZM468 595 355 -2H148L19 780H188L263 219L368 780H569L674 219L749 780H918L789 -2H581Z" glyph-name="Wdieresis" horiz-adv-x="937" unicode="&#7812;" /><glyph d="M491 950 546 840H390L326 950ZM468 595 355 -2H148L19 780H188L263 219L368 780H569L674 219L749 780H918L789 -2H581Z" glyph-name="Wgrave" horiz-adv-x="937" unicode="&#7808;" /><glyph d="M209 409 19 780H207L324 521L442 780H630L440 409L630 0H450L324 291L198 0H19Z" glyph-name="X" horiz-adv-x="649" unicode="X" /><glyph d="M394 0H232V239L8 780H185L313 439L440 780H617L394 239Z" glyph-name="Y" horiz-adv-x="625" unicode="Y" /><glyph d="M455 950 391 840H235L290 950ZM394 0H232V239L8 780H185L313 439L440 780H617L394 239Z" glyph-name="Yacute" horiz-adv-x="625" unicode="&#221;" /><glyph d="M109 840 233 950H393L517 840H375L313 884L251 840ZM394 0H232V239L8 780H185L313 439L440 780H617L394 239Z" glyph-name="Ycircumflex" horiz-adv-x="625" unicode="&#374;" /><glyph d="M292 845H159V945H292ZM467 845H334V945H467ZM394 0H232V239L8 780H185L313 439L440 780H617L394 239Z" glyph-name="Ydieresis" horiz-adv-x="625" unicode="&#376;" /><glyph d="M336 950 391 840H235L171 950ZM394 0H232V239L8 780H185L313 439L440 780H617L394 239Z" glyph-name="Ygrave" horiz-adv-x="625" unicode="&#7922;" /><glyph d="M164 943H462V847H164ZM394 0H232V239L8 780H185L313 439L440 780H617L394 239Z" glyph-name="Ymacron" horiz-adv-x="625" unicode="&#562;" /><glyph d="M351 643 208 640H50V780H549V669L238 137L381 140H559V0H40V111Z" glyph-name="Z" horiz-adv-x="599" unicode="Z" /><glyph d="M351 643 208 640H50V780H549V669L238 137L381 140H559V0H40V111ZM441 950 377 840H221L276 950Z" glyph-name="Zacute" horiz-adv-x="599" unicode="&#377;" /><glyph d="M351 643 208 640H50V780H549V669L238 137L381 140H559V0H40V111ZM237 950 299 905 361 950H503L379 840H219L95 950Z" glyph-name="Zcaron" horiz-adv-x="599" unicode="&#381;" /><glyph d="M351 643 208 640H50V780H549V669L238 137L381 140H559V0H40V111ZM366 845H232V945H366Z" glyph-name="Zdotaccent" horiz-adv-x="599" unicode="&#379;" /><glyph d="M250 115Q284 115 306.5 128Q329 141 342 155V252L252 238Q215 232 201 215.5Q187 199 187 175V169Q187 149 201 132Q215 115 250 115ZM358 55Q330 25 289 6Q248 -13 192 -13Q147 -13 116.5 0Q86 13 66.5 34.5Q47 56 38.5 85Q30 114 30 146V156Q30 199 44 228.5Q58 258 83.5 277.5Q109 297 143.5 308.5Q178 320 220 326L342 345Q341 384 326 403.5Q311 423 270 423Q249 423 235 417.5Q221 412 213 402.5Q205 393 202 380.5Q199 368 199 355H50V364Q50 398 60.5 430.5Q71 463 97 488Q123 513 166 528Q209 543 275 543Q340 543 383 529.5Q426 516 452 490Q478 464 489 426.5Q500 389 500 341V150L510 0H368Z" glyph-name="a" horiz-adv-x="549" unicode="a" /><glyph d="M250 115Q284 115 306.5 128Q329 141 342 155V252L252 238Q215 232 201 215.5Q187 199 187 175V169Q187 149 201 132Q215 115 250 115ZM459 780 352 596H196L287 780ZM358 55Q330 25 289 6Q248 -13 192 -13Q147 -13 116.5 0Q86 13 66.5 34.5Q47 56 38.5 85Q30 114 30 146V156Q30 199 44 228.5Q58 258 83.5 277.5Q109 297 143.5 308.5Q178 320 220 326L342 345Q341 384 326 403.5Q311 423 270 423Q249 423 235 417.5Q221 412 213 402.5Q205 393 202 380.5Q199 368 199 355H50V364Q50 398 60.5 430.5Q71 463 97 488Q123 513 166 528Q209 543 275 543Q340 543 383 529.5Q426 516 452 490Q478 464 489 426.5Q500 389 500 341V150L510 0H368Z" glyph-name="aacute" horiz-adv-x="549" unicode="&#225;" /><glyph d="M250 115Q284 115 306.5 128Q329 141 342 155V252L252 238Q215 232 201 215.5Q187 199 187 175V169Q187 149 201 132Q215 115 250 115ZM274 582Q221 582 185 597Q149 612 127 638.5Q105 665 95.5 701Q86 737 87 780H200Q200 735 221 718.5Q242 702 274 702Q306 702 327 718.5Q348 735 348 780H461Q462 737 452.5 701Q443 665 421 638.5Q399 612 362.5 597Q326 582 274 582ZM358 55Q330 25 289 6Q248 -13 192 -13Q147 -13 116.5 0Q86 13 66.5 34.5Q47 56 38.5 85Q30 114 30 146V156Q30 199 44 228.5Q58 258 83.5 277.5Q109 297 143.5 308.5Q178 320 220 326L342 345Q341 384 326 403.5Q311 423 270 423Q249 423 235 417.5Q221 412 213 402.5Q205 393 202 380.5Q199 368 199 355H50V364Q50 398 60.5 430.5Q71 463 97 488Q123 513 166 528Q209 543 275 543Q340 543 383 529.5Q426 516 452 490Q478 464 489 426.5Q500 389 500 341V150L510 0H368Z" glyph-name="abreve" horiz-adv-x="549" unicode="&#259;" /><glyph d="M250 115Q284 115 306.5 128Q329 141 342 155V252L252 238Q215 232 201 215.5Q187 199 187 175V169Q187 149 201 132Q215 115 250 115ZM64 596 198 780H350L484 596H346L274 678L202 596ZM358 55Q330 25 289 6Q248 -13 192 -13Q147 -13 116.5 0Q86 13 66.5 34.5Q47 56 38.5 85Q30 114 30 146V156Q30 199 44 228.5Q58 258 83.5 277.5Q109 297 143.5 308.5Q178 320 220 326L342 345Q341 384 326 403.5Q311 423 270 423Q249 423 235 417.5Q221 412 213 402.5Q205 393 202 380.5Q199 368 199 355H50V364Q50 398 60.5 430.5Q71 463 97 488Q123 513 166 528Q209 543 275 543Q340 543 383 529.5Q426 516 452 490Q478 464 489 426.5Q500 389 500 341V150L510 0H368Z" glyph-name="acircumflex" horiz-adv-x="549" unicode="&#226;" /><glyph d="M435 780 328 596H172L263 780Z" glyph-name="acute" horiz-adv-x="500" unicode="&#180;" /><glyph d="M392 950 328 840H172L227 950Z" glyph-name="acute.cap" horiz-adv-x="500" unicode="&#58402;" /><glyph d="M250 115Q284 115 306.5 128Q329 141 342 155V252L252 238Q215 232 201 215.5Q187 199 187 175V169Q187 149 201 132Q215 115 250 115ZM464 606H299V772H464ZM249 606H84V772H249ZM358 55Q330 25 289 6Q248 -13 192 -13Q147 -13 116.5 0Q86 13 66.5 34.5Q47 56 38.5 85Q30 114 30 146V156Q30 199 44 228.5Q58 258 83.5 277.5Q109 297 143.5 308.5Q178 320 220 326L342 345Q341 384 326 403.5Q311 423 270 423Q249 423 235 417.5Q221 412 213 402.5Q205 393 202 380.5Q199 368 199 355H50V364Q50 398 60.5 430.5Q71 463 97 488Q123 513 166 528Q209 543 275 543Q340 543 383 529.5Q426 516 452 490Q478 464 489 426.5Q500 389 500 341V150L510 0H368Z" glyph-name="adieresis" horiz-adv-x="549" unicode="&#228;" /><glyph d="M590 423Q508 423 501 322H679Q672 423 590 423ZM352 164Q347 184 344.5 204.5Q342 225 342 248L253 234Q216 228 201.5 211.5Q187 195 187 171V164Q187 144 201 127.5Q215 111 250 111Q271 111 287.5 116.5Q304 122 316.5 130Q329 138 337.5 147Q346 156 351 163ZM500 208Q505 152 530 129.5Q555 107 600 107Q642 107 665.5 126.5Q689 146 689 170H838V166Q838 128 822 95.5Q806 63 775.5 39Q745 15 700.5 1Q656 -13 599 -13Q533 -13 485 6.5Q437 26 405 61Q367 28 315.5 7.5Q264 -13 204 -13Q156 -13 123 0Q90 13 69.5 34.5Q49 56 39.5 85Q30 114 30 146V156Q30 199 44 228.5Q58 258 83.5 277.5Q109 297 144 308.5Q179 320 221 326L342 345Q341 384 326 403.5Q311 423 270 423Q249 423 235 417.5Q221 412 213 402.5Q205 393 202 380.5Q199 368 199 355H50V364Q50 398 60.5 430.5Q71 463 97 488Q123 513 166 528Q209 543 275 543Q338 543 377 527.5Q416 512 438 484Q464 512 502.5 527.5Q541 543 594 543Q657 543 703 523.5Q749 504 779 468.5Q809 433 823.5 384.5Q838 336 838 279V208Z" glyph-name="ae" horiz-adv-x="859" unicode="&#230;" /><glyph d="M250 115Q284 115 306.5 128Q329 141 342 155V252L252 238Q215 232 201 215.5Q187 199 187 175V169Q187 149 201 132Q215 115 250 115ZM261 780 352 596H196L89 780ZM358 55Q330 25 289 6Q248 -13 192 -13Q147 -13 116.5 0Q86 13 66.5 34.5Q47 56 38.5 85Q30 114 30 146V156Q30 199 44 228.5Q58 258 83.5 277.5Q109 297 143.5 308.5Q178 320 220 326L342 345Q341 384 326 403.5Q311 423 270 423Q249 423 235 417.5Q221 412 213 402.5Q205 393 202 380.5Q199 368 199 355H50V364Q50 398 60.5 430.5Q71 463 97 488Q123 513 166 528Q209 543 275 543Q340 543 383 529.5Q426 516 452 490Q478 464 489 426.5Q500 389 500 341V150L510 0H368Z" glyph-name="agrave" horiz-adv-x="549" unicode="&#224;" /><glyph d="M286 -118Q286 -95 239 -95Q224 -95 209.5 -97.5Q195 -100 190 -102V-50Q201 -46 218 -43Q235 -40 258 -40Q306 -40 338.5 -61Q371 -82 371 -127Q371 -215 251 -215Q214 -215 186 -207Q158 -199 144 -190L167 -124Q179 -132 199 -136.5Q219 -141 239 -141Q265 -141 275.5 -135Q286 -129 286 -118Z" glyph-name="altcedilla" horiz-adv-x="602" unicode="&#58390;" /><glyph d="M250 115Q284 115 306.5 128Q329 141 342 155V252L252 238Q215 232 201 215.5Q187 199 187 175V169Q187 149 201 132Q215 115 250 115ZM124 757H424V619H124ZM358 55Q330 25 289 6Q248 -13 192 -13Q147 -13 116.5 0Q86 13 66.5 34.5Q47 56 38.5 85Q30 114 30 146V156Q30 199 44 228.5Q58 258 83.5 277.5Q109 297 143.5 308.5Q178 320 220 326L342 345Q341 384 326 403.5Q311 423 270 423Q249 423 235 417.5Q221 412 213 402.5Q205 393 202 380.5Q199 368 199 355H50V364Q50 398 60.5 430.5Q71 463 97 488Q123 513 166 528Q209 543 275 543Q340 543 383 529.5Q426 516 452 490Q478 464 489 426.5Q500 389 500 341V150L510 0H368Z" glyph-name="amacron" horiz-adv-x="549" unicode="&#257;" /><glyph d="M224 602Q224 576 233 551Q242 526 256 503Q291 524 314 547Q337 570 337 602V608Q337 632 323.5 647.5Q310 663 284 663H278Q252 663 238 647.5Q224 632 224 608ZM281 123Q328 123 368 143L219 319Q201 302 190.5 280.5Q180 259 180 231V225Q180 177 204 150Q228 123 276 123ZM250 -13Q195 -13 152 3Q109 19 79.5 48.5Q50 78 34.5 119Q19 160 19 211V221Q19 259 27.5 290Q36 321 51 346Q66 371 86 391Q106 411 129 428Q98 468 81.5 507Q65 546 65 603V614Q65 650 77 682.5Q89 715 115.5 739.5Q142 764 183 778.5Q224 793 281 793Q338 793 379 778.5Q420 764 446 739.5Q472 715 484 682.5Q496 650 496 614V603Q496 562 483 531Q470 500 448.5 476Q427 452 399 433.5Q371 415 342 399L466 252Q480 284 487.5 319Q495 354 495 392V395H661V391Q661 325 638 256.5Q615 188 568 131L679 0H489L457 37Q414 14 362.5 0.5Q311 -13 250 -13Z" glyph-name="ampersand" horiz-adv-x="691" unicode="&amp;" /><glyph d="M185 360 347 -120H184L22 360L184 840H347Z" glyph-name="anglebracketleft" horiz-adv-x="365" unicode="&#12296;" /><glyph d="M190 390 326 0H163L27 390L163 780H326Z" glyph-name="anglebracketleft.cap" horiz-adv-x="365" unicode="&#58519;" /><glyph d="M180 360 18 840H181L343 360L181 -120H18Z" glyph-name="anglebracketright" horiz-adv-x="365" unicode="&#12297;" /><glyph d="M39 780H202L339 390L202 0H39L176 390Z" glyph-name="anglebracketright.cap" horiz-adv-x="365" unicode="&#58520;" /><glyph d="M329 -107Q329 -76 339.5 -50.5Q350 -25 369 -4L358 55Q330 25 289 6Q248 -13 192 -13Q147 -13 116.5 0Q86 13 66.5 34.5Q47 56 38.5 85Q30 114 30 146V156Q30 199 44 228.5Q58 258 83.5 277.5Q109 297 143.5 308.5Q178 320 220 326L342 345Q341 384 326 403.5Q311 423 270 423Q249 423 235 417.5Q221 412 213 402.5Q205 393 202 380.5Q199 368 199 355H50V364Q50 398 60.5 430.5Q71 463 97 488Q123 513 166 528Q209 543 275 543Q340 543 383 529.5Q426 516 452 490Q478 464 489 426.5Q500 389 500 341V150L510 0H508Q479 -13 462.5 -29.5Q446 -46 446 -69Q446 -85 457.5 -95Q469 -105 489 -105Q503 -105 514 -101.5Q525 -98 531 -94L567 -190Q551 -200 523 -207.5Q495 -215 464 -215Q403 -215 366 -188.5Q329 -162 329 -107ZM250 115Q284 115 306.5 128Q329 141 342 155V252L252 238Q215 232 201 215.5Q187 199 187 175V169Q187 149 201 132Q215 115 250 115Z" glyph-name="aogonek" horiz-adv-x="549" unicode="&#261;" /><glyph d="M184 590Q223 590 253 580Q283 570 308.5 557.5Q334 545 358.5 535Q383 525 410 525Q425 525 438.5 530Q452 535 463.5 542Q475 549 483.5 557.5Q492 566 498 573L572 499Q548 461 509 432.5Q470 404 416 404Q377 404 347 414Q317 424 291.5 436.5Q266 449 241.5 459Q217 469 190 469Q175 469 161.5 464Q148 459 136.5 452Q125 445 116.5 436.5Q108 428 102 421L28 495Q52 533 91 561.5Q130 590 184 590ZM184 374Q223 374 253 363.5Q283 353 308.5 341Q334 329 358.5 318.5Q383 308 410 308Q425 308 438.5 313Q452 318 463.5 325.5Q475 333 483.5 341.5Q492 350 498 357L572 283Q548 245 509 216.5Q470 188 416 188Q377 188 347 198Q317 208 291.5 220.5Q266 233 241.5 243Q217 253 190 253Q175 253 161.5 248Q148 243 136.5 236Q125 229 116.5 220.5Q108 212 102 205L28 279Q52 317 91 345.5Q130 374 184 374Z" glyph-name="approxequal" horiz-adv-x="600" unicode="&#8776;" /><glyph d="M224 688Q224 667 239 652Q254 637 275 637Q296 637 311 652Q326 667 326 688Q326 709 311 723.5Q296 738 275 738Q254 738 239 723.5Q224 709 224 688ZM250 115Q284 115 306.5 128Q329 141 342 155V252L252 238Q215 232 201 215.5Q187 199 187 175V169Q187 149 201 132Q215 115 250 115ZM170 688Q170 710 178 729Q186 748 200.5 762Q215 776 234 784.5Q253 793 275 793Q297 793 316 784.5Q335 776 349 762Q363 748 371.5 729Q380 710 380 688Q380 666 371.5 647Q363 628 349 613.5Q335 599 316 590.5Q297 582 275 582Q253 582 234 590.5Q215 599 200.5 613.5Q186 628 178 647Q170 666 170 688ZM358 55Q330 25 289 6Q248 -13 192 -13Q147 -13 116.5 0Q86 13 66.5 34.5Q47 56 38.5 85Q30 114 30 146V156Q30 199 44 228.5Q58 258 83.5 277.5Q109 297 143.5 308.5Q178 320 220 326L342 345Q341 384 326 403.5Q311 423 270 423Q249 423 235 417.5Q221 412 213 402.5Q205 393 202 380.5Q199 368 199 355H50V364Q50 398 60.5 430.5Q71 463 97 488Q123 513 166 528Q209 543 275 543Q340 543 383 529.5Q426 516 452 490Q478 464 489 426.5Q500 389 500 341V150L510 0H368Z" glyph-name="aring" horiz-adv-x="549" unicode="&#229;" /><glyph d="M70 575 390 255V780H530V255L850 575V377L460 -13L70 377Z" glyph-name="arrowdown" horiz-adv-x="920" unicode="&#8595;" /><glyph d="M645 780 325 460H850V320H325L645 0H447L57 390L447 780Z" glyph-name="arrowleft" horiz-adv-x="920" unicode="&#8592;" /><glyph d="M473 780 863 390 473 0H275L595 320H70V460H595L275 780Z" glyph-name="arrowright" horiz-adv-x="920" unicode="&#8594;" /><glyph d="M70 403 460 793 850 403V205L530 525V0H390V525L70 205Z" glyph-name="arrowup" horiz-adv-x="920" unicode="&#8593;" /><glyph d="M582 264H426L300 602L174 264H18L223 780H377Z" glyph-name="asciicircum" horiz-adv-x="600" unicode="^" /><glyph d="M184 482Q223 482 253 472Q283 462 308.5 449.5Q334 437 358.5 427Q383 417 410 417Q425 417 438.5 422Q452 427 463.5 434Q475 441 483.5 449.5Q492 458 498 465L572 391Q548 353 509 324.5Q470 296 416 296Q377 296 347 306Q317 316 291.5 328.5Q266 341 241.5 351Q217 361 190 361Q175 361 161.5 356Q148 351 136.5 344Q125 337 116.5 328.5Q108 320 102 313L28 387Q52 425 91 453.5Q130 482 184 482Z" glyph-name="asciitilde" horiz-adv-x="600" unicode="~" /><glyph d="M287 415 211 526 275 572 358 467ZM408 621 279 584 255 659 380 706ZM54 467 137 572 201 526 126 415ZM32 706 158 659 133 584 5 621ZM251 800 246 666H167L162 800Z" glyph-name="asterisk" horiz-adv-x="413" unicode="*" /><glyph d="M563 374Q554 388 532.5 404.5Q511 421 479 421Q435 421 415 392Q395 363 395 312V278Q395 227 415 198Q435 169 479 169Q511 169 532.5 185.5Q554 202 563 216ZM519 -110Q701 -110 849 -1L908 -81Q856 -122 805 -148Q754 -174 704.5 -188.5Q655 -203 607.5 -208Q560 -213 516 -213Q409 -213 319.5 -181.5Q230 -150 165 -88.5Q100 -27 63.5 63Q27 153 27 270V310Q27 427 63.5 517Q100 607 164.5 668.5Q229 730 317.5 761.5Q406 793 511 793Q602 793 684 771Q766 749 828 701.5Q890 654 927 579Q964 504 964 398V368Q964 278 943 218.5Q922 159 885.5 124Q849 89 799 74.5Q749 60 691 60H586L575 119Q555 87 521 67Q487 47 436 47Q389 47 354.5 64Q320 81 297 112Q274 143 262.5 185.5Q251 228 251 278V312Q251 362 262.5 404.5Q274 447 297 477.5Q320 508 354.5 525.5Q389 543 436 543Q487 543 521 523Q555 503 575 471L586 530H709L700 393V162Q743 164 773 175Q803 186 821.5 209.5Q840 233 848.5 271.5Q857 310 857 368V398Q857 485 827 541.5Q797 598 748.5 631Q700 664 638.5 677Q577 690 514 690H508Q426 690 357 666Q288 642 238 594.5Q188 547 160 476Q132 405 132 310V270Q132 174 160 103Q188 32 238.5 -15.5Q289 -63 359 -86.5Q429 -110 513 -110Z" glyph-name="at" horiz-adv-x="991" unicode="@" /><glyph d="M563 474Q554 488 532.5 504.5Q511 521 479 521Q435 521 415 492Q395 463 395 412V378Q395 327 415 298Q435 269 479 269Q511 269 532.5 285.5Q554 302 563 316ZM519 -10Q701 -10 849 99L908 19Q856 -22 805 -48Q754 -74 704.5 -88.5Q655 -103 607.5 -108Q560 -113 516 -113Q409 -113 319.5 -81.5Q230 -50 165 11.5Q100 73 63.5 163Q27 253 27 370V410Q27 527 63.5 617Q100 707 164.5 768.5Q229 830 317.5 861.5Q406 893 511 893Q602 893 684 871Q766 849 828 801.5Q890 754 927 679Q964 604 964 498V468Q964 378 943 318.5Q922 259 885.5 224Q849 189 799 174.5Q749 160 691 160H586L575 219Q555 187 521 167Q487 147 436 147Q389 147 354.5 164Q320 181 297 212Q274 243 262.5 285.5Q251 328 251 378V412Q251 462 262.5 504.5Q274 547 297 577.5Q320 608 354.5 625.5Q389 643 436 643Q487 643 521 623Q555 603 575 571L586 630H709L700 493V262Q743 264 773 275Q803 286 821.5 309.5Q840 333 848.5 371.5Q857 410 857 468V498Q857 585 827 641.5Q797 698 748.5 731Q700 764 638.5 777Q577 790 514 790H508Q426 790 357 766Q288 742 238 694.5Q188 647 160 576Q132 505 132 410V370Q132 274 160 203Q188 132 238.5 84.5Q289 37 359 13.5Q429 -10 513 -10Z" glyph-name="at.cap" horiz-adv-x="991" unicode="&#58643;" /><glyph d="M250 115Q284 115 306.5 128Q329 141 342 155V252L252 238Q215 232 201 215.5Q187 199 187 175V169Q187 149 201 132Q215 115 250 115ZM475 772Q475 730 466.5 700Q458 670 443 650.5Q428 631 407.5 622Q387 613 364 613Q340 613 318.5 621Q297 629 277.5 639Q258 649 241 657Q224 665 209 665Q195 665 186.5 656.5Q178 648 178 628H73Q73 712 105 749.5Q137 787 184 787Q208 787 229.5 779Q251 771 270.5 761Q290 751 307 743Q324 735 339 735Q353 735 361.5 743.5Q370 752 370 772ZM358 55Q330 25 289 6Q248 -13 192 -13Q147 -13 116.5 0Q86 13 66.5 34.5Q47 56 38.5 85Q30 114 30 146V156Q30 199 44 228.5Q58 258 83.5 277.5Q109 297 143.5 308.5Q178 320 220 326L342 345Q341 384 326 403.5Q311 423 270 423Q249 423 235 417.5Q221 412 213 402.5Q205 393 202 380.5Q199 368 199 355H50V364Q50 398 60.5 430.5Q71 463 97 488Q123 513 166 528Q209 543 275 543Q340 543 383 529.5Q426 516 452 490Q478 464 489 426.5Q500 389 500 341V150L510 0H368Z" glyph-name="atilde" horiz-adv-x="549" unicode="&#227;" /><glyph d="M211 173Q216 166 224 157Q232 148 243 140.5Q254 133 268.5 128Q283 123 301 123Q347 123 366.5 155.5Q386 188 386 247V283Q386 342 366.5 374.5Q347 407 301 407Q283 407 268.5 402Q254 397 243 389.5Q232 382 224 373Q216 364 211 357ZM211 485Q234 511 266.5 527Q299 543 347 543Q401 543 439 524Q477 505 500 470.5Q523 436 533.5 388Q544 340 544 283V247Q544 190 533.5 142Q523 94 500 59.5Q477 25 439 6Q401 -13 347 -13Q291 -13 255 8.5Q219 30 196 64L185 0H44L53 150V800H211Z" glyph-name="b" horiz-adv-x="574" unicode="b" /><glyph d="M15 840H169L399 -120H245Z" glyph-name="backslash" horiz-adv-x="412" unicode="\" /><glyph d="M172 780 364 0H210L18 780Z" glyph-name="backslash.cap" horiz-adv-x="381" unicode="&#58466;" /><glyph d="M238 168V362H432V168ZM209 391V139H461V391ZM600 530V0H70V530Z" glyph-name="ballotboxwithx" horiz-adv-x="680" unicode="&#9746;" /><glyph d="M54 840H208V-120H54Z" glyph-name="bar" horiz-adv-x="261" unicode="|" /><glyph d="M54 780H208V0H54Z" glyph-name="bar.cap" horiz-adv-x="261" unicode="&#58467;" /><glyph d="M198 845H64V945H198ZM211 173Q216 166 224 157Q232 148 243 140.5Q254 133 268.5 128Q283 123 301 123Q347 123 366.5 155.5Q386 188 386 247V283Q386 342 366.5 374.5Q347 407 301 407Q283 407 268.5 402Q254 397 243 389.5Q232 382 224 373Q216 364 211 357ZM211 485Q234 511 266.5 527Q299 543 347 543Q401 543 439 524Q477 505 500 470.5Q523 436 533.5 388Q544 340 544 283V247Q544 190 533.5 142Q523 94 500 59.5Q477 25 439 6Q401 -13 347 -13Q291 -13 255 8.5Q219 30 196 64L185 0H44L53 150V800H211Z" glyph-name="bdotaccent" horiz-adv-x="574" unicode="&#7683;" /><glyph d="M57 390Q57 474 88.5 547Q120 620 175 675Q230 730 303 761.5Q376 793 460 793Q544 793 617 761.5Q690 730 745 675Q800 620 831.5 547Q863 474 863 390Q863 306 831.5 233Q800 160 745 105Q690 50 617 18.5Q544 -13 460 -13Q376 -13 303 18.5Q230 50 175 105Q120 160 88.5 233Q57 306 57 390Z" glyph-name="blackcircle" horiz-adv-x="920" unicode="&#9679;" /><glyph d="M70 0V530H600V0Z" glyph-name="blacksmallsquare" horiz-adv-x="680" unicode="&#9642;" /><glyph d="M70 0V780H850V0Z" glyph-name="blacksquare" horiz-adv-x="920" unicode="&#9632;" /><glyph d="M332 702Q295 702 276.5 684.5Q258 667 256 626V476Q256 433 240.5 405Q225 377 196 360Q225 343 240.5 315Q256 287 256 244V103Q256 57 275 37.5Q294 18 332 18V-120H305Q258 -120 220 -111Q182 -102 155 -81Q128 -60 113.5 -26Q99 8 99 58V217Q97 257 78.5 274Q60 291 24 291V429Q62 429 80.5 447.5Q99 466 99 511V662Q99 712 113.5 746Q128 780 155 801Q182 822 220 831Q258 840 305 840H332Z" glyph-name="braceleft" horiz-adv-x="365" unicode="{" /><glyph d="M332 642Q295 642 276.5 624.5Q258 607 256 566V506Q256 463 240.5 435Q225 407 196 390Q225 373 240.5 345Q256 317 256 274V223Q256 177 275 157.5Q294 138 332 138V0H305Q258 0 220 9Q182 18 155 39Q128 60 113.5 94Q99 128 99 178V239Q99 284 80.5 302.5Q62 321 24 321V459Q62 459 80.5 477.5Q99 496 99 541V602Q99 652 113.5 686Q128 720 155 741Q182 762 220 771Q258 780 305 780H332Z" glyph-name="braceleft.cap" horiz-adv-x="365" unicode="&#58517;" /><glyph d="M33 18Q71 18 90 37.5Q109 57 109 103V244Q109 287 124 315Q139 343 168 360Q139 377 124 405Q109 433 109 476V617Q109 663 90 682.5Q71 702 33 702V840H60Q106 840 144 831Q182 822 209 801Q236 780 251 746Q266 712 266 662V502Q268 463 286 446Q304 429 341 429V291Q303 291 284.5 272.5Q266 254 266 209V58Q266 8 251 -26Q236 -60 209 -81Q182 -102 144 -111Q106 -120 60 -120H33Z" glyph-name="braceright" horiz-adv-x="365" unicode="}" /><glyph d="M33 780H60Q106 780 144 771Q182 762 209 741Q236 720 251 686Q266 652 266 602V541Q266 496 284.5 477.5Q303 459 341 459V321Q303 321 284.5 302.5Q266 284 266 239V178Q266 128 251 94Q236 60 209 39Q182 18 144 9Q106 0 60 0H33V138Q71 138 90 157.5Q109 177 109 223V274Q109 317 124 345Q139 373 168 390Q139 407 124 435Q109 463 109 506V557Q109 603 90 622.5Q71 642 33 642Z" glyph-name="braceright.cap" horiz-adv-x="365" unicode="&#58518;" /><glyph d="M332 840V702H215V18H332V-120H58V840Z" glyph-name="bracketleft" horiz-adv-x="365" unicode="[" /><glyph d="M332 780V642H215V138H332V0H58V780Z" glyph-name="bracketleft.cap" horiz-adv-x="365" unicode="&#58515;" /><glyph d="M33 -120V18H150V702H33V840H307V-120Z" glyph-name="bracketright" horiz-adv-x="365" unicode="]" /><glyph d="M33 0V138H150V642H33V780H307V0Z" glyph-name="bracketright.cap" horiz-adv-x="365" unicode="&#58516;" /><glyph d="M250 582Q197 582 161 597Q125 612 103 638.5Q81 665 71.5 701Q62 737 63 780H176Q176 735 197 718.5Q218 702 250 702Q282 702 303 718.5Q324 735 324 780H437Q438 737 428.5 701Q419 665 397 638.5Q375 612 338.5 597Q302 582 250 582Z" glyph-name="breve" horiz-adv-x="500" unicode="&#728;" /><glyph d="M250 825Q195 825 159.5 835Q124 845 103.5 862Q83 879 75 901.5Q67 924 67 950H176Q176 930 193 920Q210 910 250 910Q290 910 307 920Q324 930 324 950H433Q433 924 425 901.5Q417 879 396.5 862Q376 845 340.5 835Q305 825 250 825Z" glyph-name="breve.cap" horiz-adv-x="500" unicode="&#58406;" /><glyph d="M54 336H208V-120H54ZM54 840H208V384H54Z" glyph-name="brokenbar" horiz-adv-x="261" unicode="&#166;" /><glyph d="M54 366H208V0H54ZM54 780H208V414H54Z" glyph-name="brokenbar.cap" horiz-adv-x="261" unicode="&#58469;" /><glyph d="M383 189H62V511H383Z" glyph-name="bullet" horiz-adv-x="445" unicode="&#8226;" /><glyph d="M383 229H62V551H383Z" glyph-name="bullet.cap" horiz-adv-x="445" unicode="&#58470;" /><glyph d="M188 247Q188 188 207.5 155.5Q227 123 273 123Q311 123 330 143.5Q349 164 349 196H498V174Q498 133 483.5 98.5Q469 64 440.5 39.5Q412 15 369.5 1Q327 -13 270 -13Q207 -13 162 6Q117 25 87.5 59.5Q58 94 44 142Q30 190 30 247V283Q30 340 44 388Q58 436 87.5 470.5Q117 505 162 524Q207 543 270 543Q384 543 441 489Q498 435 498 347V324H349Q349 407 273 407Q227 407 207.5 374.5Q188 342 188 283Z" glyph-name="c" horiz-adv-x="527" unicode="c" /><glyph d="M455 780 348 596H192L283 780ZM188 247Q188 188 207.5 155.5Q227 123 273 123Q311 123 330 143.5Q349 164 349 196H498V174Q498 133 483.5 98.5Q469 64 440.5 39.5Q412 15 369.5 1Q327 -13 270 -13Q207 -13 162 6Q117 25 87.5 59.5Q58 94 44 142Q30 190 30 247V283Q30 340 44 388Q58 436 87.5 470.5Q117 505 162 524Q207 543 270 543Q384 543 441 489Q498 435 498 347V324H349Q349 407 273 407Q227 407 207.5 374.5Q188 342 188 283Z" glyph-name="cacute" horiz-adv-x="527" unicode="&#263;" /><glyph d="M178 780 250 697 322 780H460L326 596H174L40 780Z" glyph-name="caron" horiz-adv-x="500" unicode="&#711;" /><glyph d="M188 950 250 905 312 950H454L330 840H170L46 950Z" glyph-name="caron.cap" horiz-adv-x="500" unicode="&#58413;" /><glyph d="M402 800 376 596H306V800Z" glyph-name="caronSlovak" horiz-adv-x="500" unicode="&#58387;" /><glyph d="M198 780 270 697 342 780H480L346 596H194L60 780ZM188 247Q188 188 207.5 155.5Q227 123 273 123Q311 123 330 143.5Q349 164 349 196H498V174Q498 133 483.5 98.5Q469 64 440.5 39.5Q412 15 369.5 1Q327 -13 270 -13Q207 -13 162 6Q117 25 87.5 59.5Q58 94 44 142Q30 190 30 247V283Q30 340 44 388Q58 436 87.5 470.5Q117 505 162 524Q207 543 270 543Q384 543 441 489Q498 435 498 347V324H349Q349 407 273 407Q227 407 207.5 374.5Q188 342 188 283Z" glyph-name="ccaron" horiz-adv-x="527" unicode="&#269;" /><glyph d="M188 -124Q200 -132 220 -136.5Q240 -141 260 -141Q286 -141 296.5 -135Q307 -129 307 -118Q307 -95 259 -95Q252 -95 245 -96Q238 -97 233 -98Q227 -99 221 -100L206 -72L230 -10Q178 -4 140 17Q102 38 77.5 71.5Q53 105 41.5 149.5Q30 194 30 247V283Q30 340 44 388Q58 436 87.5 470.5Q117 505 162 524Q207 543 270 543Q384 543 441 489Q498 435 498 347V324H349Q349 407 273 407Q227 407 207.5 374.5Q188 342 188 283V247Q188 188 207.5 155.5Q227 123 273 123Q311 123 330 143.5Q349 164 349 196H498V174Q498 98 449.5 47.5Q401 -3 302 -11L292 -40Q334 -43 363 -64Q392 -85 392 -127Q392 -215 272 -215Q235 -215 207 -207Q179 -199 165 -190Z" glyph-name="ccedilla" horiz-adv-x="527" unicode="&#231;" /><glyph d="M60 596 194 780H346L480 596H342L270 678L198 596ZM188 247Q188 188 207.5 155.5Q227 123 273 123Q311 123 330 143.5Q349 164 349 196H498V174Q498 133 483.5 98.5Q469 64 440.5 39.5Q412 15 369.5 1Q327 -13 270 -13Q207 -13 162 6Q117 25 87.5 59.5Q58 94 44 142Q30 190 30 247V283Q30 340 44 388Q58 436 87.5 470.5Q117 505 162 524Q207 543 270 543Q384 543 441 489Q498 435 498 347V324H349Q349 407 273 407Q227 407 207.5 374.5Q188 342 188 283Z" glyph-name="ccircumflex" horiz-adv-x="527" unicode="&#265;" /><glyph d="M353 606H187V772H353ZM188 247Q188 188 207.5 155.5Q227 123 273 123Q311 123 330 143.5Q349 164 349 196H498V174Q498 133 483.5 98.5Q469 64 440.5 39.5Q412 15 369.5 1Q327 -13 270 -13Q207 -13 162 6Q117 25 87.5 59.5Q58 94 44 142Q30 190 30 247V283Q30 340 44 388Q58 436 87.5 470.5Q117 505 162 524Q207 543 270 543Q384 543 441 489Q498 435 498 347V324H349Q349 407 273 407Q227 407 207.5 374.5Q188 342 188 283Z" glyph-name="cdotaccent" horiz-adv-x="527" unicode="&#267;" /><glyph d="M167 -124Q179 -132 199 -136.5Q219 -141 239 -141Q265 -141 275.5 -135Q286 -129 286 -118Q286 -95 238 -95Q231 -95 224 -96Q217 -97 212 -98Q206 -99 200 -100L185 -72L214 0H286L271 -40Q313 -43 342 -64Q371 -85 371 -127Q371 -215 251 -215Q214 -215 186 -207Q158 -199 144 -190Z" glyph-name="cedilla" horiz-adv-x="602" unicode="&#184;" /><glyph d="M405 466Q405 528 385 560.5Q365 593 314 593H307Q277 593 256.5 580Q236 567 223.5 543Q211 519 205.5 485Q200 451 200 409V373Q200 331 205.5 297Q211 263 223.5 239Q236 215 256.5 202Q277 189 307 189H314Q364 189 384.5 218Q405 247 405 294H561V278Q561 165 498 107.5Q435 50 307 50Q299 50 291 50Q283 50 275 51L249 -60H127L161 83Q98 118 68.5 190Q39 262 39 371V409Q39 568 103.5 649.5Q168 731 307 731H316L342 840H464L433 711Q561 661 561 496V466Z" glyph-name="cent" horiz-adv-x="600" unicode="&#162;" /><glyph d="M40 596 174 780H326L460 596H322L250 678L178 596Z" glyph-name="circumflex" horiz-adv-x="500" unicode="&#710;" /><glyph d="M46 840 170 950H330L454 840H312L250 884L188 840Z" glyph-name="circumflex.cap" horiz-adv-x="500" unicode="&#58403;" /><glyph d="M349 0Q368 37 381.5 73Q395 109 404.5 147Q414 185 420.5 227Q427 269 431 320L428 321Q415 290 396 261Q377 232 352 209.5Q327 187 296 173.5Q265 160 228 160Q191 160 159 173.5Q127 187 103 210.5Q79 234 65.5 265.5Q52 297 52 334Q52 373 64.5 406Q77 439 100 463Q123 487 155 500.5Q187 514 226 514Q252 514 272.5 507Q293 500 310 491L312 493Q295 518 284.5 547.5Q274 577 274 610Q274 647 287.5 680Q301 713 324.5 737.5Q348 762 380 776Q412 790 450 790Q488 790 520 776Q552 762 575.5 737.5Q599 713 612.5 680Q626 647 626 610Q626 577 615.5 547.5Q605 518 588 493L590 491Q607 500 627.5 507Q648 514 674 514Q713 514 745 500.5Q777 487 800 463Q823 439 835.5 406Q848 373 848 334Q848 297 834.5 265.5Q821 234 797 210.5Q773 187 741 173.5Q709 160 672 160Q635 160 604 173.5Q573 187 548 209.5Q523 232 504 261Q485 290 472 321L469 320Q473 269 479.5 227Q486 185 495.5 147Q505 109 518.5 73Q532 37 551 0Z" glyph-name="club" horiz-adv-x="900" unicode="&#9827;" /><glyph d="M216 307H50V474H216ZM216 0H50V167H216Z" glyph-name="colon" horiz-adv-x="266" unicode=":" /><glyph d="M233 307H67V474H233ZM233 0H67V167H233Z" glyph-name="colon.T" horiz-adv-x="300" unicode="&#61828;" /><glyph d="M216 35Q216 -143 45 -143V-64Q119 -64 134 0H50V167H216Z" glyph-name="comma" horiz-adv-x="266" unicode="," /><glyph d="M233 35Q233 -143 62 -143V-64Q136 -64 151 0H67V167H233Z" glyph-name="comma.T" horiz-adv-x="300" unicode="&#61827;" /><glyph d="M321 -101Q321 -168 285 -197Q249 -226 174 -226V-172Q206 -172 227 -164Q248 -156 258 -136H179V-44H321Z" glyph-name="commaaccent" horiz-adv-x="602" unicode="&#58388;" /><glyph d="M183 865Q183 968 319 968V930Q291 930 272 924.5Q253 919 244 900H317V840H183Z" glyph-name="commaaccent.cap" horiz-adv-x="500" unicode="&#58414;" /><glyph d="M463 264Q499 264 516 282.5Q533 301 533 327H666V307Q666 272 653.5 241.5Q641 211 615.5 188.5Q590 166 551 153.5Q512 141 460 141Q403 141 362 158.5Q321 176 294.5 207.5Q268 239 256 281Q244 323 244 373V407Q244 456 256 498.5Q268 541 294.5 572.5Q321 604 362 621.5Q403 639 460 639Q512 639 551 626Q590 613 615.5 590Q641 567 653.5 535Q666 503 666 465V444H533Q533 478 515.5 497Q498 516 463 516Q419 516 402 485.5Q385 455 385 407V373Q385 325 402 294.5Q419 264 463 264ZM113 390Q113 318 140 255Q167 192 214.5 144.5Q262 97 325 70Q388 43 460 43Q532 43 595 70Q658 97 705.5 144.5Q753 192 780 255Q807 318 807 390Q807 462 780 525Q753 588 705.5 635.5Q658 683 595 710Q532 737 460 737Q388 737 325 710Q262 683 214.5 635.5Q167 588 140 525Q113 462 113 390ZM57 390Q57 474 88.5 547Q120 620 175 675Q230 730 303 761.5Q376 793 460 793Q544 793 617 761.5Q690 730 745 675Q800 620 831.5 547Q863 474 863 390Q863 306 831.5 233Q800 160 745 105Q690 50 617 18.5Q544 -13 460 -13Q376 -13 303 18.5Q230 50 175 105Q120 160 88.5 233Q57 306 57 390Z" glyph-name="copyright" horiz-adv-x="920" unicode="&#169;" /><glyph d="M371 357Q366 364 358 373Q350 382 338.5 389.5Q327 397 313 402Q299 407 281 407Q234 407 214.5 374.5Q195 342 195 283V247Q195 188 214.5 155.5Q234 123 281 123Q299 123 313 128Q327 133 338.5 140.5Q350 148 358 157Q366 166 371 173ZM235 543Q282 543 315 527Q348 511 371 485V800H529V150L538 0H396L385 63Q362 30 326 8.5Q290 -13 235 -13Q181 -13 143 6Q105 25 82 59.5Q59 94 48.5 142Q38 190 38 247V283Q38 340 48.5 388Q59 436 82 470.5Q105 505 143 524Q181 543 235 543Z" glyph-name="d" horiz-adv-x="582" unicode="d" /><glyph d="M388 572 257 577V655L388 660ZM24 660 156 655V577L24 572ZM251 800 246 666H167L162 800ZM167 566H246L251 437L246 307H167L162 437Z" glyph-name="dagger" horiz-adv-x="413" unicode="&#8224;" /><glyph d="M388 572 257 577V655L388 660ZM24 660 156 655V577L24 572ZM388 337 257 342V421L388 426ZM24 426 156 421V342L24 337ZM167 566H246L251 499L246 432H167L162 499ZM251 800 246 666H167L162 800ZM167 331H246L251 202L246 73H167L162 202Z" glyph-name="daggerdbl" horiz-adv-x="413" unicode="&#8225;" /><glyph d="M680 800 654 596H584V800ZM371 357Q366 364 358 373Q350 382 338.5 389.5Q327 397 313 402Q299 407 281 407Q234 407 214.5 374.5Q195 342 195 283V247Q195 188 214.5 155.5Q234 123 281 123Q299 123 313 128Q327 133 338.5 140.5Q350 148 358 157Q366 166 371 173ZM235 543Q282 543 315 527Q348 511 371 485V800H529V150L538 0H396L385 63Q362 30 326 8.5Q290 -13 235 -13Q181 -13 143 6Q105 25 82 59.5Q59 94 48.5 142Q38 190 38 247V283Q38 340 48.5 388Q59 436 82 470.5Q105 505 143 524Q181 543 235 543Z" glyph-name="dcaron" horiz-adv-x="582" unicode="&#271;" /><glyph d="M371 357Q361 372 338.5 390Q316 408 280 408Q234 408 214.5 375.5Q195 343 195 283V247Q195 187 214.5 154.5Q234 122 280 122Q316 122 338.5 140Q361 158 371 173ZM596 609H528V150L537 0H397L385 64Q363 30 326.5 8.5Q290 -13 235 -13Q181 -13 143 6Q105 25 82 59.5Q59 94 48.5 142Q38 190 38 247V283Q38 340 48.5 388Q59 436 82 470.5Q105 505 143 524Q181 543 235 543Q282 543 315 527Q348 511 371 485V609H258V721H371V800H528V721H596Z" glyph-name="dcroat" horiz-adv-x="582" unicode="&#273;" /><glyph d="M517 845H383V945H517ZM371 357Q366 364 358 373Q350 382 338.5 389.5Q327 397 313 402Q299 407 281 407Q234 407 214.5 374.5Q195 342 195 283V247Q195 188 214.5 155.5Q234 123 281 123Q299 123 313 128Q327 133 338.5 140.5Q350 148 358 157Q366 166 371 173ZM235 543Q282 543 315 527Q348 511 371 485V800H529V150L538 0H396L385 63Q362 30 326 8.5Q290 -13 235 -13Q181 -13 143 6Q105 25 82 59.5Q59 94 48.5 142Q38 190 38 247V283Q38 340 48.5 388Q59 436 82 470.5Q105 505 143 524Q181 543 235 543Z" glyph-name="ddotaccent" horiz-adv-x="582" unicode="&#7691;" /><glyph d="M362 627Q362 590 349.5 560Q337 530 315.5 509Q294 488 264 477Q234 466 200 466Q165 466 135.5 477Q106 488 84.5 509Q63 530 50.5 560Q38 590 38 627V632Q38 669 50.5 699Q63 729 84.5 750Q106 771 135.5 782Q165 793 200 793Q234 793 264 782Q294 771 315.5 750Q337 729 349.5 699Q362 669 362 632ZM266 633Q266 662 247.5 679.5Q229 697 202 697H198Q171 697 152.5 679.5Q134 662 134 633V627Q134 598 152.5 580.5Q171 563 198 563H202Q229 563 247.5 580.5Q266 598 266 627Z" glyph-name="degree" horiz-adv-x="400" unicode="&#176;" /><glyph d="M817 390Q764 348 712.5 300.5Q661 253 614 201.5Q567 150 525.5 96.5Q484 43 451 -10H449Q416 43 374.5 96.5Q333 150 286 201.5Q239 253 187.5 300.5Q136 348 83 390Q136 432 187.5 479.5Q239 527 286 578.5Q333 630 374.5 683.5Q416 737 449 790H451Q484 737 525.5 683.5Q567 630 614 578.5Q661 527 712.5 479.5Q764 432 817 390Z" glyph-name="diamond" horiz-adv-x="900" unicode="&#9830;" /><glyph d="M440 606H275V772H440ZM225 606H60V772H225Z" glyph-name="dieresis" horiz-adv-x="500" unicode="&#168;" /><glyph d="M404 845H271V945H404ZM229 845H96V945H229Z" glyph-name="dieresis.cap" horiz-adv-x="500" unicode="&#58409;" /><glyph d="M383 515H217V681H383ZM383 99H217V265H383ZM42 460H558V320H42Z" glyph-name="divide" horiz-adv-x="600" unicode="&#247;" /><glyph d="M292 601Q256 600 232.5 584Q209 568 209 535V530Q209 515 213.5 503.5Q218 492 231 483Q244 474 267.5 467.5Q291 461 329 455Q446 438 502 393.5Q558 349 558 263V253Q558 155 493 102.5Q428 50 302 50H281L255 -60H134L166 75Q105 100 74 148.5Q43 197 43 275V281H202Q202 238 226 209Q250 180 302 180H307Q353 180 374.5 197.5Q396 215 396 246V251Q396 268 390.5 280.5Q385 293 371 302.5Q357 312 331.5 319Q306 326 267 332Q158 349 104 392.5Q50 436 50 521V531Q50 580 68 617.5Q86 655 119 680Q152 705 198 718Q244 731 300 731H322L349 840H470L438 704Q495 677 523 628.5Q551 580 551 505V491H394Q394 543 372.5 572Q351 601 300 601Z" glyph-name="dollar" horiz-adv-x="600" unicode="$" /><glyph d="M333 606H167V772H333Z" glyph-name="dotaccent" horiz-adv-x="500" unicode="&#729;" /><glyph d="M317 845H183V945H317Z" glyph-name="dotaccent.cap" horiz-adv-x="500" unicode="&#58408;" /><glyph d="M321 -193H179V-51H321Z" glyph-name="dotbelow" horiz-adv-x="602" unicode="&#58389;" /><glyph d="M54 530H211V0H54Z" glyph-name="dotlessi" horiz-adv-x="265" unicode="&#305;" /><glyph d="M54 530H211V-16Q211 -71 196.5 -108.5Q182 -146 156 -169.5Q130 -193 93.5 -203Q57 -213 13 -213Q-24 -213 -45 -208.5Q-66 -204 -73 -200V-71Q-68 -73 -53 -75.5Q-38 -78 -24 -78Q-6 -78 8 -75Q22 -72 32.5 -63.5Q43 -55 48.5 -39.5Q54 -24 54 1Z" glyph-name="dotlessj" horiz-adv-x="268" unicode="&#567;" /><glyph d="M251 840H405V-120H251ZM54 840H208V-120H54Z" glyph-name="doublebar" horiz-adv-x="459" unicode="&#8214;" /><glyph d="M251 780H405V0H251ZM54 780H208V0H54Z" glyph-name="doublebar.cap" horiz-adv-x="459" unicode="&#58468;" /><glyph d="M141 780 232 596H109L2 780ZM325 780 392 596H269L185 780Z" glyph-name="doublegrave" horiz-adv-x="500" unicode="&#58386;" /><glyph d="M182 950 236 840H97L33 950ZM357 950 403 840H264L208 950Z" glyph-name="doublegrave.cap" horiz-adv-x="500" unicode="&#58412;" /><glyph d="M278 423Q196 423 189 322H367Q360 423 278 423ZM188 208Q193 152 218 129.5Q243 107 288 107Q330 107 353.5 126.5Q377 146 377 170H526V166Q526 128 510 95.5Q494 63 463.5 39Q433 15 388.5 1Q344 -13 287 -13Q221 -13 172.5 6.5Q124 26 92.5 61.5Q61 97 45.5 145.5Q30 194 30 251V279Q30 336 45.5 384.5Q61 433 92.5 468.5Q124 504 171 523.5Q218 543 281 543Q344 543 390 523.5Q436 504 466.5 468.5Q497 433 511.5 384.5Q526 336 526 279V208Z" glyph-name="e" horiz-adv-x="556" unicode="e" /><glyph d="M278 423Q196 423 189 322H367Q360 423 278 423ZM466 780 359 596H203L294 780ZM188 208Q193 152 218 129.5Q243 107 288 107Q330 107 353.5 126.5Q377 146 377 170H526V166Q526 128 510 95.5Q494 63 463.5 39Q433 15 388.5 1Q344 -13 287 -13Q221 -13 172.5 6.5Q124 26 92.5 61.5Q61 97 45.5 145.5Q30 194 30 251V279Q30 336 45.5 384.5Q61 433 92.5 468.5Q124 504 171 523.5Q218 543 281 543Q344 543 390 523.5Q436 504 466.5 468.5Q497 433 511.5 384.5Q526 336 526 279V208Z" glyph-name="eacute" horiz-adv-x="556" unicode="&#233;" /><glyph d="M278 423Q196 423 189 322H367Q360 423 278 423ZM281 582Q228 582 192 597Q156 612 134 638.5Q112 665 102.5 701Q93 737 94 780H207Q207 735 228 718.5Q249 702 281 702Q313 702 334 718.5Q355 735 355 780H468Q469 737 459.5 701Q450 665 428 638.5Q406 612 369.5 597Q333 582 281 582ZM188 208Q193 152 218 129.5Q243 107 288 107Q330 107 353.5 126.5Q377 146 377 170H526V166Q526 128 510 95.5Q494 63 463.5 39Q433 15 388.5 1Q344 -13 287 -13Q221 -13 172.5 6.5Q124 26 92.5 61.5Q61 97 45.5 145.5Q30 194 30 251V279Q30 336 45.5 384.5Q61 433 92.5 468.5Q124 504 171 523.5Q218 543 281 543Q344 543 390 523.5Q436 504 466.5 468.5Q497 433 511.5 384.5Q526 336 526 279V208Z" glyph-name="ebreve" horiz-adv-x="556" unicode="&#277;" /><glyph d="M278 423Q196 423 189 322H367Q360 423 278 423ZM209 780 281 697 353 780H491L357 596H205L71 780ZM188 208Q193 152 218 129.5Q243 107 288 107Q330 107 353.5 126.5Q377 146 377 170H526V166Q526 128 510 95.5Q494 63 463.5 39Q433 15 388.5 1Q344 -13 287 -13Q221 -13 172.5 6.5Q124 26 92.5 61.5Q61 97 45.5 145.5Q30 194 30 251V279Q30 336 45.5 384.5Q61 433 92.5 468.5Q124 504 171 523.5Q218 543 281 543Q344 543 390 523.5Q436 504 466.5 468.5Q497 433 511.5 384.5Q526 336 526 279V208Z" glyph-name="ecaron" horiz-adv-x="556" unicode="&#283;" /><glyph d="M278 423Q196 423 189 322H367Q360 423 278 423ZM71 596 205 780H357L491 596H353L281 678L209 596ZM188 208Q193 152 218 129.5Q243 107 288 107Q330 107 353.5 126.5Q377 146 377 170H526V166Q526 128 510 95.5Q494 63 463.5 39Q433 15 388.5 1Q344 -13 287 -13Q221 -13 172.5 6.5Q124 26 92.5 61.5Q61 97 45.5 145.5Q30 194 30 251V279Q30 336 45.5 384.5Q61 433 92.5 468.5Q124 504 171 523.5Q218 543 281 543Q344 543 390 523.5Q436 504 466.5 468.5Q497 433 511.5 384.5Q526 336 526 279V208Z" glyph-name="ecircumflex" horiz-adv-x="556" unicode="&#234;" /><glyph d="M278 423Q196 423 189 322H367Q360 423 278 423ZM256 606H91V772H256ZM471 606H306V772H471ZM188 208Q193 152 218 129.5Q243 107 288 107Q330 107 353.5 126.5Q377 146 377 170H526V166Q526 128 510 95.5Q494 63 463.5 39Q433 15 388.5 1Q344 -13 287 -13Q221 -13 172.5 6.5Q124 26 92.5 61.5Q61 97 45.5 145.5Q30 194 30 251V279Q30 336 45.5 384.5Q61 433 92.5 468.5Q124 504 171 523.5Q218 543 281 543Q344 543 390 523.5Q436 504 466.5 468.5Q497 433 511.5 384.5Q526 336 526 279V208Z" glyph-name="edieresis" horiz-adv-x="556" unicode="&#235;" /><glyph d="M278 423Q196 423 189 322H367Q360 423 278 423ZM364 606H198V772H364ZM188 208Q193 152 218 129.5Q243 107 288 107Q330 107 353.5 126.5Q377 146 377 170H526V166Q526 128 510 95.5Q494 63 463.5 39Q433 15 388.5 1Q344 -13 287 -13Q221 -13 172.5 6.5Q124 26 92.5 61.5Q61 97 45.5 145.5Q30 194 30 251V279Q30 336 45.5 384.5Q61 433 92.5 468.5Q124 504 171 523.5Q218 543 281 543Q344 543 390 523.5Q436 504 466.5 468.5Q497 433 511.5 384.5Q526 336 526 279V208Z" glyph-name="edotaccent" horiz-adv-x="556" unicode="&#279;" /><glyph d="M278 423Q196 423 189 322H367Q360 423 278 423ZM268 780 359 596H203L96 780ZM188 208Q193 152 218 129.5Q243 107 288 107Q330 107 353.5 126.5Q377 146 377 170H526V166Q526 128 510 95.5Q494 63 463.5 39Q433 15 388.5 1Q344 -13 287 -13Q221 -13 172.5 6.5Q124 26 92.5 61.5Q61 97 45.5 145.5Q30 194 30 251V279Q30 336 45.5 384.5Q61 433 92.5 468.5Q124 504 171 523.5Q218 543 281 543Q344 543 390 523.5Q436 504 466.5 468.5Q497 433 511.5 384.5Q526 336 526 279V208Z" glyph-name="egrave" horiz-adv-x="556" unicode="&#232;" /><glyph d="M295 653Q255 653 229.5 629.5Q204 606 204 567V557Q204 512 228 490Q252 468 296 468H304Q348 468 372 490Q396 512 396 557V567Q396 606 370.5 629.5Q345 653 305 653ZM293 328Q249 328 224 305Q199 282 199 237V226Q199 200 207 181Q215 162 228.5 150Q242 138 259 132.5Q276 127 295 127H305Q324 127 341 132.5Q358 138 371.5 150Q385 162 393 181Q401 200 401 226V237Q401 282 376 305Q351 328 307 328ZM300 -13Q230 -13 180.5 7.5Q131 28 99.5 60.5Q68 93 53.5 132Q39 171 39 208V227Q39 292 66.5 334Q94 376 135 399Q97 422 70.5 463Q44 504 44 567V586Q44 621 57.5 657.5Q71 694 101 724Q131 754 180 773.5Q229 793 300 793Q371 793 420 773.5Q469 754 499 724Q529 694 542.5 657.5Q556 621 556 586V567Q556 504 529.5 463Q503 422 465 399Q505 376 533 334Q561 292 561 227V208Q561 171 546.5 132Q532 93 500.5 60.5Q469 28 419.5 7.5Q370 -13 300 -13Z" glyph-name="eight" horiz-adv-x="600" unicode="8" /><glyph d="M151 51Q164 51 164 74V78Q164 101 151 101H149Q136 101 136 78V74Q136 51 149 51ZM148 -53Q138 -53 134.5 -60.5Q131 -68 131 -80V-84Q131 -96 135.5 -103.5Q140 -111 148 -111H152Q160 -111 164.5 -103.5Q169 -96 169 -84V-80Q169 -68 165.5 -60.5Q162 -53 152 -53ZM150 -213Q86 -213 49 -181Q12 -149 12 -98V-87Q12 -54 26.5 -33Q41 -12 61 0Q43 11 29.5 31.5Q16 52 16 84V94Q16 108 21.5 126.5Q27 145 42 162Q57 179 83 191Q109 203 150 203Q190 203 216 191Q242 179 257 162Q272 145 278 126.5Q284 108 284 94V84Q284 52 270.5 31.5Q257 11 239 0Q259 -12 273.5 -33Q288 -54 288 -87V-98Q288 -149 251 -181Q214 -213 150 -213Z" glyph-name="eight.inf" horiz-adv-x="300" unicode="&#58745;" /><glyph d="M1248 143Q1239 143 1231 132V130Q1231 107 1237 99Q1243 91 1248 91H1252Q1257 91 1263 97.5Q1269 104 1269 116V121Q1269 132 1263 137.5Q1257 143 1252 143ZM827 0V103H899V245L864 222L805 307L929 391H1019V103H1090V0ZM327 390V493H399V635L364 612L305 697L429 781H519V493H590V390ZM27 390V493H99V635L64 612L5 697L129 781H219V493H290V390ZM1378 299Q1294 299 1259 264Q1249 254 1241 233Q1262 246 1286 246Q1332 246 1360 214Q1388 182 1388 123V118Q1388 91 1380 67Q1372 43 1355 25Q1338 7 1311.5 -3Q1285 -13 1249 -13Q1213 -13 1187 -0.5Q1161 12 1144 33.5Q1127 55 1119 83.5Q1111 112 1111 143V152Q1111 199 1123.5 243.5Q1136 288 1168 329Q1203 372 1255.5 387.5Q1308 403 1378 403ZM345 0 921 780H1055L479 0Z" glyph-name="elevensixteenths" horiz-adv-x="1400" unicode="&#61984;" /><glyph d="M903 0H737V167H903ZM583 0H417V167H583ZM263 0H97V167H263Z" glyph-name="ellipsis" horiz-adv-x="1000" unicode="&#8230;" /><glyph d="M278 423Q196 423 189 322H367Q360 423 278 423ZM131 757H431V619H131ZM188 208Q193 152 218 129.5Q243 107 288 107Q330 107 353.5 126.5Q377 146 377 170H526V166Q526 128 510 95.5Q494 63 463.5 39Q433 15 388.5 1Q344 -13 287 -13Q221 -13 172.5 6.5Q124 26 92.5 61.5Q61 97 45.5 145.5Q30 194 30 251V279Q30 336 45.5 384.5Q61 433 92.5 468.5Q124 504 171 523.5Q218 543 281 543Q344 543 390 523.5Q436 504 466.5 468.5Q497 433 511.5 384.5Q526 336 526 279V208Z" glyph-name="emacron" horiz-adv-x="556" unicode="&#275;" /><glyph d="M40 419H960V281H40Z" glyph-name="emdash" horiz-adv-x="1000" unicode="&#8212;" /><glyph d="M40 459H960V321H40Z" glyph-name="emdash.cap" horiz-adv-x="1000" unicode="&#58502;" /><glyph glyph-name="emspace" horiz-adv-x="1000" unicode="&#8195;" /><glyph d="M40 419H460V281H40Z" glyph-name="endash" horiz-adv-x="500" unicode="&#8211;" /><glyph d="M40 459H460V321H40Z" glyph-name="endash.cap" horiz-adv-x="500" unicode="&#58500;" /><glyph d="M374 333Q374 347 371 360.5Q368 374 360 384.5Q352 395 338.5 401Q325 407 305 407Q286 407 271 402Q256 397 244.5 389.5Q233 382 224.5 373Q216 364 212 357V0H54V380L45 530H186L198 462Q223 497 264.5 520Q306 543 368 543Q413 543 444 527.5Q475 512 494.5 486.5Q514 461 523 428Q532 395 532 359V-16Q532 -71 517.5 -108.5Q503 -146 476.5 -169.5Q450 -193 413.5 -203Q377 -213 333 -213Q297 -213 275.5 -208.5Q254 -204 247 -200V-70Q252 -72 267 -74.5Q282 -77 296 -77Q314 -77 328 -74Q342 -71 352.5 -62.5Q363 -54 368.5 -38.5Q374 -23 374 1Z" glyph-name="eng" horiz-adv-x="580" unicode="&#331;" /><glyph glyph-name="enspace" horiz-adv-x="500" unicode="&#8194;" /><glyph d="M278 423Q196 423 189 322H367Q360 423 278 423ZM188 208Q193 152 218 129.5Q243 107 288 107Q330 107 353.5 126.5Q377 146 377 170H526V166Q526 108 489.5 63.5Q453 19 387 0Q357 -9 341 -27.5Q325 -46 325 -69Q325 -85 336.5 -95Q348 -105 368 -105Q382 -105 393 -101.5Q404 -98 410 -94L446 -190Q430 -200 402 -207.5Q374 -215 343 -215Q282 -215 245 -188.5Q208 -162 208 -107Q208 -78 217 -54Q226 -30 243 -10Q188 -4 148 18Q108 40 81.5 74Q55 108 42.5 153Q30 198 30 251V279Q30 336 45.5 384.5Q61 433 92.5 468.5Q124 504 171 523.5Q218 543 281 543Q344 543 390 523.5Q436 504 466.5 468.5Q497 433 511.5 384.5Q526 336 526 279V208Z" glyph-name="eogonek" horiz-adv-x="556" unicode="&#281;" /><glyph d="M42 352H558V211H42ZM42 569H558V428H42Z" glyph-name="equal" horiz-adv-x="600" unicode="=" /><glyph d="M18 -14H282V-118H18ZM18 108H282V4H18Z" glyph-name="equal.inf" horiz-adv-x="300" unicode="&#58749;" /><glyph d="M42 460H558V320H42ZM42 244H558V103H42ZM42 677H558V536H42Z" glyph-name="equivalence" horiz-adv-x="600" unicode="&#8801;" /><glyph d="M278 122Q326 122 347.5 155Q369 188 369 247V283Q369 342 347.5 375Q326 408 278 408Q230 408 208.5 375Q187 342 187 283V247Q187 188 208.5 155Q230 122 278 122ZM31 813Q108 808 179 793Q250 778 310 746L430 813V724L381 697Q402 677 420 655Q452 614 472.5 568Q493 522 505 474Q517 426 521.5 377.5Q526 329 526 283V247Q526 190 511.5 142Q497 94 466.5 59.5Q436 25 389 6Q342 -13 278 -13Q214 -13 167.5 6Q121 25 90.5 59.5Q60 94 45.5 142Q31 190 31 247V283Q31 340 45.5 388Q60 436 88 470.5Q116 505 157.5 524Q199 543 254 543Q292 543 322 533Q317 542 310.5 550Q304 558 297 566Q271 595 235 616L59 518V607L143 653Q117 661 89 665.5Q61 670 31 673Z" glyph-name="eth" horiz-adv-x="556" unicode="&#240;" /><glyph d="M216 0H50V167H216ZM231 780 189 228H77L35 780Z" glyph-name="exclam" horiz-adv-x="265" unicode="!" /><glyph d="M50 530H216V363H50ZM35 -200 77 302H189L231 -200Z" glyph-name="exclamdown" horiz-adv-x="265" unicode="&#161;" /><glyph d="M50 780H216V613H50ZM35 0 77 552H189L231 0Z" glyph-name="exclamdown.cap" horiz-adv-x="265" unicode="&#58433;" /><glyph d="M258 530H374V392H258V0H100V392H19V530H100V616Q100 671 114.5 708.5Q129 746 155 769Q181 792 217.5 802.5Q254 813 299 813Q335 813 356 808.5Q377 804 384 800V670Q379 672 364 674.5Q349 677 336 677Q318 677 303.5 674Q289 671 279 662.5Q269 654 263.5 638.5Q258 623 258 599Z" glyph-name="f" horiz-adv-x="411" unicode="f" /><glyph d="M311 845H177V945H311ZM258 530H374V392H258V0H100V392H19V530H100V616Q100 671 114.5 708.5Q129 746 155 769Q181 792 217.5 802.5Q254 813 299 813Q335 813 356 808.5Q377 804 384 800V670Q379 672 364 674.5Q349 677 336 677Q318 677 303.5 674Q289 671 279 662.5Q269 654 263.5 638.5Q258 623 258 599Z" glyph-name="fdotaccent" horiz-adv-x="411" unicode="&#7711;" /><glyph d="M627 605H461V772H627ZM465 530H623V0H465ZM258 530H374V392H258V0H100V392H19V530H100V616Q100 671 114.5 708.5Q129 746 155 769Q181 792 217.5 802.5Q254 813 299 813Q335 813 356 808.5Q377 804 384 800V670Q379 672 364 674.5Q349 677 336 677Q318 677 303.5 674Q289 671 279 662.5Q269 654 263.5 638.5Q258 623 258 599Z" glyph-name="fi" horiz-adv-x="677" unicode="&#64257;" /><glyph d="M1248 143Q1239 143 1231 132V130Q1231 107 1237 99Q1243 91 1248 91H1252Q1257 91 1263 97.5Q1269 104 1269 116V121Q1269 132 1263 137.5Q1257 143 1252 143ZM827 0V103H899V245L864 222L805 307L929 391H1019V103H1090V0ZM27 390V493H99V635L64 612L5 697L129 781H219V493H290V390ZM1378 299Q1294 299 1259 264Q1249 254 1241 233Q1262 246 1286 246Q1332 246 1360 214Q1388 182 1388 123V118Q1388 91 1380 67Q1372 43 1355 25Q1338 7 1311.5 -3Q1285 -13 1249 -13Q1213 -13 1187 -0.5Q1161 12 1144 33.5Q1127 55 1119 83.5Q1111 112 1111 143V152Q1111 199 1123.5 243.5Q1136 288 1168 329Q1203 372 1255.5 387.5Q1308 403 1378 403ZM431 515Q431 495 436.5 488Q442 481 447 481H451Q458 481 463.5 488.5Q469 496 469 511V516Q469 546 445 546H444Q431 546 420 535L316 570L325 780H581V676H424L422 637Q433 640 444 642Q455 644 468 644Q528 644 558 609Q588 574 588 519V507Q588 443 551 410Q514 377 450 377Q386 377 348.5 412Q311 447 311 507V515ZM345 0 921 780H1055L479 0Z" glyph-name="fifteensixteenths" horiz-adv-x="1400" unicode="&#61986;" /><glyph d="M40 419H560V281H40Z" glyph-name="figuredash" horiz-adv-x="600" unicode="&#8210;" /><glyph d="M40 459H560V321H40Z" glyph-name="figuredash.cap" horiz-adv-x="600" unicode="&#58503;" /><glyph glyph-name="figurespace" horiz-adv-x="600" unicode="&#8199;" /><glyph d="M199 250Q199 215 206.5 191.5Q214 168 227 153.5Q240 139 257.5 133Q275 127 295 127H305Q324 127 341 133Q358 139 371.5 152.5Q385 166 393 188Q401 210 401 241V252Q401 283 393 305Q385 327 371 340.5Q357 354 338 360.5Q319 367 297 367H291Q260 367 229 352Q198 337 182 305L45 352L63 780H551V640H197L190 482Q216 493 246 499.5Q276 506 308 506Q431 506 496 438.5Q561 371 561 256V237Q561 122 495 54.5Q429 -13 300 -13Q168 -13 103.5 51.5Q39 116 39 237V250Z" glyph-name="five" horiz-adv-x="600" unicode="5" /><glyph d="M131 -75Q131 -95 136.5 -102Q142 -109 147 -109H151Q158 -109 163.5 -101.5Q169 -94 169 -79V-74Q169 -44 145 -44H144Q131 -44 120 -55L16 -20L25 190H281V86H124L122 47Q133 50 144 52Q155 54 168 54Q228 54 258 19Q288 -16 288 -71V-83Q288 -147 251 -180Q214 -213 150 -213Q86 -213 48.5 -178Q11 -143 11 -83V-75Z" glyph-name="five.inf" horiz-adv-x="300" unicode="&#58742;" /><glyph d="M948 143Q939 143 931 132V130Q931 107 937 99Q943 91 948 91H952Q957 91 963 97.5Q969 104 969 116V121Q969 132 963 137.5Q957 143 952 143ZM527 0V103H599V245L564 222L505 307L629 391H719V103H790V0ZM1078 299Q994 299 959 264Q949 254 941 233Q962 246 986 246Q1032 246 1060 214Q1088 182 1088 123V118Q1088 91 1080 67Q1072 43 1055 25Q1038 7 1011.5 -3Q985 -13 949 -13Q913 -13 887 -0.5Q861 12 844 33.5Q827 55 819 83.5Q811 112 811 143V152Q811 199 823.5 243.5Q836 288 868 329Q903 372 955.5 387.5Q1008 403 1078 403ZM131 515Q131 495 136.5 488Q142 481 147 481H151Q158 481 163.5 488.5Q169 496 169 511V516Q169 546 145 546H144Q131 546 120 535L16 570L25 780H281V676H124L122 637Q133 640 144 642Q155 644 168 644Q228 644 258 609Q288 574 288 519V507Q288 443 251 410Q214 377 150 377Q86 377 48.5 412Q11 447 11 507V515ZM45 0 621 780H755L179 0Z" glyph-name="fivesixteenths" horiz-adv-x="1100" unicode="&#61975;" /><glyph d="M465 800H623V0H465ZM258 530H374V392H258V0H100V392H19V530H100V616Q100 671 114.5 708.5Q129 746 155 769Q181 792 217.5 802.5Q254 813 299 813Q335 813 356 808.5Q377 804 384 800V670Q379 672 364 674.5Q349 677 336 677Q318 677 303.5 674Q289 671 279 662.5Q269 654 263.5 638.5Q258 623 258 599Z" glyph-name="fl" horiz-adv-x="677" unicode="&#64258;" /><glyph d="M193 308 244 310H328V468L330 526ZM328 0V170H27V282L337 780H488V310H573V170H488V0Z" glyph-name="four" horiz-adv-x="600" unicode="4" /><glyph d="M106 -28H137V29ZM137 -200V-132H10V-40L136 190H257V-28H289V-132H257V-200Z" glyph-name="four.inf" horiz-adv-x="300" unicode="&#58741;" /><glyph glyph-name="fourperemspace" horiz-adv-x="250" unicode="&#8197;" /><glyph d="M-255 0 321 780H455L-121 0Z" glyph-name="fraction" horiz-adv-x="200" unicode="&#8260;" /><glyph d="M273 155Q291 155 305.5 160Q320 165 331.5 172.5Q343 180 350.5 189Q358 198 363 205V357Q358 364 350.5 373Q343 382 331.5 389.5Q320 397 305.5 402Q291 407 273 407Q230 407 209 376.5Q188 346 188 295V267Q188 155 273 155ZM363 73Q340 48 307 33.5Q274 19 227 19Q174 19 136.5 36.5Q99 54 75.5 86.5Q52 119 41 164.5Q30 210 30 267V295Q30 348 41 393.5Q52 439 75.5 472Q99 505 136.5 524Q174 543 227 543Q283 543 319 522Q355 501 378 469L389 530H530L521 380V10Q521 -100 461.5 -156.5Q402 -213 276 -213Q210 -213 164.5 -198Q119 -183 91.5 -157Q64 -131 52 -96Q40 -61 40 -21V0H189Q189 -19 193 -34.5Q197 -50 206.5 -61.5Q216 -73 232 -79Q248 -85 273 -85Q319 -85 341 -64Q363 -43 363 11Z" glyph-name="g" horiz-adv-x="574" unicode="g" /><glyph d="M363 357Q358 364 350.5 373Q343 382 331.5 389.5Q320 397 305.5 402Q291 407 273 407Q230 407 209 376.5Q188 346 188 295V267Q188 155 273 155Q291 155 305.5 160Q320 165 331.5 172.5Q343 180 350.5 189Q358 198 363 205ZM280 582Q227 582 191 597Q155 612 133 638.5Q111 665 101.5 701Q92 737 93 780H206Q206 735 227 718.5Q248 702 280 702Q312 702 333 718.5Q354 735 354 780H467Q468 737 458.5 701Q449 665 427 638.5Q405 612 368.5 597Q332 582 280 582ZM363 73Q340 48 307 33.5Q274 19 227 19Q174 19 136.5 36.5Q99 54 75.5 86.5Q52 119 41 164.5Q30 210 30 267V295Q30 348 41 393.5Q52 439 75.5 472Q99 505 136.5 524Q174 543 227 543Q283 543 319 522Q355 501 378 469L389 530H530L521 380V10Q521 -100 461.5 -156.5Q402 -213 276 -213Q210 -213 164.5 -198Q119 -183 91.5 -157Q64 -131 52 -96Q40 -61 40 -21V0H189Q189 -19 193 -34.5Q197 -50 206.5 -61.5Q216 -73 232 -79Q248 -85 273 -85Q319 -85 341 -64Q363 -43 363 11Z" glyph-name="gbreve" horiz-adv-x="574" unicode="&#287;" /><glyph d="M363 357Q358 364 350.5 373Q343 382 331.5 389.5Q320 397 305.5 402Q291 407 273 407Q230 407 209 376.5Q188 346 188 295V267Q188 155 273 155Q291 155 305.5 160Q320 165 331.5 172.5Q343 180 350.5 189Q358 198 363 205ZM70 596 204 780H356L490 596H352L280 678L208 596ZM363 73Q340 48 307 33.5Q274 19 227 19Q174 19 136.5 36.5Q99 54 75.5 86.5Q52 119 41 164.5Q30 210 30 267V295Q30 348 41 393.5Q52 439 75.5 472Q99 505 136.5 524Q174 543 227 543Q283 543 319 522Q355 501 378 469L389 530H530L521 380V10Q521 -100 461.5 -156.5Q402 -213 276 -213Q210 -213 164.5 -198Q119 -183 91.5 -157Q64 -131 52 -96Q40 -61 40 -21V0H189Q189 -19 193 -34.5Q197 -50 206.5 -61.5Q216 -73 232 -79Q248 -85 273 -85Q319 -85 341 -64Q363 -43 363 11Z" glyph-name="gcircumflex" horiz-adv-x="574" unicode="&#285;" /><glyph d="M206 661Q206 731 241.5 762Q277 793 353 793V739Q318 739 296.5 729.5Q275 720 266 696H347V596H206ZM273 154Q309 154 331.5 172Q354 190 364 205V357Q354 372 331.5 390Q309 408 273 408Q229 408 208 377Q187 346 187 295V267Q187 154 273 154ZM364 73Q341 48 308 33.5Q275 19 227 19Q174 19 137 36.5Q100 54 76.5 86.5Q53 119 42 165Q31 211 31 267V295Q31 348 42 393.5Q53 439 76.5 472Q100 505 137 524Q174 543 227 543Q283 543 319.5 522.5Q356 502 378 470L389 530H530L521 380V10Q521 -100 461 -156.5Q401 -213 276 -213Q210 -213 165 -198Q120 -183 92.5 -157Q65 -131 53 -96Q41 -61 41 -21V0H189Q189 -19 193 -34.5Q197 -50 206.5 -61.5Q216 -73 232 -79.5Q248 -86 273 -86Q319 -86 341.5 -64.5Q364 -43 364 11Z" glyph-name="gcommaaccent" horiz-adv-x="574" unicode="&#291;" /><glyph d="M359 606H193V772H359ZM363 357Q358 364 350.5 373Q343 382 331.5 389.5Q320 397 305.5 402Q291 407 273 407Q230 407 209 376.5Q188 346 188 295V267Q188 155 273 155Q291 155 305.5 160Q320 165 331.5 172.5Q343 180 350.5 189Q358 198 363 205ZM363 73Q340 48 307 33.5Q274 19 227 19Q174 19 136.5 36.5Q99 54 75.5 86.5Q52 119 41 164.5Q30 210 30 267V295Q30 348 41 393.5Q52 439 75.5 472Q99 505 136.5 524Q174 543 227 543Q283 543 319 522Q355 501 378 469L389 530H530L521 380V10Q521 -100 461.5 -156.5Q402 -213 276 -213Q210 -213 164.5 -198Q119 -183 91.5 -157Q64 -131 52 -96Q40 -61 40 -21V0H189Q189 -19 193 -34.5Q197 -50 206.5 -61.5Q216 -73 232 -79Q248 -85 273 -85Q319 -85 341 -64Q363 -43 363 11Z" glyph-name="gdotaccent" horiz-adv-x="574" unicode="&#289;" /><glyph d="M285 434Q332 460 361 495.5Q390 531 390 577Q390 622 368.5 649.5Q347 677 299 677Q274 677 256.5 669Q239 661 228 648Q217 635 212 618.5Q207 602 207 585V0H49V594Q49 640 62.5 680Q76 720 105.5 749.5Q135 779 182.5 796Q230 813 299 813Q363 813 410 795Q457 777 487.5 747Q518 717 533 677Q548 637 548 594V584Q548 519 521.5 476Q495 433 447 398L471 382Q540 336 576 285Q612 234 612 173V164Q612 129 601.5 97.5Q591 66 567.5 41Q544 16 507.5 1.5Q471 -13 420 -13Q366 -13 331.5 0Q297 13 277.5 36Q258 59 251 90.5Q244 122 244 160V168H378Q378 107 417 107Q440 107 447 123.5Q454 140 454 162Q454 185 437 213Q420 241 378 270L285 334Z" glyph-name="germandbls" horiz-adv-x="632" unicode="&#223;" /><glyph d="M237 780 328 596H172L65 780Z" glyph-name="grave" horiz-adv-x="500" unicode="`" /><glyph d="M273 950 328 840H172L108 950Z" glyph-name="grave.cap" horiz-adv-x="500" unicode="&#58401;" /><glyph d="M558 313 42 108V264L380 390L42 516V672L558 467Z" glyph-name="greater" horiz-adv-x="600" unicode="&gt;" /><glyph d="M42 174 558 334V244L42 83ZM330 459 42 541V697L558 536V383L42 222V378Z" glyph-name="greaterequal" horiz-adv-x="600" unicode="&#8805;" /><glyph d="M515 424 406 340 515 256V117L299 264V416L515 563ZM266 424 157 340 266 256V117L50 264V416L266 563Z" glyph-name="guillemotleft" horiz-adv-x="565" unicode="&#171;" /><glyph d="M515 474 406 390 515 306V167L299 314V466L515 613ZM266 474 157 390 266 306V167L50 314V466L266 613Z" glyph-name="guillemotleft.cap" horiz-adv-x="565" unicode="&#58451;" /><glyph d="M50 563 266 416V264L50 117V256L159 340L50 424ZM299 563 515 416V264L299 117V256L408 340L299 424Z" glyph-name="guillemotright" horiz-adv-x="565" unicode="&#187;" /><glyph d="M50 613 266 466V314L50 167V306L159 390L50 474ZM299 613 515 466V314L299 167V306L408 390L299 474Z" glyph-name="guillemotright.cap" horiz-adv-x="565" unicode="&#58452;" /><glyph d="M266 424 157 340 266 256V117L50 264V416L266 563Z" glyph-name="guilsinglleft" horiz-adv-x="316" unicode="&#8249;" /><glyph d="M266 474 157 390 266 306V167L50 314V466L266 613Z" glyph-name="guilsinglleft.cap" horiz-adv-x="316" unicode="&#58449;" /><glyph d="M50 563 266 416V264L50 117V256L159 340L50 424Z" glyph-name="guilsinglright" horiz-adv-x="316" unicode="&#8250;" /><glyph d="M50 613 266 466V314L50 167V306L159 390L50 474Z" glyph-name="guilsinglright.cap" horiz-adv-x="316" unicode="&#58450;" /><glyph d="M212 479Q238 508 276 525.5Q314 543 368 543Q413 543 444 527.5Q475 512 494.5 486.5Q514 461 523 428Q532 395 532 359V0H375V333Q375 347 371.5 360.5Q368 374 360 384.5Q352 395 338.5 401Q325 407 305 407Q286 407 271 402Q256 397 244.5 389.5Q233 382 224.5 373Q216 364 212 357V0H54V800H212Z" glyph-name="h" horiz-adv-x="580" unicode="h" /><glyph glyph-name="hairspace" horiz-adv-x="50" unicode="&#8202;" /><glyph d="M211 721H324V609H211V479Q237 508 275 525.5Q313 543 367 543Q412 543 443 527.5Q474 512 493.5 486.5Q513 461 522 428Q531 395 531 359V0H375V333Q375 347 371.5 360.5Q368 374 360 384.5Q352 395 338.5 401.5Q325 408 304 408Q266 408 243.5 390Q221 372 211 357V0H54V609H-14V721H54V800H211Z" glyph-name="hbar" horiz-adv-x="579" unicode="&#295;" /><glyph d="M-72 840 52 950H212L336 840H194L132 884L70 840ZM212 479Q238 508 276 525.5Q314 543 368 543Q413 543 444 527.5Q475 512 494.5 486.5Q514 461 523 428Q532 395 532 359V0H375V333Q375 347 371.5 360.5Q368 374 360 384.5Q352 395 338.5 401Q325 407 305 407Q286 407 271 402Q256 397 244.5 389.5Q233 382 224.5 373Q216 364 212 357V0H54V800H212Z" glyph-name="hcircumflex" horiz-adv-x="579" unicode="&#293;" /><glyph d="M449 -10Q437 9 414 40Q391 71 360 110Q329 149 292.5 193.5Q256 238 216 283Q190 312 161 348Q132 384 108 423.5Q84 463 68 504Q52 545 52 584Q52 628 65 666Q78 704 103 731.5Q128 759 163.5 774.5Q199 790 243 790Q289 790 323 777Q357 764 381 742.5Q405 721 421 692.5Q437 664 448 633H452Q463 664 479 692.5Q495 721 519 742.5Q543 764 576.5 777Q610 790 657 790Q701 790 736.5 774.5Q772 759 796.5 731.5Q821 704 834.5 666Q848 628 848 584Q848 545 832 504Q816 463 792 423.5Q768 384 739 348Q710 312 684 283Q644 238 607.5 193.5Q571 149 540 110Q509 71 486 40Q463 9 451 -10Z" glyph-name="heart" horiz-adv-x="900" unicode="&#9829;" /><glyph d="M70 0V450L425 790L780 450V0Z" glyph-name="house" horiz-adv-x="850" unicode="&#8962;" /><glyph d="M498 780 391 596H268L359 780ZM315 780 231 596H108L175 780Z" glyph-name="hungarumlaut" horiz-adv-x="500" unicode="&#733;" /><glyph d="M467 950 403 840H264L318 950ZM292 950 236 840H97L143 950Z" glyph-name="hungarumlaut.cap" horiz-adv-x="500" unicode="&#58411;" /><glyph d="M40 419H313V281H40Z" glyph-name="hyphen" horiz-adv-x="353" unicode="-" /><glyph d="M40 459H313V321H40Z" glyph-name="hyphen.cap" horiz-adv-x="320" unicode="&#58498;" /><glyph d="M216 605H50V772H216ZM54 530H212V0H54Z" glyph-name="i" horiz-adv-x="266" unicode="i" /><glyph d="M318 780 211 596H55L146 780ZM54 530H211V0H54Z" glyph-name="iacute" horiz-adv-x="265" unicode="&#237;" /><glyph d="M133 582Q80 582 44 597Q8 612 -14 638.5Q-36 665 -45.5 701Q-55 737 -54 780H59Q59 735 80 718.5Q101 702 133 702Q165 702 186 718.5Q207 735 207 780H320Q321 737 311.5 701Q302 665 280 638.5Q258 612 221.5 597Q185 582 133 582ZM54 530H211V0H54Z" glyph-name="ibreve" horiz-adv-x="265" unicode="&#301;" /><glyph d="M-77 596 57 780H209L343 596H205L133 678L61 596ZM54 530H211V0H54Z" glyph-name="icircumflex" horiz-adv-x="265" unicode="&#238;" /><glyph d="M323 606H158V772H323ZM108 606H-57V772H108ZM54 530H211V0H54Z" glyph-name="idieresis" horiz-adv-x="265" unicode="&#239;" /><glyph d="M216 605H50V772H216ZM54 530H212V0H54Z" glyph-name="idotaccent" horiz-adv-x="266" unicode="&#59269;" /><glyph d="M120 780 211 596H55L-52 780ZM54 530H211V0H54Z" glyph-name="igrave" horiz-adv-x="266" unicode="&#236;" /><glyph d="M432 605H266V772H432ZM216 605H50V772H216ZM54 530H212V0H54ZM270 530H428V-16Q428 -71 413.5 -108.5Q399 -146 372.5 -169.5Q346 -193 309.5 -203Q273 -213 229 -213Q193 -213 171.5 -208.5Q150 -204 143 -200V-70Q148 -72 163 -74.5Q178 -77 192 -77Q210 -77 224 -74Q238 -71 248.5 -62.5Q259 -54 264.5 -38.5Q270 -23 270 1Z" glyph-name="ij" horiz-adv-x="481" unicode="&#307;" /><glyph d="M-17 757H283V619H-17ZM54 530H211V0H54Z" glyph-name="imacron" horiz-adv-x="266" unicode="&#299;" /><glyph d="M328 575Q328 627 291 646L288 471Q304 499 316 524Q328 549 328 575ZM338 0H172V167H338ZM214 228 205 644Q182 631 173 600.5Q164 570 164 516H21V534Q21 597 33 645Q45 693 72 726Q99 759 143.5 776Q188 793 253 793Q319 793 362.5 775.5Q406 758 432 730Q458 702 468.5 665.5Q479 629 479 592Q479 542 466.5 508.5Q454 475 435.5 450.5Q417 426 395 405.5Q373 385 353 361.5Q333 338 318 306.5Q303 275 300 228Z" glyph-name="interrobang" horiz-adv-x="497" unicode="&#8253;" /><glyph d="M177 -5Q177 -26 185.5 -42.5Q194 -59 214 -67L217 93Q201 70 189 48Q177 26 177 -5ZM164 530H330V363H164ZM18 -21Q18 27 30.5 59.5Q43 92 61.5 115Q80 138 102.5 156Q125 174 145 193.5Q165 213 179.5 238.5Q194 264 197 302H291L299 -62Q319 -49 328 -19.5Q337 10 337 60H475V43Q475 -19 463 -67Q451 -115 424 -147.5Q397 -180 353 -196.5Q309 -213 244 -213Q179 -213 135.5 -196Q92 -179 66 -151.5Q40 -124 29 -90Q18 -56 18 -21Z" glyph-name="interrobangdown" horiz-adv-x="497" unicode="&#59701;" /><glyph d="M172 205Q172 180 180 161.5Q188 143 208 134L212 308Q195 280 183.5 255.5Q172 231 172 205ZM162 780H328V613H162ZM21 188Q21 238 33.5 271.5Q46 305 64.5 329.5Q83 354 105 374.5Q127 395 147 418.5Q167 442 181.5 473.5Q196 505 200 552H286L294 135Q317 148 326.5 179Q336 210 336 264H479V246Q479 183 467 135Q455 87 428 54Q401 21 356.5 4Q312 -13 247 -13Q181 -13 137.5 4.5Q94 22 68 50Q42 78 31.5 114Q21 150 21 188Z" glyph-name="interrobangdown.cap" horiz-adv-x="497" unicode="&#59803;" /><glyph d="M250 793Q302 793 338.5 778Q375 763 397 737Q419 711 428.5 674.5Q438 638 437 596H324Q324 640 303 657Q282 674 250 674Q218 674 197 657Q176 640 176 596H63Q62 638 71.5 674.5Q81 711 103 737Q125 763 161 778Q197 793 250 793Z" glyph-name="invertedbreve" horiz-adv-x="500" unicode="&#58385;" /><glyph d="M250 965Q305 965 340.5 955Q376 945 396.5 928Q417 911 425 888Q433 865 433 840H324Q324 860 307 870Q290 880 250 880Q210 880 193 870Q176 860 176 840H67Q67 865 75 888Q83 911 103.5 928Q124 945 159.5 955Q195 965 250 965Z" glyph-name="invertedbreve.cap" horiz-adv-x="500" unicode="&#58407;" /><glyph d="M216 605H50V772H216ZM32 -107Q32 -64 54 -28V530H212V0H211Q182 -13 165.5 -29.5Q149 -46 149 -69Q149 -85 160.5 -95Q172 -105 192 -105Q206 -105 217 -101.5Q228 -98 234 -94L270 -190Q254 -200 226 -207.5Q198 -215 167 -215Q106 -215 69 -188.5Q32 -162 32 -107Z" glyph-name="iogonek" horiz-adv-x="266" unicode="&#303;" /><glyph d="M334 772Q334 730 325.5 700Q317 670 302 650.5Q287 631 266.5 622Q246 613 223 613Q199 613 177.5 621Q156 629 136.5 639Q117 649 100 657Q83 665 68 665Q54 665 45.5 656.5Q37 648 37 628H-68Q-68 712 -36 749.5Q-4 787 43 787Q67 787 88.5 779Q110 771 129.5 761Q149 751 166 743Q183 735 198 735Q212 735 220.5 743.5Q229 752 229 772ZM54 530H211V0H54Z" glyph-name="itilde" horiz-adv-x="266" unicode="&#297;" /><glyph d="M216 605H50V772H216ZM54 530H212V-16Q212 -71 197.5 -108.5Q183 -146 156.5 -169.5Q130 -193 93.5 -203Q57 -213 13 -213Q-23 -213 -44.5 -208.5Q-66 -204 -73 -200V-70Q-68 -72 -53 -74.5Q-38 -77 -24 -77Q-6 -77 8 -74Q22 -71 32.5 -62.5Q43 -54 48.5 -38.5Q54 -23 54 1Z" glyph-name="j" horiz-adv-x="268" unicode="j" /><glyph d="M-77 596 57 780H209L343 596H205L133 678L61 596ZM54 530H211V-16Q211 -71 196.5 -108.5Q182 -146 156 -169.5Q130 -193 93.5 -203Q57 -213 13 -213Q-24 -213 -45 -208.5Q-66 -204 -73 -200V-71Q-68 -73 -53 -75.5Q-38 -78 -24 -78Q-6 -78 8 -75Q22 -72 32.5 -63.5Q43 -55 48.5 -39.5Q54 -24 54 1Z" glyph-name="jcircumflex" horiz-adv-x="266" unicode="&#309;" /><glyph d="M50 800H208V350L355 530H544L369 329L544 0H360L260 204L208 144V0H50Z" glyph-name="k" horiz-adv-x="562" unicode="k" /><glyph d="M350 -101Q350 -168 314 -197Q278 -226 203 -226V-172Q235 -172 256 -164Q277 -156 287 -136H208V-44H350ZM50 800H208V350L355 530H544L369 329L544 0H360L260 204L208 144V0H50Z" glyph-name="kcommaaccent" horiz-adv-x="562" unicode="&#311;" /><glyph d="M50 530H208V350L355 530H544L369 329L544 0H360L260 204L208 144V0H50Z" glyph-name="kgreenlandic" horiz-adv-x="562" unicode="&#312;" /><glyph d="M54 800H212V0H54Z" glyph-name="l" horiz-adv-x="266" unicode="l" /><glyph d="M275 950 211 840H55L110 950ZM54 800H212V0H54Z" glyph-name="lacute" horiz-adv-x="266" unicode="&#314;" /><glyph d="M364 800 338 596H268V800ZM54 800H212V0H54Z" glyph-name="lcaron" horiz-adv-x="266" unicode="&#318;" /><glyph d="M204 -101Q204 -168 168 -197Q132 -226 57 -226V-172Q89 -172 110 -164Q131 -156 141 -136H62V-44H204ZM54 800H212V0H54Z" glyph-name="lcommaaccent" horiz-adv-x="266" unicode="&#316;" /><glyph d="M436 267H270V434H436ZM54 800H212V0H54Z" glyph-name="ldot" horiz-adv-x="439" unicode="&#320;" /><glyph d="M558 672V516L220 390L558 264V108L42 313V467Z" glyph-name="less" horiz-adv-x="600" unicode="&lt;" /><glyph d="M558 83 42 244V334L558 174ZM270 459 558 378V222L42 383V536L558 697V541Z" glyph-name="lessequal" horiz-adv-x="600" unicode="&#8804;" /><glyph d="M42 576H558V194H417V435H42Z" glyph-name="logicalnot" horiz-adv-x="600" unicode="&#172;" /><glyph d="M42 137H278V0H42Z" glyph-name="lowline" horiz-adv-x="320" unicode="&#58641;" /><glyph d="M23 323 112 379V800H270V479L371 543V411L270 347V0H112V246L23 190Z" glyph-name="lslash" horiz-adv-x="384" unicode="&#322;" /><glyph d="M658 0V340Q658 372 643 389.5Q628 407 595 407Q561 407 542 391Q523 375 513 361V0H356V340Q356 372 341 389.5Q326 407 293 407Q260 407 240.5 391Q221 375 212 361V0H54V380L45 530H186L197 466Q221 500 260 521.5Q299 543 356 543Q410 543 444 521Q478 499 495 461Q519 496 558.5 519.5Q598 543 658 543Q699 543 729 529Q759 515 778 491Q797 467 806 434.5Q815 402 815 365V0Z" glyph-name="m" horiz-adv-x="863" unicode="m" /><glyph d="M100 757H400V619H100Z" glyph-name="macron" horiz-adv-x="500" unicode="&#175;" /><glyph d="M101 943H399V847H101Z" glyph-name="macron.cap" horiz-adv-x="500" unicode="&#58405;" /><glyph d="M518 606H352V772H518ZM658 0V340Q658 372 643 389.5Q628 407 595 407Q561 407 542 391Q523 375 513 361V0H356V340Q356 372 341 389.5Q326 407 293 407Q260 407 240.5 391Q221 375 212 361V0H54V380L45 530H186L197 466Q221 500 260 521.5Q299 543 356 543Q410 543 444 521Q478 499 495 461Q519 496 558.5 519.5Q598 543 658 543Q699 543 729 529Q759 515 778 491Q797 467 806 434.5Q815 402 815 365V0Z" glyph-name="mdotaccent" horiz-adv-x="863" unicode="&#7745;" /><glyph d="M57 265Q57 323 79 373.5Q101 424 138.5 461.5Q176 499 226.5 521Q277 543 335 543Q393 543 443.5 521Q494 499 531.5 461.5Q569 424 591 373.5Q613 323 613 265Q613 207 591 156.5Q569 106 531.5 68.5Q494 31 443.5 9Q393 -13 335 -13Q277 -13 226.5 9Q176 31 138.5 68.5Q101 106 79 156.5Q57 207 57 265Z" glyph-name="mediumblackcircle" horiz-adv-x="670" unicode="&#9899;" /><glyph d="M196 265Q196 236 207 210.5Q218 185 236.5 166.5Q255 148 280.5 137Q306 126 335 126Q364 126 389.5 137Q415 148 433.5 166.5Q452 185 463 210.5Q474 236 474 265Q474 294 463 319.5Q452 345 433.5 363.5Q415 382 389.5 393Q364 404 335 404Q306 404 280.5 393Q255 382 236.5 363.5Q218 345 207 319.5Q196 294 196 265ZM57 265Q57 323 79 373.5Q101 424 138.5 461.5Q176 499 226.5 521Q277 543 335 543Q393 543 443.5 521Q494 499 531.5 461.5Q569 424 591 373.5Q613 323 613 265Q613 207 591 156.5Q569 106 531.5 68.5Q494 31 443.5 9Q393 -13 335 -13Q277 -13 226.5 9Q176 31 138.5 68.5Q101 106 79 156.5Q57 207 57 265Z" glyph-name="mediumwhitecircle" horiz-adv-x="670" unicode="&#9898;" /><glyph d="M42 460H558V320H42Z" glyph-name="minus" horiz-adv-x="600" unicode="&#8722;" /><glyph d="M18 47H282V-57H18Z" glyph-name="minus.inf" horiz-adv-x="300" unicode="&#58748;" /><glyph d="M29 219 200 390 29 561 129 661 300 490 471 661 571 561 400 390 571 219 471 119 300 290 129 119Z" glyph-name="multiply" horiz-adv-x="600" unicode="&#215;" /><glyph d="M375 0V333Q375 347 371.5 360.5Q368 374 360 384.5Q352 395 338.5 401Q325 407 305 407Q286 407 271 402Q256 397 244.5 389.5Q233 382 224.5 373Q216 364 212 357V0H54V380L45 530H186L198 462Q223 497 264.5 520Q306 543 368 543Q413 543 444 527.5Q475 512 494.5 486.5Q514 461 523 428Q532 395 532 359V0Z" glyph-name="n" horiz-adv-x="580" unicode="n" /><glyph d="M478 780 371 596H215L306 780ZM375 0V333Q375 347 371.5 360.5Q368 374 360 384.5Q352 395 338.5 401Q325 407 305 407Q286 407 271 402Q256 397 244.5 389.5Q233 382 224.5 373Q216 364 212 357V0H54V380L45 530H186L198 462Q223 497 264.5 520Q306 543 368 543Q413 543 444 527.5Q475 512 494.5 486.5Q514 461 523 428Q532 395 532 359V0Z" glyph-name="nacute" horiz-adv-x="580" unicode="&#324;" /><glyph d="M221 780 293 697 365 780H503L369 596H217L83 780ZM375 0V333Q375 347 371.5 360.5Q368 374 360 384.5Q352 395 338.5 401Q325 407 305 407Q286 407 271 402Q256 397 244.5 389.5Q233 382 224.5 373Q216 364 212 357V0H54V380L45 530H186L198 462Q223 497 264.5 520Q306 543 368 543Q413 543 444 527.5Q475 512 494.5 486.5Q514 461 523 428Q532 395 532 359V0Z" glyph-name="ncaron" horiz-adv-x="580" unicode="&#328;" /><glyph d="M364 -101Q364 -168 328 -197Q292 -226 217 -226V-172Q249 -172 270 -164Q291 -156 301 -136H222V-44H364ZM375 0V333Q375 347 371.5 360.5Q368 374 360 384.5Q352 395 338.5 401Q325 407 305 407Q286 407 271 402Q256 397 244.5 389.5Q233 382 224.5 373Q216 364 212 357V0H54V380L45 530H186L198 462Q223 497 264.5 520Q306 543 368 543Q413 543 444 527.5Q475 512 494.5 486.5Q514 461 523 428Q532 395 532 359V0Z" glyph-name="ncommaaccent" horiz-adv-x="580" unicode="&#326;" /><glyph d="M297 428Q326 428 355 443Q384 458 401 488V520Q401 586 372.5 619.5Q344 653 302 653H296Q255 653 226.5 626.5Q198 600 198 549V530Q198 476 224.5 452Q251 428 292 428ZM77 129Q164 129 224.5 151Q285 173 327 224Q362 266 378 324Q354 307 323.5 297.5Q293 288 256 288Q207 288 166.5 305Q126 322 97.5 353.5Q69 385 53.5 430.5Q38 476 38 534V544Q38 660 103.5 726.5Q169 793 299 793Q362 793 411 772.5Q460 752 493.5 714.5Q527 677 544 624Q561 571 561 507V494Q561 401 537 309Q513 217 451 134Q419 91 378.5 62.5Q338 34 291 17.5Q244 1 190 -6Q136 -13 77 -13Z" glyph-name="nine" horiz-adv-x="600" unicode="9" /><glyph d="M152 47Q161 47 169 58V60Q169 83 163 91Q157 99 152 99H148Q143 99 137 92.5Q131 86 131 74V69Q131 58 137 52.5Q143 47 148 47ZM22 -109Q65 -109 94.5 -100Q124 -91 141 -74Q147 -68 151 -60.5Q155 -53 159 -43Q138 -56 114 -56Q68 -56 40 -24Q12 8 12 67V72Q12 99 20 123Q28 147 45 165Q62 183 88.5 193Q115 203 151 203Q187 203 213 190.5Q239 178 256 156.5Q273 135 281 106.5Q289 78 289 47V38Q289 -9 276.5 -53.5Q264 -98 232 -139Q197 -182 144.5 -197.5Q92 -213 22 -213Z" glyph-name="nine.inf" horiz-adv-x="300" unicode="&#58746;" /><glyph d="M948 143Q939 143 931 132V130Q931 107 937 99Q943 91 948 91H952Q957 91 963 97.5Q969 104 969 116V121Q969 132 963 137.5Q957 143 952 143ZM527 0V103H599V245L564 222L505 307L629 391H719V103H790V0ZM22 481Q65 481 94.5 490Q124 499 141 516Q152 527 158 547Q138 534 114 534Q68 534 40 566Q12 598 12 657V662Q12 689 20 713Q28 737 45 755Q62 773 88.5 783Q115 793 151 793Q187 793 213 780.5Q239 768 256 746.5Q273 725 281 696.5Q289 668 289 637V628Q289 581 276.5 536.5Q264 492 232 451Q197 408 144.5 392.5Q92 377 22 377ZM1078 299Q994 299 959 264Q949 254 941 233Q962 246 986 246Q1032 246 1060 214Q1088 182 1088 123V118Q1088 91 1080 67Q1072 43 1055 25Q1038 7 1011.5 -3Q985 -13 949 -13Q913 -13 887 -0.5Q861 12 844 33.5Q827 55 819 83.5Q811 112 811 143V152Q811 199 823.5 243.5Q836 288 868 329Q903 372 955.5 387.5Q1008 403 1078 403ZM45 0 621 780H755L179 0Z" glyph-name="ninesixteenths" horiz-adv-x="1100" unicode="&#61977;" /><glyph glyph-name="nonbreakingspace" horiz-adv-x="200" unicode="&#160;" /><glyph d="M42 569H347L407 673H517L457 569H558V428H376L333 352H558V211H252L193 107H83L142 211H42V352H223L266 428H42Z" glyph-name="notequal" horiz-adv-x="600" unicode="&#8800;" /><glyph d="M494 772Q494 730 485.5 700Q477 670 462 650.5Q447 631 426.5 622Q406 613 383 613Q359 613 337.5 621Q316 629 296.5 639Q277 649 260 657Q243 665 228 665Q214 665 205.5 656.5Q197 648 197 628H92Q92 712 124 749.5Q156 787 203 787Q227 787 248.5 779Q270 771 289.5 761Q309 751 326 743Q343 735 358 735Q372 735 380.5 743.5Q389 752 389 772ZM375 0V333Q375 347 371.5 360.5Q368 374 360 384.5Q352 395 338.5 401Q325 407 305 407Q286 407 271 402Q256 397 244.5 389.5Q233 382 224.5 373Q216 364 212 357V0H54V380L45 530H186L198 462Q223 497 264.5 520Q306 543 368 543Q413 543 444 527.5Q475 512 494.5 486.5Q514 461 523 428Q532 395 532 359V0Z" glyph-name="ntilde" horiz-adv-x="580" unicode="&#241;" /><glyph d="M249 331H330L351 449H270ZM67 587H157L193 780H331L295 587H376L412 780H549L513 587H577V449H488L467 331H533V193H442L407 0H269L304 193H223L188 0H51L86 193H23V331H111L132 449H67Z" glyph-name="numbersign" horiz-adv-x="600" unicode="#" /><glyph d="M851 570Q851 534 863.5 514.5Q876 495 904 495Q933 495 945.5 514.5Q958 534 958 570V600Q958 637 945.5 656.5Q933 676 904 676Q851 676 851 600ZM723 300H1086V181H723ZM1095 570Q1095 527 1083.5 491.5Q1072 456 1048.5 430.5Q1025 405 989 391Q953 377 904 377Q855 377 819 391Q783 405 760 430.5Q737 456 725.5 491.5Q714 527 714 570V600Q714 687 760 740.5Q806 794 904 794Q1002 794 1048.5 740.5Q1095 687 1095 600ZM627 0H456L204 484L209 327V0H56V780H227L478 296L473 453V780H627Z" glyph-name="numero" horiz-adv-x="1126" unicode="&#8470;" /><glyph d="M278 123Q326 123 347 155.5Q368 188 368 247V283Q368 342 347 374.5Q326 407 278 407Q231 407 209.5 374.5Q188 342 188 283V247Q188 188 209.5 155.5Q231 123 278 123ZM278 -13Q214 -13 167.5 6Q121 25 90.5 59.5Q60 94 45 142Q30 190 30 247V283Q30 340 45 388Q60 436 90.5 470.5Q121 505 167.5 524Q214 543 278 543Q342 543 389 524Q436 505 466.5 470.5Q497 436 511.5 388Q526 340 526 283V247Q526 190 511.5 142Q497 94 466.5 59.5Q436 25 389 6Q342 -13 278 -13Z" glyph-name="o" horiz-adv-x="556" unicode="o" /><glyph d="M463 780 356 596H200L291 780ZM278 123Q326 123 347 155.5Q368 188 368 247V283Q368 342 347 374.5Q326 407 278 407Q231 407 209.5 374.5Q188 342 188 283V247Q188 188 209.5 155.5Q231 123 278 123ZM278 -13Q214 -13 167.5 6Q121 25 90.5 59.5Q60 94 45 142Q30 190 30 247V283Q30 340 45 388Q60 436 90.5 470.5Q121 505 167.5 524Q214 543 278 543Q342 543 389 524Q436 505 466.5 470.5Q497 436 511.5 388Q526 340 526 283V247Q526 190 511.5 142Q497 94 466.5 59.5Q436 25 389 6Q342 -13 278 -13Z" glyph-name="oacute" horiz-adv-x="556" unicode="&#243;" /><glyph d="M278 123Q326 123 347 155.5Q368 188 368 247V283Q368 342 347 374.5Q326 407 278 407Q231 407 209.5 374.5Q188 342 188 283V247Q188 188 209.5 155.5Q231 123 278 123ZM278 582Q225 582 189 597Q153 612 131 638.5Q109 665 99.5 701Q90 737 91 780H204Q204 735 225 718.5Q246 702 278 702Q310 702 331 718.5Q352 735 352 780H465Q466 737 456.5 701Q447 665 425 638.5Q403 612 366.5 597Q330 582 278 582ZM278 -13Q214 -13 167.5 6Q121 25 90.5 59.5Q60 94 45 142Q30 190 30 247V283Q30 340 45 388Q60 436 90.5 470.5Q121 505 167.5 524Q214 543 278 543Q342 543 389 524Q436 505 466.5 470.5Q497 436 511.5 388Q526 340 526 283V247Q526 190 511.5 142Q497 94 466.5 59.5Q436 25 389 6Q342 -13 278 -13Z" glyph-name="obreve" horiz-adv-x="556" unicode="&#335;" /><glyph d="M278 123Q326 123 347 155.5Q368 188 368 247V283Q368 342 347 374.5Q326 407 278 407Q231 407 209.5 374.5Q188 342 188 283V247Q188 188 209.5 155.5Q231 123 278 123ZM68 596 202 780H354L488 596H350L278 678L206 596ZM278 -13Q214 -13 167.5 6Q121 25 90.5 59.5Q60 94 45 142Q30 190 30 247V283Q30 340 45 388Q60 436 90.5 470.5Q121 505 167.5 524Q214 543 278 543Q342 543 389 524Q436 505 466.5 470.5Q497 436 511.5 388Q526 340 526 283V247Q526 190 511.5 142Q497 94 466.5 59.5Q436 25 389 6Q342 -13 278 -13Z" glyph-name="ocircumflex" horiz-adv-x="556" unicode="&#244;" /><glyph d="M468 606H303V772H468ZM253 606H88V772H253ZM278 123Q326 123 347 155.5Q368 188 368 247V283Q368 342 347 374.5Q326 407 278 407Q231 407 209.5 374.5Q188 342 188 283V247Q188 188 209.5 155.5Q231 123 278 123ZM278 -13Q214 -13 167.5 6Q121 25 90.5 59.5Q60 94 45 142Q30 190 30 247V283Q30 340 45 388Q60 436 90.5 470.5Q121 505 167.5 524Q214 543 278 543Q342 543 389 524Q436 505 466.5 470.5Q497 436 511.5 388Q526 340 526 283V247Q526 190 511.5 142Q497 94 466.5 59.5Q436 25 389 6Q342 -13 278 -13Z" glyph-name="odieresis" horiz-adv-x="556" unicode="&#246;" /><glyph d="M616 423Q534 423 527 322H705Q698 423 616 423ZM188 247Q188 188 209.5 155.5Q231 123 278 123Q326 123 347 155.5Q368 188 368 247V283Q368 342 347 374.5Q326 407 278 407Q231 407 209.5 374.5Q188 342 188 283ZM526 208Q531 152 556 129.5Q581 107 626 107Q668 107 691.5 126.5Q715 146 715 170H864V166Q864 128 848 95.5Q832 63 801.5 39Q771 15 726.5 1Q682 -13 625 -13Q564 -13 521 6.5Q478 26 449 58Q422 26 380 6.5Q338 -13 278 -13Q214 -13 167.5 6Q121 25 90.5 59.5Q60 94 45 142Q30 190 30 247V283Q30 340 45 388Q60 436 90.5 470.5Q121 505 167.5 524Q214 543 278 543Q338 543 380 523Q422 503 449 471Q478 503 519.5 523Q561 543 619 543Q682 543 728 523.5Q774 504 804.5 468.5Q835 433 849.5 384.5Q864 336 864 279V208Z" glyph-name="oe" horiz-adv-x="894" unicode="&#339;" /><glyph d="M230 -69Q230 -85 241.5 -95Q253 -105 273 -105Q287 -105 298 -101.5Q309 -98 315 -94L351 -190Q335 -200 307 -207.5Q279 -215 248 -215Q187 -215 150 -188.5Q113 -162 113 -107Q113 -73 126.5 -45Q140 -17 161.5 4.5Q183 26 210 41.5Q237 57 265 66L292 0Q263 -13 246.5 -29.5Q230 -46 230 -69Z" glyph-name="ogonek" horiz-adv-x="602" unicode="&#731;" /><glyph d="M265 780 356 596H200L93 780ZM278 123Q326 123 347 155.5Q368 188 368 247V283Q368 342 347 374.5Q326 407 278 407Q231 407 209.5 374.5Q188 342 188 283V247Q188 188 209.5 155.5Q231 123 278 123ZM278 -13Q214 -13 167.5 6Q121 25 90.5 59.5Q60 94 45 142Q30 190 30 247V283Q30 340 45 388Q60 436 90.5 470.5Q121 505 167.5 524Q214 543 278 543Q342 543 389 524Q436 505 466.5 470.5Q497 436 511.5 388Q526 340 526 283V247Q526 190 511.5 142Q497 94 466.5 59.5Q436 25 389 6Q342 -13 278 -13Z" glyph-name="ograve" horiz-adv-x="556" unicode="&#242;" /><glyph d="M526 780 419 596H296L387 780ZM343 780 259 596H136L203 780ZM278 123Q326 123 347 155.5Q368 188 368 247V283Q368 342 347 374.5Q326 407 278 407Q231 407 209.5 374.5Q188 342 188 283V247Q188 188 209.5 155.5Q231 123 278 123ZM278 -13Q214 -13 167.5 6Q121 25 90.5 59.5Q60 94 45 142Q30 190 30 247V283Q30 340 45 388Q60 436 90.5 470.5Q121 505 167.5 524Q214 543 278 543Q342 543 389 524Q436 505 466.5 470.5Q497 436 511.5 388Q526 340 526 283V247Q526 190 511.5 142Q497 94 466.5 59.5Q436 25 389 6Q342 -13 278 -13Z" glyph-name="ohungarumlaut" horiz-adv-x="556" unicode="&#337;" /><glyph d="M128 757H428V619H128ZM278 123Q326 123 347 155.5Q368 188 368 247V283Q368 342 347 374.5Q326 407 278 407Q231 407 209.5 374.5Q188 342 188 283V247Q188 188 209.5 155.5Q231 123 278 123ZM278 -13Q214 -13 167.5 6Q121 25 90.5 59.5Q60 94 45 142Q30 190 30 247V283Q30 340 45 388Q60 436 90.5 470.5Q121 505 167.5 524Q214 543 278 543Q342 543 389 524Q436 505 466.5 470.5Q497 436 511.5 388Q526 340 526 283V247Q526 190 511.5 142Q497 94 466.5 59.5Q436 25 389 6Q342 -13 278 -13Z" glyph-name="omacron" horiz-adv-x="556" unicode="&#333;" /><glyph d="M59 0V140H230V583L107 500L28 616L271 781H390V140H561V0Z" glyph-name="one" horiz-adv-x="600" unicode="1" /><glyph d="M27 -200V-97H99V45L64 22L5 107L129 191H219V-97H290V-200Z" glyph-name="one.inf" horiz-adv-x="300" unicode="&#58738;" /><glyph d="M27 390V493H99V635L64 612L5 697L129 781H219V493H290V390ZM784 0H513V76L651 229Q664 244 664 261V272Q664 280 661 289.5Q658 299 650 299H647Q633 299 633 260H513V275Q513 295 519 317.5Q525 340 540 359Q555 378 581.5 390.5Q608 403 649 403Q690 403 716 391Q742 379 757 361Q772 343 778 323Q784 303 784 287V269Q784 237 773 216.5Q762 196 741 172L679 103H784ZM45 0 621 780H755L179 0Z" glyph-name="onehalf" horiz-adv-x="800" unicode="&#189;" /><glyph d="M606 172H637V229ZM27 390V493H99V635L64 612L5 697L129 781H219V493H290V390ZM637 0V68H510V160L636 390H757V172H789V68H757V0ZM45 0 621 780H755L179 0Z" glyph-name="onequarter" horiz-adv-x="800" unicode="&#188;" /><glyph d="M948 143Q939 143 931 132V130Q931 107 937 99Q943 91 948 91H952Q957 91 963 97.5Q969 104 969 116V121Q969 132 963 137.5Q957 143 952 143ZM27 390V493H99V635L64 612L5 697L129 781H219V493H290V390ZM527 0V103H599V245L564 222L505 307L629 391H719V103H790V0ZM1078 299Q994 299 959 264Q949 254 941 233Q962 246 986 246Q1032 246 1060 214Q1088 182 1088 123V118Q1088 91 1080 67Q1072 43 1055 25Q1038 7 1011.5 -3Q985 -13 949 -13Q913 -13 887 -0.5Q861 12 844 33.5Q827 55 819 83.5Q811 112 811 143V152Q811 199 823.5 243.5Q836 288 868 329Q903 372 955.5 387.5Q1008 403 1078 403ZM45 0 621 780H755L179 0Z" glyph-name="onesixteenth" horiz-adv-x="1100" unicode="&#61973;" /><glyph d="M27 390V493H99V635L64 612L5 697L129 781H219V493H290V390Z" glyph-name="onesuperior" horiz-adv-x="300" unicode="&#185;" /><glyph d="M40 281V419H293V281Z" glyph-name="onethirdemdash" horiz-adv-x="333" unicode="&#58481;" /><glyph d="M42 321V459H293V321Z" glyph-name="onethirdemdash.cap" horiz-adv-x="333" unicode="&#58499;" /><glyph d="M203 487Q220 487 234.5 494Q249 501 258 509V570L203 561Q183 558 174 548Q165 538 165 524V520Q165 507 173 497Q181 487 203 487ZM39 181V300H401V181ZM271 427Q251 404 221.5 390.5Q192 377 152 377Q117 377 93 387Q69 397 54.5 414Q40 431 34 453Q28 475 28 499V506Q28 538 38.5 560.5Q49 583 68 598Q87 613 114 621.5Q141 630 174 635L258 648Q256 669 247 679.5Q238 690 215 690Q190 690 181.5 678Q173 666 173 652H43V659Q43 686 51.5 710.5Q60 735 80.5 753Q101 771 134.5 782Q168 793 219 793Q270 793 304 783Q338 773 358.5 753.5Q379 734 387.5 706Q396 678 396 641V499L403 387H279Z" glyph-name="ordfeminine" horiz-adv-x="429" unicode="&#170;" /><glyph d="M168 570Q168 534 180.5 514.5Q193 495 221 495Q250 495 262.5 514.5Q275 534 275 570V600Q275 637 262.5 656.5Q250 676 221 676Q168 676 168 600ZM40 300H403V181H40ZM412 570Q412 527 400.5 491.5Q389 456 365.5 430.5Q342 405 306 391Q270 377 221 377Q172 377 136 391Q100 405 77 430.5Q54 456 42.5 491.5Q31 527 31 570V600Q31 687 77 740.5Q123 794 221 794Q319 794 365.5 740.5Q412 687 412 600Z" glyph-name="ordmasculine" horiz-adv-x="443" unicode="&#186;" /><glyph d="M188 247Q188 225 191 206L333 389Q312 407 278 407Q231 407 209.5 374.5Q188 342 188 283ZM368 283Q368 306 365 324L222 142Q242 123 278 123Q326 123 347 155.5Q368 188 368 247ZM473 462Q500 427 513 382Q526 337 526 283V247Q526 190 511.5 142Q497 94 466.5 59.5Q436 25 389 6Q342 -13 278 -13Q188 -13 130 25L111 0H30L83 68Q56 102 43 147.5Q30 193 30 247V283Q30 340 45 388Q60 436 90.5 470.5Q121 505 167.5 524Q214 543 278 543Q323 543 359.5 533Q396 523 425 505L444 530H526Z" glyph-name="oslash" horiz-adv-x="556" unicode="&#248;" /><glyph d="M278 123Q326 123 347 155.5Q368 188 368 247V283Q368 342 347 374.5Q326 407 278 407Q231 407 209.5 374.5Q188 342 188 283V247Q188 188 209.5 155.5Q231 123 278 123ZM479 772Q479 730 470.5 700Q462 670 447 650.5Q432 631 411.5 622Q391 613 368 613Q344 613 322.5 621Q301 629 281.5 639Q262 649 245 657Q228 665 213 665Q199 665 190.5 656.5Q182 648 182 628H77Q77 712 109 749.5Q141 787 188 787Q212 787 233.5 779Q255 771 274.5 761Q294 751 311 743Q328 735 343 735Q357 735 365.5 743.5Q374 752 374 772ZM278 -13Q214 -13 167.5 6Q121 25 90.5 59.5Q60 94 45 142Q30 190 30 247V283Q30 340 45 388Q60 436 90.5 470.5Q121 505 167.5 524Q214 543 278 543Q342 543 389 524Q436 505 466.5 470.5Q497 436 511.5 388Q526 340 526 283V247Q526 190 511.5 142Q497 94 466.5 59.5Q436 25 389 6Q342 -13 278 -13Z" glyph-name="otilde" horiz-adv-x="556" unicode="&#245;" /><glyph d="M301 407Q283 407 268.5 402Q254 397 243 389.5Q232 382 224 373Q216 364 211 357V173Q216 166 224 157Q232 148 243 140.5Q254 133 268.5 128Q283 123 301 123Q347 123 366.5 155.5Q386 188 386 247V283Q386 342 366.5 374.5Q347 407 301 407ZM347 -13Q299 -13 266.5 3Q234 19 211 45V-200H53V380L44 530H185L196 465Q219 499 255 521Q291 543 347 543Q401 543 439 524Q477 505 500 470.5Q523 436 533.5 388Q544 340 544 283V247Q544 190 533.5 142Q523 94 500 59.5Q477 25 439 6Q401 -13 347 -13Z" glyph-name="p" horiz-adv-x="574" unicode="p" /><glyph d="M333 280H296Q248 280 200 288Q152 296 113 321.5Q74 347 49.5 394.5Q25 442 25 520V540Q25 618 49.5 665Q74 712 113 737.5Q152 763 200 771.5Q248 780 296 780H495V0H333Z" glyph-name="paragraph" horiz-adv-x="549" unicode="&#182;" /><glyph d="M39 370Q39 456 50 524Q61 592 80.5 647.5Q100 703 126 749.5Q152 796 182 840H346Q315 793 288 742Q261 691 240.5 634Q220 577 208.5 511.5Q197 446 197 370V350Q197 273 208.5 208Q220 143 240.5 86Q261 29 288 -22Q315 -73 346 -120H182Q152 -77 126 -30Q100 17 80.5 72.5Q61 128 50 196Q39 264 39 350Z" glyph-name="parenleft" horiz-adv-x="365" unicode="(" /><glyph d="M45 400Q45 465 54.5 521.5Q64 578 80 625.5Q96 673 118 711.5Q140 750 164 780H328Q306 748 284 707.5Q262 667 244 618.5Q226 570 214.5 515Q203 460 203 400V380Q203 320 214.5 265Q226 210 244 161.5Q262 113 284 72Q306 31 328 0H164Q140 30 118 68.5Q96 107 80 154.5Q64 202 54.5 258.5Q45 315 45 380Z" glyph-name="parenleft.cap" horiz-adv-x="365" unicode="&#58513;" /><glyph d="M15 0Q15 72 33 118.5Q51 165 74 190H197Q188 176 177 157Q166 138 156.5 114Q147 90 140.5 61Q134 32 134 0V-10Q134 -42 140.5 -71Q147 -100 156.5 -124Q166 -148 177 -167.5Q188 -187 197 -200H74Q51 -176 33 -129.5Q15 -83 15 -10Z" glyph-name="parenleft.inf" horiz-adv-x="205" unicode="&#58750;" /><glyph d="M326 350Q326 264 315 196Q304 128 285 72.5Q266 17 239.5 -30Q213 -77 183 -120H19Q50 -73 77 -22Q104 29 124.5 86Q145 143 156.5 208Q168 273 168 350V370Q168 446 156.5 511.5Q145 577 124.5 634Q104 691 77 742Q50 793 19 840H183Q213 796 239.5 749.5Q266 703 285 647.5Q304 592 315 524Q326 456 326 370Z" glyph-name="parenright" horiz-adv-x="365" unicode=")" /><glyph d="M320 380Q320 315 310.5 258.5Q301 202 285 154.5Q269 107 247 68.5Q225 30 201 0H37Q59 31 81 72Q103 113 121 161.5Q139 210 150.5 265Q162 320 162 380V400Q162 460 150.5 515Q139 570 121 618.5Q103 667 81 707.5Q59 748 37 780H201Q225 750 247 711.5Q269 673 285 625.5Q301 578 310.5 521.5Q320 465 320 400Z" glyph-name="parenright.cap" horiz-adv-x="365" unicode="&#58514;" /><glyph d="M189 -10Q189 -83 171 -129.5Q153 -176 130 -200H8Q17 -187 28 -167.5Q39 -148 48.5 -124Q58 -100 64 -71Q70 -42 70 -10V0Q70 32 64 61Q58 90 48.5 114Q39 138 28 157Q17 176 8 190H130Q153 165 171 118.5Q189 72 189 0Z" glyph-name="parenright.inf" horiz-adv-x="205" unicode="&#58751;" /><glyph d="M381 606H215V772H381ZM211 173Q216 166 224 157Q232 148 243 140.5Q254 133 268.5 128Q283 123 301 123Q347 123 366.5 155.5Q386 188 386 247V283Q386 342 366.5 374.5Q347 407 301 407Q283 407 268.5 402Q254 397 243 389.5Q232 382 224 373Q216 364 211 357ZM347 -13Q299 -13 266.5 3Q234 19 211 45V-200H53V380L44 530H185L196 465Q219 499 255 521Q291 543 347 543Q401 543 439 524Q477 505 500 470.5Q523 436 533.5 388Q544 340 544 283V247Q544 190 533.5 142Q523 94 500 59.5Q477 25 439 6Q401 -13 347 -13Z" glyph-name="pdotaccent" horiz-adv-x="574" unicode="&#7767;" /><glyph d="M289 605Q289 637 270.5 656.5Q252 676 220 676H214Q182 676 163 656.5Q144 637 144 605V592Q144 560 163 541Q182 522 214 522H220Q252 522 270.5 541Q289 560 289 592ZM692 175Q692 143 711 123.5Q730 104 762 104H768Q800 104 818.5 123.5Q837 143 837 175V188Q837 220 818.5 239Q800 258 768 258H762Q730 258 711 239Q692 220 692 188ZM575 187Q575 233 589 268Q603 303 628.5 327Q654 351 689 363.5Q724 376 765 376Q806 376 840.5 363.5Q875 351 900.5 327Q926 303 940 268Q954 233 954 187V175Q954 129 940 94Q926 59 900.5 35Q875 11 840.5 -1Q806 -13 765 -13Q724 -13 689 -1Q654 11 628.5 35Q603 59 589 94Q575 129 575 175ZM296 779Q317 771 337 765.5Q357 760 378.5 757Q400 754 424.5 752.5Q449 751 481 751Q514 751 546.5 754.5Q579 758 607.5 763Q636 768 658 773.5Q680 779 692 783V708L397 0H259L523 633Q512 631 494 628Q476 625 452 625Q427 625 405 628Q405 623 405.5 617Q406 611 406 605V593Q406 547 392 512Q378 477 352.5 453Q327 429 292.5 416.5Q258 404 217 404Q176 404 141 416.5Q106 429 80.5 453Q55 477 41 512Q27 547 27 593V605Q27 651 41 686Q55 721 80.5 745Q106 769 141 781Q176 793 217 793Q259 793 296 779Z" glyph-name="percent" horiz-adv-x="981" unicode="%" /><glyph d="M216 0H50V167H216Z" glyph-name="period" horiz-adv-x="266" unicode="." /><glyph d="M233 0H67V167H233Z" glyph-name="period.T" horiz-adv-x="300" unicode="&#61826;" /><glyph d="M216 267H50V434H216Z" glyph-name="periodcentered" horiz-adv-x="266" unicode="&#183;" /><glyph d="M216 307H50V474H216Z" glyph-name="periodcentered.cap" horiz-adv-x="266" unicode="&#58497;" /><glyph d="M296 779Q317 771 337 765.5Q357 760 378.5 757Q400 754 424.5 752.5Q449 751 481 751Q514 751 546.5 754.5Q579 758 607.5 763Q636 768 658 773.5Q680 779 692 783V708L397 0H259L523 633Q512 631 494 628Q476 625 452 625Q427 625 405 628Q405 623 405.5 617Q406 611 406 605V593Q406 547 392 512Q378 477 352.5 453Q327 429 292.5 416.5Q258 404 217 404Q176 404 141 416.5Q106 429 80.5 453Q55 477 41 512Q27 547 27 593V605Q27 651 41 686Q55 721 80.5 745Q106 769 141 781Q176 793 217 793Q259 793 296 779ZM289 605Q289 637 270.5 656.5Q252 676 220 676H214Q182 676 163 656.5Q144 637 144 605V592Q144 560 163 541Q182 522 214 522H220Q252 522 270.5 541Q289 560 289 592ZM1112 175Q1112 143 1131 123.5Q1150 104 1182 104H1188Q1220 104 1238.5 123.5Q1257 143 1257 175V188Q1257 220 1238.5 239Q1220 258 1188 258H1182Q1150 258 1131 239Q1112 220 1112 188ZM692 175Q692 143 711 123.5Q730 104 762 104H768Q800 104 818.5 123.5Q837 143 837 175V188Q837 220 818.5 239Q800 258 768 258H762Q730 258 711 239Q692 220 692 188ZM995 187Q995 233 1009 268Q1023 303 1048.5 327Q1074 351 1109 363.5Q1144 376 1185 376Q1226 376 1260.5 363.5Q1295 351 1320.5 327Q1346 303 1360 268Q1374 233 1374 187V175Q1374 129 1360 94Q1346 59 1320.5 35Q1295 11 1260.5 -1Q1226 -13 1185 -13Q1144 -13 1109 -1Q1074 11 1048.5 35Q1023 59 1009 94Q995 129 995 175ZM575 187Q575 233 589 268Q603 303 628.5 327Q654 351 689 363.5Q724 376 765 376Q806 376 840.5 363.5Q875 351 900.5 327Q926 303 940 268Q954 233 954 187V175Q954 129 940 94Q926 59 900.5 35Q875 11 840.5 -1Q806 -13 765 -13Q724 -13 689 -1Q654 11 628.5 35Q603 59 589 94Q575 129 575 175Z" glyph-name="perthousand" horiz-adv-x="1401" unicode="&#8240;" /><glyph d="M370 648V460H558V320H370V132H230V320H42V460H230V648Z" glyph-name="plus" horiz-adv-x="600" unicode="+" /><glyph d="M202 127V47H282V-57H202V-137H98V-57H18V47H98V127Z" glyph-name="plus.inf" horiz-adv-x="300" unicode="&#58747;" /><glyph d="M42 277H558V136H42ZM370 673V565H558V424H370V316H230V424H42V565H230V673Z" glyph-name="plusminus" horiz-adv-x="600" unicode="&#177;" /><glyph d="M485 411Q495 411 504.5 413Q514 415 521.5 421Q529 427 534 437Q539 447 539 463V469Q539 485 534 495Q529 505 521.5 511Q514 517 504.5 519Q495 521 485 521H414V411ZM414 155H274V625H517Q546 625 575 618.5Q604 612 627.5 595Q651 578 666 548.5Q681 519 681 472V460Q681 413 666 383.5Q651 354 627.5 337Q604 320 575 313.5Q546 307 517 307H414ZM113 390Q113 318 140 255Q167 192 214.5 144.5Q262 97 325 70Q388 43 460 43Q532 43 595 70Q658 97 705.5 144.5Q753 192 780 255Q807 318 807 390Q807 462 780 525Q753 588 705.5 635.5Q658 683 595 710Q532 737 460 737Q388 737 325 710Q262 683 214.5 635.5Q167 588 140 525Q113 462 113 390ZM57 390Q57 474 88.5 547Q120 620 175 675Q230 730 303 761.5Q376 793 460 793Q544 793 617 761.5Q690 730 745 675Q800 620 831.5 547Q863 474 863 390Q863 306 831.5 233Q800 160 745 105Q690 50 617 18.5Q544 -13 460 -13Q376 -13 303 18.5Q230 50 175 105Q120 160 88.5 233Q57 306 57 390Z" glyph-name="published" horiz-adv-x="920" unicode="&#8471;" /><glyph glyph-name="punctuationspace" horiz-adv-x="180" unicode="&#8200;" /><glyph d="M366 357Q361 364 353 373Q345 382 333.5 389.5Q322 397 308 402Q294 407 276 407Q229 407 209.5 374.5Q190 342 190 283V247Q190 188 209.5 155.5Q229 123 276 123Q294 123 308 128Q322 133 333.5 140.5Q345 148 353 157Q361 166 366 173ZM366 45Q343 19 310 3Q277 -13 230 -13Q176 -13 138 6Q100 25 77 59.5Q54 94 43.5 142Q33 190 33 247V283Q33 340 43.5 388Q54 436 77 470.5Q100 505 138 524Q176 543 230 543Q285 543 321 521.5Q357 500 380 466L391 530H533L524 380V-200H366Z" glyph-name="q" horiz-adv-x="581" unicode="q" /><glyph d="M328 0H162V167H328ZM253 654Q211 654 195.5 622Q180 590 180 516H21V534Q21 597 33 645Q45 693 72 726Q99 759 143.5 776Q188 793 253 793Q319 793 362.5 775.5Q406 758 432 730Q458 702 468.5 665.5Q479 629 479 592Q479 542 466.5 508.5Q454 475 435.5 450.5Q417 426 395 405.5Q373 385 353 361.5Q333 338 318 306.5Q303 275 300 228H189Q185 275 193.5 313.5Q202 352 216.5 383.5Q231 415 249 441Q267 467 283 490.5Q299 514 309.5 535.5Q320 557 320 579Q320 614 305.5 634Q291 654 253 654Z" glyph-name="question" horiz-adv-x="497" unicode="?" /><glyph d="M169 530H335V363H169ZM244 -74Q286 -74 301.5 -43Q317 -12 317 60H475V43Q475 -19 463 -67Q451 -115 424 -147.5Q397 -180 353 -196.5Q309 -213 244 -213Q179 -213 135.5 -196.5Q92 -180 66 -154Q40 -128 29 -94.5Q18 -61 18 -26Q18 22 30.5 54.5Q43 87 61.5 111Q80 135 102.5 153.5Q125 172 145 192.5Q165 213 179.5 238.5Q194 264 197 302H308Q311 264 302.5 231.5Q294 199 279.5 171Q265 143 247 118Q229 93 213.5 71Q198 49 187.5 28Q177 7 177 -13Q177 -42 192.5 -58Q208 -74 244 -74Z" glyph-name="questiondown" horiz-adv-x="497" unicode="&#191;" /><glyph d="M169 780H335V613H169ZM244 126Q286 126 301.5 158Q317 190 317 264H476V246Q476 183 464 135Q452 87 425 54Q398 21 353.5 4Q309 -13 244 -13Q178 -13 134.5 4.5Q91 22 65 50Q39 78 28.5 114Q18 150 18 188Q18 238 30.5 271.5Q43 305 61.5 329.5Q80 354 102 374.5Q124 395 144 418.5Q164 442 179 473.5Q194 505 197 552H308Q311 505 303 466.5Q295 428 280.5 396.5Q266 365 248 339Q230 313 214 289.5Q198 266 187.5 244.5Q177 223 177 201Q177 166 191.5 146Q206 126 244 126Z" glyph-name="questiondown.cap" horiz-adv-x="497" unicode="&#58436;" /><glyph d="M399 780 375 457H253L245 780ZM202 780 193 457H72L47 780Z" glyph-name="quotedbl" horiz-adv-x="446" unicode="&quot;" /><glyph d="M436 35Q436 -143 265 -143V-64Q339 -64 354 0H270V167H436ZM216 35Q216 -143 45 -143V-64Q119 -64 134 0H50V167H216Z" glyph-name="quotedblbase" horiz-adv-x="486" unicode="&#8222;" /><glyph d="M270 628Q270 806 441 806V727Q366 727 351 663H436V496H270ZM50 628Q50 806 221 806V727Q146 727 131 663H216V496H50Z" glyph-name="quotedblleft" horiz-adv-x="486" unicode="&#8220;" /><glyph d="M436 648Q436 470 265 470V549Q339 549 354 613H270V780H436ZM216 648Q216 470 45 470V549Q119 549 134 613H50V780H216Z" glyph-name="quotedblright" horiz-adv-x="486" unicode="&#8221;" /><glyph d="M50 628Q50 806 221 806V727Q146 727 131 663H216V496H50Z" glyph-name="quoteleft" horiz-adv-x="266" unicode="&#8216;" /><glyph d="M216 648Q216 470 45 470V549Q119 549 134 613H50V780H216Z" glyph-name="quoteright" horiz-adv-x="266" unicode="&#8217;" /><glyph d="M216 35Q216 -143 45 -143V-64Q119 -64 134 0H50V167H216Z" glyph-name="quotesinglbase" horiz-adv-x="266" unicode="&#8218;" /><glyph d="M218 780 193 457H72L47 780Z" glyph-name="quotesingle" horiz-adv-x="265" unicode="&apos;" /><glyph d="M338 543Q342 543 346 543Q350 543 353 542V390H326Q278 390 250.5 374.5Q223 359 212 344V0H54V380L45 530H186L197 468Q220 501 255.5 522Q291 543 338 543Z" glyph-name="r" horiz-adv-x="385" unicode="r" /><glyph d="M388 780 281 596H125L216 780ZM338 543Q342 543 346 543Q350 543 353 542V390H326Q278 390 250.5 374.5Q223 359 212 344V0H54V380L45 530H186L197 468Q220 501 255.5 522Q291 543 338 543Z" glyph-name="racute" horiz-adv-x="385" unicode="&#341;" /><glyph d="M131 780 203 697 275 780H413L279 596H127L-7 780ZM338 543Q342 543 346 543Q350 543 353 542V390H326Q278 390 250.5 374.5Q223 359 212 344V0H54V380L45 530H186L197 468Q220 501 255.5 522Q291 543 338 543Z" glyph-name="rcaron" horiz-adv-x="385" unicode="&#345;" /><glyph d="M204 -101Q204 -168 168 -197Q132 -226 57 -226V-172Q89 -172 110 -164Q131 -156 141 -136H62V-44H204ZM338 543Q342 543 346 543Q350 543 353 542V390H326Q278 390 250.5 374.5Q223 359 212 344V0H54V380L45 530H186L197 468Q220 501 255.5 522Q291 543 338 543Z" glyph-name="rcommaaccent" horiz-adv-x="385" unicode="&#343;" /><glyph d="M186 693Q186 703 181 706.5Q176 710 168 710H144V673H168Q176 673 181 676.5Q186 680 186 690ZM241 689Q241 668 233 655.5Q225 643 213 638L241 579H184L163 632H144V579H89V751H180Q203 751 222 739.5Q241 728 241 694ZM41 665Q41 639 50.5 616.5Q60 594 77 577Q94 560 116.5 550.5Q139 541 165 541Q191 541 213.5 550.5Q236 560 253 577Q270 594 279.5 616.5Q289 639 289 665Q289 691 279.5 713.5Q270 736 253 753Q236 770 213.5 779.5Q191 789 165 789Q139 789 116.5 779.5Q94 770 77 753Q60 736 50.5 713.5Q41 691 41 665ZM17 665Q17 696 28.5 723Q40 750 60 770Q80 790 107 801.5Q134 813 165 813Q196 813 223 801.5Q250 790 270 770Q290 750 301.5 723Q313 696 313 665Q313 634 301.5 607Q290 580 270 560Q250 540 223 528.5Q196 517 165 517Q134 517 107 528.5Q80 540 60 560Q40 580 28.5 607Q17 634 17 665Z" glyph-name="registered" horiz-adv-x="330" unicode="&#174;" /><glyph d="M469 411Q479 411 488.5 413Q498 415 505.5 421Q513 427 518 437Q523 447 523 463V469Q523 485 518 495Q513 505 505.5 511Q498 517 488.5 519Q479 521 469 521H398V411ZM398 155H257V625H500Q529 625 558.5 618.5Q588 612 611.5 595Q635 578 649.5 548.5Q664 519 664 472V460Q664 405 644.5 373.5Q625 342 595 327L664 155H516L468 307H398ZM113 390Q113 318 140 255Q167 192 214.5 144.5Q262 97 325 70Q388 43 460 43Q532 43 595 70Q658 97 705.5 144.5Q753 192 780 255Q807 318 807 390Q807 462 780 525Q753 588 705.5 635.5Q658 683 595 710Q532 737 460 737Q388 737 325 710Q262 683 214.5 635.5Q167 588 140 525Q113 462 113 390ZM57 390Q57 474 88.5 547Q120 620 175 675Q230 730 303 761.5Q376 793 460 793Q544 793 617 761.5Q690 730 745 675Q800 620 831.5 547Q863 474 863 390Q863 306 831.5 233Q800 160 745 105Q690 50 617 18.5Q544 -13 460 -13Q376 -13 303 18.5Q230 50 175 105Q120 160 88.5 233Q57 306 57 390Z" glyph-name="registered.cap" horiz-adv-x="920" unicode="&#59804;" /><glyph d="M436 780V613H351Q366 549 441 549V470Q270 470 270 648V780ZM216 780V613H131Q146 549 221 549V470Q50 470 50 648V780Z" glyph-name="reversequotedblleft" horiz-adv-x="486" unicode="&#8223;" /><glyph d="M216 780V613H131Q146 549 221 549V470Q50 470 50 648V780Z" glyph-name="reversequoteleft" horiz-adv-x="266" unicode="&#8219;" /><glyph d="M199 688Q199 667 214 652Q229 637 250 637Q271 637 286 652Q301 667 301 688Q301 709 286 723.5Q271 738 250 738Q229 738 214 723.5Q199 709 199 688ZM145 688Q145 710 153 729Q161 748 175.5 762Q190 776 209 784.5Q228 793 250 793Q272 793 291 784.5Q310 776 324 762Q338 748 346.5 729Q355 710 355 688Q355 666 346.5 647Q338 628 324 613.5Q310 599 291 590.5Q272 582 250 582Q228 582 209 590.5Q190 599 175.5 613.5Q161 628 153 647Q145 666 145 688Z" glyph-name="ring" horiz-adv-x="500" unicode="&#730;" /><glyph d="M199 858Q199 837 214 822Q229 807 250 807Q271 807 286 822Q301 837 301 858Q301 879 286 893.5Q271 908 250 908Q229 908 214 893.5Q199 879 199 858ZM145 858Q145 880 153 899Q161 918 175.5 932Q190 946 209 954.5Q228 963 250 963Q272 963 291 954.5Q310 946 324 932Q338 918 346.5 899Q355 880 355 858Q355 836 346.5 817Q338 798 324 783.5Q310 769 291 760.5Q272 752 250 752Q228 752 209 760.5Q190 769 175.5 783.5Q161 798 153 817Q145 836 145 858Z" glyph-name="ring.cap" horiz-adv-x="500" unicode="&#58410;" /><glyph d="M302 420Q318 420 336 424Q354 428 368.5 439.5Q383 451 392.5 471.5Q402 492 402 525V535Q402 568 392.5 588.5Q383 609 368.5 620.5Q354 632 336 636Q318 640 302 640H249V420ZM249 242H436V101H249V0H87V101H17V242H87V280H17V420H87V780H295Q343 780 391 771.5Q439 763 478 737.5Q517 712 541.5 665Q566 618 566 540V520Q566 442 541.5 394.5Q517 347 478 321.5Q439 296 391 288Q343 280 295 280H249Z" glyph-name="ruble" horiz-adv-x="600" unicode="&#8381;" /><glyph d="M264 107Q302 107 318.5 121.5Q335 136 335 159Q335 184 319 196Q303 208 256 212Q200 216 159 226Q118 236 92 253.5Q66 271 53.5 297Q41 323 41 361V370Q41 416 58 448.5Q75 481 105 502Q135 523 176 533Q217 543 264 543Q381 543 434 494.5Q487 446 487 361V356H332Q332 388 316 405.5Q300 423 264 423Q231 423 214 410Q197 397 197 375Q197 351 212 339.5Q227 328 273 324Q323 320 363.5 311.5Q404 303 433 286.5Q462 270 478 243Q494 216 494 174V165Q494 82 436.5 34.5Q379 -13 264 -13Q206 -13 163 0Q120 13 91.5 36.5Q63 60 49 92Q35 124 35 163V168H192Q192 142 208 124.5Q224 107 264 107Z" glyph-name="s" horiz-adv-x="528" unicode="s" /><glyph d="M449 780 342 596H186L277 780ZM264 107Q302 107 318.5 121.5Q335 136 335 159Q335 184 319 196Q303 208 256 212Q200 216 159 226Q118 236 92 253.5Q66 271 53.5 297Q41 323 41 361V370Q41 416 58 448.5Q75 481 105 502Q135 523 176 533Q217 543 264 543Q381 543 434 494.5Q487 446 487 361V356H332Q332 388 316 405.5Q300 423 264 423Q231 423 214 410Q197 397 197 375Q197 351 212 339.5Q227 328 273 324Q323 320 363.5 311.5Q404 303 433 286.5Q462 270 478 243Q494 216 494 174V165Q494 82 436.5 34.5Q379 -13 264 -13Q206 -13 163 0Q120 13 91.5 36.5Q63 60 49 92Q35 124 35 163V168H192Q192 142 208 124.5Q224 107 264 107Z" glyph-name="sacute" horiz-adv-x="528" unicode="&#347;" /><glyph d="M192 780 264 697 336 780H474L340 596H188L54 780ZM264 107Q302 107 318.5 121.5Q335 136 335 159Q335 184 319 196Q303 208 256 212Q200 216 159 226Q118 236 92 253.5Q66 271 53.5 297Q41 323 41 361V370Q41 416 58 448.5Q75 481 105 502Q135 523 176 533Q217 543 264 543Q381 543 434 494.5Q487 446 487 361V356H332Q332 388 316 405.5Q300 423 264 423Q231 423 214 410Q197 397 197 375Q197 351 212 339.5Q227 328 273 324Q323 320 363.5 311.5Q404 303 433 286.5Q462 270 478 243Q494 216 494 174V165Q494 82 436.5 34.5Q379 -13 264 -13Q206 -13 163 0Q120 13 91.5 36.5Q63 60 49 92Q35 124 35 163V168H192Q192 142 208 124.5Q224 107 264 107Z" glyph-name="scaron" horiz-adv-x="528" unicode="&#353;" /><glyph d="M181 -124Q193 -132 213 -136.5Q233 -141 253 -141Q279 -141 289.5 -135Q300 -129 300 -118Q300 -95 252 -95Q245 -95 238 -96Q231 -97 226 -98Q220 -99 214 -100L199 -72L223 -11Q128 -3 81.5 44.5Q35 92 35 163V168H192Q192 142 208 124.5Q224 107 264 107Q302 107 318.5 121.5Q335 136 335 159Q335 184 319 196Q303 208 256 212Q200 216 159 226Q118 236 92 253.5Q66 271 53.5 297Q41 323 41 361V370Q41 416 58 448.5Q75 481 105 502Q135 523 176 533Q217 543 264 543Q381 543 434 494.5Q487 446 487 361V356H332Q332 388 316 405.5Q300 423 264 423Q231 423 214 410Q197 397 197 375Q197 351 212 339.5Q227 328 273 324Q323 320 363.5 311.5Q404 303 433 286.5Q462 270 478 243Q494 216 494 174V165Q494 88 444.5 41.5Q395 -5 295 -12L285 -40Q327 -43 356 -64Q385 -85 385 -127Q385 -215 265 -215Q228 -215 200 -207Q172 -199 158 -190Z" glyph-name="scedilla" horiz-adv-x="528" unicode="&#351;" /><glyph d="M54 596 188 780H340L474 596H336L264 678L192 596ZM264 107Q302 107 318.5 121.5Q335 136 335 159Q335 184 319 196Q303 208 256 212Q200 216 159 226Q118 236 92 253.5Q66 271 53.5 297Q41 323 41 361V370Q41 416 58 448.5Q75 481 105 502Q135 523 176 533Q217 543 264 543Q381 543 434 494.5Q487 446 487 361V356H332Q332 388 316 405.5Q300 423 264 423Q231 423 214 410Q197 397 197 375Q197 351 212 339.5Q227 328 273 324Q323 320 363.5 311.5Q404 303 433 286.5Q462 270 478 243Q494 216 494 174V165Q494 82 436.5 34.5Q379 -13 264 -13Q206 -13 163 0Q120 13 91.5 36.5Q63 60 49 92Q35 124 35 163V168H192Q192 142 208 124.5Q224 107 264 107Z" glyph-name="scircumflex" horiz-adv-x="528" unicode="&#349;" /><glyph d="M335 -101Q335 -168 299 -197Q263 -226 188 -226V-172Q220 -172 241 -164Q262 -156 272 -136H193V-44H335ZM264 107Q302 107 318.5 121.5Q335 136 335 159Q335 184 319 196Q303 208 256 212Q200 216 159 226Q118 236 92 253.5Q66 271 53.5 297Q41 323 41 361V370Q41 416 58 448.5Q75 481 105 502Q135 523 176 533Q217 543 264 543Q381 543 434 494.5Q487 446 487 361V356H332Q332 388 316 405.5Q300 423 264 423Q231 423 214 410Q197 397 197 375Q197 351 212 339.5Q227 328 273 324Q323 320 363.5 311.5Q404 303 433 286.5Q462 270 478 243Q494 216 494 174V165Q494 82 436.5 34.5Q379 -13 264 -13Q206 -13 163 0Q120 13 91.5 36.5Q63 60 49 92Q35 124 35 163V168H192Q192 142 208 124.5Q224 107 264 107Z" glyph-name="scommaaccent" horiz-adv-x="528" unicode="&#537;" /><glyph d="M264 455Q224 453 206.5 434.5Q189 416 189 390Q189 360 208.5 343.5Q228 327 275 325H284Q324 327 342 345.5Q360 364 360 390Q360 420 340.5 436.5Q321 453 273 455ZM518 393Q518 307 448 267Q483 229 483 169V160Q483 114 466 81.5Q449 49 419 28Q389 7 348 -3Q307 -13 260 -13Q144 -13 91 35Q38 83 38 169V174H192Q192 142 208 124Q224 106 260 106Q293 106 310.5 119Q328 132 328 155Q328 179 312.5 194.5Q297 210 251 215Q201 219 160.5 228.5Q120 238 91 256Q62 274 46.5 303.5Q31 333 31 378V387Q31 472 100 512Q66 549 66 611V620Q66 666 83 698.5Q100 731 130 752Q160 773 200.5 783Q241 793 288 793Q405 793 458 744.5Q511 696 511 611V606H357Q357 638 341 656Q325 674 288 674Q255 674 237.5 661Q220 648 220 625Q220 601 235.5 585.5Q251 570 298 565Q348 561 388.5 551.5Q429 542 458 524Q487 506 502.5 476.5Q518 447 518 402Z" glyph-name="section" horiz-adv-x="549" unicode="&#167;" /><glyph d="M216 307H50V474H216ZM216 35Q216 -143 45 -143V-64Q119 -64 134 0H50V167H216Z" glyph-name="semicolon" horiz-adv-x="266" unicode=";" /><glyph d="M233 307H67V474H233ZM233 35Q233 -143 62 -143V-64Q136 -64 151 0H67V167H233Z" glyph-name="semicolon.T" horiz-adv-x="300" unicode="&#61829;" /><glyph d="M413 530H345L304 691L306 631V530H242V800H337L379 641L420 800H516V530H452V631L454 691ZM103 638Q58 644 36.5 661.5Q15 679 15 720V724Q15 762 39.5 785.5Q64 809 114 809Q166 809 189.5 784.5Q213 760 213 709V702H150Q150 728 142 740Q134 752 114 752H110Q96 752 88 745Q80 738 80 727V725Q80 711 90 704Q100 697 125 693Q170 687 192.5 669.5Q215 652 215 611V606Q215 566 189.5 543Q164 520 114 520Q13 520 13 621V623H76Q76 576 114 576H117Q134 576 141.5 584.5Q149 593 149 604V606Q149 620 139.5 627Q130 634 103 638Z" glyph-name="servicemark" horiz-adv-x="559" unicode="&#8480;" /><glyph d="M36 780H566V681L289 0H118L387 642L292 640H177V500H36Z" glyph-name="seven" horiz-adv-x="600" unicode="7" /><glyph d="M8 190H292V116L164 -200H36L160 86H112V50H8Z" glyph-name="seven.inf" horiz-adv-x="300" unicode="&#58744;" /><glyph d="M948 143Q939 143 931 132V130Q931 107 937 99Q943 91 948 91H952Q957 91 963 97.5Q969 104 969 116V121Q969 132 963 137.5Q957 143 952 143ZM8 780H292V706L164 390H36L160 676H112V640H8ZM527 0V103H599V245L564 222L505 307L629 391H719V103H790V0ZM1078 299Q994 299 959 264Q949 254 941 233Q962 246 986 246Q1032 246 1060 214Q1088 182 1088 123V118Q1088 91 1080 67Q1072 43 1055 25Q1038 7 1011.5 -3Q985 -13 949 -13Q913 -13 887 -0.5Q861 12 844 33.5Q827 55 819 83.5Q811 112 811 143V152Q811 199 823.5 243.5Q836 288 868 329Q903 372 955.5 387.5Q1008 403 1078 403ZM45 0 621 780H755L179 0Z" glyph-name="sevensixteenths" horiz-adv-x="1100" unicode="&#61976;" /><glyph d="M303 352Q273 352 244.5 337Q216 322 199 292V260Q199 194 227.5 160.5Q256 127 298 127H304Q345 127 373.5 153.5Q402 180 402 231V250Q402 304 375.5 328Q349 352 308 352ZM523 651Q436 651 375.5 629Q315 607 273 556Q240 515 221 455Q246 472 276 482Q306 492 344 492Q393 492 433.5 475Q474 458 502.5 426.5Q531 395 546.5 349.5Q562 304 562 246V236Q562 120 496.5 53.5Q431 -13 301 -13Q238 -13 189 7.5Q140 28 106.5 65.5Q73 103 56 155.5Q39 208 39 273V286Q39 379 63 471Q87 563 149 646Q181 689 221.5 717.5Q262 746 309 762.5Q356 779 410 786Q464 793 523 793Z" glyph-name="six" horiz-adv-x="600" unicode="6" /><glyph d="M148 -57Q138 -57 131 -68V-70Q131 -93 137 -101Q143 -109 148 -109H152Q157 -109 163 -102.5Q169 -96 169 -84V-79Q169 -68 163 -62.5Q157 -57 152 -57ZM278 99Q194 99 159 64Q149 54 141 33Q162 46 186 46Q232 46 260 14Q288 -18 288 -77V-82Q288 -109 280 -133Q272 -157 255 -175Q238 -193 211.5 -203Q185 -213 149 -213Q113 -213 87 -200.5Q61 -188 44 -166.5Q27 -145 19 -116.5Q11 -88 11 -57V-48Q11 -1 23.5 43.5Q36 88 68 129Q103 172 155.5 187.5Q208 203 278 203Z" glyph-name="six.inf" horiz-adv-x="300" unicode="&#58743;" /><glyph glyph-name="sixperemspace" horiz-adv-x="167" unicode="&#8198;" /><glyph d="M169 -120H15L245 840H399Z" glyph-name="slash" horiz-adv-x="414" unicode="/" /><glyph d="M18 0 210 780H364L172 0Z" glyph-name="slash.cap" horiz-adv-x="381" unicode="&#58465;" /><glyph glyph-name="space" horiz-adv-x="200" unicode=" " /><glyph d="M451 790Q463 771 486 742.5Q509 714 540 682Q571 650 607.5 618Q644 586 684 560Q717 539 746.5 515.5Q776 492 798.5 464.5Q821 437 834.5 405Q848 373 848 334Q848 297 834.5 265.5Q821 234 797 210.5Q773 187 741 173.5Q709 160 672 160Q635 160 604 173.5Q573 187 548 209.5Q523 232 504 261Q485 290 472 321L469 320Q473 269 479.5 227Q486 185 495.5 147Q505 109 518.5 73Q532 37 551 0H349Q368 37 381.5 73Q395 109 404.5 147Q414 185 420.5 227Q427 269 431 320L428 321Q415 290 396 261Q377 232 352 209.5Q327 187 296 173.5Q265 160 228 160Q191 160 159 173.5Q127 187 103 210.5Q79 234 65.5 265.5Q52 297 52 334Q52 373 65.5 405Q79 437 101.5 464.5Q124 492 153.5 515.5Q183 539 216 560Q256 586 292.5 618Q329 650 360 682Q391 714 414 742.5Q437 771 449 790Z" glyph-name="spade" horiz-adv-x="900" unicode="&#9824;" /><glyph d="M238 168V268L360 390L238 512V612H338L460 490L582 612H682V512L560 390L682 268V168H582L460 290L338 168ZM209 641V139H711V641ZM850 780V0H70V780Z" glyph-name="squaremultiply" horiz-adv-x="920" unicode="&#8864;" /><glyph d="M322 654Q284 654 268 631Q252 608 252 570Q252 538 258 504.5Q264 471 274 434H450V297H310Q318 261 325 222Q332 183 335 139H556V0H44V139H197Q191 183 180.5 221.5Q170 260 157 297H44V434H112Q103 468 97.5 504.5Q92 541 92 583Q92 622 103 659.5Q114 697 141 726.5Q168 756 212 774.5Q256 793 322 793Q387 793 432 775.5Q477 758 504.5 723.5Q532 689 544.5 637.5Q557 586 557 517V500H398Q398 573 381 613.5Q364 654 322 654Z" glyph-name="sterling" horiz-adv-x="600" unicode="&#163;" /><glyph d="M394 530V392H258V201Q258 177 263.5 161.5Q269 146 279 137.5Q289 129 303.5 126Q318 123 336 123Q349 123 364 125.5Q379 128 384 130V0Q377 -4 356 -8.5Q335 -13 299 -13Q254 -13 217.5 -3Q181 7 155 30.5Q129 54 114.5 91.5Q100 129 100 184V392H19V530H100V680H258V530Z" glyph-name="t" horiz-adv-x="431" unicode="t" /><glyph d="M394 530V392H258V322H354V208H258V201Q258 177 263.5 161.5Q269 146 279 137.5Q289 129 303.5 126Q318 123 336 123Q349 123 364 125.5Q379 128 384 130V0Q377 -4 356 -8.5Q335 -13 299 -13Q254 -13 217.5 -3Q181 7 155 30.5Q129 54 114.5 91.5Q100 129 100 184V208H35V322H100V392H19V530H100V680H258V530Z" glyph-name="tbar" horiz-adv-x="431" unicode="&#359;" /><glyph d="M410 800 384 596H314V800ZM394 530V392H258V201Q258 177 263.5 161.5Q269 146 279 137.5Q289 129 303.5 126Q318 123 336 123Q349 123 364 125.5Q379 128 384 130V0Q377 -4 356 -8.5Q335 -13 299 -13Q254 -13 217.5 -3Q181 7 155 30.5Q129 54 114.5 91.5Q100 129 100 184V392H19V530H100V680H258V530Z" glyph-name="tcaron" horiz-adv-x="431" unicode="&#357;" /><glyph d="M309 -101Q309 -168 273 -197Q237 -226 162 -226V-172Q194 -172 215 -164Q236 -156 246 -136H167V-44H309ZM394 530V392H258V201Q258 177 263.5 161.5Q269 146 279 137.5Q289 129 303.5 126Q318 123 336 123Q349 123 364 125.5Q379 128 384 130V0Q377 -4 356 -8.5Q335 -13 299 -13Q254 -13 217.5 -3Q181 7 155 30.5Q129 54 114.5 91.5Q100 129 100 184V392H19V530H100V680H258V530Z" glyph-name="tcommaaccent" horiz-adv-x="431" unicode="&#355;" /><glyph d="M246 725H112V825H246ZM394 530V392H258V201Q258 177 263.5 161.5Q269 146 279 137.5Q289 129 303.5 126Q318 123 336 123Q349 123 364 125.5Q379 128 384 130V0Q377 -4 356 -8.5Q335 -13 299 -13Q254 -13 217.5 -3Q181 7 155 30.5Q129 54 114.5 91.5Q100 129 100 184V392H19V530H100V680H258V530Z" glyph-name="tdotaccent" horiz-adv-x="431" unicode="&#7787;" /><glyph glyph-name="thinspace" horiz-adv-x="150" unicode="&#8201;" /><glyph d="M1248 143Q1239 143 1231 132V130Q1231 107 1237 99Q1243 91 1248 91H1252Q1257 91 1263 97.5Q1269 104 1269 116V121Q1269 132 1263 137.5Q1257 143 1252 143ZM827 0V103H899V245L864 222L805 307L929 391H1019V103H1090V0ZM27 390V493H99V635L64 612L5 697L129 781H219V493H290V390ZM431 515Q431 495 437.5 488Q444 481 449 481H452Q457 481 463 488.5Q469 496 469 511V516Q469 541 450 541H400V637H449Q464 637 464 662V664Q464 669 461 679Q458 689 450 689H447Q433 689 433 650H313V659Q313 681 319 705Q325 729 340 748.5Q355 768 381.5 780.5Q408 793 449 793Q490 793 516 781Q542 769 557 752Q572 735 578 716.5Q584 698 584 684V674Q584 640 570 620Q556 600 536 589Q556 578 572 557Q588 536 588 502V492Q588 441 551 409Q514 377 450 377Q386 377 348.5 412Q311 447 311 507V515ZM1378 299Q1294 299 1259 264Q1249 254 1241 233Q1262 246 1286 246Q1332 246 1360 214Q1388 182 1388 123V118Q1388 91 1380 67Q1372 43 1355 25Q1338 7 1311.5 -3Q1285 -13 1249 -13Q1213 -13 1187 -0.5Q1161 12 1144 33.5Q1127 55 1119 83.5Q1111 112 1111 143V152Q1111 199 1123.5 243.5Q1136 288 1168 329Q1203 372 1255.5 387.5Q1308 403 1378 403ZM345 0 921 780H1055L479 0Z" glyph-name="thirteensixteenths" horiz-adv-x="1400" unicode="&#61985;" /><glyph d="M211 173Q216 166 224 157Q232 148 243 140.5Q254 133 268.5 128Q283 123 301 123Q347 123 366.5 155.5Q386 188 386 247V283Q386 342 366.5 374.5Q347 407 301 407Q283 407 268.5 402Q254 397 243 389.5Q232 382 224 373Q216 364 211 357ZM210 800V484Q233 510 266 526.5Q299 543 347 543Q401 543 439 524Q477 505 500 470.5Q523 436 533.5 388Q544 340 544 283V247Q544 190 533.5 142Q523 94 500 59.5Q477 25 439 6Q401 -13 347 -13Q299 -13 266 3Q233 19 210 46V-200H52V800Z" glyph-name="thorn" horiz-adv-x="574" unicode="&#254;" /><glyph d="M199 250Q199 215 206.5 191.5Q214 168 227 153.5Q240 139 257.5 133Q275 127 295 127H305Q324 127 341 133Q358 139 371.5 151Q385 163 393 181.5Q401 200 401 226V237Q401 283 376 305.5Q351 328 307 328H200V468H304Q348 468 372 490Q396 512 396 557V566Q396 605 370.5 629Q345 653 305 653H295Q253 653 228.5 623.5Q204 594 204 520H44V540Q44 667 106.5 730Q169 793 300 793Q371 793 420 773.5Q469 754 499 724Q529 694 542.5 657Q556 620 556 585V566Q556 503 529.5 462.5Q503 422 465 399Q506 376 533.5 334.5Q561 293 561 228V209Q561 172 546.5 132.5Q532 93 500.5 61Q469 29 419.5 8Q370 -13 300 -13Q168 -13 103.5 51.5Q39 116 39 237V250Z" glyph-name="three" horiz-adv-x="600" unicode="3" /><glyph d="M131 -75Q131 -95 137.5 -102Q144 -109 149 -109H152Q157 -109 163 -101.5Q169 -94 169 -79V-74Q169 -49 150 -49H100V47H149Q164 47 164 72V74Q164 79 161 89Q158 99 150 99H147Q133 99 133 60H13V69Q13 91 19 115Q25 139 40 158.5Q55 178 81.5 190.5Q108 203 149 203Q190 203 216 191Q242 179 257 162Q272 145 278 126.5Q284 108 284 94V84Q284 50 270 30Q256 10 236 -1Q256 -12 272 -32.5Q288 -53 288 -88V-98Q288 -149 251 -181Q214 -213 150 -213Q86 -213 48.5 -178Q11 -143 11 -83V-75Z" glyph-name="three.inf" horiz-adv-x="300" unicode="&#58740;" /><glyph glyph-name="threeperemspace" horiz-adv-x="333" unicode="&#8196;" /><glyph d="M40 419H710V281H40Z" glyph-name="threequarteremdash" horiz-adv-x="750" unicode="&#58482;" /><glyph d="M40 459H710V321H40Z" glyph-name="threequarteremdash.cap" horiz-adv-x="750" unicode="&#58501;" /><glyph d="M606 172H637V229ZM637 0V68H510V160L636 390H757V172H789V68H757V0ZM131 515Q131 495 137.5 488Q144 481 149 481H152Q157 481 163 488.5Q169 496 169 511V516Q169 541 150 541H100V637H149Q164 637 164 662V664Q164 669 161 679Q158 689 150 689H147Q133 689 133 650H13V659Q13 681 19 705Q25 729 40 748.5Q55 768 81.5 780.5Q108 793 149 793Q190 793 216 781Q242 769 257 752Q272 735 278 716.5Q284 698 284 684V674Q284 640 270 620Q256 600 236 589Q256 578 272 557Q288 536 288 502V492Q288 441 251 409Q214 377 150 377Q86 377 48.5 412Q11 447 11 507V515ZM45 0 621 780H755L179 0Z" glyph-name="threequarters" horiz-adv-x="800" unicode="&#190;" /><glyph d="M948 143Q939 143 931 132V130Q931 107 937 99Q943 91 948 91H952Q957 91 963 97.5Q969 104 969 116V121Q969 132 963 137.5Q957 143 952 143ZM527 0V103H599V245L564 222L505 307L629 391H719V103H790V0ZM131 515Q131 495 137.5 488Q144 481 149 481H152Q157 481 163 488.5Q169 496 169 511V516Q169 541 150 541H100V637H149Q164 637 164 662V664Q164 669 161 679Q158 689 150 689H147Q133 689 133 650H13V659Q13 681 19 705Q25 729 40 748.5Q55 768 81.5 780.5Q108 793 149 793Q190 793 216 781Q242 769 257 752Q272 735 278 716.5Q284 698 284 684V674Q284 640 270 620Q256 600 236 589Q256 578 272 557Q288 536 288 502V492Q288 441 251 409Q214 377 150 377Q86 377 48.5 412Q11 447 11 507V515ZM1078 299Q994 299 959 264Q949 254 941 233Q962 246 986 246Q1032 246 1060 214Q1088 182 1088 123V118Q1088 91 1080 67Q1072 43 1055 25Q1038 7 1011.5 -3Q985 -13 949 -13Q913 -13 887 -0.5Q861 12 844 33.5Q827 55 819 83.5Q811 112 811 143V152Q811 199 823.5 243.5Q836 288 868 329Q903 372 955.5 387.5Q1008 403 1078 403ZM45 0 621 780H755L179 0Z" glyph-name="threesixteenths" horiz-adv-x="1100" unicode="&#61974;" /><glyph d="M131 515Q131 495 137.5 488Q144 481 149 481H152Q157 481 163 488.5Q169 496 169 511V516Q169 541 150 541H100V637H149Q164 637 164 662V664Q164 669 161 679Q158 689 150 689H147Q133 689 133 650H13V659Q13 681 19 705Q25 729 40 748.5Q55 768 81.5 780.5Q108 793 149 793Q190 793 216 781Q242 769 257 752Q272 735 278 716.5Q284 698 284 684V674Q284 640 270 620Q256 600 236 589Q256 578 272 557Q288 536 288 502V492Q288 441 251 409Q214 377 150 377Q86 377 48.5 412Q11 447 11 507V515Z" glyph-name="threesuperior" horiz-adv-x="300" unicode="&#179;" /><glyph d="M451 772Q451 730 442.5 700Q434 670 419 650.5Q404 631 383.5 622Q363 613 340 613Q316 613 294.5 621Q273 629 253.5 639Q234 649 217 657Q200 665 185 665Q171 665 162.5 656.5Q154 648 154 628H49Q49 712 81 749.5Q113 787 160 787Q184 787 205.5 779Q227 771 246.5 761Q266 751 283 743Q300 735 315 735Q329 735 337.5 743.5Q346 752 346 772Z" glyph-name="tilde" horiz-adv-x="500" unicode="&#732;" /><glyph d="M435 947Q435 914 426.5 891.5Q418 869 403.5 854.5Q389 840 370.5 834Q352 828 332 828Q308 828 287 835.5Q266 843 247.5 852Q229 861 213 868.5Q197 876 183 876Q169 876 159.5 869.5Q150 863 150 843H65Q65 876 73.5 898.5Q82 921 96 935.5Q110 950 129 956Q148 962 168 962Q192 962 213 954.5Q234 947 252.5 938Q271 929 287 921.5Q303 914 317 914Q331 914 340.5 920.5Q350 927 350 947Z" glyph-name="tilde.cap" horiz-adv-x="500" unicode="&#58404;" /><glyph d="M413 530H345L304 691L306 631V530H242V800H337L379 641L420 800H516V530H452V631L454 691ZM147 530H83V744H17V800H214V744H147Z" glyph-name="trademark" horiz-adv-x="559" unicode="&#8482;" /><glyph d="M62 780H218L465 162L712 780H868L542 -13H388Z" glyph-name="triagdn" horiz-adv-x="930" unicode="&#9660;" /><glyph d="M850 793V637L232 390L850 143V-13L57 313V467Z" glyph-name="triaglf" horiz-adv-x="930" unicode="&#9668;" /><glyph d="M873 313 80 -13V143L697 390L80 637V793L873 467Z" glyph-name="triagrt" horiz-adv-x="930" unicode="&#9658;" /><glyph d="M868 0H712L465 617L218 0H62L388 793H542Z" glyph-name="triagup" horiz-adv-x="930" unicode="&#9650;" /><glyph d="M383 780 375 457H253L245 780ZM202 780 193 457H72L47 780ZM581 780 556 457H434L426 780Z" glyph-name="tripleprime" horiz-adv-x="628" unicode="&#8244;" /><glyph d="M556 140V0H44V101L344 432Q370 460 383 482.5Q396 505 396 537V547Q396 601 370.5 627Q345 653 305 653H295Q254 653 229 623.5Q204 594 204 520H44V540Q44 667 106.5 730Q169 793 300 793Q371 793 420 773.5Q469 754 499 723Q529 692 542.5 653.5Q556 615 556 577V559Q556 524 550.5 497.5Q545 471 534 447.5Q523 424 507 402.5Q491 381 469 357L270 139L341 140Z" glyph-name="two" horiz-adv-x="600" unicode="2" /><glyph d="M284 -200H13V-124L151 29Q164 44 164 61V72Q164 80 161 89.5Q158 99 150 99H147Q133 99 133 60H13V75Q13 95 19 117.5Q25 140 40 159Q55 178 81.5 190.5Q108 203 149 203Q190 203 216 191Q242 179 257 161Q272 143 278 123Q284 103 284 87V69Q284 37 273 16.5Q262 -4 241 -28L179 -97H284Z" glyph-name="two.inf" horiz-adv-x="300" unicode="&#58739;" /><glyph d="M284 390H13V466L151 619Q164 634 164 651V662Q164 670 161 679.5Q158 689 150 689H147Q133 689 133 650H13V665Q13 685 19 707.5Q25 730 40 749Q55 768 81.5 780.5Q108 793 149 793Q190 793 216 781Q242 769 257 751Q272 733 278 713Q284 693 284 677V659Q284 627 273 606.5Q262 586 241 562L179 493H284Z" glyph-name="twosuperior" horiz-adv-x="300" unicode="&#178;" /><glyph d="M205 530V197Q205 183 208.5 169.5Q212 156 220 145.5Q228 135 241.5 129Q255 123 275 123Q294 123 309 128Q324 133 335.5 140.5Q347 148 355 157Q363 166 368 173V530H526V150L535 0H394L382 67Q356 32 314.5 9.5Q273 -13 212 -13Q167 -13 135.5 2Q104 17 84.5 42.5Q65 68 56.5 101.5Q48 135 48 171V530Z" glyph-name="u" horiz-adv-x="580" unicode="u" /><glyph d="M471 780 364 596H208L299 780ZM205 530V197Q205 183 208.5 169.5Q212 156 220 145.5Q228 135 241.5 129Q255 123 275 123Q294 123 309 128Q324 133 335.5 140.5Q347 148 355 157Q363 166 368 173V530H526V150L535 0H394L382 67Q356 32 314.5 9.5Q273 -13 212 -13Q167 -13 135.5 2Q104 17 84.5 42.5Q65 68 56.5 101.5Q48 135 48 171V530Z" glyph-name="uacute" horiz-adv-x="580" unicode="&#250;" /><glyph d="M286 582Q233 582 197 597Q161 612 139 638.5Q117 665 107.5 701Q98 737 99 780H212Q212 735 233 718.5Q254 702 286 702Q318 702 339 718.5Q360 735 360 780H473Q474 737 464.5 701Q455 665 433 638.5Q411 612 374.5 597Q338 582 286 582ZM205 530V197Q205 183 208.5 169.5Q212 156 220 145.5Q228 135 241.5 129Q255 123 275 123Q294 123 309 128Q324 133 335.5 140.5Q347 148 355 157Q363 166 368 173V530H526V150L535 0H394L382 67Q356 32 314.5 9.5Q273 -13 212 -13Q167 -13 135.5 2Q104 17 84.5 42.5Q65 68 56.5 101.5Q48 135 48 171V530Z" glyph-name="ubreve" horiz-adv-x="580" unicode="&#365;" /><glyph d="M76 596 210 780H362L496 596H358L286 678L214 596ZM205 530V197Q205 183 208.5 169.5Q212 156 220 145.5Q228 135 241.5 129Q255 123 275 123Q294 123 309 128Q324 133 335.5 140.5Q347 148 355 157Q363 166 368 173V530H526V150L535 0H394L382 67Q356 32 314.5 9.5Q273 -13 212 -13Q167 -13 135.5 2Q104 17 84.5 42.5Q65 68 56.5 101.5Q48 135 48 171V530Z" glyph-name="ucircumflex" horiz-adv-x="580" unicode="&#251;" /><glyph d="M261 606H96V772H261ZM476 606H311V772H476ZM205 530V197Q205 183 208.5 169.5Q212 156 220 145.5Q228 135 241.5 129Q255 123 275 123Q294 123 309 128Q324 133 335.5 140.5Q347 148 355 157Q363 166 368 173V530H526V150L535 0H394L382 67Q356 32 314.5 9.5Q273 -13 212 -13Q167 -13 135.5 2Q104 17 84.5 42.5Q65 68 56.5 101.5Q48 135 48 171V530Z" glyph-name="udieresis" horiz-adv-x="580" unicode="&#252;" /><glyph d="M273 780 364 596H208L101 780ZM205 530V197Q205 183 208.5 169.5Q212 156 220 145.5Q228 135 241.5 129Q255 123 275 123Q294 123 309 128Q324 133 335.5 140.5Q347 148 355 157Q363 166 368 173V530H526V150L535 0H394L382 67Q356 32 314.5 9.5Q273 -13 212 -13Q167 -13 135.5 2Q104 17 84.5 42.5Q65 68 56.5 101.5Q48 135 48 171V530Z" glyph-name="ugrave" horiz-adv-x="580" unicode="&#249;" /><glyph d="M534 780 427 596H304L395 780ZM351 780 267 596H144L211 780ZM205 530V197Q205 183 208.5 169.5Q212 156 220 145.5Q228 135 241.5 129Q255 123 275 123Q294 123 309 128Q324 133 335.5 140.5Q347 148 355 157Q363 166 368 173V530H526V150L535 0H394L382 67Q356 32 314.5 9.5Q273 -13 212 -13Q167 -13 135.5 2Q104 17 84.5 42.5Q65 68 56.5 101.5Q48 135 48 171V530Z" glyph-name="uhungarumlaut" horiz-adv-x="580" unicode="&#369;" /><glyph d="M136 757H436V619H136ZM205 530V197Q205 183 208.5 169.5Q212 156 220 145.5Q228 135 241.5 129Q255 123 275 123Q294 123 309 128Q324 133 335.5 140.5Q347 148 355 157Q363 166 368 173V530H526V150L535 0H394L382 67Q356 32 314.5 9.5Q273 -13 212 -13Q167 -13 135.5 2Q104 17 84.5 42.5Q65 68 56.5 101.5Q48 135 48 171V530Z" glyph-name="umacron" horiz-adv-x="580" unicode="&#363;" /><glyph d="M42 -47H278V-185H42Z" glyph-name="underscore" horiz-adv-x="320" unicode="_" /><glyph d="M42 -47H558V-185H42Z" glyph-name="underscoremonospace" horiz-adv-x="600" unicode="&#65343;" /><glyph d="M40 419H313V281H40Z" glyph-name="uni00AD" horiz-adv-x="353" unicode="&#173;" /><glyph d="M40 419H1160V281H40Z" glyph-name="uni2015" horiz-adv-x="1200" unicode="&#8213;" /><glyph d="M40 459H1160V321H40Z" glyph-name="uni2015.cap" horiz-adv-x="1200" unicode="&#58504;" /><glyph d="M133 496Q133 490 137 485.5Q141 481 148 481H152Q159 481 163 485.5Q167 490 167 496V674Q167 680 163 684.5Q159 689 152 689H148Q141 689 137 684.5Q133 680 133 674ZM287 494Q287 443 250.5 410Q214 377 150 377Q86 377 49.5 410Q13 443 13 494V676Q13 727 49.5 760Q86 793 150 793Q214 793 250.5 760Q287 727 287 676Z" glyph-name="uni2070" horiz-adv-x="300" unicode="&#8304;" /><glyph d="M106 562H137V619ZM137 390V458H10V550L136 780H257V562H289V458H257V390Z" glyph-name="uni2074" horiz-adv-x="300" unicode="&#8308;" /><glyph d="M131 515Q131 495 136.5 488Q142 481 147 481H151Q158 481 163.5 488.5Q169 496 169 511V516Q169 546 145 546H144Q131 546 120 535L16 570L25 780H281V676H124L122 637Q133 640 144 642Q155 644 168 644Q228 644 258 609Q288 574 288 519V507Q288 443 251 410Q214 377 150 377Q86 377 48.5 412Q11 447 11 507V515Z" glyph-name="uni2075" horiz-adv-x="300" unicode="&#8309;" /><glyph d="M148 533Q139 533 131 522V520Q131 497 137 489Q143 481 148 481H152Q157 481 163 487.5Q169 494 169 506V511Q169 522 163 527.5Q157 533 152 533ZM278 689Q194 689 159 654Q149 644 141 623Q162 636 186 636Q232 636 260 604Q288 572 288 513V508Q288 481 280 457Q272 433 255 415Q238 397 211.5 387Q185 377 149 377Q113 377 87 389.5Q61 402 44 423.5Q27 445 19 473.5Q11 502 11 533V542Q11 589 23.5 633.5Q36 678 68 719Q103 762 155.5 777.5Q208 793 278 793Z" glyph-name="uni2076" horiz-adv-x="300" unicode="&#8310;" /><glyph d="M8 780H292V706L164 390H36L160 676H112V640H8Z" glyph-name="uni2077" horiz-adv-x="300" unicode="&#8311;" /><glyph d="M151 641Q164 641 164 664V668Q164 691 151 691H149Q136 691 136 668V664Q136 641 149 641ZM148 537Q138 537 134.5 529.5Q131 522 131 510V506Q131 494 135.5 486.5Q140 479 148 479H152Q160 479 164.5 486.5Q169 494 169 506V510Q169 522 165.5 529.5Q162 537 152 537ZM150 377Q86 377 49 409Q12 441 12 492V503Q12 535 26.5 556.5Q41 578 61 589Q43 600 29.5 621Q16 642 16 674V684Q16 698 21.5 716.5Q27 735 42 752Q57 769 83 781Q109 793 150 793Q190 793 216 781Q242 769 257 752Q272 735 278 716.5Q284 698 284 684V674Q284 642 270.5 621Q257 600 239 589Q259 578 273.5 556.5Q288 535 288 503V492Q288 441 251 409Q214 377 150 377Z" glyph-name="uni2078" horiz-adv-x="300" unicode="&#8312;" /><glyph d="M152 637Q161 637 169 648V650Q169 673 163 681Q157 689 152 689H148Q143 689 137 682.5Q131 676 131 664V659Q131 648 137 642.5Q143 637 148 637ZM22 481Q65 481 94.5 490Q124 499 141 516Q147 522 151 529.5Q155 537 159 547Q138 534 114 534Q68 534 40 566Q12 598 12 657V662Q12 689 20 713Q28 737 45 755Q62 773 88.5 783Q115 793 151 793Q187 793 213 780.5Q239 768 256 746.5Q273 725 281 696.5Q289 668 289 637V628Q289 581 276.5 536.5Q264 492 232 451Q197 408 144.5 392.5Q92 377 22 377Z" glyph-name="uni2079" horiz-adv-x="300" unicode="&#8313;" /><glyph d="M202 717V637H282V533H202V453H98V533H18V637H98V717Z" glyph-name="uni207A" horiz-adv-x="300" unicode="&#8314;" /><glyph d="M18 637H282V533H18Z" glyph-name="uni207B" horiz-adv-x="300" unicode="&#8315;" /><glyph d="M18 576H282V472H18ZM18 698H282V594H18Z" glyph-name="uni207C" horiz-adv-x="300" unicode="&#8316;" /><glyph d="M15 590Q15 662 33 708.5Q51 755 74 780H197Q188 766 177 747Q166 728 156.5 704Q147 680 140.5 651Q134 622 134 590V580Q134 548 140.5 519Q147 490 156.5 466Q166 442 177 422.5Q188 403 197 390H74Q51 414 33 460.5Q15 507 15 580Z" glyph-name="uni207D" horiz-adv-x="205" unicode="&#8317;" /><glyph d="M189 580Q189 507 171 460.5Q153 414 130 390H8Q17 403 28 422.5Q39 442 48.5 466Q58 490 64 519Q70 548 70 580V590Q70 622 64 651Q58 680 48.5 704Q39 728 28 747Q17 766 8 780H130Q153 755 171 708.5Q189 662 189 590Z" glyph-name="uni207E" horiz-adv-x="205" unicode="&#8318;" /><glyph d="M133 106Q133 100 137 95.5Q141 91 148 91H152Q159 91 163 95.5Q167 100 167 106V284Q167 290 163 294.5Q159 299 152 299H148Q141 299 137 294.5Q133 290 133 284ZM287 104Q287 53 250.5 20Q214 -13 150 -13Q86 -13 49.5 20Q13 53 13 104V286Q13 337 49.5 370Q86 403 150 403Q214 403 250.5 370Q287 337 287 286Z" glyph-name="uni2080" horiz-adv-x="300" unicode="&#8320;" /><glyph d="M27 0V103H99V245L64 222L5 307L129 391H219V103H290V0Z" glyph-name="uni2081" horiz-adv-x="300" unicode="&#8321;" /><glyph d="M284 0H13V76L151 229Q164 244 164 261V272Q164 280 161 289.5Q158 299 150 299H147Q133 299 133 260H13V275Q13 295 19 317.5Q25 340 40 359Q55 378 81.5 390.5Q108 403 149 403Q190 403 216 391Q242 379 257 361Q272 343 278 323Q284 303 284 287V269Q284 237 273 216.5Q262 196 241 172L179 103H284Z" glyph-name="uni2082" horiz-adv-x="300" unicode="&#8322;" /><glyph d="M131 125Q131 105 137.5 98Q144 91 149 91H152Q157 91 163 98.5Q169 106 169 121V126Q169 151 150 151H100V247H149Q164 247 164 272V274Q164 279 161 289Q158 299 150 299H147Q133 299 133 260H13V269Q13 291 19 315Q25 339 40 358.5Q55 378 81.5 390.5Q108 403 149 403Q190 403 216 391Q242 379 257 362Q272 345 278 326.5Q284 308 284 294V284Q284 250 270 230Q256 210 236 199Q256 188 272 167Q288 146 288 112V102Q288 51 251 19Q214 -13 150 -13Q86 -13 48.5 22Q11 57 11 117V125Z" glyph-name="uni2083" horiz-adv-x="300" unicode="&#8323;" /><glyph d="M106 172H137V229ZM137 0V68H10V160L136 390H257V172H289V68H257V0Z" glyph-name="uni2084" horiz-adv-x="300" unicode="&#8324;" /><glyph d="M131 125Q131 105 136.5 98Q142 91 147 91H151Q158 91 163.5 98.5Q169 106 169 121V126Q169 156 145 156H144Q131 156 120 145L16 180L25 390H281V286H124L122 247Q133 250 144 252Q155 254 168 254Q228 254 258 219Q288 184 288 129V117Q288 53 251 20Q214 -13 150 -13Q86 -13 48.5 22Q11 57 11 117V125Z" glyph-name="uni2085" horiz-adv-x="300" unicode="&#8325;" /><glyph d="M148 143Q139 143 131 132V130Q131 107 137 99Q143 91 148 91H152Q157 91 163 97.5Q169 104 169 116V121Q169 132 163 137.5Q157 143 152 143ZM278 299Q194 299 159 264Q149 254 141 233Q162 246 186 246Q232 246 260 214Q288 182 288 123V118Q288 91 280 67Q272 43 255 25Q238 7 211.5 -3Q185 -13 149 -13Q113 -13 87 -0.5Q61 12 44 33.5Q27 55 19 83.5Q11 112 11 143V152Q11 199 23.5 243.5Q36 288 68 329Q103 372 155.5 387.5Q208 403 278 403Z" glyph-name="uni2086" horiz-adv-x="300" unicode="&#8326;" /><glyph d="M8 390H292V316L164 0H36L160 286H112V250H8Z" glyph-name="uni2087" horiz-adv-x="300" unicode="&#8327;" /><glyph d="M151 251Q164 251 164 274V278Q164 301 151 301H149Q136 301 136 278V274Q136 251 149 251ZM148 147Q138 147 134.5 139.5Q131 132 131 120V116Q131 104 135.5 96.5Q140 89 148 89H152Q160 89 164.5 96.5Q169 104 169 116V120Q169 132 165.5 139.5Q162 147 152 147ZM150 -13Q86 -13 49 19Q12 51 12 102V113Q12 145 26.5 166.5Q41 188 61 199Q43 210 29.5 231Q16 252 16 284V294Q16 308 21.5 326.5Q27 345 42 362Q57 379 83 391Q109 403 150 403Q190 403 216 391Q242 379 257 362Q272 345 278 326.5Q284 308 284 294V284Q284 252 270.5 231Q257 210 239 199Q259 188 273.5 166.5Q288 145 288 113V102Q288 51 251 19Q214 -13 150 -13Z" glyph-name="uni2088" horiz-adv-x="300" unicode="&#8328;" /><glyph d="M152 247Q161 247 169 258V260Q169 283 163 291Q157 299 152 299H148Q143 299 137 292.5Q131 286 131 274V269Q131 258 137 252.5Q143 247 148 247ZM22 91Q65 91 94.5 100Q124 109 141 126Q147 132 151 139.5Q155 147 159 157Q138 144 114 144Q68 144 40 176Q12 208 12 267V272Q12 299 20 323Q28 347 45 365Q62 383 88.5 393Q115 403 151 403Q187 403 213 390.5Q239 378 256 356.5Q273 335 281 306.5Q289 278 289 247V238Q289 191 276.5 146.5Q264 102 232 61Q197 18 144.5 2.5Q92 -13 22 -13Z" glyph-name="uni2089" horiz-adv-x="300" unicode="&#8329;" /><glyph d="M202 327V247H282V143H202V63H98V143H18V247H98V327Z" glyph-name="uni208A" horiz-adv-x="300" unicode="&#8330;" /><glyph d="M18 247H282V143H18Z" glyph-name="uni208B" horiz-adv-x="300" unicode="&#8331;" /><glyph d="M18 186H282V82H18ZM18 308H282V204H18Z" glyph-name="uni208C" horiz-adv-x="300" unicode="&#8332;" /><glyph d="M15 200Q15 272 33 318.5Q51 365 74 390H197Q188 376 177 357Q166 338 156.5 314Q147 290 140.5 261Q134 232 134 200V190Q134 158 140.5 129Q147 100 156.5 76Q166 52 177 32.5Q188 13 197 0H74Q51 24 33 70.5Q15 117 15 190Z" glyph-name="uni208D" horiz-adv-x="205" unicode="&#8333;" /><glyph d="M189 190Q189 117 171 70.5Q153 24 130 0H8Q17 13 28 32.5Q39 52 48.5 76Q58 100 64 129Q70 158 70 190V200Q70 232 64 261Q58 290 48.5 314Q39 338 28 357Q17 376 8 390H130Q153 365 171 318.5Q189 272 189 200Z" glyph-name="uni208E" horiz-adv-x="205" unicode="&#8334;" /><glyph d="M27 390V493H99V635L64 612L5 697L129 781H219V493H290V390ZM631 125Q631 105 637.5 98Q644 91 649 91H652Q657 91 663 98.5Q669 106 669 121V126Q669 151 650 151H600V247H649Q664 247 664 272V274Q664 279 661 289Q658 299 650 299H647Q633 299 633 260H513V269Q513 291 519 315Q525 339 540 358.5Q555 378 581.5 390.5Q608 403 649 403Q690 403 716 391Q742 379 757 362Q772 345 778 326.5Q784 308 784 294V284Q784 250 770 230Q756 210 736 199Q756 188 772 167Q788 146 788 112V102Q788 51 751 19Q714 -13 650 -13Q586 -13 548.5 22Q511 57 511 117V125ZM45 0 621 780H755L179 0Z" glyph-name="uni2153" horiz-adv-x="800" unicode="&#8531;" /><glyph d="M284 390H13V466L151 619Q164 634 164 651V662Q164 670 161 679.5Q158 689 150 689H147Q133 689 133 650H13V665Q13 685 19 707.5Q25 730 40 749Q55 768 81.5 780.5Q108 793 149 793Q190 793 216 781Q242 769 257 751Q272 733 278 713Q284 693 284 677V659Q284 627 273 606.5Q262 586 241 562L179 493H284ZM631 125Q631 105 637.5 98Q644 91 649 91H652Q657 91 663 98.5Q669 106 669 121V126Q669 151 650 151H600V247H649Q664 247 664 272V274Q664 279 661 289Q658 299 650 299H647Q633 299 633 260H513V269Q513 291 519 315Q525 339 540 358.5Q555 378 581.5 390.5Q608 403 649 403Q690 403 716 391Q742 379 757 362Q772 345 778 326.5Q784 308 784 294V284Q784 250 770 230Q756 210 736 199Q756 188 772 167Q788 146 788 112V102Q788 51 751 19Q714 -13 650 -13Q586 -13 548.5 22Q511 57 511 117V125ZM45 0 621 780H755L179 0Z" glyph-name="uni2154" horiz-adv-x="800" unicode="&#8532;" /><glyph d="M27 390V493H99V635L64 612L5 697L129 781H219V493H290V390ZM631 125Q631 105 636.5 98Q642 91 647 91H651Q658 91 663.5 98.5Q669 106 669 121V126Q669 156 645 156H644Q631 156 620 145L516 180L525 390H781V286H624L622 247Q633 250 644 252Q655 254 668 254Q728 254 758 219Q788 184 788 129V117Q788 53 751 20Q714 -13 650 -13Q586 -13 548.5 22Q511 57 511 117V125ZM45 0 621 780H755L179 0Z" glyph-name="uni2155" horiz-adv-x="800" unicode="&#8533;" /><glyph d="M284 390H13V466L151 619Q164 634 164 651V662Q164 670 161 679.5Q158 689 150 689H147Q133 689 133 650H13V665Q13 685 19 707.5Q25 730 40 749Q55 768 81.5 780.5Q108 793 149 793Q190 793 216 781Q242 769 257 751Q272 733 278 713Q284 693 284 677V659Q284 627 273 606.5Q262 586 241 562L179 493H284ZM631 125Q631 105 636.5 98Q642 91 647 91H651Q658 91 663.5 98.5Q669 106 669 121V126Q669 156 645 156H644Q631 156 620 145L516 180L525 390H781V286H624L622 247Q633 250 644 252Q655 254 668 254Q728 254 758 219Q788 184 788 129V117Q788 53 751 20Q714 -13 650 -13Q586 -13 548.5 22Q511 57 511 117V125ZM45 0 621 780H755L179 0Z" glyph-name="uni2156" horiz-adv-x="800" unicode="&#8534;" /><glyph d="M131 515Q131 495 137.5 488Q144 481 149 481H152Q157 481 163 488.5Q169 496 169 511V516Q169 541 150 541H100V637H149Q164 637 164 662V664Q164 669 161 679Q158 689 150 689H147Q133 689 133 650H13V659Q13 681 19 705Q25 729 40 748.5Q55 768 81.5 780.5Q108 793 149 793Q190 793 216 781Q242 769 257 752Q272 735 278 716.5Q284 698 284 684V674Q284 640 270 620Q256 600 236 589Q256 578 272 557Q288 536 288 502V492Q288 441 251 409Q214 377 150 377Q86 377 48.5 412Q11 447 11 507V515ZM631 125Q631 105 636.5 98Q642 91 647 91H651Q658 91 663.5 98.5Q669 106 669 121V126Q669 156 645 156H644Q631 156 620 145L516 180L525 390H781V286H624L622 247Q633 250 644 252Q655 254 668 254Q728 254 758 219Q788 184 788 129V117Q788 53 751 20Q714 -13 650 -13Q586 -13 548.5 22Q511 57 511 117V125ZM45 0 621 780H755L179 0Z" glyph-name="uni2157" horiz-adv-x="800" unicode="&#8535;" /><glyph d="M106 562H137V619ZM137 390V458H10V550L136 780H257V562H289V458H257V390ZM631 125Q631 105 636.5 98Q642 91 647 91H651Q658 91 663.5 98.5Q669 106 669 121V126Q669 156 645 156H644Q631 156 620 145L516 180L525 390H781V286H624L622 247Q633 250 644 252Q655 254 668 254Q728 254 758 219Q788 184 788 129V117Q788 53 751 20Q714 -13 650 -13Q586 -13 548.5 22Q511 57 511 117V125ZM45 0 621 780H755L179 0Z" glyph-name="uni2158" horiz-adv-x="800" unicode="&#8536;" /><glyph d="M648 143Q639 143 631 132V130Q631 107 637 99Q643 91 648 91H652Q657 91 663 97.5Q669 104 669 116V121Q669 132 663 137.5Q657 143 652 143ZM27 390V493H99V635L64 612L5 697L129 781H219V493H290V390ZM778 299Q694 299 659 264Q649 254 641 233Q662 246 686 246Q732 246 760 214Q788 182 788 123V118Q788 91 780 67Q772 43 755 25Q738 7 711.5 -3Q685 -13 649 -13Q613 -13 587 -0.5Q561 12 544 33.5Q527 55 519 83.5Q511 112 511 143V152Q511 199 523.5 243.5Q536 288 568 329Q603 372 655.5 387.5Q708 403 778 403ZM45 0 621 780H755L179 0Z" glyph-name="uni2159" horiz-adv-x="800" unicode="&#8537;" /><glyph d="M648 143Q639 143 631 132V130Q631 107 637 99Q643 91 648 91H652Q657 91 663 97.5Q669 104 669 116V121Q669 132 663 137.5Q657 143 652 143ZM778 299Q694 299 659 264Q649 254 641 233Q662 246 686 246Q732 246 760 214Q788 182 788 123V118Q788 91 780 67Q772 43 755 25Q738 7 711.5 -3Q685 -13 649 -13Q613 -13 587 -0.5Q561 12 544 33.5Q527 55 519 83.5Q511 112 511 143V152Q511 199 523.5 243.5Q536 288 568 329Q603 372 655.5 387.5Q708 403 778 403ZM131 515Q131 495 136.5 488Q142 481 147 481H151Q158 481 163.5 488.5Q169 496 169 511V516Q169 546 145 546H144Q131 546 120 535L16 570L25 780H281V676H124L122 637Q133 640 144 642Q155 644 168 644Q228 644 258 609Q288 574 288 519V507Q288 443 251 410Q214 377 150 377Q86 377 48.5 412Q11 447 11 507V515ZM45 0 621 780H755L179 0Z" glyph-name="uni215A" horiz-adv-x="800" unicode="&#8538;" /><glyph d="M651 251Q664 251 664 274V278Q664 301 651 301H649Q636 301 636 278V274Q636 251 649 251ZM648 147Q638 147 634.5 139.5Q631 132 631 120V116Q631 104 635.5 96.5Q640 89 648 89H652Q660 89 664.5 96.5Q669 104 669 116V120Q669 132 665.5 139.5Q662 147 652 147ZM27 390V493H99V635L64 612L5 697L129 781H219V493H290V390ZM650 -13Q586 -13 549 19Q512 51 512 102V113Q512 145 526.5 166.5Q541 188 561 199Q543 210 529.5 231Q516 252 516 284V294Q516 308 521.5 326.5Q527 345 542 362Q557 379 583 391Q609 403 650 403Q690 403 716 391Q742 379 757 362Q772 345 778 326.5Q784 308 784 294V284Q784 252 770.5 231Q757 210 739 199Q759 188 773.5 166.5Q788 145 788 113V102Q788 51 751 19Q714 -13 650 -13ZM45 0 621 780H755L179 0Z" glyph-name="uni215B" horiz-adv-x="800" unicode="&#8539;" /><glyph d="M651 251Q664 251 664 274V278Q664 301 651 301H649Q636 301 636 278V274Q636 251 649 251ZM648 147Q638 147 634.5 139.5Q631 132 631 120V116Q631 104 635.5 96.5Q640 89 648 89H652Q660 89 664.5 96.5Q669 104 669 116V120Q669 132 665.5 139.5Q662 147 652 147ZM131 515Q131 495 137.5 488Q144 481 149 481H152Q157 481 163 488.5Q169 496 169 511V516Q169 541 150 541H100V637H149Q164 637 164 662V664Q164 669 161 679Q158 689 150 689H147Q133 689 133 650H13V659Q13 681 19 705Q25 729 40 748.5Q55 768 81.5 780.5Q108 793 149 793Q190 793 216 781Q242 769 257 752Q272 735 278 716.5Q284 698 284 684V674Q284 640 270 620Q256 600 236 589Q256 578 272 557Q288 536 288 502V492Q288 441 251 409Q214 377 150 377Q86 377 48.5 412Q11 447 11 507V515ZM650 -13Q586 -13 549 19Q512 51 512 102V113Q512 145 526.5 166.5Q541 188 561 199Q543 210 529.5 231Q516 252 516 284V294Q516 308 521.5 326.5Q527 345 542 362Q557 379 583 391Q609 403 650 403Q690 403 716 391Q742 379 757 362Q772 345 778 326.5Q784 308 784 294V284Q784 252 770.5 231Q757 210 739 199Q759 188 773.5 166.5Q788 145 788 113V102Q788 51 751 19Q714 -13 650 -13ZM45 0 621 780H755L179 0Z" glyph-name="uni215C" horiz-adv-x="800" unicode="&#8540;" /><glyph d="M651 251Q664 251 664 274V278Q664 301 651 301H649Q636 301 636 278V274Q636 251 649 251ZM648 147Q638 147 634.5 139.5Q631 132 631 120V116Q631 104 635.5 96.5Q640 89 648 89H652Q660 89 664.5 96.5Q669 104 669 116V120Q669 132 665.5 139.5Q662 147 652 147ZM131 515Q131 495 136.5 488Q142 481 147 481H151Q158 481 163.5 488.5Q169 496 169 511V516Q169 546 145 546H144Q131 546 120 535L16 570L25 780H281V676H124L122 637Q133 640 144 642Q155 644 168 644Q228 644 258 609Q288 574 288 519V507Q288 443 251 410Q214 377 150 377Q86 377 48.5 412Q11 447 11 507V515ZM650 -13Q586 -13 549 19Q512 51 512 102V113Q512 145 526.5 166.5Q541 188 561 199Q543 210 529.5 231Q516 252 516 284V294Q516 308 521.5 326.5Q527 345 542 362Q557 379 583 391Q609 403 650 403Q690 403 716 391Q742 379 757 362Q772 345 778 326.5Q784 308 784 294V284Q784 252 770.5 231Q757 210 739 199Q759 188 773.5 166.5Q788 145 788 113V102Q788 51 751 19Q714 -13 650 -13ZM45 0 621 780H755L179 0Z" glyph-name="uni215D" horiz-adv-x="800" unicode="&#8541;" /><glyph d="M651 251Q664 251 664 274V278Q664 301 651 301H649Q636 301 636 278V274Q636 251 649 251ZM648 147Q638 147 634.5 139.5Q631 132 631 120V116Q631 104 635.5 96.5Q640 89 648 89H652Q660 89 664.5 96.5Q669 104 669 116V120Q669 132 665.5 139.5Q662 147 652 147ZM8 780H292V706L164 390H36L160 676H112V640H8ZM650 -13Q586 -13 549 19Q512 51 512 102V113Q512 145 526.5 166.5Q541 188 561 199Q543 210 529.5 231Q516 252 516 284V294Q516 308 521.5 326.5Q527 345 542 362Q557 379 583 391Q609 403 650 403Q690 403 716 391Q742 379 757 362Q772 345 778 326.5Q784 308 784 294V284Q784 252 770.5 231Q757 210 739 199Q759 188 773.5 166.5Q788 145 788 113V102Q788 51 751 19Q714 -13 650 -13ZM45 0 621 780H755L179 0Z" glyph-name="uni215E" horiz-adv-x="800" unicode="&#8542;" /><glyph d="M27 390V493H99V635L64 612L5 697L129 781H219V493H290V390ZM45 0 621 780H755L179 0Z" glyph-name="uni215F" horiz-adv-x="500" unicode="&#8543;" /><glyph d="M70 0V780H850V639H310L864 86L764 -14L211 540V0Z" glyph-name="uni2196" horiz-adv-x="920" unicode="&#8598;" /><glyph d="M70 780H850V0H709V540L156 -14L56 86L610 639H70Z" glyph-name="uni2197" horiz-adv-x="920" unicode="&#8599;" /><glyph d="M70 141H610L56 694L156 794L709 240V780H850V0H70Z" glyph-name="uni2198" horiz-adv-x="920" unicode="&#8600;" /><glyph d="M850 0H70V780H211V240L764 794L864 694L310 141H850Z" glyph-name="uni2199" horiz-adv-x="920" unicode="&#8601;" /><glyph d="M852 -1 798 -55 7 275 116 386 727 124 466 735 577 845 906 54Z" glyph-name="uni25E2" horiz-adv-x="930" unicode="&#9698;" /><glyph d="M24 54 353 845 464 735 202 124 814 386 923 275 132 -55 78 -1Z" glyph-name="uni25E3" horiz-adv-x="930" unicode="&#9699;" /><glyph d="M132 836 923 507 814 396 202 657 464 46 353 -63 24 728Z" glyph-name="uni25E4" horiz-adv-x="930" unicode="&#9700;" /><glyph d="M577 -63 466 46 727 657 116 396 7 507 798 836 906 728Z" glyph-name="uni25E5" horiz-adv-x="930" unicode="&#9701;" /><glyph d="M180 -10 279 297 19 486H341L440 792L539 486H861L601 297L700 -10L440 180Z" glyph-name="uni2605" horiz-adv-x="880" unicode="&#9733;" /><glyph d="M479 -11 437 191Q437 189 436.5 182.5Q436 176 433.5 166.5Q431 157 425 146Q419 135 408 125Q396 114 384 106Q372 98 362 90Q352 82 346 72Q340 62 340 47Q340 39 342 33Q344 27 346 22Q349 17 352 12Q329 19 317.5 36.5Q306 54 306 74Q306 104 327 125Q349 147 358.5 174.5Q368 202 368 220L196 107L309 279Q308 278 303 273.5Q298 269 290 264.5Q282 260 270 256.5Q258 253 243 253Q229 253 211.5 257Q194 261 181 261Q161 261 149 253.5Q137 246 131 237Q124 226 122 213Q114 227 114 241Q114 270 134.5 290Q155 310 185 310Q202 310 218.5 315Q235 320 248.5 326.5Q262 333 270.5 339.5Q279 346 281 348L79 390L281 432Q279 432 272.5 432.5Q266 433 256.5 435.5Q247 438 236 444Q225 450 215 461Q204 473 196 485Q188 497 180 507Q172 517 162 523Q152 529 137 529Q129 529 123 527Q117 525 112 523Q107 520 102 517Q109 540 126.5 551.5Q144 563 164 563Q194 563 215 542Q237 520 264.5 510.5Q292 501 310 501L197 673L369 560Q368 561 363.5 566Q359 571 354.5 579Q350 587 346.5 599Q343 611 343 626Q343 640 347 657.5Q351 675 351 688Q351 708 343.5 720Q336 732 327 738Q316 745 303 747Q317 755 331 755Q360 755 380 734.5Q400 714 400 684Q400 667 405 650.5Q410 634 416.5 620.5Q423 607 429.5 598Q436 589 438 588L480 790L522 588Q522 589 522.5 596Q523 603 525.5 612.5Q528 622 534 633Q540 644 551 654Q563 665 575 673Q587 681 597 689Q607 697 613 707Q619 717 619 732Q619 740 617 746Q615 752 613 757Q610 762 607 767Q630 760 641.5 742.5Q653 725 653 705Q653 675 632 654Q610 632 600.5 604.5Q591 577 591 559L763 672L650 500Q651 501 656 505.5Q661 510 669 514.5Q677 519 689 522.5Q701 526 716 526Q730 526 747.5 522Q765 518 778 518Q798 518 810 525.5Q822 533 828 542Q835 553 837 566Q845 552 845 538Q845 509 824.5 489Q804 469 774 469Q757 469 740.5 464Q724 459 710.5 452.5Q697 446 688 439.5Q679 433 678 431L880 389L678 347Q679 347 686 346.5Q693 346 702.5 343.5Q712 341 723 335Q734 329 744 318Q755 306 763 294Q771 282 779 272Q787 262 797 256Q807 250 822 250Q830 250 836 252Q842 254 847 256Q852 259 857 262Q850 239 832.5 227.5Q815 216 795 216Q765 216 744 237Q722 259 694.5 268.5Q667 278 649 278L762 106L590 219Q591 218 595.5 213Q600 208 604.5 200Q609 192 612.5 180Q616 168 616 153Q616 139 612 121.5Q608 104 608 91Q608 71 615.5 59Q623 47 632 41Q643 34 656 32Q642 24 628 24Q599 24 579 44.5Q559 65 559 95Q559 112 554 128.5Q549 145 542.5 158.5Q536 172 529.5 180.5Q523 189 521 191Z" glyph-name="uni263C" horiz-adv-x="960" unicode="&#9788;" /><glyph d="M624 728Q557 728 498 701.5Q439 675 395 629Q351 583 325.5 521.5Q300 460 300 390Q300 320 325.5 258.5Q351 197 395 151Q439 105 498 78.5Q557 52 624 52Q673 52 720 67Q669 30 607.5 10Q546 -10 480 -10Q397 -10 324 21.5Q251 53 197 107Q143 161 111.5 234Q80 307 80 390Q80 473 111.5 546Q143 619 197 673Q251 727 324 758.5Q397 790 480 790Q546 790 607.5 769.5Q669 749 720 713Q697 720 673 724Q649 728 624 728Z" glyph-name="uni263E" horiz-adv-x="960" unicode="&#9790;" /><glyph d="M875 410Q879 403 882 391.5Q885 380 885 366Q885 340 873.5 317Q862 294 845 277Q828 260 808.5 250Q789 240 773 240L657 441L806 527ZM311 41Q303 41 290.5 44Q278 47 267 54Q244 67 230 88.5Q216 110 209.5 133Q203 156 204.5 178Q206 200 214 214H446V41ZM267 717Q271 724 280 732.5Q289 741 301 748Q323 761 348.5 762.5Q374 764 397.5 758Q421 752 439.5 739.5Q458 727 466 713L350 512L200 598ZM404 780H597Q611 780 623.5 778.5Q636 777 647.5 772.5Q659 768 669 759Q679 750 689 733L717 684L760 708L699 542L526 573L567 597L495 722Q484 742 468 753Q452 764 438 770Q421 777 404 779ZM184 122 88 290Q82 302 76.5 313.5Q71 325 69.5 337Q68 349 71 362.5Q74 376 84 393L112 442L70 466L244 497L303 331L262 355Q243 321 227 294Q213 271 202 251.5Q191 232 190 230Q179 210 177 191.5Q175 173 177 157Q180 139 186 122ZM864 264 768 97Q760 85 753 75Q746 65 736 57.5Q726 50 713 45.5Q700 41 680 41H623V-8L510 128L623 263V214H768Q790 214 808 222Q826 230 838 240Q852 251 863 266Z" glyph-name="uni267B" horiz-adv-x="960" unicode="&#9851;" /><glyph d="M64 390Q64 472 95 544Q126 616 180 670Q234 724 306 755Q378 786 460 786Q542 786 614 755Q686 724 740 670Q794 616 825 544Q856 472 856 390Q856 308 825 236Q794 164 740 110Q686 56 614 25Q542 -6 460 -6Q378 -6 306 25Q234 56 180 110Q126 164 95 236Q64 308 64 390ZM754 295Q745 284 734 275Q724 267 710.5 261Q697 255 680 255H568V293L480 188L568 83V121H612Q643 121 656 133.5Q669 146 680 164L755 294ZM710 498 594 431 684 275Q696 275 711.5 282.5Q727 290 740.5 303.5Q754 317 762.5 335Q771 353 771 373Q771 384 768.5 393Q766 402 763 407ZM229 184Q224 197 222 211Q220 223 221.5 238Q223 253 232 268L288 365L320 346L274 475L139 451L172 432L150 394Q134 368 138.5 350.5Q143 333 153 314L228 184ZM427 121V255H247Q241 244 240 227Q239 210 243.5 192Q248 174 259 157.5Q270 141 288 131Q297 126 306.5 123.5Q316 121 322 121ZM394 693Q408 691 421 686Q432 681 444 672Q456 663 465 649L521 552L489 533L623 509L670 638L637 619L615 657Q600 683 583 688.5Q566 694 544 694H394ZM240 553 356 486 446 642Q440 653 425.5 662.5Q411 672 393 676.5Q375 681 355 680Q335 679 318 669Q309 664 302 657Q295 650 292 645Z" glyph-name="uni267C" horiz-adv-x="960" unicode="&#9852;" /><glyph d="M98 390Q98 315 126.5 249Q155 183 204 134Q253 85 319 56.5Q385 28 460 28Q535 28 601 56.5Q667 85 716 134Q765 183 793.5 249Q822 315 822 390Q822 465 793.5 531Q765 597 716 646Q667 695 601 723.5Q535 752 460 752Q385 752 319 723.5Q253 695 204 646Q155 597 126.5 531Q98 465 98 390ZM60 390Q60 473 91.5 546Q123 619 177 673Q231 727 304 758.5Q377 790 460 790Q543 790 616 758.5Q689 727 743 673Q797 619 828.5 546Q860 473 860 390Q860 307 828.5 234Q797 161 743 107Q689 53 616 21.5Q543 -10 460 -10Q377 -10 304 21.5Q231 53 177 107Q123 161 91.5 234Q60 307 60 390ZM755 294 680 164Q669 146 656 133.5Q643 121 612 121H568V83L480 188L568 293V255H680Q697 255 710.5 261Q724 267 734 275Q745 284 754 295ZM763 407Q766 402 768.5 393Q771 384 771 373Q771 353 762.5 335Q754 317 740.5 303.5Q727 290 711.5 282.5Q696 275 684 275L594 431L710 498ZM228 184 153 314Q143 333 138.5 350.5Q134 368 150 394L172 432L139 451L274 475L320 346L288 365L232 268Q223 253 221.5 238Q220 223 222 211Q224 197 229 184ZM322 121Q316 121 306.5 123.5Q297 126 288 131Q270 141 259 157.5Q248 174 243.5 192Q239 210 240 227Q241 244 247 255H427V121ZM394 694H544Q566 694 583 688.5Q600 683 615 657L637 619L670 638L623 509L489 533L521 552L465 649Q456 663 444 672Q432 681 421 686Q408 691 394 693ZM292 645Q295 650 302 657Q309 664 318 669Q335 679 355 680Q375 681 393 676.5Q411 672 425.5 662.5Q440 653 446 642L356 486L240 553Z" glyph-name="uni267D" horiz-adv-x="960" unicode="&#9853;" /><glyph d="M205 530V197Q205 183 208.5 169.5Q212 156 220 145.5Q228 135 241.5 129Q255 123 275 123Q294 123 309 128Q324 133 335.5 140.5Q347 148 355 157Q363 166 368 173V530H526V150L535 0Q506 -13 489.5 -29.5Q473 -46 473 -69Q473 -85 484.5 -95Q496 -105 516 -105Q530 -105 541 -101.5Q552 -98 558 -94L594 -190Q578 -200 550 -207.5Q522 -215 491 -215Q430 -215 393 -188.5Q356 -162 356 -107Q356 -77 366.5 -51Q377 -25 395 -5L382 67Q356 32 314.5 9.5Q273 -13 212 -13Q167 -13 135.5 2Q104 17 84.5 42.5Q65 68 56.5 101.5Q48 135 48 171V530Z" glyph-name="uogonek" horiz-adv-x="580" unicode="&#371;" /><glyph d="M235 688Q235 667 250 652Q265 637 286 637Q307 637 322 652Q337 667 337 688Q337 709 322 723.5Q307 738 286 738Q265 738 250 723.5Q235 709 235 688ZM181 688Q181 710 189 729Q197 748 211.5 762Q226 776 245 784.5Q264 793 286 793Q308 793 327 784.5Q346 776 360 762Q374 748 382.5 729Q391 710 391 688Q391 666 382.5 647Q374 628 360 613.5Q346 599 327 590.5Q308 582 286 582Q264 582 245 590.5Q226 599 211.5 613.5Q197 628 189 647Q181 666 181 688ZM205 530V197Q205 183 208.5 169.5Q212 156 220 145.5Q228 135 241.5 129Q255 123 275 123Q294 123 309 128Q324 133 335.5 140.5Q347 148 355 157Q363 166 368 173V530H526V150L535 0H394L382 67Q356 32 314.5 9.5Q273 -13 212 -13Q167 -13 135.5 2Q104 17 84.5 42.5Q65 68 56.5 101.5Q48 135 48 171V530Z" glyph-name="uring" horiz-adv-x="580" unicode="&#367;" /><glyph d="M487 772Q487 730 478.5 700Q470 670 455 650.5Q440 631 419.5 622Q399 613 376 613Q352 613 330.5 621Q309 629 289.5 639Q270 649 253 657Q236 665 221 665Q207 665 198.5 656.5Q190 648 190 628H85Q85 712 117 749.5Q149 787 196 787Q220 787 241.5 779Q263 771 282.5 761Q302 751 319 743Q336 735 351 735Q365 735 373.5 743.5Q382 752 382 772ZM205 530V197Q205 183 208.5 169.5Q212 156 220 145.5Q228 135 241.5 129Q255 123 275 123Q294 123 309 128Q324 133 335.5 140.5Q347 148 355 157Q363 166 368 173V530H526V150L535 0H394L382 67Q356 32 314.5 9.5Q273 -13 212 -13Q167 -13 135.5 2Q104 17 84.5 42.5Q65 68 56.5 101.5Q48 135 48 171V530Z" glyph-name="utilde" horiz-adv-x="580" unicode="&#361;" /><glyph d="M10 530H173L275 127L376 530H540L385 0H164Z" glyph-name="v" horiz-adv-x="549" unicode="v" /><glyph d="M309 0H110L19 530H174L214 171L288 530H477L552 171L592 530H747L655 0H457L383 365Z" glyph-name="w" horiz-adv-x="766" unicode="w" /><glyph d="M568 780 461 596H305L396 780ZM309 0H110L19 530H174L214 171L288 530H477L552 171L592 530H747L655 0H457L383 365Z" glyph-name="wacute" horiz-adv-x="766" unicode="&#7811;" /><glyph d="M173 596 307 780H459L593 596H455L383 678L311 596ZM309 0H110L19 530H174L214 171L288 530H477L552 171L592 530H747L655 0H457L383 365Z" glyph-name="wcircumflex" horiz-adv-x="766" unicode="&#373;" /><glyph d="M573 606H408V772H573ZM358 606H193V772H358ZM309 0H110L19 530H174L214 171L288 530H477L552 171L592 530H747L655 0H457L383 365Z" glyph-name="wdieresis" horiz-adv-x="766" unicode="&#7813;" /><glyph d="M370 780 461 596H305L198 780ZM309 0H110L19 530H174L214 171L288 530H477L552 171L592 530H747L655 0H457L383 365Z" glyph-name="wgrave" horiz-adv-x="766" unicode="&#7809;" /><glyph d="M196 390Q196 335 216.5 287Q237 239 273 203Q309 167 357 146.5Q405 126 460 126Q515 126 563 146.5Q611 167 647 203Q683 239 703.5 287Q724 335 724 390Q724 445 703.5 493Q683 541 647 577Q611 613 563 633.5Q515 654 460 654Q405 654 357 633.5Q309 613 273 577Q237 541 216.5 493Q196 445 196 390ZM57 390Q57 474 88.5 547Q120 620 175 675Q230 730 303 761.5Q376 793 460 793Q544 793 617 761.5Q690 730 745 675Q800 620 831.5 547Q863 474 863 390Q863 306 831.5 233Q800 160 745 105Q690 50 617 18.5Q544 -13 460 -13Q376 -13 303 18.5Q230 50 175 105Q120 160 88.5 233Q57 306 57 390Z" glyph-name="whitecircle" horiz-adv-x="920" unicode="&#9675;" /><glyph d="M209 391V139H461V391ZM600 530V0H70V530Z" glyph-name="whitesmallsquare" horiz-adv-x="680" unicode="&#9643;" /><glyph d="M209 641V139H711V641ZM70 0V780H850V0Z" glyph-name="whitesquare" horiz-adv-x="920" unicode="&#9633;" /><glyph d="M199 530 279 351 359 530H542L406 274L542 0H364L279 190L195 0H17L152 274L17 530Z" glyph-name="x" horiz-adv-x="558" unicode="x" /><glyph d="M377 530H549L362 28L294 -200H106L191 28L5 530H177L277 192Z" glyph-name="y" horiz-adv-x="551" unicode="y" /><glyph d="M462 780 355 596H199L290 780ZM377 530H549L362 28L294 -200H106L191 28L5 530H177L277 192Z" glyph-name="yacute" horiz-adv-x="551" unicode="&#253;" /><glyph d="M67 596 201 780H353L487 596H349L277 678L205 596ZM377 530H549L362 28L294 -200H106L191 28L5 530H177L277 192Z" glyph-name="ycircumflex" horiz-adv-x="551" unicode="&#375;" /><glyph d="M252 606H87V772H252ZM467 606H302V772H467ZM377 530H549L362 28L294 -200H106L191 28L5 530H177L277 192Z" glyph-name="ydieresis" horiz-adv-x="551" unicode="&#255;" /><glyph d="M41 480H132L7 780H185L300 446L415 780H593L467 480H559V342H409L383 280H559V142H381V0H219V142H41V280H216L190 342H41Z" glyph-name="yen" horiz-adv-x="600" unicode="&#165;" /><glyph d="M264 780 355 596H199L92 780ZM377 530H549L362 28L294 -200H106L191 28L5 530H177L277 192Z" glyph-name="ygrave" horiz-adv-x="551" unicode="&#7923;" /><glyph d="M127 757H427V619H127ZM377 530H549L362 28L294 -200H106L191 28L5 530H177L277 192Z" glyph-name="ymacron" horiz-adv-x="551" unicode="&#563;" /><glyph d="M258 395 148 392H34V530H465V422L231 135L341 138H475V0H24V108Z" glyph-name="z" horiz-adv-x="499" unicode="z" /><glyph d="M258 395 148 392H34V530H465V422L231 135L341 138H475V0H24V108ZM434 780 327 596H171L262 780Z" glyph-name="zacute" horiz-adv-x="499" unicode="&#378;" /><glyph d="M258 395 148 392H34V530H465V422L231 135L341 138H475V0H24V108ZM177 780 249 697 321 780H459L325 596H173L39 780Z" glyph-name="zcaron" horiz-adv-x="499" unicode="&#382;" /><glyph d="M332 606H166V772H332ZM258 395 148 392H34V530H465V422L231 135L341 138H475V0H24V108Z" glyph-name="zdotaccent" horiz-adv-x="499" unicode="&#380;" /><glyph d="M395 557Q395 600 372.5 626.5Q350 653 302 653H298Q250 653 227.5 626.5Q205 600 205 557V223Q205 180 227.5 153.5Q250 127 298 127H302Q350 127 372.5 153.5Q395 180 395 223ZM555 221Q555 170 539 127.5Q523 85 491 53.5Q459 22 411.5 4.5Q364 -13 300 -13Q236 -13 188.5 4.5Q141 22 109 53.5Q77 85 61 127.5Q45 170 45 221V559Q45 610 61 652.5Q77 695 109 726.5Q141 758 188.5 775.5Q236 793 300 793Q364 793 411.5 775.5Q459 758 491 726.5Q523 695 539 652.5Q555 610 555 559Z" glyph-name="zero" horiz-adv-x="600" unicode="0" /><glyph d="M133 -94Q133 -100 137 -104.5Q141 -109 148 -109H152Q159 -109 163 -104.5Q167 -100 167 -94V84Q167 90 163 94.5Q159 99 152 99H148Q141 99 137 94.5Q133 90 133 84ZM287 -96Q287 -147 250.5 -180Q214 -213 150 -213Q86 -213 49.5 -180Q13 -147 13 -96V86Q13 137 49.5 170Q86 203 150 203Q214 203 250.5 170Q287 137 287 86Z" glyph-name="zero.inf" horiz-adv-x="300" unicode="&#58737;" /><glyph glyph-name="zerowidthspace" horiz-adv-x="0" unicode="&#8203;" /></font>
</defs>
</svg>
