<?xml version="1.0" standalone="no"?><!DOCTYPE svg PUBLIC "-//W3C//DTD SVG 1.1//EN" "http://www.w3.org/Graphics/SVG/1.1/DTD/svg11.dtd" ><svg version="1.1" xmlns="http://www.w3.org/2000/svg"><defs><font horiz-adv-x="0" id="font"><font-face ascent="750" bbox="-220 -214 1379 962" cap-height="780" descent="-250" font-family="Cooper Hewitt" font-stretch="normal" font-style="normal" font-weight="600" units-per-em="1000" x-height="530" /><missing-glyph d="M804 115V665L529 390ZM164 665V115L439 390ZM484 435 763 714H205ZM205 66H763L484 345ZM94 780H874V0H94Z" horiz-adv-x="968" /><glyph d="M181 265H429L305 709ZM357 788 582 0H504L448 200H163L107 0H29L254 788Z" glyph-name="A" horiz-adv-x="611" unicode="A" /><glyph d="M195 272H410L350 703ZM797 780V715H419L461 430H747V366H470L514 65H797V0H448L419 208H172L97 0H20L309 780Z" glyph-name="AE" horiz-adv-x="837" unicode="&#198;" /><glyph d="M403 950 341 840H269L329 950ZM181 265H429L305 709ZM357 788 582 0H504L448 200H163L107 0H29L254 788Z" glyph-name="Aacute" horiz-adv-x="611" unicode="&#193;" /><glyph d="M305 829Q266 829 238 838Q210 847 193 863.5Q176 880 168 902Q160 924 160 950H216Q216 917 237 898Q258 879 305 879Q352 879 373 898Q394 917 394 950H450Q450 924 442 902Q434 880 417 863.5Q400 847 372 838Q344 829 305 829ZM181 265H429L305 709ZM357 788 582 0H504L448 200H163L107 0H29L254 788Z" glyph-name="Abreve" horiz-adv-x="611" unicode="&#258;" /><glyph d="M167 840 273 950H337L443 840H373L305 906L237 840ZM181 265H429L305 709ZM357 788 582 0H504L448 200H163L107 0H29L254 788Z" glyph-name="Acircumflex" horiz-adv-x="611" unicode="&#194;" /><glyph d="M423 860H344V930H423ZM266 860H187V930H266ZM181 265H429L305 709ZM357 788 582 0H504L448 200H163L107 0H29L254 788Z" glyph-name="Adieresis" horiz-adv-x="611" unicode="&#196;" /><glyph d="M281 950 341 840H269L207 950ZM181 265H429L305 709ZM357 788 582 0H504L448 200H163L107 0H29L254 788Z" glyph-name="Agrave" horiz-adv-x="611" unicode="&#192;" /><glyph d="M192 922H418V868H192ZM181 265H429L305 709ZM357 788 582 0H504L448 200H163L107 0H29L254 788Z" glyph-name="Amacron" horiz-adv-x="611" unicode="&#256;" /><glyph d="M357 788 582 0H504L305 709L107 0H29L254 788Z" glyph-name="Anocross" horiz-adv-x="611" unicode="&#59185;" /><glyph d="M181 265H429L305 709ZM499 -103Q499 -125 513.5 -139Q528 -153 555 -153Q573 -153 590 -149Q607 -145 618 -139L637 -191Q621 -201 596.5 -206Q572 -211 548 -211Q499 -211 469 -188Q439 -165 439 -113Q439 -74 457 -43.5Q475 -13 502 7L448 200H163L107 0H29L254 788H357L582 0Q549 -14 524 -39.5Q499 -65 499 -103Z" glyph-name="Aogonek" horiz-adv-x="611" unicode="&#260;" /><glyph d="M249 867Q249 844 265.5 827.5Q282 811 305 811Q328 811 344.5 827.5Q361 844 361 867Q361 890 344.5 906.5Q328 923 305 923Q282 923 265.5 906.5Q249 890 249 867ZM181 265H429L305 709ZM211 867Q211 886 218.5 903.5Q226 921 238.5 933.5Q251 946 268 953.5Q285 961 305 961Q324 961 341.5 953.5Q359 946 371.5 933.5Q384 921 391.5 903.5Q399 886 399 867Q399 842 387.5 821Q376 800 356 788H357L582 0H504L448 200H163L107 0H29L254 788Q234 800 222.5 821Q211 842 211 867Z" glyph-name="Aring" horiz-adv-x="611" unicode="&#197;" /><glyph d="M457 936Q457 887 435 865Q413 843 378 843Q355 843 336 851.5Q317 860 300.5 870Q284 880 269.5 888.5Q255 897 240 897Q225 897 214 888Q203 879 203 854H153Q153 903 175 925Q197 947 232 947Q255 947 274 938.5Q293 930 309.5 920Q326 910 340.5 901.5Q355 893 370 893Q385 893 396 902Q407 911 407 936ZM181 265H429L305 709ZM357 788 582 0H504L448 200H163L107 0H29L254 788Z" glyph-name="Atilde" horiz-adv-x="611" unicode="&#195;" /><glyph d="M146 715V433H275Q308 433 337 440Q366 447 387.5 463Q409 479 422 504.5Q435 530 435 566V582Q435 618 422 643.5Q409 669 387.5 685Q366 701 337 708Q308 715 275 715ZM146 368V65H293Q326 65 355.5 73Q385 81 407 98.5Q429 116 442 143.5Q455 171 455 209V224Q455 262 442 289.5Q429 317 407 334.5Q385 352 355.5 360Q326 368 293 368ZM272 780Q321 780 364 769.5Q407 759 439 735.5Q471 712 490 674.5Q509 637 509 584V564Q509 498 476.5 459.5Q444 421 393 403Q453 385 491 343Q529 301 529 226V206Q529 150 510 111Q491 72 458 47.5Q425 23 381 11.5Q337 0 288 0H74V780Z" glyph-name="B" horiz-adv-x="586" unicode="B" /><glyph d="M314 860H234V930H314ZM146 715V433H275Q308 433 337 440Q366 447 387.5 463Q409 479 422 504.5Q435 530 435 566V582Q435 618 422 643.5Q409 669 387.5 685Q366 701 337 708Q308 715 275 715ZM146 368V65H293Q326 65 355.5 73Q385 81 407 98.5Q429 116 442 143.5Q455 171 455 209V224Q455 262 442 289.5Q429 317 407 334.5Q385 352 355.5 360Q326 368 293 368ZM272 780Q321 780 364 769.5Q407 759 439 735.5Q471 712 490 674.5Q509 637 509 584V564Q509 498 476.5 459.5Q444 421 393 403Q453 385 491 343Q529 301 529 226V206Q529 150 510 111Q491 72 458 47.5Q425 23 381 11.5Q337 0 288 0H74V780Z" glyph-name="Bdotaccent" horiz-adv-x="586" unicode="&#7682;" /><glyph d="M131 370Q131 287 142.5 227Q154 167 177 128.5Q200 90 236 72Q272 54 321 54H328Q416 54 455 105.5Q494 157 494 254H568V244Q568 120 507.5 54.5Q447 -11 322 -11Q255 -11 205 10.5Q155 32 122 78Q89 124 73 196.5Q57 269 57 370V410Q57 511 73 583.5Q89 656 122 702Q155 748 205 769.5Q255 791 322 791Q447 791 507.5 724Q568 657 568 524V496H494Q494 617 455 671.5Q416 726 328 726H321Q223 726 177 651Q131 576 131 410Z" glyph-name="C" horiz-adv-x="618" unicode="C" /><glyph d="M420 950 358 840H286L346 950ZM131 370Q131 287 142.5 227Q154 167 177 128.5Q200 90 236 72Q272 54 321 54H328Q416 54 455 105.5Q494 157 494 254H568V244Q568 120 507.5 54.5Q447 -11 322 -11Q255 -11 205 10.5Q155 32 122 78Q89 124 73 196.5Q57 269 57 370V410Q57 511 73 583.5Q89 656 122 702Q155 748 205 769.5Q255 791 322 791Q447 791 507.5 724Q568 657 568 524V496H494Q494 617 455 671.5Q416 726 328 726H321Q223 726 177 651Q131 576 131 410Z" glyph-name="Cacute" horiz-adv-x="618" unicode="&#262;" /><glyph d="M254 950 322 883 390 950H460L354 840H290L184 950ZM131 370Q131 287 142.5 227Q154 167 177 128.5Q200 90 236 72Q272 54 321 54H328Q416 54 455 105.5Q494 157 494 254H568V244Q568 120 507.5 54.5Q447 -11 322 -11Q255 -11 205 10.5Q155 32 122 78Q89 124 73 196.5Q57 269 57 370V410Q57 511 73 583.5Q89 656 122 702Q155 748 205 769.5Q255 791 322 791Q447 791 507.5 724Q568 657 568 524V496H494Q494 617 455 671.5Q416 726 328 726H321Q223 726 177 651Q131 576 131 410Z" glyph-name="Ccaron" horiz-adv-x="618" unicode="&#268;" /><glyph d="M255 -147Q268 -154 286.5 -158Q305 -162 325 -162Q354 -162 368.5 -155.5Q383 -149 383 -131Q383 -114 366.5 -107Q350 -100 321 -100Q311 -100 301 -102Q297 -103 292 -103L273 -80L300 -10Q238 -7 192.5 16.5Q147 40 117 86Q87 132 72 202.5Q57 273 57 370V410Q57 511 73 583.5Q89 656 122 702Q155 748 205 769.5Q255 791 322 791Q447 791 507.5 724Q568 657 568 524V496H494Q494 617 455 671.5Q416 726 328 726H321Q223 726 177 651Q131 576 131 410V370Q131 287 142.5 227Q154 167 177 128.5Q200 90 236 72Q272 54 321 54H328Q416 54 455 105.5Q494 157 494 254H568V244Q568 126 514 61.5Q460 -3 348 -10L331 -56H335Q353 -56 371 -60Q389 -64 403.5 -73.5Q418 -83 426.5 -97.5Q435 -112 435 -133Q435 -175 406.5 -193Q378 -211 332 -211Q304 -211 279.5 -206Q255 -201 240 -191Z" glyph-name="Ccedilla" horiz-adv-x="618" unicode="&#199;" /><glyph d="M184 840 290 950H354L460 840H390L322 906L254 840ZM131 370Q131 287 142.5 227Q154 167 177 128.5Q200 90 236 72Q272 54 321 54H328Q416 54 455 105.5Q494 157 494 254H568V244Q568 120 507.5 54.5Q447 -11 322 -11Q255 -11 205 10.5Q155 32 122 78Q89 124 73 196.5Q57 269 57 370V410Q57 511 73 583.5Q89 656 122 702Q155 748 205 769.5Q255 791 322 791Q447 791 507.5 724Q568 657 568 524V496H494Q494 617 455 671.5Q416 726 328 726H321Q223 726 177 651Q131 576 131 410Z" glyph-name="Ccircumflex" horiz-adv-x="618" unicode="&#264;" /><glyph d="M362 860H282V930H362ZM131 370Q131 287 142.5 227Q154 167 177 128.5Q200 90 236 72Q272 54 321 54H328Q416 54 455 105.5Q494 157 494 254H568V244Q568 120 507.5 54.5Q447 -11 322 -11Q255 -11 205 10.5Q155 32 122 78Q89 124 73 196.5Q57 269 57 370V410Q57 511 73 583.5Q89 656 122 702Q155 748 205 769.5Q255 791 322 791Q447 791 507.5 724Q568 657 568 524V496H494Q494 617 455 671.5Q416 726 328 726H321Q223 726 177 651Q131 576 131 410Z" glyph-name="Cdotaccent" horiz-adv-x="618" unicode="&#266;" /><glyph d="M274 65Q330 65 373.5 81.5Q417 98 447 134.5Q477 171 492.5 229Q508 287 508 370V410Q508 493 492.5 551Q477 609 447 645.5Q417 682 373.5 698.5Q330 715 274 715H146V65ZM582 370Q582 269 561.5 198.5Q541 128 502 84Q463 40 407 20Q351 0 280 0H74V780H280Q351 780 407 760Q463 740 502 696Q541 652 561.5 581.5Q582 511 582 410Z" glyph-name="D" horiz-adv-x="639" unicode="D" /><glyph d="M224 950 292 883 360 950H430L324 840H260L154 950ZM274 65Q330 65 373.5 81.5Q417 98 447 134.5Q477 171 492.5 229Q508 287 508 370V410Q508 493 492.5 551Q477 609 447 645.5Q417 682 373.5 698.5Q330 715 274 715H146V65ZM582 370Q582 269 561.5 198.5Q541 128 502 84Q463 40 407 20Q351 0 280 0H74V780H280Q351 780 407 760Q463 740 502 696Q541 652 561.5 581.5Q582 511 582 410Z" glyph-name="Dcaron" horiz-adv-x="639" unicode="&#270;" /><glyph d="M206 428H419V369H206V65H334Q390 65 433.5 81.5Q477 98 507 134.5Q537 171 552.5 229Q568 287 568 370V410Q568 493 552.5 551Q537 609 507 645.5Q477 682 433.5 698.5Q390 715 334 715H206ZM18 428H134V780H340Q411 780 467 760Q523 740 562 696Q601 652 621.5 581.5Q642 511 642 410V370Q642 269 621.5 198.5Q601 128 562 84Q523 40 467 20Q411 0 340 0H134V369H18Z" glyph-name="Dcroat" horiz-adv-x="699" unicode="&#272;" /><glyph d="M332 860H252V930H332ZM274 65Q330 65 373.5 81.5Q417 98 447 134.5Q477 171 492.5 229Q508 287 508 370V410Q508 493 492.5 551Q477 609 447 645.5Q417 682 373.5 698.5Q330 715 274 715H146V65ZM582 370Q582 269 561.5 198.5Q541 128 502 84Q463 40 407 20Q351 0 280 0H74V780H280Q351 780 407 760Q463 740 502 696Q541 652 561.5 581.5Q582 511 582 410Z" glyph-name="Ddotaccent" horiz-adv-x="639" unicode="&#7690;" /><glyph d="M509 780V715H146V430H459V366H146V65H509V0H74V780Z" glyph-name="E" horiz-adv-x="549" unicode="E" /><glyph d="M397 950 335 840H263L323 950ZM509 780V715H146V430H459V366H146V65H509V0H74V780Z" glyph-name="Eacute" horiz-adv-x="549" unicode="&#201;" /><glyph d="M509 780V715H146V430H459V366H146V65H509V0H74V780ZM299 829Q260 829 232 838Q204 847 187 863.5Q170 880 162 902Q154 924 154 950H210Q210 917 231 898Q252 879 299 879Q346 879 367 898Q388 917 388 950H444Q444 924 436 902Q428 880 411 863.5Q394 847 366 838Q338 829 299 829Z" glyph-name="Ebreve" horiz-adv-x="549" unicode="&#276;" /><glyph d="M231 950 299 883 367 950H437L331 840H267L161 950ZM509 780V715H146V430H459V366H146V65H509V0H74V780Z" glyph-name="Ecaron" horiz-adv-x="549" unicode="&#282;" /><glyph d="M161 840 267 950H331L437 840H367L299 906L231 840ZM509 780V715H146V430H459V366H146V65H509V0H74V780Z" glyph-name="Ecircumflex" horiz-adv-x="549" unicode="&#202;" /><glyph d="M417 860H338V930H417ZM260 860H181V930H260ZM509 780V715H146V430H459V366H146V65H509V0H74V780Z" glyph-name="Edieresis" horiz-adv-x="549" unicode="&#203;" /><glyph d="M339 860H259V930H339ZM509 780V715H146V430H459V366H146V65H509V0H74V780Z" glyph-name="Edotaccent" horiz-adv-x="549" unicode="&#278;" /><glyph d="M275 950 335 840H263L201 950ZM509 780V715H146V430H459V366H146V65H509V0H74V780Z" glyph-name="Egrave" horiz-adv-x="549" unicode="&#200;" /><glyph d="M186 922H412V868H186ZM509 780V715H146V430H459V366H146V65H509V0H74V780Z" glyph-name="Emacron" horiz-adv-x="549" unicode="&#274;" /><glyph d="M514 -14 138 658 142 477V0H74V780H152L520 122L517 303V780H585V-52Q585 -96 573.5 -126Q562 -156 541.5 -175Q521 -194 492.5 -202.5Q464 -211 430 -211Q398 -211 379.5 -206.5Q361 -202 356 -200V-139Q362 -141 379 -144Q396 -147 413 -147Q438 -147 456.5 -142.5Q475 -138 488 -127Q501 -116 507.5 -96Q514 -76 514 -44Z" glyph-name="Eng" horiz-adv-x="659" unicode="&#330;" /><glyph d="M509 780V715H146V430H459V366H146V65H509V0H508Q475 -14 450 -39.5Q425 -65 425 -103Q425 -125 439.5 -139Q454 -153 481 -153Q499 -153 516 -149Q533 -145 544 -139L563 -191Q547 -201 522.5 -206Q498 -211 474 -211Q425 -211 395 -188Q365 -165 365 -113Q365 -77 380 -48.5Q395 -20 419 0H74V780Z" glyph-name="Eogonek" horiz-adv-x="549" unicode="&#280;" /><glyph d="M465 711Q441 719 413 722.5Q385 726 356 726Q309 726 269.5 716.5Q230 707 201.5 685Q173 663 157 625.5Q141 588 141 533V0H69V538Q69 608 89.5 656.5Q110 705 148 735Q186 765 238.5 778Q291 791 356 791Q410 791 456.5 781.5Q503 772 541 751V701L391 444L482 433Q604 417 662.5 363.5Q721 310 721 219V209Q721 105 659 47Q597 -11 489 -11Q372 -11 314 51.5Q256 114 256 244V254H328Q328 199 340 161Q352 123 373 99Q394 75 423 64.5Q452 54 486 54H493Q562 54 604.5 92.5Q647 131 647 204V213Q647 282 599.5 320.5Q552 359 460 371L306 390V440Z" glyph-name="Eszett" horiz-adv-x="757" unicode="&#7838;" /><glyph d="M206 428H419V369H206V65H334Q390 65 433.5 81.5Q477 98 507 134.5Q537 171 552.5 229Q568 287 568 370V410Q568 493 552.5 551Q537 609 507 645.5Q477 682 433.5 698.5Q390 715 334 715H206ZM18 428H134V780H340Q411 780 467 760Q523 740 562 696Q601 652 621.5 581.5Q642 511 642 410V370Q642 269 621.5 198.5Q601 128 562 84Q523 40 467 20Q411 0 340 0H134V369H18Z" glyph-name="Eth" horiz-adv-x="699" unicode="&#208;" /><glyph d="M34 295V360H106V420H34V485H108Q119 647 178.5 719Q238 791 345 791Q458 791 505.5 724Q553 657 553 528V500H488Q488 621 456.5 673.5Q425 726 351 726H344Q275 726 233.5 668.5Q192 611 183 485H449L417 420H180V360H409L377 295H183Q192 168 233.5 111Q275 54 344 54H351Q488 54 488 250H553V240Q553 120 504 54.5Q455 -11 345 -11Q238 -11 178.5 61Q119 133 108 295Z" glyph-name="Euro" horiz-adv-x="600" unicode="&#8364;" /><glyph d="M493 780V715H146V430H443V366H146V0H74V780Z" glyph-name="F" horiz-adv-x="513" unicode="F" /><glyph d="M339 860H259V930H339ZM493 780V715H146V430H443V366H146V0H74V780Z" glyph-name="Fdotaccent" horiz-adv-x="513" unicode="&#7710;" /><glyph d="M341 -11Q270 -11 217 10.5Q164 32 128.5 78Q93 124 75 196.5Q57 269 57 370V410Q57 511 75 583.5Q93 656 127.5 702Q162 748 213 769.5Q264 791 331 791Q457 791 518 724Q579 657 579 524V496H506Q506 617 466.5 671.5Q427 726 337 726H331Q232 726 182 651Q132 576 132 410V370Q132 287 144 227Q156 167 181.5 128.5Q207 90 246 72Q285 54 339 54H346Q406 54 446 72.5Q486 91 507 114V320H373V384H579V79Q563 62 541.5 46Q520 30 491 17.5Q462 5 424.5 -3Q387 -11 341 -11Z" glyph-name="G" horiz-adv-x="648" unicode="G" /><glyph d="M331 829Q292 829 264 838Q236 847 219 863.5Q202 880 194 902Q186 924 186 950H242Q242 917 263 898Q284 879 331 879Q378 879 399 898Q420 917 420 950H476Q476 924 468 902Q460 880 443 863.5Q426 847 398 838Q370 829 331 829ZM341 -11Q270 -11 217 10.5Q164 32 128.5 78Q93 124 75 196.5Q57 269 57 370V410Q57 511 75 583.5Q93 656 127.5 702Q162 748 213 769.5Q264 791 331 791Q457 791 518 724Q579 657 579 524V496H506Q506 617 466.5 671.5Q427 726 337 726H331Q232 726 182 651Q132 576 132 410V370Q132 287 144 227Q156 167 181.5 128.5Q207 90 246 72Q285 54 339 54H346Q406 54 446 72.5Q486 91 507 114V320H373V384H579V79Q563 62 541.5 46Q520 30 491 17.5Q462 5 424.5 -3Q387 -11 341 -11Z" glyph-name="Gbreve" horiz-adv-x="648" unicode="&#286;" /><glyph d="M193 840 299 950H363L469 840H399L331 906L263 840ZM341 -11Q270 -11 217 10.5Q164 32 128.5 78Q93 124 75 196.5Q57 269 57 370V410Q57 511 75 583.5Q93 656 127.5 702Q162 748 213 769.5Q264 791 331 791Q457 791 518 724Q579 657 579 524V496H506Q506 617 466.5 671.5Q427 726 337 726H331Q232 726 182 651Q132 576 132 410V370Q132 287 144 227Q156 167 181.5 128.5Q207 90 246 72Q285 54 339 54H346Q406 54 446 72.5Q486 91 507 114V320H373V384H579V79Q563 62 541.5 46Q520 30 491 17.5Q462 5 424.5 -3Q387 -11 341 -11Z" glyph-name="Gcircumflex" horiz-adv-x="648" unicode="&#284;" /><glyph d="M382 -106Q382 -158 354.5 -186Q327 -214 277 -214V-178Q304 -178 321.5 -165.5Q339 -153 344 -124H300V-56H382ZM341 -11Q270 -11 217 10.5Q164 32 128.5 78Q93 124 75 196.5Q57 269 57 370V410Q57 511 75 583.5Q93 656 127.5 702Q162 748 213 769.5Q264 791 331 791Q457 791 518 724Q579 657 579 524V496H506Q506 617 466.5 671.5Q427 726 337 726H331Q232 726 182 651Q132 576 132 410V370Q132 287 144 227Q156 167 181.5 128.5Q207 90 246 72Q285 54 339 54H346Q406 54 446 72.5Q486 91 507 114V320H373V384H579V79Q563 62 541.5 46Q520 30 491 17.5Q462 5 424.5 -3Q387 -11 341 -11Z" glyph-name="Gcommaaccent" horiz-adv-x="648" unicode="&#290;" /><glyph d="M371 860H291V930H371ZM341 -11Q270 -11 217 10.5Q164 32 128.5 78Q93 124 75 196.5Q57 269 57 370V410Q57 511 75 583.5Q93 656 127.5 702Q162 748 213 769.5Q264 791 331 791Q457 791 518 724Q579 657 579 524V496H506Q506 617 466.5 671.5Q427 726 337 726H331Q232 726 182 651Q132 576 132 410V370Q132 287 144 227Q156 167 181.5 128.5Q207 90 246 72Q285 54 339 54H346Q406 54 446 72.5Q486 91 507 114V320H373V384H579V79Q563 62 541.5 46Q520 30 491 17.5Q462 5 424.5 -3Q387 -11 341 -11Z" glyph-name="Gdotaccent" horiz-adv-x="648" unicode="&#288;" /><glyph d="M565 780V0H493V366H146V0H74V780H146V430H493V780Z" glyph-name="H" horiz-adv-x="639" unicode="H" /><glyph d="M493 430V577H146V430ZM565 780V0H493V366H146V0H74V780H146V636H493V780Z" glyph-name="Hbar" horiz-adv-x="639" unicode="&#294;" /><glyph d="M181 840 287 950H351L457 840H387L319 906L251 840ZM565 780V0H493V366H146V0H74V780H146V430H493V780Z" glyph-name="Hcircumflex" horiz-adv-x="639" unicode="&#292;" /><glyph d="M151 0H79V780H151Z" glyph-name="I" horiz-adv-x="230" unicode="I" /><glyph d="M151 0H79V780H151ZM358 780H430V157Q430 112 419 80Q408 48 388.5 27.5Q369 7 342 -2Q315 -11 283 -11Q251 -11 231.5 -6Q212 -1 206 2V64Q214 61 231.5 57.5Q249 54 264 54Q312 54 335 78.5Q358 103 358 166Z" glyph-name="IJ" horiz-adv-x="499" unicode="&#306;" /><glyph d="M213 950 151 840H79L139 950ZM151 0H79V780H151Z" glyph-name="Iacute" horiz-adv-x="229" unicode="&#205;" /><glyph d="M115 829Q76 829 48 838Q20 847 3 863.5Q-14 880 -22 902Q-30 924 -30 950H26Q26 917 47 898Q68 879 115 879Q162 879 183 898Q204 917 204 950H260Q260 924 252 902Q244 880 227 863.5Q210 847 182 838Q154 829 115 829ZM151 0H79V780H151Z" glyph-name="Ibreve" horiz-adv-x="229" unicode="&#300;" /><glyph d="M-23 840 83 950H147L253 840H183L115 906L47 840ZM151 0H79V780H151Z" glyph-name="Icircumflex" horiz-adv-x="229" unicode="&#206;" /><glyph d="M76 860H-3V930H76ZM233 860H154V930H233ZM151 0H79V780H151Z" glyph-name="Idieresis" horiz-adv-x="229" unicode="&#207;" /><glyph d="M155 860H75V930H155ZM151 0H79V780H151Z" glyph-name="Idotaccent" horiz-adv-x="229" unicode="&#304;" /><glyph d="M91 950 151 840H79L17 950ZM151 0H79V780H151Z" glyph-name="Igrave" horiz-adv-x="229" unicode="&#204;" /><glyph d="M2 922H228V868H2ZM151 0H79V780H151Z" glyph-name="Imacron" horiz-adv-x="229" unicode="&#298;" /><glyph d="M67 -103Q67 -125 81.5 -139Q96 -153 123 -153Q141 -153 158 -149Q175 -145 186 -139L205 -191Q189 -201 164.5 -206Q140 -211 116 -211Q67 -211 37 -188Q7 -165 7 -113Q7 -70 27.5 -38Q48 -6 79 14V780H151V0H150Q117 -14 92 -39.5Q67 -65 67 -103Z" glyph-name="Iogonek" horiz-adv-x="229" unicode="&#302;" /><glyph d="M267 936Q267 887 245 865Q223 843 188 843Q165 843 146 851.5Q127 860 110.5 870Q94 880 79.5 888.5Q65 897 50 897Q35 897 24 888Q13 879 13 854H-37Q-37 903 -15 925Q7 947 42 947Q65 947 84 938.5Q103 930 119.5 920Q136 910 150.5 901.5Q165 893 180 893Q195 893 206 902Q217 911 217 936ZM151 0H79V780H151Z" glyph-name="Itilde" horiz-adv-x="229" unicode="&#296;" /><glyph d="M426 780V240Q426 181 415.5 134.5Q405 88 381.5 56Q358 24 320 6.5Q282 -11 227 -11Q171 -11 133 6Q95 23 72 55Q49 87 39 133.5Q29 180 29 240V254H97Q97 150 126.5 102Q156 54 226 54Q295 54 324.5 101.5Q354 149 354 252V780Z" glyph-name="J" horiz-adv-x="495" unicode="J" /><glyph d="M252 840 358 950H422L528 840H458L390 906L322 840ZM426 780V240Q426 181 415.5 134.5Q405 88 381.5 56Q358 24 320 6.5Q282 -11 227 -11Q171 -11 133 6Q95 23 72 55Q49 87 39 133.5Q29 180 29 240V254H97Q97 150 126.5 102Q156 54 226 54Q295 54 324.5 101.5Q354 149 354 252V780Z" glyph-name="Jcircumflex" horiz-adv-x="495" unicode="&#308;" /><glyph d="M146 352 440 780H528L296 452L528 0H446L250 387L146 240V0H74V780H146Z" glyph-name="K" horiz-adv-x="562" unicode="K" /><glyph d="M319 -106Q319 -158 291.5 -186Q264 -214 214 -214V-178Q241 -178 258.5 -165.5Q276 -153 281 -124H237V-56H319ZM146 352 440 780H528L296 452L528 0H446L250 387L146 240V0H74V780H146Z" glyph-name="Kcommaaccent" horiz-adv-x="562" unicode="&#310;" /><glyph d="M74 0V780H146V65H476V0Z" glyph-name="L" horiz-adv-x="491" unicode="L" /><glyph d="M208 950 146 840H74L134 950ZM74 0V780H146V65H476V0Z" glyph-name="Lacute" horiz-adv-x="491" unicode="&#313;" /><glyph d="M351 800 332 614H292V800ZM74 0V780H146V65H476V0Z" glyph-name="Lcaron" horiz-adv-x="491" unicode="&#317;" /><glyph d="M317 -106Q317 -158 289.5 -186Q262 -214 212 -214V-178Q239 -178 256.5 -165.5Q274 -153 279 -124H235V-56H317ZM74 0V780H146V65H476V0Z" glyph-name="Lcommaaccent" horiz-adv-x="491" unicode="&#315;" /><glyph d="M393 354H305V442H393ZM74 0V780H146V65H476V0Z" glyph-name="Ldot" horiz-adv-x="491" unicode="&#319;" /><glyph d="M18 332 134 392V780H206V429L423 541V475L206 362V65H536V0H134V325L18 265Z" glyph-name="Lslash" horiz-adv-x="551" unicode="&#321;" /><glyph d="M434 0H369L142 655L146 481V0H74V780H175L402 124L629 780H730V0H658V481L661 655Z" glyph-name="M" horiz-adv-x="803" unicode="M" /><glyph d="M442 860H362V930H442ZM434 0H369L142 655L146 481V0H74V780H175L402 124L629 780H730V0H658V481L661 655Z" glyph-name="Mdotaccent" horiz-adv-x="803" unicode="&#7744;" /><glyph d="M585 0H507L138 658L142 477V0H74V780H152L520 122L517 303V780H585Z" glyph-name="N" horiz-adv-x="659" unicode="N" /><glyph d="M427 950 365 840H293L353 950ZM585 0H507L138 658L142 477V0H74V780H152L520 122L517 303V780H585Z" glyph-name="Nacute" horiz-adv-x="659" unicode="&#323;" /><glyph d="M261 950 329 883 397 950H467L361 840H297L191 950ZM585 0H507L138 658L142 477V0H74V780H152L520 122L517 303V780H585Z" glyph-name="Ncaron" horiz-adv-x="659" unicode="&#327;" /><glyph d="M370 -106Q370 -158 342.5 -186Q315 -214 265 -214V-178Q292 -178 309.5 -165.5Q327 -153 332 -124H288V-56H370ZM585 0H507L138 658L142 477V0H74V780H152L520 122L517 303V780H585Z" glyph-name="Ncommaaccent" horiz-adv-x="659" unicode="&#325;" /><glyph d="M481 936Q481 887 459 865Q437 843 402 843Q379 843 360 851.5Q341 860 324.5 870Q308 880 293.5 888.5Q279 897 264 897Q249 897 238 888Q227 879 227 854H177Q177 903 199 925Q221 947 256 947Q279 947 298 938.5Q317 930 333.5 920Q350 910 364.5 901.5Q379 893 394 893Q409 893 420 902Q431 911 431 936ZM585 0H507L138 658L142 477V0H74V780H152L520 122L517 303V780H585Z" glyph-name="Ntilde" horiz-adv-x="659" unicode="&#209;" /><glyph d="M328 54Q377 54 413 72Q449 90 472 128.5Q495 167 506.5 227Q518 287 518 370V410Q518 576 472 651Q426 726 328 726H321Q223 726 177 651Q131 576 131 410V370Q131 287 142.5 227Q154 167 177 128.5Q200 90 236 72Q272 54 321 54ZM324 -11Q257 -11 207 10.5Q157 32 123.5 78Q90 124 73.5 196.5Q57 269 57 370V410Q57 511 73.5 583.5Q90 656 123.5 702Q157 748 207 769.5Q257 791 324 791Q391 791 441.5 769.5Q492 748 525.5 702Q559 656 575.5 583.5Q592 511 592 410V370Q592 269 575.5 196.5Q559 124 525.5 78Q492 32 441.5 10.5Q391 -11 324 -11Z" glyph-name="O" horiz-adv-x="649" unicode="O" /><glyph d="M364 715Q308 715 264.5 698.5Q221 682 191.5 645.5Q162 609 146.5 551Q131 493 131 410V370Q131 287 146.5 229Q162 171 191.5 134.5Q221 98 264.5 81.5Q308 65 364 65H465V715ZM57 410Q57 511 77.5 581.5Q98 652 136.5 696Q175 740 231 760Q287 780 358 780H900V715H537V430H850V366H537V65H900V0H358Q287 0 231 20Q175 40 136.5 84Q98 128 77.5 198.5Q57 269 57 370Z" glyph-name="OE" horiz-adv-x="940" unicode="&#338;" /><glyph d="M422 950 360 840H288L348 950ZM328 54Q377 54 413 72Q449 90 472 128.5Q495 167 506.5 227Q518 287 518 370V410Q518 576 472 651Q426 726 328 726H321Q223 726 177 651Q131 576 131 410V370Q131 287 142.5 227Q154 167 177 128.5Q200 90 236 72Q272 54 321 54ZM324 -11Q257 -11 207 10.5Q157 32 123.5 78Q90 124 73.5 196.5Q57 269 57 370V410Q57 511 73.5 583.5Q90 656 123.5 702Q157 748 207 769.5Q257 791 324 791Q391 791 441.5 769.5Q492 748 525.5 702Q559 656 575.5 583.5Q592 511 592 410V370Q592 269 575.5 196.5Q559 124 525.5 78Q492 32 441.5 10.5Q391 -11 324 -11Z" glyph-name="Oacute" horiz-adv-x="649" unicode="&#211;" /><glyph d="M324 829Q285 829 257 838Q229 847 212 863.5Q195 880 187 902Q179 924 179 950H235Q235 917 256 898Q277 879 324 879Q371 879 392 898Q413 917 413 950H469Q469 924 461 902Q453 880 436 863.5Q419 847 391 838Q363 829 324 829ZM328 54Q377 54 413 72Q449 90 472 128.5Q495 167 506.5 227Q518 287 518 370V410Q518 576 472 651Q426 726 328 726H321Q223 726 177 651Q131 576 131 410V370Q131 287 142.5 227Q154 167 177 128.5Q200 90 236 72Q272 54 321 54ZM324 -11Q257 -11 207 10.5Q157 32 123.5 78Q90 124 73.5 196.5Q57 269 57 370V410Q57 511 73.5 583.5Q90 656 123.5 702Q157 748 207 769.5Q257 791 324 791Q391 791 441.5 769.5Q492 748 525.5 702Q559 656 575.5 583.5Q592 511 592 410V370Q592 269 575.5 196.5Q559 124 525.5 78Q492 32 441.5 10.5Q391 -11 324 -11Z" glyph-name="Obreve" horiz-adv-x="649" unicode="&#334;" /><glyph d="M186 840 292 950H356L462 840H392L324 906L256 840ZM328 54Q377 54 413 72Q449 90 472 128.5Q495 167 506.5 227Q518 287 518 370V410Q518 576 472 651Q426 726 328 726H321Q223 726 177 651Q131 576 131 410V370Q131 287 142.5 227Q154 167 177 128.5Q200 90 236 72Q272 54 321 54ZM324 -11Q257 -11 207 10.5Q157 32 123.5 78Q90 124 73.5 196.5Q57 269 57 370V410Q57 511 73.5 583.5Q90 656 123.5 702Q157 748 207 769.5Q257 791 324 791Q391 791 441.5 769.5Q492 748 525.5 702Q559 656 575.5 583.5Q592 511 592 410V370Q592 269 575.5 196.5Q559 124 525.5 78Q492 32 441.5 10.5Q391 -11 324 -11Z" glyph-name="Ocircumflex" horiz-adv-x="649" unicode="&#212;" /><glyph d="M442 860H363V930H442ZM285 860H206V930H285ZM328 54Q377 54 413 72Q449 90 472 128.5Q495 167 506.5 227Q518 287 518 370V410Q518 576 472 651Q426 726 328 726H321Q223 726 177 651Q131 576 131 410V370Q131 287 142.5 227Q154 167 177 128.5Q200 90 236 72Q272 54 321 54ZM324 -11Q257 -11 207 10.5Q157 32 123.5 78Q90 124 73.5 196.5Q57 269 57 370V410Q57 511 73.5 583.5Q90 656 123.5 702Q157 748 207 769.5Q257 791 324 791Q391 791 441.5 769.5Q492 748 525.5 702Q559 656 575.5 583.5Q592 511 592 410V370Q592 269 575.5 196.5Q559 124 525.5 78Q492 32 441.5 10.5Q391 -11 324 -11Z" glyph-name="Odieresis" horiz-adv-x="649" unicode="&#214;" /><glyph d="M300 950 360 840H288L226 950ZM328 54Q377 54 413 72Q449 90 472 128.5Q495 167 506.5 227Q518 287 518 370V410Q518 576 472 651Q426 726 328 726H321Q223 726 177 651Q131 576 131 410V370Q131 287 142.5 227Q154 167 177 128.5Q200 90 236 72Q272 54 321 54ZM324 -11Q257 -11 207 10.5Q157 32 123.5 78Q90 124 73.5 196.5Q57 269 57 370V410Q57 511 73.5 583.5Q90 656 123.5 702Q157 748 207 769.5Q257 791 324 791Q391 791 441.5 769.5Q492 748 525.5 702Q559 656 575.5 583.5Q592 511 592 410V370Q592 269 575.5 196.5Q559 124 525.5 78Q492 32 441.5 10.5Q391 -11 324 -11Z" glyph-name="Ograve" horiz-adv-x="649" unicode="&#210;" /><glyph d="M483 950 420 840H353L413 950ZM356 950 295 840H228L286 950ZM328 54Q377 54 413 72Q449 90 472 128.5Q495 167 506.5 227Q518 287 518 370V410Q518 576 472 651Q426 726 328 726H321Q223 726 177 651Q131 576 131 410V370Q131 287 142.5 227Q154 167 177 128.5Q200 90 236 72Q272 54 321 54ZM324 -11Q257 -11 207 10.5Q157 32 123.5 78Q90 124 73.5 196.5Q57 269 57 370V410Q57 511 73.5 583.5Q90 656 123.5 702Q157 748 207 769.5Q257 791 324 791Q391 791 441.5 769.5Q492 748 525.5 702Q559 656 575.5 583.5Q592 511 592 410V370Q592 269 575.5 196.5Q559 124 525.5 78Q492 32 441.5 10.5Q391 -11 324 -11Z" glyph-name="Ohungarumlaut" horiz-adv-x="649" unicode="&#336;" /><glyph d="M211 922H437V868H211ZM328 54Q377 54 413 72Q449 90 472 128.5Q495 167 506.5 227Q518 287 518 370V410Q518 576 472 651Q426 726 328 726H321Q223 726 177 651Q131 576 131 410V370Q131 287 142.5 227Q154 167 177 128.5Q200 90 236 72Q272 54 321 54ZM324 -11Q257 -11 207 10.5Q157 32 123.5 78Q90 124 73.5 196.5Q57 269 57 370V410Q57 511 73.5 583.5Q90 656 123.5 702Q157 748 207 769.5Q257 791 324 791Q391 791 441.5 769.5Q492 748 525.5 702Q559 656 575.5 583.5Q592 511 592 410V370Q592 269 575.5 196.5Q559 124 525.5 78Q492 32 441.5 10.5Q391 -11 324 -11Z" glyph-name="Omacron" horiz-adv-x="649" unicode="&#332;" /><glyph d="M131 370Q131 241 157 170L460 668Q415 726 328 726H321Q223 726 177 651Q131 576 131 410ZM518 410Q518 544 488 619L183 118Q228 54 321 54H328Q377 54 413 72Q449 90 472 128.5Q495 167 506.5 227Q518 287 518 370ZM57 410Q57 511 73.5 583.5Q90 656 123.5 702Q157 748 207 769.5Q257 791 324 791Q435 791 498 731L528 780H586L532 691Q592 599 592 410V370Q592 269 575.5 196.5Q559 124 525.5 78Q492 32 441.5 10.5Q391 -11 324 -11Q267 -11 222 4.5Q177 20 144 54L112 0H54L112 95Q57 187 57 370Z" glyph-name="Oslash" horiz-adv-x="638" unicode="&#216;" /><glyph d="M476 936Q476 887 454 865Q432 843 397 843Q374 843 355 851.5Q336 860 319.5 870Q303 880 288.5 888.5Q274 897 259 897Q244 897 233 888Q222 879 222 854H172Q172 903 194 925Q216 947 251 947Q274 947 293 938.5Q312 930 328.5 920Q345 910 359.5 901.5Q374 893 389 893Q404 893 415 902Q426 911 426 936ZM328 54Q377 54 413 72Q449 90 472 128.5Q495 167 506.5 227Q518 287 518 370V410Q518 576 472 651Q426 726 328 726H321Q223 726 177 651Q131 576 131 410V370Q131 287 142.5 227Q154 167 177 128.5Q200 90 236 72Q272 54 321 54ZM324 -11Q257 -11 207 10.5Q157 32 123.5 78Q90 124 73.5 196.5Q57 269 57 370V410Q57 511 73.5 583.5Q90 656 123.5 702Q157 748 207 769.5Q257 791 324 791Q391 791 441.5 769.5Q492 748 525.5 702Q559 656 575.5 583.5Q592 511 592 410V370Q592 269 575.5 196.5Q559 124 525.5 78Q492 32 441.5 10.5Q391 -11 324 -11Z" glyph-name="Otilde" horiz-adv-x="649" unicode="&#213;" /><glyph d="M292 382Q317 382 345.5 388Q374 394 398.5 411Q423 428 439 459.5Q455 491 455 541V556Q455 606 439 637Q423 668 398.5 685.5Q374 703 345.5 709Q317 715 292 715H146V382ZM146 0H74V780H290Q332 780 374.5 770.5Q417 761 451.5 736.5Q486 712 507.5 668.5Q529 625 529 558V538Q529 471 507.5 428Q486 385 451.5 360.5Q417 336 374.5 326.5Q332 317 290 317H146Z" glyph-name="P" horiz-adv-x="573" unicode="P" /><glyph d="M327 860H247V930H327ZM292 382Q317 382 345.5 388Q374 394 398.5 411Q423 428 439 459.5Q455 491 455 541V556Q455 606 439 637Q423 668 398.5 685.5Q374 703 345.5 709Q317 715 292 715H146V382ZM146 0H74V780H290Q332 780 374.5 770.5Q417 761 451.5 736.5Q486 712 507.5 668.5Q529 625 529 558V538Q529 471 507.5 428Q486 385 451.5 360.5Q417 336 374.5 326.5Q332 317 290 317H146Z" glyph-name="Pdotaccent" horiz-adv-x="573" unicode="&#7766;" /><glyph d="M412 72Q466 99 492 171.5Q518 244 518 370V410Q518 576 472 651Q426 726 328 726H321Q223 726 177 651Q131 576 131 410V370Q131 287 142.5 227Q154 167 177 128.5Q200 90 236 72Q272 54 321 54H328Q335 54 341.5 54Q348 54 355 55L291 226H353ZM324 -11Q257 -11 207 10.5Q157 32 123.5 78Q90 124 73.5 196.5Q57 269 57 370V410Q57 511 73.5 583.5Q90 656 123.5 702Q157 748 207 769.5Q257 791 324 791Q391 791 441.5 769.5Q492 748 525.5 702Q559 656 575.5 583.5Q592 511 592 410V370Q592 215 553.5 128Q515 41 437 9L479 -100H413L378 -7Q365 -9 351.5 -10Q338 -11 324 -11Z" glyph-name="Q" horiz-adv-x="649" unicode="Q" /><glyph d="M292 382Q317 382 345.5 388Q374 394 398.5 411Q423 428 439 459.5Q455 491 455 541V556Q455 606 439 637Q423 668 398.5 685.5Q374 703 345.5 709Q317 715 292 715H146V382ZM146 0H74V780H290Q332 780 374.5 770.5Q417 761 451.5 736.5Q486 712 507.5 668.5Q529 625 529 558V538Q529 491 518.5 456.5Q508 422 489.5 397.5Q471 373 446.5 357Q422 341 394 332L529 0H450L326 318Q317 317 308 317Q299 317 290 317H146Z" glyph-name="R" horiz-adv-x="584" unicode="R" /><glyph d="M372 950 310 840H238L298 950ZM292 382Q317 382 345.5 388Q374 394 398.5 411Q423 428 439 459.5Q455 491 455 541V556Q455 606 439 637Q423 668 398.5 685.5Q374 703 345.5 709Q317 715 292 715H146V382ZM146 0H74V780H290Q332 780 374.5 770.5Q417 761 451.5 736.5Q486 712 507.5 668.5Q529 625 529 558V538Q529 491 518.5 456.5Q508 422 489.5 397.5Q471 373 446.5 357Q422 341 394 332L529 0H450L326 318Q317 317 308 317Q299 317 290 317H146Z" glyph-name="Racute" horiz-adv-x="584" unicode="&#340;" /><glyph d="M206 950 274 883 342 950H412L306 840H242L136 950ZM292 382Q317 382 345.5 388Q374 394 398.5 411Q423 428 439 459.5Q455 491 455 541V556Q455 606 439 637Q423 668 398.5 685.5Q374 703 345.5 709Q317 715 292 715H146V382ZM146 0H74V780H290Q332 780 374.5 770.5Q417 761 451.5 736.5Q486 712 507.5 668.5Q529 625 529 558V538Q529 491 518.5 456.5Q508 422 489.5 397.5Q471 373 446.5 357Q422 341 394 332L529 0H450L326 318Q317 317 308 317Q299 317 290 317H146Z" glyph-name="Rcaron" horiz-adv-x="584" unicode="&#344;" /><glyph d="M325 -106Q325 -158 297.5 -186Q270 -214 220 -214V-178Q247 -178 264.5 -165.5Q282 -153 287 -124H243V-56H325ZM292 382Q317 382 345.5 388Q374 394 398.5 411Q423 428 439 459.5Q455 491 455 541V556Q455 606 439 637Q423 668 398.5 685.5Q374 703 345.5 709Q317 715 292 715H146V382ZM146 0H74V780H290Q332 780 374.5 770.5Q417 761 451.5 736.5Q486 712 507.5 668.5Q529 625 529 558V538Q529 491 518.5 456.5Q508 422 489.5 397.5Q471 373 446.5 357Q422 341 394 332L529 0H450L326 318Q317 317 308 317Q299 317 290 317H146Z" glyph-name="Rcommaaccent" horiz-adv-x="584" unicode="&#342;" /><glyph d="M288 370Q224 379 179.5 397Q135 415 107.5 441Q80 467 67.5 500Q55 533 55 572V582Q55 631 72.5 669.5Q90 708 122 735Q154 762 199 776.5Q244 791 300 791Q430 791 488 726Q546 661 546 540V516H474Q474 627 433 676.5Q392 726 303 726H296Q260 726 229.5 716.5Q199 707 176.5 690Q154 673 141.5 647.5Q129 622 129 591V583Q129 552 138 527Q147 502 168.5 483.5Q190 465 225.5 451.5Q261 438 315 431Q443 414 499 362Q555 310 555 219V209Q555 157 537 116.5Q519 76 486 47.5Q453 19 405.5 4Q358 -11 300 -11Q175 -11 110.5 56Q46 123 46 244V254H118Q118 203 131 165Q144 127 168 102.5Q192 78 225 66Q258 54 297 54H304Q384 54 432.5 93Q481 132 481 204V213Q481 282 435.5 319Q390 356 288 370Z" glyph-name="S" horiz-adv-x="601" unicode="S" /><glyph d="M398 950 336 840H264L324 950ZM288 370Q224 379 179.5 397Q135 415 107.5 441Q80 467 67.5 500Q55 533 55 572V582Q55 631 72.5 669.5Q90 708 122 735Q154 762 199 776.5Q244 791 300 791Q430 791 488 726Q546 661 546 540V516H474Q474 627 433 676.5Q392 726 303 726H296Q260 726 229.5 716.5Q199 707 176.5 690Q154 673 141.5 647.5Q129 622 129 591V583Q129 552 138 527Q147 502 168.5 483.5Q190 465 225.5 451.5Q261 438 315 431Q443 414 499 362Q555 310 555 219V209Q555 157 537 116.5Q519 76 486 47.5Q453 19 405.5 4Q358 -11 300 -11Q175 -11 110.5 56Q46 123 46 244V254H118Q118 203 131 165Q144 127 168 102.5Q192 78 225 66Q258 54 297 54H304Q384 54 432.5 93Q481 132 481 204V213Q481 282 435.5 319Q390 356 288 370Z" glyph-name="Sacute" horiz-adv-x="601" unicode="&#346;" /><glyph d="M232 950 300 883 368 950H438L332 840H268L162 950ZM288 370Q224 379 179.5 397Q135 415 107.5 441Q80 467 67.5 500Q55 533 55 572V582Q55 631 72.5 669.5Q90 708 122 735Q154 762 199 776.5Q244 791 300 791Q430 791 488 726Q546 661 546 540V516H474Q474 627 433 676.5Q392 726 303 726H296Q260 726 229.5 716.5Q199 707 176.5 690Q154 673 141.5 647.5Q129 622 129 591V583Q129 552 138 527Q147 502 168.5 483.5Q190 465 225.5 451.5Q261 438 315 431Q443 414 499 362Q555 310 555 219V209Q555 157 537 116.5Q519 76 486 47.5Q453 19 405.5 4Q358 -11 300 -11Q175 -11 110.5 56Q46 123 46 244V254H118Q118 203 131 165Q144 127 168 102.5Q192 78 225 66Q258 54 297 54H304Q384 54 432.5 93Q481 132 481 204V213Q481 282 435.5 319Q390 356 288 370Z" glyph-name="Scaron" horiz-adv-x="601" unicode="&#352;" /><glyph d="M227 -147Q240 -154 258.5 -158Q277 -162 297 -162Q326 -162 340.5 -155.5Q355 -149 355 -131Q355 -114 338.5 -107Q322 -100 293 -100Q283 -100 273 -102Q269 -103 264 -103L245 -80L272 -10Q161 -2 103.5 63.5Q46 129 46 244V254H118Q118 203 131 165Q144 127 168 102.5Q192 78 225 66Q258 54 297 54H304Q384 54 432.5 93Q481 132 481 204V213Q481 282 435.5 319Q390 356 288 370Q224 379 179.5 397Q135 415 107.5 441Q80 467 67.5 500Q55 533 55 572V582Q55 631 72.5 669.5Q90 708 122 735Q154 762 199 776.5Q244 791 300 791Q430 791 488 726Q546 661 546 540V516H474Q474 627 433 676.5Q392 726 303 726H296Q260 726 229.5 716.5Q199 707 176.5 690Q154 673 141.5 647.5Q129 622 129 591V583Q129 552 138 527Q147 502 168.5 483.5Q190 465 225.5 451.5Q261 438 315 431Q443 414 499 362Q555 310 555 219V209Q555 159 538.5 120Q522 81 491.5 53Q461 25 417.5 9Q374 -7 320 -10L303 -56H307Q325 -56 343 -60Q361 -64 375.5 -73.5Q390 -83 398.5 -97.5Q407 -112 407 -133Q407 -175 378.5 -193Q350 -211 304 -211Q276 -211 251.5 -206Q227 -201 212 -191Z" glyph-name="Scedilla" horiz-adv-x="601" unicode="&#350;" /><glyph d="M162 840 268 950H332L438 840H368L300 906L232 840ZM288 370Q224 379 179.5 397Q135 415 107.5 441Q80 467 67.5 500Q55 533 55 572V582Q55 631 72.5 669.5Q90 708 122 735Q154 762 199 776.5Q244 791 300 791Q430 791 488 726Q546 661 546 540V516H474Q474 627 433 676.5Q392 726 303 726H296Q260 726 229.5 716.5Q199 707 176.5 690Q154 673 141.5 647.5Q129 622 129 591V583Q129 552 138 527Q147 502 168.5 483.5Q190 465 225.5 451.5Q261 438 315 431Q443 414 499 362Q555 310 555 219V209Q555 157 537 116.5Q519 76 486 47.5Q453 19 405.5 4Q358 -11 300 -11Q175 -11 110.5 56Q46 123 46 244V254H118Q118 203 131 165Q144 127 168 102.5Q192 78 225 66Q258 54 297 54H304Q384 54 432.5 93Q481 132 481 204V213Q481 282 435.5 319Q390 356 288 370Z" glyph-name="Scircumflex" horiz-adv-x="601" unicode="&#348;" /><glyph d="M341 -106Q341 -158 313.5 -186Q286 -214 236 -214V-178Q263 -178 280.5 -165.5Q298 -153 303 -124H259V-56H341ZM288 370Q224 379 179.5 397Q135 415 107.5 441Q80 467 67.5 500Q55 533 55 572V582Q55 631 72.5 669.5Q90 708 122 735Q154 762 199 776.5Q244 791 300 791Q430 791 488 726Q546 661 546 540V516H474Q474 627 433 676.5Q392 726 303 726H296Q260 726 229.5 716.5Q199 707 176.5 690Q154 673 141.5 647.5Q129 622 129 591V583Q129 552 138 527Q147 502 168.5 483.5Q190 465 225.5 451.5Q261 438 315 431Q443 414 499 362Q555 310 555 219V209Q555 157 537 116.5Q519 76 486 47.5Q453 19 405.5 4Q358 -11 300 -11Q175 -11 110.5 56Q46 123 46 244V254H118Q118 203 131 165Q144 127 168 102.5Q192 78 225 66Q258 54 297 54H304Q384 54 432.5 93Q481 132 481 204V213Q481 282 435.5 319Q390 356 288 370Z" glyph-name="Scommaaccent" horiz-adv-x="601" unicode="&#536;" /><glyph d="M293 0H221V715H23V780H492V715H293Z" glyph-name="T" horiz-adv-x="515" unicode="T" /><glyph d="M293 429H419V367H293V0H221V367H96V429H221V715H23V780H492V715H293Z" glyph-name="Tbar" horiz-adv-x="515" unicode="&#358;" /><glyph d="M189 950 257 883 325 950H395L289 840H225L119 950ZM293 0H221V715H23V780H492V715H293Z" glyph-name="Tcaron" horiz-adv-x="515" unicode="&#356;" /><glyph d="M298 -106Q298 -158 270.5 -186Q243 -214 193 -214V-178Q220 -178 237.5 -165.5Q255 -153 260 -124H216V-56H298ZM293 0H221V715H23V780H492V715H293Z" glyph-name="Tcommaaccent" horiz-adv-x="515" unicode="&#354;" /><glyph d="M297 860H217V930H297ZM293 0H221V715H23V780H492V715H293Z" glyph-name="Tdotaccent" horiz-adv-x="515" unicode="&#7786;" /><glyph d="M292 223Q317 223 345.5 229Q374 235 398.5 252.5Q423 270 439 301Q455 332 455 383V397Q455 448 439 479Q423 510 398.5 527.5Q374 545 345.5 551Q317 557 292 557H146V223ZM146 622H290Q332 622 374.5 612.5Q417 603 451.5 578.5Q486 554 507.5 510.5Q529 467 529 400V380Q529 312 507.5 269Q486 226 451.5 201.5Q417 177 374.5 167.5Q332 158 290 158H146V0H74V780H146Z" glyph-name="Thorn" horiz-adv-x="573" unicode="&#222;" /><glyph d="M319 -11Q257 -11 210 2Q163 15 131.5 45Q100 75 84.5 123Q69 171 69 242V780H141V247Q141 191 152 154Q163 117 185 95Q207 73 240.5 63.5Q274 54 319 54Q364 54 397.5 63.5Q431 73 453.5 95Q476 117 487 154Q498 191 498 247V780H570V242Q570 171 554 123Q538 75 506.5 45Q475 15 428 2Q381 -11 319 -11Z" glyph-name="U" horiz-adv-x="639" unicode="U" /><glyph d="M417 950 355 840H283L343 950ZM319 -11Q257 -11 210 2Q163 15 131.5 45Q100 75 84.5 123Q69 171 69 242V780H141V247Q141 191 152 154Q163 117 185 95Q207 73 240.5 63.5Q274 54 319 54Q364 54 397.5 63.5Q431 73 453.5 95Q476 117 487 154Q498 191 498 247V780H570V242Q570 171 554 123Q538 75 506.5 45Q475 15 428 2Q381 -11 319 -11Z" glyph-name="Uacute" horiz-adv-x="639" unicode="&#218;" /><glyph d="M319 -11Q257 -11 210 2Q163 15 131.5 45Q100 75 84.5 123Q69 171 69 242V780H141V247Q141 191 152 154Q163 117 185 95Q207 73 240.5 63.5Q274 54 319 54Q364 54 397.5 63.5Q431 73 453.5 95Q476 117 487 154Q498 191 498 247V780H570V242Q570 171 554 123Q538 75 506.5 45Q475 15 428 2Q381 -11 319 -11ZM319 829Q280 829 252 838Q224 847 207 863.5Q190 880 182 902Q174 924 174 950H230Q230 917 251 898Q272 879 319 879Q366 879 387 898Q408 917 408 950H464Q464 924 456 902Q448 880 431 863.5Q414 847 386 838Q358 829 319 829Z" glyph-name="Ubreve" horiz-adv-x="639" unicode="&#364;" /><glyph d="M181 840 287 950H351L457 840H387L319 906L251 840ZM319 -11Q257 -11 210 2Q163 15 131.5 45Q100 75 84.5 123Q69 171 69 242V780H141V247Q141 191 152 154Q163 117 185 95Q207 73 240.5 63.5Q274 54 319 54Q364 54 397.5 63.5Q431 73 453.5 95Q476 117 487 154Q498 191 498 247V780H570V242Q570 171 554 123Q538 75 506.5 45Q475 15 428 2Q381 -11 319 -11Z" glyph-name="Ucircumflex" horiz-adv-x="639" unicode="&#219;" /><glyph d="M437 860H358V930H437ZM280 860H201V930H280ZM319 -11Q257 -11 210 2Q163 15 131.5 45Q100 75 84.5 123Q69 171 69 242V780H141V247Q141 191 152 154Q163 117 185 95Q207 73 240.5 63.5Q274 54 319 54Q364 54 397.5 63.5Q431 73 453.5 95Q476 117 487 154Q498 191 498 247V780H570V242Q570 171 554 123Q538 75 506.5 45Q475 15 428 2Q381 -11 319 -11Z" glyph-name="Udieresis" horiz-adv-x="639" unicode="&#220;" /><glyph d="M295 950 355 840H283L221 950ZM319 -11Q257 -11 210 2Q163 15 131.5 45Q100 75 84.5 123Q69 171 69 242V780H141V247Q141 191 152 154Q163 117 185 95Q207 73 240.5 63.5Q274 54 319 54Q364 54 397.5 63.5Q431 73 453.5 95Q476 117 487 154Q498 191 498 247V780H570V242Q570 171 554 123Q538 75 506.5 45Q475 15 428 2Q381 -11 319 -11Z" glyph-name="Ugrave" horiz-adv-x="639" unicode="&#217;" /><glyph d="M351 950 290 840H223L281 950ZM478 950 415 840H348L408 950ZM319 -11Q257 -11 210 2Q163 15 131.5 45Q100 75 84.5 123Q69 171 69 242V780H141V247Q141 191 152 154Q163 117 185 95Q207 73 240.5 63.5Q274 54 319 54Q364 54 397.5 63.5Q431 73 453.5 95Q476 117 487 154Q498 191 498 247V780H570V242Q570 171 554 123Q538 75 506.5 45Q475 15 428 2Q381 -11 319 -11Z" glyph-name="Uhungarumlaut" horiz-adv-x="639" unicode="&#368;" /><glyph d="M206 922H432V868H206ZM319 -11Q257 -11 210 2Q163 15 131.5 45Q100 75 84.5 123Q69 171 69 242V780H141V247Q141 191 152 154Q163 117 185 95Q207 73 240.5 63.5Q274 54 319 54Q364 54 397.5 63.5Q431 73 453.5 95Q476 117 487 154Q498 191 498 247V780H570V242Q570 171 554 123Q538 75 506.5 45Q475 15 428 2Q381 -11 319 -11Z" glyph-name="Umacron" horiz-adv-x="639" unicode="&#362;" /><glyph d="M319 -11Q257 -11 210 2Q163 15 131.5 45Q100 75 84.5 123Q69 171 69 242V780H141V247Q141 191 152 154Q163 117 185 95Q207 73 240.5 63.5Q274 54 319 54Q364 54 397.5 63.5Q431 73 453.5 95Q476 117 487 154Q498 191 498 247V780H570V242Q570 133 532.5 76.5Q495 20 420 0Q386 -9 361.5 -37Q337 -65 337 -103Q337 -125 351.5 -139Q366 -153 393 -153Q411 -153 428 -149Q445 -145 456 -139L475 -191Q459 -201 434.5 -206Q410 -211 386 -211Q337 -211 307 -188Q277 -165 277 -113Q277 -81 288.5 -56Q300 -31 319 -11Z" glyph-name="Uogonek" horiz-adv-x="639" unicode="&#370;" /><glyph d="M263 867Q263 844 279.5 827.5Q296 811 319 811Q342 811 358.5 827.5Q375 844 375 867Q375 890 358.5 906.5Q342 923 319 923Q296 923 279.5 906.5Q263 890 263 867ZM225 867Q225 886 232.5 903.5Q240 921 252.5 933.5Q265 946 282 953.5Q299 961 319 961Q338 961 355.5 953.5Q373 946 385.5 933.5Q398 921 405.5 903.5Q413 886 413 867Q413 847 405.5 830Q398 813 385.5 800.5Q373 788 355.5 780.5Q338 773 319 773Q299 773 282 780.5Q265 788 252.5 800.5Q240 813 232.5 830Q225 847 225 867ZM319 -11Q257 -11 210 2Q163 15 131.5 45Q100 75 84.5 123Q69 171 69 242V780H141V247Q141 191 152 154Q163 117 185 95Q207 73 240.5 63.5Q274 54 319 54Q364 54 397.5 63.5Q431 73 453.5 95Q476 117 487 154Q498 191 498 247V780H570V242Q570 171 554 123Q538 75 506.5 45Q475 15 428 2Q381 -11 319 -11Z" glyph-name="Uring" horiz-adv-x="639" unicode="&#366;" /><glyph d="M319 -11Q257 -11 210 2Q163 15 131.5 45Q100 75 84.5 123Q69 171 69 242V780H141V247Q141 191 152 154Q163 117 185 95Q207 73 240.5 63.5Q274 54 319 54Q364 54 397.5 63.5Q431 73 453.5 95Q476 117 487 154Q498 191 498 247V780H570V242Q570 171 554 123Q538 75 506.5 45Q475 15 428 2Q381 -11 319 -11ZM471 936Q471 887 449 865Q427 843 392 843Q369 843 350 851.5Q331 860 314.5 870Q298 880 283.5 888.5Q269 897 254 897Q239 897 228 888Q217 879 217 854H167Q167 903 189 925Q211 947 246 947Q269 947 288 938.5Q307 930 323.5 920Q340 910 354.5 901.5Q369 893 384 893Q399 893 410 902Q421 911 421 936Z" glyph-name="Utilde" horiz-adv-x="639" unicode="&#360;" /><glyph d="M254 -8 29 780H107L305 71L504 780H582L357 -8Z" glyph-name="V" horiz-adv-x="611" unicode="V" /><glyph d="M447 702 285 -8H186L41 780H117L239 81L399 780H496L656 81L778 780H854L709 -8H610Z" glyph-name="W" horiz-adv-x="895" unicode="W" /><glyph d="M545 950 483 840H411L471 950ZM447 702 285 -8H186L41 780H117L239 81L399 780H496L656 81L778 780H854L709 -8H610Z" glyph-name="Wacute" horiz-adv-x="895" unicode="&#7810;" /><glyph d="M309 840 415 950H479L585 840H515L447 906L379 840ZM447 702 285 -8H186L41 780H117L239 81L399 780H496L656 81L778 780H854L709 -8H610Z" glyph-name="Wcircumflex" horiz-adv-x="895" unicode="&#372;" /><glyph d="M565 860H486V930H565ZM408 860H329V930H408ZM447 702 285 -8H186L41 780H117L239 81L399 780H496L656 81L778 780H854L709 -8H610Z" glyph-name="Wdieresis" horiz-adv-x="895" unicode="&#7812;" /><glyph d="M423 950 483 840H411L349 950ZM447 702 285 -8H186L41 780H117L239 81L399 780H496L656 81L778 780H854L709 -8H610Z" glyph-name="Wgrave" horiz-adv-x="895" unicode="&#7808;" /><glyph d="M257 397 31 780H115L306 452L497 780H582L355 397L582 0H500L306 343L113 0H31Z" glyph-name="X" horiz-adv-x="613" unicode="X" /><glyph d="M325 0H253V236L21 780H99L289 325L478 780H557L325 236Z" glyph-name="Y" horiz-adv-x="577" unicode="Y" /><glyph d="M387 950 325 840H253L313 950ZM325 0H253V236L21 780H99L289 325L478 780H557L325 236Z" glyph-name="Yacute" horiz-adv-x="577" unicode="&#221;" /><glyph d="M151 840 257 950H321L427 840H357L289 906L221 840ZM325 0H253V236L21 780H99L289 325L478 780H557L325 236Z" glyph-name="Ycircumflex" horiz-adv-x="577" unicode="&#374;" /><glyph d="M250 860H171V930H250ZM407 860H328V930H407ZM325 0H253V236L21 780H99L289 325L478 780H557L325 236Z" glyph-name="Ydieresis" horiz-adv-x="577" unicode="&#376;" /><glyph d="M265 950 325 840H253L191 950ZM325 0H253V236L21 780H99L289 325L478 780H557L325 236Z" glyph-name="Ygrave" horiz-adv-x="577" unicode="&#7922;" /><glyph d="M176 922H402V868H176ZM325 0H253V236L21 780H99L289 325L478 780H557L325 236Z" glyph-name="Ymacron" horiz-adv-x="577" unicode="&#562;" /><glyph d="M424 718 298 715H50V780H513V730L129 62L255 65H523V0H40V50Z" glyph-name="Z" horiz-adv-x="563" unicode="Z" /><glyph d="M424 718 298 715H50V780H513V730L129 62L255 65H523V0H40V50ZM377 950 315 840H243L303 950Z" glyph-name="Zacute" horiz-adv-x="563" unicode="&#377;" /><glyph d="M424 718 298 715H50V780H513V730L129 62L255 65H523V0H40V50ZM211 950 279 883 347 950H417L311 840H247L141 950Z" glyph-name="Zcaron" horiz-adv-x="563" unicode="&#381;" /><glyph d="M424 718 298 715H50V780H513V730L129 62L255 65H523V0H40V50ZM319 860H239V930H319Z" glyph-name="Zdotaccent" horiz-adv-x="563" unicode="&#379;" /><glyph d="M216 50Q253 50 280 59Q307 68 326.5 80.5Q346 93 358.5 107.5Q371 122 378 134V279L224 254Q173 245 144 219.5Q115 194 115 149V140Q115 122 121 106Q127 90 139 77.5Q151 65 170 57.5Q189 50 216 50ZM385 74Q359 39 313 14Q267 -11 198 -11Q125 -11 85 29.5Q45 70 45 134V144Q45 187 60 216Q75 245 99.5 263Q124 281 155 290.5Q186 300 218 305L378 330V344Q378 412 351.5 447Q325 482 255 482Q217 482 193.5 472Q170 462 156 444.5Q142 427 137 404Q132 381 132 355H65V364Q65 394 73 425.5Q81 457 102 482.5Q123 508 160 524.5Q197 541 256 541Q311 541 348 526.5Q385 512 407 486Q429 460 438.5 424Q448 388 448 344V150L454 0H396Z" glyph-name="a" horiz-adv-x="512" unicode="a" /><glyph d="M386 780 292 614H220L310 780ZM216 50Q253 50 280 59Q307 68 326.5 80.5Q346 93 358.5 107.5Q371 122 378 134V279L224 254Q173 245 144 219.5Q115 194 115 149V140Q115 122 121 106Q127 90 139 77.5Q151 65 170 57.5Q189 50 216 50ZM385 74Q359 39 313 14Q267 -11 198 -11Q125 -11 85 29.5Q45 70 45 134V144Q45 187 60 216Q75 245 99.5 263Q124 281 155 290.5Q186 300 218 305L378 330V344Q378 412 351.5 447Q325 482 255 482Q217 482 193.5 472Q170 462 156 444.5Q142 427 137 404Q132 381 132 355H65V364Q65 394 73 425.5Q81 457 102 482.5Q123 508 160 524.5Q197 541 256 541Q311 541 348 526.5Q385 512 407 486Q429 460 438.5 424Q448 388 448 344V150L454 0H396Z" glyph-name="aacute" horiz-adv-x="512" unicode="&#225;" /><glyph d="M256 603Q213 603 182.5 616Q152 629 132.5 652.5Q113 676 104 708.5Q95 741 95 780H152Q152 726 176 694Q200 662 256 662Q312 662 336 694Q360 726 360 780H417Q418 702 379.5 652.5Q341 603 256 603ZM216 50Q253 50 280 59Q307 68 326.5 80.5Q346 93 358.5 107.5Q371 122 378 134V279L224 254Q173 245 144 219.5Q115 194 115 149V140Q115 122 121 106Q127 90 139 77.5Q151 65 170 57.5Q189 50 216 50ZM385 74Q359 39 313 14Q267 -11 198 -11Q125 -11 85 29.5Q45 70 45 134V144Q45 187 60 216Q75 245 99.5 263Q124 281 155 290.5Q186 300 218 305L378 330V344Q378 412 351.5 447Q325 482 255 482Q217 482 193.5 472Q170 462 156 444.5Q142 427 137 404Q132 381 132 355H65V364Q65 394 73 425.5Q81 457 102 482.5Q123 508 160 524.5Q197 541 256 541Q311 541 348 526.5Q385 512 407 486Q429 460 438.5 424Q448 388 448 344V150L454 0H396Z" glyph-name="abreve" horiz-adv-x="512" unicode="&#259;" /><glyph d="M94 614 225 780H287L418 614H349L256 727L163 614ZM216 50Q253 50 280 59Q307 68 326.5 80.5Q346 93 358.5 107.5Q371 122 378 134V279L224 254Q173 245 144 219.5Q115 194 115 149V140Q115 122 121 106Q127 90 139 77.5Q151 65 170 57.5Q189 50 216 50ZM385 74Q359 39 313 14Q267 -11 198 -11Q125 -11 85 29.5Q45 70 45 134V144Q45 187 60 216Q75 245 99.5 263Q124 281 155 290.5Q186 300 218 305L378 330V344Q378 412 351.5 447Q325 482 255 482Q217 482 193.5 472Q170 462 156 444.5Q142 427 137 404Q132 381 132 355H65V364Q65 394 73 425.5Q81 457 102 482.5Q123 508 160 524.5Q197 541 256 541Q311 541 348 526.5Q385 512 407 486Q429 460 438.5 424Q448 388 448 344V150L454 0H396Z" glyph-name="acircumflex" horiz-adv-x="512" unicode="&#226;" /><glyph d="M380 780 286 614H214L304 780Z" glyph-name="acute" horiz-adv-x="500" unicode="&#180;" /><glyph d="M348 950 286 840H214L274 950Z" glyph-name="acute.cap" horiz-adv-x="500" unicode="&#58402;" /><glyph d="M383 657H296V745H383ZM216 657H129V745H216ZM216 50Q253 50 280 59Q307 68 326.5 80.5Q346 93 358.5 107.5Q371 122 378 134V279L224 254Q173 245 144 219.5Q115 194 115 149V140Q115 122 121 106Q127 90 139 77.5Q151 65 170 57.5Q189 50 216 50ZM385 74Q359 39 313 14Q267 -11 198 -11Q125 -11 85 29.5Q45 70 45 134V144Q45 187 60 216Q75 245 99.5 263Q124 281 155 290.5Q186 300 218 305L378 330V344Q378 412 351.5 447Q325 482 255 482Q217 482 193.5 472Q170 462 156 444.5Q142 427 137 404Q132 381 132 355H65V364Q65 394 73 425.5Q81 457 102 482.5Q123 508 160 524.5Q197 541 256 541Q311 541 348 526.5Q385 512 407 486Q429 460 438.5 424Q448 388 448 344V150L454 0H396Z" glyph-name="adieresis" horiz-adv-x="512" unicode="&#228;" /><glyph d="M601 482Q526 482 488.5 431.5Q451 381 449 294H753Q750 381 713.5 431.5Q677 482 601 482ZM391 152Q384 175 381 201Q378 227 378 254V278L225 253Q173 244 144 218.5Q115 193 115 148V139Q115 121 121 105Q127 89 139 76.5Q151 64 170 56.5Q189 49 216 49Q255 49 283.5 59Q312 69 331.5 83Q351 97 363 112Q375 127 381 138ZM449 236Q451 149 489.5 98.5Q528 48 608 48Q647 48 675.5 59Q704 70 722 87.5Q740 105 748.5 127Q757 149 757 170H825V166Q825 135 812 103.5Q799 72 772 46.5Q745 21 704 5Q663 -11 607 -11Q536 -11 488.5 16.5Q441 44 415 92Q401 72 380.5 53.5Q360 35 333 20.5Q306 6 273 -2.5Q240 -11 201 -11Q126 -11 85.5 29.5Q45 70 45 134V144Q45 187 60 216Q75 245 99.5 263Q124 281 155.5 290.5Q187 300 219 305L378 330V344Q378 412 351.5 447Q325 482 255 482Q217 482 193.5 472Q170 462 156 444.5Q142 427 137 404Q132 381 132 355H65V364Q65 394 73 425.5Q81 457 102 482.5Q123 508 160 524.5Q197 541 256 541Q331 541 369.5 514.5Q408 488 424 442Q449 487 492.5 514Q536 541 602 541Q660 541 702 520.5Q744 500 771.5 464Q799 428 812 379.5Q825 331 825 276V236Z" glyph-name="ae" horiz-adv-x="871" unicode="&#230;" /><glyph d="M202 780 292 614H220L126 780ZM216 50Q253 50 280 59Q307 68 326.5 80.5Q346 93 358.5 107.5Q371 122 378 134V279L224 254Q173 245 144 219.5Q115 194 115 149V140Q115 122 121 106Q127 90 139 77.5Q151 65 170 57.5Q189 50 216 50ZM385 74Q359 39 313 14Q267 -11 198 -11Q125 -11 85 29.5Q45 70 45 134V144Q45 187 60 216Q75 245 99.5 263Q124 281 155 290.5Q186 300 218 305L378 330V344Q378 412 351.5 447Q325 482 255 482Q217 482 193.5 472Q170 462 156 444.5Q142 427 137 404Q132 381 132 355H65V364Q65 394 73 425.5Q81 457 102 482.5Q123 508 160 524.5Q197 541 256 541Q311 541 348 526.5Q385 512 407 486Q429 460 438.5 424Q448 388 448 344V150L454 0H396Z" glyph-name="agrave" horiz-adv-x="512" unicode="&#224;" /><glyph d="M305 -131Q305 -112 290.5 -105.5Q276 -99 247 -99Q231 -99 214.5 -101.5Q198 -104 190 -107V-65Q218 -55 256 -55Q299 -55 328 -73Q357 -91 357 -133Q357 -175 328.5 -193Q300 -211 254 -211Q226 -211 201.5 -206Q177 -201 162 -191L177 -147Q190 -154 208.5 -158Q227 -162 247 -162Q276 -162 290.5 -155.5Q305 -149 305 -131Z" glyph-name="altcedilla" horiz-adv-x="602" unicode="&#58390;" /><glyph d="M139 730H373V664H139ZM216 50Q253 50 280 59Q307 68 326.5 80.5Q346 93 358.5 107.5Q371 122 378 134V279L224 254Q173 245 144 219.5Q115 194 115 149V140Q115 122 121 106Q127 90 139 77.5Q151 65 170 57.5Q189 50 216 50ZM385 74Q359 39 313 14Q267 -11 198 -11Q125 -11 85 29.5Q45 70 45 134V144Q45 187 60 216Q75 245 99.5 263Q124 281 155 290.5Q186 300 218 305L378 330V344Q378 412 351.5 447Q325 482 255 482Q217 482 193.5 472Q170 462 156 444.5Q142 427 137 404Q132 381 132 355H65V364Q65 394 73 425.5Q81 457 102 482.5Q123 508 160 524.5Q197 541 256 541Q311 541 348 526.5Q385 512 407 486Q429 460 438.5 424Q448 388 448 344V150L454 0H396Z" glyph-name="amacron" horiz-adv-x="512" unicode="&#257;" /><glyph d="M141 619Q141 571 165.5 534Q190 497 225 460Q253 478 278.5 495Q304 512 323.5 531Q343 550 355 571.5Q367 593 367 619V628Q367 667 340 697Q313 727 258 727H251Q196 727 168.5 697Q141 667 141 628ZM275 54Q321 54 364.5 70.5Q408 87 443 125L214 374Q172 343 143 306Q114 269 114 216V207Q114 138 151.5 96Q189 54 269 54ZM265 -11Q161 -11 101.5 45Q42 101 42 203V213Q42 250 52.5 281Q63 312 80 337Q97 362 120 383Q143 404 169 422Q145 448 126.5 471Q108 494 95.5 517Q83 540 76 564.5Q69 589 69 619V629Q69 663 81 693Q93 723 116 744.5Q139 766 174 778.5Q209 791 254 791Q300 791 334.5 778.5Q369 766 392.5 744.5Q416 723 428 693Q440 663 440 629V619Q440 582 425 553Q410 524 386 499.5Q362 475 331.5 454Q301 433 270 413L483 182Q503 220 514 272Q525 324 525 391V394H598Q598 309 580.5 243Q563 177 532 128L650 0H559L489 75Q444 31 387.5 10Q331 -11 265 -11Z" glyph-name="ampersand" horiz-adv-x="661" unicode="&amp;" /><glyph d="M119 360 281 -120H208L46 360L208 840H281Z" glyph-name="anglebracketleft" horiz-adv-x="317" unicode="&#12296;" /><glyph d="M121 390 255 0H182L48 390L182 780H255Z" glyph-name="anglebracketleft.cap" horiz-adv-x="317" unicode="&#58519;" /><glyph d="M198 360 36 840H109L271 360L109 -120H36Z" glyph-name="anglebracketright" horiz-adv-x="317" unicode="&#12297;" /><glyph d="M62 780H135L270 390L135 0H62L197 390Z" glyph-name="anglebracketright.cap" horiz-adv-x="317" unicode="&#58520;" /><glyph d="M216 50Q253 50 280 59Q307 68 326.5 80.5Q346 93 358.5 107.5Q371 122 378 134V279L224 254Q173 245 144 219.5Q115 194 115 149V140Q115 122 121 106Q127 90 139 77.5Q151 65 170 57.5Q189 50 216 50ZM371 -103Q371 -125 385.5 -139Q400 -153 427 -153Q445 -153 462 -149Q479 -145 490 -139L509 -191Q493 -201 468.5 -206Q444 -211 420 -211Q371 -211 341 -188Q311 -165 311 -113Q311 -67 334.5 -33.5Q358 0 393 21L385 74Q359 39 313 14Q267 -11 198 -11Q125 -11 85 29.5Q45 70 45 134V144Q45 187 60 216Q75 245 99.5 263Q124 281 155 290.5Q186 300 218 305L378 330V344Q378 412 351.5 447Q325 482 255 482Q217 482 193.5 472Q170 462 156 444.5Q142 427 137 404Q132 381 132 355H65V364Q65 394 73 425.5Q81 457 102 482.5Q123 508 160 524.5Q197 541 256 541Q311 541 348 526.5Q385 512 407 486Q429 460 438.5 424Q448 388 448 344V150L454 0Q421 -14 396 -39.5Q371 -65 371 -103Z" glyph-name="aogonek" horiz-adv-x="512" unicode="&#261;" /><glyph d="M177 553Q217 553 248 542Q279 531 307.5 517.5Q336 504 364 493Q392 482 425 482Q441 482 456 487.5Q471 493 483.5 501.5Q496 510 506 520Q516 530 523 538L563 498Q554 486 541 472.5Q528 459 510.5 448Q493 437 471.5 429.5Q450 422 423 422Q383 422 352 433Q321 444 292.5 457.5Q264 471 236 482Q208 493 175 493Q158 493 143.5 487.5Q129 482 116.5 473.5Q104 465 94 455.5Q84 446 77 437L37 477Q46 489 59 502.5Q72 516 89.5 527.5Q107 539 128.5 546Q150 553 177 553ZM177 349Q217 349 248 338Q279 327 307.5 313.5Q336 300 364 289Q392 278 425 278Q441 278 456 283.5Q471 289 483.5 297.5Q496 306 506 315.5Q516 325 523 334L563 294Q554 282 541 268.5Q528 255 510.5 244Q493 233 471.5 225.5Q450 218 423 218Q383 218 352 229Q321 240 292.5 253.5Q264 267 236 278Q208 289 175 289Q158 289 143.5 283.5Q129 278 116.5 269.5Q104 261 94 251.5Q84 242 77 233L37 273Q46 285 59 298.5Q72 312 89.5 323.5Q107 335 128.5 342Q150 349 177 349Z" glyph-name="approxequal" horiz-adv-x="600" unicode="&#8776;" /><glyph d="M200 697Q200 674 216.5 657.5Q233 641 256 641Q279 641 295.5 657.5Q312 674 312 697Q312 720 295.5 736.5Q279 753 256 753Q233 753 216.5 736.5Q200 720 200 697ZM162 697Q162 716 169.5 733.5Q177 751 189.5 763.5Q202 776 219 783.5Q236 791 256 791Q275 791 292.5 783.5Q310 776 322.5 763.5Q335 751 342.5 733.5Q350 716 350 697Q350 677 342.5 660Q335 643 322.5 630.5Q310 618 292.5 610.5Q275 603 256 603Q236 603 219 610.5Q202 618 189.5 630.5Q177 643 169.5 660Q162 677 162 697ZM216 50Q253 50 280 59Q307 68 326.5 80.5Q346 93 358.5 107.5Q371 122 378 134V279L224 254Q173 245 144 219.5Q115 194 115 149V140Q115 122 121 106Q127 90 139 77.5Q151 65 170 57.5Q189 50 216 50ZM385 74Q359 39 313 14Q267 -11 198 -11Q125 -11 85 29.5Q45 70 45 134V144Q45 187 60 216Q75 245 99.5 263Q124 281 155 290.5Q186 300 218 305L378 330V344Q378 412 351.5 447Q325 482 255 482Q217 482 193.5 472Q170 462 156 444.5Q142 427 137 404Q132 381 132 355H65V364Q65 394 73 425.5Q81 457 102 482.5Q123 508 160 524.5Q197 541 256 541Q311 541 348 526.5Q385 512 407 486Q429 460 438.5 424Q448 388 448 344V150L454 0H396Z" glyph-name="aring" horiz-adv-x="512" unicode="&#229;" /><glyph d="M70 472 427 115V780H493V115L850 472V379L460 -11L70 379Z" glyph-name="arrowdown" horiz-adv-x="920" unicode="&#8595;" /><glyph d="M542 780 185 423H850V357H185L542 0H449L59 390L449 780Z" glyph-name="arrowleft" horiz-adv-x="920" unicode="&#8592;" /><glyph d="M471 780 861 390 471 0H378L735 357H70V423H735L378 780Z" glyph-name="arrowright" horiz-adv-x="920" unicode="&#8594;" /><glyph d="M70 401 460 791 850 401V308L493 665V0H427V665L70 308Z" glyph-name="arrowup" horiz-adv-x="920" unicode="&#8593;" /><glyph d="M570 276H498L300 709L102 276H30L265 780H335Z" glyph-name="asciicircum" horiz-adv-x="600" unicode="^" /><glyph d="M177 451Q217 451 248 440Q279 429 307.5 415.5Q336 402 364 391Q392 380 425 380Q441 380 456 385.5Q471 391 483.5 399.5Q496 408 506 418Q516 428 523 436L563 396Q554 384 541 370.5Q528 357 510.5 346Q493 335 471.5 327.5Q450 320 423 320Q383 320 352 331Q321 342 292.5 355.5Q264 369 236 380Q208 391 175 391Q158 391 143.5 385.5Q129 380 116.5 371.5Q104 363 94 353.5Q84 344 77 335L37 375Q46 387 59 400.5Q72 414 89.5 425.5Q107 437 128.5 444Q150 451 177 451Z" glyph-name="asciitilde" horiz-adv-x="600" unicode="~" /><glyph d="M282 451 200 572 235 596 324 482ZM378 648 238 608 225 648 362 698ZM64 482 154 596 188 572 107 451ZM27 698 164 648 151 608 10 648ZM221 800 216 654H173L168 800Z" glyph-name="asterisk" horiz-adv-x="389" unicode="*" /><glyph d="M465 109Q490 109 511 116.5Q532 124 548.5 136Q565 148 577.5 162Q590 176 598 189V401Q590 414 577.5 428Q565 442 548.5 454Q532 466 511 473.5Q490 481 465 481Q428 481 401 467.5Q374 454 357 431Q340 408 331.5 376Q323 344 323 307V283Q323 246 331.5 214Q340 182 357 159Q374 136 401 122.5Q428 109 465 109ZM507 -156Q598 -156 679.5 -132Q761 -108 836 -52L868 -95Q824 -130 778 -152Q732 -174 686 -187.5Q640 -201 594 -206Q548 -211 504 -211Q400 -211 313.5 -178.5Q227 -146 164.5 -84Q102 -22 67.5 67Q33 156 33 270V310Q33 424 67 513Q101 602 162.5 664Q224 726 309.5 758.5Q395 791 499 791Q586 791 664 766.5Q742 742 800.5 692Q859 642 893.5 566.5Q928 491 928 388V358Q928 268 908 210Q888 152 852.5 119Q817 86 768 73Q719 60 661 60H615L605 133Q585 98 547 73.5Q509 49 450 49Q398 49 361 68.5Q324 88 300 120.5Q276 153 265 195Q254 237 254 283V307Q254 353 265 395Q276 437 300 469.5Q324 502 361 521.5Q398 541 450 541Q509 541 547 516Q585 491 605 457L615 530H669L663 383V114Q710 115 748 124.5Q786 134 813 160Q840 186 854.5 233.5Q869 281 869 358V388Q869 482 838.5 548Q808 614 757 656Q706 698 639.5 717Q573 736 502 736H496Q406 736 331.5 707.5Q257 679 203.5 624Q150 569 120 490Q90 411 90 310V270Q90 166 120.5 86.5Q151 7 205.5 -47Q260 -101 335.5 -128.5Q411 -156 501 -156Z" glyph-name="at" horiz-adv-x="961" unicode="@" /><glyph d="M465 209Q490 209 511 216.5Q532 224 548.5 236Q565 248 577.5 262Q590 276 598 289V501Q590 514 577.5 528Q565 542 548.5 554Q532 566 511 573.5Q490 581 465 581Q428 581 401 567.5Q374 554 357 531Q340 508 331.5 476Q323 444 323 407V383Q323 346 331.5 314Q340 282 357 259Q374 236 401 222.5Q428 209 465 209ZM507 -56Q598 -56 679.5 -32Q761 -8 836 48L868 5Q824 -30 778 -52Q732 -74 686 -87.5Q640 -101 594 -106Q548 -111 504 -111Q400 -111 313.5 -78.5Q227 -46 164.5 16Q102 78 67.5 167Q33 256 33 370V410Q33 524 67 613Q101 702 162.5 764Q224 826 309.5 858.5Q395 891 499 891Q586 891 664 866.5Q742 842 800.5 792Q859 742 893.5 666.5Q928 591 928 488V458Q928 368 908 310Q888 252 852.5 219Q817 186 768 173Q719 160 661 160H615L605 233Q585 198 547 173.5Q509 149 450 149Q398 149 361 168.5Q324 188 300 220.5Q276 253 265 295Q254 337 254 383V407Q254 453 265 495Q276 537 300 569.5Q324 602 361 621.5Q398 641 450 641Q509 641 547 616Q585 591 605 557L615 630H669L663 483V214Q710 215 748 224.5Q786 234 813 260Q840 286 854.5 333.5Q869 381 869 458V488Q869 582 838.5 648Q808 714 757 756Q706 798 639.5 817Q573 836 502 836H496Q406 836 331.5 807.5Q257 779 203.5 724Q150 669 120 590Q90 511 90 410V370Q90 266 120.5 186.5Q151 107 205.5 53Q260 -1 335.5 -28.5Q411 -56 501 -56Z" glyph-name="at.cap" horiz-adv-x="961" unicode="&#58643;" /><glyph d="M412 746Q412 692 389.5 667.5Q367 643 331 643Q308 643 288.5 651.5Q269 660 252.5 670Q236 680 221 688.5Q206 697 191 697Q176 697 165.5 688Q155 679 155 654H100Q100 708 122.5 732.5Q145 757 181 757Q204 757 223.5 748.5Q243 740 259.5 730Q276 720 291 711.5Q306 703 321 703Q336 703 346.5 712Q357 721 357 746ZM216 50Q253 50 280 59Q307 68 326.5 80.5Q346 93 358.5 107.5Q371 122 378 134V279L224 254Q173 245 144 219.5Q115 194 115 149V140Q115 122 121 106Q127 90 139 77.5Q151 65 170 57.5Q189 50 216 50ZM385 74Q359 39 313 14Q267 -11 198 -11Q125 -11 85 29.5Q45 70 45 134V144Q45 187 60 216Q75 245 99.5 263Q124 281 155 290.5Q186 300 218 305L378 330V344Q378 412 351.5 447Q325 482 255 482Q217 482 193.5 472Q170 462 156 444.5Q142 427 137 404Q132 381 132 355H65V364Q65 394 73 425.5Q81 457 102 482.5Q123 508 160 524.5Q197 541 256 541Q311 541 348 526.5Q385 512 407 486Q429 460 438.5 424Q448 388 448 344V150L454 0H396Z" glyph-name="atilde" horiz-adv-x="512" unicode="&#227;" /><glyph d="M136 134Q144 121 155.5 106.5Q167 92 183.5 80Q200 68 221.5 60Q243 52 270 52Q345 52 381 106Q417 160 417 253V277Q417 370 381 424Q345 478 270 478Q243 478 221.5 470Q200 462 183.5 450Q167 438 155.5 423.5Q144 409 136 396ZM136 469Q157 499 193.5 520Q230 541 286 541Q340 541 378.5 520.5Q417 500 441.5 464Q466 428 477.5 380Q489 332 489 277V253Q489 198 477.5 150Q466 102 441.5 66Q417 30 378.5 9.5Q340 -11 286 -11Q225 -11 187 13Q149 37 128 72L118 0H60L66 150V800H136Z" glyph-name="b" horiz-adv-x="537" unicode="b" /><glyph d="M15 840H85L315 -120H245Z" glyph-name="backslash" horiz-adv-x="329" unicode="\" /><glyph d="M100 780 292 0H222L30 780Z" glyph-name="backslash.cap" horiz-adv-x="321" unicode="&#58466;" /><glyph d="M208 186 287 265 208 344 256 392 335 313 414 392 462 344 383 265 462 186 414 138 335 217 256 138ZM134 466V64H536V466ZM70 0V530H600V0Z" glyph-name="ballotboxwithx" horiz-adv-x="680" unicode="&#9746;" /><glyph d="M66 840H136V-120H66Z" glyph-name="bar" horiz-adv-x="201" unicode="|" /><glyph d="M66 780H136V0H66Z" glyph-name="bar.cap" horiz-adv-x="201" unicode="&#58467;" /><glyph d="M141 860H61V930H141ZM136 134Q144 121 155.5 106.5Q167 92 183.5 80Q200 68 221.5 60Q243 52 270 52Q345 52 381 106Q417 160 417 253V277Q417 370 381 424Q345 478 270 478Q243 478 221.5 470Q200 462 183.5 450Q167 438 155.5 423.5Q144 409 136 396ZM136 469Q157 499 193.5 520Q230 541 286 541Q340 541 378.5 520.5Q417 500 441.5 464Q466 428 477.5 380Q489 332 489 277V253Q489 198 477.5 150Q466 102 441.5 66Q417 30 378.5 9.5Q340 -11 286 -11Q225 -11 187 13Q149 37 128 72L118 0H60L66 150V800H136Z" glyph-name="bdotaccent" horiz-adv-x="537" unicode="&#7683;" /><glyph d="M59 390Q59 473 90.5 546Q122 619 176.5 673.5Q231 728 304 759.5Q377 791 460 791Q543 791 616 759.5Q689 728 743.5 673.5Q798 619 829.5 546Q861 473 861 390Q861 307 829.5 234Q798 161 743.5 106.5Q689 52 616 20.5Q543 -11 460 -11Q377 -11 304 20.5Q231 52 176.5 106.5Q122 161 90.5 234Q59 307 59 390Z" glyph-name="blackcircle" horiz-adv-x="920" unicode="&#9679;" /><glyph d="M70 0V530H600V0Z" glyph-name="blacksmallsquare" horiz-adv-x="680" unicode="&#9642;" /><glyph d="M70 0V780H850V0Z" glyph-name="blacksquare" horiz-adv-x="920" unicode="&#9632;" /><glyph d="M275 774Q253 774 235.5 769.5Q218 765 206 753.5Q194 742 187.5 722Q181 702 181 671V463Q181 421 166.5 396.5Q152 372 127 360Q152 347 166.5 322.5Q181 298 181 257V49Q181 18 187.5 -2Q194 -22 206 -33.5Q218 -45 235.5 -49.5Q253 -54 275 -54V-120H257Q230 -120 203.5 -113.5Q177 -107 156.5 -91.5Q136 -76 123.5 -49Q111 -22 111 19V239Q111 266 105.5 283.5Q100 301 89.5 310.5Q79 320 62.5 323.5Q46 327 25 327V393Q46 393 62.5 396.5Q79 400 89.5 409.5Q100 419 105.5 436.5Q111 454 111 481V701Q111 742 123.5 769Q136 796 156.5 811.5Q177 827 203.5 833.5Q230 840 257 840H275Z" glyph-name="braceleft" horiz-adv-x="317" unicode="{" /><glyph d="M275 714Q253 714 235.5 709.5Q218 705 206 693.5Q194 682 187.5 662Q181 642 181 611V493Q181 451 166.5 426.5Q152 402 127 390Q152 377 166.5 352.5Q181 328 181 287V169Q181 138 187.5 118Q194 98 206 86.5Q218 75 235.5 70.5Q253 66 275 66V0H257Q230 0 203.5 6.5Q177 13 156.5 28.5Q136 44 123.5 71Q111 98 111 139V269Q111 296 105.5 313.5Q100 331 89.5 340.5Q79 350 62.5 353.5Q46 357 25 357V423Q46 423 62.5 426.5Q79 430 89.5 439.5Q100 449 105.5 466.5Q111 484 111 511V641Q111 682 123.5 709Q136 736 156.5 751.5Q177 767 203.5 773.5Q230 780 257 780H275Z" glyph-name="braceleft.cap" horiz-adv-x="317" unicode="&#58517;" /><glyph d="M42 -54Q64 -54 81.5 -49.5Q99 -45 111 -33.5Q123 -22 129.5 -2Q136 18 136 49V257Q136 298 150.5 322.5Q165 347 190 360Q165 372 150.5 396.5Q136 421 136 463V671Q136 702 129.5 722Q123 742 111 753.5Q99 765 81.5 769.5Q64 774 42 774V840H60Q87 840 113.5 833.5Q140 827 160.5 811.5Q181 796 193.5 769Q206 742 206 701V481Q206 454 211.5 436.5Q217 419 227.5 409.5Q238 400 254.5 396.5Q271 393 292 393V327Q271 327 254.5 323.5Q238 320 227.5 310.5Q217 301 211.5 283.5Q206 266 206 239V19Q206 -22 193.5 -49Q181 -76 160.5 -91.5Q140 -107 113.5 -113.5Q87 -120 60 -120H42Z" glyph-name="braceright" horiz-adv-x="317" unicode="}" /><glyph d="M42 780H60Q87 780 113.5 773.5Q140 767 160.5 751.5Q181 736 193.5 709Q206 682 206 641V511Q206 484 211.5 466.5Q217 449 227.5 439.5Q238 430 254.5 426.5Q271 423 292 423V357Q271 357 254.5 353.5Q238 350 227.5 340.5Q217 331 211.5 313.5Q206 296 206 269V139Q206 98 193.5 71Q181 44 160.5 28.5Q140 13 113.5 6.5Q87 0 60 0H42V66Q64 66 81.5 70.5Q99 75 111 86.5Q123 98 129.5 118Q136 138 136 169V287Q136 328 150.5 352.5Q165 377 190 390Q165 402 150.5 426.5Q136 451 136 493V611Q136 642 129.5 662Q123 682 111 693.5Q99 705 81.5 709.5Q64 714 42 714Z" glyph-name="braceright.cap" horiz-adv-x="317" unicode="&#58518;" /><glyph d="M275 840V774H138V-54H275V-120H67V840Z" glyph-name="bracketleft" horiz-adv-x="317" unicode="[" /><glyph d="M275 780V714H138V66H275V0H67V780Z" glyph-name="bracketleft.cap" horiz-adv-x="317" unicode="&#58515;" /><glyph d="M42 -120V-54H180V774H42V840H250V-120Z" glyph-name="bracketright" horiz-adv-x="317" unicode="]" /><glyph d="M42 0V66H180V714H42V780H250V0Z" glyph-name="bracketright.cap" horiz-adv-x="317" unicode="&#58516;" /><glyph d="M250 603Q207 603 176.5 616Q146 629 126.5 652.5Q107 676 98 708.5Q89 741 89 780H146Q146 726 170 694Q194 662 250 662Q306 662 330 694Q354 726 354 780H411Q412 702 373.5 652.5Q335 603 250 603Z" glyph-name="breve" horiz-adv-x="500" unicode="&#728;" /><glyph d="M250 829Q211 829 183 838Q155 847 138 863.5Q121 880 113 902Q105 924 105 950H161Q161 917 182 898Q203 879 250 879Q297 879 318 898Q339 917 339 950H395Q395 924 387 902Q379 880 362 863.5Q345 847 317 838Q289 829 250 829Z" glyph-name="breve.cap" horiz-adv-x="500" unicode="&#58406;" /><glyph d="M66 324H136V-120H66ZM66 840H136V396H66Z" glyph-name="brokenbar" horiz-adv-x="201" unicode="&#166;" /><glyph d="M66 354H136V0H66ZM66 780H136V426H66Z" glyph-name="brokenbar.cap" horiz-adv-x="201" unicode="&#58469;" /><glyph d="M329 219H68V481H329Z" glyph-name="bullet" horiz-adv-x="397" unicode="&#8226;" /><glyph d="M329 259H68V521H329Z" glyph-name="bullet.cap" horiz-adv-x="397" unicode="&#58470;" /><glyph d="M120 253Q120 162 156 107Q192 52 271 52Q308 52 334 63Q360 74 376 92Q392 110 399 134Q406 158 406 184H473V168Q473 136 462 104.5Q451 73 426.5 47Q402 21 363.5 5Q325 -11 270 -11Q212 -11 170 9.5Q128 30 101 66Q74 102 61.5 150Q49 198 49 253V277Q49 332 61.5 380Q74 428 101 464Q128 500 170 520.5Q212 541 270 541Q325 541 363.5 524Q402 507 426.5 480.5Q451 454 462 421Q473 388 473 356V336H406Q406 366 398.5 392Q391 418 374.5 437Q358 456 332.5 467Q307 478 271 478Q192 478 156 423Q120 368 120 277Z" glyph-name="c" horiz-adv-x="522" unicode="c" /><glyph d="M400 780 306 614H234L324 780ZM120 253Q120 162 156 107Q192 52 271 52Q308 52 334 63Q360 74 376 92Q392 110 399 134Q406 158 406 184H473V168Q473 136 462 104.5Q451 73 426.5 47Q402 21 363.5 5Q325 -11 270 -11Q212 -11 170 9.5Q128 30 101 66Q74 102 61.5 150Q49 198 49 253V277Q49 332 61.5 380Q74 428 101 464Q128 500 170 520.5Q212 541 270 541Q325 541 363.5 524Q402 507 426.5 480.5Q451 454 462 421Q473 388 473 356V336H406Q406 366 398.5 392Q391 418 374.5 437Q358 456 332.5 467Q307 478 271 478Q192 478 156 423Q120 368 120 277Z" glyph-name="cacute" horiz-adv-x="522" unicode="&#263;" /><glyph d="M157 780 250 666 343 780H412L281 614H219L88 780Z" glyph-name="caron" horiz-adv-x="500" unicode="&#711;" /><glyph d="M182 950 250 883 318 950H388L282 840H218L112 950Z" glyph-name="caron.cap" horiz-adv-x="500" unicode="&#58413;" /><glyph d="M383 800 364 614H324V800Z" glyph-name="caronSlovak" horiz-adv-x="500" unicode="&#58387;" /><glyph d="M177 780 270 666 363 780H432L301 614H239L108 780ZM120 253Q120 162 156 107Q192 52 271 52Q308 52 334 63Q360 74 376 92Q392 110 399 134Q406 158 406 184H473V168Q473 136 462 104.5Q451 73 426.5 47Q402 21 363.5 5Q325 -11 270 -11Q212 -11 170 9.5Q128 30 101 66Q74 102 61.5 150Q49 198 49 253V277Q49 332 61.5 380Q74 428 101 464Q128 500 170 520.5Q212 541 270 541Q325 541 363.5 524Q402 507 426.5 480.5Q451 454 462 421Q473 388 473 356V336H406Q406 366 398.5 392Q391 418 374.5 437Q358 456 332.5 467Q307 478 271 478Q192 478 156 423Q120 368 120 277Z" glyph-name="ccaron" horiz-adv-x="522" unicode="&#269;" /><glyph d="M203 -147Q216 -154 234.5 -158Q253 -162 273 -162Q302 -162 316.5 -155.5Q331 -149 331 -131Q331 -114 314.5 -107Q298 -100 269 -100Q259 -100 249 -102Q245 -103 240 -103L221 -80L248 -10Q196 -6 158.5 15.5Q121 37 96.5 72.5Q72 108 60.5 154Q49 200 49 253V277Q49 332 61.5 380Q74 428 101 464Q128 500 170 520.5Q212 541 270 541Q325 541 363.5 524Q402 507 426.5 480.5Q451 454 462 421Q473 388 473 356V336H406Q406 366 398.5 392Q391 418 374.5 437Q358 456 332.5 467Q307 478 271 478Q192 478 156 423Q120 368 120 277V253Q120 162 156 107Q192 52 271 52Q308 52 334 63Q360 74 376 92Q392 110 399 134Q406 158 406 184H473V168Q473 138 463 108Q453 78 432 53.5Q411 29 377.5 11.5Q344 -6 296 -10L279 -56H283Q301 -56 319 -60Q337 -64 351.5 -73.5Q366 -83 374.5 -97.5Q383 -112 383 -133Q383 -175 354.5 -193Q326 -211 280 -211Q252 -211 227.5 -206Q203 -201 188 -191Z" glyph-name="ccedilla" horiz-adv-x="522" unicode="&#231;" /><glyph d="M108 614 239 780H301L432 614H363L270 727L177 614ZM120 253Q120 162 156 107Q192 52 271 52Q308 52 334 63Q360 74 376 92Q392 110 399 134Q406 158 406 184H473V168Q473 136 462 104.5Q451 73 426.5 47Q402 21 363.5 5Q325 -11 270 -11Q212 -11 170 9.5Q128 30 101 66Q74 102 61.5 150Q49 198 49 253V277Q49 332 61.5 380Q74 428 101 464Q128 500 170 520.5Q212 541 270 541Q325 541 363.5 524Q402 507 426.5 480.5Q451 454 462 421Q473 388 473 356V336H406Q406 366 398.5 392Q391 418 374.5 437Q358 456 332.5 467Q307 478 271 478Q192 478 156 423Q120 368 120 277Z" glyph-name="ccircumflex" horiz-adv-x="522" unicode="&#265;" /><glyph d="M314 657H226V745H314ZM120 253Q120 162 156 107Q192 52 271 52Q308 52 334 63Q360 74 376 92Q392 110 399 134Q406 158 406 184H473V168Q473 136 462 104.5Q451 73 426.5 47Q402 21 363.5 5Q325 -11 270 -11Q212 -11 170 9.5Q128 30 101 66Q74 102 61.5 150Q49 198 49 253V277Q49 332 61.5 380Q74 428 101 464Q128 500 170 520.5Q212 541 270 541Q325 541 363.5 524Q402 507 426.5 480.5Q451 454 462 421Q473 388 473 356V336H406Q406 366 398.5 392Q391 418 374.5 437Q358 456 332.5 467Q307 478 271 478Q192 478 156 423Q120 368 120 277Z" glyph-name="cdotaccent" horiz-adv-x="522" unicode="&#267;" /><glyph d="M177 -147Q190 -154 208.5 -158Q227 -162 247 -162Q276 -162 290.5 -155.5Q305 -149 305 -131Q305 -114 288.5 -107Q272 -100 243 -100Q233 -100 223 -102Q219 -103 214 -103L195 -80L226 0H274L253 -56H257Q275 -56 293 -60Q311 -64 325.5 -73.5Q340 -83 348.5 -97.5Q357 -112 357 -133Q357 -175 328.5 -193Q300 -211 254 -211Q226 -211 201.5 -206Q177 -201 162 -191Z" glyph-name="cedilla" horiz-adv-x="602" unicode="&#184;" /><glyph d="M135 376Q135 213 208 153L329 660Q326 660 322.5 660.5Q319 661 316 661H313Q135 661 135 404ZM404 714Q473 691 505.5 635Q538 579 538 501V477H467Q467 544 448.5 586.5Q430 629 388 648L263 125Q274 122 286.5 121Q299 120 313 120H316Q357 120 385.5 132Q414 144 432 165Q450 186 458.5 216Q467 246 467 282H538V269Q538 222 525 183Q512 144 484 115.5Q456 87 413.5 71Q371 55 313 55Q278 55 248 61L219 -60H157L191 82Q62 150 62 376V404Q62 562 124.5 644.5Q187 727 313 727Q321 727 328.5 726.5Q336 726 344 725L372 840H434Z" glyph-name="cent" horiz-adv-x="600" unicode="&#162;" /><glyph d="M88 614 219 780H281L412 614H343L250 727L157 614Z" glyph-name="circumflex" horiz-adv-x="500" unicode="&#710;" /><glyph d="M112 840 218 950H282L388 840H318L250 906L182 840Z" glyph-name="circumflex.cap" horiz-adv-x="500" unicode="&#58403;" /><glyph d="M349 0Q368 37 381.5 73Q395 109 404.5 147Q414 185 420.5 227Q427 269 431 320L428 321Q415 290 396 261Q377 232 352 209.5Q327 187 296 173.5Q265 160 228 160Q191 160 159 173.5Q127 187 103 210.5Q79 234 65.5 265.5Q52 297 52 334Q52 373 64.5 406Q77 439 100 463Q123 487 155 500.5Q187 514 226 514Q252 514 272.5 507Q293 500 310 491L312 493Q295 518 284.5 547.5Q274 577 274 610Q274 647 287.5 680Q301 713 324.5 737.5Q348 762 380 776Q412 790 450 790Q488 790 520 776Q552 762 575.5 737.5Q599 713 612.5 680Q626 647 626 610Q626 577 615.5 547.5Q605 518 588 493L590 491Q607 500 627.5 507Q648 514 674 514Q713 514 745 500.5Q777 487 800 463Q823 439 835.5 406Q848 373 848 334Q848 297 834.5 265.5Q821 234 797 210.5Q773 187 741 173.5Q709 160 672 160Q635 160 604 173.5Q573 187 548 209.5Q523 232 504 261Q485 290 472 321L469 320Q473 269 479.5 227Q486 185 495.5 147Q505 109 518.5 73Q532 37 551 0Z" glyph-name="club" horiz-adv-x="900" unicode="&#9827;" /><glyph d="M153 345H63V435H153ZM153 0H63V90H153Z" glyph-name="colon" horiz-adv-x="216" unicode=":" /><glyph d="M195 345H105V435H195ZM195 0H105V90H195Z" glyph-name="colon.T" horiz-adv-x="300" unicode="&#61828;" /><glyph d="M153 18Q153 -118 40 -118V-76Q71 -76 89 -59.5Q107 -43 110 0H63V90H153Z" glyph-name="comma" horiz-adv-x="216" unicode="," /><glyph d="M195 18Q195 -118 82 -118V-76Q113 -76 131 -59.5Q149 -43 152 0H105V90H195Z" glyph-name="comma.T" horiz-adv-x="300" unicode="&#61827;" /><glyph d="M291 -106Q291 -158 263.5 -186Q236 -214 186 -214V-178Q213 -178 230.5 -165.5Q248 -153 253 -124H209V-56H291Z" glyph-name="commaaccent" horiz-adv-x="602" unicode="&#58388;" /><glyph d="M210 882Q210 916 231.5 939Q253 962 301 962V930Q277 930 264.5 923.5Q252 917 248 900H290V840H210Z" glyph-name="commaaccent.cap" horiz-adv-x="500" unicode="&#58414;" /><glyph d="M461 206Q498 206 522 216Q546 226 560 241.5Q574 257 580 275.5Q586 294 586 311H651V298Q651 275 641.5 248Q632 221 609.5 198Q587 175 550.5 159.5Q514 144 460 144Q403 144 363.5 165Q324 186 299.5 219.5Q275 253 263.5 295Q252 337 252 378V402Q252 443 263.5 485Q275 527 299.5 560.5Q324 594 363.5 615Q403 636 460 636Q514 636 550.5 620Q587 604 609.5 580Q632 556 641.5 528Q651 500 651 476V459H586Q586 480 580 501Q574 522 559.5 538Q545 554 521 564Q497 574 461 574Q422 574 395.5 559Q369 544 352 520Q335 496 327.5 465Q320 434 320 402V378Q320 346 327.5 315Q335 284 352 260Q369 236 395.5 221Q422 206 461 206ZM102 390Q102 316 130 250.5Q158 185 206.5 136.5Q255 88 320.5 60Q386 32 460 32Q534 32 599.5 60Q665 88 713.5 136.5Q762 185 790 250.5Q818 316 818 390Q818 464 790 529.5Q762 595 713.5 643.5Q665 692 599.5 720Q534 748 460 748Q386 748 320.5 720Q255 692 206.5 643.5Q158 595 130 529.5Q102 464 102 390ZM59 390Q59 473 90.5 546Q122 619 176.5 673.5Q231 728 304 759.5Q377 791 460 791Q543 791 616 759.5Q689 728 743.5 673.5Q798 619 829.5 546Q861 473 861 390Q861 307 829.5 234Q798 161 743.5 106.5Q689 52 616 20.5Q543 -11 460 -11Q377 -11 304 20.5Q231 52 176.5 106.5Q122 161 90.5 234Q59 307 59 390Z" glyph-name="copyright" horiz-adv-x="920" unicode="&#169;" /><glyph d="M269 52Q296 52 317.5 60Q339 68 355.5 80Q372 92 384 106.5Q396 121 404 134V396Q396 409 384 423.5Q372 438 355.5 450Q339 462 317.5 470Q296 478 269 478Q194 478 158 424Q122 370 122 277V253Q122 160 158 106Q194 52 269 52ZM254 541Q310 541 346 520Q382 499 404 469V800H474V150L480 0H421L411 71Q391 37 352.5 13Q314 -11 254 -11Q200 -11 161.5 9.5Q123 30 98.5 66Q74 102 62.5 150Q51 198 51 253V277Q51 332 62.5 380Q74 428 98.5 464Q123 500 161.5 520.5Q200 541 254 541Z" glyph-name="d" horiz-adv-x="540" unicode="d" /><glyph d="M367 593 230 598V640L367 645ZM21 645 159 640V598L21 593ZM221 800 216 654H173L168 800ZM173 584H216L221 458L216 331H173L168 458Z" glyph-name="dagger" horiz-adv-x="389" unicode="&#8224;" /><glyph d="M367 593 230 598V640L367 645ZM21 645 159 640V598L21 593ZM367 376 230 381V424L367 429ZM21 429 159 424V381L21 376ZM173 584H216L221 511L216 438H173L168 511ZM221 800 216 654H173L168 800ZM173 367H216L221 241L216 115H173L168 241Z" glyph-name="daggerdbl" horiz-adv-x="389" unicode="&#8225;" /><glyph d="M607 800 588 614H548V800ZM269 52Q296 52 317.5 60Q339 68 355.5 80Q372 92 384 106.5Q396 121 404 134V396Q396 409 384 423.5Q372 438 355.5 450Q339 462 317.5 470Q296 478 269 478Q194 478 158 424Q122 370 122 277V253Q122 160 158 106Q194 52 269 52ZM254 541Q310 541 346 520Q382 499 404 469V800H474V150L480 0H421L411 71Q391 37 352.5 13Q314 -11 254 -11Q200 -11 161.5 9.5Q123 30 98.5 66Q74 102 62.5 150Q51 198 51 253V277Q51 332 62.5 380Q74 428 98.5 464Q123 500 161.5 520.5Q200 541 254 541Z" glyph-name="dcaron" horiz-adv-x="540" unicode="&#271;" /><glyph d="M404 396Q396 409 384 423.5Q372 438 355.5 450Q339 462 317.5 470Q296 478 269 478Q194 478 158 424Q122 370 122 277V253Q122 160 158 106Q194 52 269 52Q296 52 317.5 60Q339 68 355.5 80Q372 92 384 106.5Q396 121 404 134ZM565 636H474V150L480 0H421L411 71Q391 37 352.5 13Q314 -11 254 -11Q200 -11 161.5 9.5Q123 30 98.5 66Q74 102 62.5 150Q51 198 51 253V277Q51 332 62.5 380Q74 428 98.5 464Q123 500 161.5 520.5Q200 541 254 541Q310 541 346 520Q382 499 404 469V636H271V694H404V800H474V694H565Z" glyph-name="dcroat" horiz-adv-x="540" unicode="&#273;" /><glyph d="M479 860H399V930H479ZM404 396Q396 409 384 423.5Q372 438 355.5 450Q339 462 317.5 470Q296 478 269 478Q194 478 158 424Q122 370 122 277V253Q122 160 158 106Q194 52 269 52Q296 52 317.5 60Q339 68 355.5 80Q372 92 384 106.5Q396 121 404 134ZM254 541Q310 541 346 520Q382 499 404 469V800H474V150L480 0H421L411 71Q391 37 352.5 13Q314 -11 254 -11Q200 -11 161.5 9.5Q123 30 98.5 66Q74 102 62.5 150Q51 198 51 253V277Q51 332 62.5 380Q74 428 98.5 464Q123 500 161.5 520.5Q200 541 254 541Z" glyph-name="ddotaccent" horiz-adv-x="540" unicode="&#7691;" /><glyph d="M353 635Q353 600 341.5 572Q330 544 309.5 524.5Q289 505 261 494.5Q233 484 200 484Q167 484 139 494.5Q111 505 90.5 524.5Q70 544 58.5 572Q47 600 47 635V639Q47 674 58.5 702.5Q70 731 90.5 750.5Q111 770 139 780.5Q167 791 200 791Q233 791 261 780.5Q289 770 309.5 750.5Q330 731 341.5 702.5Q353 674 353 639ZM300 641Q300 686 271.5 711.5Q243 737 203 737H197Q157 737 128.5 711.5Q100 686 100 641V634Q100 589 128.5 563Q157 537 197 537H203Q243 537 271.5 563Q300 589 300 634Z" glyph-name="degree" horiz-adv-x="400" unicode="&#176;" /><glyph d="M817 390Q764 348 712.5 300.5Q661 253 614 201.5Q567 150 525.5 96.5Q484 43 451 -10H449Q416 43 374.5 96.5Q333 150 286 201.5Q239 253 187.5 300.5Q136 348 83 390Q136 432 187.5 479.5Q239 527 286 578.5Q333 630 374.5 683.5Q416 737 449 790H451Q484 737 525.5 683.5Q567 630 614 578.5Q661 527 712.5 479.5Q764 432 817 390Z" glyph-name="diamond" horiz-adv-x="900" unicode="&#9830;" /><glyph d="M377 657H290V745H377ZM210 657H123V745H210Z" glyph-name="dieresis" horiz-adv-x="500" unicode="&#168;" /><glyph d="M368 860H289V930H368ZM211 860H132V930H211Z" glyph-name="dieresis.cap" horiz-adv-x="500" unicode="&#58409;" /><glyph d="M344 563H256V651H344ZM344 129H256V217H344ZM48 423H552V357H48Z" glyph-name="divide" horiz-adv-x="600" unicode="&#247;" /><glyph d="M143 547Q143 501 172.5 473Q202 445 276 431L332 663Q324 664 317 664.5Q310 665 302 665H298Q266 665 237.5 657.5Q209 650 188 635.5Q167 621 155 600Q143 579 143 552ZM310 115Q380 115 422 147Q464 179 464 237V242Q464 298 429 325Q394 352 321 364L262 119Q281 115 307 115ZM404 711Q469 689 499.5 638Q530 587 530 512V496H460Q460 610 389 647L335 423Q438 408 487.5 367Q537 326 537 249V241Q537 154 476.5 103.5Q416 53 308 53Q291 53 276.5 54Q262 55 248 57L220 -60H159L191 73Q128 99 95.5 149.5Q63 200 63 267V274H134Q134 226 152.5 192Q171 158 206 138L262 372Q158 388 114.5 431.5Q71 475 71 540V547Q71 589 87.5 622Q104 655 134.5 678.5Q165 702 207 714.5Q249 727 300 727Q325 727 346 724L374 840H435Z" glyph-name="dollar" horiz-adv-x="600" unicode="$" /><glyph d="M294 657H206V745H294Z" glyph-name="dotaccent" horiz-adv-x="500" unicode="&#729;" /><glyph d="M290 860H210V930H290Z" glyph-name="dotaccent.cap" horiz-adv-x="500" unicode="&#58408;" /><glyph d="M291 -169H209V-87H291Z" glyph-name="dotbelow" horiz-adv-x="602" unicode="&#58389;" /><glyph d="M73 530H143V0H73Z" glyph-name="dotlessi" horiz-adv-x="216" unicode="&#305;" /><glyph d="M73 530H143V-53Q143 -96 131.5 -126Q120 -156 99.5 -175Q79 -194 50.5 -202.5Q22 -211 -12 -211Q-44 -211 -62 -206.5Q-80 -202 -86 -200V-139Q-79 -142 -62.5 -145Q-46 -148 -29 -148Q21 -148 47 -127.5Q73 -107 73 -44Z" glyph-name="dotlessj" horiz-adv-x="216" unicode="&#567;" /><glyph d="M191 840H261V-120H191ZM66 840H136V-120H66Z" glyph-name="doublebar" horiz-adv-x="327" unicode="&#8214;" /><glyph d="M191 780H261V0H191ZM66 780H136V0H66Z" glyph-name="doublebar.cap" horiz-adv-x="327" unicode="&#58468;" /><glyph d="M259 780 343 614H280L192 780ZM130 780 220 614H157L62 780Z" glyph-name="doublegrave" horiz-adv-x="500" unicode="&#58386;" /><glyph d="M161 950 221 840H154L91 950ZM288 950 346 840H279L218 950Z" glyph-name="doublegrave.cap" horiz-adv-x="500" unicode="&#58412;" /><glyph d="M272 482Q197 482 159.5 431.5Q122 381 120 294H424Q421 381 384.5 431.5Q348 482 272 482ZM120 236Q122 148 160 98Q198 48 278 48Q318 48 346.5 59Q375 70 393 87.5Q411 105 419.5 127Q428 149 428 170H495V166Q495 135 482 103.5Q469 72 442.5 46.5Q416 21 375 5Q334 -11 278 -11Q218 -11 174.5 9.5Q131 30 103.5 66Q76 102 62.5 150.5Q49 199 49 254V276Q49 331 62 379.5Q75 428 102.5 464Q130 500 172.5 520.5Q215 541 273 541Q331 541 373 520.5Q415 500 442 464Q469 428 482 379.5Q495 331 495 276V236Z" glyph-name="e" horiz-adv-x="544" unicode="e" /><glyph d="M403 780 309 614H237L327 780ZM272 482Q197 482 159.5 431.5Q122 381 120 294H424Q421 381 384.5 431.5Q348 482 272 482ZM120 236Q122 148 160 98Q198 48 278 48Q318 48 346.5 59Q375 70 393 87.5Q411 105 419.5 127Q428 149 428 170H495V166Q495 135 482 103.5Q469 72 442.5 46.5Q416 21 375 5Q334 -11 278 -11Q218 -11 174.5 9.5Q131 30 103.5 66Q76 102 62.5 150.5Q49 199 49 254V276Q49 331 62 379.5Q75 428 102.5 464Q130 500 172.5 520.5Q215 541 273 541Q331 541 373 520.5Q415 500 442 464Q469 428 482 379.5Q495 331 495 276V236Z" glyph-name="eacute" horiz-adv-x="544" unicode="&#233;" /><glyph d="M273 603Q230 603 199.5 616Q169 629 149.5 652.5Q130 676 121 708.5Q112 741 112 780H169Q169 726 193 694Q217 662 273 662Q329 662 353 694Q377 726 377 780H434Q435 702 396.5 652.5Q358 603 273 603ZM272 482Q197 482 159.5 431.5Q122 381 120 294H424Q421 381 384.5 431.5Q348 482 272 482ZM120 236Q122 148 160 98Q198 48 278 48Q318 48 346.5 59Q375 70 393 87.5Q411 105 419.5 127Q428 149 428 170H495V166Q495 135 482 103.5Q469 72 442.5 46.5Q416 21 375 5Q334 -11 278 -11Q218 -11 174.5 9.5Q131 30 103.5 66Q76 102 62.5 150.5Q49 199 49 254V276Q49 331 62 379.5Q75 428 102.5 464Q130 500 172.5 520.5Q215 541 273 541Q331 541 373 520.5Q415 500 442 464Q469 428 482 379.5Q495 331 495 276V236Z" glyph-name="ebreve" horiz-adv-x="544" unicode="&#277;" /><glyph d="M180 780 273 666 366 780H435L304 614H242L111 780ZM272 482Q197 482 159.5 431.5Q122 381 120 294H424Q421 381 384.5 431.5Q348 482 272 482ZM120 236Q122 148 160 98Q198 48 278 48Q318 48 346.5 59Q375 70 393 87.5Q411 105 419.5 127Q428 149 428 170H495V166Q495 135 482 103.5Q469 72 442.5 46.5Q416 21 375 5Q334 -11 278 -11Q218 -11 174.5 9.5Q131 30 103.5 66Q76 102 62.5 150.5Q49 199 49 254V276Q49 331 62 379.5Q75 428 102.5 464Q130 500 172.5 520.5Q215 541 273 541Q331 541 373 520.5Q415 500 442 464Q469 428 482 379.5Q495 331 495 276V236Z" glyph-name="ecaron" horiz-adv-x="544" unicode="&#283;" /><glyph d="M111 614 242 780H304L435 614H366L273 727L180 614ZM272 482Q197 482 159.5 431.5Q122 381 120 294H424Q421 381 384.5 431.5Q348 482 272 482ZM120 236Q122 148 160 98Q198 48 278 48Q318 48 346.5 59Q375 70 393 87.5Q411 105 419.5 127Q428 149 428 170H495V166Q495 135 482 103.5Q469 72 442.5 46.5Q416 21 375 5Q334 -11 278 -11Q218 -11 174.5 9.5Q131 30 103.5 66Q76 102 62.5 150.5Q49 199 49 254V276Q49 331 62 379.5Q75 428 102.5 464Q130 500 172.5 520.5Q215 541 273 541Q331 541 373 520.5Q415 500 442 464Q469 428 482 379.5Q495 331 495 276V236Z" glyph-name="ecircumflex" horiz-adv-x="544" unicode="&#234;" /><glyph d="M233 657H146V745H233ZM400 657H313V745H400ZM272 482Q197 482 159.5 431.5Q122 381 120 294H424Q421 381 384.5 431.5Q348 482 272 482ZM120 236Q122 148 160 98Q198 48 278 48Q318 48 346.5 59Q375 70 393 87.5Q411 105 419.5 127Q428 149 428 170H495V166Q495 135 482 103.5Q469 72 442.5 46.5Q416 21 375 5Q334 -11 278 -11Q218 -11 174.5 9.5Q131 30 103.5 66Q76 102 62.5 150.5Q49 199 49 254V276Q49 331 62 379.5Q75 428 102.5 464Q130 500 172.5 520.5Q215 541 273 541Q331 541 373 520.5Q415 500 442 464Q469 428 482 379.5Q495 331 495 276V236Z" glyph-name="edieresis" horiz-adv-x="544" unicode="&#235;" /><glyph d="M317 657H229V745H317ZM272 482Q197 482 159.5 431.5Q122 381 120 294H424Q421 381 384.5 431.5Q348 482 272 482ZM120 236Q122 148 160 98Q198 48 278 48Q318 48 346.5 59Q375 70 393 87.5Q411 105 419.5 127Q428 149 428 170H495V166Q495 135 482 103.5Q469 72 442.5 46.5Q416 21 375 5Q334 -11 278 -11Q218 -11 174.5 9.5Q131 30 103.5 66Q76 102 62.5 150.5Q49 199 49 254V276Q49 331 62 379.5Q75 428 102.5 464Q130 500 172.5 520.5Q215 541 273 541Q331 541 373 520.5Q415 500 442 464Q469 428 482 379.5Q495 331 495 276V236Z" glyph-name="edotaccent" horiz-adv-x="544" unicode="&#279;" /><glyph d="M219 780 309 614H237L143 780ZM272 482Q197 482 159.5 431.5Q122 381 120 294H424Q421 381 384.5 431.5Q348 482 272 482ZM120 236Q122 148 160 98Q198 48 278 48Q318 48 346.5 59Q375 70 393 87.5Q411 105 419.5 127Q428 149 428 170H495V166Q495 135 482 103.5Q469 72 442.5 46.5Q416 21 375 5Q334 -11 278 -11Q218 -11 174.5 9.5Q131 30 103.5 66Q76 102 62.5 150.5Q49 199 49 254V276Q49 331 62 379.5Q75 428 102.5 464Q130 500 172.5 520.5Q215 541 273 541Q331 541 373 520.5Q415 500 442 464Q469 428 482 379.5Q495 331 495 276V236Z" glyph-name="egrave" horiz-adv-x="544" unicode="&#232;" /><glyph d="M295 727Q257 727 226.5 716.5Q196 706 173.5 687Q151 668 139 640.5Q127 613 127 579V571Q127 535 139.5 508.5Q152 482 174 464.5Q196 447 226 438.5Q256 430 290 430H310Q344 430 374 438.5Q404 447 426 464.5Q448 482 460.5 508.5Q473 535 473 571V579Q473 613 461 640.5Q449 668 426.5 687Q404 706 373 716.5Q342 727 305 727ZM286 366Q251 366 221.5 356.5Q192 347 169.5 328Q147 309 134.5 280.5Q122 252 122 215V201Q122 162 136.5 134Q151 106 175 88Q199 70 230.5 61.5Q262 53 295 53H305Q338 53 369.5 61.5Q401 70 425 88Q449 106 463.5 134Q478 162 478 201V215Q478 252 465.5 280.5Q453 309 430.5 328Q408 347 378 356.5Q348 366 314 366ZM300 -11Q245 -11 199 4Q153 19 120 47Q87 75 69 113Q51 151 51 198V214Q51 286 86 331.5Q121 377 177 398Q123 418 89.5 460.5Q56 503 56 572V587Q56 632 72 669.5Q88 707 119 734Q150 761 195.5 776Q241 791 300 791Q359 791 404.5 776Q450 761 481 734Q512 707 528 669.5Q544 632 544 587V572Q544 503 510 460.5Q476 418 422 398Q478 377 513.5 331.5Q549 286 549 214V198Q549 151 531 113Q513 75 480 47Q447 19 401 4Q355 -11 300 -11Z" glyph-name="eight" horiz-adv-x="600" unicode="8" /><glyph d="M147 143Q119 143 101.5 127.5Q84 112 84 86V81Q84 52 101.5 38.5Q119 25 147 25H153Q180 25 197.5 38.5Q215 52 215 81V86Q215 112 197.5 127.5Q180 143 152 143ZM145 -27Q117 -27 99.5 -42.5Q82 -58 82 -87V-93Q82 -125 101.5 -139.5Q121 -154 147 -154H152Q178 -154 198 -139.5Q218 -125 218 -93V-87Q218 -58 200.5 -42.5Q183 -27 155 -27ZM150 -207Q118 -207 94 -197.5Q70 -188 54 -173Q38 -158 30 -138.5Q22 -119 22 -98V-89Q22 -55 37.5 -33.5Q53 -12 76 -1Q53 10 39 30.5Q25 51 25 84V93Q25 113 32 131.5Q39 150 54.5 164.5Q70 179 93.5 187.5Q117 196 150 196Q183 196 206.5 187.5Q230 179 245.5 164.5Q261 150 268 131.5Q275 113 275 93V84Q275 51 260.5 30.5Q246 10 223 -1Q246 -12 261.5 -33.5Q277 -55 277 -89V-98Q277 -119 269 -138.5Q261 -158 245 -173Q229 -188 205 -197.5Q181 -207 150 -207Z" glyph-name="eight.inf" horiz-adv-x="300" unicode="&#58745;" /><glyph d="M1252 193Q1230 193 1211.5 181.5Q1193 170 1183 150V130Q1183 89 1202.5 67.5Q1222 46 1249 46H1252Q1281 46 1300 64Q1319 82 1319 116V125Q1319 159 1301.5 176Q1284 193 1255 193ZM32 390V442H125V705L49 654L20 698L142 781H185V442H277V390ZM332 390V442H425V705L349 654L320 698L442 781H485V442H577V390ZM832 0V52H925V315L849 264L820 308L942 391H985V52H1077V0ZM380 0 956 780H1020L444 0ZM1360 343Q1318 343 1283 329.5Q1248 316 1225 285Q1203 258 1193 220Q1207 231 1225 238Q1243 245 1266 245Q1316 245 1347.5 213.5Q1379 182 1379 122V117Q1379 57 1345.5 25Q1312 -7 1251 -7Q1191 -7 1157 31Q1123 69 1123 134V140Q1123 187 1135 232Q1147 277 1178 319Q1210 363 1258 379.5Q1306 396 1360 396Z" glyph-name="elevensixteenths" horiz-adv-x="1400" unicode="&#61984;" /><glyph d="M867 0H777V90H867ZM545 0H455V90H545ZM223 0H133V90H223Z" glyph-name="ellipsis" horiz-adv-x="1000" unicode="&#8230;" /><glyph d="M156 730H390V664H156ZM272 482Q197 482 159.5 431.5Q122 381 120 294H424Q421 381 384.5 431.5Q348 482 272 482ZM120 236Q122 148 160 98Q198 48 278 48Q318 48 346.5 59Q375 70 393 87.5Q411 105 419.5 127Q428 149 428 170H495V166Q495 135 482 103.5Q469 72 442.5 46.5Q416 21 375 5Q334 -11 278 -11Q218 -11 174.5 9.5Q131 30 103.5 66Q76 102 62.5 150.5Q49 199 49 254V276Q49 331 62 379.5Q75 428 102.5 464Q130 500 172.5 520.5Q215 541 273 541Q331 541 373 520.5Q415 500 442 464Q469 428 482 379.5Q495 331 495 276V236Z" glyph-name="emacron" horiz-adv-x="544" unicode="&#275;" /><glyph d="M40 382H960V318H40Z" glyph-name="emdash" horiz-adv-x="1000" unicode="&#8212;" /><glyph d="M40 422H960V358H40Z" glyph-name="emdash.cap" horiz-adv-x="1000" unicode="&#58502;" /><glyph glyph-name="emspace" horiz-adv-x="1000" unicode="&#8195;" /><glyph d="M40 382H460V318H40Z" glyph-name="endash" horiz-adv-x="500" unicode="&#8211;" /><glyph d="M40 422H460V358H40Z" glyph-name="endash.cap" horiz-adv-x="500" unicode="&#58500;" /><glyph d="M397 361Q397 421 366 449.5Q335 478 282 478Q251 478 227.5 470Q204 462 186.5 450Q169 438 156.5 423.5Q144 409 136 396V0H66V380L60 530H118L128 455Q151 490 194 515.5Q237 541 306 541Q345 541 375.5 528.5Q406 516 426 493.5Q446 471 456.5 439.5Q467 408 467 371V-53Q467 -96 455.5 -126Q444 -156 423.5 -175Q403 -194 374.5 -202.5Q346 -211 312 -211Q280 -211 262 -206.5Q244 -202 238 -200V-139Q244 -142 261 -145Q278 -148 295 -148Q345 -148 371 -127.5Q397 -107 397 -44Z" glyph-name="eng" horiz-adv-x="528" unicode="&#331;" /><glyph glyph-name="enspace" horiz-adv-x="500" unicode="&#8194;" /><glyph d="M272 482Q197 482 159.5 431.5Q122 381 120 294H424Q421 381 384.5 431.5Q348 482 272 482ZM120 236Q122 148 160 98Q198 48 278 48Q318 48 346.5 59Q375 70 393 87.5Q411 105 419.5 127Q428 149 428 170H495V166Q495 141 487 116Q479 91 462 68.5Q445 46 419.5 28Q394 10 358 0Q342 -5 327.5 -14Q313 -23 301.5 -36.5Q290 -50 283 -67Q276 -84 276 -103Q276 -125 290.5 -139Q305 -153 332 -153Q350 -153 367 -149Q384 -145 395 -139L414 -191Q398 -201 373.5 -206Q349 -211 325 -211Q276 -211 246 -188Q216 -165 216 -113Q216 -81 227.5 -55.5Q239 -30 259 -10Q204 -7 164 15Q124 37 98.5 72.5Q73 108 61 154.5Q49 201 49 254V276Q49 331 62 379.5Q75 428 102.5 464Q130 500 172.5 520.5Q215 541 273 541Q331 541 373 520.5Q415 500 442 464Q469 428 482 379.5Q495 331 495 276V236Z" glyph-name="eogonek" horiz-adv-x="544" unicode="&#281;" /><glyph d="M48 321H552V255H48ZM48 525H552V459H48Z" glyph-name="equal" horiz-adv-x="600" unicode="=" /><glyph d="M22 74H278V21H22ZM22 -31H278V-85H22Z" glyph-name="equal.inf" horiz-adv-x="300" unicode="&#58749;" /><glyph d="M48 423H552V357H48ZM48 219H552V153H48ZM48 627H552V561H48Z" glyph-name="equivalence" horiz-adv-x="600" unicode="&#8801;" /><glyph d="M272 52Q351 52 387.5 107Q424 162 424 253V277Q424 368 387.5 423Q351 478 272 478Q193 478 156.5 423Q120 368 120 277V253Q120 162 156.5 107Q193 52 272 52ZM49 811Q112 806 170 790.5Q228 775 281 743L398 811V756L324 714Q338 703 352 689.5Q366 676 380 662Q414 623 436.5 574.5Q459 526 472 474.5Q485 423 490 371.5Q495 320 495 277V253Q495 198 482 150Q469 102 442 66Q415 30 372.5 9.5Q330 -11 272 -11Q213 -11 171 9.5Q129 30 102 66Q75 102 62 150Q49 198 49 253V277Q49 332 62 380Q75 428 101.5 464Q128 500 169 520.5Q210 541 266 541Q308 541 341 528.5Q374 516 398 494Q385 530 367 562Q349 594 325 620Q309 637 292 650.5Q275 664 258 676L87 577V632L210 703Q172 721 132 731.5Q92 742 49 747Z" glyph-name="eth" horiz-adv-x="544" unicode="&#240;" /><glyph d="M153 0H63V90H153ZM151 780 132 189H84L65 780Z" glyph-name="exclam" horiz-adv-x="216" unicode="!" /><glyph d="M63 530H153V440H63ZM65 -200 84 341H132L151 -200Z" glyph-name="exclamdown" horiz-adv-x="216" unicode="&#161;" /><glyph d="M63 780H153V690H63ZM65 0 84 591H132L151 0Z" glyph-name="exclamdown.cap" horiz-adv-x="216" unicode="&#58433;" /><glyph d="M185 530H334V467H185V0H115V467H31V530H115V653Q115 696 126.5 726Q138 756 158.5 775Q179 794 207.5 802.5Q236 811 270 811Q302 811 320 806.5Q338 802 344 800V739Q338 742 321 745Q304 748 287 748Q237 748 211 727.5Q185 707 185 644Z" glyph-name="f" horiz-adv-x="380" unicode="f" /><glyph d="M281 860H201V930H281ZM185 530H334V467H185V0H115V467H31V530H115V653Q115 696 126.5 726Q138 756 158.5 775Q179 794 207.5 802.5Q236 811 270 811Q302 811 320 806.5Q338 802 344 800V739Q338 742 321 745Q304 748 287 748Q237 748 211 727.5Q185 707 185 644Z" glyph-name="fdotaccent" horiz-adv-x="370" unicode="&#7711;" /><glyph d="M533 655H443V745H533ZM453 530H523V0H453ZM185 530H334V467H185V0H115V467H31V530H115V653Q115 696 126.5 726Q138 756 158.5 775Q179 794 207.5 802.5Q236 811 270 811Q302 811 320 806.5Q338 802 344 800V739Q338 742 321 745Q304 748 287 748Q237 748 211 727.5Q185 707 185 644Z" glyph-name="fi" horiz-adv-x="596" unicode="&#64257;" /><glyph d="M1252 193Q1230 193 1211.5 181.5Q1193 170 1183 150V130Q1183 89 1202.5 67.5Q1222 46 1249 46H1252Q1281 46 1300 64Q1319 82 1319 116V125Q1319 159 1301.5 176Q1284 193 1255 193ZM832 0V52H925V315L849 264L820 308L942 391H985V52H1077V0ZM32 390V442H125V705L49 654L20 698L142 781H185V442H277V390ZM380 0 956 780H1020L444 0ZM382 515Q382 473 400 454.5Q418 436 447 436H452Q478 436 498 453Q518 470 518 508V516Q518 554 497.5 571Q477 588 449 588H446Q425 588 405 577.5Q385 567 376 547L325 564L334 780H572V727H387L382 622Q397 630 415 635Q433 640 453 640Q510 640 543.5 607.5Q577 575 577 516V508Q577 449 543.5 416Q510 383 450 383Q385 383 353.5 416Q322 449 322 508V515ZM1360 343Q1318 343 1283 329.5Q1248 316 1225 285Q1203 258 1193 220Q1207 231 1225 238Q1243 245 1266 245Q1316 245 1347.5 213.5Q1379 182 1379 122V117Q1379 57 1345.5 25Q1312 -7 1251 -7Q1191 -7 1157 31Q1123 69 1123 134V140Q1123 187 1135 232Q1147 277 1178 319Q1210 363 1258 379.5Q1306 396 1360 396Z" glyph-name="fifteensixteenths" horiz-adv-x="1400" unicode="&#61986;" /><glyph d="M40 382H560V318H40Z" glyph-name="figuredash" horiz-adv-x="600" unicode="&#8210;" /><glyph d="M40 422H560V358H40Z" glyph-name="figuredash.cap" horiz-adv-x="600" unicode="&#58503;" /><glyph glyph-name="figurespace" horiz-adv-x="600" unicode="&#8199;" /><glyph d="M122 250Q122 147 168 100Q214 53 295 53H305Q338 53 369.5 63.5Q401 74 425 96Q449 118 463.5 152Q478 186 478 233V251Q478 298 463.5 332Q449 366 424.5 387.5Q400 409 368.5 419.5Q337 430 303 430H294Q267 430 240 423.5Q213 417 189.5 403.5Q166 390 147 370.5Q128 351 117 324L57 342L76 780H539V715H145L132 438Q164 464 207 479Q250 494 302 494Q355 494 400 478Q445 462 478 431Q511 400 530 354Q549 308 549 248V236Q549 176 530 129.5Q511 83 478 52Q445 21 399.5 5Q354 -11 300 -11Q236 -11 189 6.5Q142 24 111.5 56.5Q81 89 66 135Q51 181 51 239V250Z" glyph-name="five" horiz-adv-x="600" unicode="5" /><glyph d="M82 -75Q82 -117 100 -135.5Q118 -154 147 -154H152Q178 -154 198 -137Q218 -120 218 -82V-74Q218 -36 197.5 -19Q177 -2 149 -2H146Q125 -2 105 -12.5Q85 -23 76 -43L25 -26L34 190H272V137H87L82 32Q97 40 115 45Q133 50 153 50Q210 50 243.5 17.5Q277 -15 277 -74V-82Q277 -141 243.5 -174Q210 -207 150 -207Q85 -207 53.5 -174Q22 -141 22 -82V-75Z" glyph-name="five.inf" horiz-adv-x="300" unicode="&#58742;" /><glyph d="M952 193Q930 193 911.5 181.5Q893 170 883 150V130Q883 89 902.5 67.5Q922 46 949 46H952Q981 46 1000 64Q1019 82 1019 116V125Q1019 159 1001.5 176Q984 193 955 193ZM532 0V52H625V315L549 264L520 308L642 391H685V52H777V0ZM80 0 656 780H720L144 0ZM82 515Q82 473 100 454.5Q118 436 147 436H152Q178 436 198 453Q218 470 218 508V516Q218 554 197.5 571Q177 588 149 588H146Q125 588 105 577.5Q85 567 76 547L25 564L34 780H272V727H87L82 622Q97 630 115 635Q133 640 153 640Q210 640 243.5 607.5Q277 575 277 516V508Q277 449 243.5 416Q210 383 150 383Q85 383 53.5 416Q22 449 22 508V515ZM1060 343Q1018 343 983 329.5Q948 316 925 285Q903 258 893 220Q907 231 925 238Q943 245 966 245Q1016 245 1047.5 213.5Q1079 182 1079 122V117Q1079 57 1045.5 25Q1012 -7 951 -7Q891 -7 857 31Q823 69 823 134V140Q823 187 835 232Q847 277 878 319Q910 363 958 379.5Q1006 396 1060 396Z" glyph-name="fivesixteenths" horiz-adv-x="1100" unicode="&#61975;" /><glyph d="M453 800H523V0H453ZM185 530H334V467H185V0H115V467H31V530H115V653Q115 696 126.5 726Q138 756 158.5 775Q179 794 207.5 802.5Q236 811 270 811Q302 811 320 806.5Q338 802 344 800V739Q338 742 321 745Q304 748 287 748Q237 748 211 727.5Q185 707 185 644Z" glyph-name="fl" horiz-adv-x="596" unicode="&#64258;" /><glyph d="M121 271 207 272H367V556L368 658ZM367 0V207H33V255L369 780H438V272H567V207H438V0Z" glyph-name="four" horiz-adv-x="600" unicode="4" /><glyph d="M80 -55 114 -54H173V54L174 93ZM173 -200V-107H14V-66L175 190H233V-54H285V-107H233V-200Z" glyph-name="four.inf" horiz-adv-x="300" unicode="&#58741;" /><glyph glyph-name="fourperemspace" horiz-adv-x="250" unicode="&#8197;" /><glyph d="M-220 0 356 780H420L-156 0Z" glyph-name="fraction" horiz-adv-x="200" unicode="&#8260;" /><glyph d="M402 396Q394 409 382 423.5Q370 438 353.5 450Q337 462 315.5 470Q294 478 267 478Q193 478 156.5 427.5Q120 377 120 295V273Q120 189 156 139.5Q192 90 267 90Q294 90 315.5 98Q337 106 353.5 118Q370 130 382 144Q394 158 402 171ZM402 97Q380 67 344 47Q308 27 252 27Q198 27 159.5 46.5Q121 66 96.5 99.5Q72 133 60.5 177.5Q49 222 49 273V295Q49 345 60.5 389.5Q72 434 96.5 468Q121 502 159.5 521.5Q198 541 252 541Q313 541 351 517Q389 493 410 459L420 530H478L472 380V-5Q472 -50 460.5 -87.5Q449 -125 424.5 -152.5Q400 -180 360.5 -195.5Q321 -211 264 -211Q207 -211 167.5 -195.5Q128 -180 104 -153Q80 -126 69.5 -90Q59 -54 59 -13V0H126Q126 -75 157 -112.5Q188 -150 263 -150Q340 -150 371 -112Q402 -74 402 -1Z" glyph-name="g" horiz-adv-x="537" unicode="g" /><glyph d="M265 603Q222 603 191.5 616Q161 629 141.5 652.5Q122 676 113 708.5Q104 741 104 780H161Q161 726 185 694Q209 662 265 662Q321 662 345 694Q369 726 369 780H426Q427 702 388.5 652.5Q350 603 265 603ZM402 396Q394 409 382 423.5Q370 438 353.5 450Q337 462 315.5 470Q294 478 267 478Q193 478 156.5 427.5Q120 377 120 295V273Q120 189 156 139.5Q192 90 267 90Q294 90 315.5 98Q337 106 353.5 118Q370 130 382 144Q394 158 402 171ZM402 97Q380 67 344 47Q308 27 252 27Q198 27 159.5 46.5Q121 66 96.5 99.5Q72 133 60.5 177.5Q49 222 49 273V295Q49 345 60.5 389.5Q72 434 96.5 468Q121 502 159.5 521.5Q198 541 252 541Q313 541 351 517Q389 493 410 459L420 530H478L472 380V-5Q472 -50 460.5 -87.5Q449 -125 424.5 -152.5Q400 -180 360.5 -195.5Q321 -211 264 -211Q207 -211 167.5 -195.5Q128 -180 104 -153Q80 -126 69.5 -90Q59 -54 59 -13V0H126Q126 -75 157 -112.5Q188 -150 263 -150Q340 -150 371 -112Q402 -74 402 -1Z" glyph-name="gbreve" horiz-adv-x="537" unicode="&#287;" /><glyph d="M103 614 234 780H296L427 614H358L265 727L172 614ZM402 396Q394 409 382 423.5Q370 438 353.5 450Q337 462 315.5 470Q294 478 267 478Q193 478 156.5 427.5Q120 377 120 295V273Q120 189 156 139.5Q192 90 267 90Q294 90 315.5 98Q337 106 353.5 118Q370 130 382 144Q394 158 402 171ZM402 97Q380 67 344 47Q308 27 252 27Q198 27 159.5 46.5Q121 66 96.5 99.5Q72 133 60.5 177.5Q49 222 49 273V295Q49 345 60.5 389.5Q72 434 96.5 468Q121 502 159.5 521.5Q198 541 252 541Q313 541 351 517Q389 493 410 459L420 530H478L472 380V-5Q472 -50 460.5 -87.5Q449 -125 424.5 -152.5Q400 -180 360.5 -195.5Q321 -211 264 -211Q207 -211 167.5 -195.5Q128 -180 104 -153Q80 -126 69.5 -90Q59 -54 59 -13V0H126Q126 -75 157 -112.5Q188 -150 263 -150Q340 -150 371 -112Q402 -74 402 -1Z" glyph-name="gcircumflex" horiz-adv-x="537" unicode="&#285;" /><glyph d="M224 666Q224 791 328 791V755Q297 755 280 740Q263 725 260 684H305V614H224ZM402 396Q394 409 382 423.5Q370 438 353.5 450Q337 462 315.5 470Q294 478 267 478Q193 478 156.5 427.5Q120 377 120 295V273Q120 189 156 139.5Q192 90 267 90Q294 90 315.5 98Q337 106 353.5 118Q370 130 382 144Q394 158 402 171ZM402 97Q380 67 344 47Q308 27 252 27Q198 27 159.5 46.5Q121 66 96.5 99.5Q72 133 60.5 177.5Q49 222 49 273V295Q49 345 60.5 389.5Q72 434 96.5 468Q121 502 159.5 521.5Q198 541 252 541Q313 541 351 517Q389 493 410 459L420 530H478L472 380V-5Q472 -50 460.5 -87.5Q449 -125 424.5 -152.5Q400 -180 360.5 -195.5Q321 -211 264 -211Q207 -211 167.5 -195.5Q128 -180 104 -153Q80 -126 69.5 -90Q59 -54 59 -13V0H126Q126 -75 157 -112.5Q188 -150 263 -150Q340 -150 371 -112Q402 -74 402 -1Z" glyph-name="gcommaaccent" horiz-adv-x="537" unicode="&#291;" /><glyph d="M308 657H220V745H308ZM402 396Q394 409 382 423.5Q370 438 353.5 450Q337 462 315.5 470Q294 478 267 478Q193 478 156.5 427.5Q120 377 120 295V273Q120 189 156 139.5Q192 90 267 90Q294 90 315.5 98Q337 106 353.5 118Q370 130 382 144Q394 158 402 171ZM402 97Q380 67 344 47Q308 27 252 27Q198 27 159.5 46.5Q121 66 96.5 99.5Q72 133 60.5 177.5Q49 222 49 273V295Q49 345 60.5 389.5Q72 434 96.5 468Q121 502 159.5 521.5Q198 541 252 541Q313 541 351 517Q389 493 410 459L420 530H478L472 380V-5Q472 -50 460.5 -87.5Q449 -125 424.5 -152.5Q400 -180 360.5 -195.5Q321 -211 264 -211Q207 -211 167.5 -195.5Q128 -180 104 -153Q80 -126 69.5 -90Q59 -54 59 -13V0H126Q126 -75 157 -112.5Q188 -150 263 -150Q340 -150 371 -112Q402 -74 402 -1Z" glyph-name="gdotaccent" horiz-adv-x="537" unicode="&#289;" /><glyph d="M262 416Q299 437 326.5 457Q354 477 371 499Q388 521 396.5 546.5Q405 572 405 602Q405 634 397.5 660.5Q390 687 373.5 706Q357 725 331.5 735.5Q306 746 270 746Q234 746 208.5 735.5Q183 725 166.5 706Q150 687 142.5 661Q135 635 135 604V0H65V609Q65 654 77 691Q89 728 113.5 754.5Q138 781 177 796Q216 811 270 811Q322 811 361 796Q400 781 425 754Q450 727 462.5 690Q475 653 475 609V602Q475 537 443 489Q411 441 342 396L392 364Q429 340 457 317Q485 294 504 270.5Q523 247 533 221Q543 195 543 164V159Q543 129 536 99Q529 69 509.5 44.5Q490 20 456 4.5Q422 -11 369 -11Q316 -11 282 4.5Q248 20 229 44Q210 68 203 98Q196 128 196 157V162H258Q258 140 262.5 119.5Q267 99 279 83Q291 67 312 57.5Q333 48 366 48Q399 48 419.5 57.5Q440 67 452 83Q464 99 468.5 119.5Q473 140 473 161Q473 183 464.5 202.5Q456 222 439.5 240.5Q423 259 398 278Q373 297 339 319L262 370Z" glyph-name="germandbls" horiz-adv-x="571" unicode="&#223;" /><glyph d="M196 780 286 614H214L120 780Z" glyph-name="grave" horiz-adv-x="500" unicode="`" /><glyph d="M226 950 286 840H214L152 950Z" glyph-name="grave.cap" horiz-adv-x="500" unicode="&#58401;" /><glyph d="M552 355 48 120V192L481 390L48 588V660L552 425Z" glyph-name="greater" horiz-adv-x="600" unicode="&gt;" /><glyph d="M48 168 552 342V287L48 113ZM459 457 48 595V667L552 493V423L48 249V320Z" glyph-name="greaterequal" horiz-adv-x="600" unicode="&#8805;" /><glyph d="M467 454 317 340 467 226V156L263 309V371L467 524ZM254 454 105 340 254 226V156L50 309V371L254 524Z" glyph-name="guillemotleft" horiz-adv-x="517" unicode="&#171;" /><glyph d="M467 504 317 390 467 276V206L263 359V421L467 574ZM254 504 105 390 254 276V206L50 359V421L254 574Z" glyph-name="guillemotleft.cap" horiz-adv-x="517" unicode="&#58451;" /><glyph d="M50 524 254 371V309L50 156V226L199 340L50 454ZM263 524 467 371V309L263 156V226L411 340L263 454Z" glyph-name="guillemotright" horiz-adv-x="517" unicode="&#187;" /><glyph d="M50 574 254 421V359L50 206V276L199 390L50 504ZM263 574 467 421V359L263 206V276L411 390L263 504Z" glyph-name="guillemotright.cap" horiz-adv-x="517" unicode="&#58452;" /><glyph d="M254 454 105 340 254 226V156L50 309V371L254 524Z" glyph-name="guilsinglleft" horiz-adv-x="304" unicode="&#8249;" /><glyph d="M254 504 105 390 254 276V206L50 359V421L254 574Z" glyph-name="guilsinglleft.cap" horiz-adv-x="304" unicode="&#58449;" /><glyph d="M50 524 254 371V309L50 156V226L199 340L50 454Z" glyph-name="guilsinglright" horiz-adv-x="304" unicode="&#8250;" /><glyph d="M50 574 254 421V359L50 206V276L199 390L50 504Z" glyph-name="guilsinglright.cap" horiz-adv-x="304" unicode="&#58450;" /><glyph d="M136 466Q160 498 201.5 519.5Q243 541 306 541Q345 541 375.5 528.5Q406 516 426 493.5Q446 471 456.5 439.5Q467 408 467 371V0H397V361Q397 421 366 449.5Q335 478 282 478Q251 478 227.5 470Q204 462 186.5 450Q169 438 156.5 423.5Q144 409 136 396V0H66V800H136Z" glyph-name="h" horiz-adv-x="528" unicode="h" /><glyph glyph-name="hairspace" horiz-adv-x="50" unicode="&#8202;" /><glyph d="M136 694H269V636H136V466Q160 498 201.5 519.5Q243 541 306 541Q345 541 375.5 528.5Q406 516 426 493.5Q446 471 456.5 439.5Q467 408 467 371V0H397V361Q397 421 366 449.5Q335 478 282 478Q251 478 227.5 470Q204 462 186.5 450Q169 438 156.5 423.5Q144 409 136 396V0H66V636H-26V694H66V800H136Z" glyph-name="hbar" horiz-adv-x="528" unicode="&#295;" /><glyph d="M-37 840 69 950H133L239 840H169L101 906L33 840ZM136 466Q160 498 201.5 519.5Q243 541 306 541Q345 541 375.5 528.5Q406 516 426 493.5Q446 471 456.5 439.5Q467 408 467 371V0H397V361Q397 421 366 449.5Q335 478 282 478Q251 478 227.5 470Q204 462 186.5 450Q169 438 156.5 423.5Q144 409 136 396V0H66V800H136Z" glyph-name="hcircumflex" horiz-adv-x="528" unicode="&#293;" /><glyph d="M449 -10Q437 9 414 40Q391 71 360 110Q329 149 292.5 193.5Q256 238 216 283Q190 312 161 348Q132 384 108 423.5Q84 463 68 504Q52 545 52 584Q52 628 65 666Q78 704 103 731.5Q128 759 163.5 774.5Q199 790 243 790Q289 790 323 777Q357 764 381 742.5Q405 721 421 692.5Q437 664 448 633H452Q463 664 479 692.5Q495 721 519 742.5Q543 764 576.5 777Q610 790 657 790Q701 790 736.5 774.5Q772 759 796.5 731.5Q821 704 834.5 666Q848 628 848 584Q848 545 832 504Q816 463 792 423.5Q768 384 739 348Q710 312 684 283Q644 238 607.5 193.5Q571 149 540 110Q509 71 486 40Q463 9 451 -10Z" glyph-name="heart" horiz-adv-x="900" unicode="&#9829;" /><glyph d="M70 0V450L425 790L780 450V0Z" glyph-name="house" horiz-adv-x="850" unicode="&#8962;" /><glyph d="M308 780 220 614H157L241 780ZM438 780 343 614H280L370 780Z" glyph-name="hungarumlaut" horiz-adv-x="500" unicode="&#733;" /><glyph d="M409 950 346 840H279L339 950ZM282 950 221 840H154L212 950Z" glyph-name="hungarumlaut.cap" horiz-adv-x="500" unicode="&#58411;" /><glyph d="M40 382H289V318H40Z" glyph-name="hyphen" horiz-adv-x="329" unicode="-" /><glyph d="M40 422H289V358H40Z" glyph-name="hyphen.cap" horiz-adv-x="320" unicode="&#58498;" /><glyph d="M153 655H63V745H153ZM73 530H143V0H73Z" glyph-name="i" horiz-adv-x="216" unicode="i" /><glyph d="M238 780 144 614H72L162 780ZM73 530H143V0H73Z" glyph-name="iacute" horiz-adv-x="217" unicode="&#237;" /><glyph d="M108 603Q65 603 34.5 616Q4 629 -15.5 652.5Q-35 676 -44 708.5Q-53 741 -53 780H4Q4 726 28 694Q52 662 108 662Q164 662 188 694Q212 726 212 780H269Q270 702 231.5 652.5Q193 603 108 603ZM73 530H143V0H73Z" glyph-name="ibreve" horiz-adv-x="217" unicode="&#301;" /><glyph d="M-54 614 77 780H139L270 614H201L108 727L15 614ZM73 530H143V0H73Z" glyph-name="icircumflex" horiz-adv-x="217" unicode="&#238;" /><glyph d="M235 657H148V745H235ZM68 657H-19V745H68ZM73 530H143V0H73Z" glyph-name="idieresis" horiz-adv-x="217" unicode="&#239;" /><glyph d="M153 655H63V745H153ZM73 530H143V0H73Z" glyph-name="idotaccent" horiz-adv-x="216" unicode="&#59269;" /><glyph d="M54 780 144 614H72L-22 780ZM73 530H143V0H73Z" glyph-name="igrave" horiz-adv-x="217" unicode="&#236;" /><glyph d="M320 655H230V745H320ZM153 655H63V745H153ZM73 530H143V0H73ZM240 530H310V-53Q310 -96 298.5 -126Q287 -156 266.5 -175Q246 -194 217.5 -202.5Q189 -211 155 -211Q123 -211 105 -206.5Q87 -202 81 -200V-139Q88 -142 104.5 -145Q121 -148 138 -148Q188 -148 214 -127.5Q240 -107 240 -44Z" glyph-name="ij" horiz-adv-x="383" unicode="&#307;" /><glyph d="M-9 730H225V664H-9ZM73 530H143V0H73Z" glyph-name="imacron" horiz-adv-x="217" unicode="&#299;" /><glyph d="M271 0H181V90H271ZM354 576Q354 637 334.5 676Q315 715 262 724L250 355Q266 385 284 410Q302 435 317.5 460.5Q333 486 343.5 514Q354 542 354 576ZM207 189 190 721Q136 705 116.5 648.5Q97 592 97 504H26V516Q26 574 35 624.5Q44 675 67.5 712Q91 749 130.5 770Q170 791 231 791Q283 791 320.5 776Q358 761 381.5 734Q405 707 416 668.5Q427 630 427 583Q427 533 414.5 498.5Q402 464 383 437Q364 410 341.5 386.5Q319 363 299 336Q279 309 265.5 274Q252 239 250 189Z" glyph-name="interrobang" horiz-adv-x="455" unicode="&#8253;" /><glyph d="M183 530H273V440H183ZM101 -22Q101 -72 122 -103.5Q143 -135 192 -143L203 190Q187 163 169 139Q151 115 136 90Q121 65 111 38Q101 11 101 -22ZM247 341 264 -141Q318 -127 337.5 -75Q357 -23 357 60H429V48Q429 -7 420 -54.5Q411 -102 387.5 -136.5Q364 -171 324.5 -191Q285 -211 224 -211Q125 -211 76.5 -160.5Q28 -110 28 -29Q28 20 40.5 54.5Q53 89 72 115.5Q91 142 113.5 164Q136 186 156 210.5Q176 235 189.5 266Q203 297 205 341Z" glyph-name="interrobangdown" horiz-adv-x="455" unicode="&#59701;" /><glyph d="M182 780H272V690H182ZM99 204Q99 142 118.5 103Q138 64 191 56L202 424Q186 394 168 369Q150 344 134.5 318.5Q119 293 109 265.5Q99 238 99 204ZM26 197Q26 247 38.5 281.5Q51 316 70 343Q89 370 111.5 393.5Q134 417 154 444Q174 471 187.5 506Q201 541 203 591H246L263 59Q317 74 336.5 130.5Q356 187 356 276H427V264Q427 205 418 155Q409 105 385.5 68Q362 31 322.5 10Q283 -11 222 -11Q169 -11 132 4Q95 19 71.5 46Q48 73 37 111.5Q26 150 26 197Z" glyph-name="interrobangdown.cap" horiz-adv-x="455" unicode="&#59803;" /><glyph d="M250 791Q293 791 323.5 778Q354 765 373.5 741.5Q393 718 402 685.5Q411 653 411 614H354Q354 667 330 699.5Q306 732 250 732Q194 732 170 699.5Q146 667 146 614H89Q89 653 98 685.5Q107 718 126.5 741.5Q146 765 176.5 778Q207 791 250 791Z" glyph-name="invertedbreve" horiz-adv-x="500" unicode="&#58385;" /><glyph d="M250 961Q289 961 317 952Q345 943 362 926.5Q379 910 387 888Q395 866 395 840H339Q339 873 318 892Q297 911 250 911Q203 911 182 892Q161 873 161 840H105Q105 866 113 888Q121 910 138 926.5Q155 943 183 952Q211 961 250 961Z" glyph-name="invertedbreve.cap" horiz-adv-x="500" unicode="&#58407;" /><glyph d="M153 655H63V745H153ZM60 -103Q60 -125 74.5 -139Q89 -153 116 -153Q134 -153 151 -149Q168 -145 179 -139L198 -191Q182 -201 157.5 -206Q133 -211 109 -211Q60 -211 30 -188Q0 -165 0 -113Q0 -70 21 -38Q42 -6 73 15V530H143V0Q110 -14 85 -39.5Q60 -65 60 -103Z" glyph-name="iogonek" horiz-adv-x="217" unicode="&#303;" /><glyph d="M264 746Q264 692 241.5 667.5Q219 643 183 643Q160 643 140.5 651.5Q121 660 104.5 670Q88 680 73 688.5Q58 697 43 697Q28 697 17.5 688Q7 679 7 654H-48Q-48 708 -25.5 732.5Q-3 757 33 757Q56 757 75.5 748.5Q95 740 111.5 730Q128 720 143 711.5Q158 703 173 703Q188 703 198.5 712Q209 721 209 746ZM73 530H143V0H73Z" glyph-name="itilde" horiz-adv-x="217" unicode="&#297;" /><glyph d="M153 655H63V745H153ZM73 530H143V-53Q143 -96 131.5 -126Q120 -156 99.5 -175Q79 -194 50.5 -202.5Q22 -211 -12 -211Q-44 -211 -62 -206.5Q-80 -202 -86 -200V-139Q-79 -142 -62.5 -145Q-46 -148 -29 -148Q21 -148 47 -127.5Q73 -107 73 -44Z" glyph-name="j" horiz-adv-x="216" unicode="j" /><glyph d="M-54 614 77 780H139L270 614H201L108 727L15 614ZM73 530H143V-53Q143 -96 131.5 -126Q120 -156 99.5 -175Q79 -194 50.5 -202.5Q22 -211 -12 -211Q-44 -211 -62 -206.5Q-80 -202 -86 -200V-139Q-79 -142 -62.5 -145Q-46 -148 -29 -148Q21 -148 47 -127.5Q73 -107 73 -44Z" glyph-name="jcircumflex" horiz-adv-x="217" unicode="&#309;" /><glyph d="M65 800H135V250L387 530H474L292 329L474 0H394L244 276L135 156V0H65Z" glyph-name="k" horiz-adv-x="501" unicode="k" /><glyph d="M295 -106Q295 -158 267.5 -186Q240 -214 190 -214V-178Q217 -178 234.5 -165.5Q252 -153 257 -124H213V-56H295ZM65 800H135V250L387 530H474L292 329L474 0H394L244 276L135 156V0H65Z" glyph-name="kcommaaccent" horiz-adv-x="501" unicode="&#311;" /><glyph d="M65 530H135V250L387 530H474L292 329L474 0H394L244 276L135 156V0H65Z" glyph-name="kgreenlandic" horiz-adv-x="501" unicode="&#312;" /><glyph d="M73 800H143V0H73Z" glyph-name="l" horiz-adv-x="216" unicode="l" /><glyph d="M206 950 144 840H72L132 950ZM73 800H143V0H73Z" glyph-name="lacute" horiz-adv-x="217" unicode="&#314;" /><glyph d="M276 800 257 614H217V800ZM73 800H143V0H73Z" glyph-name="lcaron" horiz-adv-x="217" unicode="&#318;" /><glyph d="M149 -106Q149 -158 121.5 -186Q94 -214 44 -214V-178Q71 -178 88.5 -165.5Q106 -153 111 -124H67V-56H149ZM73 800H143V0H73Z" glyph-name="lcommaaccent" horiz-adv-x="217" unicode="&#316;" /><glyph d="M320 306H233V394H320ZM73 800H143V0H73Z" glyph-name="ldot" horiz-adv-x="335" unicode="&#320;" /><glyph d="M552 660V588L118 390L552 192V120L48 355V425Z" glyph-name="less" horiz-adv-x="600" unicode="&lt;" /><glyph d="M552 113 48 287V342L552 168ZM140 457 552 320V249L48 423V493L552 667V595Z" glyph-name="lessequal" horiz-adv-x="600" unicode="&#8804;" /><glyph d="M48 557H552V213H486V490H48Z" glyph-name="logicalnot" horiz-adv-x="600" unicode="&#172;" /><glyph d="M48 64H272V0H48Z" glyph-name="lowline" horiz-adv-x="320" unicode="&#58641;" /><glyph d="M32 332 125 402V800H195V456L307 541V471L195 386V0H125V332L32 262Z" glyph-name="lslash" horiz-adv-x="329" unicode="&#322;" /><glyph d="M674 0V374Q674 404 666.5 424Q659 444 645.5 456Q632 468 613 473Q594 478 572 478Q544 478 523 470.5Q502 463 486.5 451Q471 439 459.5 425Q448 411 440 398V0H370V374Q370 404 362.5 424Q355 444 341.5 456Q328 468 309 473Q290 478 268 478Q240 478 219 470.5Q198 463 182.5 451Q167 439 155.5 425Q144 411 136 398V0H66V380L60 530H118L128 458Q150 492 189.5 516.5Q229 541 292 541Q398 541 429 453Q450 489 490.5 515Q531 541 596 541Q668 541 706 500Q744 459 744 384V0Z" glyph-name="m" horiz-adv-x="805" unicode="m" /><glyph d="M133 730H367V664H133Z" glyph-name="macron" horiz-adv-x="500" unicode="&#175;" /><glyph d="M137 922H363V868H137Z" glyph-name="macron.cap" horiz-adv-x="500" unicode="&#58405;" /><glyph d="M449 657H361V745H449ZM674 0V374Q674 404 666.5 424Q659 444 645.5 456Q632 468 613 473Q594 478 572 478Q544 478 523 470.5Q502 463 486.5 451Q471 439 459.5 425Q448 411 440 398V0H370V374Q370 404 362.5 424Q355 444 341.5 456Q328 468 309 473Q290 478 268 478Q240 478 219 470.5Q198 463 182.5 451Q167 439 155.5 425Q144 411 136 398V0H66V380L60 530H118L128 458Q150 492 189.5 516.5Q229 541 292 541Q398 541 429 453Q450 489 490.5 515Q531 541 596 541Q668 541 706 500Q744 459 744 384V0Z" glyph-name="mdotaccent" horiz-adv-x="805" unicode="&#7745;" /><glyph d="M59 265Q59 322 80.5 372Q102 422 139.5 459.5Q177 497 227.5 519Q278 541 335 541Q392 541 442 519Q492 497 529.5 459.5Q567 422 589 372Q611 322 611 265Q611 208 589 157.5Q567 107 529.5 69.5Q492 32 442 10.5Q392 -11 335 -11Q278 -11 227.5 10.5Q177 32 139.5 69.5Q102 107 80.5 157.5Q59 208 59 265Z" glyph-name="mediumblackcircle" horiz-adv-x="670" unicode="&#9899;" /><glyph d="M124 265Q124 221 140.5 182.5Q157 144 185.5 115.5Q214 87 252.5 70.5Q291 54 335 54Q379 54 417.5 70.5Q456 87 484.5 115.5Q513 144 529.5 182.5Q546 221 546 265Q546 309 529.5 347.5Q513 386 484.5 414.5Q456 443 417.5 459.5Q379 476 335 476Q291 476 252.5 459.5Q214 443 185.5 414.5Q157 386 140.5 347.5Q124 309 124 265ZM59 265Q59 322 80.5 372Q102 422 139.5 459.5Q177 497 227.5 519Q278 541 335 541Q392 541 442 519Q492 497 529.5 459.5Q567 422 589 372Q611 322 611 265Q611 208 589 157.5Q567 107 529.5 69.5Q492 32 442 10.5Q392 -11 335 -11Q278 -11 227.5 10.5Q177 32 139.5 69.5Q102 107 80.5 157.5Q59 208 59 265Z" glyph-name="mediumwhitecircle" horiz-adv-x="670" unicode="&#9898;" /><glyph d="M48 423H552V357H48Z" glyph-name="minus" horiz-adv-x="600" unicode="&#8722;" /><glyph d="M22 21H278V-32H22Z" glyph-name="minus.inf" horiz-adv-x="300" unicode="&#58748;" /><glyph d="M36 173 253 390 36 607 83 654 300 437 517 654 564 607 347 390 564 173 517 126 300 343 83 126Z" glyph-name="multiply" horiz-adv-x="600" unicode="&#215;" /><glyph d="M397 0V361Q397 421 366 449.5Q335 478 282 478Q251 478 227.5 470Q204 462 186.5 450Q169 438 156.5 423.5Q144 409 136 396V0H66V380L60 530H118L128 455Q151 490 194 515.5Q237 541 306 541Q345 541 375.5 528.5Q406 516 426 493.5Q446 471 456.5 439.5Q467 408 467 371V0Z" glyph-name="n" horiz-adv-x="528" unicode="n" /><glyph d="M397 780 303 614H231L321 780ZM397 0V361Q397 421 366 449.5Q335 478 282 478Q251 478 227.5 470Q204 462 186.5 450Q169 438 156.5 423.5Q144 409 136 396V0H66V380L60 530H118L128 455Q151 490 194 515.5Q237 541 306 541Q345 541 375.5 528.5Q406 516 426 493.5Q446 471 456.5 439.5Q467 408 467 371V0Z" glyph-name="nacute" horiz-adv-x="528" unicode="&#324;" /><glyph d="M174 780 267 666 360 780H429L298 614H236L105 780ZM397 0V361Q397 421 366 449.5Q335 478 282 478Q251 478 227.5 470Q204 462 186.5 450Q169 438 156.5 423.5Q144 409 136 396V0H66V380L60 530H118L128 455Q151 490 194 515.5Q237 541 306 541Q345 541 375.5 528.5Q406 516 426 493.5Q446 471 456.5 439.5Q467 408 467 371V0Z" glyph-name="ncaron" horiz-adv-x="528" unicode="&#328;" /><glyph d="M308 -106Q308 -158 280.5 -186Q253 -214 203 -214V-178Q230 -178 247.5 -165.5Q265 -153 270 -124H226V-56H308ZM397 0V361Q397 421 366 449.5Q335 478 282 478Q251 478 227.5 470Q204 462 186.5 450Q169 438 156.5 423.5Q144 409 136 396V0H66V380L60 530H118L128 455Q151 490 194 515.5Q237 541 306 541Q345 541 375.5 528.5Q406 516 426 493.5Q446 471 456.5 439.5Q467 408 467 371V0Z" glyph-name="ncommaaccent" horiz-adv-x="528" unicode="&#326;" /><glyph d="M294 354Q353 354 400 384Q447 414 472 463Q473 475 473.5 486.5Q474 498 474 510V520Q474 568 460.5 606.5Q447 645 423 672Q399 699 367 713Q335 727 299 727H293Q213 727 165.5 680Q118 633 118 548V531Q118 445 164.5 399.5Q211 354 288 354ZM83 53Q122 53 162 61Q202 69 241 85.5Q280 102 315 128Q350 154 378 191Q408 230 427 273Q446 316 457 361Q425 329 381 309.5Q337 290 281 290Q231 290 188 305Q145 320 113.5 350.5Q82 381 64.5 427Q47 473 47 535V545Q47 606 65 652.5Q83 699 115.5 729.5Q148 760 194 775.5Q240 791 296 791Q350 791 395.5 773Q441 755 474.5 720Q508 685 526.5 634Q545 583 545 517V506Q545 413 521 322.5Q497 232 435 149Q403 106 361.5 75.5Q320 45 274 26Q228 7 179 -2Q130 -11 83 -11Z" glyph-name="nine" horiz-adv-x="600" unicode="9" /><glyph d="M148 -3Q169 -3 187.5 8Q206 19 217 39V60Q217 100 197.5 121.5Q178 143 150 143H147Q118 143 99.5 125Q81 107 81 74V65Q81 30 98.5 13.5Q116 -3 145 -3ZM39 -154Q81 -153 116 -140Q151 -127 175 -96Q196 -68 207 -29Q193 -40 174.5 -47.5Q156 -55 133 -55Q83 -55 52 -24Q21 7 21 67V72Q21 132 54.5 164Q88 196 149 196Q208 196 242 158.5Q276 121 276 55V50Q276 3 264.5 -42.5Q253 -88 221 -130Q189 -173 141 -190Q93 -207 39 -207Z" glyph-name="nine.inf" horiz-adv-x="300" unicode="&#58746;" /><glyph d="M148 587Q169 587 187.5 598Q206 609 217 629V650Q217 690 197.5 711.5Q178 733 150 733H147Q118 733 99.5 715Q81 697 81 664V655Q81 620 98.5 603.5Q116 587 145 587ZM952 193Q930 193 911.5 181.5Q893 170 883 150V130Q883 89 902.5 67.5Q922 46 949 46H952Q981 46 1000 64Q1019 82 1019 116V125Q1019 159 1001.5 176Q984 193 955 193ZM532 0V52H625V315L549 264L520 308L642 391H685V52H777V0ZM80 0 656 780H720L144 0ZM39 436Q81 437 116 450Q151 463 175 494Q186 508 194 525Q202 542 207 560Q193 549 174.5 542Q156 535 133 535Q83 535 52 566Q21 597 21 657V662Q21 722 54.5 754Q88 786 149 786Q208 786 242 748.5Q276 711 276 645V640Q276 593 264.5 547.5Q253 502 221 460Q189 417 141 400Q93 383 39 383ZM1060 343Q1018 343 983 329.5Q948 316 925 285Q903 258 893 220Q907 231 925 238Q943 245 966 245Q1016 245 1047.5 213.5Q1079 182 1079 122V117Q1079 57 1045.5 25Q1012 -7 951 -7Q891 -7 857 31Q823 69 823 134V140Q823 187 835 232Q847 277 878 319Q910 363 958 379.5Q1006 396 1060 396Z" glyph-name="ninesixteenths" horiz-adv-x="1100" unicode="&#61977;" /><glyph glyph-name="nonbreakingspace" horiz-adv-x="200" unicode="&#160;" /><glyph d="M48 525H348L419 649H479L407 525H552V459H369L290 321H552V255H252L181 131H121L192 255H48V321H230L310 459H48Z" glyph-name="notequal" horiz-adv-x="600" unicode="&#8800;" /><glyph d="M423 746Q423 692 400.5 667.5Q378 643 342 643Q319 643 299.5 651.5Q280 660 263.5 670Q247 680 232 688.5Q217 697 202 697Q187 697 176.5 688Q166 679 166 654H111Q111 708 133.5 732.5Q156 757 192 757Q215 757 234.5 748.5Q254 740 270.5 730Q287 720 302 711.5Q317 703 332 703Q347 703 357.5 712Q368 721 368 746ZM397 0V361Q397 421 366 449.5Q335 478 282 478Q251 478 227.5 470Q204 462 186.5 450Q169 438 156.5 423.5Q144 409 136 396V0H66V380L60 530H118L128 455Q151 490 194 515.5Q237 541 306 541Q345 541 375.5 528.5Q406 516 426 493.5Q446 471 456.5 439.5Q467 408 467 371V0Z" glyph-name="ntilde" horiz-adv-x="528" unicode="&#241;" /><glyph d="M205 301H354L394 479H245ZM91 545H195L248 780H313L260 545H409L462 780H528L475 545H567V479H460L420 301H509V235H405L352 0H287L339 235H190L138 0H72L125 235H33V301H140L180 479H91Z" glyph-name="numbersign" horiz-adv-x="600" unicode="#" /><glyph d="M707 269H1030V212H707ZM763 575Q763 512 788 473.5Q813 435 868 435Q923 435 948 473.5Q973 512 973 575V595Q973 659 948 697Q923 735 868 735Q813 735 788 697Q763 659 763 595ZM1037 575Q1037 534 1027 498Q1017 462 996.5 435.5Q976 409 944 394Q912 379 868 379Q824 379 792 394Q760 409 739.5 435.5Q719 462 709 498Q699 534 699 575V595Q699 637 709 672.5Q719 708 739.5 734.5Q760 761 792 776Q824 791 868 791Q912 791 944 776Q976 761 996.5 734.5Q1017 708 1027 672.5Q1037 637 1037 595ZM585 0H507L138 658L142 477V0H74V780H152L520 122L517 303V780H585Z" glyph-name="numero" horiz-adv-x="1077" unicode="&#8470;" /><glyph d="M272 52Q351 52 387.5 107Q424 162 424 253V277Q424 368 387.5 423Q351 478 272 478Q193 478 156.5 423Q120 368 120 277V253Q120 162 156.5 107Q193 52 272 52ZM272 -11Q213 -11 171 9.5Q129 30 102 66Q75 102 62 150Q49 198 49 253V277Q49 332 62 380Q75 428 102 464Q129 500 171 520.5Q213 541 272 541Q330 541 372.5 520.5Q415 500 442 464Q469 428 482 380Q495 332 495 277V253Q495 198 482 150Q469 102 442 66Q415 30 372.5 9.5Q330 -11 272 -11Z" glyph-name="o" horiz-adv-x="544" unicode="o" /><glyph d="M402 780 308 614H236L326 780ZM272 52Q351 52 387.5 107Q424 162 424 253V277Q424 368 387.5 423Q351 478 272 478Q193 478 156.5 423Q120 368 120 277V253Q120 162 156.5 107Q193 52 272 52ZM272 -11Q213 -11 171 9.5Q129 30 102 66Q75 102 62 150Q49 198 49 253V277Q49 332 62 380Q75 428 102 464Q129 500 171 520.5Q213 541 272 541Q330 541 372.5 520.5Q415 500 442 464Q469 428 482 380Q495 332 495 277V253Q495 198 482 150Q469 102 442 66Q415 30 372.5 9.5Q330 -11 272 -11Z" glyph-name="oacute" horiz-adv-x="544" unicode="&#243;" /><glyph d="M272 603Q229 603 198.5 616Q168 629 148.5 652.5Q129 676 120 708.5Q111 741 111 780H168Q168 726 192 694Q216 662 272 662Q328 662 352 694Q376 726 376 780H433Q434 702 395.5 652.5Q357 603 272 603ZM272 52Q351 52 387.5 107Q424 162 424 253V277Q424 368 387.5 423Q351 478 272 478Q193 478 156.5 423Q120 368 120 277V253Q120 162 156.5 107Q193 52 272 52ZM272 -11Q213 -11 171 9.5Q129 30 102 66Q75 102 62 150Q49 198 49 253V277Q49 332 62 380Q75 428 102 464Q129 500 171 520.5Q213 541 272 541Q330 541 372.5 520.5Q415 500 442 464Q469 428 482 380Q495 332 495 277V253Q495 198 482 150Q469 102 442 66Q415 30 372.5 9.5Q330 -11 272 -11Z" glyph-name="obreve" horiz-adv-x="544" unicode="&#335;" /><glyph d="M110 614 241 780H303L434 614H365L272 727L179 614ZM272 52Q351 52 387.5 107Q424 162 424 253V277Q424 368 387.5 423Q351 478 272 478Q193 478 156.5 423Q120 368 120 277V253Q120 162 156.5 107Q193 52 272 52ZM272 -11Q213 -11 171 9.5Q129 30 102 66Q75 102 62 150Q49 198 49 253V277Q49 332 62 380Q75 428 102 464Q129 500 171 520.5Q213 541 272 541Q330 541 372.5 520.5Q415 500 442 464Q469 428 482 380Q495 332 495 277V253Q495 198 482 150Q469 102 442 66Q415 30 372.5 9.5Q330 -11 272 -11Z" glyph-name="ocircumflex" horiz-adv-x="544" unicode="&#244;" /><glyph d="M399 657H312V745H399ZM232 657H145V745H232ZM272 52Q351 52 387.5 107Q424 162 424 253V277Q424 368 387.5 423Q351 478 272 478Q193 478 156.5 423Q120 368 120 277V253Q120 162 156.5 107Q193 52 272 52ZM272 -11Q213 -11 171 9.5Q129 30 102 66Q75 102 62 150Q49 198 49 253V277Q49 332 62 380Q75 428 102 464Q129 500 171 520.5Q213 541 272 541Q330 541 372.5 520.5Q415 500 442 464Q469 428 482 380Q495 332 495 277V253Q495 198 482 150Q469 102 442 66Q415 30 372.5 9.5Q330 -11 272 -11Z" glyph-name="odieresis" horiz-adv-x="544" unicode="&#246;" /><glyph d="M647 482Q572 482 534.5 431.5Q497 381 495 294H799Q796 381 759.5 431.5Q723 482 647 482ZM120 253Q120 162 156.5 107Q193 52 272 52Q351 52 387.5 107Q424 162 424 253V277Q424 368 387.5 423Q351 478 272 478Q193 478 156.5 423Q120 368 120 277ZM495 236Q497 149 535.5 98.5Q574 48 654 48Q693 48 721.5 59Q750 70 768 87.5Q786 105 794.5 127Q803 149 803 170H871V166Q871 135 858 103.5Q845 72 818 46.5Q791 21 750 5Q709 -11 653 -11Q578 -11 531 21.5Q484 54 460 107Q437 54 391 21.5Q345 -11 272 -11Q213 -11 171 9.5Q129 30 102 66Q75 102 62 150Q49 198 49 253V277Q49 332 62 380Q75 428 102 464Q129 500 171 520.5Q213 541 272 541Q345 541 391 508.5Q437 476 460 423Q483 476 529 508.5Q575 541 648 541Q706 541 748 520.5Q790 500 817.5 464Q845 428 858 379.5Q871 331 871 276V236Z" glyph-name="oe" horiz-adv-x="919" unicode="&#339;" /><glyph d="M200 -103Q200 -125 214.5 -139Q229 -153 256 -153Q274 -153 291 -149Q308 -145 319 -139L338 -191Q322 -201 297.5 -206Q273 -211 249 -211Q200 -211 170 -188Q140 -165 140 -113Q140 -83 151 -58.5Q162 -34 179.5 -14.5Q197 5 219.5 19Q242 33 266 42L283 0Q250 -14 225 -39.5Q200 -65 200 -103Z" glyph-name="ogonek" horiz-adv-x="602" unicode="&#731;" /><glyph d="M218 780 308 614H236L142 780ZM272 52Q351 52 387.5 107Q424 162 424 253V277Q424 368 387.5 423Q351 478 272 478Q193 478 156.5 423Q120 368 120 277V253Q120 162 156.5 107Q193 52 272 52ZM272 -11Q213 -11 171 9.5Q129 30 102 66Q75 102 62 150Q49 198 49 253V277Q49 332 62 380Q75 428 102 464Q129 500 171 520.5Q213 541 272 541Q330 541 372.5 520.5Q415 500 442 464Q469 428 482 380Q495 332 495 277V253Q495 198 482 150Q469 102 442 66Q415 30 372.5 9.5Q330 -11 272 -11Z" glyph-name="ograve" horiz-adv-x="544" unicode="&#242;" /><glyph d="M330 780 242 614H179L263 780ZM460 780 365 614H302L392 780ZM272 52Q351 52 387.5 107Q424 162 424 253V277Q424 368 387.5 423Q351 478 272 478Q193 478 156.5 423Q120 368 120 277V253Q120 162 156.5 107Q193 52 272 52ZM272 -11Q213 -11 171 9.5Q129 30 102 66Q75 102 62 150Q49 198 49 253V277Q49 332 62 380Q75 428 102 464Q129 500 171 520.5Q213 541 272 541Q330 541 372.5 520.5Q415 500 442 464Q469 428 482 380Q495 332 495 277V253Q495 198 482 150Q469 102 442 66Q415 30 372.5 9.5Q330 -11 272 -11Z" glyph-name="ohungarumlaut" horiz-adv-x="544" unicode="&#337;" /><glyph d="M155 730H389V664H155ZM272 52Q351 52 387.5 107Q424 162 424 253V277Q424 368 387.5 423Q351 478 272 478Q193 478 156.5 423Q120 368 120 277V253Q120 162 156.5 107Q193 52 272 52ZM272 -11Q213 -11 171 9.5Q129 30 102 66Q75 102 62 150Q49 198 49 253V277Q49 332 62 380Q75 428 102 464Q129 500 171 520.5Q213 541 272 541Q330 541 372.5 520.5Q415 500 442 464Q469 428 482 380Q495 332 495 277V253Q495 198 482 150Q469 102 442 66Q415 30 372.5 9.5Q330 -11 272 -11Z" glyph-name="omacron" horiz-adv-x="544" unicode="&#333;" /><glyph d="M71 0V65H275V688L91 563L55 618L300 784H346V65H549V0Z" glyph-name="one" horiz-adv-x="600" unicode="1" /><glyph d="M32 -200V-148H125V115L49 64L20 108L142 191H185V-148H277V-200Z" glyph-name="one.inf" horiz-adv-x="300" unicode="&#58738;" /><glyph d="M32 390V442H125V705L49 654L20 698L142 781H185V442H277V390ZM775 0H525V37L683 209Q700 227 707.5 241Q715 255 715 274V279Q715 310 697.5 326.5Q680 343 651 343H648Q617 343 600.5 324Q584 305 584 260H525V271Q525 332 555 364Q585 396 650 396Q683 396 706.5 387.5Q730 379 745.5 364Q761 349 768 329.5Q775 310 775 289V282Q775 250 764.5 228.5Q754 207 730 181L611 52H775ZM80 0 656 780H720L144 0Z" glyph-name="onehalf" horiz-adv-x="800" unicode="&#189;" /><glyph d="M580 145 614 146H673V254L674 293ZM32 390V442H125V705L49 654L20 698L142 781H185V442H277V390ZM80 0 656 780H720L144 0ZM673 0V93H514V134L675 390H733V146H785V93H733V0Z" glyph-name="onequarter" horiz-adv-x="800" unicode="&#188;" /><glyph d="M952 193Q930 193 911.5 181.5Q893 170 883 150V130Q883 89 902.5 67.5Q922 46 949 46H952Q981 46 1000 64Q1019 82 1019 116V125Q1019 159 1001.5 176Q984 193 955 193ZM532 0V52H625V315L549 264L520 308L642 391H685V52H777V0ZM32 390V442H125V705L49 654L20 698L142 781H185V442H277V390ZM80 0 656 780H720L144 0ZM1060 343Q1018 343 983 329.5Q948 316 925 285Q903 258 893 220Q907 231 925 238Q943 245 966 245Q1016 245 1047.5 213.5Q1079 182 1079 122V117Q1079 57 1045.5 25Q1012 -7 951 -7Q891 -7 857 31Q823 69 823 134V140Q823 187 835 232Q847 277 878 319Q910 363 958 379.5Q1006 396 1060 396Z" glyph-name="onesixteenth" horiz-adv-x="1100" unicode="&#61973;" /><glyph d="M32 390V442H125V705L49 654L20 698L142 781H185V442H277V390Z" glyph-name="onesuperior" horiz-adv-x="300" unicode="&#185;" /><glyph d="M40 318V382H293V318Z" glyph-name="onethirdemdash" horiz-adv-x="333" unicode="&#58481;" /><glyph d="M47 358V422H293V358Z" glyph-name="onethirdemdash.cap" horiz-adv-x="333" unicode="&#58499;" /><glyph d="M47 212V269H352V212ZM172 433Q196 433 214.5 438.5Q233 444 246.5 452.5Q260 461 269 470.5Q278 480 284 488V592L178 575Q143 569 122.5 551Q102 533 102 501V495Q102 471 118 452Q134 433 172 433ZM290 441Q270 415 237.5 397Q205 379 154 379Q97 379 67.5 410Q38 441 38 489V496Q38 528 49 549.5Q60 571 78.5 585Q97 599 120.5 606.5Q144 614 170 618L284 635V644Q284 691 266 715Q248 739 199 739Q173 739 156.5 732Q140 725 130.5 713Q121 701 117.5 685.5Q114 670 114 652H53V659Q53 682 59.5 705.5Q66 729 82.5 748Q99 767 127.5 779Q156 791 200 791Q242 791 270.5 780.5Q299 770 316 750.5Q333 731 340 704Q347 677 347 644V499L352 388H299Z" glyph-name="ordfeminine" horiz-adv-x="390" unicode="&#170;" /><glyph d="M48 269H371V212H48ZM104 575Q104 512 129 473.5Q154 435 209 435Q264 435 289 473.5Q314 512 314 575V595Q314 659 289 697Q264 735 209 735Q154 735 129 697Q104 659 104 595ZM378 575Q378 534 368 498Q358 462 337.5 435.5Q317 409 285 394Q253 379 209 379Q165 379 133 394Q101 409 80.5 435.5Q60 462 50 498Q40 534 40 575V595Q40 637 50 672.5Q60 708 80.5 734.5Q101 761 133 776Q165 791 209 791Q253 791 285 776Q317 761 337.5 734.5Q358 708 368 672.5Q378 637 378 595Z" glyph-name="ordmasculine" horiz-adv-x="418" unicode="&#186;" /><glyph d="M424 277Q424 352 399 401L169 91Q208 52 272 52Q351 52 387.5 107Q424 162 424 253ZM120 253Q120 177 144 128L374 438Q337 478 272 478Q193 478 156.5 423Q120 368 120 277ZM444 461Q470 426 482.5 378.5Q495 331 495 277V253Q495 198 482 150Q469 102 442 66Q415 30 372.5 9.5Q330 -11 272 -11Q226 -11 190.5 1.5Q155 14 129 37L102 0H49L100 68Q74 104 61.5 151.5Q49 199 49 253V277Q49 332 62 380Q75 428 102 464Q129 500 171 520.5Q213 541 272 541Q317 541 352.5 528.5Q388 516 414 493L442 530H495Z" glyph-name="oslash" horiz-adv-x="544" unicode="&#248;" /><glyph d="M428 746Q428 692 405.5 667.5Q383 643 347 643Q324 643 304.5 651.5Q285 660 268.5 670Q252 680 237 688.5Q222 697 207 697Q192 697 181.5 688Q171 679 171 654H116Q116 708 138.5 732.5Q161 757 197 757Q220 757 239.5 748.5Q259 740 275.5 730Q292 720 307 711.5Q322 703 337 703Q352 703 362.5 712Q373 721 373 746ZM272 52Q351 52 387.5 107Q424 162 424 253V277Q424 368 387.5 423Q351 478 272 478Q193 478 156.5 423Q120 368 120 277V253Q120 162 156.5 107Q193 52 272 52ZM272 -11Q213 -11 171 9.5Q129 30 102 66Q75 102 62 150Q49 198 49 253V277Q49 332 62 380Q75 428 102 464Q129 500 171 520.5Q213 541 272 541Q330 541 372.5 520.5Q415 500 442 464Q469 428 482 380Q495 332 495 277V253Q495 198 482 150Q469 102 442 66Q415 30 372.5 9.5Q330 -11 272 -11Z" glyph-name="otilde" horiz-adv-x="544" unicode="&#245;" /><glyph d="M136 134Q144 121 155.5 106.5Q167 92 183.5 80Q200 68 221.5 60Q243 52 270 52Q345 52 381 106Q417 160 417 253V277Q417 370 381 424Q345 478 270 478Q243 478 221.5 470Q200 462 183.5 450Q167 438 155.5 423.5Q144 409 136 396ZM286 -11Q230 -11 193.5 9.5Q157 30 136 60V-200H66V380L60 530H118L128 458Q149 492 187 516.5Q225 541 286 541Q340 541 378.5 520.5Q417 500 441.5 464Q466 428 477.5 380Q489 332 489 277V253Q489 198 477.5 150Q466 102 441.5 66Q417 30 378.5 9.5Q340 -11 286 -11Z" glyph-name="p" horiz-adv-x="537" unicode="p" /><glyph d="M110 541Q110 493 125 462Q140 431 162.5 413.5Q185 396 212.5 389.5Q240 383 265 382V715Q240 714 212.5 707.5Q185 701 162.5 683.5Q140 666 125 635Q110 604 110 556ZM375 715H335V0H265V317Q224 318 183 328Q142 338 109.5 363Q77 388 56.5 430.5Q36 473 36 538V558Q36 625 57.5 668.5Q79 712 113.5 736.5Q148 761 190.5 770.5Q233 780 275 780H447V0H375Z" glyph-name="paragraph" horiz-adv-x="513" unicode="&#182;" /><glyph d="M51 370Q51 457 63.5 524.5Q76 592 97.5 647.5Q119 703 147 749Q175 795 206 840H283Q248 792 219 742.5Q190 693 168 637Q146 581 134 516Q122 451 122 370V350Q122 269 134 204Q146 139 168 83Q190 27 219 -22.5Q248 -72 283 -120H206Q175 -75 147 -29Q119 17 97.5 72.5Q76 128 63.5 195.5Q51 263 51 350Z" glyph-name="parenleft" horiz-adv-x="317" unicode="(" /><glyph d="M60 400Q60 516 95 611.5Q130 707 182 780H257Q232 744 209 700.5Q186 657 169 608.5Q152 560 141.5 507.5Q131 455 131 400V380Q131 325 141.5 272.5Q152 220 169 171.5Q186 123 209 79.5Q232 36 257 0H182Q130 73 95 168.5Q60 264 60 380Z" glyph-name="parenleft.cap" horiz-adv-x="317" unicode="&#58513;" /><glyph d="M26 0Q26 62 43 109.5Q60 157 86 190H148Q125 156 105 107Q85 58 85 0V-10Q85 -68 105 -117Q125 -166 148 -200H86Q60 -168 43 -120.5Q26 -73 26 -10Z" glyph-name="parenleft.inf" horiz-adv-x="171" unicode="&#58750;" /><glyph d="M266 350Q266 263 253.5 195.5Q241 128 220 72.5Q199 17 170.5 -29Q142 -75 111 -120H34Q68 -72 97.5 -22.5Q127 27 149 83Q171 139 183 204Q195 269 195 350V370Q195 451 183 516Q171 581 149 637Q127 693 97.5 742.5Q68 792 34 840H111Q142 795 170.5 749Q199 703 220 647.5Q241 592 253.5 524.5Q266 457 266 370Z" glyph-name="parenright" horiz-adv-x="317" unicode=")" /><glyph d="M257 380Q257 264 222 168.5Q187 73 135 0H60Q85 36 108 79.5Q131 123 148 171.5Q165 220 175.5 272.5Q186 325 186 380V400Q186 455 175.5 507.5Q165 560 148 608.5Q131 657 108 700.5Q85 744 60 780H135Q187 707 222 611.5Q257 516 257 400Z" glyph-name="parenright.cap" horiz-adv-x="317" unicode="&#58514;" /><glyph d="M145 -10Q145 -73 128 -120.5Q111 -168 85 -200H24Q47 -166 66.5 -117Q86 -68 86 -10V0Q86 58 66.5 107Q47 156 24 190H85Q111 157 128 109.5Q145 62 145 0Z" glyph-name="parenright.inf" horiz-adv-x="171" unicode="&#58751;" /><glyph d="M317 657H229V745H317ZM136 134Q144 121 155.5 106.5Q167 92 183.5 80Q200 68 221.5 60Q243 52 270 52Q345 52 381 106Q417 160 417 253V277Q417 370 381 424Q345 478 270 478Q243 478 221.5 470Q200 462 183.5 450Q167 438 155.5 423.5Q144 409 136 396ZM286 -11Q230 -11 193.5 9.5Q157 30 136 60V-200H66V380L60 530H118L128 458Q149 492 187 516.5Q225 541 286 541Q340 541 378.5 520.5Q417 500 441.5 464Q466 428 477.5 380Q489 332 489 277V253Q489 198 477.5 150Q466 102 441.5 66Q417 30 378.5 9.5Q340 -11 286 -11Z" glyph-name="pdotaccent" horiz-adv-x="537" unicode="&#7767;" /><glyph d="M607 157Q607 103 637.5 75.5Q668 48 712 48H718Q763 48 793.5 75.5Q824 103 824 157V174Q824 228 793.5 255.5Q763 283 718 283H712Q668 283 637.5 255.5Q607 228 607 174ZM315 623Q315 677 284 704.5Q253 732 209 732H203Q159 732 128 704.5Q97 677 97 623V606Q97 552 128 524.5Q159 497 203 497H209Q253 497 284 524.5Q315 552 315 606ZM548 171Q548 213 561 245Q574 277 597 298.5Q620 320 650 331Q680 342 715 342Q750 342 780.5 331Q811 320 834 298.5Q857 277 870 245Q883 213 883 171V160Q883 118 870 86Q857 54 834 32.5Q811 11 780.5 0Q750 -11 715 -11Q680 -11 650 0Q620 11 597 32.5Q574 54 561 86Q548 118 548 160ZM265 0 557 703Q554 702 522 695Q490 688 443 688Q420 688 400 689.5Q380 691 360 695Q374 662 374 620V609Q374 567 361 535Q348 503 325 481.5Q302 460 271.5 449Q241 438 206 438Q171 438 140.5 449Q110 460 87 481.5Q64 503 51 535Q38 567 38 609V620Q38 662 51 694Q64 726 87 747.5Q110 769 140.5 780Q171 791 206 791Q241 791 272 780Q315 763 359.5 756Q404 749 451 749Q477 749 505.5 752.5Q534 756 560 760.5Q586 765 606.5 770.5Q627 776 637 781V734L332 0Z" glyph-name="percent" horiz-adv-x="921" unicode="%" /><glyph d="M153 0H63V90H153Z" glyph-name="period" horiz-adv-x="216" unicode="." /><glyph d="M195 0H105V90H195Z" glyph-name="period.T" horiz-adv-x="300" unicode="&#61826;" /><glyph d="M152 306H65V394H152Z" glyph-name="periodcentered" horiz-adv-x="217" unicode="&#183;" /><glyph d="M152 346H65V434H152Z" glyph-name="periodcentered.cap" horiz-adv-x="217" unicode="&#58497;" /><glyph d="M607 157Q607 103 637.5 75.5Q668 48 712 48H718Q763 48 793.5 75.5Q824 103 824 157V174Q824 228 793.5 255.5Q763 283 718 283H712Q668 283 637.5 255.5Q607 228 607 174ZM1007 157Q1007 103 1037.5 75.5Q1068 48 1112 48H1118Q1163 48 1193.5 75.5Q1224 103 1224 157V174Q1224 228 1193.5 255.5Q1163 283 1118 283H1112Q1068 283 1037.5 255.5Q1007 228 1007 174ZM315 623Q315 677 284 704.5Q253 732 209 732H203Q159 732 128 704.5Q97 677 97 623V606Q97 552 128 524.5Q159 497 203 497H209Q253 497 284 524.5Q315 552 315 606ZM948 171Q948 213 961 245Q974 277 997 298.5Q1020 320 1050 331Q1080 342 1115 342Q1150 342 1180.5 331Q1211 320 1234 298.5Q1257 277 1270 245Q1283 213 1283 171V160Q1283 118 1270 86Q1257 54 1234 32.5Q1211 11 1180.5 0Q1150 -11 1115 -11Q1080 -11 1050 0Q1020 11 997 32.5Q974 54 961 86Q948 118 948 160ZM548 171Q548 213 561 245Q574 277 597 298.5Q620 320 650 331Q680 342 715 342Q750 342 780.5 331Q811 320 834 298.5Q857 277 870 245Q883 213 883 171V160Q883 118 870 86Q857 54 834 32.5Q811 11 780.5 0Q750 -11 715 -11Q680 -11 650 0Q620 11 597 32.5Q574 54 561 86Q548 118 548 160ZM265 0 557 703Q554 702 522 695Q490 688 443 688Q420 688 400 689.5Q380 691 360 695Q374 662 374 620V609Q374 567 361 535Q348 503 325 481.5Q302 460 271.5 449Q241 438 206 438Q171 438 140.5 449Q110 460 87 481.5Q64 503 51 535Q38 567 38 609V620Q38 662 51 694Q64 726 87 747.5Q110 769 140.5 780Q171 791 206 791Q241 791 272 780Q315 763 359.5 756Q404 749 451 749Q477 749 505.5 752.5Q534 756 560 760.5Q586 765 606.5 770.5Q627 776 637 781V734L332 0Z" glyph-name="perthousand" horiz-adv-x="1321" unicode="&#8240;" /><glyph d="M333 642V423H552V357H333V138H267V357H48V423H267V642Z" glyph-name="plus" horiz-adv-x="600" unicode="+" /><glyph d="M176 123V21H278V-32H176V-133H123V-32H22V21H123V123Z" glyph-name="plus.inf" horiz-adv-x="300" unicode="&#58747;" /><glyph d="M48 227H552V161H48ZM333 649V510H552V443H333V304H267V443H48V510H267V649Z" glyph-name="plusminus" horiz-adv-x="600" unicode="&#177;" /><glyph d="M475 396Q490 396 506 399.5Q522 403 534.5 412Q547 421 555.5 437.5Q564 454 564 480V487Q564 514 555.5 530.5Q547 547 534.5 556Q522 565 506 568Q490 571 475 571H368V396ZM368 155H301V625H483Q509 625 535.5 619Q562 613 583 598Q604 583 617.5 557Q631 531 631 490V478Q631 437 617.5 410.5Q604 384 583 369Q562 354 535.5 348Q509 342 483 342H368ZM102 390Q102 316 130 250.5Q158 185 206.5 136.5Q255 88 320.5 60Q386 32 460 32Q534 32 599.5 60Q665 88 713.5 136.5Q762 185 790 250.5Q818 316 818 390Q818 464 790 529.5Q762 595 713.5 643.5Q665 692 599.5 720Q534 748 460 748Q386 748 320.5 720Q255 692 206.5 643.5Q158 595 130 529.5Q102 464 102 390ZM59 390Q59 473 90.5 546Q122 619 176.5 673.5Q231 728 304 759.5Q377 791 460 791Q543 791 616 759.5Q689 728 743.5 673.5Q798 619 829.5 546Q861 473 861 390Q861 307 829.5 234Q798 161 743.5 106.5Q689 52 616 20.5Q543 -11 460 -11Q377 -11 304 20.5Q231 52 176.5 106.5Q122 161 90.5 234Q59 307 59 390Z" glyph-name="published" horiz-adv-x="920" unicode="&#8471;" /><glyph glyph-name="punctuationspace" horiz-adv-x="180" unicode="&#8200;" /><glyph d="M403 396Q395 409 383 423.5Q371 438 354.5 450Q338 462 316.5 470Q295 478 268 478Q193 478 157 424Q121 370 121 277V253Q121 160 157 106Q193 52 268 52Q295 52 316.5 60Q338 68 354.5 80Q371 92 383 106.5Q395 121 403 134ZM403 62Q381 31 344.5 10Q308 -11 252 -11Q198 -11 159.5 9.5Q121 30 96.5 66Q72 102 60.5 150Q49 198 49 253V277Q49 332 60.5 380Q72 428 96.5 464Q121 500 159.5 520.5Q198 541 252 541Q313 541 351 516.5Q389 492 410 457L420 530H479L472 380V-200H403Z" glyph-name="q" horiz-adv-x="539" unicode="q" /><glyph d="M271 0H181V90H271ZM231 726Q192 726 166 710.5Q140 695 124.5 666.5Q109 638 103 596.5Q97 555 97 504H26V516Q26 574 35 624.5Q44 675 67.5 712Q91 749 130.5 770Q170 791 231 791Q283 791 320.5 776Q358 761 381.5 734Q405 707 416 668.5Q427 630 427 583Q427 533 414.5 498.5Q402 464 383 437Q364 410 341.5 386.5Q319 363 299 336Q279 309 265.5 274Q252 239 250 189H203Q201 239 211.5 277.5Q222 316 239 347.5Q256 379 276 405.5Q296 432 313.5 458Q331 484 342.5 512.5Q354 541 354 576Q354 611 348.5 638.5Q343 666 328.5 685.5Q314 705 290.5 715.5Q267 726 231 726Z" glyph-name="question" horiz-adv-x="455" unicode="?" /><glyph d="M184 530H274V440H184ZM224 -146Q263 -146 289 -132Q315 -118 330 -91Q345 -64 351 -26Q357 12 357 60H429V48Q429 -7 420 -54.5Q411 -102 387.5 -136.5Q364 -171 324.5 -191Q285 -211 224 -211Q125 -211 76.5 -160.5Q28 -110 28 -29Q28 20 40.5 54.5Q53 89 72 115.5Q91 142 113.5 164Q136 186 156 210.5Q176 235 189.5 266Q203 297 205 341H252Q254 297 243.5 262.5Q233 228 216 199Q199 170 179 145Q159 120 141.5 94.5Q124 69 112.5 40.5Q101 12 101 -22Q101 -79 129.5 -112.5Q158 -146 224 -146Z" glyph-name="questiondown" horiz-adv-x="455" unicode="&#191;" /><glyph d="M184 780H274V690H184ZM224 54Q263 54 289 69.5Q315 85 330.5 113.5Q346 142 352 183.5Q358 225 358 276H429V264Q429 205 420 155Q411 105 387.5 68Q364 31 324.5 10Q285 -11 224 -11Q171 -11 134 4Q97 19 73.5 46Q50 73 39 111.5Q28 150 28 197Q28 247 40.5 281.5Q53 316 72 343Q91 370 113.5 393.5Q136 417 156 444Q176 471 189.5 506Q203 541 205 591H252Q254 541 243.5 502.5Q233 464 216 432.5Q199 401 179 374.5Q159 348 141.5 322Q124 296 112.5 267.5Q101 239 101 204Q101 169 106.5 141.5Q112 114 126.5 94.5Q141 75 164.5 64.5Q188 54 224 54Z" glyph-name="questiondown.cap" horiz-adv-x="455" unicode="&#58436;" /><glyph d="M269 780 255 511H205L195 780ZM144 780 133 511H84L69 780Z" glyph-name="quotedbl" horiz-adv-x="338" unicode="&quot;" /><glyph d="M299 18Q299 -118 186 -118V-76Q217 -76 235 -59.5Q253 -43 256 0H209V90H299ZM153 18Q153 -118 40 -118V-76Q71 -76 89 -59.5Q107 -43 110 0H63V90H153Z" glyph-name="quotedblbase" horiz-adv-x="362" unicode="&#8222;" /><glyph d="M63 658Q63 794 176 794V752Q144 752 126 735.5Q108 719 105 676H153V586H63ZM209 658Q209 794 322 794V752Q290 752 272 735.5Q254 719 251 676H299V586H209Z" glyph-name="quotedblleft" horiz-adv-x="362" unicode="&#8220;" /><glyph d="M299 708Q299 572 186 572V614Q217 614 235 630.5Q253 647 256 690H209V780H299ZM153 708Q153 572 40 572V614Q71 614 89 630.5Q107 647 110 690H63V780H153Z" glyph-name="quotedblright" horiz-adv-x="362" unicode="&#8221;" /><glyph d="M63 658Q63 794 176 794V752Q144 752 126 735.5Q108 719 105 676H153V586H63Z" glyph-name="quoteleft" horiz-adv-x="216" unicode="&#8216;" /><glyph d="M153 708Q153 572 40 572V614Q71 614 89 630.5Q107 647 110 690H63V780H153Z" glyph-name="quoteright" horiz-adv-x="216" unicode="&#8217;" /><glyph d="M153 18Q153 -118 40 -118V-76Q71 -76 89 -59.5Q107 -43 110 0H63V90H153Z" glyph-name="quotesinglbase" horiz-adv-x="216" unicode="&#8218;" /><glyph d="M148 780 133 511H84L69 780Z" glyph-name="quotesingle" horiz-adv-x="217" unicode="&apos;" /><glyph d="M276 541Q281 541 285.5 540.5Q290 540 291 540V473H277Q247 473 224.5 465.5Q202 458 185 446Q168 434 156 420Q144 406 136 393V0H66V380L60 530H118L128 460Q149 493 185.5 517Q222 541 276 541Z" glyph-name="r" horiz-adv-x="333" unicode="r" /><glyph d="M308 780 214 614H142L232 780ZM276 541Q281 541 285.5 540.5Q290 540 291 540V473H277Q247 473 224.5 465.5Q202 458 185 446Q168 434 156 420Q144 406 136 393V0H66V380L60 530H118L128 460Q149 493 185.5 517Q222 541 276 541Z" glyph-name="racute" horiz-adv-x="333" unicode="&#341;" /><glyph d="M85 780 178 666 271 780H340L209 614H147L16 780ZM276 541Q281 541 285.5 540.5Q290 540 291 540V473H277Q247 473 224.5 465.5Q202 458 185 446Q168 434 156 420Q144 406 136 393V0H66V380L60 530H118L128 460Q149 493 185.5 517Q222 541 276 541Z" glyph-name="rcaron" horiz-adv-x="333" unicode="&#345;" /><glyph d="M142 -106Q142 -158 114.5 -186Q87 -214 37 -214V-178Q64 -178 81.5 -165.5Q99 -153 104 -124H60V-56H142ZM276 541Q281 541 285.5 540.5Q290 540 291 540V473H277Q247 473 224.5 465.5Q202 458 185 446Q168 434 156 420Q144 406 136 393V0H66V380L60 530H118L128 460Q149 493 185.5 517Q222 541 276 541Z" glyph-name="rcommaaccent" horiz-adv-x="333" unicode="&#343;" /><glyph d="M194 698Q194 721 166 721H136V671H166Q194 671 194 695ZM229 693Q229 674 221 662.5Q213 651 199 646L229 579H193L166 642H136V579H101V751H173Q197 751 213 738.5Q229 726 229 700ZM43 665Q43 640 52.5 617.5Q62 595 78.5 578.5Q95 562 117.5 552.5Q140 543 165 543Q190 543 212.5 552.5Q235 562 251.5 578.5Q268 595 277.5 617.5Q287 640 287 665Q287 690 277.5 712.5Q268 735 251.5 751.5Q235 768 212.5 777.5Q190 787 165 787Q140 787 117.5 777.5Q95 768 78.5 751.5Q62 735 52.5 712.5Q43 690 43 665ZM19 665Q19 695 30.5 721.5Q42 748 62 768Q82 788 108.5 799.5Q135 811 165 811Q195 811 221.5 799.5Q248 788 268 768Q288 748 299.5 721.5Q311 695 311 665Q311 635 299.5 608.5Q288 582 268 562Q248 542 221.5 530.5Q195 519 165 519Q135 519 108.5 530.5Q82 542 62 562Q42 582 30.5 608.5Q19 635 19 665Z" glyph-name="registered" horiz-adv-x="330" unicode="&#174;" /><glyph d="M470 396Q485 396 501 399.5Q517 403 530 412Q543 421 551.5 437.5Q560 454 560 480V487Q560 514 551.5 530.5Q543 547 530 556Q517 565 501 568Q485 571 470 571H363V396ZM363 155H297V625H479Q505 625 531 619Q557 613 578 598Q599 583 612.5 557Q626 531 626 490V478Q626 423 603 394Q580 365 548 353L626 155H556L487 342H363ZM102 390Q102 316 130 250.5Q158 185 206.5 136.5Q255 88 320.5 60Q386 32 460 32Q534 32 599.5 60Q665 88 713.5 136.5Q762 185 790 250.5Q818 316 818 390Q818 464 790 529.5Q762 595 713.5 643.5Q665 692 599.5 720Q534 748 460 748Q386 748 320.5 720Q255 692 206.5 643.5Q158 595 130 529.5Q102 464 102 390ZM59 390Q59 473 90.5 546Q122 619 176.5 673.5Q231 728 304 759.5Q377 791 460 791Q543 791 616 759.5Q689 728 743.5 673.5Q798 619 829.5 546Q861 473 861 390Q861 307 829.5 234Q798 161 743.5 106.5Q689 52 616 20.5Q543 -11 460 -11Q377 -11 304 20.5Q231 52 176.5 106.5Q122 161 90.5 234Q59 307 59 390Z" glyph-name="registered.cap" horiz-adv-x="920" unicode="&#59804;" /><glyph d="M153 780V690H105Q108 647 126 630.5Q144 614 176 614V572Q63 572 63 708V780ZM299 780V690H251Q254 647 272 630.5Q290 614 322 614V572Q209 572 209 708V780Z" glyph-name="reversequotedblleft" horiz-adv-x="362" unicode="&#8223;" /><glyph d="M153 780V690H105Q108 647 126 630.5Q144 614 176 614V572Q63 572 63 708V780Z" glyph-name="reversequoteleft" horiz-adv-x="216" unicode="&#8219;" /><glyph d="M194 697Q194 674 210.5 657.5Q227 641 250 641Q273 641 289.5 657.5Q306 674 306 697Q306 720 289.5 736.5Q273 753 250 753Q227 753 210.5 736.5Q194 720 194 697ZM156 697Q156 716 163.5 733.5Q171 751 183.5 763.5Q196 776 213 783.5Q230 791 250 791Q269 791 286.5 783.5Q304 776 316.5 763.5Q329 751 336.5 733.5Q344 716 344 697Q344 677 336.5 660Q329 643 316.5 630.5Q304 618 286.5 610.5Q269 603 250 603Q230 603 213 610.5Q196 618 183.5 630.5Q171 643 163.5 660Q156 677 156 697Z" glyph-name="ring" horiz-adv-x="500" unicode="&#730;" /><glyph d="M194 867Q194 844 210.5 827.5Q227 811 250 811Q273 811 289.5 827.5Q306 844 306 867Q306 890 289.5 906.5Q273 923 250 923Q227 923 210.5 906.5Q194 890 194 867ZM156 867Q156 886 163.5 903.5Q171 921 183.5 933.5Q196 946 213 953.5Q230 961 250 961Q269 961 286.5 953.5Q304 946 316.5 933.5Q329 921 336.5 903.5Q344 886 344 867Q344 847 336.5 830Q329 813 316.5 800.5Q304 788 286.5 780.5Q269 773 250 773Q230 773 213 780.5Q196 788 183.5 800.5Q171 813 163.5 830Q156 847 156 867Z" glyph-name="ring.cap" horiz-adv-x="500" unicode="&#58410;" /><glyph d="M317 382Q342 382 370.5 388Q399 394 423.5 411Q448 428 464 459.5Q480 491 480 541V556Q480 606 464 637Q448 668 423.5 685.5Q399 703 370.5 709Q342 715 317 715H183V382ZM183 255H391V190H183V0H111V190H23V255H111V317H23V382H111V780H315Q357 780 399.5 770.5Q442 761 476.5 736.5Q511 712 532.5 668.5Q554 625 554 558V538Q554 471 532.5 428Q511 385 476.5 360.5Q442 336 399.5 326.5Q357 317 315 317H183Z" glyph-name="ruble" horiz-adv-x="600" unicode="&#8381;" /><glyph d="M261 48Q326 48 359.5 74Q393 100 393 145Q393 172 385 189.5Q377 207 359.5 217.5Q342 228 314.5 234Q287 240 248 243Q194 247 158.5 258.5Q123 270 102 288Q81 306 72.5 330Q64 354 64 384V390Q64 459 115.5 500Q167 541 261 541Q315 541 353 528Q391 515 414.5 491Q438 467 448.5 434.5Q459 402 459 363V359H390Q390 416 362.5 449Q335 482 261 482Q201 482 167.5 458.5Q134 435 134 390Q134 369 140 353Q146 337 161.5 325.5Q177 314 204.5 306.5Q232 299 275 296Q375 288 420 255.5Q465 223 465 150V145Q465 76 412.5 32.5Q360 -11 261 -11Q205 -11 166 4Q127 19 103 43Q79 67 68 97.5Q57 128 57 158V162H127Q127 140 133 119.5Q139 99 154.5 83Q170 67 196 57.5Q222 48 261 48Z" glyph-name="s" horiz-adv-x="522" unicode="s" /><glyph d="M391 780 297 614H225L315 780ZM261 48Q326 48 359.5 74Q393 100 393 145Q393 172 385 189.5Q377 207 359.5 217.5Q342 228 314.5 234Q287 240 248 243Q194 247 158.5 258.5Q123 270 102 288Q81 306 72.5 330Q64 354 64 384V390Q64 459 115.5 500Q167 541 261 541Q315 541 353 528Q391 515 414.5 491Q438 467 448.5 434.5Q459 402 459 363V359H390Q390 416 362.5 449Q335 482 261 482Q201 482 167.5 458.5Q134 435 134 390Q134 369 140 353Q146 337 161.5 325.5Q177 314 204.5 306.5Q232 299 275 296Q375 288 420 255.5Q465 223 465 150V145Q465 76 412.5 32.5Q360 -11 261 -11Q205 -11 166 4Q127 19 103 43Q79 67 68 97.5Q57 128 57 158V162H127Q127 140 133 119.5Q139 99 154.5 83Q170 67 196 57.5Q222 48 261 48Z" glyph-name="sacute" horiz-adv-x="522" unicode="&#347;" /><glyph d="M168 780 261 666 354 780H423L292 614H230L99 780ZM261 48Q326 48 359.5 74Q393 100 393 145Q393 172 385 189.5Q377 207 359.5 217.5Q342 228 314.5 234Q287 240 248 243Q194 247 158.5 258.5Q123 270 102 288Q81 306 72.5 330Q64 354 64 384V390Q64 459 115.5 500Q167 541 261 541Q315 541 353 528Q391 515 414.5 491Q438 467 448.5 434.5Q459 402 459 363V359H390Q390 416 362.5 449Q335 482 261 482Q201 482 167.5 458.5Q134 435 134 390Q134 369 140 353Q146 337 161.5 325.5Q177 314 204.5 306.5Q232 299 275 296Q375 288 420 255.5Q465 223 465 150V145Q465 76 412.5 32.5Q360 -11 261 -11Q205 -11 166 4Q127 19 103 43Q79 67 68 97.5Q57 128 57 158V162H127Q127 140 133 119.5Q139 99 154.5 83Q170 67 196 57.5Q222 48 261 48Z" glyph-name="scaron" horiz-adv-x="522" unicode="&#353;" /><glyph d="M188 -147Q201 -154 219.5 -158Q238 -162 258 -162Q287 -162 301.5 -155.5Q316 -149 316 -131Q316 -114 299.5 -107Q283 -100 254 -100Q244 -100 234 -102Q230 -103 225 -103L206 -80L233 -10Q185 -6 151.5 10Q118 26 97 49.5Q76 73 66.5 101Q57 129 57 158V162H127Q127 140 133 119.5Q139 99 154.5 83Q170 67 196 57.5Q222 48 261 48Q326 48 359.5 74Q393 100 393 145Q393 172 385 189.5Q377 207 359.5 217.5Q342 228 314.5 234Q287 240 248 243Q194 247 158.5 258.5Q123 270 102 288Q81 306 72.5 330Q64 354 64 384V390Q64 459 115.5 500Q167 541 261 541Q315 541 353 528Q391 515 414.5 491Q438 467 448.5 434.5Q459 402 459 363V359H390Q390 416 362.5 449Q335 482 261 482Q201 482 167.5 458.5Q134 435 134 390Q134 369 140 353Q146 337 161.5 325.5Q177 314 204.5 306.5Q232 299 275 296Q375 288 420 255.5Q465 223 465 150V145Q465 79 417.5 37Q370 -5 281 -10L264 -56H268Q286 -56 304 -60Q322 -64 336.5 -73.5Q351 -83 359.5 -97.5Q368 -112 368 -133Q368 -175 339.5 -193Q311 -211 265 -211Q237 -211 212.5 -206Q188 -201 173 -191Z" glyph-name="scedilla" horiz-adv-x="522" unicode="&#351;" /><glyph d="M99 614 230 780H292L423 614H354L261 727L168 614ZM261 48Q326 48 359.5 74Q393 100 393 145Q393 172 385 189.5Q377 207 359.5 217.5Q342 228 314.5 234Q287 240 248 243Q194 247 158.5 258.5Q123 270 102 288Q81 306 72.5 330Q64 354 64 384V390Q64 459 115.5 500Q167 541 261 541Q315 541 353 528Q391 515 414.5 491Q438 467 448.5 434.5Q459 402 459 363V359H390Q390 416 362.5 449Q335 482 261 482Q201 482 167.5 458.5Q134 435 134 390Q134 369 140 353Q146 337 161.5 325.5Q177 314 204.5 306.5Q232 299 275 296Q375 288 420 255.5Q465 223 465 150V145Q465 76 412.5 32.5Q360 -11 261 -11Q205 -11 166 4Q127 19 103 43Q79 67 68 97.5Q57 128 57 158V162H127Q127 140 133 119.5Q139 99 154.5 83Q170 67 196 57.5Q222 48 261 48Z" glyph-name="scircumflex" horiz-adv-x="522" unicode="&#349;" /><glyph d="M302 -106Q302 -158 274.5 -186Q247 -214 197 -214V-178Q224 -178 241.5 -165.5Q259 -153 264 -124H220V-56H302ZM261 48Q326 48 359.5 74Q393 100 393 145Q393 172 385 189.5Q377 207 359.5 217.5Q342 228 314.5 234Q287 240 248 243Q194 247 158.5 258.5Q123 270 102 288Q81 306 72.5 330Q64 354 64 384V390Q64 459 115.5 500Q167 541 261 541Q315 541 353 528Q391 515 414.5 491Q438 467 448.5 434.5Q459 402 459 363V359H390Q390 416 362.5 449Q335 482 261 482Q201 482 167.5 458.5Q134 435 134 390Q134 369 140 353Q146 337 161.5 325.5Q177 314 204.5 306.5Q232 299 275 296Q375 288 420 255.5Q465 223 465 150V145Q465 76 412.5 32.5Q360 -11 261 -11Q205 -11 166 4Q127 19 103 43Q79 67 68 97.5Q57 128 57 158V162H127Q127 140 133 119.5Q139 99 154.5 83Q170 67 196 57.5Q222 48 261 48Z" glyph-name="scommaaccent" horiz-adv-x="522" unicode="&#537;" /><glyph d="M399 390Q399 417 390.5 435Q382 453 364 464.5Q346 476 318.5 481.5Q291 487 252 490H249Q183 490 148.5 463Q114 436 114 390Q114 363 122.5 344.5Q131 326 149 315Q167 304 194.5 298.5Q222 293 260 290H264Q330 290 364.5 317Q399 344 399 390ZM471 389Q471 295 380 260Q415 240 429 211.5Q443 183 443 146V140Q443 71 391 30Q339 -11 245 -11Q191 -11 153 2Q115 15 91.5 39Q68 63 57.5 95.5Q47 128 47 167V171H117Q117 143 123 120Q129 97 144 81Q159 65 183.5 56.5Q208 48 245 48Q305 48 338.5 72Q372 96 372 140Q372 161 366 177Q360 193 344.5 205Q329 217 302 225Q275 233 232 236Q132 244 86.5 277.5Q41 311 41 385V391Q41 436 64 469Q87 502 132 520Q97 539 83.5 568Q70 597 70 634V640Q70 709 121.5 750Q173 791 267 791Q321 791 359 778Q397 765 421 741Q445 717 455.5 684.5Q466 652 466 613V609H396Q396 637 390 660Q384 683 369 699Q354 715 329 723.5Q304 732 267 732Q207 732 174 708Q141 684 141 640Q141 619 147 603Q153 587 168.5 575Q184 563 211 555Q238 547 281 544Q381 536 426 502.5Q471 469 471 395Z" glyph-name="section" horiz-adv-x="513" unicode="&#167;" /><glyph d="M153 345H63V435H153ZM153 18Q153 -118 40 -118V-76Q71 -76 89 -59.5Q107 -43 110 0H63V90H153Z" glyph-name="semicolon" horiz-adv-x="216" unicode=";" /><glyph d="M195 345H105V435H195ZM195 18Q195 -118 82 -118V-76Q113 -76 131 -59.5Q149 -43 152 0H105V90H195Z" glyph-name="semicolon.T" horiz-adv-x="300" unicode="&#61829;" /><glyph d="M376 530H329L274 734L276 667V530H234V800H297L352 597L407 800H471V530H429V667L431 734ZM101 649Q56 655 38.5 673.5Q21 692 21 724V728Q21 763 44 784Q67 805 109 805Q158 805 177.5 782Q197 759 197 714V706H155Q155 738 145.5 752.5Q136 767 110 767H108Q63 767 63 731V728Q63 710 74 700Q85 690 117 686Q162 680 181 661.5Q200 643 200 609V605Q200 567 177 544.5Q154 522 109 522Q63 522 40.5 546.5Q18 571 18 617V621H60Q60 591 71 575.5Q82 560 109 560H111Q136 560 146.5 571Q157 582 157 602V604Q157 624 145 634Q133 644 101 649Z" glyph-name="servicemark" horiz-adv-x="523" unicode="&#8480;" /><glyph d="M58 780H550V736L251 0H174L466 716L356 715H123V500H58Z" glyph-name="seven" horiz-adv-x="600" unicode="7" /><glyph d="M23 190H279V153L135 -200H72L211 138L160 137H76V50H23Z" glyph-name="seven.inf" horiz-adv-x="300" unicode="&#58744;" /><glyph d="M952 193Q930 193 911.5 181.5Q893 170 883 150V130Q883 89 902.5 67.5Q922 46 949 46H952Q981 46 1000 64Q1019 82 1019 116V125Q1019 159 1001.5 176Q984 193 955 193ZM532 0V52H625V315L549 264L520 308L642 391H685V52H777V0ZM23 780H279V743L135 390H72L211 728L160 727H76V640H23ZM80 0 656 780H720L144 0ZM1060 343Q1018 343 983 329.5Q948 316 925 285Q903 258 893 220Q907 231 925 238Q943 245 966 245Q1016 245 1047.5 213.5Q1079 182 1079 122V117Q1079 57 1045.5 25Q1012 -7 951 -7Q891 -7 857 31Q823 69 823 134V140Q823 187 835 232Q847 277 878 319Q910 363 958 379.5Q1006 396 1060 396Z" glyph-name="sevensixteenths" horiz-adv-x="1100" unicode="&#61976;" /><glyph d="M306 426Q246 426 199.5 396Q153 366 127 316Q126 305 126 293Q126 281 126 270V260Q126 212 139.5 173.5Q153 135 177 108Q201 81 233 67Q265 53 301 53H307Q387 53 434.5 100Q482 147 482 232V249Q482 335 435.5 380.5Q389 426 312 426ZM517 727Q478 727 438 719Q398 711 359 694.5Q320 678 285 652Q250 626 222 589Q192 550 173 506.5Q154 463 143 418Q175 450 219 470Q263 490 319 490Q369 490 412 475Q455 460 486.5 429.5Q518 399 535.5 353Q553 307 553 245V235Q553 173 535 127Q517 81 484.5 50.5Q452 20 406 4.5Q360 -11 304 -11Q250 -11 204.5 7Q159 25 125.5 60Q92 95 73.5 146Q55 197 55 263V274Q55 367 79 457.5Q103 548 165 631Q197 674 238.5 704.5Q280 735 326 754Q372 773 421 782Q470 791 517 791Z" glyph-name="six" horiz-adv-x="600" unicode="6" /><glyph d="M152 -7Q130 -7 111.5 -18Q93 -29 83 -49V-70Q83 -111 102.5 -132.5Q122 -154 149 -154H152Q181 -154 200 -136Q219 -118 219 -84V-75Q219 -41 201.5 -24Q184 -7 155 -7ZM260 143Q218 143 183 129.5Q148 116 125 85Q103 58 93 20Q107 31 125 38Q143 45 166 45Q216 45 247.5 13.5Q279 -18 279 -78V-83Q279 -143 245.5 -175Q212 -207 151 -207Q91 -207 57 -169Q23 -131 23 -66V-60Q23 -13 35 32Q47 77 78 119Q110 163 158 179.5Q206 196 260 196Z" glyph-name="six.inf" horiz-adv-x="300" unicode="&#58743;" /><glyph glyph-name="sixperemspace" horiz-adv-x="167" unicode="&#8198;" /><glyph d="M85 -120H15L245 840H315Z" glyph-name="slash" horiz-adv-x="330" unicode="/" /><glyph d="M30 0 222 780H292L100 0Z" glyph-name="slash.cap" horiz-adv-x="321" unicode="&#58465;" /><glyph glyph-name="space" horiz-adv-x="200" unicode=" " /><glyph d="M451 790Q463 771 486 742.5Q509 714 540 682Q571 650 607.5 618Q644 586 684 560Q717 539 746.5 515.5Q776 492 798.5 464.5Q821 437 834.5 405Q848 373 848 334Q848 297 834.5 265.5Q821 234 797 210.5Q773 187 741 173.5Q709 160 672 160Q635 160 604 173.5Q573 187 548 209.5Q523 232 504 261Q485 290 472 321L469 320Q473 269 479.5 227Q486 185 495.5 147Q505 109 518.5 73Q532 37 551 0H349Q368 37 381.5 73Q395 109 404.5 147Q414 185 420.5 227Q427 269 431 320L428 321Q415 290 396 261Q377 232 352 209.5Q327 187 296 173.5Q265 160 228 160Q191 160 159 173.5Q127 187 103 210.5Q79 234 65.5 265.5Q52 297 52 334Q52 373 65.5 405Q79 437 101.5 464.5Q124 492 153.5 515.5Q183 539 216 560Q256 586 292.5 618Q329 650 360 682Q391 714 414 742.5Q437 771 449 790Z" glyph-name="spade" horiz-adv-x="900" unicode="&#9824;" /><glyph d="M208 186 412 390 208 594 256 642 460 438 664 642 712 594 508 390 712 186 664 138 460 342 256 138ZM134 716V64H786V716ZM70 0V780H850V0Z" glyph-name="squaremultiply" horiz-adv-x="920" unicode="&#8864;" /><glyph d="M328 726Q256 726 222.5 684Q189 642 189 570Q189 534 195.5 495.5Q202 457 212 416H413V351H230Q247 285 263.5 214Q280 143 283 66H544V0H56V66H221Q215 144 194.5 213Q174 282 154 351H56V416H136Q127 454 121.5 493.5Q116 533 116 577Q116 624 129.5 663.5Q143 703 169.5 731.5Q196 760 235.5 775.5Q275 791 328 791Q389 791 431 770Q473 749 499 711.5Q525 674 536.5 623Q548 572 548 512V500H477Q477 551 468.5 593Q460 635 442 664.5Q424 694 395.5 710Q367 726 328 726Z" glyph-name="sterling" horiz-adv-x="600" unicode="&#163;" /><glyph d="M354 530V467H185V156Q185 93 211 72.5Q237 52 287 52Q304 52 321 55Q338 58 344 61V0Q338 -2 320 -6.5Q302 -11 270 -11Q236 -11 207.5 -2.5Q179 6 158.5 25Q138 44 126.5 74Q115 104 115 147V467H31V530H115V680H185V530Z" glyph-name="t" horiz-adv-x="400" unicode="t" /><glyph d="M354 530V467H185V294H314V236H185V156Q185 93 211 72.5Q237 52 287 52Q304 52 321 55Q338 58 344 61V0Q338 -2 320 -6.5Q302 -11 270 -11Q236 -11 207.5 -2.5Q179 6 158.5 25Q138 44 126.5 74Q115 104 115 147V236H35V294H115V467H31V530H115V680H185V530Z" glyph-name="tbar" horiz-adv-x="400" unicode="&#359;" /><glyph d="M318 800 299 614H259V800ZM354 530V467H185V156Q185 93 211 72.5Q237 52 287 52Q304 52 321 55Q338 58 344 61V0Q338 -2 320 -6.5Q302 -11 270 -11Q236 -11 207.5 -2.5Q179 6 158.5 25Q138 44 126.5 74Q115 104 115 147V467H31V530H115V680H185V530Z" glyph-name="tcaron" horiz-adv-x="400" unicode="&#357;" /><glyph d="M273 -106Q273 -158 245.5 -186Q218 -214 168 -214V-178Q195 -178 212.5 -165.5Q230 -153 235 -124H191V-56H273ZM354 530V467H185V156Q185 93 211 72.5Q237 52 287 52Q304 52 321 55Q338 58 344 61V0Q338 -2 320 -6.5Q302 -11 270 -11Q236 -11 207.5 -2.5Q179 6 158.5 25Q138 44 126.5 74Q115 104 115 147V467H31V530H115V680H185V530Z" glyph-name="tcommaaccent" horiz-adv-x="400" unicode="&#355;" /><glyph d="M190 740H110V810H190ZM354 530V467H185V156Q185 93 211 72.5Q237 52 287 52Q304 52 321 55Q338 58 344 61V0Q338 -2 320 -6.5Q302 -11 270 -11Q236 -11 207.5 -2.5Q179 6 158.5 25Q138 44 126.5 74Q115 104 115 147V467H31V530H115V680H185V530Z" glyph-name="tdotaccent" horiz-adv-x="400" unicode="&#7787;" /><glyph glyph-name="thinspace" horiz-adv-x="150" unicode="&#8201;" /><glyph d="M1252 193Q1230 193 1211.5 181.5Q1193 170 1183 150V130Q1183 89 1202.5 67.5Q1222 46 1249 46H1252Q1281 46 1300 64Q1319 82 1319 116V125Q1319 159 1301.5 176Q1284 193 1255 193ZM832 0V52H925V315L849 264L820 308L942 391H985V52H1077V0ZM32 390V442H125V705L49 654L20 698L142 781H185V442H277V390ZM380 0 956 780H1020L444 0ZM382 515Q382 473 400 454.5Q418 436 447 436H452Q478 436 498 450.5Q518 465 518 497V504Q518 533 500.5 548Q483 563 455 563H400V615H453Q480 615 497.5 628.5Q515 642 515 671V675Q515 701 497.5 717Q480 733 452 733H447Q416 733 400 714Q384 695 384 650H325V661Q325 722 355 754Q385 786 450 786Q483 786 506.5 777.5Q530 769 545.5 754.5Q561 740 568 721Q575 702 575 682V674Q575 641 560.5 620.5Q546 600 524 589Q547 578 562 556.5Q577 535 577 501V492Q577 471 569 451.5Q561 432 545 417Q529 402 505 392.5Q481 383 450 383Q385 383 353.5 416Q322 449 322 508V515ZM1360 343Q1318 343 1283 329.5Q1248 316 1225 285Q1203 258 1193 220Q1207 231 1225 238Q1243 245 1266 245Q1316 245 1347.5 213.5Q1379 182 1379 122V117Q1379 57 1345.5 25Q1312 -7 1251 -7Q1191 -7 1157 31Q1123 69 1123 134V140Q1123 187 1135 232Q1147 277 1178 319Q1210 363 1258 379.5Q1306 396 1360 396Z" glyph-name="thirteensixteenths" horiz-adv-x="1400" unicode="&#61985;" /><glyph d="M136 134Q144 121 155.5 106.5Q167 92 183.5 80Q200 68 221.5 60Q243 52 270 52Q345 52 381 106Q417 160 417 253V277Q417 370 381 424Q345 478 270 478Q243 478 221.5 470Q200 462 183.5 450Q167 438 155.5 423.5Q144 409 136 396ZM135 800V468Q156 499 192.5 520Q229 541 286 541Q340 541 378.5 520.5Q417 500 441.5 464Q466 428 477.5 380Q489 332 489 277V253Q489 198 477.5 150Q466 102 441.5 66Q417 30 378.5 9.5Q340 -11 286 -11Q229 -11 192.5 10Q156 31 135 62V-200H65V800Z" glyph-name="thorn" horiz-adv-x="537" unicode="&#254;" /><glyph d="M122 250Q122 147 168 100Q214 53 295 53H305Q338 53 369.5 62Q401 71 425 89.5Q449 108 463.5 136.5Q478 165 478 203V217Q478 254 465.5 282Q453 310 430.5 329Q408 348 378 357Q348 366 314 366H200V430H310Q344 430 374 438Q404 446 426 463Q448 480 460.5 506.5Q473 533 473 569V576Q473 645 426.5 686Q380 727 305 727H295Q210 727 168.5 679Q127 631 127 520H56V544Q56 662 114.5 726.5Q173 791 300 791Q359 791 404.5 776Q450 761 481 733.5Q512 706 528 668Q544 630 544 585V570Q544 501 510.5 459Q477 417 423 398Q479 378 514 333Q549 288 549 216V200Q549 153 531 114.5Q513 76 480 48Q447 20 401 4.5Q355 -11 300 -11Q236 -11 189 6.5Q142 24 111.5 56.5Q81 89 66 135Q51 181 51 239V250Z" glyph-name="three" horiz-adv-x="600" unicode="3" /><glyph d="M82 -75Q82 -117 100 -135.5Q118 -154 147 -154H152Q178 -154 198 -139.5Q218 -125 218 -93V-86Q218 -57 200.5 -42Q183 -27 155 -27H100V25H153Q180 25 197.5 38.5Q215 52 215 81V85Q215 111 197.5 127Q180 143 152 143H147Q116 143 100 124Q84 105 84 60H25V71Q25 132 55 164Q85 196 150 196Q183 196 206.5 187.5Q230 179 245.5 164.5Q261 150 268 131Q275 112 275 92V84Q275 51 260.5 30.5Q246 10 224 -1Q247 -12 262 -33.5Q277 -55 277 -89V-98Q277 -119 269 -138.5Q261 -158 245 -173Q229 -188 205 -197.5Q181 -207 150 -207Q85 -207 53.5 -174Q22 -141 22 -82V-75Z" glyph-name="three.inf" horiz-adv-x="300" unicode="&#58740;" /><glyph glyph-name="threeperemspace" horiz-adv-x="333" unicode="&#8196;" /><glyph d="M40 382H710V318H40Z" glyph-name="threequarteremdash" horiz-adv-x="750" unicode="&#58482;" /><glyph d="M40 422H710V358H40Z" glyph-name="threequarteremdash.cap" horiz-adv-x="750" unicode="&#58501;" /><glyph d="M580 145 614 146H673V254L674 293ZM80 0 656 780H720L144 0ZM82 515Q82 473 100 454.5Q118 436 147 436H152Q178 436 198 450.5Q218 465 218 497V504Q218 533 200.5 548Q183 563 155 563H100V615H153Q180 615 197.5 628.5Q215 642 215 671V675Q215 701 197.5 717Q180 733 152 733H147Q116 733 100 714Q84 695 84 650H25V661Q25 722 55 754Q85 786 150 786Q183 786 206.5 777.5Q230 769 245.5 754.5Q261 740 268 721Q275 702 275 682V674Q275 641 260.5 620.5Q246 600 224 589Q247 578 262 556.5Q277 535 277 501V492Q277 471 269 451.5Q261 432 245 417Q229 402 205 392.5Q181 383 150 383Q85 383 53.5 416Q22 449 22 508V515ZM673 0V93H514V134L675 390H733V146H785V93H733V0Z" glyph-name="threequarters" horiz-adv-x="800" unicode="&#190;" /><glyph d="M952 193Q930 193 911.5 181.5Q893 170 883 150V130Q883 89 902.5 67.5Q922 46 949 46H952Q981 46 1000 64Q1019 82 1019 116V125Q1019 159 1001.5 176Q984 193 955 193ZM532 0V52H625V315L549 264L520 308L642 391H685V52H777V0ZM80 0 656 780H720L144 0ZM82 515Q82 473 100 454.5Q118 436 147 436H152Q178 436 198 450.5Q218 465 218 497V504Q218 533 200.5 548Q183 563 155 563H100V615H153Q180 615 197.5 628.5Q215 642 215 671V675Q215 701 197.5 717Q180 733 152 733H147Q116 733 100 714Q84 695 84 650H25V661Q25 722 55 754Q85 786 150 786Q183 786 206.5 777.5Q230 769 245.5 754.5Q261 740 268 721Q275 702 275 682V674Q275 641 260.5 620.5Q246 600 224 589Q247 578 262 556.5Q277 535 277 501V492Q277 471 269 451.5Q261 432 245 417Q229 402 205 392.5Q181 383 150 383Q85 383 53.5 416Q22 449 22 508V515ZM1060 343Q1018 343 983 329.5Q948 316 925 285Q903 258 893 220Q907 231 925 238Q943 245 966 245Q1016 245 1047.5 213.5Q1079 182 1079 122V117Q1079 57 1045.5 25Q1012 -7 951 -7Q891 -7 857 31Q823 69 823 134V140Q823 187 835 232Q847 277 878 319Q910 363 958 379.5Q1006 396 1060 396Z" glyph-name="threesixteenths" horiz-adv-x="1100" unicode="&#61974;" /><glyph d="M82 515Q82 473 100 454.5Q118 436 147 436H152Q178 436 198 450.5Q218 465 218 497V504Q218 533 200.5 548Q183 563 155 563H100V615H153Q180 615 197.5 628.5Q215 642 215 671V675Q215 701 197.5 717Q180 733 152 733H147Q116 733 100 714Q84 695 84 650H25V661Q25 722 55 754Q85 786 150 786Q183 786 206.5 777.5Q230 769 245.5 754.5Q261 740 268 721Q275 702 275 682V674Q275 641 260.5 620.5Q246 600 224 589Q247 578 262 556.5Q277 535 277 501V492Q277 471 269 451.5Q261 432 245 417Q229 402 205 392.5Q181 383 150 383Q85 383 53.5 416Q22 449 22 508V515Z" glyph-name="threesuperior" horiz-adv-x="300" unicode="&#179;" /><glyph d="M406 746Q406 692 383.5 667.5Q361 643 325 643Q302 643 282.5 651.5Q263 660 246.5 670Q230 680 215 688.5Q200 697 185 697Q170 697 159.5 688Q149 679 149 654H94Q94 708 116.5 732.5Q139 757 175 757Q198 757 217.5 748.5Q237 740 253.5 730Q270 720 285 711.5Q300 703 315 703Q330 703 340.5 712Q351 721 351 746Z" glyph-name="tilde" horiz-adv-x="500" unicode="&#732;" /><glyph d="M402 936Q402 887 380 865Q358 843 323 843Q300 843 281 851.5Q262 860 245.5 870Q229 880 214.5 888.5Q200 897 185 897Q170 897 159 888Q148 879 148 854H98Q98 903 120 925Q142 947 177 947Q200 947 219 938.5Q238 930 254.5 920Q271 910 285.5 901.5Q300 893 315 893Q330 893 341 902Q352 911 352 936Z" glyph-name="tilde.cap" horiz-adv-x="500" unicode="&#58404;" /><glyph d="M376 530H329L274 734L276 667V530H234V800H297L352 597L407 800H471V530H429V667L431 734ZM131 530H89V762H19V800H201V762H131Z" glyph-name="trademark" horiz-adv-x="523" unicode="&#8482;" /><glyph d="M64 780H136L465 64L794 780H866L500 -11H430Z" glyph-name="triagdn" horiz-adv-x="930" unicode="&#9660;" /><glyph d="M850 791V719L134 390L850 61V-11L59 355V425Z" glyph-name="triaglf" horiz-adv-x="930" unicode="&#9668;" /><glyph d="M871 355 80 -11V61L796 390L80 719V791L871 425Z" glyph-name="triagrt" horiz-adv-x="930" unicode="&#9658;" /><glyph d="M866 0H794L465 716L136 0H64L430 791H500Z" glyph-name="triagup" horiz-adv-x="930" unicode="&#9650;" /><glyph d="M265 780 255 511H205L195 780ZM144 780 133 511H84L69 780ZM391 780 376 511H326L316 780Z" glyph-name="tripleprime" horiz-adv-x="460" unicode="&#8244;" /><glyph d="M544 65V0H56V45L393 403Q415 426 430.5 446Q446 466 455.5 484.5Q465 503 469 522Q473 541 473 562V572Q473 644 426 685.5Q379 727 303 727H297Q212 727 169.5 679Q127 631 127 520H56V544Q56 662 114.5 726.5Q173 791 300 791Q359 791 404.5 776Q450 761 481 733.5Q512 706 528 667.5Q544 629 544 583V571Q544 541 539.5 516Q535 491 524.5 468Q514 445 496.5 421.5Q479 398 453 370L165 64L240 65Z" glyph-name="two" horiz-adv-x="600" unicode="2" /><glyph d="M275 -200H25V-163L183 9Q200 27 207.5 41Q215 55 215 74V79Q215 110 197.5 126.5Q180 143 151 143H148Q117 143 100.5 124Q84 105 84 60H25V71Q25 132 55 164Q85 196 150 196Q183 196 206.5 187.5Q230 179 245.5 164Q261 149 268 129.5Q275 110 275 89V82Q275 50 264.5 28.5Q254 7 230 -19L111 -148H275Z" glyph-name="two.inf" horiz-adv-x="300" unicode="&#58739;" /><glyph d="M275 390H25V427L183 599Q200 617 207.5 631Q215 645 215 664V669Q215 700 197.5 716.5Q180 733 151 733H148Q117 733 100.5 714Q84 695 84 650H25V661Q25 722 55 754Q85 786 150 786Q183 786 206.5 777.5Q230 769 245.5 754Q261 739 268 719.5Q275 700 275 679V672Q275 640 264.5 618.5Q254 597 230 571L111 442H275Z" glyph-name="twosuperior" horiz-adv-x="300" unicode="&#178;" /><glyph d="M130 530V169Q130 109 161 80.5Q192 52 245 52Q276 52 300 60Q324 68 341.5 80Q359 92 371.5 106.5Q384 121 392 134V530H462V150L468 0H410L399 74Q376 39 333 14Q290 -11 222 -11Q182 -11 152 1.5Q122 14 101.5 36.5Q81 59 71 90.5Q61 122 61 159V530Z" glyph-name="u" horiz-adv-x="528" unicode="u" /><glyph d="M391 780 297 614H225L315 780ZM130 530V169Q130 109 161 80.5Q192 52 245 52Q276 52 300 60Q324 68 341.5 80Q359 92 371.5 106.5Q384 121 392 134V530H462V150L468 0H410L399 74Q376 39 333 14Q290 -11 222 -11Q182 -11 152 1.5Q122 14 101.5 36.5Q81 59 71 90.5Q61 122 61 159V530Z" glyph-name="uacute" horiz-adv-x="528" unicode="&#250;" /><glyph d="M261 603Q218 603 187.5 616Q157 629 137.5 652.5Q118 676 109 708.5Q100 741 100 780H157Q157 726 181 694Q205 662 261 662Q317 662 341 694Q365 726 365 780H422Q423 702 384.5 652.5Q346 603 261 603ZM130 530V169Q130 109 161 80.5Q192 52 245 52Q276 52 300 60Q324 68 341.5 80Q359 92 371.5 106.5Q384 121 392 134V530H462V150L468 0H410L399 74Q376 39 333 14Q290 -11 222 -11Q182 -11 152 1.5Q122 14 101.5 36.5Q81 59 71 90.5Q61 122 61 159V530Z" glyph-name="ubreve" horiz-adv-x="528" unicode="&#365;" /><glyph d="M99 614 230 780H292L423 614H354L261 727L168 614ZM130 530V169Q130 109 161 80.5Q192 52 245 52Q276 52 300 60Q324 68 341.5 80Q359 92 371.5 106.5Q384 121 392 134V530H462V150L468 0H410L399 74Q376 39 333 14Q290 -11 222 -11Q182 -11 152 1.5Q122 14 101.5 36.5Q81 59 71 90.5Q61 122 61 159V530Z" glyph-name="ucircumflex" horiz-adv-x="528" unicode="&#251;" /><glyph d="M221 657H134V745H221ZM388 657H301V745H388ZM130 530V169Q130 109 161 80.5Q192 52 245 52Q276 52 300 60Q324 68 341.5 80Q359 92 371.5 106.5Q384 121 392 134V530H462V150L468 0H410L399 74Q376 39 333 14Q290 -11 222 -11Q182 -11 152 1.5Q122 14 101.5 36.5Q81 59 71 90.5Q61 122 61 159V530Z" glyph-name="udieresis" horiz-adv-x="528" unicode="&#252;" /><glyph d="M207 780 297 614H225L131 780ZM130 530V169Q130 109 161 80.5Q192 52 245 52Q276 52 300 60Q324 68 341.5 80Q359 92 371.5 106.5Q384 121 392 134V530H462V150L468 0H410L399 74Q376 39 333 14Q290 -11 222 -11Q182 -11 152 1.5Q122 14 101.5 36.5Q81 59 71 90.5Q61 122 61 159V530Z" glyph-name="ugrave" horiz-adv-x="528" unicode="&#249;" /><glyph d="M319 780 231 614H168L252 780ZM449 780 354 614H291L381 780ZM130 530V169Q130 109 161 80.5Q192 52 245 52Q276 52 300 60Q324 68 341.5 80Q359 92 371.5 106.5Q384 121 392 134V530H462V150L468 0H410L399 74Q376 39 333 14Q290 -11 222 -11Q182 -11 152 1.5Q122 14 101.5 36.5Q81 59 71 90.5Q61 122 61 159V530Z" glyph-name="uhungarumlaut" horiz-adv-x="528" unicode="&#369;" /><glyph d="M144 730H378V664H144ZM130 530V169Q130 109 161 80.5Q192 52 245 52Q276 52 300 60Q324 68 341.5 80Q359 92 371.5 106.5Q384 121 392 134V530H462V150L468 0H410L399 74Q376 39 333 14Q290 -11 222 -11Q182 -11 152 1.5Q122 14 101.5 36.5Q81 59 71 90.5Q61 122 61 159V530Z" glyph-name="umacron" horiz-adv-x="528" unicode="&#363;" /><glyph d="M48 -71H272V-135H48Z" glyph-name="underscore" horiz-adv-x="320" unicode="_" /><glyph d="M48 -71H552V-135H48Z" glyph-name="underscoremonospace" horiz-adv-x="600" unicode="&#65343;" /><glyph d="M40 382H289V318H40Z" glyph-name="uni00AD" horiz-adv-x="329" unicode="&#173;" /><glyph d="M40 382H1160V318H40Z" glyph-name="uni2015" horiz-adv-x="1200" unicode="&#8213;" /><glyph d="M40 422H1160V358H40Z" glyph-name="uni2015.cap" horiz-adv-x="1200" unicode="&#58504;" /><glyph d="M214 666Q214 697 199.5 715Q185 733 151 733H148Q114 733 100 715Q86 697 86 666V503Q86 473 100 454.5Q114 436 148 436H151Q185 436 199.5 454.5Q214 473 214 503ZM274 501Q274 450 244 416.5Q214 383 150 383Q86 383 56 416.5Q26 450 26 501V669Q26 720 56 753Q86 786 150 786Q214 786 244 753Q274 720 274 669Z" glyph-name="uni2070" horiz-adv-x="300" unicode="&#8304;" /><glyph d="M80 535 114 536H173V644L174 683ZM173 390V483H14V524L175 780H233V536H285V483H233V390Z" glyph-name="uni2074" horiz-adv-x="300" unicode="&#8308;" /><glyph d="M82 515Q82 473 100 454.5Q118 436 147 436H152Q178 436 198 453Q218 470 218 508V516Q218 554 197.5 571Q177 588 149 588H146Q125 588 105 577.5Q85 567 76 547L25 564L34 780H272V727H87L82 622Q97 630 115 635Q133 640 153 640Q210 640 243.5 607.5Q277 575 277 516V508Q277 449 243.5 416Q210 383 150 383Q85 383 53.5 416Q22 449 22 508V515Z" glyph-name="uni2075" horiz-adv-x="300" unicode="&#8309;" /><glyph d="M152 583Q130 583 111.5 571.5Q93 560 83 540V520Q83 479 102.5 457.5Q122 436 149 436H152Q181 436 200 454Q219 472 219 506V515Q219 549 201.5 566Q184 583 155 583ZM260 733Q218 733 183 719.5Q148 706 125 675Q103 648 93 610Q107 621 125 628Q143 635 166 635Q216 635 247.5 603.5Q279 572 279 512V507Q279 447 245.5 415Q212 383 151 383Q91 383 57 421Q23 459 23 524V530Q23 577 35 622Q47 667 78 709Q110 753 158 769.5Q206 786 260 786Z" glyph-name="uni2076" horiz-adv-x="300" unicode="&#8310;" /><glyph d="M23 780H279V743L135 390H72L211 728L160 727H76V640H23Z" glyph-name="uni2077" horiz-adv-x="300" unicode="&#8311;" /><glyph d="M147 733Q119 733 101.5 717.5Q84 702 84 676V671Q84 642 101.5 628.5Q119 615 147 615H153Q180 615 197.5 628.5Q215 642 215 671V676Q215 702 197.5 717.5Q180 733 152 733ZM145 563Q117 563 99.5 547.5Q82 532 82 503V497Q82 465 101.5 450.5Q121 436 147 436H152Q178 436 198 450.5Q218 465 218 497V503Q218 532 200.5 547.5Q183 563 155 563ZM150 383Q118 383 94 392.5Q70 402 54 417Q38 432 30 451.5Q22 471 22 492V501Q22 535 37.5 556.5Q53 578 76 589Q53 600 39 620.5Q25 641 25 674V683Q25 703 32 721.5Q39 740 54.5 754.5Q70 769 93.5 777.5Q117 786 150 786Q183 786 206.5 777.5Q230 769 245.5 754.5Q261 740 268 721.5Q275 703 275 683V674Q275 641 260.5 620.5Q246 600 223 589Q246 578 261.5 556.5Q277 535 277 501V492Q277 471 269 451.5Q261 432 245 417Q229 402 205 392.5Q181 383 150 383Z" glyph-name="uni2078" horiz-adv-x="300" unicode="&#8312;" /><glyph d="M148 587Q169 587 187.5 598Q206 609 217 629V650Q217 690 197.5 711.5Q178 733 150 733H147Q118 733 99.5 715Q81 697 81 664V655Q81 620 98.5 603.5Q116 587 145 587ZM39 436Q81 437 116 450Q151 463 175 494Q186 508 194 525Q202 542 207 560Q193 549 174.5 542Q156 535 133 535Q83 535 52 566Q21 597 21 657V662Q21 722 54.5 754Q88 786 149 786Q208 786 242 748.5Q276 711 276 645V640Q276 593 264.5 547.5Q253 502 221 460Q189 417 141 400Q93 383 39 383Z" glyph-name="uni2079" horiz-adv-x="300" unicode="&#8313;" /><glyph d="M176 713V611H278V558H176V457H123V558H22V611H123V713Z" glyph-name="uni207A" horiz-adv-x="300" unicode="&#8314;" /><glyph d="M22 611H278V558H22Z" glyph-name="uni207B" horiz-adv-x="300" unicode="&#8315;" /><glyph d="M22 664H278V611H22ZM22 559H278V505H22Z" glyph-name="uni207C" horiz-adv-x="300" unicode="&#8316;" /><glyph d="M26 590Q26 652 43 699.5Q60 747 86 780H148Q125 746 105 697Q85 648 85 590V580Q85 522 105 473Q125 424 148 390H86Q60 422 43 469.5Q26 517 26 580Z" glyph-name="uni207D" horiz-adv-x="171" unicode="&#8317;" /><glyph d="M145 580Q145 517 128 469.5Q111 422 85 390H24Q47 424 66.5 473Q86 522 86 580V590Q86 648 66.5 697Q47 746 24 780H85Q111 747 128 699.5Q145 652 145 590Z" glyph-name="uni207E" horiz-adv-x="171" unicode="&#8318;" /><glyph d="M214 276Q214 307 199.5 325Q185 343 151 343H148Q114 343 100 325Q86 307 86 276V113Q86 83 100 64.5Q114 46 148 46H151Q185 46 199.5 64.5Q214 83 214 113ZM274 111Q274 60 244 26.5Q214 -7 150 -7Q86 -7 56 26.5Q26 60 26 111V279Q26 330 56 363Q86 396 150 396Q214 396 244 363Q274 330 274 279Z" glyph-name="uni2080" horiz-adv-x="300" unicode="&#8320;" /><glyph d="M32 0V52H125V315L49 264L20 308L142 391H185V52H277V0Z" glyph-name="uni2081" horiz-adv-x="300" unicode="&#8321;" /><glyph d="M275 0H25V37L183 209Q200 227 207.5 241Q215 255 215 274V279Q215 310 197.5 326.5Q180 343 151 343H148Q117 343 100.5 324Q84 305 84 260H25V271Q25 332 55 364Q85 396 150 396Q183 396 206.5 387.5Q230 379 245.5 364Q261 349 268 329.5Q275 310 275 289V282Q275 250 264.5 228.5Q254 207 230 181L111 52H275Z" glyph-name="uni2082" horiz-adv-x="300" unicode="&#8322;" /><glyph d="M82 125Q82 83 100 64.5Q118 46 147 46H152Q178 46 198 60.5Q218 75 218 107V114Q218 143 200.5 158Q183 173 155 173H100V225H153Q180 225 197.5 238.5Q215 252 215 281V285Q215 311 197.5 327Q180 343 152 343H147Q116 343 100 324Q84 305 84 260H25V271Q25 332 55 364Q85 396 150 396Q183 396 206.5 387.5Q230 379 245.5 364.5Q261 350 268 331Q275 312 275 292V284Q275 251 260.5 230.5Q246 210 224 199Q247 188 262 166.5Q277 145 277 111V102Q277 81 269 61.5Q261 42 245 27Q229 12 205 2.5Q181 -7 150 -7Q85 -7 53.5 26Q22 59 22 118V125Z" glyph-name="uni2083" horiz-adv-x="300" unicode="&#8323;" /><glyph d="M80 145 114 146H173V254L174 293ZM173 0V93H14V134L175 390H233V146H285V93H233V0Z" glyph-name="uni2084" horiz-adv-x="300" unicode="&#8324;" /><glyph d="M82 125Q82 83 100 64.5Q118 46 147 46H152Q178 46 198 63Q218 80 218 118V126Q218 164 197.5 181Q177 198 149 198H146Q125 198 105 187.5Q85 177 76 157L25 174L34 390H272V337H87L82 232Q97 240 115 245Q133 250 153 250Q210 250 243.5 217.5Q277 185 277 126V118Q277 59 243.5 26Q210 -7 150 -7Q85 -7 53.5 26Q22 59 22 118V125Z" glyph-name="uni2085" horiz-adv-x="300" unicode="&#8325;" /><glyph d="M152 193Q130 193 111.5 181.5Q93 170 83 150V130Q83 89 102.5 67.5Q122 46 149 46H152Q181 46 200 64Q219 82 219 116V125Q219 159 201.5 176Q184 193 155 193ZM260 343Q218 343 183 329.5Q148 316 125 285Q103 258 93 220Q107 231 125 238Q143 245 166 245Q216 245 247.5 213.5Q279 182 279 122V117Q279 57 245.5 25Q212 -7 151 -7Q91 -7 57 31Q23 69 23 134V140Q23 187 35 232Q47 277 78 319Q110 363 158 379.5Q206 396 260 396Z" glyph-name="uni2086" horiz-adv-x="300" unicode="&#8326;" /><glyph d="M23 390H279V353L135 0H72L211 338L160 337H76V250H23Z" glyph-name="uni2087" horiz-adv-x="300" unicode="&#8327;" /><glyph d="M147 343Q119 343 101.5 327.5Q84 312 84 286V281Q84 252 101.5 238.5Q119 225 147 225H153Q180 225 197.5 238.5Q215 252 215 281V286Q215 312 197.5 327.5Q180 343 152 343ZM145 173Q117 173 99.5 157.5Q82 142 82 113V107Q82 75 101.5 60.5Q121 46 147 46H152Q178 46 198 60.5Q218 75 218 107V113Q218 142 200.5 157.5Q183 173 155 173ZM150 -7Q118 -7 94 2.5Q70 12 54 27Q38 42 30 61.5Q22 81 22 102V111Q22 145 37.5 166.5Q53 188 76 199Q53 210 39 230.5Q25 251 25 284V293Q25 313 32 331.5Q39 350 54.5 364.5Q70 379 93.5 387.5Q117 396 150 396Q183 396 206.5 387.5Q230 379 245.5 364.5Q261 350 268 331.5Q275 313 275 293V284Q275 251 260.5 230.5Q246 210 223 199Q246 188 261.5 166.5Q277 145 277 111V102Q277 81 269 61.5Q261 42 245 27Q229 12 205 2.5Q181 -7 150 -7Z" glyph-name="uni2088" horiz-adv-x="300" unicode="&#8328;" /><glyph d="M148 197Q169 197 187.5 208Q206 219 217 239V260Q217 300 197.5 321.5Q178 343 150 343H147Q118 343 99.5 325Q81 307 81 274V265Q81 230 98.5 213.5Q116 197 145 197ZM39 46Q81 47 116 60Q151 73 175 104Q186 118 194 135Q202 152 207 170Q193 159 174.5 152Q156 145 133 145Q83 145 52 176Q21 207 21 267V272Q21 332 54.5 364Q88 396 149 396Q208 396 242 358.5Q276 321 276 255V250Q276 203 264.5 157.5Q253 112 221 70Q189 27 141 10Q93 -7 39 -7Z" glyph-name="uni2089" horiz-adv-x="300" unicode="&#8329;" /><glyph d="M176 323V221H278V168H176V67H123V168H22V221H123V323Z" glyph-name="uni208A" horiz-adv-x="300" unicode="&#8330;" /><glyph d="M22 221H278V168H22Z" glyph-name="uni208B" horiz-adv-x="300" unicode="&#8331;" /><glyph d="M22 274H278V221H22ZM22 169H278V115H22Z" glyph-name="uni208C" horiz-adv-x="300" unicode="&#8332;" /><glyph d="M26 200Q26 262 43 309.5Q60 357 86 390H148Q125 356 105 307Q85 258 85 200V190Q85 132 105 83Q125 34 148 0H86Q60 32 43 79.5Q26 127 26 190Z" glyph-name="uni208D" horiz-adv-x="171" unicode="&#8333;" /><glyph d="M145 190Q145 127 128 79.5Q111 32 85 0H24Q47 34 66.5 83Q86 132 86 190V200Q86 258 66.5 307Q47 356 24 390H85Q111 357 128 309.5Q145 262 145 200Z" glyph-name="uni208E" horiz-adv-x="171" unicode="&#8334;" /><glyph d="M32 390V442H125V705L49 654L20 698L142 781H185V442H277V390ZM80 0 656 780H720L144 0ZM582 125Q582 83 600 64.5Q618 46 647 46H652Q678 46 698 60.5Q718 75 718 107V114Q718 143 700.5 158Q683 173 655 173H600V225H653Q680 225 697.5 238.5Q715 252 715 281V285Q715 311 697.5 327Q680 343 652 343H647Q616 343 600 324Q584 305 584 260H525V271Q525 332 555 364Q585 396 650 396Q683 396 706.5 387.5Q730 379 745.5 364.5Q761 350 768 331Q775 312 775 292V284Q775 251 760.5 230.5Q746 210 724 199Q747 188 762 166.5Q777 145 777 111V102Q777 81 769 61.5Q761 42 745 27Q729 12 705 2.5Q681 -7 650 -7Q585 -7 553.5 26Q522 59 522 118V125Z" glyph-name="uni2153" horiz-adv-x="800" unicode="&#8531;" /><glyph d="M275 390H25V427L183 599Q200 617 207.5 631Q215 645 215 664V669Q215 700 197.5 716.5Q180 733 151 733H148Q117 733 100.5 714Q84 695 84 650H25V661Q25 722 55 754Q85 786 150 786Q183 786 206.5 777.5Q230 769 245.5 754Q261 739 268 719.5Q275 700 275 679V672Q275 640 264.5 618.5Q254 597 230 571L111 442H275ZM80 0 656 780H720L144 0ZM582 125Q582 83 600 64.5Q618 46 647 46H652Q678 46 698 60.5Q718 75 718 107V114Q718 143 700.5 158Q683 173 655 173H600V225H653Q680 225 697.5 238.5Q715 252 715 281V285Q715 311 697.5 327Q680 343 652 343H647Q616 343 600 324Q584 305 584 260H525V271Q525 332 555 364Q585 396 650 396Q683 396 706.5 387.5Q730 379 745.5 364.5Q761 350 768 331Q775 312 775 292V284Q775 251 760.5 230.5Q746 210 724 199Q747 188 762 166.5Q777 145 777 111V102Q777 81 769 61.5Q761 42 745 27Q729 12 705 2.5Q681 -7 650 -7Q585 -7 553.5 26Q522 59 522 118V125Z" glyph-name="uni2154" horiz-adv-x="800" unicode="&#8532;" /><glyph d="M32 390V442H125V705L49 654L20 698L142 781H185V442H277V390ZM80 0 656 780H720L144 0ZM582 125Q582 83 600 64.5Q618 46 647 46H652Q678 46 698 63Q718 80 718 118V126Q718 164 697.5 181Q677 198 649 198H646Q625 198 605 187.5Q585 177 576 157L525 174L534 390H772V337H587L582 232Q597 240 615 245Q633 250 653 250Q710 250 743.5 217.5Q777 185 777 126V118Q777 59 743.5 26Q710 -7 650 -7Q585 -7 553.5 26Q522 59 522 118V125Z" glyph-name="uni2155" horiz-adv-x="800" unicode="&#8533;" /><glyph d="M275 390H25V427L183 599Q200 617 207.5 631Q215 645 215 664V669Q215 700 197.5 716.5Q180 733 151 733H148Q117 733 100.5 714Q84 695 84 650H25V661Q25 722 55 754Q85 786 150 786Q183 786 206.5 777.5Q230 769 245.5 754Q261 739 268 719.5Q275 700 275 679V672Q275 640 264.5 618.5Q254 597 230 571L111 442H275ZM80 0 656 780H720L144 0ZM582 125Q582 83 600 64.5Q618 46 647 46H652Q678 46 698 63Q718 80 718 118V126Q718 164 697.5 181Q677 198 649 198H646Q625 198 605 187.5Q585 177 576 157L525 174L534 390H772V337H587L582 232Q597 240 615 245Q633 250 653 250Q710 250 743.5 217.5Q777 185 777 126V118Q777 59 743.5 26Q710 -7 650 -7Q585 -7 553.5 26Q522 59 522 118V125Z" glyph-name="uni2156" horiz-adv-x="800" unicode="&#8534;" /><glyph d="M80 0 656 780H720L144 0ZM82 515Q82 473 100 454.5Q118 436 147 436H152Q178 436 198 450.5Q218 465 218 497V504Q218 533 200.5 548Q183 563 155 563H100V615H153Q180 615 197.5 628.5Q215 642 215 671V675Q215 701 197.5 717Q180 733 152 733H147Q116 733 100 714Q84 695 84 650H25V661Q25 722 55 754Q85 786 150 786Q183 786 206.5 777.5Q230 769 245.5 754.5Q261 740 268 721Q275 702 275 682V674Q275 641 260.5 620.5Q246 600 224 589Q247 578 262 556.5Q277 535 277 501V492Q277 471 269 451.5Q261 432 245 417Q229 402 205 392.5Q181 383 150 383Q85 383 53.5 416Q22 449 22 508V515ZM582 125Q582 83 600 64.5Q618 46 647 46H652Q678 46 698 63Q718 80 718 118V126Q718 164 697.5 181Q677 198 649 198H646Q625 198 605 187.5Q585 177 576 157L525 174L534 390H772V337H587L582 232Q597 240 615 245Q633 250 653 250Q710 250 743.5 217.5Q777 185 777 126V118Q777 59 743.5 26Q710 -7 650 -7Q585 -7 553.5 26Q522 59 522 118V125Z" glyph-name="uni2157" horiz-adv-x="800" unicode="&#8535;" /><glyph d="M80 535 114 536H173V644L174 683ZM80 0 656 780H720L144 0ZM173 390V483H14V524L175 780H233V536H285V483H233V390ZM582 125Q582 83 600 64.5Q618 46 647 46H652Q678 46 698 63Q718 80 718 118V126Q718 164 697.5 181Q677 198 649 198H646Q625 198 605 187.5Q585 177 576 157L525 174L534 390H772V337H587L582 232Q597 240 615 245Q633 250 653 250Q710 250 743.5 217.5Q777 185 777 126V118Q777 59 743.5 26Q710 -7 650 -7Q585 -7 553.5 26Q522 59 522 118V125Z" glyph-name="uni2158" horiz-adv-x="800" unicode="&#8536;" /><glyph d="M652 193Q630 193 611.5 181.5Q593 170 583 150V130Q583 89 602.5 67.5Q622 46 649 46H652Q681 46 700 64Q719 82 719 116V125Q719 159 701.5 176Q684 193 655 193ZM32 390V442H125V705L49 654L20 698L142 781H185V442H277V390ZM80 0 656 780H720L144 0ZM760 343Q718 343 683 329.5Q648 316 625 285Q603 258 593 220Q607 231 625 238Q643 245 666 245Q716 245 747.5 213.5Q779 182 779 122V117Q779 57 745.5 25Q712 -7 651 -7Q591 -7 557 31Q523 69 523 134V140Q523 187 535 232Q547 277 578 319Q610 363 658 379.5Q706 396 760 396Z" glyph-name="uni2159" horiz-adv-x="800" unicode="&#8537;" /><glyph d="M652 193Q630 193 611.5 181.5Q593 170 583 150V130Q583 89 602.5 67.5Q622 46 649 46H652Q681 46 700 64Q719 82 719 116V125Q719 159 701.5 176Q684 193 655 193ZM80 0 656 780H720L144 0ZM82 515Q82 473 100 454.5Q118 436 147 436H152Q178 436 198 453Q218 470 218 508V516Q218 554 197.5 571Q177 588 149 588H146Q125 588 105 577.5Q85 567 76 547L25 564L34 780H272V727H87L82 622Q97 630 115 635Q133 640 153 640Q210 640 243.5 607.5Q277 575 277 516V508Q277 449 243.5 416Q210 383 150 383Q85 383 53.5 416Q22 449 22 508V515ZM760 343Q718 343 683 329.5Q648 316 625 285Q603 258 593 220Q607 231 625 238Q643 245 666 245Q716 245 747.5 213.5Q779 182 779 122V117Q779 57 745.5 25Q712 -7 651 -7Q591 -7 557 31Q523 69 523 134V140Q523 187 535 232Q547 277 578 319Q610 363 658 379.5Q706 396 760 396Z" glyph-name="uni215A" horiz-adv-x="800" unicode="&#8538;" /><glyph d="M647 343Q619 343 601.5 327.5Q584 312 584 286V281Q584 252 601.5 238.5Q619 225 647 225H653Q680 225 697.5 238.5Q715 252 715 281V286Q715 312 697.5 327.5Q680 343 652 343ZM645 173Q617 173 599.5 157.5Q582 142 582 113V107Q582 75 601.5 60.5Q621 46 647 46H652Q678 46 698 60.5Q718 75 718 107V113Q718 142 700.5 157.5Q683 173 655 173ZM32 390V442H125V705L49 654L20 698L142 781H185V442H277V390ZM80 0 656 780H720L144 0ZM650 -7Q618 -7 594 2.5Q570 12 554 27Q538 42 530 61.5Q522 81 522 102V111Q522 145 537.5 166.5Q553 188 576 199Q553 210 539 230.5Q525 251 525 284V293Q525 313 532 331.5Q539 350 554.5 364.5Q570 379 593.5 387.5Q617 396 650 396Q683 396 706.5 387.5Q730 379 745.5 364.5Q761 350 768 331.5Q775 313 775 293V284Q775 251 760.5 230.5Q746 210 723 199Q746 188 761.5 166.5Q777 145 777 111V102Q777 81 769 61.5Q761 42 745 27Q729 12 705 2.5Q681 -7 650 -7Z" glyph-name="uni215B" horiz-adv-x="800" unicode="&#8539;" /><glyph d="M647 343Q619 343 601.5 327.5Q584 312 584 286V281Q584 252 601.5 238.5Q619 225 647 225H653Q680 225 697.5 238.5Q715 252 715 281V286Q715 312 697.5 327.5Q680 343 652 343ZM645 173Q617 173 599.5 157.5Q582 142 582 113V107Q582 75 601.5 60.5Q621 46 647 46H652Q678 46 698 60.5Q718 75 718 107V113Q718 142 700.5 157.5Q683 173 655 173ZM80 0 656 780H720L144 0ZM82 515Q82 473 100 454.5Q118 436 147 436H152Q178 436 198 450.5Q218 465 218 497V504Q218 533 200.5 548Q183 563 155 563H100V615H153Q180 615 197.5 628.5Q215 642 215 671V675Q215 701 197.5 717Q180 733 152 733H147Q116 733 100 714Q84 695 84 650H25V661Q25 722 55 754Q85 786 150 786Q183 786 206.5 777.5Q230 769 245.5 754.5Q261 740 268 721Q275 702 275 682V674Q275 641 260.5 620.5Q246 600 224 589Q247 578 262 556.5Q277 535 277 501V492Q277 471 269 451.5Q261 432 245 417Q229 402 205 392.5Q181 383 150 383Q85 383 53.5 416Q22 449 22 508V515ZM650 -7Q618 -7 594 2.5Q570 12 554 27Q538 42 530 61.5Q522 81 522 102V111Q522 145 537.5 166.5Q553 188 576 199Q553 210 539 230.5Q525 251 525 284V293Q525 313 532 331.5Q539 350 554.5 364.5Q570 379 593.5 387.5Q617 396 650 396Q683 396 706.5 387.5Q730 379 745.5 364.5Q761 350 768 331.5Q775 313 775 293V284Q775 251 760.5 230.5Q746 210 723 199Q746 188 761.5 166.5Q777 145 777 111V102Q777 81 769 61.5Q761 42 745 27Q729 12 705 2.5Q681 -7 650 -7Z" glyph-name="uni215C" horiz-adv-x="800" unicode="&#8540;" /><glyph d="M647 343Q619 343 601.5 327.5Q584 312 584 286V281Q584 252 601.5 238.5Q619 225 647 225H653Q680 225 697.5 238.5Q715 252 715 281V286Q715 312 697.5 327.5Q680 343 652 343ZM645 173Q617 173 599.5 157.5Q582 142 582 113V107Q582 75 601.5 60.5Q621 46 647 46H652Q678 46 698 60.5Q718 75 718 107V113Q718 142 700.5 157.5Q683 173 655 173ZM80 0 656 780H720L144 0ZM82 515Q82 473 100 454.5Q118 436 147 436H152Q178 436 198 453Q218 470 218 508V516Q218 554 197.5 571Q177 588 149 588H146Q125 588 105 577.5Q85 567 76 547L25 564L34 780H272V727H87L82 622Q97 630 115 635Q133 640 153 640Q210 640 243.5 607.5Q277 575 277 516V508Q277 449 243.5 416Q210 383 150 383Q85 383 53.5 416Q22 449 22 508V515ZM650 -7Q618 -7 594 2.5Q570 12 554 27Q538 42 530 61.5Q522 81 522 102V111Q522 145 537.5 166.5Q553 188 576 199Q553 210 539 230.5Q525 251 525 284V293Q525 313 532 331.5Q539 350 554.5 364.5Q570 379 593.5 387.5Q617 396 650 396Q683 396 706.5 387.5Q730 379 745.5 364.5Q761 350 768 331.5Q775 313 775 293V284Q775 251 760.5 230.5Q746 210 723 199Q746 188 761.5 166.5Q777 145 777 111V102Q777 81 769 61.5Q761 42 745 27Q729 12 705 2.5Q681 -7 650 -7Z" glyph-name="uni215D" horiz-adv-x="800" unicode="&#8541;" /><glyph d="M647 343Q619 343 601.5 327.5Q584 312 584 286V281Q584 252 601.5 238.5Q619 225 647 225H653Q680 225 697.5 238.5Q715 252 715 281V286Q715 312 697.5 327.5Q680 343 652 343ZM645 173Q617 173 599.5 157.5Q582 142 582 113V107Q582 75 601.5 60.5Q621 46 647 46H652Q678 46 698 60.5Q718 75 718 107V113Q718 142 700.5 157.5Q683 173 655 173ZM23 780H279V743L135 390H72L211 728L160 727H76V640H23ZM80 0 656 780H720L144 0ZM650 -7Q618 -7 594 2.5Q570 12 554 27Q538 42 530 61.5Q522 81 522 102V111Q522 145 537.5 166.5Q553 188 576 199Q553 210 539 230.5Q525 251 525 284V293Q525 313 532 331.5Q539 350 554.5 364.5Q570 379 593.5 387.5Q617 396 650 396Q683 396 706.5 387.5Q730 379 745.5 364.5Q761 350 768 331.5Q775 313 775 293V284Q775 251 760.5 230.5Q746 210 723 199Q746 188 761.5 166.5Q777 145 777 111V102Q777 81 769 61.5Q761 42 745 27Q729 12 705 2.5Q681 -7 650 -7Z" glyph-name="uni215E" horiz-adv-x="800" unicode="&#8542;" /><glyph d="M32 390V442H125V705L49 654L20 698L142 781H185V442H277V390ZM80 0 656 780H720L144 0Z" glyph-name="uni215F" horiz-adv-x="500" unicode="&#8543;" /><glyph d="M70 0V780H850V714H183L861 36L814 -11L136 667V0Z" glyph-name="uni2196" horiz-adv-x="920" unicode="&#8598;" /><glyph d="M784 0V667L106 -11L59 36L737 714H70V780H850V0Z" glyph-name="uni2197" horiz-adv-x="920" unicode="&#8599;" /><glyph d="M70 66H737L59 744L106 791L784 113V780H850V0H70Z" glyph-name="uni2198" horiz-adv-x="920" unicode="&#8600;" /><glyph d="M850 0H70V780H136V113L814 791L861 744L183 66H850Z" glyph-name="uni2199" horiz-adv-x="920" unicode="&#8601;" /><glyph d="M826 -25 8 275 59 326 798 52 524 791 575 842 875 24Z" glyph-name="uni25E2" horiz-adv-x="930" unicode="&#9698;" /><glyph d="M355 842 406 791 132 52 871 326 922 275 104 -25 55 24Z" glyph-name="uni25E3" horiz-adv-x="930" unicode="&#9699;" /><glyph d="M79 781 104 805 922 505 871 454 132 727 406 -11 355 -62 55 756Z" glyph-name="uni25E4" horiz-adv-x="930" unicode="&#9700;" /><glyph d="M875 756 575 -62 524 -11 797 727 59 454 8 505 826 805 851 781Z" glyph-name="uni25E5" horiz-adv-x="930" unicode="&#9701;" /><glyph d="M180 -10 279 297 19 486H341L440 792L539 486H861L601 297L700 -10L440 180Z" glyph-name="uni2605" horiz-adv-x="880" unicode="&#9733;" /><glyph d="M479 -11 437 191Q437 189 436.5 182.5Q436 176 433.5 166.5Q431 157 425 146Q419 135 408 125Q396 114 384 106Q372 98 362 90Q352 82 346 72Q340 62 340 47Q340 39 342 33Q344 27 346 22Q349 17 352 12Q329 19 317.5 36.5Q306 54 306 74Q306 104 327 125Q349 147 358.5 174.5Q368 202 368 220L196 107L309 279Q308 278 303 273.5Q298 269 290 264.5Q282 260 270 256.5Q258 253 243 253Q229 253 211.5 257Q194 261 181 261Q161 261 149 253.5Q137 246 131 237Q124 226 122 213Q114 227 114 241Q114 270 134.5 290Q155 310 185 310Q202 310 218.5 315Q235 320 248.5 326.5Q262 333 270.5 339.5Q279 346 281 348L79 390L281 432Q279 432 272.5 432.5Q266 433 256.5 435.5Q247 438 236 444Q225 450 215 461Q204 473 196 485Q188 497 180 507Q172 517 162 523Q152 529 137 529Q129 529 123 527Q117 525 112 523Q107 520 102 517Q109 540 126.5 551.5Q144 563 164 563Q194 563 215 542Q237 520 264.5 510.5Q292 501 310 501L197 673L369 560Q368 561 363.5 566Q359 571 354.5 579Q350 587 346.5 599Q343 611 343 626Q343 640 347 657.5Q351 675 351 688Q351 708 343.5 720Q336 732 327 738Q316 745 303 747Q317 755 331 755Q360 755 380 734.5Q400 714 400 684Q400 667 405 650.5Q410 634 416.5 620.5Q423 607 429.5 598Q436 589 438 588L480 790L522 588Q522 589 522.5 596Q523 603 525.5 612.5Q528 622 534 633Q540 644 551 654Q563 665 575 673Q587 681 597 689Q607 697 613 707Q619 717 619 732Q619 740 617 746Q615 752 613 757Q610 762 607 767Q630 760 641.5 742.5Q653 725 653 705Q653 675 632 654Q610 632 600.5 604.5Q591 577 591 559L763 672L650 500Q651 501 656 505.5Q661 510 669 514.5Q677 519 689 522.5Q701 526 716 526Q730 526 747.5 522Q765 518 778 518Q798 518 810 525.5Q822 533 828 542Q835 553 837 566Q845 552 845 538Q845 509 824.5 489Q804 469 774 469Q757 469 740.5 464Q724 459 710.5 452.5Q697 446 688 439.5Q679 433 678 431L880 389L678 347Q679 347 686 346.5Q693 346 702.5 343.5Q712 341 723 335Q734 329 744 318Q755 306 763 294Q771 282 779 272Q787 262 797 256Q807 250 822 250Q830 250 836 252Q842 254 847 256Q852 259 857 262Q850 239 832.5 227.5Q815 216 795 216Q765 216 744 237Q722 259 694.5 268.5Q667 278 649 278L762 106L590 219Q591 218 595.5 213Q600 208 604.5 200Q609 192 612.5 180Q616 168 616 153Q616 139 612 121.5Q608 104 608 91Q608 71 615.5 59Q623 47 632 41Q643 34 656 32Q642 24 628 24Q599 24 579 44.5Q559 65 559 95Q559 112 554 128.5Q549 145 542.5 158.5Q536 172 529.5 180.5Q523 189 521 191Z" glyph-name="uni263C" horiz-adv-x="960" unicode="&#9788;" /><glyph d="M624 728Q557 728 498 701.5Q439 675 395 629Q351 583 325.5 521.5Q300 460 300 390Q300 320 325.5 258.5Q351 197 395 151Q439 105 498 78.5Q557 52 624 52Q673 52 720 67Q669 30 607.5 10Q546 -10 480 -10Q397 -10 324 21.5Q251 53 197 107Q143 161 111.5 234Q80 307 80 390Q80 473 111.5 546Q143 619 197 673Q251 727 324 758.5Q397 790 480 790Q546 790 607.5 769.5Q669 749 720 713Q697 720 673 724Q649 728 624 728Z" glyph-name="uni263E" horiz-adv-x="960" unicode="&#9790;" /><glyph d="M875 410Q879 403 882 391.5Q885 380 885 366Q885 340 873.5 317Q862 294 845 277Q828 260 808.5 250Q789 240 773 240L657 441L806 527ZM311 41Q303 41 290.5 44Q278 47 267 54Q244 67 230 88.5Q216 110 209.5 133Q203 156 204.5 178Q206 200 214 214H446V41ZM267 717Q271 724 280 732.5Q289 741 301 748Q323 761 348.5 762.5Q374 764 397.5 758Q421 752 439.5 739.5Q458 727 466 713L350 512L200 598ZM404 780H597Q611 780 623.5 778.5Q636 777 647.5 772.5Q659 768 669 759Q679 750 689 733L717 684L760 708L699 542L526 573L567 597L495 722Q484 742 468 753Q452 764 438 770Q421 777 404 779ZM184 122 88 290Q82 302 76.5 313.5Q71 325 69.5 337Q68 349 71 362.5Q74 376 84 393L112 442L70 466L244 497L303 331L262 355Q243 321 227 294Q213 271 202 251.5Q191 232 190 230Q179 210 177 191.5Q175 173 177 157Q180 139 186 122ZM864 264 768 97Q760 85 753 75Q746 65 736 57.5Q726 50 713 45.5Q700 41 680 41H623V-8L510 128L623 263V214H768Q790 214 808 222Q826 230 838 240Q852 251 863 266Z" glyph-name="uni267B" horiz-adv-x="960" unicode="&#9851;" /><glyph d="M64 390Q64 472 95 544Q126 616 180 670Q234 724 306 755Q378 786 460 786Q542 786 614 755Q686 724 740 670Q794 616 825 544Q856 472 856 390Q856 308 825 236Q794 164 740 110Q686 56 614 25Q542 -6 460 -6Q378 -6 306 25Q234 56 180 110Q126 164 95 236Q64 308 64 390ZM754 295Q745 284 734 275Q724 267 710.5 261Q697 255 680 255H568V293L480 188L568 83V121H612Q643 121 656 133.5Q669 146 680 164L755 294ZM710 498 594 431 684 275Q696 275 711.5 282.5Q727 290 740.5 303.5Q754 317 762.5 335Q771 353 771 373Q771 384 768.5 393Q766 402 763 407ZM229 184Q224 197 222 211Q220 223 221.5 238Q223 253 232 268L288 365L320 346L274 475L139 451L172 432L150 394Q134 368 138.5 350.5Q143 333 153 314L228 184ZM427 121V255H247Q241 244 240 227Q239 210 243.5 192Q248 174 259 157.5Q270 141 288 131Q297 126 306.5 123.5Q316 121 322 121ZM394 693Q408 691 421 686Q432 681 444 672Q456 663 465 649L521 552L489 533L623 509L670 638L637 619L615 657Q600 683 583 688.5Q566 694 544 694H394ZM240 553 356 486 446 642Q440 653 425.5 662.5Q411 672 393 676.5Q375 681 355 680Q335 679 318 669Q309 664 302 657Q295 650 292 645Z" glyph-name="uni267C" horiz-adv-x="960" unicode="&#9852;" /><glyph d="M98 390Q98 315 126.5 249Q155 183 204 134Q253 85 319 56.5Q385 28 460 28Q535 28 601 56.5Q667 85 716 134Q765 183 793.5 249Q822 315 822 390Q822 465 793.5 531Q765 597 716 646Q667 695 601 723.5Q535 752 460 752Q385 752 319 723.5Q253 695 204 646Q155 597 126.5 531Q98 465 98 390ZM60 390Q60 473 91.5 546Q123 619 177 673Q231 727 304 758.5Q377 790 460 790Q543 790 616 758.5Q689 727 743 673Q797 619 828.5 546Q860 473 860 390Q860 307 828.5 234Q797 161 743 107Q689 53 616 21.5Q543 -10 460 -10Q377 -10 304 21.5Q231 53 177 107Q123 161 91.5 234Q60 307 60 390ZM755 294 680 164Q669 146 656 133.5Q643 121 612 121H568V83L480 188L568 293V255H680Q697 255 710.5 261Q724 267 734 275Q745 284 754 295ZM763 407Q766 402 768.5 393Q771 384 771 373Q771 353 762.5 335Q754 317 740.5 303.5Q727 290 711.5 282.5Q696 275 684 275L594 431L710 498ZM228 184 153 314Q143 333 138.5 350.5Q134 368 150 394L172 432L139 451L274 475L320 346L288 365L232 268Q223 253 221.5 238Q220 223 222 211Q224 197 229 184ZM322 121Q316 121 306.5 123.5Q297 126 288 131Q270 141 259 157.5Q248 174 243.5 192Q239 210 240 227Q241 244 247 255H427V121ZM394 694H544Q566 694 583 688.5Q600 683 615 657L637 619L670 638L623 509L489 533L521 552L465 649Q456 663 444 672Q432 681 421 686Q408 691 394 693ZM292 645Q295 650 302 657Q309 664 318 669Q335 679 355 680Q375 681 393 676.5Q411 672 425.5 662.5Q440 653 446 642L356 486L240 553Z" glyph-name="uni267D" horiz-adv-x="960" unicode="&#9853;" /><glyph d="M130 530V169Q130 109 161 80.5Q192 52 245 52Q276 52 300 60Q324 68 341.5 80Q359 92 371.5 106.5Q384 121 392 134V530H462V150L468 0Q435 -14 410 -39.5Q385 -65 385 -103Q385 -125 399.5 -139Q414 -153 441 -153Q459 -153 476 -149Q493 -145 504 -139L523 -191Q507 -201 482.5 -206Q458 -211 434 -211Q385 -211 355 -188Q325 -165 325 -113Q325 -67 348.5 -33.5Q372 0 407 21L399 74Q376 39 333 14Q290 -11 222 -11Q182 -11 152 1.5Q122 14 101.5 36.5Q81 59 71 90.5Q61 122 61 159V530Z" glyph-name="uogonek" horiz-adv-x="528" unicode="&#371;" /><glyph d="M205 697Q205 674 221.5 657.5Q238 641 261 641Q284 641 300.5 657.5Q317 674 317 697Q317 720 300.5 736.5Q284 753 261 753Q238 753 221.5 736.5Q205 720 205 697ZM167 697Q167 716 174.5 733.5Q182 751 194.5 763.5Q207 776 224 783.5Q241 791 261 791Q280 791 297.5 783.5Q315 776 327.5 763.5Q340 751 347.5 733.5Q355 716 355 697Q355 677 347.5 660Q340 643 327.5 630.5Q315 618 297.5 610.5Q280 603 261 603Q241 603 224 610.5Q207 618 194.5 630.5Q182 643 174.5 660Q167 677 167 697ZM130 530V169Q130 109 161 80.5Q192 52 245 52Q276 52 300 60Q324 68 341.5 80Q359 92 371.5 106.5Q384 121 392 134V530H462V150L468 0H410L399 74Q376 39 333 14Q290 -11 222 -11Q182 -11 152 1.5Q122 14 101.5 36.5Q81 59 71 90.5Q61 122 61 159V530Z" glyph-name="uring" horiz-adv-x="528" unicode="&#367;" /><glyph d="M417 746Q417 692 394.5 667.5Q372 643 336 643Q313 643 293.5 651.5Q274 660 257.5 670Q241 680 226 688.5Q211 697 196 697Q181 697 170.5 688Q160 679 160 654H105Q105 708 127.5 732.5Q150 757 186 757Q209 757 228.5 748.5Q248 740 264.5 730Q281 720 296 711.5Q311 703 326 703Q341 703 351.5 712Q362 721 362 746ZM130 530V169Q130 109 161 80.5Q192 52 245 52Q276 52 300 60Q324 68 341.5 80Q359 92 371.5 106.5Q384 121 392 134V530H462V150L468 0H410L399 74Q376 39 333 14Q290 -11 222 -11Q182 -11 152 1.5Q122 14 101.5 36.5Q81 59 71 90.5Q61 122 61 159V530Z" glyph-name="utilde" horiz-adv-x="528" unicode="&#361;" /><glyph d="M25 530H100L256 66L413 530H488L302 0H210Z" glyph-name="v" horiz-adv-x="512" unicode="v" /><glyph d="M237 0H145L31 530H101L193 73L316 530H401L524 73L616 530H686L572 0H479L358 452Z" glyph-name="w" horiz-adv-x="717" unicode="w" /></font>
</defs>
</svg>
