<?xml version="1.0" standalone="no"?><!DOCTYPE svg PUBLIC "-//W3C//DTD SVG 1.1//EN" "http://www.w3.org/Graphics/SVG/1.1/DTD/svg11.dtd" ><svg version="1.1" xmlns="http://www.w3.org/2000/svg"><defs><font horiz-adv-x="0" id="font"><font-face ascent="750" bbox="-263 -230 1396 970" cap-height="780" descent="-250" font-family="Cooper Hewitt" font-stretch="normal" font-style="normal" font-weight="600" units-per-em="1000" x-height="530" /><missing-glyph d="M800 115V665L525 390ZM160 665V115L435 390ZM480 435 759 714H201ZM201 66H759L480 345ZM90 780H870V0H90Z" horiz-adv-x="960" /><glyph d="M277 322H373L325 560ZM455 780 641 0H438L406 158H244L213 0H9L195 780Z" glyph-name="A" horiz-adv-x="650" unicode="A" /><glyph d="M306 322H401L378 560ZM860 780V616H553L571 480H810V316H593L614 164H860V0H433L417 158H256L208 0H4L271 780Z" glyph-name="AE" horiz-adv-x="900" unicode="&#198;" /><glyph d="M277 322H373L325 560ZM480 950 416 840H234L287 950ZM455 780 641 0H438L406 158H244L213 0H9L195 780Z" glyph-name="Aacute" horiz-adv-x="650" unicode="&#193;" /><glyph d="M277 322H373L325 560ZM325 824Q265 824 227 834.5Q189 845 167.5 862Q146 879 138 902Q130 925 130 950H255Q255 935 271 927.5Q287 920 325 920Q363 920 379 927.5Q395 935 395 950H520Q520 925 512 902Q504 879 482.5 862Q461 845 423 834.5Q385 824 325 824ZM455 780 641 0H438L406 158H244L213 0H9L195 780Z" glyph-name="Abreve" horiz-adv-x="650" unicode="&#258;" /><glyph d="M277 322H373L325 560ZM100 840 230 950H420L550 840H385L325 879L265 840ZM455 780 641 0H438L406 158H244L213 0H9L195 780Z" glyph-name="Acircumflex" horiz-adv-x="650" unicode="&#194;" /><glyph d="M277 322H373L325 560ZM490 840H340V950H490ZM310 840H160V950H310ZM455 780 641 0H438L406 158H244L213 0H9L195 780Z" glyph-name="Adieresis" horiz-adv-x="650" unicode="&#196;" /><glyph d="M277 322H373L325 560ZM363 950 416 840H234L170 950ZM455 780 641 0H438L406 158H244L213 0H9L195 780Z" glyph-name="Agrave" horiz-adv-x="650" unicode="&#192;" /><glyph d="M277 322H373L325 560ZM165 950H485V840H165ZM455 780 641 0H438L406 158H244L213 0H9L195 780Z" glyph-name="Amacron" horiz-adv-x="650" unicode="&#256;" /><glyph d="M455 780 641 0H438L325 560L213 0H9L195 780Z" glyph-name="Anocross" horiz-adv-x="650" unicode="&#59185;" /><glyph d="M277 322H373L325 560ZM586 -58Q586 -72 596.5 -81Q607 -90 624 -90Q638 -90 646.5 -86.5Q655 -83 660 -80L701 -190Q685 -200 656 -208Q627 -216 593 -216Q529 -216 490 -189Q451 -162 451 -105Q451 -74 462 -47.5Q473 -21 492 0H438L406 158H244L213 0H9L195 780H455L641 0Q586 -25 586 -58Z" glyph-name="Aogonek" horiz-adv-x="650" unicode="&#260;" /><glyph d="M276 855Q276 835 290.5 820.5Q305 806 325 806Q345 806 359.5 820.5Q374 835 374 855Q374 875 359.5 889.5Q345 904 325 904Q305 904 290.5 889.5Q276 875 276 855ZM277 322H373L325 560ZM216 855Q216 877 224.5 897Q233 917 248 932Q263 947 282.5 955.5Q302 964 325 964Q347 964 367 955.5Q387 947 402 932Q417 917 425.5 897Q434 877 434 855Q434 833 426 813.5Q418 794 404 780H455L641 0H438L406 158H244L213 0H9L195 780H246Q216 810 216 855Z" glyph-name="Aring" horiz-adv-x="650" unicode="&#197;" /><glyph d="M277 322H373L325 560ZM520 950Q520 914 510.5 890Q501 866 486 851.5Q471 837 451 830.5Q431 824 410 824Q386 824 364 831Q342 838 323.5 847Q305 856 288.5 863Q272 870 258 870Q244 870 234.5 863.5Q225 857 225 840H130Q130 876 139.5 900Q149 924 164 938.5Q179 953 199 959.5Q219 966 240 966Q264 966 286 959Q308 952 326.5 943Q345 934 361.5 927Q378 920 392 920Q406 920 415.5 926.5Q425 933 425 950ZM455 780 641 0H438L406 158H244L213 0H9L195 780Z" glyph-name="Atilde" horiz-adv-x="650" unicode="&#195;" /><glyph d="M240 616V480H322Q332 480 344 482Q356 484 365.5 490.5Q375 497 381.5 509.5Q388 522 388 542V554Q388 574 381.5 586.5Q375 599 365.5 605.5Q356 612 344 614Q332 616 322 616ZM240 316V164H335Q347 164 359.5 166.5Q372 169 383 177Q394 185 401 199Q408 213 408 236V244Q408 267 401 281Q394 295 383 303Q372 311 359.5 313.5Q347 316 335 316ZM325 780Q370 780 415 773Q460 766 497 742.5Q534 719 557 675Q580 631 580 558V538Q580 488 562 455.5Q544 423 515 403Q553 383 576.5 346.5Q600 310 600 250V230Q600 154 575 108.5Q550 63 511 39Q472 15 424 7.5Q376 0 330 0H50V780Z" glyph-name="B" horiz-adv-x="645" unicode="B" /><glyph d="M380 840H230V950H380ZM240 616V480H322Q332 480 344 482Q356 484 365.5 490.5Q375 497 381.5 509.5Q388 522 388 542V554Q388 574 381.5 586.5Q375 599 365.5 605.5Q356 612 344 614Q332 616 322 616ZM240 316V164H335Q347 164 359.5 166.5Q372 169 383 177Q394 185 401 199Q408 213 408 236V244Q408 267 401 281Q394 295 383 303Q372 311 359.5 313.5Q347 316 335 316ZM325 780Q370 780 415 773Q460 766 497 742.5Q534 719 557 675Q580 631 580 558V538Q580 488 562 455.5Q544 423 515 403Q553 383 576.5 346.5Q600 310 600 250V230Q600 154 575 108.5Q550 63 511 39Q472 15 424 7.5Q376 0 330 0H50V780Z" glyph-name="Bdotaccent" horiz-adv-x="645" unicode="&#7682;" /><glyph d="M226 370Q226 319 229.5 278.5Q233 238 244.5 209.5Q256 181 277.5 165.5Q299 150 335 150H345Q395 150 415 183.5Q435 217 435 270H625V261Q625 186 606.5 133.5Q588 81 551.5 48Q515 15 461 0.5Q407 -14 335 -14Q256 -14 199 8Q142 30 105 76.5Q68 123 50.5 196Q33 269 33 370V410Q33 511 50.5 584Q68 657 105 703.5Q142 750 199 772Q256 794 335 794Q407 794 461 779.5Q515 765 551.5 732Q588 699 606.5 646.5Q625 594 625 519V480H435Q435 514 431.5 541.5Q428 569 418 588.5Q408 608 390.5 619Q373 630 345 630H335Q299 630 277.5 614.5Q256 599 244.5 570.5Q233 542 229.5 501.5Q226 461 226 410Z" glyph-name="C" horiz-adv-x="660" unicode="C" /><glyph d="M490 950 426 840H244L297 950ZM226 370Q226 319 229.5 278.5Q233 238 244.5 209.5Q256 181 277.5 165.5Q299 150 335 150H345Q395 150 415 183.5Q435 217 435 270H625V261Q625 186 606.5 133.5Q588 81 551.5 48Q515 15 461 0.5Q407 -14 335 -14Q256 -14 199 8Q142 30 105 76.5Q68 123 50.5 196Q33 269 33 370V410Q33 511 50.5 584Q68 657 105 703.5Q142 750 199 772Q256 794 335 794Q407 794 461 779.5Q515 765 551.5 732Q588 699 606.5 646.5Q625 594 625 519V480H435Q435 514 431.5 541.5Q428 569 418 588.5Q408 608 390.5 619Q373 630 345 630H335Q299 630 277.5 614.5Q256 599 244.5 570.5Q233 542 229.5 501.5Q226 461 226 410Z" glyph-name="Cacute" horiz-adv-x="660" unicode="&#262;" /><glyph d="M275 950 335 910 395 950H560L430 840H240L110 950ZM226 370Q226 319 229.5 278.5Q233 238 244.5 209.5Q256 181 277.5 165.5Q299 150 335 150H345Q395 150 415 183.5Q435 217 435 270H625V261Q625 186 606.5 133.5Q588 81 551.5 48Q515 15 461 0.5Q407 -14 335 -14Q256 -14 199 8Q142 30 105 76.5Q68 123 50.5 196Q33 269 33 370V410Q33 511 50.5 584Q68 657 105 703.5Q142 750 199 772Q256 794 335 794Q407 794 461 779.5Q515 765 551.5 732Q588 699 606.5 646.5Q625 594 625 519V480H435Q435 514 431.5 541.5Q428 569 418 588.5Q408 608 390.5 619Q373 630 345 630H335Q299 630 277.5 614.5Q256 599 244.5 570.5Q233 542 229.5 501.5Q226 461 226 410Z" glyph-name="Ccaron" horiz-adv-x="660" unicode="&#268;" /><glyph d="M263 -121Q275 -129 294 -133.5Q313 -138 333 -138Q359 -138 368 -132Q377 -126 377 -116Q377 -105 368 -99.5Q359 -94 333 -94Q325 -94 318.5 -95Q312 -96 306 -97Q299 -98 293 -99L279 -70L302 -13Q232 -9 181 15.5Q130 40 97 87Q64 134 48.5 204Q33 274 33 370V410Q33 511 50.5 584Q68 657 105 703.5Q142 750 199 772Q256 794 335 794Q407 794 461 779.5Q515 765 551.5 732Q588 699 606.5 646.5Q625 594 625 519V480H435Q435 514 431.5 541.5Q428 569 418 588.5Q408 608 390.5 619Q373 630 345 630H335Q299 630 277.5 614.5Q256 599 244.5 570.5Q233 542 229.5 501.5Q226 461 226 410V370Q226 319 229.5 278.5Q233 238 244.5 209.5Q256 181 277.5 165.5Q299 150 335 150H345Q395 150 415 183.5Q435 217 435 270H625V261Q625 123 563.5 60Q502 -3 382 -12L372 -37Q415 -41 443.5 -62Q472 -83 472 -125Q472 -169 441.5 -192.5Q411 -216 347 -216Q308 -216 279 -207.5Q250 -199 236 -190Z" glyph-name="Ccedilla" horiz-adv-x="660" unicode="&#199;" /><glyph d="M110 840 240 950H430L560 840H395L335 879L275 840ZM226 370Q226 319 229.5 278.5Q233 238 244.5 209.5Q256 181 277.5 165.5Q299 150 335 150H345Q395 150 415 183.5Q435 217 435 270H625V261Q625 186 606.5 133.5Q588 81 551.5 48Q515 15 461 0.5Q407 -14 335 -14Q256 -14 199 8Q142 30 105 76.5Q68 123 50.5 196Q33 269 33 370V410Q33 511 50.5 584Q68 657 105 703.5Q142 750 199 772Q256 794 335 794Q407 794 461 779.5Q515 765 551.5 732Q588 699 606.5 646.5Q625 594 625 519V480H435Q435 514 431.5 541.5Q428 569 418 588.5Q408 608 390.5 619Q373 630 345 630H335Q299 630 277.5 614.5Q256 599 244.5 570.5Q233 542 229.5 501.5Q226 461 226 410Z" glyph-name="Ccircumflex" horiz-adv-x="660" unicode="&#264;" /><glyph d="M410 840H260V950H410ZM226 370Q226 319 229.5 278.5Q233 238 244.5 209.5Q256 181 277.5 165.5Q299 150 335 150H345Q395 150 415 183.5Q435 217 435 270H625V261Q625 186 606.5 133.5Q588 81 551.5 48Q515 15 461 0.5Q407 -14 335 -14Q256 -14 199 8Q142 30 105 76.5Q68 123 50.5 196Q33 269 33 370V410Q33 511 50.5 584Q68 657 105 703.5Q142 750 199 772Q256 794 335 794Q407 794 461 779.5Q515 765 551.5 732Q588 699 606.5 646.5Q625 594 625 519V480H435Q435 514 431.5 541.5Q428 569 418 588.5Q408 608 390.5 619Q373 630 345 630H335Q299 630 277.5 614.5Q256 599 244.5 570.5Q233 542 229.5 501.5Q226 461 226 410Z" glyph-name="Cdotaccent" horiz-adv-x="660" unicode="&#266;" /><glyph d="M290 164Q339 164 369 177Q399 190 415.5 216Q432 242 438 280.5Q444 319 444 370V410Q444 461 438 499.5Q432 538 415.5 564Q399 590 369 603Q339 616 290 616H240V164ZM637 370Q637 269 619 198.5Q601 128 560.5 84Q520 40 456 20Q392 0 300 0H50V780H300Q392 780 456 760Q520 740 560.5 696Q601 652 619 581.5Q637 511 637 410Z" glyph-name="D" horiz-adv-x="670" unicode="D" /><glyph d="M260 950 320 910 380 950H545L415 840H225L95 950ZM290 164Q339 164 369 177Q399 190 415.5 216Q432 242 438 280.5Q444 319 444 370V410Q444 461 438 499.5Q432 538 415.5 564Q399 590 369 603Q339 616 290 616H240V164ZM637 370Q637 269 619 198.5Q601 128 560.5 84Q520 40 456 20Q392 0 300 0H50V780H300Q392 780 456 760Q520 740 560.5 696Q601 652 619 581.5Q637 511 637 410Z" glyph-name="Dcaron" horiz-adv-x="670" unicode="&#270;" /><glyph d="M300 470H450V330H300V164H350Q399 164 429 177Q459 190 475.5 216Q492 242 498 280.5Q504 319 504 370V410Q504 461 498 499.5Q492 538 475.5 564Q459 590 429 603Q399 616 350 616H300ZM10 470H110V780H360Q452 780 516 760Q580 740 620.5 696Q661 652 679 581.5Q697 511 697 410V370Q697 269 679 198.5Q661 128 620.5 84Q580 40 516 20Q452 0 360 0H110V330H10Z" glyph-name="Dcroat" horiz-adv-x="730" unicode="&#272;" /><glyph d="M395 840H245V950H395ZM290 164Q339 164 369 177Q399 190 415.5 216Q432 242 438 280.5Q444 319 444 370V410Q444 461 438 499.5Q432 538 415.5 564Q399 590 369 603Q339 616 290 616H240V164ZM637 370Q637 269 619 198.5Q601 128 560.5 84Q520 40 456 20Q392 0 300 0H50V780H300Q392 780 456 760Q520 740 560.5 696Q601 652 619 581.5Q637 511 637 410Z" glyph-name="Ddotaccent" horiz-adv-x="670" unicode="&#7690;" /><glyph d="M540 780V616H240V480H490V316H240V164H540V0H50V780Z" glyph-name="E" horiz-adv-x="580" unicode="E" /><glyph d="M450 950 386 840H204L257 950ZM540 780V616H240V480H490V316H240V164H540V0H50V780Z" glyph-name="Eacute" horiz-adv-x="580" unicode="&#201;" /><glyph d="M295 824Q235 824 197 834.5Q159 845 137.5 862Q116 879 108 902Q100 925 100 950H225Q225 935 241 927.5Q257 920 295 920Q333 920 349 927.5Q365 935 365 950H490Q490 925 482 902Q474 879 452.5 862Q431 845 393 834.5Q355 824 295 824ZM540 780V616H240V480H490V316H240V164H540V0H50V780Z" glyph-name="Ebreve" horiz-adv-x="580" unicode="&#276;" /><glyph d="M235 950 295 910 355 950H520L390 840H200L70 950ZM540 780V616H240V480H490V316H240V164H540V0H50V780Z" glyph-name="Ecaron" horiz-adv-x="580" unicode="&#282;" /><glyph d="M70 840 200 950H390L520 840H355L295 879L235 840ZM540 780V616H240V480H490V316H240V164H540V0H50V780Z" glyph-name="Ecircumflex" horiz-adv-x="580" unicode="&#202;" /><glyph d="M280 840H130V950H280ZM460 840H310V950H460ZM540 780V616H240V480H490V316H240V164H540V0H50V780Z" glyph-name="Edieresis" horiz-adv-x="580" unicode="&#203;" /><glyph d="M370 840H220V950H370ZM540 780V616H240V480H490V316H240V164H540V0H50V780Z" glyph-name="Edotaccent" horiz-adv-x="580" unicode="&#278;" /><glyph d="M333 950 386 840H204L140 950ZM540 780V616H240V480H490V316H240V164H540V0H50V780Z" glyph-name="Egrave" horiz-adv-x="580" unicode="&#200;" /><glyph d="M135 950H455V840H135ZM540 780V616H240V480H490V316H240V164H540V0H50V780Z" glyph-name="Emacron" horiz-adv-x="580" unicode="&#274;" /><glyph d="M640 -5Q640 -63 624.5 -103Q609 -143 581.5 -167.5Q554 -192 515 -203Q476 -214 428 -214Q390 -214 368 -209Q346 -204 339 -200V-50Q343 -52 358 -54Q373 -56 385 -56Q408 -56 425.5 -49.5Q443 -43 451 -22L225 430L230 280V0H50V780H250L465 350L460 500V780H640Z" glyph-name="Eng" horiz-adv-x="690" unicode="&#330;" /><glyph d="M485 -58Q485 -72 495.5 -81Q506 -90 523 -90Q537 -90 545.5 -86.5Q554 -83 559 -80L600 -190Q584 -200 555 -208Q526 -216 492 -216Q428 -216 389 -189Q350 -162 350 -105Q350 -74 361 -47.5Q372 -21 391 0H50V780H540V616H240V480H490V316H240V164H540V0Q485 -25 485 -58Z" glyph-name="Eogonek" horiz-adv-x="580" unicode="&#280;" /><glyph d="M410 630H395Q312 630 273.5 602Q235 574 235 527V0H45V532Q45 593 64.5 642Q84 691 126 724.5Q168 758 234.5 776Q301 794 395 794Q462 794 521 784Q580 774 628 757V627L527 470L539 469Q603 460 651.5 444.5Q700 429 733 402.5Q766 376 783 336Q800 296 800 239V228Q800 113 734.5 49.5Q669 -14 540 -14Q474 -14 425.5 -0.5Q377 13 344.5 44.5Q312 76 296 129Q280 182 280 261V270H470Q470 235 475.5 211.5Q481 188 490.5 174.5Q500 161 512.5 155.5Q525 150 538 150H548Q574 150 590.5 168.5Q607 187 607 223V227Q607 261 586 282.5Q565 304 509 310L303 334V464Z" glyph-name="Eszett" horiz-adv-x="820" unicode="&#7838;" /><glyph d="M300 470H450V330H300V164H350Q399 164 429 177Q459 190 475.5 216Q492 242 498 280.5Q504 319 504 370V410Q504 461 498 499.5Q492 538 475.5 564Q459 590 429 603Q399 616 350 616H300ZM10 470H110V780H360Q452 780 516 760Q580 740 620.5 696Q661 652 679 581.5Q697 511 697 410V370Q697 269 679 198.5Q661 128 620.5 84Q580 40 516 20Q452 0 360 0H110V330H10Z" glyph-name="Eth" horiz-adv-x="730" unicode="&#208;" /><glyph d="M30 300V460H94Q101 635 164 714.5Q227 794 345 794Q460 794 512.5 734.5Q565 675 565 539V500H405Q405 568 394 599Q383 630 355 630H345Q313 630 300.5 584.5Q288 539 286 460H481L401 300H287Q290 229 303 189.5Q316 150 345 150H355Q380 150 392.5 173.5Q405 197 405 250H565V241Q565 105 512.5 45.5Q460 -14 345 -14Q230 -14 167.5 60.5Q105 135 95 300Z" glyph-name="Euro" horiz-adv-x="600" unicode="&#8364;" /><glyph d="M540 780V616H240V480H490V316H240V0H50V780Z" glyph-name="F" horiz-adv-x="560" unicode="F" /><glyph d="M370 840H220V950H370ZM540 780V616H240V480H490V316H240V0H50V780Z" glyph-name="Fdotaccent" horiz-adv-x="560" unicode="&#7710;" /><glyph d="M350 -14Q267 -14 207.5 8Q148 30 109 76.5Q70 123 51.5 196Q33 269 33 370V410Q33 511 51.5 584Q70 657 108 703.5Q146 750 203.5 772Q261 794 340 794Q412 794 467 779.5Q522 765 559.5 732Q597 699 616 646.5Q635 594 635 519V480H445Q445 514 441.5 541.5Q438 569 427.5 588.5Q417 608 398.5 619Q380 630 350 630H340Q302 630 279.5 614.5Q257 599 245 570.5Q233 542 229.5 501.5Q226 461 226 410V370Q226 319 230 278.5Q234 238 246.5 209.5Q259 181 282.5 165.5Q306 150 345 150H355Q409 150 444 170V270H350V434H634V78Q610 59 582.5 42.5Q555 26 521 13.5Q487 1 444.5 -6.5Q402 -14 350 -14Z" glyph-name="G" horiz-adv-x="680" unicode="G" /><glyph d="M340 824Q280 824 242 834.5Q204 845 182.5 862Q161 879 153 902Q145 925 145 950H270Q270 935 286 927.5Q302 920 340 920Q378 920 394 927.5Q410 935 410 950H535Q535 925 527 902Q519 879 497.5 862Q476 845 438 834.5Q400 824 340 824ZM350 -14Q267 -14 207.5 8Q148 30 109 76.5Q70 123 51.5 196Q33 269 33 370V410Q33 511 51.5 584Q70 657 108 703.5Q146 750 203.5 772Q261 794 340 794Q412 794 467 779.5Q522 765 559.5 732Q597 699 616 646.5Q635 594 635 519V480H445Q445 514 441.5 541.5Q438 569 427.5 588.5Q417 608 398.5 619Q380 630 350 630H340Q302 630 279.5 614.5Q257 599 245 570.5Q233 542 229.5 501.5Q226 461 226 410V370Q226 319 230 278.5Q234 238 246.5 209.5Q259 181 282.5 165.5Q306 150 345 150H355Q409 150 444 170V270H350V434H634V78Q610 59 582.5 42.5Q555 26 521 13.5Q487 1 444.5 -6.5Q402 -14 350 -14Z" glyph-name="Gbreve" horiz-adv-x="680" unicode="&#286;" /><glyph d="M115 840 245 950H435L565 840H400L340 879L280 840ZM350 -14Q267 -14 207.5 8Q148 30 109 76.5Q70 123 51.5 196Q33 269 33 370V410Q33 511 51.5 584Q70 657 108 703.5Q146 750 203.5 772Q261 794 340 794Q412 794 467 779.5Q522 765 559.5 732Q597 699 616 646.5Q635 594 635 519V480H445Q445 514 441.5 541.5Q438 569 427.5 588.5Q417 608 398.5 619Q380 630 350 630H340Q302 630 279.5 614.5Q257 599 245 570.5Q233 542 229.5 501.5Q226 461 226 410V370Q226 319 230 278.5Q234 238 246.5 209.5Q259 181 282.5 165.5Q306 150 345 150H355Q409 150 444 170V270H350V434H634V78Q610 59 582.5 42.5Q555 26 521 13.5Q487 1 444.5 -6.5Q402 -14 350 -14Z" glyph-name="Gcircumflex" horiz-adv-x="680" unicode="&#284;" /><glyph d="M430 -100Q430 -172 391.5 -201Q353 -230 270 -230V-170Q302 -170 324.5 -163.5Q347 -157 358 -140H270V-40H430ZM350 -14Q267 -14 207.5 8Q148 30 109 76.5Q70 123 51.5 196Q33 269 33 370V410Q33 511 51.5 584Q70 657 108 703.5Q146 750 203.5 772Q261 794 340 794Q412 794 467 779.5Q522 765 559.5 732Q597 699 616 646.5Q635 594 635 519V480H445Q445 514 441.5 541.5Q438 569 427.5 588.5Q417 608 398.5 619Q380 630 350 630H340Q302 630 279.5 614.5Q257 599 245 570.5Q233 542 229.5 501.5Q226 461 226 410V370Q226 319 230 278.5Q234 238 246.5 209.5Q259 181 282.5 165.5Q306 150 345 150H355Q409 150 444 170V270H350V434H634V78Q610 59 582.5 42.5Q555 26 521 13.5Q487 1 444.5 -6.5Q402 -14 350 -14Z" glyph-name="Gcommaaccent" horiz-adv-x="680" unicode="&#290;" /><glyph d="M415 840H265V950H415ZM350 -14Q267 -14 207.5 8Q148 30 109 76.5Q70 123 51.5 196Q33 269 33 370V410Q33 511 51.5 584Q70 657 108 703.5Q146 750 203.5 772Q261 794 340 794Q412 794 467 779.5Q522 765 559.5 732Q597 699 616 646.5Q635 594 635 519V480H445Q445 514 441.5 541.5Q438 569 427.5 588.5Q417 608 398.5 619Q380 630 350 630H340Q302 630 279.5 614.5Q257 599 245 570.5Q233 542 229.5 501.5Q226 461 226 410V370Q226 319 230 278.5Q234 238 246.5 209.5Q259 181 282.5 165.5Q306 150 345 150H355Q409 150 444 170V270H350V434H634V78Q610 59 582.5 42.5Q555 26 521 13.5Q487 1 444.5 -6.5Q402 -14 350 -14Z" glyph-name="Gdotaccent" horiz-adv-x="680" unicode="&#288;" /><glyph d="M620 780V0H430V316H240V0H50V780H240V480H430V780Z" glyph-name="H" horiz-adv-x="670" unicode="H" /><glyph d="M430 480V560H240V480ZM620 780V0H430V316H240V0H50V780H240V700H430V780Z" glyph-name="Hbar" horiz-adv-x="670" unicode="&#294;" /><glyph d="M110 840 240 950H430L560 840H395L335 879L275 840ZM620 780V0H430V316H240V0H50V780H240V480H430V780Z" glyph-name="Hcircumflex" horiz-adv-x="670" unicode="&#292;" /><glyph d="M245 0H55V780H245Z" glyph-name="I" horiz-adv-x="300" unicode="I" /><glyph d="M245 0H55V780H245ZM406 780H596V202Q596 142 580.5 100.5Q565 59 537 33.5Q509 8 470 -3Q431 -14 385 -14Q343 -14 318 -8Q293 -2 285 3V158Q290 156 306 153Q322 150 335 150Q351 150 364 152.5Q377 155 386.5 163Q396 171 401 185.5Q406 200 406 223Z" glyph-name="IJ" horiz-adv-x="641" unicode="&#306;" /><glyph d="M305 950 241 840H59L112 950ZM245 0H55V780H245Z" glyph-name="Iacute" horiz-adv-x="300" unicode="&#205;" /><glyph d="M150 824Q90 824 52 834.5Q14 845 -7.5 862Q-29 879 -37 902Q-45 925 -45 950H80Q80 935 96 927.5Q112 920 150 920Q188 920 204 927.5Q220 935 220 950H345Q345 925 337 902Q329 879 307.5 862Q286 845 248 834.5Q210 824 150 824ZM245 0H55V780H245Z" glyph-name="Ibreve" horiz-adv-x="300" unicode="&#300;" /><glyph d="M-75 840 55 950H245L375 840H210L150 879L90 840ZM245 0H55V780H245Z" glyph-name="Icircumflex" horiz-adv-x="300" unicode="&#206;" /><glyph d="M135 840H-15V950H135ZM315 840H165V950H315ZM245 0H55V780H245Z" glyph-name="Idieresis" horiz-adv-x="300" unicode="&#207;" /><glyph d="M225 840H75V950H225ZM245 0H55V780H245Z" glyph-name="Idotaccent" horiz-adv-x="300" unicode="&#304;" /><glyph d="M188 950 241 840H59L-5 950ZM245 0H55V780H245Z" glyph-name="Igrave" horiz-adv-x="300" unicode="&#204;" /><glyph d="M-10 950H310V840H-10ZM245 0H55V780H245Z" glyph-name="Imacron" horiz-adv-x="300" unicode="&#298;" /><glyph d="M190 -58Q190 -72 200.5 -81Q211 -90 228 -90Q242 -90 250.5 -86.5Q259 -83 264 -80L305 -190Q289 -200 260 -208Q231 -216 197 -216Q133 -216 94 -189Q55 -162 55 -105Q55 -74 66 -47.5Q77 -21 96 0H55V780H245V0Q190 -25 190 -58Z" glyph-name="Iogonek" horiz-adv-x="300" unicode="&#302;" /><glyph d="M345 950Q345 914 335.5 890Q326 866 311 851.5Q296 837 276 830.5Q256 824 235 824Q211 824 189 831Q167 838 148.5 847Q130 856 113.5 863Q97 870 83 870Q69 870 59.5 863.5Q50 857 50 840H-45Q-45 876 -35.5 900Q-26 924 -11 938.5Q4 953 24 959.5Q44 966 65 966Q89 966 111 959Q133 952 151.5 943Q170 934 186.5 927Q203 920 217 920Q231 920 240.5 926.5Q250 933 250 950ZM245 0H55V780H245Z" glyph-name="Itilde" horiz-adv-x="300" unicode="&#296;" /><glyph d="M505 780V238Q505 118 447.5 52Q390 -14 263 -14Q195 -14 149 3Q103 20 74.5 52.5Q46 85 33.5 132Q21 179 21 240V270H201Q201 211 212 180.5Q223 150 258 150Q293 150 304 179.5Q315 209 315 260V780Z" glyph-name="J" horiz-adv-x="550" unicode="J" /><glyph d="M185 840 315 950H505L635 840H470L410 879L350 840ZM505 780V238Q505 118 447.5 52Q390 -14 263 -14Q195 -14 149 3Q103 20 74.5 52.5Q46 85 33.5 132Q21 179 21 240V270H201Q201 211 212 180.5Q223 150 258 150Q293 150 304 179.5Q315 209 315 260V780Z" glyph-name="Jcircumflex" horiz-adv-x="550" unicode="&#308;" /><glyph d="M240 512 400 780H630L416 473L630 0H420L293 297L240 220V0H50V780H240Z" glyph-name="K" horiz-adv-x="645" unicode="K" /><glyph d="M405 -100Q405 -172 366.5 -201Q328 -230 245 -230V-170Q277 -170 299.5 -163.5Q322 -157 333 -140H245V-40H405ZM240 512 400 780H630L416 473L630 0H420L293 297L240 220V0H50V780H240Z" glyph-name="Kcommaaccent" horiz-adv-x="645" unicode="&#310;" /><glyph d="M50 0V780H240V164H515V0Z" glyph-name="L" horiz-adv-x="530" unicode="L" /><glyph d="M300 950 236 840H54L107 950ZM50 0V780H240V164H515V0Z" glyph-name="Lacute" horiz-adv-x="530" unicode="&#313;" /><glyph d="M448 800 423 590H343V800ZM50 0V780H240V164H515V0Z" glyph-name="Lcaron" horiz-adv-x="530" unicode="&#317;" /><glyph d="M362 -100Q362 -172 323.5 -201Q285 -230 202 -230V-170Q234 -170 256.5 -163.5Q279 -157 290 -140H202V-40H362ZM50 0V780H240V164H515V0Z" glyph-name="Lcommaaccent" horiz-adv-x="530" unicode="&#315;" /><glyph d="M505 303H315V493H505ZM50 0V780H240V164H515V0Z" glyph-name="Ldot" horiz-adv-x="530" unicode="&#319;" /><glyph d="M10 320 110 368V780H300V461L470 544V388L300 305V164H575V0H110V212L10 164Z" glyph-name="Lslash" horiz-adv-x="590" unicode="&#321;" /><glyph d="M543 0H347L235 450L240 300V0H50V780H333L445 330L557 780H840V0H650V300L655 450Z" glyph-name="M" horiz-adv-x="890" unicode="M" /><glyph d="M520 840H370V950H520ZM543 0H347L235 450L240 300V0H50V780H333L445 330L557 780H840V0H650V300L655 450Z" glyph-name="Mdotaccent" horiz-adv-x="890" unicode="&#7744;" /><glyph d="M640 0H440L225 430L230 280V0H50V780H250L465 350L460 500V780H640Z" glyph-name="N" horiz-adv-x="690" unicode="N" /><glyph d="M500 950 436 840H254L307 950ZM640 0H440L225 430L230 280V0H50V780H250L465 350L460 500V780H640Z" glyph-name="Nacute" horiz-adv-x="690" unicode="&#323;" /><glyph d="M285 950 345 910 405 950H570L440 840H250L120 950ZM640 0H440L225 430L230 280V0H50V780H250L465 350L460 500V780H640Z" glyph-name="Ncaron" horiz-adv-x="690" unicode="&#327;" /><glyph d="M425 -100Q425 -172 386.5 -201Q348 -230 265 -230V-170Q297 -170 319.5 -163.5Q342 -157 353 -140H265V-40H425ZM640 0H440L225 430L230 280V0H50V780H250L465 350L460 500V780H640Z" glyph-name="Ncommaaccent" horiz-adv-x="690" unicode="&#325;" /><glyph d="M540 950Q540 914 530.5 890Q521 866 506 851.5Q491 837 471 830.5Q451 824 430 824Q406 824 384 831Q362 838 343.5 847Q325 856 308.5 863Q292 870 278 870Q264 870 254.5 863.5Q245 857 245 840H150Q150 876 159.5 900Q169 924 184 938.5Q199 953 219 959.5Q239 966 260 966Q284 966 306 959Q328 952 346.5 943Q365 934 381.5 927Q398 920 412 920Q426 920 435.5 926.5Q445 933 445 950ZM640 0H440L225 430L230 280V0H50V780H250L465 350L460 500V780H640Z" glyph-name="Ntilde" horiz-adv-x="690" unicode="&#209;" /><glyph d="M345 150Q379 150 400 165.5Q421 181 433 209.5Q445 238 449.5 278.5Q454 319 454 370V410Q454 461 449.5 501.5Q445 542 433 570.5Q421 599 400 614.5Q379 630 345 630H335Q301 630 280 614.5Q259 599 247 570.5Q235 542 230.5 501.5Q226 461 226 410V370Q226 319 230.5 278.5Q235 238 247 209.5Q259 181 280 165.5Q301 150 335 150ZM340 -14Q261 -14 203.5 8Q146 30 108 76.5Q70 123 51.5 196Q33 269 33 370V410Q33 511 51.5 584Q70 657 108 703.5Q146 750 203.5 772Q261 794 340 794Q419 794 476.5 772Q534 750 572 703.5Q610 657 628.5 584Q647 511 647 410V370Q647 269 628.5 196Q610 123 572 76.5Q534 30 476.5 8Q419 -14 340 -14Z" glyph-name="O" horiz-adv-x="680" unicode="O" /><glyph d="M410 616H380Q331 616 301 603Q271 590 254.5 564Q238 538 232 499.5Q226 461 226 410V370Q226 319 232 280.5Q238 242 254.5 216Q271 190 301 177Q331 164 380 164H410ZM33 410Q33 511 51 581.5Q69 652 109.5 696Q150 740 214 760Q278 780 370 780H900V616H600V480H850V316H600V164H900V0H370Q278 0 214 20Q150 40 109.5 84Q69 128 51 198.5Q33 269 33 370Z" glyph-name="OE" horiz-adv-x="940" unicode="&#338;" /><glyph d="M495 950 431 840H249L302 950ZM345 150Q379 150 400 165.5Q421 181 433 209.5Q445 238 449.5 278.5Q454 319 454 370V410Q454 461 449.5 501.5Q445 542 433 570.5Q421 599 400 614.5Q379 630 345 630H335Q301 630 280 614.5Q259 599 247 570.5Q235 542 230.5 501.5Q226 461 226 410V370Q226 319 230.5 278.5Q235 238 247 209.5Q259 181 280 165.5Q301 150 335 150ZM340 -14Q261 -14 203.5 8Q146 30 108 76.5Q70 123 51.5 196Q33 269 33 370V410Q33 511 51.5 584Q70 657 108 703.5Q146 750 203.5 772Q261 794 340 794Q419 794 476.5 772Q534 750 572 703.5Q610 657 628.5 584Q647 511 647 410V370Q647 269 628.5 196Q610 123 572 76.5Q534 30 476.5 8Q419 -14 340 -14Z" glyph-name="Oacute" horiz-adv-x="680" unicode="&#211;" /><glyph d="M340 824Q280 824 242 834.5Q204 845 182.5 862Q161 879 153 902Q145 925 145 950H270Q270 935 286 927.5Q302 920 340 920Q378 920 394 927.5Q410 935 410 950H535Q535 925 527 902Q519 879 497.5 862Q476 845 438 834.5Q400 824 340 824ZM345 150Q379 150 400 165.5Q421 181 433 209.5Q445 238 449.5 278.5Q454 319 454 370V410Q454 461 449.5 501.5Q445 542 433 570.5Q421 599 400 614.5Q379 630 345 630H335Q301 630 280 614.5Q259 599 247 570.5Q235 542 230.5 501.5Q226 461 226 410V370Q226 319 230.5 278.5Q235 238 247 209.5Q259 181 280 165.5Q301 150 335 150ZM340 -14Q261 -14 203.5 8Q146 30 108 76.5Q70 123 51.5 196Q33 269 33 370V410Q33 511 51.5 584Q70 657 108 703.5Q146 750 203.5 772Q261 794 340 794Q419 794 476.5 772Q534 750 572 703.5Q610 657 628.5 584Q647 511 647 410V370Q647 269 628.5 196Q610 123 572 76.5Q534 30 476.5 8Q419 -14 340 -14Z" glyph-name="Obreve" horiz-adv-x="680" unicode="&#334;" /><glyph d="M115 840 245 950H435L565 840H400L340 879L280 840ZM345 150Q379 150 400 165.5Q421 181 433 209.5Q445 238 449.5 278.5Q454 319 454 370V410Q454 461 449.5 501.5Q445 542 433 570.5Q421 599 400 614.5Q379 630 345 630H335Q301 630 280 614.5Q259 599 247 570.5Q235 542 230.5 501.5Q226 461 226 410V370Q226 319 230.5 278.5Q235 238 247 209.5Q259 181 280 165.5Q301 150 335 150ZM340 -14Q261 -14 203.5 8Q146 30 108 76.5Q70 123 51.5 196Q33 269 33 370V410Q33 511 51.5 584Q70 657 108 703.5Q146 750 203.5 772Q261 794 340 794Q419 794 476.5 772Q534 750 572 703.5Q610 657 628.5 584Q647 511 647 410V370Q647 269 628.5 196Q610 123 572 76.5Q534 30 476.5 8Q419 -14 340 -14Z" glyph-name="Ocircumflex" horiz-adv-x="680" unicode="&#212;" /><glyph d="M505 840H355V950H505ZM325 840H175V950H325ZM345 150Q379 150 400 165.5Q421 181 433 209.5Q445 238 449.5 278.5Q454 319 454 370V410Q454 461 449.5 501.5Q445 542 433 570.5Q421 599 400 614.5Q379 630 345 630H335Q301 630 280 614.5Q259 599 247 570.5Q235 542 230.5 501.5Q226 461 226 410V370Q226 319 230.5 278.5Q235 238 247 209.5Q259 181 280 165.5Q301 150 335 150ZM340 -14Q261 -14 203.5 8Q146 30 108 76.5Q70 123 51.5 196Q33 269 33 370V410Q33 511 51.5 584Q70 657 108 703.5Q146 750 203.5 772Q261 794 340 794Q419 794 476.5 772Q534 750 572 703.5Q610 657 628.5 584Q647 511 647 410V370Q647 269 628.5 196Q610 123 572 76.5Q534 30 476.5 8Q419 -14 340 -14Z" glyph-name="Odieresis" horiz-adv-x="680" unicode="&#214;" /><glyph d="M378 950 431 840H249L185 950ZM345 150Q379 150 400 165.5Q421 181 433 209.5Q445 238 449.5 278.5Q454 319 454 370V410Q454 461 449.5 501.5Q445 542 433 570.5Q421 599 400 614.5Q379 630 345 630H335Q301 630 280 614.5Q259 599 247 570.5Q235 542 230.5 501.5Q226 461 226 410V370Q226 319 230.5 278.5Q235 238 247 209.5Q259 181 280 165.5Q301 150 335 150ZM340 -14Q261 -14 203.5 8Q146 30 108 76.5Q70 123 51.5 196Q33 269 33 370V410Q33 511 51.5 584Q70 657 108 703.5Q146 750 203.5 772Q261 794 340 794Q419 794 476.5 772Q534 750 572 703.5Q610 657 628.5 584Q647 511 647 410V370Q647 269 628.5 196Q610 123 572 76.5Q534 30 476.5 8Q419 -14 340 -14Z" glyph-name="Ograve" horiz-adv-x="680" unicode="&#210;" /><glyph d="M575 950 511 840H349L402 950ZM385 950 331 840H169L212 950ZM345 150Q379 150 400 165.5Q421 181 433 209.5Q445 238 449.5 278.5Q454 319 454 370V410Q454 461 449.5 501.5Q445 542 433 570.5Q421 599 400 614.5Q379 630 345 630H335Q301 630 280 614.5Q259 599 247 570.5Q235 542 230.5 501.5Q226 461 226 410V370Q226 319 230.5 278.5Q235 238 247 209.5Q259 181 280 165.5Q301 150 335 150ZM340 -14Q261 -14 203.5 8Q146 30 108 76.5Q70 123 51.5 196Q33 269 33 370V410Q33 511 51.5 584Q70 657 108 703.5Q146 750 203.5 772Q261 794 340 794Q419 794 476.5 772Q534 750 572 703.5Q610 657 628.5 584Q647 511 647 410V370Q647 269 628.5 196Q610 123 572 76.5Q534 30 476.5 8Q419 -14 340 -14Z" glyph-name="Ohungarumlaut" horiz-adv-x="680" unicode="&#336;" /><glyph d="M180 950H500V840H180ZM345 150Q379 150 400 165.5Q421 181 433 209.5Q445 238 449.5 278.5Q454 319 454 370V410Q454 461 449.5 501.5Q445 542 433 570.5Q421 599 400 614.5Q379 630 345 630H335Q301 630 280 614.5Q259 599 247 570.5Q235 542 230.5 501.5Q226 461 226 410V370Q226 319 230.5 278.5Q235 238 247 209.5Q259 181 280 165.5Q301 150 335 150ZM340 -14Q261 -14 203.5 8Q146 30 108 76.5Q70 123 51.5 196Q33 269 33 370V410Q33 511 51.5 584Q70 657 108 703.5Q146 750 203.5 772Q261 794 340 794Q419 794 476.5 772Q534 750 572 703.5Q610 657 628.5 584Q647 511 647 410V370Q647 269 628.5 196Q610 123 572 76.5Q534 30 476.5 8Q419 -14 340 -14Z" glyph-name="Omacron" horiz-adv-x="680" unicode="&#332;" /><glyph d="M226 370Q226 351 226 334.5Q226 318 228 302L418 596Q393 630 345 630H335Q301 630 280 614.5Q259 599 247 570.5Q235 542 230.5 501.5Q226 461 226 410ZM454 410Q454 428 453.5 445Q453 462 452 478L261 183Q274 167 291.5 158.5Q309 150 335 150H345Q379 150 400 165.5Q421 181 433 209.5Q445 238 449.5 278.5Q454 319 454 370ZM33 410Q33 511 51.5 584Q70 657 108 703.5Q146 750 203.5 772Q261 794 340 794Q450 794 518 751L537 780H647L585 685Q647 593 647 410V370Q647 269 628.5 196Q610 123 572 76.5Q534 30 476.5 8Q419 -14 340 -14Q231 -14 161 29L143 0H33L94 95Q33 187 33 370Z" glyph-name="Oslash" horiz-adv-x="680" unicode="&#216;" /><glyph d="M535 950Q535 914 525.5 890Q516 866 501 851.5Q486 837 466 830.5Q446 824 425 824Q401 824 379 831Q357 838 338.5 847Q320 856 303.5 863Q287 870 273 870Q259 870 249.5 863.5Q240 857 240 840H145Q145 876 154.5 900Q164 924 179 938.5Q194 953 214 959.5Q234 966 255 966Q279 966 301 959Q323 952 341.5 943Q360 934 376.5 927Q393 920 407 920Q421 920 430.5 926.5Q440 933 440 950ZM345 150Q379 150 400 165.5Q421 181 433 209.5Q445 238 449.5 278.5Q454 319 454 370V410Q454 461 449.5 501.5Q445 542 433 570.5Q421 599 400 614.5Q379 630 345 630H335Q301 630 280 614.5Q259 599 247 570.5Q235 542 230.5 501.5Q226 461 226 410V370Q226 319 230.5 278.5Q235 238 247 209.5Q259 181 280 165.5Q301 150 335 150ZM340 -14Q261 -14 203.5 8Q146 30 108 76.5Q70 123 51.5 196Q33 269 33 370V410Q33 511 51.5 584Q70 657 108 703.5Q146 750 203.5 772Q261 794 340 794Q419 794 476.5 772Q534 750 572 703.5Q610 657 628.5 584Q647 511 647 410V370Q647 269 628.5 196Q610 123 572 76.5Q534 30 476.5 8Q419 -14 340 -14Z" glyph-name="Otilde" horiz-adv-x="680" unicode="&#213;" /><glyph d="M327 432Q341 432 355.5 435.5Q370 439 381.5 448.5Q393 458 400.5 475Q408 492 408 520V528Q408 556 400.5 573Q393 590 381.5 599.5Q370 609 355.5 612.5Q341 616 327 616H240V432ZM240 0H50V780H319Q368 780 418.5 772Q469 764 509 738Q549 712 574.5 663.5Q600 615 600 534V514Q600 433 574.5 384.5Q549 336 509 310Q469 284 418.5 276Q368 268 319 268H240Z" glyph-name="P" horiz-adv-x="620" unicode="P" /><glyph d="M370 840H220V950H370ZM327 432Q341 432 355.5 435.5Q370 439 381.5 448.5Q393 458 400.5 475Q408 492 408 520V528Q408 556 400.5 573Q393 590 381.5 599.5Q370 609 355.5 612.5Q341 616 327 616H240V432ZM240 0H50V780H319Q368 780 418.5 772Q469 764 509 738Q549 712 574.5 663.5Q600 615 600 534V514Q600 433 574.5 384.5Q549 336 509 310Q469 284 418.5 276Q368 268 319 268H240Z" glyph-name="Pdotaccent" horiz-adv-x="620" unicode="&#7766;" /><glyph d="M429 200Q443 229 448.5 272Q454 315 454 370V410Q454 461 449.5 501.5Q445 542 433 570.5Q421 599 400 614.5Q379 630 345 630H335Q301 630 280 614.5Q259 599 247 570.5Q235 542 230.5 501.5Q226 461 226 410V370Q226 280 241.5 223Q257 166 306 153L260 273H400ZM340 -14Q261 -14 203.5 8Q146 30 108 76.5Q70 123 51.5 196Q33 269 33 370V410Q33 511 51.5 584Q70 657 108 703.5Q146 750 203.5 772Q261 794 340 794Q419 794 476.5 772Q534 750 572 703.5Q610 657 628.5 584Q647 511 647 410V370Q647 229 611.5 143.5Q576 58 502 19L550 -100H405L371 -13Q363 -13 355.5 -13.5Q348 -14 340 -14Z" glyph-name="Q" horiz-adv-x="680" unicode="Q" /><glyph d="M327 432Q341 432 355.5 435.5Q370 439 381.5 448.5Q393 458 400.5 475Q408 492 408 520V528Q408 556 400.5 573Q393 590 381.5 599.5Q370 609 355.5 612.5Q341 616 327 616H240V432ZM240 0H50V780H319Q368 780 418.5 772Q469 764 509 738Q549 712 574.5 663.5Q600 615 600 534V514Q600 466 591 430Q582 394 566 368Q550 342 528 324Q506 306 480 294L600 0H395L293 268H240Z" glyph-name="R" horiz-adv-x="635" unicode="R" /><glyph d="M460 950 396 840H214L267 950ZM327 432Q341 432 355.5 435.5Q370 439 381.5 448.5Q393 458 400.5 475Q408 492 408 520V528Q408 556 400.5 573Q393 590 381.5 599.5Q370 609 355.5 612.5Q341 616 327 616H240V432ZM240 0H50V780H319Q368 780 418.5 772Q469 764 509 738Q549 712 574.5 663.5Q600 615 600 534V514Q600 466 591 430Q582 394 566 368Q550 342 528 324Q506 306 480 294L600 0H395L293 268H240Z" glyph-name="Racute" horiz-adv-x="635" unicode="&#340;" /><glyph d="M327 432Q341 432 355.5 435.5Q370 439 381.5 448.5Q393 458 400.5 475Q408 492 408 520V528Q408 556 400.5 573Q393 590 381.5 599.5Q370 609 355.5 612.5Q341 616 327 616H240V432ZM245 950 305 910 365 950H530L400 840H210L80 950ZM240 0H50V780H319Q368 780 418.5 772Q469 764 509 738Q549 712 574.5 663.5Q600 615 600 534V514Q600 466 591 430Q582 394 566 368Q550 342 528 324Q506 306 480 294L600 0H395L293 268H240Z" glyph-name="Rcaron" horiz-adv-x="635" unicode="&#344;" /><glyph d="M395 -100Q395 -172 356.5 -201Q318 -230 235 -230V-170Q267 -170 289.5 -163.5Q312 -157 323 -140H235V-40H395ZM327 432Q341 432 355.5 435.5Q370 439 381.5 448.5Q393 458 400.5 475Q408 492 408 520V528Q408 556 400.5 573Q393 590 381.5 599.5Q370 609 355.5 612.5Q341 616 327 616H240V432ZM240 0H50V780H319Q368 780 418.5 772Q469 764 509 738Q549 712 574.5 663.5Q600 615 600 534V514Q600 466 591 430Q582 394 566 368Q550 342 528 324Q506 306 480 294L600 0H395L293 268H240Z" glyph-name="Rcommaaccent" horiz-adv-x="635" unicode="&#342;" /><glyph d="M291 313Q227 322 179 337.5Q131 353 99 379.5Q67 406 51 446Q35 486 35 543V554Q35 608 53 652.5Q71 697 107 728.5Q143 760 196 777Q249 794 320 794Q468 794 536.5 728.5Q605 663 605 521V500H415Q415 566 394 598Q373 630 320 630H310Q268 630 248 609.5Q228 589 228 559V555Q228 537 232 523.5Q236 510 249 499.5Q262 489 286 481.5Q310 474 349 469Q413 460 461.5 444.5Q510 429 543 402.5Q576 376 593 336Q610 296 610 239V228Q610 113 537 49.5Q464 -14 320 -14Q177 -14 103.5 50Q30 114 30 261V270H220Q220 205 243 177.5Q266 150 315 150H325Q374 150 395.5 172Q417 194 417 223V227Q417 244 412 257.5Q407 271 393.5 281.5Q380 292 355 300Q330 308 291 313Z" glyph-name="S" horiz-adv-x="640" unicode="S" /><glyph d="M475 950 411 840H229L282 950ZM291 313Q227 322 179 337.5Q131 353 99 379.5Q67 406 51 446Q35 486 35 543V554Q35 608 53 652.5Q71 697 107 728.5Q143 760 196 777Q249 794 320 794Q468 794 536.5 728.5Q605 663 605 521V500H415Q415 566 394 598Q373 630 320 630H310Q268 630 248 609.5Q228 589 228 559V555Q228 537 232 523.5Q236 510 249 499.5Q262 489 286 481.5Q310 474 349 469Q413 460 461.5 444.5Q510 429 543 402.5Q576 376 593 336Q610 296 610 239V228Q610 113 537 49.5Q464 -14 320 -14Q177 -14 103.5 50Q30 114 30 261V270H220Q220 205 243 177.5Q266 150 315 150H325Q374 150 395.5 172Q417 194 417 223V227Q417 244 412 257.5Q407 271 393.5 281.5Q380 292 355 300Q330 308 291 313Z" glyph-name="Sacute" horiz-adv-x="640" unicode="&#346;" /><glyph d="M260 950 320 910 380 950H545L415 840H225L95 950ZM291 313Q227 322 179 337.5Q131 353 99 379.5Q67 406 51 446Q35 486 35 543V554Q35 608 53 652.5Q71 697 107 728.5Q143 760 196 777Q249 794 320 794Q468 794 536.5 728.5Q605 663 605 521V500H415Q415 566 394 598Q373 630 320 630H310Q268 630 248 609.5Q228 589 228 559V555Q228 537 232 523.5Q236 510 249 499.5Q262 489 286 481.5Q310 474 349 469Q413 460 461.5 444.5Q510 429 543 402.5Q576 376 593 336Q610 296 610 239V228Q610 113 537 49.5Q464 -14 320 -14Q177 -14 103.5 50Q30 114 30 261V270H220Q220 205 243 177.5Q266 150 315 150H325Q374 150 395.5 172Q417 194 417 223V227Q417 244 412 257.5Q407 271 393.5 281.5Q380 292 355 300Q330 308 291 313Z" glyph-name="Scaron" horiz-adv-x="640" unicode="&#352;" /><glyph d="M238 -121Q250 -129 269 -133.5Q288 -138 308 -138Q334 -138 343 -132Q352 -126 352 -116Q352 -105 343 -99.5Q334 -94 308 -94Q300 -94 293.5 -95Q287 -96 281 -97Q274 -98 268 -99L254 -70L277 -12Q155 -4 92.5 60.5Q30 125 30 261V270H220Q220 205 243 177.5Q266 150 315 150H325Q374 150 395.5 172Q417 194 417 223V227Q417 244 412 257.5Q407 271 393.5 281.5Q380 292 355 300Q330 308 291 313Q227 322 179 337.5Q131 353 99 379.5Q67 406 51 446Q35 486 35 543V554Q35 608 53 652.5Q71 697 107 728.5Q143 760 196 777Q249 794 320 794Q468 794 536.5 728.5Q605 663 605 521V500H415Q415 566 394 598Q373 630 320 630H310Q268 630 248 609.5Q228 589 228 559V555Q228 537 232 523.5Q236 510 249 499.5Q262 489 286 481.5Q310 474 349 469Q413 460 461.5 444.5Q510 429 543 402.5Q576 376 593 336Q610 296 610 239V228Q610 120 546.5 57.5Q483 -5 357 -13L347 -37Q390 -41 418.5 -62Q447 -83 447 -125Q447 -169 416.5 -192.5Q386 -216 322 -216Q283 -216 254 -207.5Q225 -199 211 -190Z" glyph-name="Scedilla" horiz-adv-x="640" unicode="&#350;" /><glyph d="M95 840 225 950H415L545 840H380L320 879L260 840ZM291 313Q227 322 179 337.5Q131 353 99 379.5Q67 406 51 446Q35 486 35 543V554Q35 608 53 652.5Q71 697 107 728.5Q143 760 196 777Q249 794 320 794Q468 794 536.5 728.5Q605 663 605 521V500H415Q415 566 394 598Q373 630 320 630H310Q268 630 248 609.5Q228 589 228 559V555Q228 537 232 523.5Q236 510 249 499.5Q262 489 286 481.5Q310 474 349 469Q413 460 461.5 444.5Q510 429 543 402.5Q576 376 593 336Q610 296 610 239V228Q610 113 537 49.5Q464 -14 320 -14Q177 -14 103.5 50Q30 114 30 261V270H220Q220 205 243 177.5Q266 150 315 150H325Q374 150 395.5 172Q417 194 417 223V227Q417 244 412 257.5Q407 271 393.5 281.5Q380 292 355 300Q330 308 291 313Z" glyph-name="Scircumflex" horiz-adv-x="640" unicode="&#348;" /><glyph d="M400 -100Q400 -172 361.5 -201Q323 -230 240 -230V-170Q272 -170 294.5 -163.5Q317 -157 328 -140H240V-40H400ZM291 313Q227 322 179 337.5Q131 353 99 379.5Q67 406 51 446Q35 486 35 543V554Q35 608 53 652.5Q71 697 107 728.5Q143 760 196 777Q249 794 320 794Q468 794 536.5 728.5Q605 663 605 521V500H415Q415 566 394 598Q373 630 320 630H310Q268 630 248 609.5Q228 589 228 559V555Q228 537 232 523.5Q236 510 249 499.5Q262 489 286 481.5Q310 474 349 469Q413 460 461.5 444.5Q510 429 543 402.5Q576 376 593 336Q610 296 610 239V228Q610 113 537 49.5Q464 -14 320 -14Q177 -14 103.5 50Q30 114 30 261V270H220Q220 205 243 177.5Q266 150 315 150H325Q374 150 395.5 172Q417 194 417 223V227Q417 244 412 257.5Q407 271 393.5 281.5Q380 292 355 300Q330 308 291 313Z" glyph-name="Scommaaccent" horiz-adv-x="640" unicode="&#536;" /><glyph d="M380 0H190V616H15V780H555V616H380Z" glyph-name="T" horiz-adv-x="570" unicode="T" /><glyph d="M380 473H490V323H380V0H190V323H80V473H190V616H15V780H555V616H380Z" glyph-name="Tbar" horiz-adv-x="570" unicode="&#358;" /><glyph d="M225 950 285 910 345 950H510L380 840H190L60 950ZM380 0H190V616H15V780H555V616H380Z" glyph-name="Tcaron" horiz-adv-x="570" unicode="&#356;" /><glyph d="M365 -100Q365 -172 326.5 -201Q288 -230 205 -230V-170Q237 -170 259.5 -163.5Q282 -157 293 -140H205V-40H365ZM380 0H190V616H15V780H555V616H380Z" glyph-name="Tcommaaccent" horiz-adv-x="570" unicode="&#354;" /><glyph d="M360 840H210V950H360ZM380 0H190V616H15V780H555V616H380Z" glyph-name="Tdotaccent" horiz-adv-x="570" unicode="&#7786;" /><glyph d="M327 298Q341 298 355.5 301.5Q370 305 381.5 314.5Q393 324 400.5 341Q408 358 408 386V394Q408 422 400.5 439Q393 456 381.5 465.5Q370 475 355.5 478.5Q341 482 327 482H240V298ZM240 646H319Q368 646 418.5 638Q469 630 509 604Q549 578 574.5 529.5Q600 481 600 400V380Q600 299 574.5 250.5Q549 202 509 176Q469 150 418.5 142Q368 134 319 134H240V0H50V780H240Z" glyph-name="Thorn" horiz-adv-x="620" unicode="&#222;" /><glyph d="M335 -14Q250 -14 194 4Q138 22 105 55.5Q72 89 58.5 137.5Q45 186 45 248V780H235V253Q235 230 239 211Q243 192 254 178.5Q265 165 284.5 157.5Q304 150 335 150Q366 150 385.5 157.5Q405 165 416 178.5Q427 192 431 211Q435 230 435 253V780H625V248Q625 186 611.5 137.5Q598 89 565 55.5Q532 22 476 4Q420 -14 335 -14Z" glyph-name="U" horiz-adv-x="670" unicode="U" /><glyph d="M490 950 426 840H244L297 950ZM335 -14Q250 -14 194 4Q138 22 105 55.5Q72 89 58.5 137.5Q45 186 45 248V780H235V253Q235 230 239 211Q243 192 254 178.5Q265 165 284.5 157.5Q304 150 335 150Q366 150 385.5 157.5Q405 165 416 178.5Q427 192 431 211Q435 230 435 253V780H625V248Q625 186 611.5 137.5Q598 89 565 55.5Q532 22 476 4Q420 -14 335 -14Z" glyph-name="Uacute" horiz-adv-x="670" unicode="&#218;" /><glyph d="M335 824Q275 824 237 834.5Q199 845 177.5 862Q156 879 148 902Q140 925 140 950H265Q265 935 281 927.5Q297 920 335 920Q373 920 389 927.5Q405 935 405 950H530Q530 925 522 902Q514 879 492.5 862Q471 845 433 834.5Q395 824 335 824ZM335 -14Q250 -14 194 4Q138 22 105 55.5Q72 89 58.5 137.5Q45 186 45 248V780H235V253Q235 230 239 211Q243 192 254 178.5Q265 165 284.5 157.5Q304 150 335 150Q366 150 385.5 157.5Q405 165 416 178.5Q427 192 431 211Q435 230 435 253V780H625V248Q625 186 611.5 137.5Q598 89 565 55.5Q532 22 476 4Q420 -14 335 -14Z" glyph-name="Ubreve" horiz-adv-x="670" unicode="&#364;" /><glyph d="M110 840 240 950H430L560 840H395L335 879L275 840ZM335 -14Q250 -14 194 4Q138 22 105 55.5Q72 89 58.5 137.5Q45 186 45 248V780H235V253Q235 230 239 211Q243 192 254 178.5Q265 165 284.5 157.5Q304 150 335 150Q366 150 385.5 157.5Q405 165 416 178.5Q427 192 431 211Q435 230 435 253V780H625V248Q625 186 611.5 137.5Q598 89 565 55.5Q532 22 476 4Q420 -14 335 -14Z" glyph-name="Ucircumflex" horiz-adv-x="670" unicode="&#219;" /><glyph d="M320 840H170V950H320ZM500 840H350V950H500ZM335 -14Q250 -14 194 4Q138 22 105 55.5Q72 89 58.5 137.5Q45 186 45 248V780H235V253Q235 230 239 211Q243 192 254 178.5Q265 165 284.5 157.5Q304 150 335 150Q366 150 385.5 157.5Q405 165 416 178.5Q427 192 431 211Q435 230 435 253V780H625V248Q625 186 611.5 137.5Q598 89 565 55.5Q532 22 476 4Q420 -14 335 -14Z" glyph-name="Udieresis" horiz-adv-x="670" unicode="&#220;" /><glyph d="M373 950 426 840H244L180 950ZM335 -14Q250 -14 194 4Q138 22 105 55.5Q72 89 58.5 137.5Q45 186 45 248V780H235V253Q235 230 239 211Q243 192 254 178.5Q265 165 284.5 157.5Q304 150 335 150Q366 150 385.5 157.5Q405 165 416 178.5Q427 192 431 211Q435 230 435 253V780H625V248Q625 186 611.5 137.5Q598 89 565 55.5Q532 22 476 4Q420 -14 335 -14Z" glyph-name="Ugrave" horiz-adv-x="670" unicode="&#217;" /><glyph d="M380 950 326 840H164L207 950ZM570 950 506 840H344L397 950ZM335 -14Q250 -14 194 4Q138 22 105 55.5Q72 89 58.5 137.5Q45 186 45 248V780H235V253Q235 230 239 211Q243 192 254 178.5Q265 165 284.5 157.5Q304 150 335 150Q366 150 385.5 157.5Q405 165 416 178.5Q427 192 431 211Q435 230 435 253V780H625V248Q625 186 611.5 137.5Q598 89 565 55.5Q532 22 476 4Q420 -14 335 -14Z" glyph-name="Uhungarumlaut" horiz-adv-x="670" unicode="&#368;" /><glyph d="M175 950H495V840H175ZM335 -14Q250 -14 194 4Q138 22 105 55.5Q72 89 58.5 137.5Q45 186 45 248V780H235V253Q235 230 239 211Q243 192 254 178.5Q265 165 284.5 157.5Q304 150 335 150Q366 150 385.5 157.5Q405 165 416 178.5Q427 192 431 211Q435 230 435 253V780H625V248Q625 186 611.5 137.5Q598 89 565 55.5Q532 22 476 4Q420 -14 335 -14Z" glyph-name="Umacron" horiz-adv-x="670" unicode="&#362;" /><glyph d="M407 -58Q407 -72 417.5 -81Q428 -90 445 -90Q459 -90 467.5 -86.5Q476 -83 481 -80L522 -190Q506 -200 477 -208Q448 -216 414 -216Q350 -216 311 -189Q272 -162 272 -105Q272 -54 302 -13Q227 -10 177.5 9.5Q128 29 98.5 62.5Q69 96 57 142.5Q45 189 45 248V780H235V253Q235 230 239 211Q243 192 254 178.5Q265 165 284.5 157.5Q304 150 335 150Q366 150 385.5 157.5Q405 165 416 178.5Q427 192 431 211Q435 230 435 253V780H625V248Q625 200 616.5 159.5Q608 119 589 87.5Q570 56 538.5 33.5Q507 11 462 0Q432 -8 419.5 -24.5Q407 -41 407 -58Z" glyph-name="Uogonek" horiz-adv-x="670" unicode="&#370;" /><glyph d="M286 855Q286 835 300.5 820.5Q315 806 335 806Q355 806 369.5 820.5Q384 835 384 855Q384 875 369.5 889.5Q355 904 335 904Q315 904 300.5 889.5Q286 875 286 855ZM226 855Q226 877 234.5 897Q243 917 258 932Q273 947 292.5 955.5Q312 964 335 964Q357 964 377 955.5Q397 947 412 932Q427 917 435.5 897Q444 877 444 855Q444 832 435.5 812.5Q427 793 412 778Q397 763 377 754.5Q357 746 335 746Q312 746 292.5 754.5Q273 763 258 778Q243 793 234.5 812.5Q226 832 226 855ZM335 -14Q250 -14 194 4Q138 22 105 55.5Q72 89 58.5 137.5Q45 186 45 248V780H235V253Q235 230 239 211Q243 192 254 178.5Q265 165 284.5 157.5Q304 150 335 150Q366 150 385.5 157.5Q405 165 416 178.5Q427 192 431 211Q435 230 435 253V780H625V248Q625 186 611.5 137.5Q598 89 565 55.5Q532 22 476 4Q420 -14 335 -14Z" glyph-name="Uring" horiz-adv-x="670" unicode="&#366;" /><glyph d="M530 950Q530 914 520.5 890Q511 866 496 851.5Q481 837 461 830.5Q441 824 420 824Q396 824 374 831Q352 838 333.5 847Q315 856 298.5 863Q282 870 268 870Q254 870 244.5 863.5Q235 857 235 840H140Q140 876 149.5 900Q159 924 174 938.5Q189 953 209 959.5Q229 966 250 966Q274 966 296 959Q318 952 336.5 943Q355 934 371.5 927Q388 920 402 920Q416 920 425.5 926.5Q435 933 435 950ZM335 -14Q250 -14 194 4Q138 22 105 55.5Q72 89 58.5 137.5Q45 186 45 248V780H235V253Q235 230 239 211Q243 192 254 178.5Q265 165 284.5 157.5Q304 150 335 150Q366 150 385.5 157.5Q405 165 416 178.5Q427 192 431 211Q435 230 435 253V780H625V248Q625 186 611.5 137.5Q598 89 565 55.5Q532 22 476 4Q420 -14 335 -14Z" glyph-name="Utilde" horiz-adv-x="670" unicode="&#360;" /><glyph d="M195 0 9 780H212L325 220L437 780H641L455 0Z" glyph-name="V" horiz-adv-x="650" unicode="V" /><glyph d="M475 562 377 0H136L12 780H210L270 262L358 780H592L680 262L740 780H938L814 0H572Z" glyph-name="W" horiz-adv-x="950" unicode="W" /><glyph d="M630 950 566 840H384L437 950ZM475 562 377 0H136L12 780H210L270 262L358 780H592L680 262L740 780H938L814 0H572Z" glyph-name="Wacute" horiz-adv-x="950" unicode="&#7810;" /><glyph d="M250 840 380 950H570L700 840H535L475 879L415 840ZM475 562 377 0H136L12 780H210L270 262L358 780H592L680 262L740 780H938L814 0H572Z" glyph-name="Wcircumflex" horiz-adv-x="950" unicode="&#372;" /><glyph d="M460 840H310V950H460ZM640 840H490V950H640ZM475 562 377 0H136L12 780H210L270 262L358 780H592L680 262L740 780H938L814 0H572Z" glyph-name="Wdieresis" horiz-adv-x="950" unicode="&#7812;" /><glyph d="M513 950 566 840H384L320 950ZM475 562 377 0H136L12 780H210L270 262L358 780H592L680 262L740 780H938L814 0H572Z" glyph-name="Wgrave" horiz-adv-x="950" unicode="&#7808;" /><glyph d="M195 413 15 780H235L330 542L425 780H645L464 413L645 0H435L330 265L225 0H15Z" glyph-name="X" horiz-adv-x="660" unicode="X" /><glyph d="M415 0H225V240L4 780H212L320 474L428 780H636L415 240Z" glyph-name="Y" horiz-adv-x="640" unicode="Y" /><glyph d="M475 950 411 840H229L282 950ZM415 0H225V240L4 780H212L320 474L428 780H636L415 240Z" glyph-name="Yacute" horiz-adv-x="640" unicode="&#221;" /><glyph d="M95 840 225 950H415L545 840H380L320 879L260 840ZM415 0H225V240L4 780H212L320 474L428 780H636L415 240Z" glyph-name="Ycircumflex" horiz-adv-x="640" unicode="&#374;" /><glyph d="M305 840H155V950H305ZM485 840H335V950H485ZM415 0H225V240L4 780H212L320 474L428 780H636L415 240Z" glyph-name="Ydieresis" horiz-adv-x="640" unicode="&#376;" /><glyph d="M358 950 411 840H229L165 950ZM415 0H225V240L4 780H212L320 474L428 780H636L415 240Z" glyph-name="Ygrave" horiz-adv-x="640" unicode="&#7922;" /><glyph d="M160 950H480V840H160ZM415 0H225V240L4 780H212L320 474L428 780H636L415 240Z" glyph-name="Ymacron" horiz-adv-x="640" unicode="&#562;" /><glyph d="M328 620 180 616H50V780H560V650L272 160L420 164H570V0H40V130Z" glyph-name="Z" horiz-adv-x="610" unicode="Z" /><glyph d="M328 620 180 616H50V780H560V650L272 160L420 164H570V0H40V130ZM460 950 396 840H214L267 950Z" glyph-name="Zacute" horiz-adv-x="610" unicode="&#377;" /><glyph d="M328 620 180 616H50V780H560V650L272 160L420 164H570V0H40V130ZM245 950 305 910 365 950H530L400 840H210L80 950Z" glyph-name="Zcaron" horiz-adv-x="610" unicode="&#381;" /><glyph d="M380 840H230V950H380ZM328 620 180 616H50V780H560V650L272 160L420 164H570V0H40V130Z" glyph-name="Zdotaccent" horiz-adv-x="610" unicode="&#379;" /><glyph d="M260 134Q283 134 302 143Q321 152 332 163V244L260 233Q228 228 218 214.5Q208 201 208 183V177Q208 161 219.5 147.5Q231 134 260 134ZM350 50Q322 21 282.5 3.5Q243 -14 190 -14Q143 -14 111.5 -0.5Q80 13 60.5 36Q41 59 33 88.5Q25 118 25 150V160Q25 203 39 233Q53 263 78.5 282.5Q104 302 140 313.5Q176 325 220 332L332 350Q330 379 317.5 392.5Q305 406 275 406Q241 406 229.5 390Q218 374 218 355H45V364Q45 400 56.5 432.5Q68 465 95 490Q122 515 167 529.5Q212 544 280 544Q348 544 393.5 530.5Q439 517 466 491Q493 465 504.5 427Q516 389 516 340V150L526 0H360Z" glyph-name="a" horiz-adv-x="560" unicode="a" /><glyph d="M260 134Q283 134 302 143Q321 152 332 163V244L260 233Q228 228 218 214.5Q208 201 208 183V177Q208 161 219.5 147.5Q231 134 260 134ZM482 780 371 590H189L280 780ZM350 50Q322 21 282.5 3.5Q243 -14 190 -14Q143 -14 111.5 -0.5Q80 13 60.5 36Q41 59 33 88.5Q25 118 25 150V160Q25 203 39 233Q53 263 78.5 282.5Q104 302 140 313.5Q176 325 220 332L332 350Q330 379 317.5 392.5Q305 406 275 406Q241 406 229.5 390Q218 374 218 355H45V364Q45 400 56.5 432.5Q68 465 95 490Q122 515 167 529.5Q212 544 280 544Q348 544 393.5 530.5Q439 517 466 491Q493 465 504.5 427Q516 389 516 340V150L526 0H360Z" glyph-name="aacute" horiz-adv-x="560" unicode="&#225;" /><glyph d="M260 134Q283 134 302 143Q321 152 332 163V244L260 233Q228 228 218 214.5Q208 201 208 183V177Q208 161 219.5 147.5Q231 134 260 134ZM280 576Q224 576 186.5 591.5Q149 607 126 634Q103 661 93.5 698.5Q84 736 85 780H215Q215 739 235 726.5Q255 714 280 714Q305 714 325 726.5Q345 739 345 780H475Q476 736 466.5 698.5Q457 661 434 634Q411 607 373 591.5Q335 576 280 576ZM350 50Q322 21 282.5 3.5Q243 -14 190 -14Q143 -14 111.5 -0.5Q80 13 60.5 36Q41 59 33 88.5Q25 118 25 150V160Q25 203 39 233Q53 263 78.5 282.5Q104 302 140 313.5Q176 325 220 332L332 350Q330 379 317.5 392.5Q305 406 275 406Q241 406 229.5 390Q218 374 218 355H45V364Q45 400 56.5 432.5Q68 465 95 490Q122 515 167 529.5Q212 544 280 544Q348 544 393.5 530.5Q439 517 466 491Q493 465 504.5 427Q516 389 516 340V150L526 0H360Z" glyph-name="abreve" horiz-adv-x="560" unicode="&#259;" /><glyph d="M260 134Q283 134 302 143Q321 152 332 163V244L260 233Q228 228 218 214.5Q208 201 208 183V177Q208 161 219.5 147.5Q231 134 260 134ZM55 590 190 780H370L505 590H345L280 663L215 590ZM350 50Q322 21 282.5 3.5Q243 -14 190 -14Q143 -14 111.5 -0.5Q80 13 60.5 36Q41 59 33 88.5Q25 118 25 150V160Q25 203 39 233Q53 263 78.5 282.5Q104 302 140 313.5Q176 325 220 332L332 350Q330 379 317.5 392.5Q305 406 275 406Q241 406 229.5 390Q218 374 218 355H45V364Q45 400 56.5 432.5Q68 465 95 490Q122 515 167 529.5Q212 544 280 544Q348 544 393.5 530.5Q439 517 466 491Q493 465 504.5 427Q516 389 516 340V150L526 0H360Z" glyph-name="acircumflex" horiz-adv-x="560" unicode="&#226;" /><glyph d="M452 780 341 590H159L250 780Z" glyph-name="acute" horiz-adv-x="500" unicode="&#180;" /><glyph d="M405 950 341 840H159L212 950Z" glyph-name="acute.cap" horiz-adv-x="500" unicode="&#58402;" /><glyph d="M260 134Q283 134 302 143Q321 152 332 163V244L260 233Q228 228 218 214.5Q208 201 208 183V177Q208 161 219.5 147.5Q231 134 260 134ZM490 590H300V780H490ZM260 590H70V780H260ZM350 50Q322 21 282.5 3.5Q243 -14 190 -14Q143 -14 111.5 -0.5Q80 13 60.5 36Q41 59 33 88.5Q25 118 25 150V160Q25 203 39 233Q53 263 78.5 282.5Q104 302 140 313.5Q176 325 220 332L332 350Q330 379 317.5 392.5Q305 406 275 406Q241 406 229.5 390Q218 374 218 355H45V364Q45 400 56.5 432.5Q68 465 95 490Q122 515 167 529.5Q212 544 280 544Q348 544 393.5 530.5Q439 517 466 491Q493 465 504.5 427Q516 389 516 340V150L526 0H360Z" glyph-name="adieresis" horiz-adv-x="560" unicode="&#228;" /><glyph d="M587 406Q555 406 537.5 389Q520 372 516 330H658Q654 372 636.5 389Q619 406 587 406ZM341 168Q332 201 332 239L261 228Q229 223 218.5 209.5Q208 196 208 178V172Q208 156 219.5 142.5Q231 129 260 129Q288 129 310.5 143Q333 157 341 168ZM516 200Q521 155 542 139.5Q563 124 598 124Q628 124 648.5 137.5Q669 151 669 170H842V166Q842 126 825.5 93Q809 60 777.5 36Q746 12 700.5 -1Q655 -14 597 -14Q531 -14 482.5 4Q434 22 401 55Q362 24 311.5 5Q261 -14 205 -14Q154 -14 119.5 -0.5Q85 13 64 36Q43 59 34 88.5Q25 118 25 150V160Q25 203 39 233Q53 263 79 282.5Q105 302 141.5 313.5Q178 325 222 332L332 349Q330 378 317.5 392Q305 406 275 406Q241 406 229.5 390Q218 374 218 355H45V364Q45 400 56.5 432.5Q68 465 95 490Q122 515 167 529.5Q212 544 280 544Q341 544 379.5 530.5Q418 517 441 493Q467 517 504 530.5Q541 544 591 544Q655 544 702.5 524.5Q750 505 781 470Q812 435 827 386.5Q842 338 842 280V200Z" glyph-name="ae" horiz-adv-x="856" unicode="&#230;" /><glyph d="M260 134Q283 134 302 143Q321 152 332 163V244L260 233Q228 228 218 214.5Q208 201 208 183V177Q208 161 219.5 147.5Q231 134 260 134ZM280 780 371 590H189L78 780ZM350 50Q322 21 282.5 3.5Q243 -14 190 -14Q143 -14 111.5 -0.5Q80 13 60.5 36Q41 59 33 88.5Q25 118 25 150V160Q25 203 39 233Q53 263 78.5 282.5Q104 302 140 313.5Q176 325 220 332L332 350Q330 379 317.5 392.5Q305 406 275 406Q241 406 229.5 390Q218 374 218 355H45V364Q45 400 56.5 432.5Q68 465 95 490Q122 515 167 529.5Q212 544 280 544Q348 544 393.5 530.5Q439 517 466 491Q493 465 504.5 427Q516 389 516 340V150L526 0H360Z" glyph-name="agrave" horiz-adv-x="560" unicode="&#224;" /><glyph d="M282 -116Q282 -94 238 -94Q224 -94 209.5 -96.5Q195 -99 192 -101V-47Q202 -44 219 -40.5Q236 -37 261 -37Q310 -37 343.5 -58Q377 -79 377 -125Q377 -169 346.5 -192.5Q316 -216 252 -216Q213 -216 184 -207.5Q155 -199 141 -190L168 -121Q180 -129 199 -133.5Q218 -138 238 -138Q264 -138 273 -132Q282 -126 282 -116Z" glyph-name="altcedilla" horiz-adv-x="602" unicode="&#58390;" /><glyph d="M260 134Q283 134 302 143Q321 152 332 163V244L260 233Q228 228 218 214.5Q208 201 208 183V177Q208 161 219.5 147.5Q231 134 260 134ZM120 765H440V605H120ZM350 50Q322 21 282.5 3.5Q243 -14 190 -14Q143 -14 111.5 -0.5Q80 13 60.5 36Q41 59 33 88.5Q25 118 25 150V160Q25 203 39 233Q53 263 78.5 282.5Q104 302 140 313.5Q176 325 220 332L332 350Q330 379 317.5 392.5Q305 406 275 406Q241 406 229.5 390Q218 374 218 355H45V364Q45 400 56.5 432.5Q68 465 95 490Q122 515 167 529.5Q212 544 280 544Q348 544 393.5 530.5Q439 517 466 491Q493 465 504.5 427Q516 389 516 340V150L526 0H360Z" glyph-name="amacron" horiz-adv-x="560" unicode="&#257;" /><glyph d="M250 597Q250 577 255.5 557Q261 537 271 518Q297 535 312.5 553Q328 571 328 597V602Q328 621 318.5 632Q309 643 292 643H286Q269 643 259.5 632Q250 621 250 602ZM283 144Q315 144 342 153L222 300Q212 286 206.5 271Q201 256 201 236V231Q201 189 220.5 166.5Q240 144 278 144ZM246 -14Q190 -14 146.5 2.5Q103 19 73 49Q43 79 27.5 121Q12 163 12 213V224Q12 301 43 349.5Q74 398 118 430Q92 467 78 504.5Q64 542 64 598V609Q64 646 76 679.5Q88 713 115 738.5Q142 764 185 779Q228 794 289 794Q350 794 393 779Q436 764 463 738.5Q490 713 502 679.5Q514 646 514 609V598Q514 556 501.5 524.5Q489 493 468 469Q447 445 420.5 427Q394 409 366 394L462 276Q474 305 480 335Q486 365 486 393V395H681V390Q681 332 656.5 263Q632 194 580 132L688 0H467L444 28Q402 8 353 -3Q304 -14 246 -14Z" glyph-name="ampersand" horiz-adv-x="700" unicode="&amp;" /><glyph d="M206 360 368 -120H177L15 360L177 840H368Z" glyph-name="anglebracketleft" horiz-adv-x="380" unicode="&#12296;" /><glyph d="M211 390 348 0H157L20 390L157 780H348Z" glyph-name="anglebracketleft.cap" horiz-adv-x="380" unicode="&#58519;" /><glyph d="M174 360 12 840H203L365 360L203 -120H12Z" glyph-name="anglebracketright" horiz-adv-x="380" unicode="&#12297;" /><glyph d="M32 780H223L360 390L223 0H32L169 390Z" glyph-name="anglebracketright.cap" horiz-adv-x="380" unicode="&#58520;" /><glyph d="M336 -105Q336 -80 343 -58Q350 -36 363 -17L350 50Q322 21 282.5 3.5Q243 -14 190 -14Q143 -14 111.5 -0.5Q80 13 60.5 36Q41 59 33 88.5Q25 118 25 150V160Q25 203 39 233Q53 263 78.5 282.5Q104 302 140 313.5Q176 325 220 332L332 350Q330 379 317.5 392.5Q305 406 275 406Q241 406 229.5 390Q218 374 218 355H45V364Q45 400 56.5 432.5Q68 465 95 490Q122 515 167 529.5Q212 544 280 544Q348 544 393.5 530.5Q439 517 466 491Q493 465 504.5 427Q516 389 516 340V150L526 0Q471 -25 471 -58Q471 -72 481.5 -81Q492 -90 509 -90Q523 -90 531.5 -86.5Q540 -83 545 -80L586 -190Q570 -200 541 -208Q512 -216 478 -216Q414 -216 375 -189Q336 -162 336 -105ZM260 134Q283 134 302 143Q321 152 332 163V244L260 233Q228 228 218 214.5Q208 201 208 183V177Q208 161 219.5 147.5Q231 134 260 134Z" glyph-name="aogonek" horiz-adv-x="560" unicode="&#261;" /><glyph d="M186 602Q225 602 254.5 592Q284 582 309 570Q334 558 357 548Q380 538 405 538Q435 538 457 554Q479 570 490 584L575 499Q549 457 508.5 427.5Q468 398 414 398Q375 398 345.5 408Q316 418 291 430Q266 442 243 452Q220 462 195 462Q165 462 143 446Q121 430 110 416L25 501Q51 543 91.5 572.5Q132 602 186 602ZM186 382Q225 382 254.5 372Q284 362 309 350Q334 338 357 328Q380 318 405 318Q435 318 457 334Q479 350 490 364L575 279Q549 237 508.5 207.5Q468 178 414 178Q375 178 345.5 188Q316 198 291 210Q266 222 243 232Q220 242 195 242Q165 242 143 226Q121 210 110 196L25 281Q51 323 91.5 352.5Q132 382 186 382Z" glyph-name="approxequal" horiz-adv-x="600" unicode="&#8776;" /><glyph d="M231 685Q231 665 245.5 650.5Q260 636 280 636Q300 636 314.5 650.5Q329 665 329 685Q329 705 314.5 719.5Q300 734 280 734Q260 734 245.5 719.5Q231 705 231 685ZM260 134Q283 134 302 143Q321 152 332 163V244L260 233Q228 228 218 214.5Q208 201 208 183V177Q208 161 219.5 147.5Q231 134 260 134ZM171 685Q171 707 179.5 727Q188 747 203 762Q218 777 237.5 785.5Q257 794 280 794Q302 794 322 785.5Q342 777 357 762Q372 747 380.5 727Q389 707 389 685Q389 662 380.5 642.5Q372 623 357 608Q342 593 322 584.5Q302 576 280 576Q257 576 237.5 584.5Q218 593 203 608Q188 623 179.5 642.5Q171 662 171 685ZM350 50Q322 21 282.5 3.5Q243 -14 190 -14Q143 -14 111.5 -0.5Q80 13 60.5 36Q41 59 33 88.5Q25 118 25 150V160Q25 203 39 233Q53 263 78.5 282.5Q104 302 140 313.5Q176 325 220 332L332 350Q330 379 317.5 392.5Q305 406 275 406Q241 406 229.5 390Q218 374 218 355H45V364Q45 400 56.5 432.5Q68 465 95 490Q122 515 167 529.5Q212 544 280 544Q348 544 393.5 530.5Q439 517 466 491Q493 465 504.5 427Q516 389 516 340V150L526 0H360Z" glyph-name="aring" horiz-adv-x="560" unicode="&#229;" /><glyph d="M70 607 378 299V780H542V299L850 607V376L460 -14L70 376Z" glyph-name="arrowdown" horiz-adv-x="920" unicode="&#8595;" /><glyph d="M677 780 369 472H850V308H369L677 0H446L56 390L446 780Z" glyph-name="arrowleft" horiz-adv-x="920" unicode="&#8592;" /><glyph d="M474 780 864 390 474 0H243L551 308H70V472H551L243 780Z" glyph-name="arrowright" horiz-adv-x="920" unicode="&#8594;" /><glyph d="M70 404 460 794 850 404V173L542 481V0H378V481L70 173Z" glyph-name="arrowup" horiz-adv-x="920" unicode="&#8593;" /><glyph d="M586 260H404L300 559L196 260H14L210 780H390Z" glyph-name="asciicircum" horiz-adv-x="600" unicode="^" /><glyph d="M186 492Q225 492 254.5 482Q284 472 309 460Q334 448 357 438Q380 428 405 428Q435 428 457 444Q479 460 490 474L575 389Q549 347 508.5 317.5Q468 288 414 288Q375 288 345.5 298Q316 308 291 320Q266 332 243 342Q220 352 195 352Q165 352 143 336Q121 320 110 306L25 391Q51 433 91.5 462.5Q132 492 186 492Z" glyph-name="asciitilde" horiz-adv-x="600" unicode="~" /><glyph d="M288 404 215 512 288 565 369 463ZM417 613 292 577 264 663 386 708ZM51 463 132 565 205 512 132 404ZM34 708 156 663 128 577 3 613ZM260 800 255 670H165L160 800Z" glyph-name="asterisk" horiz-adv-x="420" unicode="*" /><glyph d="M483 187Q510 187 527.5 200Q545 213 552 224V366Q545 377 527.5 390Q510 403 483 403Q449 403 433.5 380Q418 357 418 313V277Q418 233 433.5 210Q449 187 483 187ZM523 -96Q614 -96 696.5 -67.5Q779 -39 853 15L921 -77Q867 -120 814 -147Q761 -174 710 -189Q659 -204 611.5 -209Q564 -214 520 -214Q412 -214 321.5 -182.5Q231 -151 165 -90Q99 -29 62 61.5Q25 152 25 270V310Q25 428 62 518.5Q99 609 165 670Q231 731 320.5 762.5Q410 794 515 794Q607 794 690.5 772.5Q774 751 837 704Q900 657 937.5 582.5Q975 508 975 401V371Q975 281 954 221Q933 161 896 125.5Q859 90 808.5 75Q758 60 700 60H577L566 115Q546 84 513.5 65Q481 46 432 46Q387 46 353 62.5Q319 79 296 109.5Q273 140 261.5 182.5Q250 225 250 277V313Q250 365 261.5 407.5Q273 450 296 480.5Q319 511 353 527.5Q387 544 432 544Q481 544 513.5 524.5Q546 505 566 474L577 530H722L712 396V178Q754 181 781 192Q808 203 824 225.5Q840 248 846.5 283.5Q853 319 853 371V401Q853 486 823.5 540Q794 594 746.5 624Q699 654 639 665Q579 676 518 676H512Q432 676 365 653.5Q298 631 249 586Q200 541 172.5 472Q145 403 145 310V270Q145 177 172.5 108Q200 39 249 -6Q298 -51 366.5 -73.5Q435 -96 517 -96Z" glyph-name="at" horiz-adv-x="1000" unicode="@" /><glyph d="M483 287Q510 287 527.5 300Q545 313 552 324V466Q545 477 527.5 490Q510 503 483 503Q449 503 433.5 480Q418 457 418 413V377Q418 333 433.5 310Q449 287 483 287ZM523 4Q614 4 696.5 32.5Q779 61 853 115L921 23Q867 -20 814 -47Q761 -74 710 -89Q659 -104 611.5 -109Q564 -114 520 -114Q412 -114 321.5 -82.5Q231 -51 165 10Q99 71 62 161.5Q25 252 25 370V410Q25 528 62 618.5Q99 709 165 770Q231 831 320.5 862.5Q410 894 515 894Q607 894 690.5 872.5Q774 851 837 804Q900 757 937.5 682.5Q975 608 975 501V471Q975 381 954 321Q933 261 896 225.5Q859 190 808.5 175Q758 160 700 160H577L566 215Q546 184 513.5 165Q481 146 432 146Q387 146 353 162.5Q319 179 296 209.5Q273 240 261.5 282.5Q250 325 250 377V413Q250 465 261.5 507.5Q273 550 296 580.5Q319 611 353 627.5Q387 644 432 644Q481 644 513.5 624.5Q546 605 566 574L577 630H722L712 496V278Q754 281 781 292Q808 303 824 325.5Q840 348 846.5 383.5Q853 419 853 471V501Q853 586 823.5 640Q794 694 746.5 724Q699 754 639 765Q579 776 518 776H512Q432 776 365 753.5Q298 731 249 686Q200 641 172.5 572Q145 503 145 410V370Q145 277 172.5 208Q200 139 249 94Q298 49 366.5 26.5Q435 4 517 4Z" glyph-name="at.cap" horiz-adv-x="1000" unicode="&#58643;" /><glyph d="M260 134Q283 134 302 143Q321 152 332 163V244L260 233Q228 228 218 214.5Q208 201 208 183V177Q208 161 219.5 147.5Q231 134 260 134ZM495 780Q495 733 485.5 699.5Q476 666 459.5 645Q443 624 421.5 614Q400 604 375 604Q351 604 328.5 612Q306 620 285.5 629.5Q265 639 247.5 647Q230 655 215 655Q201 655 193 647Q185 639 185 620H65Q65 667 74.5 700.5Q84 734 100.5 755Q117 776 138.5 786Q160 796 185 796Q209 796 231.5 788Q254 780 274.5 770.5Q295 761 312.5 753Q330 745 345 745Q359 745 367 753Q375 761 375 780ZM350 50Q322 21 282.5 3.5Q243 -14 190 -14Q143 -14 111.5 -0.5Q80 13 60.5 36Q41 59 33 88.5Q25 118 25 150V160Q25 203 39 233Q53 263 78.5 282.5Q104 302 140 313.5Q176 325 220 332L332 350Q330 379 317.5 392.5Q305 406 275 406Q241 406 229.5 390Q218 374 218 355H45V364Q45 400 56.5 432.5Q68 465 95 490Q122 515 167 529.5Q212 544 280 544Q348 544 393.5 530.5Q439 517 466 491Q493 465 504.5 427Q516 389 516 340V150L526 0H360Z" glyph-name="atilde" horiz-adv-x="560" unicode="&#227;" /><glyph d="M233 185Q241 174 260.5 159Q280 144 310 144Q348 144 362.5 170Q377 196 377 245V285Q377 334 362.5 360Q348 386 310 386Q280 386 260.5 371Q241 356 233 345ZM233 490Q256 514 288 529Q320 544 365 544Q419 544 456.5 525.5Q494 507 517 473Q540 439 550 391Q560 343 560 285V245Q560 187 550 139Q540 91 517 57Q494 23 456.5 4.5Q419 -14 365 -14Q311 -14 275 7Q239 28 216 61L205 0H39L49 150V800H233Z" glyph-name="b" horiz-adv-x="585" unicode="b" /><glyph d="M15 840H195L425 -120H245Z" glyph-name="backslash" horiz-adv-x="438" unicode="\" /><glyph d="M194 780 386 0H206L14 780Z" glyph-name="backslash.cap" horiz-adv-x="400" unicode="&#58466;" /><glyph d="M398 202H272V328H398ZM232 368V162H438V368ZM600 530V0H70V530Z" glyph-name="ballotboxwithx" horiz-adv-x="680" unicode="&#9746;" /><glyph d="M50 840H230V-120H50Z" glyph-name="bar" horiz-adv-x="280" unicode="|" /><glyph d="M50 780H230V0H50Z" glyph-name="bar.cap" horiz-adv-x="280" unicode="&#58467;" /><glyph d="M216 840H66V950H216ZM233 185Q241 174 260.5 159Q280 144 310 144Q348 144 362.5 170Q377 196 377 245V285Q377 334 362.5 360Q348 386 310 386Q280 386 260.5 371Q241 356 233 345ZM233 490Q256 514 288 529Q320 544 365 544Q419 544 456.5 525.5Q494 507 517 473Q540 439 550 391Q560 343 560 285V245Q560 187 550 139Q540 91 517 57Q494 23 456.5 4.5Q419 -14 365 -14Q311 -14 275 7Q239 28 216 61L205 0H39L49 150V800H233Z" glyph-name="bdotaccent" horiz-adv-x="585" unicode="&#7683;" /><glyph d="M56 390Q56 474 88 547.5Q120 621 174.5 675.5Q229 730 302.5 762Q376 794 460 794Q544 794 617.5 762Q691 730 745.5 675.5Q800 621 832 547.5Q864 474 864 390Q864 306 832 232.5Q800 159 745.5 104.5Q691 50 617.5 18Q544 -14 460 -14Q376 -14 302.5 18Q229 50 174.5 104.5Q120 159 88 232.5Q56 306 56 390Z" glyph-name="blackcircle" horiz-adv-x="920" unicode="&#9679;" /><glyph d="M70 0V530H600V0Z" glyph-name="blacksmallsquare" horiz-adv-x="680" unicode="&#9642;" /><glyph d="M70 0V780H850V0Z" glyph-name="blacksquare" horiz-adv-x="920" unicode="&#9632;" /><glyph d="M350 680Q279 680 279 600V480Q279 395 217 360Q248 342 263.5 313Q279 284 279 240V120Q279 40 350 40V-120H320Q267 -120 225.5 -110Q184 -100 155 -77.5Q126 -55 110.5 -19Q95 17 95 70V200Q95 280 24 280V440Q95 440 95 520V650Q95 702 110.5 738.5Q126 775 155 797.5Q184 820 225.5 830Q267 840 320 840H350Z" glyph-name="braceleft" horiz-adv-x="380" unicode="{" /><glyph d="M350 620Q279 620 279 540V510Q279 425 217 390Q248 372 263.5 343Q279 314 279 270V232Q281 194 298 177Q315 160 350 160V0H320Q267 0 225.5 10Q184 20 155 42.5Q126 65 110.5 101Q95 137 95 190V230Q95 310 24 310V470Q95 470 95 550V590Q95 642 110.5 678.5Q126 715 155 737.5Q184 760 225.5 770Q267 780 320 780H350Z" glyph-name="braceleft.cap" horiz-adv-x="380" unicode="&#58517;" /><glyph d="M30 40Q101 40 101 120V240Q101 284 116.5 313Q132 342 162 360Q101 395 101 480V600Q101 680 30 680V840H60Q112 840 154 830Q196 820 225 797.5Q254 775 269.5 738.5Q285 702 285 650V520Q285 440 356 440V280Q288 280 285 208V70Q285 17 269.5 -19Q254 -55 225 -77.5Q196 -100 154 -110Q112 -120 60 -120H30Z" glyph-name="braceright" horiz-adv-x="380" unicode="}" /><glyph d="M30 780H60Q112 780 154 770Q196 760 225 737.5Q254 715 269.5 678.5Q285 642 285 590V550Q285 470 356 470V310Q285 310 285 230V190Q285 137 269.5 101Q254 65 225 42.5Q196 20 154 10Q112 0 60 0H30V160Q65 160 82 177Q99 194 101 232V270Q101 314 116.5 343Q132 372 162 390Q101 425 101 510V540Q101 620 30 620Z" glyph-name="braceright.cap" horiz-adv-x="380" unicode="&#58518;" /><glyph d="M350 840V680H239V40H350V-120H55V840Z" glyph-name="bracketleft" horiz-adv-x="380" unicode="[" /><glyph d="M350 780V620H239V160H350V0H55V780Z" glyph-name="bracketleft.cap" horiz-adv-x="380" unicode="&#58515;" /><glyph d="M30 -120V40H141V680H30V840H325V-120Z" glyph-name="bracketright" horiz-adv-x="380" unicode="]" /><glyph d="M30 0V160H141V620H30V780H325V0Z" glyph-name="bracketright.cap" horiz-adv-x="380" unicode="&#58516;" /><glyph d="M250 576Q194 576 156.5 591.5Q119 607 96 634Q73 661 63.5 698.5Q54 736 55 780H185Q185 739 205 726.5Q225 714 250 714Q275 714 295 726.5Q315 739 315 780H445Q446 736 436.5 698.5Q427 661 404 634Q381 607 343 591.5Q305 576 250 576Z" glyph-name="breve" horiz-adv-x="500" unicode="&#728;" /><glyph d="M250 824Q190 824 152 834.5Q114 845 92.5 862Q71 879 63 902Q55 925 55 950H180Q180 935 196 927.5Q212 920 250 920Q288 920 304 927.5Q320 935 320 950H445Q445 925 437 902Q429 879 407.5 862Q386 845 348 834.5Q310 824 250 824Z" glyph-name="breve.cap" horiz-adv-x="500" unicode="&#58406;" /><glyph d="M50 340H230V-120H50ZM50 840H230V380H50Z" glyph-name="brokenbar" horiz-adv-x="280" unicode="&#166;" /><glyph d="M50 370H230V0H50ZM50 780H230V410H50Z" glyph-name="brokenbar.cap" horiz-adv-x="280" unicode="&#58469;" /><glyph d="M400 180H60V520H400Z" glyph-name="bullet" horiz-adv-x="460" unicode="&#8226;" /><glyph d="M400 220H60V560H400Z" glyph-name="bullet.cap" horiz-adv-x="460" unicode="&#58470;" /><glyph d="M208 245Q208 196 222.5 170Q237 144 274 144Q301 144 316.5 159Q332 174 332 200H505V176Q505 88 445.5 37Q386 -14 270 -14Q206 -14 159.5 4.5Q113 23 83 57Q53 91 39 139Q25 187 25 245V285Q25 343 39 391Q53 439 83 473Q113 507 159.5 525.5Q206 544 270 544Q386 544 445.5 491.5Q505 439 505 344V320H332Q332 355 316.5 370.5Q301 386 274 386Q237 386 222.5 360Q208 334 208 285Z" glyph-name="c" horiz-adv-x="528" unicode="c" /><glyph d="M472 780 361 590H179L270 780ZM208 245Q208 196 222.5 170Q237 144 274 144Q301 144 316.5 159Q332 174 332 200H505V176Q505 88 445.5 37Q386 -14 270 -14Q206 -14 159.5 4.5Q113 23 83 57Q53 91 39 139Q25 187 25 245V285Q25 343 39 391Q53 439 83 473Q113 507 159.5 525.5Q206 544 270 544Q386 544 445.5 491.5Q505 439 505 344V320H332Q332 355 316.5 370.5Q301 386 274 386Q237 386 222.5 360Q208 334 208 285Z" glyph-name="cacute" horiz-adv-x="528" unicode="&#263;" /><glyph d="M185 780 250 706 315 780H475L340 590H160L25 780Z" glyph-name="caron" horiz-adv-x="500" unicode="&#711;" /><glyph d="M190 950 250 910 310 950H475L345 840H155L25 950Z" glyph-name="caron.cap" horiz-adv-x="500" unicode="&#58413;" /><glyph d="M405 800 380 590H300V800Z" glyph-name="caronSlovak" horiz-adv-x="500" unicode="&#58387;" /><glyph d="M205 780 270 706 335 780H495L360 590H180L45 780ZM208 245Q208 196 222.5 170Q237 144 274 144Q301 144 316.5 159Q332 174 332 200H505V176Q505 88 445.5 37Q386 -14 270 -14Q206 -14 159.5 4.5Q113 23 83 57Q53 91 39 139Q25 187 25 245V285Q25 343 39 391Q53 439 83 473Q113 507 159.5 525.5Q206 544 270 544Q386 544 445.5 491.5Q505 439 505 344V320H332Q332 355 316.5 370.5Q301 386 274 386Q237 386 222.5 360Q208 334 208 285Z" glyph-name="ccaron" horiz-adv-x="528" unicode="&#269;" /><glyph d="M188 -121Q200 -129 219 -133.5Q238 -138 258 -138Q284 -138 293 -132Q302 -126 302 -116Q302 -105 293 -99.5Q284 -94 258 -94Q250 -94 243.5 -95Q237 -96 231 -97Q224 -98 218 -99L204 -70L227 -12Q174 -6 136 15Q98 36 73 69.5Q48 103 36.5 147.5Q25 192 25 245V285Q25 343 39 391Q53 439 83 473Q113 507 159.5 525.5Q206 544 270 544Q386 544 445.5 491.5Q505 439 505 344V320H332Q332 355 316.5 370.5Q301 386 274 386Q237 386 222.5 360Q208 334 208 285V245Q208 196 222.5 170Q237 144 274 144Q301 144 316.5 159Q332 174 332 200H505V176Q505 95 455 45.5Q405 -4 307 -12L297 -37Q340 -41 368.5 -62Q397 -83 397 -125Q397 -169 366.5 -192.5Q336 -216 272 -216Q233 -216 204 -207.5Q175 -199 161 -190Z" glyph-name="ccedilla" horiz-adv-x="528" unicode="&#231;" /><glyph d="M45 590 180 780H360L495 590H335L270 663L205 590ZM208 245Q208 196 222.5 170Q237 144 274 144Q301 144 316.5 159Q332 174 332 200H505V176Q505 88 445.5 37Q386 -14 270 -14Q206 -14 159.5 4.5Q113 23 83 57Q53 91 39 139Q25 187 25 245V285Q25 343 39 391Q53 439 83 473Q113 507 159.5 525.5Q206 544 270 544Q386 544 445.5 491.5Q505 439 505 344V320H332Q332 355 316.5 370.5Q301 386 274 386Q237 386 222.5 360Q208 334 208 285Z" glyph-name="ccircumflex" horiz-adv-x="528" unicode="&#265;" /><glyph d="M365 590H175V780H365ZM208 245Q208 196 222.5 170Q237 144 274 144Q301 144 316.5 159Q332 174 332 200H505V176Q505 88 445.5 37Q386 -14 270 -14Q206 -14 159.5 4.5Q113 23 83 57Q53 91 39 139Q25 187 25 245V285Q25 343 39 391Q53 439 83 473Q113 507 159.5 525.5Q206 544 270 544Q386 544 445.5 491.5Q505 439 505 344V320H332Q332 355 316.5 370.5Q301 386 274 386Q237 386 222.5 360Q208 334 208 285Z" glyph-name="cdotaccent" horiz-adv-x="528" unicode="&#267;" /><glyph d="M168 -121Q180 -129 199 -133.5Q218 -138 238 -138Q264 -138 273 -132Q282 -126 282 -116Q282 -105 273 -99.5Q264 -94 238 -94Q230 -94 223.5 -95Q217 -96 211 -97Q204 -98 198 -99L184 -70L212 0H292L277 -37Q320 -41 348.5 -62Q377 -83 377 -125Q377 -169 346.5 -192.5Q316 -216 252 -216Q213 -216 184 -207.5Q155 -199 141 -190Z" glyph-name="cedilla" horiz-adv-x="602" unicode="&#184;" /><glyph d="M386 463Q387 571 312 571H304Q279 571 262.5 559Q246 547 236.5 525Q227 503 223 473.5Q219 444 219 409V371Q219 336 223 306.5Q227 277 236.5 255Q246 233 262.5 221Q279 209 304 209H312Q347 209 365.5 234Q384 259 385 298H568V281Q568 162 502 105.5Q436 49 305 49H284L258 -60H118L152 84Q90 119 61 190.5Q32 262 32 370V410Q32 571 97 651.5Q162 732 305 732H307L333 840H473L442 710Q505 685 536.5 634Q568 583 568 494V463Z" glyph-name="cent" horiz-adv-x="600" unicode="&#162;" /><glyph d="M25 590 160 780H340L475 590H315L250 663L185 590Z" glyph-name="circumflex" horiz-adv-x="500" unicode="&#710;" /><glyph d="M25 840 155 950H345L475 840H310L250 879L190 840Z" glyph-name="circumflex.cap" horiz-adv-x="500" unicode="&#58403;" /><glyph d="M349 0Q368 37 381.5 73Q395 109 404.5 147Q414 185 420.5 227Q427 269 431 320L428 321Q415 290 396 261Q377 232 352 209.5Q327 187 296 173.5Q265 160 228 160Q191 160 159 173.5Q127 187 103 210.5Q79 234 65.5 265.5Q52 297 52 334Q52 373 64.5 406Q77 439 100 463Q123 487 155 500.5Q187 514 226 514Q252 514 272.5 507Q293 500 310 491L312 493Q295 518 284.5 547.5Q274 577 274 610Q274 647 287.5 680Q301 713 324.5 737.5Q348 762 380 776Q412 790 450 790Q488 790 520 776Q552 762 575.5 737.5Q599 713 612.5 680Q626 647 626 610Q626 577 615.5 547.5Q605 518 588 493L590 491Q607 500 627.5 507Q648 514 674 514Q713 514 745 500.5Q777 487 800 463Q823 439 835.5 406Q848 373 848 334Q848 297 834.5 265.5Q821 234 797 210.5Q773 187 741 173.5Q709 160 672 160Q635 160 604 173.5Q573 187 548 209.5Q523 232 504 261Q485 290 472 321L469 320Q473 269 479.5 227Q486 185 495.5 147Q505 109 518.5 73Q532 37 551 0Z" glyph-name="club" horiz-adv-x="900" unicode="&#9827;" /><glyph d="M235 295H45V485H235ZM235 0H45V190H235Z" glyph-name="colon" horiz-adv-x="280" unicode=":" /><glyph d="M245 295H55V485H245ZM245 0H55V190H245Z" glyph-name="colon.T" horiz-adv-x="300" unicode="&#61828;" /><glyph d="M235 40Q235 -150 45 -150V-60Q121 -60 139 0H45V190H235Z" glyph-name="comma" horiz-adv-x="280" unicode="," /><glyph d="M245 40Q245 -150 55 -150V-60Q131 -60 149 0H55V190H245Z" glyph-name="comma.T" horiz-adv-x="300" unicode="&#61827;" /><glyph d="M330 -100Q330 -172 291.5 -201Q253 -230 170 -230V-170Q202 -170 224.5 -163.5Q247 -157 258 -140H170V-40H330Z" glyph-name="commaaccent" horiz-adv-x="602" unicode="&#58388;" /><glyph d="M175 860Q175 970 325 970V930Q296 930 275.5 924.5Q255 919 244 900H325V840H175Z" glyph-name="commaaccent.cap" horiz-adv-x="500" unicode="&#58414;" /><glyph d="M464 282Q488 282 502 295Q516 308 516 332H671V310Q671 232 617.5 186Q564 140 460 140Q403 140 361.5 156.5Q320 173 293 203.5Q266 234 253.5 277Q241 320 241 372V408Q241 460 253.5 503Q266 546 293 576.5Q320 607 361.5 623.5Q403 640 460 640Q564 640 617.5 593Q671 546 671 461V439H516Q516 471 502 484.5Q488 498 464 498Q431 498 418 475Q405 452 405 408V372Q405 328 418 305Q431 282 464 282ZM116 390Q116 319 143 256Q170 193 216.5 146.5Q263 100 326 73Q389 46 460 46Q531 46 594 73Q657 100 703.5 146.5Q750 193 777 256Q804 319 804 390Q804 461 777 524Q750 587 703.5 633.5Q657 680 594 707Q531 734 460 734Q389 734 326 707Q263 680 216.5 633.5Q170 587 143 524Q116 461 116 390ZM56 390Q56 474 88 547.5Q120 621 174.5 675.5Q229 730 302.5 762Q376 794 460 794Q544 794 617.5 762Q691 730 745.5 675.5Q800 621 832 547.5Q864 474 864 390Q864 306 832 232.5Q800 159 745.5 104.5Q691 50 617.5 18Q544 -14 460 -14Q376 -14 302.5 18Q229 50 174.5 104.5Q120 159 88 232.5Q56 306 56 390Z" glyph-name="copyright" horiz-adv-x="920" unicode="&#169;" /><glyph d="M361 345Q353 356 333.5 371Q314 386 284 386Q246 386 231.5 360Q217 334 217 285V245Q217 196 231.5 170Q246 144 284 144Q314 144 333.5 159Q353 174 361 185ZM229 544Q274 544 306 529Q338 514 361 490V800H545V150L555 0H389L377 61Q354 28 318.5 7Q283 -14 229 -14Q175 -14 137.5 4.5Q100 23 77 57Q54 91 44 139Q34 187 34 245V285Q34 343 44 391Q54 439 77 473Q100 507 137.5 525.5Q175 544 229 544Z" glyph-name="d" horiz-adv-x="595" unicode="d" /><glyph d="M25 665 155 660V570L25 565ZM260 800 255 670H165L160 800ZM395 565 265 570V660L395 665ZM165 560H255L260 430L255 300H165L160 430Z" glyph-name="dagger" horiz-adv-x="420" unicode="&#8224;" /><glyph d="M160 495 165 560H255L260 495ZM260 495 255 430H165L160 495ZM25 425 155 420V330L25 325ZM260 800 255 670H165L160 800ZM25 665 155 660V570L25 565ZM395 565 265 570V660L395 665ZM395 325 265 330V420L395 425ZM165 320H255L260 190L255 60H165L160 190Z" glyph-name="daggerdbl" horiz-adv-x="420" unicode="&#8225;" /><glyph d="M700 800 675 590H595V800ZM361 345Q353 356 333.5 371Q314 386 284 386Q246 386 231.5 360Q217 334 217 285V245Q217 196 231.5 170Q246 144 284 144Q314 144 333.5 159Q353 174 361 185ZM229 544Q274 544 306 529Q338 514 361 490V800H545V150L555 0H389L377 61Q354 28 318.5 7Q283 -14 229 -14Q175 -14 137.5 4.5Q100 23 77 57Q54 91 44 139Q34 187 34 245V285Q34 343 44 391Q54 439 77 473Q100 507 137.5 525.5Q175 544 229 544Z" glyph-name="dcaron" horiz-adv-x="595" unicode="&#271;" /><glyph d="M361 345Q353 356 333.5 371Q314 386 284 386Q246 386 231.5 360Q217 334 217 285V245Q217 196 231.5 170Q246 144 284 144Q314 144 333.5 159Q353 174 361 185ZM545 600V150L555 0H389L377 61Q354 28 318.5 7Q283 -14 229 -14Q175 -14 137.5 4.5Q100 23 77 57Q54 91 44 139Q34 187 34 245V285Q34 343 44 391Q54 439 77 473Q100 507 137.5 525.5Q175 544 229 544Q274 544 306 529Q338 514 361 490V600H254V730H361V800H545V730H605V600Z" glyph-name="dcroat" horiz-adv-x="595" unicode="&#273;" /><glyph d="M528 840H378V950H528ZM361 345Q353 356 333.5 371Q314 386 284 386Q246 386 231.5 360Q217 334 217 285V245Q217 196 231.5 170Q246 144 284 144Q314 144 333.5 159Q353 174 361 185ZM229 544Q274 544 306 529Q338 514 361 490V800H545V150L555 0H389L377 61Q354 28 318.5 7Q283 -14 229 -14Q175 -14 137.5 4.5Q100 23 77 57Q54 91 44 139Q34 187 34 245V285Q34 343 44 391Q54 439 77 473Q100 507 137.5 525.5Q175 544 229 544Z" glyph-name="ddotaccent" horiz-adv-x="595" unicode="&#7691;" /><glyph d="M365 625Q365 587 352.5 556.5Q340 526 318 505Q296 484 265.5 472.5Q235 461 200 461Q165 461 134.5 472.5Q104 484 82 505Q60 526 47.5 556.5Q35 587 35 625V630Q35 668 47.5 698.5Q60 729 82 750Q104 771 134.5 782.5Q165 794 200 794Q235 794 265.5 782.5Q296 771 318 750Q340 729 352.5 698.5Q365 668 365 630ZM256 630Q256 655 240.5 669.5Q225 684 202 684H198Q175 684 159.5 669.5Q144 655 144 630V625Q144 600 159.5 585.5Q175 571 198 571H202Q225 571 240.5 585.5Q256 600 256 625Z" glyph-name="degree" horiz-adv-x="400" unicode="&#176;" /><glyph d="M817 390Q764 348 712.5 300.5Q661 253 614 201.5Q567 150 525.5 96.5Q484 43 451 -10H449Q416 43 374.5 96.5Q333 150 286 201.5Q239 253 187.5 300.5Q136 348 83 390Q136 432 187.5 479.5Q239 527 286 578.5Q333 630 374.5 683.5Q416 737 449 790H451Q484 737 525.5 683.5Q567 630 614 578.5Q661 527 712.5 479.5Q764 432 817 390Z" glyph-name="diamond" horiz-adv-x="900" unicode="&#9830;" /><glyph d="M460 590H270V780H460ZM230 590H40V780H230Z" glyph-name="dieresis" horiz-adv-x="500" unicode="&#168;" /><glyph d="M415 840H265V950H415ZM235 840H85V950H235Z" glyph-name="dieresis.cap" horiz-adv-x="500" unicode="&#58409;" /><glyph d="M395 500H205V690H395ZM395 90H205V280H395ZM40 472H560V308H40Z" glyph-name="divide" horiz-adv-x="600" unicode="&#247;" /><glyph d="M306 200Q342 200 359 217Q376 234 376 251Q376 268 370.5 279.5Q365 291 351 299Q337 307 313 313Q289 319 252 325Q201 334 162 346.5Q123 359 96.5 380Q70 401 56.5 432.5Q43 464 43 511V522Q43 574 61 613Q79 652 112.5 678.5Q146 705 193.5 718.5Q241 732 300 732H315L341 840H481L449 705Q558 653 558 503V490H373Q373 509 369.5 525.5Q366 542 357.5 554.5Q349 567 334.5 574Q320 581 299 581H294Q258 581 243.5 564.5Q229 548 229 525Q229 508 234 497.5Q239 487 252.5 480.5Q266 474 289 469Q312 464 348 459Q400 451 440.5 438.5Q481 426 508.5 405Q536 384 550 352Q564 320 564 273V262Q564 160 498 104.5Q432 49 300 49H292L266 -60H126L157 72Q99 96 68 146.5Q37 197 37 278V283H224Q224 200 301 200Z" glyph-name="dollar" horiz-adv-x="600" unicode="$" /><glyph d="M345 590H155V780H345Z" glyph-name="dotaccent" horiz-adv-x="500" unicode="&#729;" /><glyph d="M325 840H175V950H325Z" glyph-name="dotaccent.cap" horiz-adv-x="500" unicode="&#58408;" /><glyph d="M330 -200H170V-40H330Z" glyph-name="dotbelow" horiz-adv-x="602" unicode="&#58389;" /><glyph d="M48 530H232V0H48Z" glyph-name="dotlessi" horiz-adv-x="280" unicode="&#305;" /><glyph d="M48 530H232V-5Q232 -63 216.5 -103Q201 -143 173.5 -167.5Q146 -192 107 -203Q68 -214 20 -214Q-18 -214 -40 -209Q-62 -204 -69 -200V-50Q-65 -52 -50 -54Q-35 -56 -23 -56Q9 -56 28.5 -43Q48 -30 48 15Z" glyph-name="dotlessj" horiz-adv-x="280" unicode="&#567;" /><glyph d="M270 840H450V-120H270ZM50 840H230V-120H50Z" glyph-name="doublebar" horiz-adv-x="500" unicode="&#8214;" /><glyph d="M270 780H450V0H270ZM50 780H230V0H50Z" glyph-name="doublebar.cap" horiz-adv-x="500" unicode="&#58468;" /><glyph d="M345 780 407 590H265L183 780ZM145 780 236 590H94L-17 780Z" glyph-name="doublegrave" horiz-adv-x="500" unicode="&#58386;" /><glyph d="M188 950 241 840H79L15 950ZM378 950 421 840H259L205 950Z" glyph-name="doublegrave.cap" horiz-adv-x="500" unicode="&#58412;" /><glyph d="M280 406Q248 406 230.5 389Q213 372 209 330H351Q347 372 329.5 389Q312 406 280 406ZM209 200Q214 155 235 139.5Q256 124 291 124Q321 124 341.5 137.5Q362 151 362 170H535V166Q535 126 518.5 93Q502 60 470.5 36Q439 12 393.5 -1Q348 -14 290 -14Q222 -14 172 5.5Q122 25 89.5 60Q57 95 41 143.5Q25 192 25 250V280Q25 338 41.5 386.5Q58 435 90.5 470Q123 505 171.5 524.5Q220 544 284 544Q348 544 395.5 524.5Q443 505 474 470Q505 435 520 386.5Q535 338 535 280V200Z" glyph-name="e" horiz-adv-x="560" unicode="e" /><glyph d="M280 406Q248 406 230.5 389Q213 372 209 330H351Q347 372 329.5 389Q312 406 280 406ZM486 780 375 590H193L284 780ZM209 200Q214 155 235 139.5Q256 124 291 124Q321 124 341.5 137.5Q362 151 362 170H535V166Q535 126 518.5 93Q502 60 470.5 36Q439 12 393.5 -1Q348 -14 290 -14Q222 -14 172 5.5Q122 25 89.5 60Q57 95 41 143.5Q25 192 25 250V280Q25 338 41.5 386.5Q58 435 90.5 470Q123 505 171.5 524.5Q220 544 284 544Q348 544 395.5 524.5Q443 505 474 470Q505 435 520 386.5Q535 338 535 280V200Z" glyph-name="eacute" horiz-adv-x="560" unicode="&#233;" /><glyph d="M280 406Q248 406 230.5 389Q213 372 209 330H351Q347 372 329.5 389Q312 406 280 406ZM284 576Q228 576 190.5 591.5Q153 607 130 634Q107 661 97.5 698.5Q88 736 89 780H219Q219 739 239 726.5Q259 714 284 714Q309 714 329 726.5Q349 739 349 780H479Q480 736 470.5 698.5Q461 661 438 634Q415 607 377 591.5Q339 576 284 576ZM209 200Q214 155 235 139.5Q256 124 291 124Q321 124 341.5 137.5Q362 151 362 170H535V166Q535 126 518.5 93Q502 60 470.5 36Q439 12 393.5 -1Q348 -14 290 -14Q222 -14 172 5.5Q122 25 89.5 60Q57 95 41 143.5Q25 192 25 250V280Q25 338 41.5 386.5Q58 435 90.5 470Q123 505 171.5 524.5Q220 544 284 544Q348 544 395.5 524.5Q443 505 474 470Q505 435 520 386.5Q535 338 535 280V200Z" glyph-name="ebreve" horiz-adv-x="560" unicode="&#277;" /><glyph d="M280 406Q248 406 230.5 389Q213 372 209 330H351Q347 372 329.5 389Q312 406 280 406ZM219 780 284 706 349 780H509L374 590H194L59 780ZM209 200Q214 155 235 139.5Q256 124 291 124Q321 124 341.5 137.5Q362 151 362 170H535V166Q535 126 518.5 93Q502 60 470.5 36Q439 12 393.5 -1Q348 -14 290 -14Q222 -14 172 5.5Q122 25 89.5 60Q57 95 41 143.5Q25 192 25 250V280Q25 338 41.5 386.5Q58 435 90.5 470Q123 505 171.5 524.5Q220 544 284 544Q348 544 395.5 524.5Q443 505 474 470Q505 435 520 386.5Q535 338 535 280V200Z" glyph-name="ecaron" horiz-adv-x="560" unicode="&#283;" /><glyph d="M280 406Q248 406 230.5 389Q213 372 209 330H351Q347 372 329.5 389Q312 406 280 406ZM59 590 194 780H374L509 590H349L284 663L219 590ZM209 200Q214 155 235 139.5Q256 124 291 124Q321 124 341.5 137.5Q362 151 362 170H535V166Q535 126 518.5 93Q502 60 470.5 36Q439 12 393.5 -1Q348 -14 290 -14Q222 -14 172 5.5Q122 25 89.5 60Q57 95 41 143.5Q25 192 25 250V280Q25 338 41.5 386.5Q58 435 90.5 470Q123 505 171.5 524.5Q220 544 284 544Q348 544 395.5 524.5Q443 505 474 470Q505 435 520 386.5Q535 338 535 280V200Z" glyph-name="ecircumflex" horiz-adv-x="560" unicode="&#234;" /><glyph d="M280 406Q248 406 230.5 389Q213 372 209 330H351Q347 372 329.5 389Q312 406 280 406ZM494 590H304V780H494ZM264 590H74V780H264ZM209 200Q214 155 235 139.5Q256 124 291 124Q321 124 341.5 137.5Q362 151 362 170H535V166Q535 126 518.5 93Q502 60 470.5 36Q439 12 393.5 -1Q348 -14 290 -14Q222 -14 172 5.5Q122 25 89.5 60Q57 95 41 143.5Q25 192 25 250V280Q25 338 41.5 386.5Q58 435 90.5 470Q123 505 171.5 524.5Q220 544 284 544Q348 544 395.5 524.5Q443 505 474 470Q505 435 520 386.5Q535 338 535 280V200Z" glyph-name="edieresis" horiz-adv-x="560" unicode="&#235;" /><glyph d="M280 406Q248 406 230.5 389Q213 372 209 330H351Q347 372 329.5 389Q312 406 280 406ZM379 590H189V780H379ZM209 200Q214 155 235 139.5Q256 124 291 124Q321 124 341.5 137.5Q362 151 362 170H535V166Q535 126 518.5 93Q502 60 470.5 36Q439 12 393.5 -1Q348 -14 290 -14Q222 -14 172 5.5Q122 25 89.5 60Q57 95 41 143.5Q25 192 25 250V280Q25 338 41.5 386.5Q58 435 90.5 470Q123 505 171.5 524.5Q220 544 284 544Q348 544 395.5 524.5Q443 505 474 470Q505 435 520 386.5Q535 338 535 280V200Z" glyph-name="edotaccent" horiz-adv-x="560" unicode="&#279;" /><glyph d="M280 406Q248 406 230.5 389Q213 372 209 330H351Q347 372 329.5 389Q312 406 280 406ZM284 780 375 590H193L82 780ZM209 200Q214 155 235 139.5Q256 124 291 124Q321 124 341.5 137.5Q362 151 362 170H535V166Q535 126 518.5 93Q502 60 470.5 36Q439 12 393.5 -1Q348 -14 290 -14Q222 -14 172 5.5Q122 25 89.5 60Q57 95 41 143.5Q25 192 25 250V280Q25 338 41.5 386.5Q58 435 90.5 470Q123 505 171.5 524.5Q220 544 284 544Q348 544 395.5 524.5Q443 505 474 470Q505 435 520 386.5Q535 338 535 280V200Z" glyph-name="egrave" horiz-adv-x="560" unicode="&#232;" /><glyph d="M295 632Q266 632 246 613Q226 594 226 563V553Q226 479 298 479H302Q374 479 374 553V563Q374 594 354 613Q334 632 305 632ZM295 317Q221 317 221 243V233Q221 188 243.5 168Q266 148 295 148H305Q334 148 356.5 168Q379 188 379 233V243Q379 317 305 317ZM300 -14Q225 -14 174.5 8.5Q124 31 93 64.5Q62 98 48.5 137.5Q35 177 35 211V231Q35 294 60.5 335Q86 376 124 399Q89 423 64.5 463.5Q40 504 40 565V585Q40 617 52.5 654Q65 691 95 722Q125 753 175 773.5Q225 794 300 794Q375 794 425 773.5Q475 753 505 722Q535 691 547.5 654Q560 617 560 585V565Q560 504 535.5 463.5Q511 423 476 399Q513 376 539 335Q565 294 565 231V211Q565 177 551.5 137.5Q538 98 507 64.5Q476 31 425.5 8.5Q375 -14 300 -14Z" glyph-name="eight" horiz-adv-x="600" unicode="8" /><glyph d="M150 -209Q106 -209 79 -196Q52 -183 37.5 -165Q23 -147 18 -128Q13 -109 13 -96V-85Q13 -53 25.5 -31.5Q38 -10 57 0Q37 10 26 32Q15 54 15 83V94Q15 106 20 123.5Q25 141 39.5 157.5Q54 174 80.5 186Q107 198 150 198Q193 198 219.5 186Q246 174 260.5 157.5Q275 141 280 123.5Q285 106 285 94V83Q285 54 274 32Q263 10 243 0Q262 -10 274.5 -31.5Q287 -53 287 -85V-96Q287 -109 282 -128Q277 -147 262.5 -165Q248 -183 221 -196Q194 -209 150 -209ZM157 84Q157 91 150 91Q143 91 143 84V55Q143 48 150 48Q157 48 157 55ZM157 -65Q157 -58 150 -58Q143 -58 143 -65V-94Q143 -101 150 -101Q157 -101 157 -94Z" glyph-name="eight.inf" horiz-adv-x="300" unicode="&#58745;" /><glyph d="M1256 131Q1256 138 1249 138Q1242 138 1242 131V106Q1242 99 1249 99Q1256 99 1256 106ZM1365 282Q1332 282 1306.5 277.5Q1281 273 1267 262Q1252 250 1246 233Q1254 240 1269 243Q1284 246 1294 246Q1339 246 1363 214Q1387 182 1387 128V118Q1387 91 1379.5 68Q1372 45 1355.5 28Q1339 11 1312.5 1Q1286 -9 1248 -9Q1211 -9 1185 3Q1159 15 1142.5 35.5Q1126 56 1118.5 83.5Q1111 111 1111 142V150Q1111 173 1114 197.5Q1117 222 1123.5 246Q1130 270 1140.5 292Q1151 314 1167 332Q1186 354 1208.5 367Q1231 380 1255.5 387Q1280 394 1307.5 396Q1335 398 1365 398ZM822 0V113H889V231L862 213L798 306L918 388H1021V113H1087V0ZM337 0 913 780H1063L487 0ZM322 390V503H389V621L362 603L298 696L418 778H521V503H587V390ZM22 390V503H89V621L62 603L-2 696L118 778H221V503H287V390Z" glyph-name="elevensixteenths" horiz-adv-x="1400" unicode="&#61984;" /><glyph d="M595 0H405V190H595ZM915 0H725V190H915ZM275 0H85V190H275Z" glyph-name="ellipsis" horiz-adv-x="1000" unicode="&#8230;" /><glyph d="M280 406Q248 406 230.5 389Q213 372 209 330H351Q347 372 329.5 389Q312 406 280 406ZM124 765H444V605H124ZM209 200Q214 155 235 139.5Q256 124 291 124Q321 124 341.5 137.5Q362 151 362 170H535V166Q535 126 518.5 93Q502 60 470.5 36Q439 12 393.5 -1Q348 -14 290 -14Q222 -14 172 5.5Q122 25 89.5 60Q57 95 41 143.5Q25 192 25 250V280Q25 338 41.5 386.5Q58 435 90.5 470Q123 505 171.5 524.5Q220 544 284 544Q348 544 395.5 524.5Q443 505 474 470Q505 435 520 386.5Q535 338 535 280V200Z" glyph-name="emacron" horiz-adv-x="560" unicode="&#275;" /><glyph d="M40 430H960V270H40Z" glyph-name="emdash" horiz-adv-x="1000" unicode="&#8212;" /><glyph d="M40 470H960V310H40Z" glyph-name="emdash.cap" horiz-adv-x="1000" unicode="&#58502;" /><glyph glyph-name="emspace" horiz-adv-x="1000" unicode="&#8195;" /><glyph d="M40 430H460V270H40Z" glyph-name="endash" horiz-adv-x="500" unicode="&#8211;" /><glyph d="M40 470H460V310H40Z" glyph-name="endash.cap" horiz-adv-x="500" unicode="&#58500;" /><glyph d="M367 325Q367 334 365.5 345Q364 356 358 365Q352 374 341 380Q330 386 311 386Q281 386 261.5 371Q242 356 234 345V0H50V380L40 530H206L218 464Q244 499 285 521.5Q326 544 386 544Q433 544 464.5 528Q496 512 515.5 485.5Q535 459 543 425Q551 391 551 355V-5Q551 -63 535.5 -103Q520 -143 492.5 -167.5Q465 -192 426 -203Q387 -214 339 -214Q301 -214 279 -209Q257 -204 250 -200V-50Q254 -52 269 -54Q284 -56 296 -56Q328 -56 347.5 -43Q367 -30 367 15Z" glyph-name="eng" horiz-adv-x="595" unicode="&#331;" /><glyph glyph-name="enspace" horiz-adv-x="500" unicode="&#8194;" /><glyph d="M280 406Q248 406 230.5 389Q213 372 209 330H351Q347 372 329.5 389Q312 406 280 406ZM341 -58Q341 -72 351.5 -81Q362 -90 379 -90Q393 -90 401.5 -86.5Q410 -83 415 -80L456 -190Q440 -200 411 -208Q382 -216 348 -216Q284 -216 245 -189Q206 -162 206 -105Q206 -78 214.5 -54.5Q223 -31 238 -11Q184 -4 143.5 18Q103 40 77 74Q51 108 38 152.5Q25 197 25 250V280Q25 338 41.5 386.5Q58 435 90.5 470Q123 505 171.5 524.5Q220 544 284 544Q348 544 395.5 524.5Q443 505 474 470Q505 435 520 386.5Q535 338 535 280V200H209Q214 155 235 139.5Q256 124 291 124Q321 124 341.5 137.5Q362 151 362 170H535V166Q535 106 499.5 63.5Q464 21 396 0Q367 -9 354 -25Q341 -41 341 -58Z" glyph-name="eogonek" horiz-adv-x="560" unicode="&#281;" /><glyph d="M40 362H560V198H40ZM40 582H560V418H40Z" glyph-name="equal" horiz-adv-x="600" unicode="=" /><glyph d="M17 -24H283V-138H17ZM17 128H283V14H17Z" glyph-name="equal.inf" horiz-adv-x="300" unicode="&#58749;" /><glyph d="M40 472H560V308H40ZM40 252H560V88H40ZM40 692H560V528H40Z" glyph-name="equivalence" horiz-adv-x="600" unicode="&#8801;" /><glyph d="M280 144Q318 144 335 170Q352 196 352 245V285Q352 334 335 360Q318 386 280 386Q242 386 225 360Q208 334 208 285V245Q208 196 225 170Q242 144 280 144ZM25 814Q106 809 181 794Q256 779 318 747L440 814V714L398 691Q417 672 432 653Q463 611 483 566Q503 521 514.5 474Q526 427 530.5 379Q535 331 535 285V245Q535 187 520 139Q505 91 473.5 57Q442 23 394 4.5Q346 -14 280 -14Q214 -14 166 4.5Q118 23 86.5 57Q55 91 40 139Q25 187 25 245V285Q25 343 40 391Q55 439 83.5 473Q112 507 154 525.5Q196 544 250 544Q272 544 297 539L289 550Q266 576 228 598L50 500V600L116 636Q95 641 72 644.5Q49 648 25 650Z" glyph-name="eth" horiz-adv-x="560" unicode="&#240;" /><glyph d="M235 0H45V190H235ZM255 780 205 240H75L25 780Z" glyph-name="exclam" horiz-adv-x="280" unicode="!" /><glyph d="M45 530H235V340H45ZM25 -200 75 290H205L255 -200Z" glyph-name="exclamdown" horiz-adv-x="280" unicode="&#161;" /><glyph d="M45 780H235V590H45ZM25 0 75 540H205L255 0Z" glyph-name="exclamdown.cap" horiz-adv-x="280" unicode="&#58433;" /><glyph d="M279 530H386V370H279V0H95V370H15V530H95V605Q95 663 110.5 703Q126 743 153.5 767.5Q181 792 220 803Q259 814 307 814Q345 814 367 809Q389 804 396 800V650Q392 652 377 654Q362 656 350 656Q318 656 298.5 643Q279 630 279 585Z" glyph-name="f" horiz-adv-x="420" unicode="f" /><glyph d="M320 840H170V950H320ZM279 530H386V370H279V0H95V370H15V530H95V605Q95 663 110.5 703Q126 743 153.5 767.5Q181 792 220 803Q259 814 307 814Q345 814 367 809Q389 804 396 800V650Q392 652 377 654Q362 656 350 656Q318 656 298.5 643Q279 630 279 585Z" glyph-name="fdotaccent" horiz-adv-x="420" unicode="&#7711;" /><glyph d="M655 590H465V780H655ZM468 530H652V0H468ZM279 530H386V370H279V0H95V370H15V530H95V605Q95 663 110.5 703Q126 743 153.5 767.5Q181 792 220 803Q259 814 307 814Q345 814 367 809Q389 804 396 800V650Q392 652 377 654Q362 656 350 656Q318 656 298.5 643Q279 630 279 585Z" glyph-name="fi" horiz-adv-x="700" unicode="&#64257;" /><glyph d="M1256 131Q1256 138 1249 138Q1242 138 1242 131V106Q1242 99 1249 99Q1256 99 1256 106ZM1365 282Q1332 282 1306.5 277.5Q1281 273 1267 262Q1252 250 1246 233Q1254 240 1269 243Q1284 246 1294 246Q1339 246 1363 214Q1387 182 1387 128V118Q1387 91 1379.5 68Q1372 45 1355.5 28Q1339 11 1312.5 1Q1286 -9 1248 -9Q1211 -9 1185 3Q1159 15 1142.5 35.5Q1126 56 1118.5 83.5Q1111 111 1111 142V150Q1111 173 1114 197.5Q1117 222 1123.5 246Q1130 270 1140.5 292Q1151 314 1167 332Q1186 354 1208.5 367Q1231 380 1255.5 387Q1280 394 1307.5 396Q1335 398 1365 398ZM822 0V113H889V231L862 213L798 306L918 388H1021V113H1087V0ZM337 0 913 780H1063L487 0ZM444 515V496Q444 489 451 489Q458 489 458 496V523Q458 536 443 536H442Q436 536 429 532L315 572L323 780H582V666H432L430 639Q436 644 449.5 647Q463 650 480 650Q536 650 561.5 614.5Q587 579 587 522V509Q587 482 580 459Q573 436 557 418.5Q541 401 514.5 391Q488 381 450 381Q382 381 347 412.5Q312 444 312 506V515ZM22 390V503H89V621L62 603L-2 696L118 778H221V503H287V390Z" glyph-name="fifteensixteenths" horiz-adv-x="1400" unicode="&#61986;" /><glyph d="M40 430H560V270H40Z" glyph-name="figuredash" horiz-adv-x="600" unicode="&#8210;" /><glyph d="M40 470H560V310H40Z" glyph-name="figuredash.cap" horiz-adv-x="600" unicode="&#58503;" /><glyph glyph-name="figurespace" horiz-adv-x="600" unicode="&#8199;" /><glyph d="M221 250Q221 220 227 200.5Q233 181 243.5 169Q254 157 267 152.5Q280 148 295 148H305Q334 148 356.5 169Q379 190 379 243V253Q379 306 355.5 327Q332 348 295 348H290Q266 348 240.5 336.5Q215 325 201 300L41 355L59 780H555V618H214L209 492Q232 500 257.5 505Q283 510 310 510Q373 510 421 492Q469 474 501 441Q533 408 549 361.5Q565 315 565 258V238Q565 181 549 134.5Q533 88 500 55Q467 22 417 4Q367 -14 300 -14Q167 -14 101 50.5Q35 115 35 236V250Z" glyph-name="five" horiz-adv-x="600" unicode="5" /><glyph d="M144 -75V-94Q144 -101 151 -101Q158 -101 158 -94V-67Q158 -54 143 -54H142Q136 -54 129 -58L15 -18L23 190H282V76H132L130 49Q136 54 149.5 57Q163 60 180 60Q236 60 261.5 24.5Q287 -11 287 -68V-81Q287 -108 280 -131Q273 -154 257 -171.5Q241 -189 214.5 -199Q188 -209 150 -209Q82 -209 47 -177.5Q12 -146 12 -84V-75Z" glyph-name="five.inf" horiz-adv-x="300" unicode="&#58742;" /><glyph d="M956 131Q956 138 949 138Q942 138 942 131V106Q942 99 949 99Q956 99 956 106ZM1065 282Q1032 282 1006.5 277.5Q981 273 967 262Q952 250 946 233Q954 240 969 243Q984 246 994 246Q1039 246 1063 214Q1087 182 1087 128V118Q1087 91 1079.5 68Q1072 45 1055.5 28Q1039 11 1012.5 1Q986 -9 948 -9Q911 -9 885 3Q859 15 842.5 35.5Q826 56 818.5 83.5Q811 111 811 142V150Q811 173 814 197.5Q817 222 823.5 246Q830 270 840.5 292Q851 314 867 332Q886 354 908.5 367Q931 380 955.5 387Q980 394 1007.5 396Q1035 398 1065 398ZM522 0V113H589V231L562 213L498 306L618 388H721V113H787V0ZM37 0 613 780H763L187 0ZM144 515V496Q144 489 151 489Q158 489 158 496V523Q158 536 143 536H142Q136 536 129 532L15 572L23 780H282V666H132L130 639Q136 644 149.5 647Q163 650 180 650Q236 650 261.5 614.5Q287 579 287 522V509Q287 482 280 459Q273 436 257 418.5Q241 401 214.5 391Q188 381 150 381Q82 381 47 412.5Q12 444 12 506V515Z" glyph-name="fivesixteenths" horiz-adv-x="1100" unicode="&#61975;" /><glyph d="M468 800H652V0H468ZM279 530H386V370H279V0H95V370H15V530H95V605Q95 663 110.5 703Q126 743 153.5 767.5Q181 792 220 803Q259 814 307 814Q345 814 367 809Q389 804 396 800V650Q392 652 377 654Q362 656 350 656Q318 656 298.5 643Q279 630 279 585Z" glyph-name="fl" horiz-adv-x="700" unicode="&#64258;" /><glyph d="M215 319 256 321H317V442L319 486ZM317 0V159H25V290L328 780H503V321H575V159H503V0Z" glyph-name="four" horiz-adv-x="600" unicode="4" /><glyph d="M142 -25 144 15 120 -25ZM142 -200V-137H10V-44L149 190H274V-23H290V-137H274V-200Z" glyph-name="four.inf" horiz-adv-x="300" unicode="&#58741;" /><glyph glyph-name="fourperemspace" horiz-adv-x="250" unicode="&#8197;" /><glyph d="M-263 0 313 780H463L-113 0Z" glyph-name="fraction" horiz-adv-x="200" unicode="&#8260;" /><glyph d="M352 345Q344 356 324.5 371Q305 386 275 386Q241 386 224.5 361.5Q208 337 208 295V265Q208 216 224.5 195Q241 174 275 174Q305 174 324.5 189Q344 204 352 215ZM352 66Q329 43 297 29.5Q265 16 220 16Q167 16 130 33Q93 50 70 82.5Q47 115 36 161Q25 207 25 265V295Q25 349 36 395Q47 441 70 474Q93 507 130 525.5Q167 544 220 544Q274 544 310 524Q346 504 369 472L380 530H546L536 380V15Q536 -102 472.5 -158Q409 -214 280 -214Q211 -214 164 -199Q117 -184 88.5 -158.5Q60 -133 47.5 -98.5Q35 -64 35 -24V0H208Q208 -13 210.5 -25Q213 -37 220.5 -46Q228 -55 241.5 -60.5Q255 -66 276 -66Q313 -66 332.5 -50Q352 -34 352 15Z" glyph-name="g" horiz-adv-x="585" unicode="g" /><glyph d="M352 345Q344 356 324.5 371Q305 386 275 386Q241 386 224.5 361.5Q208 337 208 295V265Q208 216 224.5 195Q241 174 275 174Q305 174 324.5 189Q344 204 352 215ZM285 576Q229 576 191.5 591.5Q154 607 131 634Q108 661 98.5 698.5Q89 736 90 780H220Q220 739 240 726.5Q260 714 285 714Q310 714 330 726.5Q350 739 350 780H480Q481 736 471.5 698.5Q462 661 439 634Q416 607 378 591.5Q340 576 285 576ZM352 66Q329 43 297 29.5Q265 16 220 16Q167 16 130 33Q93 50 70 82.5Q47 115 36 161Q25 207 25 265V295Q25 349 36 395Q47 441 70 474Q93 507 130 525.5Q167 544 220 544Q274 544 310 524Q346 504 369 472L380 530H546L536 380V15Q536 -102 472.5 -158Q409 -214 280 -214Q211 -214 164 -199Q117 -184 88.5 -158.5Q60 -133 47.5 -98.5Q35 -64 35 -24V0H208Q208 -13 210.5 -25Q213 -37 220.5 -46Q228 -55 241.5 -60.5Q255 -66 276 -66Q313 -66 332.5 -50Q352 -34 352 15Z" glyph-name="gbreve" horiz-adv-x="585" unicode="&#287;" /><glyph d="M352 345Q344 356 324.5 371Q305 386 275 386Q241 386 224.5 361.5Q208 337 208 295V265Q208 216 224.5 195Q241 174 275 174Q305 174 324.5 189Q344 204 352 215ZM60 590 195 780H375L510 590H350L285 663L220 590ZM352 66Q329 43 297 29.5Q265 16 220 16Q167 16 130 33Q93 50 70 82.5Q47 115 36 161Q25 207 25 265V295Q25 349 36 395Q47 441 70 474Q93 507 130 525.5Q167 544 220 544Q274 544 310 524Q346 504 369 472L380 530H546L536 380V15Q536 -102 472.5 -158Q409 -214 280 -214Q211 -214 164 -199Q117 -184 88.5 -158.5Q60 -133 47.5 -98.5Q35 -64 35 -24V0H208Q208 -13 210.5 -25Q213 -37 220.5 -46Q228 -55 241.5 -60.5Q255 -66 276 -66Q313 -66 332.5 -50Q352 -34 352 15Z" glyph-name="gcircumflex" horiz-adv-x="585" unicode="&#285;" /><glyph d="M352 345Q344 356 324.5 371Q305 386 275 386Q241 386 224.5 361.5Q208 337 208 295V265Q208 216 224.5 195Q241 174 275 174Q305 174 324.5 189Q344 204 352 215ZM200 660Q200 732 238.5 763Q277 794 360 794V734Q327 734 304.5 726.5Q282 719 271 700H360V590H200ZM352 66Q329 43 297 29.5Q265 16 220 16Q167 16 130 33Q93 50 70 82.5Q47 115 36 161Q25 207 25 265V295Q25 349 36 395Q47 441 70 474Q93 507 130 525.5Q167 544 220 544Q274 544 310 524Q346 504 369 472L380 530H546L536 380V15Q536 -102 472.5 -158Q409 -214 280 -214Q211 -214 164 -199Q117 -184 88.5 -158.5Q60 -133 47.5 -98.5Q35 -64 35 -24V0H208Q208 -13 210.5 -25Q213 -37 220.5 -46Q228 -55 241.5 -60.5Q255 -66 276 -66Q313 -66 332.5 -50Q352 -34 352 15Z" glyph-name="gcommaaccent" horiz-adv-x="585" unicode="&#291;" /><glyph d="M352 345Q344 356 324.5 371Q305 386 275 386Q241 386 224.5 361.5Q208 337 208 295V265Q208 216 224.5 195Q241 174 275 174Q305 174 324.5 189Q344 204 352 215ZM375 590H185V780H375ZM352 66Q329 43 297 29.5Q265 16 220 16Q167 16 130 33Q93 50 70 82.5Q47 115 36 161Q25 207 25 265V295Q25 349 36 395Q47 441 70 474Q93 507 130 525.5Q167 544 220 544Q274 544 310 524Q346 504 369 472L380 530H546L536 380V15Q536 -102 472.5 -158Q409 -214 280 -214Q211 -214 164 -199Q117 -184 88.5 -158.5Q60 -133 47.5 -98.5Q35 -64 35 -24V0H208Q208 -13 210.5 -25Q213 -37 220.5 -46Q228 -55 241.5 -60.5Q255 -66 276 -66Q313 -66 332.5 -50Q352 -34 352 15Z" glyph-name="gdotaccent" horiz-adv-x="585" unicode="&#289;" /><glyph d="M291 439Q330 460 357.5 494Q385 528 385 570Q385 608 367 632Q349 656 307 656Q286 656 271 649Q256 642 246.5 631Q237 620 232.5 606.5Q228 593 228 580V0H44V589Q44 635 58 676Q72 717 103 748Q134 779 184 796.5Q234 814 307 814Q375 814 424.5 795Q474 776 506 745Q538 714 553.5 673.5Q569 633 569 590V579Q569 515 544.5 472.5Q520 430 478 398L494 387Q561 342 596.5 289.5Q632 237 632 176V166Q632 130 623 97.5Q614 65 592 40Q570 15 533 0.5Q496 -14 440 -14Q384 -14 348.5 0Q313 14 293 37.5Q273 61 265.5 93Q258 125 258 161V170H401Q401 148 406 136Q411 124 425 124Q440 124 444 135.5Q448 147 448 163Q448 180 436 206Q424 232 389 256L291 324Z" glyph-name="germandbls" horiz-adv-x="650" unicode="&#223;" /><glyph d="M250 780 341 590H159L48 780Z" glyph-name="grave" horiz-adv-x="500" unicode="`" /><glyph d="M288 950 341 840H159L95 950Z" glyph-name="grave.cap" horiz-adv-x="500" unicode="&#58401;" /><glyph d="M560 300 40 104V286L339 390L40 494V676L560 480Z" glyph-name="greater" horiz-adv-x="600" unicode="&gt;" /><glyph d="M40 176 560 332V230L40 74ZM279 460 40 524V706L560 550V370L40 214V396Z" glyph-name="greaterequal" horiz-adv-x="600" unicode="&#8805;" /><glyph d="M530 415 433 340 530 265V105L310 250V430L530 575ZM270 415 173 340 270 265V105L50 250V430L270 575Z" glyph-name="guillemotleft" horiz-adv-x="580" unicode="&#171;" /><glyph d="M530 465 433 390 530 315V155L310 300V480L530 625ZM270 465 173 390 270 315V155L50 300V480L270 625Z" glyph-name="guillemotleft.cap" horiz-adv-x="580" unicode="&#58451;" /><glyph d="M50 575 270 430V250L50 105V265L147 340L50 415ZM310 575 530 430V250L310 105V265L407 340L310 415Z" glyph-name="guillemotright" horiz-adv-x="580" unicode="&#187;" /><glyph d="M50 625 270 480V300L50 155V315L147 390L50 465ZM310 625 530 480V300L310 155V315L407 390L310 465Z" glyph-name="guillemotright.cap" horiz-adv-x="580" unicode="&#58452;" /><glyph d="M270 415 173 340 270 265V105L50 250V430L270 575Z" glyph-name="guilsinglleft" horiz-adv-x="320" unicode="&#8249;" /><glyph d="M270 465 173 390 270 315V155L50 300V480L270 625Z" glyph-name="guilsinglleft.cap" horiz-adv-x="320" unicode="&#58449;" /><glyph d="M50 575 270 430V250L50 105V265L147 340L50 415Z" glyph-name="guilsinglright" horiz-adv-x="320" unicode="&#8250;" /><glyph d="M50 625 270 480V300L50 155V315L147 390L50 465Z" glyph-name="guilsinglright.cap" horiz-adv-x="320" unicode="&#58450;" /><glyph d="M234 483Q260 511 297.5 527.5Q335 544 386 544Q433 544 464.5 528Q496 512 515.5 485.5Q535 459 543 425Q551 391 551 355V0H367V325Q367 334 365.5 345Q364 356 358 365Q352 374 341 380Q330 386 311 386Q281 386 261.5 371Q242 356 234 345V0H50V800H234Z" glyph-name="h" horiz-adv-x="595" unicode="h" /><glyph glyph-name="hairspace" horiz-adv-x="50" unicode="&#8202;" /><glyph d="M234 730H341V600H234V483Q260 511 297.5 527.5Q335 544 386 544Q433 544 464.5 528Q496 512 515.5 485.5Q535 459 543 425Q551 391 551 355V0H368V325Q368 334 366 345Q364 356 358 365Q352 374 341 380Q330 386 311 386Q281 386 261.5 371Q242 356 234 345V0H50V600H-10V730H50V800H234Z" glyph-name="hbar" horiz-adv-x="595" unicode="&#295;" /><glyph d="M-83 840 47 950H237L367 840H202L142 879L82 840ZM234 483Q260 511 297.5 527.5Q335 544 386 544Q433 544 464.5 528Q496 512 515.5 485.5Q535 459 543 425Q551 391 551 355V0H367V325Q367 334 365.5 345Q364 356 358 365Q352 374 341 380Q330 386 311 386Q281 386 261.5 371Q242 356 234 345V0H50V800H234Z" glyph-name="hcircumflex" horiz-adv-x="595" unicode="&#293;" /><glyph d="M449 -10Q437 9 414 40Q391 71 360 110Q329 149 292.5 193.5Q256 238 216 283Q190 312 161 348Q132 384 108 423.5Q84 463 68 504Q52 545 52 584Q52 628 65 666Q78 704 103 731.5Q128 759 163.5 774.5Q199 790 243 790Q289 790 323 777Q357 764 381 742.5Q405 721 421 692.5Q437 664 448 633H452Q463 664 479 692.5Q495 721 519 742.5Q543 764 576.5 777Q610 790 657 790Q701 790 736.5 774.5Q772 759 796.5 731.5Q821 704 834.5 666Q848 628 848 584Q848 545 832 504Q816 463 792 423.5Q768 384 739 348Q710 312 684 283Q644 238 607.5 193.5Q571 149 540 110Q509 71 486 40Q463 9 451 -10Z" glyph-name="heart" horiz-adv-x="900" unicode="&#9829;" /><glyph d="M70 0V450L425 790L780 450V0Z" glyph-name="house" horiz-adv-x="850" unicode="&#8962;" /><glyph d="M317 780 235 590H93L155 780ZM517 780 406 590H264L355 780Z" glyph-name="hungarumlaut" horiz-adv-x="500" unicode="&#733;" /><glyph d="M485 950 421 840H259L312 950ZM295 950 241 840H79L122 950Z" glyph-name="hungarumlaut.cap" horiz-adv-x="500" unicode="&#58411;" /><glyph d="M40 430H320V270H40Z" glyph-name="hyphen" horiz-adv-x="360" unicode="-" /><glyph d="M40 470H320V310H40Z" glyph-name="hyphen.cap" horiz-adv-x="320" unicode="&#58498;" /><glyph d="M235 590H45V780H235ZM48 530H232V0H48Z" glyph-name="i" horiz-adv-x="280" unicode="i" /><glyph d="M342 780 231 590H49L140 780ZM48 530H232V0H48Z" glyph-name="iacute" horiz-adv-x="280" unicode="&#237;" /><glyph d="M140 576Q84 576 46.5 591.5Q9 607 -14 634Q-37 661 -46.5 698.5Q-56 736 -55 780H75Q75 739 95 726.5Q115 714 140 714Q165 714 185 726.5Q205 739 205 780H335Q336 736 326.5 698.5Q317 661 294 634Q271 607 233 591.5Q195 576 140 576ZM48 530H232V0H48Z" glyph-name="ibreve" horiz-adv-x="280" unicode="&#301;" /><glyph d="M-85 590 50 780H230L365 590H205L140 663L75 590ZM48 530H232V0H48Z" glyph-name="icircumflex" horiz-adv-x="280" unicode="&#238;" /><glyph d="M120 590H-70V780H120ZM350 590H160V780H350ZM48 530H232V0H48Z" glyph-name="idieresis" horiz-adv-x="280" unicode="&#239;" /><glyph d="M235 590H45V780H235ZM48 530H232V0H48Z" glyph-name="idotaccent" horiz-adv-x="280" unicode="&#59269;" /><glyph d="M140 780 231 590H49L-62 780ZM48 530H232V0H48Z" glyph-name="igrave" horiz-adv-x="280" unicode="&#236;" /><glyph d="M465 590H275V780H465ZM235 590H45V780H235ZM48 530H232V0H48ZM278 530H462V-5Q462 -63 446.5 -103Q431 -143 403.5 -167.5Q376 -192 337 -203Q298 -214 250 -214Q212 -214 190 -209Q168 -204 161 -200V-50Q165 -52 180 -54Q195 -56 207 -56Q239 -56 258.5 -43Q278 -30 278 15Z" glyph-name="ij" horiz-adv-x="510" unicode="&#307;" /><glyph d="M-20 765H300V605H-20ZM48 530H232V0H48Z" glyph-name="imacron" horiz-adv-x="280" unicode="&#299;" /><glyph d="M319 575Q319 610 290 625L287 484Q300 510 309.5 532Q319 554 319 575ZM345 0H155V190H345ZM228 240 220 625Q202 615 194 590.5Q186 566 186 520H20V539Q20 603 32.5 651Q45 699 73.5 730.5Q102 762 148 778Q194 794 260 794Q330 794 375.5 776Q421 758 447.5 729Q474 700 484.5 664.5Q495 629 495 595Q495 544 483 511Q471 478 452.5 454Q434 430 411.5 411Q389 392 369 369.5Q349 347 334 316.5Q319 286 315 240Z" glyph-name="interrobang" horiz-adv-x="510" unicode="&#8253;" /><glyph d="M201 12Q201 -10 207 -24.5Q213 -39 227 -46L230 104Q218 82 209.5 60Q201 38 201 12ZM165 530H355V340H165ZM15 -25Q15 23 27.5 55Q40 87 58.5 110Q77 133 99.5 150.5Q122 168 142 187Q162 206 176.5 230Q191 254 195 290H288L295 -41Q309 -30 316.5 -6Q324 18 324 60H490V41Q490 -23 477 -71Q464 -119 435.5 -150.5Q407 -182 361.5 -198Q316 -214 250 -214Q180 -214 134.5 -196.5Q89 -179 62.5 -152Q36 -125 25.5 -91.5Q15 -58 15 -25Z" glyph-name="interrobangdown" horiz-adv-x="510" unicode="&#59701;" /><glyph d="M191 205Q191 188 197.5 175Q204 162 220 155L223 296Q209 270 200 248Q191 226 191 205ZM165 780H355V590H165ZM15 185Q15 235 27 268.5Q39 302 57.5 326Q76 350 98.5 369Q121 388 141 410.5Q161 433 176 463.5Q191 494 195 540H282L290 155Q308 165 316 189.5Q324 214 324 260H490V241Q490 177 477 129Q464 81 435.5 49.5Q407 18 361.5 2Q316 -14 250 -14Q180 -14 134.5 4Q89 22 62.5 51Q36 80 25.5 115Q15 150 15 185Z" glyph-name="interrobangdown.cap" horiz-adv-x="510" unicode="&#59803;" /><glyph d="M250 794Q305 794 343 778.5Q381 763 404 736Q427 709 436.5 671.5Q446 634 445 590H315Q315 631 295 643.5Q275 656 250 656Q225 656 205 643.5Q185 631 185 590H55Q54 634 63.5 671.5Q73 709 96 736Q119 763 156.5 778.5Q194 794 250 794Z" glyph-name="invertedbreve" horiz-adv-x="500" unicode="&#58385;" /><glyph d="M250 966Q310 966 348 955.5Q386 945 407.5 928Q429 911 437 888Q445 865 445 840H320Q320 855 304 862.5Q288 870 250 870Q212 870 196 862.5Q180 855 180 840H55Q55 865 63 888Q71 911 92.5 928Q114 945 152 955.5Q190 966 250 966Z" glyph-name="invertedbreve.cap" horiz-adv-x="500" unicode="&#58407;" /><glyph d="M235 590H45V780H235ZM48 530H232V0Q177 -25 177 -58Q177 -72 187.5 -81Q198 -90 215 -90Q229 -90 237.5 -86.5Q246 -83 251 -80L292 -190Q276 -200 247 -208Q218 -216 184 -216Q120 -216 81 -189Q42 -162 42 -105Q42 -74 53 -47.5Q64 -21 83 0H48Z" glyph-name="iogonek" horiz-adv-x="280" unicode="&#303;" /><glyph d="M355 780Q355 733 345.5 699.5Q336 666 319.5 645Q303 624 281.5 614Q260 604 235 604Q211 604 188.5 612Q166 620 145.5 629.5Q125 639 107.5 647Q90 655 75 655Q61 655 53 647Q45 639 45 620H-75Q-75 667 -65.5 700.5Q-56 734 -39.5 755Q-23 776 -1.5 786Q20 796 45 796Q69 796 91.5 788Q114 780 134.5 770.5Q155 761 172.5 753Q190 745 205 745Q219 745 227 753Q235 761 235 780ZM48 530H232V0H48Z" glyph-name="itilde" horiz-adv-x="280" unicode="&#297;" /><glyph d="M235 590H45V780H235ZM48 530H232V-5Q232 -63 216.5 -103Q201 -143 173.5 -167.5Q146 -192 107 -203Q68 -214 20 -214Q-18 -214 -40 -209Q-62 -204 -69 -200V-50Q-65 -52 -50 -54Q-35 -56 -23 -56Q9 -56 28.5 -43Q48 -30 48 15Z" glyph-name="j" horiz-adv-x="280" unicode="j" /><glyph d="M-85 590 50 780H230L365 590H205L140 663L75 590ZM48 530H232V-5Q232 -63 216.5 -103Q201 -143 173.5 -167.5Q146 -192 107 -203Q68 -214 20 -214Q-18 -214 -40 -209Q-62 -204 -69 -200V-50Q-65 -52 -50 -54Q-35 -56 -23 -56Q9 -56 28.5 -43Q48 -30 48 15Z" glyph-name="jcircumflex" horiz-adv-x="280" unicode="&#309;" /><glyph d="M45 800H229V382L345 530H565L391 329L565 0H350L264 182L229 141V0H45Z" glyph-name="k" horiz-adv-x="580" unicode="k" /><glyph d="M367 -100Q367 -172 328.5 -201Q290 -230 207 -230V-170Q239 -170 261.5 -163.5Q284 -157 295 -140H207V-40H367ZM45 800H229V382L345 530H565L391 329L565 0H350L264 182L229 141V0H45Z" glyph-name="kcommaaccent" horiz-adv-x="580" unicode="&#311;" /><glyph d="M45 530H229V382L345 530H565L391 329L565 0H350L264 182L229 141V0H45Z" glyph-name="kgreenlandic" horiz-adv-x="580" unicode="&#312;" /><glyph d="M48 800H232V0H48Z" glyph-name="l" horiz-adv-x="280" unicode="l" /><glyph d="M295 950 231 840H49L102 950ZM48 800H232V0H48Z" glyph-name="lacute" horiz-adv-x="280" unicode="&#314;" /><glyph d="M387 800 362 590H282V800ZM48 800H232V0H48Z" glyph-name="lcaron" horiz-adv-x="280" unicode="&#318;" /><glyph d="M220 -100Q220 -172 181.5 -201Q143 -230 60 -230V-170Q92 -170 114.5 -163.5Q137 -157 148 -140H60V-40H220ZM48 800H232V0H48Z" glyph-name="lcommaaccent" horiz-adv-x="280" unicode="&#316;" /><glyph d="M470 255H280V445H470ZM48 800H232V0H48Z" glyph-name="ldot" horiz-adv-x="470" unicode="&#320;" /><glyph d="M560 676V494L261 390L560 286V104L40 300V480Z" glyph-name="less" horiz-adv-x="600" unicode="&lt;" /><glyph d="M560 74 40 230V332L560 176ZM321 460 560 396V214L40 370V550L560 706V524Z" glyph-name="lessequal" horiz-adv-x="600" unicode="&#8804;" /><glyph d="M40 582H560V188H396V418H40Z" glyph-name="logicalnot" horiz-adv-x="600" unicode="&#172;" /><glyph d="M40 160H280V0H40Z" glyph-name="lowline" horiz-adv-x="320" unicode="&#58641;" /><glyph d="M20 320 108 373V800H292V484L390 544V393L292 333V0H108V222L20 169Z" glyph-name="lslash" horiz-adv-x="400" unicode="&#322;" /><glyph d="M652 0V330Q652 353 641.5 369.5Q631 386 601 386Q575 386 559 373.5Q543 361 535 350V0H351V330Q351 353 340.5 369.5Q330 386 300 386Q274 386 258 373.5Q242 361 234 350V0H50V380L40 530H206L217 469Q242 503 280.5 523.5Q319 544 375 544Q429 544 462.5 521.5Q496 499 514 463Q538 499 578 521.5Q618 544 676 544Q719 544 749.5 529.5Q780 515 799 489.5Q818 464 827 430.5Q836 397 836 360V0Z" glyph-name="m" horiz-adv-x="880" unicode="m" /><glyph d="M90 765H410V605H90Z" glyph-name="macron" horiz-adv-x="500" unicode="&#175;" /><glyph d="M90 950H410V840H90Z" glyph-name="macron.cap" horiz-adv-x="500" unicode="&#58405;" /><glyph d="M539 590H349V780H539ZM652 0V330Q652 353 641.5 369.5Q631 386 601 386Q575 386 559 373.5Q543 361 535 350V0H351V330Q351 353 340.5 369.5Q330 386 300 386Q274 386 258 373.5Q242 361 234 350V0H50V380L40 530H206L217 469Q242 503 280.5 523.5Q319 544 375 544Q429 544 462.5 521.5Q496 499 514 463Q538 499 578 521.5Q618 544 676 544Q719 544 749.5 529.5Q780 515 799 489.5Q818 464 827 430.5Q836 397 836 360V0Z" glyph-name="mdotaccent" horiz-adv-x="880" unicode="&#7745;" /><glyph d="M56 265Q56 323 78 373.5Q100 424 138 462Q176 500 226.5 522Q277 544 335 544Q393 544 443.5 522Q494 500 532 462Q570 424 592 373.5Q614 323 614 265Q614 207 592 156.5Q570 106 532 68Q494 30 443.5 8Q393 -14 335 -14Q277 -14 226.5 8Q176 30 138 68Q100 106 78 156.5Q56 207 56 265Z" glyph-name="mediumblackcircle" horiz-adv-x="670" unicode="&#9899;" /><glyph d="M218 265Q218 241 227 219.5Q236 198 252 182Q268 166 289.5 157Q311 148 335 148Q359 148 380.5 157Q402 166 418 182Q434 198 443 219.5Q452 241 452 265Q452 289 443 310.5Q434 332 418 348Q402 364 380.5 373Q359 382 335 382Q311 382 289.5 373Q268 364 252 348Q236 332 227 310.5Q218 289 218 265ZM56 265Q56 323 78 373.5Q100 424 138 462Q176 500 226.5 522Q277 544 335 544Q393 544 443.5 522Q494 500 532 462Q570 424 592 373.5Q614 323 614 265Q614 207 592 156.5Q570 106 532 68Q494 30 443.5 8Q393 -14 335 -14Q277 -14 226.5 8Q176 30 138 68Q100 106 78 156.5Q56 207 56 265Z" glyph-name="mediumwhitecircle" horiz-adv-x="670" unicode="&#9898;" /><glyph d="M40 472H560V308H40Z" glyph-name="minus" horiz-adv-x="600" unicode="&#8722;" /><glyph d="M17 52H283V-62H17Z" glyph-name="minus.inf" horiz-adv-x="300" unicode="&#58748;" /><glyph d="M27 233 184 390 27 547 143 663 300 506 457 663 573 547 416 390 573 233 457 117 300 274 143 117Z" glyph-name="multiply" horiz-adv-x="600" unicode="&#215;" /><glyph d="M367 0V325Q367 334 365.5 345Q364 356 358 365Q352 374 341 380Q330 386 311 386Q281 386 261.5 371Q242 356 234 345V0H50V380L40 530H206L218 464Q244 499 285 521.5Q326 544 386 544Q433 544 464.5 528Q496 512 515.5 485.5Q535 459 543 425Q551 391 551 355V0Z" glyph-name="n" horiz-adv-x="595" unicode="n" /><glyph d="M503 780 392 590H210L301 780ZM367 0V325Q367 334 365.5 345Q364 356 358 365Q352 374 341 380Q330 386 311 386Q281 386 261.5 371Q242 356 234 345V0H50V380L40 530H206L218 464Q244 499 285 521.5Q326 544 386 544Q433 544 464.5 528Q496 512 515.5 485.5Q535 459 543 425Q551 391 551 355V0Z" glyph-name="nacute" horiz-adv-x="595" unicode="&#324;" /><glyph d="M236 780 301 706 366 780H526L391 590H211L76 780ZM367 0V325Q367 334 365.5 345Q364 356 358 365Q352 374 341 380Q330 386 311 386Q281 386 261.5 371Q242 356 234 345V0H50V380L40 530H206L218 464Q244 499 285 521.5Q326 544 386 544Q433 544 464.5 528Q496 512 515.5 485.5Q535 459 543 425Q551 391 551 355V0Z" glyph-name="ncaron" horiz-adv-x="595" unicode="&#328;" /><glyph d="M381 -100Q381 -172 342.5 -201Q304 -230 221 -230V-170Q253 -170 275.5 -163.5Q298 -157 309 -140H221V-40H381ZM367 0V325Q367 334 365.5 345Q364 356 358 365Q352 374 341 380Q330 386 311 386Q281 386 261.5 371Q242 356 234 345V0H50V380L40 530H206L218 464Q244 499 285 521.5Q326 544 386 544Q433 544 464.5 528Q496 512 515.5 485.5Q535 459 543 425Q551 391 551 355V0Z" glyph-name="ncommaaccent" horiz-adv-x="595" unicode="&#326;" /><glyph d="M298 449Q318 449 341 459.5Q364 470 379 493V520Q379 577 357 604.5Q335 632 303 632H297Q268 632 244.5 611Q221 590 221 549V529Q221 484 242 466.5Q263 449 293 449ZM75 150Q164 151 219.5 170Q275 189 312 233Q326 250 337 270.5Q348 291 356 315Q333 302 307 295Q281 288 249 288Q200 288 160.5 305Q121 322 93 354Q65 386 50 431.5Q35 477 35 534V544Q35 601 51 647Q67 693 100 725.5Q133 758 183 776Q233 794 300 794Q366 794 415.5 772.5Q465 751 498.5 713Q532 675 548.5 621.5Q565 568 565 504V490Q565 397 541 305Q517 213 455 130Q423 87 383 59Q343 31 295.5 15Q248 -1 193 -7.5Q138 -14 75 -14Z" glyph-name="nine" horiz-adv-x="600" unicode="9" /><glyph d="M144 58Q144 51 151 51Q158 51 158 58V83Q158 90 151 90Q144 90 144 83ZM33 -93Q66 -93 92.5 -88.5Q119 -84 133 -73Q148 -61 154 -44Q146 -51 131 -54Q116 -57 106 -57Q61 -57 37 -25Q13 7 13 61V71Q13 98 20.5 121Q28 144 44.5 161Q61 178 87.5 188Q114 198 152 198Q189 198 215 186Q241 174 257.5 153.5Q274 133 281.5 105.5Q289 78 289 47V39Q289 -8 276.5 -57.5Q264 -107 233 -143Q214 -165 191.5 -178Q169 -191 143.5 -198Q118 -205 90.5 -207Q63 -209 33 -209Z" glyph-name="nine.inf" horiz-adv-x="300" unicode="&#58746;" /><glyph d="M956 131Q956 138 949 138Q942 138 942 131V106Q942 99 949 99Q956 99 956 106ZM1065 282Q1032 282 1006.5 277.5Q981 273 967 262Q952 250 946 233Q954 240 969 243Q984 246 994 246Q1039 246 1063 214Q1087 182 1087 128V118Q1087 91 1079.5 68Q1072 45 1055.5 28Q1039 11 1012.5 1Q986 -9 948 -9Q911 -9 885 3Q859 15 842.5 35.5Q826 56 818.5 83.5Q811 111 811 142V150Q811 173 814 197.5Q817 222 823.5 246Q830 270 840.5 292Q851 314 867 332Q886 354 908.5 367Q931 380 955.5 387Q980 394 1007.5 396Q1035 398 1065 398ZM522 0V113H589V231L562 213L498 306L618 388H721V113H787V0ZM37 0 613 780H763L187 0ZM144 648Q144 641 151 641Q158 641 158 648V673Q158 680 151 680Q144 680 144 673ZM33 497Q66 497 92.5 501.5Q119 506 133 517Q148 529 154 546Q146 539 131 536Q116 533 106 533Q61 533 37 565Q13 597 13 651V661Q13 688 20.5 711Q28 734 44.5 751Q61 768 87.5 778Q114 788 152 788Q189 788 215 776Q241 764 257.5 743.5Q274 723 281.5 695.5Q289 668 289 637V629Q289 582 276.5 532.5Q264 483 233 447Q214 425 191.5 412Q169 399 143.5 392Q118 385 90.5 383Q63 381 33 381Z" glyph-name="ninesixteenths" horiz-adv-x="1100" unicode="&#61977;" /><glyph glyph-name="nonbreakingspace" horiz-adv-x="200" unicode="&#160;" /><glyph d="M40 582H347L403 680H529L473 582H560V418H379L347 362H560V198H253L197 100H71L127 198H40V362H221L253 418H40Z" glyph-name="notequal" horiz-adv-x="600" unicode="&#8800;" /><glyph d="M516 780Q516 733 506.5 699.5Q497 666 480.5 645Q464 624 442.5 614Q421 604 396 604Q372 604 349.5 612Q327 620 306.5 629.5Q286 639 268.5 647Q251 655 236 655Q222 655 214 647Q206 639 206 620H86Q86 667 95.5 700.5Q105 734 121.5 755Q138 776 159.5 786Q181 796 206 796Q230 796 252.5 788Q275 780 295.5 770.5Q316 761 333.5 753Q351 745 366 745Q380 745 388 753Q396 761 396 780ZM367 0V325Q367 334 365.5 345Q364 356 358 365Q352 374 341 380Q330 386 311 386Q281 386 261.5 371Q242 356 234 345V0H50V380L40 530H206L218 464Q244 499 285 521.5Q326 544 386 544Q433 544 464.5 528Q496 512 515.5 485.5Q535 459 543 425Q551 391 551 355V0Z" glyph-name="ntilde" horiz-adv-x="595" unicode="&#241;" /><glyph d="M261 340H321L338 440H278ZM60 600H145L176 780H336L305 600H365L396 780H556L525 600H580V440H498L481 340H540V180H454L424 0H264L294 180H234L204 0H44L74 180H20V340H101L118 440H60Z" glyph-name="numbersign" horiz-adv-x="600" unicode="#" /><glyph d="M915 513Q953 513 953 569V602Q953 658 915 658Q877 658 877 602V569Q877 513 915 513ZM728 309H1102V172H728ZM915 376Q814 376 766 428.5Q718 481 718 569V602Q718 690 766 742.5Q814 795 915 795Q1016 795 1064 742.5Q1112 690 1112 602V569Q1112 481 1064 428.5Q1016 376 915 376ZM640 0H440L225 430L230 280V0H50V780H250L465 350L460 500V780H640Z" glyph-name="numero" horiz-adv-x="1140" unicode="&#8470;" /><glyph d="M280 144Q318 144 335 170Q352 196 352 245V285Q352 334 335 360Q318 386 280 386Q242 386 225 360Q208 334 208 285V245Q208 196 225 170Q242 144 280 144ZM280 -14Q214 -14 166 4.5Q118 23 86.5 57Q55 91 40 139Q25 187 25 245V285Q25 343 40 391Q55 439 86.5 473Q118 507 166 525.5Q214 544 280 544Q346 544 394 525.5Q442 507 473.5 473Q505 439 520 391Q535 343 535 285V245Q535 187 520 139Q505 91 473.5 57Q442 23 394 4.5Q346 -14 280 -14Z" glyph-name="o" horiz-adv-x="560" unicode="o" /><glyph d="M280 144Q318 144 335 170Q352 196 352 245V285Q352 334 335 360Q318 386 280 386Q242 386 225 360Q208 334 208 285V245Q208 196 225 170Q242 144 280 144ZM482 780 371 590H189L280 780ZM280 -14Q214 -14 166 4.5Q118 23 86.5 57Q55 91 40 139Q25 187 25 245V285Q25 343 40 391Q55 439 86.5 473Q118 507 166 525.5Q214 544 280 544Q346 544 394 525.5Q442 507 473.5 473Q505 439 520 391Q535 343 535 285V245Q535 187 520 139Q505 91 473.5 57Q442 23 394 4.5Q346 -14 280 -14Z" glyph-name="oacute" horiz-adv-x="560" unicode="&#243;" /><glyph d="M280 144Q318 144 335 170Q352 196 352 245V285Q352 334 335 360Q318 386 280 386Q242 386 225 360Q208 334 208 285V245Q208 196 225 170Q242 144 280 144ZM280 576Q224 576 186.5 591.5Q149 607 126 634Q103 661 93.5 698.5Q84 736 85 780H215Q215 739 235 726.5Q255 714 280 714Q305 714 325 726.5Q345 739 345 780H475Q476 736 466.5 698.5Q457 661 434 634Q411 607 373 591.5Q335 576 280 576ZM280 -14Q214 -14 166 4.5Q118 23 86.5 57Q55 91 40 139Q25 187 25 245V285Q25 343 40 391Q55 439 86.5 473Q118 507 166 525.5Q214 544 280 544Q346 544 394 525.5Q442 507 473.5 473Q505 439 520 391Q535 343 535 285V245Q535 187 520 139Q505 91 473.5 57Q442 23 394 4.5Q346 -14 280 -14Z" glyph-name="obreve" horiz-adv-x="560" unicode="&#335;" /><glyph d="M280 144Q318 144 335 170Q352 196 352 245V285Q352 334 335 360Q318 386 280 386Q242 386 225 360Q208 334 208 285V245Q208 196 225 170Q242 144 280 144ZM55 590 190 780H370L505 590H345L280 663L215 590ZM280 -14Q214 -14 166 4.5Q118 23 86.5 57Q55 91 40 139Q25 187 25 245V285Q25 343 40 391Q55 439 86.5 473Q118 507 166 525.5Q214 544 280 544Q346 544 394 525.5Q442 507 473.5 473Q505 439 520 391Q535 343 535 285V245Q535 187 520 139Q505 91 473.5 57Q442 23 394 4.5Q346 -14 280 -14Z" glyph-name="ocircumflex" horiz-adv-x="560" unicode="&#244;" /><glyph d="M280 144Q318 144 335 170Q352 196 352 245V285Q352 334 335 360Q318 386 280 386Q242 386 225 360Q208 334 208 285V245Q208 196 225 170Q242 144 280 144ZM260 590H70V780H260ZM490 590H300V780H490ZM280 -14Q214 -14 166 4.5Q118 23 86.5 57Q55 91 40 139Q25 187 25 245V285Q25 343 40 391Q55 439 86.5 473Q118 507 166 525.5Q214 544 280 544Q346 544 394 525.5Q442 507 473.5 473Q505 439 520 391Q535 343 535 285V245Q535 187 520 139Q505 91 473.5 57Q442 23 394 4.5Q346 -14 280 -14Z" glyph-name="odieresis" horiz-adv-x="560" unicode="&#246;" /><glyph d="M607 406Q575 406 557.5 389Q540 372 536 330H678Q674 372 656.5 389Q639 406 607 406ZM208 245Q208 196 225 170Q242 144 280 144Q318 144 335 170Q352 196 352 245V285Q352 334 335 360Q318 386 280 386Q242 386 225 360Q208 334 208 285ZM536 200Q541 155 562 139.5Q583 124 618 124Q648 124 668.5 137.5Q689 151 689 170H862V166Q862 126 845.5 93Q829 60 797.5 36Q766 12 720.5 -1Q675 -14 617 -14Q559 -14 517 3Q475 20 446 49Q418 20 377.5 3Q337 -14 280 -14Q214 -14 166 4.5Q118 23 86.5 57Q55 91 40 139Q25 187 25 245V285Q25 343 40 391Q55 439 86.5 473Q118 507 166 525.5Q214 544 280 544Q337 544 377.5 527Q418 510 446 481Q475 510 515.5 527Q556 544 611 544Q675 544 722.5 524.5Q770 505 801 470Q832 435 847 386.5Q862 338 862 280V200Z" glyph-name="oe" horiz-adv-x="887" unicode="&#339;" /><glyph d="M240 -58Q240 -72 250.5 -81Q261 -90 278 -90Q292 -90 300.5 -86.5Q309 -83 314 -80L355 -190Q339 -200 310 -208Q281 -216 247 -216Q183 -216 144 -189Q105 -162 105 -105Q105 -70 119 -41Q133 -12 155.5 10.5Q178 33 207 49Q236 65 265 74L295 0Q240 -25 240 -58Z" glyph-name="ogonek" horiz-adv-x="602" unicode="&#731;" /><glyph d="M280 144Q318 144 335 170Q352 196 352 245V285Q352 334 335 360Q318 386 280 386Q242 386 225 360Q208 334 208 285V245Q208 196 225 170Q242 144 280 144ZM280 780 371 590H189L78 780ZM280 -14Q214 -14 166 4.5Q118 23 86.5 57Q55 91 40 139Q25 187 25 245V285Q25 343 40 391Q55 439 86.5 473Q118 507 166 525.5Q214 544 280 544Q346 544 394 525.5Q442 507 473.5 473Q505 439 520 391Q535 343 535 285V245Q535 187 520 139Q505 91 473.5 57Q442 23 394 4.5Q346 -14 280 -14Z" glyph-name="ograve" horiz-adv-x="560" unicode="&#242;" /><glyph d="M347 780 265 590H123L185 780ZM547 780 436 590H294L385 780ZM280 144Q318 144 335 170Q352 196 352 245V285Q352 334 335 360Q318 386 280 386Q242 386 225 360Q208 334 208 285V245Q208 196 225 170Q242 144 280 144ZM280 -14Q214 -14 166 4.5Q118 23 86.5 57Q55 91 40 139Q25 187 25 245V285Q25 343 40 391Q55 439 86.5 473Q118 507 166 525.5Q214 544 280 544Q346 544 394 525.5Q442 507 473.5 473Q505 439 520 391Q535 343 535 285V245Q535 187 520 139Q505 91 473.5 57Q442 23 394 4.5Q346 -14 280 -14Z" glyph-name="ohungarumlaut" horiz-adv-x="560" unicode="&#337;" /><glyph d="M280 144Q318 144 335 170Q352 196 352 245V285Q352 334 335 360Q318 386 280 386Q242 386 225 360Q208 334 208 285V245Q208 196 225 170Q242 144 280 144ZM120 765H440V605H120ZM280 -14Q214 -14 166 4.5Q118 23 86.5 57Q55 91 40 139Q25 187 25 245V285Q25 343 40 391Q55 439 86.5 473Q118 507 166 525.5Q214 544 280 544Q346 544 394 525.5Q442 507 473.5 473Q505 439 520 391Q535 343 535 285V245Q535 187 520 139Q505 91 473.5 57Q442 23 394 4.5Q346 -14 280 -14Z" glyph-name="omacron" horiz-adv-x="560" unicode="&#333;" /><glyph d="M55 0V162H217V552L111 481L20 615L263 780H403V162H565V0Z" glyph-name="one" horiz-adv-x="600" unicode="1" /><glyph d="M22 -200V-87H89V31L62 13L-2 106L118 188H221V-87H287V-200Z" glyph-name="one.inf" horiz-adv-x="300" unicode="&#58738;" /><glyph d="M785 0H515V83L644 233Q649 238 651.5 243Q654 248 654 256V284Q654 291 647 291Q640 291 640 284V260H515V268Q515 336 548.5 367Q582 398 650 398Q693 398 719.5 386Q746 374 760.5 356Q775 338 780 318.5Q785 299 785 284V272Q785 239 775 217Q765 195 743 170L693 113H785ZM37 0 613 780H763L187 0ZM22 390V503H89V621L62 603L-2 696L118 778H221V503H287V390Z" glyph-name="onehalf" horiz-adv-x="800" unicode="&#189;" /><glyph d="M642 175 644 215 620 175ZM642 0V63H510V156L649 390H774V177H790V63H774V0ZM37 0 613 780H763L187 0ZM22 390V503H89V621L62 603L-2 696L118 778H221V503H287V390Z" glyph-name="onequarter" horiz-adv-x="800" unicode="&#188;" /><glyph d="M956 131Q956 138 949 138Q942 138 942 131V106Q942 99 949 99Q956 99 956 106ZM1065 282Q1032 282 1006.5 277.5Q981 273 967 262Q952 250 946 233Q954 240 969 243Q984 246 994 246Q1039 246 1063 214Q1087 182 1087 128V118Q1087 91 1079.5 68Q1072 45 1055.5 28Q1039 11 1012.5 1Q986 -9 948 -9Q911 -9 885 3Q859 15 842.5 35.5Q826 56 818.5 83.5Q811 111 811 142V150Q811 173 814 197.5Q817 222 823.5 246Q830 270 840.5 292Q851 314 867 332Q886 354 908.5 367Q931 380 955.5 387Q980 394 1007.5 396Q1035 398 1065 398ZM522 0V113H589V231L562 213L498 306L618 388H721V113H787V0ZM37 0 613 780H763L187 0ZM22 390V503H89V621L62 603L-2 696L118 778H221V503H287V390Z" glyph-name="onesixteenth" horiz-adv-x="1100" unicode="&#61973;" /><glyph d="M22 390V503H89V621L62 603L-2 696L118 778H221V503H287V390Z" glyph-name="onesuperior" horiz-adv-x="300" unicode="&#185;" /><glyph d="M40 270V430H293V270Z" glyph-name="onethirdemdash" horiz-adv-x="333" unicode="&#58481;" /><glyph d="M40 310V470H293V310Z" glyph-name="onethirdemdash.cap" horiz-adv-x="333" unicode="&#58499;" /><glyph d="M212 503Q222 503 232 507Q242 511 250 516V563L211 557Q195 555 189.5 547Q184 539 184 530V527Q184 518 189.5 510.5Q195 503 212 503ZM37 309H415V172H37ZM266 421Q246 400 217.5 388Q189 376 151 376Q114 376 89.5 386.5Q65 397 51 415Q37 433 31 455.5Q25 478 25 502V509Q25 541 35 563.5Q45 586 64.5 601.5Q84 617 111.5 626Q139 635 175 640L249 652Q246 676 220 676Q203 676 196.5 668Q190 660 190 652H40V659Q40 687 49 711.5Q58 736 79.5 754.5Q101 773 136.5 783.5Q172 794 224 794Q277 794 313 784Q349 774 370.5 754.5Q392 735 401 706.5Q410 678 410 640V499L418 387H273Z" glyph-name="ordfeminine" horiz-adv-x="440" unicode="&#170;" /><glyph d="M225 513Q263 513 263 569V602Q263 658 225 658Q187 658 187 602V569Q187 513 225 513ZM38 309H412V172H38ZM225 376Q124 376 76 428.5Q28 481 28 569V602Q28 690 76 742.5Q124 795 225 795Q326 795 374 742.5Q422 690 422 602V569Q422 481 374 428.5Q326 376 225 376Z" glyph-name="ordmasculine" horiz-adv-x="450" unicode="&#186;" /><glyph d="M321 374Q304 386 280 386Q242 386 225 360Q208 334 208 285V232ZM352 285Q352 295 351 299L238 156Q254 144 280 144Q318 144 335 170Q352 196 352 245ZM481 462Q508 429 521.5 384Q535 339 535 285V245Q535 187 520 139Q505 91 473.5 57Q442 23 394 4.5Q346 -14 280 -14Q234 -14 197 -5Q160 4 131 21L114 0H24L78 68Q51 101 38 146Q25 191 25 245V285Q25 343 40 391Q55 439 86.5 473Q118 507 166 525.5Q214 544 280 544Q325 544 362 535Q399 526 428 509L445 530H535Z" glyph-name="oslash" horiz-adv-x="560" unicode="&#248;" /><glyph d="M280 144Q318 144 335 170Q352 196 352 245V285Q352 334 335 360Q318 386 280 386Q242 386 225 360Q208 334 208 285V245Q208 196 225 170Q242 144 280 144ZM495 780Q495 733 485.5 699.5Q476 666 459.5 645Q443 624 421.5 614Q400 604 375 604Q351 604 328.5 612Q306 620 285.5 629.5Q265 639 247.5 647Q230 655 215 655Q201 655 193 647Q185 639 185 620H65Q65 667 74.5 700.5Q84 734 100.5 755Q117 776 138.5 786Q160 796 185 796Q209 796 231.5 788Q254 780 274.5 770.5Q295 761 312.5 753Q330 745 345 745Q359 745 367 753Q375 761 375 780ZM280 -14Q214 -14 166 4.5Q118 23 86.5 57Q55 91 40 139Q25 187 25 245V285Q25 343 40 391Q55 439 86.5 473Q118 507 166 525.5Q214 544 280 544Q346 544 394 525.5Q442 507 473.5 473Q505 439 520 391Q535 343 535 285V245Q535 187 520 139Q505 91 473.5 57Q442 23 394 4.5Q346 -14 280 -14Z" glyph-name="otilde" horiz-adv-x="560" unicode="&#245;" /><glyph d="M233 185Q241 174 260.5 159Q280 144 310 144Q348 144 362.5 170Q377 196 377 245V285Q377 334 362.5 360Q348 386 310 386Q280 386 260.5 371Q241 356 233 345ZM365 -14Q320 -14 288 0.5Q256 15 233 40V-200H49V380L39 530H205L216 468Q239 502 275 523Q311 544 365 544Q419 544 456.5 525.5Q494 507 517 473Q540 439 550 391Q560 343 560 285V245Q560 187 550 139Q540 91 517 57Q494 23 456.5 4.5Q419 -14 365 -14Z" glyph-name="p" horiz-adv-x="585" unicode="p" /><glyph d="M320 268H301Q251 268 201 276Q151 284 111 310Q71 336 45.5 384.5Q20 433 20 514V534Q20 615 45.5 663.5Q71 712 111 738Q151 764 201 772Q251 780 301 780H510V0H320Z" glyph-name="paragraph" horiz-adv-x="560" unicode="&#182;" /><glyph d="M35 370Q35 456 45.5 524Q56 592 75 648Q94 704 119.5 750.5Q145 797 175 840H366Q336 793 309 742Q282 691 262.5 633Q243 575 231.5 510Q220 445 220 370V350Q220 275 231.5 210Q243 145 262.5 87Q282 29 309 -22Q336 -73 366 -120H175Q145 -77 119.5 -30.5Q94 16 75 72Q56 128 45.5 196Q35 264 35 350Z" glyph-name="parenleft" horiz-adv-x="380" unicode="(" /><glyph d="M40 400Q40 467 49.5 524.5Q59 582 75.5 629.5Q92 677 113.5 714.5Q135 752 159 780H350Q329 750 307 710Q285 670 267 621.5Q249 573 237 517Q225 461 225 400V380Q225 318 237 262.5Q249 207 267 158.5Q285 110 307 70Q329 30 350 0H159Q135 28 113.5 65.5Q92 103 75.5 150.5Q59 198 49.5 255Q40 312 40 380Z" glyph-name="parenleft.cap" horiz-adv-x="380" unicode="&#58513;" /><glyph d="M5 0Q5 68 25.5 117.5Q46 167 69 190H199Q189 177 178 158.5Q167 140 157.5 116Q148 92 142 63Q136 34 136 0V-10Q136 -44 142 -73Q148 -102 157.5 -126Q167 -150 178 -168.5Q189 -187 199 -200H69Q46 -177 25.5 -127.5Q5 -78 5 -10Z" glyph-name="parenleft.inf" horiz-adv-x="200" unicode="&#58750;" /><glyph d="M345 350Q345 264 334.5 196Q324 128 305 72Q286 16 260.5 -30.5Q235 -77 205 -120H14Q44 -73 71 -22Q98 29 117.5 87Q137 145 148.5 210Q160 275 160 350V370Q160 445 148.5 510Q137 575 117.5 633Q98 691 71 742Q44 793 14 840H205Q235 797 260.5 750.5Q286 704 305 648Q324 592 334.5 524Q345 456 345 370Z" glyph-name="parenright" horiz-adv-x="380" unicode=")" /><glyph d="M340 380Q340 312 330.5 255Q321 198 304.5 150.5Q288 103 266.5 65.5Q245 28 221 0H30Q51 30 73 70Q95 110 113 158.5Q131 207 143 262.5Q155 318 155 380V400Q155 461 143 517Q131 573 113 621.5Q95 670 73 710Q51 750 30 780H221Q245 752 266.5 714.5Q288 677 304.5 629.5Q321 582 330.5 524.5Q340 467 340 400Z" glyph-name="parenright.cap" horiz-adv-x="380" unicode="&#58514;" /><glyph d="M195 -10Q195 -78 174.5 -127.5Q154 -177 131 -200H1Q11 -187 22 -168.5Q33 -150 42.5 -126Q52 -102 58 -73Q64 -44 64 -10V0Q64 34 58 63Q52 92 42.5 116Q33 140 22 158.5Q11 177 1 190H131Q154 167 174.5 117.5Q195 68 195 0Z" glyph-name="parenright.inf" horiz-adv-x="200" unicode="&#58751;" /><glyph d="M310 386Q280 386 260.5 371Q241 356 233 345V185Q241 174 260.5 159Q280 144 310 144Q348 144 362.5 170Q377 196 377 245V285Q377 334 362.5 360Q348 386 310 386ZM400 590H210V780H400ZM365 -14Q320 -14 288 0.5Q256 15 233 40V-200H49V380L39 530H205L216 468Q239 502 275 523Q311 544 365 544Q419 544 456.5 525.5Q494 507 517 473Q540 439 550 391Q560 343 560 285V245Q560 187 550 139Q540 91 517 57Q494 23 456.5 4.5Q419 -14 365 -14Z" glyph-name="pdotaccent" horiz-adv-x="585" unicode="&#7767;" /><glyph d="M281 600Q281 625 266 641.5Q251 658 223 658H217Q189 658 174 641.5Q159 625 159 600V588Q159 563 174 546.5Q189 530 217 530H223Q251 530 266 546.5Q281 563 281 588ZM719 180Q719 155 734 138.5Q749 122 777 122H783Q811 122 826 138.5Q841 155 841 180V192Q841 217 826 233.5Q811 250 783 250H777Q749 250 734 233.5Q719 217 719 192ZM584 192Q584 239 598.5 275Q613 311 639 336Q665 361 701 373.5Q737 386 780 386Q823 386 859 373.5Q895 361 921 336Q947 311 961.5 275Q976 239 976 192V180Q976 133 961.5 97Q947 61 921 36Q895 11 859 -1.5Q823 -14 780 -14Q737 -14 701 -1.5Q665 11 639 36Q613 61 598.5 97Q584 133 584 180ZM257 0 512 611Q499 609 485.5 607.5Q472 606 455 606Q444 606 434.5 606.5Q425 607 416 608V588Q416 541 401.5 505Q387 469 361 444Q335 419 299 406.5Q263 394 220 394Q177 394 141 406.5Q105 419 79 444Q53 469 38.5 505Q24 541 24 588V600Q24 647 38.5 683Q53 719 79 744Q105 769 141 781.5Q177 794 220 794Q264 794 303 780Q324 772 343.5 766.5Q363 761 384 758Q405 755 430.5 753.5Q456 752 490 752Q525 752 559 755.5Q593 759 622.5 764Q652 769 674.5 774.5Q697 780 709 784V700L417 0Z" glyph-name="percent" horiz-adv-x="1000" unicode="%" /><glyph d="M235 0H45V190H235Z" glyph-name="period" horiz-adv-x="280" unicode="." /><glyph d="M245 0H55V190H245Z" glyph-name="period.T" horiz-adv-x="300" unicode="&#61826;" /><glyph d="M235 255H45V445H235Z" glyph-name="periodcentered" horiz-adv-x="280" unicode="&#183;" /><glyph d="M235 295H45V485H235Z" glyph-name="periodcentered.cap" horiz-adv-x="280" unicode="&#58497;" /><glyph d="M1139 180Q1139 155 1154 138.5Q1169 122 1197 122H1203Q1231 122 1246 138.5Q1261 155 1261 180V192Q1261 217 1246 233.5Q1231 250 1203 250H1197Q1169 250 1154 233.5Q1139 217 1139 192ZM719 180Q719 155 734 138.5Q749 122 777 122H783Q811 122 826 138.5Q841 155 841 180V192Q841 217 826 233.5Q811 250 783 250H777Q749 250 734 233.5Q719 217 719 192ZM281 600Q281 625 266 641.5Q251 658 223 658H217Q189 658 174 641.5Q159 625 159 600V588Q159 563 174 546.5Q189 530 217 530H223Q251 530 266 546.5Q281 563 281 588ZM584 192Q584 239 598.5 275Q613 311 639 336Q665 361 701 373.5Q737 386 780 386Q823 386 859 373.5Q895 361 921 336Q947 311 961.5 275Q976 239 976 192V180Q976 133 961.5 97Q947 61 921 36Q895 11 859 -1.5Q823 -14 780 -14Q737 -14 701 -1.5Q665 11 639 36Q613 61 598.5 97Q584 133 584 180ZM1004 192Q1004 239 1018.5 275Q1033 311 1059 336Q1085 361 1121 373.5Q1157 386 1200 386Q1243 386 1279 373.5Q1315 361 1341 336Q1367 311 1381.5 275Q1396 239 1396 192V180Q1396 133 1381.5 97Q1367 61 1341 36Q1315 11 1279 -1.5Q1243 -14 1200 -14Q1157 -14 1121 -1.5Q1085 11 1059 36Q1033 61 1018.5 97Q1004 133 1004 180ZM416 588Q416 541 401.5 505Q387 469 361 444Q335 419 299 406.5Q263 394 220 394Q177 394 141 406.5Q105 419 79 444Q53 469 38.5 505Q24 541 24 588V600Q24 647 38.5 683Q53 719 79 744Q105 769 141 781.5Q177 794 220 794Q264 794 303 780Q324 772 343.5 766.5Q363 761 384 758Q405 755 430.5 753.5Q456 752 490 752Q525 752 559 755.5Q593 759 622.5 764Q652 769 674.5 774.5Q697 780 709 784V700L417 0H257L512 611Q499 609 485.5 607.5Q472 606 455 606Q444 606 434.5 606.5Q425 607 416 608Z" glyph-name="perthousand" horiz-adv-x="1420" unicode="&#8240;" /><glyph d="M382 650V472H560V308H382V130H218V308H40V472H218V650Z" glyph-name="plus" horiz-adv-x="600" unicode="+" /><glyph d="M207 128V52H283V-62H207V-138H93V-62H17V52H93V128Z" glyph-name="plus.inf" horiz-adv-x="300" unicode="&#58747;" /><glyph d="M40 292H560V128H40ZM382 680V582H560V418H382V320H218V418H40V582H218V680Z" glyph-name="plusminus" horiz-adv-x="600" unicode="&#177;" /><glyph d="M488 415Q505 415 518 423.5Q531 432 531 458V463Q531 489 518 497.5Q505 506 488 506H429V415ZM429 155H265V625H527Q557 625 587 618.5Q617 612 641.5 594.5Q666 577 681 546Q696 515 696 466V455Q696 406 681 375Q666 344 641.5 326.5Q617 309 587 302.5Q557 296 527 296H429ZM116 390Q116 319 143 256Q170 193 216.5 146.5Q263 100 326 73Q389 46 460 46Q531 46 594 73Q657 100 703.5 146.5Q750 193 777 256Q804 319 804 390Q804 461 777 524Q750 587 703.5 633.5Q657 680 594 707Q531 734 460 734Q389 734 326 707Q263 680 216.5 633.5Q170 587 143 524Q116 461 116 390ZM56 390Q56 474 88 547.5Q120 621 174.5 675.5Q229 730 302.5 762Q376 794 460 794Q544 794 617.5 762Q691 730 745.5 675.5Q800 621 832 547.5Q864 474 864 390Q864 306 832 232.5Q800 159 745.5 104.5Q691 50 617.5 18Q544 -14 460 -14Q376 -14 302.5 18Q229 50 174.5 104.5Q120 159 88 232.5Q56 306 56 390Z" glyph-name="published" horiz-adv-x="920" unicode="&#8471;" /><glyph glyph-name="punctuationspace" horiz-adv-x="180" unicode="&#8200;" /><glyph d="M278 144Q308 144 327.5 159Q347 174 355 185V345Q347 356 327.5 371Q308 386 278 386Q240 386 225.5 360Q211 334 211 285V245Q211 196 225.5 170Q240 144 278 144ZM355 40Q332 15 300 0.5Q268 -14 223 -14Q169 -14 131.5 4.5Q94 23 71 57Q48 91 38 139Q28 187 28 245V285Q28 343 38 391Q48 439 71 473Q94 507 131.5 525.5Q169 544 223 544Q277 544 312.5 523Q348 502 371 468L383 530H549L539 380V-200H355Z" glyph-name="q" horiz-adv-x="593" unicode="q" /><glyph d="M345 0H155V190H345ZM260 632Q231 632 218.5 608Q206 584 206 520H20V539Q20 603 32.5 651Q45 699 73.5 730.5Q102 762 148 778Q194 794 260 794Q330 794 375.5 776Q421 758 447.5 729Q474 700 484.5 664.5Q495 629 495 595Q495 544 483 511Q471 478 452.5 454Q434 430 411.5 411Q389 392 369 369.5Q349 347 334 316.5Q319 286 315 240H185Q181 286 188.5 324.5Q196 363 209.5 394.5Q223 426 240.5 452Q258 478 273 500.5Q288 523 298.5 542.5Q309 562 309 580Q309 604 298 618Q287 632 260 632Z" glyph-name="question" horiz-adv-x="510" unicode="?" /><glyph d="M165 530H355V340H165ZM250 -52Q279 -52 291.5 -28Q304 -4 304 60H490V41Q490 -23 477 -71Q464 -119 435.5 -150.5Q407 -182 361.5 -198Q316 -214 250 -214Q180 -214 134.5 -196.5Q89 -179 62.5 -152Q36 -125 25.5 -91.5Q15 -58 15 -25Q15 23 27.5 55Q40 87 58.5 110Q77 133 99.5 150.5Q122 168 142 187Q162 206 176.5 230Q191 254 195 290H325Q331 236 312 191Q293 146 268.5 109Q244 72 222.5 43Q201 14 201 -10Q201 -30 212 -41Q223 -52 250 -52Z" glyph-name="questiondown" horiz-adv-x="510" unicode="&#191;" /><glyph d="M165 780H355V590H165ZM250 148Q279 148 291.5 172Q304 196 304 260H490V241Q490 177 477 129Q464 81 435.5 49.5Q407 18 361.5 2Q316 -14 250 -14Q180 -14 134.5 4Q89 22 62.5 51Q36 80 25.5 115Q15 150 15 185Q15 235 27 268.5Q39 302 57.5 326Q76 350 98.5 369Q121 388 141 410.5Q161 433 176 463.5Q191 494 195 540H325Q329 493 321.5 455Q314 417 300.5 385.5Q287 354 269.5 328Q252 302 237 279.5Q222 257 211.5 237.5Q201 218 201 200Q201 176 212 162Q223 148 250 148Z" glyph-name="questiondown.cap" horiz-adv-x="510" unicode="&#58436;" /><glyph d="M440 780 412 440H268L260 780ZM220 780 212 440H68L40 780Z" glyph-name="quotedbl" horiz-adv-x="480" unicode="&quot;" /><glyph d="M235 40Q235 -150 45 -150V-60Q121 -60 139 0H45V190H235ZM475 40Q475 -150 285 -150V-60Q361 -60 379 0H285V190H475Z" glyph-name="quotedblbase" horiz-adv-x="520" unicode="&#8222;" /><glyph d="M285 620Q285 810 475 810V720Q398 720 380 660H475V470H285ZM45 620Q45 810 235 810V720Q158 720 140 660H235V470H45Z" glyph-name="quotedblleft" horiz-adv-x="520" unicode="&#8220;" /><glyph d="M235 630Q235 440 45 440V530Q121 530 139 590H45V780H235ZM475 630Q475 440 285 440V530Q361 530 379 590H285V780H475Z" glyph-name="quotedblright" horiz-adv-x="520" unicode="&#8221;" /><glyph d="M45 620Q45 810 235 810V720Q158 720 140 660H235V470H45Z" glyph-name="quoteleft" horiz-adv-x="280" unicode="&#8216;" /><glyph d="M235 630Q235 440 45 440V530Q121 530 139 590H45V780H235Z" glyph-name="quoteright" horiz-adv-x="280" unicode="&#8217;" /><glyph d="M235 40Q235 -150 45 -150V-60Q121 -60 139 0H45V190H235Z" glyph-name="quotesinglbase" horiz-adv-x="280" unicode="&#8218;" /><glyph d="M240 780 212 440H68L40 780Z" glyph-name="quotesingle" horiz-adv-x="280" unicode="&apos;" /><glyph d="M356 544Q366 544 371 543V355H341Q296 355 269.5 343Q243 331 234 320V0H50V380L40 530H206L217 471Q241 504 276 524Q311 544 356 544Z" glyph-name="r" horiz-adv-x="400" unicode="r" /><glyph d="M412 780 301 590H119L210 780ZM356 544Q366 544 371 543V355H341Q296 355 269.5 343Q243 331 234 320V0H50V380L40 530H206L217 471Q241 504 276 524Q311 544 356 544Z" glyph-name="racute" horiz-adv-x="400" unicode="&#341;" /><glyph d="M145 780 210 706 275 780H435L300 590H120L-15 780ZM356 544Q366 544 371 543V355H341Q296 355 269.5 343Q243 331 234 320V0H50V380L40 530H206L217 471Q241 504 276 524Q311 544 356 544Z" glyph-name="rcaron" horiz-adv-x="400" unicode="&#345;" /><glyph d="M222 -100Q222 -172 183.5 -201Q145 -230 62 -230V-170Q94 -170 116.5 -163.5Q139 -157 150 -140H62V-40H222ZM356 544Q366 544 371 543V355H341Q296 355 269.5 343Q243 331 234 320V0H50V380L40 530H206L217 471Q241 504 276 524Q311 544 356 544Z" glyph-name="rcommaaccent" horiz-adv-x="400" unicode="&#343;" /><glyph d="M184 691Q184 701 179 704Q174 707 168 707H146V673H168Q174 673 179 676Q184 679 184 689ZM245 688Q245 666 237 654Q229 642 217 636L245 579H181L162 629H146V579H85V751H182Q193 751 204.5 748.5Q216 746 225 739.5Q234 733 239.5 721.5Q245 710 245 692ZM40 665Q40 639 50 616.5Q60 594 77 577Q94 560 116.5 550Q139 540 165 540Q191 540 213.5 550Q236 560 253 577Q270 594 280 616.5Q290 639 290 665Q290 691 280 713.5Q270 736 253 753Q236 770 213.5 780Q191 790 165 790Q139 790 116.5 780Q94 770 77 753Q60 736 50 713.5Q40 691 40 665ZM16 665Q16 696 27.5 723Q39 750 59.5 770Q80 790 107 802Q134 814 165 814Q196 814 223 802Q250 790 270 770Q290 750 302 723Q314 696 314 665Q314 634 302 607Q290 580 270 559.5Q250 539 223 527.5Q196 516 165 516Q134 516 107 527.5Q80 539 59.5 559.5Q39 580 27.5 607Q16 634 16 665Z" glyph-name="registered" horiz-adv-x="330" unicode="&#174;" /><glyph d="M468 415Q485 415 498 423.5Q511 432 511 458V463Q511 489 498 497.5Q485 506 468 506H409V415ZM409 155H245V625H507Q537 625 567 618.5Q597 612 621.5 594.5Q646 577 661 546Q676 515 676 466V455Q676 400 657.5 368Q639 336 610 319L676 155H503L461 296H409ZM116 390Q116 319 143 256Q170 193 216.5 146.5Q263 100 326 73Q389 46 460 46Q531 46 594 73Q657 100 703.5 146.5Q750 193 777 256Q804 319 804 390Q804 461 777 524Q750 587 703.5 633.5Q657 680 594 707Q531 734 460 734Q389 734 326 707Q263 680 216.5 633.5Q170 587 143 524Q116 461 116 390ZM56 390Q56 474 88 547.5Q120 621 174.5 675.5Q229 730 302.5 762Q376 794 460 794Q544 794 617.5 762Q691 730 745.5 675.5Q800 621 832 547.5Q864 474 864 390Q864 306 832 232.5Q800 159 745.5 104.5Q691 50 617.5 18Q544 -14 460 -14Q376 -14 302.5 18Q229 50 174.5 104.5Q120 159 88 232.5Q56 306 56 390Z" glyph-name="registered.cap" horiz-adv-x="920" unicode="&#59804;" /><glyph d="M235 780V590H140Q158 530 235 530V440Q45 440 45 630V780ZM475 780V590H380Q398 530 475 530V440Q285 440 285 630V780Z" glyph-name="reversequotedblleft" horiz-adv-x="520" unicode="&#8223;" /><glyph d="M235 780V590H140Q158 530 235 530V440Q45 440 45 630V780Z" glyph-name="reversequoteleft" horiz-adv-x="280" unicode="&#8219;" /><glyph d="M201 685Q201 665 215.5 650.5Q230 636 250 636Q270 636 284.5 650.5Q299 665 299 685Q299 705 284.5 719.5Q270 734 250 734Q230 734 215.5 719.5Q201 705 201 685ZM141 685Q141 707 149.5 727Q158 747 173 762Q188 777 207.5 785.5Q227 794 250 794Q272 794 292 785.5Q312 777 327 762Q342 747 350.5 727Q359 707 359 685Q359 662 350.5 642.5Q342 623 327 608Q312 593 292 584.5Q272 576 250 576Q227 576 207.5 584.5Q188 593 173 608Q158 623 149.5 642.5Q141 662 141 685Z" glyph-name="ring" horiz-adv-x="500" unicode="&#730;" /><glyph d="M201 855Q201 835 215.5 820.5Q230 806 250 806Q270 806 284.5 820.5Q299 835 299 855Q299 875 284.5 889.5Q270 904 250 904Q230 904 215.5 889.5Q201 875 201 855ZM141 855Q141 877 149.5 897Q158 917 173 932Q188 947 207.5 955.5Q227 964 250 964Q272 964 292 955.5Q312 947 327 932Q342 917 350.5 897Q359 877 359 855Q359 832 350.5 812.5Q342 793 327 778Q312 763 292 754.5Q272 746 250 746Q227 746 207.5 754.5Q188 763 173 778Q158 793 149.5 812.5Q141 832 141 855Z" glyph-name="ring.cap" horiz-adv-x="500" unicode="&#58410;" /><glyph d="M297 432Q311 432 325.5 435.5Q340 439 351.5 448.5Q363 458 370.5 475Q378 492 378 520V528Q378 556 370.5 573Q363 590 351.5 599.5Q340 609 325.5 612.5Q311 616 297 616H270V432ZM270 238H450V74H270V0H80V74H15V238H80V268H15V432H80V780H289Q338 780 388.5 772Q439 764 479 738Q519 712 544.5 663.5Q570 615 570 534V514Q570 433 544.5 384.5Q519 336 479 310Q439 284 388.5 276Q338 268 289 268H270Z" glyph-name="ruble" horiz-adv-x="600" unicode="&#8381;" /><glyph d="M265 124Q295 124 306.5 135.5Q318 147 318 163Q318 180 307 190Q296 200 258 203Q201 207 159 216.5Q117 226 89.5 243Q62 260 48.5 287Q35 314 35 354V364Q35 413 53 447.5Q71 482 102.5 503.5Q134 525 176 534.5Q218 544 265 544Q385 544 440 496Q495 448 495 360V355H315Q315 379 302.5 392.5Q290 406 265 406Q240 406 227.5 396Q215 386 215 370Q215 351 227 343Q239 335 273 332Q323 328 365 320Q407 312 437.5 295.5Q468 279 485 251.5Q502 224 502 181V171Q502 83 443.5 34.5Q385 -14 265 -14Q147 -14 87.5 34Q28 82 28 165V170H211Q211 148 223.5 136Q236 124 265 124Z" glyph-name="s" horiz-adv-x="530" unicode="s" /><glyph d="M467 780 356 590H174L265 780ZM265 124Q295 124 306.5 135.5Q318 147 318 163Q318 180 307 190Q296 200 258 203Q201 207 159 216.5Q117 226 89.5 243Q62 260 48.5 287Q35 314 35 354V364Q35 413 53 447.5Q71 482 102.5 503.5Q134 525 176 534.5Q218 544 265 544Q385 544 440 496Q495 448 495 360V355H315Q315 379 302.5 392.5Q290 406 265 406Q240 406 227.5 396Q215 386 215 370Q215 351 227 343Q239 335 273 332Q323 328 365 320Q407 312 437.5 295.5Q468 279 485 251.5Q502 224 502 181V171Q502 83 443.5 34.5Q385 -14 265 -14Q147 -14 87.5 34Q28 82 28 165V170H211Q211 148 223.5 136Q236 124 265 124Z" glyph-name="sacute" horiz-adv-x="530" unicode="&#347;" /><glyph d="M200 780 265 706 330 780H490L355 590H175L40 780ZM265 124Q295 124 306.5 135.5Q318 147 318 163Q318 180 307 190Q296 200 258 203Q201 207 159 216.5Q117 226 89.5 243Q62 260 48.5 287Q35 314 35 354V364Q35 413 53 447.5Q71 482 102.5 503.5Q134 525 176 534.5Q218 544 265 544Q385 544 440 496Q495 448 495 360V355H315Q315 379 302.5 392.5Q290 406 265 406Q240 406 227.5 396Q215 386 215 370Q215 351 227 343Q239 335 273 332Q323 328 365 320Q407 312 437.5 295.5Q468 279 485 251.5Q502 224 502 181V171Q502 83 443.5 34.5Q385 -14 265 -14Q147 -14 87.5 34Q28 82 28 165V170H211Q211 148 223.5 136Q236 124 265 124Z" glyph-name="scaron" horiz-adv-x="530" unicode="&#353;" /><glyph d="M183 -121Q195 -129 214 -133.5Q233 -138 253 -138Q279 -138 288 -132Q297 -126 297 -116Q297 -105 288 -99.5Q279 -94 253 -94Q245 -94 238.5 -95Q232 -96 226 -97Q219 -98 213 -99L199 -70L222 -12Q125 -3 76.5 43.5Q28 90 28 165V170H211Q211 148 223.5 136Q236 124 265 124Q295 124 306.5 135.5Q318 147 318 163Q318 180 307 190Q296 200 258 203Q201 207 159 216.5Q117 226 89.5 243Q62 260 48.5 287Q35 314 35 354V364Q35 413 53 447.5Q71 482 102.5 503.5Q134 525 176 534.5Q218 544 265 544Q385 544 440 496Q495 448 495 360V355H315Q315 379 302.5 392.5Q290 406 265 406Q240 406 227.5 396Q215 386 215 370Q215 351 227 343Q239 335 273 332Q323 328 365 320Q407 312 437.5 295.5Q468 279 485 251.5Q502 224 502 181V171Q502 90 452.5 42.5Q403 -5 302 -13L292 -37Q335 -41 363.5 -62Q392 -83 392 -125Q392 -169 361.5 -192.5Q331 -216 267 -216Q228 -216 199 -207.5Q170 -199 156 -190Z" glyph-name="scedilla" horiz-adv-x="530" unicode="&#351;" /><glyph d="M40 590 175 780H355L490 590H330L265 663L200 590ZM265 124Q295 124 306.5 135.5Q318 147 318 163Q318 180 307 190Q296 200 258 203Q201 207 159 216.5Q117 226 89.5 243Q62 260 48.5 287Q35 314 35 354V364Q35 413 53 447.5Q71 482 102.5 503.5Q134 525 176 534.5Q218 544 265 544Q385 544 440 496Q495 448 495 360V355H315Q315 379 302.5 392.5Q290 406 265 406Q240 406 227.5 396Q215 386 215 370Q215 351 227 343Q239 335 273 332Q323 328 365 320Q407 312 437.5 295.5Q468 279 485 251.5Q502 224 502 181V171Q502 83 443.5 34.5Q385 -14 265 -14Q147 -14 87.5 34Q28 82 28 165V170H211Q211 148 223.5 136Q236 124 265 124Z" glyph-name="scircumflex" horiz-adv-x="530" unicode="&#349;" /><glyph d="M345 -100Q345 -172 306.5 -201Q268 -230 185 -230V-170Q217 -170 239.5 -163.5Q262 -157 273 -140H185V-40H345ZM265 124Q295 124 306.5 135.5Q318 147 318 163Q318 180 307 190Q296 200 258 203Q201 207 159 216.5Q117 226 89.5 243Q62 260 48.5 287Q35 314 35 354V364Q35 413 53 447.5Q71 482 102.5 503.5Q134 525 176 534.5Q218 544 265 544Q385 544 440 496Q495 448 495 360V355H315Q315 379 302.5 392.5Q290 406 265 406Q240 406 227.5 396Q215 386 215 370Q215 351 227 343Q239 335 273 332Q323 328 365 320Q407 312 437.5 295.5Q468 279 485 251.5Q502 224 502 181V171Q502 83 443.5 34.5Q385 -14 265 -14Q147 -14 87.5 34Q28 82 28 165V170H211Q211 148 223.5 136Q236 124 265 124Z" glyph-name="scommaaccent" horiz-adv-x="530" unicode="&#537;" /><glyph d="M272 444Q239 442 225.5 426.5Q212 411 212 390Q212 368 225.5 353Q239 338 272 336H280Q318 336 333 351.5Q348 367 348 390Q348 413 333 428.5Q318 444 280 444ZM532 394Q532 308 466 268Q495 231 495 176V166Q495 117 477 82.5Q459 48 427.5 26.5Q396 5 354 -4.5Q312 -14 265 -14Q145 -14 90 34Q35 82 35 170V175H215Q215 151 227.5 137.5Q240 124 265 124Q290 124 302.5 134Q315 144 315 160Q315 179 303 192Q291 205 257 208Q207 212 165 221Q123 230 92.5 249Q62 268 45 298.5Q28 329 28 376V386Q28 472 93 511Q79 530 72 552.5Q65 575 65 604V614Q65 663 83 697.5Q101 732 132.5 753.5Q164 775 206 784.5Q248 794 295 794Q415 794 470 746Q525 698 525 610V605H345Q345 629 332.5 642.5Q320 656 295 656Q270 656 257.5 646Q245 636 245 620Q245 601 257 588Q269 575 303 572Q353 568 395 559Q437 550 467.5 531Q498 512 515 481.5Q532 451 532 404Z" glyph-name="section" horiz-adv-x="560" unicode="&#167;" /><glyph d="M235 295H45V485H235ZM235 40Q235 -150 45 -150V-60Q121 -60 139 0H45V190H235Z" glyph-name="semicolon" horiz-adv-x="280" unicode=";" /><glyph d="M245 295H55V485H245ZM245 40Q245 -150 55 -150V-60Q131 -60 149 0H55V190H245Z" glyph-name="semicolon.T" horiz-adv-x="300" unicode="&#61829;" /><glyph d="M424 530H350L313 677L315 620V530H244V800H350L387 654L424 800H530V530H459V620L461 677ZM104 635Q58 641 35.5 658Q13 675 13 719V723Q13 762 38.5 786Q64 810 115 810Q169 810 193.5 784.5Q218 759 218 708V701H148Q148 724 141 736Q134 748 115 748H111Q99 748 92 741Q85 734 85 726V724Q85 711 95 705Q105 699 127 695Q173 689 196.5 672Q220 655 220 612V607Q220 566 193.5 543Q167 520 115 520Q64 520 37.5 544Q11 568 11 622V624H81Q81 581 115 581H119Q134 581 140.5 589Q147 597 147 605V607Q147 619 138.5 625Q130 631 104 635Z" glyph-name="servicemark" horiz-adv-x="570" unicode="&#8480;" /><glyph d="M30 780H570V665L300 0H101L363 620L273 618H192V500H30Z" glyph-name="seven" horiz-adv-x="600" unicode="7" /><glyph d="M7 190H292V108L172 -200H28L167 77L121 76V50H7Z" glyph-name="seven.inf" horiz-adv-x="300" unicode="&#58744;" /><glyph d="M956 131Q956 138 949 138Q942 138 942 131V106Q942 99 949 99Q956 99 956 106ZM1065 282Q1032 282 1006.5 277.5Q981 273 967 262Q952 250 946 233Q954 240 969 243Q984 246 994 246Q1039 246 1063 214Q1087 182 1087 128V118Q1087 91 1079.5 68Q1072 45 1055.5 28Q1039 11 1012.5 1Q986 -9 948 -9Q911 -9 885 3Q859 15 842.5 35.5Q826 56 818.5 83.5Q811 111 811 142V150Q811 173 814 197.5Q817 222 823.5 246Q830 270 840.5 292Q851 314 867 332Q886 354 908.5 367Q931 380 955.5 387Q980 394 1007.5 396Q1035 398 1065 398ZM522 0V113H589V231L562 213L498 306L618 388H721V113H787V0ZM37 0 613 780H763L187 0ZM7 780H292V698L172 390H28L167 667L121 666V640H7Z" glyph-name="sevensixteenths" horiz-adv-x="1100" unicode="&#61976;" /><glyph d="M302 331Q282 331 259 320.5Q236 310 221 286V260Q221 203 243 175.5Q265 148 297 148H303Q332 148 355.5 169Q379 190 379 231V251Q379 296 358 313.5Q337 331 307 331ZM525 630Q436 629 380.5 609.5Q325 590 288 547Q258 511 244 464Q266 477 292.5 484.5Q319 492 351 492Q400 492 439.5 475Q479 458 507 426Q535 394 550 348.5Q565 303 565 246V236Q565 179 549 133Q533 87 500 54.5Q467 22 417 4Q367 -14 300 -14Q234 -14 184.5 7.5Q135 29 101.5 67Q68 105 51.5 158.5Q35 212 35 276V290Q35 383 59 475Q83 567 145 650Q177 693 217 721Q257 749 304.5 765Q352 781 407 787.5Q462 794 525 794Z" glyph-name="six" horiz-adv-x="600" unicode="6" /><glyph d="M156 -69Q156 -62 149 -62Q142 -62 142 -69V-94Q142 -101 149 -101Q156 -101 156 -94ZM265 82Q232 82 206.5 77.5Q181 73 167 62Q152 50 146 33Q154 40 169 43Q184 46 194 46Q239 46 263 14Q287 -18 287 -72V-82Q287 -109 279.5 -132Q272 -155 255.5 -172Q239 -189 212.5 -199Q186 -209 148 -209Q111 -209 85 -197Q59 -185 42.5 -164.5Q26 -144 18.5 -116.5Q11 -89 11 -58V-50Q11 -27 14 -2.5Q17 22 23.5 46Q30 70 40.5 92Q51 114 67 132Q86 154 108.5 167Q131 180 155.5 187Q180 194 207.5 196Q235 198 265 198Z" glyph-name="six.inf" horiz-adv-x="300" unicode="&#58743;" /><glyph glyph-name="sixperemspace" horiz-adv-x="167" unicode="&#8198;" /><glyph d="M195 -120H15L245 840H425Z" glyph-name="slash" horiz-adv-x="440" unicode="/" /><glyph d="M14 0 206 780H386L194 0Z" glyph-name="slash.cap" horiz-adv-x="400" unicode="&#58465;" /><glyph glyph-name="space" horiz-adv-x="200" unicode=" " /><glyph d="M451 790Q463 771 486 742.5Q509 714 540 682Q571 650 607.5 618Q644 586 684 560Q717 539 746.5 515.5Q776 492 798.5 464.5Q821 437 834.5 405Q848 373 848 334Q848 297 834.5 265.5Q821 234 797 210.5Q773 187 741 173.5Q709 160 672 160Q635 160 604 173.5Q573 187 548 209.5Q523 232 504 261Q485 290 472 321L469 320Q473 269 479.5 227Q486 185 495.5 147Q505 109 518.5 73Q532 37 551 0H349Q368 37 381.5 73Q395 109 404.5 147Q414 185 420.5 227Q427 269 431 320L428 321Q415 290 396 261Q377 232 352 209.5Q327 187 296 173.5Q265 160 228 160Q191 160 159 173.5Q127 187 103 210.5Q79 234 65.5 265.5Q52 297 52 334Q52 373 65.5 405Q79 437 101.5 464.5Q124 492 153.5 515.5Q183 539 216 560Q256 586 292.5 618Q329 650 360 682Q391 714 414 742.5Q437 771 449 790Z" glyph-name="spade" horiz-adv-x="900" unicode="&#9824;" /><glyph d="M247 293 344 390 247 487 363 603 460 506 557 603 673 487 576 390 673 293 557 177 460 274 363 177ZM232 618V162H688V618ZM70 0V780H850V0Z" glyph-name="squaremultiply" horiz-adv-x="920" unicode="&#8864;" /><glyph d="M320 632Q293 632 282 615.5Q271 599 271 570Q271 539 277 507Q283 475 293 440H461V280H334Q339 253 344 223.5Q349 194 351 162H560V0H40V162H189Q184 194 176 223Q168 252 159 280H40V440H105Q96 472 90.5 507.5Q85 543 85 585Q85 621 95.5 658Q106 695 132.5 725.5Q159 756 204.5 775Q250 794 320 794Q386 794 431.5 778Q477 762 505.5 728Q534 694 547 642.5Q560 591 560 519V500H374Q374 564 361.5 598Q349 632 320 632Z" glyph-name="sterling" horiz-adv-x="600" unicode="&#163;" /><glyph d="M406 530V370H279V215Q279 170 298.5 157Q318 144 350 144Q362 144 377 146Q392 148 396 150V0Q389 -4 367 -9Q345 -14 307 -14Q259 -14 220 -3Q181 8 153.5 32.5Q126 57 110.5 97Q95 137 95 195V370H15V530H95V680H279V530Z" glyph-name="t" horiz-adv-x="440" unicode="t" /><glyph d="M406 530V370H279V330H366V200H280Q283 165 302 154.5Q321 144 350 144Q362 144 377 146Q392 148 396 150V0Q389 -4 367 -9Q345 -14 307 -14Q259 -14 220 -3Q181 8 153.5 32.5Q126 57 110.5 97Q95 137 95 195V200H35V330H95V370H15V530H95V680H279V530Z" glyph-name="tbar" horiz-adv-x="440" unicode="&#359;" /><glyph d="M434 800 409 590H329V800ZM406 530V370H279V215Q279 170 298.5 157Q318 144 350 144Q362 144 377 146Q392 148 396 150V0Q389 -4 367 -9Q345 -14 307 -14Q259 -14 220 -3Q181 8 153.5 32.5Q126 57 110.5 97Q95 137 95 195V370H15V530H95V680H279V530Z" glyph-name="tcaron" horiz-adv-x="440" unicode="&#357;" /><glyph d="M320 -100Q320 -172 281.5 -201Q243 -230 160 -230V-170Q192 -170 214.5 -163.5Q237 -157 248 -140H160V-40H320ZM406 530V370H279V215Q279 170 298.5 157Q318 144 350 144Q362 144 377 146Q392 148 396 150V0Q389 -4 367 -9Q345 -14 307 -14Q259 -14 220 -3Q181 8 153.5 32.5Q126 57 110.5 97Q95 137 95 195V370H15V530H95V680H279V530Z" glyph-name="tcommaaccent" horiz-adv-x="440" unicode="&#355;" /><glyph d="M262 720H112V830H262ZM406 530V370H279V215Q279 170 298.5 157Q318 144 350 144Q362 144 377 146Q392 148 396 150V0Q389 -4 367 -9Q345 -14 307 -14Q259 -14 220 -3Q181 8 153.5 32.5Q126 57 110.5 97Q95 137 95 195V370H15V530H95V680H279V530Z" glyph-name="tdotaccent" horiz-adv-x="440" unicode="&#7787;" /><glyph glyph-name="thinspace" horiz-adv-x="150" unicode="&#8201;" /><glyph d="M1256 131Q1256 138 1249 138Q1242 138 1242 131V106Q1242 99 1249 99Q1256 99 1256 106ZM1365 282Q1332 282 1306.5 277.5Q1281 273 1267 262Q1252 250 1246 233Q1254 240 1269 243Q1284 246 1294 246Q1339 246 1363 214Q1387 182 1387 128V118Q1387 91 1379.5 68Q1372 45 1355.5 28Q1339 11 1312.5 1Q1286 -9 1248 -9Q1211 -9 1185 3Q1159 15 1142.5 35.5Q1126 56 1118.5 83.5Q1111 111 1111 142V150Q1111 173 1114 197.5Q1117 222 1123.5 246Q1130 270 1140.5 292Q1151 314 1167 332Q1186 354 1208.5 367Q1231 380 1255.5 387Q1280 394 1307.5 396Q1335 398 1365 398ZM822 0V113H889V231L862 213L798 306L918 388H1021V113H1087V0ZM337 0 913 780H1063L487 0ZM444 496Q444 489 451 489Q458 489 458 496V518Q458 532 445 532H400V638H442Q454 638 454 648V674Q454 681 447 681Q440 681 440 674V650H315V658Q315 726 348.5 757Q382 788 450 788Q493 788 519.5 776Q546 764 560.5 747.5Q575 731 580 713.5Q585 696 585 684V673Q585 644 574 622Q563 600 543 590Q562 580 574.5 558.5Q587 537 587 505V494Q587 481 582 462Q577 443 562.5 425Q548 407 521 394Q494 381 450 381Q382 381 347 412.5Q312 444 312 506V515H444ZM22 390V503H89V621L62 603L-2 696L118 778H221V503H287V390Z" glyph-name="thirteensixteenths" horiz-adv-x="1400" unicode="&#61985;" /><glyph d="M233 185Q241 174 260.5 159Q280 144 310 144Q348 144 362.5 170Q377 196 377 245V285Q377 334 362.5 360Q348 386 310 386Q280 386 260.5 371Q241 356 233 345ZM232 800V489Q255 514 287.5 529Q320 544 365 544Q419 544 456.5 525.5Q494 507 517 473Q540 439 550 391Q560 343 560 285V245Q560 187 550 139Q540 91 517 57Q494 23 456.5 4.5Q419 -14 365 -14Q320 -14 287.5 0.5Q255 15 232 41V-200H48V800Z" glyph-name="thorn" horiz-adv-x="585" unicode="&#254;" /><glyph d="M221 250Q221 220 227 200.5Q233 181 243.5 169Q254 157 267 152.5Q280 148 295 148H305Q334 148 356.5 168Q379 188 379 233V243Q379 317 305 317H200V479H302Q374 479 374 553V563Q374 594 354 613Q334 632 305 632H295Q266 632 246 608Q226 584 226 520H40V539Q40 668 103.5 731Q167 794 300 794Q375 794 425 773.5Q475 753 505 722Q535 691 547.5 654Q560 617 560 585V565Q560 504 535.5 463.5Q511 423 476 399Q513 376 539 335Q565 294 565 231V211Q565 177 551.5 137.5Q538 98 507 64.5Q476 31 425.5 8.5Q375 -14 300 -14Q167 -14 101 50.5Q35 115 35 236V250Z" glyph-name="three" horiz-adv-x="600" unicode="3" /><glyph d="M144 -94Q144 -101 151 -101Q158 -101 158 -94V-72Q158 -58 145 -58H100V48H142Q154 48 154 58V84Q154 91 147 91Q140 91 140 84V60H15V68Q15 136 48.5 167Q82 198 150 198Q193 198 219.5 186Q246 174 260.5 157.5Q275 141 280 123.5Q285 106 285 94V83Q285 54 274 32Q263 10 243 0Q262 -10 274.5 -31.5Q287 -53 287 -85V-96Q287 -109 282 -128Q277 -147 262.5 -165Q248 -183 221 -196Q194 -209 150 -209Q82 -209 47 -177.5Q12 -146 12 -84V-75H144Z" glyph-name="three.inf" horiz-adv-x="300" unicode="&#58740;" /><glyph glyph-name="threeperemspace" horiz-adv-x="333" unicode="&#8196;" /><glyph d="M40 430H710V270H40Z" glyph-name="threequarteremdash" horiz-adv-x="750" unicode="&#58482;" /><glyph d="M40 470H710V310H40Z" glyph-name="threequarteremdash.cap" horiz-adv-x="750" unicode="&#58501;" /><glyph d="M642 175 644 215 620 175ZM642 0V63H510V156L649 390H774V177H790V63H774V0ZM37 0 613 780H763L187 0ZM144 496Q144 489 151 489Q158 489 158 496V518Q158 532 145 532H100V638H142Q154 638 154 648V674Q154 681 147 681Q140 681 140 674V650H15V658Q15 726 48.5 757Q82 788 150 788Q193 788 219.5 776Q246 764 260.5 747.5Q275 731 280 713.5Q285 696 285 684V673Q285 644 274 622Q263 600 243 590Q262 580 274.5 558.5Q287 537 287 505V494Q287 481 282 462Q277 443 262.5 425Q248 407 221 394Q194 381 150 381Q82 381 47 412.5Q12 444 12 506V515H144Z" glyph-name="threequarters" horiz-adv-x="800" unicode="&#190;" /><glyph d="M956 131Q956 138 949 138Q942 138 942 131V106Q942 99 949 99Q956 99 956 106ZM1065 282Q1032 282 1006.5 277.5Q981 273 967 262Q952 250 946 233Q954 240 969 243Q984 246 994 246Q1039 246 1063 214Q1087 182 1087 128V118Q1087 91 1079.5 68Q1072 45 1055.5 28Q1039 11 1012.5 1Q986 -9 948 -9Q911 -9 885 3Q859 15 842.5 35.5Q826 56 818.5 83.5Q811 111 811 142V150Q811 173 814 197.5Q817 222 823.5 246Q830 270 840.5 292Q851 314 867 332Q886 354 908.5 367Q931 380 955.5 387Q980 394 1007.5 396Q1035 398 1065 398ZM522 0V113H589V231L562 213L498 306L618 388H721V113H787V0ZM37 0 613 780H763L187 0ZM144 496Q144 489 151 489Q158 489 158 496V518Q158 532 145 532H100V638H142Q154 638 154 648V674Q154 681 147 681Q140 681 140 674V650H15V658Q15 726 48.5 757Q82 788 150 788Q193 788 219.5 776Q246 764 260.5 747.5Q275 731 280 713.5Q285 696 285 684V673Q285 644 274 622Q263 600 243 590Q262 580 274.5 558.5Q287 537 287 505V494Q287 481 282 462Q277 443 262.5 425Q248 407 221 394Q194 381 150 381Q82 381 47 412.5Q12 444 12 506V515H144Z" glyph-name="threesixteenths" horiz-adv-x="1100" unicode="&#61974;" /><glyph d="M144 496Q144 489 151 489Q158 489 158 496V518Q158 532 145 532H100V638H142Q154 638 154 648V674Q154 681 147 681Q140 681 140 674V650H15V658Q15 726 48.5 757Q82 788 150 788Q193 788 219.5 776Q246 764 260.5 747.5Q275 731 280 713.5Q285 696 285 684V673Q285 644 274 622Q263 600 243 590Q262 580 274.5 558.5Q287 537 287 505V494Q287 481 282 462Q277 443 262.5 425Q248 407 221 394Q194 381 150 381Q82 381 47 412.5Q12 444 12 506V515H144Z" glyph-name="threesuperior" horiz-adv-x="300" unicode="&#179;" /><glyph d="M465 780Q465 733 455.5 699.5Q446 666 429.5 645Q413 624 391.5 614Q370 604 345 604Q321 604 298.5 612Q276 620 255.5 629.5Q235 639 217.5 647Q200 655 185 655Q171 655 163 647Q155 639 155 620H35Q35 667 44.5 700.5Q54 734 70.5 755Q87 776 108.5 786Q130 796 155 796Q179 796 201.5 788Q224 780 244.5 770.5Q265 761 282.5 753Q300 745 315 745Q329 745 337 753Q345 761 345 780Z" glyph-name="tilde" horiz-adv-x="500" unicode="&#732;" /><glyph d="M445 950Q445 914 435.5 890Q426 866 411 851.5Q396 837 376 830.5Q356 824 335 824Q311 824 289 831Q267 838 248.5 847Q230 856 213.5 863Q197 870 183 870Q169 870 159.5 863.5Q150 857 150 840H55Q55 876 64.5 900Q74 924 89 938.5Q104 953 124 959.5Q144 966 165 966Q189 966 211 959Q233 952 251.5 943Q270 934 286.5 927Q303 920 317 920Q331 920 340.5 926.5Q350 933 350 950Z" glyph-name="tilde.cap" horiz-adv-x="500" unicode="&#58404;" /><glyph d="M424 530H350L313 677L315 620V530H244V800H350L387 654L424 800H530V530H459V620L461 677ZM152 530H81V739H16V800H218V739H152Z" glyph-name="trademark" horiz-adv-x="570" unicode="&#8482;" /><glyph d="M61 780H243L465 199L687 780H869L555 -14H375Z" glyph-name="triagdn" horiz-adv-x="930" unicode="&#9660;" /><glyph d="M850 794V612L269 390L850 168V-14L56 300V480Z" glyph-name="triaglf" horiz-adv-x="930" unicode="&#9668;" /><glyph d="M874 300 80 -14V168L661 390L80 612V794L874 480Z" glyph-name="triagrt" horiz-adv-x="930" unicode="&#9658;" /><glyph d="M869 0H687L465 581L243 0H61L375 794H555Z" glyph-name="triagup" horiz-adv-x="930" unicode="&#9650;" /><glyph d="M420 780 412 440H268L260 780ZM640 780 612 440H468L460 780ZM220 780 212 440H68L40 780Z" glyph-name="tripleprime" horiz-adv-x="680" unicode="&#8244;" /><glyph d="M560 162V0H40V117L330 440Q351 463 362.5 482Q374 501 374 530V540Q374 588 354 610Q334 632 305 632H295Q266 632 246 608Q226 584 226 520H40V539Q40 668 103.5 731Q167 794 300 794Q375 794 425 773.5Q475 753 505 720.5Q535 688 547.5 649.5Q560 611 560 575V555Q560 519 554 491.5Q548 464 537 441Q526 418 510 397Q494 376 473 353L300 161L370 162Z" glyph-name="two" horiz-adv-x="600" unicode="2" /><glyph d="M285 -200H15V-117L144 33Q149 38 151.5 43Q154 48 154 56V84Q154 91 147 91Q140 91 140 84V60H15V68Q15 136 48.5 167Q82 198 150 198Q193 198 219.5 186Q246 174 260.5 156Q275 138 280 118.5Q285 99 285 84V72Q285 39 275 17Q265 -5 243 -30L193 -87H285Z" glyph-name="two.inf" horiz-adv-x="300" unicode="&#58739;" /><glyph d="M285 390H15V473L144 623Q149 628 151.5 633Q154 638 154 646V674Q154 681 147 681Q140 681 140 674V650H15V658Q15 726 48.5 757Q82 788 150 788Q193 788 219.5 776Q246 764 260.5 746Q275 728 280 708.5Q285 689 285 674V662Q285 629 275 607Q265 585 243 560L193 503H285Z" glyph-name="twosuperior" horiz-adv-x="300" unicode="&#178;" /><glyph d="M228 530V205Q228 196 229.5 185Q231 174 237 165Q243 156 254 150Q265 144 284 144Q314 144 333.5 159Q353 174 361 185V530H545V150L555 0H389L376 65Q350 30 309.5 8Q269 -14 209 -14Q162 -14 130.5 2Q99 18 79.5 44.5Q60 71 52 105Q44 139 44 175V530Z" glyph-name="u" horiz-adv-x="595" unicode="u" /><glyph d="M496 780 385 590H203L294 780ZM228 530V205Q228 196 229.5 185Q231 174 237 165Q243 156 254 150Q265 144 284 144Q314 144 333.5 159Q353 174 361 185V530H545V150L555 0H389L376 65Q350 30 309.5 8Q269 -14 209 -14Q162 -14 130.5 2Q99 18 79.5 44.5Q60 71 52 105Q44 139 44 175V530Z" glyph-name="uacute" horiz-adv-x="595" unicode="&#250;" /><glyph d="M294 576Q238 576 200.5 591.5Q163 607 140 634Q117 661 107.5 698.5Q98 736 99 780H229Q229 739 249 726.5Q269 714 294 714Q319 714 339 726.5Q359 739 359 780H489Q490 736 480.5 698.5Q471 661 448 634Q425 607 387 591.5Q349 576 294 576ZM228 530V205Q228 196 229.5 185Q231 174 237 165Q243 156 254 150Q265 144 284 144Q314 144 333.5 159Q353 174 361 185V530H545V150L555 0H389L376 65Q350 30 309.5 8Q269 -14 209 -14Q162 -14 130.5 2Q99 18 79.5 44.5Q60 71 52 105Q44 139 44 175V530Z" glyph-name="ubreve" horiz-adv-x="595" unicode="&#365;" /><glyph d="M69 590 204 780H384L519 590H359L294 663L229 590ZM228 530V205Q228 196 229.5 185Q231 174 237 165Q243 156 254 150Q265 144 284 144Q314 144 333.5 159Q353 174 361 185V530H545V150L555 0H389L376 65Q350 30 309.5 8Q269 -14 209 -14Q162 -14 130.5 2Q99 18 79.5 44.5Q60 71 52 105Q44 139 44 175V530Z" glyph-name="ucircumflex" horiz-adv-x="595" unicode="&#251;" /><glyph d="M274 590H84V780H274ZM504 590H314V780H504ZM228 530V205Q228 196 229.5 185Q231 174 237 165Q243 156 254 150Q265 144 284 144Q314 144 333.5 159Q353 174 361 185V530H545V150L555 0H389L376 65Q350 30 309.5 8Q269 -14 209 -14Q162 -14 130.5 2Q99 18 79.5 44.5Q60 71 52 105Q44 139 44 175V530Z" glyph-name="udieresis" horiz-adv-x="595" unicode="&#252;" /><glyph d="M294 780 385 590H203L92 780ZM228 530V205Q228 196 229.5 185Q231 174 237 165Q243 156 254 150Q265 144 284 144Q314 144 333.5 159Q353 174 361 185V530H545V150L555 0H389L376 65Q350 30 309.5 8Q269 -14 209 -14Q162 -14 130.5 2Q99 18 79.5 44.5Q60 71 52 105Q44 139 44 175V530Z" glyph-name="ugrave" horiz-adv-x="595" unicode="&#249;" /><glyph d="M561 780 450 590H308L399 780ZM361 780 279 590H137L199 780ZM228 530V205Q228 196 229.5 185Q231 174 237 165Q243 156 254 150Q265 144 284 144Q314 144 333.5 159Q353 174 361 185V530H545V150L555 0H389L376 65Q350 30 309.5 8Q269 -14 209 -14Q162 -14 130.5 2Q99 18 79.5 44.5Q60 71 52 105Q44 139 44 175V530Z" glyph-name="uhungarumlaut" horiz-adv-x="595" unicode="&#369;" /><glyph d="M134 765H454V605H134ZM228 530V205Q228 196 229.5 185Q231 174 237 165Q243 156 254 150Q265 144 284 144Q314 144 333.5 159Q353 174 361 185V530H545V150L555 0H389L376 65Q350 30 309.5 8Q269 -14 209 -14Q162 -14 130.5 2Q99 18 79.5 44.5Q60 71 52 105Q44 139 44 175V530Z" glyph-name="umacron" horiz-adv-x="595" unicode="&#363;" /><glyph d="M40 -40H280V-200H40Z" glyph-name="underscore" horiz-adv-x="320" unicode="_" /><glyph d="M40 -40H560V-200H40Z" glyph-name="underscoremonospace" horiz-adv-x="600" unicode="&#65343;" /><glyph d="M40 430H320V270H40Z" glyph-name="uni00AD" horiz-adv-x="360" unicode="&#173;" /><glyph d="M40 430H1160V270H40Z" glyph-name="uni2015" horiz-adv-x="1200" unicode="&#8213;" /><glyph d="M40 470H1160V310H40Z" glyph-name="uni2015.cap" horiz-adv-x="1200" unicode="&#58504;" /><glyph d="M160 667Q160 678 150 678Q140 678 140 667V502Q140 491 150 491Q160 491 160 502ZM288 498Q288 447 251 414Q214 381 150 381Q86 381 49 414Q12 447 12 498V671Q12 722 49 755Q86 788 150 788Q214 788 251 755Q288 722 288 671Z" glyph-name="uni2070" horiz-adv-x="300" unicode="&#8304;" /><glyph d="M142 565 144 605 120 565ZM142 390V453H10V546L149 780H274V567H290V453H274V390Z" glyph-name="uni2074" horiz-adv-x="300" unicode="&#8308;" /><glyph d="M144 515V496Q144 489 151 489Q158 489 158 496V523Q158 536 143 536H142Q136 536 129 532L15 572L23 780H282V666H132L130 639Q136 644 149.5 647Q163 650 180 650Q236 650 261.5 614.5Q287 579 287 522V509Q287 482 280 459Q273 436 257 418.5Q241 401 214.5 391Q188 381 150 381Q82 381 47 412.5Q12 444 12 506V515Z" glyph-name="uni2075" horiz-adv-x="300" unicode="&#8309;" /><glyph d="M156 521Q156 528 149 528Q142 528 142 521V496Q142 489 149 489Q156 489 156 496ZM265 672Q232 672 206.5 667.5Q181 663 167 652Q152 640 146 623Q154 630 169 633Q184 636 194 636Q239 636 263 604Q287 572 287 518V508Q287 481 279.5 458Q272 435 255.5 418Q239 401 212.5 391Q186 381 148 381Q111 381 85 393Q59 405 42.5 425.5Q26 446 18.5 473.5Q11 501 11 532V540Q11 563 14 587.5Q17 612 23.5 636Q30 660 40.5 682Q51 704 67 722Q86 744 108.5 757Q131 770 155.5 777Q180 784 207.5 786Q235 788 265 788Z" glyph-name="uni2076" horiz-adv-x="300" unicode="&#8310;" /><glyph d="M7 780H292V698L172 390H28L167 667L121 666V640H7Z" glyph-name="uni2077" horiz-adv-x="300" unicode="&#8311;" /><glyph d="M150 381Q106 381 79 394Q52 407 37.5 425Q23 443 18 462Q13 481 13 494V505Q13 537 25.5 558.5Q38 580 57 590Q37 600 26 622Q15 644 15 673V684Q15 696 20 713.5Q25 731 39.5 747.5Q54 764 80.5 776Q107 788 150 788Q193 788 219.5 776Q246 764 260.5 747.5Q275 731 280 713.5Q285 696 285 684V673Q285 644 274 622Q263 600 243 590Q262 580 274.5 558.5Q287 537 287 505V494Q287 481 282 462Q277 443 262.5 425Q248 407 221 394Q194 381 150 381ZM157 674Q157 681 150 681Q143 681 143 674V645Q143 638 150 638Q157 638 157 645ZM157 525Q157 532 150 532Q143 532 143 525V496Q143 489 150 489Q157 489 157 496Z" glyph-name="uni2078" horiz-adv-x="300" unicode="&#8312;" /><glyph d="M144 648Q144 641 151 641Q158 641 158 648V673Q158 680 151 680Q144 680 144 673ZM33 497Q66 497 92.5 501.5Q119 506 133 517Q148 529 154 546Q146 539 131 536Q116 533 106 533Q61 533 37 565Q13 597 13 651V661Q13 688 20.5 711Q28 734 44.5 751Q61 768 87.5 778Q114 788 152 788Q189 788 215 776Q241 764 257.5 743.5Q274 723 281.5 695.5Q289 668 289 637V629Q289 582 276.5 532.5Q264 483 233 447Q214 425 191.5 412Q169 399 143.5 392Q118 385 90.5 383Q63 381 33 381Z" glyph-name="uni2079" horiz-adv-x="300" unicode="&#8313;" /><glyph d="M207 718V642H283V528H207V452H93V528H17V642H93V718Z" glyph-name="uni207A" horiz-adv-x="300" unicode="&#8314;" /><glyph d="M17 642H283V528H17Z" glyph-name="uni207B" horiz-adv-x="300" unicode="&#8315;" /><glyph d="M17 566H283V452H17ZM17 718H283V604H17Z" glyph-name="uni207C" horiz-adv-x="300" unicode="&#8316;" /><glyph d="M5 590Q5 658 25.5 707.5Q46 757 69 780H199Q189 767 178 748.5Q167 730 157.5 706Q148 682 142 653Q136 624 136 590V580Q136 546 142 517Q148 488 157.5 464Q167 440 178 421.5Q189 403 199 390H69Q46 413 25.5 462.5Q5 512 5 580Z" glyph-name="uni207D" horiz-adv-x="200" unicode="&#8317;" /><glyph d="M195 580Q195 512 174.5 462.5Q154 413 131 390H1Q11 403 22 421.5Q33 440 42.5 464Q52 488 58 517Q64 546 64 580V590Q64 624 58 653Q52 682 42.5 706Q33 730 22 748.5Q11 767 1 780H131Q154 757 174.5 707.5Q195 658 195 590Z" glyph-name="uni207E" horiz-adv-x="200" unicode="&#8318;" /><glyph d="M160 277Q160 288 150 288Q140 288 140 277V112Q140 101 150 101Q160 101 160 112ZM288 108Q288 57 251 24Q214 -9 150 -9Q86 -9 49 24Q12 57 12 108V281Q12 332 49 365Q86 398 150 398Q214 398 251 365Q288 332 288 281Z" glyph-name="uni2080" horiz-adv-x="300" unicode="&#8320;" /><glyph d="M22 0V113H89V231L62 213L-2 306L118 388H221V113H287V0Z" glyph-name="uni2081" horiz-adv-x="300" unicode="&#8321;" /><glyph d="M285 0H15V83L144 233Q149 238 151.5 243Q154 248 154 256V284Q154 291 147 291Q140 291 140 284V260H15V268Q15 336 48.5 367Q82 398 150 398Q193 398 219.5 386Q246 374 260.5 356Q275 338 280 318.5Q285 299 285 284V272Q285 239 275 217Q265 195 243 170L193 113H285Z" glyph-name="uni2082" horiz-adv-x="300" unicode="&#8322;" /><glyph d="M144 106Q144 99 151 99Q158 99 158 106V128Q158 142 145 142H100V248H142Q154 248 154 258V284Q154 291 147 291Q140 291 140 284V260H15V268Q15 336 48.5 367Q82 398 150 398Q193 398 219.5 386Q246 374 260.5 357.5Q275 341 280 323.5Q285 306 285 294V283Q285 254 274 232Q263 210 243 200Q262 190 274.5 168.5Q287 147 287 115V104Q287 91 282 72Q277 53 262.5 35Q248 17 221 4Q194 -9 150 -9Q82 -9 47 22.5Q12 54 12 116V125H144Z" glyph-name="uni2083" horiz-adv-x="300" unicode="&#8323;" /><glyph d="M142 175 144 215 120 175ZM142 0V63H10V156L149 390H274V177H290V63H274V0Z" glyph-name="uni2084" horiz-adv-x="300" unicode="&#8324;" /><glyph d="M144 125V106Q144 99 151 99Q158 99 158 106V133Q158 146 143 146H142Q136 146 129 142L15 182L23 390H282V276H132L130 249Q136 254 149.5 257Q163 260 180 260Q236 260 261.5 224.5Q287 189 287 132V119Q287 92 280 69Q273 46 257 28.5Q241 11 214.5 1Q188 -9 150 -9Q82 -9 47 22.5Q12 54 12 116V125Z" glyph-name="uni2085" horiz-adv-x="300" unicode="&#8325;" /><glyph d="M156 131Q156 138 149 138Q142 138 142 131V106Q142 99 149 99Q156 99 156 106ZM265 282Q232 282 206.5 277.5Q181 273 167 262Q152 250 146 233Q154 240 169 243Q184 246 194 246Q239 246 263 214Q287 182 287 128V118Q287 91 279.5 68Q272 45 255.5 28Q239 11 212.5 1Q186 -9 148 -9Q111 -9 85 3Q59 15 42.5 35.5Q26 56 18.5 83.5Q11 111 11 142V150Q11 173 14 197.5Q17 222 23.5 246Q30 270 40.5 292Q51 314 67 332Q86 354 108.5 367Q131 380 155.5 387Q180 394 207.5 396Q235 398 265 398Z" glyph-name="uni2086" horiz-adv-x="300" unicode="&#8326;" /><glyph d="M7 390H292V308L172 0H28L167 277L121 276V250H7Z" glyph-name="uni2087" horiz-adv-x="300" unicode="&#8327;" /><glyph d="M150 -9Q106 -9 79 4Q52 17 37.5 35Q23 53 18 72Q13 91 13 104V115Q13 147 25.5 168.5Q38 190 57 200Q37 210 26 232Q15 254 15 283V294Q15 306 20 323.5Q25 341 39.5 357.5Q54 374 80.5 386Q107 398 150 398Q193 398 219.5 386Q246 374 260.5 357.5Q275 341 280 323.5Q285 306 285 294V283Q285 254 274 232Q263 210 243 200Q262 190 274.5 168.5Q287 147 287 115V104Q287 91 282 72Q277 53 262.5 35Q248 17 221 4Q194 -9 150 -9ZM157 284Q157 291 150 291Q143 291 143 284V255Q143 248 150 248Q157 248 157 255ZM157 135Q157 142 150 142Q143 142 143 135V106Q143 99 150 99Q157 99 157 106Z" glyph-name="uni2088" horiz-adv-x="300" unicode="&#8328;" /><glyph d="M144 258Q144 251 151 251Q158 251 158 258V283Q158 290 151 290Q144 290 144 283ZM33 107Q66 107 92.5 111.5Q119 116 133 127Q148 139 154 156Q146 149 131 146Q116 143 106 143Q61 143 37 175Q13 207 13 261V271Q13 298 20.5 321Q28 344 44.5 361Q61 378 87.5 388Q114 398 152 398Q189 398 215 386Q241 374 257.5 353.5Q274 333 281.5 305.5Q289 278 289 247V239Q289 192 276.5 142.5Q264 93 233 57Q214 35 191.5 22Q169 9 143.5 2Q118 -5 90.5 -7Q63 -9 33 -9Z" glyph-name="uni2089" horiz-adv-x="300" unicode="&#8329;" /><glyph d="M207 328V252H283V138H207V62H93V138H17V252H93V328Z" glyph-name="uni208A" horiz-adv-x="300" unicode="&#8330;" /><glyph d="M17 252H283V138H17Z" glyph-name="uni208B" horiz-adv-x="300" unicode="&#8331;" /><glyph d="M17 176H283V62H17ZM17 328H283V214H17Z" glyph-name="uni208C" horiz-adv-x="300" unicode="&#8332;" /><glyph d="M5 200Q5 268 25.5 317.5Q46 367 69 390H199Q189 377 178 358.5Q167 340 157.5 316Q148 292 142 263Q136 234 136 200V190Q136 156 142 127Q148 98 157.5 74Q167 50 178 31.5Q189 13 199 0H69Q46 23 25.5 72.5Q5 122 5 190Z" glyph-name="uni208D" horiz-adv-x="200" unicode="&#8333;" /><glyph d="M195 190Q195 122 174.5 72.5Q154 23 131 0H1Q11 13 22 31.5Q33 50 42.5 74Q52 98 58 127Q64 156 64 190V200Q64 234 58 263Q52 292 42.5 316Q33 340 22 358.5Q11 377 1 390H131Q154 367 174.5 317.5Q195 268 195 200Z" glyph-name="uni208E" horiz-adv-x="200" unicode="&#8334;" /><glyph d="M644 106Q644 99 651 99Q658 99 658 106V128Q658 142 645 142H600V248H642Q654 248 654 258V284Q654 291 647 291Q640 291 640 284V260H515V268Q515 336 548.5 367Q582 398 650 398Q693 398 719.5 386Q746 374 760.5 357.5Q775 341 780 323.5Q785 306 785 294V283Q785 254 774 232Q763 210 743 200Q762 190 774.5 168.5Q787 147 787 115V104Q787 91 782 72Q777 53 762.5 35Q748 17 721 4Q694 -9 650 -9Q582 -9 547 22.5Q512 54 512 116V125H644ZM37 0 613 780H763L187 0ZM22 390V503H89V621L62 603L-2 696L118 778H221V503H287V390Z" glyph-name="uni2153" horiz-adv-x="800" unicode="&#8531;" /><glyph d="M644 106Q644 99 651 99Q658 99 658 106V128Q658 142 645 142H600V248H642Q654 248 654 258V284Q654 291 647 291Q640 291 640 284V260H515V268Q515 336 548.5 367Q582 398 650 398Q693 398 719.5 386Q746 374 760.5 357.5Q775 341 780 323.5Q785 306 785 294V283Q785 254 774 232Q763 210 743 200Q762 190 774.5 168.5Q787 147 787 115V104Q787 91 782 72Q777 53 762.5 35Q748 17 721 4Q694 -9 650 -9Q582 -9 547 22.5Q512 54 512 116V125H644ZM37 0 613 780H763L187 0ZM285 390H15V473L144 623Q149 628 151.5 633Q154 638 154 646V674Q154 681 147 681Q140 681 140 674V650H15V658Q15 726 48.5 757Q82 788 150 788Q193 788 219.5 776Q246 764 260.5 746Q275 728 280 708.5Q285 689 285 674V662Q285 629 275 607Q265 585 243 560L193 503H285Z" glyph-name="uni2154" horiz-adv-x="800" unicode="&#8532;" /><glyph d="M644 125V106Q644 99 651 99Q658 99 658 106V133Q658 146 643 146H642Q636 146 629 142L515 182L523 390H782V276H632L630 249Q636 254 649.5 257Q663 260 680 260Q736 260 761.5 224.5Q787 189 787 132V119Q787 92 780 69Q773 46 757 28.5Q741 11 714.5 1Q688 -9 650 -9Q582 -9 547 22.5Q512 54 512 116V125ZM37 0 613 780H763L187 0ZM22 390V503H89V621L62 603L-2 696L118 778H221V503H287V390Z" glyph-name="uni2155" horiz-adv-x="800" unicode="&#8533;" /><glyph d="M644 125V106Q644 99 651 99Q658 99 658 106V133Q658 146 643 146H642Q636 146 629 142L515 182L523 390H782V276H632L630 249Q636 254 649.5 257Q663 260 680 260Q736 260 761.5 224.5Q787 189 787 132V119Q787 92 780 69Q773 46 757 28.5Q741 11 714.5 1Q688 -9 650 -9Q582 -9 547 22.5Q512 54 512 116V125ZM37 0 613 780H763L187 0ZM285 390H15V473L144 623Q149 628 151.5 633Q154 638 154 646V674Q154 681 147 681Q140 681 140 674V650H15V658Q15 726 48.5 757Q82 788 150 788Q193 788 219.5 776Q246 764 260.5 746Q275 728 280 708.5Q285 689 285 674V662Q285 629 275 607Q265 585 243 560L193 503H285Z" glyph-name="uni2156" horiz-adv-x="800" unicode="&#8534;" /><glyph d="M644 125V106Q644 99 651 99Q658 99 658 106V133Q658 146 643 146H642Q636 146 629 142L515 182L523 390H782V276H632L630 249Q636 254 649.5 257Q663 260 680 260Q736 260 761.5 224.5Q787 189 787 132V119Q787 92 780 69Q773 46 757 28.5Q741 11 714.5 1Q688 -9 650 -9Q582 -9 547 22.5Q512 54 512 116V125ZM37 0 613 780H763L187 0ZM144 496Q144 489 151 489Q158 489 158 496V518Q158 532 145 532H100V638H142Q154 638 154 648V674Q154 681 147 681Q140 681 140 674V650H15V658Q15 726 48.5 757Q82 788 150 788Q193 788 219.5 776Q246 764 260.5 747.5Q275 731 280 713.5Q285 696 285 684V673Q285 644 274 622Q263 600 243 590Q262 580 274.5 558.5Q287 537 287 505V494Q287 481 282 462Q277 443 262.5 425Q248 407 221 394Q194 381 150 381Q82 381 47 412.5Q12 444 12 506V515H144Z" glyph-name="uni2157" horiz-adv-x="800" unicode="&#8535;" /><glyph d="M644 125V106Q644 99 651 99Q658 99 658 106V133Q658 146 643 146H642Q636 146 629 142L515 182L523 390H782V276H632L630 249Q636 254 649.5 257Q663 260 680 260Q736 260 761.5 224.5Q787 189 787 132V119Q787 92 780 69Q773 46 757 28.5Q741 11 714.5 1Q688 -9 650 -9Q582 -9 547 22.5Q512 54 512 116V125ZM37 0 613 780H763L187 0ZM142 565 144 605 120 565ZM142 390V453H10V546L149 780H274V567H290V453H274V390Z" glyph-name="uni2158" horiz-adv-x="800" unicode="&#8536;" /><glyph d="M656 131Q656 138 649 138Q642 138 642 131V106Q642 99 649 99Q656 99 656 106ZM765 282Q732 282 706.5 277.5Q681 273 667 262Q652 250 646 233Q654 240 669 243Q684 246 694 246Q739 246 763 214Q787 182 787 128V118Q787 91 779.5 68Q772 45 755.5 28Q739 11 712.5 1Q686 -9 648 -9Q611 -9 585 3Q559 15 542.5 35.5Q526 56 518.5 83.5Q511 111 511 142V150Q511 173 514 197.5Q517 222 523.5 246Q530 270 540.5 292Q551 314 567 332Q586 354 608.5 367Q631 380 655.5 387Q680 394 707.5 396Q735 398 765 398ZM37 0 613 780H763L187 0ZM22 390V503H89V621L62 603L-2 696L118 778H221V503H287V390Z" glyph-name="uni2159" horiz-adv-x="800" unicode="&#8537;" /><glyph d="M656 131Q656 138 649 138Q642 138 642 131V106Q642 99 649 99Q656 99 656 106ZM765 282Q732 282 706.5 277.5Q681 273 667 262Q652 250 646 233Q654 240 669 243Q684 246 694 246Q739 246 763 214Q787 182 787 128V118Q787 91 779.5 68Q772 45 755.5 28Q739 11 712.5 1Q686 -9 648 -9Q611 -9 585 3Q559 15 542.5 35.5Q526 56 518.5 83.5Q511 111 511 142V150Q511 173 514 197.5Q517 222 523.5 246Q530 270 540.5 292Q551 314 567 332Q586 354 608.5 367Q631 380 655.5 387Q680 394 707.5 396Q735 398 765 398ZM37 0 613 780H763L187 0ZM144 515V496Q144 489 151 489Q158 489 158 496V523Q158 536 143 536H142Q136 536 129 532L15 572L23 780H282V666H132L130 639Q136 644 149.5 647Q163 650 180 650Q236 650 261.5 614.5Q287 579 287 522V509Q287 482 280 459Q273 436 257 418.5Q241 401 214.5 391Q188 381 150 381Q82 381 47 412.5Q12 444 12 506V515Z" glyph-name="uni215A" horiz-adv-x="800" unicode="&#8538;" /><glyph d="M650 -9Q606 -9 579 4Q552 17 537.5 35Q523 53 518 72Q513 91 513 104V115Q513 147 525.5 168.5Q538 190 557 200Q537 210 526 232Q515 254 515 283V294Q515 306 520 323.5Q525 341 539.5 357.5Q554 374 580.5 386Q607 398 650 398Q693 398 719.5 386Q746 374 760.5 357.5Q775 341 780 323.5Q785 306 785 294V283Q785 254 774 232Q763 210 743 200Q762 190 774.5 168.5Q787 147 787 115V104Q787 91 782 72Q777 53 762.5 35Q748 17 721 4Q694 -9 650 -9ZM657 284Q657 291 650 291Q643 291 643 284V255Q643 248 650 248Q657 248 657 255ZM657 135Q657 142 650 142Q643 142 643 135V106Q643 99 650 99Q657 99 657 106ZM37 0 613 780H763L187 0ZM22 390V503H89V621L62 603L-2 696L118 778H221V503H287V390Z" glyph-name="uni215B" horiz-adv-x="800" unicode="&#8539;" /><glyph d="M650 -9Q606 -9 579 4Q552 17 537.5 35Q523 53 518 72Q513 91 513 104V115Q513 147 525.5 168.5Q538 190 557 200Q537 210 526 232Q515 254 515 283V294Q515 306 520 323.5Q525 341 539.5 357.5Q554 374 580.5 386Q607 398 650 398Q693 398 719.5 386Q746 374 760.5 357.5Q775 341 780 323.5Q785 306 785 294V283Q785 254 774 232Q763 210 743 200Q762 190 774.5 168.5Q787 147 787 115V104Q787 91 782 72Q777 53 762.5 35Q748 17 721 4Q694 -9 650 -9ZM657 284Q657 291 650 291Q643 291 643 284V255Q643 248 650 248Q657 248 657 255ZM657 135Q657 142 650 142Q643 142 643 135V106Q643 99 650 99Q657 99 657 106ZM37 0 613 780H763L187 0ZM144 496Q144 489 151 489Q158 489 158 496V518Q158 532 145 532H100V638H142Q154 638 154 648V674Q154 681 147 681Q140 681 140 674V650H15V658Q15 726 48.5 757Q82 788 150 788Q193 788 219.5 776Q246 764 260.5 747.5Q275 731 280 713.5Q285 696 285 684V673Q285 644 274 622Q263 600 243 590Q262 580 274.5 558.5Q287 537 287 505V494Q287 481 282 462Q277 443 262.5 425Q248 407 221 394Q194 381 150 381Q82 381 47 412.5Q12 444 12 506V515H144Z" glyph-name="uni215C" horiz-adv-x="800" unicode="&#8540;" /><glyph d="M650 -9Q606 -9 579 4Q552 17 537.5 35Q523 53 518 72Q513 91 513 104V115Q513 147 525.5 168.5Q538 190 557 200Q537 210 526 232Q515 254 515 283V294Q515 306 520 323.5Q525 341 539.5 357.5Q554 374 580.5 386Q607 398 650 398Q693 398 719.5 386Q746 374 760.5 357.5Q775 341 780 323.5Q785 306 785 294V283Q785 254 774 232Q763 210 743 200Q762 190 774.5 168.5Q787 147 787 115V104Q787 91 782 72Q777 53 762.5 35Q748 17 721 4Q694 -9 650 -9ZM657 284Q657 291 650 291Q643 291 643 284V255Q643 248 650 248Q657 248 657 255ZM657 135Q657 142 650 142Q643 142 643 135V106Q643 99 650 99Q657 99 657 106ZM37 0 613 780H763L187 0ZM144 515V496Q144 489 151 489Q158 489 158 496V523Q158 536 143 536H142Q136 536 129 532L15 572L23 780H282V666H132L130 639Q136 644 149.5 647Q163 650 180 650Q236 650 261.5 614.5Q287 579 287 522V509Q287 482 280 459Q273 436 257 418.5Q241 401 214.5 391Q188 381 150 381Q82 381 47 412.5Q12 444 12 506V515Z" glyph-name="uni215D" horiz-adv-x="800" unicode="&#8541;" /><glyph d="M650 -9Q606 -9 579 4Q552 17 537.5 35Q523 53 518 72Q513 91 513 104V115Q513 147 525.5 168.5Q538 190 557 200Q537 210 526 232Q515 254 515 283V294Q515 306 520 323.5Q525 341 539.5 357.5Q554 374 580.5 386Q607 398 650 398Q693 398 719.5 386Q746 374 760.5 357.5Q775 341 780 323.5Q785 306 785 294V283Q785 254 774 232Q763 210 743 200Q762 190 774.5 168.5Q787 147 787 115V104Q787 91 782 72Q777 53 762.5 35Q748 17 721 4Q694 -9 650 -9ZM657 284Q657 291 650 291Q643 291 643 284V255Q643 248 650 248Q657 248 657 255ZM657 135Q657 142 650 142Q643 142 643 135V106Q643 99 650 99Q657 99 657 106ZM37 0 613 780H763L187 0ZM7 780H292V698L172 390H28L167 667L121 666V640H7Z" glyph-name="uni215E" horiz-adv-x="800" unicode="&#8542;" /><glyph d="M37 0 613 780H763L187 0ZM22 390V503H89V621L62 603L-2 696L118 778H221V503H287V390Z" glyph-name="uni215F" horiz-adv-x="500" unicode="&#8543;" /><glyph d="M70 0V780H850V616H349L865 101L749 -15L234 501V0Z" glyph-name="uni2196" horiz-adv-x="920" unicode="&#8598;" /><glyph d="M70 780H850V0H686V501L171 -15L55 101L571 616H70Z" glyph-name="uni2197" horiz-adv-x="920" unicode="&#8599;" /><glyph d="M70 164H571L55 679L171 795L686 279V780H850V0H70Z" glyph-name="uni2198" horiz-adv-x="920" unicode="&#8600;" /><glyph d="M850 0H70V780H234V279L749 795L865 679L349 164H850Z" glyph-name="uni2199" horiz-adv-x="920" unicode="&#8601;" /><glyph d="M853 -1 789 -64 6 275 134 404 702 150 448 718 577 846 916 63Z" glyph-name="uni25E2" horiz-adv-x="930" unicode="&#9698;" /><glyph d="M14 63 353 846 482 718 228 150 796 404 924 275 141 -64 77 -1Z" glyph-name="uni25E3" horiz-adv-x="930" unicode="&#9699;" /><glyph d="M77 783 141 846 924 507 796 378 228 632 482 64 353 -64 14 719Z" glyph-name="uni25E4" horiz-adv-x="930" unicode="&#9700;" /><glyph d="M916 719 577 -64 448 64 702 632 134 378 6 507 789 846 853 783Z" glyph-name="uni25E5" horiz-adv-x="930" unicode="&#9701;" /><glyph d="M180 -10 279 297 19 486H341L440 792L539 486H861L601 297L700 -10L440 180Z" glyph-name="uni2605" horiz-adv-x="880" unicode="&#9733;" /><glyph d="M479 -11 437 191Q437 189 436.5 182.5Q436 176 433.5 166.5Q431 157 425 146Q419 135 408 125Q396 114 384 106Q372 98 362 90Q352 82 346 72Q340 62 340 47Q340 39 342 33Q344 27 346 22Q349 17 352 12Q329 19 317.5 36.5Q306 54 306 74Q306 104 327 125Q349 147 358.5 174.5Q368 202 368 220L196 107L309 279Q308 278 303 273.5Q298 269 290 264.5Q282 260 270 256.5Q258 253 243 253Q229 253 211.5 257Q194 261 181 261Q161 261 149 253.5Q137 246 131 237Q124 226 122 213Q114 227 114 241Q114 270 134.5 290Q155 310 185 310Q202 310 218.5 315Q235 320 248.5 326.5Q262 333 270.5 339.5Q279 346 281 348L79 390L281 432Q279 432 272.5 432.5Q266 433 256.5 435.5Q247 438 236 444Q225 450 215 461Q204 473 196 485Q188 497 180 507Q172 517 162 523Q152 529 137 529Q129 529 123 527Q117 525 112 523Q107 520 102 517Q109 540 126.5 551.5Q144 563 164 563Q194 563 215 542Q237 520 264.5 510.5Q292 501 310 501L197 673L369 560Q368 561 363.5 566Q359 571 354.5 579Q350 587 346.5 599Q343 611 343 626Q343 640 347 657.5Q351 675 351 688Q351 708 343.5 720Q336 732 327 738Q316 745 303 747Q317 755 331 755Q360 755 380 734.5Q400 714 400 684Q400 667 405 650.5Q410 634 416.5 620.5Q423 607 429.5 598Q436 589 438 588L480 790L522 588Q522 589 522.5 596Q523 603 525.5 612.5Q528 622 534 633Q540 644 551 654Q563 665 575 673Q587 681 597 689Q607 697 613 707Q619 717 619 732Q619 740 617 746Q615 752 613 757Q610 762 607 767Q630 760 641.5 742.5Q653 725 653 705Q653 675 632 654Q610 632 600.5 604.5Q591 577 591 559L763 672L650 500Q651 501 656 505.5Q661 510 669 514.5Q677 519 689 522.5Q701 526 716 526Q730 526 747.5 522Q765 518 778 518Q798 518 810 525.5Q822 533 828 542Q835 553 837 566Q845 552 845 538Q845 509 824.5 489Q804 469 774 469Q757 469 740.5 464Q724 459 710.5 452.5Q697 446 688 439.5Q679 433 678 431L880 389L678 347Q679 347 686 346.5Q693 346 702.5 343.5Q712 341 723 335Q734 329 744 318Q755 306 763 294Q771 282 779 272Q787 262 797 256Q807 250 822 250Q830 250 836 252Q842 254 847 256Q852 259 857 262Q850 239 832.5 227.5Q815 216 795 216Q765 216 744 237Q722 259 694.5 268.5Q667 278 649 278L762 106L590 219Q591 218 595.5 213Q600 208 604.5 200Q609 192 612.5 180Q616 168 616 153Q616 139 612 121.5Q608 104 608 91Q608 71 615.5 59Q623 47 632 41Q643 34 656 32Q642 24 628 24Q599 24 579 44.5Q559 65 559 95Q559 112 554 128.5Q549 145 542.5 158.5Q536 172 529.5 180.5Q523 189 521 191Z" glyph-name="uni263C" horiz-adv-x="960" unicode="&#9788;" /><glyph d="M624 728Q557 728 498 701.5Q439 675 395 629Q351 583 325.5 521.5Q300 460 300 390Q300 320 325.5 258.5Q351 197 395 151Q439 105 498 78.5Q557 52 624 52Q673 52 720 67Q669 30 607.5 10Q546 -10 480 -10Q397 -10 324 21.5Q251 53 197 107Q143 161 111.5 234Q80 307 80 390Q80 473 111.5 546Q143 619 197 673Q251 727 324 758.5Q397 790 480 790Q546 790 607.5 769.5Q669 749 720 713Q697 720 673 724Q649 728 624 728Z" glyph-name="uni263E" horiz-adv-x="960" unicode="&#9790;" /><glyph d="M875 410Q879 403 882 391.5Q885 380 885 366Q885 340 873.5 317Q862 294 845 277Q828 260 808.5 250Q789 240 773 240L657 441L806 527ZM311 41Q303 41 290.5 44Q278 47 267 54Q244 67 230 88.5Q216 110 209.5 133Q203 156 204.5 178Q206 200 214 214H446V41ZM267 717Q271 724 280 732.5Q289 741 301 748Q323 761 348.5 762.5Q374 764 397.5 758Q421 752 439.5 739.5Q458 727 466 713L350 512L200 598ZM404 780H597Q611 780 623.5 778.5Q636 777 647.5 772.5Q659 768 669 759Q679 750 689 733L717 684L760 708L699 542L526 573L567 597L495 722Q484 742 468 753Q452 764 438 770Q421 777 404 779ZM184 122 88 290Q82 302 76.5 313.5Q71 325 69.5 337Q68 349 71 362.5Q74 376 84 393L112 442L70 466L244 497L303 331L262 355Q243 321 227 294Q213 271 202 251.5Q191 232 190 230Q179 210 177 191.5Q175 173 177 157Q180 139 186 122ZM864 264 768 97Q760 85 753 75Q746 65 736 57.5Q726 50 713 45.5Q700 41 680 41H623V-8L510 128L623 263V214H768Q790 214 808 222Q826 230 838 240Q852 251 863 266Z" glyph-name="uni267B" horiz-adv-x="960" unicode="&#9851;" /><glyph d="M64 390Q64 472 95 544Q126 616 180 670Q234 724 306 755Q378 786 460 786Q542 786 614 755Q686 724 740 670Q794 616 825 544Q856 472 856 390Q856 308 825 236Q794 164 740 110Q686 56 614 25Q542 -6 460 -6Q378 -6 306 25Q234 56 180 110Q126 164 95 236Q64 308 64 390ZM754 295Q745 284 734 275Q724 267 710.5 261Q697 255 680 255H568V293L480 188L568 83V121H612Q643 121 656 133.5Q669 146 680 164L755 294ZM710 498 594 431 684 275Q696 275 711.5 282.5Q727 290 740.5 303.5Q754 317 762.5 335Q771 353 771 373Q771 384 768.5 393Q766 402 763 407ZM229 184Q224 197 222 211Q220 223 221.5 238Q223 253 232 268L288 365L320 346L274 475L139 451L172 432L150 394Q134 368 138.5 350.5Q143 333 153 314L228 184ZM427 121V255H247Q241 244 240 227Q239 210 243.5 192Q248 174 259 157.5Q270 141 288 131Q297 126 306.5 123.5Q316 121 322 121ZM394 693Q408 691 421 686Q432 681 444 672Q456 663 465 649L521 552L489 533L623 509L670 638L637 619L615 657Q600 683 583 688.5Q566 694 544 694H394ZM240 553 356 486 446 642Q440 653 425.5 662.5Q411 672 393 676.5Q375 681 355 680Q335 679 318 669Q309 664 302 657Q295 650 292 645Z" glyph-name="uni267C" horiz-adv-x="960" unicode="&#9852;" /><glyph d="M98 390Q98 315 126.5 249Q155 183 204 134Q253 85 319 56.5Q385 28 460 28Q535 28 601 56.5Q667 85 716 134Q765 183 793.5 249Q822 315 822 390Q822 465 793.5 531Q765 597 716 646Q667 695 601 723.5Q535 752 460 752Q385 752 319 723.5Q253 695 204 646Q155 597 126.5 531Q98 465 98 390ZM60 390Q60 473 91.5 546Q123 619 177 673Q231 727 304 758.5Q377 790 460 790Q543 790 616 758.5Q689 727 743 673Q797 619 828.5 546Q860 473 860 390Q860 307 828.5 234Q797 161 743 107Q689 53 616 21.5Q543 -10 460 -10Q377 -10 304 21.5Q231 53 177 107Q123 161 91.5 234Q60 307 60 390ZM755 294 680 164Q669 146 656 133.5Q643 121 612 121H568V83L480 188L568 293V255H680Q697 255 710.5 261Q724 267 734 275Q745 284 754 295ZM763 407Q766 402 768.5 393Q771 384 771 373Q771 353 762.5 335Q754 317 740.5 303.5Q727 290 711.5 282.5Q696 275 684 275L594 431L710 498ZM228 184 153 314Q143 333 138.5 350.5Q134 368 150 394L172 432L139 451L274 475L320 346L288 365L232 268Q223 253 221.5 238Q220 223 222 211Q224 197 229 184ZM322 121Q316 121 306.5 123.5Q297 126 288 131Q270 141 259 157.5Q248 174 243.5 192Q239 210 240 227Q241 244 247 255H427V121ZM394 694H544Q566 694 583 688.5Q600 683 615 657L637 619L670 638L623 509L489 533L521 552L465 649Q456 663 444 672Q432 681 421 686Q408 691 394 693ZM292 645Q295 650 302 657Q309 664 318 669Q335 679 355 680Q375 681 393 676.5Q411 672 425.5 662.5Q440 653 446 642L356 486L240 553Z" glyph-name="uni267D" horiz-adv-x="960" unicode="&#9853;" /><glyph d="M500 -58Q500 -72 510.5 -81Q521 -90 538 -90Q552 -90 560.5 -86.5Q569 -83 574 -80L615 -190Q599 -200 570 -208Q541 -216 507 -216Q443 -216 404 -189Q365 -162 365 -105Q365 -80 372 -58Q379 -36 392 -17L376 65Q350 30 309.5 8Q269 -14 209 -14Q162 -14 130.5 2Q99 18 79.5 44.5Q60 71 52 105Q44 139 44 175V530H228V205Q228 196 229.5 185Q231 174 237 165Q243 156 254 150Q265 144 284 144Q314 144 333.5 159Q353 174 361 185V530H545V150L555 0Q500 -25 500 -58Z" glyph-name="uogonek" horiz-adv-x="595" unicode="&#371;" /><glyph d="M245 685Q245 665 259.5 650.5Q274 636 294 636Q314 636 328.5 650.5Q343 665 343 685Q343 705 328.5 719.5Q314 734 294 734Q274 734 259.5 719.5Q245 705 245 685ZM185 685Q185 707 193.5 727Q202 747 217 762Q232 777 251.5 785.5Q271 794 294 794Q316 794 336 785.5Q356 777 371 762Q386 747 394.5 727Q403 707 403 685Q403 662 394.5 642.5Q386 623 371 608Q356 593 336 584.5Q316 576 294 576Q271 576 251.5 584.5Q232 593 217 608Q202 623 193.5 642.5Q185 662 185 685ZM228 530V205Q228 196 229.5 185Q231 174 237 165Q243 156 254 150Q265 144 284 144Q314 144 333.5 159Q353 174 361 185V530H545V150L555 0H389L376 65Q350 30 309.5 8Q269 -14 209 -14Q162 -14 130.5 2Q99 18 79.5 44.5Q60 71 52 105Q44 139 44 175V530Z" glyph-name="uring" horiz-adv-x="595" unicode="&#367;" /><glyph d="M509 780Q509 733 499.5 699.5Q490 666 473.5 645Q457 624 435.5 614Q414 604 389 604Q365 604 342.5 612Q320 620 299.5 629.5Q279 639 261.5 647Q244 655 229 655Q215 655 207 647Q199 639 199 620H79Q79 667 88.5 700.5Q98 734 114.5 755Q131 776 152.5 786Q174 796 199 796Q223 796 245.5 788Q268 780 288.5 770.5Q309 761 326.5 753Q344 745 359 745Q373 745 381 753Q389 761 389 780ZM228 530V205Q228 196 229.5 185Q231 174 237 165Q243 156 254 150Q265 144 284 144Q314 144 333.5 159Q353 174 361 185V530H545V150L555 0H389L376 65Q350 30 309.5 8Q269 -14 209 -14Q162 -14 130.5 2Q99 18 79.5 44.5Q60 71 52 105Q44 139 44 175V530Z" glyph-name="utilde" horiz-adv-x="595" unicode="&#361;" /><glyph d="M5 530H195L280 145L365 530H555L410 0H150Z" glyph-name="v" horiz-adv-x="560" unicode="v" /><glyph d="M330 0H100L15 530H195L220 200L280 530H500L560 200L585 530H765L680 0H450L390 340Z" glyph-name="w" horiz-adv-x="780" unicode="w" /><glyph d="M592 780 481 590H299L390 780ZM330 0H100L15 530H195L220 200L280 530H500L560 200L585 530H765L680 0H450L390 340Z" glyph-name="wacute" horiz-adv-x="780" unicode="&#7811;" /><glyph d="M165 590 300 780H480L615 590H455L390 663L325 590ZM330 0H100L15 530H195L220 200L280 530H500L560 200L585 530H765L680 0H450L390 340Z" glyph-name="wcircumflex" horiz-adv-x="780" unicode="&#373;" /><glyph d="M370 590H180V780H370ZM600 590H410V780H600ZM330 0H100L15 530H195L220 200L280 530H500L560 200L585 530H765L680 0H450L390 340Z" glyph-name="wdieresis" horiz-adv-x="780" unicode="&#7813;" /><glyph d="M390 780 481 590H299L188 780ZM330 0H100L15 530H195L220 200L280 530H500L560 200L585 530H765L680 0H450L390 340Z" glyph-name="wgrave" horiz-adv-x="780" unicode="&#7809;" /><glyph d="M218 390Q218 340 237 296Q256 252 289 219Q322 186 366 167Q410 148 460 148Q510 148 554 167Q598 186 631 219Q664 252 683 296Q702 340 702 390Q702 440 683 484Q664 528 631 561Q598 594 554 613Q510 632 460 632Q410 632 366 613Q322 594 289 561Q256 528 237 484Q218 440 218 390ZM56 390Q56 474 88 547.5Q120 621 174.5 675.5Q229 730 302.5 762Q376 794 460 794Q544 794 617.5 762Q691 730 745.5 675.5Q800 621 832 547.5Q864 474 864 390Q864 306 832 232.5Q800 159 745.5 104.5Q691 50 617.5 18Q544 -14 460 -14Q376 -14 302.5 18Q229 50 174.5 104.5Q120 159 88 232.5Q56 306 56 390Z" glyph-name="whitecircle" horiz-adv-x="920" unicode="&#9675;" /><glyph d="M232 368V162H438V368ZM600 530V0H70V530Z" glyph-name="whitesmallsquare" horiz-adv-x="680" unicode="&#9643;" /><glyph d="M232 618V162H688V618ZM70 0V780H850V0Z" glyph-name="whitesquare" horiz-adv-x="920" unicode="&#9633;" /><glyph d="M227 530 290 362 353 530H565L436 275L565 0H359L290 172L221 0H15L143 275L15 530Z" glyph-name="x" horiz-adv-x="580" unicode="x" /><glyph d="M370 530H570L385 30L319 -200H99L185 30L0 530H200L285 220Z" glyph-name="y" horiz-adv-x="570" unicode="y" /><glyph d="M487 780 376 590H194L285 780ZM370 530H570L385 30L319 -200H99L185 30L0 530H200L285 220Z" glyph-name="yacute" horiz-adv-x="570" unicode="&#253;" /><glyph d="M60 590 195 780H375L510 590H350L285 663L220 590ZM370 530H570L385 30L319 -200H99L185 30L0 530H200L285 220Z" glyph-name="ycircumflex" horiz-adv-x="570" unicode="&#375;" /><glyph d="M265 590H75V780H265ZM495 590H305V780H495ZM370 530H570L385 30L319 -200H99L185 30L0 530H200L285 220Z" glyph-name="ydieresis" horiz-adv-x="570" unicode="&#255;" /><glyph d="M40 480H124L4 780H212L300 480L388 780H596L475 480H560V320H411L395 280H560V120H395V0H205V120H40V280H205L189 320H40Z" glyph-name="yen" horiz-adv-x="600" unicode="&#165;" /><glyph d="M285 780 376 590H194L83 780ZM370 530H570L385 30L319 -200H99L185 30L0 530H200L285 220Z" glyph-name="ygrave" horiz-adv-x="570" unicode="&#7923;" /><glyph d="M125 765H445V605H125ZM370 530H570L385 30L319 -200H99L185 30L0 530H200L285 220Z" glyph-name="ymacron" horiz-adv-x="570" unicode="&#563;" /><glyph d="M238 374 130 370H30V530H480V404L262 156L370 160H490V0H20V126Z" glyph-name="z" horiz-adv-x="510" unicode="z" /><glyph d="M238 374 130 370H30V530H480V404L262 156L370 160H490V0H20V126ZM457 780 346 590H164L255 780Z" glyph-name="zacute" horiz-adv-x="510" unicode="&#378;" /><glyph d="M238 374 130 370H30V530H480V404L262 156L370 160H490V0H20V126ZM190 780 255 706 320 780H480L345 590H165L30 780Z" glyph-name="zcaron" horiz-adv-x="510" unicode="&#382;" /><glyph d="M238 374 130 370H30V530H480V404L262 156L370 160H490V0H20V126ZM350 590H160V780H350Z" glyph-name="zdotaccent" horiz-adv-x="510" unicode="&#380;" /><glyph d="M374 560Q374 592 355.5 612Q337 632 302 632H298Q263 632 244.5 612Q226 592 226 560V220Q226 188 244.5 168Q263 148 298 148H302Q337 148 355.5 168Q374 188 374 220ZM560 220Q560 169 543.5 126.5Q527 84 494 52.5Q461 21 412.5 3.5Q364 -14 300 -14Q236 -14 187.5 3.5Q139 21 106 52.5Q73 84 56.5 126.5Q40 169 40 220V560Q40 611 56.5 653.5Q73 696 106 727.5Q139 759 187.5 776.5Q236 794 300 794Q364 794 412.5 776.5Q461 759 494 727.5Q527 696 543.5 653.5Q560 611 560 560Z" glyph-name="zero" horiz-adv-x="600" unicode="0" /><glyph d="M160 77Q160 88 150 88Q140 88 140 77V-88Q140 -99 150 -99Q160 -99 160 -88ZM288 -92Q288 -143 251 -176Q214 -209 150 -209Q86 -209 49 -176Q12 -143 12 -92V81Q12 132 49 165Q86 198 150 198Q214 198 251 165Q288 132 288 81Z" glyph-name="zero.inf" horiz-adv-x="300" unicode="&#58737;" /><glyph glyph-name="zerowidthspace" horiz-adv-x="0" unicode="&#8203;" /></font>
</defs>
</svg>
