<?xml version="1.0" standalone="no"?><!DOCTYPE svg PUBLIC "-//W3C//DTD SVG 1.1//EN" "http://www.w3.org/Graphics/SVG/1.1/DTD/svg11.dtd" ><svg version="1.1" xmlns="http://www.w3.org/2000/svg"><defs><font horiz-adv-x="0" id="font"><font-face ascent="750" bbox="-240 -219 1381 964" cap-height="780" descent="-250" font-family="Cooper Hewitt" font-stretch="normal" font-style="normal" font-weight="600" units-per-em="1000" x-height="530" /><missing-glyph d="M803 115V665L528 390ZM163 665V115L438 390ZM483 435 762 714H204ZM204 66H762L483 345ZM93 780H873V0H93Z" horiz-adv-x="966" /><glyph d="M209 280H413L311 669ZM383 786 598 0H486L437 188H185L136 0H23L238 786Z" glyph-name="A" horiz-adv-x="621" unicode="A" /><glyph d="M226 286H407L358 664ZM814 780V688H456L491 444H764V352H504L541 92H814V0H444L419 194H194L127 0H15L299 780Z" glyph-name="AE" horiz-adv-x="854" unicode="&#198;" /><glyph d="M425 950 362 840H260L318 950ZM209 280H413L311 669ZM383 786 598 0H486L437 188H185L136 0H23L238 786Z" glyph-name="Aacute" horiz-adv-x="621" unicode="&#193;" /><glyph d="M311 827Q266 827 235.5 836.5Q205 846 186.5 862.5Q168 879 160 901.5Q152 924 152 950H227Q227 922 246.5 906Q266 890 311 890Q356 890 375.5 906Q395 922 395 950H470Q470 924 462 901.5Q454 879 435.5 862.5Q417 846 386.5 836.5Q356 827 311 827ZM209 280H413L311 669ZM383 786 598 0H486L437 188H185L136 0H23L238 786Z" glyph-name="Abreve" horiz-adv-x="621" unicode="&#258;" /><glyph d="M149 840 262 950H360L473 840H377L311 897L245 840ZM209 280H413L311 669ZM383 786 598 0H486L437 188H185L136 0H23L238 786Z" glyph-name="Acircumflex" horiz-adv-x="621" unicode="&#194;" /><glyph d="M442 854H343V936H442ZM279 854H180V936H279ZM209 280H413L311 669ZM383 786 598 0H486L437 188H185L136 0H23L238 786Z" glyph-name="Adieresis" horiz-adv-x="621" unicode="&#196;" /><glyph d="M304 950 362 840H260L197 950ZM209 280H413L311 669ZM383 786 598 0H486L437 188H185L136 0H23L238 786Z" glyph-name="Agrave" horiz-adv-x="621" unicode="&#192;" /><glyph d="M185 930H437V860H185ZM209 280H413L311 669ZM383 786 598 0H486L437 188H185L136 0H23L238 786Z" glyph-name="Amacron" horiz-adv-x="621" unicode="&#256;" /><glyph d="M383 786 598 0H486L311 669L136 0H23L238 786Z" glyph-name="Anocross" horiz-adv-x="621" unicode="&#59185;" /><glyph d="M209 280H413L311 669ZM523 -91Q523 -111 536 -123.5Q549 -136 574 -136Q591 -136 605.5 -132Q620 -128 629 -123L654 -191Q638 -201 612.5 -207Q587 -213 561 -213Q507 -213 474.5 -188.5Q442 -164 442 -111Q442 -78 454.5 -51.5Q467 -25 487 -5L437 188H185L136 0H23L238 786H383L598 0Q566 -14 544.5 -36Q523 -58 523 -91Z" glyph-name="Aogonek" horiz-adv-x="621" unicode="&#260;" /><glyph d="M257 864Q257 841 272.5 825Q288 809 311 809Q334 809 349.5 825Q365 841 365 864Q365 886 349.5 902Q334 918 311 918Q288 918 272.5 902Q257 886 257 864ZM209 280H413L311 669ZM213 864Q213 905 241.5 933.5Q270 962 311 962Q352 962 380.5 933.5Q409 905 409 864Q409 840 398.5 820Q388 800 371 786H383L598 0H486L437 188H185L136 0H23L238 786H250Q233 800 223 820Q213 840 213 864Z" glyph-name="Aring" horiz-adv-x="621" unicode="&#197;" /><glyph d="M474 940Q474 884 449 861Q424 838 387 838Q363 838 343.5 846Q324 854 307 863.5Q290 873 275 881Q260 889 245 889Q231 889 220.5 881Q210 873 210 850H148Q148 906 173 929Q198 952 235 952Q259 952 278.5 944Q298 936 315 926.5Q332 917 347 909Q362 901 377 901Q391 901 401.5 909Q412 917 412 940ZM209 280H413L311 669ZM383 786 598 0H486L437 188H185L136 0H23L238 786Z" glyph-name="Atilde" horiz-adv-x="621" unicode="&#195;" /><glyph d="M171 688V446H288Q315 446 339 451.5Q363 457 381.5 470.5Q400 484 411 506Q422 528 422 560V574Q422 606 411 628Q400 650 381.5 663.5Q363 677 339 682.5Q315 688 288 688ZM171 354V92H305Q332 92 357 98.5Q382 105 400.5 120Q419 135 430.5 158.5Q442 182 442 217V229Q442 263 430.5 287Q419 311 400.5 326Q382 341 357 347.5Q332 354 305 354ZM286 780Q334 780 377.5 770.5Q421 761 454.5 737.5Q488 714 508 675Q528 636 528 577V557Q528 495 500.5 458.5Q473 422 428 402Q480 383 514 343Q548 303 548 233V213Q548 152 527.5 111Q507 70 472.5 45.5Q438 21 393 10.5Q348 0 300 0H67V780Z" glyph-name="B" horiz-adv-x="602" unicode="B" /><glyph d="M331 854H233V936H331ZM171 688V446H288Q315 446 339 451.5Q363 457 381.5 470.5Q400 484 411 506Q422 528 422 560V574Q422 606 411 628Q400 650 381.5 663.5Q363 677 339 682.5Q315 688 288 688ZM171 354V92H305Q332 92 357 98.5Q382 105 400.5 120Q419 135 430.5 158.5Q442 182 442 217V229Q442 263 430.5 287Q419 311 400.5 326Q382 341 357 347.5Q332 354 305 354ZM286 780Q334 780 377.5 770.5Q421 761 454.5 737.5Q488 714 508 675Q528 636 528 577V557Q528 495 500.5 458.5Q473 422 428 402Q480 383 514 343Q548 303 548 233V213Q548 152 527.5 111Q507 70 472.5 45.5Q438 21 393 10.5Q348 0 300 0H67V780Z" glyph-name="Bdotaccent" horiz-adv-x="602" unicode="&#7682;" /><glyph d="M157 370Q157 221 195 150.5Q233 80 325 80H332Q410 80 444 127Q478 174 478 259H583V249Q583 -12 325 -12Q255 -12 203 9.5Q151 31 117 77.5Q83 124 66.5 196.5Q50 269 50 370V410Q50 511 66.5 583.5Q83 656 117 702.5Q151 749 203 770.5Q255 792 325 792Q456 792 519.5 726.5Q583 661 583 522V491H478Q478 598 445 649Q412 700 332 700H325Q234 700 195.5 629.5Q157 559 157 410Z" glyph-name="C" horiz-adv-x="630" unicode="C" /><glyph d="M439 950 376 840H274L332 950ZM157 370Q157 221 195 150.5Q233 80 325 80H332Q410 80 444 127Q478 174 478 259H583V249Q583 -12 325 -12Q255 -12 203 9.5Q151 31 117 77.5Q83 124 66.5 196.5Q50 269 50 370V410Q50 511 66.5 583.5Q83 656 117 702.5Q151 749 203 770.5Q255 792 325 792Q456 792 519.5 726.5Q583 661 583 522V491H478Q478 598 445 649Q412 700 332 700H325Q234 700 195.5 629.5Q157 559 157 410Z" glyph-name="Cacute" horiz-adv-x="630" unicode="&#262;" /><glyph d="M259 950 325 892 391 950H487L374 840H276L163 950ZM157 370Q157 221 195 150.5Q233 80 325 80H332Q410 80 444 127Q478 174 478 259H583V249Q583 -12 325 -12Q255 -12 203 9.5Q151 31 117 77.5Q83 124 66.5 196.5Q50 269 50 370V410Q50 511 66.5 583.5Q83 656 117 702.5Q151 749 203 770.5Q255 792 325 792Q456 792 519.5 726.5Q583 661 583 522V491H478Q478 598 445 649Q412 700 332 700H325Q234 700 195.5 629.5Q157 559 157 410Z" glyph-name="Ccaron" horiz-adv-x="630" unicode="&#268;" /><glyph d="M257 -139Q269 -146 288 -150.5Q307 -155 327 -155Q381 -155 381 -126Q381 -111 366 -105Q351 -99 324 -99Q318 -99 312.5 -99.5Q307 -100 302 -101Q297 -102 292 -102L275 -77L300 -11Q236 -7 189 16.5Q142 40 111 86.5Q80 133 65 203Q50 273 50 370V410Q50 511 66.5 583.5Q83 656 117 702.5Q151 749 203 770.5Q255 792 325 792Q456 792 519.5 726.5Q583 661 583 522V491H478Q478 598 445 649Q412 700 332 700H325Q234 700 195.5 629.5Q157 559 157 410V370Q157 221 195 150.5Q233 80 325 80H332Q410 80 444 127Q478 174 478 259H583V249Q583 5 358 -11L343 -50Q363 -50 381.5 -55Q400 -60 414 -69.5Q428 -79 436.5 -94.5Q445 -110 445 -131Q445 -173 416 -193Q387 -213 336 -213Q305 -213 279 -206.5Q253 -200 239 -191Z" glyph-name="Ccedilla" horiz-adv-x="630" unicode="&#199;" /><glyph d="M163 840 276 950H374L487 840H391L325 897L259 840ZM157 370Q157 221 195 150.5Q233 80 325 80H332Q410 80 444 127Q478 174 478 259H583V249Q583 -12 325 -12Q255 -12 203 9.5Q151 31 117 77.5Q83 124 66.5 196.5Q50 269 50 370V410Q50 511 66.5 583.5Q83 656 117 702.5Q151 749 203 770.5Q255 792 325 792Q456 792 519.5 726.5Q583 661 583 522V491H478Q478 598 445 649Q412 700 332 700H325Q234 700 195.5 629.5Q157 559 157 410Z" glyph-name="Ccircumflex" horiz-adv-x="630" unicode="&#264;" /><glyph d="M374 854H276V936H374ZM157 370Q157 221 195 150.5Q233 80 325 80H332Q410 80 444 127Q478 174 478 259H583V249Q583 -12 325 -12Q255 -12 203 9.5Q151 31 117 77.5Q83 124 66.5 196.5Q50 269 50 370V410Q50 511 66.5 583.5Q83 656 117 702.5Q151 749 203 770.5Q255 792 325 792Q456 792 519.5 726.5Q583 661 583 522V491H478Q478 598 445 649Q412 700 332 700H325Q234 700 195.5 629.5Q157 559 157 410Z" glyph-name="Cdotaccent" horiz-adv-x="630" unicode="&#266;" /><glyph d="M279 92Q333 92 372.5 107.5Q412 123 438.5 156.5Q465 190 477.5 243Q490 296 490 370V410Q490 558 438.5 623Q387 688 279 688H171V92ZM597 370Q597 269 577 198.5Q557 128 518 84Q479 40 421 20Q363 0 286 0H67V780H286Q363 780 421 760Q479 740 518 696Q557 652 577 581.5Q597 511 597 410Z" glyph-name="D" horiz-adv-x="647" unicode="D" /><glyph d="M234 950 300 892 366 950H462L349 840H251L138 950ZM279 92Q333 92 372.5 107.5Q412 123 438.5 156.5Q465 190 477.5 243Q490 296 490 370V410Q490 558 438.5 623Q387 688 279 688H171V92ZM597 370Q597 269 577 198.5Q557 128 518 84Q479 40 421 20Q363 0 286 0H67V780H286Q363 780 421 760Q479 740 518 696Q557 652 577 581.5Q597 511 597 410Z" glyph-name="Dcaron" horiz-adv-x="647" unicode="&#270;" /><glyph d="M231 444H427V352H231V92H339Q393 92 432.5 107.5Q472 123 498.5 156.5Q525 190 537.5 243Q550 296 550 370V410Q550 558 498.5 623Q447 688 339 688H231ZM16 444H127V780H346Q423 780 481 760Q539 740 578 696Q617 652 637 581.5Q657 511 657 410V370Q657 269 637 198.5Q617 128 578 84Q539 40 481 20Q423 0 346 0H127V352H16Z" glyph-name="Dcroat" horiz-adv-x="707" unicode="&#272;" /><glyph d="M349 854H251V936H349ZM279 92Q333 92 372.5 107.5Q412 123 438.5 156.5Q465 190 477.5 243Q490 296 490 370V410Q490 558 438.5 623Q387 688 279 688H171V92ZM597 370Q597 269 577 198.5Q557 128 518 84Q479 40 421 20Q363 0 286 0H67V780H286Q363 780 421 760Q479 740 518 696Q557 652 577 581.5Q597 511 597 410Z" glyph-name="Ddotaccent" horiz-adv-x="647" unicode="&#7690;" /><glyph d="M517 780V688H171V444H467V352H171V92H517V0H67V780Z" glyph-name="E" horiz-adv-x="557" unicode="E" /><glyph d="M412 950 349 840H247L305 950ZM517 780V688H171V444H467V352H171V92H517V0H67V780Z" glyph-name="Eacute" horiz-adv-x="557" unicode="&#201;" /><glyph d="M517 780V688H171V444H467V352H171V92H517V0H67V780ZM298 827Q253 827 222.5 836.5Q192 846 173.5 862.5Q155 879 147 901.5Q139 924 139 950H214Q214 922 233.5 906Q253 890 298 890Q343 890 362.5 906Q382 922 382 950H457Q457 924 449 901.5Q441 879 422.5 862.5Q404 846 373.5 836.5Q343 827 298 827Z" glyph-name="Ebreve" horiz-adv-x="557" unicode="&#276;" /><glyph d="M232 950 298 892 364 950H460L347 840H249L136 950ZM517 780V688H171V444H467V352H171V92H517V0H67V780Z" glyph-name="Ecaron" horiz-adv-x="557" unicode="&#282;" /><glyph d="M136 840 249 950H347L460 840H364L298 897L232 840ZM517 780V688H171V444H467V352H171V92H517V0H67V780Z" glyph-name="Ecircumflex" horiz-adv-x="557" unicode="&#202;" /><glyph d="M429 854H330V936H429ZM266 854H167V936H266ZM517 780V688H171V444H467V352H171V92H517V0H67V780Z" glyph-name="Edieresis" horiz-adv-x="557" unicode="&#203;" /><glyph d="M347 854H249V936H347ZM517 780V688H171V444H467V352H171V92H517V0H67V780Z" glyph-name="Edotaccent" horiz-adv-x="557" unicode="&#278;" /><glyph d="M291 950 349 840H247L184 950ZM517 780V688H171V444H467V352H171V92H517V0H67V780Z" glyph-name="Egrave" horiz-adv-x="557" unicode="&#200;" /><glyph d="M172 930H424V860H172ZM517 780V688H171V444H467V352H171V92H517V0H67V780Z" glyph-name="Emacron" horiz-adv-x="557" unicode="&#274;" /><glyph d="M498 -19 162 596 166 423V0H67V780H178L505 184L501 357V780H600V-39Q600 -87 587.5 -120Q575 -153 552 -173.5Q529 -194 497.5 -203Q466 -212 429 -212Q396 -212 376.5 -207.5Q357 -203 351 -200V-115Q356 -117 372.5 -120Q389 -123 405 -123Q427 -123 444.5 -119Q462 -115 474 -104.5Q486 -94 492 -75.5Q498 -57 498 -28Z" glyph-name="Eng" horiz-adv-x="667" unicode="&#330;" /><glyph d="M517 780V688H171V444H467V352H171V92H517V0Q485 -14 463.5 -36Q442 -58 442 -91Q442 -111 455 -123.5Q468 -136 493 -136Q510 -136 524.5 -132Q539 -128 548 -123L573 -191Q557 -201 531.5 -207Q506 -213 480 -213Q426 -213 393.5 -188.5Q361 -164 361 -111Q361 -76 374.5 -48.5Q388 -21 411 0H67V780Z" glyph-name="Eogonek" horiz-adv-x="557" unicode="&#280;" /><glyph d="M452 691Q411 700 366 700Q321 700 284 691Q247 682 220.5 662.5Q194 643 180 610.5Q166 578 166 532V0H62V537Q62 605 82.5 653.5Q103 702 142 732.5Q181 763 237.5 777.5Q294 792 366 792Q423 792 473.5 782.5Q524 773 565 753V681L427 452L497 443Q621 426 682 374Q743 322 743 225V214Q743 107 680 47.5Q617 -12 503 -12Q383 -12 323 50Q263 112 263 249V259H367Q367 209 377 175Q387 141 405 120Q423 99 447 89.5Q471 80 500 80H508Q565 80 600.5 113Q636 146 636 209V217Q636 335 473 354L305 375V447Z" glyph-name="Eszett" horiz-adv-x="774" unicode="&#7838;" /><glyph d="M231 444H427V352H231V92H339Q393 92 432.5 107.5Q472 123 498.5 156.5Q525 190 537.5 243Q550 296 550 370V410Q550 558 498.5 623Q447 688 339 688H231ZM16 444H127V780H346Q423 780 481 760Q539 740 578 696Q617 652 637 581.5Q657 511 657 410V370Q657 269 637 198.5Q617 128 578 84Q539 40 481 20Q423 0 346 0H127V352H16Z" glyph-name="Eth" horiz-adv-x="707" unicode="&#208;" /><glyph d="M33 257V349H103V391H33V483H105Q115 646 175 719Q235 792 345 792Q458 792 507 727Q556 662 556 531V500H465Q465 607 439.5 653.5Q414 700 352 700H344Q286 700 252 647.5Q218 595 210 483H457L413 391H208V349H429L384 257H214Q226 166 259 123Q292 80 344 80H352Q465 80 465 250H556V240Q556 115 506 51.5Q456 -12 345 -12Q242 -12 183 51.5Q124 115 108 257Z" glyph-name="Euro" horiz-adv-x="600" unicode="&#8364;" /><glyph d="M506 780V688H171V444H456V352H171V0H67V780Z" glyph-name="F" horiz-adv-x="526" unicode="F" /><glyph d="M347 854H249V936H347ZM506 780V688H171V444H456V352H171V0H67V780Z" glyph-name="Fdotaccent" horiz-adv-x="526" unicode="&#7710;" /><glyph d="M343 -12Q269 -12 214 9.5Q159 31 122.5 77.5Q86 124 68 196.5Q50 269 50 370V410Q50 511 68 583.5Q86 656 121.5 702.5Q157 749 210 770.5Q263 792 333 792Q464 792 528.5 726.5Q593 661 593 522V491H488Q488 598 454.5 649Q421 700 340 700H332Q239 700 197.5 629.5Q156 559 156 410V370Q156 221 198 150.5Q240 80 340 80H348Q398 80 433.5 95Q469 110 489 129V306H366V398H593V79Q575 62 551.5 45.5Q528 29 498 16Q468 3 429.5 -4.5Q391 -12 343 -12Z" glyph-name="G" horiz-adv-x="655" unicode="G" /><glyph d="M333 827Q288 827 257.5 836.5Q227 846 208.5 862.5Q190 879 182 901.5Q174 924 174 950H249Q249 922 268.5 906Q288 890 333 890Q378 890 397.5 906Q417 922 417 950H492Q492 924 484 901.5Q476 879 457.5 862.5Q439 846 408.5 836.5Q378 827 333 827ZM343 -12Q269 -12 214 9.5Q159 31 122.5 77.5Q86 124 68 196.5Q50 269 50 370V410Q50 511 68 583.5Q86 656 121.5 702.5Q157 749 210 770.5Q263 792 333 792Q464 792 528.5 726.5Q593 661 593 522V491H488Q488 598 454.5 649Q421 700 340 700H332Q239 700 197.5 629.5Q156 559 156 410V370Q156 221 198 150.5Q240 80 340 80H348Q398 80 433.5 95Q469 110 489 129V306H366V398H593V79Q575 62 551.5 45.5Q528 29 498 16Q468 3 429.5 -4.5Q391 -12 343 -12Z" glyph-name="Gbreve" horiz-adv-x="655" unicode="&#286;" /><glyph d="M171 840 284 950H382L495 840H399L333 897L267 840ZM343 -12Q269 -12 214 9.5Q159 31 122.5 77.5Q86 124 68 196.5Q50 269 50 370V410Q50 511 68 583.5Q86 656 121.5 702.5Q157 749 210 770.5Q263 792 333 792Q464 792 528.5 726.5Q593 661 593 522V491H488Q488 598 454.5 649Q421 700 340 700H332Q239 700 197.5 629.5Q156 559 156 410V370Q156 221 198 150.5Q240 80 340 80H348Q398 80 433.5 95Q469 110 489 129V306H366V398H593V79Q575 62 551.5 45.5Q528 29 498 16Q468 3 429.5 -4.5Q391 -12 343 -12Z" glyph-name="Gcircumflex" horiz-adv-x="655" unicode="&#284;" /><glyph d="M394 -105Q394 -219 274 -219V-176Q303 -176 322.5 -165.5Q342 -155 349 -129H292V-51H394ZM343 -12Q269 -12 214 9.5Q159 31 122.5 77.5Q86 124 68 196.5Q50 269 50 370V410Q50 511 68 583.5Q86 656 121.5 702.5Q157 749 210 770.5Q263 792 333 792Q464 792 528.5 726.5Q593 661 593 522V491H488Q488 598 454.5 649Q421 700 340 700H332Q239 700 197.5 629.5Q156 559 156 410V370Q156 221 198 150.5Q240 80 340 80H348Q398 80 433.5 95Q469 110 489 129V306H366V398H593V79Q575 62 551.5 45.5Q528 29 498 16Q468 3 429.5 -4.5Q391 -12 343 -12Z" glyph-name="Gcommaaccent" horiz-adv-x="655" unicode="&#290;" /><glyph d="M382 854H284V936H382ZM343 -12Q269 -12 214 9.5Q159 31 122.5 77.5Q86 124 68 196.5Q50 269 50 370V410Q50 511 68 583.5Q86 656 121.5 702.5Q157 749 210 770.5Q263 792 333 792Q464 792 528.5 726.5Q593 661 593 522V491H488Q488 598 454.5 649Q421 700 340 700H332Q239 700 197.5 629.5Q156 559 156 410V370Q156 221 198 150.5Q240 80 340 80H348Q398 80 433.5 95Q469 110 489 129V306H366V398H593V79Q575 62 551.5 45.5Q528 29 498 16Q468 3 429.5 -4.5Q391 -12 343 -12Z" glyph-name="Gdotaccent" horiz-adv-x="655" unicode="&#288;" /><glyph d="M580 780V0H476V352H171V0H67V780H171V444H476V780Z" glyph-name="H" horiz-adv-x="647" unicode="H" /><glyph d="M476 444V571H171V444ZM580 780V0H476V352H171V0H67V780H171V655H476V780Z" glyph-name="Hbar" horiz-adv-x="647" unicode="&#294;" /><glyph d="M162 840 275 950H373L486 840H390L324 897L258 840ZM580 780V0H476V352H171V0H67V780H171V444H476V780Z" glyph-name="Hcircumflex" horiz-adv-x="647" unicode="&#292;" /><glyph d="M176 0H72V780H176Z" glyph-name="I" horiz-adv-x="248" unicode="I" /><glyph d="M176 0H72V780H176ZM371 780H475V169Q475 120 462.5 85.5Q450 51 428.5 29.5Q407 8 376.5 -2Q346 -12 310 -12Q275 -12 254.5 -7Q234 -2 228 2V90Q235 87 252 83.5Q269 80 283 80Q328 80 349.5 101Q371 122 371 181Z" glyph-name="IJ" horiz-adv-x="537" unicode="&#306;" /><glyph d="M238 950 175 840H73L131 950ZM176 0H72V780H176Z" glyph-name="Iacute" horiz-adv-x="248" unicode="&#205;" /><glyph d="M124 827Q79 827 48.5 836.5Q18 846 -0.5 862.5Q-19 879 -27 901.5Q-35 924 -35 950H40Q40 922 59.5 906Q79 890 124 890Q169 890 188.5 906Q208 922 208 950H283Q283 924 275 901.5Q267 879 248.5 862.5Q230 846 199.5 836.5Q169 827 124 827ZM176 0H72V780H176Z" glyph-name="Ibreve" horiz-adv-x="248" unicode="&#300;" /><glyph d="M-38 840 75 950H173L286 840H190L124 897L58 840ZM176 0H72V780H176Z" glyph-name="Icircumflex" horiz-adv-x="248" unicode="&#206;" /><glyph d="M92 854H-7V936H92ZM255 854H156V936H255ZM176 0H72V780H176Z" glyph-name="Idieresis" horiz-adv-x="248" unicode="&#207;" /><glyph d="M173 854H75V936H173ZM176 0H72V780H176Z" glyph-name="Idotaccent" horiz-adv-x="248" unicode="&#304;" /><glyph d="M117 950 175 840H73L10 950ZM176 0H72V780H176Z" glyph-name="Igrave" horiz-adv-x="248" unicode="&#204;" /><glyph d="M-2 930H250V860H-2ZM176 0H72V780H176Z" glyph-name="Imacron" horiz-adv-x="248" unicode="&#298;" /><glyph d="M101 -91Q101 -111 114 -123.5Q127 -136 152 -136Q169 -136 183.5 -132Q198 -128 207 -123L232 -191Q216 -201 190.5 -207Q165 -213 139 -213Q85 -213 52.5 -188.5Q20 -164 20 -111Q20 -76 34.5 -47.5Q49 -19 72 1V780H176V0Q144 -14 122.5 -36Q101 -58 101 -91Z" glyph-name="Iogonek" horiz-adv-x="248" unicode="&#302;" /><glyph d="M287 940Q287 884 262 861Q237 838 200 838Q176 838 156.5 846Q137 854 120 863.5Q103 873 88 881Q73 889 58 889Q44 889 33.5 881Q23 873 23 850H-39Q-39 906 -14 929Q11 952 48 952Q72 952 91.5 944Q111 936 128 926.5Q145 917 160 909Q175 901 190 901Q204 901 214.5 909Q225 917 225 940ZM176 0H72V780H176Z" glyph-name="Itilde" horiz-adv-x="248" unicode="&#296;" /><glyph d="M448 780V239Q448 180 436.5 133.5Q425 87 399.5 54.5Q374 22 334 5Q294 -12 237 -12Q178 -12 138 5Q98 22 73 54Q48 86 37.5 133Q27 180 27 240V259H125Q125 166 149.5 123Q174 80 234 80Q295 80 319.5 122.5Q344 165 344 254V780Z" glyph-name="J" horiz-adv-x="510" unicode="J" /><glyph d="M234 840 347 950H445L558 840H462L396 897L330 840ZM448 780V239Q448 180 436.5 133.5Q425 87 399.5 54.5Q374 22 334 5Q294 -12 237 -12Q178 -12 138 5Q98 22 73 54Q48 86 37.5 133Q27 180 27 240V259H125Q125 166 149.5 123Q174 80 234 80Q295 80 319.5 122.5Q344 165 344 254V780Z" glyph-name="Jcircumflex" horiz-adv-x="510" unicode="&#308;" /><glyph d="M171 395 429 780H555L328 457L555 0H439L263 365L171 234V0H67V780H171Z" glyph-name="K" horiz-adv-x="585" unicode="K" /><glyph d="M342 -105Q342 -219 222 -219V-176Q251 -176 270.5 -165.5Q290 -155 297 -129H240V-51H342ZM171 395 429 780H555L328 457L555 0H439L263 365L171 234V0H67V780H171Z" glyph-name="Kcommaaccent" horiz-adv-x="585" unicode="&#310;" /><glyph d="M67 0V780H171V92H486V0Z" glyph-name="L" horiz-adv-x="501" unicode="L" /><glyph d="M233 950 170 840H68L126 950ZM67 0V780H171V92H486V0Z" glyph-name="Lacute" horiz-adv-x="501" unicode="&#313;" /><glyph d="M379 800 358 607H306V800ZM67 0V780H171V92H486V0Z" glyph-name="Lcaron" horiz-adv-x="501" unicode="&#317;" /><glyph d="M329 -105Q329 -219 209 -219V-176Q238 -176 257.5 -165.5Q277 -155 284 -129H227V-51H329ZM67 0V780H171V92H486V0Z" glyph-name="Lcommaaccent" horiz-adv-x="501" unicode="&#315;" /><glyph d="M423 340H308V456H423ZM67 0V780H171V92H486V0Z" glyph-name="Ldot" horiz-adv-x="501" unicode="&#319;" /><glyph d="M16 329 127 385V780H231V438L436 542V451L231 347V92H546V0H127V294L16 238Z" glyph-name="Lslash" horiz-adv-x="561" unicode="&#321;" /><glyph d="M464 0H363L167 599L171 432V0H67V780H218L413 180L609 780H760V0H656V432L660 599Z" glyph-name="M" horiz-adv-x="827" unicode="M" /><glyph d="M462 854H364V936H462ZM464 0H363L167 599L171 432V0H67V780H218L413 180L609 780H760V0H656V432L660 599Z" glyph-name="Mdotaccent" horiz-adv-x="827" unicode="&#7744;" /><glyph d="M600 0H489L162 596L166 423V0H67V780H178L505 184L501 357V780H600Z" glyph-name="N" horiz-adv-x="667" unicode="N" /><glyph d="M448 950 385 840H283L341 950ZM600 0H489L162 596L166 423V0H67V780H178L505 184L501 357V780H600Z" glyph-name="Nacute" horiz-adv-x="667" unicode="&#323;" /><glyph d="M268 950 334 892 400 950H496L383 840H285L172 950ZM600 0H489L162 596L166 423V0H67V780H178L505 184L501 357V780H600Z" glyph-name="Ncaron" horiz-adv-x="667" unicode="&#327;" /><glyph d="M385 -105Q385 -219 265 -219V-176Q294 -176 313.5 -165.5Q333 -155 340 -129H283V-51H385ZM600 0H489L162 596L166 423V0H67V780H178L505 184L501 357V780H600Z" glyph-name="Ncommaaccent" horiz-adv-x="667" unicode="&#325;" /><glyph d="M497 940Q497 884 472 861Q447 838 410 838Q386 838 366.5 846Q347 854 330 863.5Q313 873 298 881Q283 889 268 889Q254 889 243.5 881Q233 873 233 850H171Q171 906 196 929Q221 952 258 952Q282 952 301.5 944Q321 936 338 926.5Q355 917 370 909Q385 901 400 901Q414 901 424.5 909Q435 917 435 940ZM600 0H489L162 596L166 423V0H67V780H178L505 184L501 357V780H600Z" glyph-name="Ntilde" horiz-adv-x="667" unicode="&#209;" /><glyph d="M332 80Q422 80 461 150.5Q500 221 500 370V410Q500 558 461 629Q422 700 332 700H325Q235 700 196 629Q157 558 157 410V370Q157 221 196 150.5Q235 80 325 80ZM329 -12Q258 -12 206 9.5Q154 31 119 77.5Q84 124 67 196.5Q50 269 50 370V410Q50 511 67 583.5Q84 656 119 702.5Q154 749 206 770.5Q258 792 329 792Q399 792 451.5 770.5Q504 749 538.5 702.5Q573 656 590 583.5Q607 511 607 410V370Q607 269 590 196.5Q573 124 538.5 77.5Q504 31 451.5 9.5Q399 -12 329 -12Z" glyph-name="O" horiz-adv-x="657" unicode="O" /><glyph d="M369 688Q315 688 275 672.5Q235 657 208.5 623.5Q182 590 169.5 537Q157 484 157 410V370Q157 296 169.5 243Q182 190 208.5 156.5Q235 123 275 107.5Q315 92 369 92H450V688ZM50 410Q50 511 70 581.5Q90 652 129 696Q168 740 226 760Q284 780 361 780H900V688H554V444H850V352H554V92H900V0H361Q284 0 226 20Q168 40 129 84Q90 128 70 198.5Q50 269 50 370Z" glyph-name="OE" horiz-adv-x="940" unicode="&#338;" /><glyph d="M443 950 380 840H278L336 950ZM332 80Q422 80 461 150.5Q500 221 500 370V410Q500 558 461 629Q422 700 332 700H325Q235 700 196 629Q157 558 157 410V370Q157 221 196 150.5Q235 80 325 80ZM329 -12Q258 -12 206 9.5Q154 31 119 77.5Q84 124 67 196.5Q50 269 50 370V410Q50 511 67 583.5Q84 656 119 702.5Q154 749 206 770.5Q258 792 329 792Q399 792 451.5 770.5Q504 749 538.5 702.5Q573 656 590 583.5Q607 511 607 410V370Q607 269 590 196.5Q573 124 538.5 77.5Q504 31 451.5 9.5Q399 -12 329 -12Z" glyph-name="Oacute" horiz-adv-x="657" unicode="&#211;" /><glyph d="M329 827Q284 827 253.5 836.5Q223 846 204.5 862.5Q186 879 178 901.5Q170 924 170 950H245Q245 922 264.5 906Q284 890 329 890Q374 890 393.5 906Q413 922 413 950H488Q488 924 480 901.5Q472 879 453.5 862.5Q435 846 404.5 836.5Q374 827 329 827ZM332 80Q422 80 461 150.5Q500 221 500 370V410Q500 558 461 629Q422 700 332 700H325Q235 700 196 629Q157 558 157 410V370Q157 221 196 150.5Q235 80 325 80ZM329 -12Q258 -12 206 9.5Q154 31 119 77.5Q84 124 67 196.5Q50 269 50 370V410Q50 511 67 583.5Q84 656 119 702.5Q154 749 206 770.5Q258 792 329 792Q399 792 451.5 770.5Q504 749 538.5 702.5Q573 656 590 583.5Q607 511 607 410V370Q607 269 590 196.5Q573 124 538.5 77.5Q504 31 451.5 9.5Q399 -12 329 -12Z" glyph-name="Obreve" horiz-adv-x="657" unicode="&#334;" /><glyph d="M167 840 280 950H378L491 840H395L329 897L263 840ZM332 80Q422 80 461 150.5Q500 221 500 370V410Q500 558 461 629Q422 700 332 700H325Q235 700 196 629Q157 558 157 410V370Q157 221 196 150.5Q235 80 325 80ZM329 -12Q258 -12 206 9.5Q154 31 119 77.5Q84 124 67 196.5Q50 269 50 370V410Q50 511 67 583.5Q84 656 119 702.5Q154 749 206 770.5Q258 792 329 792Q399 792 451.5 770.5Q504 749 538.5 702.5Q573 656 590 583.5Q607 511 607 410V370Q607 269 590 196.5Q573 124 538.5 77.5Q504 31 451.5 9.5Q399 -12 329 -12Z" glyph-name="Ocircumflex" horiz-adv-x="657" unicode="&#212;" /><glyph d="M460 854H361V936H460ZM297 854H198V936H297ZM332 80Q422 80 461 150.5Q500 221 500 370V410Q500 558 461 629Q422 700 332 700H325Q235 700 196 629Q157 558 157 410V370Q157 221 196 150.5Q235 80 325 80ZM329 -12Q258 -12 206 9.5Q154 31 119 77.5Q84 124 67 196.5Q50 269 50 370V410Q50 511 67 583.5Q84 656 119 702.5Q154 749 206 770.5Q258 792 329 792Q399 792 451.5 770.5Q504 749 538.5 702.5Q573 656 590 583.5Q607 511 607 410V370Q607 269 590 196.5Q573 124 538.5 77.5Q504 31 451.5 9.5Q399 -12 329 -12Z" glyph-name="Odieresis" horiz-adv-x="657" unicode="&#214;" /><glyph d="M322 950 380 840H278L215 950ZM332 80Q422 80 461 150.5Q500 221 500 370V410Q500 558 461 629Q422 700 332 700H325Q235 700 196 629Q157 558 157 410V370Q157 221 196 150.5Q235 80 325 80ZM329 -12Q258 -12 206 9.5Q154 31 119 77.5Q84 124 67 196.5Q50 269 50 370V410Q50 511 67 583.5Q84 656 119 702.5Q154 749 206 770.5Q258 792 329 792Q399 792 451.5 770.5Q504 749 538.5 702.5Q573 656 590 583.5Q607 511 607 410V370Q607 269 590 196.5Q573 124 538.5 77.5Q504 31 451.5 9.5Q399 -12 329 -12Z" glyph-name="Ograve" horiz-adv-x="657" unicode="&#210;" /><glyph d="M508 950 446 840H352L410 950ZM364 950 306 840H212L266 950ZM332 80Q422 80 461 150.5Q500 221 500 370V410Q500 558 461 629Q422 700 332 700H325Q235 700 196 629Q157 558 157 410V370Q157 221 196 150.5Q235 80 325 80ZM329 -12Q258 -12 206 9.5Q154 31 119 77.5Q84 124 67 196.5Q50 269 50 370V410Q50 511 67 583.5Q84 656 119 702.5Q154 749 206 770.5Q258 792 329 792Q399 792 451.5 770.5Q504 749 538.5 702.5Q573 656 590 583.5Q607 511 607 410V370Q607 269 590 196.5Q573 124 538.5 77.5Q504 31 451.5 9.5Q399 -12 329 -12Z" glyph-name="Ohungarumlaut" horiz-adv-x="657" unicode="&#336;" /><glyph d="M203 930H455V860H203ZM332 80Q422 80 461 150.5Q500 221 500 370V410Q500 558 461 629Q422 700 332 700H325Q235 700 196 629Q157 558 157 410V370Q157 221 196 150.5Q235 80 325 80ZM329 -12Q258 -12 206 9.5Q154 31 119 77.5Q84 124 67 196.5Q50 269 50 370V410Q50 511 67 583.5Q84 656 119 702.5Q154 749 206 770.5Q258 792 329 792Q399 792 451.5 770.5Q504 749 538.5 702.5Q573 656 590 583.5Q607 511 607 410V370Q607 269 590 196.5Q573 124 538.5 77.5Q504 31 451.5 9.5Q399 -12 329 -12Z" glyph-name="Omacron" horiz-adv-x="657" unicode="&#332;" /><glyph d="M157 370Q157 319 161 278Q165 237 174 204L449 647Q409 700 332 700H325Q235 700 196 629Q157 558 157 410ZM500 410Q500 463 495.5 505.5Q491 548 480 582L205 136Q245 80 325 80H332Q422 80 461 150.5Q500 221 500 370ZM50 410Q50 511 67 583.5Q84 656 119 702.5Q154 749 206 770.5Q258 792 329 792Q384 792 428 779Q472 766 505 737L531 780H603L547 689Q577 642 592 573.5Q607 505 607 410V370Q607 269 590 196.5Q573 124 538.5 77.5Q504 31 451.5 9.5Q399 -12 329 -12Q213 -12 149 45L121 0H48L107 95Q50 188 50 370Z" glyph-name="Oslash" horiz-adv-x="649" unicode="&#216;" /><glyph d="M492 940Q492 884 467 861Q442 838 405 838Q381 838 361.5 846Q342 854 325 863.5Q308 873 293 881Q278 889 263 889Q249 889 238.5 881Q228 873 228 850H166Q166 906 191 929Q216 952 253 952Q277 952 296.5 944Q316 936 333 926.5Q350 917 365 909Q380 901 395 901Q409 901 419.5 909Q430 917 430 940ZM332 80Q422 80 461 150.5Q500 221 500 370V410Q500 558 461 629Q422 700 332 700H325Q235 700 196 629Q157 558 157 410V370Q157 221 196 150.5Q235 80 325 80ZM329 -12Q258 -12 206 9.5Q154 31 119 77.5Q84 124 67 196.5Q50 269 50 370V410Q50 511 67 583.5Q84 656 119 702.5Q154 749 206 770.5Q258 792 329 792Q399 792 451.5 770.5Q504 749 538.5 702.5Q573 656 590 583.5Q607 511 607 410V370Q607 269 590 196.5Q573 124 538.5 77.5Q504 31 451.5 9.5Q399 -12 329 -12Z" glyph-name="Otilde" horiz-adv-x="657" unicode="&#213;" /><glyph d="M301 395Q323 395 348 400.5Q373 406 394 421Q415 436 428.5 463.5Q442 491 442 535V548Q442 592 428.5 619.5Q415 647 394 662Q373 677 348 682.5Q323 688 301 688H171V395ZM171 0H67V780H298Q342 780 386.5 771Q431 762 467 737Q503 712 525.5 667.5Q548 623 548 552V532Q548 461 525.5 416.5Q503 372 467 347Q431 322 386.5 313Q342 304 298 304H171Z" glyph-name="P" horiz-adv-x="586" unicode="P" /><glyph d="M338 854H240V936H338ZM301 395Q323 395 348 400.5Q373 406 394 421Q415 436 428.5 463.5Q442 491 442 535V548Q442 592 428.5 619.5Q415 647 394 662Q373 677 348 682.5Q323 688 301 688H171V395ZM171 0H67V780H298Q342 780 386.5 771Q431 762 467 737Q503 712 525.5 667.5Q548 623 548 552V532Q548 461 525.5 416.5Q503 372 467 347Q431 322 386.5 313Q342 304 298 304H171Z" glyph-name="Pdotaccent" horiz-adv-x="586" unicode="&#7766;" /><glyph d="M419 103Q462 132 481 198Q500 264 500 370V410Q500 558 461 629Q422 700 332 700H325Q235 700 196 629Q157 558 157 410V370Q157 221 196 150.5Q235 80 325 80H343L283 239H366ZM329 -12Q258 -12 206 9.5Q154 31 119 77.5Q84 124 67 196.5Q50 269 50 370V410Q50 511 67 583.5Q84 656 119 702.5Q154 749 206 770.5Q258 792 329 792Q399 792 451.5 770.5Q504 749 538.5 702.5Q573 656 590 583.5Q607 511 607 410V370Q607 219 569.5 132Q532 45 455 11L498 -100H411L376 -9Q353 -12 329 -12Z" glyph-name="Q" horiz-adv-x="657" unicode="Q" /><glyph d="M301 395Q323 395 348 400.5Q373 406 394 421Q415 436 428.5 463.5Q442 491 442 535V548Q442 592 428.5 619.5Q415 647 394 662Q373 677 348 682.5Q323 688 301 688H171V395ZM171 0H67V780H298Q342 780 386.5 771Q431 762 467 737Q503 712 525.5 667.5Q548 623 548 552V532Q548 485 538 450Q528 415 510 390Q492 365 468.5 348.5Q445 332 418 322L548 0H435L317 304H171Z" glyph-name="R" horiz-adv-x="598" unicode="R" /><glyph d="M396 950 333 840H231L289 950ZM301 395Q323 395 348 400.5Q373 406 394 421Q415 436 428.5 463.5Q442 491 442 535V548Q442 592 428.5 619.5Q415 647 394 662Q373 677 348 682.5Q323 688 301 688H171V395ZM171 0H67V780H298Q342 780 386.5 771Q431 762 467 737Q503 712 525.5 667.5Q548 623 548 552V532Q548 485 538 450Q528 415 510 390Q492 365 468.5 348.5Q445 332 418 322L548 0H435L317 304H171Z" glyph-name="Racute" horiz-adv-x="598" unicode="&#340;" /><glyph d="M216 950 282 892 348 950H444L331 840H233L120 950ZM301 395Q323 395 348 400.5Q373 406 394 421Q415 436 428.5 463.5Q442 491 442 535V548Q442 592 428.5 619.5Q415 647 394 662Q373 677 348 682.5Q323 688 301 688H171V395ZM171 0H67V780H298Q342 780 386.5 771Q431 762 467 737Q503 712 525.5 667.5Q548 623 548 552V532Q548 485 538 450Q528 415 510 390Q492 365 468.5 348.5Q445 332 418 322L548 0H435L317 304H171Z" glyph-name="Rcaron" horiz-adv-x="598" unicode="&#344;" /><glyph d="M343 -105Q343 -219 223 -219V-176Q252 -176 271.5 -165.5Q291 -155 298 -129H241V-51H343ZM301 395Q323 395 348 400.5Q373 406 394 421Q415 436 428.5 463.5Q442 491 442 535V548Q442 592 428.5 619.5Q415 647 394 662Q373 677 348 682.5Q323 688 301 688H171V395ZM171 0H67V780H298Q342 780 386.5 771Q431 762 467 737Q503 712 525.5 667.5Q548 623 548 552V532Q548 485 538 450Q528 415 510 390Q492 365 468.5 348.5Q445 332 418 322L548 0H435L317 304H171Z" glyph-name="Rcommaaccent" horiz-adv-x="598" unicode="&#342;" /><glyph d="M289 354Q161 371 105 424Q49 477 49 564V575Q49 625 67 665Q85 705 118 733.5Q151 762 198.5 777Q246 792 306 792Q440 792 501 727Q562 662 562 535V511H458Q458 611 423 655.5Q388 700 307 700H300Q236 700 196 668.5Q156 637 156 583V575Q156 548 163.5 526Q171 504 190.5 487.5Q210 471 242 459.5Q274 448 324 441Q451 424 510.5 372.5Q570 321 570 225V214Q570 107 500.5 47.5Q431 -12 306 -12Q175 -12 108 54Q41 120 41 249V259H145Q145 166 188 123Q231 80 302 80H310Q381 80 422 114.5Q463 149 463 209V217Q463 276 424 308.5Q385 341 289 354Z" glyph-name="S" horiz-adv-x="611" unicode="S" /><glyph d="M420 950 357 840H255L313 950ZM289 354Q161 371 105 424Q49 477 49 564V575Q49 625 67 665Q85 705 118 733.5Q151 762 198.5 777Q246 792 306 792Q440 792 501 727Q562 662 562 535V511H458Q458 611 423 655.5Q388 700 307 700H300Q236 700 196 668.5Q156 637 156 583V575Q156 548 163.5 526Q171 504 190.5 487.5Q210 471 242 459.5Q274 448 324 441Q451 424 510.5 372.5Q570 321 570 225V214Q570 107 500.5 47.5Q431 -12 306 -12Q175 -12 108 54Q41 120 41 249V259H145Q145 166 188 123Q231 80 302 80H310Q381 80 422 114.5Q463 149 463 209V217Q463 276 424 308.5Q385 341 289 354Z" glyph-name="Sacute" horiz-adv-x="611" unicode="&#346;" /><glyph d="M240 950 306 892 372 950H468L355 840H257L144 950ZM289 354Q161 371 105 424Q49 477 49 564V575Q49 625 67 665Q85 705 118 733.5Q151 762 198.5 777Q246 792 306 792Q440 792 501 727Q562 662 562 535V511H458Q458 611 423 655.5Q388 700 307 700H300Q236 700 196 668.5Q156 637 156 583V575Q156 548 163.5 526Q171 504 190.5 487.5Q210 471 242 459.5Q274 448 324 441Q451 424 510.5 372.5Q570 321 570 225V214Q570 107 500.5 47.5Q431 -12 306 -12Q175 -12 108 54Q41 120 41 249V259H145Q145 166 188 123Q231 80 302 80H310Q381 80 422 114.5Q463 149 463 209V217Q463 276 424 308.5Q385 341 289 354Z" glyph-name="Scaron" horiz-adv-x="611" unicode="&#352;" /><glyph d="M230 -139Q242 -146 261 -150.5Q280 -155 300 -155Q354 -155 354 -126Q354 -111 339 -105Q324 -99 297 -99Q291 -99 285.5 -99.5Q280 -100 275 -101Q270 -102 265 -102L248 -77L273 -11Q158 -3 99.5 62.5Q41 128 41 249V259H145Q145 166 188 123Q231 80 302 80H310Q381 80 422 114.5Q463 149 463 209V217Q463 276 424 308.5Q385 341 289 354Q161 371 105 424Q49 477 49 564V575Q49 625 67 665Q85 705 118 733.5Q151 762 198.5 777Q246 792 306 792Q440 792 501 727Q562 662 562 535V511H458Q458 611 423 655.5Q388 700 307 700H300Q236 700 196 668.5Q156 637 156 583V575Q156 548 163.5 526Q171 504 190.5 487.5Q210 471 242 459.5Q274 448 324 441Q451 424 510.5 372.5Q570 321 570 225V214Q570 112 507 53.5Q444 -5 330 -11L316 -50Q336 -50 354.5 -55Q373 -60 387 -69.5Q401 -79 409.5 -94.5Q418 -110 418 -131Q418 -173 389 -193Q360 -213 309 -213Q278 -213 252 -206.5Q226 -200 212 -191Z" glyph-name="Scedilla" horiz-adv-x="611" unicode="&#350;" /><glyph d="M144 840 257 950H355L468 840H372L306 897L240 840ZM289 354Q161 371 105 424Q49 477 49 564V575Q49 625 67 665Q85 705 118 733.5Q151 762 198.5 777Q246 792 306 792Q440 792 501 727Q562 662 562 535V511H458Q458 611 423 655.5Q388 700 307 700H300Q236 700 196 668.5Q156 637 156 583V575Q156 548 163.5 526Q171 504 190.5 487.5Q210 471 242 459.5Q274 448 324 441Q451 424 510.5 372.5Q570 321 570 225V214Q570 107 500.5 47.5Q431 -12 306 -12Q175 -12 108 54Q41 120 41 249V259H145Q145 166 188 123Q231 80 302 80H310Q381 80 422 114.5Q463 149 463 209V217Q463 276 424 308.5Q385 341 289 354Z" glyph-name="Scircumflex" horiz-adv-x="611" unicode="&#348;" /><glyph d="M357 -105Q357 -219 237 -219V-176Q266 -176 285.5 -165.5Q305 -155 312 -129H255V-51H357ZM289 354Q161 371 105 424Q49 477 49 564V575Q49 625 67 665Q85 705 118 733.5Q151 762 198.5 777Q246 792 306 792Q440 792 501 727Q562 662 562 535V511H458Q458 611 423 655.5Q388 700 307 700H300Q236 700 196 668.5Q156 637 156 583V575Q156 548 163.5 526Q171 504 190.5 487.5Q210 471 242 459.5Q274 448 324 441Q451 424 510.5 372.5Q570 321 570 225V214Q570 107 500.5 47.5Q431 -12 306 -12Q175 -12 108 54Q41 120 41 249V259H145Q145 166 188 123Q231 80 302 80H310Q381 80 422 114.5Q463 149 463 209V217Q463 276 424 308.5Q385 341 289 354Z" glyph-name="Scommaaccent" horiz-adv-x="611" unicode="&#536;" /><glyph d="M317 0H213V688H21V780H509V688H317Z" glyph-name="T" horiz-adv-x="530" unicode="T" /><glyph d="M317 444H438V352H317V0H213V352H91V444H213V688H21V780H509V688H317Z" glyph-name="Tbar" horiz-adv-x="530" unicode="&#358;" /><glyph d="M199 950 265 892 331 950H427L314 840H216L103 950ZM317 0H213V688H21V780H509V688H317Z" glyph-name="Tcaron" horiz-adv-x="530" unicode="&#356;" /><glyph d="M316 -105Q316 -219 196 -219V-176Q225 -176 244.5 -165.5Q264 -155 271 -129H214V-51H316ZM317 0H213V688H21V780H509V688H317Z" glyph-name="Tcommaaccent" horiz-adv-x="530" unicode="&#354;" /><glyph d="M314 854H216V936H314ZM317 0H213V688H21V780H509V688H317Z" glyph-name="Tdotaccent" horiz-adv-x="530" unicode="&#7786;" /><glyph d="M301 244Q323 244 348 249.5Q373 255 394 270Q415 285 428.5 312.5Q442 340 442 384V396Q442 440 428.5 467.5Q415 495 394 510Q373 525 348 530.5Q323 536 301 536H171V244ZM171 628H298Q342 628 386.5 619Q431 610 467 585Q503 560 525.5 515.5Q548 471 548 400V380Q548 309 525.5 264.5Q503 220 467 195Q431 170 386.5 161Q342 152 298 152H171V0H67V780H171Z" glyph-name="Thorn" horiz-adv-x="586" unicode="&#222;" /><glyph d="M324 -12Q255 -12 205.5 2.5Q156 17 124 47.5Q92 78 77 126.5Q62 175 62 243V780H166V248Q166 155 203.5 117.5Q241 80 324 80Q406 80 443.5 117.5Q481 155 481 248V780H585V243Q585 175 570 126.5Q555 78 523 47.5Q491 17 441.5 2.5Q392 -12 324 -12Z" glyph-name="U" horiz-adv-x="647" unicode="U" /><glyph d="M438 950 375 840H273L331 950ZM324 -12Q255 -12 205.5 2.5Q156 17 124 47.5Q92 78 77 126.5Q62 175 62 243V780H166V248Q166 155 203.5 117.5Q241 80 324 80Q406 80 443.5 117.5Q481 155 481 248V780H585V243Q585 175 570 126.5Q555 78 523 47.5Q491 17 441.5 2.5Q392 -12 324 -12Z" glyph-name="Uacute" horiz-adv-x="647" unicode="&#218;" /><glyph d="M324 -12Q255 -12 205.5 2.5Q156 17 124 47.5Q92 78 77 126.5Q62 175 62 243V780H166V248Q166 155 203.5 117.5Q241 80 324 80Q406 80 443.5 117.5Q481 155 481 248V780H585V243Q585 175 570 126.5Q555 78 523 47.5Q491 17 441.5 2.5Q392 -12 324 -12ZM324 827Q279 827 248.5 836.5Q218 846 199.5 862.5Q181 879 173 901.5Q165 924 165 950H240Q240 922 259.5 906Q279 890 324 890Q369 890 388.5 906Q408 922 408 950H483Q483 924 475 901.5Q467 879 448.5 862.5Q430 846 399.5 836.5Q369 827 324 827Z" glyph-name="Ubreve" horiz-adv-x="647" unicode="&#364;" /><glyph d="M162 840 275 950H373L486 840H390L324 897L258 840ZM324 -12Q255 -12 205.5 2.5Q156 17 124 47.5Q92 78 77 126.5Q62 175 62 243V780H166V248Q166 155 203.5 117.5Q241 80 324 80Q406 80 443.5 117.5Q481 155 481 248V780H585V243Q585 175 570 126.5Q555 78 523 47.5Q491 17 441.5 2.5Q392 -12 324 -12Z" glyph-name="Ucircumflex" horiz-adv-x="647" unicode="&#219;" /><glyph d="M455 854H356V936H455ZM292 854H193V936H292ZM324 -12Q255 -12 205.5 2.5Q156 17 124 47.5Q92 78 77 126.5Q62 175 62 243V780H166V248Q166 155 203.5 117.5Q241 80 324 80Q406 80 443.5 117.5Q481 155 481 248V780H585V243Q585 175 570 126.5Q555 78 523 47.5Q491 17 441.5 2.5Q392 -12 324 -12Z" glyph-name="Udieresis" horiz-adv-x="647" unicode="&#220;" /><glyph d="M317 950 375 840H273L210 950ZM324 -12Q255 -12 205.5 2.5Q156 17 124 47.5Q92 78 77 126.5Q62 175 62 243V780H166V248Q166 155 203.5 117.5Q241 80 324 80Q406 80 443.5 117.5Q481 155 481 248V780H585V243Q585 175 570 126.5Q555 78 523 47.5Q491 17 441.5 2.5Q392 -12 324 -12Z" glyph-name="Ugrave" horiz-adv-x="647" unicode="&#217;" /><glyph d="M359 950 301 840H207L261 950ZM503 950 441 840H347L405 950ZM324 -12Q255 -12 205.5 2.5Q156 17 124 47.5Q92 78 77 126.5Q62 175 62 243V780H166V248Q166 155 203.5 117.5Q241 80 324 80Q406 80 443.5 117.5Q481 155 481 248V780H585V243Q585 175 570 126.5Q555 78 523 47.5Q491 17 441.5 2.5Q392 -12 324 -12Z" glyph-name="Uhungarumlaut" horiz-adv-x="647" unicode="&#368;" /><glyph d="M198 930H450V860H198ZM324 -12Q255 -12 205.5 2.5Q156 17 124 47.5Q92 78 77 126.5Q62 175 62 243V780H166V248Q166 155 203.5 117.5Q241 80 324 80Q406 80 443.5 117.5Q481 155 481 248V780H585V243Q585 175 570 126.5Q555 78 523 47.5Q491 17 441.5 2.5Q392 -12 324 -12Z" glyph-name="Umacron" horiz-adv-x="647" unicode="&#362;" /><glyph d="M356 -91Q356 -111 369 -123.5Q382 -136 407 -136Q424 -136 438.5 -132Q453 -128 462 -123L487 -191Q471 -201 445.5 -207Q420 -213 394 -213Q340 -213 307.5 -188.5Q275 -164 275 -111Q275 -81 285.5 -56.5Q296 -32 313 -12Q247 -11 200 4Q153 19 122 50Q91 81 76.5 128.5Q62 176 62 243V780H166V248Q166 155 203.5 117.5Q241 80 324 80Q406 80 443.5 117.5Q481 155 481 248V780H585V243Q585 136 548 78.5Q511 21 432 0Q400 -8 378 -33.5Q356 -59 356 -91Z" glyph-name="Uogonek" horiz-adv-x="647" unicode="&#370;" /><glyph d="M270 864Q270 841 285.5 825Q301 809 324 809Q347 809 362.5 825Q378 841 378 864Q378 886 362.5 902Q347 918 324 918Q301 918 285.5 902Q270 886 270 864ZM226 864Q226 905 254.5 933.5Q283 962 324 962Q365 962 393.5 933.5Q422 905 422 864Q422 822 393.5 793.5Q365 765 324 765Q283 765 254.5 793.5Q226 822 226 864ZM324 -12Q255 -12 205.5 2.5Q156 17 124 47.5Q92 78 77 126.5Q62 175 62 243V780H166V248Q166 155 203.5 117.5Q241 80 324 80Q406 80 443.5 117.5Q481 155 481 248V780H585V243Q585 175 570 126.5Q555 78 523 47.5Q491 17 441.5 2.5Q392 -12 324 -12Z" glyph-name="Uring" horiz-adv-x="647" unicode="&#366;" /><glyph d="M324 -12Q255 -12 205.5 2.5Q156 17 124 47.5Q92 78 77 126.5Q62 175 62 243V780H166V248Q166 155 203.5 117.5Q241 80 324 80Q406 80 443.5 117.5Q481 155 481 248V780H585V243Q585 175 570 126.5Q555 78 523 47.5Q491 17 441.5 2.5Q392 -12 324 -12ZM487 940Q487 884 462 861Q437 838 400 838Q376 838 356.5 846Q337 854 320 863.5Q303 873 288 881Q273 889 258 889Q244 889 233.5 881Q223 873 223 850H161Q161 906 186 929Q211 952 248 952Q272 952 291.5 944Q311 936 328 926.5Q345 917 360 909Q375 901 390 901Q404 901 414.5 909Q425 917 425 940Z" glyph-name="Utilde" horiz-adv-x="647" unicode="&#360;" /><glyph d="M238 -6 23 780H135L311 111L486 780H598L383 -6Z" glyph-name="V" horiz-adv-x="621" unicode="V" /><glyph d="M455 664 310 -6H173L33 780H142L247 130L388 780H522L663 130L768 780H877L737 -6H600Z" glyph-name="W" horiz-adv-x="910" unicode="W" /><glyph d="M569 950 506 840H404L462 950ZM455 664 310 -6H173L33 780H142L247 130L388 780H522L663 130L768 780H877L737 -6H600Z" glyph-name="Wacute" horiz-adv-x="910" unicode="&#7810;" /><glyph d="M293 840 406 950H504L617 840H521L455 897L389 840ZM455 664 310 -6H173L33 780H142L247 130L388 780H522L663 130L768 780H877L737 -6H600Z" glyph-name="Wcircumflex" horiz-adv-x="910" unicode="&#372;" /><glyph d="M586 854H487V936H586ZM423 854H324V936H423ZM455 664 310 -6H173L33 780H142L247 130L388 780H522L663 130L768 780H877L737 -6H600Z" glyph-name="Wdieresis" horiz-adv-x="910" unicode="&#7812;" /><glyph d="M448 950 506 840H404L341 950ZM455 664 310 -6H173L33 780H142L247 130L388 780H522L663 130L768 780H877L737 -6H600Z" glyph-name="Wgrave" horiz-adv-x="910" unicode="&#7808;" /><glyph d="M239 402 26 780H148L313 476L478 780H599L386 401L599 0H482L313 329L144 0H26Z" glyph-name="X" horiz-adv-x="626" unicode="X" /><glyph d="M349 0H245V237L16 780H129L297 366L465 780H578L349 237Z" glyph-name="Y" horiz-adv-x="594" unicode="Y" /><glyph d="M411 950 348 840H246L304 950ZM349 0H245V237L16 780H129L297 366L465 780H578L349 237Z" glyph-name="Yacute" horiz-adv-x="594" unicode="&#221;" /><glyph d="M135 840 248 950H346L459 840H363L297 897L231 840ZM349 0H245V237L16 780H129L297 366L465 780H578L349 237Z" glyph-name="Ycircumflex" horiz-adv-x="594" unicode="&#374;" /><glyph d="M265 854H166V936H265ZM428 854H329V936H428ZM349 0H245V237L16 780H129L297 366L465 780H578L349 237Z" glyph-name="Ydieresis" horiz-adv-x="594" unicode="&#376;" /><glyph d="M290 950 348 840H246L183 950ZM349 0H245V237L16 780H129L297 366L465 780H578L349 237Z" glyph-name="Ygrave" horiz-adv-x="594" unicode="&#7922;" /><glyph d="M171 930H423V860H171ZM349 0H245V237L16 780H129L297 366L465 780H578L349 237Z" glyph-name="Ymacron" horiz-adv-x="594" unicode="&#562;" /><glyph d="M398 691 266 688H50V780H525V708L167 89L299 92H535V0H40V72Z" glyph-name="Z" horiz-adv-x="575" unicode="Z" /><glyph d="M398 691 266 688H50V780H525V708L167 89L299 92H535V0H40V72ZM400 950 337 840H235L293 950Z" glyph-name="Zacute" horiz-adv-x="575" unicode="&#377;" /><glyph d="M398 691 266 688H50V780H525V708L167 89L299 92H535V0H40V72ZM220 950 286 892 352 950H448L335 840H237L124 950Z" glyph-name="Zcaron" horiz-adv-x="575" unicode="&#381;" /><glyph d="M398 691 266 688H50V780H525V708L167 89L299 92H535V0H40V72ZM335 854H237V936H335Z" glyph-name="Zdotaccent" horiz-adv-x="575" unicode="&#379;" /><glyph d="M228 72Q258 72 280.5 79Q303 86 320 96.5Q337 107 348 119Q359 131 366 141V270L234 248Q139 233 139 158V150Q139 120 160 96Q181 72 228 72ZM376 68Q349 34 305 11Q261 -12 196 -12Q157 -12 127.5 -0.5Q98 11 78.5 31Q59 51 49.5 78.5Q40 106 40 138V148Q40 191 54.5 220Q69 249 94 268Q119 287 151 297Q183 307 219 312L366 335V343Q366 403 343.5 432.5Q321 462 260 462Q228 462 207.5 453.5Q187 445 175.5 430Q164 415 159.5 395.5Q155 376 155 355H60V364Q60 395 69 427Q78 459 100.5 484.5Q123 510 162.5 526Q202 542 263 542Q321 542 360 528Q399 514 422.5 487.5Q446 461 456 424.5Q466 388 466 343V150L473 0H386Z" glyph-name="a" horiz-adv-x="525" unicode="a" /><glyph d="M413 780 314 607H212L303 780ZM228 72Q258 72 280.5 79Q303 86 320 96.5Q337 107 348 119Q359 131 366 141V270L234 248Q139 233 139 158V150Q139 120 160 96Q181 72 228 72ZM376 68Q349 34 305 11Q261 -12 196 -12Q157 -12 127.5 -0.5Q98 11 78.5 31Q59 51 49.5 78.5Q40 106 40 138V148Q40 191 54.5 220Q69 249 94 268Q119 287 151 297Q183 307 219 312L366 335V343Q366 403 343.5 432.5Q321 462 260 462Q228 462 207.5 453.5Q187 445 175.5 430Q164 415 159.5 395.5Q155 376 155 355H60V364Q60 395 69 427Q78 459 100.5 484.5Q123 510 162.5 526Q202 542 263 542Q321 542 360 528Q399 514 422.5 487.5Q446 461 456 424.5Q466 388 466 343V150L473 0H386Z" glyph-name="aacute" horiz-adv-x="525" unicode="&#225;" /><glyph d="M228 72Q258 72 280.5 79Q303 86 320 96.5Q337 107 348 119Q359 131 366 141V270L234 248Q139 233 139 158V150Q139 120 160 96Q181 72 228 72ZM263 595Q217 595 184.5 609Q152 623 131.5 647.5Q111 672 101.5 706Q92 740 93 780H170Q170 730 192.5 703Q215 676 263 676Q311 676 333.5 703Q356 730 356 780H433Q434 740 424.5 706Q415 672 394.5 647.5Q374 623 341.5 609Q309 595 263 595ZM376 68Q349 34 305 11Q261 -12 196 -12Q157 -12 127.5 -0.5Q98 11 78.5 31Q59 51 49.5 78.5Q40 106 40 138V148Q40 191 54.5 220Q69 249 94 268Q119 287 151 297Q183 307 219 312L366 335V343Q366 403 343.5 432.5Q321 462 260 462Q228 462 207.5 453.5Q187 445 175.5 430Q164 415 159.5 395.5Q155 376 155 355H60V364Q60 395 69 427Q78 459 100.5 484.5Q123 510 162.5 526Q202 542 263 542Q321 542 360 528Q399 514 422.5 487.5Q446 461 456 424.5Q466 388 466 343V150L473 0H386Z" glyph-name="abreve" horiz-adv-x="525" unicode="&#259;" /><glyph d="M84 607 216 780H310L442 607H348L263 709L178 607ZM228 72Q258 72 280.5 79Q303 86 320 96.5Q337 107 348 119Q359 131 366 141V270L234 248Q139 233 139 158V150Q139 120 160 96Q181 72 228 72ZM376 68Q349 34 305 11Q261 -12 196 -12Q157 -12 127.5 -0.5Q98 11 78.5 31Q59 51 49.5 78.5Q40 106 40 138V148Q40 191 54.5 220Q69 249 94 268Q119 287 151 297Q183 307 219 312L366 335V343Q366 403 343.5 432.5Q321 462 260 462Q228 462 207.5 453.5Q187 445 175.5 430Q164 415 159.5 395.5Q155 376 155 355H60V364Q60 395 69 427Q78 459 100.5 484.5Q123 510 162.5 526Q202 542 263 542Q321 542 360 528Q399 514 422.5 487.5Q446 461 456 424.5Q466 388 466 343V150L473 0H386Z" glyph-name="acircumflex" horiz-adv-x="525" unicode="&#226;" /><glyph d="M400 780 301 607H199L290 780Z" glyph-name="acute" horiz-adv-x="500" unicode="&#180;" /><glyph d="M364 950 301 840H199L257 950Z" glyph-name="acute.cap" horiz-adv-x="500" unicode="&#58402;" /><glyph d="M229 639H113V754H229ZM413 639H297V754H413ZM228 72Q258 72 280.5 79Q303 86 320 96.5Q337 107 348 119Q359 131 366 141V270L234 248Q139 233 139 158V150Q139 120 160 96Q181 72 228 72ZM376 68Q349 34 305 11Q261 -12 196 -12Q157 -12 127.5 -0.5Q98 11 78.5 31Q59 51 49.5 78.5Q40 106 40 138V148Q40 191 54.5 220Q69 249 94 268Q119 287 151 297Q183 307 219 312L366 335V343Q366 403 343.5 432.5Q321 462 260 462Q228 462 207.5 453.5Q187 445 175.5 430Q164 415 159.5 395.5Q155 376 155 355H60V364Q60 395 69 427Q78 459 100.5 484.5Q123 510 162.5 526Q202 542 263 542Q321 542 360 528Q399 514 422.5 487.5Q446 461 456 424.5Q466 388 466 343V150L473 0H386Z" glyph-name="adieresis" horiz-adv-x="525" unicode="&#228;" /><glyph d="M597 462Q533 462 501 420Q469 378 467 303H728Q725 378 693.5 420Q662 462 597 462ZM378 155Q366 200 366 253V268L234 246Q188 238 163.5 216Q139 194 139 156V148Q139 118 160 94Q181 70 228 70Q261 70 285 78.5Q309 87 326.5 99Q344 111 354.5 124Q365 137 371 147ZM467 227Q469 149 502.5 108.5Q536 68 605 68Q638 68 662.5 77Q687 86 702.5 101Q718 116 726 134Q734 152 734 170H829V166Q829 133 815 101Q801 69 773 44Q745 19 703 3.5Q661 -12 605 -12Q536 -12 488.5 12.5Q441 37 412 79Q379 41 325.5 14.5Q272 -12 202 -12Q161 -12 130.5 -0.5Q100 11 80 31Q60 51 50 78.5Q40 106 40 138V148Q40 191 55 220Q70 249 94.5 268Q119 287 151.5 297Q184 307 220 312L366 335V343Q366 403 343.5 432.5Q321 462 260 462Q228 462 207.5 453.5Q187 445 175.5 430Q164 415 159.5 395.5Q155 376 155 355H60V364Q60 395 69 427Q78 459 100.5 484.5Q123 510 162.5 526Q202 542 263 542Q333 542 372 519.5Q411 497 429 459Q455 497 496.5 519.5Q538 542 599 542Q659 542 702.5 521.5Q746 501 774 465.5Q802 430 815.5 381.5Q829 333 829 277V227Z" glyph-name="ae" horiz-adv-x="867" unicode="&#230;" /><glyph d="M223 780 314 607H212L113 780ZM228 72Q258 72 280.5 79Q303 86 320 96.5Q337 107 348 119Q359 131 366 141V270L234 248Q139 233 139 158V150Q139 120 160 96Q181 72 228 72ZM376 68Q349 34 305 11Q261 -12 196 -12Q157 -12 127.5 -0.5Q98 11 78.5 31Q59 51 49.5 78.5Q40 106 40 138V148Q40 191 54.5 220Q69 249 94 268Q119 287 151 297Q183 307 219 312L366 335V343Q366 403 343.5 432.5Q321 462 260 462Q228 462 207.5 453.5Q187 445 175.5 430Q164 415 159.5 395.5Q155 376 155 355H60V364Q60 395 69 427Q78 459 100.5 484.5Q123 510 162.5 526Q202 542 263 542Q321 542 360 528Q399 514 422.5 487.5Q446 461 456 424.5Q466 388 466 343V150L473 0H386Z" glyph-name="agrave" horiz-adv-x="525" unicode="&#224;" /><glyph d="M298 -126Q298 -97 244 -97Q228 -97 212.5 -99.5Q197 -102 190 -105V-59Q202 -55 219 -52Q236 -49 257 -49Q302 -49 332 -68Q362 -87 362 -131Q362 -173 333 -193Q304 -213 253 -213Q222 -213 196 -206.5Q170 -200 156 -191L174 -139Q186 -146 205 -150.5Q224 -155 244 -155Q298 -155 298 -126Z" glyph-name="altcedilla" horiz-adv-x="602" unicode="&#58390;" /><glyph d="M135 739H391V648H135ZM228 72Q258 72 280.5 79Q303 86 320 96.5Q337 107 348 119Q359 131 366 141V270L234 248Q139 233 139 158V150Q139 120 160 96Q181 72 228 72ZM376 68Q349 34 305 11Q261 -12 196 -12Q157 -12 127.5 -0.5Q98 11 78.5 31Q59 51 49.5 78.5Q40 106 40 138V148Q40 191 54.5 220Q69 249 94 268Q119 287 151 297Q183 307 219 312L366 335V343Q366 403 343.5 432.5Q321 462 260 462Q228 462 207.5 453.5Q187 445 175.5 430Q164 415 159.5 395.5Q155 376 155 355H60V364Q60 395 69 427Q78 459 100.5 484.5Q123 510 162.5 526Q202 542 263 542Q321 542 360 528Q399 514 422.5 487.5Q446 461 456 424.5Q466 388 466 343V150L473 0H386Z" glyph-name="amacron" horiz-adv-x="525" unicode="&#257;" /><glyph d="M171 613Q171 573 189.5 539.5Q208 506 234 475Q259 490 281 505Q303 520 320 536.5Q337 553 347 571.5Q357 590 357 613V621Q357 655 334.5 679.5Q312 704 267 704H260Q216 704 193.5 679.5Q171 655 171 621ZM277 79Q357 79 418 129L215 355Q181 329 159 297.5Q137 266 137 221V213Q137 152 170 115.5Q203 79 272 79ZM260 -12Q153 -12 93.5 46Q34 104 34 206V216Q34 253 44 283.5Q54 314 70.5 339Q87 364 109 384.5Q131 405 155 423Q134 447 117.5 468.5Q101 490 90 512.5Q79 535 73 559Q67 583 67 613V624Q67 659 79 689.5Q91 720 115.5 743Q140 766 177 779Q214 792 264 792Q313 792 350 779Q387 766 411.5 743Q436 720 448 689.5Q460 659 460 624V613Q460 574 445.5 544.5Q431 515 408 491Q385 467 355.5 447Q326 427 295 408L476 206Q494 242 504 288Q514 334 514 391V395H620V393Q620 313 600.5 246.5Q581 180 545 129L660 0H534L480 60Q391 -12 260 -12Z" glyph-name="ampersand" horiz-adv-x="671" unicode="&amp;" /><glyph d="M143 360 305 -120H200L38 360L200 840H305Z" glyph-name="anglebracketleft" horiz-adv-x="334" unicode="&#12296;" /><glyph d="M145 390 280 0H175L40 390L175 780H280Z" glyph-name="anglebracketleft.cap" horiz-adv-x="334" unicode="&#58519;" /><glyph d="M191 360 29 840H134L296 360L134 -120H29Z" glyph-name="anglebracketright" horiz-adv-x="334" unicode="&#12297;" /><glyph d="M54 780H159L294 390L159 0H54L189 390Z" glyph-name="anglebracketright.cap" horiz-adv-x="334" unicode="&#58520;" /><glyph d="M228 72Q258 72 280.5 79Q303 86 320 96.5Q337 107 348 119Q359 131 366 141V270L234 248Q139 233 139 158V150Q139 120 160 96Q181 72 228 72ZM395 -91Q395 -111 408 -123.5Q421 -136 446 -136Q463 -136 477.5 -132Q492 -128 501 -123L526 -191Q510 -201 484.5 -207Q459 -213 433 -213Q379 -213 346.5 -188.5Q314 -164 314 -111Q314 -69 333.5 -37.5Q353 -6 383 16L376 68Q349 34 305 11Q261 -12 196 -12Q157 -12 127.5 -0.5Q98 11 78.5 31Q59 51 49.5 78.5Q40 106 40 138V148Q40 191 54.5 220Q69 249 94 268Q119 287 151 297Q183 307 219 312L366 335V343Q366 403 343.5 432.5Q321 462 260 462Q228 462 207.5 453.5Q187 445 175.5 430Q164 415 159.5 395.5Q155 376 155 355H60V364Q60 395 69 427Q78 459 100.5 484.5Q123 510 162.5 526Q202 542 263 542Q321 542 360 528Q399 514 422.5 487.5Q446 461 456 424.5Q466 388 466 343V150L473 0H470Q438 -14 416.5 -36Q395 -58 395 -91Z" glyph-name="aogonek" horiz-adv-x="525" unicode="&#261;" /><glyph d="M179 566Q219 566 249.5 555Q280 544 307.5 531.5Q335 519 361.5 508Q388 497 419 497Q435 497 449.5 502.5Q464 508 476 516Q488 524 498 533.5Q508 543 514 551L566 498Q556 484 542 469.5Q528 455 510 443Q492 431 469.5 423.5Q447 416 421 416Q381 416 350.5 427Q320 438 292.5 450.5Q265 463 238.5 474Q212 485 181 485Q165 485 150.5 479.5Q136 474 124 466Q112 458 102 448.5Q92 439 86 431L34 484Q44 499 58 513.5Q72 528 90 539.5Q108 551 130.5 558.5Q153 566 179 566ZM179 358Q219 358 249.5 347Q280 336 307.5 323.5Q335 311 361.5 300Q388 289 419 289Q435 289 449.5 294.5Q464 300 476 308Q488 316 498 325Q508 334 514 342L566 290Q556 275 542 260.5Q528 246 510 234Q492 222 469.5 214.5Q447 207 421 207Q381 207 350.5 218Q320 229 292.5 241.5Q265 254 238.5 265Q212 276 181 276Q165 276 150.5 270.5Q136 265 124 257Q112 249 102 240Q92 231 86 223L34 275Q44 290 58 304.5Q72 319 90 331Q108 343 130.5 350.5Q153 358 179 358Z" glyph-name="approxequal" horiz-adv-x="600" unicode="&#8776;" /><glyph d="M209 694Q209 671 224.5 655Q240 639 263 639Q286 639 301.5 655Q317 671 317 694Q317 716 301.5 732Q286 748 263 748Q240 748 224.5 732Q209 716 209 694ZM165 694Q165 735 193.5 763.5Q222 792 263 792Q304 792 332.5 763.5Q361 735 361 694Q361 652 332.5 623.5Q304 595 263 595Q222 595 193.5 623.5Q165 652 165 694ZM228 72Q258 72 280.5 79Q303 86 320 96.5Q337 107 348 119Q359 131 366 141V270L234 248Q139 233 139 158V150Q139 120 160 96Q181 72 228 72ZM376 68Q349 34 305 11Q261 -12 196 -12Q157 -12 127.5 -0.5Q98 11 78.5 31Q59 51 49.5 78.5Q40 106 40 138V148Q40 191 54.5 220Q69 249 94 268Q119 287 151 297Q183 307 219 312L366 335V343Q366 403 343.5 432.5Q321 462 260 462Q228 462 207.5 453.5Q187 445 175.5 430Q164 415 159.5 395.5Q155 376 155 355H60V364Q60 395 69 427Q78 459 100.5 484.5Q123 510 162.5 526Q202 542 263 542Q321 542 360 528Q399 514 422.5 487.5Q446 461 456 424.5Q466 388 466 343V150L473 0H386Z" glyph-name="aring" horiz-adv-x="525" unicode="&#229;" /><glyph d="M70 509 414 165V780H506V165L850 509V378L460 -12L70 378Z" glyph-name="arrowdown" horiz-adv-x="920" unicode="&#8595;" /><glyph d="M579 780 235 436H850V344H235L579 0H448L58 390L448 780Z" glyph-name="arrowleft" horiz-adv-x="920" unicode="&#8592;" /><glyph d="M472 780 862 390 472 0H341L685 344H70V436H685L341 780Z" glyph-name="arrowright" horiz-adv-x="920" unicode="&#8594;" /><glyph d="M70 402 460 792 850 402V271L506 615V0H414V615L70 271Z" glyph-name="arrowup" horiz-adv-x="920" unicode="&#8593;" /><glyph d="M575 271H473L300 676L127 271H25L250 780H350Z" glyph-name="asciicircum" horiz-adv-x="600" unicode="^" /><glyph d="M179 462Q219 462 249.5 451Q280 440 307.5 427.5Q335 415 361.5 404Q388 393 419 393Q435 393 449.5 398.5Q464 404 476 412Q488 420 498 429Q508 438 514 446L566 394Q556 379 542 364.5Q528 350 510 338.5Q492 327 469.5 319.5Q447 312 421 312Q381 312 350.5 323Q320 334 292.5 346.5Q265 359 238.5 370Q212 381 181 381Q165 381 150.5 375.5Q136 370 124 362Q112 354 102 344.5Q92 335 86 327L34 380Q44 394 58 408.5Q72 423 90 435Q108 447 130.5 454.5Q153 462 179 462Z" glyph-name="asciitilde" horiz-adv-x="600" unicode="~" /><glyph d="M283 438 204 556 249 588 336 477ZM389 638 252 599 235 652 368 701ZM61 477 148 588 193 556 114 438ZM29 701 162 652 145 599 8 638ZM231 800 226 659H171L166 800Z" glyph-name="asterisk" horiz-adv-x="397" unicode="*" /><glyph d="M585 391Q578 402 567.5 414Q557 426 542.5 436.5Q528 447 510 453.5Q492 460 470 460Q407 460 378 417.5Q349 375 349 308V282Q349 215 378 172.5Q407 130 470 130Q492 130 510 136.5Q528 143 542.5 153.5Q557 164 567.5 176Q578 188 585 199ZM512 -140Q603 -140 684.5 -114.5Q766 -89 841 -34L883 -90Q836 -127 788 -151Q740 -175 693 -188.5Q646 -202 599.5 -207Q553 -212 509 -212Q404 -212 316 -179.5Q228 -147 164.5 -85.5Q101 -24 66 65.5Q31 155 31 270V310Q31 425 66 514.5Q101 604 163.5 665.5Q226 727 313 759.5Q400 792 504 792Q592 792 671.5 768.5Q751 745 811 695.5Q871 646 906 570.5Q941 495 941 392V362Q941 272 920.5 213.5Q900 155 864 121Q828 87 778.5 73.5Q729 60 671 60H605L594 128Q573 94 537 71Q501 48 445 48Q395 48 358.5 66.5Q322 85 298.5 117Q275 149 264 191.5Q253 234 253 282V308Q253 356 264 398.5Q275 441 298.5 473Q322 505 358.5 523.5Q395 542 445 542Q501 542 537 518.5Q573 495 594 461L605 530H684L676 387V131Q721 132 756 142Q791 152 815 177.5Q839 203 851.5 247.5Q864 292 864 362V392Q864 483 834 545.5Q804 608 754 647Q704 686 639.5 703Q575 720 507 720H501Q414 720 341 693Q268 666 215.5 613.5Q163 561 134 485Q105 409 105 310V270Q105 169 134.5 92.5Q164 16 217 -36Q270 -88 343.5 -114Q417 -140 506 -140Z" glyph-name="at" horiz-adv-x="971" unicode="@" /><glyph d="M585 491Q578 502 567.5 514Q557 526 542.5 536.5Q528 547 510 553.5Q492 560 470 560Q407 560 378 517.5Q349 475 349 408V382Q349 315 378 272.5Q407 230 470 230Q492 230 510 236.5Q528 243 542.5 253.5Q557 264 567.5 276Q578 288 585 299ZM512 -40Q603 -40 684.5 -14.5Q766 11 841 66L883 10Q836 -27 788 -51Q740 -75 693 -88.5Q646 -102 599.5 -107Q553 -112 509 -112Q404 -112 316 -79.5Q228 -47 164.5 14.5Q101 76 66 165.5Q31 255 31 370V410Q31 525 66 614.5Q101 704 163.5 765.5Q226 827 313 859.5Q400 892 504 892Q592 892 671.5 868.5Q751 845 811 795.5Q871 746 906 670.5Q941 595 941 492V462Q941 372 920.5 313.5Q900 255 864 221Q828 187 778.5 173.5Q729 160 671 160H605L594 228Q573 194 537 171Q501 148 445 148Q395 148 358.5 166.5Q322 185 298.5 217Q275 249 264 291.5Q253 334 253 382V408Q253 456 264 498.5Q275 541 298.5 573Q322 605 358.5 623.5Q395 642 445 642Q501 642 537 618.5Q573 595 594 561L605 630H684L676 487V231Q721 232 756 242Q791 252 815 277.5Q839 303 851.5 347.5Q864 392 864 462V492Q864 583 834 645.5Q804 708 754 747Q704 786 639.5 803Q575 820 507 820H501Q414 820 341 793Q268 766 215.5 713.5Q163 661 134 585Q105 509 105 410V370Q105 269 134.5 192.5Q164 116 217 64Q270 12 343.5 -14Q417 -40 506 -40Z" glyph-name="at.cap" horiz-adv-x="971" unicode="&#58643;" /><glyph d="M435 755Q435 690 409 661Q383 632 344 632Q320 632 300 640.5Q280 649 262 659Q244 669 228.5 677.5Q213 686 198 686Q184 686 174 677Q164 668 164 645H91Q91 710 117 739Q143 768 182 768Q206 768 226 759.5Q246 751 264 741Q282 731 297.5 722.5Q313 714 328 714Q342 714 352 723Q362 732 362 755ZM228 72Q258 72 280.5 79Q303 86 320 96.5Q337 107 348 119Q359 131 366 141V270L234 248Q139 233 139 158V150Q139 120 160 96Q181 72 228 72ZM376 68Q349 34 305 11Q261 -12 196 -12Q157 -12 127.5 -0.5Q98 11 78.5 31Q59 51 49.5 78.5Q40 106 40 138V148Q40 191 54.5 220Q69 249 94 268Q119 287 151 297Q183 307 219 312L366 335V343Q366 403 343.5 432.5Q321 462 260 462Q228 462 207.5 453.5Q187 445 175.5 430Q164 415 159.5 395.5Q155 376 155 355H60V364Q60 395 69 427Q78 459 100.5 484.5Q123 510 162.5 526Q202 542 263 542Q321 542 360 528Q399 514 422.5 487.5Q446 461 456 424.5Q466 388 466 343V150L473 0H386Z" glyph-name="atilde" horiz-adv-x="525" unicode="&#227;" /><glyph d="M161 147Q168 136 178.5 123.5Q189 111 204 100.5Q219 90 238 83Q257 76 281 76Q347 76 377 123Q407 170 407 251V279Q407 360 377 407Q347 454 281 454Q257 454 238 447Q219 440 204 429.5Q189 419 178.5 406.5Q168 394 161 383ZM161 474Q183 503 218 522.5Q253 542 307 542Q361 542 399.5 522Q438 502 462 466.5Q486 431 497 383Q508 335 508 279V251Q508 195 497 147Q486 99 462 63.5Q438 28 399.5 8Q361 -12 307 -12Q247 -12 209.5 11Q172 34 151 69L141 0H54L61 150V800H161Z" glyph-name="b" horiz-adv-x="550" unicode="b" /><glyph d="M15 840H115L345 -120H245Z" glyph-name="backslash" horiz-adv-x="359" unicode="\" /><glyph d="M125 780 317 0H217L25 780Z" glyph-name="backslash.cap" horiz-adv-x="343" unicode="&#58466;" /><glyph d="M219 215 269 265 219 315 285 381 335 331 385 381 451 315 401 265 451 215 385 149 335 199 285 149ZM161 439V91H509V439ZM600 530V0H70V530Z" glyph-name="ballotboxwithx" horiz-adv-x="680" unicode="&#9746;" /><glyph d="M61 840H161V-120H61Z" glyph-name="bar" horiz-adv-x="223" unicode="|" /><glyph d="M61 780H161V0H61Z" glyph-name="bar.cap" horiz-adv-x="223" unicode="&#58467;" /><glyph d="M160 854H62V936H160ZM161 147Q168 136 178.5 123.5Q189 111 204 100.5Q219 90 238 83Q257 76 281 76Q347 76 377 123Q407 170 407 251V279Q407 360 377 407Q347 454 281 454Q257 454 238 447Q219 440 204 429.5Q189 419 178.5 406.5Q168 394 161 383ZM161 474Q183 503 218 522.5Q253 542 307 542Q361 542 399.5 522Q438 502 462 466.5Q486 431 497 383Q508 335 508 279V251Q508 195 497 147Q486 99 462 63.5Q438 28 399.5 8Q361 -12 307 -12Q247 -12 209.5 11Q172 34 151 69L141 0H54L61 150V800H161Z" glyph-name="bdotaccent" horiz-adv-x="550" unicode="&#7683;" /><glyph d="M58 390Q58 473 89.5 546.5Q121 620 175.5 674.5Q230 729 303.5 760.5Q377 792 460 792Q543 792 616.5 760.5Q690 729 744.5 674.5Q799 620 830.5 546.5Q862 473 862 390Q862 307 830.5 233.5Q799 160 744.5 105.5Q690 51 616.5 19.5Q543 -12 460 -12Q377 -12 303.5 19.5Q230 51 175.5 105.5Q121 160 89.5 233.5Q58 307 58 390Z" glyph-name="blackcircle" horiz-adv-x="920" unicode="&#9679;" /><glyph d="M70 0V530H600V0Z" glyph-name="blacksmallsquare" horiz-adv-x="680" unicode="&#9642;" /><glyph d="M70 0V780H850V0Z" glyph-name="blacksquare" horiz-adv-x="920" unicode="&#9632;" /><glyph d="M296 749Q253 749 230.5 728.5Q208 708 208 652V467Q208 425 193 399.5Q178 374 152 360Q178 346 193 320.5Q208 295 208 253V68Q208 12 230.5 -8.5Q253 -29 296 -29V-120H274Q240 -120 209.5 -112.5Q179 -105 156 -87.5Q133 -70 119.5 -40.5Q106 -11 106 33V229Q106 279 86 296.5Q66 314 25 314V406Q66 406 86 423.5Q106 441 106 491V687Q106 731 119.5 760.5Q133 790 156 807.5Q179 825 209.5 832.5Q240 840 274 840H296Z" glyph-name="braceleft" horiz-adv-x="334" unicode="{" /><glyph d="M296 689Q253 689 230.5 668.5Q208 648 208 592V497Q208 455 193 429.5Q178 404 152 390Q178 376 193 350.5Q208 325 208 283V177Q210 127 232.5 109Q255 91 296 91V0H274Q240 0 209.5 7.5Q179 15 156 32.5Q133 50 119.5 79.5Q106 109 106 153V259Q106 309 86 326.5Q66 344 25 344V436Q66 436 86 453.5Q106 471 106 521V627Q106 671 119.5 700.5Q133 730 156 747.5Q179 765 209.5 772.5Q240 780 274 780H296Z" glyph-name="braceleft.cap" horiz-adv-x="334" unicode="&#58517;" /><glyph d="M39 -29Q81 -29 103.5 -8.5Q126 12 126 68V253Q126 295 141 320.5Q156 346 182 360Q156 374 141 399.5Q126 425 126 467V652Q126 708 103.5 728.5Q81 749 39 749V840H60Q94 840 124.5 832.5Q155 825 178 807.5Q201 790 214.5 760.5Q228 731 228 687V491Q228 441 248 423.5Q268 406 310 406V314Q268 314 248 296.5Q228 279 228 229V33Q228 -11 214.5 -40.5Q201 -70 178 -87.5Q155 -105 124.5 -112.5Q94 -120 60 -120H39Z" glyph-name="braceright" horiz-adv-x="334" unicode="}" /><glyph d="M39 780H60Q94 780 124.5 772.5Q155 765 178 747.5Q201 730 214.5 700.5Q228 671 228 627V521Q228 471 248 453.5Q268 436 310 436V344Q268 344 248 326.5Q228 309 228 259V153Q228 109 214.5 79.5Q201 50 178 32.5Q155 15 124.5 7.5Q94 0 60 0H39V91Q79 91 101.5 109Q124 127 126 177V283Q126 325 141 350.5Q156 376 182 390Q156 404 141 429.5Q126 455 126 497V592Q126 648 103.5 668.5Q81 689 39 689Z" glyph-name="braceright.cap" horiz-adv-x="334" unicode="&#58518;" /><glyph d="M296 840V749H165V-29H296V-120H64V840Z" glyph-name="bracketleft" horiz-adv-x="334" unicode="[" /><glyph d="M296 780V689H165V91H296V0H64V780Z" glyph-name="bracketleft.cap" horiz-adv-x="334" unicode="&#58515;" /><glyph d="M39 -120V-29H169V749H39V840H271V-120Z" glyph-name="bracketright" horiz-adv-x="334" unicode="]" /><glyph d="M39 0V91H169V689H39V780H271V0Z" glyph-name="bracketright.cap" horiz-adv-x="334" unicode="&#58516;" /><glyph d="M250 595Q204 595 171.5 609Q139 623 118.5 647.5Q98 672 88.5 706Q79 740 80 780H157Q157 730 179.5 703Q202 676 250 676Q298 676 320.5 703Q343 730 343 780H420Q421 740 411.5 706Q402 672 381.5 647.5Q361 623 328.5 609Q296 595 250 595Z" glyph-name="breve" horiz-adv-x="500" unicode="&#728;" /><glyph d="M250 827Q205 827 174.5 836.5Q144 846 125.5 862.5Q107 879 99 901.5Q91 924 91 950H166Q166 922 185.5 906Q205 890 250 890Q295 890 314.5 906Q334 922 334 950H409Q409 924 401 901.5Q393 879 374.5 862.5Q356 846 325.5 836.5Q295 827 250 827Z" glyph-name="breve.cap" horiz-adv-x="500" unicode="&#58406;" /><glyph d="M61 329H161V-120H61ZM61 840H161V391H61Z" glyph-name="brokenbar" horiz-adv-x="223" unicode="&#166;" /><glyph d="M61 359H161V0H61ZM61 780H161V421H61Z" glyph-name="brokenbar.cap" horiz-adv-x="223" unicode="&#58469;" /><glyph d="M348 209H66V491H348Z" glyph-name="bullet" horiz-adv-x="414" unicode="&#8226;" /><glyph d="M348 249H66V531H348Z" glyph-name="bullet.cap" horiz-adv-x="414" unicode="&#58470;" /><glyph d="M143 251Q143 171 173.5 123.5Q204 76 272 76Q303 76 324.5 85Q346 94 359.5 109.5Q373 125 379.5 145Q386 165 386 188H482V170Q482 135 469.5 102.5Q457 70 431.5 44.5Q406 19 365.5 3.5Q325 -12 270 -12Q210 -12 167 8Q124 28 96.5 63.5Q69 99 55.5 147Q42 195 42 251V279Q42 335 55.5 383Q69 431 96.5 466.5Q124 502 167 522Q210 542 270 542Q325 542 365.5 526Q406 510 431.5 484Q457 458 469.5 423.5Q482 389 482 353V332H386Q386 386 359 420Q332 454 272 454Q204 454 173.5 406.5Q143 359 143 279Z" glyph-name="c" horiz-adv-x="523" unicode="c" /><glyph d="M420 780 321 607H219L310 780ZM143 251Q143 171 173.5 123.5Q204 76 272 76Q303 76 324.5 85Q346 94 359.5 109.5Q373 125 379.5 145Q386 165 386 188H482V170Q482 135 469.5 102.5Q457 70 431.5 44.5Q406 19 365.5 3.5Q325 -12 270 -12Q210 -12 167 8Q124 28 96.5 63.5Q69 99 55.5 147Q42 195 42 251V279Q42 335 55.5 383Q69 431 96.5 466.5Q124 502 167 522Q210 542 270 542Q325 542 365.5 526Q406 510 431.5 484Q457 458 469.5 423.5Q482 389 482 353V332H386Q386 386 359 420Q332 454 272 454Q204 454 173.5 406.5Q143 359 143 279Z" glyph-name="cacute" horiz-adv-x="523" unicode="&#263;" /><glyph d="M165 780 250 678 335 780H429L297 607H203L71 780Z" glyph-name="caron" horiz-adv-x="500" unicode="&#711;" /><glyph d="M184 950 250 892 316 950H412L299 840H201L88 950Z" glyph-name="caron.cap" horiz-adv-x="500" unicode="&#58413;" /><glyph d="M390 800 369 607H317V800Z" glyph-name="caronSlovak" horiz-adv-x="500" unicode="&#58387;" /><glyph d="M185 780 270 678 355 780H449L317 607H223L91 780ZM143 251Q143 171 173.5 123.5Q204 76 272 76Q303 76 324.5 85Q346 94 359.5 109.5Q373 125 379.5 145Q386 165 386 188H482V170Q482 135 469.5 102.5Q457 70 431.5 44.5Q406 19 365.5 3.5Q325 -12 270 -12Q210 -12 167 8Q124 28 96.5 63.5Q69 99 55.5 147Q42 195 42 251V279Q42 335 55.5 383Q69 431 96.5 466.5Q124 502 167 522Q210 542 270 542Q325 542 365.5 526Q406 510 431.5 484Q457 458 469.5 423.5Q482 389 482 353V332H386Q386 386 359 420Q332 454 272 454Q204 454 173.5 406.5Q143 359 143 279Z" glyph-name="ccaron" horiz-adv-x="523" unicode="&#269;" /><glyph d="M198 -139Q210 -146 229 -150.5Q248 -155 268 -155Q322 -155 322 -126Q322 -111 307 -105Q292 -99 265 -99Q259 -99 253.5 -99.5Q248 -100 243 -101Q238 -102 233 -102L216 -77L241 -10Q189 -6 151.5 16Q114 38 89.5 72.5Q65 107 53.5 152.5Q42 198 42 251V279Q42 335 55.5 383Q69 431 96.5 466.5Q124 502 167 522Q210 542 270 542Q325 542 365.5 526Q406 510 431.5 484Q457 458 469.5 423.5Q482 389 482 353V332H386Q386 386 359 420Q332 454 272 454Q204 454 173.5 406.5Q143 359 143 279V251Q143 171 173.5 123.5Q204 76 272 76Q303 76 324.5 85Q346 94 359.5 109.5Q373 125 379.5 145Q386 165 386 188H482V170Q482 137 471.5 106.5Q461 76 438.5 51Q416 26 381.5 9.5Q347 -7 299 -11L284 -50Q304 -50 322.5 -55Q341 -60 355 -69.5Q369 -79 377.5 -94.5Q386 -110 386 -131Q386 -173 357 -193Q328 -213 277 -213Q246 -213 220 -206.5Q194 -200 180 -191Z" glyph-name="ccedilla" horiz-adv-x="523" unicode="&#231;" /><glyph d="M91 607 223 780H317L449 607H355L270 709L185 607ZM143 251Q143 171 173.5 123.5Q204 76 272 76Q303 76 324.5 85Q346 94 359.5 109.5Q373 125 379.5 145Q386 165 386 188H482V170Q482 135 469.5 102.5Q457 70 431.5 44.5Q406 19 365.5 3.5Q325 -12 270 -12Q210 -12 167 8Q124 28 96.5 63.5Q69 99 55.5 147Q42 195 42 251V279Q42 335 55.5 383Q69 431 96.5 466.5Q124 502 167 522Q210 542 270 542Q325 542 365.5 526Q406 510 431.5 484Q457 458 469.5 423.5Q482 389 482 353V332H386Q386 386 359 420Q332 454 272 454Q204 454 173.5 406.5Q143 359 143 279Z" glyph-name="ccircumflex" horiz-adv-x="523" unicode="&#265;" /><glyph d="M328 639H212V754H328ZM143 251Q143 171 173.5 123.5Q204 76 272 76Q303 76 324.5 85Q346 94 359.5 109.5Q373 125 379.5 145Q386 165 386 188H482V170Q482 135 469.5 102.5Q457 70 431.5 44.5Q406 19 365.5 3.5Q325 -12 270 -12Q210 -12 167 8Q124 28 96.5 63.5Q69 99 55.5 147Q42 195 42 251V279Q42 335 55.5 383Q69 431 96.5 466.5Q124 502 167 522Q210 542 270 542Q325 542 365.5 526Q406 510 431.5 484Q457 458 469.5 423.5Q482 389 482 353V332H386Q386 386 359 420Q332 454 272 454Q204 454 173.5 406.5Q143 359 143 279Z" glyph-name="cdotaccent" horiz-adv-x="523" unicode="&#267;" /><glyph d="M174 -139Q186 -146 205 -150.5Q224 -155 244 -155Q298 -155 298 -126Q298 -111 283 -105Q268 -99 241 -99Q235 -99 229.5 -99.5Q224 -100 219 -101Q214 -102 209 -102L192 -77L221 0H279L260 -50Q280 -50 298.5 -55Q317 -60 331 -69.5Q345 -79 353.5 -94.5Q362 -110 362 -131Q362 -173 333 -193Q304 -213 253 -213Q222 -213 196 -206.5Q170 -200 156 -191Z" glyph-name="cedilla" horiz-adv-x="602" unicode="&#184;" /><glyph d="M158 375Q158 245 206 188L313 637H311Q232 637 195 579Q158 521 158 406ZM414 713Q482 690 514 634.5Q546 579 546 499V473H445Q445 527 432.5 563Q420 599 391 618L278 148Q293 145 311 145H315Q385 145 415 184Q445 223 445 287H546V272Q546 171 489 112Q432 53 311 53Q280 53 257 57L229 -60H147L181 82Q116 116 85 189.5Q54 263 54 375V406Q54 564 117 646.5Q180 729 311 729Q317 729 323 729Q329 729 335 728L362 840H444Z" glyph-name="cent" horiz-adv-x="600" unicode="&#162;" /><glyph d="M71 607 203 780H297L429 607H335L250 709L165 607Z" glyph-name="circumflex" horiz-adv-x="500" unicode="&#710;" /><glyph d="M88 840 201 950H299L412 840H316L250 897L184 840Z" glyph-name="circumflex.cap" horiz-adv-x="500" unicode="&#58403;" /><glyph d="M349 0Q368 37 381.5 73Q395 109 404.5 147Q414 185 420.5 227Q427 269 431 320L428 321Q415 290 396 261Q377 232 352 209.5Q327 187 296 173.5Q265 160 228 160Q191 160 159 173.5Q127 187 103 210.5Q79 234 65.5 265.5Q52 297 52 334Q52 373 64.5 406Q77 439 100 463Q123 487 155 500.5Q187 514 226 514Q252 514 272.5 507Q293 500 310 491L312 493Q295 518 284.5 547.5Q274 577 274 610Q274 647 287.5 680Q301 713 324.5 737.5Q348 762 380 776Q412 790 450 790Q488 790 520 776Q552 762 575.5 737.5Q599 713 612.5 680Q626 647 626 610Q626 577 615.5 547.5Q605 518 588 493L590 491Q607 500 627.5 507Q648 514 674 514Q713 514 745 500.5Q777 487 800 463Q823 439 835.5 406Q848 373 848 334Q848 297 834.5 265.5Q821 234 797 210.5Q773 187 741 173.5Q709 160 672 160Q635 160 604 173.5Q573 187 548 209.5Q523 232 504 261Q485 290 472 321L469 320Q473 269 479.5 227Q486 185 495.5 147Q505 109 518.5 73Q532 37 551 0Z" glyph-name="club" horiz-adv-x="900" unicode="&#9827;" /><glyph d="M174 333H60V447H174ZM174 0H60V114H174Z" glyph-name="colon" horiz-adv-x="234" unicode=":" /><glyph d="M207 333H93V447H207ZM207 0H93V114H207Z" glyph-name="colon.T" horiz-adv-x="300" unicode="&#61828;" /><glyph d="M174 24Q174 -127 42 -127V-71Q76 -71 94.5 -54.5Q113 -38 118 0H60V114H174Z" glyph-name="comma" horiz-adv-x="234" unicode="," /><glyph d="M207 24Q207 -127 75 -127V-71Q109 -71 127.5 -54.5Q146 -38 151 0H93V114H207Z" glyph-name="comma.T" horiz-adv-x="300" unicode="&#61827;" /><glyph d="M301 -105Q301 -219 181 -219V-176Q210 -176 229.5 -165.5Q249 -155 256 -129H199V-51H301Z" glyph-name="commaaccent" horiz-adv-x="602" unicode="&#58388;" /><glyph d="M201 876Q201 916 226.5 940Q252 964 308 964V930Q282 930 267 924Q252 918 247 900H299V840H201Z" glyph-name="commaaccent.cap" horiz-adv-x="500" unicode="&#58414;" /><glyph d="M462 226Q492 226 512 234.5Q532 243 544.5 256Q557 269 562 285Q567 301 567 317H656V301Q656 274 645 245.5Q634 217 610.5 194.5Q587 172 550 157.5Q513 143 460 143Q403 143 363 163Q323 183 297.5 215.5Q272 248 260.5 290Q249 332 249 377V403Q249 448 260.5 490Q272 532 297.5 564.5Q323 597 363 617Q403 637 460 637Q513 637 550 622Q587 607 610.5 583.5Q634 560 645 530.5Q656 501 656 472V454H567Q567 473 561.5 491.5Q556 510 543.5 523.5Q531 537 511 545.5Q491 554 462 554Q429 554 406.5 541.5Q384 529 370 508Q356 487 349.5 459.5Q343 432 343 403V377Q343 348 349.5 320.5Q356 293 370 272Q384 251 406.5 238.5Q429 226 462 226ZM106 390Q106 316 133.5 251.5Q161 187 209 139Q257 91 321.5 63.5Q386 36 460 36Q533 36 597.5 63.5Q662 91 710 139Q758 187 786 251.5Q814 316 814 390Q814 463 786 527.5Q758 592 710 640Q662 688 597.5 716Q533 744 460 744Q386 744 321.5 716Q257 688 209 640Q161 592 133.5 527.5Q106 463 106 390ZM58 390Q58 473 89.5 546.5Q121 620 175.5 674.5Q230 729 303.5 760.5Q377 792 460 792Q543 792 616.5 760.5Q690 729 744.5 674.5Q799 620 830.5 546.5Q862 473 862 390Q862 307 830.5 233.5Q799 160 744.5 105.5Q690 51 616.5 19.5Q543 -12 460 -12Q377 -12 303.5 19.5Q230 51 175.5 105.5Q121 160 89.5 233.5Q58 307 58 390Z" glyph-name="copyright" horiz-adv-x="920" unicode="&#169;" /><glyph d="M392 383Q385 394 374.5 406.5Q364 419 349.5 429.5Q335 440 316 447Q297 454 273 454Q207 454 177 407Q147 360 147 279V251Q147 170 177 123Q207 76 273 76Q297 76 316 83Q335 90 349.5 100.5Q364 111 374.5 123.5Q385 136 392 147ZM247 542Q299 542 334 523Q369 504 392 475V800H493V150L500 0H413L402 69Q380 34 343 11Q306 -12 247 -12Q193 -12 154.5 8Q116 28 92 63.5Q68 99 57 147Q46 195 46 251V279Q46 335 57 383Q68 431 92 466.5Q116 502 154.5 522Q193 542 247 542Z" glyph-name="d" horiz-adv-x="554" unicode="d" /><glyph d="M22 651 158 646V590L22 585ZM375 585 239 590V646L375 651ZM231 800 226 659H171L166 800ZM171 577H226L231 450L226 323H171L166 450Z" glyph-name="dagger" horiz-adv-x="397" unicode="&#8224;" /><glyph d="M375 585 239 590V646L375 651ZM22 428 158 423V367L22 362ZM22 651 158 646V590L22 585ZM375 362 239 367V423L375 428ZM171 577H226L231 506L226 436H171L166 506ZM231 800 226 659H171L166 800ZM171 354H226L231 227L226 100H171L166 227Z" glyph-name="daggerdbl" horiz-adv-x="397" unicode="&#8225;" /><glyph d="M633 800 612 607H560V800ZM392 383Q385 394 374.5 406.5Q364 419 349.5 429.5Q335 440 316 447Q297 454 273 454Q207 454 177 407Q147 360 147 279V251Q147 170 177 123Q207 76 273 76Q297 76 316 83Q335 90 349.5 100.5Q364 111 374.5 123.5Q385 136 392 147ZM247 542Q299 542 334 523Q369 504 392 475V800H493V150L500 0H413L402 69Q380 34 343 11Q306 -12 247 -12Q193 -12 154.5 8Q116 28 92 63.5Q68 99 57 147Q46 195 46 251V279Q46 335 57 383Q68 431 92 466.5Q116 502 154.5 522Q193 542 247 542Z" glyph-name="dcaron" horiz-adv-x="554" unicode="&#271;" /><glyph d="M392 383Q385 394 374.5 406.5Q364 419 349.5 429.5Q335 440 316 447Q297 454 273 454Q207 454 177 407Q147 360 147 279V251Q147 170 177 123Q207 76 273 76Q297 76 316 83Q335 90 349.5 100.5Q364 111 374.5 123.5Q385 136 392 147ZM576 627H493V150L500 0H413L402 69Q380 34 343 11Q306 -12 247 -12Q193 -12 154.5 8Q116 28 92 63.5Q68 99 57 147Q46 195 46 251V279Q46 335 57 383Q68 431 92 466.5Q116 502 154.5 522Q193 542 247 542Q299 542 334 523Q369 504 392 475V627H266V703H392V800H493V703H576Z" glyph-name="dcroat" horiz-adv-x="554" unicode="&#273;" /><glyph d="M492 854H394V936H492ZM392 383Q385 394 374.5 406.5Q364 419 349.5 429.5Q335 440 316 447Q297 454 273 454Q207 454 177 407Q147 360 147 279V251Q147 170 177 123Q207 76 273 76Q297 76 316 83Q335 90 349.5 100.5Q364 111 374.5 123.5Q385 136 392 147ZM247 542Q299 542 334 523Q369 504 392 475V800H493V150L500 0H413L402 69Q380 34 343 11Q306 -12 247 -12Q193 -12 154.5 8Q116 28 92 63.5Q68 99 57 147Q46 195 46 251V279Q46 335 57 383Q68 431 92 466.5Q116 502 154.5 522Q193 542 247 542Z" glyph-name="ddotaccent" horiz-adv-x="554" unicode="&#7691;" /><glyph d="M356 632Q356 596 344 567.5Q332 539 311 519Q290 499 261.5 488.5Q233 478 200 478Q167 478 138.5 488.5Q110 499 89 519Q68 539 56 567.5Q44 596 44 632V637Q44 673 56 701.5Q68 730 89 750.5Q110 771 138.5 781.5Q167 792 200 792Q233 792 261.5 781.5Q290 771 311 750.5Q332 730 344 701.5Q356 673 356 637ZM288 638Q288 678 263 700.5Q238 723 203 723H197Q162 723 137 700.5Q112 678 112 638V631Q112 592 137 569Q162 546 197 546H203Q238 546 263 569Q288 592 288 631Z" glyph-name="degree" horiz-adv-x="400" unicode="&#176;" /><glyph d="M817 390Q764 348 712.5 300.5Q661 253 614 201.5Q567 150 525.5 96.5Q484 43 451 -10H449Q416 43 374.5 96.5Q333 150 286 201.5Q239 253 187.5 300.5Q136 348 83 390Q136 432 187.5 479.5Q239 527 286 578.5Q333 630 374.5 683.5Q416 737 449 790H451Q484 737 525.5 683.5Q567 630 614 578.5Q661 527 712.5 479.5Q764 432 817 390Z" glyph-name="diamond" horiz-adv-x="900" unicode="&#9830;" /><glyph d="M400 639H284V754H400ZM216 639H100V754H216Z" glyph-name="dieresis" horiz-adv-x="500" unicode="&#168;" /><glyph d="M381 854H282V936H381ZM218 854H119V936H218Z" glyph-name="dieresis.cap" horiz-adv-x="500" unicode="&#58409;" /><glyph d="M358 546H242V661H358ZM358 119H242V234H358ZM46 436H554V344H46Z" glyph-name="divide" horiz-adv-x="600" unicode="&#247;" /><glyph d="M167 541Q167 503 189.5 478.5Q212 454 270 443L317 641Q313 642 309 642Q305 642 301 642H297Q242 642 204.5 617Q167 592 167 546ZM308 138Q367 138 403.5 165Q440 192 440 242V247Q440 290 413.5 314Q387 338 330 349L280 139Q286 138 292 138Q298 138 304 138ZM417 710Q479 687 508.5 636Q538 585 538 510V495H436Q436 578 394 614L350 431Q447 416 496 375.5Q545 335 545 255V247Q545 156 483 104Q421 52 306 52Q294 52 282.5 52.5Q271 53 260 54L233 -60H150L182 73Q119 99 87.5 149.5Q56 200 56 270V276H158Q158 203 204 168L250 361Q151 377 107 419Q63 461 63 532V540Q63 584 80 619Q97 654 128 678.5Q159 703 203 716Q247 729 300 729Q310 729 319.5 728.5Q329 728 338 727L365 840H448Z" glyph-name="dollar" horiz-adv-x="600" unicode="$" /><glyph d="M308 639H192V754H308Z" glyph-name="dotaccent" horiz-adv-x="500" unicode="&#729;" /><glyph d="M299 854H201V936H299Z" glyph-name="dotaccent.cap" horiz-adv-x="500" unicode="&#58408;" /><glyph d="M301 -177H199V-74H301Z" glyph-name="dotbelow" horiz-adv-x="602" unicode="&#58389;" /><glyph d="M66 530H168V0H66Z" glyph-name="dotlessi" horiz-adv-x="234" unicode="&#305;" /><glyph d="M66 530H168V-39Q168 -87 155.5 -120Q143 -153 120 -173.5Q97 -194 65.5 -203Q34 -212 -3 -212Q-36 -212 -55.5 -207.5Q-75 -203 -81 -200V-115Q-76 -117 -59.5 -120Q-43 -123 -27 -123Q-5 -123 12.5 -119Q30 -115 42 -104.5Q54 -94 60 -75.5Q66 -57 66 -28Z" glyph-name="dotlessj" horiz-adv-x="234" unicode="&#567;" /><glyph d="M213 840H312V-120H213ZM61 840H161V-120H61Z" glyph-name="doublebar" horiz-adv-x="374" unicode="&#8214;" /><glyph d="M213 780H312V0H213ZM61 780H161V0H61Z" glyph-name="doublebar.cap" horiz-adv-x="374" unicode="&#58468;" /><glyph d="M134 780 225 607H140L41 780ZM283 780 361 607H276L189 780Z" glyph-name="doublegrave" horiz-adv-x="500" unicode="&#58386;" /><glyph d="M169 950 227 840H133L71 950ZM313 950 367 840H273L215 950Z" glyph-name="doublegrave.cap" horiz-adv-x="500" unicode="&#58412;" /><glyph d="M274 462Q209 462 177 420Q145 378 143 303H405Q402 378 370.5 420Q339 462 274 462ZM143 227Q146 149 179.5 108.5Q213 68 282 68Q315 68 339 77Q363 86 379 101Q395 116 402.5 134Q410 152 410 170H506V166Q506 133 492 101Q478 69 450 44Q422 19 380 3.5Q338 -12 281 -12Q219 -12 173.5 8.5Q128 29 99 64.5Q70 100 56 148.5Q42 197 42 253V277Q42 333 56 381.5Q70 430 99 465.5Q128 501 172 521.5Q216 542 276 542Q336 542 379 521.5Q422 501 450.5 465.5Q479 430 492.5 381.5Q506 333 506 277V227Z" glyph-name="e" horiz-adv-x="548" unicode="e" /><glyph d="M426 780 327 607H225L316 780ZM274 462Q209 462 177 420Q145 378 143 303H405Q402 378 370.5 420Q339 462 274 462ZM143 227Q146 149 179.5 108.5Q213 68 282 68Q315 68 339 77Q363 86 379 101Q395 116 402.5 134Q410 152 410 170H506V166Q506 133 492 101Q478 69 450 44Q422 19 380 3.5Q338 -12 281 -12Q219 -12 173.5 8.5Q128 29 99 64.5Q70 100 56 148.5Q42 197 42 253V277Q42 333 56 381.5Q70 430 99 465.5Q128 501 172 521.5Q216 542 276 542Q336 542 379 521.5Q422 501 450.5 465.5Q479 430 492.5 381.5Q506 333 506 277V227Z" glyph-name="eacute" horiz-adv-x="548" unicode="&#233;" /><glyph d="M274 462Q209 462 177 420Q145 378 143 303H405Q402 378 370.5 420Q339 462 274 462ZM276 595Q230 595 197.5 609Q165 623 144.5 647.5Q124 672 114.5 706Q105 740 106 780H183Q183 730 205.5 703Q228 676 276 676Q324 676 346.5 703Q369 730 369 780H446Q447 740 437.5 706Q428 672 407.5 647.5Q387 623 354.5 609Q322 595 276 595ZM143 227Q146 149 179.5 108.5Q213 68 282 68Q315 68 339 77Q363 86 379 101Q395 116 402.5 134Q410 152 410 170H506V166Q506 133 492 101Q478 69 450 44Q422 19 380 3.5Q338 -12 281 -12Q219 -12 173.5 8.5Q128 29 99 64.5Q70 100 56 148.5Q42 197 42 253V277Q42 333 56 381.5Q70 430 99 465.5Q128 501 172 521.5Q216 542 276 542Q336 542 379 521.5Q422 501 450.5 465.5Q479 430 492.5 381.5Q506 333 506 277V227Z" glyph-name="ebreve" horiz-adv-x="548" unicode="&#277;" /><glyph d="M191 780 276 678 361 780H455L323 607H229L97 780ZM274 462Q209 462 177 420Q145 378 143 303H405Q402 378 370.5 420Q339 462 274 462ZM143 227Q146 149 179.5 108.5Q213 68 282 68Q315 68 339 77Q363 86 379 101Q395 116 402.5 134Q410 152 410 170H506V166Q506 133 492 101Q478 69 450 44Q422 19 380 3.5Q338 -12 281 -12Q219 -12 173.5 8.5Q128 29 99 64.5Q70 100 56 148.5Q42 197 42 253V277Q42 333 56 381.5Q70 430 99 465.5Q128 501 172 521.5Q216 542 276 542Q336 542 379 521.5Q422 501 450.5 465.5Q479 430 492.5 381.5Q506 333 506 277V227Z" glyph-name="ecaron" horiz-adv-x="548" unicode="&#283;" /><glyph d="M97 607 229 780H323L455 607H361L276 709L191 607ZM274 462Q209 462 177 420Q145 378 143 303H405Q402 378 370.5 420Q339 462 274 462ZM143 227Q146 149 179.5 108.5Q213 68 282 68Q315 68 339 77Q363 86 379 101Q395 116 402.5 134Q410 152 410 170H506V166Q506 133 492 101Q478 69 450 44Q422 19 380 3.5Q338 -12 281 -12Q219 -12 173.5 8.5Q128 29 99 64.5Q70 100 56 148.5Q42 197 42 253V277Q42 333 56 381.5Q70 430 99 465.5Q128 501 172 521.5Q216 542 276 542Q336 542 379 521.5Q422 501 450.5 465.5Q479 430 492.5 381.5Q506 333 506 277V227Z" glyph-name="ecircumflex" horiz-adv-x="548" unicode="&#234;" /><glyph d="M242 639H126V754H242ZM426 639H310V754H426ZM274 462Q209 462 177 420Q145 378 143 303H405Q402 378 370.5 420Q339 462 274 462ZM143 227Q146 149 179.5 108.5Q213 68 282 68Q315 68 339 77Q363 86 379 101Q395 116 402.5 134Q410 152 410 170H506V166Q506 133 492 101Q478 69 450 44Q422 19 380 3.5Q338 -12 281 -12Q219 -12 173.5 8.5Q128 29 99 64.5Q70 100 56 148.5Q42 197 42 253V277Q42 333 56 381.5Q70 430 99 465.5Q128 501 172 521.5Q216 542 276 542Q336 542 379 521.5Q422 501 450.5 465.5Q479 430 492.5 381.5Q506 333 506 277V227Z" glyph-name="edieresis" horiz-adv-x="548" unicode="&#235;" /><glyph d="M334 639H218V754H334ZM274 462Q209 462 177 420Q145 378 143 303H405Q402 378 370.5 420Q339 462 274 462ZM143 227Q146 149 179.5 108.5Q213 68 282 68Q315 68 339 77Q363 86 379 101Q395 116 402.5 134Q410 152 410 170H506V166Q506 133 492 101Q478 69 450 44Q422 19 380 3.5Q338 -12 281 -12Q219 -12 173.5 8.5Q128 29 99 64.5Q70 100 56 148.5Q42 197 42 253V277Q42 333 56 381.5Q70 430 99 465.5Q128 501 172 521.5Q216 542 276 542Q336 542 379 521.5Q422 501 450.5 465.5Q479 430 492.5 381.5Q506 333 506 277V227Z" glyph-name="edotaccent" horiz-adv-x="548" unicode="&#279;" /><glyph d="M236 780 327 607H225L126 780ZM274 462Q209 462 177 420Q145 378 143 303H405Q402 378 370.5 420Q339 462 274 462ZM143 227Q146 149 179.5 108.5Q213 68 282 68Q315 68 339 77Q363 86 379 101Q395 116 402.5 134Q410 152 410 170H506V166Q506 133 492 101Q478 69 450 44Q422 19 380 3.5Q338 -12 281 -12Q219 -12 173.5 8.5Q128 29 99 64.5Q70 100 56 148.5Q42 197 42 253V277Q42 333 56 381.5Q70 430 99 465.5Q128 501 172 521.5Q216 542 276 542Q336 542 379 521.5Q422 501 450.5 465.5Q479 430 492.5 381.5Q506 333 506 277V227Z" glyph-name="egrave" horiz-adv-x="548" unicode="&#232;" /><glyph d="M295 701Q232 701 193.5 667Q155 633 155 575V566Q155 504 194 473.5Q233 443 292 443H308Q367 443 406 473.5Q445 504 445 566V575Q445 633 406.5 667Q368 701 305 701ZM288 353Q228 353 189 320.5Q150 288 150 222V209Q150 175 162 150.5Q174 126 194 110Q214 94 240 86.5Q266 79 295 79H305Q333 79 359.5 86.5Q386 94 406 110Q426 126 438 150.5Q450 175 450 209V222Q450 288 411 320.5Q372 353 312 353ZM300 -12Q240 -12 192.5 5Q145 22 113 51.5Q81 81 64 119.5Q47 158 47 201V218Q47 288 79 332Q111 376 161 398Q113 419 82.5 461Q52 503 52 570V587Q52 629 67 666Q82 703 112.5 731Q143 759 190 775.5Q237 792 300 792Q363 792 410 775.5Q457 759 487.5 731Q518 703 533 666Q548 629 548 587V570Q548 503 517.5 461Q487 419 439 398Q488 376 520.5 332Q553 288 553 218V201Q553 158 536 119.5Q519 81 487 51.5Q455 22 407.5 5Q360 -12 300 -12Z" glyph-name="eight" horiz-adv-x="600" unicode="8" /><glyph d="M147 123Q129 123 116.5 112Q104 101 104 82V78Q104 36 148 36H152Q195 36 195 78V82Q195 101 183 112Q171 123 152 123ZM146 -38Q126 -38 114 -48.5Q102 -59 102 -81V-87Q102 -112 116 -123Q130 -134 147 -134H152Q170 -134 184 -123Q198 -112 198 -87V-81Q198 -59 185.5 -48.5Q173 -38 153 -38ZM150 -207Q114 -207 89 -196.5Q64 -186 48 -169.5Q32 -153 25 -133.5Q18 -114 18 -96V-86Q18 -54 31 -33Q44 -12 64 0Q46 11 33.5 31.5Q21 52 21 83V92Q21 109 27.5 127.5Q34 146 49.5 161Q65 176 89.5 186Q114 196 150 196Q186 196 210.5 186Q235 176 250.5 161Q266 146 272.5 127.5Q279 109 279 92V83Q279 52 266 31.5Q253 11 235 0Q254 -12 267.5 -33Q281 -54 281 -86V-96Q281 -114 274 -133.5Q267 -153 251 -169.5Q235 -186 210.5 -196.5Q186 -207 150 -207Z" glyph-name="eight.inf" horiz-adv-x="300" unicode="&#58745;" /><glyph d="M1251 173Q1237 173 1224 166Q1211 159 1203 145V130Q1203 98 1216 82Q1229 66 1249 66H1252Q1271 66 1284.5 79Q1298 92 1298 115V125Q1298 151 1285.5 162Q1273 173 1254 173ZM33 390V463H118V677L59 637L17 698L139 780H202V463H286V390ZM333 390V463H418V677L359 637L317 698L439 780H502V463H586V390ZM833 0V73H918V287L859 247L817 308L939 390H1002V73H1086V0ZM1361 322Q1318 322 1288 311.5Q1258 301 1238 277Q1221 257 1214 229Q1225 237 1240 241.5Q1255 246 1272 246Q1322 246 1351.5 213.5Q1381 181 1381 123V118Q1381 60 1348.5 26.5Q1316 -7 1250 -7Q1186 -7 1152.5 32.5Q1119 72 1119 136V144Q1119 191 1130.5 236Q1142 281 1174 323Q1206 367 1253.5 381.5Q1301 396 1361 396ZM360 0 936 780H1040L464 0Z" glyph-name="elevensixteenths" horiz-adv-x="1400" unicode="&#61984;" /><glyph d="M557 0H443V114H557ZM880 0H766V114H880ZM234 0H120V114H234Z" glyph-name="ellipsis" horiz-adv-x="1000" unicode="&#8230;" /><glyph d="M148 739H404V648H148ZM274 462Q209 462 177 420Q145 378 143 303H405Q402 378 370.5 420Q339 462 274 462ZM143 227Q146 149 179.5 108.5Q213 68 282 68Q315 68 339 77Q363 86 379 101Q395 116 402.5 134Q410 152 410 170H506V166Q506 133 492 101Q478 69 450 44Q422 19 380 3.5Q338 -12 281 -12Q219 -12 173.5 8.5Q128 29 99 64.5Q70 100 56 148.5Q42 197 42 253V277Q42 333 56 381.5Q70 430 99 465.5Q128 501 172 521.5Q216 542 276 542Q336 542 379 521.5Q422 501 450.5 465.5Q479 430 492.5 381.5Q506 333 506 277V227Z" glyph-name="emacron" horiz-adv-x="548" unicode="&#275;" /><glyph d="M40 395H960V305H40Z" glyph-name="emdash" horiz-adv-x="1000" unicode="&#8212;" /><glyph d="M40 435H960V345H40Z" glyph-name="emdash.cap" horiz-adv-x="1000" unicode="&#58502;" /><glyph glyph-name="emspace" horiz-adv-x="1000" unicode="&#8195;" /><glyph d="M40 395H460V305H40Z" glyph-name="endash" horiz-adv-x="500" unicode="&#8211;" /><glyph d="M40 435H460V345H40Z" glyph-name="endash.cap" horiz-adv-x="500" unicode="&#58500;" /><glyph d="M389 351Q389 401 364 427.5Q339 454 290 454Q263 454 242 447Q221 440 205.5 429.5Q190 419 179.5 406.5Q169 394 162 383V0H62V380L55 530H141L152 457Q176 493 218.5 517.5Q261 542 327 542Q369 542 399.5 528.5Q430 515 450 491.5Q470 468 479.5 436Q489 404 489 367V-40Q489 -87 476.5 -120Q464 -153 441.5 -173.5Q419 -194 387.5 -203Q356 -212 319 -212Q286 -212 266.5 -207.5Q247 -203 241 -200V-116Q247 -118 263.5 -121Q280 -124 295 -124Q317 -124 334.5 -120Q352 -116 364 -105.5Q376 -95 382.5 -76.5Q389 -58 389 -29Z" glyph-name="eng" horiz-adv-x="545" unicode="&#331;" /><glyph glyph-name="enspace" horiz-adv-x="500" unicode="&#8194;" /><glyph d="M274 462Q209 462 177 420Q145 378 143 303H405Q402 378 370.5 420Q339 462 274 462ZM143 227Q146 149 179.5 108.5Q213 68 282 68Q315 68 339 77Q363 86 379 101Q395 116 402.5 134Q410 152 410 170H506V166Q506 140 497.5 114.5Q489 89 472 67Q455 45 429 27.5Q403 10 369 0Q336 -10 315 -34Q294 -58 294 -91Q294 -111 307 -123.5Q320 -136 345 -136Q362 -136 376.5 -132Q391 -128 400 -123L425 -191Q409 -201 383.5 -207Q358 -213 332 -213Q278 -213 245.5 -188.5Q213 -164 213 -111Q213 -80 223.5 -55Q234 -30 252 -10Q197 -6 157.5 16Q118 38 92.5 73.5Q67 109 54.5 154.5Q42 200 42 253V277Q42 333 56 381.5Q70 430 99 465.5Q128 501 172 521.5Q216 542 276 542Q336 542 379 521.5Q422 501 450.5 465.5Q479 430 492.5 381.5Q506 333 506 277V227Z" glyph-name="eogonek" horiz-adv-x="548" unicode="&#281;" /><glyph d="M46 332H554V239H46ZM46 541H554V448H46Z" glyph-name="equal" horiz-adv-x="600" unicode="=" /><glyph d="M21 -23H279V-96H21ZM21 86H279V12H21Z" glyph-name="equal.inf" horiz-adv-x="300" unicode="&#58749;" /><glyph d="M46 436H554V344H46ZM46 228H554V135H46ZM46 645H554V552H46Z" glyph-name="equivalence" horiz-adv-x="600" unicode="&#8801;" /><glyph d="M274 76Q342 76 373.5 123.5Q405 171 405 251V279Q405 359 373.5 406.5Q342 454 274 454Q206 454 174.5 406.5Q143 359 143 279V251Q143 171 174.5 123.5Q206 76 274 76ZM42 812Q110 807 172.5 792Q235 777 290 745L409 812V745L344 708Q357 697 369.5 685Q382 673 394 659Q428 620 449.5 572.5Q471 525 483.5 474.5Q496 424 501 373.5Q506 323 506 279V251Q506 195 492.5 147Q479 99 450.5 63.5Q422 28 378 8Q334 -12 274 -12Q214 -12 170 8Q126 28 97.5 63.5Q69 99 55.5 147Q42 195 42 251V279Q42 335 55.5 383Q69 431 96 466.5Q123 502 164.5 522Q206 542 262 542Q325 542 371 513Q350 563 315 601Q286 632 250 655L77 557V623L189 687Q155 701 118 708.5Q81 716 42 721Z" glyph-name="eth" horiz-adv-x="548" unicode="&#240;" /><glyph d="M174 0H60V114H174ZM179 780 152 203H82L55 780Z" glyph-name="exclam" horiz-adv-x="234" unicode="!" /><glyph d="M174 416H60V530H174ZM55 -200 82 327H152L179 -200Z" glyph-name="exclamdown" horiz-adv-x="234" unicode="&#161;" /><glyph d="M174 666H60V780H174ZM55 0 82 577H152L179 0Z" glyph-name="exclamdown.cap" horiz-adv-x="234" unicode="&#58433;" /><glyph d="M210 530H348V441H210V0H110V441H27V530H110V640Q110 687 122.5 720Q135 753 157.5 773.5Q180 794 211 803Q242 812 280 812Q313 812 332.5 807.5Q352 803 358 800V716Q352 718 335.5 721Q319 724 303 724Q280 724 263 720Q246 716 234 705.5Q222 695 216 676.5Q210 658 210 629Z" glyph-name="f" horiz-adv-x="391" unicode="f" /><glyph d="M291 854H193V936H291ZM210 530H348V441H210V0H110V441H27V530H110V640Q110 687 122.5 720Q135 753 157.5 773.5Q180 794 211 803Q242 812 280 812Q313 812 332.5 807.5Q352 803 358 800V716Q352 718 335.5 721Q319 724 303 724Q280 724 263 720Q246 716 234 705.5Q222 695 216 676.5Q210 658 210 629Z" glyph-name="fdotaccent" horiz-adv-x="391" unicode="&#7711;" /><glyph d="M565 640H451V754H565ZM458 530H558V0H458ZM210 530H348V441H210V0H110V441H27V530H110V640Q110 687 122.5 720Q135 753 157.5 773.5Q180 794 211 803Q242 812 280 812Q313 812 332.5 807.5Q352 803 358 800V716Q352 718 335.5 721Q319 724 303 724Q280 724 263 720Q246 716 234 705.5Q222 695 216 676.5Q210 658 210 629Z" glyph-name="fi" horiz-adv-x="625" unicode="&#64257;" /><glyph d="M1251 173Q1237 173 1224 166Q1211 159 1203 145V130Q1203 98 1216 82Q1229 66 1249 66H1252Q1271 66 1284.5 79Q1298 92 1298 115V125Q1298 151 1285.5 162Q1273 173 1254 173ZM833 0V73H918V287L859 247L817 308L939 390H1002V73H1086V0ZM33 390V463H118V677L59 637L17 698L139 780H202V463H286V390ZM402 515Q402 481 415 468.5Q428 456 447 456H452Q470 456 484 468.5Q498 481 498 511V516Q498 545 483.5 557.5Q469 570 448 570H445Q431 570 416 563Q401 556 393 542L321 566L331 780H576V706H401L398 633Q425 644 454 644Q516 644 548.5 609.5Q581 575 581 518V509Q581 451 548 417Q515 383 450 383Q384 383 351 415.5Q318 448 318 508V515ZM1361 322Q1318 322 1288 311.5Q1258 301 1238 277Q1221 257 1214 229Q1225 237 1240 241.5Q1255 246 1272 246Q1322 246 1351.5 213.5Q1381 181 1381 123V118Q1381 60 1348.5 26.5Q1316 -7 1250 -7Q1186 -7 1152.5 32.5Q1119 72 1119 136V144Q1119 191 1130.5 236Q1142 281 1174 323Q1206 367 1253.5 381.5Q1301 396 1361 396ZM360 0 936 780H1040L464 0Z" glyph-name="fifteensixteenths" horiz-adv-x="1400" unicode="&#61986;" /><glyph d="M40 395H560V305H40Z" glyph-name="figuredash" horiz-adv-x="600" unicode="&#8210;" /><glyph d="M40 435H560V345H40Z" glyph-name="figuredash.cap" horiz-adv-x="600" unicode="&#58503;" /><glyph glyph-name="figurespace" horiz-adv-x="600" unicode="&#8199;" /><glyph d="M149 250Q149 159 188.5 119Q228 79 295 79H305Q333 79 359.5 88Q386 97 406 116Q426 135 438 164.5Q450 194 450 236V251Q450 293 438 322.5Q426 352 405.5 371Q385 390 358 399Q331 408 301 408H293Q270 408 247 402.5Q224 397 203.5 385.5Q183 374 166 357Q149 340 139 317L53 346L71 780H543V688H159L148 453Q179 474 218.5 486Q258 498 304 498Q360 498 406 481.5Q452 465 484.5 433.5Q517 402 535 356Q553 310 553 251V236Q553 177 535 130.5Q517 84 484 52.5Q451 21 404 4.5Q357 -12 300 -12Q171 -12 109 54.5Q47 121 47 238V250Z" glyph-name="five" horiz-adv-x="600" unicode="5" /><glyph d="M102 -75Q102 -109 115 -121.5Q128 -134 147 -134H152Q170 -134 184 -121.5Q198 -109 198 -79V-74Q198 -45 183.5 -32.5Q169 -20 148 -20H145Q131 -20 116 -27Q101 -34 93 -48L21 -24L31 190H276V116H101L98 43Q125 54 154 54Q216 54 248.5 19.5Q281 -15 281 -72V-81Q281 -139 248 -173Q215 -207 150 -207Q84 -207 51 -174.5Q18 -142 18 -82V-75Z" glyph-name="five.inf" horiz-adv-x="300" unicode="&#58742;" /><glyph d="M951 173Q937 173 924 166Q911 159 903 145V130Q903 98 916 82Q929 66 949 66H952Q971 66 984.5 79Q998 92 998 115V125Q998 151 985.5 162Q973 173 954 173ZM533 0V73H618V287L559 247L517 308L639 390H702V73H786V0ZM102 515Q102 481 115 468.5Q128 456 147 456H152Q170 456 184 468.5Q198 481 198 511V516Q198 545 183.5 557.5Q169 570 148 570H145Q131 570 116 563Q101 556 93 542L21 566L31 780H276V706H101L98 633Q125 644 154 644Q216 644 248.5 609.5Q281 575 281 518V509Q281 451 248 417Q215 383 150 383Q84 383 51 415.5Q18 448 18 508V515ZM1061 322Q1018 322 988 311.5Q958 301 938 277Q921 257 914 229Q925 237 940 241.5Q955 246 972 246Q1022 246 1051.5 213.5Q1081 181 1081 123V118Q1081 60 1048.5 26.5Q1016 -7 950 -7Q886 -7 852.5 32.5Q819 72 819 136V144Q819 191 830.5 236Q842 281 874 323Q906 367 953.5 381.5Q1001 396 1061 396ZM60 0 636 780H740L164 0Z" glyph-name="fivesixteenths" horiz-adv-x="1100" unicode="&#61975;" /><glyph d="M458 800H558V0H458ZM210 530H348V441H210V0H110V441H27V530H110V640Q110 687 122.5 720Q135 753 157.5 773.5Q180 794 211 803Q242 812 280 812Q313 812 332.5 807.5Q352 803 358 800V716Q352 718 335.5 721Q319 724 303 724Q280 724 263 720Q246 716 234 705.5Q222 695 216 676.5Q210 658 210 629Z" glyph-name="fl" horiz-adv-x="625" unicode="&#64258;" /><glyph d="M144 284 218 286H353V527L355 614ZM353 0V194H31V264L358 780H455V286H569V194H455V0Z" glyph-name="four" horiz-adv-x="600" unicode="4" /><glyph d="M100 -45 124 -43H162V30L163 56ZM162 -200V-117H13V-58L167 190H246V-43H286V-117H246V-200Z" glyph-name="four.inf" horiz-adv-x="300" unicode="&#58741;" /><glyph glyph-name="fourperemspace" horiz-adv-x="250" unicode="&#8197;" /><glyph d="M-240 0 336 780H440L-136 0Z" glyph-name="fraction" horiz-adv-x="200" unicode="&#8260;" /><glyph d="M389 383Q382 394 371.5 406.5Q361 419 346 429.5Q331 440 312 447Q293 454 269 454Q206 454 174.5 410.5Q143 367 143 295V271Q143 196 174.5 154Q206 112 269 112Q293 112 312 119Q331 126 346 136.5Q361 147 371.5 159.5Q382 172 389 183ZM389 90Q367 61 331.5 42.5Q296 24 243 24Q189 24 151 43Q113 62 89 95Q65 128 53.5 173Q42 218 42 271V295Q42 346 53.5 391Q65 436 89 469.5Q113 503 151 522.5Q189 542 243 542Q303 542 340.5 519Q378 496 399 462L409 530H496L489 380V0Q489 -48 476.5 -87Q464 -126 437 -154Q410 -182 368 -197Q326 -212 268 -212Q208 -212 166.5 -196.5Q125 -181 99.5 -154.5Q74 -128 63 -92.5Q52 -57 52 -16V0H148Q148 -63 174.5 -95.5Q201 -128 267 -128Q333 -128 361 -95.5Q389 -63 389 3Z" glyph-name="g" horiz-adv-x="550" unicode="g" /><glyph d="M270 595Q224 595 191.5 609Q159 623 138.5 647.5Q118 672 108.5 706Q99 740 100 780H177Q177 730 199.5 703Q222 676 270 676Q318 676 340.5 703Q363 730 363 780H440Q441 740 431.5 706Q422 672 401.5 647.5Q381 623 348.5 609Q316 595 270 595ZM269 112Q293 112 312 119Q331 126 346 136.5Q361 147 371.5 159.5Q382 172 389 183V383Q382 394 371.5 406.5Q361 419 346 429.5Q331 440 312 447Q293 454 269 454Q206 454 174.5 410.5Q143 367 143 295V271Q143 196 174.5 154Q206 112 269 112ZM389 90Q367 61 331.5 42.5Q296 24 243 24Q189 24 151 43Q113 62 89 95Q65 128 53.5 173Q42 218 42 271V295Q42 346 53.5 391Q65 436 89 469.5Q113 503 151 522.5Q189 542 243 542Q303 542 340.5 519Q378 496 399 462L409 530H496L489 380V0Q489 -48 476.5 -87Q464 -126 437 -154Q410 -182 368 -197Q326 -212 268 -212Q208 -212 166.5 -196.5Q125 -181 99.5 -154.5Q74 -128 63 -92.5Q52 -57 52 -16V0H148Q148 -63 174.5 -95.5Q201 -128 267 -128Q333 -128 361 -95.5Q389 -63 389 3Z" glyph-name="gbreve" horiz-adv-x="550" unicode="&#287;" /><glyph d="M91 607 223 780H317L449 607H355L270 709L185 607ZM389 383Q382 394 371.5 406.5Q361 419 346 429.5Q331 440 312 447Q293 454 269 454Q206 454 174.5 410.5Q143 367 143 295V271Q143 196 174.5 154Q206 112 269 112Q293 112 312 119Q331 126 346 136.5Q361 147 371.5 159.5Q382 172 389 183ZM389 90Q367 61 331.5 42.5Q296 24 243 24Q189 24 151 43Q113 62 89 95Q65 128 53.5 173Q42 218 42 271V295Q42 346 53.5 391Q65 436 89 469.5Q113 503 151 522.5Q189 542 243 542Q303 542 340.5 519Q378 496 399 462L409 530H496L489 380V0Q489 -48 476.5 -87Q464 -126 437 -154Q410 -182 368 -197Q326 -212 268 -212Q208 -212 166.5 -196.5Q125 -181 99.5 -154.5Q74 -128 63 -92.5Q52 -57 52 -16V0H148Q148 -63 174.5 -95.5Q201 -128 267 -128Q333 -128 361 -95.5Q389 -63 389 3Z" glyph-name="gcircumflex" horiz-adv-x="550" unicode="&#285;" /><glyph d="M217 665Q217 731 246.5 761.5Q276 792 337 792V749Q304 749 285 736Q266 723 261 688H319V607H217ZM269 112Q293 112 312 119Q331 126 346 136.5Q361 147 371.5 159.5Q382 172 389 183V383Q382 394 371.5 406.5Q361 419 346 429.5Q331 440 312 447Q293 454 269 454Q206 454 174.5 410.5Q143 367 143 295V271Q143 196 174.5 154Q206 112 269 112ZM389 90Q367 61 331.5 42.5Q296 24 243 24Q189 24 151 43Q113 62 89 95Q65 128 53.5 173Q42 218 42 271V295Q42 346 53.5 391Q65 436 89 469.5Q113 503 151 522.5Q189 542 243 542Q303 542 340.5 519Q378 496 399 462L409 530H496L489 380V0Q489 -48 476.5 -87Q464 -126 437 -154Q410 -182 368 -197Q326 -212 268 -212Q208 -212 166.5 -196.5Q125 -181 99.5 -154.5Q74 -128 63 -92.5Q52 -57 52 -16V0H148Q148 -63 174.5 -95.5Q201 -128 267 -128Q333 -128 361 -95.5Q389 -63 389 3Z" glyph-name="gcommaaccent" horiz-adv-x="550" unicode="&#291;" /><glyph d="M326 639H210V754H326ZM389 383Q382 394 371.5 406.5Q361 419 346 429.5Q331 440 312 447Q293 454 269 454Q206 454 174.5 410.5Q143 367 143 295V271Q143 196 174.5 154Q206 112 269 112Q293 112 312 119Q331 126 346 136.5Q361 147 371.5 159.5Q382 172 389 183ZM389 90Q367 61 331.5 42.5Q296 24 243 24Q189 24 151 43Q113 62 89 95Q65 128 53.5 173Q42 218 42 271V295Q42 346 53.5 391Q65 436 89 469.5Q113 503 151 522.5Q189 542 243 542Q303 542 340.5 519Q378 496 399 462L409 530H496L489 380V0Q489 -48 476.5 -87Q464 -126 437 -154Q410 -182 368 -197Q326 -212 268 -212Q208 -212 166.5 -196.5Q125 -181 99.5 -154.5Q74 -128 63 -92.5Q52 -57 52 -16V0H148Q148 -63 174.5 -95.5Q201 -128 267 -128Q333 -128 361 -95.5Q389 -63 389 3Z" glyph-name="gdotaccent" horiz-adv-x="550" unicode="&#289;" /><glyph d="M270 422Q336 458 368 497.5Q400 537 400 593Q400 651 371.5 686.5Q343 722 280 722Q248 722 225 712.5Q202 703 187.5 686Q173 669 166 646Q159 623 159 597V0H59V604Q59 649 71.5 687Q84 725 110.5 753Q137 781 179 796.5Q221 812 280 812Q337 812 378.5 796Q420 780 447 752Q474 724 487 686Q500 648 500 604V596Q500 530 469.5 484Q439 438 379 397L419 370Q491 322 529 275.5Q567 229 567 167V161Q567 130 557.5 99Q548 68 527 43.5Q506 19 471.5 3.5Q437 -12 386 -12Q332 -12 298 3Q264 18 245.5 42Q227 66 220 96.5Q213 127 213 158V164H301Q301 145 304.5 128Q308 111 317 97.5Q326 84 342 76Q358 68 384 68Q410 68 426.5 76Q443 84 452 97Q461 110 464 126.5Q467 143 467 161Q467 199 439.5 231.5Q412 264 352 303L270 358Z" glyph-name="germandbls" horiz-adv-x="592" unicode="&#223;" /><glyph d="M210 780 301 607H199L100 780Z" glyph-name="grave" horiz-adv-x="500" unicode="`" /><glyph d="M243 950 301 840H199L136 950Z" glyph-name="grave.cap" horiz-adv-x="500" unicode="&#58401;" /><glyph d="M554 340 46 115V217L450 390L46 563V665L554 440Z" glyph-name="greater" horiz-adv-x="600" unicode="&gt;" /><glyph d="M46 170 554 339V272L46 103ZM417 458 46 576V677L554 508V408L46 239V341Z" glyph-name="greaterequal" horiz-adv-x="600" unicode="&#8805;" /><glyph d="M484 444 349 340 484 236V142L276 293V387L484 538ZM259 444 123 340 259 236V142L50 293V387L259 538Z" glyph-name="guillemotleft" horiz-adv-x="534" unicode="&#171;" /><glyph d="M484 494 349 390 484 286V192L276 343V437L484 588ZM259 494 123 390 259 286V192L50 343V437L259 588Z" glyph-name="guillemotleft.cap" horiz-adv-x="534" unicode="&#58451;" /><glyph d="M276 538 484 387V293L276 142V236L410 340L276 444ZM50 538 259 387V293L50 142V236L184 340L50 444Z" glyph-name="guillemotright" horiz-adv-x="534" unicode="&#187;" /><glyph d="M276 588 484 437V343L276 192V286L410 390L276 494ZM50 588 259 437V343L50 192V286L184 390L50 494Z" glyph-name="guillemotright.cap" horiz-adv-x="534" unicode="&#58452;" /><glyph d="M259 444 123 340 259 236V142L50 293V387L259 538Z" glyph-name="guilsinglleft" horiz-adv-x="309" unicode="&#8249;" /><glyph d="M259 494 123 390 259 286V192L50 343V437L259 588Z" glyph-name="guilsinglleft.cap" horiz-adv-x="309" unicode="&#58449;" /><glyph d="M50 538 259 387V293L50 142V236L184 340L50 444Z" glyph-name="guilsinglright" horiz-adv-x="309" unicode="&#8250;" /><glyph d="M50 588 259 437V343L50 192V286L184 390L50 494Z" glyph-name="guilsinglright.cap" horiz-adv-x="309" unicode="&#58450;" /><glyph d="M162 471Q187 502 227 522Q267 542 327 542Q369 542 399.5 528.5Q430 515 450 491.5Q470 468 479.5 436Q489 404 489 367V0H390V351Q390 401 364.5 427.5Q339 454 290 454Q263 454 242 447Q221 440 205.5 429.5Q190 419 179.5 406.5Q169 394 162 383V0H62V800H162Z" glyph-name="h" horiz-adv-x="545" unicode="h" /><glyph glyph-name="hairspace" horiz-adv-x="50" unicode="&#8202;" /><glyph d="M162 703H288V627H162V471Q187 502 227 522Q267 542 327 542Q369 542 399.5 528.5Q430 515 450 491.5Q470 468 479.5 436Q489 404 489 367V0H390V351Q390 401 364.5 427.5Q339 454 290 454Q263 454 242 447Q221 440 205.5 429.5Q190 419 179.5 406.5Q169 394 162 383V0H62V627H-22V703H62V800H162Z" glyph-name="hbar" horiz-adv-x="545" unicode="&#295;" /><glyph d="M-50 840 63 950H161L274 840H178L112 897L46 840ZM162 471Q187 502 227 522Q267 542 327 542Q369 542 399.5 528.5Q430 515 450 491.5Q470 468 479.5 436Q489 404 489 367V0H390V351Q390 401 364.5 427.5Q339 454 290 454Q263 454 242 447Q221 440 205.5 429.5Q190 419 179.5 406.5Q169 394 162 383V0H62V800H162Z" glyph-name="hcircumflex" horiz-adv-x="545" unicode="&#293;" /><glyph d="M449 -10Q437 9 414 40Q391 71 360 110Q329 149 292.5 193.5Q256 238 216 283Q190 312 161 348Q132 384 108 423.5Q84 463 68 504Q52 545 52 584Q52 628 65 666Q78 704 103 731.5Q128 759 163.5 774.5Q199 790 243 790Q289 790 323 777Q357 764 381 742.5Q405 721 421 692.5Q437 664 448 633H452Q463 664 479 692.5Q495 721 519 742.5Q543 764 576.5 777Q610 790 657 790Q701 790 736.5 774.5Q772 759 796.5 731.5Q821 704 834.5 666Q848 628 848 584Q848 545 832 504Q816 463 792 423.5Q768 384 739 348Q710 312 684 283Q644 238 607.5 193.5Q571 149 540 110Q509 71 486 40Q463 9 451 -10Z" glyph-name="heart" horiz-adv-x="900" unicode="&#9829;" /><glyph d="M70 0V450L425 790L780 450V0Z" glyph-name="house" horiz-adv-x="850" unicode="&#8962;" /><glyph d="M459 780 360 607H275L366 780ZM311 780 224 607H139L217 780Z" glyph-name="hungarumlaut" horiz-adv-x="500" unicode="&#733;" /><glyph d="M429 950 367 840H273L331 950ZM285 950 227 840H133L187 950Z" glyph-name="hungarumlaut.cap" horiz-adv-x="500" unicode="&#58411;" /><glyph d="M40 395H297V305H40Z" glyph-name="hyphen" horiz-adv-x="337" unicode="-" /><glyph d="M40 435H297V345H40Z" glyph-name="hyphen.cap" horiz-adv-x="320" unicode="&#58498;" /><glyph d="M174 640H60V754H174ZM67 530H167V0H67Z" glyph-name="i" horiz-adv-x="234" unicode="i" /><glyph d="M267 780 168 607H66L157 780ZM66 530H168V0H66Z" glyph-name="iacute" horiz-adv-x="234" unicode="&#237;" /><glyph d="M117 595Q71 595 38.5 609Q6 623 -14.5 647.5Q-35 672 -44.5 706Q-54 740 -53 780H24Q24 730 46.5 703Q69 676 117 676Q165 676 187.5 703Q210 730 210 780H287Q288 740 278.5 706Q269 672 248.5 647.5Q228 623 195.5 609Q163 595 117 595ZM66 530H168V0H66Z" glyph-name="ibreve" horiz-adv-x="234" unicode="&#301;" /><glyph d="M-62 607 70 780H164L296 607H202L117 709L32 607ZM66 530H168V0H66Z" glyph-name="icircumflex" horiz-adv-x="234" unicode="&#238;" /><glyph d="M267 639H151V754H267ZM83 639H-33V754H83ZM66 530H168V0H66Z" glyph-name="idieresis" horiz-adv-x="234" unicode="&#239;" /><glyph d="M174 640H60V754H174ZM67 530H167V0H67Z" glyph-name="idotaccent" horiz-adv-x="234" unicode="&#59269;" /><glyph d="M77 780 168 607H66L-33 780ZM66 530H168V0H66Z" glyph-name="igrave" horiz-adv-x="234" unicode="&#236;" /><glyph d="M357 640H243V754H357ZM174 640H60V754H174ZM67 530H167V0H67ZM250 530H350V-40Q350 -87 337.5 -120Q325 -153 302.5 -173.5Q280 -194 248.5 -203Q217 -212 180 -212Q147 -212 127.5 -207.5Q108 -203 102 -200V-116Q107 -118 123.5 -121Q140 -124 156 -124Q178 -124 195.5 -120Q213 -116 225 -105.5Q237 -95 243.5 -76.5Q250 -58 250 -29Z" glyph-name="ij" horiz-adv-x="417" unicode="&#307;" /><glyph d="M-11 739H245V648H-11ZM66 530H168V0H66Z" glyph-name="imacron" horiz-adv-x="234" unicode="&#299;" /><glyph d="M342 580Q342 622 330 651.5Q318 681 286 693L272 403Q284 425 296.5 446.5Q309 468 319 489Q329 510 335.5 532.5Q342 555 342 580ZM290 0H176V114H290ZM213 203 190 691Q154 673 140.5 627Q127 581 127 509H25V522Q25 582 35 631.5Q45 681 69.5 717Q94 753 135.5 772.5Q177 792 239 792Q296 792 335.5 776Q375 760 399 732.5Q423 705 434 667Q445 629 445 586Q445 536 432.5 502Q420 468 401 441.5Q382 415 360 393Q338 371 318 345Q298 319 284 285.5Q270 252 267 203Z" glyph-name="interrobang" horiz-adv-x="470" unicode="&#8253;" /><glyph d="M128 -17Q128 -52 141 -77.5Q154 -103 184 -114L198 146Q172 107 150 69.5Q128 32 128 -17ZM180 530H294V416H180ZM257 327 279 -112Q315 -95 329 -52Q343 -9 343 60H445V46Q445 -12 435 -59.5Q425 -107 400.5 -141Q376 -175 334.5 -193.5Q293 -212 231 -212Q176 -212 137 -197.5Q98 -183 73 -157.5Q48 -132 36.5 -98Q25 -64 25 -26Q25 23 37.5 56.5Q50 90 69 115.5Q88 141 110 161Q132 181 152 204Q172 227 186 256Q200 285 202 327Z" glyph-name="interrobangdown" horiz-adv-x="470" unicode="&#59701;" /><glyph d="M128 200Q128 158 140 128.5Q152 99 184 86L197 376Q185 353 172.5 332Q160 311 150.5 290Q141 269 134.5 247Q128 225 128 200ZM180 780H294V666H180ZM257 577 280 89Q315 106 329 152.5Q343 199 343 271H445V258Q445 198 435 148.5Q425 99 400.5 63Q376 27 334.5 7.5Q293 -12 231 -12Q174 -12 134.5 4Q95 20 71 47.5Q47 75 36 112.5Q25 150 25 194Q25 244 37.5 278Q50 312 69 338.5Q88 365 110 387Q132 409 152 435Q172 461 186 494.5Q200 528 203 577Z" glyph-name="interrobangdown.cap" horiz-adv-x="470" unicode="&#59803;" /><glyph d="M250 792Q296 792 328.5 778Q361 764 381.5 739.5Q402 715 411.5 681Q421 647 420 607H343Q343 658 320.5 684.5Q298 711 250 711Q202 711 179.5 684.5Q157 658 157 607H80Q79 647 88.5 681Q98 715 118.5 739.5Q139 764 171.5 778Q204 792 250 792Z" glyph-name="invertedbreve" horiz-adv-x="500" unicode="&#58385;" /><glyph d="M250 963Q295 963 325.5 953.5Q356 944 374.5 927.5Q393 911 401 888.5Q409 866 409 840H334Q334 868 314.5 884Q295 900 250 900Q205 900 185.5 884Q166 868 166 840H91Q91 866 99 888.5Q107 911 125.5 927.5Q144 944 174.5 953.5Q205 963 250 963Z" glyph-name="invertedbreve.cap" horiz-adv-x="500" unicode="&#58407;" /><glyph d="M174 640H60V754H174ZM91 -91Q91 -111 104 -123.5Q117 -136 142 -136Q159 -136 173.5 -132Q188 -128 197 -123L222 -191Q206 -201 180.5 -207Q155 -213 129 -213Q75 -213 42.5 -188.5Q10 -164 10 -111Q10 -73 25.5 -44Q41 -15 67 6V530H167V0H166Q134 -14 112.5 -36Q91 -58 91 -91Z" glyph-name="iogonek" horiz-adv-x="234" unicode="&#303;" /><glyph d="M289 755Q289 690 263 661Q237 632 198 632Q174 632 154 640.5Q134 649 116 659Q98 669 82.5 677.5Q67 686 52 686Q38 686 28 677Q18 668 18 645H-55Q-55 710 -29 739Q-3 768 36 768Q60 768 80 759.5Q100 751 118 741Q136 731 151.5 722.5Q167 714 182 714Q196 714 206 723Q216 732 216 755ZM66 530H168V0H66Z" glyph-name="itilde" horiz-adv-x="234" unicode="&#297;" /><glyph d="M174 640H60V754H174ZM67 530H167V-40Q167 -87 154.5 -120Q142 -153 119.5 -173.5Q97 -194 65.5 -203Q34 -212 -3 -212Q-36 -212 -55.5 -207.5Q-75 -203 -81 -200V-116Q-76 -118 -59.5 -121Q-43 -124 -27 -124Q-5 -124 12.5 -120Q30 -116 42 -105.5Q54 -95 60.5 -76.5Q67 -58 67 -29Z" glyph-name="j" horiz-adv-x="234" unicode="j" /><glyph d="M-62 607 70 780H164L296 607H202L117 709L32 607ZM66 530H168V-39Q168 -87 155.5 -120Q143 -153 120 -173.5Q97 -194 65.5 -203Q34 -212 -3 -212Q-36 -212 -55.5 -207.5Q-75 -203 -81 -200V-115Q-76 -117 -59.5 -120Q-43 -123 -27 -123Q-5 -123 12.5 -119Q30 -115 42 -104.5Q54 -94 60 -75.5Q66 -57 66 -28Z" glyph-name="jcircumflex" horiz-adv-x="234" unicode="&#309;" /><glyph d="M60 800H160V283L376 530H498L318 330L498 0H382L249 253L160 153V0H60Z" glyph-name="k" horiz-adv-x="522" unicode="k" /><glyph d="M314 -105Q314 -219 194 -219V-176Q223 -176 242.5 -165.5Q262 -155 269 -129H212V-51H314ZM60 800H160V283L376 530H498L318 330L498 0H382L249 253L160 153V0H60Z" glyph-name="kcommaaccent" horiz-adv-x="522" unicode="&#311;" /><glyph d="M60 530H160V283L376 530H498L318 330L498 0H382L249 253L160 153V0H60Z" glyph-name="kgreenlandic" horiz-adv-x="522" unicode="&#312;" /><glyph d="M67 800H167V0H67Z" glyph-name="l" horiz-adv-x="234" unicode="l" /><glyph d="M231 950 168 840H66L124 950ZM67 800H167V0H67Z" glyph-name="lacute" horiz-adv-x="234" unicode="&#314;" /><glyph d="M307 800 286 607H234V800ZM67 800H167V0H67Z" glyph-name="lcaron" horiz-adv-x="234" unicode="&#318;" /><glyph d="M168 -105Q168 -219 48 -219V-176Q77 -176 96.5 -165.5Q116 -155 123 -129H66V-51H168ZM67 800H167V0H67Z" glyph-name="lcommaaccent" horiz-adv-x="234" unicode="&#316;" /><glyph d="M360 292H244V408H360ZM67 800H167V0H67Z" glyph-name="ldot" horiz-adv-x="371" unicode="&#320;" /><glyph d="M554 665V563L150 390L554 217V115L46 340V440Z" glyph-name="less" horiz-adv-x="600" unicode="&lt;" /><glyph d="M554 103 46 272V339L554 170ZM182 458 554 341V239L46 408V508L554 677V576Z" glyph-name="lessequal" horiz-adv-x="600" unicode="&#8804;" /><glyph d="M46 564H554V206H461V471H46Z" glyph-name="logicalnot" horiz-adv-x="600" unicode="&#172;" /><glyph d="M46 90H274V0H46Z" glyph-name="lowline" horiz-adv-x="320" unicode="&#58641;" /><glyph d="M29 329 121 394V800H221V465L329 542V451L221 374V0H121V303L29 238Z" glyph-name="lslash" horiz-adv-x="348" unicode="&#322;" /><glyph d="M669 0V362Q669 413 645.5 433.5Q622 454 580 454Q556 454 537.5 447.5Q519 441 505.5 431Q492 421 482 408.5Q472 396 465 385V0H365V362Q365 413 341.5 433.5Q318 454 277 454Q253 454 234.5 447.5Q216 441 202 431Q188 421 178.5 408.5Q169 396 162 385V0H62V380L55 530H141L152 461Q175 495 214.5 518.5Q254 542 314 542Q367 542 401 519.5Q435 497 451 456Q474 492 514 517Q554 542 617 542Q693 542 730.5 497Q768 452 768 377V0Z" glyph-name="m" horiz-adv-x="825" unicode="m" /><glyph d="M122 739H378V648H122Z" glyph-name="macron" horiz-adv-x="500" unicode="&#175;" /><glyph d="M124 930H376V860H124Z" glyph-name="macron.cap" horiz-adv-x="500" unicode="&#58405;" /><glyph d="M473 639H357V754H473ZM669 0V362Q669 413 645.5 433.5Q622 454 580 454Q556 454 537.5 447.5Q519 441 505.5 431Q492 421 482 408.5Q472 396 465 385V0H365V362Q365 413 341.5 433.5Q318 454 277 454Q253 454 234.5 447.5Q216 441 202 431Q188 421 178.5 408.5Q169 396 162 385V0H62V380L55 530H141L152 461Q175 495 214.5 518.5Q254 542 314 542Q367 542 401 519.5Q435 497 451 456Q474 492 514 517Q554 542 617 542Q693 542 730.5 497Q768 452 768 377V0Z" glyph-name="mdotaccent" horiz-adv-x="825" unicode="&#7745;" /><glyph d="M58 265Q58 322 80 372.5Q102 423 139.5 460.5Q177 498 227.5 520Q278 542 335 542Q392 542 442.5 520Q493 498 530.5 460.5Q568 423 590 372.5Q612 322 612 265Q612 208 590 157.5Q568 107 530.5 69.5Q493 32 442.5 10Q392 -12 335 -12Q278 -12 227.5 10Q177 32 139.5 69.5Q102 107 80 157.5Q58 208 58 265Z" glyph-name="mediumblackcircle" horiz-adv-x="670" unicode="&#9899;" /><glyph d="M149 265Q149 226 163.5 192.5Q178 159 203.5 133.5Q229 108 262.5 93.5Q296 79 335 79Q374 79 407.5 93.5Q441 108 466.5 133.5Q492 159 506.5 192.5Q521 226 521 265Q521 304 506.5 337.5Q492 371 466.5 396.5Q441 422 407.5 436.5Q374 451 335 451Q296 451 262.5 436.5Q229 422 203.5 396.5Q178 371 163.5 337.5Q149 304 149 265ZM58 265Q58 322 80 372.5Q102 423 139.5 460.5Q177 498 227.5 520Q278 542 335 542Q392 542 442.5 520Q493 498 530.5 460.5Q568 423 590 372.5Q612 322 612 265Q612 208 590 157.5Q568 107 530.5 69.5Q493 32 442.5 10Q392 -12 335 -12Q278 -12 227.5 10Q177 32 139.5 69.5Q102 107 80 157.5Q58 208 58 265Z" glyph-name="mediumwhitecircle" horiz-adv-x="670" unicode="&#9898;" /><glyph d="M46 436H554V344H46Z" glyph-name="minus" horiz-adv-x="600" unicode="&#8722;" /><glyph d="M21 32H279V-42H21Z" glyph-name="minus.inf" horiz-adv-x="300" unicode="&#58748;" /><glyph d="M33 189 234 390 33 591 99 657 300 456 501 657 567 591 366 390 567 189 501 123 300 324 99 123Z" glyph-name="multiply" horiz-adv-x="600" unicode="&#215;" /><glyph d="M390 0V351Q390 401 364.5 427.5Q339 454 290 454Q263 454 242 447Q221 440 205.5 429.5Q190 419 179.5 406.5Q169 394 162 383V0H62V380L55 530H141L152 457Q176 493 218.5 517.5Q261 542 327 542Q369 542 399.5 528.5Q430 515 450 491.5Q470 468 479.5 436Q489 404 489 367V0Z" glyph-name="n" horiz-adv-x="545" unicode="n" /><glyph d="M426 780 327 607H225L316 780ZM390 0V351Q390 401 364.5 427.5Q339 454 290 454Q263 454 242 447Q221 440 205.5 429.5Q190 419 179.5 406.5Q169 394 162 383V0H62V380L55 530H141L152 457Q176 493 218.5 517.5Q261 542 327 542Q369 542 399.5 528.5Q430 515 450 491.5Q470 468 479.5 436Q489 404 489 367V0Z" glyph-name="nacute" horiz-adv-x="545" unicode="&#324;" /><glyph d="M191 780 276 678 361 780H455L323 607H229L97 780ZM390 0V351Q390 401 364.5 427.5Q339 454 290 454Q263 454 242 447Q221 440 205.5 429.5Q190 419 179.5 406.5Q169 394 162 383V0H62V380L55 530H141L152 457Q176 493 218.5 517.5Q261 542 327 542Q369 542 399.5 528.5Q430 515 450 491.5Q470 468 479.5 436Q489 404 489 367V0Z" glyph-name="ncaron" horiz-adv-x="545" unicode="&#328;" /><glyph d="M327 -105Q327 -219 207 -219V-176Q236 -176 255.5 -165.5Q275 -155 282 -129H225V-51H327ZM390 0V351Q390 401 364.5 427.5Q339 454 290 454Q263 454 242 447Q221 440 205.5 429.5Q190 419 179.5 406.5Q169 394 162 383V0H62V380L55 530H141L152 457Q176 493 218.5 517.5Q261 542 327 542Q369 542 399.5 528.5Q430 515 450 491.5Q470 468 479.5 436Q489 404 489 367V0Z" glyph-name="ncommaaccent" horiz-adv-x="545" unicode="&#326;" /><glyph d="M295 381Q344 381 385 406Q426 431 448 474Q449 483 449 492Q449 501 449 510V520Q449 563 437 596.5Q425 630 405 653Q385 676 358 688Q331 700 300 700H294Q228 700 187.5 661Q147 622 147 548V531Q147 456 186 418.5Q225 381 290 381ZM81 81Q162 81 235.5 109Q309 137 360 203Q386 235 402.5 272Q419 309 430 349Q401 322 362 305.5Q323 289 273 289Q223 289 181 305Q139 321 108.5 352Q78 383 61 429Q44 475 44 535V545Q44 666 111.5 729Q179 792 297 792Q354 792 401 773Q448 754 481.5 718Q515 682 533 630.5Q551 579 551 513V502Q551 409 527 318Q503 227 441 144Q409 101 368 71Q327 41 280.5 22.5Q234 4 183 -4Q132 -12 81 -12Z" glyph-name="nine" horiz-adv-x="600" unicode="9" /><glyph d="M148 16Q162 16 175 22.5Q188 29 197 43V60Q197 91 184 107.5Q171 124 151 124H148Q129 124 115.5 111Q102 98 102 74V64Q102 39 114.5 27.5Q127 16 146 16ZM38 -133Q82 -133 111.5 -122Q141 -111 161 -87Q177 -68 186 -39Q174 -47 159 -51.5Q144 -56 127 -56Q78 -56 48 -23.5Q18 9 18 67V72Q18 129 50.5 162.5Q83 196 149 196Q214 196 247.5 157Q281 118 281 53V46Q281 -1 269 -46.5Q257 -92 226 -134Q194 -177 146 -192Q98 -207 38 -207Z" glyph-name="nine.inf" horiz-adv-x="300" unicode="&#58746;" /><glyph d="M951 173Q937 173 924 166Q911 159 903 145V130Q903 98 916 82Q929 66 949 66H952Q971 66 984.5 79Q998 92 998 115V125Q998 151 985.5 162Q973 173 954 173ZM148 606Q162 606 175 612.5Q188 619 197 633V650Q197 681 184 697.5Q171 714 151 714H148Q129 714 115.5 701Q102 688 102 664V654Q102 629 114.5 617.5Q127 606 146 606ZM533 0V73H618V287L559 247L517 308L639 390H702V73H786V0ZM1061 322Q1018 322 988 311.5Q958 301 938 277Q921 257 914 229Q925 237 940 241.5Q955 246 972 246Q1022 246 1051.5 213.5Q1081 181 1081 123V118Q1081 60 1048.5 26.5Q1016 -7 950 -7Q886 -7 852.5 32.5Q819 72 819 136V144Q819 191 830.5 236Q842 281 874 323Q906 367 953.5 381.5Q1001 396 1061 396ZM38 457Q82 457 111.5 468Q141 479 161 503Q176 521 186 550Q160 534 127 534Q78 534 48 566.5Q18 599 18 657V662Q18 719 50.5 752.5Q83 786 149 786Q214 786 247.5 747Q281 708 281 643V636Q281 589 269 543.5Q257 498 226 456Q194 413 146 398Q98 383 38 383ZM60 0 636 780H740L164 0Z" glyph-name="ninesixteenths" horiz-adv-x="1100" unicode="&#61977;" /><glyph glyph-name="nonbreakingspace" horiz-adv-x="200" unicode="&#160;" /><glyph d="M46 541H347L414 657H493L426 541H554V448H372L306 332H554V239H252L186 123H107L173 239H46V332H227L293 448H46Z" glyph-name="notequal" horiz-adv-x="600" unicode="&#8800;" /><glyph d="M448 755Q448 690 422 661Q396 632 357 632Q333 632 313 640.5Q293 649 275 659Q257 669 241.5 677.5Q226 686 211 686Q197 686 187 677Q177 668 177 645H104Q104 710 130 739Q156 768 195 768Q219 768 239 759.5Q259 751 277 741Q295 731 310.5 722.5Q326 714 341 714Q355 714 365 723Q375 732 375 755ZM390 0V351Q390 401 364.5 427.5Q339 454 290 454Q263 454 242 447Q221 440 205.5 429.5Q190 419 179.5 406.5Q169 394 162 383V0H62V380L55 530H141L152 457Q176 493 218.5 517.5Q261 542 327 542Q369 542 399.5 528.5Q430 515 450 491.5Q470 468 479.5 436Q489 404 489 367V0Z" glyph-name="ntilde" horiz-adv-x="545" unicode="&#241;" /><glyph d="M221 311H346L379 469H254ZM83 560H182L228 780H319L273 560H398L444 780H535L489 560H570V469H470L437 311H517V220H418L372 0H281L327 220H202L156 0H65L111 220H30V311H130L163 469H83Z" glyph-name="numbersign" horiz-adv-x="600" unicode="#" /><glyph d="M712 279H1049V202H712ZM793 574Q793 519 814 487.5Q835 456 880 456Q926 456 947 487.5Q968 519 968 574V597Q968 651 947 683Q926 715 880 715Q835 715 814 683Q793 651 793 597ZM1057 574Q1057 532 1046.5 496Q1036 460 1014 433.5Q992 407 959 392.5Q926 378 880 378Q834 378 801 392.5Q768 407 746.5 433.5Q725 460 714.5 496Q704 532 704 574V597Q704 639 714.5 674.5Q725 710 746.5 736.5Q768 763 801 777.5Q834 792 880 792Q926 792 959 777.5Q992 763 1014 736.5Q1036 710 1046.5 674.5Q1057 639 1057 597ZM600 0H489L162 596L166 423V0H67V780H178L505 184L501 357V780H600Z" glyph-name="numero" horiz-adv-x="1094" unicode="&#8470;" /><glyph d="M274 76Q342 76 373.5 123.5Q405 171 405 251V279Q405 359 373.5 406.5Q342 454 274 454Q206 454 174.5 406.5Q143 359 143 279V251Q143 171 174.5 123.5Q206 76 274 76ZM274 -12Q214 -12 170 8Q126 28 97.5 63.5Q69 99 55.5 147Q42 195 42 251V279Q42 335 55.5 383Q69 431 97.5 466.5Q126 502 170 522Q214 542 274 542Q334 542 378 522Q422 502 450.5 466.5Q479 431 492.5 383Q506 335 506 279V251Q506 195 492.5 147Q479 99 450.5 63.5Q422 28 378 8Q334 -12 274 -12Z" glyph-name="o" horiz-adv-x="548" unicode="o" /><glyph d="M424 780 325 607H223L314 780ZM274 76Q342 76 373.5 123.5Q405 171 405 251V279Q405 359 373.5 406.5Q342 454 274 454Q206 454 174.5 406.5Q143 359 143 279V251Q143 171 174.5 123.5Q206 76 274 76ZM274 -12Q214 -12 170 8Q126 28 97.5 63.5Q69 99 55.5 147Q42 195 42 251V279Q42 335 55.5 383Q69 431 97.5 466.5Q126 502 170 522Q214 542 274 542Q334 542 378 522Q422 502 450.5 466.5Q479 431 492.5 383Q506 335 506 279V251Q506 195 492.5 147Q479 99 450.5 63.5Q422 28 378 8Q334 -12 274 -12Z" glyph-name="oacute" horiz-adv-x="548" unicode="&#243;" /><glyph d="M274 595Q228 595 195.5 609Q163 623 142.5 647.5Q122 672 112.5 706Q103 740 104 780H181Q181 730 203.5 703Q226 676 274 676Q322 676 344.5 703Q367 730 367 780H444Q445 740 435.5 706Q426 672 405.5 647.5Q385 623 352.5 609Q320 595 274 595ZM274 76Q342 76 373.5 123.5Q405 171 405 251V279Q405 359 373.5 406.5Q342 454 274 454Q206 454 174.5 406.5Q143 359 143 279V251Q143 171 174.5 123.5Q206 76 274 76ZM274 -12Q214 -12 170 8Q126 28 97.5 63.5Q69 99 55.5 147Q42 195 42 251V279Q42 335 55.5 383Q69 431 97.5 466.5Q126 502 170 522Q214 542 274 542Q334 542 378 522Q422 502 450.5 466.5Q479 431 492.5 383Q506 335 506 279V251Q506 195 492.5 147Q479 99 450.5 63.5Q422 28 378 8Q334 -12 274 -12Z" glyph-name="obreve" horiz-adv-x="548" unicode="&#335;" /><glyph d="M95 607 227 780H321L453 607H359L274 709L189 607ZM274 76Q342 76 373.5 123.5Q405 171 405 251V279Q405 359 373.5 406.5Q342 454 274 454Q206 454 174.5 406.5Q143 359 143 279V251Q143 171 174.5 123.5Q206 76 274 76ZM274 -12Q214 -12 170 8Q126 28 97.5 63.5Q69 99 55.5 147Q42 195 42 251V279Q42 335 55.5 383Q69 431 97.5 466.5Q126 502 170 522Q214 542 274 542Q334 542 378 522Q422 502 450.5 466.5Q479 431 492.5 383Q506 335 506 279V251Q506 195 492.5 147Q479 99 450.5 63.5Q422 28 378 8Q334 -12 274 -12Z" glyph-name="ocircumflex" horiz-adv-x="548" unicode="&#244;" /><glyph d="M424 639H308V754H424ZM240 639H124V754H240ZM274 76Q342 76 373.5 123.5Q405 171 405 251V279Q405 359 373.5 406.5Q342 454 274 454Q206 454 174.5 406.5Q143 359 143 279V251Q143 171 174.5 123.5Q206 76 274 76ZM274 -12Q214 -12 170 8Q126 28 97.5 63.5Q69 99 55.5 147Q42 195 42 251V279Q42 335 55.5 383Q69 431 97.5 466.5Q126 502 170 522Q214 542 274 542Q334 542 378 522Q422 502 450.5 466.5Q479 431 492.5 383Q506 335 506 279V251Q506 195 492.5 147Q479 99 450.5 63.5Q422 28 378 8Q334 -12 274 -12Z" glyph-name="odieresis" horiz-adv-x="548" unicode="&#246;" /><glyph d="M637 462Q572 462 540 420Q508 378 506 303H768Q765 378 733.5 420Q702 462 637 462ZM143 251Q143 171 174.5 123.5Q206 76 274 76Q342 76 373.5 123.5Q405 171 405 251V279Q405 359 373.5 406.5Q342 454 274 454Q206 454 174.5 406.5Q143 359 143 279ZM506 227Q509 149 542.5 108.5Q576 68 644 68Q677 68 701.5 77Q726 86 742 101Q758 116 765.5 134Q773 152 773 170H868V166Q868 133 854 101Q840 69 812 44Q784 19 742 3.5Q700 -12 644 -12Q575 -12 528.5 14.5Q482 41 456 86Q430 41 386 14.5Q342 -12 274 -12Q214 -12 170 8Q126 28 97.5 63.5Q69 99 55.5 147Q42 195 42 251V279Q42 335 55.5 383Q69 431 97.5 466.5Q126 502 170 522Q214 542 274 542Q342 542 386 515.5Q430 489 456 444Q482 488 527 515Q572 542 638 542Q698 542 741.5 521.5Q785 501 813 465.5Q841 430 854.5 381.5Q868 333 868 277V227Z" glyph-name="oe" horiz-adv-x="911" unicode="&#339;" /><glyph d="M211 -91Q211 -111 224 -123.5Q237 -136 262 -136Q279 -136 293.5 -132Q308 -128 317 -123L342 -191Q326 -201 300.5 -207Q275 -213 249 -213Q195 -213 162.5 -188.5Q130 -164 130 -111Q130 -80 141.5 -54Q153 -28 172.5 -7.5Q192 13 216 27Q240 41 266 50L286 0Q254 -14 232.5 -36Q211 -58 211 -91Z" glyph-name="ogonek" horiz-adv-x="602" unicode="&#731;" /><glyph d="M234 780 325 607H223L124 780ZM274 76Q342 76 373.5 123.5Q405 171 405 251V279Q405 359 373.5 406.5Q342 454 274 454Q206 454 174.5 406.5Q143 359 143 279V251Q143 171 174.5 123.5Q206 76 274 76ZM274 -12Q214 -12 170 8Q126 28 97.5 63.5Q69 99 55.5 147Q42 195 42 251V279Q42 335 55.5 383Q69 431 97.5 466.5Q126 502 170 522Q214 542 274 542Q334 542 378 522Q422 502 450.5 466.5Q479 431 492.5 383Q506 335 506 279V251Q506 195 492.5 147Q479 99 450.5 63.5Q422 28 378 8Q334 -12 274 -12Z" glyph-name="ograve" horiz-adv-x="548" unicode="&#242;" /><glyph d="M483 780 384 607H299L390 780ZM335 780 248 607H163L241 780ZM274 76Q342 76 373.5 123.5Q405 171 405 251V279Q405 359 373.5 406.5Q342 454 274 454Q206 454 174.5 406.5Q143 359 143 279V251Q143 171 174.5 123.5Q206 76 274 76ZM274 -12Q214 -12 170 8Q126 28 97.5 63.5Q69 99 55.5 147Q42 195 42 251V279Q42 335 55.5 383Q69 431 97.5 466.5Q126 502 170 522Q214 542 274 542Q334 542 378 522Q422 502 450.5 466.5Q479 431 492.5 383Q506 335 506 279V251Q506 195 492.5 147Q479 99 450.5 63.5Q422 28 378 8Q334 -12 274 -12Z" glyph-name="ohungarumlaut" horiz-adv-x="548" unicode="&#337;" /><glyph d="M146 739H402V648H146ZM274 76Q342 76 373.5 123.5Q405 171 405 251V279Q405 359 373.5 406.5Q342 454 274 454Q206 454 174.5 406.5Q143 359 143 279V251Q143 171 174.5 123.5Q206 76 274 76ZM274 -12Q214 -12 170 8Q126 28 97.5 63.5Q69 99 55.5 147Q42 195 42 251V279Q42 335 55.5 383Q69 431 97.5 466.5Q126 502 170 522Q214 542 274 542Q334 542 378 522Q422 502 450.5 466.5Q479 431 492.5 383Q506 335 506 279V251Q506 195 492.5 147Q479 99 450.5 63.5Q422 28 378 8Q334 -12 274 -12Z" glyph-name="omacron" horiz-adv-x="548" unicode="&#333;" /><glyph d="M67 0V92H259V651L97 541L46 617L290 783H361V92H553V0Z" glyph-name="one" horiz-adv-x="600" unicode="1" /><glyph d="M33 -200V-127H118V87L59 47L17 108L139 190H202V-127H286V-200Z" glyph-name="one.inf" horiz-adv-x="300" unicode="&#58738;" /><glyph d="M33 390V463H118V677L59 637L17 698L139 780H202V463H286V390ZM779 0H521V53L670 217Q682 230 688.5 240.5Q695 251 695 268V273Q695 299 683 311Q671 323 652 323H647Q628 323 616.5 309Q605 295 605 260H521V270Q521 333 552.5 364.5Q584 396 650 396Q686 396 710.5 386Q735 376 750.5 360.5Q766 345 772.5 326Q779 307 779 288V278Q779 243 767.5 222Q756 201 735 178L639 73H779ZM60 0 636 780H740L164 0Z" glyph-name="onehalf" horiz-adv-x="800" unicode="&#189;" /><glyph d="M600 155 624 157H662V230L663 256ZM33 390V463H118V677L59 637L17 698L139 780H202V463H286V390ZM662 0V83H513V142L667 390H746V157H786V83H746V0ZM60 0 636 780H740L164 0Z" glyph-name="onequarter" horiz-adv-x="800" unicode="&#188;" /><glyph d="M951 173Q937 173 924 166Q911 159 903 145V130Q903 98 916 82Q929 66 949 66H952Q971 66 984.5 79Q998 92 998 115V125Q998 151 985.5 162Q973 173 954 173ZM533 0V73H618V287L559 247L517 308L639 390H702V73H786V0ZM33 390V463H118V677L59 637L17 698L139 780H202V463H286V390ZM1061 322Q1018 322 988 311.5Q958 301 938 277Q921 257 914 229Q925 237 940 241.5Q955 246 972 246Q1022 246 1051.5 213.5Q1081 181 1081 123V118Q1081 60 1048.5 26.5Q1016 -7 950 -7Q886 -7 852.5 32.5Q819 72 819 136V144Q819 191 830.5 236Q842 281 874 323Q906 367 953.5 381.5Q1001 396 1061 396ZM60 0 636 780H740L164 0Z" glyph-name="onesixteenth" horiz-adv-x="1100" unicode="&#61973;" /><glyph d="M33 390V463H118V677L59 637L17 698L139 780H202V463H286V390Z" glyph-name="onesuperior" horiz-adv-x="300" unicode="&#185;" /><glyph d="M40 305V395H293V305Z" glyph-name="onethirdemdash" horiz-adv-x="333" unicode="&#58481;" /><glyph d="M45 345V435H293V345Z" glyph-name="onethirdemdash.cap" horiz-adv-x="333" unicode="&#58499;" /><glyph d="M183 451Q221 451 242.5 466Q264 481 275 495V585L187 570Q123 559 123 509V504Q123 484 137 467.5Q151 451 183 451ZM45 202V279H368V202ZM284 436Q264 410 232 394Q200 378 153 378Q123 378 100.5 387Q78 396 63.5 411.5Q49 427 42 447.5Q35 468 35 492V500Q35 532 45.5 554Q56 576 75 590Q94 604 118.5 611.5Q143 619 172 624L275 639V643Q275 682 260.5 702.5Q246 723 205 723Q183 723 169.5 717Q156 711 148 701.5Q140 692 137 679Q134 666 134 652H50V659Q50 683 57 707Q64 731 82 750Q100 769 130 780.5Q160 792 207 792Q252 792 282 781.5Q312 771 330.5 752Q349 733 356.5 705Q364 677 364 643V499L370 388H292Z" glyph-name="ordfeminine" horiz-adv-x="403" unicode="&#170;" /><glyph d="M45 279H382V202H45ZM126 574Q126 519 147 487.5Q168 456 213 456Q259 456 280 487.5Q301 519 301 574V597Q301 651 280 683Q259 715 213 715Q168 715 147 683Q126 651 126 597ZM390 574Q390 532 379.5 496Q369 460 347 433.5Q325 407 292 392.5Q259 378 213 378Q167 378 134 392.5Q101 407 79.5 433.5Q58 460 47.5 496Q37 532 37 574V597Q37 639 47.5 674.5Q58 710 79.5 736.5Q101 763 134 777.5Q167 792 213 792Q259 792 292 777.5Q325 763 347 736.5Q369 710 379.5 674.5Q390 639 390 597Z" glyph-name="ordmasculine" horiz-adv-x="427" unicode="&#186;" /><glyph d="M143 251Q143 193 158 154L360 421Q327 454 274 454Q206 454 174.5 406.5Q143 359 143 279ZM405 279Q405 337 389 376L187 109Q220 76 274 76Q342 76 373.5 123.5Q405 171 405 251ZM454 461Q480 426 493 379.5Q506 333 506 279V251Q506 195 492.5 147Q479 99 450.5 63.5Q422 28 378 8Q334 -12 274 -12Q228 -12 192 -0.5Q156 11 129 32L105 0H42L94 68Q67 103 54.5 150Q42 197 42 251V279Q42 335 55.5 383Q69 431 97.5 466.5Q126 502 170 522Q214 542 274 542Q319 542 355 530Q391 518 418 497L443 530H506Z" glyph-name="oslash" horiz-adv-x="548" unicode="&#248;" /><glyph d="M446 755Q446 690 420 661Q394 632 355 632Q331 632 311 640.5Q291 649 273 659Q255 669 239.5 677.5Q224 686 209 686Q195 686 185 677Q175 668 175 645H102Q102 710 128 739Q154 768 193 768Q217 768 237 759.5Q257 751 275 741Q293 731 308.5 722.5Q324 714 339 714Q353 714 363 723Q373 732 373 755ZM274 76Q342 76 373.5 123.5Q405 171 405 251V279Q405 359 373.5 406.5Q342 454 274 454Q206 454 174.5 406.5Q143 359 143 279V251Q143 171 174.5 123.5Q206 76 274 76ZM274 -12Q214 -12 170 8Q126 28 97.5 63.5Q69 99 55.5 147Q42 195 42 251V279Q42 335 55.5 383Q69 431 97.5 466.5Q126 502 170 522Q214 542 274 542Q334 542 378 522Q422 502 450.5 466.5Q479 431 492.5 383Q506 335 506 279V251Q506 195 492.5 147Q479 99 450.5 63.5Q422 28 378 8Q334 -12 274 -12Z" glyph-name="otilde" horiz-adv-x="548" unicode="&#245;" /><glyph d="M161 147Q168 136 178.5 123.5Q189 111 204 100.5Q219 90 238 83Q257 76 281 76Q347 76 377 123Q407 170 407 251V279Q407 360 377 407Q347 454 281 454Q257 454 238 447Q219 440 204 429.5Q189 419 178.5 406.5Q168 394 161 383ZM307 -12Q253 -12 218 7.5Q183 27 161 56V-200H61V380L54 530H141L151 460Q172 495 209.5 518.5Q247 542 307 542Q361 542 399.5 522Q438 502 462 466.5Q486 431 497 383Q508 335 508 279V251Q508 195 497 147Q486 99 462 63.5Q438 28 399.5 8Q361 -12 307 -12Z" glyph-name="p" horiz-adv-x="550" unicode="p" /><glyph d="M137 535Q137 497 147 472Q157 447 173 431Q189 415 209 407Q229 399 250 396V686Q229 683 209 675Q189 667 173 651.5Q157 636 147 610.5Q137 585 137 548ZM360 688H314V0H250V305Q209 308 170 319.5Q131 331 100 356.5Q69 382 50 424.5Q31 467 31 532V552Q31 623 54 667.5Q77 712 113 737Q149 762 193.5 771Q238 780 282 780H464V0H360Z" glyph-name="paragraph" horiz-adv-x="526" unicode="&#182;" /><glyph d="M46 370Q46 457 58 524.5Q70 592 91 647.5Q112 703 139.5 749.5Q167 796 198 840H305Q272 792 243.5 742Q215 692 193.5 636Q172 580 160 514.5Q148 449 148 370V350Q148 271 160 205.5Q172 140 193.5 84Q215 28 243.5 -22Q272 -72 305 -120H198Q167 -76 139.5 -29.5Q112 17 91 72.5Q70 128 58 195.5Q46 263 46 350Z" glyph-name="parenleft" horiz-adv-x="334" unicode="(" /><glyph d="M54 400Q54 521 89.5 616Q125 711 176 780H282Q258 745 235.5 702.5Q213 660 195 611.5Q177 563 166.5 510Q156 457 156 400V380Q156 323 166.5 270Q177 217 195 168.5Q213 120 235.5 77.5Q258 35 282 0H176Q125 69 89.5 164Q54 259 54 380Z" glyph-name="parenleft.cap" horiz-adv-x="334" unicode="&#58513;" /><glyph d="M21 0Q21 66 39 113Q57 160 81 190H167Q156 174 145 153.5Q134 133 125 109Q116 85 110 57.5Q104 30 104 0V-10Q104 -71 125 -120Q146 -169 167 -200H81Q57 -171 39 -123.5Q21 -76 21 -10Z" glyph-name="parenleft.inf" horiz-adv-x="185" unicode="&#58750;" /><glyph d="M288 350Q288 263 276 195.5Q264 128 243 72.5Q222 17 194.5 -29.5Q167 -76 136 -120H29Q62 -72 90.5 -22Q119 28 140.5 84Q162 140 174 205.5Q186 271 186 350V370Q186 449 174 514.5Q162 580 140.5 636Q119 692 90.5 742Q62 792 29 840H136Q167 796 194.5 749.5Q222 703 243 647.5Q264 592 276 524.5Q288 457 288 370Z" glyph-name="parenright" horiz-adv-x="334" unicode=")" /><glyph d="M280 380Q280 320 270.5 265.5Q261 211 244.5 163.5Q228 116 206 75Q184 34 159 0H52Q76 35 98.5 77.5Q121 120 139 168.5Q157 217 167.5 270Q178 323 178 380V400Q178 457 167.5 510Q157 563 139 611.5Q121 660 98.5 702.5Q76 745 52 780H159Q184 746 206 705Q228 664 244.5 616.5Q261 569 270.5 514.5Q280 460 280 400Z" glyph-name="parenright.cap" horiz-adv-x="334" unicode="&#58514;" /><glyph d="M163 -10Q163 -76 145.5 -123.5Q128 -171 103 -200H17Q39 -169 59.5 -120Q80 -71 80 -10V0Q80 60 59.5 109Q39 158 17 190H103Q128 160 145.5 113Q163 66 163 0Z" glyph-name="parenright.inf" horiz-adv-x="185" unicode="&#58751;" /><glyph d="M340 639H224V754H340ZM161 147Q168 136 178.5 123.5Q189 111 204 100.5Q219 90 238 83Q257 76 281 76Q347 76 377 123Q407 170 407 251V279Q407 360 377 407Q347 454 281 454Q257 454 238 447Q219 440 204 429.5Q189 419 178.5 406.5Q168 394 161 383ZM307 -12Q253 -12 218 7.5Q183 27 161 56V-200H61V380L54 530H141L151 460Q172 495 209.5 518.5Q247 542 307 542Q361 542 399.5 522Q438 502 462 466.5Q486 431 497 383Q508 335 508 279V251Q508 195 497 147Q486 99 462 63.5Q438 28 399.5 8Q361 -12 307 -12Z" glyph-name="pdotaccent" horiz-adv-x="550" unicode="&#7767;" /><glyph d="M263 0 545 678Q539 677 511.5 671.5Q484 666 446 666Q428 666 411 667.5Q394 669 378 671Q381 658 383 644Q385 630 385 614V603Q385 559 371.5 526Q358 493 334.5 471Q311 449 279 437.5Q247 426 210 426Q173 426 141 437.5Q109 449 85 471Q61 493 47.5 526Q34 559 34 603V614Q34 658 47.5 691Q61 724 85 746.5Q109 769 141 780.5Q173 792 210 792Q251 792 289 776Q329 759 370.5 754.5Q412 750 461 750Q490 750 520 753.5Q550 757 577 761.5Q604 766 624.5 771.5Q645 777 656 782V725L355 0ZM637 163Q637 118 664 93Q691 68 730 68H736Q775 68 802 93Q829 118 829 163V179Q829 224 802 249Q775 274 736 274H730Q691 274 664 249Q637 224 637 179ZM306 617Q306 662 279 687Q252 712 213 712H207Q167 712 140.5 687Q114 662 114 617V601Q114 556 140.5 531Q167 506 207 506H213Q252 506 279 531Q306 556 306 601ZM558 177Q558 220 571.5 253.5Q585 287 608.5 309Q632 331 664 342.5Q696 354 733 354Q770 354 802 342.5Q834 331 857.5 309Q881 287 894.5 253.5Q908 220 908 177V166Q908 122 894.5 89Q881 56 857.5 33.5Q834 11 802 -0.5Q770 -12 733 -12Q696 -12 664 -0.5Q632 11 608.5 33.5Q585 56 571.5 89Q558 122 558 166Z" glyph-name="percent" horiz-adv-x="943" unicode="%" /><glyph d="M174 0H60V114H174Z" glyph-name="period" horiz-adv-x="234" unicode="." /><glyph d="M207 0H93V114H207Z" glyph-name="period.T" horiz-adv-x="300" unicode="&#61826;" /><glyph d="M174 293H60V407H174Z" glyph-name="periodcentered" horiz-adv-x="234" unicode="&#183;" /><glyph d="M174 333H60V447H174Z" glyph-name="periodcentered.cap" horiz-adv-x="234" unicode="&#58497;" /><glyph d="M637 163Q637 118 664 93Q691 68 730 68H736Q775 68 802 93Q829 118 829 163V179Q829 224 802 249Q775 274 736 274H730Q691 274 664 249Q637 224 637 179ZM1037 163Q1037 118 1064 93Q1091 68 1130 68H1136Q1175 68 1202 93Q1229 118 1229 163V179Q1229 224 1202 249Q1175 274 1136 274H1130Q1091 274 1064 249Q1037 224 1037 179ZM306 617Q306 662 279 687Q252 712 213 712H207Q167 712 140.5 687Q114 662 114 617V601Q114 556 140.5 531Q167 506 207 506H213Q252 506 279 531Q306 556 306 601ZM958 177Q958 220 971.5 253.5Q985 287 1008.5 309Q1032 331 1064 342.5Q1096 354 1133 354Q1170 354 1202 342.5Q1234 331 1257.5 309Q1281 287 1294.5 253.5Q1308 220 1308 177V166Q1308 122 1294.5 89Q1281 56 1257.5 33.5Q1234 11 1202 -0.5Q1170 -12 1133 -12Q1096 -12 1064 -0.5Q1032 11 1008.5 33.5Q985 56 971.5 89Q958 122 958 166ZM558 177Q558 220 571.5 253.5Q585 287 608.5 309Q632 331 664 342.5Q696 354 733 354Q770 354 802 342.5Q834 331 857.5 309Q881 287 894.5 253.5Q908 220 908 177V166Q908 122 894.5 89Q881 56 857.5 33.5Q834 11 802 -0.5Q770 -12 733 -12Q696 -12 664 -0.5Q632 11 608.5 33.5Q585 56 571.5 89Q558 122 558 166ZM263 0 545 678Q539 677 511.5 671.5Q484 666 446 666Q428 666 411 667.5Q394 669 378 671Q381 658 383 644Q385 630 385 614V603Q385 559 371.5 526Q358 493 334.5 471Q311 449 279 437.5Q247 426 210 426Q173 426 141 437.5Q109 449 85 471Q61 493 47.5 526Q34 559 34 603V614Q34 658 47.5 691Q61 724 85 746.5Q109 769 141 780.5Q173 792 210 792Q251 792 289 776Q329 759 370.5 754.5Q412 750 461 750Q490 750 520 753.5Q550 757 577 761.5Q604 766 624.5 771.5Q645 777 656 782V725L355 0Z" glyph-name="perthousand" horiz-adv-x="1342" unicode="&#8240;" /><glyph d="M346 644V436H554V344H346V136H254V344H46V436H254V644Z" glyph-name="plus" horiz-adv-x="600" unicode="+" /><glyph d="M187 124V32H279V-42H187V-134H113V-42H21V32H113V124Z" glyph-name="plus.inf" horiz-adv-x="300" unicode="&#58747;" /><glyph d="M46 245H554V152H46ZM346 657V529H554V436H346V309H254V436H46V529H254V657Z" glyph-name="plusminus" horiz-adv-x="600" unicode="&#177;" /><glyph d="M478 401Q491 401 504.5 404Q518 407 529.5 415Q541 423 548 437Q555 451 555 474V481Q555 503 548 517.5Q541 532 529.5 540Q518 548 504.5 551Q491 554 478 554H384V401ZM384 155H291V625H495Q522 625 549.5 619Q577 613 598.5 597Q620 581 634 553.5Q648 526 648 483V472Q648 429 634 401.5Q620 374 598.5 358Q577 342 549.5 336Q522 330 495 330H384ZM106 390Q106 316 133.5 251.5Q161 187 209 139Q257 91 321.5 63.5Q386 36 460 36Q533 36 597.5 63.5Q662 91 710 139Q758 187 786 251.5Q814 316 814 390Q814 463 786 527.5Q758 592 710 640Q662 688 597.5 716Q533 744 460 744Q386 744 321.5 716Q257 688 209 640Q161 592 133.5 527.5Q106 463 106 390ZM58 390Q58 473 89.5 546.5Q121 620 175.5 674.5Q230 729 303.5 760.5Q377 792 460 792Q543 792 616.5 760.5Q690 729 744.5 674.5Q799 620 830.5 546.5Q862 473 862 390Q862 307 830.5 233.5Q799 160 744.5 105.5Q690 51 616.5 19.5Q543 -12 460 -12Q377 -12 303.5 19.5Q230 51 175.5 105.5Q121 160 89.5 233.5Q58 307 58 390Z" glyph-name="published" horiz-adv-x="920" unicode="&#8471;" /><glyph glyph-name="punctuationspace" horiz-adv-x="180" unicode="&#8200;" /><glyph d="M390 383Q383 394 372.5 406.5Q362 419 347 429.5Q332 440 313 447Q294 454 270 454Q205 454 175 407Q145 360 145 279V251Q145 170 175 123Q205 76 270 76Q294 76 313 83Q332 90 347 100.5Q362 111 372.5 123.5Q383 136 390 147ZM390 54Q367 25 332 6.5Q297 -12 245 -12Q191 -12 152.5 8Q114 28 90 63.5Q66 99 55 147Q44 195 44 251V279Q44 335 55 383Q66 431 90 466.5Q114 502 152.5 522Q191 542 245 542Q303 542 340.5 518.5Q378 495 399 461L410 530H497L490 380V-200H390Z" glyph-name="q" horiz-adv-x="553" unicode="q" /><glyph d="M290 0H176V114H290ZM239 701Q206 701 184.5 688Q163 675 150.5 650.5Q138 626 132.5 590.5Q127 555 127 509H25V522Q25 582 35 631.5Q45 681 69.5 717Q94 753 135.5 772.5Q177 792 239 792Q296 792 335.5 776Q375 760 399 732.5Q423 705 434 667Q445 629 445 586Q445 536 432.5 502Q420 468 401 441.5Q382 415 360 393Q338 371 318 345Q298 319 284 285.5Q270 252 267 203H198Q195 252 205 290.5Q215 329 231 360.5Q247 392 266.5 418.5Q286 445 302.5 470.5Q319 496 330.5 522.5Q342 549 342 580Q342 634 320 667.5Q298 701 239 701Z" glyph-name="question" horiz-adv-x="470" unicode="?" /><glyph d="M180 530H294V416H180ZM231 -121Q296 -121 319.5 -74.5Q343 -28 343 60H445V46Q445 -12 435 -59.5Q425 -107 400.5 -141Q376 -175 334.5 -193.5Q293 -212 231 -212Q176 -212 137 -197.5Q98 -183 73 -157.5Q48 -132 36.5 -98Q25 -64 25 -26Q25 23 37.5 56.5Q50 90 69 115.5Q88 141 110 161Q132 181 152 204Q172 227 186 256Q200 285 202 327H272Q274 285 264.5 251.5Q255 218 239 189.5Q223 161 203.5 136.5Q184 112 167.5 87.5Q151 63 139.5 37.5Q128 12 128 -17Q128 -65 151.5 -93Q175 -121 231 -121Z" glyph-name="questiondown" horiz-adv-x="470" unicode="&#191;" /><glyph d="M180 780H294V666H180ZM231 79Q296 79 319.5 129Q343 179 343 271H445V258Q445 198 435 148.5Q425 99 400.5 63Q376 27 334.5 7.5Q293 -12 231 -12Q174 -12 134.5 4Q95 20 71 47.5Q47 75 36 112.5Q25 150 25 194Q25 244 37.5 278Q50 312 69 338.5Q88 365 110 387Q132 409 152 435Q172 461 186 494.5Q200 528 203 577H272Q274 528 264.5 489.5Q255 451 239 419.5Q223 388 203.5 361.5Q184 335 167.5 309.5Q151 284 139.5 257.5Q128 231 128 200Q128 146 150 112.5Q172 79 231 79Z" glyph-name="questiondown.cap" horiz-adv-x="470" unicode="&#58436;" /><glyph d="M316 780 297 492H222L212 780ZM164 780 155 492H79L61 780Z" glyph-name="quotedbl" horiz-adv-x="377" unicode="&quot;" /><glyph d="M344 24Q344 -127 212 -127V-71Q246 -71 264.5 -54.5Q283 -38 288 0H230V114H344ZM174 24Q174 -127 42 -127V-71Q76 -71 94.5 -54.5Q113 -38 118 0H60V114H174Z" glyph-name="quotedblbase" horiz-adv-x="404" unicode="&#8222;" /><glyph d="M230 648Q230 799 362 799V743Q328 743 309.5 726.5Q291 710 286 672H344V558H230ZM60 648Q60 799 192 799V743Q158 743 139.5 726.5Q121 710 116 672H174V558H60Z" glyph-name="quotedblleft" horiz-adv-x="404" unicode="&#8220;" /><glyph d="M344 690Q344 539 212 539V595Q246 595 264.5 611.5Q283 628 288 666H230V780H344ZM174 690Q174 539 42 539V595Q76 595 94.5 611.5Q113 628 118 666H60V780H174Z" glyph-name="quotedblright" horiz-adv-x="404" unicode="&#8221;" /><glyph d="M60 648Q60 799 192 799V743Q158 743 139.5 726.5Q121 710 116 672H174V558H60Z" glyph-name="quoteleft" horiz-adv-x="234" unicode="&#8216;" /><glyph d="M174 690Q174 539 42 539V595Q76 595 94.5 611.5Q113 628 118 666H60V780H174Z" glyph-name="quoteright" horiz-adv-x="234" unicode="&#8217;" /><glyph d="M174 24Q174 -127 42 -127V-71Q76 -71 94.5 -54.5Q113 -38 118 0H60V114H174Z" glyph-name="quotesinglbase" horiz-adv-x="234" unicode="&#8218;" /><glyph d="M173 780 155 492H79L61 780Z" glyph-name="quotesingle" horiz-adv-x="234" unicode="&apos;" /><glyph d="M297 542Q302 542 306 541.5Q310 541 312 541V445H294Q266 445 244.5 438.5Q223 432 207 422Q191 412 180 400Q169 388 162 377V0H62V380L55 530H141L151 462Q174 496 210 519Q246 542 297 542Z" glyph-name="r" horiz-adv-x="350" unicode="r" /><glyph d="M337 780 238 607H136L227 780ZM297 542Q302 542 306 541.5Q310 541 312 541V445H294Q266 445 244.5 438.5Q223 432 207 422Q191 412 180 400Q169 388 162 377V0H62V380L55 530H141L151 462Q174 496 210 519Q246 542 297 542Z" glyph-name="racute" horiz-adv-x="350" unicode="&#341;" /><glyph d="M102 780 187 678 272 780H366L234 607H140L8 780ZM297 542Q302 542 306 541.5Q310 541 312 541V445H294Q266 445 244.5 438.5Q223 432 207 422Q191 412 180 400Q169 388 162 377V0H62V380L55 530H141L151 462Q174 496 210 519Q246 542 297 542Z" glyph-name="rcaron" horiz-adv-x="350" unicode="&#345;" /><glyph d="M163 -105Q163 -219 43 -219V-176Q72 -176 91.5 -165.5Q111 -155 118 -129H61V-51H163ZM297 542Q302 542 306 541.5Q310 541 312 541V445H294Q266 445 244.5 438.5Q223 432 207 422Q191 412 180 400Q169 388 162 377V0H62V380L55 530H141L151 462Q174 496 210 519Q246 542 297 542Z" glyph-name="rcommaaccent" horiz-adv-x="350" unicode="&#343;" /><glyph d="M191 696Q191 717 167 717H139V672H167Q191 672 191 693ZM234 691Q234 671 226 659.5Q218 648 204 643L234 579H190L165 638H139V579H96V751H176Q199 751 216.5 739Q234 727 234 698ZM42 665Q42 639 51.5 617Q61 595 78 578Q95 561 117 551.5Q139 542 165 542Q190 542 212.5 551.5Q235 561 252 578Q269 595 278.5 617Q288 639 288 665Q288 690 278.5 712.5Q269 735 252 752Q235 769 212.5 778.5Q190 788 165 788Q139 788 117 778.5Q95 769 78 752Q61 735 51.5 712.5Q42 690 42 665ZM18 665Q18 695 29.5 722Q41 749 61 769Q81 789 108 800.5Q135 812 165 812Q195 812 222 800.5Q249 789 269 769Q289 749 300.5 722Q312 695 312 665Q312 635 300.5 608Q289 581 269 561Q249 541 222 529.5Q195 518 165 518Q135 518 108 529.5Q81 541 61 561Q41 581 29.5 608Q18 635 18 665Z" glyph-name="registered" horiz-adv-x="330" unicode="&#174;" /><glyph d="M470 401Q483 401 496.5 404Q510 407 521.5 415Q533 423 540 437Q547 451 547 474V481Q547 503 540 517.5Q533 532 521.5 540Q510 548 496.5 551Q483 554 470 554H376V401ZM376 155H283V625H486Q513 625 540.5 619Q568 613 590 597Q612 581 626 553.5Q640 526 640 483V472Q640 417 618.5 387.5Q597 358 565 344L640 155H541L480 330H376ZM106 390Q106 316 133.5 251.5Q161 187 209 139Q257 91 321.5 63.5Q386 36 460 36Q533 36 597.5 63.5Q662 91 710 139Q758 187 786 251.5Q814 316 814 390Q814 463 786 527.5Q758 592 710 640Q662 688 597.5 716Q533 744 460 744Q386 744 321.5 716Q257 688 209 640Q161 592 133.5 527.5Q106 463 106 390ZM58 390Q58 473 89.5 546.5Q121 620 175.5 674.5Q230 729 303.5 760.5Q377 792 460 792Q543 792 616.5 760.5Q690 729 744.5 674.5Q799 620 830.5 546.5Q862 473 862 390Q862 307 830.5 233.5Q799 160 744.5 105.5Q690 51 616.5 19.5Q543 -12 460 -12Q377 -12 303.5 19.5Q230 51 175.5 105.5Q121 160 89.5 233.5Q58 307 58 390Z" glyph-name="registered.cap" horiz-adv-x="920" unicode="&#59804;" /><glyph d="M230 780H344V666H286Q291 628 309.5 611.5Q328 595 362 595V539Q230 539 230 690ZM60 780H174V666H116Q121 628 139.5 611.5Q158 595 192 595V539Q60 539 60 690Z" glyph-name="reversequotedblleft" horiz-adv-x="404" unicode="&#8223;" /><glyph d="M60 780H174V666H116Q121 628 139.5 611.5Q158 595 192 595V539Q60 539 60 690Z" glyph-name="reversequoteleft" horiz-adv-x="234" unicode="&#8219;" /><glyph d="M196 694Q196 671 211.5 655Q227 639 250 639Q273 639 288.5 655Q304 671 304 694Q304 716 288.5 732Q273 748 250 748Q227 748 211.5 732Q196 716 196 694ZM152 694Q152 735 180.5 763.5Q209 792 250 792Q291 792 319.5 763.5Q348 735 348 694Q348 652 319.5 623.5Q291 595 250 595Q209 595 180.5 623.5Q152 652 152 694Z" glyph-name="ring" horiz-adv-x="500" unicode="&#730;" /><glyph d="M196 864Q196 841 211.5 825Q227 809 250 809Q273 809 288.5 825Q304 841 304 864Q304 886 288.5 902Q273 918 250 918Q227 918 211.5 902Q196 886 196 864ZM152 864Q152 905 180.5 933.5Q209 962 250 962Q291 962 319.5 933.5Q348 905 348 864Q348 822 319.5 793.5Q291 765 250 765Q209 765 180.5 793.5Q152 822 152 864Z" glyph-name="ring.cap" horiz-adv-x="500" unicode="&#58410;" /><glyph d="M311 395Q333 395 358 400.5Q383 406 404 421Q425 436 439 463.5Q453 491 453 535V548Q453 592 439 619.5Q425 647 404 662Q383 677 358 682.5Q333 688 311 688H207V395ZM207 250H407V158H207V0H103V158H21V250H103V304H21V395H103V780H308Q352 780 396.5 771Q441 762 477 737Q513 712 536 667.5Q559 623 559 552V532Q559 461 536 416.5Q513 372 477 347Q441 322 396.5 313Q352 304 308 304H207Z" glyph-name="ruble" horiz-adv-x="600" unicode="&#8381;" /><glyph d="M262 68Q318 68 345.5 90.5Q373 113 373 150Q373 193 345 210Q317 227 250 232Q196 237 158.5 248Q121 259 98.5 276.5Q76 294 66 319Q56 344 56 376V383Q56 460 112 501Q168 542 262 542Q318 542 357.5 529Q397 516 421.5 492Q446 468 457.5 435Q469 402 469 362V358H370Q370 406 346.5 434Q323 462 262 462Q211 462 183.5 442Q156 422 156 385Q156 367 161 353.5Q166 340 179 330Q192 320 215 314Q238 308 274 305Q324 301 361.5 292Q399 283 424.5 266Q450 249 462.5 222.5Q475 196 475 158V152Q475 78 421 33Q367 -12 262 -12Q205 -12 164.5 2.5Q124 17 98.5 41Q73 65 61.5 96Q50 127 50 160V164H149Q149 145 154.5 128Q160 111 173 97.5Q186 84 207.5 76Q229 68 262 68Z" glyph-name="s" horiz-adv-x="524" unicode="s" /><glyph d="M412 780 313 607H211L302 780ZM262 68Q318 68 345.5 90.5Q373 113 373 150Q373 193 345 210Q317 227 250 232Q196 237 158.5 248Q121 259 98.5 276.5Q76 294 66 319Q56 344 56 376V383Q56 460 112 501Q168 542 262 542Q318 542 357.5 529Q397 516 421.5 492Q446 468 457.5 435Q469 402 469 362V358H370Q370 406 346.5 434Q323 462 262 462Q211 462 183.5 442Q156 422 156 385Q156 367 161 353.5Q166 340 179 330Q192 320 215 314Q238 308 274 305Q324 301 361.5 292Q399 283 424.5 266Q450 249 462.5 222.5Q475 196 475 158V152Q475 78 421 33Q367 -12 262 -12Q205 -12 164.5 2.5Q124 17 98.5 41Q73 65 61.5 96Q50 127 50 160V164H149Q149 145 154.5 128Q160 111 173 97.5Q186 84 207.5 76Q229 68 262 68Z" glyph-name="sacute" horiz-adv-x="524" unicode="&#347;" /><glyph d="M177 780 262 678 347 780H441L309 607H215L83 780ZM262 68Q318 68 345.5 90.5Q373 113 373 150Q373 193 345 210Q317 227 250 232Q196 237 158.5 248Q121 259 98.5 276.5Q76 294 66 319Q56 344 56 376V383Q56 460 112 501Q168 542 262 542Q318 542 357.5 529Q397 516 421.5 492Q446 468 457.5 435Q469 402 469 362V358H370Q370 406 346.5 434Q323 462 262 462Q211 462 183.5 442Q156 422 156 385Q156 367 161 353.5Q166 340 179 330Q192 320 215 314Q238 308 274 305Q324 301 361.5 292Q399 283 424.5 266Q450 249 462.5 222.5Q475 196 475 158V152Q475 78 421 33Q367 -12 262 -12Q205 -12 164.5 2.5Q124 17 98.5 41Q73 65 61.5 96Q50 127 50 160V164H149Q149 145 154.5 128Q160 111 173 97.5Q186 84 207.5 76Q229 68 262 68Z" glyph-name="scaron" horiz-adv-x="524" unicode="&#353;" /><glyph d="M186 -139Q198 -146 217 -150.5Q236 -155 256 -155Q310 -155 310 -126Q310 -111 295 -105Q280 -99 253 -99Q247 -99 241.5 -99.5Q236 -100 231 -101Q226 -102 221 -102L204 -77L229 -10Q181 -6 147 9.5Q113 25 91.5 48.5Q70 72 60 100.5Q50 129 50 160V164H149Q149 145 154.5 128Q160 111 173 97.5Q186 84 207.5 76Q229 68 262 68Q318 68 345.5 90.5Q373 113 373 150Q373 193 345 210Q317 227 250 232Q196 237 158.5 248Q121 259 98.5 276.5Q76 294 66 319Q56 344 56 376V383Q56 460 112 501Q168 542 262 542Q318 542 357.5 529Q397 516 421.5 492Q446 468 457.5 435Q469 402 469 362V358H370Q370 406 346.5 434Q323 462 262 462Q211 462 183.5 442Q156 422 156 385Q156 367 161 353.5Q166 340 179 330Q192 320 215 314Q238 308 274 305Q324 301 361.5 292Q399 283 424.5 266Q450 249 462.5 222.5Q475 196 475 158V152Q475 83 427 38.5Q379 -6 286 -11L272 -50Q292 -50 310.5 -55Q329 -60 343 -69.5Q357 -79 365.5 -94.5Q374 -110 374 -131Q374 -173 345 -193Q316 -213 265 -213Q234 -213 208 -206.5Q182 -200 168 -191Z" glyph-name="scedilla" horiz-adv-x="524" unicode="&#351;" /><glyph d="M83 607 215 780H309L441 607H347L262 709L177 607ZM262 68Q318 68 345.5 90.5Q373 113 373 150Q373 193 345 210Q317 227 250 232Q196 237 158.5 248Q121 259 98.5 276.5Q76 294 66 319Q56 344 56 376V383Q56 460 112 501Q168 542 262 542Q318 542 357.5 529Q397 516 421.5 492Q446 468 457.5 435Q469 402 469 362V358H370Q370 406 346.5 434Q323 462 262 462Q211 462 183.5 442Q156 422 156 385Q156 367 161 353.5Q166 340 179 330Q192 320 215 314Q238 308 274 305Q324 301 361.5 292Q399 283 424.5 266Q450 249 462.5 222.5Q475 196 475 158V152Q475 78 421 33Q367 -12 262 -12Q205 -12 164.5 2.5Q124 17 98.5 41Q73 65 61.5 96Q50 127 50 160V164H149Q149 145 154.5 128Q160 111 173 97.5Q186 84 207.5 76Q229 68 262 68Z" glyph-name="scircumflex" horiz-adv-x="524" unicode="&#349;" /><glyph d="M313 -105Q313 -219 193 -219V-176Q222 -176 241.5 -165.5Q261 -155 268 -129H211V-51H313ZM262 68Q318 68 345.5 90.5Q373 113 373 150Q373 193 345 210Q317 227 250 232Q196 237 158.5 248Q121 259 98.5 276.5Q76 294 66 319Q56 344 56 376V383Q56 460 112 501Q168 542 262 542Q318 542 357.5 529Q397 516 421.5 492Q446 468 457.5 435Q469 402 469 362V358H370Q370 406 346.5 434Q323 462 262 462Q211 462 183.5 442Q156 422 156 385Q156 367 161 353.5Q166 340 179 330Q192 320 215 314Q238 308 274 305Q324 301 361.5 292Q399 283 424.5 266Q450 249 462.5 222.5Q475 196 475 158V152Q475 78 421 33Q367 -12 262 -12Q205 -12 164.5 2.5Q124 17 98.5 41Q73 65 61.5 96Q50 127 50 160V164H149Q149 145 154.5 128Q160 111 173 97.5Q186 84 207.5 76Q229 68 262 68Z" glyph-name="scommaaccent" horiz-adv-x="524" unicode="&#537;" /><glyph d="M385 390Q385 435 359 453.5Q333 472 273 477H257Q199 477 169.5 453Q140 429 140 390Q140 346 166.5 327Q193 308 253 303H269Q327 303 356 327Q385 351 385 390ZM488 391Q488 300 407 263Q433 243 445 216Q457 189 457 154V147Q457 70 401 29Q345 -12 251 -12Q195 -12 155.5 1Q116 14 91.5 37.5Q67 61 55.5 94Q44 127 44 168V172H143Q143 124 166.5 96.5Q190 69 251 69Q301 69 328.5 89Q356 109 356 146Q356 163 351 177Q346 191 333 201.5Q320 212 297.5 219Q275 226 239 229Q139 236 88.5 269.5Q38 303 38 383V389Q38 479 119 517Q92 536 80 563.5Q68 591 68 626V633Q68 710 124.5 751Q181 792 275 792Q331 792 370.5 779Q410 766 434.5 742.5Q459 719 470.5 685.5Q482 652 482 612V608H382Q382 656 359 683.5Q336 711 275 711Q224 711 196.5 691Q169 671 169 634Q169 617 174 603Q179 589 192 578.5Q205 568 228 561Q251 554 287 551Q337 547 374.5 537.5Q412 528 437.5 510Q463 492 475.5 464.5Q488 437 488 397Z" glyph-name="section" horiz-adv-x="526" unicode="&#167;" /><glyph d="M174 333H60V447H174ZM174 24Q174 -127 42 -127V-71Q76 -71 94.5 -54.5Q113 -38 118 0H60V114H174Z" glyph-name="semicolon" horiz-adv-x="234" unicode=";" /><glyph d="M207 333H93V447H207ZM207 24Q207 -127 75 -127V-71Q109 -71 127.5 -54.5Q146 -38 151 0H93V114H207Z" glyph-name="semicolon.T" horiz-adv-x="300" unicode="&#61829;" /><glyph d="M389 530H335L284 719L286 654V530H237V800H312L362 613L412 800H487V530H437V654L439 719ZM102 645Q57 651 38 669Q19 687 19 722V726Q19 763 42.5 785Q66 807 111 807Q161 807 182 783.5Q203 760 203 712V704H153Q153 734 144 748Q135 762 112 762H109Q69 762 69 729V727Q69 710 80 701.5Q91 693 120 688Q165 682 185 664Q205 646 205 610V605Q205 567 181.5 544Q158 521 111 521Q16 521 16 619V622H66Q66 593 76 579.5Q86 566 110 566H113Q154 566 154 603V605Q154 622 142.5 631.5Q131 641 102 645Z" glyph-name="servicemark" horiz-adv-x="536" unicode="&#8480;" /><glyph d="M50 780H556V717L264 0H155L440 690L334 688H142V500H50Z" glyph-name="seven" horiz-adv-x="600" unicode="7" /><glyph d="M17 190H283V138L146 -200H56L190 117L143 116H90V50H17Z" glyph-name="seven.inf" horiz-adv-x="300" unicode="&#58744;" /><glyph d="M951 173Q937 173 924 166Q911 159 903 145V130Q903 98 916 82Q929 66 949 66H952Q971 66 984.5 79Q998 92 998 115V125Q998 151 985.5 162Q973 173 954 173ZM17 780H283V728L146 390H56L190 707L143 706H90V640H17ZM533 0V73H618V287L559 247L517 308L639 390H702V73H786V0ZM1061 322Q1018 322 988 311.5Q958 301 938 277Q921 257 914 229Q925 237 940 241.5Q955 246 972 246Q1022 246 1051.5 213.5Q1081 181 1081 123V118Q1081 60 1048.5 26.5Q1016 -7 950 -7Q886 -7 852.5 32.5Q819 72 819 136V144Q819 191 830.5 236Q842 281 874 323Q906 367 953.5 381.5Q1001 396 1061 396ZM60 0 636 780H740L164 0Z" glyph-name="sevensixteenths" horiz-adv-x="1100" unicode="&#61976;" /><glyph d="M305 399Q255 399 214 374Q173 349 151 305V260Q151 217 162.5 183.5Q174 150 194.5 127Q215 104 242 92Q269 80 300 80H306Q372 80 412.5 119Q453 158 453 232V249Q453 324 414 361.5Q375 399 310 399ZM519 699Q438 699 364.5 671Q291 643 240 577Q214 544 197.5 507.5Q181 471 170 430Q199 457 237.5 474Q276 491 327 491Q377 491 419 475Q461 459 491.5 428Q522 397 539 351Q556 305 556 245V235Q556 114 488.5 51Q421 -12 303 -12Q246 -12 199 7Q152 26 118.5 62Q85 98 67 149.5Q49 201 49 267V278Q49 371 73 462Q97 553 159 636Q191 679 232 709Q273 739 319.5 757.5Q366 776 417 784Q468 792 519 792Z" glyph-name="six" horiz-adv-x="600" unicode="6" /><glyph d="M151 -27Q137 -27 124 -33.5Q111 -40 103 -54V-70Q103 -102 116 -118Q129 -134 149 -134H152Q171 -134 184.5 -121Q198 -108 198 -85V-75Q198 -49 185.5 -38Q173 -27 154 -27ZM261 122Q218 122 188 111.5Q158 101 138 77Q121 57 114 29Q125 37 140 41.5Q155 46 172 46Q222 46 251.5 13.5Q281 -19 281 -77V-82Q281 -140 248.5 -173.5Q216 -207 150 -207Q86 -207 52.5 -167.5Q19 -128 19 -64V-56Q19 -9 30.5 36Q42 81 74 123Q106 167 153.5 181.5Q201 196 261 196Z" glyph-name="six.inf" horiz-adv-x="300" unicode="&#58743;" /><glyph glyph-name="sixperemspace" horiz-adv-x="167" unicode="&#8198;" /><glyph d="M115 -120H15L245 840H345Z" glyph-name="slash" horiz-adv-x="360" unicode="/" /><glyph d="M25 0 217 780H317L125 0Z" glyph-name="slash.cap" horiz-adv-x="343" unicode="&#58465;" /><glyph glyph-name="space" horiz-adv-x="200" unicode=" " /><glyph d="M451 790Q463 771 486 742.5Q509 714 540 682Q571 650 607.5 618Q644 586 684 560Q717 539 746.5 515.5Q776 492 798.5 464.5Q821 437 834.5 405Q848 373 848 334Q848 297 834.5 265.5Q821 234 797 210.5Q773 187 741 173.5Q709 160 672 160Q635 160 604 173.5Q573 187 548 209.5Q523 232 504 261Q485 290 472 321L469 320Q473 269 479.5 227Q486 185 495.5 147Q505 109 518.5 73Q532 37 551 0H349Q368 37 381.5 73Q395 109 404.5 147Q414 185 420.5 227Q427 269 431 320L428 321Q415 290 396 261Q377 232 352 209.5Q327 187 296 173.5Q265 160 228 160Q191 160 159 173.5Q127 187 103 210.5Q79 234 65.5 265.5Q52 297 52 334Q52 373 65.5 405Q79 437 101.5 464.5Q124 492 153.5 515.5Q183 539 216 560Q256 586 292.5 618Q329 650 360 682Q391 714 414 742.5Q437 771 449 790Z" glyph-name="spade" horiz-adv-x="900" unicode="&#9824;" /><glyph d="M219 215 394 390 219 565 285 631 460 456 635 631 701 565 526 390 701 215 635 149 460 324 285 149ZM161 689V91H759V689ZM70 0V780H850V0Z" glyph-name="squaremultiply" horiz-adv-x="920" unicode="&#8864;" /><glyph d="M326 701Q266 701 238.5 665.5Q211 630 211 570Q211 535 217.5 498.5Q224 462 234 423H426V332H258Q273 277 285.5 217.5Q298 158 302 92H549V0H51V92H212Q206 158 189 216.5Q172 275 154 332H51V423H128Q119 459 113.5 497.5Q108 536 108 579Q108 623 120.5 662Q133 701 159.5 730Q186 759 227.5 775.5Q269 792 326 792Q388 792 431 772Q474 752 500.5 716Q527 680 539 628.5Q551 577 551 514V500H449Q449 592 420 646.5Q391 701 326 701Z" glyph-name="sterling" horiz-adv-x="600" unicode="&#163;" /><glyph d="M368 530V441H210V171Q210 142 216 123.5Q222 105 234 94.5Q246 84 263 80Q280 76 303 76Q319 76 335.5 79Q352 82 358 84V0Q352 -3 332.5 -7.5Q313 -12 280 -12Q242 -12 211 -3Q180 6 157.5 26.5Q135 47 122.5 80Q110 113 110 160V441H27V530H110V680H210V530Z" glyph-name="t" horiz-adv-x="411" unicode="t" /><glyph d="M368 530V441H210V303H328V227H210V171Q210 142 216 123.5Q222 105 234 94.5Q246 84 263 80Q280 76 303 76Q319 76 335.5 79Q352 82 358 84V0Q352 -3 332.5 -7.5Q313 -12 280 -12Q242 -12 211 -3Q180 6 157.5 26.5Q135 47 122.5 80Q110 113 110 160V227H35V303H110V441H27V530H110V680H210V530Z" glyph-name="tbar" horiz-adv-x="411" unicode="&#359;" /><glyph d="M350 800 329 607H277V800ZM368 530V441H210V171Q210 142 216 123.5Q222 105 234 94.5Q246 84 263 80Q280 76 303 76Q319 76 335.5 79Q352 82 358 84V0Q352 -3 332.5 -7.5Q313 -12 280 -12Q242 -12 211 -3Q180 6 157.5 26.5Q135 47 122.5 80Q110 113 110 160V441H27V530H110V680H210V530Z" glyph-name="tcaron" horiz-adv-x="411" unicode="&#357;" /><glyph d="M285 -105Q285 -219 165 -219V-176Q194 -176 213.5 -165.5Q233 -155 240 -129H183V-51H285ZM368 530V441H210V171Q210 142 216 123.5Q222 105 234 94.5Q246 84 263 80Q280 76 303 76Q319 76 335.5 79Q352 82 358 84V0Q352 -3 332.5 -7.5Q313 -12 280 -12Q242 -12 211 -3Q180 6 157.5 26.5Q135 47 122.5 80Q110 113 110 160V441H27V530H110V680H210V530Z" glyph-name="tcommaaccent" horiz-adv-x="411" unicode="&#355;" /><glyph d="M209 734H111V816H209ZM368 530V441H210V171Q210 142 216 123.5Q222 105 234 94.5Q246 84 263 80Q280 76 303 76Q319 76 335.5 79Q352 82 358 84V0Q352 -3 332.5 -7.5Q313 -12 280 -12Q242 -12 211 -3Q180 6 157.5 26.5Q135 47 122.5 80Q110 113 110 160V441H27V530H110V680H210V530Z" glyph-name="tdotaccent" horiz-adv-x="411" unicode="&#7787;" /><glyph glyph-name="thinspace" horiz-adv-x="150" unicode="&#8201;" /><glyph d="M1251 173Q1237 173 1224 166Q1211 159 1203 145V130Q1203 98 1216 82Q1229 66 1249 66H1252Q1271 66 1284.5 79Q1298 92 1298 115V125Q1298 151 1285.5 162Q1273 173 1254 173ZM833 0V73H918V287L859 247L817 308L939 390H1002V73H1086V0ZM33 390V463H118V677L59 637L17 698L139 780H202V463H286V390ZM402 515Q402 481 415 468.5Q428 456 447 456H452Q470 456 484 467.5Q498 479 498 504V509Q498 530 485.5 541Q473 552 453 552H400V626H452Q495 626 495 667V673Q495 691 483 702Q471 713 452 713H447Q428 713 416.5 699Q405 685 405 650H321V660Q321 723 352.5 754.5Q384 786 450 786Q486 786 510.5 776Q535 766 550.5 751Q566 736 572.5 717.5Q579 699 579 682V673Q579 641 566 620.5Q553 600 534 589Q554 577 567.5 556.5Q581 536 581 504V495Q581 477 574 457Q567 437 551 420.5Q535 404 510.5 393.5Q486 383 450 383Q384 383 351 415.5Q318 448 318 508V515ZM1361 322Q1318 322 1288 311.5Q1258 301 1238 277Q1221 257 1214 229Q1225 237 1240 241.5Q1255 246 1272 246Q1322 246 1351.5 213.5Q1381 181 1381 123V118Q1381 60 1348.5 26.5Q1316 -7 1250 -7Q1186 -7 1152.5 32.5Q1119 72 1119 136V144Q1119 191 1130.5 236Q1142 281 1174 323Q1206 367 1253.5 381.5Q1301 396 1361 396ZM360 0 936 780H1040L464 0Z" glyph-name="thirteensixteenths" horiz-adv-x="1400" unicode="&#61985;" /><glyph d="M161 147Q168 136 178.5 123.5Q189 111 204 100.5Q219 90 238 83Q257 76 281 76Q347 76 377 123Q407 170 407 251V279Q407 360 377 407Q347 454 281 454Q257 454 238 447Q219 440 204 429.5Q189 419 178.5 406.5Q168 394 161 383ZM161 800V474Q183 503 218 522.5Q253 542 307 542Q361 542 399.5 522Q438 502 462 466.5Q486 431 497 383Q508 335 508 279V251Q508 195 497 147Q486 99 462 63.5Q438 28 399.5 8Q361 -12 307 -12Q253 -12 218 7.5Q183 27 161 56V-200H61V800Z" glyph-name="thorn" horiz-adv-x="550" unicode="&#254;" /><glyph d="M149 250Q149 159 188.5 119Q228 79 295 79H305Q333 79 359.5 87Q386 95 406 111Q426 127 438 152Q450 177 450 211V224Q450 289 411 321Q372 353 312 353H200V443H308Q368 443 406.5 472.5Q445 502 445 565V573Q445 632 406.5 666.5Q368 701 305 701H295Q225 701 189.5 659.5Q154 618 154 520H52V542Q52 664 111.5 728Q171 792 300 792Q363 792 410 775.5Q457 759 487.5 730.5Q518 702 533 664.5Q548 627 548 585V568Q548 502 517.5 460.5Q487 419 440 398Q489 377 521 333Q553 289 553 220V203Q553 160 536 121Q519 82 487 52.5Q455 23 407.5 5.5Q360 -12 300 -12Q171 -12 109 54.5Q47 121 47 238V250Z" glyph-name="three" horiz-adv-x="600" unicode="3" /><glyph d="M102 -75Q102 -109 115 -121.5Q128 -134 147 -134H152Q170 -134 184 -122.5Q198 -111 198 -86V-81Q198 -60 185.5 -49Q173 -38 153 -38H100V36H152Q195 36 195 77V83Q195 101 183 112Q171 123 152 123H147Q128 123 116.5 109Q105 95 105 60H21V70Q21 133 52.5 164.5Q84 196 150 196Q186 196 210.5 186Q235 176 250.5 161Q266 146 272.5 127.5Q279 109 279 92V83Q279 51 266 30.5Q253 10 234 -1Q254 -12 267.5 -33Q281 -54 281 -86V-95Q281 -113 274 -133Q267 -153 251 -169.5Q235 -186 210.5 -196.5Q186 -207 150 -207Q84 -207 51 -174.5Q18 -142 18 -82V-75Z" glyph-name="three.inf" horiz-adv-x="300" unicode="&#58740;" /><glyph glyph-name="threeperemspace" horiz-adv-x="333" unicode="&#8196;" /><glyph d="M40 395H710V305H40Z" glyph-name="threequarteremdash" horiz-adv-x="750" unicode="&#58482;" /><glyph d="M40 435H710V345H40Z" glyph-name="threequarteremdash.cap" horiz-adv-x="750" unicode="&#58501;" /><glyph d="M600 155 624 157H662V230L663 256ZM662 0V83H513V142L667 390H746V157H786V83H746V0ZM102 515Q102 481 115 468.5Q128 456 147 456H152Q170 456 184 467.5Q198 479 198 504V509Q198 530 185.5 541Q173 552 153 552H100V626H152Q195 626 195 667V673Q195 691 183 702Q171 713 152 713H147Q128 713 116.5 699Q105 685 105 650H21V660Q21 723 52.5 754.5Q84 786 150 786Q186 786 210.5 776Q235 766 250.5 751Q266 736 272.5 717.5Q279 699 279 682V673Q279 641 266 620.5Q253 600 234 589Q254 577 267.5 556.5Q281 536 281 504V495Q281 477 274 457Q267 437 251 420.5Q235 404 210.5 393.5Q186 383 150 383Q84 383 51 415.5Q18 448 18 508V515ZM60 0 636 780H740L164 0Z" glyph-name="threequarters" horiz-adv-x="800" unicode="&#190;" /><glyph d="M951 173Q937 173 924 166Q911 159 903 145V130Q903 98 916 82Q929 66 949 66H952Q971 66 984.5 79Q998 92 998 115V125Q998 151 985.5 162Q973 173 954 173ZM533 0V73H618V287L559 247L517 308L639 390H702V73H786V0ZM102 515Q102 481 115 468.5Q128 456 147 456H152Q170 456 184 467.5Q198 479 198 504V509Q198 530 185.5 541Q173 552 153 552H100V626H152Q195 626 195 667V673Q195 691 183 702Q171 713 152 713H147Q128 713 116.5 699Q105 685 105 650H21V660Q21 723 52.5 754.5Q84 786 150 786Q186 786 210.5 776Q235 766 250.5 751Q266 736 272.5 717.5Q279 699 279 682V673Q279 641 266 620.5Q253 600 234 589Q254 577 267.5 556.5Q281 536 281 504V495Q281 477 274 457Q267 437 251 420.5Q235 404 210.5 393.5Q186 383 150 383Q84 383 51 415.5Q18 448 18 508V515ZM1061 322Q1018 322 988 311.5Q958 301 938 277Q921 257 914 229Q925 237 940 241.5Q955 246 972 246Q1022 246 1051.5 213.5Q1081 181 1081 123V118Q1081 60 1048.5 26.5Q1016 -7 950 -7Q886 -7 852.5 32.5Q819 72 819 136V144Q819 191 830.5 236Q842 281 874 323Q906 367 953.5 381.5Q1001 396 1061 396ZM60 0 636 780H740L164 0Z" glyph-name="threesixteenths" horiz-adv-x="1100" unicode="&#61974;" /><glyph d="M102 515Q102 481 115 468.5Q128 456 147 456H152Q170 456 184 467.5Q198 479 198 504V509Q198 530 185.5 541Q173 552 153 552H100V626H152Q195 626 195 667V673Q195 691 183 702Q171 713 152 713H147Q128 713 116.5 699Q105 685 105 650H21V660Q21 723 52.5 754.5Q84 786 150 786Q186 786 210.5 776Q235 766 250.5 751Q266 736 272.5 717.5Q279 699 279 682V673Q279 641 266 620.5Q253 600 234 589Q254 577 267.5 556.5Q281 536 281 504V495Q281 477 274 457Q267 437 251 420.5Q235 404 210.5 393.5Q186 383 150 383Q84 383 51 415.5Q18 448 18 508V515Z" glyph-name="threesuperior" horiz-adv-x="300" unicode="&#179;" /><glyph d="M422 755Q422 690 396 661Q370 632 331 632Q307 632 287 640.5Q267 649 249 659Q231 669 215.5 677.5Q200 686 185 686Q171 686 161 677Q151 668 151 645H78Q78 710 104 739Q130 768 169 768Q193 768 213 759.5Q233 751 251 741Q269 731 284.5 722.5Q300 714 315 714Q329 714 339 723Q349 732 349 755Z" glyph-name="tilde" horiz-adv-x="500" unicode="&#732;" /><glyph d="M413 940Q413 884 388 861Q363 838 326 838Q302 838 282.5 846Q263 854 246 863.5Q229 873 214 881Q199 889 184 889Q170 889 159.5 881Q149 873 149 850H87Q87 906 112 929Q137 952 174 952Q198 952 217.5 944Q237 936 254 926.5Q271 917 286 909Q301 901 316 901Q330 901 340.5 909Q351 917 351 940Z" glyph-name="tilde.cap" horiz-adv-x="500" unicode="&#58404;" /><glyph d="M389 530H335L284 719L286 654V530H237V800H312L362 613L412 800H487V530H437V654L439 719ZM137 530H87V756H18V800H205V756H137Z" glyph-name="trademark" horiz-adv-x="536" unicode="&#8482;" /><glyph d="M63 780H165L465 96L765 780H867L515 -12H415Z" glyph-name="triagdn" horiz-adv-x="930" unicode="&#9660;" /><glyph d="M850 792V690L166 390L850 90V-12L58 340V440Z" glyph-name="triaglf" horiz-adv-x="930" unicode="&#9668;" /><glyph d="M872 340 80 -12V90L764 390L80 690V792L872 440Z" glyph-name="triagrt" horiz-adv-x="930" unicode="&#9658;" /><glyph d="M867 0H765L465 684L165 0H63L415 792H515Z" glyph-name="triagup" horiz-adv-x="930" unicode="&#9650;" /><glyph d="M307 780 297 492H222L212 780ZM458 780 440 492H365L355 780ZM164 780 155 492H79L61 780Z" glyph-name="tripleprime" horiz-adv-x="519" unicode="&#8244;" /><glyph d="M548 92V0H52V64L376 413Q395 433 408 450Q421 467 429.5 483.5Q438 500 441.5 516.5Q445 533 445 553V563Q445 629 406 665Q367 701 304 701H296Q226 701 190 659.5Q154 618 154 520H52V542Q52 664 111.5 728Q171 792 300 792Q363 792 410 775Q457 758 487.5 729.5Q518 701 533 662.5Q548 624 548 581V567Q548 535 543.5 509.5Q539 484 528.5 461Q518 438 501 415Q484 392 459 366L203 91L275 92Z" glyph-name="two" horiz-adv-x="600" unicode="2" /><glyph d="M279 -200H21V-147L170 17Q182 30 188.5 40.5Q195 51 195 68V73Q195 99 183 111Q171 123 152 123H147Q128 123 116.5 109Q105 95 105 60H21V70Q21 133 52.5 164.5Q84 196 150 196Q186 196 210.5 186Q235 176 250.5 160.5Q266 145 272.5 126Q279 107 279 88V78Q279 43 267.5 22Q256 1 235 -22L139 -127H279Z" glyph-name="two.inf" horiz-adv-x="300" unicode="&#58739;" /><glyph d="M279 390H21V443L170 607Q182 620 188.5 630.5Q195 641 195 658V663Q195 689 183 701Q171 713 152 713H147Q128 713 116.5 699Q105 685 105 650H21V660Q21 723 52.5 754.5Q84 786 150 786Q186 786 210.5 776Q235 766 250.5 750.5Q266 735 272.5 716Q279 697 279 678V668Q279 633 267.5 612Q256 591 235 568L139 463H279Z" glyph-name="twosuperior" horiz-adv-x="300" unicode="&#178;" /><glyph d="M156 530V179Q156 129 181.5 102.5Q207 76 255 76Q282 76 303 83Q324 90 339.5 100.5Q355 111 366 123.5Q377 136 384 147V530H484V150L491 0H404L393 73Q369 37 326.5 12.5Q284 -12 218 -12Q177 -12 146.5 1.5Q116 15 96 38.5Q76 62 66 94Q56 126 56 163V530Z" glyph-name="u" horiz-adv-x="545" unicode="u" /><glyph d="M420 780 321 607H219L310 780ZM156 530V179Q156 129 181.5 102.5Q207 76 255 76Q282 76 303 83Q324 90 339.5 100.5Q355 111 366 123.5Q377 136 384 147V530H484V150L491 0H404L393 73Q369 37 326.5 12.5Q284 -12 218 -12Q177 -12 146.5 1.5Q116 15 96 38.5Q76 62 66 94Q56 126 56 163V530Z" glyph-name="uacute" horiz-adv-x="545" unicode="&#250;" /><glyph d="M270 595Q224 595 191.5 609Q159 623 138.5 647.5Q118 672 108.5 706Q99 740 100 780H177Q177 730 199.5 703Q222 676 270 676Q318 676 340.5 703Q363 730 363 780H440Q441 740 431.5 706Q422 672 401.5 647.5Q381 623 348.5 609Q316 595 270 595ZM156 530V179Q156 129 181.5 102.5Q207 76 255 76Q282 76 303 83Q324 90 339.5 100.5Q355 111 366 123.5Q377 136 384 147V530H484V150L491 0H404L393 73Q369 37 326.5 12.5Q284 -12 218 -12Q177 -12 146.5 1.5Q116 15 96 38.5Q76 62 66 94Q56 126 56 163V530Z" glyph-name="ubreve" horiz-adv-x="545" unicode="&#365;" /><glyph d="M91 607 223 780H317L449 607H355L270 709L185 607ZM156 530V179Q156 129 181.5 102.5Q207 76 255 76Q282 76 303 83Q324 90 339.5 100.5Q355 111 366 123.5Q377 136 384 147V530H484V150L491 0H404L393 73Q369 37 326.5 12.5Q284 -12 218 -12Q177 -12 146.5 1.5Q116 15 96 38.5Q76 62 66 94Q56 126 56 163V530Z" glyph-name="ucircumflex" horiz-adv-x="545" unicode="&#251;" /><glyph d="M236 639H120V754H236ZM420 639H304V754H420ZM156 530V179Q156 129 181.5 102.5Q207 76 255 76Q282 76 303 83Q324 90 339.5 100.5Q355 111 366 123.5Q377 136 384 147V530H484V150L491 0H404L393 73Q369 37 326.5 12.5Q284 -12 218 -12Q177 -12 146.5 1.5Q116 15 96 38.5Q76 62 66 94Q56 126 56 163V530Z" glyph-name="udieresis" horiz-adv-x="545" unicode="&#252;" /><glyph d="M230 780 321 607H219L120 780ZM156 530V179Q156 129 181.5 102.5Q207 76 255 76Q282 76 303 83Q324 90 339.5 100.5Q355 111 366 123.5Q377 136 384 147V530H484V150L491 0H404L393 73Q369 37 326.5 12.5Q284 -12 218 -12Q177 -12 146.5 1.5Q116 15 96 38.5Q76 62 66 94Q56 126 56 163V530Z" glyph-name="ugrave" horiz-adv-x="545" unicode="&#249;" /><glyph d="M479 780 380 607H295L386 780ZM331 780 244 607H159L237 780ZM156 530V179Q156 129 181.5 102.5Q207 76 255 76Q282 76 303 83Q324 90 339.5 100.5Q355 111 366 123.5Q377 136 384 147V530H484V150L491 0H404L393 73Q369 37 326.5 12.5Q284 -12 218 -12Q177 -12 146.5 1.5Q116 15 96 38.5Q76 62 66 94Q56 126 56 163V530Z" glyph-name="uhungarumlaut" horiz-adv-x="545" unicode="&#369;" /><glyph d="M142 739H398V648H142ZM156 530V179Q156 129 181.5 102.5Q207 76 255 76Q282 76 303 83Q324 90 339.5 100.5Q355 111 366 123.5Q377 136 384 147V530H484V150L491 0H404L393 73Q369 37 326.5 12.5Q284 -12 218 -12Q177 -12 146.5 1.5Q116 15 96 38.5Q76 62 66 94Q56 126 56 163V530Z" glyph-name="umacron" horiz-adv-x="545" unicode="&#363;" /><glyph d="M46 -63H274V-153H46Z" glyph-name="underscore" horiz-adv-x="320" unicode="_" /><glyph d="M46 -63H554V-153H46Z" glyph-name="underscoremonospace" horiz-adv-x="600" unicode="&#65343;" /><glyph d="M40 395H297V305H40Z" glyph-name="uni00AD" horiz-adv-x="337" unicode="&#173;" /><glyph d="M40 395H1160V305H40Z" glyph-name="uni2015" horiz-adv-x="1200" unicode="&#8213;" /><glyph d="M40 435H1160V345H40Z" glyph-name="uni2015.cap" horiz-adv-x="1200" unicode="&#58504;" /><glyph d="M194 669Q194 689 183.5 701Q173 713 151 713H149Q126 713 115.5 701Q105 689 105 669V501Q105 481 115.5 468.5Q126 456 149 456H151Q173 456 183.5 468.5Q194 481 194 501ZM278 500Q278 449 246 416Q214 383 150 383Q86 383 54 416Q22 449 22 500V669Q22 720 54 753Q86 786 150 786Q214 786 246 753Q278 720 278 669Z" glyph-name="uni2070" horiz-adv-x="300" unicode="&#8304;" /><glyph d="M100 545 124 547H162V620L163 646ZM162 390V473H13V532L167 780H246V547H286V473H246V390Z" glyph-name="uni2074" horiz-adv-x="300" unicode="&#8308;" /><glyph d="M102 515Q102 481 115 468.5Q128 456 147 456H152Q170 456 184 468.5Q198 481 198 511V516Q198 545 183.5 557.5Q169 570 148 570H145Q131 570 116 563Q101 556 93 542L21 566L31 780H276V706H101L98 633Q125 644 154 644Q216 644 248.5 609.5Q281 575 281 518V509Q281 451 248 417Q215 383 150 383Q84 383 51 415.5Q18 448 18 508V515Z" glyph-name="uni2075" horiz-adv-x="300" unicode="&#8309;" /><glyph d="M151 563Q137 563 124 556Q111 549 103 535V520Q103 488 116 472Q129 456 149 456H152Q171 456 184.5 469Q198 482 198 505V515Q198 541 185.5 552Q173 563 154 563ZM261 712Q218 712 188 701.5Q158 691 138 667Q121 647 114 619Q125 627 140 631.5Q155 636 172 636Q222 636 251.5 603.5Q281 571 281 513V508Q281 450 248.5 416.5Q216 383 150 383Q86 383 52.5 422.5Q19 462 19 526V534Q19 581 30.5 626Q42 671 74 713Q106 757 153.5 771.5Q201 786 261 786Z" glyph-name="uni2076" horiz-adv-x="300" unicode="&#8310;" /><glyph d="M17 780H283V728L146 390H56L190 707L143 706H90V640H17Z" glyph-name="uni2077" horiz-adv-x="300" unicode="&#8311;" /><glyph d="M147 713Q129 713 116.5 702Q104 691 104 672V668Q104 626 148 626H152Q195 626 195 668V672Q195 691 183 702Q171 713 152 713ZM146 552Q126 552 114 541.5Q102 531 102 509V503Q102 478 116 467Q130 456 147 456H152Q170 456 184 467Q198 478 198 503V509Q198 531 185.5 541.5Q173 552 153 552ZM150 383Q114 383 89 393.5Q64 404 48 420.5Q32 437 25 456.5Q18 476 18 494V504Q18 536 31 557Q44 578 64 589Q46 601 33.5 621.5Q21 642 21 673V682Q21 699 27.5 717.5Q34 736 49.5 751Q65 766 89.5 776Q114 786 150 786Q186 786 210.5 776Q235 766 250.5 751Q266 736 272.5 717.5Q279 699 279 682V673Q279 642 266 621.5Q253 601 235 589Q254 578 267.5 557Q281 536 281 504V494Q281 476 274 456.5Q267 437 251 420.5Q235 404 210.5 393.5Q186 383 150 383Z" glyph-name="uni2078" horiz-adv-x="300" unicode="&#8312;" /><glyph d="M148 606Q162 606 175 612.5Q188 619 197 633V650Q197 681 184 697.5Q171 714 151 714H148Q129 714 115.5 701Q102 688 102 664V654Q102 629 114.5 617.5Q127 606 146 606ZM38 457Q82 457 111.5 468Q141 479 161 503Q176 521 186 550Q160 534 127 534Q78 534 48 566.5Q18 599 18 657V662Q18 719 50.5 752.5Q83 786 149 786Q214 786 247.5 747Q281 708 281 643V636Q281 589 269 543.5Q257 498 226 456Q194 413 146 398Q98 383 38 383Z" glyph-name="uni2079" horiz-adv-x="300" unicode="&#8313;" /><glyph d="M187 714V622H279V548H187V456H113V548H21V622H113V714Z" glyph-name="uni207A" horiz-adv-x="300" unicode="&#8314;" /><glyph d="M21 622H279V548H21Z" glyph-name="uni207B" horiz-adv-x="300" unicode="&#8315;" /><glyph d="M21 567H279V494H21ZM21 676H279V602H21Z" glyph-name="uni207C" horiz-adv-x="300" unicode="&#8316;" /><glyph d="M21 590Q21 656 39 703Q57 750 81 780H167Q156 764 145 743.5Q134 723 125 699Q116 675 110 647.5Q104 620 104 590V580Q104 519 125 470Q146 421 167 390H81Q57 419 39 466.5Q21 514 21 580Z" glyph-name="uni207D" horiz-adv-x="185" unicode="&#8317;" /><glyph d="M163 580Q163 514 145.5 466.5Q128 419 103 390H17Q39 421 59.5 470Q80 519 80 580V590Q80 650 59.5 699Q39 748 17 780H103Q128 750 145.5 703Q163 656 163 590Z" glyph-name="uni207E" horiz-adv-x="185" unicode="&#8318;" /><glyph d="M194 279Q194 299 183.5 311Q173 323 151 323H149Q126 323 115.5 311Q105 299 105 279V111Q105 91 115.5 78.5Q126 66 149 66H151Q173 66 183.5 78.5Q194 91 194 111ZM278 110Q278 59 246 26Q214 -7 150 -7Q86 -7 54 26Q22 59 22 110V279Q22 330 54 363Q86 396 150 396Q214 396 246 363Q278 330 278 279Z" glyph-name="uni2080" horiz-adv-x="300" unicode="&#8320;" /><glyph d="M33 0V73H118V287L59 247L17 308L139 390H202V73H286V0Z" glyph-name="uni2081" horiz-adv-x="300" unicode="&#8321;" /><glyph d="M279 0H21V53L170 217Q182 230 188.5 240.5Q195 251 195 268V273Q195 299 183 311Q171 323 152 323H147Q128 323 116.5 309Q105 295 105 260H21V270Q21 333 52.5 364.5Q84 396 150 396Q186 396 210.5 386Q235 376 250.5 360.5Q266 345 272.5 326Q279 307 279 288V278Q279 243 267.5 222Q256 201 235 178L139 73H279Z" glyph-name="uni2082" horiz-adv-x="300" unicode="&#8322;" /><glyph d="M102 125Q102 91 115 78.5Q128 66 147 66H152Q170 66 184 77.5Q198 89 198 114V119Q198 140 185.5 151Q173 162 153 162H100V236H152Q195 236 195 277V283Q195 301 183 312Q171 323 152 323H147Q128 323 116.5 309Q105 295 105 260H21V270Q21 333 52.5 364.5Q84 396 150 396Q186 396 210.5 386Q235 376 250.5 361Q266 346 272.5 327.5Q279 309 279 292V283Q279 251 266 230.5Q253 210 234 199Q254 187 267.5 166.5Q281 146 281 114V105Q281 87 274 67Q267 47 251 30.5Q235 14 210.5 3.5Q186 -7 150 -7Q84 -7 51 25.5Q18 58 18 118V125Z" glyph-name="uni2083" horiz-adv-x="300" unicode="&#8323;" /><glyph d="M100 155 124 157H162V230L163 256ZM162 0V83H13V142L167 390H246V157H286V83H246V0Z" glyph-name="uni2084" horiz-adv-x="300" unicode="&#8324;" /><glyph d="M102 125Q102 91 115 78.5Q128 66 147 66H152Q170 66 184 78.5Q198 91 198 121V126Q198 155 183.5 167.5Q169 180 148 180H145Q131 180 116 173Q101 166 93 152L21 176L31 390H276V316H101L98 243Q125 254 154 254Q216 254 248.5 219.5Q281 185 281 128V119Q281 61 248 27Q215 -7 150 -7Q84 -7 51 25.5Q18 58 18 118V125Z" glyph-name="uni2085" horiz-adv-x="300" unicode="&#8325;" /><glyph d="M151 173Q137 173 124 166Q111 159 103 145V130Q103 98 116 82Q129 66 149 66H152Q171 66 184.5 79Q198 92 198 115V125Q198 151 185.5 162Q173 173 154 173ZM261 322Q218 322 188 311.5Q158 301 138 277Q121 257 114 229Q125 237 140 241.5Q155 246 172 246Q222 246 251.5 213.5Q281 181 281 123V118Q281 60 248.5 26.5Q216 -7 150 -7Q86 -7 52.5 32.5Q19 72 19 136V144Q19 191 30.5 236Q42 281 74 323Q106 367 153.5 381.5Q201 396 261 396Z" glyph-name="uni2086" horiz-adv-x="300" unicode="&#8326;" /><glyph d="M17 390H283V338L146 0H56L190 317L143 316H90V250H17Z" glyph-name="uni2087" horiz-adv-x="300" unicode="&#8327;" /><glyph d="M147 323Q129 323 116.5 312Q104 301 104 282V278Q104 236 148 236H152Q195 236 195 278V282Q195 301 183 312Q171 323 152 323ZM146 162Q126 162 114 151.5Q102 141 102 119V113Q102 88 116 77Q130 66 147 66H152Q170 66 184 77Q198 88 198 113V119Q198 141 185.5 151.5Q173 162 153 162ZM150 -7Q114 -7 89 3.5Q64 14 48 30.5Q32 47 25 66.5Q18 86 18 104V114Q18 146 31 167Q44 188 64 199Q46 211 33.5 231.5Q21 252 21 283V292Q21 309 27.5 327.5Q34 346 49.5 361Q65 376 89.5 386Q114 396 150 396Q186 396 210.5 386Q235 376 250.5 361Q266 346 272.5 327.5Q279 309 279 292V283Q279 252 266 231.5Q253 211 235 199Q254 188 267.5 167Q281 146 281 114V104Q281 86 274 66.5Q267 47 251 30.5Q235 14 210.5 3.5Q186 -7 150 -7Z" glyph-name="uni2088" horiz-adv-x="300" unicode="&#8328;" /><glyph d="M148 216Q162 216 175 222.5Q188 229 197 243V260Q197 291 184 307.5Q171 324 151 324H148Q129 324 115.5 311Q102 298 102 274V264Q102 239 114.5 227.5Q127 216 146 216ZM38 67Q82 67 111.5 78Q141 89 161 113Q176 131 186 160Q160 144 127 144Q78 144 48 176.5Q18 209 18 267V272Q18 329 50.5 362.5Q83 396 149 396Q214 396 247.5 357Q281 318 281 253V246Q281 199 269 153.5Q257 108 226 66Q194 23 146 8Q98 -7 38 -7Z" glyph-name="uni2089" horiz-adv-x="300" unicode="&#8329;" /><glyph d="M187 324V232H279V158H187V66H113V158H21V232H113V324Z" glyph-name="uni208A" horiz-adv-x="300" unicode="&#8330;" /><glyph d="M21 232H279V158H21Z" glyph-name="uni208B" horiz-adv-x="300" unicode="&#8331;" /><glyph d="M21 177H279V104H21ZM21 286H279V212H21Z" glyph-name="uni208C" horiz-adv-x="300" unicode="&#8332;" /><glyph d="M21 200Q21 266 39 313Q57 360 81 390H167Q156 374 145 353.5Q134 333 125 309Q116 285 110 257.5Q104 230 104 200V190Q104 129 125 80Q146 31 167 0H81Q57 29 39 76.5Q21 124 21 190Z" glyph-name="uni208D" horiz-adv-x="185" unicode="&#8333;" /><glyph d="M163 190Q163 124 145.5 76.5Q128 29 103 0H17Q39 31 59.5 80Q80 129 80 190V200Q80 260 59.5 309Q39 358 17 390H103Q128 360 145.5 313Q163 266 163 200Z" glyph-name="uni208E" horiz-adv-x="185" unicode="&#8334;" /><glyph d="M33 390V463H118V677L59 637L17 698L139 780H202V463H286V390ZM602 125Q602 91 615 78.5Q628 66 647 66H652Q670 66 684 77.5Q698 89 698 114V119Q698 140 685.5 151Q673 162 653 162H600V236H652Q695 236 695 277V283Q695 301 683 312Q671 323 652 323H647Q628 323 616.5 309Q605 295 605 260H521V270Q521 333 552.5 364.5Q584 396 650 396Q686 396 710.5 386Q735 376 750.5 361Q766 346 772.5 327.5Q779 309 779 292V283Q779 251 766 230.5Q753 210 734 199Q754 187 767.5 166.5Q781 146 781 114V105Q781 87 774 67Q767 47 751 30.5Q735 14 710.5 3.5Q686 -7 650 -7Q584 -7 551 25.5Q518 58 518 118V125ZM60 0 636 780H740L164 0Z" glyph-name="uni2153" horiz-adv-x="800" unicode="&#8531;" /><glyph d="M279 390H21V443L170 607Q182 620 188.5 630.5Q195 641 195 658V663Q195 689 183 701Q171 713 152 713H147Q128 713 116.5 699Q105 685 105 650H21V660Q21 723 52.5 754.5Q84 786 150 786Q186 786 210.5 776Q235 766 250.5 750.5Q266 735 272.5 716Q279 697 279 678V668Q279 633 267.5 612Q256 591 235 568L139 463H279ZM602 125Q602 91 615 78.5Q628 66 647 66H652Q670 66 684 77.5Q698 89 698 114V119Q698 140 685.5 151Q673 162 653 162H600V236H652Q695 236 695 277V283Q695 301 683 312Q671 323 652 323H647Q628 323 616.5 309Q605 295 605 260H521V270Q521 333 552.5 364.5Q584 396 650 396Q686 396 710.5 386Q735 376 750.5 361Q766 346 772.5 327.5Q779 309 779 292V283Q779 251 766 230.5Q753 210 734 199Q754 187 767.5 166.5Q781 146 781 114V105Q781 87 774 67Q767 47 751 30.5Q735 14 710.5 3.5Q686 -7 650 -7Q584 -7 551 25.5Q518 58 518 118V125ZM60 0 636 780H740L164 0Z" glyph-name="uni2154" horiz-adv-x="800" unicode="&#8532;" /><glyph d="M33 390V463H118V677L59 637L17 698L139 780H202V463H286V390ZM602 125Q602 91 615 78.5Q628 66 647 66H652Q670 66 684 78.5Q698 91 698 121V126Q698 155 683.5 167.5Q669 180 648 180H645Q631 180 616 173Q601 166 593 152L521 176L531 390H776V316H601L598 243Q625 254 654 254Q716 254 748.5 219.5Q781 185 781 128V119Q781 61 748 27Q715 -7 650 -7Q584 -7 551 25.5Q518 58 518 118V125ZM60 0 636 780H740L164 0Z" glyph-name="uni2155" horiz-adv-x="800" unicode="&#8533;" /><glyph d="M279 390H21V443L170 607Q182 620 188.5 630.5Q195 641 195 658V663Q195 689 183 701Q171 713 152 713H147Q128 713 116.5 699Q105 685 105 650H21V660Q21 723 52.5 754.5Q84 786 150 786Q186 786 210.5 776Q235 766 250.5 750.5Q266 735 272.5 716Q279 697 279 678V668Q279 633 267.5 612Q256 591 235 568L139 463H279ZM602 125Q602 91 615 78.5Q628 66 647 66H652Q670 66 684 78.5Q698 91 698 121V126Q698 155 683.5 167.5Q669 180 648 180H645Q631 180 616 173Q601 166 593 152L521 176L531 390H776V316H601L598 243Q625 254 654 254Q716 254 748.5 219.5Q781 185 781 128V119Q781 61 748 27Q715 -7 650 -7Q584 -7 551 25.5Q518 58 518 118V125ZM60 0 636 780H740L164 0Z" glyph-name="uni2156" horiz-adv-x="800" unicode="&#8534;" /><glyph d="M102 515Q102 481 115 468.5Q128 456 147 456H152Q170 456 184 467.5Q198 479 198 504V509Q198 530 185.5 541Q173 552 153 552H100V626H152Q195 626 195 667V673Q195 691 183 702Q171 713 152 713H147Q128 713 116.5 699Q105 685 105 650H21V660Q21 723 52.5 754.5Q84 786 150 786Q186 786 210.5 776Q235 766 250.5 751Q266 736 272.5 717.5Q279 699 279 682V673Q279 641 266 620.5Q253 600 234 589Q254 577 267.5 556.5Q281 536 281 504V495Q281 477 274 457Q267 437 251 420.5Q235 404 210.5 393.5Q186 383 150 383Q84 383 51 415.5Q18 448 18 508V515ZM602 125Q602 91 615 78.5Q628 66 647 66H652Q670 66 684 78.5Q698 91 698 121V126Q698 155 683.5 167.5Q669 180 648 180H645Q631 180 616 173Q601 166 593 152L521 176L531 390H776V316H601L598 243Q625 254 654 254Q716 254 748.5 219.5Q781 185 781 128V119Q781 61 748 27Q715 -7 650 -7Q584 -7 551 25.5Q518 58 518 118V125ZM60 0 636 780H740L164 0Z" glyph-name="uni2157" horiz-adv-x="800" unicode="&#8535;" /><glyph d="M100 545 124 547H162V620L163 646ZM162 390V473H13V532L167 780H246V547H286V473H246V390ZM602 125Q602 91 615 78.5Q628 66 647 66H652Q670 66 684 78.5Q698 91 698 121V126Q698 155 683.5 167.5Q669 180 648 180H645Q631 180 616 173Q601 166 593 152L521 176L531 390H776V316H601L598 243Q625 254 654 254Q716 254 748.5 219.5Q781 185 781 128V119Q781 61 748 27Q715 -7 650 -7Q584 -7 551 25.5Q518 58 518 118V125ZM60 0 636 780H740L164 0Z" glyph-name="uni2158" horiz-adv-x="800" unicode="&#8536;" /><glyph d="M651 173Q637 173 624 166Q611 159 603 145V130Q603 98 616 82Q629 66 649 66H652Q671 66 684.5 79Q698 92 698 115V125Q698 151 685.5 162Q673 173 654 173ZM33 390V463H118V677L59 637L17 698L139 780H202V463H286V390ZM761 322Q718 322 688 311.5Q658 301 638 277Q621 257 614 229Q625 237 640 241.5Q655 246 672 246Q722 246 751.5 213.5Q781 181 781 123V118Q781 60 748.5 26.5Q716 -7 650 -7Q586 -7 552.5 32.5Q519 72 519 136V144Q519 191 530.5 236Q542 281 574 323Q606 367 653.5 381.5Q701 396 761 396ZM60 0 636 780H740L164 0Z" glyph-name="uni2159" horiz-adv-x="800" unicode="&#8537;" /><glyph d="M651 173Q637 173 624 166Q611 159 603 145V130Q603 98 616 82Q629 66 649 66H652Q671 66 684.5 79Q698 92 698 115V125Q698 151 685.5 162Q673 173 654 173ZM102 515Q102 481 115 468.5Q128 456 147 456H152Q170 456 184 468.5Q198 481 198 511V516Q198 545 183.5 557.5Q169 570 148 570H145Q131 570 116 563Q101 556 93 542L21 566L31 780H276V706H101L98 633Q125 644 154 644Q216 644 248.5 609.5Q281 575 281 518V509Q281 451 248 417Q215 383 150 383Q84 383 51 415.5Q18 448 18 508V515ZM761 322Q718 322 688 311.5Q658 301 638 277Q621 257 614 229Q625 237 640 241.5Q655 246 672 246Q722 246 751.5 213.5Q781 181 781 123V118Q781 60 748.5 26.5Q716 -7 650 -7Q586 -7 552.5 32.5Q519 72 519 136V144Q519 191 530.5 236Q542 281 574 323Q606 367 653.5 381.5Q701 396 761 396ZM60 0 636 780H740L164 0Z" glyph-name="uni215A" horiz-adv-x="800" unicode="&#8538;" /><glyph d="M647 323Q629 323 616.5 312Q604 301 604 282V278Q604 236 648 236H652Q695 236 695 278V282Q695 301 683 312Q671 323 652 323ZM646 162Q626 162 614 151.5Q602 141 602 119V113Q602 88 616 77Q630 66 647 66H652Q670 66 684 77Q698 88 698 113V119Q698 141 685.5 151.5Q673 162 653 162ZM33 390V463H118V677L59 637L17 698L139 780H202V463H286V390ZM60 0 636 780H740L164 0ZM650 -7Q614 -7 589 3.5Q564 14 548 30.5Q532 47 525 66.5Q518 86 518 104V114Q518 146 531 167Q544 188 564 199Q546 211 533.5 231.5Q521 252 521 283V292Q521 309 527.5 327.5Q534 346 549.5 361Q565 376 589.5 386Q614 396 650 396Q686 396 710.5 386Q735 376 750.5 361Q766 346 772.5 327.5Q779 309 779 292V283Q779 252 766 231.5Q753 211 735 199Q754 188 767.5 167Q781 146 781 114V104Q781 86 774 66.5Q767 47 751 30.5Q735 14 710.5 3.5Q686 -7 650 -7Z" glyph-name="uni215B" horiz-adv-x="800" unicode="&#8539;" /><glyph d="M647 323Q629 323 616.5 312Q604 301 604 282V278Q604 236 648 236H652Q695 236 695 278V282Q695 301 683 312Q671 323 652 323ZM646 162Q626 162 614 151.5Q602 141 602 119V113Q602 88 616 77Q630 66 647 66H652Q670 66 684 77Q698 88 698 113V119Q698 141 685.5 151.5Q673 162 653 162ZM102 515Q102 481 115 468.5Q128 456 147 456H152Q170 456 184 467.5Q198 479 198 504V509Q198 530 185.5 541Q173 552 153 552H100V626H152Q195 626 195 667V673Q195 691 183 702Q171 713 152 713H147Q128 713 116.5 699Q105 685 105 650H21V660Q21 723 52.5 754.5Q84 786 150 786Q186 786 210.5 776Q235 766 250.5 751Q266 736 272.5 717.5Q279 699 279 682V673Q279 641 266 620.5Q253 600 234 589Q254 577 267.5 556.5Q281 536 281 504V495Q281 477 274 457Q267 437 251 420.5Q235 404 210.5 393.5Q186 383 150 383Q84 383 51 415.5Q18 448 18 508V515ZM60 0 636 780H740L164 0ZM650 -7Q614 -7 589 3.5Q564 14 548 30.5Q532 47 525 66.5Q518 86 518 104V114Q518 146 531 167Q544 188 564 199Q546 211 533.5 231.5Q521 252 521 283V292Q521 309 527.5 327.5Q534 346 549.5 361Q565 376 589.5 386Q614 396 650 396Q686 396 710.5 386Q735 376 750.5 361Q766 346 772.5 327.5Q779 309 779 292V283Q779 252 766 231.5Q753 211 735 199Q754 188 767.5 167Q781 146 781 114V104Q781 86 774 66.5Q767 47 751 30.5Q735 14 710.5 3.5Q686 -7 650 -7Z" glyph-name="uni215C" horiz-adv-x="800" unicode="&#8540;" /><glyph d="M647 323Q629 323 616.5 312Q604 301 604 282V278Q604 236 648 236H652Q695 236 695 278V282Q695 301 683 312Q671 323 652 323ZM646 162Q626 162 614 151.5Q602 141 602 119V113Q602 88 616 77Q630 66 647 66H652Q670 66 684 77Q698 88 698 113V119Q698 141 685.5 151.5Q673 162 653 162ZM102 515Q102 481 115 468.5Q128 456 147 456H152Q170 456 184 468.5Q198 481 198 511V516Q198 545 183.5 557.5Q169 570 148 570H145Q131 570 116 563Q101 556 93 542L21 566L31 780H276V706H101L98 633Q125 644 154 644Q216 644 248.5 609.5Q281 575 281 518V509Q281 451 248 417Q215 383 150 383Q84 383 51 415.5Q18 448 18 508V515ZM60 0 636 780H740L164 0ZM650 -7Q614 -7 589 3.5Q564 14 548 30.5Q532 47 525 66.5Q518 86 518 104V114Q518 146 531 167Q544 188 564 199Q546 211 533.5 231.5Q521 252 521 283V292Q521 309 527.5 327.5Q534 346 549.5 361Q565 376 589.5 386Q614 396 650 396Q686 396 710.5 386Q735 376 750.5 361Q766 346 772.5 327.5Q779 309 779 292V283Q779 252 766 231.5Q753 211 735 199Q754 188 767.5 167Q781 146 781 114V104Q781 86 774 66.5Q767 47 751 30.5Q735 14 710.5 3.5Q686 -7 650 -7Z" glyph-name="uni215D" horiz-adv-x="800" unicode="&#8541;" /><glyph d="M647 323Q629 323 616.5 312Q604 301 604 282V278Q604 236 648 236H652Q695 236 695 278V282Q695 301 683 312Q671 323 652 323ZM646 162Q626 162 614 151.5Q602 141 602 119V113Q602 88 616 77Q630 66 647 66H652Q670 66 684 77Q698 88 698 113V119Q698 141 685.5 151.5Q673 162 653 162ZM17 780H283V728L146 390H56L190 707L143 706H90V640H17ZM60 0 636 780H740L164 0ZM650 -7Q614 -7 589 3.5Q564 14 548 30.5Q532 47 525 66.5Q518 86 518 104V114Q518 146 531 167Q544 188 564 199Q546 211 533.5 231.5Q521 252 521 283V292Q521 309 527.5 327.5Q534 346 549.5 361Q565 376 589.5 386Q614 396 650 396Q686 396 710.5 386Q735 376 750.5 361Q766 346 772.5 327.5Q779 309 779 292V283Q779 252 766 231.5Q753 211 735 199Q754 188 767.5 167Q781 146 781 114V104Q781 86 774 66.5Q767 47 751 30.5Q735 14 710.5 3.5Q686 -7 650 -7Z" glyph-name="uni215E" horiz-adv-x="800" unicode="&#8542;" /><glyph d="M33 390V463H118V677L59 637L17 698L139 780H202V463H286V390ZM60 0 636 780H740L164 0Z" glyph-name="uni215F" horiz-adv-x="500" unicode="&#8543;" /><glyph d="M70 0V780H850V687H228L862 53L797 -12L163 622V0Z" glyph-name="uni2196" horiz-adv-x="920" unicode="&#8598;" /><glyph d="M70 780H850V0H757V622L123 -12L58 53L692 687H70Z" glyph-name="uni2197" horiz-adv-x="920" unicode="&#8599;" /><glyph d="M70 93H692L58 727L123 792L757 158V780H850V0H70Z" glyph-name="uni2198" horiz-adv-x="920" unicode="&#8600;" /><glyph d="M850 0H70V780H163V158L797 792L862 727L228 93H850Z" glyph-name="uni2199" horiz-adv-x="920" unicode="&#8601;" /><glyph d="M816 -35 8 275 80 347 776 75 504 771 576 843 886 35Z" glyph-name="uni25E2" horiz-adv-x="930" unicode="&#9698;" /><glyph d="M354 843 426 771 154 75 850 347 922 275 114 -35 44 35Z" glyph-name="uni25E3" horiz-adv-x="930" unicode="&#9699;" /><glyph d="M114 816 922 506 850 434 154 706 426 10 354 -62 44 746Z" glyph-name="uni25E4" horiz-adv-x="930" unicode="&#9700;" /><glyph d="M576 -62 504 10 776 706 80 434 8 506 816 816 886 746Z" glyph-name="uni25E5" horiz-adv-x="930" unicode="&#9701;" /><glyph d="M180 -10 279 297 19 486H341L440 792L539 486H861L601 297L700 -10L440 180Z" glyph-name="uni2605" horiz-adv-x="880" unicode="&#9733;" /><glyph d="M479 -11 437 191Q437 189 436.5 182.5Q436 176 433.5 166.5Q431 157 425 146Q419 135 408 125Q396 114 384 106Q372 98 362 90Q352 82 346 72Q340 62 340 47Q340 39 342 33Q344 27 346 22Q349 17 352 12Q329 19 317.5 36.5Q306 54 306 74Q306 104 327 125Q349 147 358.5 174.5Q368 202 368 220L196 107L309 279Q308 278 303 273.5Q298 269 290 264.5Q282 260 270 256.5Q258 253 243 253Q229 253 211.5 257Q194 261 181 261Q161 261 149 253.5Q137 246 131 237Q124 226 122 213Q114 227 114 241Q114 270 134.5 290Q155 310 185 310Q202 310 218.5 315Q235 320 248.5 326.5Q262 333 270.5 339.5Q279 346 281 348L79 390L281 432Q279 432 272.5 432.5Q266 433 256.5 435.5Q247 438 236 444Q225 450 215 461Q204 473 196 485Q188 497 180 507Q172 517 162 523Q152 529 137 529Q129 529 123 527Q117 525 112 523Q107 520 102 517Q109 540 126.5 551.5Q144 563 164 563Q194 563 215 542Q237 520 264.5 510.5Q292 501 310 501L197 673L369 560Q368 561 363.5 566Q359 571 354.5 579Q350 587 346.5 599Q343 611 343 626Q343 640 347 657.5Q351 675 351 688Q351 708 343.5 720Q336 732 327 738Q316 745 303 747Q317 755 331 755Q360 755 380 734.5Q400 714 400 684Q400 667 405 650.5Q410 634 416.5 620.5Q423 607 429.5 598Q436 589 438 588L480 790L522 588Q522 589 522.5 596Q523 603 525.5 612.5Q528 622 534 633Q540 644 551 654Q563 665 575 673Q587 681 597 689Q607 697 613 707Q619 717 619 732Q619 740 617 746Q615 752 613 757Q610 762 607 767Q630 760 641.5 742.5Q653 725 653 705Q653 675 632 654Q610 632 600.5 604.5Q591 577 591 559L763 672L650 500Q651 501 656 505.5Q661 510 669 514.5Q677 519 689 522.5Q701 526 716 526Q730 526 747.5 522Q765 518 778 518Q798 518 810 525.5Q822 533 828 542Q835 553 837 566Q845 552 845 538Q845 509 824.5 489Q804 469 774 469Q757 469 740.5 464Q724 459 710.5 452.5Q697 446 688 439.5Q679 433 678 431L880 389L678 347Q679 347 686 346.5Q693 346 702.5 343.5Q712 341 723 335Q734 329 744 318Q755 306 763 294Q771 282 779 272Q787 262 797 256Q807 250 822 250Q830 250 836 252Q842 254 847 256Q852 259 857 262Q850 239 832.5 227.5Q815 216 795 216Q765 216 744 237Q722 259 694.5 268.5Q667 278 649 278L762 106L590 219Q591 218 595.5 213Q600 208 604.5 200Q609 192 612.5 180Q616 168 616 153Q616 139 612 121.5Q608 104 608 91Q608 71 615.5 59Q623 47 632 41Q643 34 656 32Q642 24 628 24Q599 24 579 44.5Q559 65 559 95Q559 112 554 128.5Q549 145 542.5 158.5Q536 172 529.5 180.5Q523 189 521 191Z" glyph-name="uni263C" horiz-adv-x="960" unicode="&#9788;" /><glyph d="M624 728Q557 728 498 701.5Q439 675 395 629Q351 583 325.5 521.5Q300 460 300 390Q300 320 325.5 258.5Q351 197 395 151Q439 105 498 78.5Q557 52 624 52Q673 52 720 67Q669 30 607.5 10Q546 -10 480 -10Q397 -10 324 21.5Q251 53 197 107Q143 161 111.5 234Q80 307 80 390Q80 473 111.5 546Q143 619 197 673Q251 727 324 758.5Q397 790 480 790Q546 790 607.5 769.5Q669 749 720 713Q697 720 673 724Q649 728 624 728Z" glyph-name="uni263E" horiz-adv-x="960" unicode="&#9790;" /><glyph d="M875 410Q879 403 882 391.5Q885 380 885 366Q885 340 873.5 317Q862 294 845 277Q828 260 808.5 250Q789 240 773 240L657 441L806 527ZM311 41Q303 41 290.5 44Q278 47 267 54Q244 67 230 88.5Q216 110 209.5 133Q203 156 204.5 178Q206 200 214 214H446V41ZM267 717Q271 724 280 732.5Q289 741 301 748Q323 761 348.5 762.5Q374 764 397.5 758Q421 752 439.5 739.5Q458 727 466 713L350 512L200 598ZM404 780H597Q611 780 623.5 778.5Q636 777 647.5 772.5Q659 768 669 759Q679 750 689 733L717 684L760 708L699 542L526 573L567 597L495 722Q484 742 468 753Q452 764 438 770Q421 777 404 779ZM184 122 88 290Q82 302 76.5 313.5Q71 325 69.5 337Q68 349 71 362.5Q74 376 84 393L112 442L70 466L244 497L303 331L262 355Q243 321 227 294Q213 271 202 251.5Q191 232 190 230Q179 210 177 191.5Q175 173 177 157Q180 139 186 122ZM864 264 768 97Q760 85 753 75Q746 65 736 57.5Q726 50 713 45.5Q700 41 680 41H623V-8L510 128L623 263V214H768Q790 214 808 222Q826 230 838 240Q852 251 863 266Z" glyph-name="uni267B" horiz-adv-x="960" unicode="&#9851;" /><glyph d="M64 390Q64 472 95 544Q126 616 180 670Q234 724 306 755Q378 786 460 786Q542 786 614 755Q686 724 740 670Q794 616 825 544Q856 472 856 390Q856 308 825 236Q794 164 740 110Q686 56 614 25Q542 -6 460 -6Q378 -6 306 25Q234 56 180 110Q126 164 95 236Q64 308 64 390ZM754 295Q745 284 734 275Q724 267 710.5 261Q697 255 680 255H568V293L480 188L568 83V121H612Q643 121 656 133.5Q669 146 680 164L755 294ZM710 498 594 431 684 275Q696 275 711.5 282.5Q727 290 740.5 303.5Q754 317 762.5 335Q771 353 771 373Q771 384 768.5 393Q766 402 763 407ZM229 184Q224 197 222 211Q220 223 221.5 238Q223 253 232 268L288 365L320 346L274 475L139 451L172 432L150 394Q134 368 138.5 350.5Q143 333 153 314L228 184ZM427 121V255H247Q241 244 240 227Q239 210 243.5 192Q248 174 259 157.5Q270 141 288 131Q297 126 306.5 123.5Q316 121 322 121ZM394 693Q408 691 421 686Q432 681 444 672Q456 663 465 649L521 552L489 533L623 509L670 638L637 619L615 657Q600 683 583 688.5Q566 694 544 694H394ZM240 553 356 486 446 642Q440 653 425.5 662.5Q411 672 393 676.5Q375 681 355 680Q335 679 318 669Q309 664 302 657Q295 650 292 645Z" glyph-name="uni267C" horiz-adv-x="960" unicode="&#9852;" /><glyph d="M98 390Q98 315 126.5 249Q155 183 204 134Q253 85 319 56.5Q385 28 460 28Q535 28 601 56.5Q667 85 716 134Q765 183 793.5 249Q822 315 822 390Q822 465 793.5 531Q765 597 716 646Q667 695 601 723.5Q535 752 460 752Q385 752 319 723.5Q253 695 204 646Q155 597 126.5 531Q98 465 98 390ZM60 390Q60 473 91.5 546Q123 619 177 673Q231 727 304 758.5Q377 790 460 790Q543 790 616 758.5Q689 727 743 673Q797 619 828.5 546Q860 473 860 390Q860 307 828.5 234Q797 161 743 107Q689 53 616 21.5Q543 -10 460 -10Q377 -10 304 21.5Q231 53 177 107Q123 161 91.5 234Q60 307 60 390ZM755 294 680 164Q669 146 656 133.5Q643 121 612 121H568V83L480 188L568 293V255H680Q697 255 710.5 261Q724 267 734 275Q745 284 754 295ZM763 407Q766 402 768.5 393Q771 384 771 373Q771 353 762.5 335Q754 317 740.5 303.5Q727 290 711.5 282.5Q696 275 684 275L594 431L710 498ZM228 184 153 314Q143 333 138.5 350.5Q134 368 150 394L172 432L139 451L274 475L320 346L288 365L232 268Q223 253 221.5 238Q220 223 222 211Q224 197 229 184ZM322 121Q316 121 306.5 123.5Q297 126 288 131Q270 141 259 157.5Q248 174 243.5 192Q239 210 240 227Q241 244 247 255H427V121ZM394 694H544Q566 694 583 688.5Q600 683 615 657L637 619L670 638L623 509L489 533L521 552L465 649Q456 663 444 672Q432 681 421 686Q408 691 394 693ZM292 645Q295 650 302 657Q309 664 318 669Q335 679 355 680Q375 681 393 676.5Q411 672 425.5 662.5Q440 653 446 642L356 486L240 553Z" glyph-name="uni267D" horiz-adv-x="960" unicode="&#9853;" /><glyph d="M156 530V179Q156 129 181.5 102.5Q207 76 255 76Q282 76 303 83Q324 90 339.5 100.5Q355 111 366 123.5Q377 136 384 147V530H484V150L491 0Q459 -14 437.5 -36Q416 -58 416 -91Q416 -111 429 -123.5Q442 -136 467 -136Q484 -136 498.5 -132Q513 -128 522 -123L547 -191Q531 -201 505.5 -207Q480 -213 454 -213Q400 -213 367.5 -188.5Q335 -164 335 -111Q335 -69 354 -38.5Q373 -8 402 14L393 73Q369 37 326.5 12.5Q284 -12 218 -12Q177 -12 146.5 1.5Q116 15 96 38.5Q76 62 66 94Q56 126 56 163V530Z" glyph-name="uogonek" horiz-adv-x="545" unicode="&#371;" /><glyph d="M216 694Q216 671 231.5 655Q247 639 270 639Q293 639 308.5 655Q324 671 324 694Q324 716 308.5 732Q293 748 270 748Q247 748 231.5 732Q216 716 216 694ZM172 694Q172 735 200.5 763.5Q229 792 270 792Q311 792 339.5 763.5Q368 735 368 694Q368 652 339.5 623.5Q311 595 270 595Q229 595 200.5 623.5Q172 652 172 694ZM156 530V179Q156 129 181.5 102.5Q207 76 255 76Q282 76 303 83Q324 90 339.5 100.5Q355 111 366 123.5Q377 136 384 147V530H484V150L491 0H404L393 73Q369 37 326.5 12.5Q284 -12 218 -12Q177 -12 146.5 1.5Q116 15 96 38.5Q76 62 66 94Q56 126 56 163V530Z" glyph-name="uring" horiz-adv-x="545" unicode="&#367;" /><glyph d="M442 755Q442 690 416 661Q390 632 351 632Q327 632 307 640.5Q287 649 269 659Q251 669 235.5 677.5Q220 686 205 686Q191 686 181 677Q171 668 171 645H98Q98 710 124 739Q150 768 189 768Q213 768 233 759.5Q253 751 271 741Q289 731 304.5 722.5Q320 714 335 714Q349 714 359 723Q369 732 369 755ZM156 530V179Q156 129 181.5 102.5Q207 76 255 76Q282 76 303 83Q324 90 339.5 100.5Q355 111 366 123.5Q377 136 384 147V530H484V150L491 0H404L393 73Q369 37 326.5 12.5Q284 -12 218 -12Q177 -12 146.5 1.5Q116 15 96 38.5Q76 62 66 94Q56 126 56 163V530Z" glyph-name="utilde" horiz-adv-x="545" unicode="&#361;" /><glyph d="M20 530H125L263 87L400 530H505L331 0H194Z" glyph-name="v" horiz-adv-x="525" unicode="v" /><glyph d="M262 0H133L27 530H126L200 107L306 530H427L533 107L608 530H707L600 0H472L367 422Z" glyph-name="w" horiz-adv-x="733" unicode="w" /><glyph d="M517 780 418 607H316L407 780ZM262 0H133L27 530H126L200 107L306 530H427L533 107L608 530H707L600 0H472L367 422Z" glyph-name="wacute" horiz-adv-x="733" unicode="&#7811;" /><glyph d="M188 607 320 780H414L546 607H452L367 709L282 607ZM262 0H133L27 530H126L200 107L306 530H427L533 107L608 530H707L600 0H472L367 422Z" glyph-name="wcircumflex" horiz-adv-x="733" unicode="&#373;" /><glyph d="M517 639H401V754H517ZM333 639H217V754H333ZM262 0H133L27 530H126L200 107L306 530H427L533 107L608 530H707L600 0H472L367 422Z" glyph-name="wdieresis" horiz-adv-x="733" unicode="&#7813;" /><glyph d="M327 780 418 607H316L217 780ZM262 0H133L27 530H126L200 107L306 530H427L533 107L608 530H707L600 0H472L367 422Z" glyph-name="wgrave" horiz-adv-x="733" unicode="&#7809;" /><glyph d="M149 390Q149 325 173.5 268.5Q198 212 240 170Q282 128 338.5 103.5Q395 79 460 79Q524 79 581 103.5Q638 128 680 170Q722 212 746.5 268.5Q771 325 771 390Q771 454 746.5 511Q722 568 680 610Q638 652 581 676.5Q524 701 460 701Q395 701 338.5 676.5Q282 652 240 610Q198 568 173.5 511Q149 454 149 390ZM58 390Q58 473 89.5 546.5Q121 620 175.5 674.5Q230 729 303.5 760.5Q377 792 460 792Q543 792 616.5 760.5Q690 729 744.5 674.5Q799 620 830.5 546.5Q862 473 862 390Q862 307 830.5 233.5Q799 160 744.5 105.5Q690 51 616.5 19.5Q543 -12 460 -12Q377 -12 303.5 19.5Q230 51 175.5 105.5Q121 160 89.5 233.5Q58 307 58 390Z" glyph-name="whitecircle" horiz-adv-x="920" unicode="&#9675;" /><glyph d="M161 439V91H509V439ZM600 530V0H70V530Z" glyph-name="whitesmallsquare" horiz-adv-x="680" unicode="&#9643;" /><glyph d="M161 689V91H759V689ZM70 0V780H850V0Z" glyph-name="whitesquare" horiz-adv-x="920" unicode="&#9633;" /><glyph d="M138 530 255 326 372 530H489L334 270L489 0H374L255 214L136 0H21L175 270L21 530Z" glyph-name="x" horiz-adv-x="510" unicode="x" /><glyph d="M393 530H501L312 23L239 -200H122L205 23L17 530H125L259 130Z" glyph-name="y" horiz-adv-x="507" unicode="y" /><glyph d="M409 780 310 607H208L299 780ZM393 530H501L312 23L239 -200H122L205 23L17 530H125L259 130Z" glyph-name="yacute" horiz-adv-x="507" unicode="&#253;" /><glyph d="M80 607 212 780H306L438 607H344L259 709L174 607ZM393 530H501L312 23L239 -200H122L205 23L17 530H125L259 130Z" glyph-name="ycircumflex" horiz-adv-x="507" unicode="&#375;" /><glyph d="M225 639H109V754H225ZM409 639H293V754H409ZM393 530H501L312 23L239 -200H122L205 23L17 530H125L259 130Z" glyph-name="ydieresis" horiz-adv-x="507" unicode="&#255;" /><glyph d="M43 480H149L13 780H128L300 376L472 780H587L450 480H557V389H409L359 280H557V189H352V0H248V189H43V280H240L191 389H43Z" glyph-name="yen" horiz-adv-x="600" unicode="&#165;" /><glyph d="M219 780 310 607H208L109 780ZM393 530H501L312 23L239 -200H122L205 23L17 530H125L259 130Z" glyph-name="ygrave" horiz-adv-x="507" unicode="&#7923;" /><glyph d="M131 739H387V648H131ZM393 530H501L312 23L239 -200H122L205 23L17 530H125L259 130Z" glyph-name="ymacron" horiz-adv-x="507" unicode="&#563;" /><glyph d="M304 443 188 441H42V530H433V461L161 87L277 89H443V0H32V69Z" glyph-name="z" horiz-adv-x="475" unicode="z" /><glyph d="M304 443 188 441H42V530H433V461L161 87L277 89H443V0H32V69ZM386 780 287 607H185L276 780Z" glyph-name="zacute" horiz-adv-x="475" unicode="&#378;" /><glyph d="M304 443 188 441H42V530H433V461L161 87L277 89H443V0H32V69ZM151 780 236 678 321 780H415L283 607H189L57 780Z" glyph-name="zcaron" horiz-adv-x="475" unicode="&#382;" /><glyph d="M304 443 188 441H42V530H433V461L161 87L277 89H443V0H32V69ZM294 639H178V754H294Z" glyph-name="zdotaccent" horiz-adv-x="475" unicode="&#380;" /><glyph d="M441 551Q441 585 433.5 612.5Q426 640 409.5 659.5Q393 679 367 690Q341 701 303 701H297Q259 701 233 690Q207 679 190.5 659.5Q174 640 166.5 612.5Q159 585 159 551V229Q159 195 166.5 167.5Q174 140 190.5 120.5Q207 101 233 90Q259 79 297 79H303Q341 79 367 90Q393 101 409.5 120.5Q426 140 433.5 167.5Q441 195 441 229ZM544 223Q544 172 530 129Q516 86 486 54.5Q456 23 410 5.5Q364 -12 300 -12Q236 -12 190 5.5Q144 23 114 54.5Q84 86 70 129Q56 172 56 223V557Q56 608 70 651Q84 694 114 725.5Q144 757 190 774.5Q236 792 300 792Q364 792 410 774.5Q456 757 486 725.5Q516 694 530 651Q544 608 544 557Z" glyph-name="zero" horiz-adv-x="600" unicode="0" /><glyph d="M194 79Q194 99 183.5 111Q173 123 151 123H149Q126 123 115.5 111Q105 99 105 79V-89Q105 -109 115.5 -121.5Q126 -134 149 -134H151Q173 -134 183.5 -121.5Q194 -109 194 -89ZM278 -90Q278 -141 246 -174Q214 -207 150 -207Q86 -207 54 -174Q22 -141 22 -90V79Q22 130 54 163Q86 196 150 196Q214 196 246 163Q278 130 278 79Z" glyph-name="zero.inf" horiz-adv-x="300" unicode="&#58737;" /><glyph glyph-name="zerowidthspace" horiz-adv-x="0" unicode="&#8203;" /></font>
</defs>
</svg>
