<?xml version="1.0" standalone="no"?><!DOCTYPE svg PUBLIC "-//W3C//DTD SVG 1.1//EN" "http://www.w3.org/Graphics/SVG/1.1/DTD/svg11.dtd" ><svg version="1.1" xmlns="http://www.w3.org/2000/svg"><defs><font horiz-adv-x="0" id="font"><font-face ascent="750" bbox="-240 -223 1383 966" cap-height="780" descent="-250" font-family="Cooper Hewitt" font-stretch="normal" font-style="normal" font-weight="600" units-per-em="1000" x-height="530" /><missing-glyph d="M802 115V665L527 390ZM162 665V115L437 390ZM482 435 761 714H203ZM203 66H761L482 345ZM92 780H872V0H92Z" horiz-adv-x="964" /><glyph d="M234 295H397L316 631ZM408 784 613 0H469L426 178H206L163 0H18L223 784Z" glyph-name="A" horiz-adv-x="631" unicode="A" /><glyph d="M255 298H404L365 628ZM830 780V663H490L519 456H780V340H535L566 117H830V0H440L418 182H216L155 0H11L289 780Z" glyph-name="AE" horiz-adv-x="870" unicode="&#198;" /><glyph d="M444 950 381 840H251L307 950ZM234 295H397L316 631ZM408 784 613 0H469L426 178H206L163 0H18L223 784Z" glyph-name="Aacute" horiz-adv-x="631" unicode="&#193;" /><glyph d="M234 295H397L316 631ZM316 826Q266 826 233 836Q200 846 180.5 862.5Q161 879 153 901.5Q145 924 145 950H237Q237 927 255.5 914Q274 901 316 901Q358 901 376.5 914Q395 927 395 950H487Q487 924 479 901.5Q471 879 451.5 862.5Q432 846 399 836Q366 826 316 826ZM408 784 613 0H469L426 178H206L163 0H18L223 784Z" glyph-name="Abreve" horiz-adv-x="631" unicode="&#258;" /><glyph d="M132 840 251 950H381L500 840H380L316 890L252 840ZM234 295H397L316 631ZM408 784 613 0H469L426 178H206L163 0H18L223 784Z" glyph-name="Acircumflex" horiz-adv-x="631" unicode="&#194;" /><glyph d="M459 849H342V941H459ZM290 849H173V941H290ZM234 295H397L316 631ZM408 784 613 0H469L426 178H206L163 0H18L223 784Z" glyph-name="Adieresis" horiz-adv-x="631" unicode="&#196;" /><glyph d="M325 950 381 840H251L188 950ZM234 295H397L316 631ZM408 784 613 0H469L426 178H206L163 0H18L223 784Z" glyph-name="Agrave" horiz-adv-x="631" unicode="&#192;" /><glyph d="M178 937H454V853H178ZM234 295H397L316 631ZM408 784 613 0H469L426 178H206L163 0H18L223 784Z" glyph-name="Amacron" horiz-adv-x="631" unicode="&#256;" /><glyph d="M408 784 613 0H469L316 631L163 0H18L223 784Z" glyph-name="Anocross" horiz-adv-x="631" unicode="&#59185;" /><glyph d="M234 295H397L316 631ZM545 -79Q545 -97 557 -108.5Q569 -120 592 -120Q608 -120 620 -116.5Q632 -113 640 -108L671 -190Q655 -200 628 -207Q601 -214 572 -214Q515 -214 480 -188.5Q445 -163 445 -109Q445 -83 452.5 -61Q460 -39 474 -20L426 178H206L163 0H18L223 784H408L613 0Q582 -14 563.5 -33Q545 -52 545 -79Z" glyph-name="Aogonek" horiz-adv-x="631" unicode="&#260;" /><glyph d="M264 861Q264 839 279 823.5Q294 808 316 808Q338 808 353 823.5Q368 839 368 861Q368 882 353 897.5Q338 913 316 913Q294 913 279 897.5Q264 882 264 861ZM234 295H397L316 631ZM214 861Q214 882 222 900.5Q230 919 244 933Q258 947 276.5 955Q295 963 316 963Q337 963 355.5 955Q374 947 388 933Q402 919 410 900.5Q418 882 418 861Q418 838 408.5 818Q399 798 382 784H408L613 0H469L426 178H206L163 0H18L223 784H249Q233 798 223.5 818Q214 838 214 861Z" glyph-name="Aring" horiz-adv-x="631" unicode="&#197;" /><glyph d="M234 295H397L316 631ZM490 943Q490 882 462 857.5Q434 833 395 833Q371 833 351 841Q331 849 313 858Q295 867 279.5 875Q264 883 250 883Q236 883 225.5 875Q215 867 215 847H142Q142 908 170 932.5Q198 957 237 957Q261 957 281 949Q301 941 319 932Q337 923 352.5 915Q368 907 382 907Q396 907 406.5 915Q417 923 417 943ZM408 784 613 0H469L426 178H206L163 0H18L223 784Z" glyph-name="Atilde" horiz-adv-x="631" unicode="&#195;" /><glyph d="M195 663V458H300Q321 458 341 462.5Q361 467 376 478Q391 489 400.5 507.5Q410 526 410 554V567Q410 595 400.5 613.5Q391 632 376 643Q361 654 341 658.5Q321 663 300 663ZM195 341V117H315Q337 117 357.5 122.5Q378 128 394 140Q410 152 420 172.5Q430 193 430 223V234Q430 264 420 284.5Q410 305 394 317.5Q378 330 357.5 335.5Q337 341 315 341ZM300 780Q346 780 390.5 771Q435 762 469.5 739Q504 716 525 675Q546 634 546 570V550Q546 492 521.5 457Q497 422 459 402Q505 382 535.5 344Q566 306 566 239V219Q566 153 544 110.5Q522 68 486 43.5Q450 19 404 9.5Q358 0 310 0H61V780Z" glyph-name="B" horiz-adv-x="617" unicode="B" /><glyph d="M348 849H232V941H348ZM195 663V458H300Q321 458 341 462.5Q361 467 376 478Q391 489 400.5 507.5Q410 526 410 554V567Q410 595 400.5 613.5Q391 632 376 643Q361 654 341 658.5Q321 663 300 663ZM195 341V117H315Q337 117 357.5 122.5Q378 128 394 140Q410 152 420 172.5Q430 193 430 223V234Q430 264 420 284.5Q410 305 394 317.5Q378 330 357.5 335.5Q337 341 315 341ZM300 780Q346 780 390.5 771Q435 762 469.5 739Q504 716 525 675Q546 634 546 570V550Q546 492 521.5 457Q497 422 459 402Q505 382 535.5 344Q566 306 566 239V219Q566 153 544 110.5Q522 68 486 43.5Q450 19 404 9.5Q358 0 310 0H61V780Z" glyph-name="Bdotaccent" horiz-adv-x="617" unicode="&#7682;" /><glyph d="M181 370Q181 238 212.5 171Q244 104 328 104H337Q405 104 434 146.5Q463 189 463 263H598V253Q598 114 531 50.5Q464 -13 329 -13Q256 -13 202.5 9Q149 31 113.5 77.5Q78 124 61 196.5Q44 269 44 370V410Q44 511 61 583.5Q78 656 113.5 702.5Q149 749 202.5 771Q256 793 329 793Q464 793 531 728.5Q598 664 598 521V487H463Q463 580 435.5 628Q408 676 337 676H328Q245 676 213 609Q181 542 181 410Z" glyph-name="C" horiz-adv-x="640" unicode="C" /><glyph d="M457 950 394 840H264L320 950ZM181 370Q181 238 212.5 171Q244 104 328 104H337Q405 104 434 146.5Q463 189 463 263H598V253Q598 114 531 50.5Q464 -13 329 -13Q256 -13 202.5 9Q149 31 113.5 77.5Q78 124 61 196.5Q44 269 44 370V410Q44 511 61 583.5Q78 656 113.5 702.5Q149 749 202.5 771Q256 793 329 793Q464 793 531 728.5Q598 664 598 521V487H463Q463 580 435.5 628Q408 676 337 676H328Q245 676 213 609Q181 542 181 410Z" glyph-name="Cacute" horiz-adv-x="640" unicode="&#262;" /><glyph d="M265 950 329 899 393 950H513L394 840H264L145 950ZM181 370Q181 238 212.5 171Q244 104 328 104H337Q405 104 434 146.5Q463 189 463 263H598V253Q598 114 531 50.5Q464 -13 329 -13Q256 -13 202.5 9Q149 31 113.5 77.5Q78 124 61 196.5Q44 269 44 370V410Q44 511 61 583.5Q78 656 113.5 702.5Q149 749 202.5 771Q256 793 329 793Q464 793 531 728.5Q598 664 598 521V487H463Q463 580 435.5 628Q408 676 337 676H328Q245 676 213 609Q181 542 181 410Z" glyph-name="Ccaron" horiz-adv-x="640" unicode="&#268;" /><glyph d="M257 -131Q270 -139 289 -143Q308 -147 328 -147Q355 -147 367 -141Q379 -135 379 -122Q379 -97 326 -97Q319 -97 313.5 -97.5Q308 -98 303 -99Q298 -100 292 -101L275 -75L299 -12Q168 -4 106 87Q44 178 44 370V410Q44 511 61 583.5Q78 656 113.5 702.5Q149 749 202.5 771Q256 793 329 793Q464 793 531 728.5Q598 664 598 521V487H463Q463 580 435.5 628Q408 676 337 676H328Q245 676 213 609Q181 542 181 410V370Q181 238 212.5 171Q244 104 328 104H337Q405 104 434 146.5Q463 189 463 263H598V253Q598 124 540 60.5Q482 -3 365 -11L353 -45Q393 -47 423 -67Q453 -87 453 -129Q453 -172 424 -193Q395 -214 339 -214Q305 -214 278 -207Q251 -200 237 -190Z" glyph-name="Ccedilla" horiz-adv-x="640" unicode="&#199;" /><glyph d="M145 840 264 950H394L513 840H393L329 890L265 840ZM181 370Q181 238 212.5 171Q244 104 328 104H337Q405 104 434 146.5Q463 189 463 263H598V253Q598 114 531 50.5Q464 -13 329 -13Q256 -13 202.5 9Q149 31 113.5 77.5Q78 124 61 196.5Q44 269 44 370V410Q44 511 61 583.5Q78 656 113.5 702.5Q149 749 202.5 771Q256 793 329 793Q464 793 531 728.5Q598 664 598 521V487H463Q463 580 435.5 628Q408 676 337 676H328Q245 676 213 609Q181 542 181 410Z" glyph-name="Ccircumflex" horiz-adv-x="640" unicode="&#264;" /><glyph d="M387 849H271V941H387ZM181 370Q181 238 212.5 171Q244 104 328 104H337Q405 104 434 146.5Q463 189 463 263H598V253Q598 114 531 50.5Q464 -13 329 -13Q256 -13 202.5 9Q149 31 113.5 77.5Q78 124 61 196.5Q44 269 44 370V410Q44 511 61 583.5Q78 656 113.5 702.5Q149 749 202.5 771Q256 793 329 793Q464 793 531 728.5Q598 664 598 521V487H463Q463 580 435.5 628Q408 676 337 676H328Q245 676 213 609Q181 542 181 410Z" glyph-name="Cdotaccent" horiz-adv-x="640" unicode="&#266;" /><glyph d="M283 117Q387 117 430.5 177.5Q474 238 474 370V410Q474 542 430.5 602.5Q387 663 283 663H195V117ZM611 370Q611 269 592 198.5Q573 128 533.5 84Q494 40 433.5 20Q373 0 291 0H61V780H291Q373 780 433.5 760Q494 740 533.5 696Q573 652 592 581.5Q611 511 611 410Z" glyph-name="D" horiz-adv-x="655" unicode="D" /><glyph d="M243 950 307 899 371 950H491L372 840H242L123 950ZM283 117Q387 117 430.5 177.5Q474 238 474 370V410Q474 542 430.5 602.5Q387 663 283 663H195V117ZM611 370Q611 269 592 198.5Q573 128 533.5 84Q494 40 433.5 20Q373 0 291 0H61V780H291Q373 780 433.5 760Q494 740 533.5 696Q573 652 592 581.5Q611 511 611 410Z" glyph-name="Dcaron" horiz-adv-x="655" unicode="&#270;" /><glyph d="M255 450H435V348H255V117H343Q447 117 490.5 177.5Q534 238 534 370V410Q534 542 490.5 602.5Q447 663 343 663H255ZM14 450H121V780H351Q433 780 493.5 760Q554 740 593.5 696Q633 652 652 581.5Q671 511 671 410V370Q671 269 652 198.5Q633 128 593.5 84Q554 40 493.5 20Q433 0 351 0H121V348H14Z" glyph-name="Dcroat" horiz-adv-x="715" unicode="&#272;" /><glyph d="M365 849H249V941H365ZM283 117Q387 117 430.5 177.5Q474 238 474 370V410Q474 542 430.5 602.5Q387 663 283 663H195V117ZM611 370Q611 269 592 198.5Q573 128 533.5 84Q494 40 433.5 20Q373 0 291 0H61V780H291Q373 780 433.5 760Q494 740 533.5 696Q573 652 592 581.5Q611 511 611 410Z" glyph-name="Ddotaccent" horiz-adv-x="655" unicode="&#7690;" /><glyph d="M525 780V663H195V456H475V340H195V117H525V0H61V780Z" glyph-name="E" horiz-adv-x="565" unicode="E" /><glyph d="M425 950 362 840H232L288 950ZM525 780V663H195V456H475V340H195V117H525V0H61V780Z" glyph-name="Eacute" horiz-adv-x="565" unicode="&#201;" /><glyph d="M525 780V663H195V456H475V340H195V117H525V0H61V780ZM297 826Q247 826 214 836Q181 846 161.5 862.5Q142 879 134 901.5Q126 924 126 950H218Q218 927 236.5 914Q255 901 297 901Q339 901 357.5 914Q376 927 376 950H468Q468 924 460 901.5Q452 879 432.5 862.5Q413 846 380 836Q347 826 297 826Z" glyph-name="Ebreve" horiz-adv-x="565" unicode="&#276;" /><glyph d="M233 950 297 899 361 950H481L362 840H232L113 950ZM525 780V663H195V456H475V340H195V117H525V0H61V780Z" glyph-name="Ecaron" horiz-adv-x="565" unicode="&#282;" /><glyph d="M113 840 232 950H362L481 840H361L297 890L233 840ZM525 780V663H195V456H475V340H195V117H525V0H61V780Z" glyph-name="Ecircumflex" horiz-adv-x="565" unicode="&#202;" /><glyph d="M440 849H323V941H440ZM271 849H154V941H271ZM525 780V663H195V456H475V340H195V117H525V0H61V780Z" glyph-name="Edieresis" horiz-adv-x="565" unicode="&#203;" /><glyph d="M355 849H239V941H355ZM525 780V663H195V456H475V340H195V117H525V0H61V780Z" glyph-name="Edotaccent" horiz-adv-x="565" unicode="&#278;" /><glyph d="M306 950 362 840H232L169 950ZM525 780V663H195V456H475V340H195V117H525V0H61V780Z" glyph-name="Egrave" horiz-adv-x="565" unicode="&#200;" /><glyph d="M159 937H435V853H159ZM525 780V663H195V456H475V340H195V117H525V0H61V780Z" glyph-name="Emacron" horiz-adv-x="565" unicode="&#274;" /><glyph d="M614 -27Q614 -78 600.5 -113.5Q587 -149 562.5 -171Q538 -193 504 -203Q470 -213 429 -213Q394 -213 373.5 -208Q353 -203 347 -200V-92Q352 -94 368 -96.5Q384 -99 398 -99Q417 -99 432.5 -96Q448 -93 459 -84.5Q470 -76 476.5 -61Q483 -46 484 -23L184 538L188 373V0H61V780H203L491 242L487 407V780H614Z" glyph-name="Eng" horiz-adv-x="675" unicode="&#330;" /><glyph d="M525 780V663H195V456H475V340H195V117H525V0Q494 -14 475.5 -33Q457 -52 457 -79Q457 -97 469 -108.5Q481 -120 504 -120Q520 -120 532 -116.5Q544 -113 552 -108L583 -190Q567 -200 540 -207Q513 -214 484 -214Q427 -214 392 -188.5Q357 -163 357 -109Q357 -76 370 -48.5Q383 -21 403 0H61V780Z" glyph-name="Eogonek" horiz-adv-x="565" unicode="&#280;" /><glyph d="M439 671Q423 673 407.5 674.5Q392 676 376 676Q288 676 239 642Q190 608 190 530V0H56V535Q56 667 136 730Q216 793 376 793Q437 793 490.5 783.5Q544 774 587 754V662L461 458L512 452Q637 437 700 385Q763 333 763 230V219Q763 109 699 48Q635 -13 516 -13Q454 -13 407.5 1.5Q361 16 330 47.5Q299 79 284 130Q269 181 269 253V263H403Q403 218 411.5 188Q420 158 435 139Q450 120 470 112Q490 104 513 104H522Q569 104 597.5 132Q626 160 626 214V220Q626 271 592.5 300.5Q559 330 486 339L304 361V453Z" glyph-name="Eszett" horiz-adv-x="790" unicode="&#7838;" /><glyph d="M255 450H435V348H255V117H343Q447 117 490.5 177.5Q534 238 534 370V410Q534 542 490.5 602.5Q447 663 343 663H255ZM14 450H121V780H351Q433 780 493.5 760Q554 740 593.5 696Q633 652 652 581.5Q671 511 671 410V370Q671 269 652 198.5Q633 128 593.5 84Q554 40 493.5 20Q433 0 351 0H121V348H14Z" glyph-name="Eth" horiz-adv-x="715" unicode="&#208;" /><glyph d="M32 320V438H99Q103 625 164.5 709Q226 793 345 793Q459 793 509 730Q559 667 559 534V500H444Q444 593 423.5 634Q403 675 353 675H345Q291 675 265 615.5Q239 556 236 438H416L358 320H237Q242 212 268 158.5Q294 105 345 105H353Q444 105 444 250H559V241Q559 111 508.5 49Q458 -13 345 -13Q288 -13 244 6Q200 25 169 65.5Q138 106 121 169Q104 232 100 320Z" glyph-name="Euro" horiz-adv-x="600" unicode="&#8364;" /><glyph d="M518 780V663H195V456H468V340H195V0H61V780Z" glyph-name="F" horiz-adv-x="538" unicode="F" /><glyph d="M355 849H239V941H355ZM518 780V663H195V456H468V340H195V0H61V780Z" glyph-name="Fdotaccent" horiz-adv-x="538" unicode="&#7710;" /><glyph d="M346 -13Q269 -13 212.5 9Q156 31 118.5 77.5Q81 124 62.5 196.5Q44 269 44 370V410Q44 511 62 583.5Q80 656 116.5 702.5Q153 749 208 771Q263 793 336 793Q471 793 539.5 728.5Q608 664 608 521V487H474Q474 580 445.5 628Q417 676 344 676H335Q249 676 215 609Q181 542 181 410V370Q181 304 189 254Q197 204 215.5 171Q234 138 265 121Q296 104 342 104H351Q393 104 423.5 115.5Q454 127 474 143V294H361V410H608V78Q588 60 563 44Q538 28 506.5 15Q475 2 435 -5.5Q395 -13 346 -13Z" glyph-name="G" horiz-adv-x="664" unicode="G" /><glyph d="M336 826Q286 826 253 836Q220 846 200.5 862.5Q181 879 173 901.5Q165 924 165 950H257Q257 927 275.5 914Q294 901 336 901Q378 901 396.5 914Q415 927 415 950H507Q507 924 499 901.5Q491 879 471.5 862.5Q452 846 419 836Q386 826 336 826ZM346 -13Q269 -13 212.5 9Q156 31 118.5 77.5Q81 124 62.5 196.5Q44 269 44 370V410Q44 511 62 583.5Q80 656 116.5 702.5Q153 749 208 771Q263 793 336 793Q471 793 539.5 728.5Q608 664 608 521V487H474Q474 580 445.5 628Q417 676 344 676H335Q249 676 215 609Q181 542 181 410V370Q181 304 189 254Q197 204 215.5 171Q234 138 265 121Q296 104 342 104H351Q393 104 423.5 115.5Q454 127 474 143V294H361V410H608V78Q588 60 563 44Q538 28 506.5 15Q475 2 435 -5.5Q395 -13 346 -13Z" glyph-name="Gbreve" horiz-adv-x="664" unicode="&#286;" /><glyph d="M152 840 271 950H401L520 840H400L336 890L272 840ZM346 -13Q269 -13 212.5 9Q156 31 118.5 77.5Q81 124 62.5 196.5Q44 269 44 370V410Q44 511 62 583.5Q80 656 116.5 702.5Q153 749 208 771Q263 793 336 793Q471 793 539.5 728.5Q608 664 608 521V487H474Q474 580 445.5 628Q417 676 344 676H335Q249 676 215 609Q181 542 181 410V370Q181 304 189 254Q197 204 215.5 171Q234 138 265 121Q296 104 342 104H351Q393 104 423.5 115.5Q454 127 474 143V294H361V410H608V78Q588 60 563 44Q538 28 506.5 15Q475 2 435 -5.5Q395 -13 346 -13Z" glyph-name="Gcircumflex" horiz-adv-x="664" unicode="&#284;" /><glyph d="M407 -103Q407 -166 374 -194.5Q341 -223 273 -223V-174Q304 -174 325 -165Q346 -156 354 -133H285V-47H407ZM346 -13Q269 -13 212.5 9Q156 31 118.5 77.5Q81 124 62.5 196.5Q44 269 44 370V410Q44 511 62 583.5Q80 656 116.5 702.5Q153 749 208 771Q263 793 336 793Q471 793 539.5 728.5Q608 664 608 521V487H474Q474 580 445.5 628Q417 676 344 676H335Q249 676 215 609Q181 542 181 410V370Q181 304 189 254Q197 204 215.5 171Q234 138 265 121Q296 104 342 104H351Q393 104 423.5 115.5Q454 127 474 143V294H361V410H608V78Q588 60 563 44Q538 28 506.5 15Q475 2 435 -5.5Q395 -13 346 -13Z" glyph-name="Gcommaaccent" horiz-adv-x="664" unicode="&#290;" /><glyph d="M394 849H278V941H394ZM346 -13Q269 -13 212.5 9Q156 31 118.5 77.5Q81 124 62.5 196.5Q44 269 44 370V410Q44 511 62 583.5Q80 656 116.5 702.5Q153 749 208 771Q263 793 336 793Q471 793 539.5 728.5Q608 664 608 521V487H474Q474 580 445.5 628Q417 676 344 676H335Q249 676 215 609Q181 542 181 410V370Q181 304 189 254Q197 204 215.5 171Q234 138 265 121Q296 104 342 104H351Q393 104 423.5 115.5Q454 127 474 143V294H361V410H608V78Q588 60 563 44Q538 28 506.5 15Q475 2 435 -5.5Q395 -13 346 -13Z" glyph-name="Gdotaccent" horiz-adv-x="664" unicode="&#288;" /><glyph d="M594 780V0H460V340H195V0H61V780H195V456H460V780Z" glyph-name="H" horiz-adv-x="655" unicode="H" /><glyph d="M460 456V568H195V456ZM594 780V0H460V340H195V0H61V780H195V670H460V780Z" glyph-name="Hbar" horiz-adv-x="655" unicode="&#294;" /><glyph d="M144 840 263 950H393L512 840H392L328 890L264 840ZM594 780V0H460V340H195V0H61V780H195V456H460V780Z" glyph-name="Hcircumflex" horiz-adv-x="655" unicode="&#292;" /><glyph d="M200 0H66V780H200Z" glyph-name="I" horiz-adv-x="266" unicode="I" /><glyph d="M200 0H66V780H200ZM383 780H517V181Q517 128 503.5 91Q490 54 466 31Q442 8 409 -2.5Q376 -13 336 -13Q299 -13 277 -7.5Q255 -2 248 3V114Q254 111 270.5 107.5Q287 104 301 104Q341 104 362 122.5Q383 141 383 196Z" glyph-name="IJ" horiz-adv-x="573" unicode="&#306;" /><glyph d="M261 950 198 840H68L124 950ZM200 0H66V780H200Z" glyph-name="Iacute" horiz-adv-x="266" unicode="&#205;" /><glyph d="M133 826Q83 826 50 836Q17 846 -2.5 862.5Q-22 879 -30 901.5Q-38 924 -38 950H54Q54 927 72.5 914Q91 901 133 901Q175 901 193.5 914Q212 927 212 950H304Q304 924 296 901.5Q288 879 268.5 862.5Q249 846 216 836Q183 826 133 826ZM200 0H66V780H200Z" glyph-name="Ibreve" horiz-adv-x="266" unicode="&#300;" /><glyph d="M-51 840 68 950H198L317 840H197L133 890L69 840ZM200 0H66V780H200Z" glyph-name="Icircumflex" horiz-adv-x="266" unicode="&#206;" /><glyph d="M107 849H-10V941H107ZM276 849H159V941H276ZM200 0H66V780H200Z" glyph-name="Idieresis" horiz-adv-x="266" unicode="&#207;" /><glyph d="M191 849H75V941H191ZM200 0H66V780H200Z" glyph-name="Idotaccent" horiz-adv-x="266" unicode="&#304;" /><glyph d="M142 950 198 840H68L5 950ZM200 0H66V780H200Z" glyph-name="Igrave" horiz-adv-x="266" unicode="&#204;" /><glyph d="M-5 937H271V853H-5ZM200 0H66V780H200Z" glyph-name="Imacron" horiz-adv-x="266" unicode="&#298;" /><glyph d="M132 -79Q132 -97 144 -108.5Q156 -120 179 -120Q195 -120 207 -116.5Q219 -113 227 -108L258 -190Q242 -200 215 -207Q188 -214 159 -214Q102 -214 67 -188.5Q32 -163 32 -109Q32 -81 41 -57Q50 -33 66 -13V780H200V0Q169 -14 150.5 -33Q132 -52 132 -79Z" glyph-name="Iogonek" horiz-adv-x="266" unicode="&#302;" /><glyph d="M307 943Q307 882 279 857.5Q251 833 212 833Q188 833 168 841Q148 849 130 858Q112 867 96.5 875Q81 883 67 883Q53 883 42.5 875Q32 867 32 847H-41Q-41 908 -13 932.5Q15 957 54 957Q78 957 98 949Q118 941 136 932Q154 923 169.5 915Q185 907 199 907Q213 907 223.5 915Q234 923 234 943ZM200 0H66V780H200Z" glyph-name="Itilde" horiz-adv-x="266" unicode="&#296;" /><glyph d="M468 780V239Q468 120 416.5 53.5Q365 -13 246 -13Q184 -13 142 4Q100 21 74 53Q48 85 36.5 132.5Q25 180 25 240V263H152Q152 182 171.5 143Q191 104 243 104Q294 104 314 142.5Q334 181 334 256V780Z" glyph-name="J" horiz-adv-x="524" unicode="J" /><glyph d="M217 840 336 950H466L585 840H465L401 890L337 840ZM468 780V239Q468 120 416.5 53.5Q365 -13 246 -13Q184 -13 142 4Q100 21 74 53Q48 85 36.5 132.5Q25 180 25 240V263H152Q152 182 171.5 143Q191 104 243 104Q294 104 314 142.5Q334 181 334 256V780Z" glyph-name="Jcircumflex" horiz-adv-x="524" unicode="&#308;" /><glyph d="M195 435 419 780H581L359 463L581 0H432L274 342L195 230V0H61V780H195Z" glyph-name="K" horiz-adv-x="606" unicode="K" /><glyph d="M364 -103Q364 -166 331 -194.5Q298 -223 230 -223V-174Q261 -174 282 -165Q303 -156 311 -133H242V-47H364ZM195 435 419 780H581L359 463L581 0H432L274 342L195 230V0H61V780H195Z" glyph-name="Kcommaaccent" horiz-adv-x="606" unicode="&#310;" /><glyph d="M61 0V780H195V117H496V0Z" glyph-name="L" horiz-adv-x="511" unicode="L" /><glyph d="M256 950 193 840H63L119 950ZM61 0V780H195V117H496V0Z" glyph-name="Lacute" horiz-adv-x="511" unicode="&#313;" /><glyph d="M404 800 381 601H319V800ZM61 0V780H195V117H496V0Z" glyph-name="Lcaron" horiz-adv-x="511" unicode="&#317;" /><glyph d="M340 -103Q340 -166 307 -194.5Q274 -223 206 -223V-174Q237 -174 258 -165Q279 -156 287 -133H218V-47H340ZM61 0V780H195V117H496V0Z" glyph-name="Lcommaaccent" horiz-adv-x="511" unicode="&#315;" /><glyph d="M452 327H310V469H452ZM61 0V780H195V117H496V0Z" glyph-name="Ldot" horiz-adv-x="511" unicode="&#319;" /><glyph d="M14 326 121 379V780H255V446L448 543V429L255 332V117H556V0H121V265L14 212Z" glyph-name="Lslash" horiz-adv-x="571" unicode="&#321;" /><glyph d="M491 0H357L191 547L195 386V0H61V780H258L424 232L591 780H788V0H654V386L658 547Z" glyph-name="M" horiz-adv-x="849" unicode="M" /><glyph d="M482 849H366V941H482ZM491 0H357L191 547L195 386V0H61V780H258L424 232L591 780H788V0H654V386L658 547Z" glyph-name="Mdotaccent" horiz-adv-x="849" unicode="&#7744;" /><glyph d="M614 0H472L184 538L188 373V0H61V780H203L491 242L487 407V780H614Z" glyph-name="N" horiz-adv-x="675" unicode="N" /><glyph d="M466 950 403 840H273L329 950ZM614 0H472L184 538L188 373V0H61V780H203L491 242L487 407V780H614Z" glyph-name="Nacute" horiz-adv-x="675" unicode="&#323;" /><glyph d="M274 950 338 899 402 950H522L403 840H273L154 950ZM614 0H472L184 538L188 373V0H61V780H203L491 242L487 407V780H614Z" glyph-name="Ncaron" horiz-adv-x="675" unicode="&#327;" /><glyph d="M399 -103Q399 -166 366 -194.5Q333 -223 265 -223V-174Q296 -174 317 -165Q338 -156 346 -133H277V-47H399ZM614 0H472L184 538L188 373V0H61V780H203L491 242L487 407V780H614Z" glyph-name="Ncommaaccent" horiz-adv-x="675" unicode="&#325;" /><glyph d="M512 943Q512 882 484 857.5Q456 833 417 833Q393 833 373 841Q353 849 335 858Q317 867 301.5 875Q286 883 272 883Q258 883 247.5 875Q237 867 237 847H164Q164 908 192 932.5Q220 957 259 957Q283 957 303 949Q323 941 341 932Q359 923 374.5 915Q390 907 404 907Q418 907 428.5 915Q439 923 439 943ZM614 0H472L184 538L188 373V0H61V780H203L491 242L487 407V780H614Z" glyph-name="Ntilde" horiz-adv-x="675" unicode="&#209;" /><glyph d="M337 104Q419 104 451.5 170.5Q484 237 484 370V410Q484 543 451.5 609.5Q419 676 337 676H328Q246 676 213.5 609.5Q181 543 181 410V370Q181 237 213.5 170.5Q246 104 328 104ZM333 -13Q259 -13 205 9Q151 31 115 77.5Q79 124 61.5 196.5Q44 269 44 370V410Q44 511 61.5 583.5Q79 656 115 702.5Q151 749 205 771Q259 793 333 793Q406 793 460 771Q514 749 550 702.5Q586 656 603.5 583.5Q621 511 621 410V370Q621 269 603.5 196.5Q586 124 550 77.5Q514 31 460 9Q406 -13 333 -13Z" glyph-name="O" horiz-adv-x="665" unicode="O" /><glyph d="M373 663Q268 663 224.5 602.5Q181 542 181 410V370Q181 238 224.5 177.5Q268 117 373 117H436V663ZM44 410Q44 511 63.5 581.5Q83 652 122.5 696Q162 740 222 760Q282 780 364 780H900V663H570V456H850V340H570V117H900V0H364Q282 0 222 20Q162 40 122.5 84Q83 128 63.5 198.5Q44 269 44 370Z" glyph-name="OE" horiz-adv-x="940" unicode="&#338;" /><glyph d="M461 950 398 840H268L324 950ZM337 104Q419 104 451.5 170.5Q484 237 484 370V410Q484 543 451.5 609.5Q419 676 337 676H328Q246 676 213.5 609.5Q181 543 181 410V370Q181 237 213.5 170.5Q246 104 328 104ZM333 -13Q259 -13 205 9Q151 31 115 77.5Q79 124 61.5 196.5Q44 269 44 370V410Q44 511 61.5 583.5Q79 656 115 702.5Q151 749 205 771Q259 793 333 793Q406 793 460 771Q514 749 550 702.5Q586 656 603.5 583.5Q621 511 621 410V370Q621 269 603.5 196.5Q586 124 550 77.5Q514 31 460 9Q406 -13 333 -13Z" glyph-name="Oacute" horiz-adv-x="665" unicode="&#211;" /><glyph d="M333 826Q283 826 250 836Q217 846 197.5 862.5Q178 879 170 901.5Q162 924 162 950H254Q254 927 272.5 914Q291 901 333 901Q375 901 393.5 914Q412 927 412 950H504Q504 924 496 901.5Q488 879 468.5 862.5Q449 846 416 836Q383 826 333 826ZM337 104Q419 104 451.5 170.5Q484 237 484 370V410Q484 543 451.5 609.5Q419 676 337 676H328Q246 676 213.5 609.5Q181 543 181 410V370Q181 237 213.5 170.5Q246 104 328 104ZM333 -13Q259 -13 205 9Q151 31 115 77.5Q79 124 61.5 196.5Q44 269 44 370V410Q44 511 61.5 583.5Q79 656 115 702.5Q151 749 205 771Q259 793 333 793Q406 793 460 771Q514 749 550 702.5Q586 656 603.5 583.5Q621 511 621 410V370Q621 269 603.5 196.5Q586 124 550 77.5Q514 31 460 9Q406 -13 333 -13Z" glyph-name="Obreve" horiz-adv-x="665" unicode="&#334;" /><glyph d="M149 840 268 950H398L517 840H397L333 890L269 840ZM337 104Q419 104 451.5 170.5Q484 237 484 370V410Q484 543 451.5 609.5Q419 676 337 676H328Q246 676 213.5 609.5Q181 543 181 410V370Q181 237 213.5 170.5Q246 104 328 104ZM333 -13Q259 -13 205 9Q151 31 115 77.5Q79 124 61.5 196.5Q44 269 44 370V410Q44 511 61.5 583.5Q79 656 115 702.5Q151 749 205 771Q259 793 333 793Q406 793 460 771Q514 749 550 702.5Q586 656 603.5 583.5Q621 511 621 410V370Q621 269 603.5 196.5Q586 124 550 77.5Q514 31 460 9Q406 -13 333 -13Z" glyph-name="Ocircumflex" horiz-adv-x="665" unicode="&#212;" /><glyph d="M476 849H359V941H476ZM307 849H190V941H307ZM337 104Q419 104 451.5 170.5Q484 237 484 370V410Q484 543 451.5 609.5Q419 676 337 676H328Q246 676 213.5 609.5Q181 543 181 410V370Q181 237 213.5 170.5Q246 104 328 104ZM333 -13Q259 -13 205 9Q151 31 115 77.5Q79 124 61.5 196.5Q44 269 44 370V410Q44 511 61.5 583.5Q79 656 115 702.5Q151 749 205 771Q259 793 333 793Q406 793 460 771Q514 749 550 702.5Q586 656 603.5 583.5Q621 511 621 410V370Q621 269 603.5 196.5Q586 124 550 77.5Q514 31 460 9Q406 -13 333 -13Z" glyph-name="Odieresis" horiz-adv-x="665" unicode="&#214;" /><glyph d="M342 950 398 840H268L205 950ZM337 104Q419 104 451.5 170.5Q484 237 484 370V410Q484 543 451.5 609.5Q419 676 337 676H328Q246 676 213.5 609.5Q181 543 181 410V370Q181 237 213.5 170.5Q246 104 328 104ZM333 -13Q259 -13 205 9Q151 31 115 77.5Q79 124 61.5 196.5Q44 269 44 370V410Q44 511 61.5 583.5Q79 656 115 702.5Q151 749 205 771Q259 793 333 793Q406 793 460 771Q514 749 550 702.5Q586 656 603.5 583.5Q621 511 621 410V370Q621 269 603.5 196.5Q586 124 550 77.5Q514 31 460 9Q406 -13 333 -13Z" glyph-name="Ograve" horiz-adv-x="665" unicode="&#210;" /><glyph d="M532 950 469 840H351L408 950ZM372 950 315 840H197L248 950ZM337 104Q419 104 451.5 170.5Q484 237 484 370V410Q484 543 451.5 609.5Q419 676 337 676H328Q246 676 213.5 609.5Q181 543 181 410V370Q181 237 213.5 170.5Q246 104 328 104ZM333 -13Q259 -13 205 9Q151 31 115 77.5Q79 124 61.5 196.5Q44 269 44 370V410Q44 511 61.5 583.5Q79 656 115 702.5Q151 749 205 771Q259 793 333 793Q406 793 460 771Q514 749 550 702.5Q586 656 603.5 583.5Q621 511 621 410V370Q621 269 603.5 196.5Q586 124 550 77.5Q514 31 460 9Q406 -13 333 -13Z" glyph-name="Ohungarumlaut" horiz-adv-x="665" unicode="&#336;" /><glyph d="M195 937H471V853H195ZM337 104Q419 104 451.5 170.5Q484 237 484 370V410Q484 543 451.5 609.5Q419 676 337 676H328Q246 676 213.5 609.5Q181 543 181 410V370Q181 237 213.5 170.5Q246 104 328 104ZM333 -13Q259 -13 205 9Q151 31 115 77.5Q79 124 61.5 196.5Q44 269 44 370V410Q44 511 61.5 583.5Q79 656 115 702.5Q151 749 205 771Q259 793 333 793Q406 793 460 771Q514 749 550 702.5Q586 656 603.5 583.5Q621 511 621 410V370Q621 269 603.5 196.5Q586 124 550 77.5Q514 31 460 9Q406 -13 333 -13Z" glyph-name="Omacron" horiz-adv-x="665" unicode="&#332;" /><glyph d="M181 370Q181 290 191 237L438 629Q403 676 337 676H328Q246 676 213.5 609.5Q181 543 181 410ZM484 410Q484 491 472 548L224 153Q258 104 328 104H337Q419 104 451.5 170.5Q484 237 484 370ZM44 410Q44 511 61.5 583.5Q79 656 115 702.5Q151 749 205 771Q259 793 333 793Q444 793 510 743L533 780H618L560 688Q621 596 621 410V370Q621 269 603.5 196.5Q586 124 550 77.5Q514 31 460 9Q406 -13 333 -13Q276 -13 231.5 -0.5Q187 12 152 39L128 0H43L102 95Q44 187 44 370Z" glyph-name="Oslash" horiz-adv-x="660" unicode="&#216;" /><glyph d="M507 943Q507 882 479 857.5Q451 833 412 833Q388 833 368 841Q348 849 330 858Q312 867 296.5 875Q281 883 267 883Q253 883 242.5 875Q232 867 232 847H159Q159 908 187 932.5Q215 957 254 957Q278 957 298 949Q318 941 336 932Q354 923 369.5 915Q385 907 399 907Q413 907 423.5 915Q434 923 434 943ZM337 104Q419 104 451.5 170.5Q484 237 484 370V410Q484 543 451.5 609.5Q419 676 337 676H328Q246 676 213.5 609.5Q181 543 181 410V370Q181 237 213.5 170.5Q246 104 328 104ZM333 -13Q259 -13 205 9Q151 31 115 77.5Q79 124 61.5 196.5Q44 269 44 370V410Q44 511 61.5 583.5Q79 656 115 702.5Q151 749 205 771Q259 793 333 793Q406 793 460 771Q514 749 550 702.5Q586 656 603.5 583.5Q621 511 621 410V370Q621 269 603.5 196.5Q586 124 550 77.5Q514 31 460 9Q406 -13 333 -13Z" glyph-name="Otilde" horiz-adv-x="665" unicode="&#213;" /><glyph d="M310 408Q329 408 350.5 412.5Q372 417 389.5 430.5Q407 444 418.5 467.5Q430 491 430 530V541Q430 580 418.5 603.5Q407 627 389.5 640.5Q372 654 350.5 658.5Q329 663 310 663H195V408ZM195 0H61V780H305Q351 780 397.5 771.5Q444 763 481.5 737.5Q519 712 542.5 666Q566 620 566 546V526Q566 451 542.5 405Q519 359 481.5 333.5Q444 308 397.5 299.5Q351 291 305 291H195Z" glyph-name="P" horiz-adv-x="598" unicode="P" /><glyph d="M349 849H233V941H349ZM310 408Q329 408 350.5 412.5Q372 417 389.5 430.5Q407 444 418.5 467.5Q430 491 430 530V541Q430 580 418.5 603.5Q407 627 389.5 640.5Q372 654 350.5 658.5Q329 663 310 663H195V408ZM195 0H61V780H305Q351 780 397.5 771.5Q444 763 481.5 737.5Q519 712 542.5 666Q566 620 566 546V526Q566 451 542.5 405Q519 359 481.5 333.5Q444 308 397.5 299.5Q351 291 305 291H195Z" glyph-name="Pdotaccent" horiz-adv-x="598" unicode="&#7766;" /><glyph d="M424 134Q456 164 470 223Q484 282 484 370V410Q484 543 451.5 609.5Q419 676 337 676H328Q246 676 213.5 609.5Q181 543 181 410V370Q181 237 213.5 170.5Q246 104 328 104H331L275 251H378ZM333 -13Q259 -13 205 9Q151 31 115 77.5Q79 124 61.5 196.5Q44 269 44 370V410Q44 511 61.5 583.5Q79 656 115 702.5Q151 749 205 771Q259 793 333 793Q406 793 460 771Q514 749 550 702.5Q586 656 603.5 583.5Q621 511 621 410V370Q621 222 584 135.5Q547 49 471 13L516 -100H409L375 -11Q364 -12 354 -12.5Q344 -13 333 -13Z" glyph-name="Q" horiz-adv-x="665" unicode="Q" /><glyph d="M310 408Q329 408 350.5 412.5Q372 417 389.5 430.5Q407 444 418.5 467.5Q430 491 430 530V541Q430 580 418.5 603.5Q407 627 389.5 640.5Q372 654 350.5 658.5Q329 663 310 663H195V408ZM195 0H61V780H305Q351 780 397.5 771.5Q444 763 481.5 737.5Q519 712 542.5 666Q566 620 566 546V526Q566 479 556 443.5Q546 408 529 382.5Q512 357 489 339.5Q466 322 439 312L566 0H421L309 291H195Z" glyph-name="R" horiz-adv-x="611" unicode="R" /><glyph d="M418 950 355 840H225L281 950ZM310 408Q329 408 350.5 412.5Q372 417 389.5 430.5Q407 444 418.5 467.5Q430 491 430 530V541Q430 580 418.5 603.5Q407 627 389.5 640.5Q372 654 350.5 658.5Q329 663 310 663H195V408ZM195 0H61V780H305Q351 780 397.5 771.5Q444 763 481.5 737.5Q519 712 542.5 666Q566 620 566 546V526Q566 479 556 443.5Q546 408 529 382.5Q512 357 489 339.5Q466 322 439 312L566 0H421L309 291H195Z" glyph-name="Racute" horiz-adv-x="611" unicode="&#340;" /><glyph d="M226 950 290 899 354 950H474L355 840H225L106 950ZM310 408Q329 408 350.5 412.5Q372 417 389.5 430.5Q407 444 418.5 467.5Q430 491 430 530V541Q430 580 418.5 603.5Q407 627 389.5 640.5Q372 654 350.5 658.5Q329 663 310 663H195V408ZM195 0H61V780H305Q351 780 397.5 771.5Q444 763 481.5 737.5Q519 712 542.5 666Q566 620 566 546V526Q566 479 556 443.5Q546 408 529 382.5Q512 357 489 339.5Q466 322 439 312L566 0H421L309 291H195Z" glyph-name="Rcaron" horiz-adv-x="611" unicode="&#344;" /><glyph d="M361 -103Q361 -166 328 -194.5Q295 -223 227 -223V-174Q258 -174 279 -165Q300 -156 308 -133H239V-47H361ZM310 408Q329 408 350.5 412.5Q372 417 389.5 430.5Q407 444 418.5 467.5Q430 491 430 530V541Q430 580 418.5 603.5Q407 627 389.5 640.5Q372 654 350.5 658.5Q329 663 310 663H195V408ZM195 0H61V780H305Q351 780 397.5 771.5Q444 763 481.5 737.5Q519 712 542.5 666Q566 620 566 546V526Q566 479 556 443.5Q546 408 529 382.5Q512 357 489 339.5Q466 322 439 312L566 0H421L309 291H195Z" glyph-name="Rcommaaccent" horiz-adv-x="611" unicode="&#342;" /><glyph d="M290 340Q162 357 103 408.5Q44 460 44 557V567Q44 671 113.5 732Q183 793 311 793Q450 793 513.5 727.5Q577 662 577 530V507H443Q443 595 412.5 635.5Q382 676 312 676H303Q247 676 214 648Q181 620 181 574V568Q181 544 187.5 525Q194 506 211 492Q228 478 257.5 467.5Q287 457 333 451Q397 442 444 426Q491 410 522 383.5Q553 357 568.5 319Q584 281 584 230V219Q584 109 513 48Q442 -13 311 -13Q176 -13 106.5 52.5Q37 118 37 253V263H171Q171 179 207 141.5Q243 104 306 104H315Q378 104 412.5 134.5Q447 165 447 214V220Q447 245 439 265Q431 285 413 299.5Q395 314 365 324Q335 334 290 340Z" glyph-name="S" horiz-adv-x="621" unicode="S" /><glyph d="M439 950 376 840H246L302 950ZM290 340Q162 357 103 408.5Q44 460 44 557V567Q44 671 113.5 732Q183 793 311 793Q450 793 513.5 727.5Q577 662 577 530V507H443Q443 595 412.5 635.5Q382 676 312 676H303Q247 676 214 648Q181 620 181 574V568Q181 544 187.5 525Q194 506 211 492Q228 478 257.5 467.5Q287 457 333 451Q397 442 444 426Q491 410 522 383.5Q553 357 568.5 319Q584 281 584 230V219Q584 109 513 48Q442 -13 311 -13Q176 -13 106.5 52.5Q37 118 37 253V263H171Q171 179 207 141.5Q243 104 306 104H315Q378 104 412.5 134.5Q447 165 447 214V220Q447 245 439 265Q431 285 413 299.5Q395 314 365 324Q335 334 290 340Z" glyph-name="Sacute" horiz-adv-x="621" unicode="&#346;" /><glyph d="M247 950 311 899 375 950H495L376 840H246L127 950ZM290 340Q162 357 103 408.5Q44 460 44 557V567Q44 671 113.5 732Q183 793 311 793Q450 793 513.5 727.5Q577 662 577 530V507H443Q443 595 412.5 635.5Q382 676 312 676H303Q247 676 214 648Q181 620 181 574V568Q181 544 187.5 525Q194 506 211 492Q228 478 257.5 467.5Q287 457 333 451Q397 442 444 426Q491 410 522 383.5Q553 357 568.5 319Q584 281 584 230V219Q584 109 513 48Q442 -13 311 -13Q176 -13 106.5 52.5Q37 118 37 253V263H171Q171 179 207 141.5Q243 104 306 104H315Q378 104 412.5 134.5Q447 165 447 214V220Q447 245 439 265Q431 285 413 299.5Q395 314 365 324Q335 334 290 340Z" glyph-name="Scaron" horiz-adv-x="621" unicode="&#352;" /><glyph d="M231 -131Q244 -139 263 -143Q282 -147 302 -147Q329 -147 341 -141Q353 -135 353 -122Q353 -97 300 -97Q293 -97 287.5 -97.5Q282 -98 277 -99Q272 -100 266 -101L249 -75L273 -11Q156 -3 96.5 62.5Q37 128 37 253V263H171Q171 179 207 141.5Q243 104 306 104H315Q378 104 412.5 134.5Q447 165 447 214V220Q447 245 439 265Q431 285 413 299.5Q395 314 365 324Q335 334 290 340Q162 357 103 408.5Q44 460 44 557V567Q44 671 113.5 732Q183 793 311 793Q450 793 513.5 727.5Q577 662 577 530V507H443Q443 595 412.5 635.5Q382 676 312 676H303Q247 676 214 648Q181 620 181 574V568Q181 544 187.5 525Q194 506 211 492Q228 478 257.5 467.5Q287 457 333 451Q397 442 444 426Q491 410 522 383.5Q553 357 568.5 319Q584 281 584 230V219Q584 115 520.5 55Q457 -5 339 -12L327 -45Q367 -47 397 -67Q427 -87 427 -129Q427 -172 398 -193Q369 -214 313 -214Q279 -214 252 -207Q225 -200 211 -190Z" glyph-name="Scedilla" horiz-adv-x="621" unicode="&#350;" /><glyph d="M127 840 246 950H376L495 840H375L311 890L247 840ZM290 340Q162 357 103 408.5Q44 460 44 557V567Q44 671 113.5 732Q183 793 311 793Q450 793 513.5 727.5Q577 662 577 530V507H443Q443 595 412.5 635.5Q382 676 312 676H303Q247 676 214 648Q181 620 181 574V568Q181 544 187.5 525Q194 506 211 492Q228 478 257.5 467.5Q287 457 333 451Q397 442 444 426Q491 410 522 383.5Q553 357 568.5 319Q584 281 584 230V219Q584 109 513 48Q442 -13 311 -13Q176 -13 106.5 52.5Q37 118 37 253V263H171Q171 179 207 141.5Q243 104 306 104H315Q378 104 412.5 134.5Q447 165 447 214V220Q447 245 439 265Q431 285 413 299.5Q395 314 365 324Q335 334 290 340Z" glyph-name="Scircumflex" horiz-adv-x="621" unicode="&#348;" /><glyph d="M372 -103Q372 -166 339 -194.5Q306 -223 238 -223V-174Q269 -174 290 -165Q311 -156 319 -133H250V-47H372ZM290 340Q162 357 103 408.5Q44 460 44 557V567Q44 671 113.5 732Q183 793 311 793Q450 793 513.5 727.5Q577 662 577 530V507H443Q443 595 412.5 635.5Q382 676 312 676H303Q247 676 214 648Q181 620 181 574V568Q181 544 187.5 525Q194 506 211 492Q228 478 257.5 467.5Q287 457 333 451Q397 442 444 426Q491 410 522 383.5Q553 357 568.5 319Q584 281 584 230V219Q584 109 513 48Q442 -13 311 -13Q176 -13 106.5 52.5Q37 118 37 253V263H171Q171 179 207 141.5Q243 104 306 104H315Q378 104 412.5 134.5Q447 165 447 214V220Q447 245 439 265Q431 285 413 299.5Q395 314 365 324Q335 334 290 340Z" glyph-name="Scommaaccent" horiz-adv-x="621" unicode="&#536;" /><glyph d="M339 0H205V663H19V780H525V663H339Z" glyph-name="T" horiz-adv-x="544" unicode="T" /><glyph d="M339 450H457V348H339V0H205V348H87V450H205V663H19V780H525V663H339Z" glyph-name="Tbar" horiz-adv-x="544" unicode="&#358;" /><glyph d="M208 950 272 899 336 950H456L337 840H207L88 950ZM339 0H205V663H19V780H525V663H339Z" glyph-name="Tcaron" horiz-adv-x="544" unicode="&#356;" /><glyph d="M333 -103Q333 -166 300 -194.5Q267 -223 199 -223V-174Q230 -174 251 -165Q272 -156 280 -133H211V-47H333ZM339 0H205V663H19V780H525V663H339Z" glyph-name="Tcommaaccent" horiz-adv-x="544" unicode="&#354;" /><glyph d="M330 849H214V941H330ZM339 0H205V663H19V780H525V663H339Z" glyph-name="Tdotaccent" horiz-adv-x="544" unicode="&#7786;" /><glyph d="M310 263Q329 263 350.5 267.5Q372 272 389.5 285.5Q407 299 418.5 322.5Q430 346 430 385V395Q430 434 418.5 457.5Q407 481 389.5 494.5Q372 508 350.5 512.5Q329 517 310 517H195V263ZM195 634H305Q351 634 397.5 625.5Q444 617 481.5 591.5Q519 566 542.5 520.5Q566 475 566 400V380Q566 305 542.5 259.5Q519 214 481.5 188.5Q444 163 397.5 154.5Q351 146 305 146H195V0H61V780H195Z" glyph-name="Thorn" horiz-adv-x="598" unicode="&#222;" /><glyph d="M328 -13Q254 -13 202 2.5Q150 18 117.5 50Q85 82 70.5 130.5Q56 179 56 245V780H190V250Q190 172 221 138Q252 104 328 104Q403 104 434 138Q465 172 465 250V780H599V245Q599 179 584.5 130.5Q570 82 537.5 50Q505 18 453.5 2.5Q402 -13 328 -13Z" glyph-name="U" horiz-adv-x="655" unicode="U" /><glyph d="M456 950 393 840H263L319 950ZM328 -13Q254 -13 202 2.5Q150 18 117.5 50Q85 82 70.5 130.5Q56 179 56 245V780H190V250Q190 172 221 138Q252 104 328 104Q403 104 434 138Q465 172 465 250V780H599V245Q599 179 584.5 130.5Q570 82 537.5 50Q505 18 453.5 2.5Q402 -13 328 -13Z" glyph-name="Uacute" horiz-adv-x="655" unicode="&#218;" /><glyph d="M328 -13Q254 -13 202 2.5Q150 18 117.5 50Q85 82 70.5 130.5Q56 179 56 245V780H190V250Q190 172 221 138Q252 104 328 104Q403 104 434 138Q465 172 465 250V780H599V245Q599 179 584.5 130.5Q570 82 537.5 50Q505 18 453.5 2.5Q402 -13 328 -13ZM328 826Q278 826 245 836Q212 846 192.5 862.5Q173 879 165 901.5Q157 924 157 950H249Q249 927 267.5 914Q286 901 328 901Q370 901 388.5 914Q407 927 407 950H499Q499 924 491 901.5Q483 879 463.5 862.5Q444 846 411 836Q378 826 328 826Z" glyph-name="Ubreve" horiz-adv-x="655" unicode="&#364;" /><glyph d="M144 840 263 950H393L512 840H392L328 890L264 840ZM328 -13Q254 -13 202 2.5Q150 18 117.5 50Q85 82 70.5 130.5Q56 179 56 245V780H190V250Q190 172 221 138Q252 104 328 104Q403 104 434 138Q465 172 465 250V780H599V245Q599 179 584.5 130.5Q570 82 537.5 50Q505 18 453.5 2.5Q402 -13 328 -13Z" glyph-name="Ucircumflex" horiz-adv-x="655" unicode="&#219;" /><glyph d="M471 849H354V941H471ZM302 849H185V941H302ZM328 -13Q254 -13 202 2.5Q150 18 117.5 50Q85 82 70.5 130.5Q56 179 56 245V780H190V250Q190 172 221 138Q252 104 328 104Q403 104 434 138Q465 172 465 250V780H599V245Q599 179 584.5 130.5Q570 82 537.5 50Q505 18 453.5 2.5Q402 -13 328 -13Z" glyph-name="Udieresis" horiz-adv-x="655" unicode="&#220;" /><glyph d="M337 950 393 840H263L200 950ZM328 -13Q254 -13 202 2.5Q150 18 117.5 50Q85 82 70.5 130.5Q56 179 56 245V780H190V250Q190 172 221 138Q252 104 328 104Q403 104 434 138Q465 172 465 250V780H599V245Q599 179 584.5 130.5Q570 82 537.5 50Q505 18 453.5 2.5Q402 -13 328 -13Z" glyph-name="Ugrave" horiz-adv-x="655" unicode="&#217;" /><glyph d="M367 950 310 840H192L243 950ZM527 950 464 840H346L403 950ZM328 -13Q254 -13 202 2.5Q150 18 117.5 50Q85 82 70.5 130.5Q56 179 56 245V780H190V250Q190 172 221 138Q252 104 328 104Q403 104 434 138Q465 172 465 250V780H599V245Q599 179 584.5 130.5Q570 82 537.5 50Q505 18 453.5 2.5Q402 -13 328 -13Z" glyph-name="Uhungarumlaut" horiz-adv-x="655" unicode="&#368;" /><glyph d="M190 937H466V853H190ZM328 -13Q254 -13 202 2.5Q150 18 117.5 50Q85 82 70.5 130.5Q56 179 56 245V780H190V250Q190 172 221 138Q252 104 328 104Q403 104 434 138Q465 172 465 250V780H599V245Q599 179 584.5 130.5Q570 82 537.5 50Q505 18 453.5 2.5Q402 -13 328 -13Z" glyph-name="Umacron" horiz-adv-x="655" unicode="&#362;" /><glyph d="M374 -79Q374 -97 386 -108.5Q398 -120 421 -120Q437 -120 449 -116.5Q461 -113 469 -108L500 -190Q484 -200 457 -207Q430 -214 401 -214Q344 -214 309 -188.5Q274 -163 274 -109Q274 -80 283.5 -56.5Q293 -33 309 -13Q240 -11 192 6Q144 23 113.5 54.5Q83 86 69.5 133.5Q56 181 56 245V780H190V250Q190 172 221 138Q252 104 328 104Q403 104 434 138Q465 172 465 250V780H599V245Q599 141 562.5 81.5Q526 22 443 0Q412 -8 393 -30.5Q374 -53 374 -79Z" glyph-name="Uogonek" horiz-adv-x="655" unicode="&#370;" /><glyph d="M276 861Q276 839 291 823.5Q306 808 328 808Q350 808 365 823.5Q380 839 380 861Q380 882 365 897.5Q350 913 328 913Q306 913 291 897.5Q276 882 276 861ZM226 861Q226 882 234 900.5Q242 919 256 933Q270 947 288.5 955Q307 963 328 963Q349 963 367.5 955Q386 947 400 933Q414 919 422 900.5Q430 882 430 861Q430 840 422 821Q414 802 400 788.5Q386 775 367.5 767Q349 759 328 759Q307 759 288.5 767Q270 775 256 788.5Q242 802 234 821Q226 840 226 861ZM328 -13Q254 -13 202 2.5Q150 18 117.5 50Q85 82 70.5 130.5Q56 179 56 245V780H190V250Q190 172 221 138Q252 104 328 104Q403 104 434 138Q465 172 465 250V780H599V245Q599 179 584.5 130.5Q570 82 537.5 50Q505 18 453.5 2.5Q402 -13 328 -13Z" glyph-name="Uring" horiz-adv-x="655" unicode="&#366;" /><glyph d="M328 -13Q254 -13 202 2.5Q150 18 117.5 50Q85 82 70.5 130.5Q56 179 56 245V780H190V250Q190 172 221 138Q252 104 328 104Q403 104 434 138Q465 172 465 250V780H599V245Q599 179 584.5 130.5Q570 82 537.5 50Q505 18 453.5 2.5Q402 -13 328 -13ZM502 943Q502 882 474 857.5Q446 833 407 833Q383 833 363 841Q343 849 325 858Q307 867 291.5 875Q276 883 262 883Q248 883 237.5 875Q227 867 227 847H154Q154 908 182 932.5Q210 957 249 957Q273 957 293 949Q313 941 331 932Q349 923 364.5 915Q380 907 394 907Q408 907 418.5 915Q429 923 429 943Z" glyph-name="Utilde" horiz-adv-x="655" unicode="&#360;" /><glyph d="M223 -4 18 780H162L316 149L469 780H613L408 -4Z" glyph-name="V" horiz-adv-x="631" unicode="V" /><glyph d="M462 628 333 -4H160L26 780H166L255 176L377 780H546L669 176L758 780H898L764 -4H590Z" glyph-name="W" horiz-adv-x="924" unicode="W" /><glyph d="M590 950 527 840H397L453 950ZM462 628 333 -4H160L26 780H166L255 176L377 780H546L669 176L758 780H898L764 -4H590Z" glyph-name="Wacute" horiz-adv-x="924" unicode="&#7810;" /><glyph d="M278 840 397 950H527L646 840H526L462 890L398 840ZM462 628 333 -4H160L26 780H166L255 176L377 780H546L669 176L758 780H898L764 -4H590Z" glyph-name="Wcircumflex" horiz-adv-x="924" unicode="&#372;" /><glyph d="M605 849H488V941H605ZM436 849H319V941H436ZM462 628 333 -4H160L26 780H166L255 176L377 780H546L669 176L758 780H898L764 -4H590Z" glyph-name="Wdieresis" horiz-adv-x="924" unicode="&#7812;" /><glyph d="M471 950 527 840H397L334 950ZM462 628 333 -4H160L26 780H166L255 176L377 780H546L669 176L758 780H898L764 -4H590Z" glyph-name="Wgrave" horiz-adv-x="924" unicode="&#7808;" /><glyph d="M223 405 22 780H178L319 499L459 780H615L414 406L615 0H466L318 312L172 0H22Z" glyph-name="X" horiz-adv-x="638" unicode="X" /><glyph d="M372 0H238V238L12 780H158L305 403L452 780H598L372 238Z" glyph-name="Y" horiz-adv-x="610" unicode="Y" /><glyph d="M433 950 370 840H240L296 950ZM372 0H238V238L12 780H158L305 403L452 780H598L372 238Z" glyph-name="Yacute" horiz-adv-x="610" unicode="&#221;" /><glyph d="M121 840 240 950H370L489 840H369L305 890L241 840ZM372 0H238V238L12 780H158L305 403L452 780H598L372 238Z" glyph-name="Ycircumflex" horiz-adv-x="610" unicode="&#374;" /><glyph d="M279 849H162V941H279ZM448 849H331V941H448ZM372 0H238V238L12 780H158L305 403L452 780H598L372 238Z" glyph-name="Ydieresis" horiz-adv-x="610" unicode="&#376;" /><glyph d="M314 950 370 840H240L177 950ZM372 0H238V238L12 780H158L305 403L452 780H598L372 238Z" glyph-name="Ygrave" horiz-adv-x="610" unicode="&#7922;" /><glyph d="M167 937H443V853H167ZM372 0H238V238L12 780H158L305 403L452 780H598L372 238Z" glyph-name="Ymacron" horiz-adv-x="610" unicode="&#562;" /><glyph d="M373 666 236 663H50V780H537V688L204 114L341 117H547V0H40V92Z" glyph-name="Z" horiz-adv-x="587" unicode="Z" /><glyph d="M373 666 236 663H50V780H537V688L204 114L341 117H547V0H40V92ZM420 950 357 840H227L283 950Z" glyph-name="Zacute" horiz-adv-x="587" unicode="&#377;" /><glyph d="M373 666 236 663H50V780H537V688L204 114L341 117H547V0H40V92ZM228 950 292 899 356 950H476L357 840H227L108 950Z" glyph-name="Zcaron" horiz-adv-x="587" unicode="&#381;" /><glyph d="M373 666 236 663H50V780H537V688L204 114L341 117H547V0H40V92ZM350 849H234V941H350Z" glyph-name="Zdotaccent" horiz-adv-x="587" unicode="&#379;" /><glyph d="M239 94Q262 94 280.5 99.5Q299 105 313 113Q327 121 337.5 130.5Q348 140 354 149V261L243 243Q201 236 182.5 217Q164 198 164 167V159Q164 134 181.5 114Q199 94 239 94ZM367 61Q339 29 296.5 8Q254 -13 194 -13Q152 -13 121.5 -0.5Q91 12 71.5 33Q52 54 43 82.5Q34 111 34 143V153Q34 196 48.5 225.5Q63 255 88 273.5Q113 292 146.5 302.5Q180 313 219 319L354 340V342Q354 393 335.5 417.5Q317 442 266 442Q239 442 222 435Q205 428 195 416Q185 404 181.5 388Q178 372 178 355H54V364Q54 397 64 429.5Q74 462 98.5 487Q123 512 164.5 527.5Q206 543 269 543Q331 543 372.5 529Q414 515 438.5 489Q463 463 473.5 425.5Q484 388 484 342V150L492 0H377Z" glyph-name="a" horiz-adv-x="538" unicode="a" /><glyph d="M437 780 334 601H204L295 780ZM239 94Q262 94 280.5 99.5Q299 105 313 113Q327 121 337.5 130.5Q348 140 354 149V261L243 243Q201 236 182.5 217Q164 198 164 167V159Q164 134 181.5 114Q199 94 239 94ZM367 61Q339 29 296.5 8Q254 -13 194 -13Q152 -13 121.5 -0.5Q91 12 71.5 33Q52 54 43 82.5Q34 111 34 143V153Q34 196 48.5 225.5Q63 255 88 273.5Q113 292 146.5 302.5Q180 313 219 319L354 340V342Q354 393 335.5 417.5Q317 442 266 442Q239 442 222 435Q205 428 195 416Q185 404 181.5 388Q178 372 178 355H54V364Q54 397 64 429.5Q74 462 98.5 487Q123 512 164.5 527.5Q206 543 269 543Q331 543 372.5 529Q414 515 438.5 489Q463 463 473.5 425.5Q484 388 484 342V150L492 0H377Z" glyph-name="aacute" horiz-adv-x="538" unicode="&#225;" /><glyph d="M239 94Q262 94 280.5 99.5Q299 105 313 113Q327 121 337.5 130.5Q348 140 354 149V261L243 243Q201 236 182.5 217Q164 198 164 167V159Q164 134 181.5 114Q199 94 239 94ZM269 589Q219 589 185 603Q151 617 129.5 642.5Q108 668 98.5 703Q89 738 90 780H186Q186 733 208 711Q230 689 269 689Q308 689 330 711Q352 733 352 780H448Q449 738 439.5 703Q430 668 408.5 642.5Q387 617 352.5 603Q318 589 269 589ZM367 61Q339 29 296.5 8Q254 -13 194 -13Q152 -13 121.5 -0.5Q91 12 71.5 33Q52 54 43 82.5Q34 111 34 143V153Q34 196 48.5 225.5Q63 255 88 273.5Q113 292 146.5 302.5Q180 313 219 319L354 340V342Q354 393 335.5 417.5Q317 442 266 442Q239 442 222 435Q205 428 195 416Q185 404 181.5 388Q178 372 178 355H54V364Q54 397 64 429.5Q74 462 98.5 487Q123 512 164.5 527.5Q206 543 269 543Q331 543 372.5 529Q414 515 438.5 489Q463 463 473.5 425.5Q484 388 484 342V150L492 0H377Z" glyph-name="abreve" horiz-adv-x="538" unicode="&#259;" /><glyph d="M239 94Q262 94 280.5 99.5Q299 105 313 113Q327 121 337.5 130.5Q348 140 354 149V261L243 243Q201 236 182.5 217Q164 198 164 167V159Q164 134 181.5 114Q199 94 239 94ZM74 601 207 780H331L464 601H347L269 693L191 601ZM367 61Q339 29 296.5 8Q254 -13 194 -13Q152 -13 121.5 -0.5Q91 12 71.5 33Q52 54 43 82.5Q34 111 34 143V153Q34 196 48.5 225.5Q63 255 88 273.5Q113 292 146.5 302.5Q180 313 219 319L354 340V342Q354 393 335.5 417.5Q317 442 266 442Q239 442 222 435Q205 428 195 416Q185 404 181.5 388Q178 372 178 355H54V364Q54 397 64 429.5Q74 462 98.5 487Q123 512 164.5 527.5Q206 543 269 543Q331 543 372.5 529Q414 515 438.5 489Q463 463 473.5 425.5Q484 388 484 342V150L492 0H377Z" glyph-name="acircumflex" horiz-adv-x="538" unicode="&#226;" /><glyph d="M418 780 315 601H185L276 780Z" glyph-name="acute" horiz-adv-x="500" unicode="&#180;" /><glyph d="M378 950 315 840H185L241 950Z" glyph-name="acute.cap" horiz-adv-x="500" unicode="&#58402;" /><glyph d="M440 622H298V763H440ZM240 622H98V763H240ZM239 94Q262 94 280.5 99.5Q299 105 313 113Q327 121 337.5 130.5Q348 140 354 149V261L243 243Q201 236 182.5 217Q164 198 164 167V159Q164 134 181.5 114Q199 94 239 94ZM367 61Q339 29 296.5 8Q254 -13 194 -13Q152 -13 121.5 -0.5Q91 12 71.5 33Q52 54 43 82.5Q34 111 34 143V153Q34 196 48.5 225.5Q63 255 88 273.5Q113 292 146.5 302.5Q180 313 219 319L354 340V342Q354 393 335.5 417.5Q317 442 266 442Q239 442 222 435Q205 428 195 416Q185 404 181.5 388Q178 372 178 355H54V364Q54 397 64 429.5Q74 462 98.5 487Q123 512 164.5 527.5Q206 543 269 543Q331 543 372.5 529Q414 515 438.5 489Q463 463 473.5 425.5Q484 388 484 342V150L492 0H377Z" glyph-name="adieresis" horiz-adv-x="538" unicode="&#228;" /><glyph d="M594 442Q541 442 514.5 409Q488 376 484 313H703Q700 376 673.5 409Q647 442 594 442ZM365 159Q354 203 354 252V258L244 240Q164 225 164 164V156Q164 131 181.5 111Q199 91 239 91Q265 91 285.5 98Q306 105 321 115Q336 125 345.5 136Q355 147 360 155ZM484 217Q491 88 603 88Q656 88 683.5 114Q711 140 711 170H834V166Q834 130 819 98Q804 66 775 41Q746 16 702.5 1.5Q659 -13 602 -13Q535 -13 487 9Q439 31 409 69Q373 34 320 10.5Q267 -13 203 -13Q159 -13 127 -0.5Q95 12 74.5 33Q54 54 44 82.5Q34 111 34 143V153Q34 196 48.5 225.5Q63 255 88.5 273.5Q114 292 148 302.5Q182 313 221 319L354 340V342Q354 393 335.5 417.5Q317 442 266 442Q239 442 222 435Q205 428 195 416Q185 404 181.5 388Q178 372 178 355H54V364Q54 397 64 429.5Q74 462 98.5 487Q123 512 164.5 527.5Q206 543 269 543Q336 543 375 524.5Q414 506 434 474Q460 506 500 524.5Q540 543 596 543Q657 543 702 523Q747 503 776.5 467.5Q806 432 820 383.5Q834 335 834 278V217Z" glyph-name="ae" horiz-adv-x="863" unicode="&#230;" /><glyph d="M243 780 334 601H204L101 780ZM239 94Q262 94 280.5 99.5Q299 105 313 113Q327 121 337.5 130.5Q348 140 354 149V261L243 243Q201 236 182.5 217Q164 198 164 167V159Q164 134 181.5 114Q199 94 239 94ZM367 61Q339 29 296.5 8Q254 -13 194 -13Q152 -13 121.5 -0.5Q91 12 71.5 33Q52 54 43 82.5Q34 111 34 143V153Q34 196 48.5 225.5Q63 255 88 273.5Q113 292 146.5 302.5Q180 313 219 319L354 340V342Q354 393 335.5 417.5Q317 442 266 442Q239 442 222 435Q205 428 195 416Q185 404 181.5 388Q178 372 178 355H54V364Q54 397 64 429.5Q74 462 98.5 487Q123 512 164.5 527.5Q206 543 269 543Q331 543 372.5 529Q414 515 438.5 489Q463 463 473.5 425.5Q484 388 484 342V150L492 0H377Z" glyph-name="agrave" horiz-adv-x="538" unicode="&#224;" /><glyph d="M292 -122Q292 -96 241 -96Q226 -96 210.5 -98.5Q195 -101 190 -103V-54Q201 -51 218 -47.5Q235 -44 258 -44Q304 -44 335 -64Q366 -84 366 -129Q366 -172 337 -193Q308 -214 252 -214Q218 -214 191 -207Q164 -200 150 -190L170 -131Q183 -139 202 -143Q221 -147 241 -147Q268 -147 280 -141Q292 -135 292 -122Z" glyph-name="altcedilla" horiz-adv-x="602" unicode="&#58390;" /><glyph d="M239 94Q262 94 280.5 99.5Q299 105 313 113Q327 121 337.5 130.5Q348 140 354 149V261L243 243Q201 236 182.5 217Q164 198 164 167V159Q164 134 181.5 114Q199 94 239 94ZM130 748H408V633H130ZM367 61Q339 29 296.5 8Q254 -13 194 -13Q152 -13 121.5 -0.5Q91 12 71.5 33Q52 54 43 82.5Q34 111 34 143V153Q34 196 48.5 225.5Q63 255 88 273.5Q113 292 146.5 302.5Q180 313 219 319L354 340V342Q354 393 335.5 417.5Q317 442 266 442Q239 442 222 435Q205 428 195 416Q185 404 181.5 388Q178 372 178 355H54V364Q54 397 64 429.5Q74 462 98.5 487Q123 512 164.5 527.5Q206 543 269 543Q331 543 372.5 529Q414 515 438.5 489Q463 463 473.5 425.5Q484 388 484 342V150L492 0H377Z" glyph-name="amacron" horiz-adv-x="538" unicode="&#257;" /><glyph d="M198 607Q198 575 211.5 545Q225 515 245 489Q287 514 317 541Q347 568 347 607V614Q347 643 329 663Q311 683 276 683H269Q234 683 216 663Q198 643 198 614ZM279 101Q344 101 393 135L218 337Q192 315 176 288.5Q160 262 160 226V219Q160 165 188 133Q216 101 274 101ZM255 -13Q146 -13 86 47Q26 107 26 208V219Q26 257 35 287.5Q44 318 60 343.5Q76 369 96.5 389Q117 409 141 426Q123 448 109 468Q95 488 85.5 509.5Q76 531 71 555Q66 579 66 608V619Q66 655 78 686.5Q90 718 115.5 741.5Q141 765 180 779Q219 793 273 793Q327 793 365.5 779Q404 765 429.5 741.5Q455 718 467 686.5Q479 655 479 619V608Q479 568 465.5 537.5Q452 507 429.5 483Q407 459 378.5 440Q350 421 320 403L471 230Q487 264 495.5 304Q504 344 504 392V395H641V392Q641 319 620 251.5Q599 184 557 130L670 0H511L469 47Q425 18 372 2.5Q319 -13 255 -13Z" glyph-name="ampersand" horiz-adv-x="681" unicode="&amp;" /><glyph d="M165 360 327 -120H192L30 360L192 840H327Z" glyph-name="anglebracketleft" horiz-adv-x="350" unicode="&#12296;" /><glyph d="M168 390 304 0H169L33 390L169 780H304Z" glyph-name="anglebracketleft.cap" horiz-adv-x="350" unicode="&#58519;" /><glyph d="M185 360 23 840H158L320 360L158 -120H23Z" glyph-name="anglebracketright" horiz-adv-x="350" unicode="&#12297;" /><glyph d="M46 780H181L317 390L181 0H46L182 390Z" glyph-name="anglebracketright.cap" horiz-adv-x="350" unicode="&#58520;" /><glyph d="M424 -79Q424 -97 436 -108.5Q448 -120 471 -120Q487 -120 499 -116.5Q511 -113 519 -108L550 -190Q534 -200 507 -207Q480 -214 451 -214Q394 -214 359 -188.5Q324 -163 324 -109Q324 -74 338.5 -45Q353 -16 376 5L367 61Q339 29 296.5 8Q254 -13 194 -13Q152 -13 121.5 -0.5Q91 12 71.5 33Q52 54 43 82.5Q34 111 34 143V153Q34 196 48.5 225.5Q63 255 88 273.5Q113 292 146.5 302.5Q180 313 219 319L354 340V342Q354 393 335.5 417.5Q317 442 266 442Q239 442 222 435Q205 428 195 416Q185 404 181.5 388Q178 372 178 355H54V364Q54 397 64 429.5Q74 462 98.5 487Q123 512 164.5 527.5Q206 543 269 543Q331 543 372.5 529Q414 515 438.5 489Q463 463 473.5 425.5Q484 388 484 342V150L492 0Q461 -14 442.5 -33Q424 -52 424 -79ZM239 94Q262 94 280.5 99.5Q299 105 313 113Q327 121 337.5 130.5Q348 140 354 149V261L243 243Q201 236 182.5 217Q164 198 164 167V159Q164 134 181.5 114Q199 94 239 94Z" glyph-name="aogonek" horiz-adv-x="538" unicode="&#261;" /><glyph d="M182 579Q221 579 251.5 568.5Q282 558 308.5 545Q335 532 360 521.5Q385 511 414 511Q446 511 469.5 529Q493 547 506 562L569 499Q558 482 543 466Q528 450 509 437.5Q490 425 467.5 417.5Q445 410 418 410Q379 410 348.5 420.5Q318 431 291.5 443.5Q265 456 240 466.5Q215 477 186 477Q154 477 130.5 459Q107 441 94 426L31 490Q42 507 57 523Q72 539 91 551.5Q110 564 132.5 571.5Q155 579 182 579ZM182 366Q221 366 251.5 355.5Q282 345 308.5 332.5Q335 320 360 309.5Q385 299 414 299Q446 299 469.5 317Q493 335 506 350L569 286Q558 269 543 253Q528 237 509 224.5Q490 212 467.5 204.5Q445 197 418 197Q379 197 348.5 207.5Q318 218 291.5 230.5Q265 243 240 253.5Q215 264 186 264Q154 264 130.5 246.5Q107 229 94 214L31 277Q42 294 57 310Q72 326 91 338.5Q110 351 132.5 358.5Q155 366 182 366Z" glyph-name="approxequal" horiz-adv-x="600" unicode="&#8776;" /><glyph d="M217 691Q217 669 232 653.5Q247 638 269 638Q291 638 306 653.5Q321 669 321 691Q321 712 306 727.5Q291 743 269 743Q247 743 232 727.5Q217 712 217 691ZM239 94Q262 94 280.5 99.5Q299 105 313 113Q327 121 337.5 130.5Q348 140 354 149V261L243 243Q201 236 182.5 217Q164 198 164 167V159Q164 134 181.5 114Q199 94 239 94ZM167 691Q167 712 175 730.5Q183 749 197 763Q211 777 229.5 785Q248 793 269 793Q290 793 308.5 785Q327 777 341 763Q355 749 363 730.5Q371 712 371 691Q371 670 363 651Q355 632 341 618.5Q327 605 308.5 597Q290 589 269 589Q248 589 229.5 597Q211 605 197 618.5Q183 632 175 651Q167 670 167 691ZM367 61Q339 29 296.5 8Q254 -13 194 -13Q152 -13 121.5 -0.5Q91 12 71.5 33Q52 54 43 82.5Q34 111 34 143V153Q34 196 48.5 225.5Q63 255 88 273.5Q113 292 146.5 302.5Q180 313 219 319L354 340V342Q354 393 335.5 417.5Q317 442 266 442Q239 442 222 435Q205 428 195 416Q185 404 181.5 388Q178 372 178 355H54V364Q54 397 64 429.5Q74 462 98.5 487Q123 512 164.5 527.5Q206 543 269 543Q331 543 372.5 529Q414 515 438.5 489Q463 463 473.5 425.5Q484 388 484 342V150L492 0H377Z" glyph-name="aring" horiz-adv-x="538" unicode="&#229;" /><glyph d="M70 543 401 212V780H519V212L850 543V377L460 -13L70 377Z" glyph-name="arrowdown" horiz-adv-x="920" unicode="&#8595;" /><glyph d="M613 780 282 449H850V331H282L613 0H447L57 390L447 780Z" glyph-name="arrowleft" horiz-adv-x="920" unicode="&#8592;" /><glyph d="M473 780 863 390 473 0H307L638 331H70V449H638L307 780Z" glyph-name="arrowright" horiz-adv-x="920" unicode="&#8594;" /><glyph d="M70 403 460 793 850 403V237L519 568V0H401V568L70 237Z" glyph-name="arrowup" horiz-adv-x="920" unicode="&#8593;" /><glyph d="M579 267H449L300 640L151 267H21L236 780H364Z" glyph-name="asciicircum" horiz-adv-x="600" unicode="^" /><glyph d="M182 473Q221 473 251.5 462.5Q282 452 308.5 439Q335 426 360 415.5Q385 405 414 405Q446 405 469.5 423Q493 441 506 456L569 392Q558 375 543 359.5Q528 344 509 331Q490 318 467.5 310.5Q445 303 418 303Q379 303 348.5 313.5Q318 324 291.5 337Q265 350 240 360.5Q215 371 186 371Q154 371 130.5 353Q107 335 94 320L31 384Q42 400 57 416Q72 432 91 445Q110 458 132.5 465.5Q155 473 182 473Z" glyph-name="asciitilde" horiz-adv-x="600" unicode="~" /><glyph d="M285 426 208 540 263 580 348 472ZM399 629 266 592 245 656 374 703ZM57 472 142 580 197 540 120 426ZM31 703 160 656 139 592 6 629ZM241 800 236 663H169L164 800Z" glyph-name="asterisk" horiz-adv-x="405" unicode="*" /><glyph d="M574 382Q563 400 537.5 420Q512 440 474 440Q421 440 397 404.5Q373 369 373 310V280Q373 221 397 185.5Q421 150 474 150Q512 150 537.5 170Q563 190 574 208ZM516 -124Q607 -124 688.5 -98Q770 -72 845 -17L896 -86Q846 -125 796.5 -149.5Q747 -174 698.5 -188.5Q650 -203 603.5 -208Q557 -213 513 -213Q407 -213 318 -181Q229 -149 165 -87.5Q101 -26 65 64Q29 154 29 270V310Q29 426 64.5 516Q100 606 164 667.5Q228 729 315.5 761Q403 793 508 793Q598 793 678.5 770Q759 747 820 698.5Q881 650 917 575Q953 500 953 395V365Q953 275 932.5 216Q912 157 875.5 122.5Q839 88 789 74Q739 60 681 60H595L584 123Q564 91 529 69Q494 47 441 47Q393 47 357 65Q321 83 298 114.5Q275 146 263.5 188.5Q252 231 252 280V310Q252 359 263.5 401.5Q275 444 298 475.5Q321 507 357 525Q393 543 441 543Q494 543 529 521Q564 499 584 466L595 530H697L689 390V147Q733 149 765.5 159.5Q798 170 819 194.5Q840 219 850 260Q860 301 860 365V395Q860 484 830 543.5Q800 603 751 638.5Q702 674 639.5 689Q577 704 511 704H505Q420 704 349 678.5Q278 653 227 603.5Q176 554 147.5 480.5Q119 407 119 310V270Q119 172 147.5 98Q176 24 228 -25.5Q280 -75 352 -99.5Q424 -124 510 -124Z" glyph-name="at" horiz-adv-x="981" unicode="@" /><glyph d="M574 482Q563 500 537.5 520Q512 540 474 540Q421 540 397 504.5Q373 469 373 410V380Q373 321 397 285.5Q421 250 474 250Q512 250 537.5 270Q563 290 574 308ZM516 -24Q607 -24 688.5 2Q770 28 845 83L896 14Q846 -25 796.5 -49.5Q747 -74 698.5 -88.5Q650 -103 603.5 -108Q557 -113 513 -113Q407 -113 318 -81Q229 -49 165 12.5Q101 74 65 164Q29 254 29 370V410Q29 526 64.5 616Q100 706 164 767.5Q228 829 315.5 861Q403 893 508 893Q598 893 678.5 870Q759 847 820 798.5Q881 750 917 675Q953 600 953 495V465Q953 375 932.5 316Q912 257 875.5 222.5Q839 188 789 174Q739 160 681 160H595L584 223Q564 191 529 169Q494 147 441 147Q393 147 357 165Q321 183 298 214.5Q275 246 263.5 288.5Q252 331 252 380V410Q252 459 263.5 501.5Q275 544 298 575.5Q321 607 357 625Q393 643 441 643Q494 643 529 621Q564 599 584 566L595 630H697L689 490V247Q733 249 765.5 259.5Q798 270 819 294.5Q840 319 850 360Q860 401 860 465V495Q860 584 830 643.5Q800 703 751 738.5Q702 774 639.5 789Q577 804 511 804H505Q420 804 349 778.5Q278 753 227 703.5Q176 654 147.5 580.5Q119 507 119 410V370Q119 272 147.5 198Q176 124 228 74.5Q280 25 352 0.5Q424 -24 510 -24Z" glyph-name="at.cap" horiz-adv-x="981" unicode="&#58643;" /><glyph d="M239 94Q262 94 280.5 99.5Q299 105 313 113Q327 121 337.5 130.5Q348 140 354 149V261L243 243Q201 236 182.5 217Q164 198 164 167V159Q164 134 181.5 114Q199 94 239 94ZM456 764Q456 689 427 655.5Q398 622 355 622Q331 622 310 630.5Q289 639 270.5 648.5Q252 658 235.5 666.5Q219 675 204 675Q190 675 180.5 666.5Q171 658 171 636H82Q82 711 111 744.5Q140 778 183 778Q207 778 228 769.5Q249 761 267.5 751.5Q286 742 302.5 733.5Q319 725 334 725Q348 725 357.5 733.5Q367 742 367 764ZM367 61Q339 29 296.5 8Q254 -13 194 -13Q152 -13 121.5 -0.5Q91 12 71.5 33Q52 54 43 82.5Q34 111 34 143V153Q34 196 48.5 225.5Q63 255 88 273.5Q113 292 146.5 302.5Q180 313 219 319L354 340V342Q354 393 335.5 417.5Q317 442 266 442Q239 442 222 435Q205 428 195 416Q185 404 181.5 388Q178 372 178 355H54V364Q54 397 64 429.5Q74 462 98.5 487Q123 512 164.5 527.5Q206 543 269 543Q331 543 372.5 529Q414 515 438.5 489Q463 463 473.5 425.5Q484 388 484 342V150L492 0H377Z" glyph-name="atilde" horiz-adv-x="538" unicode="&#227;" /><glyph d="M187 161Q193 152 202.5 141.5Q212 131 224.5 122Q237 113 253.5 107Q270 101 291 101Q347 101 371.5 140Q396 179 396 249V281Q396 351 371.5 390.5Q347 430 291 430Q270 430 253.5 424Q237 418 224.5 409Q212 400 202.5 389Q193 378 187 369ZM187 481Q210 508 244 525.5Q278 543 328 543Q382 543 420 523.5Q458 504 481.5 469Q505 434 515.5 386Q526 338 526 281V249Q526 192 515.5 144Q505 96 481.5 61Q458 26 420 6.5Q382 -13 328 -13Q271 -13 234 9.5Q197 32 175 66L164 0H49L57 150V800H187Z" glyph-name="b" horiz-adv-x="563" unicode="b" /><glyph d="M15 840H143L373 -120H245Z" glyph-name="backslash" horiz-adv-x="386" unicode="\" /><glyph d="M149 780 341 0H213L21 780Z" glyph-name="backslash.cap" horiz-adv-x="363" unicode="&#58466;" /><glyph d="M335 348 358 371H441V288L418 265L441 242V159H358L335 182L312 159H229V242L252 265L229 288V371H312ZM186 414V116H484V414ZM600 530V0H70V530Z" glyph-name="ballotboxwithx" horiz-adv-x="680" unicode="&#9746;" /><glyph d="M57 840H185V-120H57Z" glyph-name="bar" horiz-adv-x="243" unicode="|" /><glyph d="M57 780H185V0H57Z" glyph-name="bar.cap" horiz-adv-x="243" unicode="&#58467;" /><glyph d="M180 849H64V941H180ZM187 161Q193 152 202.5 141.5Q212 131 224.5 122Q237 113 253.5 107Q270 101 291 101Q347 101 371.5 140Q396 179 396 249V281Q396 351 371.5 390.5Q347 430 291 430Q270 430 253.5 424Q237 418 224.5 409Q212 400 202.5 389Q193 378 187 369ZM187 481Q210 508 244 525.5Q278 543 328 543Q382 543 420 523.5Q458 504 481.5 469Q505 434 515.5 386Q526 338 526 281V249Q526 192 515.5 144Q505 96 481.5 61Q458 26 420 6.5Q382 -13 328 -13Q271 -13 234 9.5Q197 32 175 66L164 0H49L57 150V800H187Z" glyph-name="bdotaccent" horiz-adv-x="563" unicode="&#7683;" /><glyph d="M57 390Q57 473 88.5 546.5Q120 620 175 674.5Q230 729 303.5 761Q377 793 460 793Q543 793 616.5 761Q690 729 744.5 674.5Q799 620 831 546.5Q863 473 863 390Q863 307 831 233.5Q799 160 744.5 105Q690 50 616.5 18.5Q543 -13 460 -13Q377 -13 303.5 18.5Q230 50 175 105Q120 160 88.5 233.5Q57 307 57 390Z" glyph-name="blackcircle" horiz-adv-x="920" unicode="&#9679;" /><glyph d="M70 0V530H600V0Z" glyph-name="blacksmallsquare" horiz-adv-x="680" unicode="&#9642;" /><glyph d="M70 0V780H850V0Z" glyph-name="blacksquare" horiz-adv-x="920" unicode="&#9632;" /><glyph d="M315 725Q274 725 253.5 705Q233 685 233 634V472Q233 429 217.5 402Q202 375 174 360Q202 344 217.5 317Q233 290 233 248V86Q233 35 253.5 15Q274 -5 315 -5V-120H290Q249 -120 215 -111.5Q181 -103 155.5 -83.5Q130 -64 116 -32.5Q102 -1 102 46V226Q100 269 81 285.5Q62 302 24 302V418Q64 418 83 435.5Q102 453 102 501V674Q102 721 116 752.5Q130 784 155.5 803.5Q181 823 215 831.5Q249 840 290 840H315Z" glyph-name="braceleft" horiz-adv-x="350" unicode="{" /><glyph d="M315 665Q276 665 255.5 647Q235 629 233 584V502Q233 459 217.5 432Q202 405 174 390Q202 374 217.5 347Q233 320 233 278V206Q233 155 253.5 135Q274 115 315 115V0H290Q249 0 215 8.5Q181 17 155.5 36.5Q130 56 116 87.5Q102 119 102 166V249Q102 297 83 314.5Q64 332 24 332V448Q64 448 83 465.5Q102 483 102 531V614Q102 661 116 692.5Q130 724 155.5 743.5Q181 763 215 771.5Q249 780 290 780H315Z" glyph-name="braceleft.cap" horiz-adv-x="350" unicode="&#58517;" /><glyph d="M36 -5Q76 -5 96.5 15Q117 35 117 86V248Q117 290 132 317Q147 344 175 360Q147 375 132 402Q117 429 117 472V634Q117 685 96.5 705Q76 725 36 725V840H60Q100 840 134.5 831.5Q169 823 194.5 803.5Q220 784 234 752.5Q248 721 248 674V494Q250 450 269 434Q288 418 326 418V302Q288 302 269 285.5Q250 269 248 226V46Q248 -1 234 -32.5Q220 -64 194.5 -83.5Q169 -103 134.5 -111.5Q100 -120 60 -120H36Z" glyph-name="braceright" horiz-adv-x="350" unicode="}" /><glyph d="M36 780H60Q100 780 134.5 771.5Q169 763 194.5 743.5Q220 724 234 692.5Q248 661 248 614V531Q248 483 267 465.5Q286 448 326 448V332Q286 332 267 314.5Q248 297 248 249V166Q248 119 234 87.5Q220 56 194.5 36.5Q169 17 134.5 8.5Q100 0 60 0H36V115Q76 115 96.5 135Q117 155 117 206V278Q117 320 132 347Q147 374 175 390Q147 405 132 432Q117 459 117 502V574Q117 625 96.5 645Q76 665 36 665Z" glyph-name="braceright.cap" horiz-adv-x="350" unicode="&#58518;" /><glyph d="M315 840V725H191V-5H315V-120H61V840Z" glyph-name="bracketleft" horiz-adv-x="350" unicode="[" /><glyph d="M315 780V665H191V115H315V0H61V780Z" glyph-name="bracketleft.cap" horiz-adv-x="350" unicode="&#58515;" /><glyph d="M36 -120V-5H159V725H36V840H290V-120Z" glyph-name="bracketright" horiz-adv-x="350" unicode="]" /><glyph d="M36 0V115H159V665H36V780H290V0Z" glyph-name="bracketright.cap" horiz-adv-x="350" unicode="&#58516;" /><glyph d="M250 589Q200 589 166 603Q132 617 110.5 642.5Q89 668 79.5 703Q70 738 71 780H167Q167 733 189 711Q211 689 250 689Q289 689 311 711Q333 733 333 780H429Q430 738 420.5 703Q411 668 389.5 642.5Q368 617 333.5 603Q299 589 250 589Z" glyph-name="breve" horiz-adv-x="500" unicode="&#728;" /><glyph d="M250 826Q200 826 167 836Q134 846 114.5 862.5Q95 879 87 901.5Q79 924 79 950H171Q171 927 189.5 914Q208 901 250 901Q292 901 310.5 914Q329 927 329 950H421Q421 924 413 901.5Q405 879 385.5 862.5Q366 846 333 836Q300 826 250 826Z" glyph-name="breve.cap" horiz-adv-x="500" unicode="&#58406;" /><glyph d="M57 333H185V-120H57ZM57 840H185V387H57Z" glyph-name="brokenbar" horiz-adv-x="243" unicode="&#166;" /><glyph d="M57 363H185V0H57ZM57 780H185V417H57Z" glyph-name="brokenbar.cap" horiz-adv-x="243" unicode="&#58469;" /><glyph d="M366 199H64V501H366Z" glyph-name="bullet" horiz-adv-x="430" unicode="&#8226;" /><glyph d="M366 239H64V541H366Z" glyph-name="bullet.cap" horiz-adv-x="430" unicode="&#58470;" /><glyph d="M166 249Q166 180 191 140.5Q216 101 273 101Q323 101 345 127.5Q367 154 367 193H490V172Q490 134 476.5 100.5Q463 67 436 41.5Q409 16 367.5 1.5Q326 -13 270 -13Q209 -13 164.5 6.5Q120 26 91.5 61Q63 96 49.5 144Q36 192 36 249V281Q36 338 49.5 386Q63 434 91.5 469Q120 504 164.5 523.5Q209 543 270 543Q326 543 367.5 528Q409 513 436 486.5Q463 460 476.5 425Q490 390 490 350V328H367Q367 375 344 402.5Q321 430 273 430Q216 430 191 390Q166 350 166 281Z" glyph-name="c" horiz-adv-x="525" unicode="c" /><glyph d="M438 780 335 601H205L296 780ZM166 249Q166 180 191 140.5Q216 101 273 101Q323 101 345 127.5Q367 154 367 193H490V172Q490 134 476.5 100.5Q463 67 436 41.5Q409 16 367.5 1.5Q326 -13 270 -13Q209 -13 164.5 6.5Q120 26 91.5 61Q63 96 49.5 144Q36 192 36 249V281Q36 338 49.5 386Q63 434 91.5 469Q120 504 164.5 523.5Q209 543 270 543Q326 543 367.5 528Q409 513 436 486.5Q463 460 476.5 425Q490 390 490 350V328H367Q367 375 344 402.5Q321 430 273 430Q216 430 191 390Q166 350 166 281Z" glyph-name="cacute" horiz-adv-x="525" unicode="&#263;" /><glyph d="M172 780 250 688 328 780H445L312 601H188L55 780Z" glyph-name="caron" horiz-adv-x="500" unicode="&#711;" /><glyph d="M186 950 250 899 314 950H434L315 840H185L66 950Z" glyph-name="caron.cap" horiz-adv-x="500" unicode="&#58413;" /><glyph d="M396 800 373 601H311V800Z" glyph-name="caronSlovak" horiz-adv-x="500" unicode="&#58387;" /><glyph d="M192 780 270 688 348 780H465L332 601H208L75 780ZM166 249Q166 180 191 140.5Q216 101 273 101Q323 101 345 127.5Q367 154 367 193H490V172Q490 134 476.5 100.5Q463 67 436 41.5Q409 16 367.5 1.5Q326 -13 270 -13Q209 -13 164.5 6.5Q120 26 91.5 61Q63 96 49.5 144Q36 192 36 249V281Q36 338 49.5 386Q63 434 91.5 469Q120 504 164.5 523.5Q209 543 270 543Q326 543 367.5 528Q409 513 436 486.5Q463 460 476.5 425Q490 390 490 350V328H367Q367 375 344 402.5Q321 430 273 430Q216 430 191 390Q166 350 166 281Z" glyph-name="ccaron" horiz-adv-x="525" unicode="&#269;" /><glyph d="M193 -131Q206 -139 225 -143Q244 -147 264 -147Q291 -147 303 -141Q315 -135 315 -122Q315 -97 262 -97Q255 -97 249.5 -97.5Q244 -98 239 -99Q234 -100 228 -101L211 -75L235 -11Q183 -5 145.5 16.5Q108 38 83.5 72Q59 106 47.5 151Q36 196 36 249V281Q36 338 49.5 386Q63 434 91.5 469Q120 504 164.5 523.5Q209 543 270 543Q326 543 367.5 528Q409 513 436 486.5Q463 460 476.5 425Q490 390 490 350V328H367Q367 375 344 402.5Q321 430 273 430Q216 430 191 390Q166 350 166 281V249Q166 180 191 140.5Q216 101 273 101Q323 101 345 127.5Q367 154 367 193H490V172Q490 137 478.5 105.5Q467 74 444 49.5Q421 25 385 9Q349 -7 301 -11L289 -45Q329 -47 359 -67Q389 -87 389 -129Q389 -172 360 -193Q331 -214 275 -214Q241 -214 214 -207Q187 -200 173 -190Z" glyph-name="ccedilla" horiz-adv-x="525" unicode="&#231;" /><glyph d="M75 601 208 780H332L465 601H348L270 693L192 601ZM166 249Q166 180 191 140.5Q216 101 273 101Q323 101 345 127.5Q367 154 367 193H490V172Q490 134 476.5 100.5Q463 67 436 41.5Q409 16 367.5 1.5Q326 -13 270 -13Q209 -13 164.5 6.5Q120 26 91.5 61Q63 96 49.5 144Q36 192 36 249V281Q36 338 49.5 386Q63 434 91.5 469Q120 504 164.5 523.5Q209 543 270 543Q326 543 367.5 528Q409 513 436 486.5Q463 460 476.5 425Q490 390 490 350V328H367Q367 375 344 402.5Q321 430 273 430Q216 430 191 390Q166 350 166 281Z" glyph-name="ccircumflex" horiz-adv-x="525" unicode="&#265;" /><glyph d="M341 622H199V763H341ZM166 249Q166 180 191 140.5Q216 101 273 101Q323 101 345 127.5Q367 154 367 193H490V172Q490 134 476.5 100.5Q463 67 436 41.5Q409 16 367.5 1.5Q326 -13 270 -13Q209 -13 164.5 6.5Q120 26 91.5 61Q63 96 49.5 144Q36 192 36 249V281Q36 338 49.5 386Q63 434 91.5 469Q120 504 164.5 523.5Q209 543 270 543Q326 543 367.5 528Q409 513 436 486.5Q463 460 476.5 425Q490 390 490 350V328H367Q367 375 344 402.5Q321 430 273 430Q216 430 191 390Q166 350 166 281Z" glyph-name="cdotaccent" horiz-adv-x="525" unicode="&#267;" /><glyph d="M170 -131Q183 -139 202 -143Q221 -147 241 -147Q268 -147 280 -141Q292 -135 292 -122Q292 -97 239 -97Q232 -97 226.5 -97.5Q221 -98 216 -99Q211 -100 205 -101L188 -75L217 0H283L266 -45Q306 -47 336 -67Q366 -87 366 -129Q366 -172 337 -193Q308 -214 252 -214Q218 -214 191 -207Q164 -200 150 -190Z" glyph-name="cedilla" horiz-adv-x="602" unicode="&#184;" /><glyph d="M180 373Q180 325 185.5 289Q191 253 205 227L298 613Q234 608 207 556Q180 504 180 407ZM423 712Q489 688 521.5 633.5Q554 579 554 497V470H424Q424 508 417 537Q410 566 393 584L293 167H314Q373 167 398.5 201Q424 235 424 291H554V275Q554 168 494 110Q434 52 309 52Q298 52 287.5 52.5Q277 53 266 54L239 -60H137L171 83Q107 118 76.5 190.5Q46 263 46 373V407Q46 567 110 648.5Q174 730 309 730H325L352 840H454Z" glyph-name="cent" horiz-adv-x="600" unicode="&#162;" /><glyph d="M55 601 188 780H312L445 601H328L250 693L172 601Z" glyph-name="circumflex" horiz-adv-x="500" unicode="&#710;" /><glyph d="M66 840 185 950H315L434 840H314L250 890L186 840Z" glyph-name="circumflex.cap" horiz-adv-x="500" unicode="&#58403;" /><glyph d="M349 0Q368 37 381.5 73Q395 109 404.5 147Q414 185 420.5 227Q427 269 431 320L428 321Q415 290 396 261Q377 232 352 209.5Q327 187 296 173.5Q265 160 228 160Q191 160 159 173.5Q127 187 103 210.5Q79 234 65.5 265.5Q52 297 52 334Q52 373 64.5 406Q77 439 100 463Q123 487 155 500.5Q187 514 226 514Q252 514 272.5 507Q293 500 310 491L312 493Q295 518 284.5 547.5Q274 577 274 610Q274 647 287.5 680Q301 713 324.5 737.5Q348 762 380 776Q412 790 450 790Q488 790 520 776Q552 762 575.5 737.5Q599 713 612.5 680Q626 647 626 610Q626 577 615.5 547.5Q605 518 588 493L590 491Q607 500 627.5 507Q648 514 674 514Q713 514 745 500.5Q777 487 800 463Q823 439 835.5 406Q848 373 848 334Q848 297 834.5 265.5Q821 234 797 210.5Q773 187 741 173.5Q709 160 672 160Q635 160 604 173.5Q573 187 548 209.5Q523 232 504 261Q485 290 472 321L469 320Q473 269 479.5 227Q486 185 495.5 147Q505 109 518.5 73Q532 37 551 0Z" glyph-name="club" horiz-adv-x="900" unicode="&#9827;" /><glyph d="M196 0H54V141H196ZM196 319H54V461H196Z" glyph-name="colon" horiz-adv-x="250" unicode=":" /><glyph d="M221 0H79V141H221ZM221 319H79V461H221Z" glyph-name="colon.T" horiz-adv-x="300" unicode="&#61828;" /><glyph d="M196 30Q196 -135 43 -135V-67Q114 -67 126 0H54V141H196Z" glyph-name="comma" horiz-adv-x="250" unicode="," /><glyph d="M221 30Q221 -135 68 -135V-67Q139 -67 151 0H79V141H221Z" glyph-name="comma.T" horiz-adv-x="300" unicode="&#61827;" /><glyph d="M311 -103Q311 -166 278 -194.5Q245 -223 177 -223V-174Q208 -174 229 -165Q250 -156 258 -133H189V-47H311Z" glyph-name="commaaccent" horiz-adv-x="602" unicode="&#58388;" /><glyph d="M192 870Q192 916 221.5 941Q251 966 314 966V930Q287 930 270 924Q253 918 245 900H308V840H192Z" glyph-name="commaaccent.cap" horiz-adv-x="500" unicode="&#58414;" /><glyph d="M463 246Q510 246 529.5 269.5Q549 293 549 322H661V304Q661 273 649.5 243.5Q638 214 613 191.5Q588 169 550 155.5Q512 142 460 142Q403 142 362.5 160.5Q322 179 296 211Q270 243 258 285.5Q246 328 246 375V405Q246 452 258 494.5Q270 537 296 569Q322 601 362.5 619.5Q403 638 460 638Q512 638 550 624Q588 610 613 586.5Q638 563 649.5 532.5Q661 502 661 468V449H549Q549 485 529 509.5Q509 534 463 534Q436 534 417.5 524Q399 514 387 496.5Q375 479 370 455.5Q365 432 365 405V375Q365 348 370 324.5Q375 301 387 283.5Q399 266 417.5 256Q436 246 463 246ZM109 390Q109 317 136.5 253Q164 189 211.5 141.5Q259 94 323 66.5Q387 39 460 39Q533 39 597 66.5Q661 94 708.5 141.5Q756 189 783.5 253Q811 317 811 390Q811 463 783.5 527Q756 591 708.5 638.5Q661 686 597 713.5Q533 741 460 741Q387 741 323 713.5Q259 686 211.5 638.5Q164 591 136.5 527Q109 463 109 390ZM57 390Q57 473 88.5 546.5Q120 620 175 674.5Q230 729 303.5 761Q377 793 460 793Q543 793 616.5 761Q690 729 744.5 674.5Q799 620 831 546.5Q863 473 863 390Q863 307 831 233.5Q799 160 744.5 105Q690 50 616.5 18.5Q543 -13 460 -13Q377 -13 303.5 18.5Q230 50 175 105Q120 160 88.5 233.5Q57 307 57 390Z" glyph-name="copyright" horiz-adv-x="920" unicode="&#169;" /><glyph d="M381 369Q375 378 366 389Q357 400 344 409Q331 418 314.5 424Q298 430 277 430Q221 430 196.5 390.5Q172 351 172 281V249Q172 179 196.5 140Q221 101 277 101Q298 101 314.5 107Q331 113 344 122Q357 131 366 141.5Q375 152 381 161ZM241 543Q290 543 324 525.5Q358 508 381 481V800H511V150L519 0H404L393 66Q371 32 334.5 9.5Q298 -13 241 -13Q187 -13 149 6.5Q111 26 87 61Q63 96 52.5 144Q42 192 42 249V281Q42 338 52.5 386Q63 434 87 469Q111 504 149 523.5Q187 543 241 543Z" glyph-name="d" horiz-adv-x="569" unicode="d" /><glyph d="M23 656 157 651V583L23 578ZM382 578 248 583V651L382 656ZM241 800 236 663H169L164 800ZM169 571H236L241 443L236 315H169L164 443Z" glyph-name="dagger" horiz-adv-x="405" unicode="&#8224;" /><glyph d="M382 578 248 583V651L382 656ZM23 427 157 422V354L23 349ZM23 656 157 651V583L23 578ZM382 349 248 354V422L382 427ZM169 571H236L241 502L236 434H169L164 502ZM241 800 236 663H169L164 800ZM169 342H236L241 214L236 86H169L164 214Z" glyph-name="daggerdbl" horiz-adv-x="405" unicode="&#8225;" /><glyph d="M657 800 634 601H572V800ZM381 369Q375 378 366 389Q357 400 344 409Q331 418 314.5 424Q298 430 277 430Q221 430 196.5 390.5Q172 351 172 281V249Q172 179 196.5 140Q221 101 277 101Q298 101 314.5 107Q331 113 344 122Q357 131 366 141.5Q375 152 381 161ZM241 543Q290 543 324 525.5Q358 508 381 481V800H511V150L519 0H404L393 66Q371 32 334.5 9.5Q298 -13 241 -13Q187 -13 149 6.5Q111 26 87 61Q63 96 52.5 144Q42 192 42 249V281Q42 338 52.5 386Q63 434 87 469Q111 504 149 523.5Q187 543 241 543Z" glyph-name="dcaron" horiz-adv-x="569" unicode="&#271;" /><glyph d="M381 369Q375 378 366 389Q357 400 344 409Q331 418 314.5 424Q298 430 277 430Q221 430 196.5 390.5Q172 351 172 281V249Q172 179 196.5 140Q221 101 277 101Q298 101 314.5 107Q331 113 344 122Q357 131 366 141.5Q375 152 381 161ZM586 617H511V150L519 0H404L393 66Q371 32 334.5 9.5Q298 -13 241 -13Q187 -13 149 6.5Q111 26 87 61Q63 96 52.5 144Q42 192 42 249V281Q42 338 52.5 386Q63 434 87 469Q111 504 149 523.5Q187 543 241 543Q290 543 324 525.5Q358 508 381 481V617H262V713H381V800H511V713H586Z" glyph-name="dcroat" horiz-adv-x="569" unicode="&#273;" /><glyph d="M504 849H388V941H504ZM381 369Q375 378 366 389Q357 400 344 409Q331 418 314.5 424Q298 430 277 430Q221 430 196.5 390.5Q172 351 172 281V249Q172 179 196.5 140Q221 101 277 101Q298 101 314.5 107Q331 113 344 122Q357 131 366 141.5Q375 152 381 161ZM241 543Q290 543 324 525.5Q358 508 381 481V800H511V150L519 0H404L393 66Q371 32 334.5 9.5Q298 -13 241 -13Q187 -13 149 6.5Q111 26 87 61Q63 96 52.5 144Q42 192 42 249V281Q42 338 52.5 386Q63 434 87 469Q111 504 149 523.5Q187 543 241 543Z" glyph-name="ddotaccent" horiz-adv-x="569" unicode="&#7691;" /><glyph d="M359 630Q359 593 347 564Q335 535 313.5 514.5Q292 494 263 483Q234 472 200 472Q166 472 137 483Q108 494 86.5 514.5Q65 535 53 564Q41 593 41 630V634Q41 671 53 700.5Q65 730 86.5 750.5Q108 771 137 782Q166 793 200 793Q234 793 263 782Q292 771 313.5 750.5Q335 730 347 700.5Q359 671 359 634ZM277 635Q277 670 255.5 689.5Q234 709 202 709H198Q166 709 144.5 689.5Q123 670 123 635V629Q123 594 144.5 574.5Q166 555 198 555H202Q234 555 255.5 574.5Q277 594 277 629Z" glyph-name="degree" horiz-adv-x="400" unicode="&#176;" /><glyph d="M817 390Q764 348 712.5 300.5Q661 253 614 201.5Q567 150 525.5 96.5Q484 43 451 -10H449Q416 43 374.5 96.5Q333 150 286 201.5Q239 253 187.5 300.5Q136 348 83 390Q136 432 187.5 479.5Q239 527 286 578.5Q333 630 374.5 683.5Q416 737 449 790H451Q484 737 525.5 683.5Q567 630 614 578.5Q661 527 712.5 479.5Q764 432 817 390Z" glyph-name="diamond" horiz-adv-x="900" unicode="&#9830;" /><glyph d="M421 622H279V763H421ZM221 622H79V763H221Z" glyph-name="dieresis" horiz-adv-x="500" unicode="&#168;" /><glyph d="M393 849H276V941H393ZM224 849H107V941H224Z" glyph-name="dieresis.cap" horiz-adv-x="500" unicode="&#58409;" /><glyph d="M371 530H229V671H371ZM371 109H229V250H371ZM44 449H556V331H44Z" glyph-name="divide" horiz-adv-x="600" unicode="&#247;" /><glyph d="M188 535Q188 504 204.5 484.5Q221 465 265 454L305 621H296Q251 621 219.5 599.5Q188 578 188 540ZM306 160Q355 160 386 182.5Q417 205 417 246V251Q417 283 398.5 303Q380 323 338 334L297 160ZM427 709Q488 684 516.5 633.5Q545 583 545 507V493H414Q414 544 396 576L363 438Q455 422 503 382.5Q551 343 551 261V252Q551 158 488 104.5Q425 51 304 51Q295 51 287 51Q279 51 271 52L244 -60H142L174 73Q111 98 80 149Q49 200 49 273V279H181Q181 230 204 199L240 350Q144 366 100 407.5Q56 449 56 525V534Q56 581 73.5 617.5Q91 654 123 679Q155 704 200 717Q245 730 300 730Q308 730 315 729.5Q322 729 330 729L357 840H459Z" glyph-name="dollar" horiz-adv-x="600" unicode="$" /><glyph d="M321 622H179V763H321Z" glyph-name="dotaccent" horiz-adv-x="500" unicode="&#729;" /><glyph d="M308 849H192V941H308Z" glyph-name="dotaccent.cap" horiz-adv-x="500" unicode="&#58408;" /><glyph d="M311 -185H189V-62H311Z" glyph-name="dotbelow" horiz-adv-x="602" unicode="&#58389;" /><glyph d="M60 530H190V0H60Z" glyph-name="dotlessi" horiz-adv-x="250" unicode="&#305;" /><glyph d="M60 530H190V-27Q190 -78 176.5 -113.5Q163 -149 138.5 -171Q114 -193 80 -203Q46 -213 5 -213Q-30 -213 -50.5 -208Q-71 -203 -77 -200V-92Q-72 -94 -56 -96.5Q-40 -99 -26 -99Q-6 -99 10 -95.5Q26 -92 37 -82.5Q48 -73 54 -56.5Q60 -40 60 -13Z" glyph-name="dotlessj" horiz-adv-x="252" unicode="&#567;" /><glyph d="M233 840H360V-120H233ZM57 840H185V-120H57Z" glyph-name="doublebar" horiz-adv-x="418" unicode="&#8214;" /><glyph d="M233 780H360V0H233ZM57 780H185V0H57Z" glyph-name="doublebar.cap" horiz-adv-x="418" unicode="&#58468;" /><glyph d="M304 780 377 601H272L187 780ZM138 780 229 601H124L21 780Z" glyph-name="doublegrave" horiz-adv-x="500" unicode="&#58386;" /><glyph d="M175 950 232 840H114L51 950ZM335 950 386 840H268L211 950Z" glyph-name="doublegrave.cap" horiz-adv-x="500" unicode="&#58412;" /><glyph d="M276 442Q223 442 196.5 409Q170 376 166 313H385Q382 376 356 409Q330 442 276 442ZM166 217Q173 88 285 88Q338 88 365.5 114Q393 140 393 170H516V166Q516 130 501 98Q486 66 457 41Q428 16 384.5 1.5Q341 -13 284 -13Q220 -13 173 7Q126 27 95.5 62.5Q65 98 50.5 146.5Q36 195 36 252V278Q36 335 51 383.5Q66 432 96 467.5Q126 503 171.5 523Q217 543 279 543Q340 543 384.5 523Q429 503 458.5 467.5Q488 432 502 383.5Q516 335 516 278V217Z" glyph-name="e" horiz-adv-x="553" unicode="e" /><glyph d="M276 442Q223 442 196.5 409Q170 376 166 313H385Q382 376 356 409Q330 442 276 442ZM447 780 344 601H214L305 780ZM166 217Q173 88 285 88Q338 88 365.5 114Q393 140 393 170H516V166Q516 130 501 98Q486 66 457 41Q428 16 384.5 1.5Q341 -13 284 -13Q220 -13 173 7Q126 27 95.5 62.5Q65 98 50.5 146.5Q36 195 36 252V278Q36 335 51 383.5Q66 432 96 467.5Q126 503 171.5 523Q217 543 279 543Q340 543 384.5 523Q429 503 458.5 467.5Q488 432 502 383.5Q516 335 516 278V217Z" glyph-name="eacute" horiz-adv-x="553" unicode="&#233;" /><glyph d="M276 442Q223 442 196.5 409Q170 376 166 313H385Q382 376 356 409Q330 442 276 442ZM279 589Q229 589 195 603Q161 617 139.5 642.5Q118 668 108.5 703Q99 738 100 780H196Q196 733 218 711Q240 689 279 689Q318 689 340 711Q362 733 362 780H458Q459 738 449.5 703Q440 668 418.5 642.5Q397 617 362.5 603Q328 589 279 589ZM166 217Q173 88 285 88Q338 88 365.5 114Q393 140 393 170H516V166Q516 130 501 98Q486 66 457 41Q428 16 384.5 1.5Q341 -13 284 -13Q220 -13 173 7Q126 27 95.5 62.5Q65 98 50.5 146.5Q36 195 36 252V278Q36 335 51 383.5Q66 432 96 467.5Q126 503 171.5 523Q217 543 279 543Q340 543 384.5 523Q429 503 458.5 467.5Q488 432 502 383.5Q516 335 516 278V217Z" glyph-name="ebreve" horiz-adv-x="553" unicode="&#277;" /><glyph d="M276 442Q223 442 196.5 409Q170 376 166 313H385Q382 376 356 409Q330 442 276 442ZM201 780 279 688 357 780H474L341 601H217L84 780ZM166 217Q173 88 285 88Q338 88 365.5 114Q393 140 393 170H516V166Q516 130 501 98Q486 66 457 41Q428 16 384.5 1.5Q341 -13 284 -13Q220 -13 173 7Q126 27 95.5 62.5Q65 98 50.5 146.5Q36 195 36 252V278Q36 335 51 383.5Q66 432 96 467.5Q126 503 171.5 523Q217 543 279 543Q340 543 384.5 523Q429 503 458.5 467.5Q488 432 502 383.5Q516 335 516 278V217Z" glyph-name="ecaron" horiz-adv-x="553" unicode="&#283;" /><glyph d="M276 442Q223 442 196.5 409Q170 376 166 313H385Q382 376 356 409Q330 442 276 442ZM84 601 217 780H341L474 601H357L279 693L201 601ZM166 217Q173 88 285 88Q338 88 365.5 114Q393 140 393 170H516V166Q516 130 501 98Q486 66 457 41Q428 16 384.5 1.5Q341 -13 284 -13Q220 -13 173 7Q126 27 95.5 62.5Q65 98 50.5 146.5Q36 195 36 252V278Q36 335 51 383.5Q66 432 96 467.5Q126 503 171.5 523Q217 543 279 543Q340 543 384.5 523Q429 503 458.5 467.5Q488 432 502 383.5Q516 335 516 278V217Z" glyph-name="ecircumflex" horiz-adv-x="553" unicode="&#234;" /><glyph d="M250 622H108V763H250ZM450 622H308V763H450ZM276 442Q223 442 196.5 409Q170 376 166 313H385Q382 376 356 409Q330 442 276 442ZM166 217Q173 88 285 88Q338 88 365.5 114Q393 140 393 170H516V166Q516 130 501 98Q486 66 457 41Q428 16 384.5 1.5Q341 -13 284 -13Q220 -13 173 7Q126 27 95.5 62.5Q65 98 50.5 146.5Q36 195 36 252V278Q36 335 51 383.5Q66 432 96 467.5Q126 503 171.5 523Q217 543 279 543Q340 543 384.5 523Q429 503 458.5 467.5Q488 432 502 383.5Q516 335 516 278V217Z" glyph-name="edieresis" horiz-adv-x="553" unicode="&#235;" /><glyph d="M350 622H208V763H350ZM276 442Q223 442 196.5 409Q170 376 166 313H385Q382 376 356 409Q330 442 276 442ZM166 217Q173 88 285 88Q338 88 365.5 114Q393 140 393 170H516V166Q516 130 501 98Q486 66 457 41Q428 16 384.5 1.5Q341 -13 284 -13Q220 -13 173 7Q126 27 95.5 62.5Q65 98 50.5 146.5Q36 195 36 252V278Q36 335 51 383.5Q66 432 96 467.5Q126 503 171.5 523Q217 543 279 543Q340 543 384.5 523Q429 503 458.5 467.5Q488 432 502 383.5Q516 335 516 278V217Z" glyph-name="edotaccent" horiz-adv-x="553" unicode="&#279;" /><glyph d="M276 442Q223 442 196.5 409Q170 376 166 313H385Q382 376 356 409Q330 442 276 442ZM253 780 344 601H214L111 780ZM166 217Q173 88 285 88Q338 88 365.5 114Q393 140 393 170H516V166Q516 130 501 98Q486 66 457 41Q428 16 384.5 1.5Q341 -13 284 -13Q220 -13 173 7Q126 27 95.5 62.5Q65 98 50.5 146.5Q36 195 36 252V278Q36 335 51 383.5Q66 432 96 467.5Q126 503 171.5 523Q217 543 279 543Q340 543 384.5 523Q429 503 458.5 467.5Q488 432 502 383.5Q516 335 516 278V217Z" glyph-name="egrave" horiz-adv-x="553" unicode="&#232;" /><glyph d="M295 676Q244 676 212 647.5Q180 619 180 570V562Q180 508 211.5 482Q243 456 294 456H306Q357 456 388.5 482Q420 508 420 562V570Q420 619 388 647.5Q356 676 305 676ZM291 340Q239 340 207 312.5Q175 285 175 230V218Q175 188 185 166.5Q195 145 211.5 131Q228 117 249.5 110.5Q271 104 295 104H305Q329 104 350.5 110.5Q372 117 388.5 131Q405 145 415 166.5Q425 188 425 218V230Q425 285 393 312.5Q361 340 309 340ZM300 -13Q234 -13 185.5 6Q137 25 105 56Q73 87 57.5 126Q42 165 42 205V223Q42 290 71.5 332.5Q101 375 146 398Q103 421 75 462Q47 503 47 568V586Q47 624 61 661Q75 698 106 727.5Q137 757 184.5 775Q232 793 300 793Q367 793 415 775Q463 757 494 727.5Q525 698 539 661Q553 624 553 586V568Q553 503 524.5 462Q496 421 454 398Q498 375 528 332.5Q558 290 558 223V205Q558 165 542.5 126Q527 87 495 56Q463 25 414.5 6Q366 -13 300 -13Z" glyph-name="eight" horiz-adv-x="600" unicode="8" /><glyph d="M147 110Q136 110 127 102Q118 94 118 80V75Q118 43 149 43H151Q181 43 181 75V80Q181 94 172.5 102Q164 110 152 110ZM147 -45Q116 -45 116 -77V-82Q116 -102 125.5 -111.5Q135 -121 147 -121H152Q165 -121 174.5 -111.5Q184 -102 184 -82V-77Q184 -45 152 -45ZM150 -208Q111 -208 85.5 -196Q60 -184 44.5 -167Q29 -150 22.5 -130Q16 -110 16 -94V-83Q16 -52 28.5 -32Q41 -12 59 0Q42 12 30.5 32Q19 52 19 82V92Q19 107 25 125.5Q31 144 46 160Q61 176 86.5 186.5Q112 197 150 197Q188 197 213.5 186.5Q239 176 254 160Q269 144 275 125.5Q281 107 281 92V82Q281 52 269.5 31.5Q258 11 241 0Q258 -12 270.5 -32.5Q283 -53 283 -83V-94Q283 -110 276.5 -130Q270 -150 254.5 -167Q239 -184 213.5 -196Q188 -208 150 -208Z" glyph-name="eight.inf" horiz-adv-x="300" unicode="&#58745;" /><glyph d="M1250 160Q1242 160 1232.5 156Q1223 152 1216 142V130Q1216 104 1225 91.5Q1234 79 1248 79H1251Q1263 79 1273 88.5Q1283 98 1283 115V126Q1283 146 1274.5 153Q1266 160 1253 160ZM30 390V476H109V658L61 626L11 697L133 779H209V476H287V390ZM330 390V476H409V658L361 626L311 697L433 779H509V476H587V390ZM830 0V86H909V268L861 236L811 307L933 389H1009V86H1087V0ZM1362 309Q1317 309 1290.5 300Q1264 291 1247 271Q1241 263 1236 254Q1231 245 1228 234Q1238 239 1250.5 242.5Q1263 246 1277 246Q1326 246 1354.5 213Q1383 180 1383 123V118Q1383 61 1350.5 26.5Q1318 -8 1249 -8Q1182 -8 1149 33.5Q1116 75 1116 138V146Q1116 193 1127.5 238.5Q1139 284 1171 326Q1203 370 1250 383.5Q1297 397 1362 397ZM360 0 936 780H1040L464 0Z" glyph-name="elevensixteenths" horiz-adv-x="1400" unicode="&#61984;" /><glyph d="M571 0H429V141H571ZM891 0H749V141H891ZM251 0H109V141H251Z" glyph-name="ellipsis" horiz-adv-x="1000" unicode="&#8230;" /><glyph d="M276 442Q223 442 196.5 409Q170 376 166 313H385Q382 376 356 409Q330 442 276 442ZM140 748H418V633H140ZM166 217Q173 88 285 88Q338 88 365.5 114Q393 140 393 170H516V166Q516 130 501 98Q486 66 457 41Q428 16 384.5 1.5Q341 -13 284 -13Q220 -13 173 7Q126 27 95.5 62.5Q65 98 50.5 146.5Q36 195 36 252V278Q36 335 51 383.5Q66 432 96 467.5Q126 503 171.5 523Q217 543 279 543Q340 543 384.5 523Q429 503 458.5 467.5Q488 432 502 383.5Q516 335 516 278V217Z" glyph-name="emacron" horiz-adv-x="553" unicode="&#275;" /><glyph d="M40 407H960V293H40Z" glyph-name="emdash" horiz-adv-x="1000" unicode="&#8212;" /><glyph d="M40 447H960V333H40Z" glyph-name="emdash.cap" horiz-adv-x="1000" unicode="&#58502;" /><glyph glyph-name="emspace" horiz-adv-x="1000" unicode="&#8195;" /><glyph d="M40 407H460V293H40Z" glyph-name="endash" horiz-adv-x="500" unicode="&#8211;" /><glyph d="M40 447H460V333H40Z" glyph-name="endash.cap" horiz-adv-x="500" unicode="&#58500;" /><glyph d="M381 342Q381 380 362 405Q343 430 298 430Q275 430 257 424Q239 418 225.5 409Q212 400 203 389Q194 378 188 369V0H58V380L49 530H164L176 460Q201 496 243 519.5Q285 543 348 543Q391 543 422 528.5Q453 514 473 489Q493 464 502 431.5Q511 399 511 363V-28Q511 -79 497.5 -114.5Q484 -150 459.5 -171.5Q435 -193 401 -203Q367 -213 326 -213Q291 -213 271 -208Q251 -203 244 -200V-92Q249 -94 265.5 -97Q282 -100 296 -100Q336 -100 358.5 -83Q381 -66 381 -13Z" glyph-name="eng" horiz-adv-x="563" unicode="&#331;" /><glyph glyph-name="enspace" horiz-adv-x="500" unicode="&#8194;" /><glyph d="M276 442Q223 442 196.5 409Q170 376 166 313H385Q382 376 356 409Q330 442 276 442ZM166 217Q173 88 285 88Q338 88 365.5 114Q393 140 393 170H516V166Q516 110 481 65Q446 20 379 0Q347 -10 328.5 -31Q310 -52 310 -79Q310 -97 322 -108.5Q334 -120 357 -120Q373 -120 385 -116.5Q397 -113 405 -108L436 -190Q420 -200 393 -207Q366 -214 337 -214Q280 -214 245 -188.5Q210 -163 210 -109Q210 -80 219.5 -55.5Q229 -31 246 -11Q192 -5 152 17Q112 39 86.5 73.5Q61 108 48.5 153.5Q36 199 36 252V278Q36 335 51 383.5Q66 432 96 467.5Q126 503 171.5 523Q217 543 279 543Q340 543 384.5 523Q429 503 458.5 467.5Q488 432 502 383.5Q516 335 516 278V217Z" glyph-name="eogonek" horiz-adv-x="553" unicode="&#281;" /><glyph d="M44 343H556V225H44ZM44 555H556V437H44Z" glyph-name="equal" horiz-adv-x="600" unicode="=" /><glyph d="M20 -17H280V-104H20ZM20 94H280V7H20Z" glyph-name="equal.inf" horiz-adv-x="300" unicode="&#58749;" /><glyph d="M44 661H556V544H44ZM44 236H556V119H44ZM44 449H556V331H44Z" glyph-name="equivalence" horiz-adv-x="600" unicode="&#8801;" /><glyph d="M276 101Q333 101 359.5 140.5Q386 180 386 249V281Q386 350 359.5 390Q333 430 276 430Q219 430 192.5 390Q166 350 166 281V249Q166 180 192.5 140.5Q219 101 276 101ZM36 813Q109 808 176 793Q243 778 300 746L420 813V734L363 702Q375 691 385.5 680Q396 669 407 657Q440 617 461 570Q482 523 494.5 474Q507 425 511.5 375.5Q516 326 516 281V249Q516 192 502 144Q488 96 458.5 61Q429 26 383.5 6.5Q338 -13 276 -13Q214 -13 168.5 6.5Q123 26 93.5 61Q64 96 50 144Q36 192 36 249V281Q36 338 50 386Q64 434 91.5 469Q119 504 160.5 523.5Q202 543 258 543Q306 543 346 526Q338 542 327.5 556Q317 570 306 583Q292 598 276 610.5Q260 623 243 634L68 536V615L165 670Q136 680 103.5 686Q71 692 36 696Z" glyph-name="eth" horiz-adv-x="553" unicode="&#240;" /><glyph d="M196 0H54V141H196ZM206 780 170 216H80L44 780Z" glyph-name="exclam" horiz-adv-x="250" unicode="!" /><glyph d="M54 530H196V389H54ZM44 -200 80 314H170L206 -200Z" glyph-name="exclamdown" horiz-adv-x="250" unicode="&#161;" /><glyph d="M54 780H196V639H54ZM44 0 80 564H170L206 0Z" glyph-name="exclamdown.cap" horiz-adv-x="250" unicode="&#58433;" /><glyph d="M234 530H361V416H234V0H104V416H23V530H104V628Q104 679 117.5 714.5Q131 750 155.5 771.5Q180 793 214 803Q248 813 289 813Q324 813 344.5 808Q365 803 371 800V692Q366 694 350 697Q334 700 320 700Q279 700 256.5 683Q234 666 234 613Z" glyph-name="f" horiz-adv-x="401" unicode="f" /><glyph d="M301 849H185V941H301ZM234 530H361V416H234V0H104V416H23V530H104V628Q104 679 117.5 714.5Q131 750 155.5 771.5Q180 793 214 803Q248 813 289 813Q324 813 344.5 808Q365 803 371 800V692Q366 694 350 697Q334 700 320 700Q279 700 256.5 683Q234 666 234 613Z" glyph-name="fdotaccent" horiz-adv-x="401" unicode="&#7711;" /><glyph d="M597 622H455V763H597ZM461 530H591V0H461ZM234 530H361V416H234V0H104V416H23V530H104V628Q104 679 117.5 714.5Q131 750 155.5 771.5Q180 793 214 803Q248 813 289 813Q324 813 344.5 808Q365 803 371 800V692Q366 694 350 697Q334 700 320 700Q279 700 256.5 683Q234 666 234 613Z" glyph-name="fi" horiz-adv-x="651" unicode="&#64257;" /><glyph d="M1250 160Q1242 160 1232.5 156Q1223 152 1216 142V130Q1216 104 1225 91.5Q1234 79 1248 79H1251Q1263 79 1273 88.5Q1283 98 1283 115V126Q1283 146 1274.5 153Q1266 160 1253 160ZM830 0V86H909V268L861 236L811 307L933 389H1009V86H1087V0ZM30 390V476H109V658L61 626L11 697L133 779H209V476H287V390ZM416 515Q416 487 426 478Q436 469 447 469H452Q465 469 474.5 478.5Q484 488 484 512V517Q484 540 474 549.5Q464 559 447 559H444Q434 559 423 554Q412 549 405 539L319 568L328 780H578V693H412L409 639Q420 642 431.5 644Q443 646 455 646Q520 646 551.5 611Q583 576 583 519V509Q583 452 551 417Q519 382 450 382Q383 382 349.5 414.5Q316 447 316 507V515ZM1362 309Q1317 309 1290.5 300Q1264 291 1247 271Q1241 263 1236 254Q1231 245 1228 234Q1238 239 1250.5 242.5Q1263 246 1277 246Q1326 246 1354.5 213Q1383 180 1383 123V118Q1383 61 1350.5 26.5Q1318 -8 1249 -8Q1182 -8 1149 33.5Q1116 75 1116 138V146Q1116 193 1127.5 238.5Q1139 284 1171 326Q1203 370 1250 383.5Q1297 397 1362 397ZM360 0 936 780H1040L464 0Z" glyph-name="fifteensixteenths" horiz-adv-x="1400" unicode="&#61986;" /><glyph d="M40 407H560V293H40Z" glyph-name="figuredash" horiz-adv-x="600" unicode="&#8210;" /><glyph d="M40 447H560V333H40Z" glyph-name="figuredash.cap" horiz-adv-x="600" unicode="&#58503;" /><glyph glyph-name="figurespace" horiz-adv-x="600" unicode="&#8199;" /><glyph d="M174 250Q174 210 183 182.5Q192 155 208 137.5Q224 120 246 112Q268 104 295 104H305Q329 104 350.5 111.5Q372 119 388.5 135Q405 151 415 176.5Q425 202 425 238V252Q425 288 415 313.5Q405 339 388 355Q371 371 348 378.5Q325 386 299 386H292Q254 386 216.5 367.5Q179 349 161 311L48 349L67 780H548V663H179L170 469Q199 485 233.5 494Q268 503 306 503Q424 503 491 437Q558 371 558 253V237Q558 119 490 53Q422 -13 300 -13Q170 -13 106 53Q42 119 42 237V250Z" glyph-name="five" horiz-adv-x="600" unicode="5" /><glyph d="M116 -75Q116 -103 126 -112Q136 -121 147 -121H152Q165 -121 174.5 -111.5Q184 -102 184 -78V-73Q184 -50 174 -40.5Q164 -31 147 -31H144Q134 -31 123 -36Q112 -41 105 -51L19 -22L28 190H278V103H112L109 49Q120 52 131.5 54Q143 56 155 56Q220 56 251.5 21Q283 -14 283 -71V-81Q283 -138 251 -173Q219 -208 150 -208Q83 -208 49.5 -175.5Q16 -143 16 -83V-75Z" glyph-name="five.inf" horiz-adv-x="300" unicode="&#58742;" /><glyph d="M950 160Q942 160 932.5 156Q923 152 916 142V130Q916 104 925 91.5Q934 79 948 79H951Q963 79 973 88.5Q983 98 983 115V126Q983 146 974.5 153Q966 160 953 160ZM530 0V86H609V268L561 236L511 307L633 389H709V86H787V0ZM116 515Q116 487 126 478Q136 469 147 469H152Q165 469 174.5 478.5Q184 488 184 512V517Q184 540 174 549.5Q164 559 147 559H144Q134 559 123 554Q112 549 105 539L19 568L28 780H278V693H112L109 639Q120 642 131.5 644Q143 646 155 646Q220 646 251.5 611Q283 576 283 519V509Q283 452 251 417Q219 382 150 382Q83 382 49.5 414.5Q16 447 16 507V515ZM1062 309Q1017 309 990.5 300Q964 291 947 271Q941 263 936 254Q931 245 928 234Q938 239 950.5 242.5Q963 246 977 246Q1026 246 1054.5 213Q1083 180 1083 123V118Q1083 61 1050.5 26.5Q1018 -8 949 -8Q882 -8 849 33.5Q816 75 816 138V146Q816 193 827.5 238.5Q839 284 871 326Q903 370 950 383.5Q997 397 1062 397ZM60 0 636 780H740L164 0Z" glyph-name="fivesixteenths" horiz-adv-x="1100" unicode="&#61975;" /><glyph d="M461 800H591V0H461ZM234 530H361V416H234V0H104V416H23V530H104V628Q104 679 117.5 714.5Q131 750 155.5 771.5Q180 793 214 803Q248 813 289 813Q324 813 344.5 808Q365 803 371 800V692Q366 694 350 697Q334 700 320 700Q279 700 256.5 683Q234 666 234 613Z" glyph-name="fl" horiz-adv-x="651" unicode="&#64258;" /><glyph d="M170 297 232 298H340V497L342 568ZM340 0V182H29V273L347 780H472V298H571V182H472V0Z" glyph-name="four" horiz-adv-x="600" unicode="4" /><glyph d="M113 -38 131 -36H155V14L156 32ZM155 -200V-124H12V-53L161 190H255V-36H287V-124H255V-200Z" glyph-name="four.inf" horiz-adv-x="300" unicode="&#58741;" /><glyph glyph-name="fourperemspace" horiz-adv-x="250" unicode="&#8197;" /><glyph d="M-240 0 336 780H440L-136 0Z" glyph-name="fraction" horiz-adv-x="200" unicode="&#8260;" /><glyph d="M376 369Q370 378 360.5 389Q351 400 338.5 409Q326 418 309 424Q292 430 271 430Q218 430 192 393Q166 356 166 295V269Q166 203 192 168.5Q218 134 271 134Q292 134 309 140Q326 146 338.5 155Q351 164 360.5 174.5Q370 185 376 194ZM376 82Q353 55 319 38Q285 21 235 21Q182 21 144 39Q106 57 82 90Q58 123 47 168.5Q36 214 36 269V295Q36 347 47 392.5Q58 438 82 471.5Q106 505 144 524Q182 543 235 543Q292 543 329 521Q366 499 388 465L399 530H514L506 380V6Q506 -99 450 -156Q394 -213 273 -213Q209 -213 165.5 -197.5Q122 -182 95.5 -156Q69 -130 57.5 -94.5Q46 -59 46 -19V0H169Q169 -50 190.5 -78Q212 -106 270 -106Q326 -106 351 -79.5Q376 -53 376 8Z" glyph-name="g" horiz-adv-x="563" unicode="g" /><glyph d="M276 589Q226 589 192 603Q158 617 136.5 642.5Q115 668 105.5 703Q96 738 97 780H193Q193 733 215 711Q237 689 276 689Q315 689 337 711Q359 733 359 780H455Q456 738 446.5 703Q437 668 415.5 642.5Q394 617 359.5 603Q325 589 276 589ZM376 369Q370 378 360.5 389Q351 400 338.5 409Q326 418 309 424Q292 430 271 430Q218 430 192 393Q166 356 166 295V269Q166 203 192 168.5Q218 134 271 134Q292 134 309 140Q326 146 338.5 155Q351 164 360.5 174.5Q370 185 376 194ZM376 82Q353 55 319 38Q285 21 235 21Q182 21 144 39Q106 57 82 90Q58 123 47 168.5Q36 214 36 269V295Q36 347 47 392.5Q58 438 82 471.5Q106 505 144 524Q182 543 235 543Q292 543 329 521Q366 499 388 465L399 530H514L506 380V6Q506 -99 450 -156Q394 -213 273 -213Q209 -213 165.5 -197.5Q122 -182 95.5 -156Q69 -130 57.5 -94.5Q46 -59 46 -19V0H169Q169 -50 190.5 -78Q212 -106 270 -106Q326 -106 351 -79.5Q376 -53 376 8Z" glyph-name="gbreve" horiz-adv-x="563" unicode="&#287;" /><glyph d="M81 601 214 780H338L471 601H354L276 693L198 601ZM376 369Q370 378 360.5 389Q351 400 338.5 409Q326 418 309 424Q292 430 271 430Q218 430 192 393Q166 356 166 295V269Q166 203 192 168.5Q218 134 271 134Q292 134 309 140Q326 146 338.5 155Q351 164 360.5 174.5Q370 185 376 194ZM376 82Q353 55 319 38Q285 21 235 21Q182 21 144 39Q106 57 82 90Q58 123 47 168.5Q36 214 36 269V295Q36 347 47 392.5Q58 438 82 471.5Q106 505 144 524Q182 543 235 543Q292 543 329 521Q366 499 388 465L399 530H514L506 380V6Q506 -99 450 -156Q394 -213 273 -213Q209 -213 165.5 -197.5Q122 -182 95.5 -156Q69 -130 57.5 -94.5Q46 -59 46 -19V0H169Q169 -50 190.5 -78Q212 -106 270 -106Q326 -106 351 -79.5Q376 -53 376 8Z" glyph-name="gcircumflex" horiz-adv-x="563" unicode="&#285;" /><glyph d="M211 663Q211 731 243.5 762Q276 793 345 793V744Q311 744 291 733Q271 722 263 693H334V601H211ZM376 369Q370 378 360.5 389Q351 400 338.5 409Q326 418 309 424Q292 430 271 430Q218 430 192 393Q166 356 166 295V269Q166 203 192 168.5Q218 134 271 134Q292 134 309 140Q326 146 338.5 155Q351 164 360.5 174.5Q370 185 376 194ZM376 82Q353 55 319 38Q285 21 235 21Q182 21 144 39Q106 57 82 90Q58 123 47 168.5Q36 214 36 269V295Q36 347 47 392.5Q58 438 82 471.5Q106 505 144 524Q182 543 235 543Q292 543 329 521Q366 499 388 465L399 530H514L506 380V6Q506 -99 450 -156Q394 -213 273 -213Q209 -213 165.5 -197.5Q122 -182 95.5 -156Q69 -130 57.5 -94.5Q46 -59 46 -19V0H169Q169 -50 190.5 -78Q212 -106 270 -106Q326 -106 351 -79.5Q376 -53 376 8Z" glyph-name="gcommaaccent" horiz-adv-x="563" unicode="&#291;" /><glyph d="M344 622H202V763H344ZM376 369Q370 378 360.5 389Q351 400 338.5 409Q326 418 309 424Q292 430 271 430Q218 430 192 393Q166 356 166 295V269Q166 203 192 168.5Q218 134 271 134Q292 134 309 140Q326 146 338.5 155Q351 164 360.5 174.5Q370 185 376 194ZM376 82Q353 55 319 38Q285 21 235 21Q182 21 144 39Q106 57 82 90Q58 123 47 168.5Q36 214 36 269V295Q36 347 47 392.5Q58 438 82 471.5Q106 505 144 524Q182 543 235 543Q292 543 329 521Q366 499 388 465L399 530H514L506 380V6Q506 -99 450 -156Q394 -213 273 -213Q209 -213 165.5 -197.5Q122 -182 95.5 -156Q69 -130 57.5 -94.5Q46 -59 46 -19V0H169Q169 -50 190.5 -78Q212 -106 270 -106Q326 -106 351 -79.5Q376 -53 376 8Z" glyph-name="gdotaccent" horiz-adv-x="563" unicode="&#289;" /><glyph d="M278 428Q334 459 364 496.5Q394 534 394 585Q394 636 370 667.5Q346 699 289 699Q261 699 241 690.5Q221 682 208.5 667Q196 652 190 632.5Q184 613 184 591V0H54V598Q54 644 67 683Q80 722 108 751Q136 780 180.5 796.5Q225 813 289 813Q350 813 394 796Q438 779 467 749.5Q496 720 510 681Q524 642 524 599V590Q524 524 496 479.5Q468 435 414 397L446 376Q516 329 553 280.5Q590 232 590 170V163Q590 130 581 98.5Q572 67 549.5 42Q527 17 489.5 2Q452 -13 395 -13Q345 -13 312.5 0Q280 13 261.5 36Q243 59 236 90.5Q229 122 229 159V166H343Q343 134 353.5 111Q364 88 398 88Q419 88 431.5 94Q444 100 450 110.5Q456 121 458 134.5Q460 148 460 162Q460 192 438 222.5Q416 253 365 286L278 346Z" glyph-name="germandbls" horiz-adv-x="613" unicode="&#223;" /><glyph d="M224 780 315 601H185L82 780Z" glyph-name="grave" horiz-adv-x="500" unicode="`" /><glyph d="M259 950 315 840H185L122 950Z" glyph-name="grave.cap" horiz-adv-x="500" unicode="&#58401;" /><glyph d="M556 326 44 111V241L416 390L44 539V669L556 454Z" glyph-name="greater" horiz-adv-x="600" unicode="&gt;" /><glyph d="M44 172 556 337V257L44 93ZM375 458 44 558V687L556 523V395L44 230V360Z" glyph-name="greaterequal" horiz-adv-x="600" unicode="&#8805;" /><glyph d="M500 434 378 340 500 246V129L288 278V402L500 551ZM263 434 141 340 263 246V129L50 278V402L263 551Z" glyph-name="guillemotleft" horiz-adv-x="550" unicode="&#171;" /><glyph d="M500 484 378 390 500 296V179L288 328V452L500 601ZM263 484 141 390 263 296V179L50 328V452L263 601Z" glyph-name="guillemotleft.cap" horiz-adv-x="550" unicode="&#58451;" /><glyph d="M288 551 500 402V278L288 129V246L409 340L288 434ZM50 551 263 402V278L50 129V246L172 340L50 434Z" glyph-name="guillemotright" horiz-adv-x="550" unicode="&#187;" /><glyph d="M288 601 500 452V328L288 179V296L409 390L288 484ZM50 601 263 452V328L50 179V296L172 390L50 484Z" glyph-name="guillemotright.cap" horiz-adv-x="550" unicode="&#58452;" /><glyph d="M263 434 141 340 263 246V129L50 278V402L263 551Z" glyph-name="guilsinglleft" horiz-adv-x="313" unicode="&#8249;" /><glyph d="M263 484 141 390 263 296V179L50 328V452L263 601Z" glyph-name="guilsinglleft.cap" horiz-adv-x="313" unicode="&#58449;" /><glyph d="M50 551 263 402V278L50 129V246L172 340L50 434Z" glyph-name="guilsinglright" horiz-adv-x="313" unicode="&#8250;" /><glyph d="M50 601 263 452V328L50 179V296L172 390L50 484Z" glyph-name="guilsinglright.cap" horiz-adv-x="313" unicode="&#58450;" /><glyph d="M188 476Q213 505 252 524Q291 543 348 543Q391 543 422 528.5Q453 514 473 489Q493 464 502 431.5Q511 399 511 363V0H382V342Q382 380 362.5 405Q343 430 298 430Q275 430 257 424Q239 418 225.5 409Q212 400 203 389Q194 378 188 369V0H58V800H188Z" glyph-name="h" horiz-adv-x="563" unicode="h" /><glyph glyph-name="hairspace" horiz-adv-x="50" unicode="&#8202;" /><glyph d="M188 713H307V617H188V476Q213 505 252 524Q291 543 348 543Q391 543 422 528.5Q453 514 473 489Q493 464 502 431.5Q511 399 511 363V0H382V342Q382 380 362.5 405Q343 430 298 430Q275 430 257 424Q239 418 225.5 409Q212 400 203 389Q194 378 188 369V0H58V617H-18V713H58V800H188Z" glyph-name="hbar" horiz-adv-x="563" unicode="&#295;" /><glyph d="M-62 840 57 950H187L306 840H186L122 890L58 840ZM188 476Q213 505 252 524Q291 543 348 543Q391 543 422 528.5Q453 514 473 489Q493 464 502 431.5Q511 399 511 363V0H382V342Q382 380 362.5 405Q343 430 298 430Q275 430 257 424Q239 418 225.5 409Q212 400 203 389Q194 378 188 369V0H58V800H188Z" glyph-name="hcircumflex" horiz-adv-x="563" unicode="&#293;" /><glyph d="M449 -10Q437 9 414 40Q391 71 360 110Q329 149 292.5 193.5Q256 238 216 283Q190 312 161 348Q132 384 108 423.5Q84 463 68 504Q52 545 52 584Q52 628 65 666Q78 704 103 731.5Q128 759 163.5 774.5Q199 790 243 790Q289 790 323 777Q357 764 381 742.5Q405 721 421 692.5Q437 664 448 633H452Q463 664 479 692.5Q495 721 519 742.5Q543 764 576.5 777Q610 790 657 790Q701 790 736.5 774.5Q772 759 796.5 731.5Q821 704 834.5 666Q848 628 848 584Q848 545 832 504Q816 463 792 423.5Q768 384 739 348Q710 312 684 283Q644 238 607.5 193.5Q571 149 540 110Q509 71 486 40Q463 9 451 -10Z" glyph-name="heart" horiz-adv-x="900" unicode="&#9829;" /><glyph d="M70 0V450L425 790L780 450V0Z" glyph-name="house" horiz-adv-x="850" unicode="&#8962;" /><glyph d="M313 780 228 601H123L196 780ZM479 780 376 601H271L362 780Z" glyph-name="hungarumlaut" horiz-adv-x="500" unicode="&#733;" /><glyph d="M449 950 386 840H268L325 950ZM289 950 232 840H114L165 950Z" glyph-name="hungarumlaut.cap" horiz-adv-x="500" unicode="&#58411;" /><glyph d="M40 407H305V293H40Z" glyph-name="hyphen" horiz-adv-x="345" unicode="-" /><glyph d="M40 447H305V333H40Z" glyph-name="hyphen.cap" horiz-adv-x="320" unicode="&#58498;" /><glyph d="M196 622H54V763H196ZM60 530H190V0H60Z" glyph-name="i" horiz-adv-x="250" unicode="i" /><glyph d="M293 780 190 601H60L151 780ZM60 530H190V0H60Z" glyph-name="iacute" horiz-adv-x="250" unicode="&#237;" /><glyph d="M125 589Q75 589 41 603Q7 617 -14.5 642.5Q-36 668 -45.5 703Q-55 738 -54 780H42Q42 733 64 711Q86 689 125 689Q164 689 186 711Q208 733 208 780H304Q305 738 295.5 703Q286 668 264.5 642.5Q243 617 208.5 603Q174 589 125 589ZM60 530H190V0H60Z" glyph-name="ibreve" horiz-adv-x="250" unicode="&#301;" /><glyph d="M-70 601 63 780H187L320 601H203L125 693L47 601ZM60 530H190V0H60Z" glyph-name="icircumflex" horiz-adv-x="250" unicode="&#238;" /><glyph d="M296 622H154V763H296ZM96 622H-46V763H96ZM60 530H190V0H60Z" glyph-name="idieresis" horiz-adv-x="250" unicode="&#239;" /><glyph d="M196 622H54V763H196ZM60 530H190V0H60Z" glyph-name="idotaccent" horiz-adv-x="250" unicode="&#59269;" /><glyph d="M99 780 190 601H60L-43 780ZM60 530H190V0H60Z" glyph-name="igrave" horiz-adv-x="250" unicode="&#236;" /><glyph d="M396 622H254V763H396ZM196 622H54V763H196ZM60 530H190V0H60ZM260 530H390V-28Q390 -79 376.5 -114.5Q363 -150 338.5 -171.5Q314 -193 280 -203Q246 -213 205 -213Q170 -213 149.5 -208Q129 -203 123 -200V-92Q128 -94 144 -97Q160 -100 174 -100Q194 -100 210 -96.5Q226 -93 237 -83Q248 -73 254 -56.5Q260 -40 260 -13Z" glyph-name="ij" horiz-adv-x="450" unicode="&#307;" /><glyph d="M-14 748H264V633H-14ZM60 530H190V0H60Z" glyph-name="imacron" horiz-adv-x="250" unicode="&#299;" /><glyph d="M337 575Q337 611 324.5 636Q312 661 282 671L277 428Q299 467 318 501Q337 535 337 575ZM320 0H178V141H320ZM211 216 202 670Q168 656 155 617Q142 578 142 513H23V528Q23 589 34 638.5Q45 688 71 722Q97 756 140 774.5Q183 793 246 793Q308 793 349.5 776.5Q391 760 416.5 731.5Q442 703 452.5 666Q463 629 463 589Q463 539 450.5 505.5Q438 472 419.5 446.5Q401 421 378.5 399.5Q356 378 336 353.5Q316 329 301.5 296.5Q287 264 284 216Z" glyph-name="interrobang" horiz-adv-x="484" unicode="&#8253;" /><glyph d="M154 -16Q154 -74 202 -91L207 114Q187 82 170.5 51Q154 20 154 -16ZM169 530H311V389H169ZM273 314 281 -90Q344 -65 344 60H461V44Q461 -16 450 -63.5Q439 -111 413 -144Q387 -177 344 -195Q301 -213 238 -213Q178 -213 136.5 -197.5Q95 -182 69.5 -156.5Q44 -131 32.5 -97Q21 -63 21 -27Q21 22 33.5 55Q46 88 65 112.5Q84 137 106.5 156.5Q129 176 149 197.5Q169 219 183 246.5Q197 274 200 314Z" glyph-name="interrobangdown" horiz-adv-x="484" unicode="&#59701;" /><glyph d="M147 205Q147 169 159 143.5Q171 118 202 108L207 352Q185 312 166 278Q147 244 147 205ZM164 780H306V639H164ZM273 564 282 110Q316 124 329 162.5Q342 201 342 267H461V252Q461 190 450 141Q439 92 413 58Q387 24 344 5.5Q301 -13 238 -13Q176 -13 134.5 3.5Q93 20 67.5 48.5Q42 77 31.5 113.5Q21 150 21 191Q21 241 33.5 274.5Q46 308 64.5 333.5Q83 359 105.5 380.5Q128 402 148 426.5Q168 451 182.5 483.5Q197 516 200 564Z" glyph-name="interrobangdown.cap" horiz-adv-x="484" unicode="&#59803;" /><glyph d="M250 793Q299 793 333.5 778.5Q368 764 389.5 738.5Q411 713 420.5 678Q430 643 429 601H333Q333 649 311 670.5Q289 692 250 692Q211 692 189 670.5Q167 649 167 601H71Q70 643 79.5 678Q89 713 110.5 738.5Q132 764 166 778.5Q200 793 250 793Z" glyph-name="invertedbreve" horiz-adv-x="500" unicode="&#58385;" /><glyph d="M250 964Q300 964 333 954Q366 944 385.5 927.5Q405 911 413 888Q421 865 421 840H329Q329 863 310.5 876Q292 889 250 889Q208 889 189.5 876Q171 863 171 840H79Q79 865 87 888Q95 911 114.5 927.5Q134 944 167 954Q200 964 250 964Z" glyph-name="invertedbreve.cap" horiz-adv-x="500" unicode="&#58407;" /><glyph d="M196 622H54V763H196ZM22 -109Q22 -79 32.5 -53.5Q43 -28 60 -8V530H190V0Q159 -14 140.5 -33Q122 -52 122 -79Q122 -97 134 -108.5Q146 -120 169 -120Q185 -120 197 -116.5Q209 -113 217 -108L248 -190Q232 -200 205 -207Q178 -214 149 -214Q92 -214 57 -188.5Q22 -163 22 -109Z" glyph-name="iogonek" horiz-adv-x="250" unicode="&#303;" /><glyph d="M312 764Q312 689 283 655.5Q254 622 211 622Q187 622 166 630.5Q145 639 126.5 648.5Q108 658 91.5 666.5Q75 675 60 675Q46 675 36.5 666.5Q27 658 27 636H-62Q-62 711 -33 744.5Q-4 778 39 778Q63 778 84 769.5Q105 761 123.5 751.5Q142 742 158.5 733.5Q175 725 190 725Q204 725 213.5 733.5Q223 742 223 764ZM60 530H190V0H60Z" glyph-name="itilde" horiz-adv-x="250" unicode="&#297;" /><glyph d="M196 622H54V763H196ZM60 530H190V-28Q190 -79 176.5 -114.5Q163 -150 138.5 -171.5Q114 -193 80 -203Q46 -213 5 -213Q-30 -213 -50.5 -208Q-71 -203 -77 -200V-92Q-72 -94 -56 -97Q-40 -100 -26 -100Q-6 -100 10 -96.5Q26 -93 37 -83Q48 -73 54 -56.5Q60 -40 60 -13Z" glyph-name="j" horiz-adv-x="252" unicode="j" /><glyph d="M-70 601 63 780H187L320 601H203L125 693L47 601ZM60 530H190V-27Q190 -78 176.5 -113.5Q163 -149 138.5 -171Q114 -193 80 -203Q46 -213 5 -213Q-30 -213 -50.5 -208Q-71 -203 -77 -200V-92Q-72 -94 -56 -96.5Q-40 -99 -26 -99Q-6 -99 10 -95.5Q26 -92 37 -82.5Q48 -73 54 -56.5Q60 -40 60 -13Z" glyph-name="jcircumflex" horiz-adv-x="250" unicode="&#309;" /><glyph d="M54 800H184V316L365 530H522L344 329L522 0H371L255 228L184 147V0H54Z" glyph-name="k" horiz-adv-x="543" unicode="k" /><glyph d="M332 -103Q332 -166 299 -194.5Q266 -223 198 -223V-174Q229 -174 250 -165Q271 -156 279 -133H210V-47H332ZM54 800H184V316L365 530H522L344 329L522 0H371L255 228L184 147V0H54Z" glyph-name="kcommaaccent" horiz-adv-x="543" unicode="&#311;" /><glyph d="M54 530H184V316L365 530H522L344 329L522 0H371L255 228L184 147V0H54Z" glyph-name="kgreenlandic" horiz-adv-x="543" unicode="&#312;" /><glyph d="M60 800H190V0H60Z" glyph-name="l" horiz-adv-x="250" unicode="l" /><glyph d="M253 950 190 840H60L116 950ZM60 800H190V0H60Z" glyph-name="lacute" horiz-adv-x="250" unicode="&#314;" /><glyph d="M336 800 313 601H251V800ZM60 800H190V0H60Z" glyph-name="lcaron" horiz-adv-x="250" unicode="&#318;" /><glyph d="M186 -103Q186 -166 153 -194.5Q120 -223 52 -223V-174Q83 -174 104 -165Q125 -156 133 -133H64V-47H186ZM60 800H190V0H60Z" glyph-name="lcommaaccent" horiz-adv-x="250" unicode="&#316;" /><glyph d="M399 279H257V421H399ZM60 800H190V0H60Z" glyph-name="ldot" horiz-adv-x="406" unicode="&#320;" /><glyph d="M556 669V539L184 390L556 241V111L44 326V454Z" glyph-name="less" horiz-adv-x="600" unicode="&lt;" /><glyph d="M556 93 44 257V337L556 172ZM225 458 556 360V230L44 395V523L556 687V558Z" glyph-name="lessequal" horiz-adv-x="600" unicode="&#8804;" /><glyph d="M44 570H556V200H439V452H44Z" glyph-name="logicalnot" horiz-adv-x="600" unicode="&#172;" /><glyph d="M44 114H276V0H44Z" glyph-name="lowline" horiz-adv-x="320" unicode="&#58641;" /><glyph d="M26 326 116 386V800H246V473L351 543V430L246 360V0H116V273L26 213Z" glyph-name="lslash" horiz-adv-x="366" unicode="&#322;" /><glyph d="M663 0V351Q663 430 588 430Q568 430 552.5 424.5Q537 419 525 410.5Q513 402 504.5 392Q496 382 490 373V0H361V351Q361 430 285 430Q265 430 249.5 424.5Q234 419 222 410.5Q210 402 202 392Q194 382 188 373V0H58V380L49 530H164L175 464Q199 498 238 520.5Q277 543 336 543Q389 543 422.5 520Q456 497 473 459Q496 495 536.5 519Q577 543 638 543Q678 543 707 530Q736 517 755 494.5Q774 472 783.5 440Q793 408 793 371V0Z" glyph-name="m" horiz-adv-x="844" unicode="m" /><glyph d="M111 748H389V633H111Z" glyph-name="macron" horiz-adv-x="500" unicode="&#175;" /><glyph d="M112 937H388V853H112Z" glyph-name="macron.cap" horiz-adv-x="500" unicode="&#58405;" /><glyph d="M497 622H355V763H497ZM663 0V351Q663 430 588 430Q568 430 552.5 424.5Q537 419 525 410.5Q513 402 504.5 392Q496 382 490 373V0H361V351Q361 430 285 430Q265 430 249.5 424.5Q234 419 222 410.5Q210 402 202 392Q194 382 188 373V0H58V380L49 530H164L175 464Q199 498 238 520.5Q277 543 336 543Q389 543 422.5 520Q456 497 473 459Q496 495 536.5 519Q577 543 638 543Q678 543 707 530Q736 517 755 494.5Q774 472 783.5 440Q793 408 793 371V0Z" glyph-name="mdotaccent" horiz-adv-x="844" unicode="&#7745;" /><glyph d="M57 265Q57 322 79 373Q101 424 138.5 461.5Q176 499 227 521Q278 543 335 543Q392 543 443 521Q494 499 531.5 461.5Q569 424 591 373Q613 322 613 265Q613 208 591 157Q569 106 531.5 68.5Q494 31 443 9Q392 -13 335 -13Q278 -13 227 9Q176 31 138.5 68.5Q101 106 79 157Q57 208 57 265Z" glyph-name="mediumblackcircle" horiz-adv-x="670" unicode="&#9899;" /><glyph d="M173 265Q173 231 185.5 201.5Q198 172 220 150Q242 128 271.5 115.5Q301 103 335 103Q369 103 398.5 115.5Q428 128 450 150Q472 172 484.5 201.5Q497 231 497 265Q497 299 484.5 328.5Q472 358 450 380Q428 402 398.5 414.5Q369 427 335 427Q301 427 271.5 414.5Q242 402 220 380Q198 358 185.5 328.5Q173 299 173 265ZM57 265Q57 322 79 373Q101 424 138.5 461.5Q176 499 227 521Q278 543 335 543Q392 543 443 521Q494 499 531.5 461.5Q569 424 591 373Q613 322 613 265Q613 208 591 157Q569 106 531.5 68.5Q494 31 443 9Q392 -13 335 -13Q278 -13 227 9Q176 31 138.5 68.5Q101 106 79 157Q57 208 57 265Z" glyph-name="mediumwhitecircle" horiz-adv-x="670" unicode="&#9898;" /><glyph d="M44 449H556V331H44Z" glyph-name="minus" horiz-adv-x="600" unicode="&#8722;" /><glyph d="M20 39H280V-49H20Z" glyph-name="minus.inf" horiz-adv-x="300" unicode="&#58748;" /><glyph d="M31 205 216 390 31 575 115 659 300 474 485 659 569 575 384 390 569 205 485 121 300 306 115 121Z" glyph-name="multiply" horiz-adv-x="600" unicode="&#215;" /><glyph d="M382 0V342Q382 380 362.5 405Q343 430 298 430Q275 430 257 424Q239 418 225.5 409Q212 400 203 389Q194 378 188 369V0H58V380L49 530H164L176 460Q201 496 243 519.5Q285 543 348 543Q391 543 422 528.5Q453 514 473 489Q493 464 502 431.5Q511 399 511 363V0Z" glyph-name="n" horiz-adv-x="563" unicode="n" /><glyph d="M453 780 350 601H220L311 780ZM382 0V342Q382 380 362.5 405Q343 430 298 430Q275 430 257 424Q239 418 225.5 409Q212 400 203 389Q194 378 188 369V0H58V380L49 530H164L176 460Q201 496 243 519.5Q285 543 348 543Q391 543 422 528.5Q453 514 473 489Q493 464 502 431.5Q511 399 511 363V0Z" glyph-name="nacute" horiz-adv-x="563" unicode="&#324;" /><glyph d="M207 780 285 688 363 780H480L347 601H223L90 780ZM382 0V342Q382 380 362.5 405Q343 430 298 430Q275 430 257 424Q239 418 225.5 409Q212 400 203 389Q194 378 188 369V0H58V380L49 530H164L176 460Q201 496 243 519.5Q285 543 348 543Q391 543 422 528.5Q453 514 473 489Q493 464 502 431.5Q511 399 511 363V0Z" glyph-name="ncaron" horiz-adv-x="563" unicode="&#328;" /><glyph d="M346 -103Q346 -166 313 -194.5Q280 -223 212 -223V-174Q243 -174 264 -165Q285 -156 293 -133H224V-47H346ZM382 0V342Q382 380 362.5 405Q343 430 298 430Q275 430 257 424Q239 418 225.5 409Q212 400 203 389Q194 378 188 369V0H58V380L49 530H164L176 460Q201 496 243 519.5Q285 543 348 543Q391 543 422 528.5Q453 514 473 489Q493 464 502 431.5Q511 399 511 363V0Z" glyph-name="ncommaaccent" horiz-adv-x="563" unicode="&#326;" /><glyph d="M296 405Q335 405 369 424.5Q403 444 423 480Q424 488 424 495Q424 502 424 510V520Q424 596 388 636Q352 676 301 676H295Q242 676 207.5 643Q173 610 173 549V530Q173 466 206 435.5Q239 405 291 405ZM79 106Q164 106 230.5 131Q297 156 343 213Q364 239 378.5 270Q393 301 403 336Q377 315 342 302Q307 289 264 289Q214 289 173 305Q132 321 103 352.5Q74 384 57.5 429.5Q41 475 41 534V544Q41 663 107 728Q173 793 298 793Q358 793 406 773Q454 753 487.5 716.5Q521 680 538.5 627.5Q556 575 556 510V497Q556 404 532 313Q508 222 446 139Q414 96 373 67Q332 38 285 20Q238 2 186 -5.5Q134 -13 79 -13Z" glyph-name="nine" horiz-adv-x="600" unicode="9" /><glyph d="M149 29Q157 29 166.5 33Q176 37 184 47V60Q184 86 175 98.5Q166 111 152 111H149Q137 111 127 101.5Q117 92 117 74V64Q117 44 125.5 36.5Q134 29 147 29ZM37 -120Q82 -119 108.5 -110Q135 -101 152 -81Q158 -73 162.5 -64Q167 -55 171 -44Q160 -49 148 -52.5Q136 -56 122 -56Q74 -56 45.5 -23Q17 10 17 67V72Q17 128 49 162.5Q81 197 150 197Q218 197 251 156Q284 115 284 51V44Q284 -3 272 -49Q260 -95 229 -137Q197 -180 149.5 -194Q102 -208 37 -208Z" glyph-name="nine.inf" horiz-adv-x="300" unicode="&#58746;" /><glyph d="M950 160Q942 160 932.5 156Q923 152 916 142V130Q916 104 925 91.5Q934 79 948 79H951Q963 79 973 88.5Q983 98 983 115V126Q983 146 974.5 153Q966 160 953 160ZM149 619Q157 619 166.5 623Q176 627 184 637V650Q184 676 175 688.5Q166 701 152 701H149Q137 701 127 691.5Q117 682 117 664V654Q117 634 125.5 626.5Q134 619 147 619ZM530 0V86H609V268L561 236L511 307L633 389H709V86H787V0ZM1062 309Q1017 309 990.5 300Q964 291 947 271Q941 263 936 254Q931 245 928 234Q938 239 950.5 242.5Q963 246 977 246Q1026 246 1054.5 213Q1083 180 1083 123V118Q1083 61 1050.5 26.5Q1018 -8 949 -8Q882 -8 849 33.5Q816 75 816 138V146Q816 193 827.5 238.5Q839 284 871 326Q903 370 950 383.5Q997 397 1062 397ZM37 470Q82 471 108.5 480Q135 489 152 509Q163 523 171 546Q150 534 122 534Q74 534 45.5 567Q17 600 17 657V662Q17 718 49 752.5Q81 787 150 787Q218 787 251 746Q284 705 284 641V634Q284 587 272 541Q260 495 229 453Q197 410 149.5 396Q102 382 37 382ZM60 0 636 780H740L164 0Z" glyph-name="ninesixteenths" horiz-adv-x="1100" unicode="&#61977;" /><glyph glyph-name="nonbreakingspace" horiz-adv-x="200" unicode="&#160;" /><glyph d="M44 555H347L410 665H505L442 555H556V437H374L320 343H556V225H253L190 115H95L158 225H44V343H225L279 437H44Z" glyph-name="notequal" horiz-adv-x="600" unicode="&#8800;" /><glyph d="M472 764Q472 689 443 655.5Q414 622 371 622Q347 622 326 630.5Q305 639 286.5 648.5Q268 658 251.5 666.5Q235 675 220 675Q206 675 196.5 666.5Q187 658 187 636H98Q98 711 127 744.5Q156 778 199 778Q223 778 244 769.5Q265 761 283.5 751.5Q302 742 318.5 733.5Q335 725 350 725Q364 725 373.5 733.5Q383 742 383 764ZM382 0V342Q382 380 362.5 405Q343 430 298 430Q275 430 257 424Q239 418 225.5 409Q212 400 203 389Q194 378 188 369V0H58V380L49 530H164L176 460Q201 496 243 519.5Q285 543 348 543Q391 543 422 528.5Q453 514 473 489Q493 464 502 431.5Q511 399 511 363V0Z" glyph-name="ntilde" horiz-adv-x="563" unicode="&#241;" /><glyph d="M235 321H337L364 459H262ZM75 574H169L210 780H325L285 574H387L427 780H543L502 574H574V459H480L453 321H525V206H430L390 0H275L315 206H213L173 0H57L97 206H26V321H120L147 459H75Z" glyph-name="numbersign" horiz-adv-x="600" unicode="#" /><glyph d="M823 572Q823 527 839.5 501.5Q856 476 893 476Q929 476 945.5 501.5Q962 527 962 572V599Q962 644 945.5 669Q929 694 893 694Q856 694 839.5 669Q823 644 823 599ZM718 290H1068V191H718ZM1076 572Q1076 529 1065 493.5Q1054 458 1031.5 432.5Q1009 407 974.5 392.5Q940 378 893 378Q845 378 810.5 392.5Q776 407 753.5 432.5Q731 458 720 493.5Q709 529 709 572V599Q709 642 720 677.5Q731 713 753.5 738.5Q776 764 810.5 778.5Q845 793 893 793Q940 793 974.5 778.5Q1009 764 1031.5 738.5Q1054 713 1065 677.5Q1076 642 1076 599ZM614 0H472L184 538L188 373V0H61V780H203L491 242L487 407V780H614Z" glyph-name="numero" horiz-adv-x="1110" unicode="&#8470;" /><glyph d="M276 101Q333 101 359.5 140.5Q386 180 386 249V281Q386 350 359.5 390Q333 430 276 430Q219 430 192.5 390Q166 350 166 281V249Q166 180 192.5 140.5Q219 101 276 101ZM276 -13Q214 -13 168.5 6.5Q123 26 93.5 61Q64 96 50 144Q36 192 36 249V281Q36 338 50 386Q64 434 93.5 469Q123 504 168.5 523.5Q214 543 276 543Q338 543 383.5 523.5Q429 504 458.5 469Q488 434 502 386Q516 338 516 281V249Q516 192 502 144Q488 96 458.5 61Q429 26 383.5 6.5Q338 -13 276 -13Z" glyph-name="o" horiz-adv-x="553" unicode="o" /><glyph d="M444 780 341 601H211L302 780ZM276 101Q333 101 359.5 140.5Q386 180 386 249V281Q386 350 359.5 390Q333 430 276 430Q219 430 192.5 390Q166 350 166 281V249Q166 180 192.5 140.5Q219 101 276 101ZM276 -13Q214 -13 168.5 6.5Q123 26 93.5 61Q64 96 50 144Q36 192 36 249V281Q36 338 50 386Q64 434 93.5 469Q123 504 168.5 523.5Q214 543 276 543Q338 543 383.5 523.5Q429 504 458.5 469Q488 434 502 386Q516 338 516 281V249Q516 192 502 144Q488 96 458.5 61Q429 26 383.5 6.5Q338 -13 276 -13Z" glyph-name="oacute" horiz-adv-x="553" unicode="&#243;" /><glyph d="M276 589Q226 589 192 603Q158 617 136.5 642.5Q115 668 105.5 703Q96 738 97 780H193Q193 733 215 711Q237 689 276 689Q315 689 337 711Q359 733 359 780H455Q456 738 446.5 703Q437 668 415.5 642.5Q394 617 359.5 603Q325 589 276 589ZM276 101Q333 101 359.5 140.5Q386 180 386 249V281Q386 350 359.5 390Q333 430 276 430Q219 430 192.5 390Q166 350 166 281V249Q166 180 192.5 140.5Q219 101 276 101ZM276 -13Q214 -13 168.5 6.5Q123 26 93.5 61Q64 96 50 144Q36 192 36 249V281Q36 338 50 386Q64 434 93.5 469Q123 504 168.5 523.5Q214 543 276 543Q338 543 383.5 523.5Q429 504 458.5 469Q488 434 502 386Q516 338 516 281V249Q516 192 502 144Q488 96 458.5 61Q429 26 383.5 6.5Q338 -13 276 -13Z" glyph-name="obreve" horiz-adv-x="553" unicode="&#335;" /><glyph d="M81 601 214 780H338L471 601H354L276 693L198 601ZM276 101Q333 101 359.5 140.5Q386 180 386 249V281Q386 350 359.5 390Q333 430 276 430Q219 430 192.5 390Q166 350 166 281V249Q166 180 192.5 140.5Q219 101 276 101ZM276 -13Q214 -13 168.5 6.5Q123 26 93.5 61Q64 96 50 144Q36 192 36 249V281Q36 338 50 386Q64 434 93.5 469Q123 504 168.5 523.5Q214 543 276 543Q338 543 383.5 523.5Q429 504 458.5 469Q488 434 502 386Q516 338 516 281V249Q516 192 502 144Q488 96 458.5 61Q429 26 383.5 6.5Q338 -13 276 -13Z" glyph-name="ocircumflex" horiz-adv-x="553" unicode="&#244;" /><glyph d="M447 622H305V763H447ZM247 622H105V763H247ZM276 101Q333 101 359.5 140.5Q386 180 386 249V281Q386 350 359.5 390Q333 430 276 430Q219 430 192.5 390Q166 350 166 281V249Q166 180 192.5 140.5Q219 101 276 101ZM276 -13Q214 -13 168.5 6.5Q123 26 93.5 61Q64 96 50 144Q36 192 36 249V281Q36 338 50 386Q64 434 93.5 469Q123 504 168.5 523.5Q214 543 276 543Q338 543 383.5 523.5Q429 504 458.5 469Q488 434 502 386Q516 338 516 281V249Q516 192 502 144Q488 96 458.5 61Q429 26 383.5 6.5Q338 -13 276 -13Z" glyph-name="odieresis" horiz-adv-x="553" unicode="&#246;" /><glyph d="M626 442Q573 442 546.5 409Q520 376 516 313H735Q732 376 705.5 409Q679 442 626 442ZM166 249Q166 180 192.5 140.5Q219 101 276 101Q333 101 359.5 140.5Q386 180 386 249V281Q386 350 359.5 390Q333 430 276 430Q219 430 192.5 390Q166 350 166 281ZM516 217Q523 88 635 88Q688 88 715.5 114Q743 140 743 170H866V166Q866 130 851 98Q836 66 807 41Q778 16 734.5 1.5Q691 -13 634 -13Q569 -13 525 9.5Q481 32 453 70Q426 32 382.5 9.5Q339 -13 276 -13Q214 -13 168.5 6.5Q123 26 93.5 61Q64 96 50 144Q36 192 36 249V281Q36 338 50 386Q64 434 93.5 469Q123 504 168.5 523.5Q214 543 276 543Q339 543 382.5 520.5Q426 498 453 460Q480 498 523 520.5Q566 543 629 543Q690 543 734.5 523Q779 503 808.5 467.5Q838 432 852 383.5Q866 335 866 278V217Z" glyph-name="oe" horiz-adv-x="902" unicode="&#339;" /><glyph d="M221 -79Q221 -97 233 -108.5Q245 -120 268 -120Q284 -120 296 -116.5Q308 -113 316 -108L347 -190Q331 -200 304 -207Q277 -214 248 -214Q191 -214 156 -188.5Q121 -163 121 -109Q121 -76 133.5 -49Q146 -22 166.5 -1Q187 20 212.5 35Q238 50 265 59L289 0Q258 -14 239.5 -33Q221 -52 221 -79Z" glyph-name="ogonek" horiz-adv-x="602" unicode="&#731;" /><glyph d="M250 780 341 601H211L108 780ZM276 101Q333 101 359.5 140.5Q386 180 386 249V281Q386 350 359.5 390Q333 430 276 430Q219 430 192.5 390Q166 350 166 281V249Q166 180 192.5 140.5Q219 101 276 101ZM276 -13Q214 -13 168.5 6.5Q123 26 93.5 61Q64 96 50 144Q36 192 36 249V281Q36 338 50 386Q64 434 93.5 469Q123 504 168.5 523.5Q214 543 276 543Q338 543 383.5 523.5Q429 504 458.5 469Q488 434 502 386Q516 338 516 281V249Q516 192 502 144Q488 96 458.5 61Q429 26 383.5 6.5Q338 -13 276 -13Z" glyph-name="ograve" horiz-adv-x="553" unicode="&#242;" /><glyph d="M339 780 254 601H149L222 780ZM505 780 402 601H297L388 780ZM276 101Q333 101 359.5 140.5Q386 180 386 249V281Q386 350 359.5 390Q333 430 276 430Q219 430 192.5 390Q166 350 166 281V249Q166 180 192.5 140.5Q219 101 276 101ZM276 -13Q214 -13 168.5 6.5Q123 26 93.5 61Q64 96 50 144Q36 192 36 249V281Q36 338 50 386Q64 434 93.5 469Q123 504 168.5 523.5Q214 543 276 543Q338 543 383.5 523.5Q429 504 458.5 469Q488 434 502 386Q516 338 516 281V249Q516 192 502 144Q488 96 458.5 61Q429 26 383.5 6.5Q338 -13 276 -13Z" glyph-name="ohungarumlaut" horiz-adv-x="553" unicode="&#337;" /><glyph d="M137 748H415V633H137ZM276 101Q333 101 359.5 140.5Q386 180 386 249V281Q386 350 359.5 390Q333 430 276 430Q219 430 192.5 390Q166 350 166 281V249Q166 180 192.5 140.5Q219 101 276 101ZM276 -13Q214 -13 168.5 6.5Q123 26 93.5 61Q64 96 50 144Q36 192 36 249V281Q36 338 50 386Q64 434 93.5 469Q123 504 168.5 523.5Q214 543 276 543Q338 543 383.5 523.5Q429 504 458.5 469Q488 434 502 386Q516 338 516 281V249Q516 192 502 144Q488 96 458.5 61Q429 26 383.5 6.5Q338 -13 276 -13Z" glyph-name="omacron" horiz-adv-x="553" unicode="&#333;" /><glyph d="M62 0V117H244V615L102 519L37 616L280 782H376V117H558V0Z" glyph-name="one" horiz-adv-x="600" unicode="1" /><glyph d="M30 -200V-114H109V68L61 36L11 107L133 189H209V-114H287V-200Z" glyph-name="one.inf" horiz-adv-x="300" unicode="&#58738;" /><glyph d="M30 390V476H109V658L61 626L11 697L133 779H209V476H287V390ZM781 0H519V63L661 222Q670 232 675.5 240.5Q681 249 681 263V268Q681 291 672.5 300.5Q664 310 652 310H647Q636 310 627.5 299.5Q619 289 619 260H519V269Q519 397 650 397Q688 397 713.5 386.5Q739 376 754 359.5Q769 343 775 323.5Q781 304 781 287V276Q781 240 769.5 219Q758 198 738 175L657 86H781ZM60 0 636 780H740L164 0Z" glyph-name="onehalf" horiz-adv-x="800" unicode="&#189;" /><glyph d="M613 162 631 164H655V214L656 232ZM30 390V476H109V658L61 626L11 697L133 779H209V476H287V390ZM655 0V76H512V147L661 390H755V164H787V76H755V0ZM60 0 636 780H740L164 0Z" glyph-name="onequarter" horiz-adv-x="800" unicode="&#188;" /><glyph d="M950 160Q942 160 932.5 156Q923 152 916 142V130Q916 104 925 91.5Q934 79 948 79H951Q963 79 973 88.5Q983 98 983 115V126Q983 146 974.5 153Q966 160 953 160ZM530 0V86H609V268L561 236L511 307L633 389H709V86H787V0ZM30 390V476H109V658L61 626L11 697L133 779H209V476H287V390ZM1062 309Q1017 309 990.5 300Q964 291 947 271Q941 263 936 254Q931 245 928 234Q938 239 950.5 242.5Q963 246 977 246Q1026 246 1054.5 213Q1083 180 1083 123V118Q1083 61 1050.5 26.5Q1018 -8 949 -8Q882 -8 849 33.5Q816 75 816 138V146Q816 193 827.5 238.5Q839 284 871 326Q903 370 950 383.5Q997 397 1062 397ZM60 0 636 780H740L164 0Z" glyph-name="onesixteenth" horiz-adv-x="1100" unicode="&#61973;" /><glyph d="M30 390V476H109V658L61 626L11 697L133 779H209V476H287V390Z" glyph-name="onesuperior" horiz-adv-x="300" unicode="&#185;" /><glyph d="M40 293V407H293V293Z" glyph-name="onethirdemdash" horiz-adv-x="333" unicode="&#58481;" /><glyph d="M43 333V447H293V333Z" glyph-name="onethirdemdash.cap" horiz-adv-x="333" unicode="&#58499;" /><glyph d="M193 470Q219 470 237.5 480.5Q256 491 266 502V577L195 566Q145 557 145 517V512Q145 495 156 482.5Q167 470 193 470ZM42 191V290H385V191ZM277 431Q257 408 226.5 393Q196 378 153 378Q120 378 97 387.5Q74 397 59 413Q44 429 37.5 450.5Q31 472 31 496V503Q31 535 41.5 557Q52 579 71 593.5Q90 608 116 616.5Q142 625 173 630L266 644Q265 676 253.5 691Q242 706 210 706Q176 706 165 689.5Q154 673 154 652H46V659Q46 684 54 708.5Q62 733 81 751.5Q100 770 132.5 781.5Q165 793 213 793Q261 793 293 783Q325 773 344.5 753.5Q364 734 372 706Q380 678 380 642V499L387 387H285Z" glyph-name="ordfeminine" horiz-adv-x="416" unicode="&#170;" /><glyph d="M148 572Q148 527 164.5 501.5Q181 476 218 476Q254 476 270.5 501.5Q287 527 287 572V599Q287 644 270.5 669Q254 694 218 694Q181 694 164.5 669Q148 644 148 599ZM43 290H393V191H43ZM401 572Q401 529 390 493.5Q379 458 356.5 432.5Q334 407 299.5 392.5Q265 378 218 378Q170 378 135.5 392.5Q101 407 78.5 432.5Q56 458 45 493.5Q34 529 34 572V599Q34 642 45 677.5Q56 713 78.5 738.5Q101 764 135.5 778.5Q170 793 218 793Q265 793 299.5 778.5Q334 764 356.5 738.5Q379 713 390 677.5Q401 642 401 599Z" glyph-name="ordmasculine" horiz-adv-x="435" unicode="&#186;" /><glyph d="M386 281Q386 320 377 350L205 126Q232 101 276 101Q333 101 359.5 140.5Q386 180 386 249ZM166 249Q166 212 174 180L347 404Q319 430 276 430Q219 430 192.5 390Q166 350 166 281ZM464 462Q490 427 503 381Q516 335 516 281V249Q516 192 502 144Q488 96 458.5 61Q429 26 383.5 6.5Q338 -13 276 -13Q185 -13 129 28L108 0H36L88 68Q62 103 49 149Q36 195 36 249V281Q36 338 50 386Q64 434 93.5 469Q123 504 168.5 523.5Q214 543 276 543Q322 543 358 532.5Q394 522 422 502L444 530H516Z" glyph-name="oslash" horiz-adv-x="553" unicode="&#248;" /><glyph d="M463 764Q463 689 434 655.5Q405 622 362 622Q338 622 317 630.5Q296 639 277.5 648.5Q259 658 242.5 666.5Q226 675 211 675Q197 675 187.5 666.5Q178 658 178 636H89Q89 711 118 744.5Q147 778 190 778Q214 778 235 769.5Q256 761 274.5 751.5Q293 742 309.5 733.5Q326 725 341 725Q355 725 364.5 733.5Q374 742 374 764ZM276 101Q333 101 359.5 140.5Q386 180 386 249V281Q386 350 359.5 390Q333 430 276 430Q219 430 192.5 390Q166 350 166 281V249Q166 180 192.5 140.5Q219 101 276 101ZM276 -13Q214 -13 168.5 6.5Q123 26 93.5 61Q64 96 50 144Q36 192 36 249V281Q36 338 50 386Q64 434 93.5 469Q123 504 168.5 523.5Q214 543 276 543Q338 543 383.5 523.5Q429 504 458.5 469Q488 434 502 386Q516 338 516 281V249Q516 192 502 144Q488 96 458.5 61Q429 26 383.5 6.5Q338 -13 276 -13Z" glyph-name="otilde" horiz-adv-x="553" unicode="&#245;" /><glyph d="M187 161Q193 152 202.5 141.5Q212 131 224.5 122Q237 113 253.5 107Q270 101 291 101Q347 101 371.5 140Q396 179 396 249V281Q396 351 371.5 390.5Q347 430 291 430Q270 430 253.5 424Q237 418 224.5 409Q212 400 202.5 389Q193 378 187 369ZM328 -13Q278 -13 244 4Q210 21 187 49V-200H57V380L49 530H164L175 464Q197 498 234 520.5Q271 543 328 543Q382 543 420 523.5Q458 504 481.5 469Q505 434 515.5 386Q526 338 526 281V249Q526 192 515.5 144Q505 96 481.5 61Q458 26 420 6.5Q382 -13 328 -13Z" glyph-name="p" horiz-adv-x="563" unicode="p" /><glyph d="M163 530Q163 502 169 482Q175 462 185 448.5Q195 435 208 426.5Q221 418 236 414V656Q207 648 185 622Q163 596 163 541ZM236 293Q196 297 158.5 310Q121 323 91.5 349.5Q62 376 44.5 419Q27 462 27 526V546Q27 620 50.5 666Q74 712 111.5 737.5Q149 763 195.5 771.5Q242 780 288 780H480V0H346V663H300V0H236Z" glyph-name="paragraph" horiz-adv-x="538" unicode="&#182;" /><glyph d="M42 370Q42 457 53.5 524.5Q65 592 85 647.5Q105 703 132 749.5Q159 796 190 840H326Q294 792 266 742Q238 692 217.5 635Q197 578 185 513Q173 448 173 370V350Q173 272 185 207Q197 142 217.5 85Q238 28 266 -22Q294 -72 326 -120H190Q159 -76 132 -29.5Q105 17 85 72.5Q65 128 53.5 195.5Q42 263 42 350Z" glyph-name="parenleft" horiz-adv-x="350" unicode="(" /><glyph d="M49 400Q49 463 58.5 518.5Q68 574 84.5 621.5Q101 669 123 708.5Q145 748 170 780H306Q283 747 260.5 705.5Q238 664 220 615.5Q202 567 191 512.5Q180 458 180 400V380Q180 321 191 267Q202 213 220 164.5Q238 116 260.5 74.5Q283 33 306 0H170Q145 32 123 71.5Q101 111 84.5 158.5Q68 206 58.5 261.5Q49 317 49 380Z" glyph-name="parenleft.cap" horiz-adv-x="350" unicode="&#58513;" /><glyph d="M18 0Q18 69 36 115.5Q54 162 78 190H180Q170 175 159 155.5Q148 136 138.5 111.5Q129 87 123 59Q117 31 117 0V-10Q117 -41 123 -69Q129 -97 138.5 -121.5Q148 -146 159 -165.5Q170 -185 180 -200H78Q54 -173 36 -126Q18 -79 18 -10Z" glyph-name="parenleft.inf" horiz-adv-x="194" unicode="&#58750;" /><glyph d="M308 350Q308 263 296.5 195.5Q285 128 265 72.5Q245 17 218 -29.5Q191 -76 160 -120H24Q56 -72 84 -22Q112 28 132.5 85Q153 142 165 207Q177 272 177 350V370Q177 448 165 513Q153 578 132.5 635Q112 692 84 742Q56 792 24 840H160Q191 796 218 749.5Q245 703 265 647.5Q285 592 296.5 524.5Q308 457 308 370Z" glyph-name="parenright" horiz-adv-x="350" unicode=")" /><glyph d="M301 380Q301 317 291.5 261.5Q282 206 265.5 158.5Q249 111 227 71.5Q205 32 180 0H44Q67 33 89.5 74.5Q112 116 130 164.5Q148 213 159 267Q170 321 170 380V400Q170 458 159 512.5Q148 567 130 615.5Q112 664 89.5 705.5Q67 747 44 780H180Q205 748 227 708.5Q249 669 265.5 621.5Q282 574 291.5 518.5Q301 463 301 400Z" glyph-name="parenright.cap" horiz-adv-x="350" unicode="&#58514;" /><glyph d="M174 -10Q174 -79 156.5 -126Q139 -173 115 -200H13Q23 -185 34 -165.5Q45 -146 54 -121.5Q63 -97 69 -69Q75 -41 75 -10V0Q75 31 69 59Q63 87 54 111.5Q45 136 34 155.5Q23 175 13 190H115Q139 162 156.5 115.5Q174 69 174 0Z" glyph-name="parenright.inf" horiz-adv-x="194" unicode="&#58751;" /><glyph d="M361 622H219V763H361ZM187 161Q193 152 202.5 141.5Q212 131 224.5 122Q237 113 253.5 107Q270 101 291 101Q347 101 371.5 140Q396 179 396 249V281Q396 351 371.5 390.5Q347 430 291 430Q270 430 253.5 424Q237 418 224.5 409Q212 400 202.5 389Q193 378 187 369ZM328 -13Q278 -13 244 4Q210 21 187 49V-200H57V380L49 530H164L175 464Q197 498 234 520.5Q271 543 328 543Q382 543 420 523.5Q458 504 481.5 469Q505 434 515.5 386Q526 338 526 281V249Q526 192 515.5 144Q505 96 481.5 61Q458 26 420 6.5Q382 -13 328 -13Z" glyph-name="pdotaccent" horiz-adv-x="563" unicode="&#7767;" /><glyph d="M297 611Q297 649 274 671Q251 693 216 693H210Q175 693 152.5 671Q130 649 130 611V597Q130 559 152.5 536.5Q175 514 210 514H216Q251 514 274 536.5Q297 559 297 597ZM666 169Q666 131 688.5 109Q711 87 746 87H752Q787 87 810 109Q833 131 833 169V183Q833 221 810 243.5Q787 266 752 266H746Q711 266 688.5 243.5Q666 221 666 183ZM567 182Q567 227 581 261Q595 295 619 318Q643 341 676.5 353Q710 365 749 365Q788 365 821.5 353Q855 341 879.5 318Q904 295 918 261Q932 227 932 182V171Q932 126 918 91.5Q904 57 879.5 34Q855 11 821.5 -1Q788 -13 749 -13Q710 -13 676.5 -1Q643 11 619 34Q595 57 581 91.5Q567 126 567 171ZM261 0 533 655Q525 653 502.5 649Q480 645 449 645Q434 645 420 646Q406 647 393 649Q396 629 396 609V598Q396 553 382 519Q368 485 343.5 462Q319 439 285.5 427Q252 415 213 415Q174 415 140.5 427Q107 439 83 462Q59 485 45 519Q31 553 31 598V609Q31 654 45 688.5Q59 723 83 746Q107 769 140.5 781Q174 793 213 793Q259 793 299 776Q338 762 377.5 756.5Q417 751 471 751Q502 751 533.5 754.5Q565 758 593 762.5Q621 767 642.5 772.5Q664 778 675 783V716L377 0Z" glyph-name="percent" horiz-adv-x="963" unicode="%" /><glyph d="M196 0H54V141H196Z" glyph-name="period" horiz-adv-x="250" unicode="." /><glyph d="M221 0H79V141H221Z" glyph-name="period.T" horiz-adv-x="300" unicode="&#61826;" /><glyph d="M196 279H54V421H196Z" glyph-name="periodcentered" horiz-adv-x="250" unicode="&#183;" /><glyph d="M196 319H54V461H196Z" glyph-name="periodcentered.cap" horiz-adv-x="250" unicode="&#58497;" /><glyph d="M297 611Q297 649 274 671Q251 693 216 693H210Q175 693 152.5 671Q130 649 130 611V597Q130 559 152.5 536.5Q175 514 210 514H216Q251 514 274 536.5Q297 559 297 597ZM1066 169Q1066 131 1088.5 109Q1111 87 1146 87H1152Q1187 87 1210 109Q1233 131 1233 169V183Q1233 221 1210 243.5Q1187 266 1152 266H1146Q1111 266 1088.5 243.5Q1066 221 1066 183ZM666 169Q666 131 688.5 109Q711 87 746 87H752Q787 87 810 109Q833 131 833 169V183Q833 221 810 243.5Q787 266 752 266H746Q711 266 688.5 243.5Q666 221 666 183ZM967 182Q967 227 981 261Q995 295 1019 318Q1043 341 1076.5 353Q1110 365 1149 365Q1188 365 1221.5 353Q1255 341 1279.5 318Q1304 295 1318 261Q1332 227 1332 182V171Q1332 126 1318 91.5Q1304 57 1279.5 34Q1255 11 1221.5 -1Q1188 -13 1149 -13Q1110 -13 1076.5 -1Q1043 11 1019 34Q995 57 981 91.5Q967 126 967 171ZM567 182Q567 227 581 261Q595 295 619 318Q643 341 676.5 353Q710 365 749 365Q788 365 821.5 353Q855 341 879.5 318Q904 295 918 261Q932 227 932 182V171Q932 126 918 91.5Q904 57 879.5 34Q855 11 821.5 -1Q788 -13 749 -13Q710 -13 676.5 -1Q643 11 619 34Q595 57 581 91.5Q567 126 567 171ZM261 0 533 655Q525 653 502.5 649Q480 645 449 645Q434 645 420 646Q406 647 393 649Q396 629 396 609V598Q396 553 382 519Q368 485 343.5 462Q319 439 285.5 427Q252 415 213 415Q174 415 140.5 427Q107 439 83 462Q59 485 45 519Q31 553 31 598V609Q31 654 45 688.5Q59 723 83 746Q107 769 140.5 781Q174 793 213 793Q259 793 299 776Q338 762 377.5 756.5Q417 751 471 751Q502 751 533.5 754.5Q565 758 593 762.5Q621 767 642.5 772.5Q664 778 675 783V716L377 0Z" glyph-name="perthousand" horiz-adv-x="1363" unicode="&#8240;" /><glyph d="M359 646V449H556V331H359V134H241V331H44V449H241V646Z" glyph-name="plus" horiz-adv-x="600" unicode="+" /><glyph d="M194 125V39H280V-49H194V-135H106V-49H20V39H106V125Z" glyph-name="plus.inf" horiz-adv-x="300" unicode="&#58747;" /><glyph d="M44 261H556V144H44ZM359 665V548H556V430H359V313H241V430H44V548H241V665Z" glyph-name="plusminus" horiz-adv-x="600" unicode="&#177;" /><glyph d="M482 406Q493 406 504.5 408.5Q516 411 525.5 418Q535 425 541 437Q547 449 547 468V475Q547 494 541 506Q535 518 525.5 525Q516 532 504.5 534.5Q493 537 482 537H400V406ZM400 155H282V625H506Q534 625 562.5 618.5Q591 612 613.5 595.5Q636 579 650.5 550.5Q665 522 665 477V466Q665 421 650.5 392Q636 363 613.5 346.5Q591 330 562.5 324Q534 318 506 318H400ZM109 390Q109 317 136.5 253Q164 189 211.5 141.5Q259 94 323 66.5Q387 39 460 39Q533 39 597 66.5Q661 94 708.5 141.5Q756 189 783.5 253Q811 317 811 390Q811 463 783.5 527Q756 591 708.5 638.5Q661 686 597 713.5Q533 741 460 741Q387 741 323 713.5Q259 686 211.5 638.5Q164 591 136.5 527Q109 463 109 390ZM57 390Q57 473 88.5 546.5Q120 620 175 674.5Q230 729 303.5 761Q377 793 460 793Q543 793 616.5 761Q690 729 744.5 674.5Q799 620 831 546.5Q863 473 863 390Q863 307 831 233.5Q799 160 744.5 105Q690 50 616.5 18.5Q543 -13 460 -13Q377 -13 303.5 18.5Q230 50 175 105Q120 160 88.5 233.5Q57 307 57 390Z" glyph-name="published" horiz-adv-x="920" unicode="&#8471;" /><glyph glyph-name="punctuationspace" horiz-adv-x="180" unicode="&#8200;" /><glyph d="M378 369Q372 378 362.5 389Q353 400 340.5 409Q328 418 311 424Q294 430 273 430Q218 430 193 390.5Q168 351 168 281V249Q168 179 193 140Q218 101 273 101Q294 101 311 107Q328 113 340.5 122Q353 131 362.5 141.5Q372 152 378 161ZM378 50Q355 22 321 4.5Q287 -13 237 -13Q183 -13 145 6.5Q107 26 83 61Q59 96 48.5 144Q38 192 38 249V281Q38 338 48.5 386Q59 434 83 469Q107 504 145 523.5Q183 543 237 543Q294 543 331 520.5Q368 498 390 463L401 530H516L508 380V-200H378Z" glyph-name="q" horiz-adv-x="568" unicode="q" /><glyph d="M310 0H168V141H310ZM246 677Q193 677 173.5 636Q154 595 154 513H23V528Q23 589 34 638.5Q45 688 71 722Q97 756 140 774.5Q183 793 246 793Q308 793 349.5 776.5Q391 760 416.5 731.5Q442 703 452.5 666Q463 629 463 589Q463 539 450.5 505.5Q438 472 419.5 446.5Q401 421 378.5 399.5Q356 378 336 353.5Q316 329 301.5 296.5Q287 264 284 216H194Q191 264 199.5 302.5Q208 341 223.5 372.5Q239 404 257.5 430Q276 456 292 480.5Q308 505 319 528.5Q330 552 330 578Q330 624 312.5 650.5Q295 677 246 677Z" glyph-name="question" horiz-adv-x="484" unicode="?" /><glyph d="M174 530H316V389H174ZM238 -97Q291 -97 310 -58.5Q329 -20 329 60H461V44Q461 -16 450 -63.5Q439 -111 413 -144Q387 -177 344 -195Q301 -213 238 -213Q178 -213 136.5 -197.5Q95 -182 69.5 -156.5Q44 -131 32.5 -97Q21 -63 21 -27Q21 22 33.5 55Q46 88 65 112.5Q84 137 106.5 156.5Q129 176 149 197.5Q169 219 183 246.5Q197 274 200 314H290Q293 274 284 241Q275 208 260 179.5Q245 151 226.5 126Q208 101 192 78Q176 55 165 32Q154 9 154 -16Q154 -54 173 -75.5Q192 -97 238 -97Z" glyph-name="questiondown" horiz-adv-x="484" unicode="&#191;" /><glyph d="M174 780H316V639H174ZM238 103Q291 103 310 144Q329 185 329 267H461V252Q461 190 450 141Q439 92 413 58Q387 24 344 5.5Q301 -13 238 -13Q176 -13 134.5 3.5Q93 20 67.5 48.5Q42 77 31.5 113.5Q21 150 21 191Q21 241 33.5 274.5Q46 308 64.5 333.5Q83 359 105.5 380.5Q128 402 148 426.5Q168 451 182.5 483.5Q197 516 200 564H290Q293 516 284.5 477.5Q276 439 260.5 407.5Q245 376 226.5 350Q208 324 192 299.5Q176 275 165 251.5Q154 228 154 202Q154 156 171.5 129.5Q189 103 238 103Z" glyph-name="questiondown.cap" horiz-adv-x="484" unicode="&#58436;" /><glyph d="M359 780 337 474H238L229 780ZM184 780 175 474H75L54 780Z" glyph-name="quotedbl" horiz-adv-x="413" unicode="&quot;" /><glyph d="M391 30Q391 -135 238 -135V-67Q309 -67 321 0H250V141H391ZM196 30Q196 -135 43 -135V-67Q114 -67 126 0H54V141H196Z" glyph-name="quotedblbase" horiz-adv-x="445" unicode="&#8222;" /><glyph d="M238 638Q238 803 391 803V735Q318 735 308 667H380V526H238ZM43 638Q43 803 196 803V735Q123 735 113 667H185V526H43Z" glyph-name="quotedblleft" horiz-adv-x="445" unicode="&#8220;" /><glyph d="M391 668Q391 503 238 503V571Q309 571 321 639H250V780H391ZM196 668Q196 503 43 503V571Q114 571 126 639H54V780H196Z" glyph-name="quotedblright" horiz-adv-x="445" unicode="&#8221;" /><glyph d="M43 638Q43 803 196 803V735Q123 735 113 667H185V526H43Z" glyph-name="quoteleft" horiz-adv-x="250" unicode="&#8216;" /><glyph d="M196 668Q196 503 43 503V571Q114 571 126 639H54V780H196Z" glyph-name="quoteright" horiz-adv-x="250" unicode="&#8217;" /><glyph d="M196 30Q196 -135 43 -135V-67Q114 -67 126 0H54V141H196Z" glyph-name="quotesinglbase" horiz-adv-x="250" unicode="&#8218;" /><glyph d="M196 780 175 474H75L54 780Z" glyph-name="quotesingle" horiz-adv-x="250" unicode="&apos;" /><glyph d="M318 543Q323 543 327 542.5Q331 542 333 542V416H311Q285 416 264.5 410.5Q244 405 229 397Q214 389 204 379Q194 369 188 360V0H58V380L49 530H164L175 466Q198 499 233.5 521Q269 543 318 543Z" glyph-name="r" horiz-adv-x="368" unicode="r" /><glyph d="M363 780 260 601H130L221 780ZM318 543Q323 543 327 542.5Q331 542 333 542V416H311Q285 416 264.5 410.5Q244 405 229 397Q214 389 204 379Q194 369 188 360V0H58V380L49 530H164L175 466Q198 499 233.5 521Q269 543 318 543Z" glyph-name="racute" horiz-adv-x="368" unicode="&#341;" /><glyph d="M117 780 195 688 273 780H390L257 601H133L0 780ZM318 543Q323 543 327 542.5Q331 542 333 542V416H311Q285 416 264.5 410.5Q244 405 229 397Q214 389 204 379Q194 369 188 360V0H58V380L49 530H164L175 466Q198 499 233.5 521Q269 543 318 543Z" glyph-name="rcaron" horiz-adv-x="368" unicode="&#345;" /><glyph d="M183 -103Q183 -166 150 -194.5Q117 -223 49 -223V-174Q80 -174 101 -165Q122 -156 130 -133H61V-47H183ZM318 543Q323 543 327 542.5Q331 542 333 542V416H311Q285 416 264.5 410.5Q244 405 229 397Q214 389 204 379Q194 369 188 360V0H58V380L49 530H164L175 466Q198 499 233.5 521Q269 543 318 543Z" glyph-name="rcommaaccent" horiz-adv-x="368" unicode="&#343;" /><glyph d="M189 694Q189 714 167 714H141V672H167Q189 672 189 692ZM238 690Q238 670 230 658Q222 646 209 640L238 579H187L164 635H141V579H92V751H178Q201 751 219.5 739Q238 727 238 696ZM41 665Q41 639 51 616.5Q61 594 77.5 577.5Q94 561 116.5 551Q139 541 165 541Q190 541 213 551Q236 561 252.5 577.5Q269 594 279 616.5Q289 639 289 665Q289 690 279 713Q269 736 252.5 752.5Q236 769 213 779Q190 789 165 789Q139 789 116.5 779Q94 769 77.5 752.5Q61 736 51 713Q41 690 41 665ZM17 665Q17 695 28.5 722Q40 749 60.5 769.5Q81 790 108 801.5Q135 813 165 813Q195 813 222 801.5Q249 790 269.5 769.5Q290 749 301.5 722Q313 695 313 665Q313 635 301.5 608Q290 581 269.5 560.5Q249 540 222 528.5Q195 517 165 517Q135 517 108 528.5Q81 540 60.5 560.5Q40 581 28.5 608Q17 635 17 665Z" glyph-name="registered" horiz-adv-x="330" unicode="&#174;" /><glyph d="M469 406Q481 406 492.5 408.5Q504 411 513 418Q522 425 528 437Q534 449 534 468V475Q534 494 528 506Q522 518 513 525Q504 532 492.5 534.5Q481 537 469 537H387V406ZM387 155H270V625H494Q522 625 550.5 618.5Q579 612 601.5 595.5Q624 579 638 550.5Q652 522 652 477V466Q652 411 631.5 380Q611 349 580 335L652 155H528L475 318H387ZM109 390Q109 317 136.5 253Q164 189 211.5 141.5Q259 94 323 66.5Q387 39 460 39Q533 39 597 66.5Q661 94 708.5 141.5Q756 189 783.5 253Q811 317 811 390Q811 463 783.5 527Q756 591 708.5 638.5Q661 686 597 713.5Q533 741 460 741Q387 741 323 713.5Q259 686 211.5 638.5Q164 591 136.5 527Q109 463 109 390ZM57 390Q57 473 88.5 546.5Q120 620 175 674.5Q230 729 303.5 761Q377 793 460 793Q543 793 616.5 761Q690 729 744.5 674.5Q799 620 831 546.5Q863 473 863 390Q863 307 831 233.5Q799 160 744.5 105Q690 50 616.5 18.5Q543 -13 460 -13Q377 -13 303.5 18.5Q230 50 175 105Q120 160 88.5 233.5Q57 307 57 390Z" glyph-name="registered.cap" horiz-adv-x="920" unicode="&#59804;" /><glyph d="M185 780V639H113Q123 571 196 571V503Q43 503 43 668V780ZM380 780V639H308Q318 571 391 571V503Q238 503 238 668V780Z" glyph-name="reversequotedblleft" horiz-adv-x="445" unicode="&#8223;" /><glyph d="M185 780V639H113Q123 571 196 571V503Q43 503 43 668V780Z" glyph-name="reversequoteleft" horiz-adv-x="250" unicode="&#8219;" /><glyph d="M198 691Q198 669 213 653.5Q228 638 250 638Q272 638 287 653.5Q302 669 302 691Q302 712 287 727.5Q272 743 250 743Q228 743 213 727.5Q198 712 198 691ZM148 691Q148 712 156 730.5Q164 749 178 763Q192 777 210.5 785Q229 793 250 793Q271 793 289.5 785Q308 777 322 763Q336 749 344 730.5Q352 712 352 691Q352 670 344 651Q336 632 322 618.5Q308 605 289.5 597Q271 589 250 589Q229 589 210.5 597Q192 605 178 618.5Q164 632 156 651Q148 670 148 691Z" glyph-name="ring" horiz-adv-x="500" unicode="&#730;" /><glyph d="M198 861Q198 839 213 823.5Q228 808 250 808Q272 808 287 823.5Q302 839 302 861Q302 882 287 897.5Q272 913 250 913Q228 913 213 897.5Q198 882 198 861ZM148 861Q148 882 156 900.5Q164 919 178 933Q192 947 210.5 955Q229 963 250 963Q271 963 289.5 955Q308 947 322 933Q336 919 344 900.5Q352 882 352 861Q352 840 344 821Q336 802 322 788.5Q308 775 289.5 767Q271 759 250 759Q229 759 210.5 767Q192 775 178 788.5Q164 802 156 821Q148 840 148 861Z" glyph-name="ring.cap" horiz-adv-x="500" unicode="&#58410;" /><glyph d="M306 408Q325 408 346.5 412.5Q368 417 386 430.5Q404 444 415.5 467.5Q427 491 427 530V541Q427 580 415.5 603.5Q404 627 386 640.5Q368 654 346.5 658.5Q325 663 306 663H229V408ZM229 246H422V129H229V0H95V129H19V246H95V291H19V408H95V780H301Q347 780 394 771.5Q441 763 478.5 737.5Q516 712 539.5 666Q563 620 563 546V526Q563 451 539.5 405Q516 359 478.5 333.5Q441 308 394 299.5Q347 291 301 291H229Z" glyph-name="ruble" horiz-adv-x="600" unicode="&#8381;" /><glyph d="M263 88Q310 88 332 106.5Q354 125 354 154Q354 188 331.5 202.5Q309 217 253 222Q198 226 159 236.5Q120 247 95.5 264.5Q71 282 60 307.5Q49 333 49 368V376Q49 418 65 449.5Q81 481 109.5 502Q138 523 177 533Q216 543 263 543Q320 543 360.5 530Q401 517 427.5 493.5Q454 470 466 436.5Q478 403 478 362V357H351Q351 397 331 419.5Q311 442 263 442Q221 442 199 425Q177 408 177 379Q177 364 181 353Q185 342 196 334.5Q207 327 226 322Q245 317 274 315Q324 311 363 302Q402 293 429 276.5Q456 260 470 233Q484 206 484 166V159Q484 80 428.5 33.5Q373 -13 263 -13Q206 -13 164 1Q122 15 95 38.5Q68 62 55 94Q42 126 42 162V166H171Q171 150 175.5 135.5Q180 121 190.5 110.5Q201 100 219 94Q237 88 263 88Z" glyph-name="s" horiz-adv-x="526" unicode="s" /><glyph d="M431 780 328 601H198L289 780ZM263 88Q310 88 332 106.5Q354 125 354 154Q354 188 331.5 202.5Q309 217 253 222Q198 226 159 236.5Q120 247 95.5 264.5Q71 282 60 307.5Q49 333 49 368V376Q49 418 65 449.5Q81 481 109.5 502Q138 523 177 533Q216 543 263 543Q320 543 360.5 530Q401 517 427.5 493.5Q454 470 466 436.5Q478 403 478 362V357H351Q351 397 331 419.5Q311 442 263 442Q221 442 199 425Q177 408 177 379Q177 364 181 353Q185 342 196 334.5Q207 327 226 322Q245 317 274 315Q324 311 363 302Q402 293 429 276.5Q456 260 470 233Q484 206 484 166V159Q484 80 428.5 33.5Q373 -13 263 -13Q206 -13 164 1Q122 15 95 38.5Q68 62 55 94Q42 126 42 162V166H171Q171 150 175.5 135.5Q180 121 190.5 110.5Q201 100 219 94Q237 88 263 88Z" glyph-name="sacute" horiz-adv-x="526" unicode="&#347;" /><glyph d="M185 780 263 688 341 780H458L325 601H201L68 780ZM263 88Q310 88 332 106.5Q354 125 354 154Q354 188 331.5 202.5Q309 217 253 222Q198 226 159 236.5Q120 247 95.5 264.5Q71 282 60 307.5Q49 333 49 368V376Q49 418 65 449.5Q81 481 109.5 502Q138 523 177 533Q216 543 263 543Q320 543 360.5 530Q401 517 427.5 493.5Q454 470 466 436.5Q478 403 478 362V357H351Q351 397 331 419.5Q311 442 263 442Q221 442 199 425Q177 408 177 379Q177 364 181 353Q185 342 196 334.5Q207 327 226 322Q245 317 274 315Q324 311 363 302Q402 293 429 276.5Q456 260 470 233Q484 206 484 166V159Q484 80 428.5 33.5Q373 -13 263 -13Q206 -13 164 1Q122 15 95 38.5Q68 62 55 94Q42 126 42 162V166H171Q171 150 175.5 135.5Q180 121 190.5 110.5Q201 100 219 94Q237 88 263 88Z" glyph-name="scaron" horiz-adv-x="526" unicode="&#353;" /><glyph d="M183 -131Q196 -139 215 -143Q234 -147 254 -147Q281 -147 293 -141Q305 -135 305 -122Q305 -97 252 -97Q245 -97 239.5 -97.5Q234 -98 229 -99Q224 -100 218 -101L201 -75L225 -11Q178 -7 143.5 8.5Q109 24 86.5 47Q64 70 53 99.5Q42 129 42 162V166H171Q171 150 175.5 135.5Q180 121 190.5 110.5Q201 100 219 94Q237 88 263 88Q310 88 332 106.5Q354 125 354 154Q354 188 331.5 202.5Q309 217 253 222Q198 226 159 236.5Q120 247 95.5 264.5Q71 282 60 307.5Q49 333 49 368V376Q49 418 65 449.5Q81 481 109.5 502Q138 523 177 533Q216 543 263 543Q320 543 360.5 530Q401 517 427.5 493.5Q454 470 466 436.5Q478 403 478 362V357H351Q351 397 331 419.5Q311 442 263 442Q221 442 199 425Q177 408 177 379Q177 364 181 353Q185 342 196 334.5Q207 327 226 322Q245 317 274 315Q324 311 363 302Q402 293 429 276.5Q456 260 470 233Q484 206 484 166V159Q484 85 435.5 40Q387 -5 291 -12L279 -45Q319 -47 349 -67Q379 -87 379 -129Q379 -172 350 -193Q321 -214 265 -214Q231 -214 204 -207Q177 -200 163 -190Z" glyph-name="scedilla" horiz-adv-x="526" unicode="&#351;" /><glyph d="M68 601 201 780H325L458 601H341L263 693L185 601ZM263 88Q310 88 332 106.5Q354 125 354 154Q354 188 331.5 202.5Q309 217 253 222Q198 226 159 236.5Q120 247 95.5 264.5Q71 282 60 307.5Q49 333 49 368V376Q49 418 65 449.5Q81 481 109.5 502Q138 523 177 533Q216 543 263 543Q320 543 360.5 530Q401 517 427.5 493.5Q454 470 466 436.5Q478 403 478 362V357H351Q351 397 331 419.5Q311 442 263 442Q221 442 199 425Q177 408 177 379Q177 364 181 353Q185 342 196 334.5Q207 327 226 322Q245 317 274 315Q324 311 363 302Q402 293 429 276.5Q456 260 470 233Q484 206 484 166V159Q484 80 428.5 33.5Q373 -13 263 -13Q206 -13 164 1Q122 15 95 38.5Q68 62 55 94Q42 126 42 162V166H171Q171 150 175.5 135.5Q180 121 190.5 110.5Q201 100 219 94Q237 88 263 88Z" glyph-name="scircumflex" horiz-adv-x="526" unicode="&#349;" /><glyph d="M324 -103Q324 -166 291 -194.5Q258 -223 190 -223V-174Q221 -174 242 -165Q263 -156 271 -133H202V-47H324ZM263 88Q310 88 332 106.5Q354 125 354 154Q354 188 331.5 202.5Q309 217 253 222Q198 226 159 236.5Q120 247 95.5 264.5Q71 282 60 307.5Q49 333 49 368V376Q49 418 65 449.5Q81 481 109.5 502Q138 523 177 533Q216 543 263 543Q320 543 360.5 530Q401 517 427.5 493.5Q454 470 466 436.5Q478 403 478 362V357H351Q351 397 331 419.5Q311 442 263 442Q221 442 199 425Q177 408 177 379Q177 364 181 353Q185 342 196 334.5Q207 327 226 322Q245 317 274 315Q324 311 363 302Q402 293 429 276.5Q456 260 470 233Q484 206 484 166V159Q484 80 428.5 33.5Q373 -13 263 -13Q206 -13 164 1Q122 15 95 38.5Q68 62 55 94Q42 126 42 162V166H171Q171 150 175.5 135.5Q180 121 190.5 110.5Q201 100 219 94Q237 88 263 88Z" glyph-name="scommaaccent" horiz-adv-x="526" unicode="&#537;" /><glyph d="M372 390Q372 428 348 445.5Q324 463 267 466H265Q214 466 189.5 445Q165 424 165 390Q165 352 189.5 334.5Q214 317 271 314H273Q324 314 348 335Q372 356 372 390ZM503 392Q503 303 428 265Q470 227 470 162V154Q470 112 454 80.5Q438 49 409.5 28Q381 7 342 -3Q303 -13 256 -13Q199 -13 158 0Q117 13 91 36.5Q65 60 53 93.5Q41 127 41 169V173H168Q168 134 188 111Q208 88 256 88Q298 88 320 105Q342 122 342 151Q342 166 338 177.5Q334 189 323 198Q312 207 293 213Q274 219 245 221Q195 225 156 234.5Q117 244 90 262Q63 280 48.5 309Q34 338 34 380V388Q34 476 109 514Q67 552 67 618V626Q67 668 83 699.5Q99 731 127.5 752Q156 773 195.5 783Q235 793 282 793Q396 793 446.5 743.5Q497 694 497 611V607H369Q369 646 349.5 669Q330 692 282 692Q240 692 218 675Q196 658 196 629Q196 614 200 602.5Q204 591 215 582Q226 573 245 567Q264 561 293 559Q343 555 382 545.5Q421 536 448 518Q475 500 489 471Q503 442 503 400Z" glyph-name="section" horiz-adv-x="538" unicode="&#167;" /><glyph d="M196 319H54V461H196ZM196 30Q196 -135 43 -135V-67Q114 -67 126 0H54V141H196Z" glyph-name="semicolon" horiz-adv-x="250" unicode=";" /><glyph d="M221 319H79V461H221ZM221 30Q221 -135 68 -135V-67Q139 -67 151 0H79V141H221Z" glyph-name="semicolon.T" horiz-adv-x="300" unicode="&#61829;" /><glyph d="M401 530H340L294 704L296 642V530H239V800H325L371 627L416 800H502V530H445V642L447 704ZM103 642Q57 648 37 665.5Q17 683 17 721V725Q17 763 41 785.5Q65 808 112 808Q163 808 185.5 783.5Q208 759 208 711V703H151Q151 731 143 744Q135 757 113 757H110Q93 757 84 749Q75 741 75 728V726Q75 711 85.5 703Q96 695 122 691Q167 685 188.5 667Q210 649 210 611V606Q210 567 185.5 544Q161 521 112 521Q14 521 14 620V623H71Q71 571 112 571H115Q135 571 143.5 580.5Q152 590 152 604V606Q152 621 141.5 629Q131 637 103 642Z" glyph-name="servicemark" horiz-adv-x="548" unicode="&#8480;" /><glyph d="M43 780H561V698L277 0H136L412 665L312 663H160V500H43Z" glyph-name="seven" horiz-adv-x="600" unicode="7" /><glyph d="M13 190H286V128L153 -200H46L175 104L131 103H100V50H13Z" glyph-name="seven.inf" horiz-adv-x="300" unicode="&#58744;" /><glyph d="M950 160Q942 160 932.5 156Q923 152 916 142V130Q916 104 925 91.5Q934 79 948 79H951Q963 79 973 88.5Q983 98 983 115V126Q983 146 974.5 153Q966 160 953 160ZM13 780H286V718L153 390H46L175 694L131 693H100V640H13ZM530 0V86H609V268L561 236L511 307L633 389H709V86H787V0ZM1062 309Q1017 309 990.5 300Q964 291 947 271Q941 263 936 254Q931 245 928 234Q938 239 950.5 242.5Q963 246 977 246Q1026 246 1054.5 213Q1083 180 1083 123V118Q1083 61 1050.5 26.5Q1018 -8 949 -8Q882 -8 849 33.5Q816 75 816 138V146Q816 193 827.5 238.5Q839 284 871 326Q903 370 950 383.5Q997 397 1062 397ZM60 0 636 780H740L164 0Z" glyph-name="sevensixteenths" horiz-adv-x="1100" unicode="&#61976;" /><glyph d="M304 375Q265 375 230.5 355.5Q196 336 176 299V260Q176 184 212 144Q248 104 299 104H305Q358 104 392.5 137Q427 170 427 231V250Q427 314 394 344.5Q361 375 309 375ZM521 674Q436 674 369.5 649Q303 624 257 567Q216 514 196 444Q223 465 257.5 478Q292 491 336 491Q385 491 426.5 475Q468 459 497 427.5Q526 396 542.5 350.5Q559 305 559 246V236Q559 117 493 52Q427 -13 302 -13Q242 -13 194 7Q146 27 112.5 63.5Q79 100 61.5 152.5Q44 205 44 270V283Q44 376 68 467Q92 558 154 641Q186 684 227 713Q268 742 315 760Q362 778 414 785.5Q466 793 521 793Z" glyph-name="six" horiz-adv-x="600" unicode="6" /><glyph d="M150 -40Q142 -40 132.5 -43.5Q123 -47 116 -58V-70Q116 -96 125 -108.5Q134 -121 148 -121H151Q163 -121 173 -111.5Q183 -102 183 -85V-74Q183 -54 174.5 -47Q166 -40 153 -40ZM262 109Q217 109 190.5 100Q164 91 147 71Q141 63 136 54Q131 45 128 34Q138 39 150.5 42.5Q163 46 177 46Q226 46 254.5 13Q283 -20 283 -77V-82Q283 -139 250.5 -173.5Q218 -208 149 -208Q82 -208 49 -166.5Q16 -125 16 -62V-54Q16 -7 27.5 38.5Q39 84 71 126Q103 170 150 183.5Q197 197 262 197Z" glyph-name="six.inf" horiz-adv-x="300" unicode="&#58743;" /><glyph glyph-name="sixperemspace" horiz-adv-x="167" unicode="&#8198;" /><glyph d="M143 -120H15L245 840H373Z" glyph-name="slash" horiz-adv-x="388" unicode="/" /><glyph d="M21 0 213 780H341L149 0Z" glyph-name="slash.cap" horiz-adv-x="363" unicode="&#58465;" /><glyph glyph-name="space" horiz-adv-x="200" unicode=" " /><glyph d="M451 790Q463 771 486 742.5Q509 714 540 682Q571 650 607.5 618Q644 586 684 560Q717 539 746.5 515.5Q776 492 798.5 464.5Q821 437 834.5 405Q848 373 848 334Q848 297 834.5 265.5Q821 234 797 210.5Q773 187 741 173.5Q709 160 672 160Q635 160 604 173.5Q573 187 548 209.5Q523 232 504 261Q485 290 472 321L469 320Q473 269 479.5 227Q486 185 495.5 147Q505 109 518.5 73Q532 37 551 0H349Q368 37 381.5 73Q395 109 404.5 147Q414 185 420.5 227Q427 269 431 320L428 321Q415 290 396 261Q377 232 352 209.5Q327 187 296 173.5Q265 160 228 160Q191 160 159 173.5Q127 187 103 210.5Q79 234 65.5 265.5Q52 297 52 334Q52 373 65.5 405Q79 437 101.5 464.5Q124 492 153.5 515.5Q183 539 216 560Q256 586 292.5 618Q329 650 360 682Q391 714 414 742.5Q437 771 449 790Z" glyph-name="spade" horiz-adv-x="900" unicode="&#9824;" /><glyph d="M229 242 377 390 229 538 312 621 460 473 608 621 691 538 543 390 691 242 608 159 460 307 312 159ZM186 664V116H734V664ZM70 0V780H850V0Z" glyph-name="squaremultiply" horiz-adv-x="920" unicode="&#8864;" /><glyph d="M324 677Q275 677 253.5 648Q232 619 232 570Q232 537 238.5 502Q245 467 255 429H438V314H286Q297 269 306.5 219.5Q316 170 319 116H553V0H47V116H204Q198 171 184.5 219Q171 267 155 314H47V429H120Q111 464 105.5 501.5Q100 539 100 581Q100 622 112 660.5Q124 699 150.5 728.5Q177 758 219.5 775.5Q262 793 324 793Q387 793 431 774.5Q475 756 502.5 720.5Q530 685 542 633.5Q554 582 554 516V500H423Q423 583 400 630Q377 677 324 677Z" glyph-name="sterling" horiz-adv-x="600" unicode="&#163;" /><glyph d="M381 530V416H234V187Q234 134 256.5 117.5Q279 101 320 101Q334 101 350 103.5Q366 106 371 108V0Q365 -3 344.5 -8Q324 -13 289 -13Q248 -13 214 -3Q180 7 155.5 29Q131 51 117.5 86.5Q104 122 104 173V416H23V530H104V680H234V530Z" glyph-name="t" horiz-adv-x="421" unicode="t" /><glyph d="M381 530V416H234V313H341V217H234V187Q234 134 256.5 117.5Q279 101 320 101Q334 101 350 103.5Q366 106 371 108V0Q365 -3 344.5 -8Q324 -13 289 -13Q248 -13 214 -3Q180 7 155.5 29Q131 51 117.5 86.5Q104 122 104 173V217H35V313H104V416H23V530H104V680H234V530Z" glyph-name="tbar" horiz-adv-x="421" unicode="&#359;" /><glyph d="M380 800 357 601H295V800ZM381 530V416H234V187Q234 134 256.5 117.5Q279 101 320 101Q334 101 350 103.5Q366 106 371 108V0Q365 -3 344.5 -8Q324 -13 289 -13Q248 -13 214 -3Q180 7 155.5 29Q131 51 117.5 86.5Q104 122 104 173V416H23V530H104V680H234V530Z" glyph-name="tcaron" horiz-adv-x="421" unicode="&#357;" /><glyph d="M297 -103Q297 -166 264 -194.5Q231 -223 163 -223V-174Q194 -174 215 -165Q236 -156 244 -133H175V-47H297ZM381 530V416H234V187Q234 134 256.5 117.5Q279 101 320 101Q334 101 350 103.5Q366 106 371 108V0Q365 -3 344.5 -8Q324 -13 289 -13Q248 -13 214 -3Q180 7 155.5 29Q131 51 117.5 86.5Q104 122 104 173V416H23V530H104V680H234V530Z" glyph-name="tcommaaccent" horiz-adv-x="421" unicode="&#355;" /><glyph d="M227 729H111V821H227ZM381 530V416H234V187Q234 134 256.5 117.5Q279 101 320 101Q334 101 350 103.5Q366 106 371 108V0Q365 -3 344.5 -8Q324 -13 289 -13Q248 -13 214 -3Q180 7 155.5 29Q131 51 117.5 86.5Q104 122 104 173V416H23V530H104V680H234V530Z" glyph-name="tdotaccent" horiz-adv-x="421" unicode="&#7787;" /><glyph glyph-name="thinspace" horiz-adv-x="150" unicode="&#8201;" /><glyph d="M1250 160Q1242 160 1232.5 156Q1223 152 1216 142V130Q1216 104 1225 91.5Q1234 79 1248 79H1251Q1263 79 1273 88.5Q1283 98 1283 115V126Q1283 146 1274.5 153Q1266 160 1253 160ZM830 0V86H909V268L861 236L811 307L933 389H1009V86H1087V0ZM30 390V476H109V658L61 626L11 697L133 779H209V476H287V390ZM416 515Q416 487 426 478Q436 469 447 469H452Q465 469 474.5 478.5Q484 488 484 508V513Q484 545 452 545H400V633H451Q481 633 481 665V671Q481 684 472.5 692Q464 700 452 700H447Q436 700 427.5 689.5Q419 679 419 650H319V659Q319 787 450 787Q488 787 513.5 776.5Q539 766 554 750Q569 734 575 715.5Q581 697 581 682V672Q581 642 569 621.5Q557 601 540 589Q558 577 570.5 556.5Q583 536 583 506V496Q583 480 576.5 460Q570 440 554.5 423Q539 406 513.5 394Q488 382 450 382Q383 382 349.5 414.5Q316 447 316 507V515ZM1362 309Q1317 309 1290.5 300Q1264 291 1247 271Q1241 263 1236 254Q1231 245 1228 234Q1238 239 1250.5 242.5Q1263 246 1277 246Q1326 246 1354.5 213Q1383 180 1383 123V118Q1383 61 1350.5 26.5Q1318 -8 1249 -8Q1182 -8 1149 33.5Q1116 75 1116 138V146Q1116 193 1127.5 238.5Q1139 284 1171 326Q1203 370 1250 383.5Q1297 397 1362 397ZM360 0 936 780H1040L464 0Z" glyph-name="thirteensixteenths" horiz-adv-x="1400" unicode="&#61985;" /><glyph d="M187 161Q193 152 202.5 141.5Q212 131 224.5 122Q237 113 253.5 107Q270 101 291 101Q347 101 371.5 140Q396 179 396 249V281Q396 351 371.5 390.5Q347 430 291 430Q270 430 253.5 424Q237 418 224.5 409Q212 400 202.5 389Q193 378 187 369ZM186 800V479Q209 508 243 525.5Q277 543 328 543Q382 543 420 523.5Q458 504 481.5 469Q505 434 515.5 386Q526 338 526 281V249Q526 192 515.5 144Q505 96 481.5 61Q458 26 420 6.5Q382 -13 328 -13Q277 -13 243 4.5Q209 22 186 50V-200H56V800Z" glyph-name="thorn" horiz-adv-x="563" unicode="&#254;" /><glyph d="M174 250Q174 210 183 182.5Q192 155 208 137.5Q224 120 246 112Q268 104 295 104H305Q329 104 350.5 110.5Q372 117 388.5 131.5Q405 146 415 167.5Q425 189 425 219V231Q425 286 393 313Q361 340 309 340H200V456H306Q357 456 388.5 481Q420 506 420 560V569Q420 618 388 647Q356 676 305 676H295Q239 676 209 641Q179 606 179 520H47V541Q47 665 108.5 729Q170 793 300 793Q367 793 415 775Q463 757 494 727.5Q525 698 539 660.5Q553 623 553 585V567Q553 502 524.5 461Q496 420 454 398Q499 376 528.5 333.5Q558 291 558 224V206Q558 166 542.5 126.5Q527 87 495 56Q463 25 414.5 6Q366 -13 300 -13Q170 -13 106 53Q42 119 42 237V250Z" glyph-name="three" horiz-adv-x="600" unicode="3" /><glyph d="M116 -75Q116 -103 126 -112Q136 -121 147 -121H152Q165 -121 174.5 -111.5Q184 -102 184 -82V-77Q184 -45 152 -45H100V43H151Q181 43 181 75V81Q181 94 172.5 102Q164 110 152 110H147Q136 110 127.5 99.5Q119 89 119 60H19V69Q19 197 150 197Q188 197 213.5 186.5Q239 176 254 160Q269 144 275 125.5Q281 107 281 92V82Q281 52 269 31.5Q257 11 240 0Q258 -12 270.5 -32.5Q283 -53 283 -84V-94Q283 -110 276.5 -130Q270 -150 254.5 -167Q239 -184 213.5 -196Q188 -208 150 -208Q83 -208 49.5 -175.5Q16 -143 16 -83V-75Z" glyph-name="three.inf" horiz-adv-x="300" unicode="&#58740;" /><glyph glyph-name="threeperemspace" horiz-adv-x="333" unicode="&#8196;" /><glyph d="M40 407H710V293H40Z" glyph-name="threequarteremdash" horiz-adv-x="750" unicode="&#58482;" /><glyph d="M40 447H710V333H40Z" glyph-name="threequarteremdash.cap" horiz-adv-x="750" unicode="&#58501;" /><glyph d="M613 162 631 164H655V214L656 232ZM655 0V76H512V147L661 390H755V164H787V76H755V0ZM116 515Q116 487 126 478Q136 469 147 469H152Q165 469 174.5 478.5Q184 488 184 508V513Q184 545 152 545H100V633H151Q181 633 181 665V671Q181 684 172.5 692Q164 700 152 700H147Q136 700 127.5 689.5Q119 679 119 650H19V659Q19 787 150 787Q188 787 213.5 776.5Q239 766 254 750Q269 734 275 715.5Q281 697 281 682V672Q281 642 269 621.5Q257 601 240 589Q258 577 270.5 556.5Q283 536 283 506V496Q283 480 276.5 460Q270 440 254.5 423Q239 406 213.5 394Q188 382 150 382Q83 382 49.5 414.5Q16 447 16 507V515ZM60 0 636 780H740L164 0Z" glyph-name="threequarters" horiz-adv-x="800" unicode="&#190;" /><glyph d="M950 160Q942 160 932.5 156Q923 152 916 142V130Q916 104 925 91.5Q934 79 948 79H951Q963 79 973 88.5Q983 98 983 115V126Q983 146 974.5 153Q966 160 953 160ZM530 0V86H609V268L561 236L511 307L633 389H709V86H787V0ZM116 515Q116 487 126 478Q136 469 147 469H152Q165 469 174.5 478.5Q184 488 184 508V513Q184 545 152 545H100V633H151Q181 633 181 665V671Q181 684 172.5 692Q164 700 152 700H147Q136 700 127.5 689.5Q119 679 119 650H19V659Q19 787 150 787Q188 787 213.5 776.5Q239 766 254 750Q269 734 275 715.5Q281 697 281 682V672Q281 642 269 621.5Q257 601 240 589Q258 577 270.5 556.5Q283 536 283 506V496Q283 480 276.5 460Q270 440 254.5 423Q239 406 213.5 394Q188 382 150 382Q83 382 49.5 414.5Q16 447 16 507V515ZM1062 309Q1017 309 990.5 300Q964 291 947 271Q941 263 936 254Q931 245 928 234Q938 239 950.5 242.5Q963 246 977 246Q1026 246 1054.5 213Q1083 180 1083 123V118Q1083 61 1050.5 26.5Q1018 -8 949 -8Q882 -8 849 33.5Q816 75 816 138V146Q816 193 827.5 238.5Q839 284 871 326Q903 370 950 383.5Q997 397 1062 397ZM60 0 636 780H740L164 0Z" glyph-name="threesixteenths" horiz-adv-x="1100" unicode="&#61974;" /><glyph d="M116 515Q116 487 126 478Q136 469 147 469H152Q165 469 174.5 478.5Q184 488 184 508V513Q184 545 152 545H100V633H151Q181 633 181 665V671Q181 684 172.5 692Q164 700 152 700H147Q136 700 127.5 689.5Q119 679 119 650H19V659Q19 787 150 787Q188 787 213.5 776.5Q239 766 254 750Q269 734 275 715.5Q281 697 281 682V672Q281 642 269 621.5Q257 601 240 589Q258 577 270.5 556.5Q283 536 283 506V496Q283 480 276.5 460Q270 440 254.5 423Q239 406 213.5 394Q188 382 150 382Q83 382 49.5 414.5Q16 447 16 507V515Z" glyph-name="threesuperior" horiz-adv-x="300" unicode="&#179;" /><glyph d="M437 764Q437 689 408 655.5Q379 622 336 622Q312 622 291 630.5Q270 639 251.5 648.5Q233 658 216.5 666.5Q200 675 185 675Q171 675 161.5 666.5Q152 658 152 636H63Q63 711 92 744.5Q121 778 164 778Q188 778 209 769.5Q230 761 248.5 751.5Q267 742 283.5 733.5Q300 725 315 725Q329 725 338.5 733.5Q348 742 348 764Z" glyph-name="tilde" horiz-adv-x="500" unicode="&#732;" /><glyph d="M424 943Q424 882 396 857.5Q368 833 329 833Q305 833 285 841Q265 849 247 858Q229 867 213.5 875Q198 883 184 883Q170 883 159.5 875Q149 867 149 847H76Q76 908 104 932.5Q132 957 171 957Q195 957 215 949Q235 941 253 932Q271 923 286.5 915Q302 907 316 907Q330 907 340.5 915Q351 923 351 943Z" glyph-name="tilde.cap" horiz-adv-x="500" unicode="&#58404;" /><glyph d="M401 530H340L294 704L296 642V530H239V800H325L371 627L416 800H502V530H445V642L447 704ZM142 530H85V750H17V800H210V750H142Z" glyph-name="trademark" horiz-adv-x="548" unicode="&#8482;" /><glyph d="M62 780H192L465 129L738 780H868L529 -13H401Z" glyph-name="triagdn" horiz-adv-x="930" unicode="&#9660;" /><glyph d="M850 793V663L199 390L850 117V-13L57 326V454Z" glyph-name="triaglf" horiz-adv-x="930" unicode="&#9668;" /><glyph d="M873 326 80 -13V117L730 390L80 663V793L873 454Z" glyph-name="triagrt" horiz-adv-x="930" unicode="&#9658;" /><glyph d="M868 0H738L465 650L192 0H62L401 793H529Z" glyph-name="triagup" horiz-adv-x="930" unicode="&#9650;" /><glyph d="M346 780 337 474H238L229 780ZM522 780 500 474H401L392 780ZM184 780 175 474H75L54 780Z" glyph-name="tripleprime" horiz-adv-x="575" unicode="&#8244;" /><glyph d="M553 117V0H47V83L360 423Q392 457 406 483.5Q420 510 420 545V555Q420 615 387.5 645.5Q355 676 304 676H296Q240 676 209.5 641Q179 606 179 520H47V541Q47 665 108.5 729Q170 793 300 793Q367 793 415 774.5Q463 756 494 726Q525 696 539 657.5Q553 619 553 579V562Q553 529 548 503Q543 477 532 453.5Q521 430 504 408Q487 386 464 361L239 116L309 117Z" glyph-name="two" horiz-adv-x="600" unicode="2" /><glyph d="M281 -200H19V-137L161 22Q170 32 175.5 40.5Q181 49 181 63V68Q181 91 172.5 100.5Q164 110 152 110H147Q136 110 127.5 99.5Q119 89 119 60H19V69Q19 197 150 197Q188 197 213.5 186.5Q239 176 254 159.5Q269 143 275 123.5Q281 104 281 87V76Q281 40 269.5 19Q258 -2 238 -25L157 -114H281Z" glyph-name="two.inf" horiz-adv-x="300" unicode="&#58739;" /><glyph d="M281 390H19V453L161 612Q170 622 175.5 630.5Q181 639 181 653V658Q181 681 172.5 690.5Q164 700 152 700H147Q136 700 127.5 689.5Q119 679 119 650H19V659Q19 787 150 787Q188 787 213.5 776.5Q239 766 254 749.5Q269 733 275 713.5Q281 694 281 677V666Q281 630 269.5 609Q258 588 238 565L157 476H281Z" glyph-name="twosuperior" horiz-adv-x="300" unicode="&#178;" /><glyph d="M181 530V188Q181 150 201 125.5Q221 101 266 101Q288 101 306 107Q324 113 337.5 122Q351 131 360.5 141.5Q370 152 376 161V530H506V150L514 0H399L387 70Q362 34 320 10.5Q278 -13 215 -13Q171 -13 140.5 1.5Q110 16 90 41Q70 66 61 99Q52 132 52 168V530Z" glyph-name="u" horiz-adv-x="563" unicode="u" /><glyph d="M446 780 343 601H213L304 780ZM181 530V188Q181 150 201 125.5Q221 101 266 101Q288 101 306 107Q324 113 337.5 122Q351 131 360.5 141.5Q370 152 376 161V530H506V150L514 0H399L387 70Q362 34 320 10.5Q278 -13 215 -13Q171 -13 140.5 1.5Q110 16 90 41Q70 66 61 99Q52 132 52 168V530Z" glyph-name="uacute" horiz-adv-x="563" unicode="&#250;" /><glyph d="M278 589Q228 589 194 603Q160 617 138.5 642.5Q117 668 107.5 703Q98 738 99 780H195Q195 733 217 711Q239 689 278 689Q317 689 339 711Q361 733 361 780H457Q458 738 448.5 703Q439 668 417.5 642.5Q396 617 361.5 603Q327 589 278 589ZM181 530V188Q181 150 201 125.5Q221 101 266 101Q288 101 306 107Q324 113 337.5 122Q351 131 360.5 141.5Q370 152 376 161V530H506V150L514 0H399L387 70Q362 34 320 10.5Q278 -13 215 -13Q171 -13 140.5 1.5Q110 16 90 41Q70 66 61 99Q52 132 52 168V530Z" glyph-name="ubreve" horiz-adv-x="563" unicode="&#365;" /><glyph d="M83 601 216 780H340L473 601H356L278 693L200 601ZM181 530V188Q181 150 201 125.5Q221 101 266 101Q288 101 306 107Q324 113 337.5 122Q351 131 360.5 141.5Q370 152 376 161V530H506V150L514 0H399L387 70Q362 34 320 10.5Q278 -13 215 -13Q171 -13 140.5 1.5Q110 16 90 41Q70 66 61 99Q52 132 52 168V530Z" glyph-name="ucircumflex" horiz-adv-x="563" unicode="&#251;" /><glyph d="M249 622H107V763H249ZM449 622H307V763H449ZM181 530V188Q181 150 201 125.5Q221 101 266 101Q288 101 306 107Q324 113 337.5 122Q351 131 360.5 141.5Q370 152 376 161V530H506V150L514 0H399L387 70Q362 34 320 10.5Q278 -13 215 -13Q171 -13 140.5 1.5Q110 16 90 41Q70 66 61 99Q52 132 52 168V530Z" glyph-name="udieresis" horiz-adv-x="563" unicode="&#252;" /><glyph d="M252 780 343 601H213L110 780ZM181 530V188Q181 150 201 125.5Q221 101 266 101Q288 101 306 107Q324 113 337.5 122Q351 131 360.5 141.5Q370 152 376 161V530H506V150L514 0H399L387 70Q362 34 320 10.5Q278 -13 215 -13Q171 -13 140.5 1.5Q110 16 90 41Q70 66 61 99Q52 132 52 168V530Z" glyph-name="ugrave" horiz-adv-x="563" unicode="&#249;" /><glyph d="M507 780 404 601H299L390 780ZM341 780 256 601H151L224 780ZM181 530V188Q181 150 201 125.5Q221 101 266 101Q288 101 306 107Q324 113 337.5 122Q351 131 360.5 141.5Q370 152 376 161V530H506V150L514 0H399L387 70Q362 34 320 10.5Q278 -13 215 -13Q171 -13 140.5 1.5Q110 16 90 41Q70 66 61 99Q52 132 52 168V530Z" glyph-name="uhungarumlaut" horiz-adv-x="563" unicode="&#369;" /><glyph d="M139 748H417V633H139ZM181 530V188Q181 150 201 125.5Q221 101 266 101Q288 101 306 107Q324 113 337.5 122Q351 131 360.5 141.5Q370 152 376 161V530H506V150L514 0H399L387 70Q362 34 320 10.5Q278 -13 215 -13Q171 -13 140.5 1.5Q110 16 90 41Q70 66 61 99Q52 132 52 168V530Z" glyph-name="umacron" horiz-adv-x="563" unicode="&#363;" /><glyph d="M44 -55H276V-169H44Z" glyph-name="underscore" horiz-adv-x="320" unicode="_" /><glyph d="M44 -55H556V-169H44Z" glyph-name="underscoremonospace" horiz-adv-x="600" unicode="&#65343;" /><glyph d="M40 407H305V293H40Z" glyph-name="uni00AD" horiz-adv-x="345" unicode="&#173;" /><glyph d="M40 407H1160V293H40Z" glyph-name="uni2015" horiz-adv-x="1200" unicode="&#8213;" /><glyph d="M40 447H1160V333H40Z" glyph-name="uni2015.cap" horiz-adv-x="1200" unicode="&#58504;" /><glyph d="M181 670Q181 684 173 692Q165 700 151 700H149Q135 700 126.5 692Q118 684 118 670V499Q118 486 126.5 477.5Q135 469 149 469H151Q165 469 173 477.5Q181 486 181 499ZM281 499Q281 448 247.5 415Q214 382 150 382Q86 382 52.5 415Q19 448 19 499V670Q19 721 52.5 754Q86 787 150 787Q214 787 247.5 754Q281 721 281 670Z" glyph-name="uni2070" horiz-adv-x="300" unicode="&#8304;" /><glyph d="M113 552 131 554H155V604L156 622ZM155 390V466H12V537L161 780H255V554H287V466H255V390Z" glyph-name="uni2074" horiz-adv-x="300" unicode="&#8308;" /><glyph d="M116 515Q116 487 126 478Q136 469 147 469H152Q165 469 174.5 478.5Q184 488 184 512V517Q184 540 174 549.5Q164 559 147 559H144Q134 559 123 554Q112 549 105 539L19 568L28 780H278V693H112L109 639Q120 642 131.5 644Q143 646 155 646Q220 646 251.5 611Q283 576 283 519V509Q283 452 251 417Q219 382 150 382Q83 382 49.5 414.5Q16 447 16 507V515Z" glyph-name="uni2075" horiz-adv-x="300" unicode="&#8309;" /><glyph d="M150 550Q142 550 132.5 546Q123 542 116 532V520Q116 494 125 481.5Q134 469 148 469H151Q163 469 173 478.5Q183 488 183 505V516Q183 536 174.5 543Q166 550 153 550ZM262 699Q217 699 190.5 690Q164 681 147 661Q141 653 136 644Q131 635 128 624Q138 629 150.5 632.5Q163 636 177 636Q226 636 254.5 603Q283 570 283 513V508Q283 451 250.5 416.5Q218 382 149 382Q82 382 49 423.5Q16 465 16 528V536Q16 583 27.5 628.5Q39 674 71 716Q103 760 150 773.5Q197 787 262 787Z" glyph-name="uni2076" horiz-adv-x="300" unicode="&#8310;" /><glyph d="M13 780H286V718L153 390H46L175 694L131 693H100V640H13Z" glyph-name="uni2077" horiz-adv-x="300" unicode="&#8311;" /><glyph d="M147 700Q136 700 127 692Q118 684 118 670V665Q118 633 149 633H151Q181 633 181 665V670Q181 684 172.5 692Q164 700 152 700ZM147 545Q116 545 116 513V508Q116 488 125.5 478.5Q135 469 147 469H152Q165 469 174.5 478.5Q184 488 184 508V513Q184 545 152 545ZM150 382Q111 382 85.5 394Q60 406 44.5 423Q29 440 22.5 460Q16 480 16 496V507Q16 538 28.5 558Q41 578 59 590Q42 602 30.5 622Q19 642 19 672V682Q19 697 25 715.5Q31 734 46 750Q61 766 86.5 776.5Q112 787 150 787Q188 787 213.5 776.5Q239 766 254 750Q269 734 275 715.5Q281 697 281 682V672Q281 642 269.5 621.5Q258 601 241 589Q258 577 270.5 557Q283 537 283 507V496Q283 480 276.5 460Q270 440 254.5 423Q239 406 213.5 394Q188 382 150 382Z" glyph-name="uni2078" horiz-adv-x="300" unicode="&#8312;" /><glyph d="M149 619Q157 619 166.5 623Q176 627 184 637V650Q184 676 175 688.5Q166 701 152 701H149Q137 701 127 691.5Q117 682 117 664V654Q117 634 125.5 626.5Q134 619 147 619ZM37 470Q82 471 108.5 480Q135 489 152 509Q163 523 171 546Q150 534 122 534Q74 534 45.5 567Q17 600 17 657V662Q17 718 49 752.5Q81 787 150 787Q218 787 251 746Q284 705 284 641V634Q284 587 272 541Q260 495 229 453Q197 410 149.5 396Q102 382 37 382Z" glyph-name="uni2079" horiz-adv-x="300" unicode="&#8313;" /><glyph d="M194 715V629H280V541H194V455H106V541H20V629H106V715Z" glyph-name="uni207A" horiz-adv-x="300" unicode="&#8314;" /><glyph d="M20 629H280V541H20Z" glyph-name="uni207B" horiz-adv-x="300" unicode="&#8315;" /><glyph d="M20 573H280V486H20ZM20 684H280V597H20Z" glyph-name="uni207C" horiz-adv-x="300" unicode="&#8316;" /><glyph d="M18 590Q18 659 36 705.5Q54 752 78 780H180Q170 765 159 745.5Q148 726 138.5 701.5Q129 677 123 649Q117 621 117 590V580Q117 549 123 521Q129 493 138.5 468.5Q148 444 159 424.5Q170 405 180 390H78Q54 417 36 464Q18 511 18 580Z" glyph-name="uni207D" horiz-adv-x="194" unicode="&#8317;" /><glyph d="M174 580Q174 511 156.5 464Q139 417 115 390H13Q23 405 34 424.5Q45 444 54 468.5Q63 493 69 521Q75 549 75 580V590Q75 621 69 649Q63 677 54 701.5Q45 726 34 745.5Q23 765 13 780H115Q139 752 156.5 705.5Q174 659 174 590Z" glyph-name="uni207E" horiz-adv-x="194" unicode="&#8318;" /><glyph d="M181 280Q181 294 173 302Q165 310 151 310H149Q135 310 126.5 302Q118 294 118 280V109Q118 96 126.5 87.5Q135 79 149 79H151Q165 79 173 87.5Q181 96 181 109ZM281 109Q281 58 247.5 25Q214 -8 150 -8Q86 -8 52.5 25Q19 58 19 109V280Q19 331 52.5 364Q86 397 150 397Q214 397 247.5 364Q281 331 281 280Z" glyph-name="uni2080" horiz-adv-x="300" unicode="&#8320;" /><glyph d="M30 0V86H109V268L61 236L11 307L133 389H209V86H287V0Z" glyph-name="uni2081" horiz-adv-x="300" unicode="&#8321;" /><glyph d="M281 0H19V63L161 222Q170 232 175.5 240.5Q181 249 181 263V268Q181 291 172.5 300.5Q164 310 152 310H147Q136 310 127.5 299.5Q119 289 119 260H19V269Q19 397 150 397Q188 397 213.5 386.5Q239 376 254 359.5Q269 343 275 323.5Q281 304 281 287V276Q281 240 269.5 219Q258 198 238 175L157 86H281Z" glyph-name="uni2082" horiz-adv-x="300" unicode="&#8322;" /><glyph d="M116 125Q116 97 126 88Q136 79 147 79H152Q165 79 174.5 88.5Q184 98 184 118V123Q184 155 152 155H100V243H151Q181 243 181 275V281Q181 294 172.5 302Q164 310 152 310H147Q136 310 127.5 299.5Q119 289 119 260H19V269Q19 397 150 397Q188 397 213.5 386.5Q239 376 254 360Q269 344 275 325.5Q281 307 281 292V282Q281 252 269 231.5Q257 211 240 199Q258 187 270.5 166.5Q283 146 283 116V106Q283 90 276.5 70Q270 50 254.5 33Q239 16 213.5 4Q188 -8 150 -8Q83 -8 49.5 24.5Q16 57 16 117V125Z" glyph-name="uni2083" horiz-adv-x="300" unicode="&#8323;" /><glyph d="M113 162 131 164H155V214L156 232ZM155 0V76H12V147L161 390H255V164H287V76H255V0Z" glyph-name="uni2084" horiz-adv-x="300" unicode="&#8324;" /><glyph d="M116 125Q116 97 126 88Q136 79 147 79H152Q165 79 174.5 88.5Q184 98 184 122V127Q184 150 174 159.5Q164 169 147 169H144Q134 169 123 164Q112 159 105 149L19 178L28 390H278V303H112L109 249Q120 252 131.5 254Q143 256 155 256Q220 256 251.5 221Q283 186 283 129V119Q283 62 251 27Q219 -8 150 -8Q83 -8 49.5 24.5Q16 57 16 117V125Z" glyph-name="uni2085" horiz-adv-x="300" unicode="&#8325;" /><glyph d="M150 160Q142 160 132.5 156Q123 152 116 142V130Q116 104 125 91.5Q134 79 148 79H151Q163 79 173 88.5Q183 98 183 115V126Q183 146 174.5 153Q166 160 153 160ZM262 309Q217 309 190.5 300Q164 291 147 271Q141 263 136 254Q131 245 128 234Q138 239 150.5 242.5Q163 246 177 246Q226 246 254.5 213Q283 180 283 123V118Q283 61 250.5 26.5Q218 -8 149 -8Q82 -8 49 33.5Q16 75 16 138V146Q16 193 27.5 238.5Q39 284 71 326Q103 370 150 383.5Q197 397 262 397Z" glyph-name="uni2086" horiz-adv-x="300" unicode="&#8326;" /><glyph d="M13 390H286V328L153 0H46L175 304L131 303H100V250H13Z" glyph-name="uni2087" horiz-adv-x="300" unicode="&#8327;" /><glyph d="M147 310Q136 310 127 302Q118 294 118 280V275Q118 243 149 243H151Q181 243 181 275V280Q181 294 172.5 302Q164 310 152 310ZM147 155Q116 155 116 123V118Q116 98 125.5 88.5Q135 79 147 79H152Q165 79 174.5 88.5Q184 98 184 118V123Q184 155 152 155ZM150 -8Q111 -8 85.5 4Q60 16 44.5 33Q29 50 22.5 70Q16 90 16 106V117Q16 148 28.5 168Q41 188 59 200Q42 212 30.5 232Q19 252 19 282V292Q19 307 25 325.5Q31 344 46 360Q61 376 86.5 386.5Q112 397 150 397Q188 397 213.5 386.5Q239 376 254 360Q269 344 275 325.5Q281 307 281 292V282Q281 252 269.5 231.5Q258 211 241 199Q258 187 270.5 167Q283 147 283 117V106Q283 90 276.5 70Q270 50 254.5 33Q239 16 213.5 4Q188 -8 150 -8Z" glyph-name="uni2088" horiz-adv-x="300" unicode="&#8328;" /><glyph d="M149 229Q157 229 166.5 233Q176 237 184 247V260Q184 286 175 298.5Q166 311 152 311H149Q137 311 127 301.5Q117 292 117 274V264Q117 244 125.5 236.5Q134 229 147 229ZM37 80Q82 81 108.5 90Q135 99 152 119Q163 133 171 156Q150 144 122 144Q74 144 45.5 177Q17 210 17 267V272Q17 328 49 362.5Q81 397 150 397Q218 397 251 356Q284 315 284 251V244Q284 197 272 151Q260 105 229 63Q197 20 149.5 6Q102 -8 37 -8Z" glyph-name="uni2089" horiz-adv-x="300" unicode="&#8329;" /><glyph d="M194 325V239H280V151H194V65H106V151H20V239H106V325Z" glyph-name="uni208A" horiz-adv-x="300" unicode="&#8330;" /><glyph d="M20 239H280V151H20Z" glyph-name="uni208B" horiz-adv-x="300" unicode="&#8331;" /><glyph d="M20 183H280V96H20ZM20 294H280V207H20Z" glyph-name="uni208C" horiz-adv-x="300" unicode="&#8332;" /><glyph d="M18 200Q18 269 36 315.5Q54 362 78 390H180Q170 375 159 355.5Q148 336 138.5 311.5Q129 287 123 259Q117 231 117 200V190Q117 159 123 131Q129 103 138.5 78.5Q148 54 159 34.5Q170 15 180 0H78Q54 27 36 74Q18 121 18 190Z" glyph-name="uni208D" horiz-adv-x="194" unicode="&#8333;" /><glyph d="M174 190Q174 121 156.5 74Q139 27 115 0H13Q23 15 34 34.5Q45 54 54 78.5Q63 103 69 131Q75 159 75 190V200Q75 231 69 259Q63 287 54 311.5Q45 336 34 355.5Q23 375 13 390H115Q139 362 156.5 315.5Q174 269 174 200Z" glyph-name="uni208E" horiz-adv-x="194" unicode="&#8334;" /><glyph d="M30 390V476H109V658L61 626L11 697L133 779H209V476H287V390ZM616 125Q616 97 626 88Q636 79 647 79H652Q665 79 674.5 88.5Q684 98 684 118V123Q684 155 652 155H600V243H651Q681 243 681 275V281Q681 294 672.5 302Q664 310 652 310H647Q636 310 627.5 299.5Q619 289 619 260H519V269Q519 397 650 397Q688 397 713.5 386.5Q739 376 754 360Q769 344 775 325.5Q781 307 781 292V282Q781 252 769 231.5Q757 211 740 199Q758 187 770.5 166.5Q783 146 783 116V106Q783 90 776.5 70Q770 50 754.5 33Q739 16 713.5 4Q688 -8 650 -8Q583 -8 549.5 24.5Q516 57 516 117V125ZM60 0 636 780H740L164 0Z" glyph-name="uni2153" horiz-adv-x="800" unicode="&#8531;" /><glyph d="M281 390H19V453L161 612Q170 622 175.5 630.5Q181 639 181 653V658Q181 681 172.5 690.5Q164 700 152 700H147Q136 700 127.5 689.5Q119 679 119 650H19V659Q19 787 150 787Q188 787 213.5 776.5Q239 766 254 749.5Q269 733 275 713.5Q281 694 281 677V666Q281 630 269.5 609Q258 588 238 565L157 476H281ZM616 125Q616 97 626 88Q636 79 647 79H652Q665 79 674.5 88.5Q684 98 684 118V123Q684 155 652 155H600V243H651Q681 243 681 275V281Q681 294 672.5 302Q664 310 652 310H647Q636 310 627.5 299.5Q619 289 619 260H519V269Q519 397 650 397Q688 397 713.5 386.5Q739 376 754 360Q769 344 775 325.5Q781 307 781 292V282Q781 252 769 231.5Q757 211 740 199Q758 187 770.5 166.5Q783 146 783 116V106Q783 90 776.5 70Q770 50 754.5 33Q739 16 713.5 4Q688 -8 650 -8Q583 -8 549.5 24.5Q516 57 516 117V125ZM60 0 636 780H740L164 0Z" glyph-name="uni2154" horiz-adv-x="800" unicode="&#8532;" /><glyph d="M30 390V476H109V658L61 626L11 697L133 779H209V476H287V390ZM616 125Q616 97 626 88Q636 79 647 79H652Q665 79 674.5 88.5Q684 98 684 122V127Q684 150 674 159.5Q664 169 647 169H644Q634 169 623 164Q612 159 605 149L519 178L528 390H778V303H612L609 249Q620 252 631.5 254Q643 256 655 256Q720 256 751.5 221Q783 186 783 129V119Q783 62 751 27Q719 -8 650 -8Q583 -8 549.5 24.5Q516 57 516 117V125ZM60 0 636 780H740L164 0Z" glyph-name="uni2155" horiz-adv-x="800" unicode="&#8533;" /><glyph d="M281 390H19V453L161 612Q170 622 175.5 630.5Q181 639 181 653V658Q181 681 172.5 690.5Q164 700 152 700H147Q136 700 127.5 689.5Q119 679 119 650H19V659Q19 787 150 787Q188 787 213.5 776.5Q239 766 254 749.5Q269 733 275 713.5Q281 694 281 677V666Q281 630 269.5 609Q258 588 238 565L157 476H281ZM616 125Q616 97 626 88Q636 79 647 79H652Q665 79 674.5 88.5Q684 98 684 122V127Q684 150 674 159.5Q664 169 647 169H644Q634 169 623 164Q612 159 605 149L519 178L528 390H778V303H612L609 249Q620 252 631.5 254Q643 256 655 256Q720 256 751.5 221Q783 186 783 129V119Q783 62 751 27Q719 -8 650 -8Q583 -8 549.5 24.5Q516 57 516 117V125ZM60 0 636 780H740L164 0Z" glyph-name="uni2156" horiz-adv-x="800" unicode="&#8534;" /><glyph d="M116 515Q116 487 126 478Q136 469 147 469H152Q165 469 174.5 478.5Q184 488 184 508V513Q184 545 152 545H100V633H151Q181 633 181 665V671Q181 684 172.5 692Q164 700 152 700H147Q136 700 127.5 689.5Q119 679 119 650H19V659Q19 787 150 787Q188 787 213.5 776.5Q239 766 254 750Q269 734 275 715.5Q281 697 281 682V672Q281 642 269 621.5Q257 601 240 589Q258 577 270.5 556.5Q283 536 283 506V496Q283 480 276.5 460Q270 440 254.5 423Q239 406 213.5 394Q188 382 150 382Q83 382 49.5 414.5Q16 447 16 507V515ZM616 125Q616 97 626 88Q636 79 647 79H652Q665 79 674.5 88.5Q684 98 684 122V127Q684 150 674 159.5Q664 169 647 169H644Q634 169 623 164Q612 159 605 149L519 178L528 390H778V303H612L609 249Q620 252 631.5 254Q643 256 655 256Q720 256 751.5 221Q783 186 783 129V119Q783 62 751 27Q719 -8 650 -8Q583 -8 549.5 24.5Q516 57 516 117V125ZM60 0 636 780H740L164 0Z" glyph-name="uni2157" horiz-adv-x="800" unicode="&#8535;" /><glyph d="M113 552 131 554H155V604L156 622ZM155 390V466H12V537L161 780H255V554H287V466H255V390ZM616 125Q616 97 626 88Q636 79 647 79H652Q665 79 674.5 88.5Q684 98 684 122V127Q684 150 674 159.5Q664 169 647 169H644Q634 169 623 164Q612 159 605 149L519 178L528 390H778V303H612L609 249Q620 252 631.5 254Q643 256 655 256Q720 256 751.5 221Q783 186 783 129V119Q783 62 751 27Q719 -8 650 -8Q583 -8 549.5 24.5Q516 57 516 117V125ZM60 0 636 780H740L164 0Z" glyph-name="uni2158" horiz-adv-x="800" unicode="&#8536;" /><glyph d="M650 160Q642 160 632.5 156Q623 152 616 142V130Q616 104 625 91.5Q634 79 648 79H651Q663 79 673 88.5Q683 98 683 115V126Q683 146 674.5 153Q666 160 653 160ZM30 390V476H109V658L61 626L11 697L133 779H209V476H287V390ZM762 309Q717 309 690.5 300Q664 291 647 271Q641 263 636 254Q631 245 628 234Q638 239 650.5 242.5Q663 246 677 246Q726 246 754.5 213Q783 180 783 123V118Q783 61 750.5 26.5Q718 -8 649 -8Q582 -8 549 33.5Q516 75 516 138V146Q516 193 527.5 238.5Q539 284 571 326Q603 370 650 383.5Q697 397 762 397ZM60 0 636 780H740L164 0Z" glyph-name="uni2159" horiz-adv-x="800" unicode="&#8537;" /><glyph d="M650 160Q642 160 632.5 156Q623 152 616 142V130Q616 104 625 91.5Q634 79 648 79H651Q663 79 673 88.5Q683 98 683 115V126Q683 146 674.5 153Q666 160 653 160ZM116 515Q116 487 126 478Q136 469 147 469H152Q165 469 174.5 478.5Q184 488 184 512V517Q184 540 174 549.5Q164 559 147 559H144Q134 559 123 554Q112 549 105 539L19 568L28 780H278V693H112L109 639Q120 642 131.5 644Q143 646 155 646Q220 646 251.5 611Q283 576 283 519V509Q283 452 251 417Q219 382 150 382Q83 382 49.5 414.5Q16 447 16 507V515ZM762 309Q717 309 690.5 300Q664 291 647 271Q641 263 636 254Q631 245 628 234Q638 239 650.5 242.5Q663 246 677 246Q726 246 754.5 213Q783 180 783 123V118Q783 61 750.5 26.5Q718 -8 649 -8Q582 -8 549 33.5Q516 75 516 138V146Q516 193 527.5 238.5Q539 284 571 326Q603 370 650 383.5Q697 397 762 397ZM60 0 636 780H740L164 0Z" glyph-name="uni215A" horiz-adv-x="800" unicode="&#8538;" /><glyph d="M647 310Q636 310 627 302Q618 294 618 280V275Q618 243 649 243H651Q681 243 681 275V280Q681 294 672.5 302Q664 310 652 310ZM647 155Q616 155 616 123V118Q616 98 625.5 88.5Q635 79 647 79H652Q665 79 674.5 88.5Q684 98 684 118V123Q684 155 652 155ZM30 390V476H109V658L61 626L11 697L133 779H209V476H287V390ZM60 0 636 780H740L164 0ZM650 -8Q611 -8 585.5 4Q560 16 544.5 33Q529 50 522.5 70Q516 90 516 106V117Q516 148 528.5 168Q541 188 559 200Q542 212 530.5 232Q519 252 519 282V292Q519 307 525 325.5Q531 344 546 360Q561 376 586.5 386.5Q612 397 650 397Q688 397 713.5 386.5Q739 376 754 360Q769 344 775 325.5Q781 307 781 292V282Q781 252 769.5 231.5Q758 211 741 199Q758 187 770.5 167Q783 147 783 117V106Q783 90 776.5 70Q770 50 754.5 33Q739 16 713.5 4Q688 -8 650 -8Z" glyph-name="uni215B" horiz-adv-x="800" unicode="&#8539;" /><glyph d="M647 310Q636 310 627 302Q618 294 618 280V275Q618 243 649 243H651Q681 243 681 275V280Q681 294 672.5 302Q664 310 652 310ZM647 155Q616 155 616 123V118Q616 98 625.5 88.5Q635 79 647 79H652Q665 79 674.5 88.5Q684 98 684 118V123Q684 155 652 155ZM116 515Q116 487 126 478Q136 469 147 469H152Q165 469 174.5 478.5Q184 488 184 508V513Q184 545 152 545H100V633H151Q181 633 181 665V671Q181 684 172.5 692Q164 700 152 700H147Q136 700 127.5 689.5Q119 679 119 650H19V659Q19 787 150 787Q188 787 213.5 776.5Q239 766 254 750Q269 734 275 715.5Q281 697 281 682V672Q281 642 269 621.5Q257 601 240 589Q258 577 270.5 556.5Q283 536 283 506V496Q283 480 276.5 460Q270 440 254.5 423Q239 406 213.5 394Q188 382 150 382Q83 382 49.5 414.5Q16 447 16 507V515ZM60 0 636 780H740L164 0ZM650 -8Q611 -8 585.5 4Q560 16 544.5 33Q529 50 522.5 70Q516 90 516 106V117Q516 148 528.5 168Q541 188 559 200Q542 212 530.5 232Q519 252 519 282V292Q519 307 525 325.5Q531 344 546 360Q561 376 586.5 386.5Q612 397 650 397Q688 397 713.5 386.5Q739 376 754 360Q769 344 775 325.5Q781 307 781 292V282Q781 252 769.5 231.5Q758 211 741 199Q758 187 770.5 167Q783 147 783 117V106Q783 90 776.5 70Q770 50 754.5 33Q739 16 713.5 4Q688 -8 650 -8Z" glyph-name="uni215C" horiz-adv-x="800" unicode="&#8540;" /><glyph d="M647 310Q636 310 627 302Q618 294 618 280V275Q618 243 649 243H651Q681 243 681 275V280Q681 294 672.5 302Q664 310 652 310ZM647 155Q616 155 616 123V118Q616 98 625.5 88.5Q635 79 647 79H652Q665 79 674.5 88.5Q684 98 684 118V123Q684 155 652 155ZM116 515Q116 487 126 478Q136 469 147 469H152Q165 469 174.5 478.5Q184 488 184 512V517Q184 540 174 549.5Q164 559 147 559H144Q134 559 123 554Q112 549 105 539L19 568L28 780H278V693H112L109 639Q120 642 131.5 644Q143 646 155 646Q220 646 251.5 611Q283 576 283 519V509Q283 452 251 417Q219 382 150 382Q83 382 49.5 414.5Q16 447 16 507V515ZM60 0 636 780H740L164 0ZM650 -8Q611 -8 585.5 4Q560 16 544.5 33Q529 50 522.5 70Q516 90 516 106V117Q516 148 528.5 168Q541 188 559 200Q542 212 530.5 232Q519 252 519 282V292Q519 307 525 325.5Q531 344 546 360Q561 376 586.5 386.5Q612 397 650 397Q688 397 713.5 386.5Q739 376 754 360Q769 344 775 325.5Q781 307 781 292V282Q781 252 769.5 231.5Q758 211 741 199Q758 187 770.5 167Q783 147 783 117V106Q783 90 776.5 70Q770 50 754.5 33Q739 16 713.5 4Q688 -8 650 -8Z" glyph-name="uni215D" horiz-adv-x="800" unicode="&#8541;" /><glyph d="M647 310Q636 310 627 302Q618 294 618 280V275Q618 243 649 243H651Q681 243 681 275V280Q681 294 672.5 302Q664 310 652 310ZM647 155Q616 155 616 123V118Q616 98 625.5 88.5Q635 79 647 79H652Q665 79 674.5 88.5Q684 98 684 118V123Q684 155 652 155ZM13 780H286V718L153 390H46L175 694L131 693H100V640H13ZM60 0 636 780H740L164 0ZM650 -8Q611 -8 585.5 4Q560 16 544.5 33Q529 50 522.5 70Q516 90 516 106V117Q516 148 528.5 168Q541 188 559 200Q542 212 530.5 232Q519 252 519 282V292Q519 307 525 325.5Q531 344 546 360Q561 376 586.5 386.5Q612 397 650 397Q688 397 713.5 386.5Q739 376 754 360Q769 344 775 325.5Q781 307 781 292V282Q781 252 769.5 231.5Q758 211 741 199Q758 187 770.5 167Q783 147 783 117V106Q783 90 776.5 70Q770 50 754.5 33Q739 16 713.5 4Q688 -8 650 -8Z" glyph-name="uni215E" horiz-adv-x="800" unicode="&#8542;" /><glyph d="M30 390V476H109V658L61 626L11 697L133 779H209V476H287V390ZM60 0 636 780H740L164 0Z" glyph-name="uni215F" horiz-adv-x="500" unicode="&#8543;" /><glyph d="M70 0V780H850V662H270L863 70L780 -13L188 580V0Z" glyph-name="uni2196" horiz-adv-x="920" unicode="&#8598;" /><glyph d="M70 780H850V0H732V580L140 -13L57 70L650 662H70Z" glyph-name="uni2197" horiz-adv-x="920" unicode="&#8599;" /><glyph d="M70 118H650L57 710L140 793L732 200V780H850V0H70Z" glyph-name="uni2198" horiz-adv-x="920" unicode="&#8600;" /><glyph d="M850 0H70V780H188V200L780 793L863 710L270 118H850Z" glyph-name="uni2199" horiz-adv-x="920" unicode="&#8601;" /><glyph d="M852 -1 807 -45 7 275 99 367 752 98 484 753 576 844 897 45Z" glyph-name="uni25E2" horiz-adv-x="930" unicode="&#9698;" /><glyph d="M33 45 354 844 446 753 177 98 831 367 923 275 123 -45 78 -1Z" glyph-name="uni25E3" horiz-adv-x="930" unicode="&#9699;" /><glyph d="M123 827 923 506 831 414 177 682 446 29 354 -63 33 737Z" glyph-name="uni25E4" horiz-adv-x="930" unicode="&#9700;" /><glyph d="M576 -63 484 29 752 682 99 414 7 506 807 827 897 737Z" glyph-name="uni25E5" horiz-adv-x="930" unicode="&#9701;" /><glyph d="M180 -10 279 297 19 486H341L440 792L539 486H861L601 297L700 -10L440 180Z" glyph-name="uni2605" horiz-adv-x="880" unicode="&#9733;" /><glyph d="M479 -11 437 191Q437 189 436.5 182.5Q436 176 433.5 166.5Q431 157 425 146Q419 135 408 125Q396 114 384 106Q372 98 362 90Q352 82 346 72Q340 62 340 47Q340 39 342 33Q344 27 346 22Q349 17 352 12Q329 19 317.5 36.5Q306 54 306 74Q306 104 327 125Q349 147 358.5 174.5Q368 202 368 220L196 107L309 279Q308 278 303 273.5Q298 269 290 264.5Q282 260 270 256.5Q258 253 243 253Q229 253 211.5 257Q194 261 181 261Q161 261 149 253.5Q137 246 131 237Q124 226 122 213Q114 227 114 241Q114 270 134.5 290Q155 310 185 310Q202 310 218.5 315Q235 320 248.5 326.5Q262 333 270.5 339.5Q279 346 281 348L79 390L281 432Q279 432 272.5 432.5Q266 433 256.5 435.5Q247 438 236 444Q225 450 215 461Q204 473 196 485Q188 497 180 507Q172 517 162 523Q152 529 137 529Q129 529 123 527Q117 525 112 523Q107 520 102 517Q109 540 126.5 551.5Q144 563 164 563Q194 563 215 542Q237 520 264.5 510.5Q292 501 310 501L197 673L369 560Q368 561 363.5 566Q359 571 354.5 579Q350 587 346.5 599Q343 611 343 626Q343 640 347 657.5Q351 675 351 688Q351 708 343.5 720Q336 732 327 738Q316 745 303 747Q317 755 331 755Q360 755 380 734.5Q400 714 400 684Q400 667 405 650.5Q410 634 416.5 620.5Q423 607 429.5 598Q436 589 438 588L480 790L522 588Q522 589 522.5 596Q523 603 525.5 612.5Q528 622 534 633Q540 644 551 654Q563 665 575 673Q587 681 597 689Q607 697 613 707Q619 717 619 732Q619 740 617 746Q615 752 613 757Q610 762 607 767Q630 760 641.5 742.5Q653 725 653 705Q653 675 632 654Q610 632 600.5 604.5Q591 577 591 559L763 672L650 500Q651 501 656 505.5Q661 510 669 514.5Q677 519 689 522.5Q701 526 716 526Q730 526 747.5 522Q765 518 778 518Q798 518 810 525.5Q822 533 828 542Q835 553 837 566Q845 552 845 538Q845 509 824.5 489Q804 469 774 469Q757 469 740.5 464Q724 459 710.5 452.5Q697 446 688 439.5Q679 433 678 431L880 389L678 347Q679 347 686 346.5Q693 346 702.5 343.5Q712 341 723 335Q734 329 744 318Q755 306 763 294Q771 282 779 272Q787 262 797 256Q807 250 822 250Q830 250 836 252Q842 254 847 256Q852 259 857 262Q850 239 832.5 227.5Q815 216 795 216Q765 216 744 237Q722 259 694.5 268.5Q667 278 649 278L762 106L590 219Q591 218 595.5 213Q600 208 604.5 200Q609 192 612.5 180Q616 168 616 153Q616 139 612 121.5Q608 104 608 91Q608 71 615.5 59Q623 47 632 41Q643 34 656 32Q642 24 628 24Q599 24 579 44.5Q559 65 559 95Q559 112 554 128.5Q549 145 542.5 158.5Q536 172 529.5 180.5Q523 189 521 191Z" glyph-name="uni263C" horiz-adv-x="960" unicode="&#9788;" /><glyph d="M624 728Q557 728 498 701.5Q439 675 395 629Q351 583 325.5 521.5Q300 460 300 390Q300 320 325.5 258.5Q351 197 395 151Q439 105 498 78.5Q557 52 624 52Q673 52 720 67Q669 30 607.5 10Q546 -10 480 -10Q397 -10 324 21.5Q251 53 197 107Q143 161 111.5 234Q80 307 80 390Q80 473 111.5 546Q143 619 197 673Q251 727 324 758.5Q397 790 480 790Q546 790 607.5 769.5Q669 749 720 713Q697 720 673 724Q649 728 624 728Z" glyph-name="uni263E" horiz-adv-x="960" unicode="&#9790;" /><glyph d="M875 410Q879 403 882 391.5Q885 380 885 366Q885 340 873.5 317Q862 294 845 277Q828 260 808.5 250Q789 240 773 240L657 441L806 527ZM311 41Q303 41 290.5 44Q278 47 267 54Q244 67 230 88.5Q216 110 209.5 133Q203 156 204.5 178Q206 200 214 214H446V41ZM267 717Q271 724 280 732.5Q289 741 301 748Q323 761 348.5 762.5Q374 764 397.5 758Q421 752 439.5 739.5Q458 727 466 713L350 512L200 598ZM404 780H597Q611 780 623.5 778.5Q636 777 647.5 772.5Q659 768 669 759Q679 750 689 733L717 684L760 708L699 542L526 573L567 597L495 722Q484 742 468 753Q452 764 438 770Q421 777 404 779ZM184 122 88 290Q82 302 76.5 313.5Q71 325 69.5 337Q68 349 71 362.5Q74 376 84 393L112 442L70 466L244 497L303 331L262 355Q243 321 227 294Q213 271 202 251.5Q191 232 190 230Q179 210 177 191.5Q175 173 177 157Q180 139 186 122ZM864 264 768 97Q760 85 753 75Q746 65 736 57.5Q726 50 713 45.5Q700 41 680 41H623V-8L510 128L623 263V214H768Q790 214 808 222Q826 230 838 240Q852 251 863 266Z" glyph-name="uni267B" horiz-adv-x="960" unicode="&#9851;" /><glyph d="M64 390Q64 472 95 544Q126 616 180 670Q234 724 306 755Q378 786 460 786Q542 786 614 755Q686 724 740 670Q794 616 825 544Q856 472 856 390Q856 308 825 236Q794 164 740 110Q686 56 614 25Q542 -6 460 -6Q378 -6 306 25Q234 56 180 110Q126 164 95 236Q64 308 64 390ZM754 295Q745 284 734 275Q724 267 710.5 261Q697 255 680 255H568V293L480 188L568 83V121H612Q643 121 656 133.5Q669 146 680 164L755 294ZM710 498 594 431 684 275Q696 275 711.5 282.5Q727 290 740.5 303.5Q754 317 762.5 335Q771 353 771 373Q771 384 768.5 393Q766 402 763 407ZM229 184Q224 197 222 211Q220 223 221.5 238Q223 253 232 268L288 365L320 346L274 475L139 451L172 432L150 394Q134 368 138.5 350.5Q143 333 153 314L228 184ZM427 121V255H247Q241 244 240 227Q239 210 243.5 192Q248 174 259 157.5Q270 141 288 131Q297 126 306.5 123.5Q316 121 322 121ZM394 693Q408 691 421 686Q432 681 444 672Q456 663 465 649L521 552L489 533L623 509L670 638L637 619L615 657Q600 683 583 688.5Q566 694 544 694H394ZM240 553 356 486 446 642Q440 653 425.5 662.5Q411 672 393 676.5Q375 681 355 680Q335 679 318 669Q309 664 302 657Q295 650 292 645Z" glyph-name="uni267C" horiz-adv-x="960" unicode="&#9852;" /><glyph d="M98 390Q98 315 126.5 249Q155 183 204 134Q253 85 319 56.5Q385 28 460 28Q535 28 601 56.5Q667 85 716 134Q765 183 793.5 249Q822 315 822 390Q822 465 793.5 531Q765 597 716 646Q667 695 601 723.5Q535 752 460 752Q385 752 319 723.5Q253 695 204 646Q155 597 126.5 531Q98 465 98 390ZM60 390Q60 473 91.5 546Q123 619 177 673Q231 727 304 758.5Q377 790 460 790Q543 790 616 758.5Q689 727 743 673Q797 619 828.5 546Q860 473 860 390Q860 307 828.5 234Q797 161 743 107Q689 53 616 21.5Q543 -10 460 -10Q377 -10 304 21.5Q231 53 177 107Q123 161 91.5 234Q60 307 60 390ZM755 294 680 164Q669 146 656 133.5Q643 121 612 121H568V83L480 188L568 293V255H680Q697 255 710.5 261Q724 267 734 275Q745 284 754 295ZM763 407Q766 402 768.5 393Q771 384 771 373Q771 353 762.5 335Q754 317 740.5 303.5Q727 290 711.5 282.5Q696 275 684 275L594 431L710 498ZM228 184 153 314Q143 333 138.5 350.5Q134 368 150 394L172 432L139 451L274 475L320 346L288 365L232 268Q223 253 221.5 238Q220 223 222 211Q224 197 229 184ZM322 121Q316 121 306.5 123.5Q297 126 288 131Q270 141 259 157.5Q248 174 243.5 192Q239 210 240 227Q241 244 247 255H427V121ZM394 694H544Q566 694 583 688.5Q600 683 615 657L637 619L670 638L623 509L489 533L521 552L465 649Q456 663 444 672Q432 681 421 686Q408 691 394 693ZM292 645Q295 650 302 657Q309 664 318 669Q335 679 355 680Q375 681 393 676.5Q411 672 425.5 662.5Q440 653 446 642L356 486L240 553Z" glyph-name="uni267D" horiz-adv-x="960" unicode="&#9853;" /><glyph d="M181 530V188Q181 150 201 125.5Q221 101 266 101Q288 101 306 107Q324 113 337.5 122Q351 131 360.5 141.5Q370 152 376 161V530H506V150L514 0H513Q482 -14 463.5 -33Q445 -52 445 -79Q445 -97 457 -108.5Q469 -120 492 -120Q508 -120 520 -116.5Q532 -113 540 -108L571 -190Q555 -200 528 -207Q501 -214 472 -214Q415 -214 380 -188.5Q345 -163 345 -109Q345 -73 359.5 -44Q374 -15 398 6L387 70Q362 34 320 10.5Q278 -13 215 -13Q171 -13 140.5 1.5Q110 16 90 41Q70 66 61 99Q52 132 52 168V530Z" glyph-name="uogonek" horiz-adv-x="563" unicode="&#371;" /><glyph d="M226 691Q226 669 241 653.5Q256 638 278 638Q300 638 315 653.5Q330 669 330 691Q330 712 315 727.5Q300 743 278 743Q256 743 241 727.5Q226 712 226 691ZM176 691Q176 712 184 730.5Q192 749 206 763Q220 777 238.5 785Q257 793 278 793Q299 793 317.5 785Q336 777 350 763Q364 749 372 730.5Q380 712 380 691Q380 670 372 651Q364 632 350 618.5Q336 605 317.5 597Q299 589 278 589Q257 589 238.5 597Q220 605 206 618.5Q192 632 184 651Q176 670 176 691ZM181 530V188Q181 150 201 125.5Q221 101 266 101Q288 101 306 107Q324 113 337.5 122Q351 131 360.5 141.5Q370 152 376 161V530H506V150L514 0H399L387 70Q362 34 320 10.5Q278 -13 215 -13Q171 -13 140.5 1.5Q110 16 90 41Q70 66 61 99Q52 132 52 168V530Z" glyph-name="uring" horiz-adv-x="563" unicode="&#367;" /><glyph d="M465 764Q465 689 436 655.5Q407 622 364 622Q340 622 319 630.5Q298 639 279.5 648.5Q261 658 244.5 666.5Q228 675 213 675Q199 675 189.5 666.5Q180 658 180 636H91Q91 711 120 744.5Q149 778 192 778Q216 778 237 769.5Q258 761 276.5 751.5Q295 742 311.5 733.5Q328 725 343 725Q357 725 366.5 733.5Q376 742 376 764ZM181 530V188Q181 150 201 125.5Q221 101 266 101Q288 101 306 107Q324 113 337.5 122Q351 131 360.5 141.5Q370 152 376 161V530H506V150L514 0H399L387 70Q362 34 320 10.5Q278 -13 215 -13Q171 -13 140.5 1.5Q110 16 90 41Q70 66 61 99Q52 132 52 168V530Z" glyph-name="utilde" horiz-adv-x="563" unicode="&#361;" /><glyph d="M14 530H150L269 108L388 530H523L359 0H179Z" glyph-name="v" horiz-adv-x="538" unicode="v" /><glyph d="M286 0H121L23 530H150L207 140L297 530H453L543 140L600 530H728L629 0H464L375 393Z" glyph-name="w" horiz-adv-x="750" unicode="w" /><glyph d="M543 780 440 601H310L401 780ZM286 0H121L23 530H150L207 140L297 530H453L543 140L600 530H728L629 0H464L375 393Z" glyph-name="wacute" horiz-adv-x="750" unicode="&#7811;" /><glyph d="M180 601 313 780H437L570 601H453L375 693L297 601ZM286 0H121L23 530H150L207 140L297 530H453L543 140L600 530H728L629 0H464L375 393Z" glyph-name="wcircumflex" horiz-adv-x="750" unicode="&#373;" /><glyph d="M546 622H404V763H546ZM346 622H204V763H346ZM286 0H121L23 530H150L207 140L297 530H453L543 140L600 530H728L629 0H464L375 393Z" glyph-name="wdieresis" horiz-adv-x="750" unicode="&#7813;" /><glyph d="M349 780 440 601H310L207 780ZM286 0H121L23 530H150L207 140L297 530H453L543 140L600 530H728L629 0H464L375 393Z" glyph-name="wgrave" horiz-adv-x="750" unicode="&#7809;" /><glyph d="M173 390Q173 330 195.5 278Q218 226 257 187Q296 148 348 125.5Q400 103 460 103Q520 103 572 125.5Q624 148 663 187Q702 226 724.5 278Q747 330 747 390Q747 450 724.5 502Q702 554 663 593Q624 632 572 654.5Q520 677 460 677Q400 677 348 654.5Q296 632 257 593Q218 554 195.5 502Q173 450 173 390ZM57 390Q57 473 88.5 546.5Q120 620 175 674.5Q230 729 303.5 761Q377 793 460 793Q543 793 616.5 761Q690 729 744.5 674.5Q799 620 831 546.5Q863 473 863 390Q863 307 831 233.5Q799 160 744.5 105Q690 50 616.5 18.5Q543 -13 460 -13Q377 -13 303.5 18.5Q230 50 175 105Q120 160 88.5 233.5Q57 307 57 390Z" glyph-name="whitecircle" horiz-adv-x="920" unicode="&#9675;" /><glyph d="M186 414V116H484V414ZM600 530V0H70V530Z" glyph-name="whitesmallsquare" horiz-adv-x="680" unicode="&#9643;" /><glyph d="M186 664V116H734V664ZM70 0V780H850V0Z" glyph-name="whitesquare" horiz-adv-x="920" unicode="&#9633;" /><glyph d="M170 530 268 339 365 530H516L372 271L516 0H368L267 204L167 0H19L163 271L19 530Z" glyph-name="x" horiz-adv-x="535" unicode="x" /><glyph d="M385 530H525L338 26L268 -200H114L198 26L11 530H152L268 162Z" glyph-name="y" horiz-adv-x="530" unicode="y" /><glyph d="M436 780 333 601H203L294 780ZM385 530H525L338 26L268 -200H114L198 26L11 530H152L268 162Z" glyph-name="yacute" horiz-adv-x="530" unicode="&#253;" /><glyph d="M73 601 206 780H330L463 601H346L268 693L190 601ZM385 530H525L338 26L268 -200H114L198 26L11 530H152L268 162Z" glyph-name="ycircumflex" horiz-adv-x="530" unicode="&#375;" /><glyph d="M239 622H97V763H239ZM439 622H297V763H439ZM385 530H525L338 26L268 -200H114L198 26L11 530H152L268 162Z" glyph-name="ydieresis" horiz-adv-x="530" unicode="&#255;" /><glyph d="M42 480H141L10 780H157L300 412L443 780H590L459 480H558V365H409L372 280H558V165H367V0H233V165H42V280H228L191 365H42Z" glyph-name="yen" horiz-adv-x="600" unicode="&#165;" /><glyph d="M242 780 333 601H203L100 780ZM385 530H525L338 26L268 -200H114L198 26L11 530H152L268 162Z" glyph-name="ygrave" horiz-adv-x="530" unicode="&#7923;" /><glyph d="M129 748H407V633H129ZM385 530H525L338 26L268 -200H114L198 26L11 530H152L268 162Z" glyph-name="ymacron" horiz-adv-x="530" unicode="&#563;" /><glyph d="M281 419 168 416H38V530H451V441L198 111L311 114H461V0H28V89Z" glyph-name="z" horiz-adv-x="489" unicode="z" /><glyph d="M281 419 168 416H38V530H451V441L198 111L311 114H461V0H28V89ZM412 780 309 601H179L270 780Z" glyph-name="zacute" horiz-adv-x="489" unicode="&#378;" /><glyph d="M281 419 168 416H38V530H451V441L198 111L311 114H461V0H28V89ZM166 780 244 688 322 780H439L306 601H182L49 780Z" glyph-name="zcaron" horiz-adv-x="489" unicode="&#382;" /><glyph d="M281 419 168 416H38V530H451V441L198 111L311 114H461V0H28V89ZM315 622H173V763H315Z" glyph-name="zdotaccent" horiz-adv-x="489" unicode="&#380;" /><glyph d="M417 554Q417 609 390.5 642.5Q364 676 302 676H298Q236 676 209.5 642.5Q183 609 183 554V226Q183 171 209.5 137.5Q236 104 298 104H302Q364 104 390.5 137.5Q417 171 417 226ZM550 222Q550 171 535 128Q520 85 489 53.5Q458 22 411 4.5Q364 -13 300 -13Q236 -13 189 4.5Q142 22 111 53.5Q80 85 65 128Q50 171 50 222V558Q50 609 65 652Q80 695 111 726.5Q142 758 189 775.5Q236 793 300 793Q364 793 411 775.5Q458 758 489 726.5Q520 695 535 652Q550 609 550 558Z" glyph-name="zero" horiz-adv-x="600" unicode="0" /><glyph d="M181 80Q181 94 173 102Q165 110 151 110H149Q135 110 126.5 102Q118 94 118 80V-91Q118 -104 126.5 -112.5Q135 -121 149 -121H151Q165 -121 173 -112.5Q181 -104 181 -91ZM281 -91Q281 -142 247.5 -175Q214 -208 150 -208Q86 -208 52.5 -175Q19 -142 19 -91V80Q19 131 52.5 164Q86 197 150 197Q214 197 247.5 164Q281 131 281 80Z" glyph-name="zero.inf" horiz-adv-x="300" unicode="&#58737;" /><glyph glyph-name="zerowidthspace" horiz-adv-x="0" unicode="&#8203;" /></font>
</defs>
</svg>
