<?xml version="1.0" standalone="no"?><!DOCTYPE svg PUBLIC "-//W3C//DTD SVG 1.1//EN" "http://www.w3.org/Graphics/SVG/1.1/DTD/svg11.dtd" ><svg version="1.1" xmlns="http://www.w3.org/2000/svg"><defs><font horiz-adv-x="0" id="font"><font-face ascent="750" bbox="-287 -223 1365 966" cap-height="780" descent="-250" font-family="Cooper Hewitt" font-stretch="normal" font-style="normal" font-weight="600" units-per-em="1000" x-height="530" /><missing-glyph d="M802 115V665L527 390ZM162 665V115L437 390ZM482 435 761 714H203ZM203 66H761L482 345ZM92 780H872V0H92Z" horiz-adv-x="964" /><glyph d="M222 295H393L352 631ZM462 784 564 0H423L402 178H182L116 0H-31L277 784Z" glyph-name="A" horiz-adv-x="631" unicode="A" /><glyph d="M244 298H393L397 633ZM883 780 868 663H528L530 456H790L775 340H531L532 117H796L781 0H391L392 182H190L106 0H-38L342 780Z" glyph-name="AE" horiz-adv-x="870" unicode="&#198;" /><glyph d="M222 295H393L352 631ZM462 784 564 0H423L402 178H182L116 0H-31L277 784ZM520 950 442 840H312L383 950Z" glyph-name="Aacute" horiz-adv-x="631" unicode="&#193;" /><glyph d="M222 295H393L352 631ZM462 784 564 0H423L402 178H182L116 0H-31L277 784ZM375 826Q325 826 293.5 836Q262 846 244.5 862.5Q227 879 222.5 901.5Q218 924 221 950H311Q307 927 324 914Q341 901 383 901Q425 901 445 914Q465 927 469 950H563Q560 924 549 901.5Q538 879 516 862.5Q494 846 459.5 836Q425 826 375 826Z" glyph-name="Abreve" horiz-adv-x="631" unicode="&#258;" /><glyph d="M222 295H393L352 631ZM462 784 564 0H423L402 178H182L116 0H-31L277 784ZM193 840 327 950H457L561 840H443L386 892L315 840Z" glyph-name="Acircumflex" horiz-adv-x="631" unicode="&#194;" /><glyph d="M222 295H393L352 631ZM462 784 564 0H423L402 178H182L116 0H-31L277 784ZM521 849H405L417 941H533ZM351 849H235L247 941H363Z" glyph-name="Adieresis" horiz-adv-x="631" unicode="&#196;" /><glyph d="M222 295H393L352 631ZM462 784 564 0H423L402 178H182L116 0H-31L277 784ZM401 950 442 840H312L264 950Z" glyph-name="Agrave" horiz-adv-x="631" unicode="&#192;" /><glyph d="M222 295H393L352 631ZM462 784 564 0H423L402 178H182L116 0H-31L277 784ZM252 937H528L517 853H241Z" glyph-name="Amacron" horiz-adv-x="631" unicode="&#256;" /><glyph d="M462 784 564 0H423L352 631L116 0H-31L276 784Z" glyph-name="Anocross" horiz-adv-x="631" unicode="&#59185;" /><glyph d="M222 295H393L352 631ZM462 784 564 0Q553 -4 539 -12Q525 -20 513 -31Q501 -42 492.5 -56Q484 -70 484 -85Q484 -101 493.5 -110.5Q503 -120 524 -120Q541 -120 554.5 -116.5Q568 -113 576 -108L596 -190Q579 -200 554 -207Q529 -214 499 -214Q442 -214 411 -191.5Q380 -169 380 -120Q380 -90 392.5 -63.5Q405 -37 425 -16L402 178H182L116 0H-31L277 784Z" glyph-name="Aogonek" horiz-adv-x="631" unicode="&#260;" /><glyph d="M432 868Q432 889 419.5 901.5Q407 914 387 914Q364 914 346 899Q328 884 328 855Q328 834 340.5 821.5Q353 809 373 809Q396 809 414 824Q432 839 432 868ZM222 295H393L352 631ZM306 784Q277 811 277 855Q277 878 286 898Q295 918 310 932.5Q325 947 345 955.5Q365 964 387 964Q429 964 456 937.5Q483 911 483 868Q483 842 472 820Q461 798 443 784H462L564 0H423L402 178H182L116 0H-31L277 784Z" glyph-name="Aring" horiz-adv-x="631" unicode="&#197;" /><glyph d="M222 295H393L352 631ZM462 784 564 0H423L402 178H182L116 0H-31L277 784ZM565 943Q560 883 527.5 858Q495 833 453 833Q429 833 410 841Q391 849 375 858Q359 867 344.5 875Q330 883 315 883Q298 883 288 873.5Q278 864 277 847H204Q209 907 241.5 932Q274 957 316 957Q340 957 359 949Q378 941 394 932Q410 923 424.5 915Q439 907 454 907Q471 907 481 916.5Q491 926 492 943Z" glyph-name="Atilde" horiz-adv-x="631" unicode="&#195;" /><glyph d="M233 663 206 458H325Q344 458 362.5 463Q381 468 395.5 479.5Q410 491 420.5 509.5Q431 528 434 556L435 564Q438 592 433 611Q428 630 416 641.5Q404 653 386 658Q368 663 346 663ZM190 341 161 117H281Q337 117 370 142Q403 167 410 221L411 229Q415 261 410 282.5Q405 304 393 317Q381 330 363.5 335.5Q346 341 326 341ZM363 780Q410 780 451.5 768.5Q493 757 522.5 732Q552 707 566 667.5Q580 628 572 571L569 549Q561 492 529 455Q497 418 450 403Q501 392 528.5 347Q556 302 548 236L545 213Q537 152 512 111Q487 70 451 45.5Q415 21 370.5 10.5Q326 0 278 0H12L114 780Z" glyph-name="B" horiz-adv-x="617" unicode="B" /><glyph d="M233 663 206 458H325Q344 458 362.5 463Q381 468 395.5 479.5Q410 491 420.5 509.5Q431 528 434 556L435 564Q438 592 433 611Q428 630 416 641.5Q404 653 386 658Q368 663 346 663ZM190 341 161 117H281Q337 117 370 142Q403 167 410 221L411 229Q415 261 410 282.5Q405 304 393 317Q381 330 363.5 335.5Q346 341 326 341ZM363 780Q410 780 451.5 768.5Q493 757 522.5 732Q552 707 566 667.5Q580 628 572 571L569 549Q561 492 529 455Q497 418 450 403Q501 392 528.5 347Q556 302 548 236L545 213Q537 152 512 111Q487 70 451 45.5Q415 21 370.5 10.5Q326 0 278 0H12L114 780ZM410 849H294L306 941H422Z" glyph-name="Bdotaccent" horiz-adv-x="617" unicode="&#7682;" /><glyph d="M179 370Q161 235 184 169.5Q207 104 289 104H299Q340 104 366.5 115Q393 126 409.5 146.5Q426 167 434.5 196.5Q443 226 448 263H583L582 254Q567 116 498 51.5Q429 -13 290 -13Q212 -13 159 8.5Q106 30 75.5 76Q45 122 37 195Q29 268 43 370L48 408Q61 509 87.5 582Q114 655 154 702Q194 749 248 771Q302 793 372 793Q517 793 575.5 722Q634 651 615 509L612 487H478Q491 582 468.5 629Q446 676 373 676H363Q322 676 292 659Q262 642 241 608.5Q220 575 206.5 524.5Q193 474 184 408Z" glyph-name="C" horiz-adv-x="640" unicode="C" /><glyph d="M179 370Q161 235 184 169.5Q207 104 289 104H299Q340 104 366.5 115Q393 126 409.5 146.5Q426 167 434.5 196.5Q443 226 448 263H583L582 254Q567 116 498 51.5Q429 -13 290 -13Q212 -13 159 8.5Q106 30 75.5 76Q45 122 37 195Q29 268 43 370L48 408Q61 509 87.5 582Q114 655 154 702Q194 749 248 771Q302 793 372 793Q517 793 575.5 722Q634 651 615 509L612 487H478Q491 582 468.5 629Q446 676 373 676H363Q322 676 292 659Q262 642 241 608.5Q220 575 206.5 524.5Q193 474 184 408ZM533 950 455 840H325L396 950Z" glyph-name="Cacute" horiz-adv-x="640" unicode="&#262;" /><glyph d="M179 370Q161 235 184 169.5Q207 104 289 104H299Q340 104 366.5 115Q393 126 409.5 146.5Q426 167 434.5 196.5Q443 226 448 263H583L582 254Q567 116 498 51.5Q429 -13 290 -13Q212 -13 159 8.5Q106 30 75.5 76Q45 122 37 195Q29 268 43 370L48 408Q61 509 87.5 582Q114 655 154 702Q194 749 248 771Q302 793 372 793Q517 793 575.5 722Q634 651 615 509L612 487H478Q491 582 468.5 629Q446 676 373 676H363Q322 676 292 659Q262 642 241 608.5Q220 575 206.5 524.5Q193 474 184 408ZM589 950 455 840H325L221 950H339L396 898L467 950Z" glyph-name="Ccaron" horiz-adv-x="640" unicode="&#268;" /><glyph d="M179 370Q161 235 184 169.5Q207 104 289 104H299Q340 104 366.5 115Q393 126 409.5 146.5Q426 167 434.5 196.5Q443 226 448 263H583L582 254Q568 122 504.5 57.5Q441 -7 314 -12L298 -45Q335 -48 361.5 -65Q388 -82 388 -120Q388 -165 353 -189.5Q318 -214 261 -214Q227 -214 201.5 -207Q176 -200 162 -190L190 -131Q216 -147 262 -147Q313 -147 313 -121Q313 -97 267 -97Q259 -97 252 -97.5Q245 -98 240 -99Q234 -100 229 -101L216 -75L249 -11Q183 -6 138 18.5Q93 43 67.5 89.5Q42 136 36 205.5Q30 275 43 370L48 408Q61 509 87.5 582Q114 655 154 702Q194 749 248 771Q302 793 372 793Q517 793 575.5 722Q634 651 615 509L612 487H478Q491 582 468.5 629Q446 676 373 676H363Q322 676 292 659Q262 642 241 608.5Q220 575 206.5 524.5Q193 474 184 408Z" glyph-name="Ccedilla" horiz-adv-x="640" unicode="&#199;" /><glyph d="M179 370Q161 235 184 169.5Q207 104 289 104H299Q340 104 366.5 115Q393 126 409.5 146.5Q426 167 434.5 196.5Q443 226 448 263H583L582 254Q567 116 498 51.5Q429 -13 290 -13Q212 -13 159 8.5Q106 30 75.5 76Q45 122 37 195Q29 268 43 370L48 408Q61 509 87.5 582Q114 655 154 702Q194 749 248 771Q302 793 372 793Q517 793 575.5 722Q634 651 615 509L612 487H478Q491 582 468.5 629Q446 676 373 676H363Q322 676 292 659Q262 642 241 608.5Q220 575 206.5 524.5Q193 474 184 408ZM206 840 340 950H470L574 840H456L399 892L328 840Z" glyph-name="Ccircumflex" horiz-adv-x="640" unicode="&#264;" /><glyph d="M179 370Q161 235 184 169.5Q207 104 289 104H299Q340 104 366.5 115Q393 126 409.5 146.5Q426 167 434.5 196.5Q443 226 448 263H583L582 254Q567 116 498 51.5Q429 -13 290 -13Q212 -13 159 8.5Q106 30 75.5 76Q45 122 37 195Q29 268 43 370L48 408Q61 509 87.5 582Q114 655 154 702Q194 749 248 771Q302 793 372 793Q517 793 575.5 722Q634 651 615 509L612 487H478Q491 582 468.5 629Q446 676 373 676H363Q322 676 292 659Q262 642 241 608.5Q220 575 206.5 524.5Q193 474 184 408ZM449 849H333L345 941H461Z" glyph-name="Cdotaccent" horiz-adv-x="640" unicode="&#266;" /><glyph d="M250 117Q302 117 340 131Q378 145 405 175.5Q432 206 448.5 254.5Q465 303 474 372L479 410Q496 542 461.5 602.5Q427 663 328 663H233L161 117ZM610 372Q597 271 570 200.5Q543 130 499 85.5Q455 41 393.5 20.5Q332 0 250 0H12L114 780H333Q416 780 475.5 760Q535 740 570.5 696Q606 652 617 581.5Q628 511 615 410Z" glyph-name="D" horiz-adv-x="655" unicode="D" /><glyph d="M250 117Q302 117 340 131Q378 145 405 175.5Q432 206 448.5 254.5Q465 303 474 372L479 410Q496 542 461.5 602.5Q427 663 328 663H233L161 117ZM610 372Q597 271 570 200.5Q543 130 499 85.5Q455 41 393.5 20.5Q332 0 250 0H12L114 780H333Q416 780 475.5 760Q535 740 570.5 696Q606 652 617 581.5Q628 511 615 410ZM567 950 433 840H303L199 950H317L374 898L445 950Z" glyph-name="Dcaron" horiz-adv-x="655" unicode="&#270;" /><glyph d="M309 117Q361 117 399 131Q437 145 464 175.5Q491 206 507.5 254.5Q524 303 533 372L538 410Q555 542 520.5 602.5Q486 663 387 663H292L264 450H445L431 348H250L220 117ZM669 372Q656 271 629 200.5Q602 130 558 85.5Q514 41 452.5 20.5Q391 0 309 0H71L116 348H10L24 450H130L173 780H392Q475 780 534.5 760Q594 740 629.5 696Q665 652 676 581.5Q687 511 674 410Z" glyph-name="Dcroat" horiz-adv-x="715" unicode="&#272;" /><glyph d="M250 117Q302 117 340 131Q378 145 405 175.5Q432 206 448.5 254.5Q465 303 474 372L479 410Q496 542 461.5 602.5Q427 663 328 663H233L161 117ZM610 372Q597 271 570 200.5Q543 130 499 85.5Q455 41 393.5 20.5Q332 0 250 0H12L114 780H333Q416 780 475.5 760Q535 740 570.5 696Q606 652 617 581.5Q628 511 615 410ZM427 849H311L323 941H439Z" glyph-name="Ddotaccent" horiz-adv-x="655" unicode="&#7690;" /><glyph d="M578 780 563 663H233L206 456H485L470 340H190L161 117H491L476 0H12L114 780Z" glyph-name="E" horiz-adv-x="565" unicode="E" /><glyph d="M578 780 563 663H233L206 456H485L470 340H190L161 117H491L476 0H12L114 780ZM501 950 423 840H293L364 950Z" glyph-name="Eacute" horiz-adv-x="565" unicode="&#201;" /><glyph d="M578 780 563 663H233L206 456H485L470 340H190L161 117H491L476 0H12L114 780ZM356 826Q306 826 274.5 836Q243 846 225.5 862.5Q208 879 203.5 901.5Q199 924 202 950H292Q288 927 305 914Q322 901 364 901Q406 901 426 914Q446 927 450 950H544Q541 924 530 901.5Q519 879 497 862.5Q475 846 440.5 836Q406 826 356 826Z" glyph-name="Ebreve" horiz-adv-x="565" unicode="&#276;" /><glyph d="M578 780 563 663H233L206 456H485L470 340H190L161 117H491L476 0H12L114 780ZM557 950 423 840H293L189 950H307L364 898L435 950Z" glyph-name="Ecaron" horiz-adv-x="565" unicode="&#282;" /><glyph d="M578 780 563 663H233L206 456H485L470 340H190L161 117H491L476 0H12L114 780ZM174 840 308 950H438L542 840H424L367 892L296 840Z" glyph-name="Ecircumflex" horiz-adv-x="565" unicode="&#202;" /><glyph d="M578 780 563 663H233L206 456H485L470 340H190L161 117H491L476 0H12L114 780ZM502 849H386L398 941H514ZM332 849H216L228 941H344Z" glyph-name="Edieresis" horiz-adv-x="565" unicode="&#203;" /><glyph d="M578 780 563 663H233L206 456H485L470 340H190L161 117H491L476 0H12L114 780ZM417 849H301L313 941H429Z" glyph-name="Edotaccent" horiz-adv-x="565" unicode="&#278;" /><glyph d="M578 780 563 663H233L206 456H485L470 340H190L161 117H491L476 0H12L114 780ZM382 950 423 840H293L245 950Z" glyph-name="Egrave" horiz-adv-x="565" unicode="&#200;" /><glyph d="M578 780 563 663H233L206 456H485L470 340H190L161 117H491L476 0H12L114 780ZM233 937H509L498 853H222Z" glyph-name="Emacron" horiz-adv-x="565" unicode="&#274;" /><glyph d="M433 -15 208 538 191 373 143 0H12L114 780H253L471 242L488 407L536 780H667L566 8L565 0L560 -38Q554 -88 536 -121.5Q518 -155 491 -175.5Q464 -196 429 -204.5Q394 -213 352 -213Q323 -213 300.5 -208Q278 -203 272 -200L286 -92Q291 -94 308.5 -97Q326 -100 344 -100Q379 -100 402 -85Q425 -70 432 -21Z" glyph-name="Eng" horiz-adv-x="675" unicode="&#330;" /><glyph d="M578 780 563 663H233L206 456H485L470 340H190L161 117H491L476 0Q465 -4 451 -12Q437 -20 425 -31Q413 -42 404.5 -56Q396 -70 396 -85Q396 -101 405.5 -110.5Q415 -120 436 -120Q453 -120 466.5 -116.5Q480 -113 488 -108L508 -190Q491 -200 466 -207Q441 -214 411 -214Q354 -214 323 -191.5Q292 -169 292 -120Q292 -84 309.5 -53.5Q327 -23 354 0H12L114 780Z" glyph-name="Eogonek" horiz-adv-x="565" unicode="&#280;" /><glyph d="M476 668Q470 670 449 673Q428 676 405 676Q319 676 270 642.5Q221 609 211 533L141 0H7L78 543Q95 674 175.5 733.5Q256 793 415 793Q488 793 542 783.5Q596 774 637 754L625 662L472 458L522 452Q637 438 697 382Q757 326 743 223L740 201Q726 100 661 43.5Q596 -13 481 -13Q352 -13 293 51.5Q234 116 251 241L254 263H388Q382 218 386.5 188Q391 158 403.5 139Q416 120 435 112Q454 104 477 104H486Q533 104 565.5 130Q598 156 605 210L606 218Q613 269 581 300Q549 331 481 339L302 361L314 453Z" glyph-name="Eszett" horiz-adv-x="790" unicode="&#7838;" /><glyph d="M309 117Q361 117 399 131Q437 145 464 175.5Q491 206 507.5 254.5Q524 303 533 372L538 410Q555 542 520.5 602.5Q486 663 387 663H292L264 450H445L431 348H250L220 117ZM669 372Q656 271 629 200.5Q602 130 558 85.5Q514 41 452.5 20.5Q391 0 309 0H71L116 348H10L24 450H130L173 780H392Q475 780 534.5 760Q594 740 629.5 696Q665 652 676 581.5Q687 511 674 410Z" glyph-name="Eth" horiz-adv-x="715" unicode="&#208;" /><glyph d="M25 320 40 438H107Q135 625 207 709Q279 793 389 793Q512 793 554 724Q596 655 578 522L575 500H454Q467 593 455 634.5Q443 676 393 676H385Q331 676 297 616Q263 556 244 438H424L351 320H230Q220 212 235.5 158Q251 104 302 104H310Q355 104 383.5 140Q412 176 421 250H542L541 241Q527 112 465 49.5Q403 -13 306 -13Q241 -13 197 9Q153 31 127.5 73.5Q102 116 94 178Q86 240 93 320Z" glyph-name="Euro" horiz-adv-x="600" unicode="&#8364;" /><glyph d="M571 780 556 663H233L206 456H478L463 340H190L146 0H12L114 780Z" glyph-name="F" horiz-adv-x="538" unicode="F" /><glyph d="M571 780 556 663H233L206 456H478L463 340H190L146 0H12L114 780ZM417 849H301L313 941H429Z" glyph-name="Fdotaccent" horiz-adv-x="538" unicode="&#7710;" /><glyph d="M310 -13Q232 -13 175.5 8.5Q119 30 85 76Q51 122 40 195Q29 268 43 370L48 408Q61 509 88 582Q115 655 156 702Q197 749 252 771Q307 793 377 793Q664 793 625 509L622 487H488Q501 582 476 629Q451 676 378 676H368Q327 676 296 659Q265 642 243 608.5Q221 575 207 524.5Q193 474 184 408L179 370Q161 234 194 169Q227 104 309 104H319Q344 104 364.5 109Q385 114 401 121Q417 128 427.5 136Q438 144 443 149L462 294H349L364 410H611L569 88Q556 73 533.5 55Q511 37 479 22Q447 7 405 -3Q363 -13 310 -13Z" glyph-name="G" horiz-adv-x="664" unicode="G" /><glyph d="M310 -13Q232 -13 175.5 8.5Q119 30 85 76Q51 122 40 195Q29 268 43 370L48 408Q61 509 88 582Q115 655 156 702Q197 749 252 771Q307 793 377 793Q664 793 625 509L622 487H488Q501 582 476 629Q451 676 378 676H368Q327 676 296 659Q265 642 243 608.5Q221 575 207 524.5Q193 474 184 408L179 370Q161 234 194 169Q227 104 309 104H319Q344 104 364.5 109Q385 114 401 121Q417 128 427.5 136Q438 144 443 149L462 294H349L364 410H611L569 88Q556 73 533.5 55Q511 37 479 22Q447 7 405 -3Q363 -13 310 -13ZM395 826Q345 826 313.5 836Q282 846 264.5 862.5Q247 879 242.5 901.5Q238 924 241 950H331Q327 927 344 914Q361 901 403 901Q445 901 465 914Q485 927 489 950H583Q580 924 569 901.5Q558 879 536 862.5Q514 846 479.5 836Q445 826 395 826Z" glyph-name="Gbreve" horiz-adv-x="664" unicode="&#286;" /><glyph d="M310 -13Q232 -13 175.5 8.5Q119 30 85 76Q51 122 40 195Q29 268 43 370L48 408Q61 509 88 582Q115 655 156 702Q197 749 252 771Q307 793 377 793Q664 793 625 509L622 487H488Q501 582 476 629Q451 676 378 676H368Q327 676 296 659Q265 642 243 608.5Q221 575 207 524.5Q193 474 184 408L179 370Q161 234 194 169Q227 104 309 104H319Q344 104 364.5 109Q385 114 401 121Q417 128 427.5 136Q438 144 443 149L462 294H349L364 410H611L569 88Q556 73 533.5 55Q511 37 479 22Q447 7 405 -3Q363 -13 310 -13ZM213 840 347 950H477L581 840H463L406 892L335 840Z" glyph-name="Gcircumflex" horiz-adv-x="664" unicode="&#284;" /><glyph d="M310 -13Q232 -13 175.5 8.5Q119 30 85 76Q51 122 40 195Q29 268 43 370L48 408Q61 509 88 582Q115 655 156 702Q197 749 252 771Q307 793 377 793Q664 793 625 509L622 487H488Q501 582 476 629Q451 676 378 676H368Q327 676 296 659Q265 642 243 608.5Q221 575 207 524.5Q193 474 184 408L179 370Q161 234 194 169Q227 104 309 104H319Q344 104 364.5 109Q385 114 401 121Q417 128 427.5 136Q438 144 443 149L462 294H349L364 410H611L569 88Q556 73 533.5 55Q511 37 479 22Q447 7 405 -3Q363 -13 310 -13ZM344 -103Q336 -168 298.5 -195.5Q261 -223 194 -223L201 -170Q232 -170 255.5 -162Q279 -154 287 -133H218L229 -47H351Z" glyph-name="Gcommaaccent" horiz-adv-x="664" unicode="&#290;" /><glyph d="M310 -13Q232 -13 175.5 8.5Q119 30 85 76Q51 122 40 195Q29 268 43 370L48 408Q61 509 88 582Q115 655 156 702Q197 749 252 771Q307 793 377 793Q664 793 625 509L622 487H488Q501 582 476 629Q451 676 378 676H368Q327 676 296 659Q265 642 243 608.5Q221 575 207 524.5Q193 474 184 408L179 370Q161 234 194 169Q227 104 309 104H319Q344 104 364.5 109Q385 114 401 121Q417 128 427.5 136Q438 144 443 149L462 294H349L364 410H611L569 88Q556 73 533.5 55Q511 37 479 22Q447 7 405 -3Q363 -13 310 -13ZM456 849H340L352 941H468Z" glyph-name="Gdotaccent" horiz-adv-x="664" unicode="&#288;" /><glyph d="M647 780 545 0H411L455 340H190L146 0H12L114 780H248L206 456H471L513 780Z" glyph-name="H" horiz-adv-x="655" unicode="H" /><glyph d="M471 456 486 568H221L206 456ZM647 780 545 0H411L455 340H190L146 0H12L114 780H248L234 670H499L513 780Z" glyph-name="Hbar" horiz-adv-x="655" unicode="&#294;" /><glyph d="M647 780 545 0H411L455 340H190L146 0H12L114 780H248L206 456H471L513 780ZM205 840 339 950H469L573 840H455L398 892L327 840Z" glyph-name="Hcircumflex" horiz-adv-x="655" unicode="&#292;" /><glyph d="M151 0H17L119 780H253Z" glyph-name="I" horiz-adv-x="266" unicode="I" /><glyph d="M151 0H17L119 780H253ZM436 780H570L491 181Q484 128 466 91Q448 54 421.5 31Q395 8 361.5 -2.5Q328 -13 290 -13Q252 -13 228.5 -7.5Q205 -2 199 3L214 114Q219 111 234.5 107.5Q250 104 270 104Q306 104 329 124.5Q352 145 359 196Z" glyph-name="IJ" horiz-adv-x="573" unicode="&#306;" /><glyph d="M151 0H17L119 780H253ZM337 950 259 840H129L200 950Z" glyph-name="Iacute" horiz-adv-x="266" unicode="&#205;" /><glyph d="M151 0H17L119 780H253ZM192 826Q142 826 110.5 836Q79 846 61.5 862.5Q44 879 39.5 901.5Q35 924 38 950H128Q124 927 141 914Q158 901 200 901Q242 901 262 914Q282 927 286 950H380Q377 924 366 901.5Q355 879 333 862.5Q311 846 276.5 836Q242 826 192 826Z" glyph-name="Ibreve" horiz-adv-x="266" unicode="&#300;" /><glyph d="M151 0H17L119 780H253ZM10 840 144 950H274L378 840H260L203 892L132 840Z" glyph-name="Icircumflex" horiz-adv-x="266" unicode="&#206;" /><glyph d="M151 0H17L119 780H253ZM338 849H222L234 941H350ZM168 849H52L64 941H180Z" glyph-name="Idieresis" horiz-adv-x="266" unicode="&#207;" /><glyph d="M151 0H17L119 780H253ZM253 849H137L149 941H265Z" glyph-name="Idotaccent" horiz-adv-x="266" unicode="&#304;" /><glyph d="M151 0H17L119 780H253ZM218 950 259 840H129L81 950Z" glyph-name="Igrave" horiz-adv-x="266" unicode="&#204;" /><glyph d="M151 0H17L119 780H253ZM69 937H345L334 853H58Z" glyph-name="Imacron" horiz-adv-x="266" unicode="&#298;" /><glyph d="M151 0Q140 -4 126 -12Q112 -20 100 -31Q88 -42 79.5 -56Q71 -70 71 -85Q71 -101 80.5 -110.5Q90 -120 111 -120Q128 -120 141.5 -116.5Q155 -113 163 -108L183 -190Q166 -200 141 -207Q116 -214 86 -214Q29 -214 -2 -191.5Q-33 -169 -33 -120Q-33 -88 -19.5 -61.5Q-6 -35 15 -13L119 780H253Z" glyph-name="Iogonek" horiz-adv-x="266" unicode="&#302;" /><glyph d="M151 0H17L119 780H253ZM382 943Q377 883 344.5 858Q312 833 270 833Q246 833 227 841Q208 849 192 858Q176 867 161.5 875Q147 883 132 883Q115 883 105 873.5Q95 864 94 847H21Q26 907 58.5 932Q91 957 133 957Q157 957 176 949Q195 941 211 932Q227 923 241.5 915Q256 907 271 907Q288 907 298 916.5Q308 926 309 943Z" glyph-name="Itilde" horiz-adv-x="266" unicode="&#296;" /><glyph d="M521 780 450 239Q442 177 424 130Q406 83 376 51.5Q346 20 303.5 3.5Q261 -13 203 -13Q140 -13 98 4Q56 21 33 54Q10 87 4.5 134Q-1 181 7 241L10 263H137Q122 179 141 141.5Q160 104 203 104Q231 104 250.5 112.5Q270 121 283 139Q296 157 304.5 186Q313 215 318 256L387 780Z" glyph-name="J" horiz-adv-x="524" unicode="J" /><glyph d="M278 840 412 950H542L646 840H528L471 892L400 840ZM521 780 450 239Q442 177 424 130Q406 83 376 51.5Q346 20 303.5 3.5Q261 -13 203 -13Q140 -13 98 4Q56 21 33 54Q10 87 4.5 134Q-1 181 7 241L10 263H137Q122 179 141 141.5Q160 104 203 104Q231 104 250.5 112.5Q270 121 283 139Q296 157 304.5 186Q313 215 318 256L387 780Z" glyph-name="Jcircumflex" horiz-adv-x="524" unicode="&#308;" /><glyph d="M203 438 475 780H634L370 463L532 0H387L274 348L176 230L146 0H12L114 780H248Z" glyph-name="K" horiz-adv-x="606" unicode="K" /><glyph d="M203 438 475 780H634L370 463L532 0H387L274 348L176 230L146 0H12L114 780H248ZM311 -103Q303 -168 265.5 -195.5Q228 -223 161 -223L168 -170Q199 -170 222.5 -162Q246 -154 254 -133H185L196 -47H318Z" glyph-name="Kcommaaccent" horiz-adv-x="606" unicode="&#310;" /><glyph d="M12 0 114 780H248L161 117H462L447 0Z" glyph-name="L" horiz-adv-x="511" unicode="L" /><glyph d="M332 950 254 840H124L195 950ZM12 0 114 780H248L161 117H462L447 0Z" glyph-name="Lacute" horiz-adv-x="511" unicode="&#313;" /><glyph d="M460 800 411 601H349L375 800ZM12 0 114 780H248L161 117H462L447 0Z" glyph-name="Lcaron" horiz-adv-x="511" unicode="&#317;" /><glyph d="M12 0 114 780H248L161 117H462L447 0ZM277 -103Q269 -168 231.5 -195.5Q194 -223 127 -223L134 -170Q165 -170 188.5 -162Q212 -154 220 -133H151L162 -47H284Z" glyph-name="Lcommaaccent" horiz-adv-x="511" unicode="&#315;" /><glyph d="M445 328H303L322 469H464ZM12 0 114 780H248L161 117H462L447 0Z" glyph-name="Ldot" horiz-adv-x="511" unicode="&#319;" /><glyph d="M7 326 122 381 174 780H308L264 447L470 543L455 429L249 333L221 117H522L507 0H72L107 267L-8 212Z" glyph-name="Lslash" horiz-adv-x="571" unicode="&#321;" /><glyph d="M439 0H311L217 547L199 383L149 0H12L114 780H309L402 222L642 780H841L739 0H602L652 383L678 547Z" glyph-name="M" horiz-adv-x="849" unicode="M" /><glyph d="M439 0H311L217 547L199 383L149 0H12L114 780H309L402 222L642 780H841L739 0H602L652 383L678 547ZM544 849H428L440 941H556Z" glyph-name="Mdotaccent" horiz-adv-x="849" unicode="&#7744;" /><glyph d="M253 780 471 242 488 407 536 780H667L565 0H426L208 538L191 373L143 0H12L114 780Z" glyph-name="N" horiz-adv-x="675" unicode="N" /><glyph d="M253 780 471 242 488 407 536 780H667L565 0H426L208 538L191 373L143 0H12L114 780ZM542 950 464 840H334L405 950Z" glyph-name="Nacute" horiz-adv-x="675" unicode="&#323;" /><glyph d="M253 780 471 242 488 407 536 780H667L565 0H426L208 538L191 373L143 0H12L114 780ZM598 950 464 840H334L230 950H348L405 898L476 950Z" glyph-name="Ncaron" horiz-adv-x="675" unicode="&#327;" /><glyph d="M253 780 471 242 488 407 536 780H667L565 0H426L208 538L191 373L143 0H12L114 780ZM336 -103Q328 -168 290.5 -195.5Q253 -223 186 -223L193 -170Q224 -170 247.5 -162Q271 -154 279 -133H210L221 -47H343Z" glyph-name="Ncommaaccent" horiz-adv-x="675" unicode="&#325;" /><glyph d="M253 780 471 242 488 407 536 780H667L565 0H426L208 538L191 373L143 0H12L114 780ZM587 943Q582 883 549.5 858Q517 833 475 833Q451 833 432 841Q413 849 397 858Q381 867 366.5 875Q352 883 337 883Q320 883 310 873.5Q300 864 299 847H226Q231 907 263.5 932Q296 957 338 957Q362 957 381 949Q400 941 416 932Q432 923 446.5 915Q461 907 476 907Q493 907 503 916.5Q513 926 514 943Z" glyph-name="Ntilde" horiz-adv-x="675" unicode="&#209;" /><glyph d="M489 410Q507 546 483.5 611Q460 676 378 676H368Q327 676 296 659Q265 642 243 608.5Q221 575 207 524.5Q193 474 184 408L179 370Q161 234 184.5 169Q208 104 290 104H300Q382 104 424.5 171.5Q467 239 484 372ZM620 372Q606 271 579.5 198Q553 125 512 78Q471 31 416 9Q361 -13 291 -13Q213 -13 159.5 8.5Q106 30 75.5 76Q45 122 37 195Q29 268 43 370L48 408Q61 509 88 582Q115 655 156 702Q197 749 252 771Q307 793 377 793Q455 793 508.5 771.5Q562 750 592.5 704Q623 658 630.5 585Q638 512 625 410Z" glyph-name="O" horiz-adv-x="665" unicode="O" /><glyph d="M408 663Q356 663 318 649Q280 635 253 604.5Q226 574 209.5 525.5Q193 477 184 408L179 370Q162 238 196.5 177.5Q231 117 330 117H402L474 663ZM48 408Q61 509 88 579.5Q115 650 159 694.5Q203 739 264.5 759.5Q326 780 408 780H953L938 663H608L581 456H860L845 340H565L536 117H866L851 0H325Q242 0 182.5 20Q123 40 87.5 84Q52 128 40.5 198.5Q29 269 43 370Z" glyph-name="OE" horiz-adv-x="940" unicode="&#338;" /><glyph d="M489 410Q507 546 483.5 611Q460 676 378 676H368Q327 676 296 659Q265 642 243 608.5Q221 575 207 524.5Q193 474 184 408L179 370Q161 234 184.5 169Q208 104 290 104H300Q382 104 424.5 171.5Q467 239 484 372ZM620 372Q606 271 579.5 198Q553 125 512 78Q471 31 416 9Q361 -13 291 -13Q213 -13 159.5 8.5Q106 30 75.5 76Q45 122 37 195Q29 268 43 370L48 408Q61 509 88 582Q115 655 156 702Q197 749 252 771Q307 793 377 793Q455 793 508.5 771.5Q562 750 592.5 704Q623 658 630.5 585Q638 512 625 410ZM537 950 459 840H329L400 950Z" glyph-name="Oacute" horiz-adv-x="665" unicode="&#211;" /><glyph d="M489 410Q507 546 483.5 611Q460 676 378 676H368Q327 676 296 659Q265 642 243 608.5Q221 575 207 524.5Q193 474 184 408L179 370Q161 234 184.5 169Q208 104 290 104H300Q382 104 424.5 171.5Q467 239 484 372ZM620 372Q606 271 579.5 198Q553 125 512 78Q471 31 416 9Q361 -13 291 -13Q213 -13 159.5 8.5Q106 30 75.5 76Q45 122 37 195Q29 268 43 370L48 408Q61 509 88 582Q115 655 156 702Q197 749 252 771Q307 793 377 793Q455 793 508.5 771.5Q562 750 592.5 704Q623 658 630.5 585Q638 512 625 410ZM392 826Q342 826 310.5 836Q279 846 261.5 862.5Q244 879 239.5 901.5Q235 924 238 950H328Q324 927 341 914Q358 901 400 901Q442 901 462 914Q482 927 486 950H580Q577 924 566 901.5Q555 879 533 862.5Q511 846 476.5 836Q442 826 392 826Z" glyph-name="Obreve" horiz-adv-x="665" unicode="&#334;" /><glyph d="M489 410Q507 546 483.5 611Q460 676 378 676H368Q327 676 296 659Q265 642 243 608.5Q221 575 207 524.5Q193 474 184 408L179 370Q161 234 184.5 169Q208 104 290 104H300Q382 104 424.5 171.5Q467 239 484 372ZM620 372Q606 271 579.5 198Q553 125 512 78Q471 31 416 9Q361 -13 291 -13Q213 -13 159.5 8.5Q106 30 75.5 76Q45 122 37 195Q29 268 43 370L48 408Q61 509 88 582Q115 655 156 702Q197 749 252 771Q307 793 377 793Q455 793 508.5 771.5Q562 750 592.5 704Q623 658 630.5 585Q638 512 625 410ZM210 840 344 950H474L578 840H460L403 892L332 840Z" glyph-name="Ocircumflex" horiz-adv-x="665" unicode="&#212;" /><glyph d="M489 410Q507 546 483.5 611Q460 676 378 676H368Q327 676 296 659Q265 642 243 608.5Q221 575 207 524.5Q193 474 184 408L179 370Q161 234 184.5 169Q208 104 290 104H300Q382 104 424.5 171.5Q467 239 484 372ZM620 372Q606 271 579.5 198Q553 125 512 78Q471 31 416 9Q361 -13 291 -13Q213 -13 159.5 8.5Q106 30 75.5 76Q45 122 37 195Q29 268 43 370L48 408Q61 509 88 582Q115 655 156 702Q197 749 252 771Q307 793 377 793Q455 793 508.5 771.5Q562 750 592.5 704Q623 658 630.5 585Q638 512 625 410ZM538 849H422L434 941H550ZM368 849H252L264 941H380Z" glyph-name="Odieresis" horiz-adv-x="665" unicode="&#214;" /><glyph d="M489 410Q507 546 483.5 611Q460 676 378 676H368Q327 676 296 659Q265 642 243 608.5Q221 575 207 524.5Q193 474 184 408L179 370Q161 234 184.5 169Q208 104 290 104H300Q382 104 424.5 171.5Q467 239 484 372ZM620 372Q606 271 579.5 198Q553 125 512 78Q471 31 416 9Q361 -13 291 -13Q213 -13 159.5 8.5Q106 30 75.5 76Q45 122 37 195Q29 268 43 370L48 408Q61 509 88 582Q115 655 156 702Q197 749 252 771Q307 793 377 793Q455 793 508.5 771.5Q562 750 592.5 704Q623 658 630.5 585Q638 512 625 410ZM418 950 459 840H329L281 950Z" glyph-name="Ograve" horiz-adv-x="665" unicode="&#210;" /><glyph d="M489 410Q507 546 483.5 611Q460 676 378 676H368Q327 676 296 659Q265 642 243 608.5Q221 575 207 524.5Q193 474 184 408L179 370Q161 234 184.5 169Q208 104 290 104H300Q382 104 424.5 171.5Q467 239 484 372ZM620 372Q606 271 579.5 198Q553 125 512 78Q471 31 416 9Q361 -13 291 -13Q213 -13 159.5 8.5Q106 30 75.5 76Q45 122 37 195Q29 268 43 370L48 408Q61 509 88 582Q115 655 156 702Q197 749 252 771Q307 793 377 793Q455 793 508.5 771.5Q562 750 592.5 704Q623 658 630.5 585Q638 512 625 410ZM608 950 530 840H412L484 950ZM448 950 376 840H258L324 950Z" glyph-name="Ohungarumlaut" horiz-adv-x="665" unicode="&#336;" /><glyph d="M489 410Q507 546 483.5 611Q460 676 378 676H368Q327 676 296 659Q265 642 243 608.5Q221 575 207 524.5Q193 474 184 408L179 370Q161 234 184.5 169Q208 104 290 104H300Q382 104 424.5 171.5Q467 239 484 372ZM620 372Q606 271 579.5 198Q553 125 512 78Q471 31 416 9Q361 -13 291 -13Q213 -13 159.5 8.5Q106 30 75.5 76Q45 122 37 195Q29 268 43 370L48 408Q61 509 88 582Q115 655 156 702Q197 749 252 771Q307 793 377 793Q455 793 508.5 771.5Q562 750 592.5 704Q623 658 630.5 585Q638 512 625 410ZM269 937H545L534 853H258Z" glyph-name="Omacron" horiz-adv-x="665" unicode="&#332;" /><glyph d="M472 633Q444 676 378 676H368Q327 676 296 659Q265 642 243 608.5Q221 575 207 524.5Q193 474 184 408L179 370Q174 330 172 296Q170 262 172 236ZM196 147Q224 104 290 104H300Q382 104 424.5 171.5Q467 239 484 372L489 410Q494 450 496 484Q498 518 496 544ZM620 372Q606 271 579.5 198Q553 125 512 78Q471 31 416 9Q361 -13 291 -13Q174 -13 112 36L85 0H-6L66 95Q41 139 36 207.5Q31 276 43 370L48 408Q61 509 88 582Q115 655 156 702Q197 749 252 771Q307 793 377 793Q494 793 556 744L583 780H674L602 685Q627 641 632 572.5Q637 504 625 410Z" glyph-name="Oslash" horiz-adv-x="660" unicode="&#216;" /><glyph d="M489 410Q507 546 483.5 611Q460 676 378 676H368Q327 676 296 659Q265 642 243 608.5Q221 575 207 524.5Q193 474 184 408L179 370Q161 234 184.5 169Q208 104 290 104H300Q382 104 424.5 171.5Q467 239 484 372ZM620 372Q606 271 579.5 198Q553 125 512 78Q471 31 416 9Q361 -13 291 -13Q213 -13 159.5 8.5Q106 30 75.5 76Q45 122 37 195Q29 268 43 370L48 408Q61 509 88 582Q115 655 156 702Q197 749 252 771Q307 793 377 793Q455 793 508.5 771.5Q562 750 592.5 704Q623 658 630.5 585Q638 512 625 410ZM582 943Q577 883 544.5 858Q512 833 470 833Q446 833 427 841Q408 849 392 858Q376 867 361.5 875Q347 883 332 883Q315 883 305 873.5Q295 864 294 847H221Q226 907 258.5 932Q291 957 333 957Q357 957 376 949Q395 941 411 932Q427 923 441.5 915Q456 907 471 907Q488 907 498 916.5Q508 926 509 943Z" glyph-name="Otilde" horiz-adv-x="665" unicode="&#213;" /><glyph d="M316 408Q372 408 407 434.5Q442 461 451 532L452 540Q457 578 450 602Q443 626 428 639.5Q413 653 392 658Q371 663 347 663H233L199 408ZM146 0H12L114 780H350Q396 780 442.5 769.5Q489 759 525 732.5Q561 706 579.5 661Q598 616 589 547L586 525Q576 452 547 406.5Q518 361 478.5 335.5Q439 310 392 300.5Q345 291 299 291H184Z" glyph-name="P" horiz-adv-x="598" unicode="P" /><glyph d="M316 408Q372 408 407 434.5Q442 461 451 532L452 540Q457 578 450 602Q443 626 428 639.5Q413 653 392 658Q371 663 347 663H233L199 408ZM146 0H12L114 780H350Q396 780 442.5 769.5Q489 759 525 732.5Q561 706 579.5 661Q598 616 589 547L586 525Q576 452 547 406.5Q518 361 478.5 335.5Q439 310 392 300.5Q345 291 299 291H184ZM411 849H295L307 941H423Z" glyph-name="Pdotaccent" horiz-adv-x="598" unicode="&#7766;" /><glyph d="M489 410Q507 546 483.5 611Q460 676 378 676H368Q327 676 296 659Q265 642 243 608.5Q221 575 207 524.5Q193 474 184 408L179 370Q161 234 184.5 169Q208 104 290 104L254 251H357L388 131Q426 160 449 220.5Q472 281 484 372ZM341 -100 319 -12Q312 -12 305 -12.5Q298 -13 291 -13Q213 -13 159.5 8.5Q106 30 75.5 76Q45 122 37 195Q29 268 43 370L48 408Q61 509 88 582Q115 655 156 702Q197 749 252 771Q307 793 377 793Q455 793 508.5 771.5Q562 750 592.5 704Q623 658 630.5 585Q638 512 625 410L620 372Q600 220 550 132.5Q500 45 419 10L448 -100Z" glyph-name="Q" horiz-adv-x="665" unicode="Q" /><glyph d="M316 408Q372 408 407 434.5Q442 461 451 532L452 540Q457 578 450 602Q443 626 428 639.5Q413 653 392 658Q371 663 347 663H233L199 408ZM146 0H12L114 780H350Q396 780 442.5 769.5Q489 759 525 732.5Q561 706 579.5 661Q598 616 589 547L586 525Q580 478 565.5 443Q551 408 530.5 382.5Q510 357 485 339.5Q460 322 432 312L517 0H372L299 291H184Z" glyph-name="R" horiz-adv-x="611" unicode="R" /><glyph d="M316 408Q372 408 407 434.5Q442 461 451 532L452 540Q457 578 450 602Q443 626 428 639.5Q413 653 392 658Q371 663 347 663H233L199 408ZM146 0H12L114 780H350Q396 780 442.5 769.5Q489 759 525 732.5Q561 706 579.5 661Q598 616 589 547L586 525Q580 478 565.5 443Q551 408 530.5 382.5Q510 357 485 339.5Q460 322 432 312L517 0H372L299 291H184ZM494 950 416 840H286L357 950Z" glyph-name="Racute" horiz-adv-x="611" unicode="&#340;" /><glyph d="M316 408Q372 408 407 434.5Q442 461 451 532L452 540Q457 578 450 602Q443 626 428 639.5Q413 653 392 658Q371 663 347 663H233L199 408ZM146 0H12L114 780H350Q396 780 442.5 769.5Q489 759 525 732.5Q561 706 579.5 661Q598 616 589 547L586 525Q580 478 565.5 443Q551 408 530.5 382.5Q510 357 485 339.5Q460 322 432 312L517 0H372L299 291H184ZM550 950 416 840H286L182 950H300L357 898L428 950Z" glyph-name="Rcaron" horiz-adv-x="611" unicode="&#344;" /><glyph d="M316 408Q372 408 407 434.5Q442 461 451 532L452 540Q457 578 450 602Q443 626 428 639.5Q413 653 392 658Q371 663 347 663H233L199 408ZM146 0H12L114 780H350Q396 780 442.5 769.5Q489 759 525 732.5Q561 706 579.5 661Q598 616 589 547L586 525Q580 478 565.5 443Q551 408 530.5 382.5Q510 357 485 339.5Q460 322 432 312L517 0H372L299 291H184ZM303 -103Q295 -168 257.5 -195.5Q220 -223 153 -223L160 -170Q191 -170 214.5 -162Q238 -154 246 -133H177L188 -47H310Z" glyph-name="Rcommaaccent" horiz-adv-x="611" unicode="&#342;" /><glyph d="M281 341Q156 364 106 421.5Q56 479 68 566L71 588Q85 689 159.5 741Q234 793 349 793Q496 793 555 724.5Q614 656 597 529L594 507H460Q473 595 446 635.5Q419 676 350 676H340Q284 676 247.5 650Q211 624 206 579L205 571Q202 548 206 529.5Q210 511 225.5 496Q241 481 270 469.5Q299 458 346 449Q471 426 524 368.5Q577 311 564 216L561 194Q547 93 473.5 40Q400 -13 272 -13Q138 -13 70.5 50.5Q3 114 20 241L23 263H157Q143 177 175.5 140.5Q208 104 271 104H281Q344 104 382 129Q420 154 426 203L427 211Q430 235 425 255Q420 275 403.5 291.5Q387 308 357 320.5Q327 333 281 341Z" glyph-name="S" horiz-adv-x="621" unicode="S" /><glyph d="M281 341Q156 364 106 421.5Q56 479 68 566L71 588Q85 689 159.5 741Q234 793 349 793Q496 793 555 724.5Q614 656 597 529L594 507H460Q473 595 446 635.5Q419 676 350 676H340Q284 676 247.5 650Q211 624 206 579L205 571Q202 548 206 529.5Q210 511 225.5 496Q241 481 270 469.5Q299 458 346 449Q471 426 524 368.5Q577 311 564 216L561 194Q547 93 473.5 40Q400 -13 272 -13Q138 -13 70.5 50.5Q3 114 20 241L23 263H157Q143 177 175.5 140.5Q208 104 271 104H281Q344 104 382 129Q420 154 426 203L427 211Q430 235 425 255Q420 275 403.5 291.5Q387 308 357 320.5Q327 333 281 341ZM515 950 437 840H307L378 950Z" glyph-name="Sacute" horiz-adv-x="621" unicode="&#346;" /><glyph d="M281 341Q156 364 106 421.5Q56 479 68 566L71 588Q85 689 159.5 741Q234 793 349 793Q496 793 555 724.5Q614 656 597 529L594 507H460Q473 595 446 635.5Q419 676 350 676H340Q284 676 247.5 650Q211 624 206 579L205 571Q202 548 206 529.5Q210 511 225.5 496Q241 481 270 469.5Q299 458 346 449Q471 426 524 368.5Q577 311 564 216L561 194Q547 93 473.5 40Q400 -13 272 -13Q138 -13 70.5 50.5Q3 114 20 241L23 263H157Q143 177 175.5 140.5Q208 104 271 104H281Q344 104 382 129Q420 154 426 203L427 211Q430 235 425 255Q420 275 403.5 291.5Q387 308 357 320.5Q327 333 281 341ZM571 950 437 840H307L203 950H321L378 898L449 950Z" glyph-name="Scaron" horiz-adv-x="621" unicode="&#352;" /><glyph d="M281 341Q156 364 106 421.5Q56 479 68 566L71 588Q85 689 159.5 741Q234 793 349 793Q496 793 555 724.5Q614 656 597 529L594 507H460Q473 595 446 635.5Q419 676 350 676H340Q284 676 247.5 650Q211 624 206 579L205 571Q202 548 206 529.5Q210 511 225.5 496Q241 481 270 469.5Q299 458 346 449Q471 426 524 368.5Q577 311 564 216L561 194Q547 97 478.5 44Q410 -9 290 -13L274 -45Q311 -48 337.5 -65Q364 -82 364 -120Q364 -165 329 -189.5Q294 -214 237 -214Q203 -214 177.5 -207Q152 -200 138 -190L166 -131Q192 -147 238 -147Q289 -147 289 -121Q289 -97 243 -97Q235 -97 228 -97.5Q221 -98 216 -99Q210 -100 205 -101L192 -75L225 -11Q113 0 58.5 62.5Q4 125 20 241L23 263H157Q143 177 175.5 140.5Q208 104 271 104H281Q344 104 382 129Q420 154 426 203L427 211Q430 235 425 255Q420 275 403.5 291.5Q387 308 357 320.5Q327 333 281 341Z" glyph-name="Scedilla" horiz-adv-x="621" unicode="&#350;" /><glyph d="M281 341Q156 364 106 421.5Q56 479 68 566L71 588Q85 689 159.5 741Q234 793 349 793Q496 793 555 724.5Q614 656 597 529L594 507H460Q473 595 446 635.5Q419 676 350 676H340Q284 676 247.5 650Q211 624 206 579L205 571Q202 548 206 529.5Q210 511 225.5 496Q241 481 270 469.5Q299 458 346 449Q471 426 524 368.5Q577 311 564 216L561 194Q547 93 473.5 40Q400 -13 272 -13Q138 -13 70.5 50.5Q3 114 20 241L23 263H157Q143 177 175.5 140.5Q208 104 271 104H281Q344 104 382 129Q420 154 426 203L427 211Q430 235 425 255Q420 275 403.5 291.5Q387 308 357 320.5Q327 333 281 341ZM188 840 322 950H452L556 840H438L381 892L310 840Z" glyph-name="Scircumflex" horiz-adv-x="621" unicode="&#348;" /><glyph d="M281 341Q156 364 106 421.5Q56 479 68 566L71 588Q85 689 159.5 741Q234 793 349 793Q496 793 555 724.5Q614 656 597 529L594 507H460Q473 595 446 635.5Q419 676 350 676H340Q284 676 247.5 650Q211 624 206 579L205 571Q202 548 206 529.5Q210 511 225.5 496Q241 481 270 469.5Q299 458 346 449Q471 426 524 368.5Q577 311 564 216L561 194Q547 93 473.5 40Q400 -13 272 -13Q138 -13 70.5 50.5Q3 114 20 241L23 263H157Q143 177 175.5 140.5Q208 104 271 104H281Q344 104 382 129Q420 154 426 203L427 211Q430 235 425 255Q420 275 403.5 291.5Q387 308 357 320.5Q327 333 281 341ZM309 -103Q301 -168 263.5 -195.5Q226 -223 159 -223L166 -170Q197 -170 220.5 -162Q244 -154 252 -133H183L194 -47H316Z" glyph-name="Scommaaccent" horiz-adv-x="621" unicode="&#536;" /><glyph d="M290 0H156L243 663H57L72 780H578L563 663H377Z" glyph-name="T" horiz-adv-x="544" unicode="T" /><glyph d="M349 450H467L453 348H335L290 0H156L201 348H83L97 450H215L243 663H57L72 780H578L563 663H377Z" glyph-name="Tbar" horiz-adv-x="544" unicode="&#358;" /><glyph d="M290 0H156L243 663H57L72 780H578L563 663H377ZM532 950 398 840H268L164 950H282L339 898L410 950Z" glyph-name="Tcaron" horiz-adv-x="544" unicode="&#356;" /><glyph d="M290 0H156L243 663H57L72 780H578L563 663H377ZM270 -103Q262 -168 224.5 -195.5Q187 -223 120 -223L127 -170Q158 -170 181.5 -162Q205 -154 213 -133H144L155 -47H277Z" glyph-name="Tcommaaccent" horiz-adv-x="544" unicode="&#354;" /><glyph d="M290 0H156L243 663H57L72 780H578L563 663H377ZM392 849H276L288 941H404Z" glyph-name="Tdotaccent" horiz-adv-x="544" unicode="&#7786;" /><glyph d="M12 0 114 780H248L229 635H331Q377 635 423.5 624.5Q470 614 506 587.5Q542 561 560.5 516Q579 471 570 402L567 380Q557 307 528 261.5Q499 216 459.5 190.5Q420 165 373 155.5Q326 146 280 146H165L146 0ZM297 263Q353 263 388 289.5Q423 316 432 387L433 395Q438 433 431 457Q424 481 409 494.5Q394 508 373 513Q352 518 328 518H214L180 263Z" glyph-name="Thorn" horiz-adv-x="598" unicode="&#222;" /><glyph d="M287 -13Q213 -13 161.5 3.5Q110 20 80 52.5Q50 85 40.5 133Q31 181 39 245L109 780H243L174 254Q169 216 172 187.5Q175 159 188 140.5Q201 122 225 113Q249 104 287 104Q362 104 400 137.5Q438 171 448 247L518 780H652L581 237Q572 172 552 124.5Q532 77 496.5 46.5Q461 16 409.5 1.5Q358 -13 287 -13Z" glyph-name="U" horiz-adv-x="655" unicode="U" /><glyph d="M287 -13Q213 -13 161.5 3.5Q110 20 80 52.5Q50 85 40.5 133Q31 181 39 245L109 780H243L174 254Q169 216 172 187.5Q175 159 188 140.5Q201 122 225 113Q249 104 287 104Q362 104 400 137.5Q438 171 448 247L518 780H652L581 237Q572 172 552 124.5Q532 77 496.5 46.5Q461 16 409.5 1.5Q358 -13 287 -13ZM532 950 454 840H324L395 950Z" glyph-name="Uacute" horiz-adv-x="655" unicode="&#218;" /><glyph d="M287 -13Q213 -13 161.5 3.5Q110 20 80 52.5Q50 85 40.5 133Q31 181 39 245L109 780H243L174 254Q169 216 172 187.5Q175 159 188 140.5Q201 122 225 113Q249 104 287 104Q362 104 400 137.5Q438 171 448 247L518 780H652L581 237Q572 172 552 124.5Q532 77 496.5 46.5Q461 16 409.5 1.5Q358 -13 287 -13ZM387 826Q337 826 305.5 836Q274 846 256.5 862.5Q239 879 234.5 901.5Q230 924 233 950H323Q319 927 336 914Q353 901 395 901Q437 901 457 914Q477 927 481 950H575Q572 924 561 901.5Q550 879 528 862.5Q506 846 471.5 836Q437 826 387 826Z" glyph-name="Ubreve" horiz-adv-x="655" unicode="&#364;" /><glyph d="M287 -13Q213 -13 161.5 3.5Q110 20 80 52.5Q50 85 40.5 133Q31 181 39 245L109 780H243L174 254Q169 216 172 187.5Q175 159 188 140.5Q201 122 225 113Q249 104 287 104Q362 104 400 137.5Q438 171 448 247L518 780H652L581 237Q572 172 552 124.5Q532 77 496.5 46.5Q461 16 409.5 1.5Q358 -13 287 -13ZM205 840 339 950H469L573 840H455L398 892L327 840Z" glyph-name="Ucircumflex" horiz-adv-x="655" unicode="&#219;" /><glyph d="M287 -13Q213 -13 161.5 3.5Q110 20 80 52.5Q50 85 40.5 133Q31 181 39 245L109 780H243L174 254Q169 216 172 187.5Q175 159 188 140.5Q201 122 225 113Q249 104 287 104Q362 104 400 137.5Q438 171 448 247L518 780H652L581 237Q572 172 552 124.5Q532 77 496.5 46.5Q461 16 409.5 1.5Q358 -13 287 -13ZM533 849H417L429 941H545ZM363 849H247L259 941H375Z" glyph-name="Udieresis" horiz-adv-x="655" unicode="&#220;" /><glyph d="M287 -13Q213 -13 161.5 3.5Q110 20 80 52.5Q50 85 40.5 133Q31 181 39 245L109 780H243L174 254Q169 216 172 187.5Q175 159 188 140.5Q201 122 225 113Q249 104 287 104Q362 104 400 137.5Q438 171 448 247L518 780H652L581 237Q572 172 552 124.5Q532 77 496.5 46.5Q461 16 409.5 1.5Q358 -13 287 -13ZM413 950 454 840H324L276 950Z" glyph-name="Ugrave" horiz-adv-x="655" unicode="&#217;" /><glyph d="M287 -13Q213 -13 161.5 3.5Q110 20 80 52.5Q50 85 40.5 133Q31 181 39 245L109 780H243L174 254Q169 216 172 187.5Q175 159 188 140.5Q201 122 225 113Q249 104 287 104Q362 104 400 137.5Q438 171 448 247L518 780H652L581 237Q572 172 552 124.5Q532 77 496.5 46.5Q461 16 409.5 1.5Q358 -13 287 -13ZM603 950 525 840H407L479 950ZM443 950 371 840H253L319 950Z" glyph-name="Uhungarumlaut" horiz-adv-x="655" unicode="&#368;" /><glyph d="M287 -13Q213 -13 161.5 3.5Q110 20 80 52.5Q50 85 40.5 133Q31 181 39 245L109 780H243L174 254Q169 216 172 187.5Q175 159 188 140.5Q201 122 225 113Q249 104 287 104Q362 104 400 137.5Q438 171 448 247L518 780H652L581 237Q572 172 552 124.5Q532 77 496.5 46.5Q461 16 409.5 1.5Q358 -13 287 -13ZM264 937H540L529 853H253Z" glyph-name="Umacron" horiz-adv-x="655" unicode="&#362;" /><glyph d="M403 0Q392 -3 378 -11Q364 -19 352 -30Q340 -41 331.5 -55.5Q323 -70 323 -85Q323 -101 332.5 -110.5Q342 -120 363 -120Q380 -120 393.5 -116.5Q407 -113 415 -108L435 -190Q418 -200 393 -207Q368 -214 338 -214Q281 -214 250 -191.5Q219 -169 219 -120Q219 -88 232.5 -61.5Q246 -35 267 -13Q130 -9 76 56Q22 121 39 245L109 780H243L174 254Q169 216 172 187.5Q175 159 188 140.5Q201 122 225 113Q249 104 287 104Q362 104 400 137.5Q438 171 448 247L518 780H652L581 237Q567 136 526 78.5Q485 21 403 0Z" glyph-name="Uogonek" horiz-adv-x="655" unicode="&#370;" /><glyph d="M287 -13Q213 -13 161.5 3.5Q110 20 80 52.5Q50 85 40.5 133Q31 181 39 245L109 780H243L174 254Q169 216 172 187.5Q175 159 188 140.5Q201 122 225 113Q249 104 287 104Q362 104 400 137.5Q438 171 448 247L518 780H652L581 237Q572 172 552 124.5Q532 77 496.5 46.5Q461 16 409.5 1.5Q358 -13 287 -13ZM444 868Q444 889 431.5 901.5Q419 914 399 914Q376 914 358 899Q340 884 340 855Q340 834 352.5 821.5Q365 809 385 809Q408 809 426 824Q444 839 444 868ZM289 855Q289 878 298 898Q307 918 322 932.5Q337 947 357 955.5Q377 964 399 964Q441 964 468 937.5Q495 911 495 868Q495 845 486 825Q477 805 462 790.5Q447 776 427 767.5Q407 759 385 759Q343 759 316 785.5Q289 812 289 855Z" glyph-name="Uring" horiz-adv-x="655" unicode="&#366;" /><glyph d="M287 -13Q213 -13 161.5 3.5Q110 20 80 52.5Q50 85 40.5 133Q31 181 39 245L109 780H243L174 254Q169 216 172 187.5Q175 159 188 140.5Q201 122 225 113Q249 104 287 104Q362 104 400 137.5Q438 171 448 247L518 780H652L581 237Q572 172 552 124.5Q532 77 496.5 46.5Q461 16 409.5 1.5Q358 -13 287 -13ZM577 943Q572 883 539.5 858Q507 833 465 833Q441 833 422 841Q403 849 387 858Q371 867 356.5 875Q342 883 327 883Q310 883 300 873.5Q290 864 289 847H216Q221 907 253.5 932Q286 957 328 957Q352 957 371 949Q390 941 406 932Q422 923 436.5 915Q451 907 466 907Q483 907 493 916.5Q503 926 504 943Z" glyph-name="Utilde" horiz-adv-x="655" unicode="&#360;" /><glyph d="M173 -4 71 780H212L283 149L519 780H666L359 -4Z" glyph-name="V" horiz-adv-x="631" unicode="V" /><glyph d="M496 628 285 -4H110L79 780H218L227 176L429 780H601L644 176L813 780H951L714 -4H541Z" glyph-name="W" horiz-adv-x="924" unicode="W" /><glyph d="M496 628 285 -4H110L79 780H218L227 176L429 780H601L644 176L813 780H951L714 -4H541ZM666 950 588 840H458L529 950Z" glyph-name="Wacute" horiz-adv-x="924" unicode="&#7810;" /><glyph d="M496 628 285 -4H110L79 780H218L227 176L429 780H601L644 176L813 780H951L714 -4H541ZM339 840 473 950H603L707 840H589L532 892L461 840Z" glyph-name="Wcircumflex" horiz-adv-x="924" unicode="&#372;" /><glyph d="M496 628 285 -4H110L79 780H218L227 176L429 780H601L644 176L813 780H951L714 -4H541ZM667 849H551L563 941H679ZM497 849H381L393 941H509Z" glyph-name="Wdieresis" horiz-adv-x="924" unicode="&#7812;" /><glyph d="M496 628 285 -4H110L79 780H218L227 176L429 780H601L644 176L813 780H951L714 -4H541ZM547 950 588 840H458L410 950Z" glyph-name="Wgrave" horiz-adv-x="924" unicode="&#7808;" /><glyph d="M228 402 75 780H227L335 508L507 780H668L411 395L566 0H414L304 289L134 0H-27Z" glyph-name="X" horiz-adv-x="638" unicode="X" /><glyph d="M323 0H189L220 238L65 780H208L305 403L502 780H651L354 238Z" glyph-name="Y" horiz-adv-x="610" unicode="Y" /><glyph d="M323 0H189L220 238L65 780H208L305 403L502 780H651L354 238ZM509 950 431 840H301L372 950Z" glyph-name="Yacute" horiz-adv-x="610" unicode="&#221;" /><glyph d="M323 0H189L220 238L65 780H208L305 403L502 780H651L354 238ZM182 840 316 950H446L550 840H432L375 892L304 840Z" glyph-name="Ycircumflex" horiz-adv-x="610" unicode="&#374;" /><glyph d="M323 0H189L220 238L65 780H208L305 403L502 780H651L354 238ZM510 849H394L406 941H522ZM340 849H224L236 941H352Z" glyph-name="Ydieresis" horiz-adv-x="610" unicode="&#376;" /><glyph d="M323 0H189L220 238L65 780H208L305 403L502 780H651L354 238ZM390 950 431 840H301L253 950Z" glyph-name="Ygrave" horiz-adv-x="610" unicode="&#7922;" /><glyph d="M323 0H189L220 238L65 780H208L305 403L502 780H651L354 238ZM241 937H517L506 853H230Z" glyph-name="Ymacron" horiz-adv-x="610" unicode="&#562;" /><glyph d="M415 666 277 663H87L102 780H589L577 688L164 114L302 117H512L497 0H-10L2 92Z" glyph-name="Z" horiz-adv-x="587" unicode="Z" /><glyph d="M415 666 277 663H87L102 780H589L577 688L164 114L302 117H512L497 0H-10L2 92ZM494 950 416 840H286L357 950Z" glyph-name="Zacute" horiz-adv-x="587" unicode="&#377;" /><glyph d="M415 666 277 663H87L102 780H589L577 688L164 114L302 117H512L497 0H-10L2 92ZM550 950 416 840H286L182 950H300L357 898L428 950Z" glyph-name="Zcaron" horiz-adv-x="587" unicode="&#381;" /><glyph d="M415 666 277 663H87L102 780H589L577 688L164 114L302 117H512L497 0H-10L2 92ZM410 849H294L306 941H422Z" glyph-name="Zdotaccent" horiz-adv-x="587" unicode="&#379;" /><glyph d="M201 94Q248 94 279 114Q310 134 324 152L338 255L221 237Q186 232 163.5 215.5Q141 199 137 168L136 159Q133 134 148.5 114Q164 94 201 94ZM329 61Q315 44 298.5 30.5Q282 17 261.5 7.5Q241 -2 215 -7.5Q189 -13 156 -13Q114 -13 84 0Q54 13 35 35Q16 57 9 86Q2 115 5 147L6 156Q11 199 27 228Q43 257 69 276Q95 295 130 306Q165 317 207 323L350 345L351 353Q357 401 340.5 421.5Q324 442 273 442Q247 442 229 435Q211 428 199.5 416Q188 404 182.5 388Q177 372 175 355H51L52 364Q56 400 68.5 432.5Q81 465 106.5 489.5Q132 514 173 528.5Q214 543 275 543Q336 543 378 528.5Q420 514 444.5 488Q469 462 477 424.5Q485 387 479 342L454 150L444 0H329Z" glyph-name="a" horiz-adv-x="538" unicode="a" /><glyph d="M201 94Q248 94 279 114Q310 134 324 152L338 255L221 237Q186 232 163.5 215.5Q141 199 137 168L136 159Q133 134 148.5 114Q164 94 201 94ZM329 61Q315 44 298.5 30.5Q282 17 261.5 7.5Q241 -2 215 -7.5Q189 -13 156 -13Q114 -13 84 0Q54 13 35 35Q16 57 9 86Q2 115 5 147L6 156Q11 199 27 228Q43 257 69 276Q95 295 130 306Q165 317 207 323L350 345L351 353Q357 401 340.5 421.5Q324 442 273 442Q247 442 229 435Q211 428 199.5 416Q188 404 182.5 388Q177 372 175 355H51L52 364Q56 400 68.5 432.5Q81 465 106.5 489.5Q132 514 173 528.5Q214 543 275 543Q336 543 378 528.5Q420 514 444.5 488Q469 462 477 424.5Q485 387 479 342L454 150L444 0H329ZM490 780 364 601H234L348 780Z" glyph-name="aacute" horiz-adv-x="538" unicode="&#225;" /><glyph d="M201 94Q248 94 279 114Q310 134 324 152L338 255L221 237Q186 232 163.5 215.5Q141 199 137 168L136 159Q133 134 148.5 114Q164 94 201 94ZM329 61Q315 44 298.5 30.5Q282 17 261.5 7.5Q241 -2 215 -7.5Q189 -13 156 -13Q114 -13 84 0Q54 13 35 35Q16 57 9 86Q2 115 5 147L6 156Q11 199 27 228Q43 257 69 276Q95 295 130 306Q165 317 207 323L350 345L351 353Q357 401 340.5 421.5Q324 442 273 442Q247 442 229 435Q211 428 199.5 416Q188 404 182.5 388Q177 372 175 355H51L52 364Q56 400 68.5 432.5Q81 465 106.5 489.5Q132 514 173 528.5Q214 543 275 543Q336 543 378 528.5Q420 514 444.5 488Q469 462 477 424.5Q485 387 479 342L454 150L444 0H329ZM297 589Q247 589 214.5 603Q182 617 164 642.5Q146 668 141.5 703Q137 738 143 780H236Q230 733 249 711Q268 689 307 689Q346 689 371 711Q396 733 402 780H501Q496 738 482.5 703Q469 668 444 642.5Q419 617 382.5 603Q346 589 297 589Z" glyph-name="abreve" horiz-adv-x="538" unicode="&#259;" /><glyph d="M201 94Q248 94 279 114Q310 134 324 152L338 255L221 237Q186 232 163.5 215.5Q141 199 137 168L136 159Q133 134 148.5 114Q164 94 201 94ZM329 61Q315 44 298.5 30.5Q282 17 261.5 7.5Q241 -2 215 -7.5Q189 -13 156 -13Q114 -13 84 0Q54 13 35 35Q16 57 9 86Q2 115 5 147L6 156Q11 199 27 228Q43 257 69 276Q95 295 130 306Q165 317 207 323L350 345L351 353Q357 401 340.5 421.5Q324 442 273 442Q247 442 229 435Q211 428 199.5 416Q188 404 182.5 388Q177 372 175 355H51L52 364Q56 400 68.5 432.5Q81 465 106.5 489.5Q132 514 173 528.5Q214 543 275 543Q336 543 378 528.5Q420 514 444.5 488Q469 462 477 424.5Q485 387 479 342L454 150L444 0H329ZM380 601 314 693 224 601H104L260 780H384L494 601Z" glyph-name="acircumflex" horiz-adv-x="538" unicode="&#226;" /><glyph d="M471 780 345 601H215L329 780Z" glyph-name="acute" horiz-adv-x="500" unicode="&#180;" /><glyph d="M454 950 376 840H246L317 950Z" glyph-name="acute.cap" horiz-adv-x="500" unicode="&#58402;" /><glyph d="M201 94Q248 94 279 114Q310 134 324 152L338 255L221 237Q186 232 163.5 215.5Q141 199 137 168L136 159Q133 134 148.5 114Q164 94 201 94ZM329 61Q315 44 298.5 30.5Q282 17 261.5 7.5Q241 -2 215 -7.5Q189 -13 156 -13Q114 -13 84 0Q54 13 35 35Q16 57 9 86Q2 115 5 147L6 156Q11 199 27 228Q43 257 69 276Q95 295 130 306Q165 317 207 323L350 345L351 353Q357 401 340.5 421.5Q324 442 273 442Q247 442 229 435Q211 428 199.5 416Q188 404 182.5 388Q177 372 175 355H51L52 364Q56 400 68.5 432.5Q81 465 106.5 489.5Q132 514 173 528.5Q214 543 275 543Q336 543 378 528.5Q420 514 444.5 488Q469 462 477 424.5Q485 387 479 342L454 150L444 0H329ZM472 622H330L349 763H491ZM272 622H130L149 763H291Z" glyph-name="adieresis" horiz-adv-x="538" unicode="&#228;" /><glyph d="M598 442Q547 442 515.5 408.5Q484 375 473 313H695Q702 373 677 407.5Q652 442 598 442ZM201 94Q224 94 245 100.5Q266 107 283 116.5Q300 126 314 137.5Q328 149 338 160Q331 205 338 255L221 237Q186 232 163.5 215.5Q141 199 137 168L136 159Q133 134 148.5 114Q164 94 201 94ZM461 217Q456 152 484.5 120Q513 88 570 88Q598 88 618.5 95Q639 102 652.5 114Q666 126 673.5 140.5Q681 155 683 170H806L805 161Q801 125 784 93Q767 61 737.5 37.5Q708 14 665 0.5Q622 -13 567 -13Q495 -13 447 9.5Q399 32 372 72Q355 57 332.5 41.5Q310 26 282.5 14Q255 2 223.5 -5.5Q192 -13 156 -13Q114 -13 84 0Q54 13 35 35Q16 57 9 86Q2 115 5 147L6 156Q11 199 27 228Q43 257 69 276Q95 295 130 306Q165 317 207 323L350 345L351 353Q357 401 340.5 421.5Q324 442 273 442Q247 442 229 435Q211 428 199.5 416Q188 404 182.5 388Q177 372 175 355H51L52 364Q56 400 68.5 432.5Q81 465 106.5 489.5Q132 514 173 528.5Q214 543 275 543Q343 543 383 525.5Q423 508 442 476Q468 508 507 525.5Q546 543 603 543Q666 543 711 522.5Q756 502 782.5 465.5Q809 429 818 378Q827 327 819 267L812 217Z" glyph-name="ae" horiz-adv-x="863" unicode="&#230;" /><glyph d="M201 94Q248 94 279 114Q310 134 324 152L338 255L221 237Q186 232 163.5 215.5Q141 199 137 168L136 159Q133 134 148.5 114Q164 94 201 94ZM329 61Q315 44 298.5 30.5Q282 17 261.5 7.5Q241 -2 215 -7.5Q189 -13 156 -13Q114 -13 84 0Q54 13 35 35Q16 57 9 86Q2 115 5 147L6 156Q11 199 27 228Q43 257 69 276Q95 295 130 306Q165 317 207 323L350 345L351 353Q357 401 340.5 421.5Q324 442 273 442Q247 442 229 435Q211 428 199.5 416Q188 404 182.5 388Q177 372 175 355H51L52 364Q56 400 68.5 432.5Q81 465 106.5 489.5Q132 514 173 528.5Q214 543 275 543Q336 543 378 528.5Q420 514 444.5 488Q469 462 477 424.5Q485 387 479 342L454 150L444 0H329ZM296 780 364 601H234L154 780Z" glyph-name="agrave" horiz-adv-x="538" unicode="&#224;" /><glyph d="M175 -147Q226 -147 226 -121Q226 -97 180 -97Q165 -97 148.5 -100Q132 -103 127 -105L133 -55Q145 -50 162.5 -47.5Q180 -45 203 -45Q244 -45 272.5 -63.5Q301 -82 301 -120Q301 -165 266 -189.5Q231 -214 174 -214Q140 -214 114.5 -207Q89 -200 75 -190L103 -131Q129 -147 175 -147Z" glyph-name="altcedilla" horiz-adv-x="602" unicode="&#58390;" /><glyph d="M201 94Q248 94 279 114Q310 134 324 152L338 255L221 237Q186 232 163.5 215.5Q141 199 137 168L136 159Q133 134 148.5 114Q164 94 201 94ZM329 61Q315 44 298.5 30.5Q282 17 261.5 7.5Q241 -2 215 -7.5Q189 -13 156 -13Q114 -13 84 0Q54 13 35 35Q16 57 9 86Q2 115 5 147L6 156Q11 199 27 228Q43 257 69 276Q95 295 130 306Q165 317 207 323L350 345L351 353Q357 401 340.5 421.5Q324 442 273 442Q247 442 229 435Q211 428 199.5 416Q188 404 182.5 388Q177 372 175 355H51L52 364Q56 400 68.5 432.5Q81 465 106.5 489.5Q132 514 173 528.5Q214 543 275 543Q336 543 378 528.5Q420 514 444.5 488Q469 462 477 424.5Q485 387 479 342L454 150L444 0H329ZM179 748H457L442 633H164Z" glyph-name="amacron" horiz-adv-x="538" unicode="&#257;" /><glyph d="M226 606Q222 573 232 543.5Q242 514 259 491Q308 519 339 543.5Q370 568 375 607L376 615Q380 644 365 662Q350 680 315 680H305Q270 680 250 662Q230 644 227 615ZM243 101Q275 101 307 110Q339 119 361 136L213 337Q183 320 163.5 291.5Q144 263 139 224L138 216Q132 166 157 133.5Q182 101 238 101ZM225 -13Q167 -13 123 2.5Q79 18 50.5 47Q22 76 10 117Q-2 158 4 209L5 218Q9 258 22 289.5Q35 321 54 346.5Q73 372 96.5 391.5Q120 411 147 426Q132 447 121 467.5Q110 488 103 510Q96 532 94 556.5Q92 581 95 610L96 619Q100 655 115 686.5Q130 718 156.5 741.5Q183 765 222 779Q261 793 312 793Q369 793 408 779Q447 765 470.5 741Q494 717 503 684.5Q512 652 508 616L507 607Q503 569 487.5 540.5Q472 512 448 488Q424 464 392.5 443.5Q361 423 325 402L452 230Q472 264 485.5 302Q499 340 506 388L507 395H644Q635 314 604 249Q573 184 525 130L621 0H461L426 48Q389 20 341 3.5Q293 -13 225 -13Z" glyph-name="ampersand" horiz-adv-x="681" unicode="&amp;" /><glyph d="M162 357 260 -120H127L28 360L253 840H388Z" glyph-name="anglebracketleft" horiz-adv-x="350" unicode="&#12296;" /><glyph d="M357 780 173 387 253 0H115L35 390L218 780Z" glyph-name="anglebracketleft.cap" horiz-adv-x="350" unicode="&#58519;" /><glyph d="M184 363 86 840H219L318 360L93 -120H-42Z" glyph-name="anglebracketright" horiz-adv-x="350" unicode="&#12297;" /><glyph d="M-3 0 181 393 101 780H239L319 390L136 0Z" glyph-name="anglebracketright.cap" horiz-adv-x="350" unicode="&#58520;" /><glyph d="M201 94Q248 94 279 114Q310 134 324 152L338 255L221 237Q186 232 163.5 215.5Q141 199 137 168L136 159Q133 134 148.5 114Q164 94 201 94ZM444 0Q433 -4 419 -12Q405 -20 393 -31Q381 -42 372.5 -56Q364 -70 364 -85Q364 -101 373.5 -110.5Q383 -120 404 -120Q421 -120 434.5 -116.5Q448 -113 456 -108L476 -190Q459 -200 434 -207Q409 -214 379 -214Q322 -214 291 -191.5Q260 -169 260 -120Q260 -82 280 -50Q300 -18 329 5V61Q315 44 298.5 30.5Q282 17 261.5 7.5Q241 -2 215 -7.5Q189 -13 156 -13Q114 -13 84 0Q54 13 35 35Q16 57 9 86Q2 115 5 147L6 156Q11 199 27 228Q43 257 69 276Q95 295 130 306Q165 317 207 323L350 345L351 353Q357 401 340.5 421.5Q324 442 273 442Q247 442 229 435Q211 428 199.5 416Q188 404 182.5 388Q177 372 175 355H51L52 364Q56 400 68.5 432.5Q81 465 106.5 489.5Q132 514 173 528.5Q214 543 275 543Q336 543 378 528.5Q420 514 444.5 488Q469 462 477 424.5Q485 387 479 342L454 150Z" glyph-name="aogonek" horiz-adv-x="538" unicode="&#261;" /><glyph d="M197 580Q240 580 271.5 569.5Q303 559 328.5 546Q354 533 377.5 522.5Q401 512 428 512Q463 512 488.5 529Q514 546 531 563L586 499Q576 485 561.5 469.5Q547 454 527.5 440.5Q508 427 485 418Q462 409 435 409Q392 409 360.5 419.5Q329 430 303.5 443Q278 456 254.5 466.5Q231 477 204 477Q169 477 143.5 460Q118 443 101 426L46 490Q56 503 70.5 519Q85 535 104.5 548.5Q124 562 147 571Q170 580 197 580ZM169 368Q212 368 243.5 357.5Q275 347 300.5 334Q326 321 349.5 310.5Q373 300 400 300Q435 300 460.5 317Q486 334 503 351L558 287Q548 273 533.5 257.5Q519 242 499.5 228.5Q480 215 457 206Q434 197 407 197Q364 197 332.5 207.5Q301 218 275.5 231Q250 244 226.5 254.5Q203 265 176 265Q141 265 115.5 248Q90 231 73 214L18 278Q28 291 42.5 307Q57 323 76.5 336.5Q96 350 119 359Q142 368 169 368Z" glyph-name="approxequal" horiz-adv-x="600" unicode="&#8776;" /><glyph d="M201 94Q248 94 279 114Q310 134 324 152L338 255L221 237Q186 232 163.5 215.5Q141 199 137 168L136 159Q133 134 148.5 114Q164 94 201 94ZM329 61Q315 44 298.5 30.5Q282 17 261.5 7.5Q241 -2 215 -7.5Q189 -13 156 -13Q114 -13 84 0Q54 13 35 35Q16 57 9 86Q2 115 5 147L6 156Q11 199 27 228Q43 257 69 276Q95 295 130 306Q165 317 207 323L350 345L351 353Q357 401 340.5 421.5Q324 442 273 442Q247 442 229 435Q211 428 199.5 416Q188 404 182.5 388Q177 372 175 355H51L52 364Q56 400 68.5 432.5Q81 465 106.5 489.5Q132 514 173 528.5Q214 543 275 543Q336 543 378 528.5Q420 514 444.5 488Q469 462 477 424.5Q485 387 479 342L454 150L444 0H329ZM360 698Q360 719 347.5 731.5Q335 744 315 744Q292 744 274 729Q256 714 256 685Q256 664 268.5 651.5Q281 639 301 639Q324 639 342 654Q360 669 360 698ZM205 685Q205 708 214 728Q223 748 238 762.5Q253 777 273 785.5Q293 794 315 794Q357 794 384 767.5Q411 741 411 698Q411 675 402 655Q393 635 378 620.5Q363 606 343 597.5Q323 589 301 589Q259 589 232 615.5Q205 642 205 685Z" glyph-name="aring" horiz-adv-x="538" unicode="&#229;" /><glyph d="M70 543 401 212V780H519V212L850 543V377L460 -13L70 377Z" glyph-name="arrowdown" horiz-adv-x="920" unicode="&#8595;" /><glyph d="M613 780 282 449H850V331H282L613 0H447L57 390L447 780Z" glyph-name="arrowleft" horiz-adv-x="920" unicode="&#8592;" /><glyph d="M473 780 863 390 473 0H307L638 331H70V449H638L307 780Z" glyph-name="arrowright" horiz-adv-x="920" unicode="&#8594;" /><glyph d="M70 403 460 793 850 403V237L519 568V0H401V568L70 237Z" glyph-name="arrowup" horiz-adv-x="920" unicode="&#8593;" /><glyph d="M565 267H438L337 638L140 267H7L289 780H417Z" glyph-name="asciicircum" horiz-adv-x="600" unicode="^" /><glyph d="M183 474Q226 474 257.5 463.5Q289 453 314.5 440Q340 427 363.5 416.5Q387 406 414 406Q449 406 474.5 423Q500 440 517 457L572 393Q562 379 547.5 363.5Q533 348 513.5 334.5Q494 321 471 312Q448 303 421 303Q378 303 346.5 313.5Q315 324 289.5 337Q264 350 240.5 360.5Q217 371 190 371Q155 371 129.5 354Q104 337 87 320L32 384Q42 397 56.5 413Q71 429 90.5 442.5Q110 456 133 465Q156 474 183 474Z" glyph-name="asciitilde" horiz-adv-x="600" unicode="~" /><glyph d="M292 426 230 540 290 580 361 472ZM432 629 294 592 282 656 417 703ZM70 472 169 580 219 540 127 426ZM74 703 197 656 167 592 39 629ZM297 800 274 663H207L220 800Z" glyph-name="asterisk" horiz-adv-x="405" unicode="*" /><glyph d="M575 382Q566 400 541.5 420Q517 440 479 440Q425 440 398.5 403.5Q372 367 364 308L361 286Q357 257 359.5 232Q362 207 372.5 189Q383 171 401 160.5Q419 150 445 150Q464 150 480.5 155.5Q497 161 510.5 170Q524 179 534.5 189Q545 199 552 208ZM450 -124Q495 -124 542 -116Q589 -108 633.5 -93.5Q678 -79 718 -59Q758 -39 790 -14L835 -86Q783 -124 731.5 -149Q680 -174 630 -188Q580 -202 532.5 -207.5Q485 -213 441 -213Q339 -213 254 -180.5Q169 -148 111 -86Q53 -24 26.5 66.5Q0 157 15 273L20 311Q35 427 82.5 516.5Q130 606 201 667.5Q272 729 362 761Q452 793 553 793Q646 793 726 770Q806 747 862 698.5Q918 650 944.5 574.5Q971 499 957 395L952 357Q940 267 910.5 209.5Q881 152 839 118.5Q797 85 744.5 72.5Q692 60 634 60H553L551 123Q542 108 527 94Q512 80 492.5 69.5Q473 59 451 53Q429 47 405 47Q354 47 319.5 66Q285 85 265 117Q245 149 239 192.5Q233 236 240 285L243 307Q250 356 266.5 399Q283 442 310 474Q337 506 375 524.5Q413 543 463 543Q517 543 548.5 519Q580 495 596 462L615 530H717L691 390L659 147Q699 147 732 156Q765 165 790.5 188.5Q816 212 833.5 252.5Q851 293 859 357L864 395Q876 484 853.5 543.5Q831 603 786.5 638.5Q742 674 681 689Q620 704 554 704H544Q459 704 386 679Q313 654 256.5 604.5Q200 555 163 481.5Q126 408 113 311L108 273Q95 175 114.5 100.5Q134 26 179 -24Q224 -74 290.5 -99Q357 -124 440 -124Z" glyph-name="at" horiz-adv-x="981" unicode="@" /><glyph d="M588 482Q579 500 554.5 520Q530 540 492 540Q438 540 411.5 503.5Q385 467 377 408L374 386Q370 357 372.5 332Q375 307 385.5 289Q396 271 414 260.5Q432 250 458 250Q477 250 493.5 255.5Q510 261 523.5 270Q537 279 547.5 289Q558 299 565 308ZM463 -24Q508 -24 555 -16Q602 -8 646.5 6.5Q691 21 731 41Q771 61 803 86L848 14Q796 -24 744.5 -49Q693 -74 643 -88Q593 -102 545.5 -107.5Q498 -113 454 -113Q352 -113 267 -80.5Q182 -48 124 14Q66 76 39.5 166.5Q13 257 28 373L33 411Q48 527 95.5 616.5Q143 706 214 767.5Q285 829 375 861Q465 893 566 893Q659 893 739 870Q819 847 875 798.5Q931 750 957.5 674.5Q984 599 970 495L965 457Q953 367 923.5 309.5Q894 252 852 218.5Q810 185 757.5 172.5Q705 160 647 160H566L564 223Q555 208 540 194Q525 180 505.5 169.5Q486 159 464 153Q442 147 418 147Q367 147 332.5 166Q298 185 278 217Q258 249 252 292.5Q246 336 253 385L256 407Q263 456 279.5 499Q296 542 323 574Q350 606 388 624.5Q426 643 476 643Q530 643 561.5 619Q593 595 609 562L628 630H730L704 490L672 247Q712 247 745 256Q778 265 803.5 288.5Q829 312 846.5 352.5Q864 393 872 457L877 495Q889 584 866.5 643.5Q844 703 799.5 738.5Q755 774 694 789Q633 804 567 804H557Q472 804 399 779Q326 754 269.5 704.5Q213 655 176 581.5Q139 508 126 411L121 373Q108 275 127.5 200.5Q147 126 192 76Q237 26 303.5 1Q370 -24 453 -24Z" glyph-name="at.cap" horiz-adv-x="981" unicode="&#58643;" /><glyph d="M201 94Q248 94 279 114Q310 134 324 152L338 255L221 237Q186 232 163.5 215.5Q141 199 137 168L136 159Q133 134 148.5 114Q164 94 201 94ZM329 61Q315 44 298.5 30.5Q282 17 261.5 7.5Q241 -2 215 -7.5Q189 -13 156 -13Q114 -13 84 0Q54 13 35 35Q16 57 9 86Q2 115 5 147L6 156Q11 199 27 228Q43 257 69 276Q95 295 130 306Q165 317 207 323L350 345L351 353Q357 401 340.5 421.5Q324 442 273 442Q247 442 229 435Q211 428 199.5 416Q188 404 182.5 388Q177 372 175 355H51L52 364Q56 400 68.5 432.5Q81 465 106.5 489.5Q132 514 173 528.5Q214 543 275 543Q336 543 378 528.5Q420 514 444.5 488Q469 462 477 424.5Q485 387 479 342L454 150L444 0H329ZM380 725Q394 725 404.5 733.5Q415 742 418 764H507Q505 727 494 700Q483 673 466 656Q449 639 427.5 630.5Q406 622 384 622Q361 622 342 630.5Q323 639 306 648.5Q289 658 273.5 666.5Q258 675 243 675Q229 675 218.5 666.5Q208 658 205 636H116Q118 673 129 700Q140 727 157 744Q174 761 195 769.5Q216 778 239 778Q262 778 281 769.5Q300 761 317 751.5Q334 742 349.5 733.5Q365 725 380 725Z" glyph-name="atilde" horiz-adv-x="538" unicode="&#227;" /><glyph d="M159 163Q163 153 171 142Q179 131 190.5 121.5Q202 112 218 106Q234 100 254 100Q309 100 340.5 140.5Q372 181 382 252L385 274Q395 345 372.5 387.5Q350 430 294 430Q274 430 257.5 424Q241 418 227.5 409.5Q214 401 203.5 390.5Q193 380 186 371ZM201 483Q221 504 257 523.5Q293 543 344 543Q394 543 430 523Q466 503 487 467.5Q508 432 515 382.5Q522 333 514 275L511 253Q503 196 486 147Q469 98 441.5 62.5Q414 27 375 7Q336 -13 284 -13Q224 -13 188 11Q152 35 134 69L115 0H0L28 150L113 800H243Z" glyph-name="b" horiz-adv-x="563" unicode="b" /><glyph d="M76 840H204L308 -120H180Z" glyph-name="backslash" horiz-adv-x="386" unicode="\" /><glyph d="M202 780 292 0H164L74 780Z" glyph-name="backslash.cap" horiz-adv-x="363" unicode="&#58466;" /><glyph d="M335 348 358 371H441V288L418 265L441 242V159H358L335 182L312 159H229V242L252 265L229 288V371H312ZM186 414V116H484V414ZM600 530V0H70V530Z" glyph-name="ballotboxwithx" horiz-adv-x="680" unicode="&#9746;" /><glyph d="M118 840H246L120 -120H-8Z" glyph-name="bar" horiz-adv-x="243" unicode="|" /><glyph d="M110 780H238L136 0H8Z" glyph-name="bar.cap" horiz-adv-x="243" unicode="&#58467;" /><glyph d="M242 849H126L138 941H254ZM159 163Q163 153 171 142Q179 131 190.5 121.5Q202 112 218 106Q234 100 254 100Q309 100 340.5 140.5Q372 181 382 252L385 274Q395 345 372.5 387.5Q350 430 294 430Q274 430 257.5 424Q241 418 227.5 409.5Q214 401 203.5 390.5Q193 380 186 371ZM201 483Q221 504 257 523.5Q293 543 344 543Q394 543 430 523Q466 503 487 467.5Q508 432 515 382.5Q522 333 514 275L511 253Q503 196 486 147Q469 98 441.5 62.5Q414 27 375 7Q336 -13 284 -13Q224 -13 188 11Q152 35 134 69L115 0H0L28 150L113 800H243Z" glyph-name="bdotaccent" horiz-adv-x="563" unicode="&#7683;" /><glyph d="M57 390Q57 473 88.5 546.5Q120 620 175 674.5Q230 729 303.5 761Q377 793 460 793Q543 793 616.5 761Q690 729 744.5 674.5Q799 620 831 546.5Q863 473 863 390Q863 307 831 233.5Q799 160 744.5 105Q690 50 616.5 18.5Q543 -13 460 -13Q377 -13 303.5 18.5Q230 50 175 105Q120 160 88.5 233.5Q57 307 57 390Z" glyph-name="blackcircle" horiz-adv-x="920" unicode="&#9679;" /><glyph d="M70 0V530H600V0Z" glyph-name="blacksmallsquare" horiz-adv-x="680" unicode="&#9642;" /><glyph d="M70 0V780H850V0Z" glyph-name="blacksquare" horiz-adv-x="920" unicode="&#9632;" /><glyph d="M361 725Q320 725 297 705Q274 685 267 634L246 472Q240 427 223 400.5Q206 374 170 360Q198 346 210 319Q222 292 216 248L195 86Q192 59 194.5 41Q197 23 206 13Q215 3 230 -1Q245 -5 265 -5L250 -120H225Q186 -120 152.5 -110.5Q119 -101 96.5 -81Q74 -61 63.5 -29.5Q53 2 59 46L83 225Q89 268 71 285Q53 302 15 302L30 418Q70 418 91.5 434.5Q113 451 119 498L142 670Q148 718 166.5 751Q185 784 212.5 803.5Q240 823 275 831.5Q310 840 351 840H376Z" glyph-name="braceleft" horiz-adv-x="350" unicode="{" /><glyph d="M352 665Q311 665 288 645Q265 625 258 574L249 502Q243 457 226 430.5Q209 404 173 390Q201 376 213 349Q225 322 219 278L210 206Q207 179 209.5 161Q212 143 221 133Q230 123 245 119Q260 115 280 115L265 0H240Q201 0 167.5 9.5Q134 19 111.5 39Q89 59 78.5 90.5Q68 122 74 166L86 255Q92 298 74 315Q56 332 18 332L33 448Q73 448 94.5 464.5Q116 481 122 528L133 610Q139 658 157.5 691Q176 724 203.5 743.5Q231 763 266 771.5Q301 780 342 780H367Z" glyph-name="braceleft.cap" horiz-adv-x="350" unicode="&#58517;" /><glyph d="M-14 -5Q27 -5 50 15Q73 35 80 86L101 248Q107 293 124 319.5Q141 346 177 360Q149 374 137 401Q125 428 131 472L152 634Q159 689 140.5 707Q122 725 82 725L97 840H122Q161 840 194.5 830.5Q228 821 250.5 801Q273 781 283.5 749.5Q294 718 288 674L264 495Q258 452 276 435Q294 418 332 418L317 302Q277 302 255.5 285.5Q234 269 228 222L205 50Q199 2 180.5 -31Q162 -64 134.5 -83.5Q107 -103 71.5 -111.5Q36 -120 -4 -120H-29Z" glyph-name="braceright" horiz-adv-x="350" unicode="}" /><glyph d="M1 115Q42 115 65 135Q88 155 95 206L104 278Q110 323 127 349.5Q144 376 180 390Q152 404 140 431Q128 458 134 502L143 574Q150 629 131.5 647Q113 665 73 665L88 780H113Q152 780 185.5 770.5Q219 761 241.5 741Q264 721 274.5 689.5Q285 658 279 614L267 525Q261 482 279 465Q297 448 335 448L320 332Q280 332 258.5 315.5Q237 299 231 252L220 170Q214 122 195.5 89Q177 56 149.5 36.5Q122 17 86.5 8.5Q51 0 11 0H-14Z" glyph-name="braceright.cap" horiz-adv-x="350" unicode="&#58518;" /><glyph d="M376 840 361 725H237L141 -5H265L250 -120H-4L122 840Z" glyph-name="bracketleft" horiz-adv-x="350" unicode="[" /><glyph d="M368 780 353 665H229L157 115H281L266 0H12L114 780Z" glyph-name="bracketleft.cap" horiz-adv-x="350" unicode="&#58515;" /><glyph d="M-29 -120 -14 -5H110L206 725H82L97 840H351L225 -120Z" glyph-name="bracketright" horiz-adv-x="350" unicode="]" /><glyph d="M-13 0 2 115H126L198 665H74L89 780H343L241 0Z" glyph-name="bracketright.cap" horiz-adv-x="350" unicode="&#58516;" /><glyph d="M278 589Q228 589 195.5 603Q163 617 145 642.5Q127 668 122.5 703Q118 738 124 780H217Q211 733 230 711Q249 689 288 689Q327 689 352 711Q377 733 383 780H482Q477 738 463.5 703Q450 668 425 642.5Q400 617 363.5 603Q327 589 278 589Z" glyph-name="breve" horiz-adv-x="500" unicode="&#728;" /><glyph d="M309 826Q259 826 227.5 836Q196 846 178.5 862.5Q161 879 156.5 901.5Q152 924 155 950H245Q241 927 258 914Q275 901 317 901Q359 901 379 914Q399 927 403 950H497Q494 924 483 901.5Q472 879 450 862.5Q428 846 393.5 836Q359 826 309 826Z" glyph-name="breve.cap" horiz-adv-x="500" unicode="&#58406;" /><glyph d="M187 387H59L118 840H246ZM51 333H179L120 -120H-8Z" glyph-name="brokenbar" horiz-adv-x="243" unicode="&#166;" /><glyph d="M238 780 191 417H63L110 780ZM8 0 55 363H183L136 0Z" glyph-name="brokenbar.cap" horiz-adv-x="243" unicode="&#58469;" /><glyph d="M342 199H41L81 501H382Z" glyph-name="bullet" horiz-adv-x="430" unicode="&#8226;" /><glyph d="M347 239H46L86 541H387Z" glyph-name="bullet.cap" horiz-adv-x="430" unicode="&#58470;" /><glyph d="M150 256Q140 184 161.5 142Q183 100 236 100Q286 100 312 126Q338 152 343 193H466L465 184Q460 143 444.5 107.5Q429 72 400.5 45Q372 18 330.5 2.5Q289 -13 233 -13Q173 -13 129.5 8Q86 29 59.5 65Q33 101 23 150Q13 199 21 255L24 277Q32 334 49.5 382.5Q67 431 97.5 466.5Q128 502 172.5 522.5Q217 543 278 543Q335 543 377 528.5Q419 514 445 488Q471 462 482 426.5Q493 391 487 350L484 328H361Q366 373 346 401.5Q326 430 275 430Q226 430 195 392.5Q164 355 153 278Z" glyph-name="c" horiz-adv-x="525" unicode="c" /><glyph d="M150 256Q140 184 161.5 142Q183 100 236 100Q286 100 312 126Q338 152 343 193H466L465 184Q460 143 444.5 107.5Q429 72 400.5 45Q372 18 330.5 2.5Q289 -13 233 -13Q173 -13 129.5 8Q86 29 59.5 65Q33 101 23 150Q13 199 21 255L24 277Q32 334 49.5 382.5Q67 431 97.5 466.5Q128 502 172.5 522.5Q217 543 278 543Q335 543 377 528.5Q419 514 445 488Q471 462 482 426.5Q493 391 487 350L484 328H361Q366 373 346 401.5Q326 430 275 430Q226 430 195 392.5Q164 355 153 278ZM491 780 365 601H235L349 780Z" glyph-name="cacute" horiz-adv-x="525" unicode="&#263;" /><glyph d="M222 780 288 688 378 780H498L342 601H218L108 780Z" glyph-name="caron" horiz-adv-x="500" unicode="&#711;" /><glyph d="M510 950 376 840H246L142 950H260L317 898L388 950Z" glyph-name="caron.cap" horiz-adv-x="500" unicode="&#58413;" /><glyph d="M452 800 403 601H341L367 800Z" glyph-name="caronSlovak" horiz-adv-x="500" unicode="&#58387;" /><glyph d="M150 256Q140 184 161.5 142Q183 100 236 100Q286 100 312 126Q338 152 343 193H466L465 184Q460 143 444.5 107.5Q429 72 400.5 45Q372 18 330.5 2.5Q289 -13 233 -13Q173 -13 129.5 8Q86 29 59.5 65Q33 101 23 150Q13 199 21 255L24 277Q32 334 49.5 382.5Q67 431 97.5 466.5Q128 502 172.5 522.5Q217 543 278 543Q335 543 377 528.5Q419 514 445 488Q471 462 482 426.5Q493 391 487 350L484 328H361Q366 373 346 401.5Q326 430 275 430Q226 430 195 392.5Q164 355 153 278ZM242 780 308 688 398 780H518L362 601H238L128 780Z" glyph-name="ccaron" horiz-adv-x="525" unicode="&#269;" /><glyph d="M150 256Q140 184 161.5 142Q183 100 236 100Q286 100 312 126Q338 152 343 193H466L465 184Q460 145 445.5 110.5Q431 76 404.5 49.5Q378 23 340 6.5Q302 -10 250 -12L234 -45Q271 -48 297.5 -65Q324 -82 324 -120Q324 -165 289 -189.5Q254 -214 197 -214Q163 -214 137.5 -207Q112 -200 98 -190L126 -131Q152 -147 198 -147Q249 -147 249 -121Q249 -97 203 -97Q195 -97 188 -97.5Q181 -98 176 -99Q170 -100 165 -101L152 -75L186 -9Q138 -2 103.5 21.5Q69 45 48.5 80Q28 115 21 159.5Q14 204 21 255L24 277Q32 334 49.5 382.5Q67 431 97.5 466.5Q128 502 172.5 522.5Q217 543 278 543Q335 543 377 528.5Q419 514 445 488Q471 462 482 426.5Q493 391 487 350L484 328H361Q366 373 346 401.5Q326 430 275 430Q226 430 195 392.5Q164 355 153 278Z" glyph-name="ccedilla" horiz-adv-x="525" unicode="&#231;" /><glyph d="M150 256Q140 184 161.5 142Q183 100 236 100Q286 100 312 126Q338 152 343 193H466L465 184Q460 143 444.5 107.5Q429 72 400.5 45Q372 18 330.5 2.5Q289 -13 233 -13Q173 -13 129.5 8Q86 29 59.5 65Q33 101 23 150Q13 199 21 255L24 277Q32 334 49.5 382.5Q67 431 97.5 466.5Q128 502 172.5 522.5Q217 543 278 543Q335 543 377 528.5Q419 514 445 488Q471 462 482 426.5Q493 391 487 350L484 328H361Q366 373 346 401.5Q326 430 275 430Q226 430 195 392.5Q164 355 153 278ZM381 601 315 693 225 601H105L261 780H385L495 601Z" glyph-name="ccircumflex" horiz-adv-x="525" unicode="&#265;" /><glyph d="M150 256Q140 184 161.5 142Q183 100 236 100Q286 100 312 126Q338 152 343 193H466L465 184Q460 143 444.5 107.5Q429 72 400.5 45Q372 18 330.5 2.5Q289 -13 233 -13Q173 -13 129.5 8Q86 29 59.5 65Q33 101 23 150Q13 199 21 255L24 277Q32 334 49.5 382.5Q67 431 97.5 466.5Q128 502 172.5 522.5Q217 543 278 543Q335 543 377 528.5Q419 514 445 488Q471 462 482 426.5Q493 391 487 350L484 328H361Q366 373 346 401.5Q326 430 275 430Q226 430 195 392.5Q164 355 153 278ZM373 622H231L250 763H392Z" glyph-name="cdotaccent" horiz-adv-x="525" unicode="&#267;" /><glyph d="M103 -131Q129 -147 175 -147Q226 -147 226 -121Q226 -97 180 -97Q172 -97 165 -97.5Q158 -98 153 -99Q147 -100 142 -101L129 -75L168 0H234L211 -45Q248 -48 274.5 -65Q301 -82 301 -120Q301 -165 266 -189.5Q231 -214 174 -214Q140 -214 114.5 -207Q89 -200 75 -190Z" glyph-name="cedilla" horiz-adv-x="602" unicode="&#184;" /><glyph d="M179 386Q171 330 173.5 291.5Q176 253 186 228L329 615Q305 615 282 605.5Q259 596 239.5 572.5Q220 549 205 509Q190 469 182 408ZM465 706Q523 680 551.5 627Q580 574 569 492L566 470H439Q444 512 438.5 538.5Q433 565 419 582L266 168Q272 167 278 167Q284 167 290 167Q315 167 336 172.5Q357 178 373.5 192Q390 206 401 230Q412 254 416 291H543L542 282Q537 234 517.5 192Q498 150 465.5 119Q433 88 388 70Q343 52 287 52Q270 52 254.5 53Q239 54 225 56L182 -60H80L135 88Q17 161 47 385L50 407Q62 493 85.5 554.5Q109 616 145 655Q181 694 229.5 712Q278 730 339 730Q347 730 355 729.5Q363 729 371 728L413 840H515Z" glyph-name="cent" horiz-adv-x="600" unicode="&#162;" /><glyph d="M361 601 295 693 205 601H85L241 780H365L475 601Z" glyph-name="circumflex" horiz-adv-x="500" unicode="&#710;" /><glyph d="M127 840 261 950H391L495 840H377L320 892L249 840Z" glyph-name="circumflex.cap" horiz-adv-x="500" unicode="&#58403;" /><glyph d="M349 0Q368 37 381.5 73Q395 109 404.5 147Q414 185 420.5 227Q427 269 431 320L428 321Q415 290 396 261Q377 232 352 209.5Q327 187 296 173.5Q265 160 228 160Q191 160 159 173.5Q127 187 103 210.5Q79 234 65.5 265.5Q52 297 52 334Q52 373 64.5 406Q77 439 100 463Q123 487 155 500.5Q187 514 226 514Q252 514 272.5 507Q293 500 310 491L312 493Q295 518 284.5 547.5Q274 577 274 610Q274 647 287.5 680Q301 713 324.5 737.5Q348 762 380 776Q412 790 450 790Q488 790 520 776Q552 762 575.5 737.5Q599 713 612.5 680Q626 647 626 610Q626 577 615.5 547.5Q605 518 588 493L590 491Q607 500 627.5 507Q648 514 674 514Q713 514 745 500.5Q777 487 800 463Q823 439 835.5 406Q848 373 848 334Q848 297 834.5 265.5Q821 234 797 210.5Q773 187 741 173.5Q709 160 672 160Q635 160 604 173.5Q573 187 548 209.5Q523 232 504 261Q485 290 472 321L469 320Q473 269 479.5 227Q486 185 495.5 147Q505 109 518.5 73Q532 37 551 0Z" glyph-name="club" horiz-adv-x="900" unicode="&#9827;" /><glyph d="M188 319H46L65 460H207ZM147 0H5L24 141H166Z" glyph-name="colon" horiz-adv-x="250" unicode=":" /><glyph d="M213 319H71L90 460H232ZM172 0H30L49 141H191Z" glyph-name="colon.T" horiz-adv-x="300" unicode="&#61828;" /><glyph d="M151 30Q128 -135 -24 -135L-15 -67Q55 -67 77 0H5L24 141H166Z" glyph-name="comma" horiz-adv-x="250" unicode="," /><glyph d="M176 30Q153 -135 1 -135L10 -67Q80 -67 102 0H30L49 141H191Z" glyph-name="comma.T" horiz-adv-x="300" unicode="&#61827;" /><glyph d="M248 -103Q240 -168 202.5 -195.5Q165 -223 98 -223L105 -170Q136 -170 159.5 -162Q183 -154 191 -133H122L133 -47H255Z" glyph-name="commaaccent" horiz-adv-x="602" unicode="&#58388;" /><glyph d="M257 870Q263 916 296 941Q329 966 392 966L387 928Q363 928 343 922.5Q323 917 314 900H376L369 840H253Z" glyph-name="commaaccent.cap" horiz-adv-x="500" unicode="&#58414;" /><glyph d="M463 246Q510 246 529.5 269.5Q549 293 549 322H661V304Q661 273 649.5 243.5Q638 214 613 191.5Q588 169 550 155.5Q512 142 460 142Q403 142 362.5 160.5Q322 179 296 211Q270 243 258 285.5Q246 328 246 375V405Q246 452 258 494.5Q270 537 296 569Q322 601 362.5 619.5Q403 638 460 638Q512 638 550 624Q588 610 613 586.5Q638 563 649.5 532.5Q661 502 661 468V449H549Q549 485 529 509.5Q509 534 463 534Q436 534 417.5 524Q399 514 387 496.5Q375 479 370 455.5Q365 432 365 405V375Q365 348 370 324.5Q375 301 387 283.5Q399 266 417.5 256Q436 246 463 246ZM109 390Q109 317 136.5 253Q164 189 211.5 141.5Q259 94 323 66.5Q387 39 460 39Q533 39 597 66.5Q661 94 708.5 141.5Q756 189 783.5 253Q811 317 811 390Q811 463 783.5 527Q756 591 708.5 638.5Q661 686 597 713.5Q533 741 460 741Q387 741 323 713.5Q259 686 211.5 638.5Q164 591 136.5 527Q109 463 109 390ZM57 390Q57 473 88.5 546.5Q120 620 175 674.5Q230 729 303.5 761Q377 793 460 793Q543 793 616.5 761Q690 729 744.5 674.5Q799 620 831 546.5Q863 473 863 390Q863 307 831 233.5Q799 160 744.5 105Q690 50 616.5 18.5Q543 -13 460 -13Q377 -13 303.5 18.5Q230 50 175 105Q120 160 88.5 233.5Q57 307 57 390Z" glyph-name="copyright" horiz-adv-x="920" unicode="&#169;" /><glyph d="M285 430Q230 430 198.5 389.5Q167 349 157 278L154 256Q144 185 166.5 142.5Q189 100 245 100Q265 100 281.5 106Q298 112 311.5 120.5Q325 129 335.5 139.5Q346 150 353 159L380 367Q375 377 367.5 388Q360 399 348.5 408.5Q337 418 321 424Q305 430 285 430ZM195 -13Q145 -13 109 7Q73 27 52 62.5Q31 98 24 147Q17 196 25 255L28 277Q36 334 53 383Q70 432 97.5 467.5Q125 503 164 523Q203 543 255 543Q285 543 308 537Q331 531 347.5 521Q364 511 375.5 499.5Q387 488 395 478L437 800H567L481 150L471 0H356V69Q330 33 288 10Q246 -13 195 -13Z" glyph-name="d" horiz-adv-x="569" unicode="d" /><glyph d="M60 656 194 651 185 583 50 578ZM409 578 275 583 284 651 419 656ZM297 800 274 663H207L220 800ZM195 571H262L250 443L228 315H161L173 443Z" glyph-name="dagger" horiz-adv-x="405" unicode="&#8224;" /><glyph d="M379 349 245 354 254 422 389 427ZM30 427 164 422 155 354 20 349ZM409 578 275 583 284 651 419 656ZM60 656 194 651 185 583 50 578ZM195 571H262L258 502L244 434H177L181 502ZM297 800 274 663H207L220 800ZM165 342H232L220 214L198 86H131L143 214Z" glyph-name="daggerdbl" horiz-adv-x="405" unicode="&#8225;" /><glyph d="M713 800 664 601H602L628 800ZM285 430Q230 430 198.5 389.5Q167 349 157 278L154 256Q144 185 166.5 142.5Q189 100 245 100Q265 100 281.5 106Q298 112 311.5 120.5Q325 129 335.5 139.5Q346 150 353 159L380 367Q375 377 367.5 388Q360 399 348.5 408.5Q337 418 321 424Q305 430 285 430ZM195 -13Q145 -13 109 7Q73 27 52 62.5Q31 98 24 147Q17 196 25 255L28 277Q36 334 53 383Q70 432 97.5 467.5Q125 503 164 523Q203 543 255 543Q285 543 308 537Q331 531 347.5 521Q364 511 375.5 499.5Q387 488 395 478L437 800H567L481 150L471 0H356V69Q330 33 288 10Q246 -13 195 -13Z" glyph-name="dcaron" horiz-adv-x="569" unicode="&#271;" /><glyph d="M285 430Q230 430 198.5 389.5Q167 349 157 278L154 256Q144 185 166.5 142.5Q189 100 245 100Q265 100 281.5 106Q298 112 311.5 120.5Q325 129 335.5 139.5Q346 150 353 159L380 367Q375 377 367.5 388Q360 399 348.5 408.5Q337 418 321 424Q305 430 285 430ZM307 713H425L437 800H567L555 713H631L618 617H543L481 150L471 0H356V69Q330 33 288 10Q246 -13 195 -13Q145 -13 109 7Q73 27 52 62.5Q31 98 24 147Q17 196 25 255L28 277Q36 334 53 383Q70 432 97.5 467.5Q125 503 164 523Q203 543 255 543Q285 543 308 537Q331 531 347.5 521Q364 511 375.5 499.5Q387 488 395 478L413 617H294Z" glyph-name="dcroat" horiz-adv-x="569" unicode="&#273;" /><glyph d="M285 430Q230 430 198.5 389.5Q167 349 157 278L154 256Q144 185 166.5 142.5Q189 100 245 100Q265 100 281.5 106Q298 112 311.5 120.5Q325 129 335.5 139.5Q346 150 353 159L380 367Q375 377 367.5 388Q360 399 348.5 408.5Q337 418 321 424Q305 430 285 430ZM195 -13Q145 -13 109 7Q73 27 52 62.5Q31 98 24 147Q17 196 25 255L28 277Q36 334 53 383Q70 432 97.5 467.5Q125 503 164 523Q203 543 255 543Q285 543 308 537Q331 531 347.5 521Q364 511 375.5 499.5Q387 488 395 478L437 800H567L481 150L471 0H356V69Q330 33 288 10Q246 -13 195 -13ZM566 849H450L462 941H578Z" glyph-name="ddotaccent" horiz-adv-x="569" unicode="&#7691;" /><glyph d="M241 710Q210 710 186 691.5Q162 673 157 637L156 629Q152 596 169 576Q186 556 221 556H227Q258 556 282 574.5Q306 593 311 629L312 637Q316 670 299 690Q282 710 247 710ZM246 793Q284 793 313.5 781.5Q343 770 362.5 749Q382 728 390 699.5Q398 671 394 637L393 629Q388 592 373 563Q358 534 335 514Q312 494 283 483.5Q254 473 222 473Q184 473 154.5 484.5Q125 496 105.5 517Q86 538 78 566.5Q70 595 74 629L75 637Q79 674 94.5 703Q110 732 133 752Q156 772 185 782.5Q214 793 246 793Z" glyph-name="degree" horiz-adv-x="400" unicode="&#176;" /><glyph d="M817 390Q764 348 712.5 300.5Q661 253 614 201.5Q567 150 525.5 96.5Q484 43 451 -10H449Q416 43 374.5 96.5Q333 150 286 201.5Q239 253 187.5 300.5Q136 348 83 390Q136 432 187.5 479.5Q239 527 286 578.5Q333 630 374.5 683.5Q416 737 449 790H451Q484 737 525.5 683.5Q567 630 614 578.5Q661 527 712.5 479.5Q764 432 817 390Z" glyph-name="diamond" horiz-adv-x="900" unicode="&#9830;" /><glyph d="M453 622H311L330 763H472ZM253 622H111L130 763H272Z" glyph-name="dieresis" horiz-adv-x="500" unicode="&#168;" /><glyph d="M455 849H339L351 941H467ZM285 849H169L181 941H297Z" glyph-name="dieresis.cap" horiz-adv-x="500" unicode="&#58409;" /><glyph d="M390 530H248L267 671H409ZM336 109H194L212 250H354ZM53 449H565L549 331H37Z" glyph-name="divide" horiz-adv-x="600" unicode="&#247;" /><glyph d="M209 528Q209 503 224 486Q239 469 277 458L337 621H320Q272 621 240.5 597.5Q209 574 209 528ZM401 255Q401 282 384.5 299Q368 316 330 328L268 160H284Q337 160 369 182Q401 204 401 255ZM470 704Q502 689 522 667Q542 645 552.5 618Q563 591 565 561.5Q567 532 564 502L563 493H433Q441 548 423 578L372 439Q462 418 503 370Q544 322 535 256L532 234Q519 140 454.5 96Q390 52 275 52Q262 52 251 52Q240 52 229 54L187 -60H85L135 77Q73 105 52 156Q31 207 38 266L39 275H170Q161 229 181 200L236 350Q141 375 105 421Q69 467 78 529L81 551Q93 639 160 684.5Q227 730 329 730Q353 730 376 727L418 840H520Z" glyph-name="dollar" horiz-adv-x="600" unicode="$" /><glyph d="M353 622H211L230 763H372Z" glyph-name="dotaccent" horiz-adv-x="500" unicode="&#729;" /><glyph d="M370 849H254L266 941H382Z" glyph-name="dotaccent.cap" horiz-adv-x="500" unicode="&#58408;" /><glyph d="M237 -185H115L131 -62H253Z" glyph-name="dotbelow" horiz-adv-x="602" unicode="&#58389;" /><glyph d="M80 530H210L141 0H11Z" glyph-name="dotlessi" horiz-adv-x="250" unicode="&#305;" /><glyph d="M80 530H210L136 -38Q130 -88 112 -121.5Q94 -155 67 -175.5Q40 -196 5 -204.5Q-30 -213 -72 -213Q-101 -213 -123.5 -208Q-146 -203 -152 -200L-138 -92Q-133 -94 -115.5 -97Q-98 -100 -80 -100Q-45 -100 -22 -85Q1 -70 8 -21Z" glyph-name="dotlessj" horiz-adv-x="252" unicode="&#567;" /><glyph d="M293 840H421L295 -120H167ZM118 840H246L120 -120H-8Z" glyph-name="doublebar" horiz-adv-x="418" unicode="&#8214;" /><glyph d="M311 0H183L285 780H413ZM136 0H8L110 780H238Z" glyph-name="doublebar.cap" horiz-adv-x="418" unicode="&#58468;" /><glyph d="M357 780 407 601H302L240 780ZM191 780 259 601H154L74 780Z" glyph-name="doublegrave" horiz-adv-x="500" unicode="&#58386;" /><glyph d="M251 950 293 840H175L127 950ZM411 950 447 840H329L287 950Z" glyph-name="doublegrave.cap" horiz-adv-x="500" unicode="&#58412;" /><glyph d="M281 442Q230 442 198.5 408.5Q167 375 156 313H378Q385 373 360 407.5Q335 442 281 442ZM144 217Q139 152 167.5 120Q196 88 253 88Q281 88 301.5 95Q322 102 335.5 114Q349 126 356.5 140.5Q364 155 366 170H489L488 161Q484 125 467 93Q450 61 420.5 37.5Q391 14 348 0.5Q305 -13 250 -13Q182 -13 135 8Q88 29 60 65Q32 101 22.5 150Q13 199 21 255L24 277Q31 332 50.5 380.5Q70 429 102 465Q134 501 179.5 522Q225 543 286 543Q349 543 394 522.5Q439 502 465.5 465.5Q492 429 501 378Q510 327 502 267L495 217Z" glyph-name="e" horiz-adv-x="553" unicode="e" /><glyph d="M281 442Q230 442 198.5 408.5Q167 375 156 313H378Q385 373 360 407.5Q335 442 281 442ZM144 217Q139 152 167.5 120Q196 88 253 88Q281 88 301.5 95Q322 102 335.5 114Q349 126 356.5 140.5Q364 155 366 170H489L488 161Q484 125 467 93Q450 61 420.5 37.5Q391 14 348 0.5Q305 -13 250 -13Q182 -13 135 8Q88 29 60 65Q32 101 22.5 150Q13 199 21 255L24 277Q31 332 50.5 380.5Q70 429 102 465Q134 501 179.5 522Q225 543 286 543Q349 543 394 522.5Q439 502 465.5 465.5Q492 429 501 378Q510 327 502 267L495 217ZM500 780 374 601H244L358 780Z" glyph-name="eacute" horiz-adv-x="553" unicode="&#233;" /><glyph d="M281 442Q230 442 198.5 408.5Q167 375 156 313H378Q385 373 360 407.5Q335 442 281 442ZM144 217Q139 152 167.5 120Q196 88 253 88Q281 88 301.5 95Q322 102 335.5 114Q349 126 356.5 140.5Q364 155 366 170H489L488 161Q484 125 467 93Q450 61 420.5 37.5Q391 14 348 0.5Q305 -13 250 -13Q182 -13 135 8Q88 29 60 65Q32 101 22.5 150Q13 199 21 255L24 277Q31 332 50.5 380.5Q70 429 102 465Q134 501 179.5 522Q225 543 286 543Q349 543 394 522.5Q439 502 465.5 465.5Q492 429 501 378Q510 327 502 267L495 217ZM307 589Q257 589 224.5 603Q192 617 174 642.5Q156 668 151.5 703Q147 738 153 780H246Q240 733 259 711Q278 689 317 689Q356 689 381 711Q406 733 412 780H511Q506 738 492.5 703Q479 668 454 642.5Q429 617 392.5 603Q356 589 307 589Z" glyph-name="ebreve" horiz-adv-x="553" unicode="&#277;" /><glyph d="M281 442Q230 442 198.5 408.5Q167 375 156 313H378Q385 373 360 407.5Q335 442 281 442ZM144 217Q139 152 167.5 120Q196 88 253 88Q281 88 301.5 95Q322 102 335.5 114Q349 126 356.5 140.5Q364 155 366 170H489L488 161Q484 125 467 93Q450 61 420.5 37.5Q391 14 348 0.5Q305 -13 250 -13Q182 -13 135 8Q88 29 60 65Q32 101 22.5 150Q13 199 21 255L24 277Q31 332 50.5 380.5Q70 429 102 465Q134 501 179.5 522Q225 543 286 543Q349 543 394 522.5Q439 502 465.5 465.5Q492 429 501 378Q510 327 502 267L495 217ZM251 780 317 688 407 780H527L371 601H247L137 780Z" glyph-name="ecaron" horiz-adv-x="553" unicode="&#283;" /><glyph d="M281 442Q230 442 198.5 408.5Q167 375 156 313H378Q385 373 360 407.5Q335 442 281 442ZM144 217Q139 152 167.5 120Q196 88 253 88Q281 88 301.5 95Q322 102 335.5 114Q349 126 356.5 140.5Q364 155 366 170H489L488 161Q484 125 467 93Q450 61 420.5 37.5Q391 14 348 0.5Q305 -13 250 -13Q182 -13 135 8Q88 29 60 65Q32 101 22.5 150Q13 199 21 255L24 277Q31 332 50.5 380.5Q70 429 102 465Q134 501 179.5 522Q225 543 286 543Q349 543 394 522.5Q439 502 465.5 465.5Q492 429 501 378Q510 327 502 267L495 217ZM390 601 324 693 234 601H114L270 780H394L504 601Z" glyph-name="ecircumflex" horiz-adv-x="553" unicode="&#234;" /><glyph d="M281 442Q230 442 198.5 408.5Q167 375 156 313H378Q385 373 360 407.5Q335 442 281 442ZM144 217Q139 152 167.5 120Q196 88 253 88Q281 88 301.5 95Q322 102 335.5 114Q349 126 356.5 140.5Q364 155 366 170H489L488 161Q484 125 467 93Q450 61 420.5 37.5Q391 14 348 0.5Q305 -13 250 -13Q182 -13 135 8Q88 29 60 65Q32 101 22.5 150Q13 199 21 255L24 277Q31 332 50.5 380.5Q70 429 102 465Q134 501 179.5 522Q225 543 286 543Q349 543 394 522.5Q439 502 465.5 465.5Q492 429 501 378Q510 327 502 267L495 217ZM482 622H340L359 763H501ZM282 622H140L159 763H301Z" glyph-name="edieresis" horiz-adv-x="553" unicode="&#235;" /><glyph d="M281 442Q230 442 198.5 408.5Q167 375 156 313H378Q385 373 360 407.5Q335 442 281 442ZM144 217Q139 152 167.5 120Q196 88 253 88Q281 88 301.5 95Q322 102 335.5 114Q349 126 356.5 140.5Q364 155 366 170H489L488 161Q484 125 467 93Q450 61 420.5 37.5Q391 14 348 0.5Q305 -13 250 -13Q182 -13 135 8Q88 29 60 65Q32 101 22.5 150Q13 199 21 255L24 277Q31 332 50.5 380.5Q70 429 102 465Q134 501 179.5 522Q225 543 286 543Q349 543 394 522.5Q439 502 465.5 465.5Q492 429 501 378Q510 327 502 267L495 217ZM382 622H240L259 763H401Z" glyph-name="edotaccent" horiz-adv-x="553" unicode="&#279;" /><glyph d="M281 442Q230 442 198.5 408.5Q167 375 156 313H378Q385 373 360 407.5Q335 442 281 442ZM144 217Q139 152 167.5 120Q196 88 253 88Q281 88 301.5 95Q322 102 335.5 114Q349 126 356.5 140.5Q364 155 366 170H489L488 161Q484 125 467 93Q450 61 420.5 37.5Q391 14 348 0.5Q305 -13 250 -13Q182 -13 135 8Q88 29 60 65Q32 101 22.5 150Q13 199 21 255L24 277Q31 332 50.5 380.5Q70 429 102 465Q134 501 179.5 522Q225 543 286 543Q349 543 394 522.5Q439 502 465.5 465.5Q492 429 501 378Q510 327 502 267L495 217ZM306 780 374 601H244L164 780Z" glyph-name="egrave" horiz-adv-x="553" unicode="&#232;" /><glyph d="M333 676Q279 676 246 650Q213 624 206 570L205 562Q202 536 208.5 516Q215 496 228.5 482.5Q242 469 262 462.5Q282 456 305 456H319Q368 456 402 477.5Q436 499 443 553L444 561Q451 620 421.5 648Q392 676 341 676ZM285 340Q235 340 199 311.5Q163 283 155 223L154 215Q151 187 158 166.5Q165 146 180 132Q195 118 217 111Q239 104 265 104H275Q323 104 359 132.5Q395 161 403 221L404 229Q411 280 382.5 310Q354 340 300 340ZM256 -13Q190 -13 142.5 5Q95 23 66 53Q37 83 25.5 122.5Q14 162 20 205L23 227Q31 289 65.5 334Q100 379 162 397Q142 404 123.5 419.5Q105 435 92.5 457.5Q80 480 74 508.5Q68 537 73 570L76 592Q81 631 98 667.5Q115 704 147 731.5Q179 759 227 776Q275 793 343 793Q410 793 457.5 774.5Q505 756 533.5 725.5Q562 695 573 655.5Q584 616 578 574L575 552Q567 492 531 451Q495 410 440 397Q494 380 520 332Q546 284 537 216L534 194Q528 154 508.5 116.5Q489 79 454.5 50.5Q420 22 370.5 4.5Q321 -13 256 -13Z" glyph-name="eight" horiz-adv-x="600" unicode="8" /><glyph d="M108 39Q143 39 148 74L149 83Q151 100 141 108Q131 116 118 116H113Q79 116 75 82L74 73Q72 59 79.5 49Q87 39 104 39ZM92 -42Q77 -42 65 -51Q53 -60 51 -80L50 -89Q48 -108 57.5 -117Q67 -126 84 -126H89Q104 -126 115.5 -117Q127 -108 129 -88L130 -79Q135 -42 97 -42ZM82 -207Q45 -207 20 -197Q-5 -187 -20 -170.5Q-35 -154 -40 -134.5Q-45 -115 -43 -95L-42 -86Q-38 -54 -23 -33Q-8 -12 13 -1Q-1 10 -11 32.5Q-21 55 -18 83L-17 92Q-15 109 -7 127.5Q1 146 17.5 161.5Q34 177 59.5 187Q85 197 122 197Q161 197 185 185.5Q209 174 222.5 157.5Q236 141 240.5 121.5Q245 102 243 86L242 77Q239 47 224 27.5Q209 8 189 -1Q207 -9 216.5 -33.5Q226 -58 222 -90L221 -99Q219 -116 211 -135Q203 -154 186.5 -170Q170 -186 144.5 -196.5Q119 -207 82 -207Z" glyph-name="eight.inf" horiz-adv-x="300" unicode="&#58745;" /><glyph d="M1222 165Q1211 165 1199.5 160Q1188 155 1179 143Q1178 140 1178 136Q1177 133 1177 128.5Q1177 124 1177 120Q1177 97 1186.5 85.5Q1196 74 1210 74H1215Q1231 74 1242 85.5Q1253 97 1255 117L1256 126Q1258 147 1248.5 156Q1239 165 1224 165ZM1354 315Q1313 315 1282 306.5Q1251 298 1228 275Q1220 267 1213 255.5Q1206 244 1201 228Q1212 238 1226.5 242Q1241 246 1256 246Q1306 246 1330.5 215Q1355 184 1349 127L1348 117Q1343 60 1306.5 26.5Q1270 -7 1206 -7Q1137 -7 1108 33.5Q1079 74 1086 138L1087 148Q1093 205 1109.5 248Q1126 291 1165 332Q1204 373 1254.5 385Q1305 397 1365 397ZM778 0 788 81H869L895 276L837 240L800 307L933 390H1003L962 81H1043L1033 0ZM313 0 991 780H1091L413 0ZM328 392 338 473H419L445 668L387 632L350 699L483 782H553L512 473H593L583 392ZM28 392 38 473H119L145 668L87 632L50 699L183 782H253L212 473H293L283 392Z" glyph-name="elevensixteenths" horiz-adv-x="1400" unicode="&#61984;" /><glyph d="M842 0H700L719 141H861ZM522 0H380L399 141H541ZM202 0H60L79 141H221Z" glyph-name="ellipsis" horiz-adv-x="1000" unicode="&#8230;" /><glyph d="M281 442Q230 442 198.5 408.5Q167 375 156 313H378Q385 373 360 407.5Q335 442 281 442ZM144 217Q139 152 167.5 120Q196 88 253 88Q281 88 301.5 95Q322 102 335.5 114Q349 126 356.5 140.5Q364 155 366 170H489L488 161Q484 125 467 93Q450 61 420.5 37.5Q391 14 348 0.5Q305 -13 250 -13Q182 -13 135 8Q88 29 60 65Q32 101 22.5 150Q13 199 21 255L24 277Q31 332 50.5 380.5Q70 429 102 465Q134 501 179.5 522Q225 543 286 543Q349 543 394 522.5Q439 502 465.5 465.5Q492 429 501 378Q510 327 502 267L495 217ZM189 748H467L452 633H174Z" glyph-name="emacron" horiz-adv-x="553" unicode="&#275;" /><glyph d="M44 407H964L949 293H29Z" glyph-name="emdash" horiz-adv-x="1000" unicode="&#8212;" /><glyph d="M49 447H969L954 333H34Z" glyph-name="emdash.cap" horiz-adv-x="1000" unicode="&#58502;" /><glyph glyph-name="emspace" horiz-adv-x="1000" unicode="&#8195;" /><glyph d="M44 407H464L449 293H29Z" glyph-name="endash" horiz-adv-x="500" unicode="&#8211;" /><glyph d="M49 447H469L454 333H34Z" glyph-name="endash.cap" horiz-adv-x="500" unicode="&#58500;" /><glyph d="M457 -38Q451 -88 433 -121.5Q415 -155 388 -175.5Q361 -196 326 -204.5Q291 -213 249 -213Q220 -213 197.5 -208Q175 -203 169 -200L183 -92Q188 -94 205.5 -97Q223 -100 241 -100Q276 -100 299 -85Q322 -70 329 -21L377 342Q382 382 363.5 406Q345 430 300 430Q277 430 259 423.5Q241 417 227.5 407.5Q214 398 204 387Q194 376 187 367L139 0H9L59 380L69 530H184V461Q211 498 255 520.5Q299 543 358 543Q403 543 434 529Q465 515 483.5 490.5Q502 466 508 432.5Q514 399 509 359Z" glyph-name="eng" horiz-adv-x="563" unicode="&#331;" /><glyph glyph-name="enspace" horiz-adv-x="500" unicode="&#8194;" /><glyph d="M281 442Q230 442 198.5 408.5Q167 375 156 313H378Q385 373 360 407.5Q335 442 281 442ZM144 217Q139 152 167.5 120Q196 88 253 88Q281 88 301.5 95Q322 102 335.5 114Q349 126 356.5 140.5Q364 155 366 170H489L488 161Q481 105 446.5 62.5Q412 20 346 0Q335 -3 321 -11Q307 -19 295 -30.5Q283 -42 274.5 -56Q266 -70 266 -85Q266 -101 275.5 -110.5Q285 -120 306 -120Q323 -120 336.5 -116.5Q350 -113 358 -108L378 -190Q361 -200 336 -207Q311 -214 281 -214Q224 -214 193 -191.5Q162 -169 162 -120Q162 -88 176 -60.5Q190 -33 212 -11Q155 -5 115 17.5Q75 40 52 75.5Q29 111 21.5 157Q14 203 21 255L24 277Q31 332 50.5 380.5Q70 429 102 465Q134 501 179.5 522Q225 543 286 543Q349 543 394 522.5Q439 502 465.5 465.5Q492 429 501 378Q510 327 502 267L495 217Z" glyph-name="eogonek" horiz-adv-x="553" unicode="&#281;" /><glyph d="M39 343H551L535 225H23ZM67 555H579L563 437H51Z" glyph-name="equal" horiz-adv-x="600" unicode="=" /><glyph d="M-31 -19H229L218 -101H-42ZM-17 91H243L233 9H-27Z" glyph-name="equal.inf" horiz-adv-x="300" unicode="&#58749;" /><glyph d="M25 237H537L521 119H9ZM53 449H565L549 331H37ZM81 661H593L577 543H65Z" glyph-name="equivalence" horiz-adv-x="600" unicode="&#8801;" /><glyph d="M243 100Q351 100 372 252L375 274Q385 346 362.5 388Q340 430 282 430Q174 430 153 278L150 256Q140 184 162.5 142Q185 100 243 100ZM94 813Q166 808 231 793Q296 778 350 746L478 813L467 734L406 702Q447 661 470.5 611Q494 561 504 505.5Q514 450 513 391.5Q512 333 504 275L501 253Q493 196 475 147.5Q457 99 426 63.5Q395 28 349.5 7.5Q304 -13 240 -13Q177 -13 132.5 8Q88 29 60.5 65Q33 101 23 150Q13 199 21 255L24 277Q32 334 50 382.5Q68 431 99 466.5Q130 502 175.5 522.5Q221 543 285 543Q305 543 327.5 538.5Q350 534 366 526Q340 593 276 634L89 536L100 615L205 670Q149 689 79 697Z" glyph-name="eth" horiz-adv-x="553" unicode="&#240;" /><glyph d="M147 0H5L24 141H166ZM259 780 149 216H59L97 780Z" glyph-name="exclam" horiz-adv-x="250" unicode="!" /><glyph d="M74 530H216L197 389H55ZM-32 -200 72 314H162L130 -200Z" glyph-name="exclamdown" horiz-adv-x="250" unicode="&#161;" /><glyph d="M107 780H249L230 639H88ZM-5 0 105 564H195L157 0Z" glyph-name="exclamdown.cap" horiz-adv-x="250" unicode="&#58433;" /><glyph d="M254 530H381L366 416H239L185 0H55L109 416H28L43 530H124L138 638Q144 688 162 721.5Q180 755 207 775.5Q234 796 269 804.5Q304 813 346 813Q375 813 397.5 808Q420 803 426 800L412 692Q407 694 389.5 697Q372 700 354 700Q319 700 296 685Q273 670 266 621Z" glyph-name="f" horiz-adv-x="401" unicode="f" /><glyph d="M254 530H381L366 416H239L185 0H55L109 416H28L43 530H124L138 638Q144 688 162 721.5Q180 755 207 775.5Q234 796 269 804.5Q304 813 346 813Q375 813 397.5 808Q420 803 426 800L412 692Q407 694 389.5 697Q372 700 354 700Q319 700 296 685Q273 670 266 621ZM353 849H237L249 941H365Z" glyph-name="fdotaccent" horiz-adv-x="401" unicode="&#7711;" /><glyph d="M629 622H487L506 763H648ZM481 530H611L542 0H412ZM254 530H381L366 416H239L185 0H55L109 416H28L43 530H124L138 638Q144 688 162 721.5Q180 755 207 775.5Q234 796 269 804.5Q304 813 346 813Q375 813 397.5 808Q420 803 426 800L412 692Q407 694 389.5 697Q372 700 354 700Q319 700 296 685Q273 670 266 621Z" glyph-name="fi" horiz-adv-x="651" unicode="&#64257;" /><glyph d="M1222 165Q1211 165 1199.5 160Q1188 155 1179 143Q1178 140 1178 136Q1177 133 1177 128.5Q1177 124 1177 120Q1177 97 1186.5 85.5Q1196 74 1210 74H1215Q1231 74 1242 85.5Q1253 97 1255 117L1256 126Q1258 147 1248.5 156Q1239 165 1224 165ZM1354 315Q1313 315 1282 306.5Q1251 298 1228 275Q1220 267 1213 255.5Q1206 244 1201 228Q1212 238 1226.5 242Q1241 246 1256 246Q1306 246 1330.5 215Q1355 184 1349 127L1348 117Q1343 60 1306.5 26.5Q1270 -7 1206 -7Q1137 -7 1108 33.5Q1079 74 1086 138L1087 148Q1093 205 1109.5 248Q1126 291 1165 332Q1204 373 1254.5 385Q1305 397 1365 397ZM778 0 788 81H869L895 276L837 240L800 307L933 390H1003L962 81H1043L1033 0ZM313 0 991 780H1091L413 0ZM427 517Q423 487 434 476.5Q445 466 459 466H464Q479 466 490.5 475.5Q502 485 505 511L506 520Q508 543 499 554.5Q490 566 473 566H467Q455 566 441.5 560Q428 554 420 542L344 569L381 782H629L618 701H448L436 632Q457 647 495 647Q552 647 578.5 612Q605 577 599 520L598 511Q592 454 557 419.5Q522 385 456 385Q390 385 358 415.5Q326 446 333 508L334 517ZM28 392 38 473H119L145 668L87 632L50 699L183 782H253L212 473H293L283 392Z" glyph-name="fifteensixteenths" horiz-adv-x="1400" unicode="&#61986;" /><glyph d="M44 407H564L549 293H29Z" glyph-name="figuredash" horiz-adv-x="600" unicode="&#8210;" /><glyph d="M49 447H569L554 333H34Z" glyph-name="figuredash.cap" horiz-adv-x="600" unicode="&#58503;" /><glyph glyph-name="figurespace" horiz-adv-x="600" unicode="&#8199;" /><glyph d="M157 250Q152 210 158 182.5Q164 155 179 137.5Q194 120 216 112Q238 104 266 104H274Q323 104 360.5 136Q398 168 407 240L408 248Q412 284 405.5 310Q399 336 383 353Q367 370 344.5 378Q322 386 295 386H287Q248 386 212 368.5Q176 351 153 313L45 351L120 780H601L586 663H216L180 456Q203 477 237 490Q271 503 320 503Q375 503 420 486Q465 469 494.5 437Q524 405 537 359Q550 313 542 255L539 233Q523 116 453 51.5Q383 -13 264 -13Q197 -13 148 4Q99 21 69 52.5Q39 84 27 128Q15 172 22 226L25 250Z" glyph-name="five" horiz-adv-x="600" unicode="5" /><glyph d="M52 -75Q48 -105 59 -115.5Q70 -126 84 -126H89Q104 -126 115.5 -116.5Q127 -107 130 -81L131 -72Q133 -49 124 -37.5Q115 -26 98 -26H92Q80 -26 66.5 -32Q53 -38 45 -50L-31 -23L6 190H254L243 109H73L61 40Q82 55 120 55Q177 55 203.5 20Q230 -15 224 -72L223 -81Q217 -138 182 -172.5Q147 -207 81 -207Q15 -207 -17 -176.5Q-49 -146 -42 -84L-41 -75Z" glyph-name="five.inf" horiz-adv-x="300" unicode="&#58742;" /><glyph d="M922 165Q911 165 899.5 160Q888 155 879 143Q878 140 878 136Q877 133 877 128.5Q877 124 877 120Q877 97 886.5 85.5Q896 74 910 74H915Q931 74 942 85.5Q953 97 955 117L956 126Q958 147 948.5 156Q939 165 924 165ZM1054 315Q1013 315 982 306.5Q951 298 928 275Q920 267 913 255.5Q906 244 901 228Q912 238 926.5 242Q941 246 956 246Q1006 246 1030.5 215Q1055 184 1049 127L1048 117Q1043 60 1006.5 26.5Q970 -7 906 -7Q837 -7 808 33.5Q779 74 786 138L787 148Q793 205 809.5 248Q826 291 865 332Q904 373 954.5 385Q1005 397 1065 397ZM478 0 488 81H569L595 276L537 240L500 307L633 390H703L662 81H743L733 0ZM13 0 691 780H791L113 0ZM127 517Q123 487 134 476.5Q145 466 159 466H164Q179 466 190.5 475.5Q202 485 205 511L206 520Q208 543 199 554.5Q190 566 173 566H167Q155 566 141.5 560Q128 554 120 542L44 569L81 782H329L318 701H148L136 632Q157 647 195 647Q252 647 278.5 612Q305 577 299 520L298 511Q292 454 257 419.5Q222 385 156 385Q90 385 58 415.5Q26 446 33 508L34 517Z" glyph-name="fivesixteenths" horiz-adv-x="1100" unicode="&#61975;" /><glyph d="M517 800H647L542 0H412ZM254 530H381L366 416H239L185 0H55L109 416H28L43 530H124L138 638Q144 688 162 721.5Q180 755 207 775.5Q234 796 269 804.5Q304 813 346 813Q375 813 397.5 808Q420 803 426 800L412 692Q407 694 389.5 697Q372 700 354 700Q319 700 296 685Q273 670 266 621Z" glyph-name="fl" horiz-adv-x="651" unicode="&#64258;" /><glyph d="M168 297 232 298H330L355 488L366 556ZM291 0 315 182H3L15 276L400 780H525L462 298H561L545 182H447L423 0Z" glyph-name="four" horiz-adv-x="600" unicode="4" /><glyph d="M53 -41 74 -40H105L113 21L116 43ZM84 -200 94 -121H-52L-43 -55L140 190H228L198 -40H234L223 -121H187L177 -200Z" glyph-name="four.inf" horiz-adv-x="300" unicode="&#58741;" /><glyph glyph-name="fourperemspace" horiz-adv-x="250" unicode="&#8197;" /><glyph d="M-287 0 391 780H491L-187 0Z" glyph-name="fraction" horiz-adv-x="200" unicode="&#8260;" /><glyph d="M377 367Q372 377 364.5 388Q357 399 345.5 408.5Q334 418 318 424Q302 430 282 430Q226 430 195.5 395Q165 360 156 295L153 273Q144 208 167 171Q190 134 246 134Q266 134 282.5 140Q299 146 312.5 154.5Q326 163 336.5 173.5Q347 184 354 193ZM339 81Q319 60 283 40.5Q247 21 196 21Q148 21 112.5 40Q77 59 55 93Q33 127 25 172.5Q17 218 24 272L27 294Q34 349 52 395Q70 441 97.5 474Q125 507 163.5 525Q202 543 252 543Q312 543 348 519Q384 495 402 461L421 530H536L508 380L458 -3Q444 -107 386.5 -160Q329 -213 212 -213Q146 -213 102 -197Q58 -181 32.5 -155Q7 -129 -1.5 -94.5Q-10 -60 -5 -22L-2 0H120Q114 -51 135.5 -78.5Q157 -106 212 -106Q242 -106 262.5 -99.5Q283 -93 296.5 -79.5Q310 -66 317.5 -45Q325 -24 329 5Z" glyph-name="g" horiz-adv-x="563" unicode="g" /><glyph d="M377 367Q372 377 364.5 388Q357 399 345.5 408.5Q334 418 318 424Q302 430 282 430Q226 430 195.5 395Q165 360 156 295L153 273Q144 208 167 171Q190 134 246 134Q266 134 282.5 140Q299 146 312.5 154.5Q326 163 336.5 173.5Q347 184 354 193ZM339 81Q319 60 283 40.5Q247 21 196 21Q148 21 112.5 40Q77 59 55 93Q33 127 25 172.5Q17 218 24 272L27 294Q34 349 52 395Q70 441 97.5 474Q125 507 163.5 525Q202 543 252 543Q312 543 348 519Q384 495 402 461L421 530H536L508 380L458 -3Q444 -107 386.5 -160Q329 -213 212 -213Q146 -213 102 -197Q58 -181 32.5 -155Q7 -129 -1.5 -94.5Q-10 -60 -5 -22L-2 0H120Q114 -51 135.5 -78.5Q157 -106 212 -106Q242 -106 262.5 -99.5Q283 -93 296.5 -79.5Q310 -66 317.5 -45Q325 -24 329 5ZM304 589Q254 589 221.5 603Q189 617 171 642.5Q153 668 148.5 703Q144 738 150 780H243Q237 733 256 711Q275 689 314 689Q353 689 378 711Q403 733 409 780H508Q503 738 489.5 703Q476 668 451 642.5Q426 617 389.5 603Q353 589 304 589Z" glyph-name="gbreve" horiz-adv-x="563" unicode="&#287;" /><glyph d="M377 367Q372 377 364.5 388Q357 399 345.5 408.5Q334 418 318 424Q302 430 282 430Q226 430 195.5 395Q165 360 156 295L153 273Q144 208 167 171Q190 134 246 134Q266 134 282.5 140Q299 146 312.5 154.5Q326 163 336.5 173.5Q347 184 354 193ZM339 81Q319 60 283 40.5Q247 21 196 21Q148 21 112.5 40Q77 59 55 93Q33 127 25 172.5Q17 218 24 272L27 294Q34 349 52 395Q70 441 97.5 474Q125 507 163.5 525Q202 543 252 543Q312 543 348 519Q384 495 402 461L421 530H536L508 380L458 -3Q444 -107 386.5 -160Q329 -213 212 -213Q146 -213 102 -197Q58 -181 32.5 -155Q7 -129 -1.5 -94.5Q-10 -60 -5 -22L-2 0H120Q114 -51 135.5 -78.5Q157 -106 212 -106Q242 -106 262.5 -99.5Q283 -93 296.5 -79.5Q310 -66 317.5 -45Q325 -24 329 5ZM387 601 321 693 231 601H111L267 780H391L501 601Z" glyph-name="gcircumflex" horiz-adv-x="563" unicode="&#285;" /><glyph d="M248 678Q256 743 293.5 770.5Q331 798 398 798L391 745Q360 745 336.5 737Q313 729 305 708H374L363 622H241ZM377 367Q372 377 364.5 388Q357 399 345.5 408.5Q334 418 318 424Q302 430 282 430Q226 430 195.5 395Q165 360 156 295L153 273Q144 208 167 171Q190 134 246 134Q266 134 282.5 140Q299 146 312.5 154.5Q326 163 336.5 173.5Q347 184 354 193ZM339 81Q319 60 283 40.5Q247 21 196 21Q148 21 112.5 40Q77 59 55 93Q33 127 25 172.5Q17 218 24 272L27 294Q34 349 52 395Q70 441 97.5 474Q125 507 163.5 525Q202 543 252 543Q312 543 348 519Q384 495 402 461L421 530H536L508 380L458 -3Q444 -107 386.5 -160Q329 -213 212 -213Q146 -213 102 -197Q58 -181 32.5 -155Q7 -129 -1.5 -94.5Q-10 -60 -5 -22L-2 0H120Q114 -51 135.5 -78.5Q157 -106 212 -106Q242 -106 262.5 -99.5Q283 -93 296.5 -79.5Q310 -66 317.5 -45Q325 -24 329 5Z" glyph-name="gcommaaccent" horiz-adv-x="563" unicode="&#291;" /><glyph d="M377 367Q372 377 364.5 388Q357 399 345.5 408.5Q334 418 318 424Q302 430 282 430Q226 430 195.5 395Q165 360 156 295L153 273Q144 208 167 171Q190 134 246 134Q266 134 282.5 140Q299 146 312.5 154.5Q326 163 336.5 173.5Q347 184 354 193ZM339 81Q319 60 283 40.5Q247 21 196 21Q148 21 112.5 40Q77 59 55 93Q33 127 25 172.5Q17 218 24 272L27 294Q34 349 52 395Q70 441 97.5 474Q125 507 163.5 525Q202 543 252 543Q312 543 348 519Q384 495 402 461L421 530H536L508 380L458 -3Q444 -107 386.5 -160Q329 -213 212 -213Q146 -213 102 -197Q58 -181 32.5 -155Q7 -129 -1.5 -94.5Q-10 -60 -5 -22L-2 0H120Q114 -51 135.5 -78.5Q157 -106 212 -106Q242 -106 262.5 -99.5Q283 -93 296.5 -79.5Q310 -66 317.5 -45Q325 -24 329 5ZM376 622H234L253 763H395Z" glyph-name="gdotaccent" horiz-adv-x="563" unicode="&#289;" /><glyph d="M285 428Q351 462 387 504.5Q423 547 423 608Q423 648 399 673.5Q375 699 330 699Q302 699 281 690.5Q260 682 246 667Q232 652 223.5 632.5Q215 613 212 591L135 0H5L83 598Q89 644 106 683Q123 722 152.5 751Q182 780 226 796.5Q270 813 330 813Q393 813 437.5 795.5Q482 778 509.5 748Q537 718 547.5 679Q558 640 553 597L552 588Q544 517 509.5 473.5Q475 430 417 397L446 375Q505 330 537.5 280Q570 230 563 168L562 159Q558 126 545 95Q532 64 508.5 40Q485 16 450.5 1.5Q416 -13 370 -13Q313 -13 278 1.5Q243 16 224.5 39.5Q206 63 201 93.5Q196 124 200 157L201 166H320Q316 134 329.5 111Q343 88 375 88Q407 88 419.5 111Q432 134 432 171Q432 195 412 225.5Q392 256 353 286L274 346Z" glyph-name="germandbls" horiz-adv-x="613" unicode="&#223;" /><glyph d="M277 780 345 601H215L135 780Z" glyph-name="grave" horiz-adv-x="500" unicode="`" /><glyph d="M335 950 376 840H246L198 950Z" glyph-name="grave.cap" horiz-adv-x="500" unicode="&#58401;" /><glyph d="M8 111 26 245 417 394 65 543 81 669 565 454 548 326Z" glyph-name="greater" horiz-adv-x="600" unicode="&gt;" /><glyph d="M385 463 67 561 84 687 574 522 558 394 24 230 41 363ZM16 173 550 337 540 257 6 93Z" glyph-name="greaterequal" horiz-adv-x="600" unicode="&#8805;" /><glyph d="M508 429 373 335 483 241 468 129 275 278 291 402 524 551ZM270 429 135 335 245 241 230 129 37 278 53 402 286 551Z" glyph-name="guillemotleft" horiz-adv-x="550" unicode="&#171;" /><glyph d="M515 479 380 385 490 291 475 179 282 328 298 452 531 601ZM277 479 142 385 252 291 237 179 44 328 60 452 293 601Z" glyph-name="guillemotleft.cap" horiz-adv-x="550" unicode="&#58451;" /><glyph d="M33 251 168 345 58 439 73 551 266 402 250 278 17 129ZM271 251 406 345 296 439 311 551 504 402 488 278 255 129Z" glyph-name="guillemotright" horiz-adv-x="550" unicode="&#187;" /><glyph d="M40 301 175 395 65 489 80 601 273 452 257 328 24 179ZM278 301 413 395 303 489 318 601 511 452 495 328 262 179Z" glyph-name="guillemotright.cap" horiz-adv-x="550" unicode="&#58452;" /><glyph d="M270 429 135 335 245 241 230 129 37 278 53 402 286 551Z" glyph-name="guilsinglleft" horiz-adv-x="313" unicode="&#8249;" /><glyph d="M277 479 142 385 252 291 237 179 44 328 60 452 293 601Z" glyph-name="guilsinglleft.cap" horiz-adv-x="313" unicode="&#58449;" /><glyph d="M33 251 168 345 58 439 73 551 266 402 250 278 17 129Z" glyph-name="guilsinglright" horiz-adv-x="313" unicode="&#8250;" /><glyph d="M40 301 175 395 65 489 80 601 273 452 257 328 24 179Z" glyph-name="guilsinglright.cap" horiz-adv-x="313" unicode="&#58450;" /><glyph d="M114 800H244L202 482Q229 510 268.5 526.5Q308 543 358 543Q403 543 434 529Q465 515 483.5 490.5Q502 466 508 432.5Q514 399 509 359L462 0H332L377 342Q382 382 363.5 406Q345 430 300 430Q277 430 259 423.5Q241 417 227.5 407.5Q214 398 204 387Q194 376 187 367L139 0H9Z" glyph-name="h" horiz-adv-x="563" unicode="h" /><glyph glyph-name="hairspace" horiz-adv-x="50" unicode="&#8202;" /><glyph d="M27 713H102L114 800H244L232 713H351L338 617H220L202 482Q229 510 268.5 526.5Q308 543 358 543Q403 543 434 529Q465 515 483.5 490.5Q502 466 508 432.5Q514 399 509 359L462 0H332L377 342Q382 382 363.5 406Q345 430 300 430Q277 430 259 423.5Q241 417 227.5 407.5Q214 398 204 387Q194 376 187 367L139 0H9L90 617H14Z" glyph-name="hbar" horiz-adv-x="563" unicode="&#295;" /><glyph d="M-1 840 133 950H263L367 840H249L192 892L121 840ZM114 800H244L202 482Q229 510 268.5 526.5Q308 543 358 543Q403 543 434 529Q465 515 483.5 490.5Q502 466 508 432.5Q514 399 509 359L462 0H332L377 342Q382 382 363.5 406Q345 430 300 430Q277 430 259 423.5Q241 417 227.5 407.5Q214 398 204 387Q194 376 187 367L139 0H9Z" glyph-name="hcircumflex" horiz-adv-x="563" unicode="&#293;" /><glyph d="M449 -10Q437 9 414 40Q391 71 360 110Q329 149 292.5 193.5Q256 238 216 283Q190 312 161 348Q132 384 108 423.5Q84 463 68 504Q52 545 52 584Q52 628 65 666Q78 704 103 731.5Q128 759 163.5 774.5Q199 790 243 790Q289 790 323 777Q357 764 381 742.5Q405 721 421 692.5Q437 664 448 633H452Q463 664 479 692.5Q495 721 519 742.5Q543 764 576.5 777Q610 790 657 790Q701 790 736.5 774.5Q772 759 796.5 731.5Q821 704 834.5 666Q848 628 848 584Q848 545 832 504Q816 463 792 423.5Q768 384 739 348Q710 312 684 283Q644 238 607.5 193.5Q571 149 540 110Q509 71 486 40Q463 9 451 -10Z" glyph-name="heart" horiz-adv-x="900" unicode="&#9829;" /><glyph d="M70 0V450L425 790L780 450V0Z" glyph-name="house" horiz-adv-x="850" unicode="&#8962;" /><glyph d="M366 780 258 601H153L249 780ZM532 780 406 601H301L415 780Z" glyph-name="hungarumlaut" horiz-adv-x="500" unicode="&#733;" /><glyph d="M525 950 447 840H329L401 950ZM365 950 293 840H175L241 950Z" glyph-name="hungarumlaut.cap" horiz-adv-x="500" unicode="&#58411;" /><glyph d="M44 407H309L294 293H29Z" glyph-name="hyphen" horiz-adv-x="345" unicode="-" /><glyph d="M49 447H314L299 333H34Z" glyph-name="hyphen.cap" horiz-adv-x="320" unicode="&#58498;" /><glyph d="M228 622H86L105 763H247ZM80 530H210L141 0H11Z" glyph-name="i" horiz-adv-x="250" unicode="i" /><glyph d="M80 530H210L141 0H11ZM346 780 220 601H90L204 780Z" glyph-name="iacute" horiz-adv-x="250" unicode="&#237;" /><glyph d="M80 530H210L141 0H11ZM153 589Q103 589 70.5 603Q38 617 20 642.5Q2 668 -2.5 703Q-7 738 -1 780H92Q86 733 105 711Q124 689 163 689Q202 689 227 711Q252 733 258 780H357Q352 738 338.5 703Q325 668 300 642.5Q275 617 238.5 603Q202 589 153 589Z" glyph-name="ibreve" horiz-adv-x="250" unicode="&#301;" /><glyph d="M80 530H210L141 0H11ZM236 601 170 693 80 601H-40L116 780H240L350 601Z" glyph-name="icircumflex" horiz-adv-x="250" unicode="&#238;" /><glyph d="M80 530H210L141 0H11ZM328 622H186L205 763H347ZM128 622H-14L5 763H147Z" glyph-name="idieresis" horiz-adv-x="250" unicode="&#239;" /><glyph d="M228 622H86L105 763H247ZM80 530H210L141 0H11Z" glyph-name="idotaccent" horiz-adv-x="250" unicode="&#59269;" /><glyph d="M80 530H210L141 0H11ZM152 780 220 601H90L10 780Z" glyph-name="igrave" horiz-adv-x="250" unicode="&#236;" /><glyph d="M280 530H410L336 -38Q330 -88 312 -121.5Q294 -155 267 -175.5Q240 -196 205 -204.5Q170 -213 128 -213Q99 -213 76.5 -208Q54 -203 48 -200L62 -92Q67 -94 84.5 -97Q102 -100 120 -100Q155 -100 178 -85Q201 -70 208 -21ZM428 622H286L305 763H447ZM228 622H86L105 763H247ZM80 530H210L141 0H11Z" glyph-name="ij" horiz-adv-x="452" unicode="&#307;" /><glyph d="M80 530H210L141 0H11ZM35 748H313L298 633H20Z" glyph-name="imacron" horiz-adv-x="250" unicode="&#299;" /><glyph d="M359 595Q359 621 353 639Q347 657 331 667L289 452Q316 491 337.5 525Q359 559 359 595ZM271 0H129L148 141H290ZM193 216 230 659Q206 640 192.5 604Q179 568 172 513H41L43 528Q51 589 67.5 638.5Q84 688 112.5 722Q141 756 183.5 774.5Q226 793 288 793Q394 793 443.5 746.5Q493 700 493 609Q493 563 477.5 528Q462 493 438 463Q414 433 386 406Q358 379 332 350.5Q306 322 287 289.5Q268 257 263 216Z" glyph-name="interrobang" horiz-adv-x="484" unicode="&#8253;" /><glyph d="M102 -30Q102 -49 108 -64Q114 -79 128 -88L162 98Q138 66 120 36Q102 6 102 -30ZM184 530H326L307 389H165ZM262 314 229 -81Q253 -64 266.5 -29.5Q280 5 288 60H419L417 45Q409 -14 391.5 -61.5Q374 -109 345 -143Q316 -177 273.5 -195.5Q231 -214 173 -214Q65 -214 16.5 -171Q-32 -128 -32 -42Q-32 2 -16.5 36Q-1 70 22.5 98.5Q46 127 74 151Q102 175 127 200Q152 225 170 252.5Q188 280 192 314Z" glyph-name="interrobangdown" horiz-adv-x="484" unicode="&#59701;" /><glyph d="M129 185Q129 159 135 140.5Q141 122 157 112L199 327Q172 288 150.5 254Q129 220 129 185ZM217 780H359L340 639H198ZM-5 171Q-5 216 10.5 251.5Q26 287 50 317Q74 347 102 374Q130 401 156 429.5Q182 458 201 490.5Q220 523 225 564H295L257 121Q281 139 294.5 175.5Q308 212 316 267H447L445 252Q437 190 420.5 141Q404 92 375.5 58Q347 24 304 5.5Q261 -13 200 -13Q94 -13 44.5 33.5Q-5 80 -5 171Z" glyph-name="interrobangdown.cap" horiz-adv-x="484" unicode="&#59803;" /><glyph d="M305 792Q354 792 386.5 778Q419 764 437 738.5Q455 713 460 678Q465 643 459 601H366Q372 648 353 670Q334 692 295 692Q256 692 231 670Q206 648 200 601H101Q105 643 119 678Q133 713 158 738.5Q183 764 219 778Q255 792 305 792Z" glyph-name="invertedbreve" horiz-adv-x="500" unicode="&#58385;" /><glyph d="M328 964Q378 964 409.5 954Q441 944 458.5 927.5Q476 911 480.5 888Q485 865 482 840H392Q396 863 379 876Q362 889 320 889Q278 889 258 876Q238 863 234 840H140Q143 865 154 888Q165 911 187 927.5Q209 944 243.5 954Q278 964 328 964Z" glyph-name="invertedbreve.cap" horiz-adv-x="500" unicode="&#58407;" /><glyph d="M228 622H86L105 763H247ZM141 0Q130 -4 116 -12Q102 -20 90 -31Q78 -42 69.5 -56Q61 -70 61 -85Q61 -101 70.5 -110.5Q80 -120 101 -120Q118 -120 131.5 -116.5Q145 -113 153 -108L173 -190Q156 -200 131 -207Q106 -214 76 -214Q19 -214 -12 -191.5Q-43 -169 -43 -120Q-43 -87 -28.5 -59.5Q-14 -32 9 -9L80 530H210Z" glyph-name="iogonek" horiz-adv-x="250" unicode="&#303;" /><glyph d="M80 530H210L141 0H11ZM236 725Q250 725 260.5 733.5Q271 742 274 764H363Q361 727 350 700Q339 673 322 656Q305 639 283.5 630.5Q262 622 240 622Q217 622 198 630.5Q179 639 162 648.5Q145 658 129.5 666.5Q114 675 99 675Q85 675 74.5 666.5Q64 658 61 636H-28Q-26 673 -15 700Q-4 727 13 744Q30 761 51 769.5Q72 778 95 778Q118 778 137 769.5Q156 761 173 751.5Q190 742 205.5 733.5Q221 725 236 725Z" glyph-name="itilde" horiz-adv-x="250" unicode="&#297;" /><glyph d="M228 622H86L105 763H247ZM80 530H210L136 -38Q130 -88 112 -121.5Q94 -155 67 -175.5Q40 -196 5 -204.5Q-30 -213 -72 -213Q-101 -213 -123.5 -208Q-146 -203 -152 -200L-138 -92Q-133 -94 -115.5 -97Q-98 -100 -80 -100Q-45 -100 -22 -85Q1 -70 8 -21Z" glyph-name="j" horiz-adv-x="252" unicode="j" /><glyph d="M236 601 170 693 80 601H-40L116 780H240L350 601ZM80 530H210L136 -38Q130 -88 112 -121.5Q94 -155 67 -175.5Q40 -196 5 -204.5Q-30 -213 -72 -213Q-101 -213 -123.5 -208Q-146 -203 -152 -200L-138 -92Q-133 -94 -115.5 -97Q-98 -100 -80 -100Q-45 -100 -22 -85Q1 -70 8 -21Z" glyph-name="jcircumflex" horiz-adv-x="252" unicode="&#309;" /><glyph d="M110 800H240L178 330L380 530H542L337 332L473 0H325L235 233L155 156L135 0H5Z" glyph-name="k" horiz-adv-x="543" unicode="k" /><glyph d="M269 -103Q261 -168 223.5 -195.5Q186 -223 119 -223L126 -170Q157 -170 180.5 -162Q204 -154 212 -133H143L154 -47H276ZM110 800H240L178 330L380 530H542L337 332L473 0H325L235 233L155 156L135 0H5Z" glyph-name="kcommaaccent" horiz-adv-x="543" unicode="&#311;" /><glyph d="M204 530 178 330 380 530H542L337 332L473 0H325L235 233L155 156L135 0H5L75 530Z" glyph-name="kgreenlandic" horiz-adv-x="543" unicode="&#312;" /><glyph d="M116 800H246L141 0H11Z" glyph-name="l" horiz-adv-x="250" unicode="l" /><glyph d="M329 950 251 840H121L192 950ZM116 800H246L141 0H11Z" glyph-name="lacute" horiz-adv-x="250" unicode="&#314;" /><glyph d="M116 800H246L141 0H11ZM392 800 343 601H281L307 800Z" glyph-name="lcaron" horiz-adv-x="250" unicode="&#318;" /><glyph d="M123 -103Q115 -168 77.5 -195.5Q40 -223 -27 -223L-20 -170Q11 -170 34.5 -162Q58 -154 66 -133H-3L8 -47H130ZM116 800H246L141 0H11Z" glyph-name="lcommaaccent" horiz-adv-x="250" unicode="&#316;" /><glyph d="M386 279H244L263 421H405ZM116 800H246L141 0H11Z" glyph-name="ldot" horiz-adv-x="406" unicode="&#320;" /><glyph d="M593 669 575 535 184 386 536 237 520 111 36 326 53 454Z" glyph-name="less" horiz-adv-x="600" unicode="&lt;" /><glyph d="M518 92 28 257 39 337 529 172ZM235 454 553 356 536 230 46 395 62 523 596 687 579 554Z" glyph-name="lessequal" horiz-adv-x="600" unicode="&#8804;" /><glyph d="M69 570H581L532 200H414L447 452H53Z" glyph-name="logicalnot" horiz-adv-x="600" unicode="&#172;" /><glyph d="M10 114H242L227 0H-5Z" glyph-name="lowline" horiz-adv-x="320" unicode="&#58641;" /><glyph d="M20 326 118 386 172 800H302L259 473L373 543L358 430L244 360L197 0H67L103 273L5 213Z" glyph-name="lslash" horiz-adv-x="366" unicode="&#322;" /><glyph d="M613 0 659 350Q664 388 650 409Q636 430 591 430Q554 430 529 411.5Q504 393 490 375L441 0H311L357 350Q362 388 348 409Q334 430 289 430Q251 430 226.5 411.5Q202 393 188 375L139 0H9L59 380L69 530H184V469Q195 481 211 494.5Q227 508 248 518.5Q269 529 293.5 536Q318 543 347 543Q409 543 440 520.5Q471 498 482 465Q494 478 510.5 492Q527 506 548 517.5Q569 529 594.5 536Q620 543 649 543Q694 543 723.5 530Q753 517 769.5 493.5Q786 470 791 437.5Q796 405 791 367L743 0Z" glyph-name="m" horiz-adv-x="844" unicode="m" /><glyph d="M160 748H438L423 633H145Z" glyph-name="macron" horiz-adv-x="500" unicode="&#175;" /><glyph d="M186 937H462L451 853H175Z" glyph-name="macron.cap" horiz-adv-x="500" unicode="&#58405;" /><glyph d="M613 0 659 350Q664 388 650 409Q636 430 591 430Q554 430 529 411.5Q504 393 490 375L441 0H311L357 350Q362 388 348 409Q334 430 289 430Q251 430 226.5 411.5Q202 393 188 375L139 0H9L59 380L69 530H184V469Q195 481 211 494.5Q227 508 248 518.5Q269 529 293.5 536Q318 543 347 543Q409 543 440 520.5Q471 498 482 465Q494 478 510.5 492Q527 506 548 517.5Q569 529 594.5 536Q620 543 649 543Q694 543 723.5 530Q753 517 769.5 493.5Q786 470 791 437.5Q796 405 791 367L743 0ZM529 622H387L406 763H548Z" glyph-name="mdotaccent" horiz-adv-x="844" unicode="&#7745;" /><glyph d="M57 265Q57 322 79 373Q101 424 138.5 461.5Q176 499 227 521Q278 543 335 543Q392 543 443 521Q494 499 531.5 461.5Q569 424 591 373Q613 322 613 265Q613 208 591 157Q569 106 531.5 68.5Q494 31 443 9Q392 -13 335 -13Q278 -13 227 9Q176 31 138.5 68.5Q101 106 79 157Q57 208 57 265Z" glyph-name="mediumblackcircle" horiz-adv-x="670" unicode="&#9899;" /><glyph d="M173 265Q173 231 185.5 201.5Q198 172 220 150Q242 128 271.5 115.5Q301 103 335 103Q369 103 398.5 115.5Q428 128 450 150Q472 172 484.5 201.5Q497 231 497 265Q497 299 484.5 328.5Q472 358 450 380Q428 402 398.5 414.5Q369 427 335 427Q301 427 271.5 414.5Q242 402 220 380Q198 358 185.5 328.5Q173 299 173 265ZM57 265Q57 322 79 373Q101 424 138.5 461.5Q176 499 227 521Q278 543 335 543Q392 543 443 521Q494 499 531.5 461.5Q569 424 591 373Q613 322 613 265Q613 208 591 157Q569 106 531.5 68.5Q494 31 443 9Q392 -13 335 -13Q278 -13 227 9Q176 31 138.5 68.5Q101 106 79 157Q57 208 57 265Z" glyph-name="mediumwhitecircle" horiz-adv-x="670" unicode="&#9898;" /><glyph d="M53 449H565L549 331H37Z" glyph-name="minus" horiz-adv-x="600" unicode="&#8722;" /><glyph d="M-24 36H236L225 -46H-35Z" glyph-name="minus.inf" horiz-adv-x="300" unicode="&#58748;" /><glyph d="M7 205 217 390 56 575 151 659 312 474 522 659 595 575 385 390 546 205 451 121 290 306 80 121Z" glyph-name="multiply" horiz-adv-x="600" unicode="&#215;" /><glyph d="M332 0 377 342Q382 382 363.5 406Q345 430 300 430Q277 430 259 423.5Q241 417 227.5 407.5Q214 398 204 387Q194 376 187 367L139 0H9L59 380L69 530H184V461Q211 498 255 520.5Q299 543 358 543Q403 543 434 529Q465 515 483.5 490.5Q502 466 508 432.5Q514 399 509 359L462 0Z" glyph-name="n" horiz-adv-x="563" unicode="n" /><glyph d="M332 0 377 342Q382 382 363.5 406Q345 430 300 430Q277 430 259 423.5Q241 417 227.5 407.5Q214 398 204 387Q194 376 187 367L139 0H9L59 380L69 530H184V461Q211 498 255 520.5Q299 543 358 543Q403 543 434 529Q465 515 483.5 490.5Q502 466 508 432.5Q514 399 509 359L462 0ZM506 780 380 601H250L364 780Z" glyph-name="nacute" horiz-adv-x="563" unicode="&#324;" /><glyph d="M332 0 377 342Q382 382 363.5 406Q345 430 300 430Q277 430 259 423.5Q241 417 227.5 407.5Q214 398 204 387Q194 376 187 367L139 0H9L59 380L69 530H184V461Q211 498 255 520.5Q299 543 358 543Q403 543 434 529Q465 515 483.5 490.5Q502 466 508 432.5Q514 399 509 359L462 0ZM257 780 323 688 413 780H533L377 601H253L143 780Z" glyph-name="ncaron" horiz-adv-x="563" unicode="&#328;" /><glyph d="M332 0 377 342Q382 382 363.5 406Q345 430 300 430Q277 430 259 423.5Q241 417 227.5 407.5Q214 398 204 387Q194 376 187 367L139 0H9L59 380L69 530H184V461Q211 498 255 520.5Q299 543 358 543Q403 543 434 529Q465 515 483.5 490.5Q502 466 508 432.5Q514 399 509 359L462 0ZM283 -103Q275 -168 237.5 -195.5Q200 -223 133 -223L140 -170Q171 -170 194.5 -162Q218 -154 226 -133H157L168 -47H290Z" glyph-name="ncommaaccent" horiz-adv-x="563" unicode="&#326;" /><glyph d="M303 405Q342 405 376.5 424.5Q411 444 436 480Q440 495 442 510Q444 525 444 546Q444 581 435.5 606Q427 631 412.5 646.5Q398 662 378 669Q358 676 335 676H329Q275 676 238.5 641.5Q202 607 194 544L193 536Q185 471 215 438Q245 405 298 405ZM42 106Q121 109 191.5 131Q262 153 321 212Q348 240 369 273.5Q390 307 403 346Q377 320 341 304.5Q305 289 258 289Q210 289 169.5 304.5Q129 320 102 351Q75 382 63 427Q51 472 59 531L62 553Q78 671 149 732Q220 793 338 793Q405 793 453.5 771.5Q502 750 532 710.5Q562 671 572 615.5Q582 560 573 491L570 469Q565 430 554 388.5Q543 347 525 304Q507 261 480 218Q453 175 415 135Q374 91 330 63Q286 35 238 18.5Q190 2 137.5 -5Q85 -12 27 -13Z" glyph-name="nine" horiz-adv-x="600" unicode="9" /><glyph d="M107 25Q118 25 129.5 30Q141 35 150 47Q150 50 151 54Q151 57 151.5 61Q152 65 152 70Q152 93 142.5 104.5Q133 116 119 116H114Q98 116 87 104.5Q76 93 74 73L73 64Q71 43 80.5 34Q90 25 105 25ZM-27 -125Q14 -125 46 -116.5Q78 -108 101 -85Q109 -77 116 -65.5Q123 -54 128 -38Q117 -48 102.5 -52Q88 -56 73 -56Q23 -56 -1.5 -25Q-26 6 -20 63L-19 73Q-14 130 22.5 163.5Q59 197 123 197Q192 197 221 156.5Q250 116 243 52L242 42Q236 -15 219.5 -58Q203 -101 164 -142Q125 -183 73.5 -195Q22 -207 -38 -207Z" glyph-name="nine.inf" horiz-adv-x="300" unicode="&#58746;" /><glyph d="M922 165Q911 165 899.5 160Q888 155 879 143Q878 140 878 136Q877 133 877 128.5Q877 124 877 120Q877 97 886.5 85.5Q896 74 910 74H915Q931 74 942 85.5Q953 97 955 117L956 126Q958 147 948.5 156Q939 165 924 165ZM1054 315Q1013 315 982 306.5Q951 298 928 275Q920 267 913 255.5Q906 244 901 228Q912 238 926.5 242Q941 246 956 246Q1006 246 1030.5 215Q1055 184 1049 127L1048 117Q1043 60 1006.5 26.5Q970 -7 906 -7Q837 -7 808 33.5Q779 74 786 138L787 148Q793 205 809.5 248Q826 291 865 332Q904 373 954.5 385Q1005 397 1065 397ZM478 0 488 81H569L595 276L537 240L500 307L633 390H703L662 81H743L733 0ZM13 0 691 780H791L113 0ZM182 617Q193 617 204.5 622Q216 627 225 639Q225 642 226 646Q226 649 226.5 653Q227 657 227 662Q227 685 217.5 696.5Q208 708 194 708H189Q173 708 162 696.5Q151 685 149 665L148 656Q146 635 155.5 626Q165 617 180 617ZM48 467Q89 467 121 475.5Q153 484 176 507Q184 515 191 526.5Q198 538 203 554Q192 544 177.5 540Q163 536 148 536Q98 536 73.5 567Q49 598 55 655L56 665Q61 722 97.5 755.5Q134 789 198 789Q267 789 296 748.5Q325 708 318 644L317 634Q311 577 294.5 534Q278 491 239 450Q200 409 148.5 397Q97 385 37 385Z" glyph-name="ninesixteenths" horiz-adv-x="1100" unicode="&#61977;" /><glyph glyph-name="nonbreakingspace" horiz-adv-x="200" unicode="&#160;" /><glyph d="M67 555H370L447 665H542L465 555H579L563 437H382L316 343H551L535 225H232L155 115H60L137 225H23L39 343H220L286 437H51Z" glyph-name="notequal" horiz-adv-x="600" unicode="&#8800;" /><glyph d="M332 0 377 342Q382 382 363.5 406Q345 430 300 430Q277 430 259 423.5Q241 417 227.5 407.5Q214 398 204 387Q194 376 187 367L139 0H9L59 380L69 530H184V461Q211 498 255 520.5Q299 543 358 543Q403 543 434 529Q465 515 483.5 490.5Q502 466 508 432.5Q514 399 509 359L462 0ZM396 725Q410 725 420.5 733.5Q431 742 434 764H523Q521 727 510 700Q499 673 482 656Q465 639 443.5 630.5Q422 622 400 622Q377 622 358 630.5Q339 639 322 648.5Q305 658 289.5 666.5Q274 675 259 675Q245 675 234.5 666.5Q224 658 221 636H132Q134 673 145 700Q156 727 173 744Q190 761 211 769.5Q232 778 255 778Q278 778 297 769.5Q316 761 333 751.5Q350 742 365.5 733.5Q381 725 396 725Z" glyph-name="ntilde" horiz-adv-x="563" unicode="&#241;" /><glyph d="M228 320H330L375 460H273ZM101 574H194L262 780H378L310 574H412L480 780H596L528 574H600L585 460H491L446 320H518L503 206H409L342 0H226L293 206H191L124 0H8L75 206H4L19 320H112L157 460H86Z" glyph-name="numbersign" horiz-adv-x="600" unicode="#" /><glyph d="M693 191 706 290H1054L1041 191ZM849 578Q843 533 858 505Q873 477 909 477Q946 477 963.5 501.5Q981 526 987 571L990 593Q996 638 981 666Q966 694 930 694Q893 694 875.5 669.5Q858 645 852 600ZM1101 572Q1095 529 1081 493.5Q1067 458 1044 432.5Q1021 407 987.5 392.5Q954 378 909 378Q859 378 823.5 393Q788 408 766 434.5Q744 461 736.5 497.5Q729 534 735 577L738 599Q744 642 758 677.5Q772 713 795 738.5Q818 764 851.5 778.5Q885 793 930 793Q980 793 1015.5 778Q1051 763 1073 736.5Q1095 710 1102.5 673.5Q1110 637 1104 594ZM253 780 471 242 488 407 536 780H667L565 0H426L208 538L191 373L143 0H12L114 780Z" glyph-name="numero" horiz-adv-x="1110" unicode="&#8470;" /><glyph d="M240 -13Q177 -13 132 8Q87 29 60 65Q33 101 23 150Q13 199 21 255L24 277Q32 334 50 382.5Q68 431 99 466.5Q130 502 175.5 522.5Q221 543 285 543Q348 543 393 522Q438 501 465 465Q492 429 501.5 380Q511 331 504 275L501 253Q493 196 475 147.5Q457 99 426 63.5Q395 28 349.5 7.5Q304 -13 240 -13ZM243 100Q351 100 372 252L375 274Q385 346 362.5 388Q340 430 282 430Q174 430 153 278L150 256Q140 184 162.5 142Q185 100 243 100Z" glyph-name="o" horiz-adv-x="553" unicode="o" /><glyph d="M240 -13Q177 -13 132 8Q87 29 60 65Q33 101 23 150Q13 199 21 255L24 277Q32 334 50 382.5Q68 431 99 466.5Q130 502 175.5 522.5Q221 543 285 543Q348 543 393 522Q438 501 465 465Q492 429 501.5 380Q511 331 504 275L501 253Q493 196 475 147.5Q457 99 426 63.5Q395 28 349.5 7.5Q304 -13 240 -13ZM243 100Q351 100 372 252L375 274Q385 346 362.5 388Q340 430 282 430Q174 430 153 278L150 256Q140 184 162.5 142Q185 100 243 100ZM497 780 371 601H241L355 780Z" glyph-name="oacute" horiz-adv-x="553" unicode="&#243;" /><glyph d="M240 -13Q177 -13 132 8Q87 29 60 65Q33 101 23 150Q13 199 21 255L24 277Q32 334 50 382.5Q68 431 99 466.5Q130 502 175.5 522.5Q221 543 285 543Q348 543 393 522Q438 501 465 465Q492 429 501.5 380Q511 331 504 275L501 253Q493 196 475 147.5Q457 99 426 63.5Q395 28 349.5 7.5Q304 -13 240 -13ZM243 100Q351 100 372 252L375 274Q385 346 362.5 388Q340 430 282 430Q174 430 153 278L150 256Q140 184 162.5 142Q185 100 243 100ZM304 589Q254 589 221.5 603Q189 617 171 642.5Q153 668 148.5 703Q144 738 150 780H243Q237 733 256 711Q275 689 314 689Q353 689 378 711Q403 733 409 780H508Q503 738 489.5 703Q476 668 451 642.5Q426 617 389.5 603Q353 589 304 589Z" glyph-name="obreve" horiz-adv-x="553" unicode="&#335;" /><glyph d="M240 -13Q177 -13 132 8Q87 29 60 65Q33 101 23 150Q13 199 21 255L24 277Q32 334 50 382.5Q68 431 99 466.5Q130 502 175.5 522.5Q221 543 285 543Q348 543 393 522Q438 501 465 465Q492 429 501.5 380Q511 331 504 275L501 253Q493 196 475 147.5Q457 99 426 63.5Q395 28 349.5 7.5Q304 -13 240 -13ZM243 100Q351 100 372 252L375 274Q385 346 362.5 388Q340 430 282 430Q174 430 153 278L150 256Q140 184 162.5 142Q185 100 243 100ZM387 601 321 693 231 601H111L267 780H391L501 601Z" glyph-name="ocircumflex" horiz-adv-x="553" unicode="&#244;" /><glyph d="M240 -13Q177 -13 132 8Q87 29 60 65Q33 101 23 150Q13 199 21 255L24 277Q32 334 50 382.5Q68 431 99 466.5Q130 502 175.5 522.5Q221 543 285 543Q348 543 393 522Q438 501 465 465Q492 429 501.5 380Q511 331 504 275L501 253Q493 196 475 147.5Q457 99 426 63.5Q395 28 349.5 7.5Q304 -13 240 -13ZM243 100Q351 100 372 252L375 274Q385 346 362.5 388Q340 430 282 430Q174 430 153 278L150 256Q140 184 162.5 142Q185 100 243 100ZM479 622H337L356 763H498ZM279 622H137L156 763H298Z" glyph-name="odieresis" horiz-adv-x="553" unicode="&#246;" /><glyph d="M631 442Q580 442 548.5 408.5Q517 375 506 313H728Q735 373 710 407.5Q685 442 631 442ZM243 100Q351 100 372 252L375 274Q385 346 362.5 388Q340 430 282 430Q174 430 153 278L150 256Q140 184 162.5 142Q185 100 243 100ZM494 217Q489 152 517.5 120Q546 88 603 88Q631 88 651.5 95Q672 102 685.5 114Q699 126 706.5 140.5Q714 155 716 170H839L838 161Q834 125 817 93Q800 61 770.5 37.5Q741 14 698 0.5Q655 -13 600 -13Q527 -13 483.5 10.5Q440 34 419 75Q394 33 351.5 10Q309 -13 240 -13Q177 -13 132 8Q87 29 60 65Q33 101 23 150Q13 199 21 255L24 277Q32 334 50 382.5Q68 431 99 466.5Q130 502 175.5 522.5Q221 543 285 543Q354 543 395.5 518Q437 493 457 451Q483 493 526 518Q569 543 636 543Q699 543 744 522.5Q789 502 815.5 465.5Q842 429 851 378Q860 327 852 267L845 217Z" glyph-name="oe" horiz-adv-x="902" unicode="&#339;" /><glyph d="M240 0Q229 -4 215 -12Q201 -20 189 -31Q177 -42 168.5 -56Q160 -70 160 -85Q160 -101 169.5 -110.5Q179 -120 200 -120Q217 -120 230.5 -116.5Q244 -113 252 -108L272 -190Q255 -200 230 -207Q205 -214 175 -214Q118 -214 87 -191.5Q56 -169 56 -120Q56 -86 72 -57.5Q88 -29 112.5 -6Q137 17 166.5 33.5Q196 50 223 59Z" glyph-name="ogonek" horiz-adv-x="602" unicode="&#731;" /><glyph d="M240 -13Q177 -13 132 8Q87 29 60 65Q33 101 23 150Q13 199 21 255L24 277Q32 334 50 382.5Q68 431 99 466.5Q130 502 175.5 522.5Q221 543 285 543Q348 543 393 522Q438 501 465 465Q492 429 501.5 380Q511 331 504 275L501 253Q493 196 475 147.5Q457 99 426 63.5Q395 28 349.5 7.5Q304 -13 240 -13ZM243 100Q351 100 372 252L375 274Q385 346 362.5 388Q340 430 282 430Q174 430 153 278L150 256Q140 184 162.5 142Q185 100 243 100ZM303 780 371 601H241L161 780Z" glyph-name="ograve" horiz-adv-x="553" unicode="&#242;" /><glyph d="M240 -13Q177 -13 132 8Q87 29 60 65Q33 101 23 150Q13 199 21 255L24 277Q32 334 50 382.5Q68 431 99 466.5Q130 502 175.5 522.5Q221 543 285 543Q348 543 393 522Q438 501 465 465Q492 429 501.5 380Q511 331 504 275L501 253Q493 196 475 147.5Q457 99 426 63.5Q395 28 349.5 7.5Q304 -13 240 -13ZM243 100Q351 100 372 252L375 274Q385 346 362.5 388Q340 430 282 430Q174 430 153 278L150 256Q140 184 162.5 142Q185 100 243 100ZM392 780 284 601H179L275 780ZM558 780 432 601H327L441 780Z" glyph-name="ohungarumlaut" horiz-adv-x="553" unicode="&#337;" /><glyph d="M240 -13Q177 -13 132 8Q87 29 60 65Q33 101 23 150Q13 199 21 255L24 277Q32 334 50 382.5Q68 431 99 466.5Q130 502 175.5 522.5Q221 543 285 543Q348 543 393 522Q438 501 465 465Q492 429 501.5 380Q511 331 504 275L501 253Q493 196 475 147.5Q457 99 426 63.5Q395 28 349.5 7.5Q304 -13 240 -13ZM243 100Q351 100 372 252L375 274Q385 346 362.5 388Q340 430 282 430Q174 430 153 278L150 256Q140 184 162.5 142Q185 100 243 100ZM186 748H464L449 633H171Z" glyph-name="omacron" horiz-adv-x="553" unicode="&#333;" /><glyph d="M13 0 28 117H210L275 613L122 518L68 616L334 782H429L342 117H524L509 0Z" glyph-name="one" horiz-adv-x="600" unicode="1" /><glyph d="M-47 -200 -37 -119H44L70 76L12 40L-25 107L108 190H178L137 -119H218L208 -200Z" glyph-name="one.inf" horiz-adv-x="300" unicode="&#58738;" /><glyph d="M741 81 730 0H470L478 58L644 220Q669 243 672 266L673 275Q675 296 666 306Q657 316 643 316H638Q623 316 612.5 304Q602 292 597 260H504L505 269Q513 334 547 365.5Q581 397 647 397Q684 397 708.5 386.5Q733 376 746.5 359.5Q760 343 765 323.5Q770 304 768 286L767 277Q765 260 760.5 247Q756 234 749 222.5Q742 211 732.5 200Q723 189 710 176L611 80L646 81ZM13 0 691 780H791L113 0ZM28 392 38 473H119L145 668L87 632L50 699L183 782H253L212 473H293L283 392Z" glyph-name="onehalf" horiz-adv-x="800" unicode="&#189;" /><glyph d="M578 159 599 160H630L638 221L641 243ZM609 0 619 79H473L482 145L665 390H753L723 160H759L748 79H712L702 0ZM13 0 691 780H791L113 0ZM28 392 38 473H119L145 668L87 632L50 699L183 782H253L212 473H293L283 392Z" glyph-name="onequarter" horiz-adv-x="800" unicode="&#188;" /><glyph d="M922 165Q911 165 899.5 160Q888 155 879 143Q878 140 878 136Q877 133 877 128.5Q877 124 877 120Q877 97 886.5 85.5Q896 74 910 74H915Q931 74 942 85.5Q953 97 955 117L956 126Q958 147 948.5 156Q939 165 924 165ZM1054 315Q1013 315 982 306.5Q951 298 928 275Q920 267 913 255.5Q906 244 901 228Q912 238 926.5 242Q941 246 956 246Q1006 246 1030.5 215Q1055 184 1049 127L1048 117Q1043 60 1006.5 26.5Q970 -7 906 -7Q837 -7 808 33.5Q779 74 786 138L787 148Q793 205 809.5 248Q826 291 865 332Q904 373 954.5 385Q1005 397 1065 397ZM478 0 488 81H569L595 276L537 240L500 307L633 390H703L662 81H743L733 0ZM13 0 691 780H791L113 0ZM28 392 38 473H119L145 668L87 632L50 699L183 782H253L212 473H293L283 392Z" glyph-name="onesixteenth" horiz-adv-x="1100" unicode="&#61973;" /><glyph d="M28 392 38 473H119L145 668L87 632L50 699L183 782H253L212 473H293L283 392Z" glyph-name="onesuperior" horiz-adv-x="300" unicode="&#185;" /><glyph d="M29 293 44 407H297L282 293Z" glyph-name="onethirdemdash" horiz-adv-x="333" unicode="&#58481;" /><glyph d="M37 333 52 447H302L287 333Z" glyph-name="onethirdemdash.cap" horiz-adv-x="333" unicode="&#58499;" /><glyph d="M200 470Q231 470 252 484Q273 498 284 509L293 575L221 564Q195 560 180.5 546.5Q166 533 164 516L163 507Q161 490 170.5 480Q180 470 200 470ZM18 191 31 290H374L361 191ZM287 433Q264 410 233.5 394Q203 378 160 378Q127 378 104 387.5Q81 397 67.5 412.5Q54 428 49 449.5Q44 471 47 495L48 504Q52 536 65 558.5Q78 581 98 595.5Q118 610 145 618.5Q172 627 203 632L303 647Q311 706 250 706Q216 706 204.5 689.5Q193 673 190 652H82L83 661Q86 686 95.5 710Q105 734 124.5 752.5Q144 771 174.5 782Q205 793 250 793Q348 793 386.5 754Q425 715 415 642L396 499L389 387H287Z" glyph-name="ordfeminine" horiz-adv-x="416" unicode="&#170;" /><glyph d="M18 191 31 290H379L366 191ZM174 578Q168 533 183 505Q198 477 234 477Q271 477 288.5 501.5Q306 526 312 571L315 593Q321 638 306 666Q291 694 255 694Q218 694 200.5 669.5Q183 645 177 600ZM426 572Q420 529 406 493.5Q392 458 369 432.5Q346 407 312.5 392.5Q279 378 234 378Q184 378 148.5 393Q113 408 91 434.5Q69 461 61.5 497.5Q54 534 60 577L63 599Q69 642 83 677.5Q97 713 120 738.5Q143 764 176.5 778.5Q210 793 255 793Q305 793 340.5 778Q376 763 398 736.5Q420 710 427.5 673.5Q435 637 429 594Z" glyph-name="ordmasculine" horiz-adv-x="435" unicode="&#186;" /><glyph d="M150 256Q144 217 149 184L346 407Q323 430 282 430Q174 430 153 278ZM243 100Q351 100 372 252L375 274Q379 314 375 346L178 122Q203 100 243 100ZM-13 0 53 75Q30 110 21.5 156Q13 202 21 255L24 277Q32 334 50 382.5Q68 431 99 466.5Q130 502 175.5 522.5Q221 543 285 543Q373 543 429 501L454 530H538L472 455Q495 420 503 374Q511 328 504 275L501 253Q493 196 475 147.5Q457 99 426 63.5Q395 28 349.5 7.5Q304 -13 240 -13Q194 -13 158 -2.5Q122 8 96 28L71 0Z" glyph-name="oslash" horiz-adv-x="553" unicode="&#248;" /><glyph d="M240 -13Q177 -13 132 8Q87 29 60 65Q33 101 23 150Q13 199 21 255L24 277Q32 334 50 382.5Q68 431 99 466.5Q130 502 175.5 522.5Q221 543 285 543Q348 543 393 522Q438 501 465 465Q492 429 501.5 380Q511 331 504 275L501 253Q493 196 475 147.5Q457 99 426 63.5Q395 28 349.5 7.5Q304 -13 240 -13ZM243 100Q351 100 372 252L375 274Q385 346 362.5 388Q340 430 282 430Q174 430 153 278L150 256Q140 184 162.5 142Q185 100 243 100ZM387 725Q401 725 411.5 733.5Q422 742 425 764H514Q512 727 501 700Q490 673 473 656Q456 639 434.5 630.5Q413 622 391 622Q368 622 349 630.5Q330 639 313 648.5Q296 658 280.5 666.5Q265 675 250 675Q236 675 225.5 666.5Q215 658 212 636H123Q125 673 136 700Q147 727 164 744Q181 761 202 769.5Q223 778 246 778Q269 778 288 769.5Q307 761 324 751.5Q341 742 356.5 733.5Q372 725 387 725Z" glyph-name="otilde" horiz-adv-x="553" unicode="&#245;" /><glyph d="M254 100Q309 100 340.5 140.5Q372 181 382 252L385 274Q395 345 372.5 387.5Q350 430 294 430Q274 430 257.5 424Q241 418 227.5 409.5Q214 401 203.5 390.5Q193 380 186 371L159 163Q163 153 171 142Q179 131 190.5 121.5Q202 112 218 106Q234 100 254 100ZM344 543Q394 543 430 523Q466 503 487 467.5Q508 432 515 382.5Q522 333 514 275L511 253Q503 196 486 147Q469 98 441.5 62.5Q414 27 375 7Q336 -13 284 -13Q254 -13 231 -7Q208 -1 191.5 9Q175 19 163 30Q151 41 144 52L111 -200H-19L58 380L68 530H183V461Q209 497 251 520Q293 543 344 543Z" glyph-name="p" horiz-adv-x="563" unicode="p" /><glyph d="M183 531Q179 502 182 482Q185 462 193 448Q201 434 213.5 425.5Q226 417 241 413L273 658Q236 649 213.5 622Q191 595 184 539ZM226 295Q187 301 151 315.5Q115 330 89 357Q63 384 50.5 425Q38 466 46 524L49 546Q59 618 87.5 664Q116 710 156 735.5Q196 761 243 770.5Q290 780 336 780H533L431 0H297L384 663H338L251 0H187Z" glyph-name="paragraph" horiz-adv-x="538" unicode="&#182;" /><glyph d="M42 371Q54 461 75.5 531.5Q97 602 124.5 658Q152 714 184 758Q216 802 250 840H395Q356 797 320.5 748.5Q285 700 256 643Q227 586 205.5 518.5Q184 451 173 371L170 349Q159 269 165 198.5Q171 128 186 68.5Q201 9 222.5 -38.5Q244 -86 265 -120H129Q103 -81 81.5 -33.5Q60 14 47 71.5Q34 129 31 197.5Q28 266 39 349Z" glyph-name="parenleft" horiz-adv-x="350" unicode="(" /><glyph d="M53 401Q70 528 117 622Q164 716 223 780H362Q334 746 305.5 706Q277 666 253 619.5Q229 573 210.5 518.5Q192 464 183 401L180 379Q172 322 176.5 268Q181 214 193 165.5Q205 117 222.5 75Q240 33 257 0H123Q104 28 87 68Q70 108 59 157Q48 206 45 262.5Q42 319 50 379Z" glyph-name="parenleft.cap" horiz-adv-x="350" unicode="&#58513;" /><glyph d="M-27 -1Q-20 63 4 112Q28 161 59 190H158Q144 175 129 154Q114 133 101 108.5Q88 84 78 56Q68 28 65 -1L64 -10Q61 -39 63.5 -67Q66 -95 72 -119.5Q78 -144 86 -164.5Q94 -185 102 -200H13Q4 -186 -5 -166Q-14 -146 -20 -121Q-26 -96 -28.5 -68Q-31 -40 -28 -10Z" glyph-name="parenleft.inf" horiz-adv-x="194" unicode="&#58750;" /><glyph d="M304 349Q292 259 270.5 188.5Q249 118 221.5 62Q194 6 162 -38.5Q130 -83 96 -120H-49Q-10 -77 25 -28.5Q60 20 89.5 77Q119 134 140.5 201.5Q162 269 173 349L176 371Q187 450 181 521Q175 592 160 651.5Q145 711 123.5 758.5Q102 806 81 840H217Q243 801 264.5 753.5Q286 706 299 648.5Q312 591 315 522Q318 453 307 371Z" glyph-name="parenright" horiz-adv-x="350" unicode=")" /><glyph d="M302 379Q285 251 238 157.5Q191 64 132 0H-7Q21 34 49.5 74Q78 114 102 160.5Q126 207 144.5 261.5Q163 316 172 379L175 401Q183 458 178.5 512Q174 566 162 614.5Q150 663 132.5 705Q115 747 98 780H232Q251 752 268 712Q285 672 296 623Q307 574 310 517.5Q313 461 305 401Z" glyph-name="parenright.cap" horiz-adv-x="350" unicode="&#58514;" /><glyph d="M120 -9Q113 -73 89 -122Q65 -171 34 -200H-65Q-51 -185 -36 -164Q-21 -143 -8 -118.5Q5 -94 15 -66Q25 -38 28 -9L29 0Q32 29 29.5 56.5Q27 84 21 109Q15 134 6.5 154.5Q-2 175 -9 190H80Q89 176 98 156Q107 136 113 111Q119 86 121.5 58Q124 30 121 0Z" glyph-name="parenright.inf" horiz-adv-x="194" unicode="&#58751;" /><glyph d="M254 100Q309 100 340.5 140.5Q372 181 382 252L385 274Q395 345 372.5 387.5Q350 430 294 430Q274 430 257.5 424Q241 418 227.5 409.5Q214 401 203.5 390.5Q193 380 186 371L159 163Q163 153 171 142Q179 131 190.5 121.5Q202 112 218 106Q234 100 254 100ZM344 543Q394 543 430 523Q466 503 487 467.5Q508 432 515 382.5Q522 333 514 275L511 253Q503 196 486 147Q469 98 441.5 62.5Q414 27 375 7Q336 -13 284 -13Q254 -13 231 -7Q208 -1 191.5 9Q175 19 163 30Q151 41 144 52L111 -200H-19L58 380L68 530H183V461Q209 497 251 520Q293 543 344 543ZM393 622H251L270 763H412Z" glyph-name="pdotaccent" horiz-adv-x="563" unicode="&#7767;" /><glyph d="M232 413Q179 413 143.5 429.5Q108 446 88 473Q68 500 61.5 533.5Q55 567 59 601L60 609Q65 648 81.5 681.5Q98 715 123.5 740Q149 765 182.5 779Q216 793 256 793Q285 793 305.5 788.5Q326 784 345 778Q375 768 411 759.5Q447 751 505 751Q536 751 570.5 754.5Q605 758 636 762.5Q667 767 692 772.5Q717 778 729 783L720 713L328 0H212L572 655Q566 653 540.5 649Q515 645 484 645Q469 645 455.5 646Q442 647 430 649Q432 624 429 605L428 597Q423 558 406.5 524.5Q390 491 364.5 466Q339 441 305.5 427Q272 413 232 413ZM717 88Q754 88 778.5 110Q803 132 808 173L809 181Q813 214 796 240Q779 266 737 266H731Q694 266 669.5 244Q645 222 640 181L639 173Q635 140 652 114Q669 88 711 88ZM237 514Q274 514 298.5 536Q323 558 328 599L329 607Q333 640 316 666Q299 692 257 692H251Q214 692 189.5 670Q165 648 160 607L159 599Q155 566 172 540Q189 514 231 514ZM712 -13Q659 -13 623.5 3.5Q588 20 568 47Q548 74 541.5 107.5Q535 141 539 175L540 183Q545 222 561.5 255.5Q578 289 603.5 314Q629 339 662.5 353Q696 367 736 367Q789 367 824.5 350.5Q860 334 880 307Q900 280 906.5 246.5Q913 213 909 179L908 171Q903 132 886.5 98.5Q870 65 844.5 40Q819 15 785.5 1Q752 -13 712 -13Z" glyph-name="percent" horiz-adv-x="963" unicode="%" /><glyph d="M147 0H5L24 141H166Z" glyph-name="period" horiz-adv-x="250" unicode="." /><glyph d="M172 0H30L49 141H191Z" glyph-name="period.T" horiz-adv-x="300" unicode="&#61826;" /><glyph d="M183 280H41L60 421H202Z" glyph-name="periodcentered" horiz-adv-x="250" unicode="&#183;" /><glyph d="M188 320H46L65 461H207Z" glyph-name="periodcentered.cap" horiz-adv-x="250" unicode="&#58497;" /><glyph d="M232 413Q179 413 143.5 429.5Q108 446 88 473Q68 500 61.5 533.5Q55 567 59 601L60 609Q65 648 81.5 681.5Q98 715 123.5 740Q149 765 182.5 779Q216 793 256 793Q285 793 305.5 788.5Q326 784 345 778Q375 768 411 759.5Q447 751 505 751Q536 751 570.5 754.5Q605 758 636 762.5Q667 767 692 772.5Q717 778 729 783L720 713L328 0H212L572 655Q566 653 540.5 649Q515 645 484 645Q469 645 455.5 646Q442 647 430 649Q432 624 429 605L428 597Q423 558 406.5 524.5Q390 491 364.5 466Q339 441 305.5 427Q272 413 232 413ZM717 88Q754 88 778.5 110Q803 132 808 173L809 181Q813 214 796 240Q779 266 737 266H731Q694 266 669.5 244Q645 222 640 181L639 173Q635 140 652 114Q669 88 711 88ZM1117 88Q1154 88 1178.5 110Q1203 132 1208 173L1209 181Q1213 214 1196 240Q1179 266 1137 266H1131Q1094 266 1069.5 244Q1045 222 1040 181L1039 173Q1035 140 1052 114Q1069 88 1111 88ZM237 514Q274 514 298.5 536Q323 558 328 599L329 607Q333 640 316 666Q299 692 257 692H251Q214 692 189.5 670Q165 648 160 607L159 599Q155 566 172 540Q189 514 231 514ZM712 -13Q659 -13 623.5 3.5Q588 20 568 47Q548 74 541.5 107.5Q535 141 539 175L540 183Q545 222 561.5 255.5Q578 289 603.5 314Q629 339 662.5 353Q696 367 736 367Q789 367 824.5 350.5Q860 334 880 307Q900 280 906.5 246.5Q913 213 909 179L908 171Q903 132 886.5 98.5Q870 65 844.5 40Q819 15 785.5 1Q752 -13 712 -13ZM1112 -13Q1059 -13 1023.5 3.5Q988 20 968 47Q948 74 941.5 107.5Q935 141 939 175L940 183Q945 222 961.5 255.5Q978 289 1003.5 314Q1029 339 1062.5 353Q1096 367 1136 367Q1189 367 1224.5 350.5Q1260 334 1280 307Q1300 280 1306.5 246.5Q1313 213 1309 179L1308 171Q1303 132 1286.5 98.5Q1270 65 1244.5 40Q1219 15 1185.5 1Q1152 -13 1112 -13Z" glyph-name="perthousand" horiz-adv-x="1363" unicode="&#8240;" /><glyph d="M394 646 368 449H565L549 331H353L326 134H208L234 331H37L53 449H249L276 646Z" glyph-name="plus" horiz-adv-x="600" unicode="+" /><glyph d="M159 125 147 36H236L225 -46H136L125 -135H43L54 -46H-35L-24 36H65L77 125Z" glyph-name="plus.inf" horiz-adv-x="300" unicode="&#58747;" /><glyph d="M28 262H540L524 144H12ZM397 665 381 548H578L562 430H366L350 313H231L247 430H50L66 548H262L278 665Z" glyph-name="plusminus" horiz-adv-x="600" unicode="&#177;" /><glyph d="M482 406Q493 406 504.5 408.5Q516 411 525.5 418Q535 425 541 437Q547 449 547 468V475Q547 494 541 506Q535 518 525.5 525Q516 532 504.5 534.5Q493 537 482 537H400V406ZM400 155H282V625H506Q534 625 562.5 618.5Q591 612 613.5 595.5Q636 579 650.5 550.5Q665 522 665 477V466Q665 421 650.5 392Q636 363 613.5 346.5Q591 330 562.5 324Q534 318 506 318H400ZM109 390Q109 317 136.5 253Q164 189 211.5 141.5Q259 94 323 66.5Q387 39 460 39Q533 39 597 66.5Q661 94 708.5 141.5Q756 189 783.5 253Q811 317 811 390Q811 463 783.5 527Q756 591 708.5 638.5Q661 686 597 713.5Q533 741 460 741Q387 741 323 713.5Q259 686 211.5 638.5Q164 591 136.5 527Q109 463 109 390ZM57 390Q57 473 88.5 546.5Q120 620 175 674.5Q230 729 303.5 761Q377 793 460 793Q543 793 616.5 761Q690 729 744.5 674.5Q799 620 831 546.5Q863 473 863 390Q863 307 831 233.5Q799 160 744.5 105Q690 50 616.5 18.5Q543 -13 460 -13Q377 -13 303.5 18.5Q230 50 175 105Q120 160 88.5 233.5Q57 307 57 390Z" glyph-name="published" horiz-adv-x="920" unicode="&#8471;" /><glyph glyph-name="punctuationspace" horiz-adv-x="180" unicode="&#8200;" /><glyph d="M377 367Q372 377 364.5 388Q357 399 345.5 408.5Q334 418 318 424Q302 430 282 430Q227 430 195.5 389.5Q164 349 154 278L151 256Q141 185 163.5 142.5Q186 100 242 100Q262 100 278.5 106Q295 112 308.5 120.5Q322 129 332.5 139.5Q343 150 350 159ZM335 47Q315 26 279 6.5Q243 -13 192 -13Q142 -13 106 7Q70 27 49 62.5Q28 98 21 147Q14 196 22 255L25 277Q33 334 50 383Q67 432 94.5 467.5Q122 503 161 523Q200 543 252 543Q312 543 348 519Q384 495 402 461L421 530H536L508 380L432 -200H302Z" glyph-name="q" horiz-adv-x="568" unicode="q" /><glyph d="M261 0H119L138 141H280ZM290 677Q236 677 209.5 636Q183 595 172 513H41L43 528Q51 589 67.5 638.5Q84 688 112.5 722Q141 756 183.5 774.5Q226 793 288 793Q394 793 443.5 746.5Q493 700 493 609Q493 563 477.5 528Q462 493 438 463Q414 433 386 406Q358 379 332 350.5Q306 322 287 289.5Q268 257 263 216H173Q173 260 187 298Q201 336 221.5 369.5Q242 403 266 433Q290 463 310.5 490.5Q331 518 345 544Q359 570 359 595Q359 633 345 655Q331 677 290 677Z" glyph-name="question" horiz-adv-x="484" unicode="?" /><glyph d="M194 530H336L317 389H175ZM171 -98Q225 -98 251 -60Q277 -22 288 60H419L417 45Q409 -14 391.5 -61.5Q374 -109 345 -143Q316 -177 273.5 -195.5Q231 -214 173 -214Q65 -214 16.5 -171Q-32 -128 -32 -42Q-32 2 -16.5 36Q-1 70 22.5 98.5Q46 127 74 151Q102 175 127 200Q152 225 170 252.5Q188 280 192 314H282Q282 272 268.5 237.5Q255 203 235 174.5Q215 146 192 121Q169 96 149 71.5Q129 47 115.5 22.5Q102 -2 102 -30Q102 -59 117.5 -78.5Q133 -98 171 -98Z" glyph-name="questiondown" horiz-adv-x="484" unicode="&#191;" /><glyph d="M198 103Q252 103 278.5 144Q305 185 316 267H447L445 252Q437 190 420.5 141Q404 92 375.5 58Q347 24 304 5.5Q261 -13 200 -13Q94 -13 44.5 33.5Q-5 80 -5 171Q-5 216 10.5 251.5Q26 287 50 317Q74 347 102 374Q130 401 156 429.5Q182 458 201 490.5Q220 523 225 564H315Q315 520 301 482Q287 444 266.5 410.5Q246 377 222 347Q198 317 177.5 289.5Q157 262 143 236Q129 210 129 185Q129 147 143 125Q157 103 198 103ZM227 780H369L350 639H208Z" glyph-name="questiondown.cap" horiz-adv-x="484" unicode="&#58436;" /><glyph d="M411 780 350 474H251L282 780ZM237 780 188 474H88L107 780Z" glyph-name="quotedbl" horiz-adv-x="413" unicode="&quot;" /><glyph d="M346 30Q323 -135 171 -135L180 -67Q250 -67 272 0H200L219 141H361ZM151 30Q128 -135 -24 -135L-15 -67Q55 -67 77 0H5L24 141H166Z" glyph-name="quotedblbase" horiz-adv-x="445" unicode="&#8222;" /><glyph d="M272 637Q294 802 447 802L438 734Q368 734 346 667H418L399 526H257ZM77 637Q99 802 252 802L243 734Q173 734 151 667H223L204 526H62Z" glyph-name="quotedblleft" horiz-adv-x="445" unicode="&#8220;" /><glyph d="M430 669Q407 504 255 504L264 572Q334 572 356 639H284L303 780H445ZM235 669Q212 504 60 504L69 572Q139 572 161 639H89L108 780H250Z" glyph-name="quotedblright" horiz-adv-x="445" unicode="&#8221;" /><glyph d="M77 637Q99 802 252 802L243 734Q173 734 151 667H223L204 526H62Z" glyph-name="quoteleft" horiz-adv-x="250" unicode="&#8216;" /><glyph d="M235 669Q212 504 60 504L69 572Q139 572 161 639H89L108 780H250Z" glyph-name="quoteright" horiz-adv-x="250" unicode="&#8217;" /><glyph d="M151 30Q128 -135 -24 -135L-15 -67Q55 -67 77 0H5L24 141H166Z" glyph-name="quotesinglbase" horiz-adv-x="250" unicode="&#8218;" /><glyph d="M249 780 188 474H88L107 780Z" glyph-name="quotesingle" horiz-adv-x="250" unicode="&apos;" /><glyph d="M340 543Q342 543 345 542.5Q348 542 350 542H355L338 410H315Q268 410 234.5 392.5Q201 375 185 354L139 0H9L59 380L69 530H184V463Q207 498 249 520.5Q291 543 340 543Z" glyph-name="r" horiz-adv-x="368" unicode="r" /><glyph d="M340 543Q342 543 345 542.5Q348 542 350 542H355L338 410H315Q268 410 234.5 392.5Q201 375 185 354L139 0H9L59 380L69 530H184V463Q207 498 249 520.5Q291 543 340 543ZM416 780 290 601H160L274 780Z" glyph-name="racute" horiz-adv-x="368" unicode="&#341;" /><glyph d="M340 543Q342 543 345 542.5Q348 542 350 542H355L338 410H315Q268 410 234.5 392.5Q201 375 185 354L139 0H9L59 380L69 530H184V463Q207 498 249 520.5Q291 543 340 543ZM167 780 233 688 323 780H443L287 601H163L53 780Z" glyph-name="rcaron" horiz-adv-x="368" unicode="&#345;" /><glyph d="M340 543Q342 543 345 542.5Q348 542 350 542H355L338 410H315Q268 410 234.5 392.5Q201 375 185 354L139 0H9L59 380L69 530H184V463Q207 498 249 520.5Q291 543 340 543ZM122 -103Q114 -168 76.5 -195.5Q39 -223 -28 -223L-21 -170Q10 -170 33.5 -162Q57 -154 65 -133H-4L7 -47H129Z" glyph-name="rcommaaccent" horiz-adv-x="368" unicode="&#343;" /><glyph d="M189 694Q189 714 167 714H141V672H167Q189 672 189 692ZM238 690Q238 670 230 658Q222 646 209 640L238 579H187L164 635H141V579H92V751H178Q201 751 219.5 739Q238 727 238 696ZM41 665Q41 639 51 616.5Q61 594 77.5 577.5Q94 561 116.5 551Q139 541 165 541Q190 541 213 551Q236 561 252.5 577.5Q269 594 279 616.5Q289 639 289 665Q289 690 279 713Q269 736 252.5 752.5Q236 769 213 779Q190 789 165 789Q139 789 116.5 779Q94 769 77.5 752.5Q61 736 51 713Q41 690 41 665ZM17 665Q17 695 28.5 722Q40 749 60.5 769.5Q81 790 108 801.5Q135 813 165 813Q195 813 222 801.5Q249 790 269.5 769.5Q290 749 301.5 722Q313 695 313 665Q313 635 301.5 608Q290 581 269.5 560.5Q249 540 222 528.5Q195 517 165 517Q135 517 108 528.5Q81 540 60.5 560.5Q40 581 28.5 608Q17 635 17 665Z" glyph-name="registered" horiz-adv-x="330" unicode="&#174;" /><glyph d="M469 406Q481 406 492.5 408.5Q504 411 513 418Q522 425 528 437Q534 449 534 468V475Q534 494 528 506Q522 518 513 525Q504 532 492.5 534.5Q481 537 469 537H387V406ZM387 155H270V625H494Q522 625 550.5 618.5Q579 612 601.5 595.5Q624 579 638 550.5Q652 522 652 477V466Q652 411 631.5 380Q611 349 580 335L652 155H528L475 318H387ZM109 390Q109 317 136.5 253Q164 189 211.5 141.5Q259 94 323 66.5Q387 39 460 39Q533 39 597 66.5Q661 94 708.5 141.5Q756 189 783.5 253Q811 317 811 390Q811 463 783.5 527Q756 591 708.5 638.5Q661 686 597 713.5Q533 741 460 741Q387 741 323 713.5Q259 686 211.5 638.5Q164 591 136.5 527Q109 463 109 390ZM57 390Q57 473 88.5 546.5Q120 620 175 674.5Q230 729 303.5 761Q377 793 460 793Q543 793 616.5 761Q690 729 744.5 674.5Q799 620 831 546.5Q863 473 863 390Q863 307 831 233.5Q799 160 744.5 105Q690 50 616.5 18.5Q543 -13 460 -13Q377 -13 303.5 18.5Q230 50 175 105Q120 160 88.5 233.5Q57 307 57 390Z" glyph-name="registered.cap" horiz-adv-x="920" unicode="&#59804;" /><glyph d="M433 780 414 639H343Q343 598 362 584.5Q381 571 417 571L408 503Q332 503 298 542.5Q264 582 275 663L291 780ZM238 780 219 639H148Q148 598 167 584.5Q186 571 222 571L213 503Q137 503 103 542.5Q69 582 80 663L96 780Z" glyph-name="reversequotedblleft" horiz-adv-x="445" unicode="&#8223;" /><glyph d="M238 780 219 639H148Q148 598 167 584.5Q186 571 222 571L213 503Q137 503 103 542.5Q69 582 80 663L96 780Z" glyph-name="reversequoteleft" horiz-adv-x="250" unicode="&#8219;" /><glyph d="M343 698Q343 719 330.5 731.5Q318 744 298 744Q275 744 257 729Q239 714 239 685Q239 664 251.5 651.5Q264 639 284 639Q307 639 325 654Q343 669 343 698ZM188 685Q188 708 197 728Q206 748 221 762.5Q236 777 256 785.5Q276 794 298 794Q340 794 367 767.5Q394 741 394 698Q394 675 385 655Q376 635 361 620.5Q346 606 326 597.5Q306 589 284 589Q242 589 215 615.5Q188 642 188 685Z" glyph-name="ring" horiz-adv-x="500" unicode="&#730;" /><glyph d="M366 868Q366 889 353.5 901.5Q341 914 321 914Q298 914 280 899Q262 884 262 855Q262 834 274.5 821.5Q287 809 307 809Q330 809 348 824Q366 839 366 868ZM211 855Q211 878 220 898Q229 918 244 932.5Q259 947 279 955.5Q299 964 321 964Q363 964 390 937.5Q417 911 417 868Q417 845 408 825Q399 805 384 790.5Q369 776 349 767.5Q329 759 307 759Q265 759 238 785.5Q211 812 211 855Z" glyph-name="ring.cap" horiz-adv-x="500" unicode="&#58410;" /><glyph d="M311 408Q367 408 402 434.5Q437 461 446 532L447 540Q452 578 445 602Q438 626 423 639.5Q408 653 387 658Q366 663 342 663H268L234 408ZM23 408H100L149 780H345Q391 780 437.5 769.5Q484 759 520 732.5Q556 706 574.5 661Q593 616 584 547L581 525Q571 452 542 406.5Q513 361 473.5 335.5Q434 310 387 300.5Q340 291 294 291H219L213 246H405L390 129H198L181 0H47L64 129H-13L2 246H79L85 291H8Z" glyph-name="ruble" horiz-adv-x="600" unicode="&#8381;" /><glyph d="M229 88Q246 88 263 92Q280 96 294 104.5Q308 113 316.5 126.5Q325 140 325 160Q325 189 302.5 203.5Q280 218 231 223Q124 235 82.5 272.5Q41 310 49 381L50 390Q54 427 73 456Q92 485 122 504Q152 523 191.5 533Q231 543 275 543Q335 543 375.5 531Q416 519 440 496Q464 473 472 440Q480 407 476 366L475 357H348Q353 397 336 419.5Q319 442 267 442Q252 442 235.5 438.5Q219 435 206 426.5Q193 418 184.5 405Q176 392 176 373Q176 347 195.5 334.5Q215 322 268 317Q313 312 349.5 302Q386 292 411 273Q436 254 447 225Q458 196 454 154L453 145Q449 110 431.5 81Q414 52 384 31Q354 10 313 -1.5Q272 -13 221 -13Q160 -13 118.5 -0.5Q77 12 52.5 34.5Q28 57 19 88.5Q10 120 14 157L15 166H144Q139 131 158 109.5Q177 88 229 88Z" glyph-name="s" horiz-adv-x="526" unicode="s" /><glyph d="M229 88Q246 88 263 92Q280 96 294 104.5Q308 113 316.5 126.5Q325 140 325 160Q325 189 302.5 203.5Q280 218 231 223Q124 235 82.5 272.5Q41 310 49 381L50 390Q54 427 73 456Q92 485 122 504Q152 523 191.5 533Q231 543 275 543Q335 543 375.5 531Q416 519 440 496Q464 473 472 440Q480 407 476 366L475 357H348Q353 397 336 419.5Q319 442 267 442Q252 442 235.5 438.5Q219 435 206 426.5Q193 418 184.5 405Q176 392 176 373Q176 347 195.5 334.5Q215 322 268 317Q313 312 349.5 302Q386 292 411 273Q436 254 447 225Q458 196 454 154L453 145Q449 110 431.5 81Q414 52 384 31Q354 10 313 -1.5Q272 -13 221 -13Q160 -13 118.5 -0.5Q77 12 52.5 34.5Q28 57 19 88.5Q10 120 14 157L15 166H144Q139 131 158 109.5Q177 88 229 88ZM484 780 358 601H228L342 780Z" glyph-name="sacute" horiz-adv-x="526" unicode="&#347;" /><glyph d="M229 88Q246 88 263 92Q280 96 294 104.5Q308 113 316.5 126.5Q325 140 325 160Q325 189 302.5 203.5Q280 218 231 223Q124 235 82.5 272.5Q41 310 49 381L50 390Q54 427 73 456Q92 485 122 504Q152 523 191.5 533Q231 543 275 543Q335 543 375.5 531Q416 519 440 496Q464 473 472 440Q480 407 476 366L475 357H348Q353 397 336 419.5Q319 442 267 442Q252 442 235.5 438.5Q219 435 206 426.5Q193 418 184.5 405Q176 392 176 373Q176 347 195.5 334.5Q215 322 268 317Q313 312 349.5 302Q386 292 411 273Q436 254 447 225Q458 196 454 154L453 145Q449 110 431.5 81Q414 52 384 31Q354 10 313 -1.5Q272 -13 221 -13Q160 -13 118.5 -0.5Q77 12 52.5 34.5Q28 57 19 88.5Q10 120 14 157L15 166H144Q139 131 158 109.5Q177 88 229 88ZM235 780 301 688 391 780H511L355 601H231L121 780Z" glyph-name="scaron" horiz-adv-x="526" unicode="&#353;" /><glyph d="M229 88Q246 88 263 92Q280 96 294 104.5Q308 113 316.5 126.5Q325 140 325 160Q325 189 302.5 203.5Q280 218 231 223Q124 235 82.5 272.5Q41 310 49 381L50 390Q54 427 73 456Q92 485 122 504Q152 523 191.5 533Q231 543 275 543Q335 543 375.5 531Q416 519 440 496Q464 473 472 440Q480 407 476 366L475 357H348Q353 397 336 419.5Q319 442 267 442Q252 442 235.5 438.5Q219 435 206 426.5Q193 418 184.5 405Q176 392 176 373Q176 347 195.5 334.5Q215 322 268 317Q313 312 349.5 302Q386 292 411 273Q436 254 447 225Q458 196 454 154L453 145Q445 79 389.5 36Q334 -7 240 -12L224 -45Q261 -48 287.5 -65Q314 -82 314 -120Q314 -165 279 -189.5Q244 -214 187 -214Q153 -214 127.5 -207Q102 -200 88 -190L116 -131Q142 -147 188 -147Q239 -147 239 -121Q239 -97 193 -97Q185 -97 178 -97.5Q171 -98 166 -99Q160 -100 155 -101L142 -75L175 -11Q80 -2 43 44Q6 90 14 157L15 166H144Q139 131 158 109.5Q177 88 229 88Z" glyph-name="scedilla" horiz-adv-x="526" unicode="&#351;" /><glyph d="M229 88Q246 88 263 92Q280 96 294 104.5Q308 113 316.5 126.5Q325 140 325 160Q325 189 302.5 203.5Q280 218 231 223Q124 235 82.5 272.5Q41 310 49 381L50 390Q54 427 73 456Q92 485 122 504Q152 523 191.5 533Q231 543 275 543Q335 543 375.5 531Q416 519 440 496Q464 473 472 440Q480 407 476 366L475 357H348Q353 397 336 419.5Q319 442 267 442Q252 442 235.5 438.5Q219 435 206 426.5Q193 418 184.5 405Q176 392 176 373Q176 347 195.5 334.5Q215 322 268 317Q313 312 349.5 302Q386 292 411 273Q436 254 447 225Q458 196 454 154L453 145Q449 110 431.5 81Q414 52 384 31Q354 10 313 -1.5Q272 -13 221 -13Q160 -13 118.5 -0.5Q77 12 52.5 34.5Q28 57 19 88.5Q10 120 14 157L15 166H144Q139 131 158 109.5Q177 88 229 88ZM374 601 308 693 218 601H98L254 780H378L488 601Z" glyph-name="scircumflex" horiz-adv-x="526" unicode="&#349;" /><glyph d="M229 88Q246 88 263 92Q280 96 294 104.5Q308 113 316.5 126.5Q325 140 325 160Q325 189 302.5 203.5Q280 218 231 223Q124 235 82.5 272.5Q41 310 49 381L50 390Q54 427 73 456Q92 485 122 504Q152 523 191.5 533Q231 543 275 543Q335 543 375.5 531Q416 519 440 496Q464 473 472 440Q480 407 476 366L475 357H348Q353 397 336 419.5Q319 442 267 442Q252 442 235.5 438.5Q219 435 206 426.5Q193 418 184.5 405Q176 392 176 373Q176 347 195.5 334.5Q215 322 268 317Q313 312 349.5 302Q386 292 411 273Q436 254 447 225Q458 196 454 154L453 145Q449 110 431.5 81Q414 52 384 31Q354 10 313 -1.5Q272 -13 221 -13Q160 -13 118.5 -0.5Q77 12 52.5 34.5Q28 57 19 88.5Q10 120 14 157L15 166H144Q139 131 158 109.5Q177 88 229 88ZM261 -103Q253 -168 215.5 -195.5Q178 -223 111 -223L118 -170Q149 -170 172.5 -162Q196 -154 204 -133H135L146 -47H268Z" glyph-name="scommaaccent" horiz-adv-x="526" unicode="&#537;" /><glyph d="M272 466Q218 466 192 441.5Q166 417 166 381Q166 347 190.5 330.5Q215 314 260 314H269Q323 314 349 338.5Q375 363 375 399Q375 433 350.5 449.5Q326 466 281 466ZM130 515Q91 554 99 620L100 629Q105 671 124.5 702Q144 733 174 753.5Q204 774 242 783.5Q280 793 322 793Q385 793 426.5 781Q468 769 492 746Q516 723 524 690.5Q532 658 528 616L527 607H400Q405 646 387 669Q369 692 314 692Q275 692 251.5 672.5Q228 653 228 625Q228 591 249.5 577Q271 563 323 557Q377 551 413.5 538.5Q450 526 471.5 506.5Q493 487 501 459.5Q509 432 505 397L504 388Q499 343 475 314Q451 285 411 265Q450 226 442 160L441 151Q436 109 416.5 78Q397 47 367 26.5Q337 6 299 -3.5Q261 -13 219 -13Q156 -13 114.5 -1Q73 11 49 34Q25 57 16.5 89.5Q8 122 13 164L14 173H141Q136 134 154 111Q172 88 227 88Q266 88 289.5 107.5Q313 127 313 155Q313 189 291.5 203Q270 217 218 223Q111 235 69.5 273.5Q28 312 36 383L37 392Q42 437 66 466Q90 495 130 515Z" glyph-name="section" horiz-adv-x="538" unicode="&#167;" /><glyph d="M151 30Q128 -135 -24 -135L-15 -67Q55 -67 77 0H5L24 141H166ZM188 319H46L65 460H207Z" glyph-name="semicolon" horiz-adv-x="250" unicode=";" /><glyph d="M176 30Q153 -135 1 -135L10 -67Q80 -67 102 0H30L49 141H191ZM213 319H71L90 460H232Z" glyph-name="semicolon.T" horiz-adv-x="300" unicode="&#61829;" /><glyph d="M401 530H340L294 704L296 642V530H239V800H325L371 627L416 800H502V530H445V642L447 704ZM103 642Q57 648 37 665.5Q17 683 17 721V725Q17 763 41 785.5Q65 808 112 808Q163 808 185.5 783.5Q208 759 208 711V703H151Q151 731 143 744Q135 757 113 757H110Q93 757 84 749Q75 741 75 728V726Q75 711 85.5 703Q96 695 122 691Q167 685 188.5 667Q210 649 210 611V606Q210 567 185.5 544Q161 521 112 521Q14 521 14 620V623H71Q71 571 112 571H115Q135 571 143.5 580.5Q152 590 152 604V606Q152 621 141.5 629Q131 637 103 642Z" glyph-name="servicemark" horiz-adv-x="548" unicode="&#8480;" /><glyph d="M96 780H614L604 701L228 0H86L450 665L349 663H198L176 500H59Z" glyph-name="seven" horiz-adv-x="600" unicode="7" /><glyph d="M-9 190H261L254 132L75 -200H-24L147 110L102 109H62L55 50H-27Z" glyph-name="seven.inf" horiz-adv-x="300" unicode="&#58744;" /><glyph d="M922 165Q911 165 899.5 160Q888 155 879 143Q878 140 878 136Q877 133 877 128.5Q877 124 877 120Q877 97 886.5 85.5Q896 74 910 74H915Q931 74 942 85.5Q953 97 955 117L956 126Q958 147 948.5 156Q939 165 924 165ZM1054 315Q1013 315 982 306.5Q951 298 928 275Q920 267 913 255.5Q906 244 901 228Q912 238 926.5 242Q941 246 956 246Q1006 246 1030.5 215Q1055 184 1049 127L1048 117Q1043 60 1006.5 26.5Q970 -7 906 -7Q837 -7 808 33.5Q779 74 786 138L787 148Q793 205 809.5 248Q826 291 865 332Q904 373 954.5 385Q1005 397 1065 397ZM478 0 488 81H569L595 276L537 240L500 307L633 390H703L662 81H743L733 0ZM13 0 691 780H791L113 0ZM66 782H336L329 724L150 392H51L222 702L177 701H137L130 642H48Z" glyph-name="sevensixteenths" horiz-adv-x="1100" unicode="&#61976;" /><glyph d="M300 375Q261 375 226.5 355.5Q192 336 167 300Q163 285 161 270Q159 255 159 234Q159 199 167.5 174Q176 149 190.5 133.5Q205 118 225 111Q245 104 268 104H274Q328 104 364.5 138.5Q401 173 409 236L410 244Q418 309 388 342Q358 375 305 375ZM561 674Q481 671 411 649Q341 627 282 568Q255 540 234 506.5Q213 473 200 434Q226 460 262 475.5Q298 491 345 491Q393 491 433.5 475.5Q474 460 501 430Q528 400 540 355Q552 310 544 251L541 229Q525 111 454 49Q383 -13 265 -13Q198 -13 149.5 8.5Q101 30 71 69.5Q41 109 31 164.5Q21 220 30 289L33 311Q38 350 49 391.5Q60 433 78 476Q96 519 123 561.5Q150 604 188 645Q229 688 273 716.5Q317 745 365 761.5Q413 778 465.5 785Q518 792 576 793Z" glyph-name="six" horiz-adv-x="600" unicode="6" /><glyph d="M97 -35Q86 -35 74.5 -40Q63 -45 54 -57Q53 -60 53 -64Q52 -67 52 -71.5Q52 -76 52 -80Q52 -103 61.5 -114.5Q71 -126 85 -126H90Q106 -126 117 -114.5Q128 -103 130 -83L131 -74Q133 -53 123.5 -44Q114 -35 99 -35ZM229 115Q188 115 157 106.5Q126 98 103 75Q95 67 88 55.5Q81 44 76 28Q87 38 101.5 42Q116 46 131 46Q181 46 205.5 15Q230 -16 224 -73L223 -83Q218 -140 181.5 -173.5Q145 -207 81 -207Q12 -207 -17 -166.5Q-46 -126 -39 -62L-38 -52Q-32 5 -15.5 48Q1 91 40 132Q79 173 129.5 185Q180 197 240 197Z" glyph-name="six.inf" horiz-adv-x="300" unicode="&#58743;" /><glyph glyph-name="sixperemspace" horiz-adv-x="167" unicode="&#8198;" /><glyph d="M79 -120H-49L306 840H434Z" glyph-name="slash" horiz-adv-x="388" unicode="/" /><glyph d="M-28 0 266 780H394L100 0Z" glyph-name="slash.cap" horiz-adv-x="363" unicode="&#58465;" /><glyph glyph-name="space" horiz-adv-x="200" unicode=" " /><glyph d="M451 790Q463 771 486 742.5Q509 714 540 682Q571 650 607.5 618Q644 586 684 560Q717 539 746.5 515.5Q776 492 798.5 464.5Q821 437 834.5 405Q848 373 848 334Q848 297 834.5 265.5Q821 234 797 210.5Q773 187 741 173.5Q709 160 672 160Q635 160 604 173.5Q573 187 548 209.5Q523 232 504 261Q485 290 472 321L469 320Q473 269 479.5 227Q486 185 495.5 147Q505 109 518.5 73Q532 37 551 0H349Q368 37 381.5 73Q395 109 404.5 147Q414 185 420.5 227Q427 269 431 320L428 321Q415 290 396 261Q377 232 352 209.5Q327 187 296 173.5Q265 160 228 160Q191 160 159 173.5Q127 187 103 210.5Q79 234 65.5 265.5Q52 297 52 334Q52 373 65.5 405Q79 437 101.5 464.5Q124 492 153.5 515.5Q183 539 216 560Q256 586 292.5 618Q329 650 360 682Q391 714 414 742.5Q437 771 449 790Z" glyph-name="spade" horiz-adv-x="900" unicode="&#9824;" /><glyph d="M229 242 377 390 229 538 312 621 460 473 608 621 691 538 543 390 691 242 608 159 460 307 312 159ZM186 664V116H734V664ZM70 0V780H850V0Z" glyph-name="squaremultiply" horiz-adv-x="920" unicode="&#8864;" /><glyph d="M365 677Q336 677 315 665.5Q294 654 280.5 633.5Q267 613 261 585Q255 557 255 523Q255 500 257 476.5Q259 453 262 429H445L430 314H278Q283 269 286 219.5Q289 170 285 116H519L504 0H-2L13 116H170Q171 171 164 219Q157 267 147 314H39L54 429H127Q125 447 123.5 465.5Q122 484 122 504Q122 559 134 611Q146 663 174.5 703.5Q203 744 249.5 768.5Q296 793 365 793Q492 793 541.5 724.5Q591 656 574 529L570 500H439Q450 583 434 630Q418 677 365 677Z" glyph-name="sterling" horiz-adv-x="600" unicode="&#163;" /><glyph d="M401 530 386 416H239L209 188Q206 161 210.5 144Q215 127 225.5 117.5Q236 108 251 104Q266 100 284 100Q300 100 315.5 103Q331 106 336 108L322 0Q315 -3 296.5 -8Q278 -13 245 -13Q203 -13 169 -3Q135 7 112.5 28.5Q90 50 80 85Q70 120 77 171L109 416H28L43 530H124L144 680H274L254 530Z" glyph-name="t" horiz-adv-x="421" unicode="t" /><glyph d="M27 313H95L109 416H28L43 530H124L144 680H274L254 530H401L386 416H239L225 313H333L320 217H213L209 188Q206 161 210.5 144Q215 127 225.5 117.5Q236 108 251 104Q266 100 284 100Q300 100 315.5 103Q331 106 336 108L322 0Q315 -3 296.5 -8Q278 -13 245 -13Q203 -13 169 -3Q135 7 112.5 28.5Q90 50 80 85Q70 120 77 171L83 217H14Z" glyph-name="tbar" horiz-adv-x="421" unicode="&#359;" /><glyph d="M436 800 387 601H325L351 800ZM401 530 386 416H239L209 188Q206 161 210.5 144Q215 127 225.5 117.5Q236 108 251 104Q266 100 284 100Q300 100 315.5 103Q331 106 336 108L322 0Q315 -3 296.5 -8Q278 -13 245 -13Q203 -13 169 -3Q135 7 112.5 28.5Q90 50 80 85Q70 120 77 171L109 416H28L43 530H124L144 680H274L254 530Z" glyph-name="tcaron" horiz-adv-x="421" unicode="&#357;" /><glyph d="M241 -103Q233 -168 195.5 -195.5Q158 -223 91 -223L98 -170Q129 -170 152.5 -162Q176 -154 184 -133H115L126 -47H248ZM401 530 386 416H239L209 188Q206 161 210.5 144Q215 127 225.5 117.5Q236 108 251 104Q266 100 284 100Q300 100 315.5 103Q331 106 336 108L322 0Q315 -3 296.5 -8Q278 -13 245 -13Q203 -13 169 -3Q135 7 112.5 28.5Q90 50 80 85Q70 120 77 171L109 416H28L43 530H124L144 680H274L254 530Z" glyph-name="tcommaaccent" horiz-adv-x="421" unicode="&#355;" /><glyph d="M273 729H157L169 821H285ZM401 530 386 416H239L209 188Q206 161 210.5 144Q215 127 225.5 117.5Q236 108 251 104Q266 100 284 100Q300 100 315.5 103Q331 106 336 108L322 0Q315 -3 296.5 -8Q278 -13 245 -13Q203 -13 169 -3Q135 7 112.5 28.5Q90 50 80 85Q70 120 77 171L109 416H28L43 530H124L144 680H274L254 530Z" glyph-name="tdotaccent" horiz-adv-x="421" unicode="&#7787;" /><glyph glyph-name="thinspace" horiz-adv-x="150" unicode="&#8201;" /><glyph d="M1222 165Q1211 165 1199.5 160Q1188 155 1179 143Q1178 140 1178 136Q1177 133 1177 128.5Q1177 124 1177 120Q1177 97 1186.5 85.5Q1196 74 1210 74H1215Q1231 74 1242 85.5Q1253 97 1255 117L1256 126Q1258 147 1248.5 156Q1239 165 1224 165ZM1354 315Q1313 315 1282 306.5Q1251 298 1228 275Q1220 267 1213 255.5Q1206 244 1201 228Q1212 238 1226.5 242Q1241 246 1256 246Q1306 246 1330.5 215Q1355 184 1349 127L1348 117Q1343 60 1306.5 26.5Q1270 -7 1206 -7Q1137 -7 1108 33.5Q1079 74 1086 138L1087 148Q1093 205 1109.5 248Q1126 291 1165 332Q1204 373 1254.5 385Q1305 397 1365 397ZM778 0 788 81H869L895 276L837 240L800 307L933 390H1003L962 81H1043L1033 0ZM313 0 991 780H1091L413 0ZM427 517Q423 487 434 476.5Q445 466 459 466H464Q479 466 490.5 475Q502 484 504 504L505 513Q510 550 472 550H421L432 631H482Q519 631 523 665L524 674Q526 693 516 700.5Q506 708 493 708H488Q472 708 461 695.5Q450 683 447 652H354L355 661Q363 726 397 757.5Q431 789 497 789Q536 789 560 777.5Q584 766 597.5 749.5Q611 733 615.5 713.5Q620 694 618 678L617 669Q614 639 599 619.5Q584 600 564 591Q582 583 591.5 558.5Q601 534 597 502L596 493Q594 476 586 457Q578 438 561.5 422Q545 406 519.5 395.5Q494 385 457 385Q390 385 358 415.5Q326 446 333 508L334 517ZM28 392 38 473H119L145 668L87 632L50 699L183 782H253L212 473H293L283 392Z" glyph-name="thirteensixteenths" horiz-adv-x="1400" unicode="&#61985;" /><glyph d="M254 100Q309 100 340.5 140.5Q372 181 382 252L385 274Q395 345 372.5 387.5Q350 430 294 430Q274 430 257.5 424Q241 418 227.5 409.5Q214 401 203.5 390.5Q193 380 186 371L159 163Q163 153 171 142Q179 131 190.5 121.5Q202 112 218 106Q234 100 254 100ZM243 800 201 483Q221 504 257 523.5Q293 543 344 543Q394 543 430 523Q466 503 487 467.5Q508 432 515 382.5Q522 333 514 275L511 253Q503 196 486 147Q469 98 441.5 62.5Q414 27 375 7Q336 -13 284 -13Q254 -13 231 -7Q208 -1 191.5 9Q175 19 163 30Q151 41 144 52L111 -200H-19L113 800Z" glyph-name="thorn" horiz-adv-x="563" unicode="&#254;" /><glyph d="M157 250Q152 210 158 182.5Q164 155 179 137.5Q194 120 216 112Q238 104 266 104H274Q322 104 358.5 132Q395 160 403 221L404 229Q411 286 384 313Q357 340 303 340H195L211 456H315Q368 456 402 477.5Q436 499 443 553L444 561Q451 620 421.5 648Q392 676 341 676H333Q276 676 242 640Q208 604 198 520H66L69 542Q77 601 96.5 647.5Q116 694 149 726.5Q182 759 229.5 776Q277 793 342 793Q409 793 456.5 774.5Q504 756 533 725.5Q562 695 573 655.5Q584 616 578 574L575 552Q567 492 530 450.5Q493 409 440 397Q494 380 520 334.5Q546 289 537 221L534 199Q528 159 509 121Q490 83 456.5 53Q423 23 375 5Q327 -13 264 -13Q197 -13 148 4Q99 21 69 52.5Q39 84 27 128Q15 172 22 226L25 250Z" glyph-name="three" horiz-adv-x="600" unicode="3" /><glyph d="M52 -75Q48 -105 59 -115.5Q70 -126 84 -126H89Q104 -126 115.5 -117Q127 -108 129 -88L130 -79Q135 -42 97 -42H46L57 39H107Q144 39 148 73L149 82Q151 101 141 108.5Q131 116 118 116H113Q97 116 86 103.5Q75 91 72 60H-21L-20 69Q-12 134 22 165.5Q56 197 122 197Q161 197 185 185.5Q209 174 222.5 157.5Q236 141 240.5 121.5Q245 102 243 86L242 77Q239 47 224 27.5Q209 8 189 -1Q207 -9 216.5 -33.5Q226 -58 222 -90L221 -99Q219 -116 211 -135Q203 -154 186.5 -170Q170 -186 144.5 -196.5Q119 -207 82 -207Q15 -207 -17 -176.5Q-49 -146 -42 -84L-41 -75Z" glyph-name="three.inf" horiz-adv-x="300" unicode="&#58740;" /><glyph glyph-name="threeperemspace" horiz-adv-x="333" unicode="&#8196;" /><glyph d="M44 407H714L699 293H29Z" glyph-name="threequarteremdash" horiz-adv-x="750" unicode="&#58482;" /><glyph d="M49 447H719L704 333H34Z" glyph-name="threequarteremdash.cap" horiz-adv-x="750" unicode="&#58501;" /><glyph d="M578 159 599 160H630L638 221L641 243ZM609 0 619 79H473L482 145L665 390H753L723 160H759L748 79H712L702 0ZM13 0 691 780H791L113 0ZM127 517Q123 487 134 476.5Q145 466 159 466H164Q179 466 190.5 475Q202 484 204 504L205 513Q210 550 172 550H121L132 631H182Q219 631 223 665L224 674Q226 693 216 700.5Q206 708 193 708H188Q172 708 161 695.5Q150 683 147 652H54L55 661Q63 726 97 757.5Q131 789 197 789Q236 789 260 777.5Q284 766 297.5 749.5Q311 733 315.5 713.5Q320 694 318 678L317 669Q314 639 299 619.5Q284 600 264 591Q282 583 291.5 558.5Q301 534 297 502L296 493Q294 476 286 457Q278 438 261.5 422Q245 406 219.5 395.5Q194 385 157 385Q90 385 58 415.5Q26 446 33 508L34 517Z" glyph-name="threequarters" horiz-adv-x="800" unicode="&#190;" /><glyph d="M922 165Q911 165 899.5 160Q888 155 879 143Q878 140 878 136Q877 133 877 128.5Q877 124 877 120Q877 97 886.5 85.5Q896 74 910 74H915Q931 74 942 85.5Q953 97 955 117L956 126Q958 147 948.5 156Q939 165 924 165ZM1054 315Q1013 315 982 306.5Q951 298 928 275Q920 267 913 255.5Q906 244 901 228Q912 238 926.5 242Q941 246 956 246Q1006 246 1030.5 215Q1055 184 1049 127L1048 117Q1043 60 1006.5 26.5Q970 -7 906 -7Q837 -7 808 33.5Q779 74 786 138L787 148Q793 205 809.5 248Q826 291 865 332Q904 373 954.5 385Q1005 397 1065 397ZM478 0 488 81H569L595 276L537 240L500 307L633 390H703L662 81H743L733 0ZM13 0 691 780H791L113 0ZM127 517Q123 487 134 476.5Q145 466 159 466H164Q179 466 190.5 475Q202 484 204 504L205 513Q210 550 172 550H121L132 631H182Q219 631 223 665L224 674Q226 693 216 700.5Q206 708 193 708H188Q172 708 161 695.5Q150 683 147 652H54L55 661Q63 726 97 757.5Q131 789 197 789Q236 789 260 777.5Q284 766 297.5 749.5Q311 733 315.5 713.5Q320 694 318 678L317 669Q314 639 299 619.5Q284 600 264 591Q282 583 291.5 558.5Q301 534 297 502L296 493Q294 476 286 457Q278 438 261.5 422Q245 406 219.5 395.5Q194 385 157 385Q90 385 58 415.5Q26 446 33 508L34 517Z" glyph-name="threesixteenths" horiz-adv-x="1100" unicode="&#61974;" /><glyph d="M127 517Q123 487 134 476.5Q145 466 159 466H164Q179 466 190.5 475Q202 484 204 504L205 513Q210 550 172 550H121L132 631H182Q219 631 223 665L224 674Q226 693 216 700.5Q206 708 193 708H188Q172 708 161 695.5Q150 683 147 652H54L55 661Q63 726 97 757.5Q131 789 197 789Q236 789 260 777.5Q284 766 297.5 749.5Q311 733 315.5 713.5Q320 694 318 678L317 669Q314 639 299 619.5Q284 600 264 591Q282 583 291.5 558.5Q301 534 297 502L296 493Q294 476 286 457Q278 438 261.5 422Q245 406 219.5 395.5Q194 385 157 385Q90 385 58 415.5Q26 446 33 508L34 517Z" glyph-name="threesuperior" horiz-adv-x="300" unicode="&#179;" /><glyph d="M361 725Q375 725 385.5 733.5Q396 742 399 764H488Q486 727 475 700Q464 673 447 656Q430 639 408.5 630.5Q387 622 365 622Q342 622 323 630.5Q304 639 287 648.5Q270 658 254.5 666.5Q239 675 224 675Q210 675 199.5 666.5Q189 658 186 636H97Q99 673 110 700Q121 727 138 744Q155 761 176 769.5Q197 778 220 778Q243 778 262 769.5Q281 761 298 751.5Q315 742 330.5 733.5Q346 725 361 725Z" glyph-name="tilde" horiz-adv-x="500" unicode="&#732;" /><glyph d="M499 943Q494 883 461.5 858Q429 833 387 833Q363 833 344 841Q325 849 309 858Q293 867 278.5 875Q264 883 249 883Q232 883 222 873.5Q212 864 211 847H138Q143 907 175.5 932Q208 957 250 957Q274 957 293 949Q312 941 328 932Q344 923 358.5 915Q373 907 388 907Q405 907 415 916.5Q425 926 426 943Z" glyph-name="tilde.cap" horiz-adv-x="500" unicode="&#58404;" /><glyph d="M401 530H340L294 704L296 642V530H239V800H325L371 627L416 800H502V530H445V642L447 704ZM142 530H85V750H17V800H210V750H142Z" glyph-name="trademark" horiz-adv-x="548" unicode="&#8482;" /><glyph d="M62 780H192L465 129L738 780H868L529 -13H401Z" glyph-name="triagdn" horiz-adv-x="930" unicode="&#9660;" /><glyph d="M850 793V663L199 390L850 117V-13L57 326V454Z" glyph-name="triaglf" horiz-adv-x="930" unicode="&#9668;" /><glyph d="M873 326 80 -13V117L730 390L80 663V793L873 454Z" glyph-name="triagrt" horiz-adv-x="930" unicode="&#9658;" /><glyph d="M868 0H738L465 650L192 0H62L401 793H529Z" glyph-name="triagup" horiz-adv-x="930" unicode="&#9650;" /><glyph d="M399 780 350 474H251L282 780ZM573 780 512 474H413L444 780ZM237 780 188 474H88L107 780Z" glyph-name="tripleprime" horiz-adv-x="575" unicode="&#8244;" /><glyph d="M519 117 504 0H-2L9 83L365 423Q398 455 418 484Q438 513 443 553L444 561Q451 620 420.5 648Q390 676 339 676H331Q275 676 241.5 640Q208 604 198 520H66L69 542Q77 601 96 647.5Q115 694 148 726.5Q181 759 228 776Q275 793 340 793Q407 793 455 774Q503 755 532 724.5Q561 694 572.5 654.5Q584 615 578 574L575 552Q571 522 563 498Q555 474 541.5 451.5Q528 429 508.5 407.5Q489 386 463 361L204 116L276 117Z" glyph-name="two" horiz-adv-x="600" unicode="2" /><glyph d="M216 -119 205 -200H-55L-47 -142L119 20Q144 43 147 66L148 75Q150 96 141 106Q132 116 118 116H113Q98 116 87.5 104Q77 92 72 60H-21L-20 69Q-12 134 22 165.5Q56 197 122 197Q159 197 183.5 186.5Q208 176 221.5 159.5Q235 143 240 123.5Q245 104 243 86L242 77Q240 60 235.5 47Q231 34 224 22.5Q217 11 207.5 0Q198 -11 185 -24L86 -120L121 -119Z" glyph-name="two.inf" horiz-adv-x="300" unicode="&#58739;" /><glyph d="M291 473 280 392H20L28 450L194 612Q219 635 222 658L223 667Q225 688 216 698Q207 708 193 708H188Q173 708 162.5 696Q152 684 147 652H54L55 661Q63 726 97 757.5Q131 789 197 789Q234 789 258.5 778.5Q283 768 296.5 751.5Q310 735 315 715.5Q320 696 318 678L317 669Q315 652 310.5 639Q306 626 299 614.5Q292 603 282.5 592Q273 581 260 568L161 472L196 473Z" glyph-name="twosuperior" horiz-adv-x="300" unicode="&#178;" /><glyph d="M203 530 158 188Q153 148 171.5 124Q190 100 235 100Q258 100 276 106.5Q294 113 307.5 122.5Q321 132 331 143Q341 154 348 163L396 530H526L476 150L466 0H351V69Q324 32 280 9.5Q236 -13 177 -13Q132 -13 101 1Q70 15 51.5 39.5Q33 64 27 97.5Q21 131 26 171L73 530Z" glyph-name="u" horiz-adv-x="563" unicode="u" /><glyph d="M203 530 158 188Q153 148 171.5 124Q190 100 235 100Q258 100 276 106.5Q294 113 307.5 122.5Q321 132 331 143Q341 154 348 163L396 530H526L476 150L466 0H351V69Q324 32 280 9.5Q236 -13 177 -13Q132 -13 101 1Q70 15 51.5 39.5Q33 64 27 97.5Q21 131 26 171L73 530ZM499 780 373 601H243L357 780Z" glyph-name="uacute" horiz-adv-x="563" unicode="&#250;" /><glyph d="M203 530 158 188Q153 148 171.5 124Q190 100 235 100Q258 100 276 106.5Q294 113 307.5 122.5Q321 132 331 143Q341 154 348 163L396 530H526L476 150L466 0H351V69Q324 32 280 9.5Q236 -13 177 -13Q132 -13 101 1Q70 15 51.5 39.5Q33 64 27 97.5Q21 131 26 171L73 530ZM306 589Q256 589 223.5 603Q191 617 173 642.5Q155 668 150.5 703Q146 738 152 780H245Q239 733 258 711Q277 689 316 689Q355 689 380 711Q405 733 411 780H510Q505 738 491.5 703Q478 668 453 642.5Q428 617 391.5 603Q355 589 306 589Z" glyph-name="ubreve" horiz-adv-x="563" unicode="&#365;" /><glyph d="M203 530 158 188Q153 148 171.5 124Q190 100 235 100Q258 100 276 106.5Q294 113 307.5 122.5Q321 132 331 143Q341 154 348 163L396 530H526L476 150L466 0H351V69Q324 32 280 9.5Q236 -13 177 -13Q132 -13 101 1Q70 15 51.5 39.5Q33 64 27 97.5Q21 131 26 171L73 530ZM389 601 323 693 233 601H113L269 780H393L503 601Z" glyph-name="ucircumflex" horiz-adv-x="563" unicode="&#251;" /><glyph d="M203 530 158 188Q153 148 171.5 124Q190 100 235 100Q258 100 276 106.5Q294 113 307.5 122.5Q321 132 331 143Q341 154 348 163L396 530H526L476 150L466 0H351V69Q324 32 280 9.5Q236 -13 177 -13Q132 -13 101 1Q70 15 51.5 39.5Q33 64 27 97.5Q21 131 26 171L73 530ZM481 622H339L358 763H500ZM281 622H139L158 763H300Z" glyph-name="udieresis" horiz-adv-x="563" unicode="&#252;" /><glyph d="M203 530 158 188Q153 148 171.5 124Q190 100 235 100Q258 100 276 106.5Q294 113 307.5 122.5Q321 132 331 143Q341 154 348 163L396 530H526L476 150L466 0H351V69Q324 32 280 9.5Q236 -13 177 -13Q132 -13 101 1Q70 15 51.5 39.5Q33 64 27 97.5Q21 131 26 171L73 530ZM305 780 373 601H243L163 780Z" glyph-name="ugrave" horiz-adv-x="563" unicode="&#249;" /><glyph d="M203 530 158 188Q153 148 171.5 124Q190 100 235 100Q258 100 276 106.5Q294 113 307.5 122.5Q321 132 331 143Q341 154 348 163L396 530H526L476 150L466 0H351V69Q324 32 280 9.5Q236 -13 177 -13Q132 -13 101 1Q70 15 51.5 39.5Q33 64 27 97.5Q21 131 26 171L73 530ZM394 780 286 601H181L277 780ZM560 780 434 601H329L443 780Z" glyph-name="uhungarumlaut" horiz-adv-x="563" unicode="&#369;" /><glyph d="M203 530 158 188Q153 148 171.5 124Q190 100 235 100Q258 100 276 106.5Q294 113 307.5 122.5Q321 132 331 143Q341 154 348 163L396 530H526L476 150L466 0H351V69Q324 32 280 9.5Q236 -13 177 -13Q132 -13 101 1Q70 15 51.5 39.5Q33 64 27 97.5Q21 131 26 171L73 530ZM188 748H466L451 633H173Z" glyph-name="umacron" horiz-adv-x="563" unicode="&#363;" /><glyph d="M-13 -55H219L204 -169H-28Z" glyph-name="underscore" horiz-adv-x="320" unicode="_" /><glyph d="M-13 -55H499L484 -169H-28Z" glyph-name="underscoremonospace" horiz-adv-x="600" unicode="&#65343;" /><glyph d="M44 407H309L294 293H29Z" glyph-name="uni00AD" horiz-adv-x="345" unicode="&#173;" /><glyph d="M44 407H1164L1149 293H29Z" glyph-name="uni2015" horiz-adv-x="1200" unicode="&#8213;" /><glyph d="M49 447H1169L1154 333H34Z" glyph-name="uni2015.cap" horiz-adv-x="1200" unicode="&#58504;" /><glyph d="M224 672Q226 688 217.5 698Q209 708 192 708H190Q172 708 162 698.5Q152 689 150 672L127 502Q125 486 133.5 476Q142 466 159 466H161Q196 466 201 502ZM294 502Q287 449 253.5 417Q220 385 154 385Q91 385 59 418Q27 451 34 502L57 672Q64 725 97.5 757Q131 789 197 789Q260 789 292 756Q324 723 317 672Z" glyph-name="uni2070" horiz-adv-x="300" unicode="&#8304;" /><glyph d="M128 551 149 552H180L188 613L191 635ZM159 392 169 471H23L32 537L215 782H303L273 552H309L298 471H262L252 392Z" glyph-name="uni2074" horiz-adv-x="300" unicode="&#8308;" /><glyph d="M127 517Q123 487 134 476.5Q145 466 159 466H164Q179 466 190.5 475.5Q202 485 205 511L206 520Q208 543 199 554.5Q190 566 173 566H167Q155 566 141.5 560Q128 554 120 542L44 569L81 782H329L318 701H148L136 632Q157 647 195 647Q252 647 278.5 612Q305 577 299 520L298 511Q292 454 257 419.5Q222 385 156 385Q90 385 58 415.5Q26 446 33 508L34 517Z" glyph-name="uni2075" horiz-adv-x="300" unicode="&#8309;" /><glyph d="M172 557Q161 557 149.5 552Q138 547 129 535Q128 532 128 528Q127 525 127 520.5Q127 516 127 512Q127 489 136.5 477.5Q146 466 160 466H165Q181 466 192 477.5Q203 489 205 509L206 518Q208 539 198.5 548Q189 557 174 557ZM304 707Q263 707 232 698.5Q201 690 178 667Q170 659 163 647.5Q156 636 151 620Q162 630 176.5 634Q191 638 206 638Q256 638 280.5 607Q305 576 299 519L298 509Q293 452 256.5 418.5Q220 385 156 385Q87 385 58 425.5Q29 466 36 530L37 540Q43 597 59.5 640Q76 683 115 724Q154 765 204.5 777Q255 789 315 789Z" glyph-name="uni2076" horiz-adv-x="300" unicode="&#8310;" /><glyph d="M66 782H336L329 724L150 392H51L222 702L177 701H137L130 642H48Z" glyph-name="uni2077" horiz-adv-x="300" unicode="&#8311;" /><glyph d="M183 631Q218 631 223 666L224 675Q226 692 216 700Q206 708 193 708H188Q154 708 150 674L149 665Q147 651 154.5 641Q162 631 179 631ZM167 550Q152 550 140 541Q128 532 126 512L125 503Q123 484 132.5 475Q142 466 159 466H164Q179 466 190.5 475Q202 484 204 504L205 513Q210 550 172 550ZM157 385Q120 385 95 395Q70 405 55 421.5Q40 438 35 457.5Q30 477 32 497L33 506Q37 538 52 559Q67 580 88 591Q74 602 64 624.5Q54 647 57 675L58 684Q60 701 68 719.5Q76 738 92.5 753.5Q109 769 134.5 779Q160 789 197 789Q236 789 260 777.5Q284 766 297.5 749.5Q311 733 315.5 713.5Q320 694 318 678L317 669Q314 639 299 619.5Q284 600 264 591Q282 583 291.5 558.5Q301 534 297 502L296 493Q294 476 286 457Q278 438 261.5 422Q245 406 219.5 395.5Q194 385 157 385Z" glyph-name="uni2078" horiz-adv-x="300" unicode="&#8312;" /><glyph d="M182 617Q193 617 204.5 622Q216 627 225 639Q225 642 226 646Q226 649 226.5 653Q227 657 227 662Q227 685 217.5 696.5Q208 708 194 708H189Q173 708 162 696.5Q151 685 149 665L148 656Q146 635 155.5 626Q165 617 180 617ZM48 467Q89 467 121 475.5Q153 484 176 507Q184 515 191 526.5Q198 538 203 554Q192 544 177.5 540Q163 536 148 536Q98 536 73.5 567Q49 598 55 655L56 665Q61 722 97.5 755.5Q134 789 198 789Q267 789 296 748.5Q325 708 318 644L317 634Q311 577 294.5 534Q278 491 239 450Q200 409 148.5 397Q97 385 37 385Z" glyph-name="uni2079" horiz-adv-x="300" unicode="&#8313;" /><glyph d="M234 717 222 628H311L300 546H211L200 457H118L129 546H40L51 628H140L152 717Z" glyph-name="uni207A" horiz-adv-x="300" unicode="&#8314;" /><glyph d="M51 628H311L300 546H40Z" glyph-name="uni207B" horiz-adv-x="300" unicode="&#8315;" /><glyph d="M44 573H304L293 491H33ZM58 683H318L308 601H48Z" glyph-name="uni207C" horiz-adv-x="300" unicode="&#8316;" /><glyph d="M48 591Q55 655 79 704Q103 753 134 782H233Q219 767 204 746Q189 725 176 700.5Q163 676 153 648Q143 620 140 591L139 582Q136 553 138.5 525Q141 497 147 472.5Q153 448 161 427.5Q169 407 177 392H88Q79 406 70 426Q61 446 55 471Q49 496 46.5 524Q44 552 47 582Z" glyph-name="uni207D" horiz-adv-x="194" unicode="&#8317;" /><glyph d="M195 583Q188 519 164 470Q140 421 109 392H10Q24 407 39 428Q54 449 67 473.5Q80 498 90 526Q100 554 103 583L104 592Q107 621 104.5 648.5Q102 676 96 701Q90 726 81.5 746.5Q73 767 66 782H155Q164 768 173 748Q182 728 188 703Q194 678 196.5 650Q199 622 196 592Z" glyph-name="uni207E" horiz-adv-x="194" unicode="&#8318;" /><glyph d="M174 280Q176 296 167.5 306Q159 316 142 316H140Q122 316 112 306.5Q102 297 100 280L77 110Q75 94 83.5 84Q92 74 109 74H111Q146 74 151 110ZM244 110Q237 57 203.5 25Q170 -7 104 -7Q41 -7 9 26Q-23 59 -16 110L7 280Q14 333 47.5 365Q81 397 147 397Q210 397 242 364Q274 331 267 280Z" glyph-name="uni2080" horiz-adv-x="300" unicode="&#8320;" /><glyph d="M-22 0 -12 81H69L95 276L37 240L0 307L133 390H203L162 81H243L233 0Z" glyph-name="uni2081" horiz-adv-x="300" unicode="&#8321;" /><glyph d="M241 81 230 0H-30L-22 58L144 220Q169 243 172 266L173 275Q175 296 166 306Q157 316 143 316H138Q123 316 112.5 304Q102 292 97 260H4L5 269Q13 334 47 365.5Q81 397 147 397Q184 397 208.5 386.5Q233 376 246.5 359.5Q260 343 265 323.5Q270 304 268 286L267 277Q265 260 260.5 247Q256 234 249 222.5Q242 211 232.5 200Q223 189 210 176L111 80L146 81Z" glyph-name="uni2082" horiz-adv-x="300" unicode="&#8322;" /><glyph d="M77 125Q73 95 84 84.5Q95 74 109 74H114Q129 74 140.5 83Q152 92 154 112L155 121Q160 158 122 158H71L82 239H132Q169 239 173 273L174 282Q176 301 166 308.5Q156 316 143 316H138Q122 316 111 303.5Q100 291 97 260H4L5 269Q13 334 47 365.5Q81 397 147 397Q186 397 210 385.5Q234 374 247.5 357.5Q261 341 265.5 321.5Q270 302 268 286L267 277Q264 247 249 227.5Q234 208 214 199Q232 191 241.5 166.5Q251 142 247 110L246 101Q244 84 236 65Q228 46 211.5 30Q195 14 169.5 3.5Q144 -7 107 -7Q40 -7 8 23.5Q-24 54 -17 116L-16 125Z" glyph-name="uni2083" horiz-adv-x="300" unicode="&#8323;" /><glyph d="M78 159 99 160H130L138 221L141 243ZM109 0 119 79H-27L-18 145L165 390H253L223 160H259L248 79H212L202 0Z" glyph-name="uni2084" horiz-adv-x="300" unicode="&#8324;" /><glyph d="M77 125Q73 95 84 84.5Q95 74 109 74H114Q129 74 140.5 83.5Q152 93 155 119L156 128Q158 151 149 162.5Q140 174 123 174H117Q105 174 91.5 168Q78 162 70 150L-6 177L31 390H279L268 309H98L86 240Q107 255 145 255Q202 255 228.5 220Q255 185 249 128L248 119Q242 62 207 27.5Q172 -7 106 -7Q40 -7 8 23.5Q-24 54 -17 116L-16 125Z" glyph-name="uni2085" horiz-adv-x="300" unicode="&#8325;" /><glyph d="M122 165Q111 165 99.5 160Q88 155 79 143Q78 140 78 136Q77 133 77 128.5Q77 124 77 120Q77 97 86.5 85.5Q96 74 110 74H115Q131 74 142 85.5Q153 97 155 117L156 126Q158 147 148.5 156Q139 165 124 165ZM254 315Q213 315 182 306.5Q151 298 128 275Q120 267 113 255.5Q106 244 101 228Q112 238 126.5 242Q141 246 156 246Q206 246 230.5 215Q255 184 249 127L248 117Q243 60 206.5 26.5Q170 -7 106 -7Q37 -7 8 33.5Q-21 74 -14 138L-13 148Q-7 205 9.5 248Q26 291 65 332Q104 373 154.5 385Q205 397 265 397Z" glyph-name="uni2086" horiz-adv-x="300" unicode="&#8326;" /><glyph d="M16 390H286L279 332L100 0H1L172 310L127 309H87L80 250H-2Z" glyph-name="uni2087" horiz-adv-x="300" unicode="&#8327;" /><glyph d="M133 239Q168 239 173 274L174 283Q176 300 166 308Q156 316 143 316H138Q104 316 100 282L99 273Q97 259 104.5 249Q112 239 129 239ZM117 158Q102 158 90 149Q78 140 76 120L75 111Q73 92 82.5 83Q92 74 109 74H114Q129 74 140.5 83Q152 92 154 112L155 121Q160 158 122 158ZM107 -7Q70 -7 45 3Q20 13 5 29.5Q-10 46 -15 65.5Q-20 85 -18 105L-17 114Q-13 146 2 167Q17 188 38 199Q24 210 14 232.5Q4 255 7 283L8 292Q10 309 18 327.5Q26 346 42.5 361.5Q59 377 84.5 387Q110 397 147 397Q186 397 210 385.5Q234 374 247.5 357.5Q261 341 265.5 321.5Q270 302 268 286L267 277Q264 247 249 227.5Q234 208 214 199Q232 191 241.5 166.5Q251 142 247 110L246 101Q244 84 236 65Q228 46 211.5 30Q195 14 169.5 3.5Q144 -7 107 -7Z" glyph-name="uni2088" horiz-adv-x="300" unicode="&#8328;" /><glyph d="M132 225Q143 225 154.5 230Q166 235 175 247Q175 250 176 254Q176 257 176.5 261Q177 265 177 270Q177 293 167.5 304.5Q158 316 144 316H139Q123 316 112 304.5Q101 293 99 273L98 264Q96 243 105.5 234Q115 225 130 225ZM-2 75Q39 75 71 83.5Q103 92 126 115Q134 123 141 134.5Q148 146 153 162Q142 152 127.5 148Q113 144 98 144Q48 144 23.5 175Q-1 206 5 263L6 273Q11 330 47.5 363.5Q84 397 148 397Q217 397 246 356.5Q275 316 268 252L267 242Q261 185 244.5 142Q228 99 189 58Q150 17 98.5 5Q47 -7 -13 -7Z" glyph-name="uni2089" horiz-adv-x="300" unicode="&#8329;" /><glyph d="M184 325 172 236H261L250 154H161L150 65H68L79 154H-10L1 236H90L102 325Z" glyph-name="uni208A" horiz-adv-x="300" unicode="&#8330;" /><glyph d="M1 236H261L250 154H-10Z" glyph-name="uni208B" horiz-adv-x="300" unicode="&#8331;" /><glyph d="M-6 181H254L243 99H-17ZM8 291H268L258 209H-2Z" glyph-name="uni208C" horiz-adv-x="300" unicode="&#8332;" /><glyph d="M-2 199Q5 263 29 312Q53 361 84 390H183Q169 375 154 354Q139 333 126 308.5Q113 284 103 256Q93 228 90 199L89 190Q86 161 88.5 133Q91 105 97 80.5Q103 56 111 35.5Q119 15 127 0H38Q29 14 20 34Q11 54 5 79Q-1 104 -3.5 132Q-6 160 -3 190Z" glyph-name="uni208D" horiz-adv-x="194" unicode="&#8333;" /><glyph d="M145 191Q138 127 114 78Q90 29 59 0H-40Q-26 15 -11 36Q4 57 17 81.5Q30 106 40 134Q50 162 53 191L54 200Q57 229 54.5 256.5Q52 284 46 309Q40 334 31.5 354.5Q23 375 16 390H105Q114 376 123 356Q132 336 138 311Q144 286 146.5 258Q149 230 146 200Z" glyph-name="uni208E" horiz-adv-x="194" unicode="&#8334;" /><glyph d="M577 125Q573 95 584 84.5Q595 74 609 74H614Q629 74 640.5 83Q652 92 654 112L655 121Q660 158 622 158H571L582 239H632Q669 239 673 273L674 282Q676 301 666 308.5Q656 316 643 316H638Q622 316 611 303.5Q600 291 597 260H504L505 269Q513 334 547 365.5Q581 397 647 397Q686 397 710 385.5Q734 374 747.5 357.5Q761 341 765.5 321.5Q770 302 768 286L767 277Q764 247 749 227.5Q734 208 714 199Q732 191 741.5 166.5Q751 142 747 110L746 101Q744 84 736 65Q728 46 711.5 30Q695 14 669.5 3.5Q644 -7 607 -7Q540 -7 508 23.5Q476 54 483 116L484 125ZM13 0 691 780H791L113 0ZM28 392 38 473H119L145 668L87 632L50 699L183 782H253L212 473H293L283 392Z" glyph-name="uni2153" horiz-adv-x="800" unicode="&#8531;" /><glyph d="M577 125Q573 95 584 84.5Q595 74 609 74H614Q629 74 640.5 83Q652 92 654 112L655 121Q660 158 622 158H571L582 239H632Q669 239 673 273L674 282Q676 301 666 308.5Q656 316 643 316H638Q622 316 611 303.5Q600 291 597 260H504L505 269Q513 334 547 365.5Q581 397 647 397Q686 397 710 385.5Q734 374 747.5 357.5Q761 341 765.5 321.5Q770 302 768 286L767 277Q764 247 749 227.5Q734 208 714 199Q732 191 741.5 166.5Q751 142 747 110L746 101Q744 84 736 65Q728 46 711.5 30Q695 14 669.5 3.5Q644 -7 607 -7Q540 -7 508 23.5Q476 54 483 116L484 125ZM13 0 691 780H791L113 0ZM291 473 280 392H20L28 450L194 612Q219 635 222 658L223 667Q225 688 216 698Q207 708 193 708H188Q173 708 162.5 696Q152 684 147 652H54L55 661Q63 726 97 757.5Q131 789 197 789Q234 789 258.5 778.5Q283 768 296.5 751.5Q310 735 315 715.5Q320 696 318 678L317 669Q315 652 310.5 639Q306 626 299 614.5Q292 603 282.5 592Q273 581 260 568L161 472L196 473Z" glyph-name="uni2154" horiz-adv-x="800" unicode="&#8532;" /><glyph d="M577 125Q573 95 584 84.5Q595 74 609 74H614Q629 74 640.5 83.5Q652 93 655 119L656 128Q658 151 649 162.5Q640 174 623 174H617Q605 174 591.5 168Q578 162 570 150L494 177L531 390H779L768 309H598L586 240Q607 255 645 255Q702 255 728.5 220Q755 185 749 128L748 119Q742 62 707 27.5Q672 -7 606 -7Q540 -7 508 23.5Q476 54 483 116L484 125ZM13 0 691 780H791L113 0ZM28 392 38 473H119L145 668L87 632L50 699L183 782H253L212 473H293L283 392Z" glyph-name="uni2155" horiz-adv-x="800" unicode="&#8533;" /><glyph d="M577 125Q573 95 584 84.5Q595 74 609 74H614Q629 74 640.5 83.5Q652 93 655 119L656 128Q658 151 649 162.5Q640 174 623 174H617Q605 174 591.5 168Q578 162 570 150L494 177L531 390H779L768 309H598L586 240Q607 255 645 255Q702 255 728.5 220Q755 185 749 128L748 119Q742 62 707 27.5Q672 -7 606 -7Q540 -7 508 23.5Q476 54 483 116L484 125ZM13 0 691 780H791L113 0ZM291 473 280 392H20L28 450L194 612Q219 635 222 658L223 667Q225 688 216 698Q207 708 193 708H188Q173 708 162.5 696Q152 684 147 652H54L55 661Q63 726 97 757.5Q131 789 197 789Q234 789 258.5 778.5Q283 768 296.5 751.5Q310 735 315 715.5Q320 696 318 678L317 669Q315 652 310.5 639Q306 626 299 614.5Q292 603 282.5 592Q273 581 260 568L161 472L196 473Z" glyph-name="uni2156" horiz-adv-x="800" unicode="&#8534;" /><glyph d="M577 125Q573 95 584 84.5Q595 74 609 74H614Q629 74 640.5 83.5Q652 93 655 119L656 128Q658 151 649 162.5Q640 174 623 174H617Q605 174 591.5 168Q578 162 570 150L494 177L531 390H779L768 309H598L586 240Q607 255 645 255Q702 255 728.5 220Q755 185 749 128L748 119Q742 62 707 27.5Q672 -7 606 -7Q540 -7 508 23.5Q476 54 483 116L484 125ZM13 0 691 780H791L113 0ZM127 517Q123 487 134 476.5Q145 466 159 466H164Q179 466 190.5 475Q202 484 204 504L205 513Q210 550 172 550H121L132 631H182Q219 631 223 665L224 674Q226 693 216 700.5Q206 708 193 708H188Q172 708 161 695.5Q150 683 147 652H54L55 661Q63 726 97 757.5Q131 789 197 789Q236 789 260 777.5Q284 766 297.5 749.5Q311 733 315.5 713.5Q320 694 318 678L317 669Q314 639 299 619.5Q284 600 264 591Q282 583 291.5 558.5Q301 534 297 502L296 493Q294 476 286 457Q278 438 261.5 422Q245 406 219.5 395.5Q194 385 157 385Q90 385 58 415.5Q26 446 33 508L34 517Z" glyph-name="uni2157" horiz-adv-x="800" unicode="&#8535;" /><glyph d="M577 125Q573 95 584 84.5Q595 74 609 74H614Q629 74 640.5 83.5Q652 93 655 119L656 128Q658 151 649 162.5Q640 174 623 174H617Q605 174 591.5 168Q578 162 570 150L494 177L531 390H779L768 309H598L586 240Q607 255 645 255Q702 255 728.5 220Q755 185 749 128L748 119Q742 62 707 27.5Q672 -7 606 -7Q540 -7 508 23.5Q476 54 483 116L484 125ZM13 0 691 780H791L113 0ZM128 551 149 552H180L188 613L191 635ZM159 392 169 471H23L32 537L215 782H303L273 552H309L298 471H262L252 392Z" glyph-name="uni2158" horiz-adv-x="800" unicode="&#8536;" /><glyph d="M622 165Q611 165 599.5 160Q588 155 579 143Q578 140 578 136Q577 133 577 128.5Q577 124 577 120Q577 97 586.5 85.5Q596 74 610 74H615Q631 74 642 85.5Q653 97 655 117L656 126Q658 147 648.5 156Q639 165 624 165ZM754 315Q713 315 682 306.5Q651 298 628 275Q620 267 613 255.5Q606 244 601 228Q612 238 626.5 242Q641 246 656 246Q706 246 730.5 215Q755 184 749 127L748 117Q743 60 706.5 26.5Q670 -7 606 -7Q537 -7 508 33.5Q479 74 486 138L487 148Q493 205 509.5 248Q526 291 565 332Q604 373 654.5 385Q705 397 765 397ZM13 0 691 780H791L113 0ZM28 392 38 473H119L145 668L87 632L50 699L183 782H253L212 473H293L283 392Z" glyph-name="uni2159" horiz-adv-x="800" unicode="&#8537;" /><glyph d="M622 165Q611 165 599.5 160Q588 155 579 143Q578 140 578 136Q577 133 577 128.5Q577 124 577 120Q577 97 586.5 85.5Q596 74 610 74H615Q631 74 642 85.5Q653 97 655 117L656 126Q658 147 648.5 156Q639 165 624 165ZM754 315Q713 315 682 306.5Q651 298 628 275Q620 267 613 255.5Q606 244 601 228Q612 238 626.5 242Q641 246 656 246Q706 246 730.5 215Q755 184 749 127L748 117Q743 60 706.5 26.5Q670 -7 606 -7Q537 -7 508 33.5Q479 74 486 138L487 148Q493 205 509.5 248Q526 291 565 332Q604 373 654.5 385Q705 397 765 397ZM13 0 691 780H791L113 0ZM127 517Q123 487 134 476.5Q145 466 159 466H164Q179 466 190.5 475.5Q202 485 205 511L206 520Q208 543 199 554.5Q190 566 173 566H167Q155 566 141.5 560Q128 554 120 542L44 569L81 782H329L318 701H148L136 632Q157 647 195 647Q252 647 278.5 612Q305 577 299 520L298 511Q292 454 257 419.5Q222 385 156 385Q90 385 58 415.5Q26 446 33 508L34 517Z" glyph-name="uni215A" horiz-adv-x="800" unicode="&#8538;" /><glyph d="M633 239Q668 239 673 274L674 283Q676 300 666 308Q656 316 643 316H638Q604 316 600 282L599 273Q597 259 604.5 249Q612 239 629 239ZM617 158Q602 158 590 149Q578 140 576 120L575 111Q573 92 582.5 83Q592 74 609 74H614Q629 74 640.5 83Q652 92 654 112L655 121Q660 158 622 158ZM607 -7Q570 -7 545 3Q520 13 505 29.5Q490 46 485 65.5Q480 85 482 105L483 114Q487 146 502 167Q517 188 538 199Q524 210 514 232.5Q504 255 507 283L508 292Q510 309 518 327.5Q526 346 542.5 361.5Q559 377 584.5 387Q610 397 647 397Q686 397 710 385.5Q734 374 747.5 357.5Q761 341 765.5 321.5Q770 302 768 286L767 277Q764 247 749 227.5Q734 208 714 199Q732 191 741.5 166.5Q751 142 747 110L746 101Q744 84 736 65Q728 46 711.5 30Q695 14 669.5 3.5Q644 -7 607 -7ZM13 0 691 780H791L113 0ZM28 392 38 473H119L145 668L87 632L50 699L183 782H253L212 473H293L283 392Z" glyph-name="uni215B" horiz-adv-x="800" unicode="&#8539;" /><glyph d="M633 239Q668 239 673 274L674 283Q676 300 666 308Q656 316 643 316H638Q604 316 600 282L599 273Q597 259 604.5 249Q612 239 629 239ZM617 158Q602 158 590 149Q578 140 576 120L575 111Q573 92 582.5 83Q592 74 609 74H614Q629 74 640.5 83Q652 92 654 112L655 121Q660 158 622 158ZM607 -7Q570 -7 545 3Q520 13 505 29.5Q490 46 485 65.5Q480 85 482 105L483 114Q487 146 502 167Q517 188 538 199Q524 210 514 232.5Q504 255 507 283L508 292Q510 309 518 327.5Q526 346 542.5 361.5Q559 377 584.5 387Q610 397 647 397Q686 397 710 385.5Q734 374 747.5 357.5Q761 341 765.5 321.5Q770 302 768 286L767 277Q764 247 749 227.5Q734 208 714 199Q732 191 741.5 166.5Q751 142 747 110L746 101Q744 84 736 65Q728 46 711.5 30Q695 14 669.5 3.5Q644 -7 607 -7ZM13 0 691 780H791L113 0ZM127 517Q123 487 134 476.5Q145 466 159 466H164Q179 466 190.5 475Q202 484 204 504L205 513Q210 550 172 550H121L132 631H182Q219 631 223 665L224 674Q226 693 216 700.5Q206 708 193 708H188Q172 708 161 695.5Q150 683 147 652H54L55 661Q63 726 97 757.5Q131 789 197 789Q236 789 260 777.5Q284 766 297.5 749.5Q311 733 315.5 713.5Q320 694 318 678L317 669Q314 639 299 619.5Q284 600 264 591Q282 583 291.5 558.5Q301 534 297 502L296 493Q294 476 286 457Q278 438 261.5 422Q245 406 219.5 395.5Q194 385 157 385Q90 385 58 415.5Q26 446 33 508L34 517Z" glyph-name="uni215C" horiz-adv-x="800" unicode="&#8540;" /><glyph d="M633 239Q668 239 673 274L674 283Q676 300 666 308Q656 316 643 316H638Q604 316 600 282L599 273Q597 259 604.5 249Q612 239 629 239ZM617 158Q602 158 590 149Q578 140 576 120L575 111Q573 92 582.5 83Q592 74 609 74H614Q629 74 640.5 83Q652 92 654 112L655 121Q660 158 622 158ZM607 -7Q570 -7 545 3Q520 13 505 29.5Q490 46 485 65.5Q480 85 482 105L483 114Q487 146 502 167Q517 188 538 199Q524 210 514 232.5Q504 255 507 283L508 292Q510 309 518 327.5Q526 346 542.5 361.5Q559 377 584.5 387Q610 397 647 397Q686 397 710 385.5Q734 374 747.5 357.5Q761 341 765.5 321.5Q770 302 768 286L767 277Q764 247 749 227.5Q734 208 714 199Q732 191 741.5 166.5Q751 142 747 110L746 101Q744 84 736 65Q728 46 711.5 30Q695 14 669.5 3.5Q644 -7 607 -7ZM13 0 691 780H791L113 0ZM127 517Q123 487 134 476.5Q145 466 159 466H164Q179 466 190.5 475.5Q202 485 205 511L206 520Q208 543 199 554.5Q190 566 173 566H167Q155 566 141.5 560Q128 554 120 542L44 569L81 782H329L318 701H148L136 632Q157 647 195 647Q252 647 278.5 612Q305 577 299 520L298 511Q292 454 257 419.5Q222 385 156 385Q90 385 58 415.5Q26 446 33 508L34 517Z" glyph-name="uni215D" horiz-adv-x="800" unicode="&#8541;" /><glyph d="M633 239Q668 239 673 274L674 283Q676 300 666 308Q656 316 643 316H638Q604 316 600 282L599 273Q597 259 604.5 249Q612 239 629 239ZM617 158Q602 158 590 149Q578 140 576 120L575 111Q573 92 582.5 83Q592 74 609 74H614Q629 74 640.5 83Q652 92 654 112L655 121Q660 158 622 158ZM607 -7Q570 -7 545 3Q520 13 505 29.5Q490 46 485 65.5Q480 85 482 105L483 114Q487 146 502 167Q517 188 538 199Q524 210 514 232.5Q504 255 507 283L508 292Q510 309 518 327.5Q526 346 542.5 361.5Q559 377 584.5 387Q610 397 647 397Q686 397 710 385.5Q734 374 747.5 357.5Q761 341 765.5 321.5Q770 302 768 286L767 277Q764 247 749 227.5Q734 208 714 199Q732 191 741.5 166.5Q751 142 747 110L746 101Q744 84 736 65Q728 46 711.5 30Q695 14 669.5 3.5Q644 -7 607 -7ZM13 0 691 780H791L113 0ZM66 782H336L329 724L150 392H51L222 702L177 701H137L130 642H48Z" glyph-name="uni215E" horiz-adv-x="800" unicode="&#8542;" /><glyph d="M13 0 691 780H791L113 0ZM28 392 38 473H119L145 668L87 632L50 699L183 782H253L212 473H293L283 392Z" glyph-name="uni215F" horiz-adv-x="500" unicode="&#8543;" /><glyph d="M70 0V780H850V662H270L863 70L780 -13L188 580V0Z" glyph-name="uni2196" horiz-adv-x="920" unicode="&#8598;" /><glyph d="M70 780H850V0H732V580L140 -13L57 70L650 662H70Z" glyph-name="uni2197" horiz-adv-x="920" unicode="&#8599;" /><glyph d="M70 118H650L57 710L140 793L732 200V780H850V0H70Z" glyph-name="uni2198" horiz-adv-x="920" unicode="&#8600;" /><glyph d="M850 0H70V780H188V200L780 793L863 710L270 118H850Z" glyph-name="uni2199" horiz-adv-x="920" unicode="&#8601;" /><glyph d="M852 -1 807 -45 7 275 99 367 752 98 484 753 576 844 897 45Z" glyph-name="uni25E2" horiz-adv-x="930" unicode="&#9698;" /><glyph d="M33 45 354 844 446 753 177 98 831 367 923 275 123 -45 78 -1Z" glyph-name="uni25E3" horiz-adv-x="930" unicode="&#9699;" /><glyph d="M123 827 923 506 831 414 177 682 446 29 354 -63 33 737Z" glyph-name="uni25E4" horiz-adv-x="930" unicode="&#9700;" /><glyph d="M576 -63 484 29 752 682 99 414 7 506 807 827 897 737Z" glyph-name="uni25E5" horiz-adv-x="930" unicode="&#9701;" /><glyph d="M180 -10 279 297 19 486H341L440 792L539 486H861L601 297L700 -10L440 180Z" glyph-name="uni2605" horiz-adv-x="880" unicode="&#9733;" /><glyph d="M479 -11 437 191Q437 189 436.5 182.5Q436 176 433.5 166.5Q431 157 425 146Q419 135 408 125Q396 114 384 106Q372 98 362 90Q352 82 346 72Q340 62 340 47Q340 39 342 33Q344 27 346 22Q349 17 352 12Q329 19 317.5 36.5Q306 54 306 74Q306 104 327 125Q349 147 358.5 174.5Q368 202 368 220L196 107L309 279Q308 278 303 273.5Q298 269 290 264.5Q282 260 270 256.5Q258 253 243 253Q229 253 211.5 257Q194 261 181 261Q161 261 149 253.5Q137 246 131 237Q124 226 122 213Q114 227 114 241Q114 270 134.5 290Q155 310 185 310Q202 310 218.5 315Q235 320 248.5 326.5Q262 333 270.5 339.5Q279 346 281 348L79 390L281 432Q279 432 272.5 432.5Q266 433 256.5 435.5Q247 438 236 444Q225 450 215 461Q204 473 196 485Q188 497 180 507Q172 517 162 523Q152 529 137 529Q129 529 123 527Q117 525 112 523Q107 520 102 517Q109 540 126.5 551.5Q144 563 164 563Q194 563 215 542Q237 520 264.5 510.5Q292 501 310 501L197 673L369 560Q368 561 363.5 566Q359 571 354.5 579Q350 587 346.5 599Q343 611 343 626Q343 640 347 657.5Q351 675 351 688Q351 708 343.5 720Q336 732 327 738Q316 745 303 747Q317 755 331 755Q360 755 380 734.5Q400 714 400 684Q400 667 405 650.5Q410 634 416.5 620.5Q423 607 429.5 598Q436 589 438 588L480 790L522 588Q522 589 522.5 596Q523 603 525.5 612.5Q528 622 534 633Q540 644 551 654Q563 665 575 673Q587 681 597 689Q607 697 613 707Q619 717 619 732Q619 740 617 746Q615 752 613 757Q610 762 607 767Q630 760 641.5 742.5Q653 725 653 705Q653 675 632 654Q610 632 600.5 604.5Q591 577 591 559L763 672L650 500Q651 501 656 505.5Q661 510 669 514.5Q677 519 689 522.5Q701 526 716 526Q730 526 747.5 522Q765 518 778 518Q798 518 810 525.5Q822 533 828 542Q835 553 837 566Q845 552 845 538Q845 509 824.5 489Q804 469 774 469Q757 469 740.5 464Q724 459 710.5 452.5Q697 446 688 439.5Q679 433 678 431L880 389L678 347Q679 347 686 346.5Q693 346 702.5 343.5Q712 341 723 335Q734 329 744 318Q755 306 763 294Q771 282 779 272Q787 262 797 256Q807 250 822 250Q830 250 836 252Q842 254 847 256Q852 259 857 262Q850 239 832.5 227.5Q815 216 795 216Q765 216 744 237Q722 259 694.5 268.5Q667 278 649 278L762 106L590 219Q591 218 595.5 213Q600 208 604.5 200Q609 192 612.5 180Q616 168 616 153Q616 139 612 121.5Q608 104 608 91Q608 71 615.5 59Q623 47 632 41Q643 34 656 32Q642 24 628 24Q599 24 579 44.5Q559 65 559 95Q559 112 554 128.5Q549 145 542.5 158.5Q536 172 529.5 180.5Q523 189 521 191Z" glyph-name="uni263C" horiz-adv-x="960" unicode="&#9788;" /><glyph d="M624 728Q557 728 498 701.5Q439 675 395 629Q351 583 325.5 521.5Q300 460 300 390Q300 320 325.5 258.5Q351 197 395 151Q439 105 498 78.5Q557 52 624 52Q673 52 720 67Q669 30 607.5 10Q546 -10 480 -10Q397 -10 324 21.5Q251 53 197 107Q143 161 111.5 234Q80 307 80 390Q80 473 111.5 546Q143 619 197 673Q251 727 324 758.5Q397 790 480 790Q546 790 607.5 769.5Q669 749 720 713Q697 720 673 724Q649 728 624 728Z" glyph-name="uni263E" horiz-adv-x="960" unicode="&#9790;" /><glyph d="M875 410Q879 403 882 391.5Q885 380 885 366Q885 340 873.5 317Q862 294 845 277Q828 260 808.5 250Q789 240 773 240L657 441L806 527ZM311 41Q303 41 290.5 44Q278 47 267 54Q244 67 230 88.5Q216 110 209.5 133Q203 156 204.5 178Q206 200 214 214H446V41ZM267 717Q271 724 280 732.5Q289 741 301 748Q323 761 348.5 762.5Q374 764 397.5 758Q421 752 439.5 739.5Q458 727 466 713L350 512L200 598ZM404 780H597Q611 780 623.5 778.5Q636 777 647.5 772.5Q659 768 669 759Q679 750 689 733L717 684L760 708L699 542L526 573L567 597L495 722Q484 742 468 753Q452 764 438 770Q421 777 404 779ZM184 122 88 290Q82 302 76.5 313.5Q71 325 69.5 337Q68 349 71 362.5Q74 376 84 393L112 442L70 466L244 497L303 331L262 355Q243 321 227 294Q213 271 202 251.5Q191 232 190 230Q179 210 177 191.5Q175 173 177 157Q180 139 186 122ZM864 264 768 97Q760 85 753 75Q746 65 736 57.5Q726 50 713 45.5Q700 41 680 41H623V-8L510 128L623 263V214H768Q790 214 808 222Q826 230 838 240Q852 251 863 266Z" glyph-name="uni267B" horiz-adv-x="960" unicode="&#9851;" /><glyph d="M64 390Q64 472 95 544Q126 616 180 670Q234 724 306 755Q378 786 460 786Q542 786 614 755Q686 724 740 670Q794 616 825 544Q856 472 856 390Q856 308 825 236Q794 164 740 110Q686 56 614 25Q542 -6 460 -6Q378 -6 306 25Q234 56 180 110Q126 164 95 236Q64 308 64 390ZM754 295Q745 284 734 275Q724 267 710.5 261Q697 255 680 255H568V293L480 188L568 83V121H612Q643 121 656 133.5Q669 146 680 164L755 294ZM710 498 594 431 684 275Q696 275 711.5 282.5Q727 290 740.5 303.5Q754 317 762.5 335Q771 353 771 373Q771 384 768.5 393Q766 402 763 407ZM229 184Q224 197 222 211Q220 223 221.5 238Q223 253 232 268L288 365L320 346L274 475L139 451L172 432L150 394Q134 368 138.5 350.5Q143 333 153 314L228 184ZM427 121V255H247Q241 244 240 227Q239 210 243.5 192Q248 174 259 157.5Q270 141 288 131Q297 126 306.5 123.5Q316 121 322 121ZM394 693Q408 691 421 686Q432 681 444 672Q456 663 465 649L521 552L489 533L623 509L670 638L637 619L615 657Q600 683 583 688.5Q566 694 544 694H394ZM240 553 356 486 446 642Q440 653 425.5 662.5Q411 672 393 676.5Q375 681 355 680Q335 679 318 669Q309 664 302 657Q295 650 292 645Z" glyph-name="uni267C" horiz-adv-x="960" unicode="&#9852;" /></font>
</defs>
</svg>
