<?xml version="1.0" encoding="UTF-8"?>
<svg xmlns="http://www.w3.org/2000/svg" xmlns:xlink="http://www.w3.org/1999/xlink" width="448.99200000000013" height="72.00000000000001" viewBox="0 -13.999999999999993 448.99200000000013 100" preserveAspectRatio="xMinYMid meet"><path d="M9.43 24.48L9.43 27.36Q9.43 33.34 10.26 37.66Q11.09 41.98 12.74 44.75Q14.40 47.52 16.99 48.82Q19.58 50.11 23.11 50.11L23.11 50.11L23.62 50.11Q29.95 50.11 32.76 46.40Q35.57 42.70 35.57 35.71L35.57 35.71L40.90 35.71L40.90 36.43Q40.90 45.36 36.54 50.08Q32.18 54.79 23.18 54.79L23.18 54.79Q18.36 54.79 14.76 53.24Q11.16 51.70 8.78 48.38Q6.41 45.07 5.26 39.85Q4.10 34.63 4.10 27.36L4.10 27.36L4.10 24.48Q4.10 17.21 5.26 11.99Q6.41 6.77 8.78 3.46Q11.16 0.14 14.76-1.40Q18.36-2.95 23.18-2.95L23.18-2.95Q32.18-2.95 36.54 1.87Q40.90 6.70 40.90 16.27L40.90 16.27L40.90 18.29L35.57 18.29Q35.57 9.58 32.76 5.65Q29.95 1.73 23.62 1.73L23.62 1.73L23.11 1.73Q16.06 1.73 12.74 7.13Q9.43 12.53 9.43 24.48L9.43 24.48ZM64.08 50.26L64.08 50.26Q69.77 50.26 72.40 46.30Q75.02 42.34 75.02 35.78L75.02 35.78L75.02 34.06Q75.02 27.50 72.40 23.54Q69.77 19.58 64.08 19.58L64.08 19.58Q58.39 19.58 55.76 23.54Q53.14 27.50 53.14 34.06L53.14 34.06L53.14 35.78Q53.14 42.34 55.76 46.30Q58.39 50.26 64.08 50.26ZM64.08 54.79L64.08 54.79Q59.83 54.79 56.81 53.32Q53.78 51.84 51.84 49.25Q49.90 46.66 48.96 43.20Q48.02 39.74 48.02 35.78L48.02 35.78L48.02 34.06Q48.02 30.10 48.96 26.64Q49.90 23.18 51.84 20.59Q53.78 18 56.81 16.52Q59.83 15.05 64.08 15.05L64.08 15.05Q68.26 15.05 71.32 16.52Q74.38 18 76.32 20.59Q78.26 23.18 79.20 26.64Q80.14 30.10 80.14 34.06L80.14 34.06L80.14 35.78Q80.14 39.74 79.20 43.20Q78.26 46.66 76.32 49.25Q74.38 51.84 71.32 53.32Q68.26 54.79 64.08 54.79ZM103.25 50.26L103.25 50.26Q108.94 50.26 111.56 46.30Q114.19 42.34 114.19 35.78L114.19 35.78L114.19 34.06Q114.19 27.50 111.56 23.54Q108.94 19.58 103.25 19.58L103.25 19.58Q97.56 19.58 94.93 23.54Q92.30 27.50 92.30 34.06L92.30 34.06L92.30 35.78Q92.30 42.34 94.93 46.30Q97.56 50.26 103.25 50.26ZM103.25 54.79L103.25 54.79Q99.00 54.79 95.98 53.32Q92.95 51.84 91.01 49.25Q89.06 46.66 88.13 43.20Q87.19 39.74 87.19 35.78L87.19 35.78L87.19 34.06Q87.19 30.10 88.13 26.64Q89.06 23.18 91.01 20.59Q92.95 18 95.98 16.52Q99.00 15.05 103.25 15.05L103.25 15.05Q107.42 15.05 110.48 16.52Q113.54 18 115.49 20.59Q117.43 23.18 118.37 26.64Q119.30 30.10 119.30 34.06L119.30 34.06L119.30 35.78Q119.30 39.74 118.37 43.20Q117.43 46.66 115.49 49.25Q113.54 51.84 110.48 53.32Q107.42 54.79 103.25 54.79ZM132.62 25.49L132.62 44.35Q133.20 45.29 134.03 46.33Q134.86 47.38 136.04 48.24Q137.23 49.10 138.78 49.68Q140.33 50.26 142.27 50.26L142.27 50.26Q147.67 50.26 150.26 46.37Q152.86 42.48 152.86 35.78L152.86 35.78L152.86 34.06Q152.86 27.36 150.26 23.47Q147.67 19.58 142.27 19.58L142.27 19.58Q140.33 19.58 138.78 20.16Q137.23 20.74 136.04 21.60Q134.86 22.46 134.03 23.51Q133.20 24.55 132.62 25.49L132.62 25.49ZM143.42 54.79L143.42 54.79Q139.39 54.79 136.76 53.32Q134.14 51.84 132.62 49.68L132.62 49.68L132.62 68.40L127.58 68.40L127.58 26.64L127.15 15.84L131.33 15.84L132.05 21.02Q133.56 18.58 136.30 16.81Q139.03 15.05 143.42 15.05L143.42 15.05Q147.31 15.05 150.08 16.52Q152.86 18 154.62 20.59Q156.38 23.18 157.21 26.64Q158.04 30.10 158.04 34.06L158.04 34.06L158.04 35.78Q158.04 39.74 157.21 43.20Q156.38 46.66 154.62 49.25Q152.86 51.84 150.08 53.32Q147.31 54.79 143.42 54.79ZM181.08 19.30L181.08 19.30Q175.68 19.30 172.98 22.93Q170.28 26.57 170.14 32.83L170.14 32.83L192.02 32.83Q191.81 26.57 189.18 22.93Q186.55 19.30 181.08 19.30ZM197.14 37.01L170.14 37.01Q170.28 43.34 173.02 46.94Q175.75 50.54 181.51 50.54L181.51 50.54Q184.39 50.54 186.44 49.75Q188.50 48.96 189.79 47.70Q191.09 46.44 191.70 44.86Q192.31 43.27 192.31 41.76L192.31 41.76L197.14 41.76L197.14 42.05Q197.14 44.28 196.20 46.55Q195.26 48.82 193.36 50.65Q191.45 52.49 188.50 53.64Q185.54 54.79 181.51 54.79L181.51 54.79Q177.19 54.79 174.06 53.32Q170.93 51.84 168.95 49.25Q166.97 46.66 166.00 43.16Q165.02 39.67 165.02 35.71L165.02 35.71L165.02 34.13Q165.02 30.17 165.96 26.68Q166.90 23.18 168.88 20.59Q170.86 18 173.92 16.52Q176.98 15.05 181.15 15.05L181.15 15.05Q185.33 15.05 188.35 16.52Q191.38 18 193.32 20.59Q195.26 23.18 196.20 26.68Q197.14 30.17 197.14 34.13L197.14 34.13L197.14 37.01ZM220.54 15.05L220.54 15.05Q220.90 15.05 221.22 15.08Q221.54 15.12 221.62 15.12L221.62 15.12L221.62 19.94L220.61 19.94Q218.45 19.94 216.83 20.48Q215.21 21.02 213.98 21.89Q212.76 22.75 211.90 23.76Q211.03 24.77 210.46 25.70L210.46 25.70L210.46 54.00L205.42 54.00L205.42 26.64L204.98 15.84L209.16 15.84L209.88 20.88Q211.39 18.50 214.02 16.78Q216.65 15.05 220.54 15.05ZM274.54-2.16L279.72-2.16L279.72 54.00L274.54 54.00L274.54 27.65L249.55 27.65L249.55 54.00L244.37 54.00L244.37-2.16L249.55-2.16L249.55 23.04L274.54 23.04L274.54-2.16ZM304.63 19.30L304.63 19.30Q299.23 19.30 296.53 22.93Q293.83 26.57 293.69 32.83L293.69 32.83L315.58 32.83Q315.36 26.57 312.73 22.93Q310.10 19.30 304.63 19.30ZM320.69 37.01L293.69 37.01Q293.83 43.34 296.57 46.94Q299.30 50.54 305.06 50.54L305.06 50.54Q307.94 50.54 310.00 49.75Q312.05 48.96 313.34 47.70Q314.64 46.44 315.25 44.86Q315.86 43.27 315.86 41.76L315.86 41.76L320.69 41.76L320.69 42.05Q320.69 44.28 319.75 46.55Q318.82 48.82 316.91 50.65Q315.00 52.49 312.05 53.64Q309.10 54.79 305.06 54.79L305.06 54.79Q300.74 54.79 297.61 53.32Q294.48 51.84 292.50 49.25Q290.52 46.66 289.55 43.16Q288.58 39.67 288.58 35.71L288.58 35.71L288.58 34.13Q288.58 30.17 289.51 26.68Q290.45 23.18 292.43 20.59Q294.41 18 297.47 16.52Q300.53 15.05 304.70 15.05L304.70 15.05Q308.88 15.05 311.90 16.52Q314.93 18 316.87 20.59Q318.82 23.18 319.75 26.68Q320.69 30.17 320.69 34.13L320.69 34.13L320.69 37.01ZM349.99 21.46L341.28 54.00L334.66 54.00L326.45 15.84L331.49 15.84L338.11 48.74L346.97 15.84L353.09 15.84L361.94 48.74L368.57 15.84L373.61 15.84L365.40 54.00L358.70 54.00L349.99 21.46ZM386.86 0.36L386.86 6.84L380.38 6.84L380.38 0.36L386.86 0.36ZM381.10 54.00L381.10 15.84L386.14 15.84L386.14 54.00L381.10 54.00ZM404.71 15.84L416.88 15.84L416.88 20.38L404.71 20.38L404.71 42.77Q404.71 47.30 406.58 48.78Q408.46 50.26 412.06 50.26L412.06 50.26Q413.28 50.26 414.50 50.04Q415.73 49.82 416.16 49.61L416.16 49.61L416.16 54.00Q415.73 54.14 414.43 54.47Q413.14 54.79 410.83 54.79L410.83 54.79Q408.38 54.79 406.33 54.18Q404.28 53.57 402.80 52.20Q401.33 50.83 400.50 48.67Q399.67 46.51 399.67 43.42L399.67 43.42L399.67 20.38L393.62 20.38L393.62 15.84L399.67 15.84L399.67 5.04L404.71 5.04L404.71 15.84ZM433.51 15.84L445.68 15.84L445.68 20.38L433.51 20.38L433.51 42.77Q433.51 47.30 435.38 48.78Q437.26 50.26 440.86 50.26L440.86 50.26Q442.08 50.26 443.30 50.04Q444.53 49.82 444.96 49.61L444.96 49.61L444.96 54.00Q444.53 54.14 443.23 54.47Q441.94 54.79 439.63 54.79L439.63 54.79Q437.18 54.79 435.13 54.18Q433.08 53.57 431.60 52.20Q430.13 50.83 429.30 48.67Q428.47 46.51 428.47 43.42L428.47 43.42L428.47 20.38L422.42 20.38L422.42 15.84L428.47 15.84L428.47 5.04L433.51 5.04L433.51 15.84Z"/></svg>