<?xml version="1.0" standalone="no"?><!DOCTYPE svg PUBLIC "-//W3C//DTD SVG 1.1//EN" "http://www.w3.org/Graphics/SVG/1.1/DTD/svg11.dtd" ><svg version="1.1" xmlns="http://www.w3.org/2000/svg"><defs><font horiz-adv-x="0" id="font"><font-face ascent="750" bbox="-249 -206 1360 956" cap-height="780" descent="-250" font-family="Cooper Hewitt" font-stretch="normal" font-style="normal" font-weight="600" units-per-em="1000" x-height="530" /><missing-glyph d="M802 115V665L527 390ZM162 665V115L437 390ZM482 435 761 714H203ZM203 66H761L482 345ZM92 780H872V0H92Z" horiz-adv-x="963" /><glyph d="M119 250H440L347 760ZM360 790 506 0H486L444 230H110L8 0H-14L340 790Z" glyph-name="A" horiz-adv-x="590" unicode="A" /><glyph d="M129 250H401L387 758ZM823 780 821 760H406L417 408H724L722 388H418L429 20H723L721 0H409L402 230H119L2 0H-19L378 780Z" glyph-name="AE" horiz-adv-x="820" unicode="&#198;" /><glyph d="M444 950 367 840H345L422 950ZM119 250H440L347 760ZM360 790 506 0H486L444 230H110L8 0H-14L340 790Z" glyph-name="Aacute" horiz-adv-x="590" unicode="&#193;" /><glyph d="M355 852Q409 852 442.5 878.5Q476 905 482 950H501Q493 897 456 865.5Q419 834 356 834Q293 834 263 865.5Q233 897 241 950H258Q252 905 276.5 878.5Q301 852 355 852ZM119 250H440L347 760ZM360 790 506 0H486L444 230H110L8 0H-14L340 790Z" glyph-name="Abreve" horiz-adv-x="590" unicode="&#258;" /><glyph d="M246 840 361 950H381L466 840H443L370 935L271 840ZM119 250H440L347 760ZM360 790 506 0H486L444 230H110L8 0H-14L340 790Z" glyph-name="Acircumflex" horiz-adv-x="590" unicode="&#194;" /><glyph d="M451 875H411L416 915H456ZM311 875H271L276 915H316ZM119 250H440L347 760ZM360 790 506 0H486L444 230H110L8 0H-14L340 790Z" glyph-name="Adieresis" horiz-adv-x="590" unicode="&#196;" /><glyph d="M320 950 367 840H345L298 950ZM119 250H440L347 760ZM360 790 506 0H486L444 230H110L8 0H-14L340 790Z" glyph-name="Agrave" horiz-adv-x="590" unicode="&#192;" /><glyph d="M265 905H465L462 885H262ZM119 250H440L347 760ZM360 790 506 0H486L444 230H110L8 0H-14L340 790Z" glyph-name="Amacron" horiz-adv-x="590" unicode="&#256;" /><glyph d="M360 790 506 0H486L347 760L8 0H-14L340 790Z" glyph-name="Anocross" horiz-adv-x="590" unicode="&#59185;" /><glyph d="M525 -187Q511 -195 493 -200.5Q475 -206 446 -206Q412 -206 388 -187.5Q364 -169 364 -129Q364 -99 374.5 -76Q385 -53 401.5 -36.5Q418 -20 439.5 -9Q461 2 484 10L444 230H110L8 0H-14L340 790H360L506 0Q487 -6 465.5 -15.5Q444 -25 425.5 -40Q407 -55 394.5 -77Q382 -99 382 -129Q382 -162 401 -175Q420 -188 446 -188Q472 -188 490.5 -182Q509 -176 521 -170ZM119 250H440L347 760Z" glyph-name="Aogonek" horiz-adv-x="590" unicode="&#260;" /><glyph d="M367 956Q404 956 425.5 935Q447 914 447 878Q447 841 421.5 814.5Q396 788 361 784L506 0H486L444 230H110L8 0H-14L338 785Q307 789 289.5 809.5Q272 830 272 862Q272 881 280 898.5Q288 916 301 928.5Q314 941 331 948.5Q348 956 367 956ZM367 938Q335 938 313 917Q291 896 291 862Q291 833 307.5 817.5Q324 802 352 802Q384 802 406 823Q428 844 428 878Q428 907 411.5 922.5Q395 938 367 938ZM119 250H440L347 760Z" glyph-name="Aring" horiz-adv-x="590" unicode="&#197;" /><glyph d="M503 927Q500 906 493 892.5Q486 879 476 871Q466 863 454 860Q442 857 431 857Q411 857 394.5 866Q378 875 362 886Q346 897 330 906Q314 915 296 915Q279 915 263 906Q247 897 242 863H224Q227 884 234 897.5Q241 911 251 919Q261 927 273 930Q285 933 296 933Q315 933 332 924Q349 915 365 904Q381 893 397 884Q413 875 431 875Q448 875 464 884Q480 893 485 927ZM119 250H440L347 760ZM360 790 506 0H486L444 230H110L8 0H-14L340 790Z" glyph-name="Atilde" horiz-adv-x="590" unicode="&#195;" /><glyph d="M151 760 105 408H277Q310 408 343 413Q376 418 403.5 435Q431 452 451 483.5Q471 515 478 568L481 592Q488 646 473.5 679Q459 712 433 730Q407 748 374 754Q341 760 310 760ZM102 388 54 20H230Q266 20 302 24.5Q338 29 368 46Q398 63 420 96.5Q442 130 449 188L452 212Q459 270 444 305Q429 340 402 358.5Q375 377 341.5 382.5Q308 388 277 388ZM310 780Q350 780 387.5 772Q425 764 453 743Q481 722 495 685.5Q509 649 502 592L499 568Q493 522 478.5 491Q464 460 443 440.5Q422 421 396.5 411.5Q371 402 344 398Q374 393 400 381.5Q426 370 444 348.5Q462 327 470.5 293.5Q479 260 473 212L470 188Q462 127 440 90Q418 53 385.5 33Q353 13 313 6.5Q273 0 230 0H31L133 780Z" glyph-name="B" horiz-adv-x="552" unicode="B" /><glyph d="M346 875H306L311 915H351ZM151 760 105 408H277Q310 408 343 413Q376 418 403.5 435Q431 452 451 483.5Q471 515 478 568L481 592Q488 646 473.5 679Q459 712 433 730Q407 748 374 754Q341 760 310 760ZM102 388 54 20H230Q266 20 302 24.5Q338 29 368 46Q398 63 420 96.5Q442 130 449 188L452 212Q459 270 444 305Q429 340 402 358.5Q375 377 341.5 382.5Q308 388 277 388ZM310 780Q350 780 387.5 772Q425 764 453 743Q481 722 495 685.5Q509 649 502 592L499 568Q493 522 478.5 491Q464 460 443 440.5Q422 421 396.5 411.5Q371 402 344 398Q374 393 400 381.5Q426 370 444 348.5Q462 327 470.5 293.5Q479 260 473 212L470 188Q462 127 440 90Q418 53 385.5 33Q353 13 313 6.5Q273 0 230 0H31L133 780Z" glyph-name="Bdotaccent" horiz-adv-x="552" unicode="&#7682;" /><glyph d="M68 402Q81 506 106 579Q131 652 168 698Q205 744 254.5 765Q304 786 366 786Q423 786 462.5 772Q502 758 525.5 726.5Q549 695 556 645Q563 595 554 524L551 500H531Q541 577 536.5 628Q532 679 512 710Q492 741 456 753.5Q420 766 369 766H363Q306 766 261 746Q216 726 182 682.5Q148 639 124.5 570Q101 501 89 402L86 378Q74 280 79 211Q84 142 106 98.5Q128 55 167.5 34.5Q207 14 264 14H270Q316 14 354.5 26Q393 38 422.5 65.5Q452 93 471.5 138.5Q491 184 499 250H519L516 226Q502 117 442.5 55.5Q383 -6 267 -6Q204 -6 160 16Q116 38 90.5 84.5Q65 131 58.5 204Q52 277 65 378Z" glyph-name="C" horiz-adv-x="593" unicode="C" /><glyph d="M464 950 387 840H365L442 950ZM68 402Q81 506 106 579Q131 652 168 698Q205 744 254.5 765Q304 786 366 786Q423 786 462.5 772Q502 758 525.5 726.5Q549 695 556 645Q563 595 554 524L551 500H531Q541 577 536.5 628Q532 679 512 710Q492 741 456 753.5Q420 766 369 766H363Q306 766 261 746Q216 726 182 682.5Q148 639 124.5 570Q101 501 89 402L86 378Q74 280 79 211Q84 142 106 98.5Q128 55 167.5 34.5Q207 14 264 14H270Q316 14 354.5 26Q393 38 422.5 65.5Q452 93 471.5 138.5Q491 184 499 250H519L516 226Q502 117 442.5 55.5Q383 -6 267 -6Q204 -6 160 16Q116 38 90.5 84.5Q65 131 58.5 204Q52 277 65 378Z" glyph-name="Cacute" horiz-adv-x="593" unicode="&#262;" /><glyph d="M501 950 386 840H366L281 950H304L377 855L476 950ZM68 402Q81 506 106 579Q131 652 168 698Q205 744 254.5 765Q304 786 366 786Q423 786 462.5 772Q502 758 525.5 726.5Q549 695 556 645Q563 595 554 524L551 500H531Q541 577 536.5 628Q532 679 512 710Q492 741 456 753.5Q420 766 369 766H363Q306 766 261 746Q216 726 182 682.5Q148 639 124.5 570Q101 501 89 402L86 378Q74 280 79 211Q84 142 106 98.5Q128 55 167.5 34.5Q207 14 264 14H270Q316 14 354.5 26Q393 38 422.5 65.5Q452 93 471.5 138.5Q491 184 499 250H519L516 226Q502 117 442.5 55.5Q383 -6 267 -6Q204 -6 160 16Q116 38 90.5 84.5Q65 131 58.5 204Q52 277 65 378Z" glyph-name="Ccaron" horiz-adv-x="593" unicode="&#268;" /><glyph d="M172 -170Q183 -178 205 -183Q227 -188 245 -188Q259 -188 273 -185.5Q287 -183 298 -176Q309 -169 316 -157Q323 -145 323 -126Q323 -111 317.5 -102.5Q312 -94 302.5 -89.5Q293 -85 281 -83.5Q269 -82 256 -82Q251 -82 246.5 -82.5Q242 -83 238 -83Q234 -84 230 -84L221 -73L254 -6Q135 -2 87.5 89.5Q40 181 65 378L68 402Q81 506 106 579Q131 652 168 698Q205 744 254.5 765Q304 786 366 786Q423 786 462.5 772Q502 758 525.5 726.5Q549 695 556 645Q563 595 554 524L551 500H531Q541 577 536.5 628Q532 679 512 710Q492 741 456 753.5Q420 766 369 766H363Q306 766 261 746Q216 726 182 682.5Q148 639 124.5 570Q101 501 89 402L86 378Q74 280 79 211Q84 142 106 98.5Q128 55 167.5 34.5Q207 14 264 14H270Q316 14 354.5 26Q393 38 422.5 65.5Q452 93 471.5 138.5Q491 184 499 250H519L516 226Q502 118 444 57Q386 -4 273 -6L244 -65Q248 -64 253 -64Q258 -64 263 -64Q277 -64 291 -67Q305 -70 316 -77Q327 -84 334 -96Q341 -108 341 -126Q341 -149 332.5 -164Q324 -179 310.5 -188.5Q297 -198 280 -202Q263 -206 245 -206Q225 -206 202 -200.5Q179 -195 164 -186Z" glyph-name="Ccedilla" horiz-adv-x="593" unicode="&#199;" /><glyph d="M266 840 381 950H401L486 840H463L390 935L291 840ZM68 402Q81 506 106 579Q131 652 168 698Q205 744 254.5 765Q304 786 366 786Q423 786 462.5 772Q502 758 525.5 726.5Q549 695 556 645Q563 595 554 524L551 500H531Q541 577 536.5 628Q532 679 512 710Q492 741 456 753.5Q420 766 369 766H363Q306 766 261 746Q216 726 182 682.5Q148 639 124.5 570Q101 501 89 402L86 378Q74 280 79 211Q84 142 106 98.5Q128 55 167.5 34.5Q207 14 264 14H270Q316 14 354.5 26Q393 38 422.5 65.5Q452 93 471.5 138.5Q491 184 499 250H519L516 226Q502 117 442.5 55.5Q383 -6 267 -6Q204 -6 160 16Q116 38 90.5 84.5Q65 131 58.5 204Q52 277 65 378Z" glyph-name="Ccircumflex" horiz-adv-x="593" unicode="&#264;" /><glyph d="M401 875H361L366 915H406ZM68 402Q81 506 106 579Q131 652 168 698Q205 744 254.5 765Q304 786 366 786Q423 786 462.5 772Q502 758 525.5 726.5Q549 695 556 645Q563 595 554 524L551 500H531Q541 577 536.5 628Q532 679 512 710Q492 741 456 753.5Q420 766 369 766H363Q306 766 261 746Q216 726 182 682.5Q148 639 124.5 570Q101 501 89 402L86 378Q74 280 79 211Q84 142 106 98.5Q128 55 167.5 34.5Q207 14 264 14H270Q316 14 354.5 26Q393 38 422.5 65.5Q452 93 471.5 138.5Q491 184 499 250H519L516 226Q502 117 442.5 55.5Q383 -6 267 -6Q204 -6 160 16Q116 38 90.5 84.5Q65 131 58.5 204Q52 277 65 378Z" glyph-name="Cdotaccent" horiz-adv-x="593" unicode="&#266;" /><glyph d="M215 20Q275 20 327.5 39Q380 58 422 100.5Q464 143 493 211Q522 279 534 378L537 402Q549 500 539.5 568.5Q530 637 501.5 679.5Q473 722 427 741Q381 760 321 760H151L54 20ZM555 378Q542 273 510.5 201Q479 129 434 84Q389 39 333 19.5Q277 0 215 0H31L133 780H321Q383 780 432.5 760.5Q482 741 514.5 696.5Q547 652 559 579.5Q571 507 558 402Z" glyph-name="D" horiz-adv-x="615" unicode="D" /><glyph d="M456 950 341 840H321L236 950H259L332 855L431 950ZM215 20Q275 20 327.5 39Q380 58 422 100.5Q464 143 493 211Q522 279 534 378L537 402Q549 500 539.5 568.5Q530 637 501.5 679.5Q473 722 427 741Q381 760 321 760H151L54 20ZM555 378Q542 273 510.5 201Q479 129 434 84Q389 39 333 19.5Q277 0 215 0H31L133 780H321Q383 780 432.5 760.5Q482 741 514.5 696.5Q547 652 559 579.5Q571 507 558 402Z" glyph-name="Dcaron" horiz-adv-x="615" unicode="&#270;" /><glyph d="M270 20Q330 20 382.5 39Q435 58 477 100.5Q519 143 548 211Q577 279 589 378L592 402Q604 500 594.5 568.5Q585 637 556.5 679.5Q528 722 482 741Q436 760 376 760H206L160 408H390L387 388H157L109 20ZM30 408H139L188 780H376Q438 780 487.5 760.5Q537 741 569.5 696.5Q602 652 614 579.5Q626 507 613 402L610 378Q597 273 565.5 201Q534 129 489 84Q444 39 388 19.5Q332 0 270 0H86L137 388H27Z" glyph-name="Dcroat" horiz-adv-x="670" unicode="&#272;" /><glyph d="M356 875H316L321 915H361ZM215 20Q275 20 327.5 39Q380 58 422 100.5Q464 143 493 211Q522 279 534 378L537 402Q549 500 539.5 568.5Q530 637 501.5 679.5Q473 722 427 741Q381 760 321 760H151L54 20ZM555 378Q542 273 510.5 201Q479 129 434 84Q389 39 333 19.5Q277 0 215 0H31L133 780H321Q383 780 432.5 760.5Q482 741 514.5 696.5Q547 652 559 579.5Q571 507 558 402Z" glyph-name="Ddotaccent" horiz-adv-x="615" unicode="&#7690;" /><glyph d="M543 780 540 760H151L105 408H444L441 388H102L54 20H444L441 0H31L133 780Z" glyph-name="E" horiz-adv-x="540" unicode="E" /><glyph d="M439 950 362 840H340L417 950ZM543 780 540 760H151L105 408H444L441 388H102L54 20H444L441 0H31L133 780Z" glyph-name="Eacute" horiz-adv-x="540" unicode="&#201;" /><glyph d="M350 852Q404 852 437.5 878.5Q471 905 477 950H496Q488 897 451 865.5Q414 834 351 834Q288 834 258 865.5Q228 897 236 950H253Q247 905 271.5 878.5Q296 852 350 852ZM543 780 540 760H151L105 408H444L441 388H102L54 20H444L441 0H31L133 780Z" glyph-name="Ebreve" horiz-adv-x="540" unicode="&#276;" /><glyph d="M476 950 361 840H341L256 950H279L352 855L451 950ZM543 780 540 760H151L105 408H444L441 388H102L54 20H444L441 0H31L133 780Z" glyph-name="Ecaron" horiz-adv-x="540" unicode="&#282;" /><glyph d="M241 840 356 950H376L461 840H438L365 935L266 840ZM543 780 540 760H151L105 408H444L441 388H102L54 20H444L441 0H31L133 780Z" glyph-name="Ecircumflex" horiz-adv-x="540" unicode="&#202;" /><glyph d="M446 875H406L411 915H451ZM306 875H266L271 915H311ZM543 780 540 760H151L105 408H444L441 388H102L54 20H444L441 0H31L133 780Z" glyph-name="Edieresis" horiz-adv-x="540" unicode="&#203;" /><glyph d="M376 875H336L341 915H381ZM543 780 540 760H151L105 408H444L441 388H102L54 20H444L441 0H31L133 780Z" glyph-name="Edotaccent" horiz-adv-x="540" unicode="&#278;" /><glyph d="M315 950 362 840H340L293 950ZM543 780 540 760H151L105 408H444L441 388H102L54 20H444L441 0H31L133 780Z" glyph-name="Egrave" horiz-adv-x="540" unicode="&#200;" /><glyph d="M260 905H460L457 885H257ZM543 780 540 760H151L105 408H444L441 388H102L54 20H444L441 0H31L133 780Z" glyph-name="Emacron" horiz-adv-x="540" unicode="&#274;" /><glyph d="M148 748 130 605 51 0H31L133 780H155L496 32L514 175L593 780H613L502 -69Q497 -110 482.5 -136Q468 -162 448 -178Q428 -194 403.5 -200Q379 -206 353 -206Q325 -206 309.5 -202Q294 -198 291 -196L293 -176Q299 -179 316 -182.5Q333 -186 352 -186Q377 -186 399 -180.5Q421 -175 438 -161.5Q455 -148 466.5 -124Q478 -100 483 -63L491 -4Z" glyph-name="Eng" horiz-adv-x="640" unicode="&#330;" /><glyph d="M460 -187Q446 -195 428 -200.5Q410 -206 381 -206Q347 -206 323 -187.5Q299 -169 299 -129Q299 -103 306.5 -83Q314 -63 327 -47Q340 -31 357 -19.5Q374 -8 393 0H31L133 780H543L540 760H151L105 408H444L441 388H102L54 20H444L441 0Q422 -6 400.5 -15.5Q379 -25 360.5 -40Q342 -55 329.5 -77Q317 -99 317 -129Q317 -162 336 -175Q355 -188 381 -188Q407 -188 425.5 -182Q444 -176 456 -170Z" glyph-name="Eogonek" horiz-adv-x="540" unicode="&#280;" /><glyph d="M535 734Q508 751 475 758.5Q442 766 392 766Q341 766 295.5 755.5Q250 745 213.5 718.5Q177 692 152 647.5Q127 603 118 535L48 0H28L99 541Q108 613 135.5 660.5Q163 708 202.5 736Q242 764 290.5 775Q339 786 392 786Q447 786 486.5 775.5Q526 765 557 743L555 728L341 426L442 413Q551 399 600 346.5Q649 294 638 210L635 186Q629 135 608.5 99Q588 63 557.5 39.5Q527 16 487 5Q447 -6 401 -6Q349 -6 310 7Q271 20 246 48Q221 76 211.5 120Q202 164 210 226L213 250H233Q222 179 230.5 133.5Q239 88 261.5 61.5Q284 35 319.5 24.5Q355 14 398 14H404Q446 14 482 24.5Q518 35 545.5 56.5Q573 78 591 110Q609 142 614 186L617 210Q622 253 611.5 284.5Q601 316 577 338.5Q553 361 515.5 375Q478 389 429 395L313 410L315 424Z" glyph-name="Eszett" horiz-adv-x="700" unicode="&#7838;" /><glyph d="M270 20Q330 20 382.5 39Q435 58 477 100.5Q519 143 548 211Q577 279 589 378L592 402Q604 500 594.5 568.5Q585 637 556.5 679.5Q528 722 482 741Q436 760 376 760H206L160 408H390L387 388H157L109 20ZM30 408H139L188 780H376Q438 780 487.5 760.5Q537 741 569.5 696.5Q602 652 614 579.5Q626 507 613 402L610 378Q597 273 565.5 201Q534 129 489 84Q444 39 388 19.5Q332 0 270 0H86L137 388H27Z" glyph-name="Eth" horiz-adv-x="670" unicode="&#208;" /><glyph d="M34 330H110L126 450H50L53 470H129Q150 636 218.5 711Q287 786 394 786Q500 786 541 725.5Q582 665 564 524L561 500H541Q553 575 549.5 626Q546 677 528 708Q510 739 477.5 752.5Q445 766 397 766H391Q293 766 231 697Q169 628 149 470H452L439 450H146L130 330H384L371 310H128Q108 163 152 88.5Q196 14 292 14H298Q341 14 377 26.5Q413 39 440 67.5Q467 96 485 140.5Q503 185 509 250H529L526 226Q512 117 457.5 55.5Q403 -6 295 -6Q187 -6 137 73Q87 152 107 310H31Z" glyph-name="Euro" horiz-adv-x="600" unicode="&#8364;" /><glyph d="M523 780 520 760H151L105 408H424L421 388H102L51 0H31L133 780Z" glyph-name="F" horiz-adv-x="484" unicode="F" /><glyph d="M361 875H321L326 915H366ZM523 780 520 760H151L105 408H424L421 388H102L51 0H31L133 780Z" glyph-name="Fdotaccent" horiz-adv-x="484" unicode="&#7710;" /><glyph d="M288 -6Q222 -6 174 16Q126 38 97.5 84.5Q69 131 60.5 204Q52 277 65 378L68 402Q81 506 106.5 579Q132 652 170 698Q208 744 258 765Q308 786 370 786Q494 786 539.5 720Q585 654 569 524L566 500H546Q556 573 550 624Q544 675 522.5 706.5Q501 738 464 752Q427 766 373 766H367Q312 766 266.5 746Q221 726 185.5 682.5Q150 639 125.5 570Q101 501 89 402L86 378Q74 280 81 211Q88 142 113.5 98.5Q139 55 182.5 34.5Q226 14 285 14H291Q327 14 358.5 20.5Q390 27 415.5 37.5Q441 48 460.5 61Q480 74 492 86L526 342H366L369 362H548L511 77Q496 62 476 47.5Q456 33 428.5 21Q401 9 366 1.5Q331 -6 288 -6Z" glyph-name="G" horiz-adv-x="625" unicode="G" /><glyph d="M385 852Q439 852 472.5 878.5Q506 905 512 950H531Q523 897 486 865.5Q449 834 386 834Q323 834 293 865.5Q263 897 271 950H288Q282 905 306.5 878.5Q331 852 385 852ZM288 -6Q222 -6 174 16Q126 38 97.5 84.5Q69 131 60.5 204Q52 277 65 378L68 402Q81 506 106.5 579Q132 652 170 698Q208 744 258 765Q308 786 370 786Q494 786 539.5 720Q585 654 569 524L566 500H546Q556 573 550 624Q544 675 522.5 706.5Q501 738 464 752Q427 766 373 766H367Q312 766 266.5 746Q221 726 185.5 682.5Q150 639 125.5 570Q101 501 89 402L86 378Q74 280 81 211Q88 142 113.5 98.5Q139 55 182.5 34.5Q226 14 285 14H291Q327 14 358.5 20.5Q390 27 415.5 37.5Q441 48 460.5 61Q480 74 492 86L526 342H366L369 362H548L511 77Q496 62 476 47.5Q456 33 428.5 21Q401 9 366 1.5Q331 -6 288 -6Z" glyph-name="Gbreve" horiz-adv-x="625" unicode="&#286;" /><glyph d="M276 840 391 950H411L496 840H473L400 935L301 840ZM288 -6Q222 -6 174 16Q126 38 97.5 84.5Q69 131 60.5 204Q52 277 65 378L68 402Q81 506 106.5 579Q132 652 170 698Q208 744 258 765Q308 786 370 786Q494 786 539.5 720Q585 654 569 524L566 500H546Q556 573 550 624Q544 675 522.5 706.5Q501 738 464 752Q427 766 373 766H367Q312 766 266.5 746Q221 726 185.5 682.5Q150 639 125.5 570Q101 501 89 402L86 378Q74 280 81 211Q88 142 113.5 98.5Q139 55 182.5 34.5Q226 14 285 14H291Q327 14 358.5 20.5Q390 27 415.5 37.5Q441 48 460.5 61Q480 74 492 86L526 342H366L369 362H548L511 77Q496 62 476 47.5Q456 33 428.5 21Q401 9 366 1.5Q331 -6 288 -6Z" glyph-name="Gcircumflex" horiz-adv-x="625" unicode="&#284;" /><glyph d="M293 -102Q285 -159 258 -182.5Q231 -206 199 -206L201 -186Q210 -186 221 -183.5Q232 -181 242 -173Q252 -165 260 -150Q268 -135 272 -110H252L257 -70H297ZM288 -6Q222 -6 174 16Q126 38 97.5 84.5Q69 131 60.5 204Q52 277 65 378L68 402Q81 506 106.5 579Q132 652 170 698Q208 744 258 765Q308 786 370 786Q494 786 539.5 720Q585 654 569 524L566 500H546Q556 573 550 624Q544 675 522.5 706.5Q501 738 464 752Q427 766 373 766H367Q312 766 266.5 746Q221 726 185.5 682.5Q150 639 125.5 570Q101 501 89 402L86 378Q74 280 81 211Q88 142 113.5 98.5Q139 55 182.5 34.5Q226 14 285 14H291Q327 14 358.5 20.5Q390 27 415.5 37.5Q441 48 460.5 61Q480 74 492 86L526 342H366L369 362H548L511 77Q496 62 476 47.5Q456 33 428.5 21Q401 9 366 1.5Q331 -6 288 -6Z" glyph-name="Gcommaaccent" horiz-adv-x="625" unicode="&#290;" /><glyph d="M411 875H371L376 915H416ZM288 -6Q222 -6 174 16Q126 38 97.5 84.5Q69 131 60.5 204Q52 277 65 378L68 402Q81 506 106.5 579Q132 652 170 698Q208 744 258 765Q308 786 370 786Q494 786 539.5 720Q585 654 569 524L566 500H546Q556 573 550 624Q544 675 522.5 706.5Q501 738 464 752Q427 766 373 766H367Q312 766 266.5 746Q221 726 185.5 682.5Q150 639 125.5 570Q101 501 89 402L86 378Q74 280 81 211Q88 142 113.5 98.5Q139 55 182.5 34.5Q226 14 285 14H291Q327 14 358.5 20.5Q390 27 415.5 37.5Q441 48 460.5 61Q480 74 492 86L526 342H366L369 362H548L511 77Q496 62 476 47.5Q456 33 428.5 21Q401 9 366 1.5Q331 -6 288 -6Z" glyph-name="Gdotaccent" horiz-adv-x="625" unicode="&#288;" /><glyph d="M593 780 491 0H471L522 388H102L51 0H31L133 780H153L104 408H524L573 780Z" glyph-name="H" horiz-adv-x="620" unicode="H" /><glyph d="M524 408 547 584H127L104 408ZM593 780 491 0H471L522 388H102L51 0H31L133 780H153L130 604H550L573 780Z" glyph-name="Hbar" horiz-adv-x="620" unicode="&#294;" /><glyph d="M261 840 376 950H396L481 840H458L385 935L286 840ZM593 780 491 0H471L522 388H102L51 0H31L133 780H153L104 408H524L573 780Z" glyph-name="Hcircumflex" horiz-adv-x="620" unicode="&#292;" /><glyph d="M56 0H36L138 780H158Z" glyph-name="I" horiz-adv-x="190" unicode="I" /><glyph d="M406 780H426L341 136Q335 94 321 66.5Q307 39 287 23Q267 7 242.5 0.5Q218 -6 192 -6Q164 -6 148.5 -2Q133 2 130 4L132 24Q138 21 155 17.5Q172 14 191 14Q216 14 238 19.5Q260 25 277 39.5Q294 54 305.5 79Q317 104 322 142ZM56 0H36L138 780H158Z" glyph-name="IJ" horiz-adv-x="450" unicode="&#306;" /><glyph d="M244 950 167 840H145L222 950ZM56 0H36L138 780H158Z" glyph-name="Iacute" horiz-adv-x="190" unicode="&#205;" /><glyph d="M155 852Q209 852 242.5 878.5Q276 905 282 950H301Q293 897 256 865.5Q219 834 156 834Q93 834 63 865.5Q33 897 41 950H58Q52 905 76.5 878.5Q101 852 155 852ZM56 0H36L138 780H158Z" glyph-name="Ibreve" horiz-adv-x="190" unicode="&#300;" /><glyph d="M46 840 161 950H181L266 840H243L170 935L71 840ZM56 0H36L138 780H158Z" glyph-name="Icircumflex" horiz-adv-x="190" unicode="&#206;" /><glyph d="M111 875H71L76 915H116ZM251 875H211L216 915H256ZM56 0H36L138 780H158Z" glyph-name="Idieresis" horiz-adv-x="190" unicode="&#207;" /><glyph d="M181 875H141L146 915H186ZM56 0H36L138 780H158Z" glyph-name="Idotaccent" horiz-adv-x="190" unicode="&#304;" /><glyph d="M120 950 167 840H145L98 950ZM56 0H36L138 780H158Z" glyph-name="Igrave" horiz-adv-x="190" unicode="&#204;" /><glyph d="M65 905H265L262 885H62ZM56 0H36L138 780H158Z" glyph-name="Imacron" horiz-adv-x="190" unicode="&#298;" /><glyph d="M75 -187Q61 -195 43 -200.5Q25 -206 -4 -206Q-38 -206 -62 -187.5Q-86 -169 -86 -129Q-86 -98 -75 -75Q-64 -52 -47 -35.5Q-30 -19 -8 -8Q14 3 37 11L138 780H158L56 0Q37 -6 15.5 -15.5Q-6 -25 -24.5 -40Q-43 -55 -55.5 -77Q-68 -99 -68 -129Q-68 -162 -49 -175Q-30 -188 -4 -188Q22 -188 40.5 -182Q59 -176 71 -170Z" glyph-name="Iogonek" horiz-adv-x="190" unicode="&#302;" /><glyph d="M303 927Q300 906 293 892.5Q286 879 276 871Q266 863 254 860Q242 857 231 857Q211 857 194.5 866Q178 875 162 886Q146 897 130 906Q114 915 96 915Q79 915 63 906Q47 897 42 863H24Q27 884 34 897.5Q41 911 51 919Q61 927 73 930Q85 933 96 933Q115 933 132 924Q149 915 165 904Q181 893 197 884Q213 875 231 875Q248 875 264 884Q280 893 285 927ZM56 0H36L138 780H158Z" glyph-name="Itilde" horiz-adv-x="190" unicode="&#296;" /><glyph d="M446 780 373 223Q366 171 352 128.5Q338 86 314 56Q290 26 254 10Q218 -6 167 -6Q116 -6 83.5 11Q51 28 33 58Q15 88 11 130Q7 172 13 223L16 247H36Q18 132 47 73Q76 14 167 14Q213 14 245.5 28Q278 42 300 71Q322 100 335 143Q348 186 356 245L426 780Z" glyph-name="J" horiz-adv-x="470" unicode="J" /><glyph d="M334 840 449 950H469L554 840H531L458 935L359 840ZM446 780 373 223Q366 171 352 128.5Q338 86 314 56Q290 26 254 10Q218 -6 167 -6Q116 -6 83.5 11Q51 28 33 58Q15 88 11 130Q7 172 13 223L16 247H36Q18 132 47 73Q76 14 167 14Q213 14 245.5 28Q278 42 300 71Q322 100 335 143Q348 186 356 245L426 780Z" glyph-name="Jcircumflex" horiz-adv-x="470" unicode="&#308;" /><glyph d="M87 279 505 780H533L248 441L431 0H408L234 424L83 245L51 0H31L133 780H153Z" glyph-name="K" horiz-adv-x="518" unicode="K" /><glyph d="M87 279 505 780H533L248 441L431 0H408L234 424L83 245L51 0H31L133 780H153ZM217 -102Q209 -159 182 -182.5Q155 -206 123 -206L125 -186Q134 -186 145 -183.5Q156 -181 166 -173Q176 -165 184 -150Q192 -135 196 -110H176L181 -70H221Z" glyph-name="Kcommaaccent" horiz-adv-x="518" unicode="&#310;" /><glyph d="M31 0 133 780H154L54 20H404L401 0Z" glyph-name="L" horiz-adv-x="464" unicode="L" /><glyph d="M31 0 133 780H154L54 20H404L401 0ZM239 950 162 840H140L217 950Z" glyph-name="Lacute" horiz-adv-x="464" unicode="&#313;" /><glyph d="M373 780 342 620H332L353 780ZM31 0 133 780H154L54 20H404L401 0Z" glyph-name="Lcaron" horiz-adv-x="464" unicode="&#317;" /><glyph d="M222 -102Q214 -159 187 -182.5Q160 -206 128 -206L130 -186Q139 -186 150 -183.5Q161 -181 171 -173Q181 -165 189 -150Q197 -135 201 -110H181L186 -70H226ZM31 0 133 780H154L54 20H404L401 0Z" glyph-name="Lcommaaccent" horiz-adv-x="464" unicode="&#315;" /><glyph d="M342 378H302L307 418H347ZM31 0 133 780H154L54 20H404L401 0Z" glyph-name="Ldot" horiz-adv-x="464" unicode="&#319;" /><glyph d="M134 369 188 780H209L156 381L404 514L400 490L153 357L109 20H458L456 0H86L131 345L13 282L17 306Z" glyph-name="Lslash" horiz-adv-x="519" unicode="&#321;" /><glyph d="M710 780H733L631 0H611L684 561L709 734L341 0H321L145 734L124 560L51 0H31L133 780H154L334 30Z" glyph-name="M" horiz-adv-x="760" unicode="M" /><glyph d="M710 780H733L631 0H611L684 561L709 734L341 0H321L145 734L124 560L51 0H31L133 780H154L334 30ZM466 875H426L431 915H471Z" glyph-name="Mdotaccent" horiz-adv-x="760" unicode="&#7744;" /><glyph d="M514 175 593 780H613L511 0H489L148 748L130 605L51 0H31L133 780H155L496 32Z" glyph-name="N" horiz-adv-x="640" unicode="N" /><glyph d="M469 950 392 840H370L447 950ZM514 175 593 780H613L511 0H489L148 748L130 605L51 0H31L133 780H155L496 32Z" glyph-name="Nacute" horiz-adv-x="640" unicode="&#323;" /><glyph d="M506 950 391 840H371L286 950H309L382 855L481 950ZM514 175 593 780H613L511 0H489L148 748L130 605L51 0H31L133 780H155L496 32Z" glyph-name="Ncaron" horiz-adv-x="640" unicode="&#327;" /><glyph d="M277 -102Q269 -159 242 -182.5Q215 -206 183 -206L185 -186Q194 -186 205 -183.5Q216 -181 226 -173Q236 -165 244 -150Q252 -135 256 -110H236L241 -70H281ZM514 175 593 780H613L511 0H489L148 748L130 605L51 0H31L133 780H155L496 32Z" glyph-name="Ncommaaccent" horiz-adv-x="640" unicode="&#325;" /><glyph d="M528 927Q525 906 518 892.5Q511 879 501 871Q491 863 479 860Q467 857 456 857Q436 857 419.5 866Q403 875 387 886Q371 897 355 906Q339 915 321 915Q304 915 288 906Q272 897 267 863H249Q252 884 259 897.5Q266 911 276 919Q286 927 298 930Q310 933 321 933Q340 933 357 924Q374 915 390 904Q406 893 422 884Q438 875 456 875Q473 875 489 884Q505 893 510 927ZM514 175 593 780H613L511 0H489L148 748L130 605L51 0H31L133 780H155L496 32Z" glyph-name="Ntilde" horiz-adv-x="640" unicode="&#209;" /><glyph d="M361 786Q424 786 469 764Q514 742 540 695.5Q566 649 573.5 576Q581 503 568 402L565 378Q552 274 527.5 201Q503 128 467 82Q431 36 382.5 15Q334 -6 272 -6Q209 -6 164 16Q119 38 93 84.5Q67 131 59.5 204Q52 277 65 378L68 402Q81 506 105.5 579Q130 652 166 698Q202 744 250.5 765Q299 786 361 786ZM275 14Q332 14 376.5 33.5Q421 53 454 96.5Q487 140 509.5 209.5Q532 279 544 378L547 402Q559 499 553.5 568.5Q548 638 524.5 681.5Q501 725 461 745.5Q421 766 364 766H358Q301 766 256.5 746Q212 726 179 682.5Q146 639 123.5 570Q101 501 89 402L86 378Q74 280 79.5 211Q85 142 108.5 98.5Q132 55 172 34.5Q212 14 269 14Z" glyph-name="O" horiz-adv-x="630" unicode="O" /><glyph d="M297 0Q235 0 185.5 19.5Q136 39 103.5 83.5Q71 128 59 200.5Q47 273 60 378L63 402Q76 507 107.5 579Q139 651 184 696Q229 741 285 760.5Q341 780 403 780H943L940 760H551L505 408H844L841 388H502L454 20H844L841 0ZM403 760Q343 760 290.5 741Q238 722 196 679.5Q154 637 125 569Q96 501 84 402L81 378Q69 280 78.5 211.5Q88 143 116.5 100.5Q145 58 191 39Q237 20 297 20H434L531 760Z" glyph-name="OE" horiz-adv-x="940" unicode="&#338;" /><glyph d="M464 950 387 840H365L442 950ZM361 786Q424 786 469 764Q514 742 540 695.5Q566 649 573.5 576Q581 503 568 402L565 378Q552 274 527.5 201Q503 128 467 82Q431 36 382.5 15Q334 -6 272 -6Q209 -6 164 16Q119 38 93 84.5Q67 131 59.5 204Q52 277 65 378L68 402Q81 506 105.5 579Q130 652 166 698Q202 744 250.5 765Q299 786 361 786ZM275 14Q332 14 376.5 33.5Q421 53 454 96.5Q487 140 509.5 209.5Q532 279 544 378L547 402Q559 499 553.5 568.5Q548 638 524.5 681.5Q501 725 461 745.5Q421 766 364 766H358Q301 766 256.5 746Q212 726 179 682.5Q146 639 123.5 570Q101 501 89 402L86 378Q74 280 79.5 211Q85 142 108.5 98.5Q132 55 172 34.5Q212 14 269 14Z" glyph-name="Oacute" horiz-adv-x="630" unicode="&#211;" /><glyph d="M375 852Q429 852 462.5 878.5Q496 905 502 950H521Q513 897 476 865.5Q439 834 376 834Q313 834 283 865.5Q253 897 261 950H278Q272 905 296.5 878.5Q321 852 375 852ZM361 786Q424 786 469 764Q514 742 540 695.5Q566 649 573.5 576Q581 503 568 402L565 378Q552 274 527.5 201Q503 128 467 82Q431 36 382.5 15Q334 -6 272 -6Q209 -6 164 16Q119 38 93 84.5Q67 131 59.5 204Q52 277 65 378L68 402Q81 506 105.5 579Q130 652 166 698Q202 744 250.5 765Q299 786 361 786ZM275 14Q332 14 376.5 33.5Q421 53 454 96.5Q487 140 509.5 209.5Q532 279 544 378L547 402Q559 499 553.5 568.5Q548 638 524.5 681.5Q501 725 461 745.5Q421 766 364 766H358Q301 766 256.5 746Q212 726 179 682.5Q146 639 123.5 570Q101 501 89 402L86 378Q74 280 79.5 211Q85 142 108.5 98.5Q132 55 172 34.5Q212 14 269 14Z" glyph-name="Obreve" horiz-adv-x="630" unicode="&#334;" /><glyph d="M266 840 381 950H401L486 840H463L390 935L291 840ZM361 786Q424 786 469 764Q514 742 540 695.5Q566 649 573.5 576Q581 503 568 402L565 378Q552 274 527.5 201Q503 128 467 82Q431 36 382.5 15Q334 -6 272 -6Q209 -6 164 16Q119 38 93 84.5Q67 131 59.5 204Q52 277 65 378L68 402Q81 506 105.5 579Q130 652 166 698Q202 744 250.5 765Q299 786 361 786ZM275 14Q332 14 376.5 33.5Q421 53 454 96.5Q487 140 509.5 209.5Q532 279 544 378L547 402Q559 499 553.5 568.5Q548 638 524.5 681.5Q501 725 461 745.5Q421 766 364 766H358Q301 766 256.5 746Q212 726 179 682.5Q146 639 123.5 570Q101 501 89 402L86 378Q74 280 79.5 211Q85 142 108.5 98.5Q132 55 172 34.5Q212 14 269 14Z" glyph-name="Ocircumflex" horiz-adv-x="630" unicode="&#212;" /><glyph d="M471 875H431L436 915H476ZM331 875H291L296 915H336ZM361 786Q424 786 469 764Q514 742 540 695.5Q566 649 573.5 576Q581 503 568 402L565 378Q552 274 527.5 201Q503 128 467 82Q431 36 382.5 15Q334 -6 272 -6Q209 -6 164 16Q119 38 93 84.5Q67 131 59.5 204Q52 277 65 378L68 402Q81 506 105.5 579Q130 652 166 698Q202 744 250.5 765Q299 786 361 786ZM275 14Q332 14 376.5 33.5Q421 53 454 96.5Q487 140 509.5 209.5Q532 279 544 378L547 402Q559 499 553.5 568.5Q548 638 524.5 681.5Q501 725 461 745.5Q421 766 364 766H358Q301 766 256.5 746Q212 726 179 682.5Q146 639 123.5 570Q101 501 89 402L86 378Q74 280 79.5 211Q85 142 108.5 98.5Q132 55 172 34.5Q212 14 269 14Z" glyph-name="Odieresis" horiz-adv-x="630" unicode="&#214;" /><glyph d="M340 950 387 840H365L318 950ZM361 786Q424 786 469 764Q514 742 540 695.5Q566 649 573.5 576Q581 503 568 402L565 378Q552 274 527.5 201Q503 128 467 82Q431 36 382.5 15Q334 -6 272 -6Q209 -6 164 16Q119 38 93 84.5Q67 131 59.5 204Q52 277 65 378L68 402Q81 506 105.5 579Q130 652 166 698Q202 744 250.5 765Q299 786 361 786ZM275 14Q332 14 376.5 33.5Q421 53 454 96.5Q487 140 509.5 209.5Q532 279 544 378L547 402Q559 499 553.5 568.5Q548 638 524.5 681.5Q501 725 461 745.5Q421 766 364 766H358Q301 766 256.5 746Q212 726 179 682.5Q146 639 123.5 570Q101 501 89 402L86 378Q74 280 79.5 211Q85 142 108.5 98.5Q132 55 172 34.5Q212 14 269 14Z" glyph-name="Ograve" horiz-adv-x="630" unicode="&#210;" /><glyph d="M414 950 337 840H315L392 950ZM514 950 437 840H415L492 950ZM361 786Q424 786 469 764Q514 742 540 695.5Q566 649 573.5 576Q581 503 568 402L565 378Q552 274 527.5 201Q503 128 467 82Q431 36 382.5 15Q334 -6 272 -6Q209 -6 164 16Q119 38 93 84.5Q67 131 59.5 204Q52 277 65 378L68 402Q81 506 105.5 579Q130 652 166 698Q202 744 250.5 765Q299 786 361 786ZM275 14Q332 14 376.5 33.5Q421 53 454 96.5Q487 140 509.5 209.5Q532 279 544 378L547 402Q559 499 553.5 568.5Q548 638 524.5 681.5Q501 725 461 745.5Q421 766 364 766H358Q301 766 256.5 746Q212 726 179 682.5Q146 639 123.5 570Q101 501 89 402L86 378Q74 280 79.5 211Q85 142 108.5 98.5Q132 55 172 34.5Q212 14 269 14Z" glyph-name="Ohungarumlaut" horiz-adv-x="630" unicode="&#336;" /><glyph d="M285 905H485L482 885H282ZM361 786Q424 786 469 764Q514 742 540 695.5Q566 649 573.5 576Q581 503 568 402L565 378Q552 274 527.5 201Q503 128 467 82Q431 36 382.5 15Q334 -6 272 -6Q209 -6 164 16Q119 38 93 84.5Q67 131 59.5 204Q52 277 65 378L68 402Q81 506 105.5 579Q130 652 166 698Q202 744 250.5 765Q299 786 361 786ZM275 14Q332 14 376.5 33.5Q421 53 454 96.5Q487 140 509.5 209.5Q532 279 544 378L547 402Q559 499 553.5 568.5Q548 638 524.5 681.5Q501 725 461 745.5Q421 766 364 766H358Q301 766 256.5 746Q212 726 179 682.5Q146 639 123.5 570Q101 501 89 402L86 378Q74 280 79.5 211Q85 142 108.5 98.5Q132 55 172 34.5Q212 14 269 14Z" glyph-name="Omacron" horiz-adv-x="630" unicode="&#332;" /><glyph d="M547 402Q558 492 554.5 556Q551 620 532 665L110 96Q133 54 173 34Q213 14 269 14H275Q332 14 376.5 33.5Q421 53 454 96.5Q487 140 509.5 209.5Q532 279 544 378ZM16 0 87 96Q64 143 58.5 212Q53 281 65 378L68 402Q81 506 105.5 579Q130 652 166 698Q202 744 250.5 765Q299 786 361 786Q483 786 536 702L594 780H617L546 684Q569 637 574.5 568Q580 499 568 402L565 378Q552 274 527.5 201Q503 128 467 82Q431 36 382.5 15Q334 -6 272 -6Q150 -6 97 78L39 0ZM86 378Q75 288 78.5 224Q82 160 101 115L523 684Q500 726 460 746Q420 766 364 766H358Q301 766 256.5 746Q212 726 179 682.5Q146 639 123.5 570Q101 501 89 402Z" glyph-name="Oslash" horiz-adv-x="626" unicode="&#216;" /><glyph d="M523 927Q520 906 513 892.5Q506 879 496 871Q486 863 474 860Q462 857 451 857Q431 857 414.5 866Q398 875 382 886Q366 897 350 906Q334 915 316 915Q299 915 283 906Q267 897 262 863H244Q247 884 254 897.5Q261 911 271 919Q281 927 293 930Q305 933 316 933Q335 933 352 924Q369 915 385 904Q401 893 417 884Q433 875 451 875Q468 875 484 884Q500 893 505 927ZM361 786Q424 786 469 764Q514 742 540 695.5Q566 649 573.5 576Q581 503 568 402L565 378Q552 274 527.5 201Q503 128 467 82Q431 36 382.5 15Q334 -6 272 -6Q209 -6 164 16Q119 38 93 84.5Q67 131 59.5 204Q52 277 65 378L68 402Q81 506 105.5 579Q130 652 166 698Q202 744 250.5 765Q299 786 361 786ZM275 14Q332 14 376.5 33.5Q421 53 454 96.5Q487 140 509.5 209.5Q532 279 544 378L547 402Q559 499 553.5 568.5Q548 638 524.5 681.5Q501 725 461 745.5Q421 766 364 766H358Q301 766 256.5 746Q212 726 179 682.5Q146 639 123.5 570Q101 501 89 402L86 378Q74 280 79.5 211Q85 142 108.5 98.5Q132 55 172 34.5Q212 14 269 14Z" glyph-name="Otilde" horiz-adv-x="630" unicode="&#213;" /><glyph d="M270 360Q301 360 337 366Q373 372 406 391.5Q439 411 463.5 447.5Q488 484 496 545L499 569Q506 629 490.5 666.5Q475 704 447.5 725Q420 746 385.5 753Q351 760 320 760H150L98 360ZM51 0H31L133 780H320Q362 780 401.5 770Q441 760 469.5 735.5Q498 711 512.5 670.5Q527 630 520 569L517 545Q509 482 484.5 442.5Q460 403 425.5 380Q391 357 350.5 348.5Q310 340 270 340H96Z" glyph-name="P" horiz-adv-x="544" unicode="P" /><glyph d="M351 875H311L316 915H356ZM270 360Q301 360 337 366Q373 372 406 391.5Q439 411 463.5 447.5Q488 484 496 545L499 569Q506 629 490.5 666.5Q475 704 447.5 725Q420 746 385.5 753Q351 760 320 760H150L98 360ZM51 0H31L133 780H320Q362 780 401.5 770Q441 760 469.5 735.5Q498 711 512.5 670.5Q527 630 520 569L517 545Q509 482 484.5 442.5Q460 403 425.5 380Q391 357 350.5 348.5Q310 340 270 340H96Z" glyph-name="Pdotaccent" horiz-adv-x="544" unicode="&#7766;" /><glyph d="M275 14Q305 14 332 20L287 205H307L351 24Q429 48 476.5 132Q524 216 544 378L547 402Q559 499 553.5 568.5Q548 638 524.5 681.5Q501 725 461 745.5Q421 766 364 766H358Q301 766 256.5 746Q212 726 179 682.5Q146 639 123.5 570Q101 501 89 402L86 378Q74 280 79.5 211Q85 142 108.5 98.5Q132 55 172 34.5Q212 14 269 14ZM361 786Q424 786 469 764Q514 742 540 695.5Q566 649 573.5 576Q581 503 568 402L565 378Q543 208 492 119Q441 30 356 5L382 -100H362L337 0Q307 -6 272 -6Q209 -6 164 16Q119 38 93 84.5Q67 131 59.5 204Q52 277 65 378L68 402Q81 506 105.5 579Q130 652 166 698Q202 744 250.5 765Q299 786 361 786Z" glyph-name="Q" horiz-adv-x="626" unicode="Q" /><glyph d="M270 360Q301 360 337 366Q373 372 406 391.5Q439 411 463.5 447.5Q488 484 496 545L499 569Q506 629 490.5 666.5Q475 704 447.5 725Q420 746 385.5 753Q351 760 320 760H150L98 360ZM51 0H31L133 780H320Q362 780 401.5 770Q441 760 469.5 735.5Q498 711 512.5 670.5Q527 630 520 569L517 545Q511 497 495 463Q479 429 456.5 405.5Q434 382 405.5 368.5Q377 355 347 348L445 0H425L328 344Q314 342 299 341Q284 340 270 340H96Z" glyph-name="R" horiz-adv-x="553" unicode="R" /><glyph d="M409 950 332 840H310L387 950ZM270 360Q301 360 337 366Q373 372 406 391.5Q439 411 463.5 447.5Q488 484 496 545L499 569Q506 629 490.5 666.5Q475 704 447.5 725Q420 746 385.5 753Q351 760 320 760H150L98 360ZM51 0H31L133 780H320Q362 780 401.5 770Q441 760 469.5 735.5Q498 711 512.5 670.5Q527 630 520 569L517 545Q511 497 495 463Q479 429 456.5 405.5Q434 382 405.5 368.5Q377 355 347 348L445 0H425L328 344Q314 342 299 341Q284 340 270 340H96Z" glyph-name="Racute" horiz-adv-x="553" unicode="&#340;" /><glyph d="M446 950 331 840H311L226 950H249L322 855L421 950ZM270 360Q301 360 337 366Q373 372 406 391.5Q439 411 463.5 447.5Q488 484 496 545L499 569Q506 629 490.5 666.5Q475 704 447.5 725Q420 746 385.5 753Q351 760 320 760H150L98 360ZM51 0H31L133 780H320Q362 780 401.5 770Q441 760 469.5 735.5Q498 711 512.5 670.5Q527 630 520 569L517 545Q511 497 495 463Q479 429 456.5 405.5Q434 382 405.5 368.5Q377 355 347 348L445 0H425L328 344Q314 342 299 341Q284 340 270 340H96Z" glyph-name="Rcaron" horiz-adv-x="553" unicode="&#344;" /><glyph d="M237 -102Q229 -159 202 -182.5Q175 -206 143 -206L145 -186Q154 -186 165 -183.5Q176 -181 186 -173Q196 -165 204 -150Q212 -135 216 -110H196L201 -70H241ZM270 360Q301 360 337 366Q373 372 406 391.5Q439 411 463.5 447.5Q488 484 496 545L499 569Q506 629 490.5 666.5Q475 704 447.5 725Q420 746 385.5 753Q351 760 320 760H150L98 360ZM51 0H31L133 780H320Q362 780 401.5 770Q441 760 469.5 735.5Q498 711 512.5 670.5Q527 630 520 569L517 545Q511 497 495 463Q479 429 456.5 405.5Q434 382 405.5 368.5Q377 355 347 348L445 0H425L328 344Q314 342 299 341Q284 340 270 340H96Z" glyph-name="Rcommaaccent" horiz-adv-x="553" unicode="&#342;" /><glyph d="M289 395Q226 404 184 421Q142 438 118 462.5Q94 487 85.5 518Q77 549 82 586L85 610Q91 656 112 689Q133 722 166 743.5Q199 765 242 775.5Q285 786 334 786Q457 786 509 723Q561 660 547 544L544 520H524Q533 587 525 633.5Q517 680 493 709.5Q469 739 429.5 752.5Q390 766 337 766H331Q289 766 250 756Q211 746 181 726.5Q151 707 131 678Q111 649 106 610L103 586Q98 550 106.5 521.5Q115 493 138 472Q161 451 201 436.5Q241 422 301 414Q364 405 406 386.5Q448 368 472 340.5Q496 313 504 277Q512 241 507 198L504 174Q498 123 475.5 88.5Q453 54 419 33Q385 12 341 3Q297 -6 246 -6Q121 -6 68.5 55Q16 116 30 226L33 250H53Q33 128 82 71Q131 14 243 14H249Q295 14 335.5 22.5Q376 31 407 50.5Q438 70 458 100Q478 130 483 174L486 198Q491 241 483 274.5Q475 308 451 332Q427 356 387 371.5Q347 387 289 395Z" glyph-name="S" horiz-adv-x="580" unicode="S" /><glyph d="M439 950 362 840H340L417 950ZM289 395Q226 404 184 421Q142 438 118 462.5Q94 487 85.5 518Q77 549 82 586L85 610Q91 656 112 689Q133 722 166 743.5Q199 765 242 775.5Q285 786 334 786Q457 786 509 723Q561 660 547 544L544 520H524Q533 587 525 633.5Q517 680 493 709.5Q469 739 429.5 752.5Q390 766 337 766H331Q289 766 250 756Q211 746 181 726.5Q151 707 131 678Q111 649 106 610L103 586Q98 550 106.5 521.5Q115 493 138 472Q161 451 201 436.5Q241 422 301 414Q364 405 406 386.5Q448 368 472 340.5Q496 313 504 277Q512 241 507 198L504 174Q498 123 475.5 88.5Q453 54 419 33Q385 12 341 3Q297 -6 246 -6Q121 -6 68.5 55Q16 116 30 226L33 250H53Q33 128 82 71Q131 14 243 14H249Q295 14 335.5 22.5Q376 31 407 50.5Q438 70 458 100Q478 130 483 174L486 198Q491 241 483 274.5Q475 308 451 332Q427 356 387 371.5Q347 387 289 395Z" glyph-name="Sacute" horiz-adv-x="580" unicode="&#346;" /><glyph d="M476 950 361 840H341L256 950H279L352 855L451 950ZM289 395Q226 404 184 421Q142 438 118 462.5Q94 487 85.5 518Q77 549 82 586L85 610Q91 656 112 689Q133 722 166 743.5Q199 765 242 775.5Q285 786 334 786Q457 786 509 723Q561 660 547 544L544 520H524Q533 587 525 633.5Q517 680 493 709.5Q469 739 429.5 752.5Q390 766 337 766H331Q289 766 250 756Q211 746 181 726.5Q151 707 131 678Q111 649 106 610L103 586Q98 550 106.5 521.5Q115 493 138 472Q161 451 201 436.5Q241 422 301 414Q364 405 406 386.5Q448 368 472 340.5Q496 313 504 277Q512 241 507 198L504 174Q498 123 475.5 88.5Q453 54 419 33Q385 12 341 3Q297 -6 246 -6Q121 -6 68.5 55Q16 116 30 226L33 250H53Q33 128 82 71Q131 14 243 14H249Q295 14 335.5 22.5Q376 31 407 50.5Q438 70 458 100Q478 130 483 174L486 198Q491 241 483 274.5Q475 308 451 332Q427 356 387 371.5Q347 387 289 395Z" glyph-name="Scaron" horiz-adv-x="580" unicode="&#352;" /><glyph d="M145 -170Q156 -178 178 -183Q200 -188 218 -188Q232 -188 246 -185.5Q260 -183 271 -176Q282 -169 289 -157Q296 -145 296 -126Q296 -111 290.5 -102.5Q285 -94 275.5 -89.5Q266 -85 254 -83.5Q242 -82 229 -82Q224 -82 219.5 -82.5Q215 -83 211 -83Q207 -84 203 -84L194 -73L227 -5Q112 0 64 60Q16 120 30 226L33 250H53Q33 128 82 71Q131 14 243 14H249Q295 14 335.5 22.5Q376 31 407 50.5Q438 70 458 100Q478 130 483 174L486 198Q491 241 483 274.5Q475 308 451 332Q427 356 387 371.5Q347 387 289 395Q226 404 184 421Q142 438 118 462.5Q94 487 85.5 518Q77 549 82 586L85 610Q91 656 112 689Q133 722 166 743.5Q199 765 242 775.5Q285 786 334 786Q457 786 509 723Q561 660 547 544L544 520H524Q533 587 525 633.5Q517 680 493 709.5Q469 739 429.5 752.5Q390 766 337 766H331Q289 766 250 756Q211 746 181 726.5Q151 707 131 678Q111 649 106 610L103 586Q98 550 106.5 521.5Q115 493 138 472Q161 451 201 436.5Q241 422 301 414Q364 405 406 386.5Q448 368 472 340.5Q496 313 504 277Q512 241 507 198L504 174Q498 123 475.5 88.5Q453 54 419 33Q385 12 341 3Q297 -6 246 -6L217 -65Q221 -64 226 -64Q231 -64 236 -64Q250 -64 264 -67Q278 -70 289 -77Q300 -84 307 -96Q314 -108 314 -126Q314 -149 305.5 -164Q297 -179 283.5 -188.5Q270 -198 253 -202Q236 -206 218 -206Q198 -206 175 -200.5Q152 -195 137 -186Z" glyph-name="Scedilla" horiz-adv-x="580" unicode="&#350;" /><glyph d="M241 840 356 950H376L461 840H438L365 935L266 840ZM289 395Q226 404 184 421Q142 438 118 462.5Q94 487 85.5 518Q77 549 82 586L85 610Q91 656 112 689Q133 722 166 743.5Q199 765 242 775.5Q285 786 334 786Q457 786 509 723Q561 660 547 544L544 520H524Q533 587 525 633.5Q517 680 493 709.5Q469 739 429.5 752.5Q390 766 337 766H331Q289 766 250 756Q211 746 181 726.5Q151 707 131 678Q111 649 106 610L103 586Q98 550 106.5 521.5Q115 493 138 472Q161 451 201 436.5Q241 422 301 414Q364 405 406 386.5Q448 368 472 340.5Q496 313 504 277Q512 241 507 198L504 174Q498 123 475.5 88.5Q453 54 419 33Q385 12 341 3Q297 -6 246 -6Q121 -6 68.5 55Q16 116 30 226L33 250H53Q33 128 82 71Q131 14 243 14H249Q295 14 335.5 22.5Q376 31 407 50.5Q438 70 458 100Q478 130 483 174L486 198Q491 241 483 274.5Q475 308 451 332Q427 356 387 371.5Q347 387 289 395Z" glyph-name="Scircumflex" horiz-adv-x="580" unicode="&#348;" /><glyph d="M247 -102Q239 -159 212 -182.5Q185 -206 153 -206L155 -186Q164 -186 175 -183.5Q186 -181 196 -173Q206 -165 214 -150Q222 -135 226 -110H206L211 -70H251ZM289 395Q226 404 184 421Q142 438 118 462.5Q94 487 85.5 518Q77 549 82 586L85 610Q91 656 112 689Q133 722 166 743.5Q199 765 242 775.5Q285 786 334 786Q457 786 509 723Q561 660 547 544L544 520H524Q533 587 525 633.5Q517 680 493 709.5Q469 739 429.5 752.5Q390 766 337 766H331Q289 766 250 756Q211 746 181 726.5Q151 707 131 678Q111 649 106 610L103 586Q98 550 106.5 521.5Q115 493 138 472Q161 451 201 436.5Q241 422 301 414Q364 405 406 386.5Q448 368 472 340.5Q496 313 504 277Q512 241 507 198L504 174Q498 123 475.5 88.5Q453 54 419 33Q385 12 341 3Q297 -6 246 -6Q121 -6 68.5 55Q16 116 30 226L33 250H53Q33 128 82 71Q131 14 243 14H249Q295 14 335.5 22.5Q376 31 407 50.5Q438 70 458 100Q478 130 483 174L486 198Q491 241 483 274.5Q475 308 451 332Q427 356 387 371.5Q347 387 289 395Z" glyph-name="Scommaaccent" horiz-adv-x="580" unicode="&#536;" /><glyph d="M205 0H185L284 760H75L78 780H517L514 760H305Z" glyph-name="T" horiz-adv-x="490" unicode="T" /><glyph d="M120 408H238L284 760H75L78 780H517L514 760H305L258 408H380L377 388H256L205 0H185L235 388H117Z" glyph-name="Tbar" horiz-adv-x="490" unicode="&#358;" /><glyph d="M431 950 316 840H296L211 950H234L307 855L406 950ZM205 0H185L284 760H75L78 780H517L514 760H305Z" glyph-name="Tcaron" horiz-adv-x="490" unicode="&#356;" /><glyph d="M202 -102Q194 -159 167 -182.5Q140 -206 108 -206L110 -186Q119 -186 130 -183.5Q141 -181 151 -173Q161 -165 169 -150Q177 -135 181 -110H161L166 -70H206ZM205 0H185L284 760H75L78 780H517L514 760H305Z" glyph-name="Tcommaaccent" horiz-adv-x="490" unicode="&#354;" /><glyph d="M331 875H291L296 915H336ZM205 0H185L284 760H75L78 780H517L514 760H305Z" glyph-name="Tdotaccent" horiz-adv-x="490" unicode="&#7786;" /><glyph d="M131 610H298Q340 610 379.5 600Q419 590 447.5 565.5Q476 541 490.5 500.5Q505 460 498 399L495 375Q487 312 462.5 272.5Q438 233 403.5 210Q369 187 328.5 178.5Q288 170 248 170H73L51 0H31L133 780H153ZM248 190Q279 190 315 196Q351 202 384 221.5Q417 241 441.5 277.5Q466 314 474 375L477 399Q484 459 468.5 496.5Q453 534 425.5 555Q398 576 363.5 583Q329 590 298 590H128L76 190Z" glyph-name="Thorn" horiz-adv-x="544" unicode="&#222;" /><glyph d="M267 -6Q214 -6 171.5 5Q129 16 101 44Q73 72 61.5 119.5Q50 167 59 239L130 780H150L80 244Q71 176 80 131.5Q89 87 114 61Q139 35 177.5 24.5Q216 14 267 14Q318 14 358 24.5Q398 35 428 61.5Q458 88 477.5 132.5Q497 177 506 245L576 780H596L525 239Q516 167 494 119.5Q472 72 439 44Q406 16 362.5 5Q319 -6 267 -6Z" glyph-name="U" horiz-adv-x="620" unicode="U" /><glyph d="M459 950 382 840H360L437 950ZM267 -6Q214 -6 171.5 5Q129 16 101 44Q73 72 61.5 119.5Q50 167 59 239L130 780H150L80 244Q71 176 80 131.5Q89 87 114 61Q139 35 177.5 24.5Q216 14 267 14Q318 14 358 24.5Q398 35 428 61.5Q458 88 477.5 132.5Q497 177 506 245L576 780H596L525 239Q516 167 494 119.5Q472 72 439 44Q406 16 362.5 5Q319 -6 267 -6Z" glyph-name="Uacute" horiz-adv-x="620" unicode="&#218;" /><glyph d="M370 852Q424 852 457.5 878.5Q491 905 497 950H516Q508 897 471 865.5Q434 834 371 834Q308 834 278 865.5Q248 897 256 950H273Q267 905 291.5 878.5Q316 852 370 852ZM267 -6Q214 -6 171.5 5Q129 16 101 44Q73 72 61.5 119.5Q50 167 59 239L130 780H150L80 244Q71 176 80 131.5Q89 87 114 61Q139 35 177.5 24.5Q216 14 267 14Q318 14 358 24.5Q398 35 428 61.5Q458 88 477.5 132.5Q497 177 506 245L576 780H596L525 239Q516 167 494 119.5Q472 72 439 44Q406 16 362.5 5Q319 -6 267 -6Z" glyph-name="Ubreve" horiz-adv-x="620" unicode="&#364;" /><glyph d="M261 840 376 950H396L481 840H458L385 935L286 840ZM267 -6Q214 -6 171.5 5Q129 16 101 44Q73 72 61.5 119.5Q50 167 59 239L130 780H150L80 244Q71 176 80 131.5Q89 87 114 61Q139 35 177.5 24.5Q216 14 267 14Q318 14 358 24.5Q398 35 428 61.5Q458 88 477.5 132.5Q497 177 506 245L576 780H596L525 239Q516 167 494 119.5Q472 72 439 44Q406 16 362.5 5Q319 -6 267 -6Z" glyph-name="Ucircumflex" horiz-adv-x="620" unicode="&#219;" /><glyph d="M466 875H426L431 915H471ZM326 875H286L291 915H331ZM267 -6Q214 -6 171.5 5Q129 16 101 44Q73 72 61.5 119.5Q50 167 59 239L130 780H150L80 244Q71 176 80 131.5Q89 87 114 61Q139 35 177.5 24.5Q216 14 267 14Q318 14 358 24.5Q398 35 428 61.5Q458 88 477.5 132.5Q497 177 506 245L576 780H596L525 239Q516 167 494 119.5Q472 72 439 44Q406 16 362.5 5Q319 -6 267 -6Z" glyph-name="Udieresis" horiz-adv-x="620" unicode="&#220;" /><glyph d="M335 950 382 840H360L313 950ZM267 -6Q214 -6 171.5 5Q129 16 101 44Q73 72 61.5 119.5Q50 167 59 239L130 780H150L80 244Q71 176 80 131.5Q89 87 114 61Q139 35 177.5 24.5Q216 14 267 14Q318 14 358 24.5Q398 35 428 61.5Q458 88 477.5 132.5Q497 177 506 245L576 780H596L525 239Q516 167 494 119.5Q472 72 439 44Q406 16 362.5 5Q319 -6 267 -6Z" glyph-name="Ugrave" horiz-adv-x="620" unicode="&#217;" /><glyph d="M409 950 332 840H310L387 950ZM509 950 432 840H410L487 950ZM267 -6Q214 -6 171.5 5Q129 16 101 44Q73 72 61.5 119.5Q50 167 59 239L130 780H150L80 244Q71 176 80 131.5Q89 87 114 61Q139 35 177.5 24.5Q216 14 267 14Q318 14 358 24.5Q398 35 428 61.5Q458 88 477.5 132.5Q497 177 506 245L576 780H596L525 239Q516 167 494 119.5Q472 72 439 44Q406 16 362.5 5Q319 -6 267 -6Z" glyph-name="Uhungarumlaut" horiz-adv-x="620" unicode="&#368;" /><glyph d="M280 905H480L477 885H277ZM267 -6Q214 -6 171.5 5Q129 16 101 44Q73 72 61.5 119.5Q50 167 59 239L130 780H150L80 244Q71 176 80 131.5Q89 87 114 61Q139 35 177.5 24.5Q216 14 267 14Q318 14 358 24.5Q398 35 428 61.5Q458 88 477.5 132.5Q497 177 506 245L576 780H596L525 239Q516 167 494 119.5Q472 72 439 44Q406 16 362.5 5Q319 -6 267 -6Z" glyph-name="Umacron" horiz-adv-x="620" unicode="&#362;" /><glyph d="M359 -187Q345 -195 327 -200.5Q309 -206 280 -206Q246 -206 222 -187.5Q198 -169 198 -129Q198 -81 222 -52Q246 -23 280 -6H267Q214 -6 171.5 5Q129 16 101 44Q73 72 61.5 119.5Q50 167 59 239L130 780H150L80 244Q71 176 80 131.5Q89 87 114 61Q139 35 177.5 24.5Q216 14 267 14Q318 14 358 24.5Q398 35 428 61.5Q458 88 477.5 132.5Q497 177 506 245L576 780H596L525 239Q517 180 501 138Q485 96 461.5 67.5Q438 39 407.5 23Q377 7 340 0Q323 -3 302 -12Q281 -21 261.5 -37Q242 -53 229 -76Q216 -99 216 -129Q216 -162 235 -175Q254 -188 280 -188Q306 -188 324.5 -182Q343 -176 355 -170Z" glyph-name="Uogonek" horiz-adv-x="620" unicode="&#370;" /><glyph d="M383 956Q420 956 441.5 935Q463 914 463 878Q463 858 455 841Q447 824 434 811.5Q421 799 404 791.5Q387 784 368 784Q331 784 309.5 805Q288 826 288 862Q288 881 296 898.5Q304 916 317 928.5Q330 941 347 948.5Q364 956 383 956ZM383 938Q351 938 329 917Q307 896 307 862Q307 833 323.5 817.5Q340 802 368 802Q400 802 422 823Q444 844 444 878Q444 907 427.5 922.5Q411 938 383 938ZM267 -6Q214 -6 171.5 5Q129 16 101 44Q73 72 61.5 119.5Q50 167 59 239L130 780H150L80 244Q71 176 80 131.5Q89 87 114 61Q139 35 177.5 24.5Q216 14 267 14Q318 14 358 24.5Q398 35 428 61.5Q458 88 477.5 132.5Q497 177 506 245L576 780H596L525 239Q516 167 494 119.5Q472 72 439 44Q406 16 362.5 5Q319 -6 267 -6Z" glyph-name="Uring" horiz-adv-x="620" unicode="&#366;" /><glyph d="M518 927Q515 906 508 892.5Q501 879 491 871Q481 863 469 860Q457 857 446 857Q426 857 409.5 866Q393 875 377 886Q361 897 345 906Q329 915 311 915Q294 915 278 906Q262 897 257 863H239Q242 884 249 897.5Q256 911 266 919Q276 927 288 930Q300 933 311 933Q330 933 347 924Q364 915 380 904Q396 893 412 884Q428 875 446 875Q463 875 479 884Q495 893 500 927ZM267 -6Q214 -6 171.5 5Q129 16 101 44Q73 72 61.5 119.5Q50 167 59 239L130 780H150L80 244Q71 176 80 131.5Q89 87 114 61Q139 35 177.5 24.5Q216 14 267 14Q318 14 358 24.5Q398 35 428 61.5Q458 88 477.5 132.5Q497 177 506 245L576 780H596L525 239Q516 167 494 119.5Q472 72 439 44Q406 16 362.5 5Q319 -6 267 -6Z" glyph-name="Utilde" horiz-adv-x="620" unicode="&#360;" /><glyph d="M234 -10 88 780H108L247 20L586 780H608L254 -10Z" glyph-name="V" horiz-adv-x="590" unicode="V" /><glyph d="M598 33 853 780H875L606 0H584L479 748L178 0H156L91 780H111L172 35L471 780H493Z" glyph-name="W" horiz-adv-x="860" unicode="W" /><glyph d="M579 950 502 840H480L557 950ZM598 33 853 780H875L606 0H584L479 748L178 0H156L91 780H111L172 35L471 780H493Z" glyph-name="Wacute" horiz-adv-x="860" unicode="&#7810;" /><glyph d="M381 840 496 950H516L601 840H578L505 935L406 840ZM598 33 853 780H875L606 0H584L479 748L178 0H156L91 780H111L172 35L471 780H493Z" glyph-name="Wcircumflex" horiz-adv-x="860" unicode="&#372;" /><glyph d="M586 875H546L551 915H591ZM446 875H406L411 915H451ZM598 33 853 780H875L606 0H584L479 748L178 0H156L91 780H111L172 35L471 780H493Z" glyph-name="Wdieresis" horiz-adv-x="860" unicode="&#7812;" /><glyph d="M455 950 502 840H480L433 950ZM598 33 853 780H875L606 0H584L479 748L178 0H156L91 780H111L172 35L471 780H493Z" glyph-name="Wgrave" horiz-adv-x="860" unicode="&#7808;" /><glyph d="M5 0H-21L280 391L81 780H104L294 409L579 780H605L304 389L503 0H480L290 371Z" glyph-name="X" horiz-adv-x="580" unicode="X" /><glyph d="M545 780H568L256 230L226 0H206L236 230L68 780H89L248 253Z" glyph-name="Y" horiz-adv-x="540" unicode="Y" /><glyph d="M414 950 337 840H315L392 950ZM545 780H568L256 230L226 0H206L236 230L68 780H89L248 253Z" glyph-name="Yacute" horiz-adv-x="540" unicode="&#221;" /><glyph d="M216 840 331 950H351L436 840H413L340 935L241 840ZM545 780H568L256 230L226 0H206L236 230L68 780H89L248 253Z" glyph-name="Ycircumflex" horiz-adv-x="540" unicode="&#374;" /><glyph d="M421 875H381L386 915H426ZM281 875H241L246 915H286ZM545 780H568L256 230L226 0H206L236 230L68 780H89L248 253Z" glyph-name="Ydieresis" horiz-adv-x="540" unicode="&#376;" /><glyph d="M290 950 337 840H315L268 950ZM545 780H568L256 230L226 0H206L236 230L68 780H89L248 253Z" glyph-name="Ygrave" horiz-adv-x="540" unicode="&#7922;" /><glyph d="M235 905H435L432 885H232ZM545 780H568L256 230L226 0H206L236 230L68 780H89L248 253Z" glyph-name="Ymacron" horiz-adv-x="540" unicode="&#562;" /><glyph d="M523 761 411 760H100L103 780H553L551 766L21 19L133 20H464L461 0H-9L-7 14Z" glyph-name="Z" horiz-adv-x="550" unicode="Z" /><glyph d="M424 950 347 840H325L402 950ZM523 761 411 760H100L103 780H553L551 766L21 19L133 20H464L461 0H-9L-7 14Z" glyph-name="Zacute" horiz-adv-x="536" unicode="&#377;" /><glyph d="M461 950 346 840H326L241 950H264L337 855L436 950ZM523 761 411 760H100L103 780H553L551 766L21 19L133 20H464L461 0H-9L-7 14Z" glyph-name="Zcaron" horiz-adv-x="536" unicode="&#381;" /><glyph d="M361 875H321L326 915H366ZM523 761 411 760H100L103 780H553L551 766L21 19L133 20H464L461 0H-9L-7 14Z" glyph-name="Zdotaccent" horiz-adv-x="536" unicode="&#379;" /><glyph d="M158 14Q205 14 239 24.5Q273 35 297 50.5Q321 66 336 82.5Q351 99 360 111L384 296L193 267Q164 262 138.5 255.5Q113 249 92.5 236Q72 223 58 201Q44 179 40 144L38 128Q32 79 62 46.5Q92 14 158 14ZM20 144Q25 185 41.5 211Q58 237 83 252Q108 267 138.5 275Q169 283 203 288L387 316L392 354Q396 387 394.5 416.5Q393 446 379.5 468Q366 490 338.5 503Q311 516 263 516Q214 516 183 503.5Q152 491 133 468.5Q114 446 105 416Q96 386 92 350H72L74 366Q78 399 88 429.5Q98 460 119 483.5Q140 507 175 521.5Q210 536 263 536Q315 536 346.5 522.5Q378 509 394.5 485.5Q411 462 414 430.5Q417 399 413 364L381 118L371 0H355L360 86Q348 71 331 54.5Q314 38 290 24.5Q266 11 233.5 2.5Q201 -6 158 -6Q126 -6 98.5 2.5Q71 11 52 27.5Q33 44 23.5 69Q14 94 18 128Z" glyph-name="a" horiz-adv-x="485" unicode="a" /><glyph d="M399 780 288 620H266L377 780ZM158 14Q205 14 239 24.5Q273 35 297 50.5Q321 66 336 82.5Q351 99 360 111L384 296L193 267Q164 262 138.5 255.5Q113 249 92.5 236Q72 223 58 201Q44 179 40 144L38 128Q32 79 62 46.5Q92 14 158 14ZM20 144Q25 185 41.5 211Q58 237 83 252Q108 267 138.5 275Q169 283 203 288L387 316L392 354Q396 387 394.5 416.5Q393 446 379.5 468Q366 490 338.5 503Q311 516 263 516Q214 516 183 503.5Q152 491 133 468.5Q114 446 105 416Q96 386 92 350H72L74 366Q78 399 88 429.5Q98 460 119 483.5Q140 507 175 521.5Q210 536 263 536Q315 536 346.5 522.5Q378 509 394.5 485.5Q411 462 414 430.5Q417 399 413 364L381 118L371 0H355L360 86Q348 71 331 54.5Q314 38 290 24.5Q266 11 233.5 2.5Q201 -6 158 -6Q126 -6 98.5 2.5Q71 11 52 27.5Q33 44 23.5 69Q14 94 18 128Z" glyph-name="aacute" horiz-adv-x="485" unicode="&#225;" /><glyph d="M277 614Q239 614 212 627.5Q185 641 169.5 663.5Q154 686 148.5 716Q143 746 148 780H165Q161 750 165 723Q169 696 182.5 676Q196 656 219 644Q242 632 277 632Q312 632 338.5 644Q365 656 384 676Q403 696 414 723Q425 750 429 780H448Q443 746 430.5 716Q418 686 396.5 663.5Q375 641 345.5 627.5Q316 614 277 614ZM158 14Q205 14 239 24.5Q273 35 297 50.5Q321 66 336 82.5Q351 99 360 111L384 296L193 267Q164 262 138.5 255.5Q113 249 92.5 236Q72 223 58 201Q44 179 40 144L38 128Q32 79 62 46.5Q92 14 158 14ZM20 144Q25 185 41.5 211Q58 237 83 252Q108 267 138.5 275Q169 283 203 288L387 316L392 354Q396 387 394.5 416.5Q393 446 379.5 468Q366 490 338.5 503Q311 516 263 516Q214 516 183 503.5Q152 491 133 468.5Q114 446 105 416Q96 386 92 350H72L74 366Q78 399 88 429.5Q98 460 119 483.5Q140 507 175 521.5Q210 536 263 536Q315 536 346.5 522.5Q378 509 394.5 485.5Q411 462 414 430.5Q417 399 413 364L381 118L371 0H355L360 86Q348 71 331 54.5Q314 38 290 24.5Q266 11 233.5 2.5Q201 -6 158 -6Q126 -6 98.5 2.5Q71 11 52 27.5Q33 44 23.5 69Q14 94 18 128Z" glyph-name="abreve" horiz-adv-x="485" unicode="&#259;" /><glyph d="M388 620 297 762 168 620H142L288 780H308L412 620ZM158 14Q205 14 239 24.5Q273 35 297 50.5Q321 66 336 82.5Q351 99 360 111L384 296L193 267Q164 262 138.5 255.5Q113 249 92.5 236Q72 223 58 201Q44 179 40 144L38 128Q32 79 62 46.5Q92 14 158 14ZM20 144Q25 185 41.5 211Q58 237 83 252Q108 267 138.5 275Q169 283 203 288L387 316L392 354Q396 387 394.5 416.5Q393 446 379.5 468Q366 490 338.5 503Q311 516 263 516Q214 516 183 503.5Q152 491 133 468.5Q114 446 105 416Q96 386 92 350H72L74 366Q78 399 88 429.5Q98 460 119 483.5Q140 507 175 521.5Q210 536 263 536Q315 536 346.5 522.5Q378 509 394.5 485.5Q411 462 414 430.5Q417 399 413 364L381 118L371 0H355L360 86Q348 71 331 54.5Q314 38 290 24.5Q266 11 233.5 2.5Q201 -6 158 -6Q126 -6 98.5 2.5Q71 11 52 27.5Q33 44 23.5 69Q14 94 18 128Z" glyph-name="acircumflex" horiz-adv-x="485" unicode="&#226;" /><glyph d="M404 780 293 620H271L382 780Z" glyph-name="acute" horiz-adv-x="500" unicode="&#180;" /><glyph d="M399 950 322 840H300L377 950Z" glyph-name="acute.cap" horiz-adv-x="500" unicode="&#58402;" /><glyph d="M375 680H335L340 720H380ZM235 680H195L200 720H240ZM158 14Q205 14 239 24.5Q273 35 297 50.5Q321 66 336 82.5Q351 99 360 111L384 296L193 267Q164 262 138.5 255.5Q113 249 92.5 236Q72 223 58 201Q44 179 40 144L38 128Q32 79 62 46.5Q92 14 158 14ZM20 144Q25 185 41.5 211Q58 237 83 252Q108 267 138.5 275Q169 283 203 288L387 316L392 354Q396 387 394.5 416.5Q393 446 379.5 468Q366 490 338.5 503Q311 516 263 516Q214 516 183 503.5Q152 491 133 468.5Q114 446 105 416Q96 386 92 350H72L74 366Q78 399 88 429.5Q98 460 119 483.5Q140 507 175 521.5Q210 536 263 536Q315 536 346.5 522.5Q378 509 394.5 485.5Q411 462 414 430.5Q417 399 413 364L381 118L371 0H355L360 86Q348 71 331 54.5Q314 38 290 24.5Q266 11 233.5 2.5Q201 -6 158 -6Q126 -6 98.5 2.5Q71 11 52 27.5Q33 44 23.5 69Q14 94 18 128Z" glyph-name="adieresis" horiz-adv-x="485" unicode="&#228;" /><glyph d="M622 516Q530 516 473 452Q416 388 402 275H782Q789 328 783.5 372Q778 416 759 448Q740 480 706 498Q672 516 622 516ZM573 -6Q498 -6 451.5 30Q405 66 388 122Q374 100 354.5 77.5Q335 55 308 36.5Q281 18 244 6Q207 -6 158 -6Q126 -6 98.5 2.5Q71 11 52 27.5Q33 44 23.5 69Q14 94 18 128L20 144Q26 189 42.5 215Q59 241 83.5 255.5Q108 270 138.5 276.5Q169 283 203 288L387 316L392 354Q396 388 394.5 417.5Q393 447 379.5 469Q366 491 338.5 503.5Q311 516 263 516Q214 516 183 503.5Q152 491 133 468.5Q114 446 105 416Q96 386 92 350H72L74 366Q78 399 88 429.5Q98 460 119 483.5Q140 507 175 521.5Q210 536 263 536Q311 536 341 524.5Q371 513 387.5 493Q404 473 409.5 447Q415 421 414 392Q429 430 451 457Q473 484 500.5 501.5Q528 519 559 527.5Q590 536 622 536Q680 536 718 516Q756 496 777 461Q798 426 803 377Q808 328 801 271L799 255H399Q392 199 401 154Q410 109 433 78Q456 47 491.5 30.5Q527 14 573 14Q625 14 660.5 26.5Q696 39 719 60.5Q742 82 753.5 110.5Q765 139 768 170H788L786 154Q783 125 770 96.5Q757 68 732 45.5Q707 23 668 8.5Q629 -6 573 -6ZM158 14Q206 14 242 26Q278 38 305 56.5Q332 75 351 98Q370 121 382 143Q377 172 376 197Q375 222 379 253L384 296L193 267Q164 262 138.5 256Q113 250 92.5 237Q72 224 58 202Q44 180 40 144L38 128Q32 79 62 46.5Q92 14 158 14Z" glyph-name="ae" horiz-adv-x="865" unicode="&#230;" /><glyph d="M219 780 288 620H266L197 780ZM158 14Q205 14 239 24.5Q273 35 297 50.5Q321 66 336 82.5Q351 99 360 111L384 296L193 267Q164 262 138.5 255.5Q113 249 92.5 236Q72 223 58 201Q44 179 40 144L38 128Q32 79 62 46.5Q92 14 158 14ZM20 144Q25 185 41.5 211Q58 237 83 252Q108 267 138.5 275Q169 283 203 288L387 316L392 354Q396 387 394.5 416.5Q393 446 379.5 468Q366 490 338.5 503Q311 516 263 516Q214 516 183 503.5Q152 491 133 468.5Q114 446 105 416Q96 386 92 350H72L74 366Q78 399 88 429.5Q98 460 119 483.5Q140 507 175 521.5Q210 536 263 536Q315 536 346.5 522.5Q378 509 394.5 485.5Q411 462 414 430.5Q417 399 413 364L381 118L371 0H355L360 86Q348 71 331 54.5Q314 38 290 24.5Q266 11 233.5 2.5Q201 -6 158 -6Q126 -6 98.5 2.5Q71 11 52 27.5Q33 44 23.5 69Q14 94 18 128Z" glyph-name="agrave" horiz-adv-x="485" unicode="&#224;" /><glyph d="M196 -64Q210 -64 224 -67Q238 -70 249.5 -77Q261 -84 268 -96Q275 -108 275 -126Q275 -149 266.5 -164Q258 -179 244.5 -188.5Q231 -198 214 -202Q197 -206 179 -206Q159 -206 136 -200.5Q113 -195 98 -186L106 -170Q117 -178 139 -183Q161 -188 179 -188Q193 -188 207 -185.5Q221 -183 232 -176Q243 -169 250 -157Q257 -145 257 -126Q257 -111 251.5 -102.5Q246 -94 236.5 -89.5Q227 -85 214.5 -83.5Q202 -82 189 -82Q175 -82 159 -85Q143 -88 131 -92V-75Q142 -70 159 -67Q176 -64 196 -64Z" glyph-name="altcedilla" horiz-adv-x="602" unicode="&#58390;" /><glyph d="M189 710H389L386 690H186ZM158 14Q205 14 239 24.5Q273 35 297 50.5Q321 66 336 82.5Q351 99 360 111L384 296L193 267Q164 262 138.5 255.5Q113 249 92.5 236Q72 223 58 201Q44 179 40 144L38 128Q32 79 62 46.5Q92 14 158 14ZM20 144Q25 185 41.5 211Q58 237 83 252Q108 267 138.5 275Q169 283 203 288L387 316L392 354Q396 387 394.5 416.5Q393 446 379.5 468Q366 490 338.5 503Q311 516 263 516Q214 516 183 503.5Q152 491 133 468.5Q114 446 105 416Q96 386 92 350H72L74 366Q78 399 88 429.5Q98 460 119 483.5Q140 507 175 521.5Q210 536 263 536Q315 536 346.5 522.5Q378 509 394.5 485.5Q411 462 414 430.5Q417 399 413 364L381 118L371 0H355L360 86Q348 71 331 54.5Q314 38 290 24.5Q266 11 233.5 2.5Q201 -6 158 -6Q126 -6 98.5 2.5Q71 11 52 27.5Q33 44 23.5 69Q14 94 18 128Z" glyph-name="amacron" horiz-adv-x="485" unicode="&#257;" /><glyph d="M139 631Q136 603 140 579Q144 555 155.5 532.5Q167 510 184.5 486Q202 462 226 434Q261 456 295.5 477Q330 498 358.5 521Q387 544 406 571Q425 598 429 631L430 639Q433 665 426 688Q419 711 402 728.5Q385 746 359 756Q333 766 298 766H292Q257 766 230 756Q203 746 184.5 728.5Q166 711 154.5 688Q143 665 140 639ZM230 14Q258 14 287 19.5Q316 25 345 38Q374 51 401.5 72.5Q429 94 453 126L221 410Q192 391 164.5 371Q137 351 114.5 328Q92 305 76.5 277Q61 249 57 214L56 206Q45 117 87.5 65.5Q130 14 224 14ZM227 -6Q125 -6 74 49Q23 104 36 206L37 214Q42 252 58 282.5Q74 313 97.5 338Q121 363 150 384Q179 405 209 424Q186 452 167.5 477Q149 502 137 526.5Q125 551 120 576.5Q115 602 119 631L120 639Q124 669 136 695.5Q148 722 170 742.5Q192 763 223 774.5Q254 786 295 786Q378 786 418 744.5Q458 703 450 639L449 631Q444 595 424.5 566Q405 537 375.5 512Q346 487 310 464.5Q274 442 238 420L464 143Q493 186 515 246Q537 306 547 387L548 395H568Q556 301 532.5 237.5Q509 174 477 127L581 0H556L466 110Q413 46 353 20Q293 -6 227 -6Z" glyph-name="ampersand" horiz-adv-x="640" unicode="&amp;" /><glyph d="M84 358 182 -120H162L63 360L288 840H310Z" glyph-name="anglebracketleft" horiz-adv-x="300" unicode="&#12296;" /><glyph d="M148 0 67 390 250 780H272L88 388L168 0Z" glyph-name="anglebracketleft.cap" horiz-adv-x="300" unicode="&#58519;" /><glyph d="M212 362 114 840H134L233 360L8 -120H-14Z" glyph-name="anglebracketright" horiz-adv-x="300" unicode="&#12297;" /><glyph d="M154 780 235 390 52 0H30L214 392L134 780Z" glyph-name="anglebracketright.cap" horiz-adv-x="300" unicode="&#58520;" /><glyph d="M390 -187Q376 -195 358 -200.5Q340 -206 311 -206Q277 -206 253 -187.5Q229 -169 229 -129Q229 -98 240 -75Q251 -52 269 -35Q287 -18 309.5 -7Q332 4 355 12L360 86Q348 71 331 54.5Q314 38 290 24.5Q266 11 233.5 2.5Q201 -6 158 -6Q126 -6 98.5 2.5Q71 11 52 27.5Q33 44 23.5 69Q14 94 18 128L20 144Q25 185 41.5 211Q58 237 83 252Q108 267 138.5 275Q169 283 203 288L387 316L392 354Q396 387 394.5 416.5Q393 446 379.5 468Q366 490 338.5 503Q311 516 263 516Q214 516 183 503.5Q152 491 133 468.5Q114 446 105 416Q96 386 92 350H72L74 366Q78 399 88 429.5Q98 460 119 483.5Q140 507 175 521.5Q210 536 263 536Q315 536 346.5 522.5Q378 509 394.5 485.5Q411 462 414 430.5Q417 399 413 364L381 118L371 0Q352 -6 330.5 -15.5Q309 -25 290.5 -40Q272 -55 259.5 -77Q247 -99 247 -129Q247 -162 266 -175Q285 -188 311 -188Q337 -188 355.5 -182Q374 -176 386 -170ZM158 14Q205 14 239 24.5Q273 35 297 50.5Q321 66 336 82.5Q351 99 360 111L384 296L193 267Q164 262 138.5 255.5Q113 249 92.5 236Q72 223 58 201Q44 179 40 144L38 128Q32 79 62 46.5Q92 14 158 14Z" glyph-name="aogonek" horiz-adv-x="485" unicode="&#261;" /><glyph d="M410 254Q432 254 451.5 261Q471 268 486.5 277.5Q502 287 513 297Q524 307 530 314L544 300Q539 294 527.5 283Q516 272 498.5 261Q481 250 458.5 242Q436 234 410 234Q368 234 339 247Q310 260 284.5 275Q259 290 231 303Q203 316 163 316Q140 316 121 309Q102 302 86.5 292.5Q71 283 60 273Q49 263 43 256L29 270Q34 276 45.5 287Q57 298 74.5 309Q92 320 114.5 328Q137 336 163 336Q205 336 234 323Q263 310 288.5 295Q314 280 342 267Q370 254 410 254ZM437 454Q459 454 478.5 461Q498 468 513.5 477.5Q529 487 540 497Q551 507 557 514L571 500Q566 494 554.5 483Q543 472 525.5 461Q508 450 485.5 442Q463 434 437 434Q395 434 366 447Q337 460 311.5 475Q286 490 258 503Q230 516 190 516Q167 516 148 509Q129 502 113.5 492.5Q98 483 87 473Q76 463 70 456L56 470Q61 476 72.5 487Q84 498 101.5 509Q119 520 141.5 528Q164 536 190 536Q232 536 261 523Q290 510 315.5 495Q341 480 369 467Q397 454 437 454Z" glyph-name="approxequal" horiz-adv-x="600" unicode="&#8776;" /><glyph d="M295 786Q332 786 353.5 765Q375 744 375 708Q375 688 367 671Q359 654 346 641.5Q333 629 316 621.5Q299 614 280 614Q243 614 221.5 635Q200 656 200 692Q200 711 208 728.5Q216 746 229 758.5Q242 771 259 778.5Q276 786 295 786ZM295 768Q263 768 241 747Q219 726 219 692Q219 663 235.5 647.5Q252 632 280 632Q312 632 334 653Q356 674 356 708Q356 737 339.5 752.5Q323 768 295 768ZM158 14Q205 14 239 24.5Q273 35 297 50.5Q321 66 336 82.5Q351 99 360 111L384 296L193 267Q164 262 138.5 255.5Q113 249 92.5 236Q72 223 58 201Q44 179 40 144L38 128Q32 79 62 46.5Q92 14 158 14ZM20 144Q25 185 41.5 211Q58 237 83 252Q108 267 138.5 275Q169 283 203 288L387 316L392 354Q396 387 394.5 416.5Q393 446 379.5 468Q366 490 338.5 503Q311 516 263 516Q214 516 183 503.5Q152 491 133 468.5Q114 446 105 416Q96 386 92 350H72L74 366Q78 399 88 429.5Q98 460 119 483.5Q140 507 175 521.5Q210 536 263 536Q315 536 346.5 522.5Q378 509 394.5 485.5Q411 462 414 430.5Q417 399 413 364L381 118L371 0H355L360 86Q348 71 331 54.5Q314 38 290 24.5Q266 11 233.5 2.5Q201 -6 158 -6Q126 -6 98.5 2.5Q71 11 52 27.5Q33 44 23.5 69Q14 94 18 128Z" glyph-name="aring" horiz-adv-x="485" unicode="&#229;" /><glyph d="M70 413 450 33V780H470V33L850 413V384L460 -6L70 384Z" glyph-name="arrowdown" horiz-adv-x="920" unicode="&#8595;" /><glyph d="M483 780 103 400H850V380H103L483 0H454L64 390L454 780Z" glyph-name="arrowleft" horiz-adv-x="920" unicode="&#8592;" /><glyph d="M437 0 817 380H70V400H817L437 780H466L856 390L466 0Z" glyph-name="arrowright" horiz-adv-x="920" unicode="&#8594;" /><glyph d="M850 367 470 747V0H450V747L70 367V396L460 786L850 396Z" glyph-name="arrowup" horiz-adv-x="920" unicode="&#8593;" /><glyph d="M543 280H522L352 759L54 280H31L343 780H363Z" glyph-name="asciicircum" horiz-adv-x="600" unicode="^" /><glyph d="M424 354Q446 354 465.5 361Q485 368 500.5 377.5Q516 387 527 397Q538 407 544 414L558 400Q553 394 541.5 383Q530 372 512.5 361Q495 350 472.5 342Q450 334 424 334Q382 334 353 347Q324 360 298.5 375Q273 390 245 403Q217 416 177 416Q154 416 135 409Q116 402 100.5 392.5Q85 383 74 373Q63 363 57 356L43 370Q48 376 59.5 387Q71 398 88.5 409Q106 420 128.5 428Q151 436 177 436Q219 436 248 423Q277 410 302.5 395Q328 380 356 367Q384 354 424 354Z" glyph-name="asciitilde" horiz-adv-x="600" unicode="~" /><glyph d="M403 667 254 621 251 640 400 686ZM300 468 229 590 246 601 317 479ZM62 686 199 640 190 622 53 668ZM90 481 194 602 208 589 104 468ZM256 800 236 650H216L236 800Z" glyph-name="asterisk" horiz-adv-x="380" unicode="*" /><glyph d="M619 423Q611 438 598 454.5Q585 471 566 484.5Q547 498 521.5 507Q496 516 464 516Q429 516 395.5 504Q362 492 333.5 467Q305 442 285 402Q265 362 258 307L255 283Q248 227 258 187.5Q268 148 290.5 123Q313 98 345 86Q377 74 414 74Q475 74 516 103Q557 132 585 171ZM424 -186Q469 -186 511 -181.5Q553 -177 594 -165.5Q635 -154 676 -135Q717 -116 761 -87L771 -103Q725 -134 681 -154Q637 -174 594 -185.5Q551 -197 508 -201.5Q465 -206 421 -206Q322 -206 242 -171Q162 -136 108.5 -72.5Q55 -9 31.5 80Q8 169 22 278L25 302Q39 416 82.5 506Q126 596 191 658Q256 720 340 753Q424 786 520 786Q606 786 680 759.5Q754 733 806 681.5Q858 630 883 554.5Q908 479 896 382L893 358Q882 268 854.5 210Q827 152 786.5 119Q746 86 695 73Q644 60 586 60H581L585 144Q576 129 560 113.5Q544 98 522 84.5Q500 71 472.5 62.5Q445 54 414 54Q372 54 336 67Q300 80 275 107.5Q250 135 238.5 178.5Q227 222 235 283L238 307Q245 368 267 411Q289 454 319.5 482Q350 510 387.5 523Q425 536 464 536Q497 536 523 528Q549 520 569 507Q589 494 603 478.5Q617 463 625 447L643 530H658L637 408L607 180L598 80Q648 80 693.5 91.5Q739 103 775.5 134Q812 165 837 219Q862 273 873 358L876 382Q888 478 863.5 550Q839 622 789.5 670Q740 718 670.5 742Q601 766 523 766H517Q424 766 344 733.5Q264 701 202 641Q140 581 99 495Q58 409 45 302L42 278Q28 171 50.5 85Q73 -1 124 -61Q175 -121 250 -153.5Q325 -186 418 -186Z" glyph-name="at" horiz-adv-x="930" unicode="@" /><glyph d="M632 523Q624 538 611 554.5Q598 571 579 584.5Q560 598 534.5 607Q509 616 477 616Q442 616 408.5 604Q375 592 346.5 567Q318 542 298 502Q278 462 271 407L268 383Q261 327 271 287.5Q281 248 303.5 223Q326 198 358 186Q390 174 427 174Q488 174 529 203Q570 232 598 271ZM437 -86Q482 -86 524 -81.5Q566 -77 607 -65.5Q648 -54 689 -35Q730 -16 774 13L784 -3Q738 -34 694 -54Q650 -74 607 -85.5Q564 -97 521 -101.5Q478 -106 434 -106Q335 -106 255 -71Q175 -36 121.5 27.5Q68 91 44.5 180Q21 269 35 378L38 402Q52 516 95.5 606Q139 696 204 758Q269 820 353 853Q437 886 533 886Q619 886 693 859.5Q767 833 819 781.5Q871 730 896 654.5Q921 579 909 482L906 458Q895 368 867.5 310Q840 252 799.5 219Q759 186 708 173Q657 160 599 160H594L598 244Q589 229 573 213.5Q557 198 535 184.5Q513 171 485.5 162.5Q458 154 427 154Q385 154 349 167Q313 180 288 207.5Q263 235 251.5 278.5Q240 322 248 383L251 407Q258 468 280 511Q302 554 332.5 582Q363 610 400.5 623Q438 636 477 636Q510 636 536 628Q562 620 582 607Q602 594 616 578.5Q630 563 638 547L656 630H671L650 508L620 280L611 180Q661 180 706.5 191.5Q752 203 788.5 234Q825 265 850 319Q875 373 886 458L889 482Q901 578 876.5 650Q852 722 802.5 770Q753 818 683.5 842Q614 866 536 866H530Q437 866 357 833.5Q277 801 215 741Q153 681 112 595Q71 509 58 402L55 378Q41 271 63.5 185Q86 99 137 39Q188 -21 263 -53.5Q338 -86 431 -86Z" glyph-name="at.cap" horiz-adv-x="930" unicode="&#58643;" /><glyph d="M427 732Q424 711 417 697.5Q410 684 400 676Q390 668 378 665Q366 662 355 662Q335 662 318.5 671Q302 680 286 691Q270 702 254 711Q238 720 220 720Q203 720 187 711Q171 702 166 668H148Q151 689 158 702.5Q165 716 175 724Q185 732 197 735Q209 738 220 738Q239 738 256 729Q273 720 289 709Q305 698 321 689Q337 680 355 680Q372 680 388 689Q404 698 409 732ZM158 14Q205 14 239 24.5Q273 35 297 50.5Q321 66 336 82.5Q351 99 360 111L384 296L193 267Q164 262 138.5 255.5Q113 249 92.5 236Q72 223 58 201Q44 179 40 144L38 128Q32 79 62 46.5Q92 14 158 14ZM20 144Q25 185 41.5 211Q58 237 83 252Q108 267 138.5 275Q169 283 203 288L387 316L392 354Q396 387 394.5 416.5Q393 446 379.5 468Q366 490 338.5 503Q311 516 263 516Q214 516 183 503.5Q152 491 133 468.5Q114 446 105 416Q96 386 92 350H72L74 366Q78 399 88 429.5Q98 460 119 483.5Q140 507 175 521.5Q210 536 263 536Q315 536 346.5 522.5Q378 509 394.5 485.5Q411 462 414 430.5Q417 399 413 364L381 118L371 0H355L360 86Q348 71 331 54.5Q314 38 290 24.5Q266 11 233.5 2.5Q201 -6 158 -6Q126 -6 98.5 2.5Q71 11 52 27.5Q33 44 23.5 69Q14 94 18 128Z" glyph-name="atilde" horiz-adv-x="485" unicode="&#227;" /><glyph d="M55 107Q63 92 75.5 75.5Q88 59 107 45.5Q126 32 151 23Q176 14 208 14Q300 14 352.5 77.5Q405 141 419 253L422 277Q436 389 398.5 452.5Q361 516 269 516Q208 516 166 487Q124 458 96 419ZM100 450Q110 465 126 480.5Q142 496 163.5 508Q185 520 211 528Q237 536 269 536Q370 536 413.5 467.5Q457 399 442 277L439 253Q424 131 366.5 62.5Q309 -6 208 -6Q175 -6 149.5 2Q124 10 104.5 22.5Q85 35 71 51Q57 67 49 83L31 0H16L37 122L126 800H146Z" glyph-name="b" horiz-adv-x="510" unicode="b" /><glyph d="M86 840H106L210 -120H190Z" glyph-name="backslash" horiz-adv-x="300" unicode="\" /><glyph d="M117 780 207 0H187L97 780Z" glyph-name="backslash.cap" horiz-adv-x="300" unicode="&#58466;" /><glyph d="M195 420 335 280 475 420 490 405 350 265 490 125 475 110 335 250 195 110 180 125 320 265 180 405ZM90 510V20H580V510ZM70 0V530H600V0Z" glyph-name="ballotboxwithx" horiz-adv-x="680" unicode="&#9746;" /><glyph d="M141 840H161L35 -120H15Z" glyph-name="bar" horiz-adv-x="180" unicode="|" /><glyph d="M133 780H153L51 0H31Z" glyph-name="bar.cap" horiz-adv-x="180" unicode="&#58467;" /><glyph d="M166 875H126L131 915H171ZM55 107Q63 92 75.5 75.5Q88 59 107 45.5Q126 32 151 23Q176 14 208 14Q300 14 352.5 77.5Q405 141 419 253L422 277Q436 389 398.5 452.5Q361 516 269 516Q208 516 166 487Q124 458 96 419ZM100 450Q110 465 126 480.5Q142 496 163.5 508Q185 520 211 528Q237 536 269 536Q370 536 413.5 467.5Q457 399 442 277L439 253Q424 131 366.5 62.5Q309 -6 208 -6Q175 -6 149.5 2Q124 10 104.5 22.5Q85 35 71 51Q57 67 49 83L31 0H16L37 122L126 800H146Z" glyph-name="bdotaccent" horiz-adv-x="510" unicode="&#7683;" /><glyph d="M64 390Q64 472 95 544Q126 616 180 670Q234 724 306 755Q378 786 460 786Q542 786 614 755Q686 724 740 670Q794 616 825 544Q856 472 856 390Q856 308 825 236Q794 164 740 110Q686 56 614 25Q542 -6 460 -6Q378 -6 306 25Q234 56 180 110Q126 164 95 236Q64 308 64 390Z" glyph-name="blackcircle" horiz-adv-x="920" unicode="&#9679;" /><glyph d="M70 0V530H600V0Z" glyph-name="blacksmallsquare" horiz-adv-x="680" unicode="&#9642;" /><glyph d="M70 0V780H850V0Z" glyph-name="blacksquare" horiz-adv-x="920" unicode="&#9632;" /><glyph d="M308 820Q285 820 265 816.5Q245 813 230 801.5Q215 790 204.5 768Q194 746 189 710L156 463Q149 412 130 390Q111 368 83 360Q108 351 122 328.5Q136 306 129 257L97 10Q92 -25 97 -46.5Q102 -68 114.5 -80Q127 -92 145.5 -96Q164 -100 188 -100L185 -120H181Q157 -120 135.5 -115Q114 -110 99.5 -96Q85 -82 78.5 -57Q72 -32 77 7L110 258Q114 288 109.5 306Q105 324 94.5 333.5Q84 343 67.5 346.5Q51 350 31 350L34 370Q54 370 71 373.5Q88 377 101.5 387Q115 397 124 415.5Q133 434 137 464L170 715Q175 755 188 780Q201 805 219.5 818Q238 831 260.5 835.5Q283 840 307 840H311Z" glyph-name="braceleft" horiz-adv-x="300" unicode="{" /><glyph d="M300 760Q277 760 257 756.5Q237 753 222 741.5Q207 730 196.5 708Q186 686 181 650L160 493Q153 442 134 420Q115 398 87 390Q112 381 126 358.5Q140 336 133 287L113 130Q108 95 113 73.5Q118 52 130.5 40Q143 28 161.5 24Q180 20 204 20L201 0H197Q173 0 151.5 5Q130 10 115.5 24Q101 38 94.5 63Q88 88 93 127L114 288Q118 318 113.5 336Q109 354 98.5 363.5Q88 373 71.5 376.5Q55 380 35 380L38 400Q58 400 75 403.5Q92 407 105.5 417Q119 427 128 445.5Q137 464 141 494L162 655Q167 695 180 720Q193 745 211.5 758Q230 771 252.5 775.5Q275 780 299 780H303Z" glyph-name="braceleft.cap" horiz-adv-x="300" unicode="&#58517;" /><glyph d="M-12 -100Q11 -100 31 -96.5Q51 -93 66 -81.5Q81 -70 91.5 -48Q102 -26 107 10L140 257Q147 308 166 330Q185 352 213 360Q201 364 191 371.5Q181 379 174.5 391Q168 403 166 420.5Q164 438 167 463L199 710Q203 745 198.5 766.5Q194 788 181.5 800Q169 812 150.5 816Q132 820 108 820L111 840H115Q139 840 160.5 835Q182 830 196.5 816Q211 802 217.5 777Q224 752 219 713L186 462Q182 432 186.5 414Q191 396 201.5 386.5Q212 377 228.5 373.5Q245 370 265 370L262 350Q242 350 225 346.5Q208 343 194.5 333Q181 323 172 304.5Q163 286 159 256L126 5Q121 -36 108 -60.5Q95 -85 76.5 -98Q58 -111 35.5 -115.5Q13 -120 -11 -120H-15Z" glyph-name="braceright" horiz-adv-x="300" unicode="}" /><glyph d="M4 20Q27 20 47 23.5Q67 27 82 38.5Q97 50 107.5 72Q118 94 123 130L144 287Q151 338 170 360Q189 382 217 390Q205 394 195 401.5Q185 409 178.5 421Q172 433 170 450.5Q168 468 171 493L191 650Q195 685 190.5 706.5Q186 728 173.5 740Q161 752 142.5 756Q124 760 100 760L103 780H107Q131 780 152.5 775Q174 770 188.5 756Q203 742 209.5 717Q216 692 211 653L190 492Q186 462 190.5 444Q195 426 205.5 416.5Q216 407 232.5 403.5Q249 400 269 400L266 380Q246 380 229 376.5Q212 373 198.5 363Q185 353 176 334.5Q167 316 163 286L142 125Q137 84 124 59.5Q111 35 92.5 22Q74 9 51.5 4.5Q29 0 5 0H1Z" glyph-name="braceright.cap" horiz-adv-x="300" unicode="&#58518;" /><glyph d="M311 840 308 820H158L38 -100H188L185 -120H15L141 840Z" glyph-name="bracketleft" horiz-adv-x="300" unicode="[" /><glyph d="M303 780 300 760H151L54 20H204L201 0H31L133 780Z" glyph-name="bracketleft.cap" horiz-adv-x="300" unicode="&#58515;" /><glyph d="M-15 -120 -12 -100H138L258 820H108L111 840H281L155 -120Z" glyph-name="bracketright" horiz-adv-x="300" unicode="]" /><glyph d="M1 0 4 20H153L250 760H100L103 780H273L171 0Z" glyph-name="bracketright.cap" horiz-adv-x="300" unicode="&#58516;" /><glyph d="M282 614Q244 614 217 627.5Q190 641 174.5 663.5Q159 686 153.5 716Q148 746 153 780H170Q166 750 170 723Q174 696 187.5 676Q201 656 224 644Q247 632 282 632Q317 632 343.5 644Q370 656 389 676Q408 696 419 723Q430 750 434 780H453Q448 746 435.5 716Q423 686 401.5 663.5Q380 641 350.5 627.5Q321 614 282 614Z" glyph-name="breve" horiz-adv-x="500" unicode="&#728;" /><glyph d="M310 852Q364 852 397.5 878.5Q431 905 437 950H456Q448 897 411 865.5Q374 834 311 834Q248 834 218 865.5Q188 897 196 950H213Q207 905 231.5 878.5Q256 852 310 852Z" glyph-name="breve.cap" horiz-adv-x="500" unicode="&#58406;" /><glyph d="M73 320H93L35 -120H15ZM141 840H161L103 400H83Z" glyph-name="brokenbar" horiz-adv-x="180" unicode="&#166;" /><glyph d="M77 350H97L51 0H31ZM133 780H153L107 430H87Z" glyph-name="brokenbar.cap" horiz-adv-x="180" unicode="&#58469;" /><glyph d="M289 220H49L81 460H321Z" glyph-name="bullet" horiz-adv-x="380" unicode="&#8226;" /><glyph d="M296 270H56L88 510H328Z" glyph-name="bullet.cap" horiz-adv-x="380" unicode="&#58470;" /><glyph d="M42 277Q57 399 117 467.5Q177 536 278 536Q334 536 369 520.5Q404 505 423 480.5Q442 456 447 424.5Q452 393 448 361L446 345H426Q432 382 427.5 413.5Q423 445 405.5 467.5Q388 490 356.5 503Q325 516 278 516Q186 516 131 452.5Q76 389 62 277L59 253Q45 141 86.5 77.5Q128 14 220 14Q264 14 296.5 26Q329 38 351.5 59.5Q374 81 387 110.5Q400 140 404 175H424L422 159Q419 130 406 101Q393 72 369 48Q345 24 308 9Q271 -6 220 -6Q119 -6 71.5 62.5Q24 131 39 253Z" glyph-name="c" horiz-adv-x="505" unicode="c" /><glyph d="M422 780 311 620H289L400 780ZM42 277Q57 399 117 467.5Q177 536 278 536Q334 536 369 520.5Q404 505 423 480.5Q442 456 447 424.5Q452 393 448 361L446 345H426Q432 382 427.5 413.5Q423 445 405.5 467.5Q388 490 356.5 503Q325 516 278 516Q186 516 131 452.5Q76 389 62 277L59 253Q45 141 86.5 77.5Q128 14 220 14Q264 14 296.5 26Q329 38 351.5 59.5Q374 81 387 110.5Q400 140 404 175H424L422 159Q419 130 406 101Q393 72 369 48Q345 24 308 9Q271 -6 220 -6Q119 -6 71.5 62.5Q24 131 39 253Z" glyph-name="cacute" horiz-adv-x="505" unicode="&#263;" /><glyph d="M192 780 283 638 412 780H438L292 620H272L168 780Z" glyph-name="caron" horiz-adv-x="500" unicode="&#711;" /><glyph d="M436 950 321 840H301L216 950H239L312 855L411 950Z" glyph-name="caron.cap" horiz-adv-x="500" unicode="&#58413;" /><glyph d="M413 780 382 620H372L393 780Z" glyph-name="caronSlovak" horiz-adv-x="500" unicode="&#58387;" /><glyph d="M210 780 301 638 430 780H456L310 620H290L186 780ZM42 277Q57 399 117 467.5Q177 536 278 536Q334 536 369 520.5Q404 505 423 480.5Q442 456 447 424.5Q452 393 448 361L446 345H426Q432 382 427.5 413.5Q423 445 405.5 467.5Q388 490 356.5 503Q325 516 278 516Q186 516 131 452.5Q76 389 62 277L59 253Q45 141 86.5 77.5Q128 14 220 14Q264 14 296.5 26Q329 38 351.5 59.5Q374 81 387 110.5Q400 140 404 175H424L422 159Q419 130 406 101Q393 72 369 48Q345 24 308 9Q271 -6 220 -6Q119 -6 71.5 62.5Q24 131 39 253Z" glyph-name="ccaron" horiz-adv-x="505" unicode="&#269;" /><glyph d="M124 -170Q135 -178 157 -183Q179 -188 197 -188Q211 -188 225 -185.5Q239 -183 250 -176Q261 -169 268 -157Q275 -145 275 -126Q275 -111 269.5 -102.5Q264 -94 254.5 -89.5Q245 -85 233 -83.5Q221 -82 208 -82Q203 -82 198.5 -82.5Q194 -83 190 -83Q186 -84 182 -84L173 -73L206 -6Q112 -1 68 67Q24 135 39 253L42 277Q57 399 117 467.5Q177 536 278 536Q334 536 369 520.5Q404 505 423 480.5Q442 456 447 424.5Q452 393 448 361L446 345H426Q432 382 427.5 413.5Q423 445 405.5 467.5Q388 490 356.5 503Q325 516 278 516Q186 516 131 452.5Q76 389 62 277L59 253Q45 141 86.5 77.5Q128 14 220 14Q264 14 296.5 26Q329 38 351.5 59.5Q374 81 387 110.5Q400 140 404 175H424L422 159Q419 131 406.5 102Q394 73 370 49Q346 25 310.5 10Q275 -5 225 -6L196 -65Q200 -64 205 -64Q210 -64 215 -64Q229 -64 243 -67Q257 -70 268 -77Q279 -84 286 -96Q293 -108 293 -126Q293 -149 284.5 -164Q276 -179 262.5 -188.5Q249 -198 232 -202Q215 -206 197 -206Q177 -206 154 -200.5Q131 -195 116 -186Z" glyph-name="ccedilla" horiz-adv-x="505" unicode="&#231;" /><glyph d="M411 620 320 762 191 620H165L311 780H331L435 620ZM42 277Q57 399 117 467.5Q177 536 278 536Q334 536 369 520.5Q404 505 423 480.5Q442 456 447 424.5Q452 393 448 361L446 345H426Q432 382 427.5 413.5Q423 445 405.5 467.5Q388 490 356.5 503Q325 516 278 516Q186 516 131 452.5Q76 389 62 277L59 253Q45 141 86.5 77.5Q128 14 220 14Q264 14 296.5 26Q329 38 351.5 59.5Q374 81 387 110.5Q400 140 404 175H424L422 159Q419 130 406 101Q393 72 369 48Q345 24 308 9Q271 -6 220 -6Q119 -6 71.5 62.5Q24 131 39 253Z" glyph-name="ccircumflex" horiz-adv-x="505" unicode="&#265;" /><glyph d="M328 680H288L293 720H333ZM42 277Q57 399 117 467.5Q177 536 278 536Q334 536 369 520.5Q404 505 423 480.5Q442 456 447 424.5Q452 393 448 361L446 345H426Q432 382 427.5 413.5Q423 445 405.5 467.5Q388 490 356.5 503Q325 516 278 516Q186 516 131 452.5Q76 389 62 277L59 253Q45 141 86.5 77.5Q128 14 220 14Q264 14 296.5 26Q329 38 351.5 59.5Q374 81 387 110.5Q400 140 404 175H424L422 159Q419 130 406 101Q393 72 369 48Q345 24 308 9Q271 -6 220 -6Q119 -6 71.5 62.5Q24 131 39 253Z" glyph-name="cdotaccent" horiz-adv-x="505" unicode="&#267;" /><glyph d="M106 -170Q117 -178 139 -183Q161 -188 179 -188Q193 -188 207 -185.5Q221 -183 232 -176Q243 -169 250 -157Q257 -145 257 -126Q257 -111 251.5 -102.5Q246 -94 236.5 -89.5Q227 -85 215 -83.5Q203 -82 190 -82Q185 -82 180.5 -82.5Q176 -83 172 -83Q168 -84 164 -84L155 -73L191 0H210L178 -65Q182 -64 187 -64Q192 -64 197 -64Q211 -64 225 -67Q239 -70 250 -77Q261 -84 268 -96Q275 -108 275 -126Q275 -149 266.5 -164Q258 -179 244.5 -188.5Q231 -198 214 -202Q197 -206 179 -206Q159 -206 136 -200.5Q113 -195 98 -186Z" glyph-name="cedilla" horiz-adv-x="602" unicode="&#184;" /><glyph d="M94 378Q80 266 102.5 197.5Q125 129 180 100L401 697Q383 700 361 700H355Q250 700 183 627Q116 554 97 402ZM427 712Q499 694 526.5 642Q554 590 543 505L540 481H520Q536 574 510.5 625.5Q485 677 420 693L197 92Q228 80 272 80H278Q369 80 424.5 126Q480 172 493 278H513L510 254Q505 210 488 174.5Q471 139 442 113.5Q413 88 371.5 74Q330 60 275 60Q252 60 230 63Q208 66 190 73L141 -60H121L172 80Q44 140 74 378L77 402Q97 560 168.5 640Q240 720 358 720Q371 720 384.5 719Q398 718 409 716L455 840H475Z" glyph-name="cent" horiz-adv-x="600" unicode="&#162;" /><glyph d="M393 620 302 762 173 620H147L293 780H313L417 620Z" glyph-name="circumflex" horiz-adv-x="500" unicode="&#710;" /><glyph d="M201 840 316 950H336L421 840H398L325 935L226 840Z" glyph-name="circumflex.cap" horiz-adv-x="500" unicode="&#58403;" /><glyph d="M349 0Q368 37 381.5 73Q395 109 404.5 147Q414 185 420.5 227Q427 269 431 320L428 321Q415 290 396 261Q377 232 352 209.5Q327 187 296 173.5Q265 160 228 160Q191 160 159 173.5Q127 187 103 210.5Q79 234 65.5 265.5Q52 297 52 334Q52 373 64.5 406Q77 439 100 463Q123 487 155 500.5Q187 514 226 514Q252 514 272.5 507Q293 500 310 491L312 493Q295 518 284.5 547.5Q274 577 274 610Q274 647 287.5 680Q301 713 324.5 737.5Q348 762 380 776Q412 790 450 790Q488 790 520 776Q552 762 575.5 737.5Q599 713 612.5 680Q626 647 626 610Q626 577 615.5 547.5Q605 518 588 493L590 491Q607 500 627.5 507Q648 514 674 514Q713 514 745 500.5Q777 487 800 463Q823 439 835.5 406Q848 373 848 334Q848 297 834.5 265.5Q821 234 797 210.5Q773 187 741 173.5Q709 160 672 160Q635 160 604 173.5Q573 187 548 209.5Q523 232 504 261Q485 290 472 321L469 320Q473 269 479.5 227Q486 185 495.5 147Q505 109 518.5 73Q532 37 551 0Z" glyph-name="club" horiz-adv-x="900" unicode="&#9827;" /><glyph d="M109 370H69L74 410H114ZM61 0H21L26 40H66Z" glyph-name="colon" horiz-adv-x="180" unicode=":" /><glyph d="M169 370H129L134 410H174ZM121 0H81L86 40H126Z" glyph-name="colon.T" horiz-adv-x="300" unicode="&#61828;" /><glyph d="M62 8Q54 -49 27 -77Q0 -105 -38 -105L-36 -85Q-9 -85 12 -67.5Q33 -50 41 0H21L26 40H66Z" glyph-name="comma" horiz-adv-x="180" unicode="," /><glyph d="M122 8Q114 -49 87 -77Q60 -105 22 -105L24 -85Q51 -85 72 -67.5Q93 -50 101 0H81L86 40H126Z" glyph-name="comma.T" horiz-adv-x="300" unicode="&#61827;" /><glyph d="M207 -102Q199 -159 172 -182.5Q145 -206 113 -206L115 -186Q124 -186 135 -183.5Q146 -181 156 -173Q166 -165 174 -150Q182 -135 186 -110H166L171 -70H211Z" glyph-name="commaaccent" horiz-adv-x="602" unicode="&#58388;" /><glyph d="M295 872Q301 914 320.5 935Q340 956 378 956L376 936Q324 936 316 880H336L331 840H291Z" glyph-name="commaaccent.cap" horiz-adv-x="500" unicode="&#58414;" /><glyph d="M450 149Q400 149 362 166Q324 183 298.5 214Q273 245 260 287Q247 329 247 380V400Q247 451 260 493Q273 535 298.5 566Q324 597 362 614Q400 631 450 631Q499 631 533 618.5Q567 606 588.5 585.5Q610 565 620 537.5Q630 510 630 480V470H610Q610 538 571.5 574.5Q533 611 450 611Q406 611 371.5 595.5Q337 580 314 552.5Q291 525 279 486Q267 447 267 400V380Q267 333 279 294Q291 255 314 227.5Q337 200 371.5 184.5Q406 169 450 169Q491 169 521.5 179.5Q552 190 571.5 208Q591 226 600.5 250Q610 274 610 300H630V290Q630 267 620 242.5Q610 218 588.5 197Q567 176 533 162.5Q499 149 450 149ZM74 390Q74 312 103.5 243.5Q133 175 184 124Q235 73 303.5 43.5Q372 14 450 14Q528 14 596.5 43.5Q665 73 716 124Q767 175 796.5 243.5Q826 312 826 390Q826 468 796.5 536.5Q767 605 716 656Q665 707 596.5 736.5Q528 766 450 766Q372 766 303.5 736.5Q235 707 184 656Q133 605 103.5 536.5Q74 468 74 390ZM54 390Q54 472 85 544Q116 616 170 670Q224 724 296 755Q368 786 450 786Q532 786 604 755Q676 724 730 670Q784 616 815 544Q846 472 846 390Q846 308 815 236Q784 164 730 110Q676 56 604 25Q532 -6 450 -6Q368 -6 296 25Q224 56 170 110Q116 164 85 236Q54 308 54 390Z" glyph-name="copyright" horiz-adv-x="900" unicode="&#169;" /><glyph d="M426 423Q418 438 405.5 454.5Q393 471 374 484.5Q355 498 330 507Q305 516 273 516Q181 516 128.5 452.5Q76 389 62 277L59 253Q45 141 82.5 77.5Q120 14 212 14Q273 14 315 43Q357 72 385 111ZM273 536Q306 536 331.5 528Q357 520 376 508Q395 496 408 481Q421 466 429 452L475 800H495L406 118L396 0H380L385 86Q373 69 356.5 52.5Q340 36 318 23Q296 10 269.5 2Q243 -6 212 -6Q111 -6 67.5 62.5Q24 131 39 253L42 277Q57 399 114.5 467.5Q172 536 273 536Z" glyph-name="d" horiz-adv-x="510" unicode="d" /><glyph d="M390 610H250L253 630H393ZM54 630H194L191 610H51ZM175 340 208 590H228L195 340ZM256 800 236 650H216L236 800Z" glyph-name="dagger" horiz-adv-x="380" unicode="&#8224;" /><glyph d="M362 400H222L225 420H365ZM26 420H166L163 400H23ZM147 130 180 380H200L167 130ZM228 590 208 440H188L208 590ZM390 610H250L253 630H393ZM54 630H194L191 610H51ZM256 800 236 650H216L236 800Z" glyph-name="daggerdbl" horiz-adv-x="380" unicode="&#8225;" /><glyph d="M603 780 572 620H562L583 780ZM426 423Q418 438 405.5 454.5Q393 471 374 484.5Q355 498 330 507Q305 516 273 516Q181 516 128.5 452.5Q76 389 62 277L59 253Q45 141 82.5 77.5Q120 14 212 14Q273 14 315 43Q357 72 385 111ZM273 536Q306 536 331.5 528Q357 520 376 508Q395 496 408 481Q421 466 429 452L475 800H495L406 118L396 0H380L385 86Q373 69 356.5 52.5Q340 36 318 23Q296 10 269.5 2Q243 -6 212 -6Q111 -6 67.5 62.5Q24 131 39 253L42 277Q57 399 114.5 467.5Q172 536 273 536Z" glyph-name="dcaron" horiz-adv-x="510" unicode="&#271;" /><glyph d="M294 675H459L475 800H495L479 675H584L581 655H476L406 118L396 0H380L385 86Q373 69 356.5 52.5Q340 36 318 23Q296 10 269.5 2Q243 -6 212 -6Q111 -6 67.5 62.5Q24 131 39 253L42 277Q57 399 114.5 467.5Q172 536 273 536Q306 536 331.5 528Q357 520 376 508Q395 496 408 481Q421 466 429 452L456 655H291ZM426 423Q418 438 405.5 454.5Q393 471 374 484.5Q355 498 330 507Q305 516 273 516Q181 516 128.5 452.5Q76 389 62 277L59 253Q45 141 82.5 77.5Q120 14 212 14Q273 14 315 43Q357 72 385 111Z" glyph-name="dcroat" horiz-adv-x="510" unicode="&#273;" /><glyph d="M516 875H476L481 915H521ZM426 423Q418 438 405.5 454.5Q393 471 374 484.5Q355 498 330 507Q305 516 273 516Q181 516 128.5 452.5Q76 389 62 277L59 253Q45 141 82.5 77.5Q120 14 212 14Q273 14 315 43Q357 72 385 111ZM273 536Q306 536 331.5 528Q357 520 376 508Q395 496 408 481Q421 466 429 452L475 800H495L406 118L396 0H380L385 86Q373 69 356.5 52.5Q340 36 318 23Q296 10 269.5 2Q243 -6 212 -6Q111 -6 67.5 62.5Q24 131 39 253L42 277Q57 399 114.5 467.5Q172 536 273 536Z" glyph-name="ddotaccent" horiz-adv-x="510" unicode="&#7691;" /><glyph d="M247 786Q279 786 305.5 776.5Q332 767 350 748.5Q368 730 376.5 703.5Q385 677 381 644L380 636Q376 602 362 575.5Q348 549 326.5 531Q305 513 278.5 503.5Q252 494 222 494Q190 494 163.5 503.5Q137 513 119 531.5Q101 550 92.5 576.5Q84 603 88 636L89 644Q93 678 107 704.5Q121 731 142.5 749Q164 767 190.5 776.5Q217 786 247 786ZM225 514Q275 514 314 546.5Q353 579 360 636L361 644Q365 673 358 696Q351 719 336 734.5Q321 750 299 758Q277 766 250 766H244Q194 766 155 733.5Q116 701 109 644L108 636Q104 607 111 584Q118 561 133 545.5Q148 530 170 522Q192 514 219 514Z" glyph-name="degree" horiz-adv-x="400" unicode="&#176;" /><glyph d="M817 390Q764 348 712.5 300.5Q661 253 614 201.5Q567 150 525.5 96.5Q484 43 451 -10H449Q416 43 374.5 96.5Q333 150 286 201.5Q239 253 187.5 300.5Q136 348 83 390Q136 432 187.5 479.5Q239 527 286 578.5Q333 630 374.5 683.5Q416 737 449 790H451Q484 737 525.5 683.5Q567 630 614 578.5Q661 527 712.5 479.5Q764 432 817 390Z" glyph-name="diamond" horiz-adv-x="900" unicode="&#9830;" /><glyph d="M380 680H340L345 720H385ZM240 680H200L205 720H245Z" glyph-name="dieresis" horiz-adv-x="500" unicode="&#168;" /><glyph d="M406 875H366L371 915H411ZM266 875H226L231 915H271Z" glyph-name="dieresis.cap" horiz-adv-x="500" unicode="&#58409;" /><glyph d="M52 400H551L548 380H49ZM288 140H248L253 180H293ZM348 600H308L314 640H354Z" glyph-name="divide" horiz-adv-x="600" unicode="&#247;" /><glyph d="M262 80Q306 80 346.5 92Q387 104 418.5 126.5Q450 149 469 182Q488 215 488 257Q488 290 476.5 313Q465 336 442.5 351Q420 366 386.5 375Q353 384 308 390L195 86Q222 80 259 80ZM426 709Q494 689 521 642Q548 595 539 522L536 498H516Q529 585 503.5 629Q478 673 419 690L315 409Q426 397 471 355Q516 313 507 241L506 233Q501 191 479.5 159Q458 127 424.5 105Q391 83 348.5 71.5Q306 60 258 60Q219 60 188 67L141 -60H121L170 72Q137 83 114 102Q91 121 77.5 145.5Q64 170 59.5 198Q55 226 59 255L61 271H81Q69 203 94 157Q119 111 177 91L289 392Q178 405 136 443.5Q94 482 102 545L103 553Q108 591 129 622Q150 653 182.5 674.5Q215 696 256.5 708Q298 720 344 720Q379 720 408 714L455 840H475ZM401 695Q373 700 344 700H341Q303 700 264 689.5Q225 679 193.5 657.5Q162 636 142 603.5Q122 571 122 527Q122 476 162.5 449Q203 422 296 411Z" glyph-name="dollar" horiz-adv-x="600" unicode="$" /><glyph d="M310 680H270L275 720H315Z" glyph-name="dotaccent" horiz-adv-x="500" unicode="&#729;" /><glyph d="M336 875H296L301 915H341Z" glyph-name="dotaccent.cap" horiz-adv-x="500" unicode="&#58408;" /><glyph d="M166 -110H206L201 -150H161Z" glyph-name="dotbelow" horiz-adv-x="602" unicode="&#58389;" /><glyph d="M100 530H120L51 0H31Z" glyph-name="dotlessi" horiz-adv-x="180" unicode="&#305;" /><glyph d="M100 530H120L42 -69Q37 -110 22.5 -136Q8 -162 -12 -178Q-32 -194 -56.5 -200Q-81 -206 -107 -206Q-135 -206 -150.5 -202Q-166 -198 -169 -196L-167 -176Q-161 -179 -144 -182.5Q-127 -186 -108 -186Q-83 -186 -61 -180.5Q-39 -175 -22 -161.5Q-5 -148 6.5 -124Q18 -100 23 -63Z" glyph-name="dotlessj" horiz-adv-x="180" unicode="&#567;" /><glyph d="M241 840H261L135 -120H115ZM141 840H161L35 -120H15Z" glyph-name="doublebar" horiz-adv-x="280" unicode="&#8214;" /><glyph d="M233 780H253L151 0H131ZM133 780H153L51 0H31Z" glyph-name="doublebar.cap" horiz-adv-x="280" unicode="&#58468;" /><glyph d="M274 780 343 620H321L252 780ZM174 780 243 620H221L152 780Z" glyph-name="doublegrave" horiz-adv-x="500" unicode="&#58386;" /><glyph d="M325 950 372 840H350L303 950ZM225 950 272 840H250L203 950Z" glyph-name="doublegrave.cap" horiz-adv-x="500" unicode="&#58412;" /><glyph d="M282 516Q190 516 133 452Q76 388 62 275H442Q449 328 443.5 372Q438 416 419 448Q400 480 366 498Q332 516 282 516ZM59 255Q52 199 61 154Q70 109 93 78Q116 47 151.5 30.5Q187 14 233 14Q285 14 320.5 26.5Q356 39 379 60.5Q402 82 413.5 110.5Q425 139 428 170H448L446 154Q443 125 430 96.5Q417 68 392 45.5Q367 23 328 8.5Q289 -6 233 -6Q183 -6 143.5 11.5Q104 29 78.5 62.5Q53 96 42 144Q31 192 39 253L42 277Q57 399 119 467.5Q181 536 282 536Q340 536 378 516Q416 496 437 461Q458 426 463 377Q468 328 461 271L459 255Z" glyph-name="e" horiz-adv-x="530" unicode="e" /><glyph d="M419 780 308 620H286L397 780ZM282 516Q190 516 133 452Q76 388 62 275H442Q449 328 443.5 372Q438 416 419 448Q400 480 366 498Q332 516 282 516ZM59 255Q52 199 61 154Q70 109 93 78Q116 47 151.5 30.5Q187 14 233 14Q285 14 320.5 26.5Q356 39 379 60.5Q402 82 413.5 110.5Q425 139 428 170H448L446 154Q443 125 430 96.5Q417 68 392 45.5Q367 23 328 8.5Q289 -6 233 -6Q183 -6 143.5 11.5Q104 29 78.5 62.5Q53 96 42 144Q31 192 39 253L42 277Q57 399 119 467.5Q181 536 282 536Q340 536 378 516Q416 496 437 461Q458 426 463 377Q468 328 461 271L459 255Z" glyph-name="eacute" horiz-adv-x="530" unicode="&#233;" /><glyph d="M297 614Q259 614 232 627.5Q205 641 189.5 663.5Q174 686 168.5 716Q163 746 168 780H185Q181 750 185 723Q189 696 202.5 676Q216 656 239 644Q262 632 297 632Q332 632 358.5 644Q385 656 404 676Q423 696 434 723Q445 750 449 780H468Q463 746 450.5 716Q438 686 416.5 663.5Q395 641 365.5 627.5Q336 614 297 614ZM282 516Q190 516 133 452Q76 388 62 275H442Q449 328 443.5 372Q438 416 419 448Q400 480 366 498Q332 516 282 516ZM59 255Q52 199 61 154Q70 109 93 78Q116 47 151.5 30.5Q187 14 233 14Q285 14 320.5 26.5Q356 39 379 60.5Q402 82 413.5 110.5Q425 139 428 170H448L446 154Q443 125 430 96.5Q417 68 392 45.5Q367 23 328 8.5Q289 -6 233 -6Q183 -6 143.5 11.5Q104 29 78.5 62.5Q53 96 42 144Q31 192 39 253L42 277Q57 399 119 467.5Q181 536 282 536Q340 536 378 516Q416 496 437 461Q458 426 463 377Q468 328 461 271L459 255Z" glyph-name="ebreve" horiz-adv-x="530" unicode="&#277;" /><glyph d="M207 780 298 638 427 780H453L307 620H287L183 780ZM282 516Q190 516 133 452Q76 388 62 275H442Q449 328 443.5 372Q438 416 419 448Q400 480 366 498Q332 516 282 516ZM59 255Q52 199 61 154Q70 109 93 78Q116 47 151.5 30.5Q187 14 233 14Q285 14 320.5 26.5Q356 39 379 60.5Q402 82 413.5 110.5Q425 139 428 170H448L446 154Q443 125 430 96.5Q417 68 392 45.5Q367 23 328 8.5Q289 -6 233 -6Q183 -6 143.5 11.5Q104 29 78.5 62.5Q53 96 42 144Q31 192 39 253L42 277Q57 399 119 467.5Q181 536 282 536Q340 536 378 516Q416 496 437 461Q458 426 463 377Q468 328 461 271L459 255Z" glyph-name="ecaron" horiz-adv-x="530" unicode="&#283;" /><glyph d="M408 620 317 762 188 620H162L308 780H328L432 620ZM282 516Q190 516 133 452Q76 388 62 275H442Q449 328 443.5 372Q438 416 419 448Q400 480 366 498Q332 516 282 516ZM59 255Q52 199 61 154Q70 109 93 78Q116 47 151.5 30.5Q187 14 233 14Q285 14 320.5 26.5Q356 39 379 60.5Q402 82 413.5 110.5Q425 139 428 170H448L446 154Q443 125 430 96.5Q417 68 392 45.5Q367 23 328 8.5Q289 -6 233 -6Q183 -6 143.5 11.5Q104 29 78.5 62.5Q53 96 42 144Q31 192 39 253L42 277Q57 399 119 467.5Q181 536 282 536Q340 536 378 516Q416 496 437 461Q458 426 463 377Q468 328 461 271L459 255Z" glyph-name="ecircumflex" horiz-adv-x="530" unicode="&#234;" /><glyph d="M395 680H355L360 720H400ZM255 680H215L220 720H260ZM282 516Q190 516 133 452Q76 388 62 275H442Q449 328 443.5 372Q438 416 419 448Q400 480 366 498Q332 516 282 516ZM59 255Q52 199 61 154Q70 109 93 78Q116 47 151.5 30.5Q187 14 233 14Q285 14 320.5 26.5Q356 39 379 60.5Q402 82 413.5 110.5Q425 139 428 170H448L446 154Q443 125 430 96.5Q417 68 392 45.5Q367 23 328 8.5Q289 -6 233 -6Q183 -6 143.5 11.5Q104 29 78.5 62.5Q53 96 42 144Q31 192 39 253L42 277Q57 399 119 467.5Q181 536 282 536Q340 536 378 516Q416 496 437 461Q458 426 463 377Q468 328 461 271L459 255Z" glyph-name="edieresis" horiz-adv-x="530" unicode="&#235;" /><glyph d="M325 680H285L290 720H330ZM282 516Q190 516 133 452Q76 388 62 275H442Q449 328 443.5 372Q438 416 419 448Q400 480 366 498Q332 516 282 516ZM59 255Q52 199 61 154Q70 109 93 78Q116 47 151.5 30.5Q187 14 233 14Q285 14 320.5 26.5Q356 39 379 60.5Q402 82 413.5 110.5Q425 139 428 170H448L446 154Q443 125 430 96.5Q417 68 392 45.5Q367 23 328 8.5Q289 -6 233 -6Q183 -6 143.5 11.5Q104 29 78.5 62.5Q53 96 42 144Q31 192 39 253L42 277Q57 399 119 467.5Q181 536 282 536Q340 536 378 516Q416 496 437 461Q458 426 463 377Q468 328 461 271L459 255Z" glyph-name="edotaccent" horiz-adv-x="530" unicode="&#279;" /><glyph d="M239 780 308 620H286L217 780ZM282 516Q190 516 133 452Q76 388 62 275H442Q449 328 443.5 372Q438 416 419 448Q400 480 366 498Q332 516 282 516ZM59 255Q52 199 61 154Q70 109 93 78Q116 47 151.5 30.5Q187 14 233 14Q285 14 320.5 26.5Q356 39 379 60.5Q402 82 413.5 110.5Q425 139 428 170H448L446 154Q443 125 430 96.5Q417 68 392 45.5Q367 23 328 8.5Q289 -6 233 -6Q183 -6 143.5 11.5Q104 29 78.5 62.5Q53 96 42 144Q31 192 39 253L42 277Q57 399 119 467.5Q181 536 282 536Q340 536 378 516Q416 496 437 461Q458 426 463 377Q468 328 461 271L459 255Z" glyph-name="egrave" horiz-adv-x="530" unicode="&#232;" /><glyph d="M340 766Q295 766 256 754.5Q217 743 187 721.5Q157 700 138.5 668.5Q120 637 115 598L112 574Q102 493 146 450.5Q190 408 281 408H325Q413 408 470.5 449Q528 490 538 568L541 592Q546 633 532.5 665Q519 697 492 719.5Q465 742 427.5 754Q390 766 348 766ZM279 388Q186 388 128.5 347Q71 306 60 219L57 195Q51 150 63.5 116Q76 82 102.5 59.5Q129 37 167.5 25.5Q206 14 253 14H261Q307 14 347.5 25Q388 36 418.5 57.5Q449 79 468.5 111.5Q488 144 494 188L497 212Q508 300 464.5 344Q421 388 325 388ZM559 568Q554 531 538.5 501Q523 471 499.5 449.5Q476 428 445 415Q414 402 380 398Q450 390 489 342Q528 294 518 212L515 188Q509 137 486.5 100.5Q464 64 430 40.5Q396 17 352 5.5Q308 -6 257 -6Q206 -6 163 6.5Q120 19 89.5 44Q59 69 44.5 106.5Q30 144 36 195L39 219Q50 302 95 344.5Q140 387 211 398Q149 410 115.5 456Q82 502 91 574L94 598Q100 644 120.5 679Q141 714 174 738Q207 762 250 774Q293 786 344 786Q393 786 435.5 773Q478 760 508 735Q538 710 553 674Q568 638 562 592Z" glyph-name="eight" horiz-adv-x="600" unicode="8" /><glyph d="M120 176Q75 176 47 153Q19 130 15 94L14 84Q10 45 33.5 26.5Q57 8 96 8H108Q127 8 144.5 12.5Q162 17 176 26Q190 35 199.5 49.5Q209 64 211 85L212 95Q216 133 193.5 154.5Q171 176 126 176ZM91 -12Q72 -12 54 -17Q36 -22 22 -32Q8 -42 -1.5 -57.5Q-11 -73 -13 -94L-14 -104Q-16 -127 -10 -142.5Q-4 -158 8 -167.5Q20 -177 38 -181.5Q56 -186 77 -186H83Q122 -186 153 -166.5Q184 -147 189 -104L190 -94Q195 -51 171 -31.5Q147 -12 108 -12ZM80 -205Q27 -205 -6.5 -181Q-40 -157 -35 -104L-34 -94Q-30 -53 -5.5 -31Q19 -9 51 -1Q23 7 6 28.5Q-11 50 -7 85L-6 95Q-1 142 33 168.5Q67 195 123 195Q178 195 208 169.5Q238 144 233 96L232 86Q228 49 206.5 27Q185 5 151 -2Q180 -8 197.5 -32Q215 -56 211 -94L210 -104Q207 -129 196 -148Q185 -167 167.5 -179.5Q150 -192 127.5 -198.5Q105 -205 80 -205Z" glyph-name="eight.inf" horiz-adv-x="300" unicode="&#58745;" /><glyph d="M1228 226Q1195 226 1166 207Q1137 188 1123 162Q1121 151 1119 139Q1117 127 1117 113Q1117 65 1141.5 39.5Q1166 14 1207 14H1213Q1258 14 1286.5 40.5Q1315 67 1320 115L1321 125Q1326 176 1300.5 201Q1275 226 1234 226ZM1357 375Q1317 375 1273.5 361Q1230 347 1192 305Q1170 281 1154.5 252.5Q1139 224 1131 198Q1147 218 1174 231.5Q1201 245 1231 245Q1284 245 1316 217Q1348 189 1342 126L1341 116Q1335 53 1298.5 24Q1262 -5 1210 -5Q1151 -5 1121.5 31Q1092 67 1098 130L1099 140Q1104 183 1121.5 229.5Q1139 276 1177 318Q1219 363 1268 379Q1317 395 1360 395ZM787 0 790 20H898L943 362L827 291L817 309L952 392H967L918 20H1025L1022 0ZM351 0 1027 780H1053L377 0ZM338 390 341 410H449L494 752L378 681L368 699L503 782H518L469 410H576L573 390ZM38 390 41 410H149L194 752L78 681L68 699L203 782H218L169 410H276L273 390Z" glyph-name="elevensixteenths" horiz-adv-x="1400" unicode="&#61984;" /><glyph d="M471 0H431L436 40H476ZM791 0H751L756 40H796ZM151 0H111L116 40H156Z" glyph-name="ellipsis" horiz-adv-x="1000" unicode="&#8230;" /><glyph d="M209 710H409L406 690H206ZM282 516Q190 516 133 452Q76 388 62 275H442Q449 328 443.5 372Q438 416 419 448Q400 480 366 498Q332 516 282 516ZM59 255Q52 199 61 154Q70 109 93 78Q116 47 151.5 30.5Q187 14 233 14Q285 14 320.5 26.5Q356 39 379 60.5Q402 82 413.5 110.5Q425 139 428 170H448L446 154Q443 125 430 96.5Q417 68 392 45.5Q367 23 328 8.5Q289 -6 233 -6Q183 -6 143.5 11.5Q104 29 78.5 62.5Q53 96 42 144Q31 192 39 253L42 277Q57 399 119 467.5Q181 536 282 536Q340 536 378 516Q416 496 437 461Q458 426 463 377Q468 328 461 271L459 255Z" glyph-name="emacron" horiz-adv-x="530" unicode="&#275;" /><glyph d="M47 350H947L944 330H44Z" glyph-name="emdash" horiz-adv-x="1000" unicode="&#8212;" /><glyph d="M54 400H954L951 380H51Z" glyph-name="emdash.cap" horiz-adv-x="1000" unicode="&#58502;" /><glyph glyph-name="emspace" horiz-adv-x="1000" unicode="&#8195;" /><glyph d="M47 350H447L444 330H44Z" glyph-name="endash" horiz-adv-x="500" unicode="&#8211;" /><glyph d="M54 400H454L451 380H51Z" glyph-name="endash.cap" horiz-adv-x="500" unicode="&#58500;" /><glyph d="M372 -69Q367 -110 352.5 -136Q338 -162 318 -178Q298 -194 273.5 -200Q249 -206 223 -206Q195 -206 179.5 -202Q164 -198 161 -196L163 -176Q169 -179 186 -182.5Q203 -186 222 -186Q247 -186 269 -180.5Q291 -175 308 -161.5Q325 -148 336.5 -124Q348 -100 353 -63L410 374Q415 413 408 440.5Q401 468 383.5 484.5Q366 501 340.5 508.5Q315 516 283 516Q247 516 218 507Q189 498 166 483.5Q143 469 125.5 452Q108 435 96 419L41 0H21L75 412L85 530H101L96 444Q108 460 125 476Q142 492 165 505.5Q188 519 217 527.5Q246 536 283 536Q358 536 399.5 499.5Q441 463 431 381Z" glyph-name="eng" horiz-adv-x="490" unicode="&#331;" /><glyph glyph-name="enspace" horiz-adv-x="500" unicode="&#8194;" /><glyph d="M282 516Q190 516 133 452Q76 388 62 275H442Q449 328 443.5 372Q438 416 419 448Q400 480 366 498Q332 516 282 516ZM316 -187Q302 -195 284 -200.5Q266 -206 237 -206Q203 -206 179 -187.5Q155 -169 155 -129Q155 -81 179 -52Q203 -23 237 -6H233Q183 -6 143.5 11.5Q104 29 78.5 62.5Q53 96 42 144Q31 192 39 253L42 277Q57 399 119 467.5Q181 536 282 536Q340 536 378 516Q416 496 437 461Q458 426 463 377Q468 328 461 271L459 255H59Q52 199 61 154Q70 109 93 78Q116 47 151.5 30.5Q187 14 233 14Q285 14 320.5 26.5Q356 39 379 60.5Q402 82 413.5 110.5Q425 139 428 170H448L446 154Q443 130 433.5 105.5Q424 81 406.5 60Q389 39 362 23Q335 7 297 0Q279 -3 257.5 -12.5Q236 -22 217 -37.5Q198 -53 185.5 -76Q173 -99 173 -129Q173 -162 192 -175Q211 -188 237 -188Q263 -188 281.5 -182Q300 -176 312 -170Z" glyph-name="eogonek" horiz-adv-x="530" unicode="&#281;" /><glyph d="M40 300H539L536 280H37ZM66 500H565L562 480H63Z" glyph-name="equal" horiz-adv-x="600" unicode="=" /><glyph d="M-30 -45H220L217 -65H-33ZM-16 55H234L231 35H-19Z" glyph-name="equal.inf" horiz-adv-x="300" unicode="&#58749;" /><glyph d="M27 200H526L523 180H24ZM53 400H552L549 380H50ZM79 600H578L575 580H76Z" glyph-name="equivalence" horiz-adv-x="600" unicode="&#8801;" /><glyph d="M419 782 312 723Q355 689 393 637Q422 598 438 553Q454 508 460.5 461.5Q467 415 466 368Q465 321 459 277L456 253Q441 131 381 62.5Q321 -6 220 -6Q119 -6 71.5 62.5Q24 131 39 253L42 277Q57 399 117 467.5Q177 536 278 536Q343 536 385 507.5Q427 479 445 425Q440 478 425 529Q410 580 379 623Q359 651 336.5 672.5Q314 694 291 711L127 622L131 646L273 724Q231 752 188 766.5Q145 781 110 786L113 806Q159 800 204.5 783.5Q250 767 294 736L423 806ZM220 14Q312 14 367 77.5Q422 141 436 253L439 277Q453 389 411.5 452.5Q370 516 278 516Q186 516 131 452.5Q76 389 62 277L59 253Q45 141 86.5 77.5Q128 14 220 14Z" glyph-name="eth" horiz-adv-x="526" unicode="&#240;" /><glyph d="M61 0H21L26 40H66ZM153 780 71 175H57L133 780Z" glyph-name="exclam" horiz-adv-x="180" unicode="!" /><glyph d="M90 530H130L125 490H85ZM4 -200 80 355H94L24 -200Z" glyph-name="exclamdown" horiz-adv-x="180" unicode="&#161;" /><glyph d="M123 780H163L158 740H118ZM31 0 113 605H127L51 0Z" glyph-name="exclamdown.cap" horiz-adv-x="180" unicode="&#58433;" /><glyph d="M155 530H320L317 510H153L86 0H66L133 510H47L50 530H135L156 685Q161 723 174.5 746.5Q188 770 207.5 783.5Q227 797 250 801.5Q273 806 298 806Q324 806 343 800.5Q362 795 365 793L362 773Q357 775 339.5 780.5Q322 786 298 786Q274 786 253.5 781.5Q233 777 216.5 764Q200 751 189 729Q178 707 174 672Z" glyph-name="f" horiz-adv-x="340" unicode="f" /><glyph d="M286 875H246L251 915H291ZM155 530H320L317 510H153L86 0H66L133 510H47L50 530H135L156 685Q161 723 174.5 746.5Q188 770 207.5 783.5Q227 797 250 801.5Q273 806 298 806Q324 806 343 800.5Q362 795 365 793L362 773Q357 775 339.5 780.5Q322 786 298 786Q274 786 253.5 781.5Q233 777 216.5 764Q200 751 189 729Q178 707 174 672Z" glyph-name="fdotaccent" horiz-adv-x="340" unicode="&#7711;" /><glyph d="M490 680H450L455 720H495ZM440 530H460L391 0H371ZM155 530H320L317 510H153L86 0H66L133 510H47L50 530H135L156 685Q161 723 174.5 746.5Q188 770 207.5 783.5Q227 797 250 801.5Q273 806 298 806Q324 806 343 800.5Q362 795 365 793L362 773Q357 775 339.5 780.5Q322 786 298 786Q274 786 253.5 781.5Q233 777 216.5 764Q200 751 189 729Q178 707 174 672Z" glyph-name="fi" horiz-adv-x="520" unicode="&#64257;" /><glyph d="M1228 226Q1195 226 1166 207Q1137 188 1123 162Q1121 151 1119 139Q1117 127 1117 113Q1117 65 1141.5 39.5Q1166 14 1207 14H1213Q1258 14 1286.5 40.5Q1315 67 1320 115L1321 125Q1326 176 1300.5 201Q1275 226 1234 226ZM1357 375Q1317 375 1273.5 361Q1230 347 1192 305Q1170 281 1154.5 252.5Q1139 224 1131 198Q1147 218 1174 231.5Q1201 245 1231 245Q1284 245 1316 217Q1348 189 1342 126L1341 116Q1335 53 1298.5 24Q1262 -5 1210 -5Q1151 -5 1121.5 31Q1092 67 1098 130L1099 140Q1104 183 1121.5 229.5Q1139 276 1177 318Q1219 363 1268 379Q1317 395 1360 395ZM787 0 790 20H898L943 362L827 291L817 309L952 392H967L918 20H1025L1022 0ZM351 0 1027 780H1053L377 0ZM354 559 393 780H620L617 760H409L380 595Q416 635 478 635Q502 635 524 628Q546 621 561.5 606.5Q577 592 585 569.5Q593 547 590 516L589 506Q586 476 574.5 453.5Q563 431 545 415.5Q527 400 504.5 392.5Q482 385 457 385Q393 385 366 417.5Q339 450 344 505L345 515H365Q355 454 381 429Q407 404 454 404H460Q479 404 497.5 410Q516 416 531 428.5Q546 441 555.5 460Q565 479 568 505L569 515Q574 568 547 592Q520 616 481 616H475Q444 616 415.5 601Q387 586 371 555ZM38 390 41 410H149L194 752L78 681L68 699L203 782H218L169 410H276L273 390Z" glyph-name="fifteensixteenths" horiz-adv-x="1400" unicode="&#61986;" /><glyph d="M47 350H547L544 330H44Z" glyph-name="figuredash" horiz-adv-x="600" unicode="&#8210;" /><glyph d="M54 400H554L551 380H51Z" glyph-name="figuredash.cap" horiz-adv-x="600" unicode="&#58503;" /><glyph glyph-name="figurespace" horiz-adv-x="600" unicode="&#8199;" /><glyph d="M304 466Q220 466 166.5 432.5Q113 399 80 333L61 339L138 780H583L580 760H155L89 380Q118 428 171.5 457Q225 486 308 486Q359 486 401.5 470.5Q444 455 473.5 425Q503 395 517 351.5Q531 308 524 252L521 228Q514 172 491 128.5Q468 85 432.5 55Q397 25 352.5 9.5Q308 -6 257 -6Q133 -6 79.5 55Q26 116 40 226L43 250H63Q53 189 61.5 144.5Q70 100 94.5 71Q119 42 159 28Q199 14 253 14H261Q307 14 348 29Q389 44 420.5 71.5Q452 99 473 138.5Q494 178 500 228L503 252Q509 301 497.5 341Q486 381 460 408.5Q434 436 396 451Q358 466 312 466Z" glyph-name="five" horiz-adv-x="600" unicode="5" /><glyph d="M-23 -31 16 190H243L240 170H32L3 5Q39 45 101 45Q125 45 147 38Q169 31 184.5 16.5Q200 2 208 -20.5Q216 -43 213 -74L212 -84Q209 -114 197.5 -136.5Q186 -159 168 -174.5Q150 -190 127.5 -197.5Q105 -205 80 -205Q16 -205 -11 -172.5Q-38 -140 -33 -85L-32 -75H-12Q-22 -136 4 -161Q30 -186 77 -186H83Q102 -186 120.5 -180Q139 -174 154 -161.5Q169 -149 178.5 -130Q188 -111 191 -85L192 -75Q197 -22 170 2Q143 26 104 26H98Q67 26 38.5 11Q10 -4 -6 -35Z" glyph-name="five.inf" horiz-adv-x="300" unicode="&#58742;" /><glyph d="M928 226Q895 226 866 207Q837 188 823 162Q821 151 819 139Q817 127 817 113Q817 65 841.5 39.5Q866 14 907 14H913Q958 14 986.5 40.5Q1015 67 1020 115L1021 125Q1026 176 1000.5 201Q975 226 934 226ZM1057 375Q1017 375 973.5 361Q930 347 892 305Q870 281 854.5 252.5Q839 224 831 198Q847 218 874 231.5Q901 245 931 245Q984 245 1016 217Q1048 189 1042 126L1041 116Q1035 53 998.5 24Q962 -5 910 -5Q851 -5 821.5 31Q792 67 798 130L799 140Q804 183 821.5 229.5Q839 276 877 318Q919 363 968 379Q1017 395 1060 395ZM487 0 490 20H598L643 362L527 291L517 309L652 392H667L618 20H725L722 0ZM51 0 727 780H753L77 0ZM54 559 93 780H320L317 760H109L80 595Q116 635 178 635Q202 635 224 628Q246 621 261.5 606.5Q277 592 285 569.5Q293 547 290 516L289 506Q286 476 274.5 453.5Q263 431 245 415.5Q227 400 204.5 392.5Q182 385 157 385Q93 385 66 417.5Q39 450 44 505L45 515H65Q55 454 81 429Q107 404 154 404H160Q179 404 197.5 410Q216 416 231 428.5Q246 441 255.5 460Q265 479 268 505L269 515Q274 568 247 592Q220 616 181 616H175Q144 616 115.5 601Q87 586 71 555Z" glyph-name="fivesixteenths" horiz-adv-x="1100" unicode="&#61975;" /><glyph d="M476 800H496L391 0H371ZM155 530H320L317 510H153L86 0H66L133 510H47L50 530H135L156 685Q161 723 174.5 746.5Q188 770 207.5 783.5Q227 797 250 801.5Q273 806 298 806Q324 806 343 800.5Q362 795 365 793L362 773Q357 775 339.5 780.5Q322 786 298 786Q274 786 253.5 781.5Q233 777 216.5 764Q200 751 189 729Q178 707 174 672Z" glyph-name="fl" horiz-adv-x="520" unicode="&#64258;" /><glyph d="M50 249 163 250H374L420 600L442 753ZM341 0 371 230H21L23 245L439 780H464L394 250H543L540 230H391L361 0Z" glyph-name="four" horiz-adv-x="600" unicode="4" /><glyph d="M-15 -71 37 -70H132L161 152ZM115 -200 129 -90H-44L-42 -75L167 190H186L152 -70H224L221 -90H149L135 -200Z" glyph-name="four.inf" horiz-adv-x="300" unicode="&#58741;" /><glyph glyph-name="fourperemspace" horiz-adv-x="250" unicode="&#8197;" /><glyph d="M-249 0 427 780H453L-223 0Z" glyph-name="fraction" horiz-adv-x="200" unicode="&#8260;" /><glyph d="M426 423Q418 438 405 454.5Q392 471 373 484.5Q354 498 328.5 507Q303 516 271 516Q187 516 132.5 462Q78 408 64 297L61 273Q47 162 91 108Q135 54 219 54Q280 54 321 83Q362 112 390 151ZM180 -206Q75 -206 34 -155Q-7 -104 4 -16L6 0H26Q12 -94 47 -140Q82 -186 180 -186Q226 -186 259.5 -173Q293 -160 316 -136Q339 -112 352.5 -77.5Q366 -43 371 0L386 120Q375 105 359.5 89.5Q344 74 323.5 62Q303 50 276.5 42Q250 34 219 34Q172 34 136 48.5Q100 63 76 92.5Q52 122 42.5 167Q33 212 41 273L44 297Q59 419 118 477.5Q177 536 271 536Q304 536 330 528Q356 520 376 507Q396 494 410 478.5Q424 463 432 447L450 530H465L444 408L389 -13Q383 -56 368.5 -91.5Q354 -127 328.5 -152.5Q303 -178 266.5 -192Q230 -206 180 -206Z" glyph-name="g" horiz-adv-x="510" unicode="g" /><glyph d="M289 614Q251 614 224 627.5Q197 641 181.5 663.5Q166 686 160.5 716Q155 746 160 780H177Q173 750 177 723Q181 696 194.5 676Q208 656 231 644Q254 632 289 632Q324 632 350.5 644Q377 656 396 676Q415 696 426 723Q437 750 441 780H460Q455 746 442.5 716Q430 686 408.5 663.5Q387 641 357.5 627.5Q328 614 289 614ZM426 423Q418 438 405 454.5Q392 471 373 484.5Q354 498 328.5 507Q303 516 271 516Q187 516 132.5 462Q78 408 64 297L61 273Q47 162 91 108Q135 54 219 54Q280 54 321 83Q362 112 390 151ZM180 -206Q75 -206 34 -155Q-7 -104 4 -16L6 0H26Q12 -94 47 -140Q82 -186 180 -186Q226 -186 259.5 -173Q293 -160 316 -136Q339 -112 352.5 -77.5Q366 -43 371 0L386 120Q375 105 359.5 89.5Q344 74 323.5 62Q303 50 276.5 42Q250 34 219 34Q172 34 136 48.5Q100 63 76 92.5Q52 122 42.5 167Q33 212 41 273L44 297Q59 419 118 477.5Q177 536 271 536Q304 536 330 528Q356 520 376 507Q396 494 410 478.5Q424 463 432 447L450 530H465L444 408L389 -13Q383 -56 368.5 -91.5Q354 -127 328.5 -152.5Q303 -178 266.5 -192Q230 -206 180 -206Z" glyph-name="gbreve" horiz-adv-x="510" unicode="&#287;" /><glyph d="M400 620 309 762 180 620H154L300 780H320L424 620ZM426 423Q418 438 405 454.5Q392 471 373 484.5Q354 498 328.5 507Q303 516 271 516Q187 516 132.5 462Q78 408 64 297L61 273Q47 162 91 108Q135 54 219 54Q280 54 321 83Q362 112 390 151ZM180 -206Q75 -206 34 -155Q-7 -104 4 -16L6 0H26Q12 -94 47 -140Q82 -186 180 -186Q226 -186 259.5 -173Q293 -160 316 -136Q339 -112 352.5 -77.5Q366 -43 371 0L386 120Q375 105 359.5 89.5Q344 74 323.5 62Q303 50 276.5 42Q250 34 219 34Q172 34 136 48.5Q100 63 76 92.5Q52 122 42.5 167Q33 212 41 273L44 297Q59 419 118 477.5Q177 536 271 536Q304 536 330 528Q356 520 376 507Q396 494 410 478.5Q424 463 432 447L450 530H465L444 408L389 -13Q383 -56 368.5 -91.5Q354 -127 328.5 -152.5Q303 -178 266.5 -192Q230 -206 180 -206Z" glyph-name="gcircumflex" horiz-adv-x="510" unicode="&#285;" /><glyph d="M277 682Q285 739 312 762.5Q339 786 371 786L369 766Q360 766 349 763.5Q338 761 328 753Q318 745 310 730Q302 715 298 690H318L313 650H273ZM426 423Q418 438 405 454.5Q392 471 373 484.5Q354 498 328.5 507Q303 516 271 516Q187 516 132.5 462Q78 408 64 297L61 273Q47 162 91 108Q135 54 219 54Q280 54 321 83Q362 112 390 151ZM180 -206Q75 -206 34 -155Q-7 -104 4 -16L6 0H26Q12 -94 47 -140Q82 -186 180 -186Q226 -186 259.5 -173Q293 -160 316 -136Q339 -112 352.5 -77.5Q366 -43 371 0L386 120Q375 105 359.5 89.5Q344 74 323.5 62Q303 50 276.5 42Q250 34 219 34Q172 34 136 48.5Q100 63 76 92.5Q52 122 42.5 167Q33 212 41 273L44 297Q59 419 118 477.5Q177 536 271 536Q304 536 330 528Q356 520 376 507Q396 494 410 478.5Q424 463 432 447L450 530H465L444 408L389 -13Q383 -56 368.5 -91.5Q354 -127 328.5 -152.5Q303 -178 266.5 -192Q230 -206 180 -206Z" glyph-name="gcommaaccent" horiz-adv-x="510" unicode="&#291;" /><glyph d="M317 680H277L282 720H322ZM426 423Q418 438 405 454.5Q392 471 373 484.5Q354 498 328.5 507Q303 516 271 516Q187 516 132.5 462Q78 408 64 297L61 273Q47 162 91 108Q135 54 219 54Q280 54 321 83Q362 112 390 151ZM180 -206Q75 -206 34 -155Q-7 -104 4 -16L6 0H26Q12 -94 47 -140Q82 -186 180 -186Q226 -186 259.5 -173Q293 -160 316 -136Q339 -112 352.5 -77.5Q366 -43 371 0L386 120Q375 105 359.5 89.5Q344 74 323.5 62Q303 50 276.5 42Q250 34 219 34Q172 34 136 48.5Q100 63 76 92.5Q52 122 42.5 167Q33 212 41 273L44 297Q59 419 118 477.5Q177 536 271 536Q304 536 330 528Q356 520 376 507Q396 494 410 478.5Q424 463 432 447L450 530H465L444 408L389 -13Q383 -56 368.5 -91.5Q354 -127 328.5 -152.5Q303 -178 266.5 -192Q230 -206 180 -206Z" glyph-name="gdotaccent" horiz-adv-x="510" unicode="&#289;" /><glyph d="M263 408Q309 431 344.5 455Q380 479 404.5 507.5Q429 536 441.5 570Q454 604 454 648Q454 714 419.5 750Q385 786 310 786Q224 786 183 739.5Q142 693 131 610L51 0H31L111 614Q122 702 169.5 754Q217 806 310 806Q361 806 394.5 791Q428 776 446.5 750.5Q465 725 470.5 689.5Q476 654 471 614L470 606Q462 540 414 492Q366 444 285 399L333 365Q372 337 401.5 313.5Q431 290 450 266.5Q469 243 477 216.5Q485 190 481 157L480 149Q477 121 465 93Q453 65 432 43Q411 21 379.5 7.5Q348 -6 305 -6Q260 -6 230.5 7Q201 20 184 41.5Q167 63 162 90Q157 117 160 144L162 160H182Q176 130 180 103.5Q184 77 198.5 57Q213 37 239 25.5Q265 14 305 14Q377 14 420 57.5Q463 101 463 176Q463 205 451.5 228Q440 251 420 271.5Q400 292 372.5 312.5Q345 333 312 356L261 393Z" glyph-name="germandbls" horiz-adv-x="550" unicode="&#223;" /><glyph d="M224 780 293 620H271L202 780Z" glyph-name="grave" horiz-adv-x="500" unicode="`" /><glyph d="M275 950 322 840H300L253 950Z" glyph-name="grave.cap" horiz-adv-x="500" unicode="&#58401;" /><glyph d="M17 134 20 157 531 391 82 625 85 646 552 399 550 381Z" glyph-name="greater" horiz-adv-x="600" unicode="&gt;" /><glyph d="M546 347 543 324 17 134 20 157ZM82 625 85 646 560 456 558 438 32 248 35 271 529 448Z" glyph-name="greaterequal" horiz-adv-x="600" unicode="&#8805;" /><glyph d="M464 479 263 338 427 197 423 174 244 330 247 350 467 506ZM264 479 63 338 227 197 223 174 44 330 47 350 267 506Z" glyph-name="guillemotleft" horiz-adv-x="500" unicode="&#171;" /><glyph d="M471 529 270 388 434 247 430 224 251 380 254 400 474 556ZM271 529 70 388 234 247 230 224 51 380 54 400 274 556Z" glyph-name="guillemotleft.cap" horiz-adv-x="500" unicode="&#58451;" /><glyph d="M27 201 228 342 64 483 68 506 247 350 244 330 24 174ZM227 201 428 342 264 483 268 506 447 350 444 330 224 174Z" glyph-name="guillemotright" horiz-adv-x="500" unicode="&#187;" /><glyph d="M34 251 235 392 71 533 75 556 254 400 251 380 31 224ZM234 251 435 392 271 533 275 556 454 400 451 380 231 224Z" glyph-name="guillemotright.cap" horiz-adv-x="500" unicode="&#58452;" /><glyph d="M264 479 63 338 227 197 223 174 44 330 47 350 267 506Z" glyph-name="guilsinglleft" horiz-adv-x="300" unicode="&#8249;" /><glyph d="M271 529 70 388 234 247 230 224 51 380 54 400 274 556Z" glyph-name="guilsinglleft.cap" horiz-adv-x="300" unicode="&#58449;" /><glyph d="M27 201 228 342 64 483 68 506 247 350 244 330 24 174Z" glyph-name="guilsinglright" horiz-adv-x="300" unicode="&#8250;" /><glyph d="M34 251 235 392 71 533 75 556 254 400 251 380 31 224Z" glyph-name="guilsinglright.cap" horiz-adv-x="300" unicode="&#58450;" /><glyph d="M126 800H146L100 449Q112 464 129 479.5Q146 495 168.5 507.5Q191 520 219.5 528Q248 536 283 536Q358 536 399.5 499.5Q441 463 431 381L381 0H361L410 374Q415 413 408 440.5Q401 468 383.5 484.5Q366 501 340.5 508.5Q315 516 283 516Q247 516 218 507Q189 498 166 483.5Q143 469 125.5 452Q108 435 96 419L41 0H21Z" glyph-name="h" horiz-adv-x="490" unicode="h" /><glyph glyph-name="hairspace" horiz-adv-x="50" unicode="&#8202;" /><glyph d="M5 675H110L126 800H146L130 675H295L292 655H127L100 449Q112 464 129 479.5Q146 495 168.5 507.5Q191 520 219.5 528Q248 536 283 536Q358 536 399.5 499.5Q441 463 431 381L381 0H361L410 374Q415 413 408 440.5Q401 468 383.5 484.5Q366 501 340.5 508.5Q315 516 283 516Q247 516 218 507Q189 498 166 483.5Q143 469 125.5 452Q108 435 96 419L41 0H21L107 655H2Z" glyph-name="hbar" horiz-adv-x="490" unicode="&#295;" /><glyph d="M31 840 146 950H166L251 840H228L155 935L56 840ZM126 800H146L100 449Q112 464 129 479.5Q146 495 168.5 507.5Q191 520 219.5 528Q248 536 283 536Q358 536 399.5 499.5Q441 463 431 381L381 0H361L410 374Q415 413 408 440.5Q401 468 383.5 484.5Q366 501 340.5 508.5Q315 516 283 516Q247 516 218 507Q189 498 166 483.5Q143 469 125.5 452Q108 435 96 419L41 0H21Z" glyph-name="hcircumflex" horiz-adv-x="490" unicode="&#293;" /><glyph d="M449 -10Q437 9 414 40Q391 71 360 110Q329 149 292.5 193.5Q256 238 216 283Q190 312 161 348Q132 384 108 423.5Q84 463 68 504Q52 545 52 584Q52 628 65 666Q78 704 103 731.5Q128 759 163.5 774.5Q199 790 243 790Q289 790 323 777Q357 764 381 742.5Q405 721 421 692.5Q437 664 448 633H452Q463 664 479 692.5Q495 721 519 742.5Q543 764 576.5 777Q610 790 657 790Q701 790 736.5 774.5Q772 759 796.5 731.5Q821 704 834.5 666Q848 628 848 584Q848 545 832 504Q816 463 792 423.5Q768 384 739 348Q710 312 684 283Q644 238 607.5 193.5Q571 149 540 110Q509 71 486 40Q463 9 451 -10Z" glyph-name="heart" horiz-adv-x="900" unicode="&#9829;" /><glyph d="M70 0V450L425 790L780 450V0Z" glyph-name="house" horiz-adv-x="850" unicode="&#8962;" /><glyph d="M354 780 243 620H221L332 780ZM454 780 343 620H321L432 780Z" glyph-name="hungarumlaut" horiz-adv-x="500" unicode="&#733;" /><glyph d="M349 950 272 840H250L327 950ZM449 950 372 840H350L427 950Z" glyph-name="hungarumlaut.cap" horiz-adv-x="500" unicode="&#58411;" /><glyph d="M47 350H267L264 330H44Z" glyph-name="hyphen" horiz-adv-x="320" unicode="-" /><glyph d="M54 400H274L271 380H51Z" glyph-name="hyphen.cap" horiz-adv-x="320" unicode="&#58498;" /><glyph d="M150 680H110L115 720H155ZM100 530H120L51 0H31Z" glyph-name="i" horiz-adv-x="180" unicode="i" /><glyph d="M244 780 133 620H111L222 780ZM100 530H120L51 0H31Z" glyph-name="iacute" horiz-adv-x="180" unicode="&#237;" /><glyph d="M122 614Q84 614 57 627.5Q30 641 14.5 663.5Q-1 686 -6.5 716Q-12 746 -7 780H10Q6 750 10 723Q14 696 27.5 676Q41 656 64 644Q87 632 122 632Q157 632 183.5 644Q210 656 229 676Q248 696 259 723Q270 750 274 780H293Q288 746 275.5 716Q263 686 241.5 663.5Q220 641 190.5 627.5Q161 614 122 614ZM100 530H120L51 0H31Z" glyph-name="ibreve" horiz-adv-x="180" unicode="&#301;" /><glyph d="M233 620 142 762 13 620H-13L133 780H153L257 620ZM100 530H120L51 0H31Z" glyph-name="icircumflex" horiz-adv-x="180" unicode="&#238;" /><glyph d="M220 680H180L185 720H225ZM80 680H40L45 720H85ZM100 530H120L51 0H31Z" glyph-name="idieresis" horiz-adv-x="180" unicode="&#239;" /><glyph d="M150 680H110L115 720H155ZM100 530H120L51 0H31Z" glyph-name="idotaccent" horiz-adv-x="180" unicode="&#59269;" /><glyph d="M64 780 133 620H111L42 780ZM100 530H120L51 0H31Z" glyph-name="igrave" horiz-adv-x="180" unicode="&#236;" /><glyph d="M290 680H250L255 720H295ZM240 530H260L182 -69Q177 -110 162.5 -136Q148 -162 128 -178Q108 -194 83.5 -200Q59 -206 33 -206Q5 -206 -10.5 -202Q-26 -198 -29 -196L-27 -176Q-21 -179 -4 -182.5Q13 -186 32 -186Q57 -186 79 -180.5Q101 -175 118 -161.5Q135 -148 146.5 -124Q158 -100 163 -63ZM150 680H110L115 720H155ZM100 530H120L51 0H31Z" glyph-name="ij" horiz-adv-x="320" unicode="&#307;" /><glyph d="M34 710H234L231 690H31ZM100 530H120L51 0H31Z" glyph-name="imacron" horiz-adv-x="180" unicode="&#299;" /><glyph d="M191 0H151L156 40H196ZM409 575Q413 609 410 642.5Q407 676 393 703Q379 730 351.5 747Q324 764 281 766L212 263Q233 312 264 349.5Q295 387 325.5 421.5Q356 456 379.5 492Q403 528 409 575ZM187 175 261 766Q176 761 131 692.5Q86 624 69 500H49L50 507Q67 637 122.5 711.5Q178 786 277 786Q327 786 359 767.5Q391 749 408.5 720Q426 691 430.5 654.5Q435 618 430 582Q424 540 407 507Q390 474 367.5 445.5Q345 417 318.5 389.5Q292 362 268.5 331Q245 300 226.5 262Q208 224 201 175Z" glyph-name="interrobang" horiz-adv-x="440" unicode="&#8253;" /><glyph d="M220 530H260L255 490H215ZM0 -45Q0 -72 7 -97.5Q14 -123 30 -142.5Q46 -162 72 -173.5Q98 -185 136 -186L197 265Q182 232 162 207Q142 182 120 160.5Q98 139 76.5 118Q55 97 38 73.5Q21 50 10.5 21.5Q0 -7 0 -45ZM141 -206Q97 -206 66.5 -193Q36 -180 16.5 -158Q-3 -136 -12 -106.5Q-21 -77 -21 -44Q-21 3 -6 37Q9 71 32.5 98.5Q56 126 84 151Q112 176 138 204.5Q164 233 183.5 269Q203 305 210 355H224L156 -185Q237 -180 285.5 -115.5Q334 -51 345 60H365L362 36Q355 -19 337.5 -64Q320 -109 292.5 -140.5Q265 -172 227 -189Q189 -206 141 -206Z" glyph-name="interrobangdown" horiz-adv-x="440" unicode="&#59701;" /><glyph d="M253 780H293L288 740H248ZM33 165Q33 136 39.5 110Q46 84 61.5 63Q77 42 102 29Q127 16 163 14L231 517Q216 482 196 453.5Q176 425 154 399Q132 373 110.5 348.5Q89 324 71.5 296.5Q54 269 43.5 237Q33 205 33 165ZM174 -6Q130 -6 99.5 8Q69 22 49.5 45.5Q30 69 21 100Q12 131 12 166Q12 214 27 251.5Q42 289 65.5 321Q89 353 117 382.5Q145 412 171 445Q197 478 216.5 516.5Q236 555 243 605H257L183 14Q267 18 314 88Q361 158 375 280H395L392 256Q385 198 368 150Q351 102 324 67.5Q297 33 259.5 13.5Q222 -6 174 -6Z" glyph-name="interrobangdown.cap" horiz-adv-x="440" unicode="&#59803;" /><glyph d="M303 786Q341 786 367.5 772.5Q394 759 410 736.5Q426 714 431 684Q436 654 432 620H415Q419 650 415 677Q411 704 397.5 724Q384 744 360.5 756Q337 768 303 768Q268 768 241.5 756Q215 744 196 724Q177 704 166 677Q155 650 151 620H132Q136 654 149 684Q162 714 183.5 736.5Q205 759 234.5 772.5Q264 786 303 786Z" glyph-name="invertedbreve" horiz-adv-x="500" unicode="&#58385;" /><glyph d="M327 938Q273 938 239.5 911.5Q206 885 200 840H181Q189 893 226 924.5Q263 956 326 956Q389 956 419 924.5Q449 893 441 840H424Q430 885 405.5 911.5Q381 938 327 938Z" glyph-name="invertedbreve.cap" horiz-adv-x="500" unicode="&#58407;" /><glyph d="M70 -187Q56 -195 38 -200.5Q20 -206 -9 -206Q-43 -206 -67 -187.5Q-91 -169 -91 -129Q-91 -98 -80 -75Q-69 -52 -52 -35.5Q-35 -19 -13 -8Q9 3 32 11L100 530H120L51 0Q32 -6 10.5 -15.5Q-11 -25 -29.5 -40Q-48 -55 -60.5 -77Q-73 -99 -73 -129Q-73 -162 -54 -175Q-35 -188 -9 -188Q17 -188 35.5 -182Q54 -176 66 -170ZM150 680H110L115 720H155Z" glyph-name="iogonek" horiz-adv-x="180" unicode="&#303;" /><glyph d="M272 732Q269 711 262 697.5Q255 684 245 676Q235 668 223 665Q211 662 200 662Q180 662 163.5 671Q147 680 131 691Q115 702 99 711Q83 720 65 720Q48 720 32 711Q16 702 11 668H-7Q-4 689 3 702.5Q10 716 20 724Q30 732 42 735Q54 738 65 738Q84 738 101 729Q118 720 134 709Q150 698 166 689Q182 680 200 680Q217 680 233 689Q249 698 254 732ZM100 530H120L51 0H31Z" glyph-name="itilde" horiz-adv-x="180" unicode="&#297;" /><glyph d="M150 680H110L115 720H155ZM100 530H120L42 -69Q37 -110 22.5 -136Q8 -162 -12 -178Q-32 -194 -56.5 -200Q-81 -206 -107 -206Q-135 -206 -150.5 -202Q-166 -198 -169 -196L-167 -176Q-161 -179 -144 -182.5Q-127 -186 -108 -186Q-83 -186 -61 -180.5Q-39 -175 -22 -161.5Q-5 -148 6.5 -124Q18 -100 23 -63Z" glyph-name="j" horiz-adv-x="180" unicode="j" /><glyph d="M233 620 142 762 13 620H-13L133 780H153L257 620ZM100 530H120L42 -69Q37 -110 22.5 -136Q8 -162 -12 -178Q-32 -194 -56.5 -200Q-81 -206 -107 -206Q-135 -206 -150.5 -202Q-166 -198 -169 -196L-167 -176Q-161 -179 -144 -182.5Q-127 -186 -108 -186Q-83 -186 -61 -180.5Q-39 -175 -22 -161.5Q-5 -148 6.5 -124Q18 -100 23 -63Z" glyph-name="jcircumflex" horiz-adv-x="180" unicode="&#309;" /><glyph d="M72 201 417 530H445L234 329L376 0H353L218 314L68 171L46 0H26L131 800H151Z" glyph-name="k" horiz-adv-x="458" unicode="k" /><glyph d="M197 -102Q189 -159 162 -182.5Q135 -206 103 -206L105 -186Q114 -186 125 -183.5Q136 -181 146 -173Q156 -165 164 -150Q172 -135 176 -110H156L161 -70H201ZM72 201 417 530H445L234 329L376 0H353L218 314L68 171L46 0H26L131 800H151Z" glyph-name="kcommaaccent" horiz-adv-x="458" unicode="&#311;" /><glyph d="M115 530 72 201 417 530H445L234 329L376 0H353L218 314L68 171L46 0H26L95 530Z" glyph-name="kgreenlandic" horiz-adv-x="458" unicode="&#312;" /><glyph d="M136 800H156L51 0H31Z" glyph-name="l" horiz-adv-x="180" unicode="l" /><glyph d="M239 950 162 840H140L217 950ZM136 800H156L51 0H31Z" glyph-name="lacute" horiz-adv-x="180" unicode="&#314;" /><glyph d="M263 780 232 620H222L243 780ZM136 800H156L51 0H31Z" glyph-name="lcaron" horiz-adv-x="180" unicode="&#318;" /><glyph d="M47 -102Q39 -159 12 -182.5Q-15 -206 -47 -206L-45 -186Q-36 -186 -25 -183.5Q-14 -181 -4 -173Q6 -165 14 -150Q22 -135 26 -110H6L11 -70H51ZM136 800H156L51 0H31Z" glyph-name="lcommaaccent" horiz-adv-x="180" unicode="&#316;" /><glyph d="M243 320H203L208 360H248ZM136 800H156L51 0H31Z" glyph-name="ldot" horiz-adv-x="280" unicode="&#320;" /><glyph d="M585 646 582 623 71 389 520 155 517 134 50 381 52 399Z" glyph-name="less" horiz-adv-x="600" unicode="&lt;" /><glyph d="M517 134 42 323 45 344 520 155ZM535 269 532 248 57 438 59 456 585 646 582 623 88 446Z" glyph-name="lessequal" horiz-adv-x="600" unicode="&#8804;" /><glyph d="M74 560H573L528 220H508L550 540H71Z" glyph-name="logicalnot" horiz-adv-x="600" unicode="&#172;" /><glyph d="M4 20H224L221 0H1Z" glyph-name="lowline" horiz-adv-x="320" unicode="&#58641;" /><glyph d="M257 505 147 431 91 0H71L125 417L27 351L30 376L129 442L176 800H196L151 456L260 530Z" glyph-name="lslash" horiz-adv-x="260" unicode="&#322;" /><glyph d="M563 536Q595 536 621 528.5Q647 521 664.5 504.5Q682 488 690 461.5Q698 435 693 396L641 0H621L672 389Q677 425 670.5 449.5Q664 474 649 489Q634 504 611.5 510Q589 516 563 516Q533 516 507 507Q481 498 460 483.5Q439 469 422.5 452Q406 435 396 419L394 404Q394 402 393.5 400Q393 398 393 396L341 0H321L372 389Q377 425 370.5 449.5Q364 474 349 489Q334 504 311.5 510Q289 516 263 516Q233 516 207 507Q181 498 160 483.5Q139 469 122.5 452Q106 435 96 419L41 0H21L75 412L85 530H101L96 444Q106 460 122 476Q138 492 159 505.5Q180 519 206 527.5Q232 536 263 536Q316 536 351.5 515Q387 494 393 443Q421 481 463 508.5Q505 536 563 536Z" glyph-name="m" horiz-adv-x="750" unicode="m" /><glyph d="M194 710H394L391 690H191Z" glyph-name="macron" horiz-adv-x="500" unicode="&#175;" /><glyph d="M220 905H420L417 885H217Z" glyph-name="macron.cap" horiz-adv-x="500" unicode="&#58405;" /><glyph d="M440 680H400L405 720H445ZM563 536Q595 536 621 528.5Q647 521 664.5 504.5Q682 488 690 461.5Q698 435 693 396L641 0H621L672 389Q677 425 670.5 449.5Q664 474 649 489Q634 504 611.5 510Q589 516 563 516Q533 516 507 507Q481 498 460 483.5Q439 469 422.5 452Q406 435 396 419L394 404Q394 402 393.5 400Q393 398 393 396L341 0H321L372 389Q377 425 370.5 449.5Q364 474 349 489Q334 504 311.5 510Q289 516 263 516Q233 516 207 507Q181 498 160 483.5Q139 469 122.5 452Q106 435 96 419L41 0H21L75 412L85 530H101L96 444Q106 460 122 476Q138 492 159 505.5Q180 519 206 527.5Q232 536 263 536Q316 536 351.5 515Q387 494 393 443Q421 481 463 508.5Q505 536 563 536Z" glyph-name="mdotaccent" horiz-adv-x="750" unicode="&#7745;" /><glyph d="M64 265Q64 321 85 370.5Q106 420 143 456.5Q180 493 229.5 514.5Q279 536 335 536Q391 536 440.5 514.5Q490 493 526.5 456.5Q563 420 584.5 370.5Q606 321 606 265Q606 209 584.5 159.5Q563 110 526.5 73Q490 36 440.5 15Q391 -6 335 -6Q279 -6 229.5 15Q180 36 143 73Q106 110 85 159.5Q64 209 64 265Z" glyph-name="mediumblackcircle" horiz-adv-x="670" unicode="&#9899;" /><glyph d="M84 265Q84 213 103.5 167Q123 121 157 87Q191 53 237 33.5Q283 14 335 14Q387 14 433 33.5Q479 53 513 87Q547 121 566.5 167Q586 213 586 265Q586 317 566.5 363Q547 409 513 443Q479 477 433 496.5Q387 516 335 516Q283 516 237 496.5Q191 477 157 443Q123 409 103.5 363Q84 317 84 265ZM64 265Q64 321 85 370.5Q106 420 143 456.5Q180 493 229.5 514.5Q279 536 335 536Q391 536 440.5 514.5Q490 493 526.5 456.5Q563 420 584.5 370.5Q606 321 606 265Q606 209 584.5 159.5Q563 110 526.5 73Q490 36 440.5 15Q391 -6 335 -6Q279 -6 229.5 15Q180 36 143 73Q106 110 85 159.5Q64 209 64 265Z" glyph-name="mediumwhitecircle" horiz-adv-x="670" unicode="&#9898;" /><glyph d="M52 400H551L548 380H49Z" glyph-name="minus" horiz-adv-x="600" unicode="&#8722;" /><glyph d="M-23 5H227L224 -15H-26Z" glyph-name="minus.inf" horiz-adv-x="300" unicode="&#58748;" /><glyph d="M92 645 301 405 572 645 587 630 316 390 524 150 509 135 301 375 29 135 14 150 286 390 77 630Z" glyph-name="multiply" horiz-adv-x="600" unicode="&#215;" /><glyph d="M361 0 410 374Q415 413 408 440.5Q401 468 383.5 484.5Q366 501 340.5 508.5Q315 516 283 516Q247 516 218 507Q189 498 166 483.5Q143 469 125.5 452Q108 435 96 419L41 0H21L75 412L85 530H101L96 444Q108 460 125 476Q142 492 165 505.5Q188 519 217 527.5Q246 536 283 536Q358 536 399.5 499.5Q441 463 431 381L381 0Z" glyph-name="n" horiz-adv-x="490" unicode="n" /><glyph d="M404 780 293 620H271L382 780ZM361 0 410 374Q415 413 408 440.5Q401 468 383.5 484.5Q366 501 340.5 508.5Q315 516 283 516Q247 516 218 507Q189 498 166 483.5Q143 469 125.5 452Q108 435 96 419L41 0H21L75 412L85 530H101L96 444Q108 460 125 476Q142 492 165 505.5Q188 519 217 527.5Q246 536 283 536Q358 536 399.5 499.5Q441 463 431 381L381 0Z" glyph-name="nacute" horiz-adv-x="490" unicode="&#324;" /><glyph d="M192 780 283 638 412 780H438L292 620H272L168 780ZM361 0 410 374Q415 413 408 440.5Q401 468 383.5 484.5Q366 501 340.5 508.5Q315 516 283 516Q247 516 218 507Q189 498 166 483.5Q143 469 125.5 452Q108 435 96 419L41 0H21L75 412L85 530H101L96 444Q108 460 125 476Q142 492 165 505.5Q188 519 217 527.5Q246 536 283 536Q358 536 399.5 499.5Q441 463 431 381L381 0Z" glyph-name="ncaron" horiz-adv-x="490" unicode="&#328;" /><glyph d="M207 -102Q199 -159 172 -182.5Q145 -206 113 -206L115 -186Q124 -186 135 -183.5Q146 -181 156 -173Q166 -165 174 -150Q182 -135 186 -110H166L171 -70H211ZM361 0 410 374Q415 413 408 440.5Q401 468 383.5 484.5Q366 501 340.5 508.5Q315 516 283 516Q247 516 218 507Q189 498 166 483.5Q143 469 125.5 452Q108 435 96 419L41 0H21L75 412L85 530H101L96 444Q108 460 125 476Q142 492 165 505.5Q188 519 217 527.5Q246 536 283 536Q358 536 399.5 499.5Q441 463 431 381L381 0Z" glyph-name="ncommaaccent" horiz-adv-x="490" unicode="&#326;" /><glyph d="M525 466Q529 483 533.5 510Q538 537 538 570Q538 616 523.5 652Q509 688 483.5 713.5Q458 739 423 752.5Q388 766 346 766H338Q291 766 250.5 751Q210 736 178.5 708.5Q147 681 126 641Q105 601 99 552L96 528Q90 478 100.5 438.5Q111 399 136 371Q161 343 198 328.5Q235 314 282 314H290Q330 314 365 326Q400 338 430 359Q460 380 484 407.5Q508 435 525 466ZM43 14Q87 14 132.5 23Q178 32 222 51.5Q266 71 307.5 101.5Q349 132 387 175Q438 233 468.5 296.5Q499 360 516 420Q479 366 421.5 330Q364 294 286 294Q235 294 193 309.5Q151 325 122.5 355Q94 385 81 428.5Q68 472 75 528L78 552Q85 608 108 651.5Q131 695 166.5 725Q202 755 246.5 770.5Q291 786 342 786Q394 786 436.5 769Q479 752 508 718.5Q537 685 550 636Q563 587 555 523L554 515Q543 427 508.5 336.5Q474 246 401 163Q360 116 316 84Q272 52 226 32Q180 12 133 3Q86 -6 40 -6Z" glyph-name="nine" horiz-adv-x="600" unicode="9" /><glyph d="M98 -36Q131 -36 160 -17Q189 2 203 28Q205 39 207 51Q209 63 209 77Q209 125 184.5 150.5Q160 176 119 176H113Q68 176 39.5 149.5Q11 123 6 75L5 65Q0 14 25.5 -11Q51 -36 92 -36ZM-33 -185Q7 -185 51.5 -171Q96 -157 134 -115Q156 -91 171.5 -62.5Q187 -34 195 -8Q179 -28 152 -41.5Q125 -55 95 -55Q42 -55 10 -27Q-22 1 -16 64L-15 74Q-9 137 27.5 166Q64 195 116 195Q175 195 204.5 159Q234 123 228 60L227 50Q222 7 204.5 -39.5Q187 -86 149 -128Q107 -173 57 -189Q7 -205 -36 -205Z" glyph-name="nine.inf" horiz-adv-x="300" unicode="&#58746;" /><glyph d="M928 226Q895 226 866 207Q837 188 823 162Q821 151 819 139Q817 127 817 113Q817 65 841.5 39.5Q866 14 907 14H913Q958 14 986.5 40.5Q1015 67 1020 115L1021 125Q1026 176 1000.5 201Q975 226 934 226ZM1057 375Q1017 375 973.5 361Q930 347 892 305Q870 281 854.5 252.5Q839 224 831 198Q847 218 874 231.5Q901 245 931 245Q984 245 1016 217Q1048 189 1042 126L1041 116Q1035 53 998.5 24Q962 -5 910 -5Q851 -5 821.5 31Q792 67 798 130L799 140Q804 183 821.5 229.5Q839 276 877 318Q919 363 968 379Q1017 395 1060 395ZM487 0 490 20H598L643 362L527 291L517 309L652 392H667L618 20H725L722 0ZM51 0 727 780H753L77 0ZM175 554Q208 554 237 573Q266 592 280 618Q282 629 284 641Q286 653 286 667Q286 715 261.5 740.5Q237 766 196 766H190Q145 766 116.5 739.5Q88 713 83 665L82 655Q77 604 102.5 579Q128 554 169 554ZM44 405Q84 405 128.5 419Q173 433 211 475Q233 499 248.5 527.5Q264 556 272 582Q256 562 229 548.5Q202 535 172 535Q119 535 87 563Q55 591 61 654L62 664Q68 727 104.5 756Q141 785 193 785Q252 785 281.5 749Q311 713 305 650L304 640Q299 597 281.5 550.5Q264 504 226 462Q184 417 134 401Q84 385 41 385Z" glyph-name="ninesixteenths" horiz-adv-x="1100" unicode="&#61977;" /><glyph glyph-name="nonbreakingspace" horiz-adv-x="180" unicode="&#160;" /><glyph d="M66 500H365L464 640H490L391 500H565L562 480H377L250 300H539L536 280H236L138 140H112L210 280H37L40 300H224L351 480H63Z" glyph-name="notequal" horiz-adv-x="600" unicode="&#8800;" /><glyph d="M432 732Q429 711 422 697.5Q415 684 405 676Q395 668 383 665Q371 662 360 662Q340 662 323.5 671Q307 680 291 691Q275 702 259 711Q243 720 225 720Q208 720 192 711Q176 702 171 668H153Q156 689 163 702.5Q170 716 180 724Q190 732 202 735Q214 738 225 738Q244 738 261 729Q278 720 294 709Q310 698 326 689Q342 680 360 680Q377 680 393 689Q409 698 414 732ZM361 0 410 374Q415 413 408 440.5Q401 468 383.5 484.5Q366 501 340.5 508.5Q315 516 283 516Q247 516 218 507Q189 498 166 483.5Q143 469 125.5 452Q108 435 96 419L41 0H21L75 412L85 530H101L96 444Q108 460 125 476Q142 492 165 505.5Q188 519 217 527.5Q246 536 283 536Q358 536 399.5 499.5Q441 463 431 381L381 0Z" glyph-name="ntilde" horiz-adv-x="490" unicode="&#241;" /><glyph d="M161 270H354L443 510H250ZM257 530H450L543 780H563L470 530H584L581 510H463L374 270H486L483 250H366L274 0H254L346 250H153L61 0H41L133 250H20L23 270H141L230 510H118L121 530H237L330 780H350Z" glyph-name="numbersign" horiz-adv-x="600" unicode="#" /><glyph d="M1030 571Q1022 511 1001.5 474Q981 437 954 416Q927 395 898 387.5Q869 380 845 380Q821 380 794.5 388.5Q768 397 747 418.5Q726 440 715 477Q704 514 711 571L714 595Q721 655 742 692Q763 729 790 750Q817 771 846 778.5Q875 786 899 786Q923 786 949.5 777.5Q976 769 997 747.5Q1018 726 1029 689Q1040 652 1033 595ZM1013 595Q1019 641 1012 673.5Q1005 706 989 726.5Q973 747 949.5 756.5Q926 766 899 766Q868 766 840.5 756Q813 746 791.5 725Q770 704 755 671.5Q740 639 734 595L731 571Q725 525 732 492.5Q739 460 755 439.5Q771 419 794.5 409.5Q818 400 845 400Q876 400 903.5 410Q931 420 952.5 441Q974 462 989 494.5Q1004 527 1010 571ZM680 250H978L975 230H677ZM514 175 593 780H613L511 0H489L148 748L130 605L51 0H31L133 780H155L496 32Z" glyph-name="numero" horiz-adv-x="1050" unicode="&#8470;" /><glyph d="M220 14Q312 14 367 77.5Q422 141 436 253L439 277Q453 389 411.5 452.5Q370 516 278 516Q186 516 131 452.5Q76 389 62 277L59 253Q45 141 86.5 77.5Q128 14 220 14ZM220 -6Q119 -6 71.5 62.5Q24 131 39 253L42 277Q57 399 117 467.5Q177 536 278 536Q379 536 426.5 467.5Q474 399 459 277L456 253Q441 131 381 62.5Q321 -6 220 -6Z" glyph-name="o" horiz-adv-x="526" unicode="o" /><glyph d="M417 780 306 620H284L395 780ZM220 14Q312 14 367 77.5Q422 141 436 253L439 277Q453 389 411.5 452.5Q370 516 278 516Q186 516 131 452.5Q76 389 62 277L59 253Q45 141 86.5 77.5Q128 14 220 14ZM220 -6Q119 -6 71.5 62.5Q24 131 39 253L42 277Q57 399 117 467.5Q177 536 278 536Q379 536 426.5 467.5Q474 399 459 277L456 253Q441 131 381 62.5Q321 -6 220 -6Z" glyph-name="oacute" horiz-adv-x="526" unicode="&#243;" /><glyph d="M295 614Q257 614 230 627.5Q203 641 187.5 663.5Q172 686 166.5 716Q161 746 166 780H183Q179 750 183 723Q187 696 200.5 676Q214 656 237 644Q260 632 295 632Q330 632 356.5 644Q383 656 402 676Q421 696 432 723Q443 750 447 780H466Q461 746 448.5 716Q436 686 414.5 663.5Q393 641 363.5 627.5Q334 614 295 614ZM220 14Q312 14 367 77.5Q422 141 436 253L439 277Q453 389 411.5 452.5Q370 516 278 516Q186 516 131 452.5Q76 389 62 277L59 253Q45 141 86.5 77.5Q128 14 220 14ZM220 -6Q119 -6 71.5 62.5Q24 131 39 253L42 277Q57 399 117 467.5Q177 536 278 536Q379 536 426.5 467.5Q474 399 459 277L456 253Q441 131 381 62.5Q321 -6 220 -6Z" glyph-name="obreve" horiz-adv-x="526" unicode="&#335;" /><glyph d="M406 620 315 762 186 620H160L306 780H326L430 620ZM220 14Q312 14 367 77.5Q422 141 436 253L439 277Q453 389 411.5 452.5Q370 516 278 516Q186 516 131 452.5Q76 389 62 277L59 253Q45 141 86.5 77.5Q128 14 220 14ZM220 -6Q119 -6 71.5 62.5Q24 131 39 253L42 277Q57 399 117 467.5Q177 536 278 536Q379 536 426.5 467.5Q474 399 459 277L456 253Q441 131 381 62.5Q321 -6 220 -6Z" glyph-name="ocircumflex" horiz-adv-x="526" unicode="&#244;" /><glyph d="M393 680H353L358 720H398ZM253 680H213L218 720H258ZM220 14Q312 14 367 77.5Q422 141 436 253L439 277Q453 389 411.5 452.5Q370 516 278 516Q186 516 131 452.5Q76 389 62 277L59 253Q45 141 86.5 77.5Q128 14 220 14ZM220 -6Q119 -6 71.5 62.5Q24 131 39 253L42 277Q57 399 117 467.5Q177 536 278 536Q379 536 426.5 467.5Q474 399 459 277L456 253Q441 131 381 62.5Q321 -6 220 -6Z" glyph-name="odieresis" horiz-adv-x="526" unicode="&#246;" /><glyph d="M455 255Q448 199 457 154Q466 109 489 78Q512 47 547.5 30.5Q583 14 629 14Q681 14 716.5 26.5Q752 39 775 60.5Q798 82 809.5 110.5Q821 139 824 170H844L842 154Q839 125 826 96.5Q813 68 788 45.5Q763 23 724 8.5Q685 -6 629 -6Q546 -6 495 40.5Q444 87 436 172Q411 87 357 40.5Q303 -6 220 -6Q119 -6 71.5 62.5Q24 131 39 253L42 277Q57 399 117 467.5Q177 536 278 536Q360 536 405.5 490Q451 444 458 360Q484 444 540 490Q596 536 678 536Q736 536 774 516Q812 496 833 461Q854 426 859 377Q864 328 857 271L855 255ZM678 516Q586 516 529 452Q472 388 458 275H838Q845 328 839.5 372Q834 416 815 448Q796 480 762 498Q728 516 678 516ZM220 14Q312 14 367 77.5Q422 141 436 253L439 277Q453 389 411.5 452.5Q370 516 278 516Q186 516 131 452.5Q76 389 62 277L59 253Q45 141 86.5 77.5Q128 14 220 14Z" glyph-name="oe" horiz-adv-x="926" unicode="&#339;" /><glyph d="M254 -187Q240 -195 222 -200.5Q204 -206 175 -206Q141 -206 117 -187.5Q93 -169 93 -129Q93 -96 105.5 -72Q118 -48 137.5 -31Q157 -14 181.5 -3Q206 8 230 16L235 0Q216 -6 194.5 -15.5Q173 -25 154.5 -40Q136 -55 123.5 -77Q111 -99 111 -129Q111 -162 130 -175Q149 -188 175 -188Q201 -188 219.5 -182Q238 -176 250 -170Z" glyph-name="ogonek" horiz-adv-x="602" unicode="&#731;" /><glyph d="M237 780 306 620H284L215 780ZM220 14Q312 14 367 77.5Q422 141 436 253L439 277Q453 389 411.5 452.5Q370 516 278 516Q186 516 131 452.5Q76 389 62 277L59 253Q45 141 86.5 77.5Q128 14 220 14ZM220 -6Q119 -6 71.5 62.5Q24 131 39 253L42 277Q57 399 117 467.5Q177 536 278 536Q379 536 426.5 467.5Q474 399 459 277L456 253Q441 131 381 62.5Q321 -6 220 -6Z" glyph-name="ograve" horiz-adv-x="526" unicode="&#242;" /><glyph d="M367 780 256 620H234L345 780ZM467 780 356 620H334L445 780ZM220 14Q312 14 367 77.5Q422 141 436 253L439 277Q453 389 411.5 452.5Q370 516 278 516Q186 516 131 452.5Q76 389 62 277L59 253Q45 141 86.5 77.5Q128 14 220 14ZM220 -6Q119 -6 71.5 62.5Q24 131 39 253L42 277Q57 399 117 467.5Q177 536 278 536Q379 536 426.5 467.5Q474 399 459 277L456 253Q441 131 381 62.5Q321 -6 220 -6Z" glyph-name="ohungarumlaut" horiz-adv-x="526" unicode="&#337;" /><glyph d="M207 710H407L404 690H204ZM220 14Q312 14 367 77.5Q422 141 436 253L439 277Q453 389 411.5 452.5Q370 516 278 516Q186 516 131 452.5Q76 389 62 277L59 253Q45 141 86.5 77.5Q128 14 220 14ZM220 -6Q119 -6 71.5 62.5Q24 131 39 253L42 277Q57 399 117 467.5Q177 536 278 536Q379 536 426.5 467.5Q474 399 459 277L456 253Q441 131 381 62.5Q321 -6 220 -6Z" glyph-name="omacron" horiz-adv-x="526" unicode="&#333;" /><glyph d="M31 0 34 20H253L350 755L113 609L103 627L359 785H374L273 20H493L490 0Z" glyph-name="one" horiz-adv-x="600" unicode="1" /><glyph d="M-39 -200 -36 -180H72L117 162L1 91L-9 109L126 192H141L92 -180H199L196 -200Z" glyph-name="one.inf" horiz-adv-x="300" unicode="&#58738;" /><glyph d="M719 20 716 0H481L483 15L682 196Q711 222 723 240.5Q735 259 737 280L738 290Q742 328 721 352Q700 376 653 376H647Q596 376 569.5 350Q543 324 535 260H515L517 275Q525 332 556 363.5Q587 395 650 395Q707 395 735.5 367.5Q764 340 759 291L758 281Q755 254 740.5 233Q726 212 699 187L514 19L555 20ZM38 390 41 410H149L194 752L78 681L68 699L203 782H218L169 410H276L273 390ZM51 0 727 780H753L77 0Z" glyph-name="onehalf" horiz-adv-x="800" unicode="&#189;" /><glyph d="M511 129 563 130H658L687 352ZM641 0 655 110H482L484 125L693 390H712L678 130H750L747 110H675L661 0ZM51 0 727 780H753L77 0ZM38 390 41 410H149L194 752L78 681L68 699L203 782H218L169 410H276L273 390Z" glyph-name="onequarter" horiz-adv-x="800" unicode="&#188;" /><glyph d="M928 226Q895 226 866 207Q837 188 823 162Q821 151 819 139Q817 127 817 113Q817 65 841.5 39.5Q866 14 907 14H913Q958 14 986.5 40.5Q1015 67 1020 115L1021 125Q1026 176 1000.5 201Q975 226 934 226ZM1057 375Q1017 375 973.5 361Q930 347 892 305Q870 281 854.5 252.5Q839 224 831 198Q847 218 874 231.5Q901 245 931 245Q984 245 1016 217Q1048 189 1042 126L1041 116Q1035 53 998.5 24Q962 -5 910 -5Q851 -5 821.5 31Q792 67 798 130L799 140Q804 183 821.5 229.5Q839 276 877 318Q919 363 968 379Q1017 395 1060 395ZM487 0 490 20H598L643 362L527 291L517 309L652 392H667L618 20H725L722 0ZM51 0 727 780H753L77 0ZM38 390 41 410H149L194 752L78 681L68 699L203 782H218L169 410H276L273 390Z" glyph-name="onesixteenth" horiz-adv-x="1100" unicode="&#61973;" /><glyph d="M38 390 41 410H149L194 752L78 681L68 699L203 782H218L169 410H276L273 390Z" glyph-name="onesuperior" horiz-adv-x="300" unicode="&#185;" /><glyph d="M47 350H280L277 330H44Z" glyph-name="onethirdemdash" horiz-adv-x="333" unicode="&#58481;" /><glyph d="M54 400H287L284 380H51Z" glyph-name="onethirdemdash.cap" horiz-adv-x="333" unicode="&#58499;" /><glyph d="M33 250H305L302 230H30ZM157 400Q192 400 218 408.5Q244 417 262.5 429.5Q281 442 293.5 455.5Q306 469 313 479L329 606L189 585Q168 582 149 575.5Q130 569 115 558.5Q100 548 90 531Q80 514 77 490L76 482Q72 450 91 425Q110 400 157 400ZM57 490Q61 523 75 544Q89 565 108 577Q127 589 150 595Q173 601 195 605L332 626L334 644Q337 671 335 693.5Q333 716 323 732Q313 748 292.5 757Q272 766 238 766Q203 766 180.5 756.5Q158 747 144.5 730.5Q131 714 124.5 692Q118 670 115 646H95L96 654Q99 678 107 701.5Q115 725 131 744Q147 763 173 774.5Q199 786 238 786Q277 786 302 775.5Q327 765 340 746Q353 727 356 702Q359 677 355 649L333 485L325 388H308L312 450Q302 438 288 426Q274 414 254.5 403.5Q235 393 211 386.5Q187 380 157 380Q106 380 78 407Q50 434 56 482Z" glyph-name="ordfeminine" horiz-adv-x="377" unicode="&#170;" /><glyph d="M390 571Q382 511 361.5 474Q341 437 314 416Q287 395 258 387.5Q229 380 205 380Q181 380 154.5 388.5Q128 397 107 418.5Q86 440 75 477Q64 514 71 571L74 595Q81 655 102 692Q123 729 150 750Q177 771 206 778.5Q235 786 259 786Q283 786 309.5 777.5Q336 769 357 747.5Q378 726 389 689Q400 652 393 595ZM373 595Q379 641 372 673.5Q365 706 349 726.5Q333 747 309.5 756.5Q286 766 259 766Q228 766 200.5 756Q173 746 151.5 725Q130 704 115 671.5Q100 639 94 595L91 571Q85 525 92 492.5Q99 460 115 439.5Q131 419 154.5 409.5Q178 400 205 400Q236 400 263.5 410Q291 420 312.5 441Q334 462 349 494.5Q364 527 370 571ZM40 250H338L335 230H37Z" glyph-name="ordmasculine" horiz-adv-x="410" unicode="&#186;" /><glyph d="M439 277Q453 381 417 444L92 70Q134 14 220 14Q312 14 367 77.5Q422 141 436 253ZM6 0 67 70Q24 138 39 253L42 277Q57 399 117 467.5Q177 536 278 536Q371 536 420 476L467 530H492L431 460Q474 392 459 277L456 253Q441 131 381 62.5Q321 -6 220 -6Q127 -6 78 54L31 0ZM59 253Q45 149 81 86L406 460Q364 516 278 516Q186 516 131 452.5Q76 389 62 277Z" glyph-name="oslash" horiz-adv-x="526" unicode="&#248;" /><glyph d="M445 732Q442 711 435 697.5Q428 684 418 676Q408 668 396 665Q384 662 373 662Q353 662 336.5 671Q320 680 304 691Q288 702 272 711Q256 720 238 720Q221 720 205 711Q189 702 184 668H166Q169 689 176 702.5Q183 716 193 724Q203 732 215 735Q227 738 238 738Q257 738 274 729Q291 720 307 709Q323 698 339 689Q355 680 373 680Q390 680 406 689Q422 698 427 732ZM220 14Q312 14 367 77.5Q422 141 436 253L439 277Q453 389 411.5 452.5Q370 516 278 516Q186 516 131 452.5Q76 389 62 277L59 253Q45 141 86.5 77.5Q128 14 220 14ZM220 -6Q119 -6 71.5 62.5Q24 131 39 253L42 277Q57 399 117 467.5Q177 536 278 536Q379 536 426.5 467.5Q474 399 459 277L456 253Q441 131 381 62.5Q321 -6 220 -6Z" glyph-name="otilde" horiz-adv-x="526" unicode="&#245;" /><glyph d="M54 107Q62 92 74.5 75.5Q87 59 106 45.5Q125 32 150 23Q175 14 207 14Q299 14 351.5 77.5Q404 141 418 253L421 277Q435 389 397.5 452.5Q360 516 268 516Q207 516 165 487Q123 458 95 419ZM207 -6Q174 -6 148.5 2Q123 10 104 22Q85 34 71.5 49Q58 64 51 78L14 -200H-6L74 412L84 530H100L95 444Q107 461 123.5 477.5Q140 494 162 507Q184 520 210 528Q236 536 268 536Q369 536 412.5 467.5Q456 399 441 277L438 253Q423 131 365.5 62.5Q308 -6 207 -6Z" glyph-name="p" horiz-adv-x="510" unicode="p" /><glyph d="M94 551Q86 491 101.5 453.5Q117 416 145 395Q173 374 207.5 367Q242 360 273 360H288L340 760H323Q292 760 256 754Q220 748 187 728.5Q154 709 129 672.5Q104 636 97 575ZM450 760H360L261 0H241L286 340H273Q231 340 191.5 350Q152 360 123.5 384.5Q95 409 80 449.5Q65 490 73 551L76 575Q84 638 108.5 677.5Q133 717 167.5 740Q202 763 242.5 771.5Q283 780 323 780H473L371 0H351Z" glyph-name="paragraph" horiz-adv-x="500" unicode="&#182;" /><glyph d="M65 372Q76 459 98 528Q120 597 150 653Q180 709 215.5 754.5Q251 800 288 840H311Q271 797 234.5 749.5Q198 702 168 645.5Q138 589 116.5 521.5Q95 454 85 372L82 348Q72 266 75.5 199.5Q79 133 93.5 76.5Q108 20 131.5 -27.5Q155 -75 185 -120H162Q135 -78 112 -32.5Q89 13 74 68.5Q59 124 55 192.5Q51 261 62 348Z" glyph-name="parenleft" horiz-adv-x="300" unicode="(" /><glyph d="M79 402Q93 513 141 607.5Q189 702 252 780H275Q211 699 162 604Q113 509 99 402L96 378Q89 325 92.5 274Q96 223 106.5 175.5Q117 128 134.5 84Q152 40 173 0H151Q130 39 113 82Q96 125 85.5 172.5Q75 220 72 271.5Q69 323 76 378Z" glyph-name="parenleft.cap" horiz-adv-x="300" unicode="&#58513;" /><glyph d="M-17 1Q-9 59 12.5 105Q34 151 69 190H92Q56 151 33 103Q10 55 3 1L2 -7Q-5 -61 6 -111Q17 -161 41 -200H19Q-2 -162 -13.5 -112.5Q-25 -63 -18 -7Z" glyph-name="parenleft.inf" horiz-adv-x="150" unicode="&#58750;" /><glyph d="M231 348Q220 261 198 192Q176 123 146 67Q116 11 80.5 -34.5Q45 -80 8 -120H-15Q25 -77 61.5 -29.5Q98 18 128 74.5Q158 131 179.5 198.5Q201 266 211 348L214 372Q224 454 220.5 520.5Q217 587 202.5 643.5Q188 700 164.5 747.5Q141 795 111 840H134Q161 798 184 752.5Q207 707 222 651.5Q237 596 241 527.5Q245 459 234 372Z" glyph-name="parenright" horiz-adv-x="300" unicode=")" /><glyph d="M225 378Q211 267 163 172.5Q115 78 52 0H29Q93 81 142 176Q191 271 205 378L208 402Q221 508 197.5 604Q174 700 131 780H153Q196 703 218.5 607.5Q241 512 228 402Z" glyph-name="parenright.cap" horiz-adv-x="300" unicode="&#58514;" /><glyph d="M67 -11Q59 -69 37.5 -115Q16 -161 -19 -200H-42Q-6 -161 17 -113Q40 -65 47 -11L48 -3Q55 51 44 101Q33 151 9 190H31Q52 152 63.5 102.5Q75 53 68 -3Z" glyph-name="parenright.inf" horiz-adv-x="150" unicode="&#58751;" /><glyph d="M312 680H272L277 720H317ZM54 107Q62 92 74.5 75.5Q87 59 106 45.5Q125 32 150 23Q175 14 207 14Q299 14 351.5 77.5Q404 141 418 253L421 277Q435 389 397.5 452.5Q360 516 268 516Q207 516 165 487Q123 458 95 419ZM207 -6Q174 -6 148.5 2Q123 10 104 22Q85 34 71.5 49Q58 64 51 78L14 -200H-6L74 412L84 530H100L95 444Q107 461 123.5 477.5Q140 494 162 507Q184 520 210 528Q236 536 268 536Q369 536 412.5 467.5Q456 399 441 277L438 253Q423 131 365.5 62.5Q308 -6 207 -6Z" glyph-name="pdotaccent" horiz-adv-x="510" unicode="&#7767;" /><glyph d="M362 624Q370 690 340.5 728Q311 766 254 766H248Q219 766 194.5 755.5Q170 745 151.5 726Q133 707 121.5 681Q110 655 106 624L105 616Q97 550 126.5 512Q156 474 213 474H219Q277 474 315 514Q353 554 361 616ZM652 -6Q583 -6 547 37Q511 80 521 156L522 164Q532 240 576 283Q620 326 687 326Q756 326 792 283Q828 240 818 164L817 156Q807 80 763 37Q719 -6 652 -6ZM655 14Q713 14 751 54Q789 94 797 156L798 164Q806 230 776.5 268Q747 306 690 306H684Q655 306 630.5 295.5Q606 285 587.5 266Q569 247 557.5 221Q546 195 542 164L541 156Q533 90 562.5 52Q592 14 649 14ZM381 616Q371 540 327 497Q283 454 216 454Q147 454 111 497Q75 540 85 616L86 624Q96 700 140 743Q184 786 251 786Q278 786 302 779Q353 762 397 756Q441 750 490 750Q516 750 543 753Q570 756 594 760.5Q618 765 638 770.5Q658 776 670 780L668 765L250 0H228L639 752Q618 745 594 741Q574 736 547 733Q520 730 490 730Q445 730 412.5 734.5Q380 739 354 745Q373 723 380 692.5Q387 662 382 624Z" glyph-name="percent" horiz-adv-x="900" unicode="%" /><glyph d="M61 0H21L26 40H66Z" glyph-name="period" horiz-adv-x="180" unicode="." /><glyph d="M121 0H81L86 40H126Z" glyph-name="period.T" horiz-adv-x="300" unicode="&#61826;" /><glyph d="M103 320H63L68 360H108Z" glyph-name="periodcentered" horiz-adv-x="180" unicode="&#183;" /><glyph d="M110 370H70L75 410H115Z" glyph-name="periodcentered.cap" horiz-adv-x="180" unicode="&#58497;" /><glyph d="M1012 -6Q943 -6 907 37Q871 80 881 156L882 164Q892 240 936 283Q980 326 1047 326Q1116 326 1152 283Q1188 240 1178 164L1177 156Q1167 80 1123 37Q1079 -6 1012 -6ZM1015 14Q1073 14 1111 54Q1149 94 1157 156L1158 164Q1166 230 1136.5 268Q1107 306 1050 306H1044Q1015 306 990.5 295.5Q966 285 947.5 266Q929 247 917.5 221Q906 195 902 164L901 156Q893 90 922.5 52Q952 14 1009 14ZM362 624Q370 690 340.5 728Q311 766 254 766H248Q219 766 194.5 755.5Q170 745 151.5 726Q133 707 121.5 681Q110 655 106 624L105 616Q97 550 126.5 512Q156 474 213 474H219Q277 474 315 514Q353 554 361 616ZM652 -6Q583 -6 547 37Q511 80 521 156L522 164Q532 240 576 283Q620 326 687 326Q756 326 792 283Q828 240 818 164L817 156Q807 80 763 37Q719 -6 652 -6ZM655 14Q713 14 751 54Q789 94 797 156L798 164Q806 230 776.5 268Q747 306 690 306H684Q655 306 630.5 295.5Q606 285 587.5 266Q569 247 557.5 221Q546 195 542 164L541 156Q533 90 562.5 52Q592 14 649 14ZM381 616Q371 540 327 497Q283 454 216 454Q147 454 111 497Q75 540 85 616L86 624Q96 700 140 743Q184 786 251 786Q278 786 302 779Q353 762 397 756Q441 750 490 750Q516 750 543 753Q570 756 594 760.5Q618 765 638 770.5Q658 776 670 780L668 765L250 0H228L639 752Q618 745 594 741Q574 736 547 733Q520 730 490 730Q445 730 412.5 734.5Q380 739 354 745Q373 723 380 692.5Q387 662 382 624Z" glyph-name="perthousand" horiz-adv-x="1260" unicode="&#8240;" /><glyph d="M344 640 312 400H551L548 380H309L277 140H257L289 380H48L51 400H292L324 640Z" glyph-name="plus" horiz-adv-x="600" unicode="+" /><glyph d="M127 120 112 5H227L224 -15H109L94 -130H74L89 -15H-26L-23 5H92L107 120Z" glyph-name="plus.inf" horiz-adv-x="300" unicode="&#58747;" /><glyph d="M26 200H525L522 180H23ZM344 640 323 480H562L559 460H320L299 300H279L300 460H59L62 480H303L324 640Z" glyph-name="plusminus" horiz-adv-x="600" unicode="&#177;" /><glyph d="M470 375Q487 375 507 379.5Q527 384 544 396Q561 408 572 429.5Q583 451 583 485V495Q583 529 572 550.5Q561 572 544 584Q527 596 507 600.5Q487 605 470 605H327V375ZM327 155H307V625H468Q492 625 516 619Q540 613 559.5 598.5Q579 584 591 559.5Q603 535 603 497V483Q603 445 591 420.5Q579 396 559.5 381.5Q540 367 516 361Q492 355 468 355H327ZM74 390Q74 312 103.5 243.5Q133 175 184 124Q235 73 303.5 43.5Q372 14 450 14Q528 14 596.5 43.5Q665 73 716 124Q767 175 796.5 243.5Q826 312 826 390Q826 468 796.5 536.5Q767 605 716 656Q665 707 596.5 736.5Q528 766 450 766Q372 766 303.5 736.5Q235 707 184 656Q133 605 103.5 536.5Q74 468 74 390ZM54 390Q54 472 85 544Q116 616 170 670Q224 724 296 755Q368 786 450 786Q532 786 604 755Q676 724 730 670Q784 616 815 544Q846 472 846 390Q846 308 815 236Q784 164 730 110Q676 56 604 25Q532 -6 450 -6Q368 -6 296 25Q224 56 170 110Q116 164 85 236Q54 308 54 390Z" glyph-name="published" horiz-adv-x="900" unicode="&#8471;" /><glyph glyph-name="punctuationspace" horiz-adv-x="180" unicode="&#8200;" /><glyph d="M426 423Q418 438 405.5 454.5Q393 471 374 484.5Q355 498 330 507Q305 516 273 516Q181 516 128.5 452.5Q76 389 62 277L59 253Q45 141 82.5 77.5Q120 14 212 14Q273 14 315 43Q357 72 385 111ZM381 80Q370 65 354.5 49.5Q339 34 317.5 22Q296 10 269.5 2Q243 -6 212 -6Q111 -6 67.5 62.5Q24 131 39 253L42 277Q57 399 114.5 467.5Q172 536 273 536Q306 536 331.5 528Q357 520 376.5 507Q396 494 410 478.5Q424 463 432 447L450 530H465L444 408L364 -200H344Z" glyph-name="q" horiz-adv-x="510" unicode="q" /><glyph d="M191 0H151L156 40H196ZM270 786Q314 786 344.5 772Q375 758 394.5 734.5Q414 711 423 680Q432 649 432 614Q432 565 417 528Q402 491 378.5 459Q355 427 327 397.5Q299 368 273 335Q247 302 227.5 263.5Q208 225 201 175H187Q193 228 211.5 268Q230 308 255 341Q280 374 307.5 403Q335 432 358 463.5Q381 495 396 531Q411 567 411 615Q411 645 403.5 672Q396 699 379.5 720Q363 741 336 753.5Q309 766 270 766Q182 766 132.5 695.5Q83 625 69 500H49L52 524Q59 582 76 630Q93 678 120 712.5Q147 747 184.5 766.5Q222 786 270 786Z" glyph-name="question" horiz-adv-x="440" unicode="?" /><glyph d="M220 530H260L255 490H215ZM141 -206Q97 -206 66.5 -193Q36 -180 16.5 -158Q-3 -136 -12 -106.5Q-21 -77 -21 -44Q-21 3 -6 37Q9 71 32.5 98.5Q56 126 84 151Q112 176 138 204.5Q164 233 183.5 269Q203 305 210 355H224Q218 302 199.5 264.5Q181 227 156 197.5Q131 168 103.5 143.5Q76 119 53 92Q30 65 15 32.5Q0 0 0 -45Q0 -73 7.5 -98.5Q15 -124 31.5 -143.5Q48 -163 75 -174.5Q102 -186 141 -186Q229 -186 281.5 -121Q334 -56 345 60H365L362 36Q355 -19 337.5 -64Q320 -109 292.5 -140.5Q265 -172 227 -189Q189 -206 141 -206Z" glyph-name="questiondown" horiz-adv-x="440" unicode="&#191;" /><glyph d="M253 780H293L288 740H248ZM174 -6Q130 -6 99.5 8Q69 22 49.5 45.5Q30 69 21 100Q12 131 12 166Q12 214 27 251.5Q42 289 65.5 321Q89 353 117 382.5Q145 412 171 445Q197 478 216.5 516.5Q236 555 243 605H257Q251 552 232.5 512Q214 472 189 439Q164 406 136.5 377Q109 348 86 316.5Q63 285 48 248.5Q33 212 33 165Q33 135 40.5 108Q48 81 64.5 60Q81 39 108 26.5Q135 14 174 14Q262 14 311.5 84.5Q361 155 375 280H395L392 256Q385 198 368 150Q351 102 324 67.5Q297 33 259.5 13.5Q222 -6 174 -6Z" glyph-name="questiondown.cap" horiz-adv-x="440" unicode="&#58436;" /><glyph d="M253 780 215 530H205L233 780ZM153 780 115 530H105L133 780Z" glyph-name="quotedbl" horiz-adv-x="280" unicode="&quot;" /><glyph d="M142 8Q134 -49 107 -77Q80 -105 42 -105L44 -85Q71 -85 92 -67.5Q113 -50 121 0H101L106 40H146ZM62 8Q54 -49 27 -77Q0 -105 -38 -105L-36 -85Q-9 -85 12 -67.5Q33 -50 41 0H21L26 40H66Z" glyph-name="quotedblbase" horiz-adv-x="260" unicode="&#8222;" /><glyph d="M189 673Q197 730 224 758Q251 786 289 786L287 766Q260 766 239 748.5Q218 731 210 681H230L225 641H185ZM109 673Q117 730 144 758Q171 786 209 786L207 766Q180 766 159 748.5Q138 731 130 681H150L145 641H105Z" glyph-name="quotedblleft" horiz-adv-x="260" unicode="&#8220;" /><glyph d="M239 748Q231 691 204 663Q177 635 139 635L141 655Q168 655 189 672.5Q210 690 218 740H198L203 780H243ZM159 748Q151 691 124 663Q97 635 59 635L61 655Q88 655 109 672.5Q130 690 138 740H118L123 780H163Z" glyph-name="quotedblright" horiz-adv-x="260" unicode="&#8221;" /><glyph d="M109 673Q117 730 144 758Q171 786 209 786L207 766Q180 766 159 748.5Q138 731 130 681H150L145 641H105Z" glyph-name="quoteleft" horiz-adv-x="180" unicode="&#8216;" /><glyph d="M159 748Q151 691 124 663Q97 635 59 635L61 655Q88 655 109 672.5Q130 690 138 740H118L123 780H163Z" glyph-name="quoteright" horiz-adv-x="180" unicode="&#8217;" /><glyph d="M62 8Q54 -49 27 -77Q0 -105 -38 -105L-36 -85Q-9 -85 12 -67.5Q33 -50 41 0H21L26 40H66Z" glyph-name="quotesinglbase" horiz-adv-x="180" unicode="&#8218;" /><glyph d="M153 780 115 530H105L133 780Z" glyph-name="quotesingle" horiz-adv-x="180" unicode="&apos;" /><glyph d="M261 536Q264 536 267 535.5Q270 535 272 535H276L273 516H264Q231 516 204 506.5Q177 497 156 482.5Q135 468 120 451Q105 434 96 419L41 0H21L75 412L85 530H101L96 444Q106 460 122 476.5Q138 493 159 506Q180 519 205.5 527.5Q231 536 261 536Z" glyph-name="r" horiz-adv-x="297" unicode="r" /><glyph d="M314 780 203 620H181L292 780ZM261 536Q264 536 267 535.5Q270 535 272 535H276L273 516H264Q231 516 204 506.5Q177 497 156 482.5Q135 468 120 451Q105 434 96 419L41 0H21L75 412L85 530H101L96 444Q106 460 122 476.5Q138 493 159 506Q180 519 205.5 527.5Q231 536 261 536Z" glyph-name="racute" horiz-adv-x="297" unicode="&#341;" /><glyph d="M102 780 193 638 322 780H348L202 620H182L78 780ZM261 536Q264 536 267 535.5Q270 535 272 535H276L273 516H264Q231 516 204 506.5Q177 497 156 482.5Q135 468 120 451Q105 434 96 419L41 0H21L75 412L85 530H101L96 444Q106 460 122 476.5Q138 493 159 506Q180 519 205.5 527.5Q231 536 261 536Z" glyph-name="rcaron" horiz-adv-x="297" unicode="&#345;" /><glyph d="M42 -102Q34 -159 7 -182.5Q-20 -206 -52 -206L-50 -186Q-41 -186 -30 -183.5Q-19 -181 -9 -173Q1 -165 9 -150Q17 -135 21 -110H1L6 -70H46ZM261 536Q264 536 267 535.5Q270 535 272 535H276L273 516H264Q231 516 204 506.5Q177 497 156 482.5Q135 468 120 451Q105 434 96 419L41 0H21L75 412L85 530H101L96 444Q106 460 122 476.5Q138 493 159 506Q180 519 205.5 527.5Q231 536 261 536Z" glyph-name="rcommaaccent" horiz-adv-x="297" unicode="&#343;" /><glyph d="M204 703Q204 735 163 735H127V665H163Q204 665 204 697ZM219 696Q219 662 187 652L219 579H202L170 649H127V579H111V751H166Q190 751 204.5 739Q219 727 219 704ZM40 665Q40 639 50 616.5Q60 594 77 577Q94 560 116.5 550Q139 540 165 540Q191 540 213.5 550Q236 560 253 577Q270 594 280 616.5Q290 639 290 665Q290 691 280 713.5Q270 736 253 753Q236 770 213.5 780Q191 790 165 790Q139 790 116.5 780Q94 770 77 753Q60 736 50 713.5Q40 691 40 665ZM24 665Q24 694 35 720Q46 746 65 765Q84 784 110 795Q136 806 165 806Q194 806 220 795Q246 784 265 765Q284 746 295 720Q306 694 306 665Q306 636 295 610Q284 584 265 565Q246 546 220 535Q194 524 165 524Q136 524 110 535Q84 546 65 565Q46 584 35 610Q24 636 24 665Z" glyph-name="registered" horiz-adv-x="330" unicode="&#174;" /><glyph d="M465 375Q482 375 502 379.5Q522 384 539 396Q556 408 567 429.5Q578 451 578 485V495Q578 529 567 550.5Q556 572 539 584Q522 596 502 600.5Q482 605 465 605H327V375ZM327 155H307V625H463Q487 625 511 619Q535 613 554.5 598.5Q574 584 586 559.5Q598 535 598 497V483Q598 429 574 401Q550 373 517 362L598 155H576L497 357Q488 355 479.5 355Q471 355 463 355H327ZM74 390Q74 312 103.5 243.5Q133 175 184 124Q235 73 303.5 43.5Q372 14 450 14Q528 14 596.5 43.5Q665 73 716 124Q767 175 796.5 243.5Q826 312 826 390Q826 468 796.5 536.5Q767 605 716 656Q665 707 596.5 736.5Q528 766 450 766Q372 766 303.5 736.5Q235 707 184 656Q133 605 103.5 536.5Q74 468 74 390ZM54 390Q54 472 85 544Q116 616 170 670Q224 724 296 755Q368 786 450 786Q532 786 604 755Q676 724 730 670Q784 616 815 544Q846 472 846 390Q846 308 815 236Q784 164 730 110Q676 56 604 25Q532 -6 450 -6Q368 -6 296 25Q224 56 170 110Q116 164 85 236Q54 308 54 390Z" glyph-name="registered.cap" horiz-adv-x="900" unicode="&#59804;" /><glyph d="M203 780H243L238 740H218Q215 715 218 698.5Q221 682 228 672.5Q235 663 246 659Q257 655 271 655L269 635Q231 635 211 663Q191 691 199 748ZM123 780H163L158 740H138Q135 715 138 698.5Q141 682 148 672.5Q155 663 166 659Q177 655 191 655L189 635Q151 635 131 663Q111 691 119 748Z" glyph-name="reversequotedblleft" horiz-adv-x="260" unicode="&#8223;" /><glyph d="M123 780H163L158 740H138Q135 715 138 698.5Q141 682 148 672.5Q155 663 166 659Q177 655 191 655L189 635Q151 635 131 663Q111 691 119 748Z" glyph-name="reversequoteleft" horiz-adv-x="180" unicode="&#8219;" /><glyph d="M300 786Q337 786 358.5 765Q380 744 380 708Q380 688 372 671Q364 654 351 641.5Q338 629 321 621.5Q304 614 285 614Q248 614 226.5 635Q205 656 205 692Q205 711 213 728.5Q221 746 234 758.5Q247 771 264 778.5Q281 786 300 786ZM300 768Q268 768 246 747Q224 726 224 692Q224 663 240.5 647.5Q257 632 285 632Q317 632 339 653Q361 674 361 708Q361 737 344.5 752.5Q328 768 300 768Z" glyph-name="ring" horiz-adv-x="500" unicode="&#730;" /><glyph d="M323 956Q360 956 381.5 935Q403 914 403 878Q403 858 395 841Q387 824 374 811.5Q361 799 344 791.5Q327 784 308 784Q271 784 249.5 805Q228 826 228 862Q228 881 236 898.5Q244 916 257 928.5Q270 941 287 948.5Q304 956 323 956ZM323 938Q291 938 269 917Q247 896 247 862Q247 833 263.5 817.5Q280 802 308 802Q340 802 362 823Q384 844 384 878Q384 907 367.5 922.5Q351 938 323 938Z" glyph-name="ring.cap" horiz-adv-x="500" unicode="&#58410;" /><glyph d="M325 360Q356 360 392 366Q428 372 461 391.5Q494 411 518.5 447.5Q543 484 551 545L554 569Q561 629 545.5 666.5Q530 704 502.5 725Q475 746 440.5 753Q406 760 375 760H205L153 360ZM135 220H355L352 200H132L106 0H86L112 200H2L5 220H114L130 340H20L23 360H132L188 780H375Q417 780 456.5 770Q496 760 524.5 735.5Q553 711 567.5 670.5Q582 630 575 569L572 545Q564 482 539.5 442.5Q515 403 480.5 380Q446 357 405.5 348.5Q365 340 325 340H151Z" glyph-name="ruble" horiz-adv-x="600" unicode="&#8381;" /><glyph d="M213 261Q161 265 129 277Q97 289 80 306Q63 323 58.5 345Q54 367 57 392L58 400Q66 462 117 499Q168 536 250 536Q304 536 340 524Q376 512 396 490.5Q416 469 422.5 439.5Q429 410 425 376L423 360H403Q415 436 381 476Q347 516 250 516Q168 516 122 478.5Q76 441 76 375Q76 352 83.5 335.5Q91 319 110 307.5Q129 296 159.5 289Q190 282 237 278Q287 273 320 262.5Q353 252 372 234.5Q391 217 397 194Q403 171 399 141L398 133Q390 72 340 33Q290 -6 200 -6Q144 -6 107.5 6.5Q71 19 50 39.5Q29 60 22.5 87Q16 114 20 144L22 160H42Q36 127 41 100.5Q46 74 64 54.5Q82 35 115.5 24.5Q149 14 200 14Q283 14 331.5 52.5Q380 91 380 154Q380 182 371 200.5Q362 219 342 231Q322 243 290.5 250Q259 257 213 261Z" glyph-name="s" horiz-adv-x="480" unicode="s" /><glyph d="M394 780 283 620H261L372 780ZM213 261Q161 265 129 277Q97 289 80 306Q63 323 58.5 345Q54 367 57 392L58 400Q66 462 117 499Q168 536 250 536Q304 536 340 524Q376 512 396 490.5Q416 469 422.5 439.5Q429 410 425 376L423 360H403Q415 436 381 476Q347 516 250 516Q168 516 122 478.5Q76 441 76 375Q76 352 83.5 335.5Q91 319 110 307.5Q129 296 159.5 289Q190 282 237 278Q287 273 320 262.5Q353 252 372 234.5Q391 217 397 194Q403 171 399 141L398 133Q390 72 340 33Q290 -6 200 -6Q144 -6 107.5 6.5Q71 19 50 39.5Q29 60 22.5 87Q16 114 20 144L22 160H42Q36 127 41 100.5Q46 74 64 54.5Q82 35 115.5 24.5Q149 14 200 14Q283 14 331.5 52.5Q380 91 380 154Q380 182 371 200.5Q362 219 342 231Q322 243 290.5 250Q259 257 213 261Z" glyph-name="sacute" horiz-adv-x="480" unicode="&#347;" /><glyph d="M182 780 273 638 402 780H428L282 620H262L158 780ZM213 261Q161 265 129 277Q97 289 80 306Q63 323 58.5 345Q54 367 57 392L58 400Q66 462 117 499Q168 536 250 536Q304 536 340 524Q376 512 396 490.5Q416 469 422.5 439.5Q429 410 425 376L423 360H403Q415 436 381 476Q347 516 250 516Q168 516 122 478.5Q76 441 76 375Q76 352 83.5 335.5Q91 319 110 307.5Q129 296 159.5 289Q190 282 237 278Q287 273 320 262.5Q353 252 372 234.5Q391 217 397 194Q403 171 399 141L398 133Q390 72 340 33Q290 -6 200 -6Q144 -6 107.5 6.5Q71 19 50 39.5Q29 60 22.5 87Q16 114 20 144L22 160H42Q36 127 41 100.5Q46 74 64 54.5Q82 35 115.5 24.5Q149 14 200 14Q283 14 331.5 52.5Q380 91 380 154Q380 182 371 200.5Q362 219 342 231Q322 243 290.5 250Q259 257 213 261Z" glyph-name="scaron" horiz-adv-x="480" unicode="&#353;" /><glyph d="M99 -170Q110 -178 132 -183Q154 -188 172 -188Q186 -188 200 -185.5Q214 -183 225 -176Q236 -169 243 -157Q250 -145 250 -126Q250 -111 244.5 -102.5Q239 -94 229.5 -89.5Q220 -85 208 -83.5Q196 -82 183 -82Q178 -82 173.5 -82.5Q169 -83 165 -83Q161 -84 157 -84L148 -73L181 -5Q131 -3 98 10Q65 23 46.5 43Q28 63 22 89Q16 115 20 144L22 160H42Q36 127 41 100.5Q46 74 64 54.5Q82 35 115.5 24.5Q149 14 200 14Q283 14 331.5 52.5Q380 91 380 154Q380 182 371 200.5Q362 219 342 231Q322 243 290.5 250Q259 257 213 261Q161 265 129 277Q97 289 80 306Q63 323 58.5 345Q54 367 57 392L58 400Q66 462 117 499Q168 536 250 536Q304 536 340 524Q376 512 396 490.5Q416 469 422.5 439.5Q429 410 425 376L423 360H403Q415 436 381 476Q347 516 250 516Q168 516 122 478.5Q76 441 76 375Q76 352 83.5 335.5Q91 319 110 307.5Q129 296 159.5 289Q190 282 237 278Q287 273 320 262.5Q353 252 372 234.5Q391 217 397 194Q403 171 399 141L398 133Q390 72 340 33Q290 -6 200 -6L171 -65Q175 -64 180 -64Q185 -64 190 -64Q204 -64 218 -67Q232 -70 243 -77Q254 -84 261 -96Q268 -108 268 -126Q268 -149 259.5 -164Q251 -179 237.5 -188.5Q224 -198 207 -202Q190 -206 172 -206Q152 -206 129 -200.5Q106 -195 91 -186Z" glyph-name="scedilla" horiz-adv-x="480" unicode="&#351;" /><glyph d="M383 620 292 762 163 620H137L283 780H303L407 620ZM213 261Q161 265 129 277Q97 289 80 306Q63 323 58.5 345Q54 367 57 392L58 400Q66 462 117 499Q168 536 250 536Q304 536 340 524Q376 512 396 490.5Q416 469 422.5 439.5Q429 410 425 376L423 360H403Q415 436 381 476Q347 516 250 516Q168 516 122 478.5Q76 441 76 375Q76 352 83.5 335.5Q91 319 110 307.5Q129 296 159.5 289Q190 282 237 278Q287 273 320 262.5Q353 252 372 234.5Q391 217 397 194Q403 171 399 141L398 133Q390 72 340 33Q290 -6 200 -6Q144 -6 107.5 6.5Q71 19 50 39.5Q29 60 22.5 87Q16 114 20 144L22 160H42Q36 127 41 100.5Q46 74 64 54.5Q82 35 115.5 24.5Q149 14 200 14Q283 14 331.5 52.5Q380 91 380 154Q380 182 371 200.5Q362 219 342 231Q322 243 290.5 250Q259 257 213 261Z" glyph-name="scircumflex" horiz-adv-x="480" unicode="&#349;" /><glyph d="M197 -102Q189 -159 162 -182.5Q135 -206 103 -206L105 -186Q114 -186 125 -183.5Q136 -181 146 -173Q156 -165 164 -150Q172 -135 176 -110H156L161 -70H201ZM213 261Q161 265 129 277Q97 289 80 306Q63 323 58.5 345Q54 367 57 392L58 400Q66 462 117 499Q168 536 250 536Q304 536 340 524Q376 512 396 490.5Q416 469 422.5 439.5Q429 410 425 376L423 360H403Q415 436 381 476Q347 516 250 516Q168 516 122 478.5Q76 441 76 375Q76 352 83.5 335.5Q91 319 110 307.5Q129 296 159.5 289Q190 282 237 278Q287 273 320 262.5Q353 252 372 234.5Q391 217 397 194Q403 171 399 141L398 133Q390 72 340 33Q290 -6 200 -6Q144 -6 107.5 6.5Q71 19 50 39.5Q29 60 22.5 87Q16 114 20 144L22 160H42Q36 127 41 100.5Q46 74 64 54.5Q82 35 115.5 24.5Q149 14 200 14Q283 14 331.5 52.5Q380 91 380 154Q380 182 371 200.5Q362 219 342 231Q322 243 290.5 250Q259 257 213 261Z" glyph-name="scommaaccent" horiz-adv-x="480" unicode="&#537;" /><glyph d="M52 394Q60 445 98 479Q136 513 202 524Q170 531 151 543Q132 555 122 570Q112 585 109.5 603Q107 621 110 642L111 650Q119 712 170 749Q221 786 303 786Q357 786 393 774Q429 762 449 740.5Q469 719 475.5 689.5Q482 660 478 626L476 610H456Q468 686 434 726Q400 766 303 766Q221 766 175 728.5Q129 691 129 625Q129 602 137 585Q145 568 164 556.5Q183 545 214 538.5Q245 532 290 529Q341 526 374.5 514.5Q408 503 427 484.5Q446 466 452 441.5Q458 417 453 388L452 382Q444 331 406 297Q368 263 302 252Q333 244 352.5 232.5Q372 221 382 206Q392 191 394.5 173Q397 155 394 134L393 126Q385 64 334 27Q283 -10 201 -10Q147 -10 111 2Q75 14 55 35.5Q35 57 28.5 86Q22 115 26 150L28 166H48Q42 128 47 99Q52 70 70 50Q88 30 120 20Q152 10 201 10Q283 10 329 47.5Q375 85 375 151Q375 174 367 191Q359 208 340 219.5Q321 231 290 237.5Q259 244 214 247Q163 250 129.5 261.5Q96 273 77 291.5Q58 310 52 334.5Q46 359 51 388ZM70 366Q70 317 111.5 290.5Q153 264 237 264H247Q336 264 385.5 304Q435 344 435 410Q435 459 393.5 485.5Q352 512 268 512H258Q169 512 119.5 472Q70 432 70 366Z" glyph-name="section" horiz-adv-x="500" unicode="&#167;" /><glyph d="M62 8Q54 -49 27 -77Q0 -105 -38 -105L-36 -85Q-9 -85 12 -67.5Q33 -50 41 0H21L26 40H66ZM109 370H69L74 410H114Z" glyph-name="semicolon" horiz-adv-x="180" unicode=";" /><glyph d="M122 8Q114 -49 87 -77Q60 -105 22 -105L24 -85Q51 -85 72 -67.5Q93 -50 101 0H81L86 40H126ZM169 370H129L134 410H174Z" glyph-name="semicolon.T" horiz-adv-x="300" unicode="&#61829;" /><glyph d="M98 663Q53 669 36.5 687.5Q20 706 20 730V734Q20 767 43 785.5Q66 804 102 804Q146 804 166 783Q186 762 186 715V710H170Q170 755 155.5 771.5Q141 788 104 788H100Q72 788 54 774.5Q36 761 36 736V732Q36 709 50.5 695.5Q65 682 107 676Q152 669 170 651Q188 633 188 604V600Q188 565 163 545.5Q138 526 100 526Q58 526 38 549.5Q18 573 18 613V616H34Q34 574 51.5 558Q69 542 98 542H102Q135 542 153.5 557Q172 572 172 599V602Q172 630 154 644Q136 658 98 663ZM247 754 249 681V530H233V800H247L334 552L421 800H435V530H419V681L421 754L342 530H326Z" glyph-name="servicemark" horiz-adv-x="460" unicode="&#8480;" /><glyph d="M123 780H593L591 765L174 0H152L567 761L450 760H140L106 500H86Z" glyph-name="seven" horiz-adv-x="600" unicode="7" /><glyph d="M8 190H248L246 175L44 -200H22L222 170H25L9 50H-10Z" glyph-name="seven.inf" horiz-adv-x="300" unicode="&#58744;" /><glyph d="M928 226Q895 226 866 207Q837 188 823 162Q821 151 819 139Q817 127 817 113Q817 65 841.5 39.5Q866 14 907 14H913Q958 14 986.5 40.5Q1015 67 1020 115L1021 125Q1026 176 1000.5 201Q975 226 934 226ZM1057 375Q1017 375 973.5 361Q930 347 892 305Q870 281 854.5 252.5Q839 224 831 198Q847 218 874 231.5Q901 245 931 245Q984 245 1016 217Q1048 189 1042 126L1041 116Q1035 53 998.5 24Q962 -5 910 -5Q851 -5 821.5 31Q792 67 798 130L799 140Q804 183 821.5 229.5Q839 276 877 318Q919 363 968 379Q1017 395 1060 395ZM487 0 490 20H598L643 362L527 291L517 309L652 392H667L618 20H725L722 0ZM51 0 727 780H753L77 0ZM85 780H325L323 765L121 390H99L299 760H102L86 640H67Z" glyph-name="sevensixteenths" horiz-adv-x="1100" unicode="&#61976;" /><glyph d="M79 314Q75 297 70.5 270Q66 243 66 210Q66 164 80 128Q94 92 119.5 66.5Q145 41 180.5 27.5Q216 14 258 14H266Q312 14 353 29Q394 44 425.5 71.5Q457 99 478 138.5Q499 178 505 228L508 252Q514 302 503.5 341.5Q493 381 468 409Q443 437 405.5 451.5Q368 466 322 466H314Q274 466 239 454Q204 442 174 421Q144 400 120 372.5Q96 345 79 314ZM561 766Q472 766 382 728Q292 690 217 605Q166 547 135.5 483.5Q105 420 88 360Q125 414 182.5 450Q240 486 318 486Q369 486 411 470.5Q453 455 481.5 425Q510 395 523 351.5Q536 308 529 252L526 228Q519 172 496 128.5Q473 85 437.5 55Q402 25 357.5 9.5Q313 -6 262 -6Q210 -6 167.5 11Q125 28 96 61.5Q67 95 54 144Q41 193 49 257L50 265Q56 309 66.5 354Q77 399 95 443.5Q113 488 139.5 531.5Q166 575 203 617Q244 663 288 695.5Q332 728 378 748Q424 768 471 777Q518 786 564 786Z" glyph-name="six" horiz-adv-x="600" unicode="6" /><glyph d="M102 26Q69 26 40 7Q11 -12 -3 -38Q-5 -49 -7 -61Q-9 -73 -9 -87Q-9 -135 15.5 -160.5Q40 -186 81 -186H87Q132 -186 160.5 -159.5Q189 -133 194 -85L195 -75Q200 -24 174.5 1Q149 26 108 26ZM231 175Q191 175 147.5 161Q104 147 66 105Q44 81 28.5 52.5Q13 24 5 -2Q21 18 48 31.5Q75 45 105 45Q158 45 190 17Q222 -11 216 -74L215 -84Q209 -147 172.5 -176Q136 -205 84 -205Q25 -205 -4.5 -169Q-34 -133 -28 -70L-27 -60Q-22 -17 -4.5 29.5Q13 76 51 118Q93 163 142 179Q191 195 234 195Z" glyph-name="six.inf" horiz-adv-x="300" unicode="&#58743;" /><glyph glyph-name="sixperemspace" horiz-adv-x="167" unicode="&#8198;" /><glyph d="M-20 -120H-40L316 840H336Z" glyph-name="slash" horiz-adv-x="300" unicode="/" /><glyph d="M-5 0 289 780H309L15 0Z" glyph-name="slash.cap" horiz-adv-x="300" unicode="&#58465;" /><glyph glyph-name="space" horiz-adv-x="180" unicode=" " /><glyph d="M451 790Q463 771 486 742.5Q509 714 540 682Q571 650 607.5 618Q644 586 684 560Q717 539 746.5 515.5Q776 492 798.5 464.5Q821 437 834.5 405Q848 373 848 334Q848 297 834.5 265.5Q821 234 797 210.5Q773 187 741 173.5Q709 160 672 160Q635 160 604 173.5Q573 187 548 209.5Q523 232 504 261Q485 290 472 321L469 320Q473 269 479.5 227Q486 185 495.5 147Q505 109 518.5 73Q532 37 551 0H349Q368 37 381.5 73Q395 109 404.5 147Q414 185 420.5 227Q427 269 431 320L428 321Q415 290 396 261Q377 232 352 209.5Q327 187 296 173.5Q265 160 228 160Q191 160 159 173.5Q127 187 103 210.5Q79 234 65.5 265.5Q52 297 52 334Q52 373 65.5 405Q79 437 101.5 464.5Q124 492 153.5 515.5Q183 539 216 560Q256 586 292.5 618Q329 650 360 682Q391 714 414 742.5Q437 771 449 790Z" glyph-name="spade" horiz-adv-x="900" unicode="&#9824;" /><glyph d="M220 645 460 405 700 645 715 630 475 390 715 150 700 135 460 375 220 135 205 150 445 390 205 630ZM90 760V20H830V760ZM70 0V780H850V0Z" glyph-name="squaremultiply" horiz-adv-x="920" unicode="&#8864;" /><glyph d="M378 766Q321 766 281.5 744.5Q242 723 217.5 689Q193 655 182 613Q171 571 171 530Q171 495 174.5 463.5Q178 432 183 400H403L400 380H186Q192 338 198.5 293.5Q205 249 209.5 203Q214 157 215 111Q216 65 210 20H494L491 0H11L14 20H190Q195 67 193.5 113.5Q192 160 187.5 205Q183 250 176.5 294Q170 338 164 380H60L63 400H161Q157 429 154 460.5Q151 492 151 530Q151 579 163.5 625Q176 671 203.5 707Q231 743 274 764.5Q317 786 378 786Q479 786 527 717.5Q575 649 559 524L556 500H536Q555 637 512 701.5Q469 766 378 766Z" glyph-name="sterling" horiz-adv-x="600" unicode="&#163;" /><glyph d="M340 530 337 510H153L104 137Q99 100 104 76.5Q109 53 122 39Q135 25 155 19.5Q175 14 200 14Q220 14 238.5 17.5Q257 21 264 24L261 4Q257 2 241 -2Q225 -6 200 -6Q172 -6 148.5 0Q125 6 108.5 21.5Q92 37 85 63Q78 89 83 129L133 510H47L50 530H135L155 680H175L155 530Z" glyph-name="t" horiz-adv-x="360" unicode="t" /><glyph d="M340 530 337 510H153L122 275H267L264 255H119L104 137Q99 100 104 76.5Q109 53 122 39Q135 25 155 19.5Q175 14 200 14Q220 14 238.5 17.5Q257 21 264 24L261 4Q257 2 241 -2Q225 -6 200 -6Q172 -6 148.5 0Q125 6 108.5 21.5Q92 37 85 63Q78 89 83 129L99 255H14L17 275H102L133 510H47L50 530H135L155 680H175L155 530Z" glyph-name="tbar" horiz-adv-x="360" unicode="&#359;" /><glyph d="M298 780 267 620H257L278 780ZM340 530 337 510H153L104 137Q99 100 104 76.5Q109 53 122 39Q135 25 155 19.5Q175 14 200 14Q220 14 238.5 17.5Q257 21 264 24L261 4Q257 2 241 -2Q225 -6 200 -6Q172 -6 148.5 0Q125 6 108.5 21.5Q92 37 85 63Q78 89 83 129L133 510H47L50 530H135L155 680H175L155 530Z" glyph-name="tcaron" horiz-adv-x="360" unicode="&#357;" /><glyph d="M167 -102Q159 -159 132 -182.5Q105 -206 73 -206L75 -186Q84 -186 95 -183.5Q106 -181 116 -173Q126 -165 134 -150Q142 -135 146 -110H126L131 -70H171ZM340 530 337 510H153L104 137Q99 100 104 76.5Q109 53 122 39Q135 25 155 19.5Q175 14 200 14Q220 14 238.5 17.5Q257 21 264 24L261 4Q257 2 241 -2Q225 -6 200 -6Q172 -6 148.5 0Q125 6 108.5 21.5Q92 37 85 63Q78 89 83 129L133 510H47L50 530H135L155 680H175L155 530Z" glyph-name="tcommaaccent" horiz-adv-x="360" unicode="&#355;" /><glyph d="M195 755H155L160 795H200ZM340 530 337 510H153L104 137Q99 100 104 76.5Q109 53 122 39Q135 25 155 19.5Q175 14 200 14Q220 14 238.5 17.5Q257 21 264 24L261 4Q257 2 241 -2Q225 -6 200 -6Q172 -6 148.5 0Q125 6 108.5 21.5Q92 37 85 63Q78 89 83 129L133 510H47L50 530H135L155 680H175L155 530Z" glyph-name="tdotaccent" horiz-adv-x="360" unicode="&#7787;" /><glyph glyph-name="thinspace" horiz-adv-x="150" unicode="&#8201;" /><glyph d="M1228 226Q1195 226 1166 207Q1137 188 1123 162Q1121 151 1119 139Q1117 127 1117 113Q1117 65 1141.5 39.5Q1166 14 1207 14H1213Q1258 14 1286.5 40.5Q1315 67 1320 115L1321 125Q1326 176 1300.5 201Q1275 226 1234 226ZM1357 375Q1317 375 1273.5 361Q1230 347 1192 305Q1170 281 1154.5 252.5Q1139 224 1131 198Q1147 218 1174 231.5Q1201 245 1231 245Q1284 245 1316 217Q1348 189 1342 126L1341 116Q1335 53 1298.5 24Q1262 -5 1210 -5Q1151 -5 1121.5 31Q1092 67 1098 130L1099 140Q1104 183 1121.5 229.5Q1139 276 1177 318Q1219 363 1268 379Q1317 395 1360 395ZM787 0 790 20H898L943 362L827 291L817 309L952 392H967L918 20H1025L1022 0ZM351 0 1027 780H1053L377 0ZM460 404Q499 404 530 423.5Q561 443 566 486L567 496Q572 539 548 558.5Q524 578 485 578H426L429 598H485Q504 598 522 602.5Q540 607 554 617Q568 627 577 641Q586 655 588 675L589 685Q593 723 570.5 744.5Q548 766 503 766H497Q447 766 419.5 739.5Q392 713 386 650H366L367 660Q373 718 405 751.5Q437 785 500 785Q555 785 585 759.5Q615 734 610 686L609 676Q605 641 583.5 618Q562 595 528 588Q557 582 574.5 558Q592 534 588 496L587 486Q584 461 573 442Q562 423 544.5 410.5Q527 398 504.5 391.5Q482 385 457 385Q393 385 366 417.5Q339 450 344 505L345 515H365Q355 454 381 429Q407 404 454 404ZM38 390 41 410H149L194 752L78 681L68 699L203 782H218L169 410H276L273 390Z" glyph-name="thirteensixteenths" horiz-adv-x="1400" unicode="&#61985;" /><glyph d="M54 107Q62 92 74.5 75.5Q87 59 106 45.5Q125 32 150 23Q175 14 207 14Q299 14 351.5 77.5Q404 141 418 253L421 277Q435 389 397.5 452.5Q360 516 268 516Q207 516 165 487Q123 458 95 419ZM145 800 99 450Q109 465 125 480.5Q141 496 162.5 508Q184 520 210 528Q236 536 268 536Q369 536 412.5 467.5Q456 399 441 277L438 253Q423 131 365.5 62.5Q308 -6 207 -6Q174 -6 148.5 2Q123 10 104 22Q85 34 71.5 49Q58 64 51 78L14 -200H-6L125 800Z" glyph-name="thorn" horiz-adv-x="510" unicode="&#254;" /><glyph d="M541 592Q546 631 533 663Q520 695 494 718Q468 741 431.5 753.5Q395 766 353 766H345Q284 766 241.5 750Q199 734 170.5 703Q142 672 126 626Q110 580 104 520H84L87 544Q94 602 112.5 647Q131 692 163 723Q195 754 241 770Q287 786 349 786Q398 786 439.5 773Q481 760 510 735Q539 710 553.5 674Q568 638 562 592L559 568Q554 531 538.5 501Q523 471 499.5 449.5Q476 428 445 415Q414 402 380 398Q450 390 489 342Q528 294 518 212L515 188Q509 137 486.5 100.5Q464 64 430 40.5Q396 17 352 5.5Q308 -6 257 -6Q133 -6 79.5 55Q26 116 40 226L43 250H63Q53 189 61.5 144.5Q70 100 94.5 71Q119 42 159 28Q199 14 253 14H261Q307 14 347.5 25Q388 36 418.5 57.5Q449 79 468.5 111.5Q488 144 494 188L497 212Q508 300 464.5 344Q421 388 325 388H201L204 408H325Q413 408 470.5 449Q528 490 538 568Z" glyph-name="three" horiz-adv-x="600" unicode="3" /><glyph d="M83 -186Q122 -186 153 -166.5Q184 -147 189 -104L190 -94Q195 -51 171 -31.5Q147 -12 108 -12H49L52 8H108Q127 8 145 12.5Q163 17 177 27Q191 37 200 51Q209 65 211 85L212 95Q216 133 193.5 154.5Q171 176 126 176H120Q70 176 42.5 149.5Q15 123 9 60H-11L-10 70Q-4 128 28 161.5Q60 195 123 195Q178 195 208 169.5Q238 144 233 96L232 86Q228 51 206.5 28Q185 5 151 -2Q180 -8 197.5 -32Q215 -56 211 -94L210 -104Q207 -129 196 -148Q185 -167 167.5 -179.5Q150 -192 127.5 -198.5Q105 -205 80 -205Q16 -205 -11 -172.5Q-38 -140 -33 -85L-32 -75H-12Q-22 -136 4 -161Q30 -186 77 -186Z" glyph-name="three.inf" horiz-adv-x="300" unicode="&#58740;" /><glyph glyph-name="threeperemspace" horiz-adv-x="333" unicode="&#8196;" /><glyph d="M47 350H697L694 330H44Z" glyph-name="threequarteremdash" horiz-adv-x="750" unicode="&#58482;" /><glyph d="M54 400H704L701 380H51Z" glyph-name="threequarteremdash.cap" horiz-adv-x="750" unicode="&#58501;" /><glyph d="M511 129 563 130H658L687 352ZM641 0 655 110H482L484 125L693 390H712L678 130H750L747 110H675L661 0ZM51 0 727 780H753L77 0ZM160 404Q199 404 230 423.5Q261 443 266 486L267 496Q272 539 248 558.5Q224 578 185 578H126L129 598H185Q204 598 222 602.5Q240 607 254 617Q268 627 277 641Q286 655 288 675L289 685Q293 723 270.5 744.5Q248 766 203 766H197Q147 766 119.5 739.5Q92 713 86 650H66L67 660Q73 718 105 751.5Q137 785 200 785Q255 785 285 759.5Q315 734 310 686L309 676Q305 641 283.5 618Q262 595 228 588Q257 582 274.5 558Q292 534 288 496L287 486Q284 461 273 442Q262 423 244.5 410.5Q227 398 204.5 391.5Q182 385 157 385Q93 385 66 417.5Q39 450 44 505L45 515H65Q55 454 81 429Q107 404 154 404Z" glyph-name="threequarters" horiz-adv-x="800" unicode="&#190;" /><glyph d="M928 226Q895 226 866 207Q837 188 823 162Q821 151 819 139Q817 127 817 113Q817 65 841.5 39.5Q866 14 907 14H913Q958 14 986.5 40.5Q1015 67 1020 115L1021 125Q1026 176 1000.5 201Q975 226 934 226ZM1057 375Q1017 375 973.5 361Q930 347 892 305Q870 281 854.5 252.5Q839 224 831 198Q847 218 874 231.5Q901 245 931 245Q984 245 1016 217Q1048 189 1042 126L1041 116Q1035 53 998.5 24Q962 -5 910 -5Q851 -5 821.5 31Q792 67 798 130L799 140Q804 183 821.5 229.5Q839 276 877 318Q919 363 968 379Q1017 395 1060 395ZM487 0 490 20H598L643 362L527 291L517 309L652 392H667L618 20H725L722 0ZM51 0 727 780H753L77 0ZM160 404Q199 404 230 423.5Q261 443 266 486L267 496Q272 539 248 558.5Q224 578 185 578H126L129 598H185Q204 598 222 602.5Q240 607 254 617Q268 627 277 641Q286 655 288 675L289 685Q293 723 270.5 744.5Q248 766 203 766H197Q147 766 119.5 739.5Q92 713 86 650H66L67 660Q73 718 105 751.5Q137 785 200 785Q255 785 285 759.5Q315 734 310 686L309 676Q305 641 283.5 618Q262 595 228 588Q257 582 274.5 558Q292 534 288 496L287 486Q284 461 273 442Q262 423 244.5 410.5Q227 398 204.5 391.5Q182 385 157 385Q93 385 66 417.5Q39 450 44 505L45 515H65Q55 454 81 429Q107 404 154 404Z" glyph-name="threesixteenths" horiz-adv-x="1100" unicode="&#61974;" /><glyph d="M160 404Q199 404 230 423.5Q261 443 266 486L267 496Q272 539 248 558.5Q224 578 185 578H126L129 598H185Q204 598 222 602.5Q240 607 254 617Q268 627 277 641Q286 655 288 675L289 685Q293 723 270.5 744.5Q248 766 203 766H197Q147 766 119.5 739.5Q92 713 86 650H66L67 660Q73 718 105 751.5Q137 785 200 785Q255 785 285 759.5Q315 734 310 686L309 676Q305 641 283.5 618Q262 595 228 588Q257 582 274.5 558Q292 534 288 496L287 486Q284 461 273 442Q262 423 244.5 410.5Q227 398 204.5 391.5Q182 385 157 385Q93 385 66 417.5Q39 450 44 505L45 515H65Q55 454 81 429Q107 404 154 404Z" glyph-name="threesuperior" horiz-adv-x="300" unicode="&#179;" /><glyph d="M432 732Q429 711 422 697.5Q415 684 405 676Q395 668 383 665Q371 662 360 662Q340 662 323.5 671Q307 680 291 691Q275 702 259 711Q243 720 225 720Q208 720 192 711Q176 702 171 668H153Q156 689 163 702.5Q170 716 180 724Q190 732 202 735Q214 738 225 738Q244 738 261 729Q278 720 294 709Q310 698 326 689Q342 680 360 680Q377 680 393 689Q409 698 414 732Z" glyph-name="tilde" horiz-adv-x="500" unicode="&#732;" /><glyph d="M458 927Q455 906 448 892.5Q441 879 431 871Q421 863 409 860Q397 857 386 857Q366 857 349.5 866Q333 875 317 886Q301 897 285 906Q269 915 251 915Q234 915 218 906Q202 897 197 863H179Q182 884 189 897.5Q196 911 206 919Q216 927 228 930Q240 933 251 933Q270 933 287 924Q304 915 320 904Q336 893 352 884Q368 875 386 875Q403 875 419 884Q435 893 440 927Z" glyph-name="tilde.cap" horiz-adv-x="500" unicode="&#58404;" /><glyph d="M115 530H99V784H20V800H194V784H115ZM247 754 249 681V530H233V800H247L334 552L421 800H435V530H419V681L421 754L342 530H326Z" glyph-name="trademark" horiz-adv-x="460" unicode="&#8482;" /><glyph d="M69 780H91L465 17L839 780H861L475 -6H455Z" glyph-name="triagdn" horiz-adv-x="930" unicode="&#9660;" /><glyph d="M850 786V764L87 390L850 16V-6L64 380V400Z" glyph-name="triaglf" horiz-adv-x="930" unicode="&#9668;" /><glyph d="M866 380 80 -6V16L843 390L80 764V786L866 400Z" glyph-name="triagrt" horiz-adv-x="930" unicode="&#9658;" /><glyph d="M861 0H839L465 763L91 0H69L455 786H475Z" glyph-name="triagup" horiz-adv-x="930" unicode="&#9650;" /><glyph d="M253 780 215 530H205L233 780ZM353 780 315 530H305L333 780ZM153 780 115 530H105L133 780Z" glyph-name="tripleprime" horiz-adv-x="380" unicode="&#8244;" /><glyph d="M488 20 485 0H15L17 15L415 381Q448 411 470.5 434Q493 457 507 478Q521 499 529 519.5Q537 540 540 566L543 590Q548 630 534.5 662.5Q521 695 495 718Q469 741 432 753.5Q395 766 353 766H345Q284 766 241.5 750Q199 734 170.5 703Q142 672 126 626Q110 580 104 520H84L87 544Q94 602 112.5 647Q131 692 163 723Q195 754 241 770Q287 786 349 786Q398 786 439.5 772Q481 758 510.5 732.5Q540 707 555 670.5Q570 634 564 590L561 566Q557 537 549.5 515.5Q542 494 526.5 472Q511 450 487 425.5Q463 401 426 367L48 19L158 20Z" glyph-name="two" horiz-adv-x="600" unicode="2" /><glyph d="M193 -180 190 -200H-45L-43 -185L156 -4Q185 22 197 40.5Q209 59 211 80L212 90Q216 128 195 152Q174 176 127 176H121Q70 176 43.5 150Q17 124 9 60H-11L-9 75Q-1 132 30 163.5Q61 195 124 195Q181 195 209.5 167.5Q238 140 233 91L232 81Q229 54 214.5 33Q200 12 173 -13L-12 -181L29 -180Z" glyph-name="two.inf" horiz-adv-x="300" unicode="&#58739;" /><glyph d="M270 410 267 390H32L34 405L233 586Q262 612 274 630.5Q286 649 288 670L289 680Q293 718 272 742Q251 766 204 766H198Q147 766 120.5 740Q94 714 86 650H66L68 665Q76 722 107 753.5Q138 785 201 785Q258 785 286.5 757.5Q315 730 310 681L309 671Q306 644 291.5 623Q277 602 250 577L65 409L106 410Z" glyph-name="twosuperior" horiz-adv-x="300" unicode="&#178;" /><glyph d="M100 530 51 156Q46 117 53 89.5Q60 62 77.5 45.5Q95 29 120.5 21.5Q146 14 178 14Q214 14 243 23Q272 32 295 46.5Q318 61 335.5 78Q353 95 365 111L420 530H440L386 118L376 0H360L365 86Q353 70 336 54Q319 38 296 24.5Q273 11 244 2.5Q215 -6 178 -6Q140 -6 110.5 3Q81 12 61.5 30.5Q42 49 33.5 78.5Q25 108 30 149L80 530Z" glyph-name="u" horiz-adv-x="490" unicode="u" /><glyph d="M394 780 283 620H261L372 780ZM100 530 51 156Q46 117 53 89.5Q60 62 77.5 45.5Q95 29 120.5 21.5Q146 14 178 14Q214 14 243 23Q272 32 295 46.5Q318 61 335.5 78Q353 95 365 111L420 530H440L386 118L376 0H360L365 86Q353 70 336 54Q319 38 296 24.5Q273 11 244 2.5Q215 -6 178 -6Q140 -6 110.5 3Q81 12 61.5 30.5Q42 49 33.5 78.5Q25 108 30 149L80 530Z" glyph-name="uacute" horiz-adv-x="490" unicode="&#250;" /><glyph d="M272 614Q234 614 207 627.5Q180 641 164.5 663.5Q149 686 143.5 716Q138 746 143 780H160Q156 750 160 723Q164 696 177.5 676Q191 656 214 644Q237 632 272 632Q307 632 333.5 644Q360 656 379 676Q398 696 409 723Q420 750 424 780H443Q438 746 425.5 716Q413 686 391.5 663.5Q370 641 340.5 627.5Q311 614 272 614ZM100 530 51 156Q46 117 53 89.5Q60 62 77.5 45.5Q95 29 120.5 21.5Q146 14 178 14Q214 14 243 23Q272 32 295 46.5Q318 61 335.5 78Q353 95 365 111L420 530H440L386 118L376 0H360L365 86Q353 70 336 54Q319 38 296 24.5Q273 11 244 2.5Q215 -6 178 -6Q140 -6 110.5 3Q81 12 61.5 30.5Q42 49 33.5 78.5Q25 108 30 149L80 530Z" glyph-name="ubreve" horiz-adv-x="490" unicode="&#365;" /><glyph d="M383 620 292 762 163 620H137L283 780H303L407 620ZM100 530 51 156Q46 117 53 89.5Q60 62 77.5 45.5Q95 29 120.5 21.5Q146 14 178 14Q214 14 243 23Q272 32 295 46.5Q318 61 335.5 78Q353 95 365 111L420 530H440L386 118L376 0H360L365 86Q353 70 336 54Q319 38 296 24.5Q273 11 244 2.5Q215 -6 178 -6Q140 -6 110.5 3Q81 12 61.5 30.5Q42 49 33.5 78.5Q25 108 30 149L80 530Z" glyph-name="ucircumflex" horiz-adv-x="490" unicode="&#251;" /><glyph d="M370 680H330L335 720H375ZM230 680H190L195 720H235ZM100 530 51 156Q46 117 53 89.5Q60 62 77.5 45.5Q95 29 120.5 21.5Q146 14 178 14Q214 14 243 23Q272 32 295 46.5Q318 61 335.5 78Q353 95 365 111L420 530H440L386 118L376 0H360L365 86Q353 70 336 54Q319 38 296 24.5Q273 11 244 2.5Q215 -6 178 -6Q140 -6 110.5 3Q81 12 61.5 30.5Q42 49 33.5 78.5Q25 108 30 149L80 530Z" glyph-name="udieresis" horiz-adv-x="490" unicode="&#252;" /><glyph d="M214 780 283 620H261L192 780ZM100 530 51 156Q46 117 53 89.5Q60 62 77.5 45.5Q95 29 120.5 21.5Q146 14 178 14Q214 14 243 23Q272 32 295 46.5Q318 61 335.5 78Q353 95 365 111L420 530H440L386 118L376 0H360L365 86Q353 70 336 54Q319 38 296 24.5Q273 11 244 2.5Q215 -6 178 -6Q140 -6 110.5 3Q81 12 61.5 30.5Q42 49 33.5 78.5Q25 108 30 149L80 530Z" glyph-name="ugrave" horiz-adv-x="490" unicode="&#249;" /><glyph d="M344 780 233 620H211L322 780ZM444 780 333 620H311L422 780ZM100 530 51 156Q46 117 53 89.5Q60 62 77.5 45.5Q95 29 120.5 21.5Q146 14 178 14Q214 14 243 23Q272 32 295 46.5Q318 61 335.5 78Q353 95 365 111L420 530H440L386 118L376 0H360L365 86Q353 70 336 54Q319 38 296 24.5Q273 11 244 2.5Q215 -6 178 -6Q140 -6 110.5 3Q81 12 61.5 30.5Q42 49 33.5 78.5Q25 108 30 149L80 530Z" glyph-name="uhungarumlaut" horiz-adv-x="490" unicode="&#369;" /><glyph d="M184 710H384L381 690H181ZM100 530 51 156Q46 117 53 89.5Q60 62 77.5 45.5Q95 29 120.5 21.5Q146 14 178 14Q214 14 243 23Q272 32 295 46.5Q318 61 335.5 78Q353 95 365 111L420 530H440L386 118L376 0H360L365 86Q353 70 336 54Q319 38 296 24.5Q273 11 244 2.5Q215 -6 178 -6Q140 -6 110.5 3Q81 12 61.5 30.5Q42 49 33.5 78.5Q25 108 30 149L80 530Z" glyph-name="umacron" horiz-adv-x="490" unicode="&#363;" /><glyph d="M-11 -90H209L206 -110H-14Z" glyph-name="underscore" horiz-adv-x="320" unicode="_" /><glyph d="M-11 -90H489L486 -110H-14Z" glyph-name="underscoremonospace" horiz-adv-x="600" unicode="&#65343;" /><glyph d="M47 350H267L264 330H44Z" glyph-name="uni00AD" horiz-adv-x="320" unicode="&#173;" /><glyph d="M47 350H1147L1144 330H44Z" glyph-name="uni2015" horiz-adv-x="1200" unicode="&#8213;" /><glyph d="M54 400H1154L1151 380H51Z" glyph-name="uni2015.cap" horiz-adv-x="1200" unicode="&#58504;" /><glyph d="M283 665Q289 712 271.5 739Q254 766 204 766H198Q147 766 123.5 741Q100 716 93 666L72 505Q66 458 83.5 431Q101 404 151 404H157Q208 404 231.5 429Q255 454 262 504ZM282 497Q275 444 245 414.5Q215 385 154 385Q92 385 67.5 415.5Q43 446 50 497L73 673Q80 726 110 755.5Q140 785 201 785Q263 785 287.5 754.5Q312 724 305 673Z" glyph-name="uni2070" horiz-adv-x="300" unicode="&#8304;" /><glyph d="M62 519 114 520H209L238 742ZM192 390 206 500H33L35 515L244 780H263L229 520H301L298 500H226L212 390Z" glyph-name="uni2074" horiz-adv-x="300" unicode="&#8308;" /><glyph d="M54 559 93 780H320L317 760H109L80 595Q116 635 178 635Q202 635 224 628Q246 621 261.5 606.5Q277 592 285 569.5Q293 547 290 516L289 506Q286 476 274.5 453.5Q263 431 245 415.5Q227 400 204.5 392.5Q182 385 157 385Q93 385 66 417.5Q39 450 44 505L45 515H65Q55 454 81 429Q107 404 154 404H160Q179 404 197.5 410Q216 416 231 428.5Q246 441 255.5 460Q265 479 268 505L269 515Q274 568 247 592Q220 616 181 616H175Q144 616 115.5 601Q87 586 71 555Z" glyph-name="uni2075" horiz-adv-x="300" unicode="&#8309;" /><glyph d="M179 616Q146 616 117 597Q88 578 74 552Q72 541 70 529Q68 517 68 503Q68 455 92.5 429.5Q117 404 158 404H164Q209 404 237.5 430.5Q266 457 271 505L272 515Q277 566 251.5 591Q226 616 185 616ZM308 765Q268 765 224.5 751Q181 737 143 695Q121 671 105.5 642.5Q90 614 82 588Q98 608 125 621.5Q152 635 182 635Q235 635 267 607Q299 579 293 516L292 506Q286 443 249.5 414Q213 385 161 385Q102 385 72.5 421Q43 457 49 520L50 530Q55 573 72.5 619.5Q90 666 128 708Q170 753 219 769Q268 785 311 785Z" glyph-name="uni2076" horiz-adv-x="300" unicode="&#8310;" /><glyph d="M85 780H325L323 765L121 390H99L299 760H102L86 640H67Z" glyph-name="uni2077" horiz-adv-x="300" unicode="&#8311;" /><glyph d="M197 766Q152 766 124 743Q96 720 92 684L91 674Q87 635 110.5 616.5Q134 598 173 598H185Q204 598 221.5 602.5Q239 607 253 616Q267 625 276.5 639.5Q286 654 288 675L289 685Q293 723 270.5 744.5Q248 766 203 766ZM168 578Q149 578 131 573Q113 568 99 558Q85 548 75.5 532.5Q66 517 64 496L63 486Q61 463 67 447.5Q73 432 85 422.5Q97 413 115 408.5Q133 404 154 404H160Q199 404 230 423.5Q261 443 266 486L267 496Q272 539 248 558.5Q224 578 185 578ZM157 385Q104 385 70.5 409Q37 433 42 486L43 496Q47 537 71.5 559Q96 581 128 589Q100 597 83 618.5Q66 640 70 675L71 685Q76 732 110 758.5Q144 785 200 785Q255 785 285 759.5Q315 734 310 686L309 676Q305 639 283.5 617Q262 595 228 588Q257 582 274.5 558Q292 534 288 496L287 486Q284 461 273 442Q262 423 244.5 410.5Q227 398 204.5 391.5Q182 385 157 385Z" glyph-name="uni2078" horiz-adv-x="300" unicode="&#8312;" /><glyph d="M175 554Q208 554 237 573Q266 592 280 618Q282 629 284 641Q286 653 286 667Q286 715 261.5 740.5Q237 766 196 766H190Q145 766 116.5 739.5Q88 713 83 665L82 655Q77 604 102.5 579Q128 554 169 554ZM44 405Q84 405 128.5 419Q173 433 211 475Q233 499 248.5 527.5Q264 556 272 582Q256 562 229 548.5Q202 535 172 535Q119 535 87 563Q55 591 61 654L62 664Q68 727 104.5 756Q141 785 193 785Q252 785 281.5 749Q311 713 305 650L304 640Q299 597 281.5 550.5Q264 504 226 462Q184 417 134 401Q84 385 41 385Z" glyph-name="uni2079" horiz-adv-x="300" unicode="&#8313;" /><glyph d="M204 710 189 595H304L301 575H186L171 460H151L166 575H51L54 595H169L184 710Z" glyph-name="uni207A" horiz-adv-x="300" unicode="&#8314;" /><glyph d="M54 595H304L301 575H51Z" glyph-name="uni207B" horiz-adv-x="300" unicode="&#8315;" /><glyph d="M47 545H297L294 525H44ZM61 645H311L308 625H58Z" glyph-name="uni207C" horiz-adv-x="300" unicode="&#8316;" /><glyph d="M60 591Q68 649 89.5 695Q111 741 146 780H169Q133 741 110 693Q87 645 80 591L79 583Q72 529 83 479Q94 429 118 390H96Q75 428 63.5 477.5Q52 527 59 583Z" glyph-name="uni207D" horiz-adv-x="150" unicode="&#8317;" /><glyph d="M144 579Q136 521 114.5 475Q93 429 58 390H35Q71 429 94 477Q117 525 124 579L125 587Q132 641 121 691Q110 741 86 780H108Q129 742 140.5 692.5Q152 643 145 587Z" glyph-name="uni207E" horiz-adv-x="150" unicode="&#8318;" /><glyph d="M232 275Q238 322 220.5 349Q203 376 153 376H147Q96 376 72.5 351Q49 326 42 276L21 115Q15 68 32.5 41Q50 14 100 14H106Q157 14 180.5 39Q204 64 211 114ZM231 107Q224 54 194 24.5Q164 -5 103 -5Q41 -5 16.5 25.5Q-8 56 -1 107L22 283Q29 336 59 365.5Q89 395 150 395Q212 395 236.5 364.5Q261 334 254 283Z" glyph-name="uni2080" horiz-adv-x="300" unicode="&#8320;" /><glyph d="M-13 0 -10 20H98L143 362L27 291L17 309L152 392H167L118 20H225L222 0Z" glyph-name="uni2081" horiz-adv-x="300" unicode="&#8321;" /><glyph d="M219 20 216 0H-19L-17 15L182 196Q211 222 223 240.5Q235 259 237 280L238 290Q242 328 221 352Q200 376 153 376H147Q96 376 69.5 350Q43 324 35 260H15L17 275Q25 332 56 363.5Q87 395 150 395Q207 395 235.5 367.5Q264 340 259 291L258 281Q255 254 240.5 233Q226 212 199 187L14 19L55 20Z" glyph-name="uni2082" horiz-adv-x="300" unicode="&#8322;" /><glyph d="M109 14Q148 14 179 33.5Q210 53 215 96L216 106Q221 149 197 168.5Q173 188 134 188H75L78 208H134Q153 208 171 212.5Q189 217 203 227Q217 237 226 251Q235 265 237 285L238 295Q242 333 219.5 354.5Q197 376 152 376H146Q96 376 68.5 349.5Q41 323 35 260H15L16 270Q22 328 54 361.5Q86 395 149 395Q204 395 234 369.5Q264 344 259 296L258 286Q254 251 232.5 228Q211 205 177 198Q206 192 223.5 168Q241 144 237 106L236 96Q233 71 222 52Q211 33 193.5 20.5Q176 8 153.5 1.5Q131 -5 106 -5Q42 -5 15 27.5Q-12 60 -7 115L-6 125H14Q4 64 30 39Q56 14 103 14Z" glyph-name="uni2083" horiz-adv-x="300" unicode="&#8323;" /><glyph d="M11 129 63 130H158L187 352ZM141 0 155 110H-18L-16 125L193 390H212L178 130H250L247 110H175L161 0Z" glyph-name="uni2084" horiz-adv-x="300" unicode="&#8324;" /><glyph d="M3 169 42 390H269L266 370H58L29 205Q65 245 127 245Q151 245 173 238Q195 231 210.5 216.5Q226 202 234 179.5Q242 157 239 126L238 116Q235 86 223.5 63.5Q212 41 194 25.5Q176 10 153.5 2.5Q131 -5 106 -5Q42 -5 15 27.5Q-12 60 -7 115L-6 125H14Q4 64 30 39Q56 14 103 14H109Q128 14 146.5 20Q165 26 180 38.5Q195 51 204.5 70Q214 89 217 115L218 125Q223 178 196 202Q169 226 130 226H124Q93 226 64.5 211Q36 196 20 165Z" glyph-name="uni2085" horiz-adv-x="300" unicode="&#8325;" /><glyph d="M128 226Q95 226 66 207Q37 188 23 162Q21 151 19 139Q17 127 17 113Q17 65 41.5 39.5Q66 14 107 14H113Q158 14 186.5 40.5Q215 67 220 115L221 125Q226 176 200.5 201Q175 226 134 226ZM257 375Q217 375 173.5 361Q130 347 92 305Q70 281 54.5 252.5Q39 224 31 198Q47 218 74 231.5Q101 245 131 245Q184 245 216 217Q248 189 242 126L241 116Q235 53 198.5 24Q162 -5 110 -5Q51 -5 21.5 31Q-8 67 -2 130L-1 140Q4 183 21.5 229.5Q39 276 77 318Q119 363 168 379Q217 395 260 395Z" glyph-name="uni2086" horiz-adv-x="300" unicode="&#8326;" /><glyph d="M34 390H274L272 375L70 0H48L248 370H51L35 250H16Z" glyph-name="uni2087" horiz-adv-x="300" unicode="&#8327;" /><glyph d="M146 376Q101 376 73 353Q45 330 41 294L40 284Q36 245 59.5 226.5Q83 208 122 208H134Q153 208 170.5 212.5Q188 217 202 226Q216 235 225.5 249.5Q235 264 237 285L238 295Q242 333 219.5 354.5Q197 376 152 376ZM117 188Q98 188 80 183Q62 178 48 168Q34 158 24.5 142.5Q15 127 13 106L12 96Q10 73 16 57.5Q22 42 34 32.5Q46 23 64 18.5Q82 14 103 14H109Q148 14 179 33.5Q210 53 215 96L216 106Q221 149 197 168.5Q173 188 134 188ZM106 -5Q53 -5 19.5 19Q-14 43 -9 96L-8 106Q-4 147 20.5 169Q45 191 77 199Q49 207 32 228.5Q15 250 19 285L20 295Q25 342 59 368.5Q93 395 149 395Q204 395 234 369.5Q264 344 259 296L258 286Q254 249 232.5 227Q211 205 177 198Q206 192 223.5 168Q241 144 237 106L236 96Q233 71 222 52Q211 33 193.5 20.5Q176 8 153.5 1.5Q131 -5 106 -5Z" glyph-name="uni2088" horiz-adv-x="300" unicode="&#8328;" /><glyph d="M124 164Q157 164 186 183Q215 202 229 228Q231 239 233 251Q235 263 235 277Q235 325 210.5 350.5Q186 376 145 376H139Q94 376 65.5 349.5Q37 323 32 275L31 265Q26 214 51.5 189Q77 164 118 164ZM-7 15Q33 15 77.5 29Q122 43 160 85Q182 109 197.5 137.5Q213 166 221 192Q205 172 178 158.5Q151 145 121 145Q68 145 36 173Q4 201 10 264L11 274Q17 337 53.5 366Q90 395 142 395Q201 395 230.5 359Q260 323 254 260L253 250Q248 207 230.5 160.5Q213 114 175 72Q133 27 83 11Q33 -5 -10 -5Z" glyph-name="uni2089" horiz-adv-x="300" unicode="&#8329;" /><glyph d="M153 320 138 205H253L250 185H135L120 70H100L115 185H0L3 205H118L133 320Z" glyph-name="uni208A" horiz-adv-x="300" unicode="&#8330;" /><glyph d="M3 205H253L250 185H0Z" glyph-name="uni208B" horiz-adv-x="300" unicode="&#8331;" /><glyph d="M-4 155H246L243 135H-7ZM10 255H260L257 235H7Z" glyph-name="uni208C" horiz-adv-x="300" unicode="&#8332;" /><glyph d="M9 201Q17 259 38.5 305Q60 351 95 390H118Q82 351 59 303Q36 255 29 201L28 193Q21 139 32 89Q43 39 67 0H45Q24 38 12.5 87.5Q1 137 8 193Z" glyph-name="uni208D" horiz-adv-x="150" unicode="&#8333;" /><glyph d="M93 189Q85 131 63.5 85Q42 39 7 0H-16Q20 39 43 87Q66 135 73 189L74 197Q81 251 70 301Q59 351 35 390H57Q78 352 89.5 302.5Q101 253 94 197Z" glyph-name="uni208E" horiz-adv-x="150" unicode="&#8334;" /><glyph d="M609 14Q648 14 679 33.5Q710 53 715 96L716 106Q721 149 697 168.5Q673 188 634 188H575L578 208H634Q653 208 671 212.5Q689 217 703 227Q717 237 726 251Q735 265 737 285L738 295Q742 333 719.5 354.5Q697 376 652 376H646Q596 376 568.5 349.5Q541 323 535 260H515L516 270Q522 328 554 361.5Q586 395 649 395Q704 395 734 369.5Q764 344 759 296L758 286Q754 251 732.5 228Q711 205 677 198Q706 192 723.5 168Q741 144 737 106L736 96Q733 71 722 52Q711 33 693.5 20.5Q676 8 653.5 1.5Q631 -5 606 -5Q542 -5 515 27.5Q488 60 493 115L494 125H514Q504 64 530 39Q556 14 603 14ZM51 0 727 780H753L77 0ZM38 390 41 410H149L194 752L78 681L68 699L203 782H218L169 410H276L273 390Z" glyph-name="uni2153" horiz-adv-x="800" unicode="&#8531;" /><glyph d="M609 14Q648 14 679 33.5Q710 53 715 96L716 106Q721 149 697 168.5Q673 188 634 188H575L578 208H634Q653 208 671 212.5Q689 217 703 227Q717 237 726 251Q735 265 737 285L738 295Q742 333 719.5 354.5Q697 376 652 376H646Q596 376 568.5 349.5Q541 323 535 260H515L516 270Q522 328 554 361.5Q586 395 649 395Q704 395 734 369.5Q764 344 759 296L758 286Q754 251 732.5 228Q711 205 677 198Q706 192 723.5 168Q741 144 737 106L736 96Q733 71 722 52Q711 33 693.5 20.5Q676 8 653.5 1.5Q631 -5 606 -5Q542 -5 515 27.5Q488 60 493 115L494 125H514Q504 64 530 39Q556 14 603 14ZM51 0 727 780H753L77 0ZM270 410 267 390H32L34 405L233 586Q262 612 274 630.5Q286 649 288 670L289 680Q293 718 272 742Q251 766 204 766H198Q147 766 120.5 740Q94 714 86 650H66L68 665Q76 722 107 753.5Q138 785 201 785Q258 785 286.5 757.5Q315 730 310 681L309 671Q306 644 291.5 623Q277 602 250 577L65 409L106 410Z" glyph-name="uni2154" horiz-adv-x="800" unicode="&#8532;" /><glyph d="M503 169 542 390H769L766 370H558L529 205Q565 245 627 245Q651 245 673 238Q695 231 710.5 216.5Q726 202 734 179.5Q742 157 739 126L738 116Q735 86 723.5 63.5Q712 41 694 25.5Q676 10 653.5 2.5Q631 -5 606 -5Q542 -5 515 27.5Q488 60 493 115L494 125H514Q504 64 530 39Q556 14 603 14H609Q628 14 646.5 20Q665 26 680 38.5Q695 51 704.5 70Q714 89 717 115L718 125Q723 178 696 202Q669 226 630 226H624Q593 226 564.5 211Q536 196 520 165ZM51 0 727 780H753L77 0ZM38 390 41 410H149L194 752L78 681L68 699L203 782H218L169 410H276L273 390Z" glyph-name="uni2155" horiz-adv-x="800" unicode="&#8533;" /><glyph d="M503 169 542 390H769L766 370H558L529 205Q565 245 627 245Q651 245 673 238Q695 231 710.5 216.5Q726 202 734 179.5Q742 157 739 126L738 116Q735 86 723.5 63.5Q712 41 694 25.5Q676 10 653.5 2.5Q631 -5 606 -5Q542 -5 515 27.5Q488 60 493 115L494 125H514Q504 64 530 39Q556 14 603 14H609Q628 14 646.5 20Q665 26 680 38.5Q695 51 704.5 70Q714 89 717 115L718 125Q723 178 696 202Q669 226 630 226H624Q593 226 564.5 211Q536 196 520 165ZM51 0 727 780H753L77 0ZM270 410 267 390H32L34 405L233 586Q262 612 274 630.5Q286 649 288 670L289 680Q293 718 272 742Q251 766 204 766H198Q147 766 120.5 740Q94 714 86 650H66L68 665Q76 722 107 753.5Q138 785 201 785Q258 785 286.5 757.5Q315 730 310 681L309 671Q306 644 291.5 623Q277 602 250 577L65 409L106 410Z" glyph-name="uni2156" horiz-adv-x="800" unicode="&#8534;" /><glyph d="M503 169 542 390H769L766 370H558L529 205Q565 245 627 245Q651 245 673 238Q695 231 710.5 216.5Q726 202 734 179.5Q742 157 739 126L738 116Q735 86 723.5 63.5Q712 41 694 25.5Q676 10 653.5 2.5Q631 -5 606 -5Q542 -5 515 27.5Q488 60 493 115L494 125H514Q504 64 530 39Q556 14 603 14H609Q628 14 646.5 20Q665 26 680 38.5Q695 51 704.5 70Q714 89 717 115L718 125Q723 178 696 202Q669 226 630 226H624Q593 226 564.5 211Q536 196 520 165ZM51 0 727 780H753L77 0ZM160 404Q199 404 230 423.5Q261 443 266 486L267 496Q272 539 248 558.5Q224 578 185 578H126L129 598H185Q204 598 222 602.5Q240 607 254 617Q268 627 277 641Q286 655 288 675L289 685Q293 723 270.5 744.5Q248 766 203 766H197Q147 766 119.5 739.5Q92 713 86 650H66L67 660Q73 718 105 751.5Q137 785 200 785Q255 785 285 759.5Q315 734 310 686L309 676Q305 641 283.5 618Q262 595 228 588Q257 582 274.5 558Q292 534 288 496L287 486Q284 461 273 442Q262 423 244.5 410.5Q227 398 204.5 391.5Q182 385 157 385Q93 385 66 417.5Q39 450 44 505L45 515H65Q55 454 81 429Q107 404 154 404Z" glyph-name="uni2157" horiz-adv-x="800" unicode="&#8535;" /><glyph d="M503 169 542 390H769L766 370H558L529 205Q565 245 627 245Q651 245 673 238Q695 231 710.5 216.5Q726 202 734 179.5Q742 157 739 126L738 116Q735 86 723.5 63.5Q712 41 694 25.5Q676 10 653.5 2.5Q631 -5 606 -5Q542 -5 515 27.5Q488 60 493 115L494 125H514Q504 64 530 39Q556 14 603 14H609Q628 14 646.5 20Q665 26 680 38.5Q695 51 704.5 70Q714 89 717 115L718 125Q723 178 696 202Q669 226 630 226H624Q593 226 564.5 211Q536 196 520 165ZM51 0 727 780H753L77 0ZM62 519 114 520H209L238 742ZM192 390 206 500H33L35 515L244 780H263L229 520H301L298 500H226L212 390Z" glyph-name="uni2158" horiz-adv-x="800" unicode="&#8536;" /><glyph d="M628 226Q595 226 566 207Q537 188 523 162Q521 151 519 139Q517 127 517 113Q517 65 541.5 39.5Q566 14 607 14H613Q658 14 686.5 40.5Q715 67 720 115L721 125Q726 176 700.5 201Q675 226 634 226ZM757 375Q717 375 673.5 361Q630 347 592 305Q570 281 554.5 252.5Q539 224 531 198Q547 218 574 231.5Q601 245 631 245Q684 245 716 217Q748 189 742 126L741 116Q735 53 698.5 24Q662 -5 610 -5Q551 -5 521.5 31Q492 67 498 130L499 140Q504 183 521.5 229.5Q539 276 577 318Q619 363 668 379Q717 395 760 395ZM51 0 727 780H753L77 0ZM38 390 41 410H149L194 752L78 681L68 699L203 782H218L169 410H276L273 390Z" glyph-name="uni2159" horiz-adv-x="800" unicode="&#8537;" /><glyph d="M628 226Q595 226 566 207Q537 188 523 162Q521 151 519 139Q517 127 517 113Q517 65 541.5 39.5Q566 14 607 14H613Q658 14 686.5 40.5Q715 67 720 115L721 125Q726 176 700.5 201Q675 226 634 226ZM757 375Q717 375 673.5 361Q630 347 592 305Q570 281 554.5 252.5Q539 224 531 198Q547 218 574 231.5Q601 245 631 245Q684 245 716 217Q748 189 742 126L741 116Q735 53 698.5 24Q662 -5 610 -5Q551 -5 521.5 31Q492 67 498 130L499 140Q504 183 521.5 229.5Q539 276 577 318Q619 363 668 379Q717 395 760 395ZM51 0 727 780H753L77 0ZM54 559 93 780H320L317 760H109L80 595Q116 635 178 635Q202 635 224 628Q246 621 261.5 606.5Q277 592 285 569.5Q293 547 290 516L289 506Q286 476 274.5 453.5Q263 431 245 415.5Q227 400 204.5 392.5Q182 385 157 385Q93 385 66 417.5Q39 450 44 505L45 515H65Q55 454 81 429Q107 404 154 404H160Q179 404 197.5 410Q216 416 231 428.5Q246 441 255.5 460Q265 479 268 505L269 515Q274 568 247 592Q220 616 181 616H175Q144 616 115.5 601Q87 586 71 555Z" glyph-name="uni215A" horiz-adv-x="800" unicode="&#8538;" /></font>
</defs>
</svg>
