<?xml version="1.0" encoding="UTF-8"?>
<svg xmlns="http://www.w3.org/2000/svg" xmlns:xlink="http://www.w3.org/1999/xlink" width="475.19999999999993" height="90.504" viewBox="0 -4.7479999999999976 475.19999999999993 100" preserveAspectRatio="xMinYMid meet"><path d="M21.96 71.71L21.96 71.71Q16.78 71.71 12.42 69.84Q8.06 67.97 4.82 64.73L4.82 64.73L8.42 60.55Q11.09 63.22 14.62 64.84Q18.14 66.46 22.25 66.46L22.25 66.46Q27.14 66.46 29.84 64.37Q32.54 62.28 32.54 58.97L32.54 58.97Q32.54 57.10 31.90 55.80Q31.25 54.50 30.10 53.57Q28.94 52.63 27.40 51.91Q25.85 51.19 24.05 50.40L24.05 50.40L17.28 47.45Q15.48 46.73 13.68 45.72Q11.88 44.71 10.40 43.27Q8.93 41.83 7.99 39.85Q7.06 37.87 7.06 35.28L7.06 35.28Q7.06 32.62 8.21 30.31Q9.36 28.01 11.41 26.32Q13.46 24.62 16.31 23.69Q19.15 22.75 22.54 22.75L22.54 22.75Q27.00 22.75 30.74 24.37Q34.49 25.99 37.08 28.58L37.08 28.58L33.91 32.47Q31.61 30.38 28.80 29.20Q25.99 28.01 22.32 28.01L22.32 28.01Q18.22 28.01 15.70 29.84Q13.18 31.68 13.18 34.92L13.18 34.92Q13.18 36.65 13.93 37.84Q14.69 39.02 15.88 39.92Q17.06 40.82 18.58 41.47Q20.09 42.12 21.60 42.77L21.60 42.77L28.22 45.65Q30.38 46.51 32.29 47.63Q34.20 48.74 35.60 50.22Q37.01 51.70 37.84 53.68Q38.66 55.66 38.66 58.25L38.66 58.25Q38.66 61.06 37.51 63.50Q36.36 65.95 34.20 67.79Q32.04 69.62 28.94 70.67Q25.85 71.71 21.96 71.71ZM64.80 71.71L64.80 71.71Q61.34 71.71 58.21 70.49Q55.08 69.26 52.70 66.92Q50.33 64.58 48.92 61.16Q47.52 57.74 47.52 53.42L47.52 53.42Q47.52 49.03 48.92 45.61Q50.33 42.19 52.70 39.82Q55.08 37.44 58.21 36.22Q61.34 34.99 64.80 34.99L64.80 34.99Q68.26 34.99 71.39 36.22Q74.52 37.44 76.90 39.82Q79.27 42.19 80.68 45.61Q82.08 49.03 82.08 53.42L82.08 53.42Q82.08 57.74 80.68 61.16Q79.27 64.58 76.90 66.92Q74.52 69.26 71.39 70.49Q68.26 71.71 64.80 71.71ZM64.80 66.82L64.80 66.82Q67.32 66.82 69.37 65.84Q71.42 64.87 72.90 63.11Q74.38 61.34 75.17 58.90Q75.96 56.45 75.96 53.42L75.96 53.42Q75.96 50.40 75.17 47.92Q74.38 45.43 72.90 43.63Q71.42 41.83 69.37 40.86Q67.32 39.89 64.80 39.89L64.80 39.89Q62.28 39.89 60.23 40.86Q58.18 41.83 56.70 43.63Q55.22 45.43 54.43 47.92Q53.64 50.40 53.64 53.42L53.64 53.42Q53.64 56.45 54.43 58.90Q55.22 61.34 56.70 63.11Q58.18 64.87 60.23 65.84Q62.28 66.82 64.80 66.82ZM104.11 71.71L104.11 71.71Q97.78 71.71 94.86 68.15Q91.94 64.58 91.94 57.60L91.94 57.60L91.94 35.86L97.92 35.86L97.92 56.81Q97.92 61.78 99.76 64.19Q101.59 66.60 105.98 66.60L105.98 66.60Q109.01 66.60 111.46 65.05Q113.90 63.50 116.86 60.12L116.86 60.12L116.86 35.86L122.76 35.86L122.76 70.85L117.94 70.85L117.43 64.73L117.14 64.73Q114.48 67.82 111.35 69.77Q108.22 71.71 104.11 71.71ZM146.02 70.85L140.11 70.85L140.11 35.86L145.01 35.86L145.51 44.14L145.73 44.14Q148.46 39.89 152.46 37.44Q156.46 34.99 161.35 34.99L161.35 34.99Q163.30 34.99 164.95 35.32Q166.61 35.64 168.26 36.43L168.26 36.43L166.90 41.54Q165.02 40.90 163.76 40.61Q162.50 40.32 160.42 40.32L160.42 40.32Q156.46 40.32 152.82 42.59Q149.18 44.86 146.02 50.33L146.02 50.33L146.02 70.85ZM197.71 71.71L197.71 71.71Q193.61 71.71 190.12 70.49Q186.62 69.26 184.03 66.92Q181.44 64.58 180 61.16Q178.56 57.74 178.56 53.42L178.56 53.42Q178.56 49.03 180.11 45.61Q181.66 42.19 184.32 39.82Q186.98 37.44 190.55 36.22Q194.11 34.99 198.07 34.99L198.07 34.99Q202.39 34.99 205.52 36.50Q208.66 38.02 210.82 40.10L210.82 40.10L207.86 43.92Q205.70 42.05 203.36 40.97Q201.02 39.89 198.29 39.89L198.29 39.89Q195.26 39.89 192.74 40.86Q190.22 41.83 188.46 43.63Q186.70 45.43 185.69 47.92Q184.68 50.40 184.68 53.42L184.68 53.42Q184.68 56.45 185.65 58.90Q186.62 61.34 188.39 63.11Q190.15 64.87 192.64 65.84Q195.12 66.82 198.14 66.82L198.14 66.82Q201.38 66.82 204.08 65.56Q206.78 64.30 208.94 62.42L208.94 62.42L211.61 66.24Q208.66 68.83 205.13 70.27Q201.60 71.71 197.71 71.71ZM239.76 71.71L239.76 71.71Q235.80 71.71 232.38 70.49Q228.96 69.26 226.40 66.89Q223.85 64.51 222.37 61.09Q220.90 57.67 220.90 53.28L220.90 53.28Q220.90 49.03 222.37 45.65Q223.85 42.26 226.33 39.89Q228.82 37.51 232.02 36.25Q235.22 34.99 238.75 34.99L238.75 34.99Q242.50 34.99 245.48 36.18Q248.47 37.37 250.52 39.53Q252.58 41.69 253.66 44.71Q254.74 47.74 254.74 51.41L254.74 51.41Q254.74 52.42 254.66 53.35Q254.59 54.29 254.45 55.01L254.45 55.01L226.87 55.01Q227.45 60.98 231.23 63.97Q235.01 66.96 240.48 66.96L240.48 66.96Q243.65 66.96 246.20 66.06Q248.76 65.16 251.14 63.65L251.14 63.65L253.30 67.54Q250.70 69.26 247.36 70.49Q244.01 71.71 239.76 71.71ZM238.90 39.67L238.90 39.67Q236.74 39.67 234.76 40.39Q232.78 41.11 231.19 42.44Q229.61 43.78 228.53 45.79Q227.45 47.81 227.02 50.40L227.02 50.40L249.34 50.40Q248.98 45.00 246.20 42.34Q243.43 39.67 238.90 39.67ZM327.67 71.71L327.67 71.71Q323.28 71.71 319.54 70.06Q315.79 68.40 313.02 65.27Q310.25 62.14 308.66 57.56Q307.08 52.99 307.08 47.23L307.08 47.23Q307.08 41.54 308.66 37.01Q310.25 32.47 313.06 29.30Q315.86 26.14 319.75 24.44Q323.64 22.75 328.25 22.75L328.25 22.75Q332.50 22.75 335.77 24.48Q339.05 26.21 341.14 28.51L341.14 28.51L337.75 32.33Q335.88 30.38 333.58 29.20Q331.27 28.01 328.25 28.01L328.25 28.01Q324.86 28.01 322.09 29.34Q319.32 30.67 317.38 33.16Q315.43 35.64 314.35 39.17Q313.27 42.70 313.27 47.09L313.27 47.09Q313.27 51.55 314.35 55.12Q315.43 58.68 317.38 61.20Q319.32 63.72 322.09 65.09Q324.86 66.46 328.25 66.46L328.25 66.46Q331.49 66.46 334.04 65.09Q336.60 63.72 338.90 61.20L338.90 61.20L342.29 64.87Q339.48 68.11 335.95 69.91Q332.42 71.71 327.67 71.71ZM367.20 71.71L367.20 71.71Q363.74 71.71 360.61 70.49Q357.48 69.26 355.10 66.92Q352.73 64.58 351.32 61.16Q349.92 57.74 349.92 53.42L349.92 53.42Q349.92 49.03 351.32 45.61Q352.73 42.19 355.10 39.82Q357.48 37.44 360.61 36.22Q363.74 34.99 367.20 34.99L367.20 34.99Q370.66 34.99 373.79 36.22Q376.92 37.44 379.30 39.82Q381.67 42.19 383.08 45.61Q384.48 49.03 384.48 53.42L384.48 53.42Q384.48 57.74 383.08 61.16Q381.67 64.58 379.30 66.92Q376.92 69.26 373.79 70.49Q370.66 71.71 367.20 71.71ZM367.20 66.82L367.20 66.82Q369.72 66.82 371.77 65.84Q373.82 64.87 375.30 63.11Q376.78 61.34 377.57 58.90Q378.36 56.45 378.36 53.42L378.36 53.42Q378.36 50.40 377.57 47.92Q376.78 45.43 375.30 43.63Q373.82 41.83 371.77 40.86Q369.72 39.89 367.20 39.89L367.20 39.89Q364.68 39.89 362.63 40.86Q360.58 41.83 359.10 43.63Q357.62 45.43 356.83 47.92Q356.04 50.40 356.04 53.42L356.04 53.42Q356.04 56.45 356.83 58.90Q357.62 61.34 359.10 63.11Q360.58 64.87 362.63 65.84Q364.68 66.82 367.20 66.82ZM408.31 71.71L408.31 71.71Q404.86 71.71 402.08 70.49Q399.31 69.26 397.30 66.92Q395.28 64.58 394.20 61.20Q393.12 57.82 393.12 53.42L393.12 53.42Q393.12 49.18 394.45 45.76Q395.78 42.34 397.98 39.96Q400.18 37.58 403.06 36.29Q405.94 34.99 409.03 34.99L409.03 34.99Q412.20 34.99 414.68 36.18Q417.17 37.37 419.47 39.53L419.47 39.53L419.69 39.53L419.40 33.05L419.40 19.58L425.30 19.58L425.30 70.85L420.41 70.85L419.90 66.24L419.69 66.24Q417.53 68.47 414.54 70.09Q411.55 71.71 408.31 71.71ZM409.54 66.74L409.54 66.74Q414.72 66.74 419.40 61.49L419.40 61.49L419.40 44.06Q417.02 41.83 414.76 40.90Q412.49 39.96 410.18 39.96L410.18 39.96Q407.88 39.96 405.90 40.93Q403.92 41.90 402.44 43.67Q400.97 45.43 400.10 47.88Q399.24 50.33 399.24 53.35L399.24 53.35Q399.24 59.69 401.94 63.22Q404.64 66.74 409.54 66.74ZM455.76 71.71L455.76 71.71Q451.80 71.71 448.38 70.49Q444.96 69.26 442.40 66.89Q439.85 64.51 438.37 61.09Q436.90 57.67 436.90 53.28L436.90 53.28Q436.90 49.03 438.37 45.65Q439.85 42.26 442.33 39.89Q444.82 37.51 448.02 36.25Q451.22 34.99 454.75 34.99L454.75 34.99Q458.50 34.99 461.48 36.18Q464.47 37.37 466.52 39.53Q468.58 41.69 469.66 44.71Q470.74 47.74 470.74 51.41L470.74 51.41Q470.74 52.42 470.66 53.35Q470.59 54.29 470.45 55.01L470.45 55.01L442.87 55.01Q443.45 60.98 447.23 63.97Q451.01 66.96 456.48 66.96L456.48 66.96Q459.65 66.96 462.20 66.06Q464.76 65.16 467.14 63.65L467.14 63.65L469.30 67.54Q466.70 69.26 463.36 70.49Q460.01 71.71 455.76 71.71ZM454.90 39.67L454.90 39.67Q452.74 39.67 450.76 40.39Q448.78 41.11 447.19 42.44Q445.61 43.78 444.53 45.79Q443.45 47.81 443.02 50.40L443.02 50.40L465.34 50.40Q464.98 45.00 462.20 42.34Q459.43 39.67 454.90 39.67Z"/></svg>