<?xml version="1.0" encoding="UTF-8"?>
<svg xmlns="http://www.w3.org/2000/svg" xmlns:xlink="http://www.w3.org/1999/xlink" width="114.64453125" height="91.7578125" viewBox="0 -4.12109375 114.64453125 100" preserveAspectRatio="xMinYMid meet"><path d="M28.02 70.52L24.68 58.78L8.72 58.78L5.41 70.52L0.70 70.52L15.47 20.11L17.86 20.11L32.70 70.52L28.02 70.52ZM16.56 31.22L9.95 54.46L23.48 54.46L16.84 31.22L16.70 29.36L16.56 31.22ZM61.77 60.64L61.77 60.64Q61.77 62.82 60.94 64.76Q60.12 66.69 58.68 68.13Q57.23 69.57 55.30 70.40Q53.37 71.23 51.19 71.23L51.19 71.23L48.30 71.23Q46.13 71.23 44.19 70.40Q42.26 69.57 40.82 68.13Q39.38 66.69 38.55 64.76Q37.72 62.82 37.72 60.64L37.72 60.64L37.72 20.11L42.05 20.11L42.05 37.55Q43.52 35.79 45.60 34.80Q47.67 33.82 50.10 33.82L50.10 33.82L51.19 33.82Q53.37 33.82 55.30 34.65Q57.23 35.47 58.68 36.91Q60.12 38.36 60.94 40.29Q61.77 42.22 61.77 44.40L61.77 44.40L61.77 60.64ZM57.45 60.89L57.45 44.16Q57.45 42.86 56.95 41.71Q56.46 40.57 55.62 39.73Q54.77 38.88 53.63 38.39Q52.49 37.90 51.19 37.90L51.19 37.90L48.30 37.90Q47.00 37.90 45.86 38.39Q44.72 38.88 43.88 39.73Q43.03 40.57 42.54 41.71Q42.05 42.86 42.05 44.16L42.05 44.16L42.05 60.89Q42.05 62.19 42.54 63.33Q43.03 64.48 43.88 65.32Q44.72 66.16 45.86 66.66Q47.00 67.15 48.30 67.15L48.30 67.15L51.19 67.15Q52.49 67.15 53.63 66.66Q54.77 66.16 55.62 65.32Q56.46 64.48 56.95 63.33Q57.45 62.19 57.45 60.89L57.45 60.89ZM94.46 60.64L94.46 60.64Q94.46 62.82 93.64 64.76Q92.81 66.69 91.37 68.13Q89.93 69.57 88.00 70.40Q86.06 71.23 83.88 71.23L83.88 71.23L81 71.23Q78.82 71.23 76.89 70.40Q74.95 69.57 73.51 68.13Q72.07 66.69 71.24 64.76Q70.42 62.82 70.42 60.64L70.42 60.64L70.42 44.40Q70.42 42.22 71.24 40.29Q72.07 38.36 73.51 36.91Q74.95 35.47 76.89 34.65Q78.82 33.82 81 33.82L81 33.82L83.88 33.82Q86.06 33.82 88.00 34.65Q89.93 35.47 91.37 36.91Q92.81 38.36 93.64 40.29Q94.46 42.22 94.46 44.40L94.46 44.40L94.46 52.88L74.74 52.88L74.74 60.89Q74.74 62.19 75.23 63.33Q75.73 64.48 76.57 65.32Q77.41 66.16 78.56 66.66Q79.70 67.15 81 67.15L81 67.15L83.88 67.15Q85.18 67.15 86.33 66.66Q87.47 66.16 88.31 65.32Q89.16 64.48 89.65 63.33Q90.14 62.19 90.14 60.89L90.14 60.89L90.14 58.50L94.46 59.20L94.46 60.64ZM90.14 49.50L90.14 44.16Q90.14 42.86 89.65 41.71Q89.16 40.57 88.31 39.73Q87.47 38.88 86.33 38.39Q85.18 37.90 83.88 37.90L83.88 37.90L81 37.90Q79.70 37.90 78.56 38.39Q77.41 38.88 76.57 39.73Q75.73 40.57 75.23 41.71Q74.74 42.86 74.74 44.16L74.74 44.16L74.74 49.50L90.14 49.50ZM108.88 70.52L104.55 70.52L104.55 20.11L108.88 20.11L108.88 70.52Z"/></svg>