<?xml version="1.0" encoding="UTF-8"?>
<svg xmlns="http://www.w3.org/2000/svg" xmlns:xlink="http://www.w3.org/1999/xlink" width="363.9600000000001" height="86.4" viewBox="0 -6.799999999999997 363.9600000000001 100" preserveAspectRatio="xMinYMid meet"><path d="M26.28 71.28L26.28 71.28Q20.38 71.28 15.37 68.62Q10.37 65.95 7.34 60.30Q4.32 54.65 4.32 45.72L4.32 45.72L4.32 44.28Q4.32 37.80 6.05 33.12Q7.78 28.44 10.84 25.42Q13.90 22.39 17.86 20.92Q21.82 19.44 26.28 19.44L26.28 19.44Q29.95 19.44 33.12 20.48Q36.29 21.53 38.81 23.47Q41.33 25.42 43.09 28.22Q44.86 31.03 45.72 34.56L45.72 34.56L38.52 34.56Q37.51 31.39 35.60 29.38Q33.70 27.36 31.28 26.42Q28.87 25.49 26.28 25.49L26.28 25.49Q22.39 25.49 19.01 27.29Q15.62 29.09 13.57 33.23Q11.52 37.37 11.52 44.28L11.52 44.28L11.52 45.72Q11.52 51.19 12.82 54.94Q14.11 58.68 16.24 60.95Q18.36 63.22 20.99 64.22Q23.62 65.23 26.28 65.23L26.28 65.23Q30.31 65.23 33.30 63.76Q36.29 62.28 38.12 59.08Q39.96 55.87 40.32 50.76L40.32 50.76L27.72 50.76L27.72 45L46.80 45L46.80 47.16Q46.80 52.99 45.40 57.49Q43.99 61.99 41.29 65.05Q38.59 68.11 34.81 69.70Q31.03 71.28 26.28 71.28ZM72.36 71.28L72.36 71.28Q67.54 71.28 63.32 69.16Q59.11 67.03 56.56 62.71Q54.00 58.39 54.00 51.84L54.00 51.84L54.00 50.40Q54.00 44.21 56.56 40.03Q59.11 35.86 63.32 33.77Q67.54 31.68 72.36 31.68L72.36 31.68Q77.26 31.68 81.43 33.77Q85.61 35.86 88.16 40.03Q90.72 44.21 90.72 50.40L90.72 50.40L90.72 51.84Q90.72 58.39 88.16 62.71Q85.61 67.03 81.43 69.16Q77.26 71.28 72.36 71.28ZM72.36 65.52L72.36 65.52Q75.31 65.52 78.01 64.19Q80.71 62.86 82.48 59.83Q84.24 56.81 84.24 51.84L84.24 51.84L84.24 50.40Q84.24 45.79 82.48 42.95Q80.71 40.10 78.01 38.77Q75.31 37.44 72.36 37.44L72.36 37.44Q69.48 37.44 66.74 38.77Q64.01 40.10 62.24 42.95Q60.48 45.79 60.48 50.40L60.48 50.40L60.48 51.84Q60.48 56.81 62.24 59.83Q64.01 62.86 66.74 64.19Q69.48 65.52 72.36 65.52ZM111.24 70.92L111.24 70.92Q107.28 70.92 104.80 69.66Q102.31 68.40 101.20 65.70Q100.08 63 100.08 58.68L100.08 58.68L100.08 20.16L106.42 20.16L106.42 58.68Q106.42 62.42 107.64 63.79Q108.86 65.16 111.96 65.16L111.96 65.16Q112.75 65.16 113.33 65.12Q113.90 65.09 114.48 65.02L114.48 65.02L114.48 70.63Q114.12 70.70 113.51 70.78Q112.90 70.85 112.28 70.88Q111.67 70.92 111.24 70.92ZM137.88 71.28L137.88 71.28Q133.06 71.28 128.84 69.16Q124.63 67.03 122.08 62.71Q119.52 58.39 119.52 51.84L119.52 51.84L119.52 50.40Q119.52 44.21 122.08 40.03Q124.63 35.86 128.84 33.77Q133.06 31.68 137.88 31.68L137.88 31.68Q142.78 31.68 146.95 33.77Q151.13 35.86 153.68 40.03Q156.24 44.21 156.24 50.40L156.24 50.40L156.24 51.84Q156.24 58.39 153.68 62.71Q151.13 67.03 146.95 69.16Q142.78 71.28 137.88 71.28ZM137.88 65.52L137.88 65.52Q140.83 65.52 143.53 64.19Q146.23 62.86 148.00 59.83Q149.76 56.81 149.76 51.84L149.76 51.84L149.76 50.40Q149.76 45.79 148.00 42.95Q146.23 40.10 143.53 38.77Q140.83 37.44 137.88 37.44L137.88 37.44Q135.00 37.44 132.26 38.77Q129.53 40.10 127.76 42.95Q126.00 45.79 126.00 50.40L126.00 50.40L126.00 51.84Q126.00 56.81 127.76 59.83Q129.53 62.86 132.26 64.19Q135.00 65.52 137.88 65.52ZM178.56 71.28L178.56 71.28Q174.74 71.28 171.94 70.38Q169.13 69.48 167.26 67.97Q165.38 66.46 164.27 64.40Q163.15 62.35 162.72 60.12L162.72 60.12L169.06 60.12Q169.56 62.42 171.76 64.12Q173.95 65.81 178.56 65.81L178.56 65.81Q183.89 65.81 185.98 64.12Q188.06 62.42 188.06 60.12L188.06 60.12Q188.06 58.54 187.16 57.35Q186.26 56.16 184.00 55.30Q181.73 54.43 177.55 53.86L177.55 53.86Q174.38 53.42 171.86 52.60Q169.34 51.77 167.54 50.40Q165.74 49.03 164.77 47.09Q163.80 45.14 163.80 42.48L163.80 42.48Q163.80 39.60 165.46 37.15Q167.11 34.70 170.42 33.19Q173.74 31.68 178.56 31.68L178.56 31.68Q183.10 31.68 186.08 33.23Q189.07 34.78 190.73 37.30Q192.38 39.82 192.96 42.84L192.96 42.84L186.62 42.84Q186.05 40.32 184.18 38.74Q182.30 37.15 178.56 37.15L178.56 37.15Q173.88 37.15 172.01 38.70Q170.14 40.25 170.14 42.48L170.14 42.48Q170.14 45.07 172.19 46.37Q174.24 47.66 179.71 48.38L179.71 48.38Q183.24 48.82 185.98 49.64Q188.71 50.47 190.58 51.88Q192.46 53.28 193.43 55.30Q194.40 57.31 194.40 60.12L194.40 60.12Q194.40 63.14 192.67 65.66Q190.94 68.18 187.45 69.73Q183.96 71.28 178.56 71.28ZM241.34 70.56L234.58 70.56L234.58 26.06L217.08 26.06L217.08 20.16L258.84 20.16L258.84 26.06L241.34 26.06L241.34 70.56ZM275.40 71.28L275.40 71.28Q270.58 71.28 266.36 69.19Q262.15 67.10 259.60 62.78Q257.04 58.46 257.04 51.84L257.04 51.84L257.04 50.40Q257.04 44.06 259.49 39.92Q261.94 35.78 265.97 33.73Q270.00 31.68 274.68 31.68L274.68 31.68Q283.10 31.68 287.71 36.29Q292.32 40.90 292.32 49.32L292.32 49.32L292.32 53.35L263.38 53.35Q263.38 57.82 265.21 60.48Q267.05 63.14 269.82 64.33Q272.59 65.52 275.40 65.52L275.40 65.52Q279.72 65.52 282.06 64.08Q284.40 62.64 285.41 60.12L285.41 60.12L291.60 60.12Q290.45 65.59 285.95 68.44Q281.45 71.28 275.40 71.28ZM275.04 37.44L275.04 37.44Q272.09 37.44 269.42 38.56Q266.76 39.67 265.07 42.05Q263.38 44.42 263.38 48.17L263.38 48.17L286.34 48.17Q286.27 44.21 284.72 41.87Q283.18 39.53 280.66 38.48Q278.14 37.44 275.04 37.44ZM303.12 70.56L295.92 70.56L310.25 51.19L296.64 32.40L303.98 32.40L314.06 46.30L324.14 32.40L331.20 32.40L317.59 50.83L331.92 70.56L324.43 70.56L313.78 55.66L303.12 70.56ZM354.96 70.92L354.96 70.92Q350.93 70.92 348.37 69.70Q345.82 68.47 344.63 65.99Q343.44 63.50 343.44 59.76L343.44 59.76L343.44 38.02L337.68 38.02L337.68 32.40L343.44 32.40L343.44 23.76L349.78 23.76L349.78 32.40L360.00 32.40L360.00 38.02L349.78 38.02L349.78 59.04Q349.78 62.28 351.14 63.72Q352.51 65.16 356.40 65.16L356.40 65.16Q358.56 65.16 360.72 64.94L360.72 64.94L360.72 70.56Q359.35 70.70 357.98 70.81Q356.62 70.92 354.96 70.92Z"/></svg>