<?xml version="1.0" encoding="UTF-8"?>
<svg xmlns="http://www.w3.org/2000/svg" xmlns:xlink="http://www.w3.org/1999/xlink" width="303.048" height="86.32800000000002" viewBox="0 -6.835999999999991 303.048 100" preserveAspectRatio="xMinYMid meet"><path d="M13.90 21.31L13.90 70.27L7.63 70.27L7.63 21.31L13.90 21.31ZM45.07 39.46L45.07 39.46Q43.06 39.46 40.36 40.46Q37.66 41.47 33.84 44.57L33.84 44.57L33.84 70.27L27.94 70.27L27.94 34.63L33.55 34.63L33.55 39.60Q37.37 36.36 40.50 35.14Q43.63 33.91 46.51 33.91L46.51 33.91Q51.48 33.91 54.11 37.04Q56.74 40.18 56.74 45.94L56.74 45.94L56.74 70.27L50.83 70.27L50.83 46.80Q50.83 39.46 45.07 39.46ZM87.77 33.91L87.77 39.82Q84.53 39.82 81.47 40.97Q78.41 42.12 74.95 45.36L74.95 45.36L74.95 70.27L69.05 70.27L69.05 34.63L74.66 34.63L74.66 40.39Q78.34 36.79 81.40 35.35Q84.46 33.91 87.77 33.91L87.77 33.91ZM101.74 19.30L101.74 25.92L95.11 25.92L95.11 19.30L101.74 19.30ZM101.38 34.63L101.38 70.27L95.47 70.27L95.47 34.63L101.38 34.63ZM141.26 70.63L140.18 70.63Q136.87 70.63 134.89 69.12Q132.91 67.61 132.12 65.38L132.12 65.38Q128.59 68.47 125.71 69.73Q122.83 70.99 119.95 70.99L119.95 70.99Q115.27 70.99 113.04 67.97Q110.81 64.94 110.81 60.55L110.81 60.55Q110.81 57.60 111.89 55.30Q112.97 52.99 115.56 51.66Q118.15 50.33 122.54 50.33L122.54 50.33Q124.49 50.33 126.79 50.58Q129.10 50.83 131.47 51.19L131.47 51.19L131.47 46.37Q131.47 42.34 129.71 40.86Q127.94 39.38 124.56 39.38L124.56 39.38Q119.95 39.38 114.26 41.90L114.26 41.90L112.39 37.01Q115.70 35.50 118.73 34.70Q121.75 33.91 124.85 33.91L124.85 33.91Q129.89 33.91 132.55 35.57Q135.22 37.22 136.22 39.96Q137.23 42.70 137.23 45.94L137.23 45.94L137.23 61.34Q137.23 63.00 137.88 64.12Q138.53 65.23 140.47 65.23L140.47 65.23L141.26 65.23L141.26 70.63ZM116.64 60.48L116.64 60.48Q116.64 62.93 117.79 64.44Q118.94 65.95 121.10 65.95L121.10 65.95Q122.98 65.95 125.42 64.84Q127.87 63.72 131.47 60.34L131.47 60.34L131.47 55.80Q126.58 55.01 122.83 55.01L122.83 55.01Q119.52 55.01 118.08 56.38Q116.64 57.74 116.64 60.48ZM176.62 65.38L176.62 65.38Q181.15 65.38 183.60 63.40Q186.05 61.42 186.05 57.60L186.05 57.60Q186.05 54.43 184.36 52.27Q182.66 50.11 178.85 48.96L178.85 48.96L173.02 47.23Q167.54 45.58 164.95 42.23Q162.36 38.88 162.36 33.98L162.36 33.98Q162.36 30.24 163.84 27.22Q165.31 24.19 168.59 22.39Q171.86 20.59 177.19 20.59L177.19 20.59Q180.43 20.59 183.89 21.35Q187.34 22.10 190.87 23.76L190.87 23.76L188.86 29.16Q185.40 27.65 182.63 26.96Q179.86 26.28 177.34 26.28L177.34 26.28Q173.23 26.28 170.96 27.97Q168.70 29.66 168.70 33.55L168.70 33.55Q168.70 36.36 170.21 38.27Q171.72 40.18 175.61 41.40L175.61 41.40L181.44 43.13Q192.38 46.37 192.38 57.10L192.38 57.10Q192.38 63.29 188.64 67.14Q184.90 70.99 176.62 70.99L176.62 70.99Q173.23 70.99 169.45 70.16Q165.67 69.34 161.64 67.54L161.64 67.54L163.58 62.21Q167.40 63.94 170.46 64.66Q173.52 65.38 176.62 65.38ZM228.89 70.63L227.81 70.63Q224.50 70.63 222.52 69.12Q220.54 67.61 219.74 65.38L219.74 65.38Q216.22 68.47 213.34 69.73Q210.46 70.99 207.58 70.99L207.58 70.99Q202.90 70.99 200.66 67.97Q198.43 64.94 198.43 60.55L198.43 60.55Q198.43 57.60 199.51 55.30Q200.59 52.99 203.18 51.66Q205.78 50.33 210.17 50.33L210.17 50.33Q212.11 50.33 214.42 50.58Q216.72 50.83 219.10 51.19L219.10 51.19L219.10 46.37Q219.10 42.34 217.33 40.86Q215.57 39.38 212.18 39.38L212.18 39.38Q207.58 39.38 201.89 41.90L201.89 41.90L200.02 37.01Q203.33 35.50 206.35 34.70Q209.38 33.91 212.47 33.91L212.47 33.91Q217.51 33.91 220.18 35.57Q222.84 37.22 223.85 39.96Q224.86 42.70 224.86 45.94L224.86 45.94L224.86 61.34Q224.86 63.00 225.50 64.12Q226.15 65.23 228.10 65.23L228.10 65.23L228.89 65.23L228.89 70.63ZM204.26 60.48L204.26 60.48Q204.26 62.93 205.42 64.44Q206.57 65.95 208.73 65.95L208.73 65.95Q210.60 65.95 213.05 64.84Q215.50 63.72 219.10 60.34L219.10 60.34L219.10 55.80Q214.20 55.01 210.46 55.01L210.46 55.01Q207.14 55.01 205.70 56.38Q204.26 57.74 204.26 60.48ZM254.38 39.46L254.38 39.46Q252.36 39.46 249.66 40.46Q246.96 41.47 243.14 44.57L243.14 44.57L243.14 70.27L237.24 70.27L237.24 34.63L242.86 34.63L242.86 39.60Q246.67 36.36 249.80 35.14Q252.94 33.91 255.82 33.91L255.82 33.91Q260.78 33.91 263.41 37.04Q266.04 40.18 266.04 45.94L266.04 45.94L266.04 70.27L260.14 70.27L260.14 46.80Q260.14 39.46 254.38 39.46ZM287.06 65.74L287.06 65.74Q294.26 65.74 294.26 60.84L294.26 60.84Q294.26 58.75 292.97 57.53Q291.67 56.30 288.22 55.44L288.22 55.44L284.26 54.43Q279.86 53.35 277.70 50.65Q275.54 47.95 275.54 44.21L275.54 44.21Q275.54 41.47 276.77 39.13Q277.99 36.79 280.66 35.35Q283.32 33.91 287.57 33.91L287.57 33.91Q290.30 33.91 293.15 34.52Q295.99 35.14 298.94 36.58L298.94 36.58L297.07 41.54Q291.82 39.17 287.57 39.17L287.57 39.17Q281.30 39.17 281.30 43.85L281.30 43.85Q281.30 45.65 282.46 46.94Q283.61 48.24 286.78 49.03L286.78 49.03L290.74 50.04Q295.49 51.19 297.72 53.78Q299.95 56.38 299.95 60.48L299.95 60.48Q299.95 63.43 298.69 65.84Q297.43 68.26 294.66 69.62Q291.89 70.99 287.21 70.99L287.21 70.99Q284.11 70.99 281.05 70.34Q277.99 69.70 274.75 68.26L274.75 68.26L276.34 63.36Q279.43 64.58 281.95 65.16Q284.47 65.74 287.06 65.74Z"/></svg>