<?xml version="1.0" encoding="UTF-8"?>
<svg xmlns="http://www.w3.org/2000/svg" xmlns:xlink="http://www.w3.org/1999/xlink" width="381.744" height="93.09600000000002" viewBox="0 -3.451999999999991 381.744 100" preserveAspectRatio="xMinYMid meet"><path d="M13.54 71.86L2.88 72.07L2.88 70.27L4.32 70.13Q6.84 69.84 8.17 69.37Q9.50 68.90 10.01 67.36Q10.51 65.81 10.51 62.28L10.51 62.28L10.51 30.31Q10.51 26.71 10.01 25.20Q9.50 23.69 8.17 23.22Q6.84 22.75 4.32 22.46L4.32 22.46L2.88 22.32L2.88 20.52L13.54 20.74L22.32 20.74Q24.26 20.74 26.86 20.88Q29.45 21.02 32.08 21.56Q34.70 22.10 36.97 23.36Q39.24 24.62 40.64 26.82Q42.05 29.02 42.05 32.47L42.05 32.47Q42.05 35.78 40.50 38.16Q38.95 40.54 36.61 42.08Q34.27 43.63 31.75 44.50L31.75 44.50Q35.21 44.78 38.23 46.08Q41.26 47.38 43.16 50.08Q45.07 52.78 45.07 57.31L45.07 57.31Q45.07 61.49 43.45 64.33Q41.83 67.18 39.10 68.80Q36.36 70.42 33.05 71.14Q29.74 71.86 26.35 71.86L26.35 71.86L13.54 71.86ZM24.48 22.75L24.48 22.75L16.34 22.75L16.34 43.99L25.92 43.99Q30.38 43.99 32.87 41.11Q35.35 38.23 35.35 32.47L35.35 32.47Q35.35 28.37 34.06 26.28Q32.76 24.19 30.35 23.47Q27.94 22.75 24.48 22.75ZM22.32 69.84L22.32 69.84L26.35 69.84Q29.95 69.84 32.65 68.83Q35.35 67.82 36.83 65.12Q38.30 62.42 38.30 57.38L38.30 57.38Q38.30 52.49 36.65 50.04Q34.99 47.59 31.61 46.80Q28.22 46.01 23.04 46.01L23.04 46.01L16.34 46.01L16.34 62.57Q16.34 66.89 17.82 68.36Q19.30 69.84 22.32 69.84ZM60.98 72.65L60.98 72.65Q57.53 72.65 55.26 70.88Q52.99 69.12 52.99 65.95L52.99 65.95Q52.99 62.78 55.80 60.30Q58.61 57.82 62.35 55.80L62.35 55.80Q65.16 54.22 67.97 53.06Q70.78 51.91 72.79 51.12L72.79 51.12L72.79 48.82Q72.79 44.86 71.32 42.91Q69.84 40.97 65.74 40.97L65.74 40.97Q63.79 40.97 61.92 41.47Q60.05 41.98 60.05 43.34L60.05 43.34Q60.05 43.63 60.16 43.99Q60.26 44.35 60.34 44.71L60.34 44.71Q60.70 45.65 60.70 46.66L60.70 46.66Q60.70 48.02 59.72 48.78Q58.75 49.54 57.38 49.54L57.38 49.54Q56.09 49.54 55.22 48.56Q54.36 47.59 54.36 46.22L54.36 46.22Q54.36 43.63 56.34 42.08Q58.32 40.54 61.20 39.85Q64.08 39.17 66.74 39.17L66.74 39.17Q72.50 39.17 75.17 41.83Q77.83 44.50 77.83 50.54L77.83 50.54L77.83 63.50Q77.83 66.67 78.30 68.40Q78.77 70.13 80.42 70.13L80.42 70.13Q81.50 70.13 82.30 69.34Q83.09 68.54 83.38 67.61L83.38 67.61L84.67 68.11Q84.10 70.20 82.62 71.42Q81.14 72.65 78.55 72.65L78.55 72.65Q75.38 72.65 74.20 70.81Q73.01 68.98 72.86 65.95L72.86 65.95Q70.85 69.19 67.75 70.92Q64.66 72.65 60.98 72.65ZM58.61 65.59L58.61 65.59Q58.61 67.61 59.80 68.80Q60.98 69.98 63.29 69.98L63.29 69.98Q65.38 69.98 67.28 68.98Q69.19 67.97 70.63 66.42Q72.07 64.87 72.79 63.07L72.79 63.07L72.79 52.56Q70.42 53.57 67.93 54.90Q65.45 56.23 63.32 57.89Q61.20 59.54 59.90 61.45Q58.61 63.36 58.61 65.59ZM99.94 72.65L99.94 72.65Q97.20 72.65 95.29 72.04Q93.38 71.42 92.30 70.92L92.30 70.92Q91.15 70.34 90.86 70.34L90.86 70.34Q90.58 70.34 90.40 70.60Q90.22 70.85 90 71.86L90 71.86L88.34 71.86L88.63 67.10L88.85 60.98L90.43 60.98L90.50 62.21Q90.65 64.22 91.84 66.24Q93.02 68.26 95.11 69.62Q97.20 70.99 99.94 70.99L99.94 70.99Q102.89 70.99 104.69 69.48Q106.49 67.97 106.49 65.30L106.49 65.30Q106.49 63.00 104.65 61.42Q102.82 59.83 99.58 58.61L99.58 58.61L96.98 57.60Q93.24 56.16 91.33 54.00Q89.42 51.84 89.42 48.46L89.42 48.46Q89.42 45.58 90.76 43.52Q92.09 41.47 94.28 40.32Q96.48 39.17 99 39.17L99 39.17Q100.80 39.17 102.06 39.60Q103.32 40.03 104.18 40.46L104.18 40.46Q104.90 40.82 105.41 40.82L105.41 40.82Q106.13 40.82 106.56 39.31L106.56 39.31L108.14 39.38L107.86 44.06L107.86 49.10L106.20 49.10Q105.70 45.72 103.90 43.24Q102.10 40.75 98.71 40.75L98.71 40.75Q96.34 40.75 94.72 42.26Q93.10 43.78 93.10 46.08L93.10 46.08Q93.10 48.31 94.79 49.79Q96.48 51.26 99.43 52.42L99.43 52.42L102.24 53.50Q106.63 55.15 108.32 57.49Q110.02 59.83 110.02 63.07L110.02 63.07Q110.02 66.89 107.42 69.77Q104.83 72.65 99.94 72.65ZM122.40 71.86L113.54 72.07L113.54 70.42L114.70 70.27Q116.78 69.98 117.90 69.59Q119.02 69.19 119.45 67.79Q119.88 66.38 119.88 63.14L119.88 63.14L119.88 28.01Q119.88 24.26 118.33 23.22Q116.78 22.18 114.05 22.18L114.05 22.18L113.54 22.18L113.54 20.52Q116.50 20.52 119.23 20.34Q121.97 20.16 124.92 19.66L124.92 19.66L124.92 58.18L135.58 45.43Q136.51 44.28 136.51 43.42L136.51 43.42Q136.51 42.34 134.78 42.12L134.78 42.12L133.63 41.98L133.63 40.32L140.54 40.46L146.59 40.32L146.59 41.98L145.44 42.12Q142.20 42.55 140.00 44.06Q137.81 45.58 136.01 47.74L136.01 47.74L131.83 52.70L144.07 66.38Q145.15 67.61 146.45 68.87Q147.74 70.13 149.04 70.27L149.04 70.27L150.19 70.42L150.19 72.07L142.20 71.86L128.59 56.52L124.92 60.91L124.92 63.14Q124.92 66.38 125.35 67.79Q125.78 69.19 126.90 69.59Q128.02 69.98 130.10 70.27L130.10 70.27L131.26 70.42L131.26 72.07L122.40 71.86ZM167.76 72.65L167.76 72.65Q163.01 72.65 159.48 70.60Q155.95 68.54 153.97 64.91Q151.99 61.27 151.99 56.59L151.99 56.59Q151.99 51.55 154.15 47.63Q156.31 43.70 159.95 41.44Q163.58 39.17 167.98 39.17L167.98 39.17Q173.52 39.17 176.65 42.70Q179.78 46.22 179.78 51.98L179.78 51.98Q179.78 52.85 179.71 53.42Q179.64 54.00 179.57 54.22L179.57 54.22L157.82 54.22Q157.75 55.22 157.75 56.23L157.75 56.23Q157.75 60.05 158.98 63.32Q160.20 66.60 162.68 68.54Q165.17 70.49 168.77 70.49L168.77 70.49Q172.15 70.49 174.78 68.58Q177.41 66.67 178.85 62.93L178.85 62.93L180.58 63.58Q177.55 72.65 167.76 72.65ZM167.98 40.97L167.98 40.97Q163.51 40.97 161.03 44.14Q158.54 47.30 157.97 52.56L157.97 52.56L167.11 52.56Q170.35 52.56 172.04 51.80Q173.74 51.05 174.35 49.93Q174.96 48.82 174.96 47.74L174.96 47.74Q174.96 44.57 172.80 42.77Q170.64 40.97 167.98 40.97ZM193.97 71.86L185.11 72.07L185.11 70.42L186.26 70.27Q188.35 69.98 189.47 69.59Q190.58 69.19 191.02 67.79Q191.45 66.38 191.45 63.14L191.45 63.14L191.45 48.17Q191.45 45.36 190.69 44.06Q189.94 42.77 188.50 42.44Q187.06 42.12 185.11 42.12L185.11 42.12L185.11 40.46Q188.06 40.46 190.80 40.25Q193.54 40.03 196.49 39.60L196.49 39.60L195.70 47.88L195.98 47.88Q197.57 43.06 199.87 41.11Q202.18 39.17 204.84 39.17L204.84 39.17Q207.86 39.17 208.87 40.64Q209.88 42.12 209.88 43.49L209.88 43.49Q209.88 45.07 208.94 46.08Q208.01 47.09 206.42 47.09L206.42 47.09Q204.91 47.09 204.12 46.37Q203.33 45.65 203.33 44.71L203.33 44.71Q203.33 43.99 203.51 43.34Q203.69 42.70 203.69 42.34L203.69 42.34Q203.69 41.62 202.68 41.62L202.68 41.62Q201.67 41.62 200.56 42.55Q199.44 43.49 198.65 45.14L198.65 45.14Q198 46.51 197.42 48.17Q196.85 49.82 196.49 51.77L196.49 51.77L196.49 63.14Q196.49 66.38 196.92 67.79Q197.35 69.19 198.47 69.59Q199.58 69.98 201.67 70.27L201.67 70.27L202.82 70.42L202.82 72.07L193.97 71.86ZM233.42 71.86L230.69 71.86L218.95 45.94Q218.30 44.50 217.37 43.49Q216.43 42.48 214.56 42.26L214.56 42.26L213.26 42.12L213.26 40.46L220.68 40.68L228.02 40.46L228.02 42.12L226.87 42.26Q225.29 42.48 224.64 43.02Q223.99 43.56 223.99 44.50L223.99 44.50Q223.99 45.29 224.57 46.66L224.57 46.66L233.64 66.67L242.06 46.94Q242.71 45.50 242.71 44.57L242.71 44.57Q242.71 42.70 239.40 42.26L239.40 42.26L238.18 42.12L238.18 40.46L244.66 40.68L250.70 40.46L250.70 42.12L249.05 42.34Q247.03 42.62 245.95 43.88Q244.87 45.14 243.79 47.66L243.79 47.66L233.42 71.86ZM269.93 71.86L267.19 71.86L255.46 45.94Q254.81 44.50 253.87 43.49Q252.94 42.48 251.06 42.26L251.06 42.26L249.77 42.12L249.77 40.46L257.18 40.68L264.53 40.46L264.53 42.12L263.38 42.26Q261.79 42.48 261.14 43.02Q260.50 43.56 260.50 44.50L260.50 44.50Q260.50 45.29 261.07 46.66L261.07 46.66L270.14 66.67L278.57 46.94Q279.22 45.50 279.22 44.57L279.22 44.57Q279.22 42.70 275.90 42.26L275.90 42.26L274.68 42.12L274.68 40.46L281.16 40.68L287.21 40.46L287.21 42.12L285.55 42.34Q283.54 42.62 282.46 43.88Q281.38 45.14 280.30 47.66L280.30 47.66L269.93 71.86ZM298.08 71.86L289.22 72.07L289.22 70.42L290.38 70.27Q292.46 69.98 293.58 69.59Q294.70 69.19 295.13 67.79Q295.56 66.38 295.56 63.14L295.56 63.14L295.56 47.95Q295.56 44.21 294.01 43.16Q292.46 42.12 289.73 42.12L289.73 42.12L289.22 42.12L289.22 40.46Q292.18 40.46 294.91 40.28Q297.65 40.10 300.60 39.60L300.60 39.60L300.60 63.14Q300.60 66.38 301.03 67.79Q301.46 69.19 302.58 69.59Q303.70 69.98 305.78 70.27L305.78 70.27L306.94 70.42L306.94 72.07L298.08 71.86ZM297.22 31.18L297.22 31.18Q295.34 31.18 294.26 29.88Q293.18 28.58 293.18 26.78L293.18 26.78Q293.18 24.91 294.26 23.65Q295.34 22.39 297.22 22.39L297.22 22.39Q299.30 22.39 300.28 23.65Q301.25 24.91 301.25 26.78L301.25 26.78Q301.25 28.58 300.28 29.88Q299.30 31.18 297.22 31.18ZM317.59 71.86L308.74 72.07L308.74 70.42L309.89 70.27Q311.98 69.98 313.09 69.59Q314.21 69.19 314.64 67.79Q315.07 66.38 315.07 63.14L315.07 63.14L315.07 28.01Q315.07 24.26 313.52 23.22Q311.98 22.18 309.24 22.18L309.24 22.18L308.74 22.18L308.74 20.52Q311.69 20.52 314.42 20.34Q317.16 20.16 320.11 19.66L320.11 19.66L320.11 63.14Q320.11 66.38 320.54 67.79Q320.98 69.19 322.09 69.59Q323.21 69.98 325.30 70.27L325.30 70.27L326.45 70.42L326.45 72.07L317.59 71.86ZM337.46 71.86L328.61 72.07L328.61 70.42L329.76 70.27Q331.85 69.98 332.96 69.59Q334.08 69.19 334.51 67.79Q334.94 66.38 334.94 63.14L334.94 63.14L334.94 28.01Q334.94 24.26 333.40 23.22Q331.85 22.18 329.11 22.18L329.11 22.18L328.61 22.18L328.61 20.52Q331.56 20.52 334.30 20.34Q337.03 20.16 339.98 19.66L339.98 19.66L339.98 63.14Q339.98 66.38 340.42 67.79Q340.85 69.19 341.96 69.59Q343.08 69.98 345.17 70.27L345.17 70.27L346.32 70.42L346.32 72.07L337.46 71.86ZM366.41 72.65L366.41 72.65Q361.66 72.65 358.13 70.60Q354.60 68.54 352.62 64.91Q350.64 61.27 350.64 56.59L350.64 56.59Q350.64 51.55 352.80 47.63Q354.96 43.70 358.60 41.44Q362.23 39.17 366.62 39.17L366.62 39.17Q372.17 39.17 375.30 42.70Q378.43 46.22 378.43 51.98L378.43 51.98Q378.43 52.85 378.36 53.42Q378.29 54.00 378.22 54.22L378.22 54.22L356.47 54.22Q356.40 55.22 356.40 56.23L356.40 56.23Q356.40 60.05 357.62 63.32Q358.85 66.60 361.33 68.54Q363.82 70.49 367.42 70.49L367.42 70.49Q370.80 70.49 373.43 68.58Q376.06 66.67 377.50 62.93L377.50 62.93L379.22 63.58Q376.20 72.65 366.41 72.65ZM366.62 40.97L366.62 40.97Q362.16 40.97 359.68 44.14Q357.19 47.30 356.62 52.56L356.62 52.56L365.76 52.56Q369.00 52.56 370.69 51.80Q372.38 51.05 373.00 49.93Q373.61 48.82 373.61 47.74L373.61 47.74Q373.61 44.57 371.45 42.77Q369.29 40.97 366.62 40.97Z"/></svg>