<?xml version="1.0" encoding="UTF-8"?>
<svg xmlns="http://www.w3.org/2000/svg" xmlns:xlink="http://www.w3.org/1999/xlink" width="535.2480000000002" height="103.53600000000002" viewBox="0 1.7680000000000078 535.2480000000002 100" preserveAspectRatio="xMinYMid meet"><path d="M32.76 19.51L32.76 19.51L34.42 18.94Q35.35 18.94 35.50 19.51L35.50 19.51Q37.01 28.22 37.01 29.77Q37.01 31.32 36.00 31.32L36.00 31.32Q35.35 31.32 34.74 29.77Q34.13 28.22 33.30 26.93Q32.47 25.63 32.11 25.27Q31.75 24.91 30.24 23.54L30.24 23.54Q26.35 20.09 21.35 20.09Q16.34 20.09 13.32 22.25Q10.30 24.41 10.30 27.86Q10.30 31.32 12.06 33.41Q13.82 35.50 16.78 36.65Q19.73 37.80 22.97 38.81L22.97 38.81Q31.68 41.54 35.86 45.94L35.86 45.94Q38.74 49.03 38.74 53.64L38.74 53.64Q38.74 61.20 33.91 65.63Q29.09 70.06 21.96 70.06L21.96 70.06Q16.99 70.06 13.97 69.52Q10.94 68.98 7.78 67.32L7.78 67.32Q6.84 66.74 5.54 61.70Q4.25 56.66 4.25 55.40Q4.25 54.14 5.22 54.14Q6.19 54.14 6.41 54.86L6.41 54.86Q9.07 61.27 12.67 63.94L12.67 63.94Q16.56 66.89 22.07 66.89Q27.58 66.89 30.85 64.04Q34.13 61.20 34.13 56.59L34.13 56.59Q34.13 53.21 31.90 50.94Q29.66 48.67 26.78 47.66L26.78 47.66Q16.06 44.06 12.24 41.83L12.24 41.83Q5.69 37.94 5.69 31.39Q5.69 24.84 10.33 20.99Q14.98 17.14 22.39 17.14L22.39 17.14Q25.13 17.14 28.91 18.32Q32.69 19.51 32.76 19.51ZM61.81 70.42Q54.43 70.42 50.08 65.70Q45.72 60.98 45.72 54.43Q45.72 47.88 50.22 42.98Q54.72 38.09 62.10 38.09Q69.48 38.09 74.48 42.34Q79.49 46.58 79.49 54.14Q79.49 61.70 74.34 66.06Q69.19 70.42 61.81 70.42ZM60.98 40.03Q57.24 40.03 54.32 42.98Q51.41 45.94 51.41 52.70Q51.41 59.47 55.37 63.86Q59.33 68.26 63.90 68.26Q68.47 68.26 71.28 65.12Q74.09 61.99 74.09 55.94Q74.09 49.90 70.63 44.96Q67.18 40.03 60.98 40.03L60.98 40.03ZM86.04 42.98L86.04 42.98L85.25 42.91Q83.88 42.91 83.88 41.76L83.88 41.76Q83.88 40.97 84.85 40.57Q85.82 40.18 88.45 39.35Q91.08 38.52 92.59 37.84Q94.10 37.15 94.39 37.15L94.39 37.15Q95.33 37.15 95.33 38.59L95.33 38.59L95.26 40.54Q95.26 43.13 95.44 43.38Q95.62 43.63 95.80 43.63Q95.98 43.63 96.91 42.19Q97.85 40.75 99.58 39.28Q101.30 37.80 103.00 37.80Q104.69 37.80 106.49 38.99Q108.29 40.18 108.29 41.36Q108.29 42.55 107.71 43.56L107.71 43.56Q106.70 45.29 105.84 45.29L105.84 45.29Q105.26 45.29 103.79 44.42Q102.31 43.56 100.37 43.56Q98.42 43.56 96.73 45.14Q95.04 46.73 95.04 48.02L95.04 48.02L95.04 55.51L95.11 61.78L95.18 63.07Q95.18 64.58 96.19 65.66Q97.20 66.74 98.10 66.89Q99.00 67.03 99.65 67.10Q100.30 67.18 100.66 67.21Q101.02 67.25 101.45 67.39L101.45 67.39Q102.24 67.54 102.24 68.44Q102.24 69.34 101.38 69.34L101.38 69.34L95.26 68.98L87.77 69.34Q86.47 69.34 86.33 69.05Q86.18 68.76 86.18 68.47L86.18 68.47Q86.18 67.54 87.12 67.25L87.12 67.25Q88.99 66.82 89.39 65.41Q89.78 64.01 89.78 59.40L89.78 59.40L89.71 47.81L89.64 45.65Q89.64 44.86 89.42 44.35L89.42 44.35Q88.85 42.98 86.04 42.98ZM113.83 42.41L113.83 42.41L112.46 42.48Q111.24 42.48 111.24 41.47L111.24 41.47Q111.24 40.75 111.89 40.25L111.89 40.25Q114.62 38.45 117.36 34.85L117.36 34.85Q118.51 33.19 119.20 32.44Q119.88 31.68 120.60 31.68Q121.32 31.68 121.32 33.34L121.32 33.34Q121.32 33.34 121.03 37.44L121.03 37.44Q121.03 38.45 121.43 38.66Q121.82 38.88 123.98 38.88L123.98 38.88L126.50 38.88Q129.74 38.88 130.46 38.52L130.46 38.52Q131.76 37.87 132.05 37.87L132.05 37.87Q132.77 37.87 132.77 38.66L132.77 38.66Q132.77 39.24 131.83 40.93Q130.90 42.62 130.46 42.62L130.46 42.62Q127.22 42.62 125.93 42.48Q124.63 42.34 124.20 42.30Q123.77 42.26 123.44 42.23Q123.12 42.19 122.98 42.19L122.98 42.19L122.83 42.12Q121.46 42.12 121.07 42.55Q120.67 42.98 120.67 44.50L120.67 44.50L120.38 57.89Q120.38 62.57 121.57 64.40Q122.76 66.24 126.58 66.24L126.58 66.24Q128.09 66.24 129.92 65.56Q131.76 64.87 131.90 64.87L131.90 64.87Q132.62 64.87 132.62 65.81Q132.62 66.74 130.14 68.29Q127.66 69.84 124.78 69.84L124.78 69.84Q115.06 69.84 115.06 61.42L115.06 61.42L115.06 60.34L115.34 43.56Q115.34 42.84 115.06 42.62Q114.77 42.41 113.83 42.41ZM157.54 40.25L157.54 40.25L157.82 44.57Q157.82 45.79 157.54 46.22Q157.25 46.66 156.71 46.66Q156.17 46.66 155.56 45.61Q154.94 44.57 154.19 43.34Q153.43 42.12 151.74 41.08Q150.05 40.03 147.89 40.03Q145.73 40.03 144.36 41.08Q142.99 42.12 142.99 43.34Q142.99 44.57 143.21 45.32Q143.42 46.08 143.96 46.66Q144.50 47.23 144.90 47.63Q145.30 48.02 146.23 48.46Q147.17 48.89 147.64 49.07Q148.10 49.25 149.18 49.68L149.18 49.68Q155.74 51.98 157.61 54.18Q159.48 56.38 159.48 60.48Q159.48 64.58 155.66 68.04L155.66 68.04Q153.07 70.27 148.54 70.27L148.54 70.27Q145.44 70.27 141.62 68.76L141.62 68.76Q140.54 68.33 140.36 68.29Q140.18 68.26 139.79 68.11Q139.39 67.97 139.21 67.93Q139.03 67.90 138.74 67.75Q138.46 67.61 138.35 67.50Q138.24 67.39 138.10 67.18L138.10 67.18Q137.88 66.82 137.88 66.02L137.88 66.02L137.88 59.76Q137.88 58.97 138.20 58.43Q138.53 57.89 139.10 57.89Q139.68 57.89 139.93 58.21Q140.18 58.54 140.40 59.54Q140.62 60.55 140.83 60.98L140.83 60.98Q143.50 67.61 148.32 67.61L148.32 67.61Q150.55 67.61 152.57 66.42Q154.58 65.23 154.58 62.68Q154.58 60.12 152.93 58.54Q151.27 56.95 148.90 56.05Q146.52 55.15 144.14 54.18Q141.77 53.21 140.11 51.30Q138.46 49.39 138.46 46.51L138.46 46.51Q138.46 42.48 141.70 40.03Q144.94 37.58 148.82 37.58Q152.71 37.58 154.73 38.20Q156.74 38.81 157.14 39.31Q157.54 39.82 157.54 40.25ZM187.99 69.05L182.09 69.26Q180.58 69.26 180.58 68.11L180.58 68.11Q180.58 67.18 182.74 67.10L182.74 67.10Q183.53 67.03 184.54 65.92Q185.54 64.80 185.98 62.93Q186.41 61.06 186.91 50.11Q187.42 39.17 187.42 32.94Q187.42 26.71 186.01 23.98Q184.61 21.24 179.93 20.16L179.93 20.16Q178.99 19.94 178.99 19.08L178.99 19.08Q178.99 18 180.29 18L180.29 18L184.10 18.29L189.50 18.14Q190.87 18.14 191.23 19.15L191.23 19.15Q192.10 21.02 194.33 25.88Q196.56 30.74 197.89 33.62Q199.22 36.50 201.31 40.97Q203.40 45.43 204.70 48.20Q205.99 50.98 207.40 53.78Q208.80 56.59 209.56 57.92Q210.31 59.26 210.53 59.26Q210.74 59.26 211.00 59.00Q211.25 58.75 211.50 58.32Q211.75 57.89 211.93 57.46Q212.11 57.02 212.44 56.34Q212.76 55.66 212.90 55.30L212.90 55.30L222.19 36.14Q226.01 28.37 227.30 25.27L227.30 25.27L228.96 21.67Q229.18 21.10 229.28 20.77Q229.39 20.45 229.46 20.27Q229.54 20.09 229.61 19.94Q229.68 19.80 229.86 19.30Q230.04 18.79 230.26 18.58L230.26 18.58Q230.83 18 232.34 18L232.34 18L238.54 18.14Q239.76 18.14 239.76 19.08L239.76 19.08Q239.76 19.80 239.29 20.12Q238.82 20.45 237.20 20.66Q235.58 20.88 234.86 22.46Q234.14 24.05 234.14 31.14Q234.14 38.23 234.58 46.12Q235.01 54 235.01 56.02L235.01 56.02Q235.01 63.22 236.16 65.20Q237.31 67.18 240.98 67.18L240.98 67.18Q241.49 67.18 241.88 67.54Q242.28 67.90 242.28 68.18L242.28 68.18Q242.28 69.34 241.49 69.34L241.49 69.34L240.70 69.34L233.35 69.05Q233.35 69.05 225.86 69.41L225.86 69.41Q224.57 69.41 224.57 68.40L224.57 68.40Q224.57 67.32 226.51 67.10L226.51 67.10Q227.23 67.03 228.06 66.20Q228.89 65.38 229.21 63.83Q229.54 62.28 229.54 59.54Q229.54 56.81 229.43 53.57Q229.32 50.33 229.18 47.27Q229.03 44.21 228.89 41.51Q228.74 38.81 228.67 37.08L228.67 37.08L228.53 35.35Q228.53 32.26 227.88 32.26L227.88 32.26Q227.66 32.26 227.48 32.47Q227.30 32.69 227.16 32.83Q227.02 32.98 226.87 33.30Q226.73 33.62 226.58 33.84Q226.44 34.06 226.22 34.45Q226.01 34.85 225.86 35.14L225.86 35.14L225.50 35.93Q225.22 36.43 225.07 36.79L225.07 36.79L215.06 57.02Q213.34 60.55 211.72 63.94Q210.10 67.32 209.81 67.79Q209.52 68.26 208.98 68.26Q208.44 68.26 208.01 67.64Q207.58 67.03 206.71 64.94Q205.85 62.86 205.20 61.49L205.20 61.49Q192.02 34.70 191.74 34.31Q191.45 33.91 191.23 33.91L191.23 33.91Q190.66 33.91 190.66 36.79L190.66 36.79L190.01 55.80L190.01 59.04Q190.01 64.94 192.38 66.31L192.38 66.31Q193.61 67.03 194.76 67.10L194.76 67.10Q196.56 67.32 196.56 68.08Q196.56 68.83 196.34 69.08Q196.13 69.34 195.48 69.34L195.48 69.34L187.99 69.05ZM260.28 69.55L255.17 69.41L250.06 69.55Q247.18 69.55 247.18 68.58Q247.18 67.61 248.26 67.25L248.26 67.25Q248.33 67.25 248.54 67.18L248.54 67.18Q250.20 66.60 250.70 65.45Q251.21 64.30 251.21 54.29L251.21 54.29L251.21 47.95Q251.21 45.86 250.70 44.64Q250.20 43.42 249.77 43.13Q249.34 42.84 248.29 42.66Q247.25 42.48 246.78 42.30Q246.31 42.12 246.31 41.72Q246.31 41.33 246.49 41.11Q246.67 40.90 247.21 40.64Q247.75 40.39 248.33 40.18L248.33 40.18Q250.34 39.60 251.64 39.02Q252.94 38.45 253.62 38.16Q254.30 37.87 254.52 37.73L254.52 37.73Q255.02 37.51 255.74 37.51L255.74 37.51Q256.82 37.51 256.82 38.88L256.82 38.88L256.39 42.34L256.39 62.06Q256.39 64.22 257.08 65.45Q257.76 66.67 258.52 66.96Q259.27 67.25 260.28 67.32Q261.29 67.39 261.58 67.39L261.58 67.39Q262.58 67.54 262.58 68.40L262.58 68.40Q262.58 69.62 261.36 69.62L261.36 69.62L260.28 69.55ZM253.94 30.74Q252.50 30.74 251.46 29.23Q250.42 27.72 250.42 26.75Q250.42 25.78 251.68 24.23Q252.94 22.68 254.05 22.68Q255.17 22.68 256.25 24.16Q257.33 25.63 257.33 26.78Q257.33 27.94 255.96 29.34Q254.59 30.74 253.94 30.74L253.94 30.74ZM270.72 60.62L270.72 55.30L271.01 24.70Q271.01 23.04 270.47 21.71Q269.93 20.38 269.28 20.09Q268.63 19.80 266.40 19.80L266.40 19.80Q265.61 19.80 265.61 19.30Q265.61 18.79 265.72 18.58Q265.82 18.36 266.18 18.18Q266.54 18 267.05 17.86L267.05 17.86Q269.14 17.42 271.37 16.34L271.37 16.34Q274.90 14.69 275.98 14.69L275.98 14.69Q276.84 14.69 276.84 16.06L276.84 16.06Q276.84 16.34 276.70 17.71L276.70 17.71Q276.26 21.96 276.26 27L276.26 27L276.26 31.03L276.12 40.61L276.12 62.06Q276.12 63.58 276.37 64.55Q276.62 65.52 278.03 66.42Q279.43 67.32 281.95 67.32L281.95 67.32Q282.31 67.32 282.60 67.68Q282.89 68.04 282.89 68.40L282.89 68.40Q282.89 69.41 280.66 69.41L280.66 69.41L273.38 68.90Q271.51 68.90 269.82 69.19Q268.13 69.48 267.59 69.48Q267.05 69.48 266.72 69.23Q266.40 68.98 266.40 68.58Q266.40 68.18 266.72 67.93Q267.05 67.68 267.77 67.54L267.77 67.54Q269.93 66.96 270.36 65.77Q270.79 64.58 270.79 62.50L270.79 62.50L270.72 60.62ZM290.81 60.62L290.81 55.30L291.10 24.70Q291.10 23.04 290.56 21.71Q290.02 20.38 289.37 20.09Q288.72 19.80 286.49 19.80L286.49 19.80Q285.70 19.80 285.70 19.30Q285.70 18.79 285.80 18.58Q285.91 18.36 286.27 18.18Q286.63 18 287.14 17.86L287.14 17.86Q289.22 17.42 291.46 16.34L291.46 16.34Q294.98 14.69 296.06 14.69L296.06 14.69Q296.93 14.69 296.93 16.06L296.93 16.06Q296.93 16.34 296.78 17.71L296.78 17.71Q296.35 21.96 296.35 27L296.35 27L296.35 31.03L296.21 40.61L296.21 62.06Q296.21 63.58 296.46 64.55Q296.71 65.52 298.12 66.42Q299.52 67.32 302.04 67.32L302.04 67.32Q302.40 67.32 302.69 67.68Q302.98 68.04 302.98 68.40L302.98 68.40Q302.98 69.41 300.74 69.41L300.74 69.41L293.47 68.90Q291.60 68.90 289.91 69.19Q288.22 69.48 287.68 69.48Q287.14 69.48 286.81 69.23Q286.49 68.98 286.49 68.58Q286.49 68.18 286.81 67.93Q287.14 67.68 287.86 67.54L287.86 67.54Q290.02 66.96 290.45 65.77Q290.88 64.58 290.88 62.50L290.88 62.50L290.81 60.62ZM360.50 42.48L368.50 42.84L374.26 42.77L375.34 42.77Q376.49 42.77 376.49 43.42L376.49 43.42Q376.49 43.92 374.65 44.71Q372.82 45.50 372.60 46.73L372.60 46.73Q372.10 49.82 372.10 53.39Q372.10 56.95 372.17 58.61Q372.24 60.26 372.28 60.95Q372.31 61.63 372.38 62.14Q372.46 62.64 372.46 62.93Q372.46 63.22 371.92 63.40Q371.38 63.58 370.15 63.90Q368.93 64.22 367.92 64.84Q366.91 65.45 366.41 65.74Q365.90 66.02 365.08 66.46Q364.25 66.89 363.38 67.32Q362.52 67.75 361.44 68.22Q360.36 68.69 359.21 69.05Q358.06 69.41 356.83 69.70L356.83 69.70Q354.10 70.34 351.65 70.34L351.65 70.34Q343.80 70.34 338.00 68.22Q332.21 66.10 329.04 62.50L329.04 62.50Q322.85 55.37 322.85 45.43L322.85 45.43Q322.85 37.58 325.98 31.32Q329.11 25.06 335.59 21.20Q342.07 17.35 351.00 17.35L351.00 17.35Q359.57 17.35 365.83 20.59L365.83 20.59Q367.27 21.38 368.03 21.92Q368.78 22.46 368.96 22.46Q369.14 22.46 369.90 21.92Q370.66 21.38 370.94 21.38L370.94 21.38Q372.02 21.38 372.06 23.15Q372.10 24.91 372.35 27.22Q372.60 29.52 372.82 31.03Q373.03 32.54 373.03 32.83L373.03 32.83Q373.03 34.06 372.17 34.06Q371.30 34.06 370.94 33.19L370.94 33.19Q368.42 27.72 362.52 23.94Q356.62 20.16 350.35 20.16L350.35 20.16Q341.35 20.16 335.48 25.81Q329.62 31.46 329.62 41.47L329.62 41.47Q329.62 48.10 332.06 53.93Q334.51 59.76 339.52 63.58Q344.52 67.39 350.53 67.39Q356.54 67.39 361.04 64.87Q365.54 62.35 366.05 59.11L366.05 59.11Q366.26 57.38 366.26 50.04L366.26 50.04Q366.26 47.23 365.22 46.19Q364.18 45.14 361.94 44.89Q359.71 44.64 359.46 44.17Q359.21 43.70 359.21 43.27L359.21 43.27Q359.21 42.48 360.50 42.48L360.50 42.48ZM397.48 70.42Q390.10 70.42 385.74 65.70Q381.38 60.98 381.38 54.43Q381.38 47.88 385.88 42.98Q390.38 38.09 397.76 38.09Q405.14 38.09 410.15 42.34Q415.15 46.58 415.15 54.14Q415.15 61.70 410.00 66.06Q404.86 70.42 397.48 70.42ZM396.65 40.03Q392.90 40.03 389.99 42.98Q387.07 45.94 387.07 52.70Q387.07 59.47 391.03 63.86Q394.99 68.26 399.56 68.26Q404.14 68.26 406.94 65.12Q409.75 61.99 409.75 55.94Q409.75 49.90 406.30 44.96Q402.84 40.03 396.65 40.03L396.65 40.03ZM424.73 57.89L424.73 57.89L424.80 44.93Q424.80 43.49 424.04 42.62Q423.29 41.76 422.64 41.76L422.64 41.76L421.34 41.76Q420.05 41.76 420.05 40.75Q420.05 39.74 421.45 39.46Q422.86 39.17 424.87 39.17L424.87 39.17L428.98 38.81Q430.20 38.81 430.42 39.31Q430.63 39.82 430.63 41.83Q430.63 43.85 430.45 47.34Q430.27 50.83 430.27 55.08L430.27 55.08Q430.27 61.42 432.72 64.04Q435.17 66.67 438.26 66.67L438.26 66.67Q442.87 66.67 444.96 64.73Q447.05 62.78 447.05 57.89L447.05 57.89L446.90 47.95Q446.90 44.35 446.33 43.09Q445.75 41.83 443.88 41.65Q442.01 41.47 442.01 40.68L442.01 40.68Q442.01 39.02 448.34 39.02L448.34 39.02L450.94 38.66Q452.02 38.66 452.34 39.02Q452.66 39.38 452.66 40.07Q452.66 40.75 452.63 41.80Q452.59 42.84 452.56 44.57Q452.52 46.30 452.45 48.46L452.45 48.46Q452.30 52.78 452.30 58.10Q452.30 63.43 452.74 65.02Q453.17 66.60 454.32 66.60L454.32 66.60L456.19 66.53Q457.92 66.53 457.92 67.39Q457.92 68.26 457.42 68.47Q456.91 68.69 455.47 68.69Q454.03 68.69 451.12 69.08Q448.20 69.48 447.98 69.48L447.98 69.48Q447.48 69.48 447.16 67.64Q446.83 65.81 446.72 65.81Q446.62 65.81 445.32 66.96Q444.02 68.11 441.61 69.26Q439.20 70.42 436.32 70.42L436.32 70.42Q424.73 70.42 424.73 57.89ZM487.80 69.34L487.80 69.34L487.58 66.67Q487.58 65.45 486.94 65.45L486.94 65.45Q486.72 65.45 485.89 66.17Q485.06 66.89 483.98 67.79Q482.90 68.69 480.85 69.41Q478.80 70.13 476.42 70.13L476.42 70.13Q469.73 70.13 465.98 65.70Q462.24 61.27 462.24 54.68Q462.24 48.10 466.88 42.84Q471.53 37.58 479.74 37.58L479.74 37.58Q481.61 37.58 484.67 38.63Q487.73 39.67 488.02 39.67Q488.30 39.67 488.30 37.08L488.30 37.08L488.45 27.79Q488.45 23.90 488.05 22.32Q487.66 20.74 486.83 20.23Q486.00 19.73 484.63 19.73L484.63 19.73L483.84 19.73Q482.76 19.73 482.54 19.66Q482.33 19.58 482.33 19.15L482.33 19.15L482.33 19.08Q482.33 18.58 483.05 18.32Q483.77 18.07 485.96 17.39Q488.16 16.70 489.42 16.13Q490.68 15.55 491.33 15.26L491.33 15.26Q492.70 14.54 493.27 14.54L493.27 14.54Q494.14 14.54 494.14 15.98L494.14 15.98Q494.14 16.20 493.67 22.10Q493.20 28.01 493.20 31.61L493.20 31.61L493.06 57.89Q493.06 62.78 493.52 64.44Q493.99 66.10 495.58 66.60L495.58 66.60Q495.79 66.67 496.80 66.85Q497.81 67.03 498.24 67.28Q498.67 67.54 498.67 68.11L498.67 68.11Q498.67 68.98 493.13 69.41L493.13 69.41Q491.98 69.48 490.46 69.80Q488.95 70.13 488.59 70.13L488.59 70.13Q487.80 70.13 487.80 69.34ZM477.43 39.67Q472.75 39.67 470.09 43.09Q467.42 46.51 467.42 51.84Q467.42 57.17 470.77 61.78Q474.12 66.38 479.38 66.38L479.38 66.38Q482.62 66.38 485.28 64.73Q487.94 63.07 487.94 60.70L487.94 60.70L488.02 48.38Q488.02 43.99 486.00 42.84L486.00 42.84Q480.67 39.67 477.43 39.67L477.43 39.67ZM514.30 82.80L514.08 82.80L510.98 82.87Q509.62 82.87 509.62 81.94L509.62 81.94Q509.62 81.72 511.24 79.70Q512.86 77.69 514.51 74.74Q516.17 71.78 516.17 69.52Q516.17 67.25 512.06 58.32Q507.96 49.39 504.94 43.70L504.94 43.70Q504.14 42.26 503.32 41.47Q502.49 40.68 501.98 40.61L501.98 40.61Q500.83 40.46 500.83 39.53Q500.83 38.59 502.27 38.59L502.27 38.59L509.98 38.74L514.08 38.59Q514.58 38.59 514.98 38.84Q515.38 39.10 515.38 39.38L515.38 39.38Q515.38 40.68 513.65 40.68L513.65 40.68L512.57 40.68Q511.42 40.68 511.42 42.48L511.42 42.48Q511.42 44.64 515.23 52.85L515.23 52.85Q515.81 54.07 516.96 56.74L516.96 56.74Q519.12 61.63 519.55 61.63Q519.98 61.63 522.90 53.35Q525.82 45.07 525.82 43.49Q525.82 41.90 525.13 41.26Q524.45 40.61 523.58 40.61L523.58 40.61Q521.35 40.75 521.35 39.38L521.35 39.38Q521.35 38.52 522.72 38.52L522.72 38.52L527.90 38.59L532.37 38.52Q533.88 38.52 533.88 39.46L533.88 39.46Q533.88 40.18 532.62 40.50Q531.36 40.82 530.93 41.40L530.93 41.40Q529.78 43.06 527.04 50.47L527.04 50.47L520.63 67.54Q519.84 69.62 519.05 71.82Q518.26 74.02 517.75 75.38Q517.25 76.75 516.74 78.12Q516.24 79.49 515.95 80.24Q515.66 81 515.38 81.65L515.38 81.65Q514.80 82.80 514.30 82.80L514.30 82.80Z"/></svg>