<svg id="analytics_icon_svg" data-name="analytics_icon" xmlns="http://www.w3.org/2000/svg" viewBox="0 0 48 48" alt="" role="img" aria-label="analytics icon" class="gmp-product-icon gmp-product-icon--fixed">
          <path class="yellow-1" fill="#f9ab00" d="M45.26,41.65a5.85,5.85,0,0,1-6.54,5.84,6,6,0,0,1-5.12-6.08V6.59A6,6,0,0,1,38.73.51a5.85,5.85,0,0,1,6.53,5.84Z"></path><path class="yellow-2" fill="#e37400" d="M8.57,35.88a5.83,5.83,0,1,1-5.83,5.83A5.83,5.83,0,0,1,8.57,35.88ZM23.91,18.21a6,6,0,0,0-5.67,6.13V40c0,4.25,1.87,6.83,4.61,7.38a5.84,5.84,0,0,0,7-5.74V24.07A5.85,5.85,0,0,0,23.91,18.21Z"></path>
    </svg>