<?xml version="1.0" encoding="UTF-8"?>
<svg xmlns="http://www.w3.org/2000/svg" xmlns:xlink="http://www.w3.org/1999/xlink" width="313.27200000000005" height="72.00000000000001" viewBox="0 -13.999999999999993 313.27200000000005 100" preserveAspectRatio="xMinYMid meet"><path d="M4.10 35.64L10.58 35.64Q10.94 42.77 14.62 46.55Q18.29 50.33 26.21 50.33L26.21 50.33Q31.61 50.33 35.46 47.95Q39.31 45.58 39.31 41.26L39.31 41.26Q39.31 38.09 37.48 35.89Q35.64 33.70 32.72 32.47Q29.81 31.25 26.28 30.31Q22.75 29.38 19.26 28.33Q15.77 27.29 12.85 25.78Q9.94 24.26 8.10 21.49Q6.26 18.72 6.26 14.83L6.26 14.83Q6.26 12.02 7.24 9.54Q8.21 7.06 10.26 4.90Q12.31 2.74 16.13 1.48Q19.94 0.22 25.13 0.22L25.13 0.22Q29.95 0.22 33.59 1.58Q37.22 2.95 39.13 4.79Q41.04 6.62 42.34 9.22Q43.63 11.81 43.96 13.46Q44.28 15.12 44.50 16.92L44.50 16.92L37.58 16.92Q37.51 15.19 37.33 14.04Q37.15 12.89 36.40 11.16Q35.64 9.43 34.38 8.42Q33.12 7.42 30.64 6.62Q28.15 5.83 24.70 5.83L24.70 5.83Q19.37 5.83 16.27 7.60Q13.18 9.36 13.18 13.97L13.18 13.97Q13.18 16.85 15.62 18.79Q18.07 20.74 21.71 21.67Q25.34 22.61 29.59 23.98Q33.84 25.34 37.48 26.96Q41.11 28.58 43.56 31.97Q46.01 35.35 46.01 40.18L46.01 40.18Q46.01 48.24 40.43 52.20Q34.85 56.16 26.21 56.16L26.21 56.16Q20.74 56.16 16.60 54.68Q12.46 53.21 10.19 51.12Q7.92 49.03 6.52 45.97Q5.11 42.91 4.68 40.64Q4.25 38.38 4.10 35.64L4.10 35.64ZM58.10 46.94L58.10 46.94L58.10 23.33L52.27 23.33L52.27 17.71L58.10 17.71L58.10 5.83L64.15 5.83L64.15 17.71L71.28 17.71L71.28 23.33L64.15 23.33L64.15 47.16Q64.15 50.18 67.61 50.18L67.61 50.18Q68.62 50.18 69.59 50.08Q70.56 49.97 70.99 49.82L70.99 49.82L71.50 49.75L71.50 55.58Q69.98 56.16 66.38 56.16L66.38 56.16Q57.96 56.16 58.10 47.30L58.10 47.30Q58.10 47.09 58.10 46.94ZM109.51 56.16L109.51 56.16Q107.28 56.16 105.66 55.26Q104.04 54.36 103.28 52.88Q102.53 51.41 102.24 50.04Q101.95 48.67 101.95 47.23L101.95 47.23Q101.95 49.68 97.88 52.92Q93.82 56.16 88.42 56.16L88.42 56.16Q83.38 56.16 80.68 52.99Q77.98 49.82 77.98 45.22L77.98 45.22Q77.98 43.27 78.55 41.62Q79.13 39.96 80.32 38.77Q81.50 37.58 82.69 36.68Q83.88 35.78 85.90 35.17Q87.91 34.56 89.24 34.16Q90.58 33.77 92.84 33.55Q95.11 33.34 96.12 33.23Q97.13 33.12 99.22 33.01Q101.30 32.90 101.52 32.90L101.52 32.90L101.52 29.16Q101.59 25.34 99.22 23.58Q96.84 21.82 93.60 21.82L93.60 21.82Q89.71 21.82 87.62 23.90Q85.54 25.99 85.54 29.38L85.54 29.38L78.41 29.38Q78.41 27.29 79.13 25.27Q79.85 23.26 81.47 21.28Q83.09 19.30 86.22 18.07Q89.35 16.85 93.60 16.85L93.60 16.85Q100.01 16.85 104.00 20.02Q108.00 23.18 108.00 29.16L108.00 29.16L108.00 46.51Q108.00 49.97 110.95 49.97L110.95 49.97L113.54 49.82L113.54 55.66Q112.90 56.16 109.51 56.16ZM91.15 50.98L91.15 50.98Q95.18 50.98 98.35 47.81Q101.52 44.64 101.52 40.90L101.52 40.90L101.52 36.79Q84.46 37.44 84.46 45.22L84.46 45.22Q84.46 50.98 91.15 50.98ZM126.94 33.48L126.94 33.48L126.94 55.30L120.46 55.30L120.46 17.71L126.94 17.71L126.94 25.13Q126.94 24.62 127.87 23.36Q128.81 22.10 130.28 20.59Q131.76 19.08 134.17 17.96Q136.58 16.85 139.10 16.85L139.10 16.85Q141.48 16.85 143.28 17.46Q145.08 18.07 146.27 18.90Q147.46 19.73 148.28 21.35Q149.11 22.97 149.54 24.30Q149.98 25.63 150.19 27.90Q150.41 30.17 150.44 31.61Q150.48 33.05 150.48 35.57L150.48 35.57L150.48 55.30L144.00 55.30L144.00 34.27Q144.00 31.75 143.78 29.99Q143.57 28.22 142.88 26.39Q142.20 24.55 140.72 23.62Q139.25 22.68 136.94 22.68L136.94 22.68Q132.91 22.68 129.92 25.70Q126.94 28.73 126.94 33.48ZM188.06 55.30L188.06 48.53Q188.06 48.82 187.70 49.57Q187.34 50.33 186.41 51.48Q185.47 52.63 184.25 53.68Q183.02 54.72 180.97 55.44Q178.92 56.16 176.62 56.16L176.62 56.16Q168.41 56.16 163.98 50.08Q159.55 43.99 159.55 35.64L159.55 35.64Q159.55 27.65 164.09 22.25Q168.62 16.85 176.62 16.85L176.62 16.85Q179.06 16.85 181.12 17.53Q183.17 18.22 184.39 19.19Q185.62 20.16 186.52 21.13Q187.42 22.10 187.70 22.75L187.70 22.75L188.06 23.47L188.06 0L194.54 0L194.54 55.30L188.06 55.30ZM176.62 50.98L176.62 50.98Q188.50 50.98 188.50 36.36L188.50 36.36Q188.50 29.45 185.54 25.67Q182.59 21.89 176.62 21.82L176.62 21.82Q173.09 21.82 170.75 24.12Q168.41 26.42 167.54 29.41Q166.68 32.40 166.68 35.64L166.68 35.64Q166.68 38.09 167.11 40.54Q167.54 42.98 168.59 45.47Q169.63 47.95 171.68 49.46Q173.74 50.98 176.62 50.98ZM235.80 56.16L235.80 56.16Q233.57 56.16 231.95 55.26Q230.33 54.36 229.57 52.88Q228.82 51.41 228.53 50.04Q228.24 48.67 228.24 47.23L228.24 47.23Q228.24 49.68 224.17 52.92Q220.10 56.16 214.70 56.16L214.70 56.16Q209.66 56.16 206.96 52.99Q204.26 49.82 204.26 45.22L204.26 45.22Q204.26 43.27 204.84 41.62Q205.42 39.96 206.60 38.77Q207.79 37.58 208.98 36.68Q210.17 35.78 212.18 35.17Q214.20 34.56 215.53 34.16Q216.86 33.77 219.13 33.55Q221.40 33.34 222.41 33.23Q223.42 33.12 225.50 33.01Q227.59 32.90 227.81 32.90L227.81 32.90L227.81 29.16Q227.88 25.34 225.50 23.58Q223.13 21.82 219.89 21.82L219.89 21.82Q216.00 21.82 213.91 23.90Q211.82 25.99 211.82 29.38L211.82 29.38L204.70 29.38Q204.70 27.29 205.42 25.27Q206.14 23.26 207.76 21.28Q209.38 19.30 212.51 18.07Q215.64 16.85 219.89 16.85L219.89 16.85Q226.30 16.85 230.29 20.02Q234.29 23.18 234.29 29.16L234.29 29.16L234.29 46.51Q234.29 49.97 237.24 49.97L237.24 49.97L239.83 49.82L239.83 55.66Q239.18 56.16 235.80 56.16ZM217.44 50.98L217.44 50.98Q221.47 50.98 224.64 47.81Q227.81 44.64 227.81 40.90L227.81 40.90L227.81 36.79Q210.74 37.44 210.74 45.22L210.74 45.22Q210.74 50.98 217.44 50.98ZM253.22 36.07L253.22 36.07L253.22 55.30L246.74 55.30L246.74 17.71L253.22 17.71L253.22 27.29Q253.22 25.06 257.11 20.95Q261.00 16.85 266.62 16.85L266.62 16.85L266.62 24.19Q260.42 24.19 256.82 27.65Q253.22 31.10 253.22 36.07ZM300.31 55.30L300.31 48.53Q300.31 48.82 299.95 49.57Q299.59 50.33 298.66 51.48Q297.72 52.63 296.50 53.68Q295.27 54.72 293.22 55.44Q291.17 56.16 288.86 56.16L288.86 56.16Q280.66 56.16 276.23 50.08Q271.80 43.99 271.80 35.64L271.80 35.64Q271.80 27.65 276.34 22.25Q280.87 16.85 288.86 16.85L288.86 16.85Q291.31 16.85 293.36 17.53Q295.42 18.22 296.64 19.19Q297.86 20.16 298.76 21.13Q299.66 22.10 299.95 22.75L299.95 22.75L300.31 23.47L300.31 0L306.79 0L306.79 55.30L300.31 55.30ZM288.86 50.98L288.86 50.98Q300.74 50.98 300.74 36.36L300.74 36.36Q300.74 29.45 297.79 25.67Q294.84 21.89 288.86 21.82L288.86 21.82Q285.34 21.82 283.00 24.12Q280.66 26.42 279.79 29.41Q278.93 32.40 278.93 35.64L278.93 35.64Q278.93 38.09 279.36 40.54Q279.79 42.98 280.84 45.47Q281.88 47.95 283.93 49.46Q285.98 50.98 288.86 50.98Z"/></svg>