<?xml version="1.0" encoding="utf-8"?>
<!-- Generator: Adobe Illustrator 22.0.1, SVG Export Plug-In . SVG Version: 6.00 Build 0)  -->
<svg version="1.1" id="Layer_1" xmlns="http://www.w3.org/2000/svg" xmlns:xlink="http://www.w3.org/1999/xlink" x="0px" y="0px"
	 viewBox="0 0 36 30" style="enable-background:new 0 0 36 30;" xml:space="preserve">
<style type="text/css">
	.st0{fill:none;stroke:black;stroke-width:1.75;stroke-miterlimit:10;}
</style>
<path class="st0" d="M35.1,13.3c0,0-2.3-2.4-6.7-2.4H7.6c-4.4,0-6.7,2.4-6.7,2.4"/>
<g>
	<path d="M15.1,2.8l2.1,1.6l0.5,0.4h0.6H33c0.7,0,1.2,0.6,1.2,1.2v21c0,0.7-0.6,1.2-1.2,1.2H3c-0.7,0-1.2-0.6-1.2-1.2V4
		c0-0.7,0.6-1.2,1.2-1.2H15.1 M15.8,1H3C1.3,1,0,2.4,0,4v23c0,1.6,1.3,3,3,3h30c1.7,0,3-1.4,3-3V6c0-1.6-1.3-3-3-3H18.3L15.8,1
		L15.8,1z"/>
</g>
</svg>
