<?xml version="1.0" encoding="UTF-8"?>
<svg xmlns="http://www.w3.org/2000/svg" xmlns:xlink="http://www.w3.org/1999/xlink" width="397.36800000000005" height="93.96000000000001" viewBox="0 -3.019999999999996 397.36800000000005 100" preserveAspectRatio="xMinYMid meet"><path d="M4.75 72.86L4.75 72.86Q3.82 72.86 3.24 72.68Q2.66 72.50 2.66 72.07L2.66 72.07Q2.66 71.21 5.04 70.78L5.04 70.78Q7.78 70.27 9.07 69.12Q10.37 67.97 10.37 65.38L10.37 65.38L10.37 32.98Q10.37 30.38 9.32 29.30Q8.28 28.22 5.54 27.72L5.54 27.72Q4.32 27.50 3.74 27.14Q3.17 26.78 3.17 26.28L3.17 26.28Q3.17 25.85 3.74 25.67Q4.32 25.49 5.26 25.49L5.26 25.49Q7.99 25.49 9.90 25.56Q11.81 25.63 13.64 25.67Q15.48 25.70 18.00 25.70L18.00 25.70Q20.38 25.70 23.00 25.67Q25.63 25.63 27.86 25.63L27.86 25.63Q30.31 25.56 32.00 25.52Q33.70 25.49 33.98 25.49L33.98 25.49Q34.34 25.49 34.78 25.63Q35.21 25.78 35.28 26.14L35.28 26.14Q35.64 28.15 36.00 30.13Q36.36 32.11 36.36 33.55L36.36 33.55Q36.36 34.20 36.04 34.42Q35.71 34.63 35.35 34.63L35.35 34.63Q34.99 34.63 34.85 34.45Q34.70 34.27 34.56 33.91L34.56 33.91Q34.20 32.69 33.84 31.57Q33.48 30.46 32.98 29.95L32.98 29.95Q31.97 28.80 30.74 28.40Q29.52 28.01 28.15 28.01L28.15 28.01L18.72 28.01Q18.14 28.01 17.14 28.66Q16.13 29.30 16.13 30.31L16.13 30.31L16.13 45.58Q16.13 46.22 16.52 46.69Q16.92 47.16 17.42 47.16L17.42 47.16L24.55 47.16Q26.64 47.16 27.43 46.40Q28.22 45.65 28.73 43.63L28.73 43.63Q29.16 42.05 30.02 42.05L30.02 42.05Q30.31 42.05 30.64 42.34Q30.96 42.62 30.96 43.20L30.96 43.20Q30.96 43.49 30.92 44.50Q30.89 45.50 30.82 46.58Q30.74 47.66 30.74 48.24L30.74 48.24Q30.74 48.96 30.78 50.15Q30.82 51.34 30.85 52.42Q30.89 53.50 30.89 53.78L30.89 53.78Q30.89 54.29 30.78 54.65Q30.67 55.01 30.24 55.01L30.24 55.01Q29.16 55.01 28.58 52.70L28.58 52.70Q28.15 51.05 27.43 50.26Q26.71 49.46 25.27 49.46L25.27 49.46L18.58 49.46Q17.35 49.46 16.74 49.79Q16.13 50.11 16.13 51.34L16.13 51.34L16.13 65.16Q16.13 67.90 17.28 68.94Q18.43 69.98 20.88 69.98L20.88 69.98L26.21 69.98Q28.51 69.98 30.06 69.73Q31.61 69.48 32.76 68.76L32.76 68.76Q33.91 67.97 34.81 66.67Q35.71 65.38 36.86 63.22L36.86 63.22Q37.08 62.78 37.37 62.50Q37.66 62.21 38.02 62.28L38.02 62.28Q38.38 62.35 38.59 62.60Q38.81 62.86 38.81 63.29L38.81 63.29Q38.81 63.94 38.45 65.56Q38.09 67.18 37.55 68.90Q37.01 70.63 36.58 71.64L36.58 71.64Q36.36 72.14 36.18 72.50Q36.00 72.86 35.57 72.86L35.57 72.86Q32.11 72.86 29.16 72.79Q26.21 72.72 23.54 72.65Q20.88 72.58 18.32 72.50Q15.77 72.43 13.03 72.43L13.03 72.43Q11.45 72.43 10.30 72.54Q9.14 72.65 7.92 72.76Q6.70 72.86 4.75 72.86ZM44.06 72.86L44.06 72.86Q43.13 72.86 42.55 72.68Q41.98 72.50 41.98 72.07L41.98 72.07Q41.98 71.21 44.35 70.78L44.35 70.78Q47.09 70.27 48.53 69.12Q49.97 67.97 49.97 65.38L49.97 65.38L49.97 32.98Q49.97 30.38 48.89 29.16Q47.81 27.94 45.14 27.72L45.14 27.72Q43.92 27.58 43.34 27.18Q42.77 26.78 42.77 26.28L42.77 26.28Q42.77 25.85 43.34 25.67Q43.92 25.49 44.86 25.49L44.86 25.49Q46.80 25.49 47.88 25.49Q48.96 25.49 49.93 25.52Q50.90 25.56 52.34 25.56L52.34 25.56Q53.71 25.56 54.72 25.45Q55.73 25.34 56.99 25.27Q58.25 25.20 60.34 25.20L60.34 25.20Q68.76 25.20 72.90 27.61Q77.04 30.02 77.04 35.93L77.04 35.93Q77.04 38.38 76.21 40.21Q75.38 42.05 74.59 42.84L74.59 42.84Q73.44 43.99 72.50 44.60Q71.57 45.22 69.77 45.94L69.77 45.94Q69.48 46.01 69.48 46.26Q69.48 46.51 69.77 46.66L69.77 46.66Q71.42 47.16 73.19 47.95Q74.95 48.74 76.50 50.00Q78.05 51.26 79.02 53.32Q79.99 55.37 79.99 58.54L79.99 58.54Q79.99 62.50 78.73 64.80Q77.47 67.10 75.74 68.33Q74.02 69.55 72.50 70.34L72.50 70.34Q70.27 71.50 67.32 72.14Q64.37 72.79 60.26 72.79L60.26 72.79Q59.33 72.79 57.46 72.65Q55.58 72.50 53.42 72.50L53.42 72.50Q51.55 72.50 50.26 72.58Q48.96 72.65 47.56 72.76Q46.15 72.86 44.06 72.86ZM61.27 69.84L61.27 69.84Q64.44 69.84 67.18 68.40Q69.91 66.96 71.57 64.48Q73.22 61.99 73.22 58.90L73.22 58.90Q73.22 56.09 72.29 54.25Q71.35 52.42 70.13 51.26Q68.90 50.11 67.90 49.61L67.90 49.61Q66.96 49.03 64.94 48.42Q62.93 47.81 59.69 47.81L59.69 47.81Q57.38 47.81 56.48 48.74Q55.58 49.68 55.58 50.40L55.58 50.40L55.58 64.73Q55.58 67.75 57.06 68.80Q58.54 69.84 61.27 69.84ZM58.90 45.79L58.90 45.79Q60.84 45.79 63.11 45.36Q65.38 44.93 67.61 43.70L67.61 43.70Q68.40 43.27 69.62 41.62Q70.85 39.96 70.85 36.86L70.85 36.86Q70.85 34.78 70.06 32.58Q69.26 30.38 67.03 28.87Q64.80 27.36 60.34 27.36L60.34 27.36Q57.38 27.36 56.48 28.15Q55.58 28.94 55.58 30.60L55.58 30.60L55.58 43.13Q55.58 45 56.81 45.40Q58.03 45.79 58.90 45.79ZM125.50 73.51L125.50 73.51Q120.53 73.51 116.03 71.75Q111.53 69.98 108.04 66.82Q104.54 63.65 102.53 59.36Q100.51 55.08 100.51 50.11L100.51 50.11Q100.51 44.78 102.60 40.18Q104.69 35.57 108.36 32.11Q112.03 28.66 116.82 26.71Q121.61 24.77 127.01 24.77L127.01 24.77Q128.23 24.77 130.36 25.02Q132.48 25.27 134.75 25.63Q137.02 25.99 138.85 26.39Q140.69 26.78 141.41 27.14L141.41 27.14Q141.77 27.29 141.88 27.47Q141.98 27.65 142.06 28.01L142.06 28.01Q142.34 30.10 142.56 32.15Q142.78 34.20 142.78 35.64L142.78 35.64Q142.78 36.14 142.45 36.61Q142.13 37.08 141.70 37.08L141.70 37.08Q140.98 37.08 140.62 36.43Q140.26 35.78 140.04 35.14L140.04 35.14Q139.61 33.98 139.14 33.16Q138.67 32.33 137.81 31.32L137.81 31.32Q137.38 30.74 135.97 29.84Q134.57 28.94 132.19 28.22Q129.82 27.50 126.36 27.50L126.36 27.50Q122.18 27.50 118.73 29.27Q115.27 31.03 112.79 34.09Q110.30 37.15 108.97 41.04Q107.64 44.93 107.64 49.18L107.64 49.18Q107.64 54.29 109.22 58.32Q110.81 62.35 113.47 65.16Q116.14 67.97 119.52 69.41Q122.90 70.85 126.50 70.85L126.50 70.85Q130.68 70.85 132.66 69.84Q134.64 68.83 135.29 68.18L135.29 68.18Q136.08 67.39 136.76 65.95Q137.45 64.51 137.45 62.64L137.45 62.64Q137.45 61.99 137.48 61.27Q137.52 60.55 137.56 59.83Q137.59 59.11 137.59 58.46L137.59 58.46Q137.59 57.67 137.52 57.13Q137.45 56.59 137.23 56.30L137.23 56.30Q136.66 55.51 135.22 55.01Q133.78 54.50 132.34 54.29Q130.90 54.07 130.18 54.07L130.18 54.07Q129.89 54.07 129.31 53.71Q128.74 53.35 128.74 52.85L128.74 52.85Q128.74 52.27 129.31 51.95Q129.89 51.62 130.18 51.62L130.18 51.62Q131.98 51.62 133.27 51.70Q134.57 51.77 135.94 51.84Q137.30 51.91 139.25 51.91L139.25 51.91Q141.12 51.91 142.42 51.77Q143.71 51.62 145.66 51.62L145.66 51.62Q145.94 51.62 146.56 51.84Q147.17 52.06 147.17 52.78L147.17 52.78Q147.17 53.28 146.56 53.64Q145.94 54 145.66 54.07L145.66 54.07Q144.07 54.50 143.46 55.33Q142.85 56.16 142.63 57.60L142.63 57.60Q142.42 59.18 142.34 60.41Q142.27 61.63 142.27 63L142.27 63L142.27 64.94Q142.27 65.30 142.42 65.52Q142.56 65.74 142.70 66.10L142.70 66.10Q142.92 66.46 143.28 66.74Q143.64 67.03 143.64 67.32L143.64 67.32Q143.64 67.61 143.53 68.08Q143.42 68.54 142.63 68.69L142.63 68.69Q142.13 68.76 140.65 69.52Q139.18 70.27 136.94 71.21Q134.71 72.14 131.83 72.83Q128.95 73.51 125.50 73.51ZM158.18 73.51L158.18 73.51Q156.89 73.51 155.56 72.50Q154.22 71.50 153.32 70.06Q152.42 68.62 152.42 67.32L152.42 67.32Q152.42 65.02 153.65 63.72Q154.87 62.42 157.54 61.34L157.54 61.34L164.88 58.32Q166.32 57.74 166.57 57.31Q166.82 56.88 166.90 55.44L166.90 55.44L167.04 50.83Q167.11 48.96 166.00 47.59Q164.88 46.22 162.79 46.22L162.79 46.22Q161.71 46.22 160.63 46.58Q159.55 46.94 158.83 47.52L158.83 47.52Q158.40 47.81 158.26 48.38Q158.11 48.96 158.11 49.61L158.11 49.61Q158.11 49.90 158.15 50.26Q158.18 50.62 158.18 50.90L158.18 50.90Q158.18 51.26 157.28 51.88Q156.38 52.49 155.27 52.96Q154.15 53.42 153.43 53.42L153.43 53.42Q153.07 53.42 152.86 53.24Q152.64 53.06 152.64 52.78L152.64 52.78Q152.64 51.62 153.40 50.29Q154.15 48.96 155.52 47.81L155.52 47.81Q157.18 46.30 159.12 45.14Q161.06 43.99 162.94 43.34Q164.81 42.70 166.25 42.70L166.25 42.70Q168.84 42.70 170.53 44.53Q172.22 46.37 172.15 49.10L172.15 49.10L171.79 66.38Q171.72 67.90 172.48 68.83Q173.23 69.77 174.38 69.77L174.38 69.77Q176.18 69.77 177.05 68.98L177.05 68.98Q177.41 68.62 177.62 68.62L177.62 68.62Q177.98 68.62 178.20 68.83Q178.42 69.05 178.42 69.41L178.42 69.41Q178.42 70.20 177.62 70.99L177.62 70.99Q176.47 72.14 175.14 72.83Q173.81 73.51 172.66 73.51L172.66 73.51Q169.34 73.51 167.40 69.77L167.40 69.77L167.18 69.77Q164.81 71.71 162.65 72.61Q160.49 73.51 158.18 73.51ZM161.57 70.06L161.57 70.06Q163.01 70.06 164.02 69.59Q165.02 69.12 165.82 68.33L165.82 68.33Q166.18 67.97 166.43 67.36Q166.68 66.74 166.75 65.38L166.75 65.38L166.90 61.85Q166.97 61.06 166.82 60.70Q166.68 60.34 166.25 60.34L166.25 60.34Q166.10 60.34 165.74 60.41Q165.38 60.48 164.81 60.70L164.81 60.70Q160.99 62.06 159.52 63.54Q158.04 65.02 158.04 66.24L158.04 66.24Q158.04 68.11 159.16 69.08Q160.27 70.06 161.57 70.06ZM182.02 72.72L182.02 72.72Q181.30 72.72 180.94 72.54Q180.58 72.36 180.58 71.93L180.58 71.93Q180.58 71.35 181.01 71.17Q181.44 70.99 182.23 70.78L182.23 70.78Q183.60 70.42 184.28 69.73Q184.97 69.05 184.97 68.04L184.97 68.04L184.97 52.56Q184.97 50.62 184.39 49.18Q183.82 47.74 182.02 47.38L182.02 47.38Q181.73 47.30 181.51 47.02Q181.30 46.73 181.30 46.44L181.30 46.44Q181.30 45.72 181.94 45.58L181.94 45.58Q183.82 45 185.87 43.88Q187.92 42.77 189.07 42.05L189.07 42.05Q189.50 41.76 189.76 41.65Q190.01 41.54 190.15 41.54L190.15 41.54Q190.51 41.54 190.51 42.05L190.51 42.05Q190.51 42.26 190.48 43.13Q190.44 43.99 190.40 45.14Q190.37 46.30 190.30 47.45L190.30 47.45Q190.30 47.59 190.44 47.59L190.44 47.59Q191.59 46.15 193.00 45.07Q194.40 43.99 195.88 43.34Q197.35 42.70 198.72 42.70L198.72 42.70Q200.23 42.70 201.20 43.34Q202.18 43.99 202.18 45L202.18 45Q202.18 45.72 201.78 46.58Q201.38 47.45 200.74 48.10Q200.09 48.74 199.37 48.74L199.37 48.74Q198.94 48.74 198.43 48.56Q197.93 48.38 197.35 48.10L197.35 48.10Q196.78 47.88 196.20 47.66Q195.62 47.45 195.05 47.45L195.05 47.45Q193.32 47.45 191.70 48.67Q190.08 49.90 190.08 53.50L190.08 53.50L190.08 68.04Q190.08 68.98 191.09 69.59Q192.10 70.20 193.90 70.78L193.90 70.78Q194.69 70.99 195.12 71.21Q195.55 71.42 195.55 71.93L195.55 71.93Q195.55 72.72 194.11 72.72L194.11 72.72Q191.95 72.72 190.84 72.54Q189.72 72.36 187.85 72.36L187.85 72.36Q186.62 72.36 185.87 72.43Q185.11 72.50 184.28 72.61Q183.46 72.72 182.02 72.72ZM210.96 73.51L210.96 73.51Q209.66 73.51 208.33 72.50Q207.00 71.50 206.10 70.06Q205.20 68.62 205.20 67.32L205.20 67.32Q205.20 65.02 206.42 63.72Q207.65 62.42 210.31 61.34L210.31 61.34L217.66 58.32Q219.10 57.74 219.35 57.31Q219.60 56.88 219.67 55.44L219.67 55.44L219.82 50.83Q219.89 48.96 218.77 47.59Q217.66 46.22 215.57 46.22L215.57 46.22Q214.49 46.22 213.41 46.58Q212.33 46.94 211.61 47.52L211.61 47.52Q211.18 47.81 211.03 48.38Q210.89 48.96 210.89 49.61L210.89 49.61Q210.89 49.90 210.92 50.26Q210.96 50.62 210.96 50.90L210.96 50.90Q210.96 51.26 210.06 51.88Q209.16 52.49 208.04 52.96Q206.93 53.42 206.21 53.42L206.21 53.42Q205.85 53.42 205.63 53.24Q205.42 53.06 205.42 52.78L205.42 52.78Q205.42 51.62 206.17 50.29Q206.93 48.96 208.30 47.81L208.30 47.81Q209.95 46.30 211.90 45.14Q213.84 43.99 215.71 43.34Q217.58 42.70 219.02 42.70L219.02 42.70Q221.62 42.70 223.31 44.53Q225.00 46.37 224.93 49.10L224.93 49.10L224.57 66.38Q224.50 67.90 225.25 68.83Q226.01 69.77 227.16 69.77L227.16 69.77Q228.96 69.77 229.82 68.98L229.82 68.98Q230.18 68.62 230.40 68.62L230.40 68.62Q230.76 68.62 230.98 68.83Q231.19 69.05 231.19 69.41L231.19 69.41Q231.19 70.20 230.40 70.99L230.40 70.99Q229.25 72.14 227.92 72.83Q226.58 73.51 225.43 73.51L225.43 73.51Q222.12 73.51 220.18 69.77L220.18 69.77L219.96 69.77Q217.58 71.71 215.42 72.61Q213.26 73.51 210.96 73.51ZM214.34 70.06L214.34 70.06Q215.78 70.06 216.79 69.59Q217.80 69.12 218.59 68.33L218.59 68.33Q218.95 67.97 219.20 67.36Q219.46 66.74 219.53 65.38L219.53 65.38L219.67 61.85Q219.74 61.06 219.60 60.70Q219.46 60.34 219.02 60.34L219.02 60.34Q218.88 60.34 218.52 60.41Q218.16 60.48 217.58 60.70L217.58 60.70Q213.77 62.06 212.29 63.54Q210.82 65.02 210.82 66.24L210.82 66.24Q210.82 68.11 211.93 69.08Q213.05 70.06 214.34 70.06ZM234.43 72.72L234.43 72.72Q233.86 72.72 233.42 72.58Q232.99 72.43 232.99 71.93L232.99 71.93Q232.99 71.42 233.46 71.21Q233.93 70.99 234.65 70.78L234.65 70.78Q235.66 70.42 236.70 69.95Q237.74 69.48 237.74 68.04L237.74 68.04L237.74 52.56Q237.74 50.62 237.31 49.14Q236.88 47.66 235.01 47.38L235.01 47.38Q234.72 47.30 234.54 47.09Q234.36 46.87 234.36 46.44L234.36 46.44Q234.36 45.72 234.94 45.58L234.94 45.58Q236.88 45.07 238.03 44.53Q239.18 43.99 240.08 43.31Q240.98 42.62 242.28 41.83L242.28 41.83Q242.42 41.76 242.57 41.65Q242.71 41.54 242.93 41.54L242.93 41.54Q243.36 41.54 243.36 42.05L243.36 42.05Q243.36 42.55 243.18 44.10Q243.00 45.65 243.00 46.66L243.00 46.66Q243.00 47.38 243.14 47.52L243.14 47.52L243.29 47.52Q244.94 45.94 247.64 44.32Q250.34 42.70 254.52 42.70L254.52 42.70Q257.11 42.70 258.84 43.81Q260.57 44.93 261.72 47.66L261.72 47.66L261.94 47.66Q264.24 45.58 267.19 44.14Q270.14 42.70 273.67 42.70L273.67 42.70Q276.05 42.70 277.63 44.14Q279.22 45.58 280.04 47.88Q280.87 50.18 280.87 52.70L280.87 52.70L280.87 68.04Q280.87 69.48 281.88 69.95Q282.89 70.42 283.97 70.78L283.97 70.78Q284.69 70.99 285.16 71.21Q285.62 71.42 285.62 71.93L285.62 71.93Q285.62 72.36 285.30 72.54Q284.98 72.72 284.18 72.72L284.18 72.72Q282.74 72.72 281.95 72.61Q281.16 72.50 280.48 72.43Q279.79 72.36 278.50 72.36L278.50 72.36Q277.27 72.36 276.48 72.43Q275.69 72.50 274.82 72.61Q273.96 72.72 272.52 72.72L272.52 72.72Q271.87 72.72 271.48 72.54Q271.08 72.36 271.08 71.93L271.08 71.93Q271.08 71.35 271.55 71.14Q272.02 70.92 272.74 70.78L272.74 70.78Q273.89 70.49 274.86 69.98Q275.83 69.48 275.83 68.04L275.83 68.04L275.83 52.92Q275.83 51.19 275.04 49.64Q274.25 48.10 272.95 47.09Q271.66 46.08 270.07 46.08L270.07 46.08Q268.27 46.08 266.72 46.51Q265.18 46.94 263.81 48.02L263.81 48.02Q261.79 49.61 261.79 53.21L261.79 53.21L261.79 68.04Q261.79 69.48 262.87 69.98Q263.95 70.49 265.03 70.78L265.03 70.78Q265.75 70.92 266.22 71.17Q266.69 71.42 266.69 71.93L266.69 71.93Q266.69 72.36 266.33 72.54Q265.97 72.72 265.25 72.72L265.25 72.72Q263.81 72.72 262.98 72.61Q262.15 72.50 261.40 72.43Q260.64 72.36 259.34 72.36L259.34 72.36Q258.12 72.36 257.33 72.43Q256.54 72.50 255.67 72.61Q254.81 72.72 253.37 72.72L253.37 72.72Q252.79 72.72 252.36 72.54Q251.93 72.36 251.93 71.93L251.93 71.93Q251.93 71.35 252.47 71.17Q253.01 70.99 253.58 70.78L253.58 70.78Q254.66 70.42 255.71 69.95Q256.75 69.48 256.75 68.04L256.75 68.04L256.75 52.92Q256.75 51.19 255.96 49.64Q255.17 48.10 253.87 47.09Q252.58 46.08 250.99 46.08L250.99 46.08Q249.19 46.08 247.64 46.51Q246.10 46.94 244.73 48.02L244.73 48.02Q242.78 49.46 242.78 53.21L242.78 53.21L242.78 68.04Q242.78 69.48 243.79 69.95Q244.80 70.42 245.88 70.78L245.88 70.78Q246.46 70.99 247.00 71.17Q247.54 71.35 247.54 71.93L247.54 71.93Q247.54 72.36 247.14 72.54Q246.74 72.72 246.10 72.72L246.10 72.72Q244.66 72.72 243.83 72.61Q243.00 72.50 242.28 72.43Q241.56 72.36 240.26 72.36L240.26 72.36Q239.04 72.36 238.28 72.43Q237.53 72.50 236.70 72.61Q235.87 72.72 234.43 72.72ZM304.13 73.51L304.13 73.51Q300.10 73.51 296.86 71.64Q293.62 69.77 291.71 66.49Q289.80 63.22 289.80 59.04L289.80 59.04Q289.80 56.02 290.99 53.14Q292.18 50.26 294.34 47.88Q296.50 45.50 299.38 44.10Q302.26 42.70 305.57 42.70L305.57 42.70Q309.74 42.70 313.09 44.71Q316.44 46.73 318.42 50.00Q320.40 53.28 320.40 57.17L320.40 57.17Q320.40 61.34 318.56 65.09Q316.73 68.83 313.13 71.17Q309.53 73.51 304.13 73.51ZM305.64 71.35L305.64 71.35Q308.09 71.35 310.03 70.42Q311.98 69.48 313.06 67.39L313.06 67.39Q313.92 65.74 314.21 63.36Q314.50 60.98 314.50 58.90L314.50 58.90Q314.50 55.44 313.24 52.24Q311.98 49.03 309.71 46.98Q307.44 44.93 304.34 44.93L304.34 44.93Q302.40 44.93 300.85 45.54Q299.30 46.15 298.01 47.81L298.01 47.81Q296.57 49.61 296.14 52.20Q295.70 54.79 295.70 57.38L295.70 57.38Q295.70 60.91 297.00 64.12Q298.30 67.32 300.53 69.34Q302.76 71.35 305.64 71.35ZM326.09 72.72L326.09 72.72Q325.44 72.72 325.04 72.54Q324.65 72.36 324.65 71.93L324.65 71.93Q324.65 71.35 325.08 71.17Q325.51 70.99 326.30 70.78L326.30 70.78Q327.38 70.49 328.39 69.98Q329.40 69.48 329.40 68.04L329.40 68.04L329.40 52.56Q329.40 50.62 329.00 49.25Q328.61 47.88 326.74 47.38L326.74 47.38Q326.45 47.23 326.23 47.05Q326.02 46.87 326.02 46.44L326.02 46.44Q326.02 45.65 326.66 45.58L326.66 45.58Q329.18 44.93 330.77 43.99Q332.35 43.06 333.86 41.90L333.86 41.90Q334.08 41.76 334.26 41.65Q334.44 41.54 334.66 41.54L334.66 41.54Q334.80 41.54 334.91 41.69Q335.02 41.83 335.02 42.05L335.02 42.05Q335.02 42.55 334.84 44.10Q334.66 45.65 334.66 46.66L334.66 46.66Q334.66 46.94 334.69 47.20Q334.73 47.45 334.80 47.52L334.80 47.52Q337.32 45.14 340.16 43.92Q343.01 42.70 346.39 42.70L346.39 42.70Q349.92 42.70 352.22 45.58Q354.53 48.46 354.53 52.70L354.53 52.70L354.53 68.04Q354.53 69.48 355.54 69.95Q356.54 70.42 357.62 70.78L357.62 70.78Q358.20 70.99 358.74 71.24Q359.28 71.50 359.28 72.07L359.28 72.07Q359.28 72.50 358.78 72.61Q358.27 72.72 357.84 72.72L357.84 72.72Q356.40 72.72 355.61 72.61Q354.82 72.50 354.10 72.43Q353.38 72.36 352.08 72.36L352.08 72.36Q350.86 72.36 350.06 72.43Q349.27 72.50 348.44 72.61Q347.62 72.72 346.18 72.72L346.18 72.72Q345.82 72.72 345.28 72.61Q344.74 72.50 344.74 72.07L344.74 72.07Q344.74 71.50 345.28 71.24Q345.82 70.99 346.39 70.78L346.39 70.78Q347.47 70.42 348.48 69.95Q349.49 69.48 349.49 68.04L349.49 68.04L349.49 52.92Q349.49 49.75 347.72 47.99Q345.96 46.22 343.01 46.15L343.01 46.15Q340.42 46.15 338.47 46.98Q336.53 47.81 335.02 49.03L335.02 49.03Q334.73 49.32 334.58 49.79Q334.44 50.26 334.44 50.69L334.44 50.69L334.44 68.04Q334.44 69.48 335.45 69.98Q336.46 70.49 337.54 70.78L337.54 70.78Q339.19 71.21 339.19 71.93L339.19 71.93Q339.19 72.36 338.83 72.54Q338.47 72.72 337.75 72.72L337.75 72.72Q336.31 72.72 335.48 72.61Q334.66 72.50 333.94 72.43Q333.22 72.36 331.92 72.36L331.92 72.36Q330.70 72.36 329.94 72.43Q329.18 72.50 328.36 72.61Q327.53 72.72 326.09 72.72ZM386.64 73.87L386.64 73.87Q386.50 73.87 386.17 73.58Q385.85 73.30 385.85 73.15L385.85 73.15Q385.85 72.43 386.03 71.10Q386.21 69.77 386.21 68.83L386.21 68.83L386.21 68.40Q385.13 70.06 382.75 71.78Q380.38 73.51 376.78 73.51L376.78 73.51Q372.67 73.51 369.68 71.35Q366.70 69.19 365.08 65.81Q363.46 62.42 363.46 58.82L363.46 58.82Q363.46 54.65 365.40 50.98Q367.34 47.30 370.98 45Q374.62 42.70 379.66 42.70L379.66 42.70Q381.10 42.70 382.57 42.95Q384.05 43.20 384.84 43.49L384.84 43.49Q385.49 43.70 385.78 43.70L385.78 43.70Q386.28 43.70 386.28 41.98L386.28 41.98L386.28 31.75Q386.28 28.80 385.34 27.79Q384.41 26.78 382.68 26.50L382.68 26.50Q382.03 26.35 382.03 25.56L382.03 25.56Q382.03 24.91 382.61 24.70L382.61 24.70Q385.78 23.90 387.58 23.18Q389.38 22.46 390.38 22.03L390.38 22.03Q390.67 21.89 390.92 21.85Q391.18 21.82 391.32 21.82L391.32 21.82Q391.75 21.82 391.82 22.25L391.82 22.25Q391.82 22.68 391.72 23.72Q391.61 24.77 391.46 26.78Q391.32 28.80 391.32 32.04L391.32 32.04L391.32 64.58Q391.32 67.03 391.68 68.15Q392.04 69.26 392.83 69.26L392.83 69.26Q393.19 69.26 394.09 69.19Q394.99 69.12 395.93 69.05L395.93 69.05Q397.22 68.98 397.22 69.70L397.22 69.70Q397.22 70.20 396.90 70.60Q396.58 70.99 396.22 70.99L396.22 70.99Q394.20 71.28 392.26 71.82Q390.31 72.36 387.79 73.44L387.79 73.44Q387.22 73.73 387.04 73.80Q386.86 73.87 386.64 73.87ZM379.37 69.77L379.37 69.77Q381.24 69.77 383.04 68.80Q384.84 67.82 386.21 66.24L386.21 66.24L386.28 53.28Q386.28 51.34 385.16 49.46Q384.05 47.59 382.07 46.40Q380.09 45.22 377.42 45.22L377.42 45.22Q375.77 45.22 373.68 46.22Q371.59 47.23 370.08 49.79Q368.57 52.34 368.57 57.17L368.57 57.17Q368.57 61.27 369.79 63.76Q371.02 66.24 372.78 67.54Q374.54 68.83 376.38 69.30Q378.22 69.77 379.37 69.77Z"/></svg>