<?xml version="1.0" encoding="UTF-8"?>
<svg xmlns="http://www.w3.org/2000/svg" xmlns:xlink="http://www.w3.org/1999/xlink" width="387.0000000000001" height="98.71200000000002" viewBox="0 -0.6439999999999912 387.0000000000001 100" preserveAspectRatio="xMinYMid meet"><path d="M16.70 72.07L16.70 72.07Q21.82 72.07 24.84 69.80Q27.86 67.54 27.86 63.36L27.86 63.36Q27.86 59.90 25.74 58.00Q23.62 56.09 19.01 54.29L19.01 54.29L16.20 53.14Q10.66 50.98 7.24 47.56Q3.82 44.14 3.82 38.66L3.82 38.66Q3.82 34.49 5.94 31.54Q8.06 28.58 11.74 26.96Q15.41 25.34 20.02 25.34L20.02 25.34Q23.62 25.34 26.57 26.35Q29.52 27.36 31.82 29.09L31.82 29.09L31.39 38.52L27.00 38.52L25.49 30.38Q22.82 28.94 19.58 28.94L19.58 28.94Q15.48 28.94 12.67 31.00Q9.86 33.05 9.86 37.08L9.86 37.08Q9.86 40.39 11.99 42.55Q14.11 44.71 18.00 46.22L18.00 46.22L20.88 47.30Q27.94 50.04 30.96 53.46Q33.98 56.88 33.98 61.99L33.98 61.99Q33.98 66.24 31.79 69.30Q29.59 72.36 25.78 74.02Q21.96 75.67 16.92 75.67L16.92 75.67Q12.89 75.67 9.14 74.56Q5.40 73.44 2.88 71.86L2.88 71.86L3.31 61.78L7.78 61.78L9.22 70.27Q10.87 71.21 12.64 71.64Q14.40 72.07 16.70 72.07ZM56.59 75.53L56.59 75.53Q52.42 75.53 48.64 73.55Q44.86 71.57 42.48 67.57Q40.10 63.58 40.10 57.67L40.10 57.67Q40.10 51.70 42.48 47.63Q44.86 43.56 48.64 41.51Q52.42 39.46 56.59 39.46L56.59 39.46Q60.77 39.46 64.55 41.51Q68.33 43.56 70.74 47.63Q73.15 51.70 73.15 57.67L73.15 57.67Q73.15 63.58 70.74 67.57Q68.33 71.57 64.55 73.55Q60.77 75.53 56.59 75.53ZM56.59 72.29L56.59 72.29Q61.27 72.29 63.79 68.58Q66.31 64.87 66.31 57.67L66.31 57.67Q66.31 50.40 63.79 46.58Q61.27 42.77 56.59 42.77L56.59 42.77Q51.91 42.77 49.43 46.58Q46.94 50.40 46.94 57.67L46.94 57.67Q46.94 64.87 49.43 68.58Q51.91 72.29 56.59 72.29ZM115.20 72.00L115.20 74.59L105.19 75.17L104.47 68.76Q101.59 72.29 98.28 73.91Q94.97 75.53 91.73 75.53L91.73 75.53Q87.34 75.53 84.82 72.61Q82.30 69.70 82.37 62.57L82.37 62.57L82.58 44.64L77.47 43.56L77.47 40.97L88.06 39.96L88.78 40.68L88.42 50.76L88.42 61.92Q88.42 66.60 89.86 68.51Q91.30 70.42 94.18 70.42L94.18 70.42Q99.22 70.42 104.26 65.74L104.26 65.74L104.47 44.57L99.36 43.56L99.36 40.97L109.80 39.96L110.52 40.68L110.30 50.76L110.30 70.99L115.20 72.00ZM138.17 74.59L120.67 74.59L120.67 72.00L125.86 71.06Q125.93 68.33 125.96 65.12Q126.00 61.92 126.00 59.47L126.00 59.47L126.00 56.02Q126.00 53.06 125.96 51.12Q125.93 49.18 125.78 47.02L125.78 47.02L120.10 46.37L120.10 43.85L130.18 39.46L131.26 40.18L132.05 48.67Q133.85 44.35 136.69 41.90Q139.54 39.46 142.42 39.46L142.42 39.46Q144.07 39.46 145.51 40.18Q146.95 40.90 147.60 42.12L147.60 42.12Q147.60 47.38 143.35 47.38L143.35 47.38Q142.13 47.38 141.05 46.91Q139.97 46.44 138.96 45.58L138.96 45.58L138.10 44.78Q135.94 46.37 134.50 48.67Q133.06 50.98 132.12 54.07L132.12 54.07L132.12 59.47Q132.12 61.85 132.16 65.02Q132.19 68.18 132.26 70.92L132.26 70.92L138.17 72.00L138.17 74.59ZM167.33 42.77L167.33 42.77Q162.72 42.77 159.73 46.37Q156.74 49.97 156.74 56.88L156.74 56.88Q156.74 63.65 159.98 67.25Q163.22 70.85 168.26 70.85L168.26 70.85Q171.36 70.85 173.95 69.44Q176.54 68.04 178.20 65.38L178.20 65.38L180.00 66.31Q178.49 70.78 175.10 73.15Q171.72 75.53 166.61 75.53L166.61 75.53Q159.19 75.53 154.80 70.70Q150.41 65.88 150.41 57.60L150.41 57.60Q150.41 51.91 152.75 47.84Q155.09 43.78 158.90 41.62Q162.72 39.46 167.04 39.46L167.04 39.46Q170.28 39.46 173.02 40.68Q175.75 41.90 177.55 44.03Q179.35 46.15 179.78 48.82L179.78 48.82Q179.28 51.55 176.47 51.55L176.47 51.55Q174.67 51.55 173.77 50.58Q172.87 49.61 172.51 48.10L172.51 48.10L171.22 43.34Q170.21 42.98 169.24 42.88Q168.26 42.77 167.33 42.77ZM201.89 42.77L201.89 42.77Q199.87 42.77 197.82 43.92Q195.77 45.07 194.29 47.59Q192.82 50.11 192.38 54.29L192.38 54.29L205.49 54.29Q208.08 54.29 208.91 53.21Q209.74 52.13 209.74 50.54L209.74 50.54Q209.74 48.46 208.69 46.69Q207.65 44.93 205.88 43.85Q204.12 42.77 201.89 42.77ZM202.32 39.46L202.32 39.46Q206.06 39.46 209.09 41.11Q212.11 42.77 213.91 45.83Q215.71 48.89 215.71 53.28L215.71 53.28Q215.71 54.50 215.57 55.55Q215.42 56.59 215.21 57.31L215.21 57.31L192.24 57.31Q192.38 63.94 195.55 67.39Q198.72 70.85 203.90 70.85L203.90 70.85Q207.36 70.85 209.66 69.44Q211.97 68.04 213.91 65.81L213.91 65.81L215.64 67.18Q213.62 70.99 210.17 73.26Q206.71 75.53 201.82 75.53L201.82 75.53Q194.54 75.53 190.15 70.81Q185.76 66.10 185.76 57.82L185.76 57.82Q185.76 52.27 188.03 48.17Q190.30 44.06 194.08 41.76Q197.86 39.46 202.32 39.46ZM252.72 72.07L252.72 72.07Q257.83 72.07 260.86 69.80Q263.88 67.54 263.88 63.36L263.88 63.36Q263.88 59.90 261.76 58.00Q259.63 56.09 255.02 54.29L255.02 54.29L252.22 53.14Q246.67 50.98 243.25 47.56Q239.83 44.14 239.83 38.66L239.83 38.66Q239.83 34.49 241.96 31.54Q244.08 28.58 247.75 26.96Q251.42 25.34 256.03 25.34L256.03 25.34Q259.63 25.34 262.58 26.35Q265.54 27.36 267.84 29.09L267.84 29.09L267.41 38.52L263.02 38.52L261.50 30.38Q258.84 28.94 255.60 28.94L255.60 28.94Q251.50 28.94 248.69 31.00Q245.88 33.05 245.88 37.08L245.88 37.08Q245.88 40.39 248.00 42.55Q250.13 44.71 254.02 46.22L254.02 46.22L256.90 47.30Q263.95 50.04 266.98 53.46Q270.00 56.88 270.00 61.99L270.00 61.99Q270.00 66.24 267.80 69.30Q265.61 72.36 261.79 74.02Q257.98 75.67 252.94 75.67L252.94 75.67Q248.90 75.67 245.16 74.56Q241.42 73.44 238.90 71.86L238.90 71.86L239.33 61.78L243.79 61.78L245.23 70.27Q246.89 71.21 248.65 71.64Q250.42 72.07 252.72 72.07ZM292.25 42.77L292.25 42.77Q290.23 42.77 288.18 43.92Q286.13 45.07 284.65 47.59Q283.18 50.11 282.74 54.29L282.74 54.29L295.85 54.29Q298.44 54.29 299.27 53.21Q300.10 52.13 300.10 50.54L300.10 50.54Q300.10 48.46 299.05 46.69Q298.01 44.93 296.24 43.85Q294.48 42.77 292.25 42.77ZM292.68 39.46L292.68 39.46Q296.42 39.46 299.45 41.11Q302.47 42.77 304.27 45.83Q306.07 48.89 306.07 53.28L306.07 53.28Q306.07 54.50 305.93 55.55Q305.78 56.59 305.57 57.31L305.57 57.31L282.60 57.31Q282.74 63.94 285.91 67.39Q289.08 70.85 294.26 70.85L294.26 70.85Q297.72 70.85 300.02 69.44Q302.33 68.04 304.27 65.81L304.27 65.81L306.00 67.18Q303.98 70.99 300.53 73.26Q297.07 75.53 292.18 75.53L292.18 75.53Q284.90 75.53 280.51 70.81Q276.12 66.10 276.12 57.82L276.12 57.82Q276.12 52.27 278.39 48.17Q280.66 44.06 284.44 41.76Q288.22 39.46 292.68 39.46ZM330.12 74.59L312.62 74.59L312.62 72.00L317.81 71.06Q317.88 68.33 317.92 65.12Q317.95 61.92 317.95 59.47L317.95 59.47L317.95 56.02Q317.95 53.06 317.92 51.12Q317.88 49.18 317.74 47.02L317.74 47.02L312.05 46.37L312.05 43.85L322.13 39.46L323.21 40.18L324.00 48.67Q325.80 44.35 328.64 41.90Q331.49 39.46 334.37 39.46L334.37 39.46Q336.02 39.46 337.46 40.18Q338.90 40.90 339.55 42.12L339.55 42.12Q339.55 47.38 335.30 47.38L335.30 47.38Q334.08 47.38 333.00 46.91Q331.92 46.44 330.91 45.58L330.91 45.58L330.05 44.78Q327.89 46.37 326.45 48.67Q325.01 50.98 324.07 54.07L324.07 54.07L324.07 59.47Q324.07 61.85 324.11 65.02Q324.14 68.18 324.22 70.92L324.22 70.92L330.12 72.00L330.12 74.59ZM351.07 31.54L351.07 31.54Q349.06 31.54 347.65 30.24Q346.25 28.94 346.25 26.93L346.25 26.93Q346.25 24.84 347.65 23.58Q349.06 22.32 351.07 22.32L351.07 22.32Q353.09 22.32 354.49 23.58Q355.90 24.84 355.90 26.93L355.90 26.93Q355.90 28.94 354.49 30.24Q353.09 31.54 351.07 31.54ZM354.24 70.99L359.28 72.00L359.28 74.59L342.58 74.59L342.58 72.00L347.98 70.99Q348.05 68.26 348.08 65.05Q348.12 61.85 348.12 59.47L348.12 59.47L348.12 56.09Q348.12 53.14 348.08 51.16Q348.05 49.18 347.90 47.02L347.90 47.02L342.14 46.37L342.14 43.85L353.23 39.46L354.31 40.18L354.10 49.97L354.10 59.47Q354.10 61.85 354.13 65.05Q354.17 68.26 354.24 70.99L354.24 70.99ZM369.94 59.47L369.94 59.47L369.94 44.21L363.96 44.21L363.96 41.04L370.01 40.25Q370.58 34.49 371.70 31.00Q372.82 27.50 375.12 25.06L375.12 25.06Q377.50 22.54 380.16 21.60Q382.82 20.66 385.27 20.66L385.27 20.66Q387.79 20.66 389.74 21.56Q391.68 22.46 392.18 24.55L392.18 24.55Q392.11 25.92 390.96 26.86Q389.81 27.79 387.79 27.79L387.79 27.79Q385.20 27.79 382.61 25.63L382.61 25.63L380.59 24.05Q379.08 25.20 378.14 26.78L378.14 26.78Q377.06 28.73 376.42 31.97Q375.77 35.21 375.91 40.39L375.91 40.39L385.85 40.39L385.85 44.21L376.06 44.21L376.06 59.47Q376.06 62.35 376.09 65.20Q376.13 68.04 376.20 70.92L376.20 70.92L382.68 72.00L382.68 74.59L364.10 74.59L364.10 72.00L369.79 70.99Q369.86 68.11 369.90 65.23Q369.94 62.35 369.94 59.47Z"/></svg>