<?xml version="1.0" encoding="UTF-8"?>
<svg xmlns="http://www.w3.org/2000/svg" xmlns:xlink="http://www.w3.org/1999/xlink" width="440.64000000000016" height="106.63200000000002" viewBox="0 3.3160000000000096 440.64000000000016 100" preserveAspectRatio="xMinYMid meet"><path d="M33.91 47.38L33.91 44.78Q33.91 42.34 32.94 40.46Q31.97 38.59 30.31 37.37Q28.66 36.14 26.50 35.50Q24.34 34.85 21.96 34.85L21.96 34.85Q19.87 34.85 18.00 35.39Q16.13 35.93 14.65 36.94Q13.18 37.94 12.31 39.42Q11.45 40.90 11.45 42.84L11.45 42.84L11.45 43.27Q11.45 45.36 12.31 46.84Q13.18 48.31 14.87 49.36Q16.56 50.40 19.08 51.08Q21.60 51.77 24.98 52.27L24.98 52.27Q32.90 53.50 36.65 56.92Q40.39 60.34 40.39 66.10L40.39 66.10L40.39 66.96Q40.39 70.20 39.28 72.90Q38.16 75.60 35.96 77.54Q33.77 79.49 30.53 80.57Q27.29 81.65 23.04 81.65L23.04 81.65Q18.22 81.65 14.51 80.24Q10.80 78.84 8.32 76.36Q5.83 73.87 4.54 70.52Q3.24 67.18 3.24 63.22L3.24 63.22L3.24 61.06L9.29 61.06L9.29 62.78Q9.29 69.41 12.92 72.72Q16.56 76.03 23.04 76.03L23.04 76.03Q28.66 76.03 31.50 73.55Q34.34 71.06 34.34 66.96L34.34 66.96L34.34 66.53Q34.34 62.57 31.43 60.48Q28.51 58.39 21.96 57.46L21.96 57.46Q18.14 56.95 15.08 55.91Q12.02 54.86 9.86 53.17Q7.70 51.48 6.55 49.10Q5.40 46.73 5.40 43.49L5.40 43.49L5.40 42.62Q5.40 39.67 6.62 37.22Q7.85 34.78 10.04 32.98Q12.24 31.18 15.30 30.20Q18.36 29.23 22.03 29.23L22.03 29.23Q26.28 29.23 29.63 30.46Q32.98 31.68 35.28 33.73Q37.58 35.78 38.77 38.56Q39.96 41.33 39.96 44.35L39.96 44.35L39.96 47.38L33.91 47.38ZM54.65 75.17L54.65 95.04L49.03 95.04L49.03 44.93L54.65 44.93L54.65 50.54L55.51 50.54Q57.38 47.30 60.70 45.61Q64.01 43.92 67.90 43.92L67.90 43.92Q71.21 43.92 74.16 45.14Q77.11 46.37 79.38 48.67Q81.65 50.98 82.98 54.36Q84.31 57.74 84.31 62.06L84.31 62.06L84.31 63.50Q84.31 67.90 83.02 71.28Q81.72 74.66 79.45 76.97Q77.18 79.27 74.16 80.46Q71.14 81.65 67.75 81.65L67.75 81.65Q66.02 81.65 64.22 81.25Q62.42 80.86 60.80 80.03Q59.18 79.20 57.82 78.01Q56.45 76.82 55.51 75.17L55.51 75.17L54.65 75.17ZM66.60 76.32L66.60 76.32Q69.19 76.32 71.35 75.42Q73.51 74.52 75.13 72.86Q76.75 71.21 77.65 68.83Q78.55 66.46 78.55 63.50L78.55 63.50L78.55 62.06Q78.55 59.18 77.65 56.84Q76.75 54.50 75.13 52.81Q73.51 51.12 71.32 50.18Q69.12 49.25 66.60 49.25L66.60 49.25Q64.08 49.25 61.92 50.22Q59.76 51.19 58.14 52.92Q56.52 54.65 55.58 57.06Q54.65 59.47 54.65 62.35L54.65 62.35L54.65 63.22Q54.65 66.17 55.58 68.58Q56.52 70.99 58.14 72.72Q59.76 74.45 61.92 75.38Q64.08 76.32 66.60 76.32ZM120.31 75.02L120.31 74.59L119.45 74.59Q117.72 78.19 114.66 79.92Q111.60 81.65 108.22 81.65L108.22 81.65Q104.69 81.65 101.66 80.46Q98.64 79.27 96.37 76.93Q94.10 74.59 92.81 71.21Q91.51 67.82 91.51 63.36L91.51 63.36L91.51 62.21Q91.51 57.82 92.81 54.43Q94.10 51.05 96.37 48.71Q98.64 46.37 101.66 45.14Q104.69 43.92 108.07 43.92L108.07 43.92Q111.74 43.92 114.73 45.54Q117.72 47.16 119.45 50.54L119.45 50.54L120.31 50.54L120.31 44.93L125.93 44.93L125.93 73.30Q125.93 75.46 127.87 75.46L127.87 75.46L129.67 75.46L129.67 80.64L125.86 80.64Q123.41 80.64 121.86 79.06Q120.31 77.47 120.31 75.02L120.31 75.02ZM108.79 76.32L108.79 76.32Q111.31 76.32 113.44 75.38Q115.56 74.45 117.07 72.72Q118.58 70.99 119.45 68.58Q120.31 66.17 120.31 63.22L120.31 63.22L120.31 62.35Q120.31 59.47 119.45 57.06Q118.58 54.65 117.04 52.92Q115.49 51.19 113.36 50.22Q111.24 49.25 108.79 49.25L108.79 49.25Q106.27 49.25 104.18 50.18Q102.10 51.12 100.55 52.81Q99.00 54.50 98.14 56.92Q97.27 59.33 97.27 62.21L97.27 62.21L97.27 63.36Q97.27 69.48 100.48 72.90Q103.68 76.32 108.79 76.32ZM166.25 66.67L171.86 67.97Q171.29 70.92 169.88 73.44Q168.48 75.96 166.32 77.80Q164.16 79.63 161.28 80.64Q158.40 81.65 154.87 81.65L154.87 81.65Q151.13 81.65 147.78 80.42Q144.43 79.20 141.91 76.86Q139.39 74.52 137.92 71.14Q136.44 67.75 136.44 63.36L136.44 63.36L136.44 62.50Q136.44 58.18 137.92 54.72Q139.39 51.26 141.91 48.89Q144.43 46.51 147.78 45.22Q151.13 43.92 154.87 43.92L154.87 43.92Q158.26 43.92 161.14 44.93Q164.02 45.94 166.21 47.77Q168.41 49.61 169.81 52.13Q171.22 54.65 171.72 57.60L171.72 57.60L166.10 58.90Q165.89 57.02 165.06 55.26Q164.23 53.50 162.83 52.16Q161.42 50.83 159.41 50.04Q157.39 49.25 154.73 49.25L154.73 49.25Q152.14 49.25 149.87 50.22Q147.60 51.19 145.87 52.96Q144.14 54.72 143.17 57.17Q142.20 59.62 142.20 62.50L142.20 62.50L142.20 63.36Q142.20 66.38 143.17 68.80Q144.14 71.21 145.87 72.86Q147.60 74.52 149.90 75.42Q152.21 76.32 154.87 76.32L154.87 76.32Q157.54 76.32 159.52 75.49Q161.50 74.66 162.90 73.33Q164.30 72.00 165.13 70.27Q165.96 68.54 166.25 66.67L166.25 66.67ZM215.42 64.51L186.62 64.51Q186.84 69.84 189.94 73.08Q193.03 76.32 198.58 76.32L198.58 76.32Q201.10 76.32 202.97 75.74Q204.84 75.17 206.17 74.16Q207.50 73.15 208.33 71.82Q209.16 70.49 209.66 68.98L209.66 68.98L214.99 70.42Q213.48 75.38 209.41 78.52Q205.34 81.65 198.43 81.65L198.43 81.65Q194.62 81.65 191.41 80.32Q188.21 78.98 185.90 76.54Q183.60 74.09 182.30 70.70Q181.01 67.32 181.01 63.22L181.01 63.22L181.01 61.49Q181.01 57.74 182.34 54.50Q183.67 51.26 186.05 48.92Q188.42 46.58 191.63 45.25Q194.83 43.92 198.58 43.92L198.58 43.92Q202.97 43.92 206.17 45.54Q209.38 47.16 211.43 49.54Q213.48 51.91 214.45 54.72Q215.42 57.53 215.42 59.90L215.42 59.90L215.42 64.51ZM198.58 49.25L198.58 49.25Q196.20 49.25 194.15 50.00Q192.10 50.76 190.55 52.13Q189.00 53.50 188.03 55.33Q187.06 57.17 186.77 59.33L186.77 59.33L209.81 59.33Q209.66 57.02 208.69 55.15Q207.72 53.28 206.17 51.98Q204.62 50.69 202.64 49.97Q200.66 49.25 198.58 49.25ZM267.70 80.64L267.70 30.24L279.22 30.24L285.98 78.05L286.85 78.05L293.62 30.24L305.14 30.24L305.14 80.64L299.52 80.64L299.52 32.83L298.66 32.83L291.89 80.64L280.94 80.64L274.18 32.83L273.31 32.83L273.31 80.64L267.70 80.64ZM348.41 62.35L348.41 63.22Q348.41 67.68 346.93 71.10Q345.46 74.52 343.01 76.86Q340.56 79.20 337.28 80.42Q334.01 81.65 330.48 81.65L330.48 81.65Q326.88 81.65 323.64 80.42Q320.40 79.20 317.95 76.86Q315.50 74.52 314.03 71.10Q312.55 67.68 312.55 63.22L312.55 63.22L312.55 62.35Q312.55 57.96 314.03 54.54Q315.50 51.12 317.99 48.74Q320.47 46.37 323.71 45.14Q326.95 43.92 330.48 43.92L330.48 43.92Q334.01 43.92 337.25 45.14Q340.49 46.37 342.97 48.74Q345.46 51.12 346.93 54.54Q348.41 57.96 348.41 62.35L348.41 62.35ZM330.48 76.32L330.48 76.32Q333.07 76.32 335.27 75.42Q337.46 74.52 339.12 72.79Q340.78 71.06 341.71 68.65Q342.65 66.24 342.65 63.22L342.65 63.22L342.65 62.35Q342.65 59.47 341.71 57.06Q340.78 54.65 339.12 52.92Q337.46 51.19 335.23 50.22Q333.00 49.25 330.48 49.25L330.48 49.25Q327.96 49.25 325.73 50.22Q323.50 51.19 321.84 52.92Q320.18 54.65 319.25 57.06Q318.31 59.47 318.31 62.35L318.31 62.35L318.31 63.22Q318.31 66.24 319.25 68.65Q320.18 71.06 321.84 72.79Q323.50 74.52 325.69 75.42Q327.89 76.32 330.48 76.32ZM364.39 62.06L364.39 80.64L358.78 80.64L358.78 44.93L364.39 44.93L364.39 50.98L365.26 50.98Q368.57 43.92 376.78 43.92L376.78 43.92Q382.97 43.92 386.64 47.77Q390.31 51.62 390.31 59.33L390.31 59.33L390.31 80.64L384.70 80.64L384.70 60.48Q384.70 54.86 382.18 52.06Q379.66 49.25 375.34 49.25L375.34 49.25Q370.22 49.25 367.31 52.74Q364.39 56.23 364.39 62.06L364.39 62.06ZM436.54 62.35L436.54 63.22Q436.54 67.68 435.06 71.10Q433.58 74.52 431.14 76.86Q428.69 79.20 425.41 80.42Q422.14 81.65 418.61 81.65L418.61 81.65Q415.01 81.65 411.77 80.42Q408.53 79.20 406.08 76.86Q403.63 74.52 402.16 71.10Q400.68 67.68 400.68 63.22L400.68 63.22L400.68 62.35Q400.68 57.96 402.16 54.54Q403.63 51.12 406.12 48.74Q408.60 46.37 411.84 45.14Q415.08 43.92 418.61 43.92L418.61 43.92Q422.14 43.92 425.38 45.14Q428.62 46.37 431.10 48.74Q433.58 51.12 435.06 54.54Q436.54 57.96 436.54 62.35L436.54 62.35ZM418.61 76.32L418.61 76.32Q421.20 76.32 423.40 75.42Q425.59 74.52 427.25 72.79Q428.90 71.06 429.84 68.65Q430.78 66.24 430.78 63.22L430.78 63.22L430.78 62.35Q430.78 59.47 429.84 57.06Q428.90 54.65 427.25 52.92Q425.59 51.19 423.36 50.22Q421.13 49.25 418.61 49.25L418.61 49.25Q416.09 49.25 413.86 50.22Q411.62 51.19 409.97 52.92Q408.31 54.65 407.38 57.06Q406.44 59.47 406.44 62.35L406.44 62.35L406.44 63.22Q406.44 66.24 407.38 68.65Q408.31 71.06 409.97 72.79Q411.62 74.52 413.82 75.42Q416.02 76.32 418.61 76.32Z"/></svg>