<svg xmlns="http://www.w3.org/2000/svg" width="58.373" height="44.408" direction="ltr" xmlns:v="https://vecta.io/nano"><path stroke="#000" d="M11 41.078h36.352c3.609 0 5.543-1.955 5.543-5.521V12.848c0-3.545-1.934-5.5-5.521-5.5H26.018c-1.977 0-2.793-.236-4.018-1.375L20.926 4.92c-1.396-1.354-2.148-1.59-4.361-1.59h-6.359c-3.18 0-4.727 1.547-4.727 4.684v27.543c0 3.609 1.912 5.521 5.521 5.521zM6.531 8.143c0-2.578 1.246-3.803 3.803-3.803h6.08c1.869 0 2.643.236 3.932 1.482l1.096 1.031C22.688 8.057 23.633 8.4 25.867 8.4h21.441c2.879 0 4.533 1.525 4.533 4.512v2.771H6.531zm4.512 31.883c-2.965 0-4.512-1.547-4.512-4.512V16.736h45.311v18.777c0 2.965-1.654 4.512-4.533 4.512z"/></svg>