<svg xmlns="http://www.w3.org/2000/svg" width="49.328" height="52.422" direction="ltr" xmlns:v="https://vecta.io/nano"><path stroke="#000" d="M24.664 47.029c11.451 0 20.818-9.367 20.818-20.818S36.115 5.393 24.664 5.393 3.846 14.76 3.846 26.211s9.367 20.818 20.818 20.818zM12.117 22v-3.803c0-1.59.795-2.385 2.449-2.385h3.287c1.16 0 1.504.107 2.256.795l.559.537c.602.58 1.031.688 2.063.688h11.602c1.869 0 2.879 1.053 2.879 2.879V22zm0 10.979v-9.883h25.094v9.883c0 1.869-1.01 2.857-2.879 2.857H14.996c-1.848 0-2.879-.967-2.879-2.857z"/></svg>