<?xml version="1.0" encoding="utf-8"?>
<!-- Generator: Adobe Illustrator 22.0.1, SVG Export Plug-In . SVG Version: 6.00 Build 0)  -->
<svg version="1.1" id="Layer_1" xmlns="http://www.w3.org/2000/svg" xmlns:xlink="http://www.w3.org/1999/xlink" x="0px" y="0px"
	 viewBox="0 0 16 16" style="enable-background:new 0 0 16 16;" xml:space="preserve">
<style type="text/css">
	.st0{display:none;}
	.st1{fill:none;stroke:#9E9A98;stroke-width:1.15;stroke-linecap:round;stroke-miterlimit:10;}
	.st2{fill:none;stroke:#9E9A98;stroke-width:1.15;stroke-linecap:round;stroke-miterlimit:10;enable-background:new    ;}
</style>
<g id="RNYwKZ.tif" class="st0">
	
		<image style="display:inline;overflow:visible;enable-background:new    ;" width="110" height="94" id="Layer_0_1_" xlink:href="6A93E3629DBE362A.png"  transform="matrix(0.4903 0 0 0.4903 -4.9198 -9.9409)">
	</image>
</g>
<g id="lFqE9j.tif" class="st0">
	
		<image style="display:inline;overflow:visible;enable-background:new    ;" width="110" height="94" id="Layer_0_2_" xlink:href="6A93E3629DBE3629.png"  transform="matrix(0.4903 0 0 0.4903 -4.9198 -9.9409)">
	</image>
</g>
<path class="st1" d="M0.6,6.4v7c0,0,0,1,0.7,1s13.4,0,13.4,0s0.7,0,0.7-0.9c0-0.9,0-9.5,0-9.5s-0.1-0.8-0.7-0.8c-0.5,0-5.5,0-6.7,0
	c-0.3,0-0.5-0.2-0.5-0.2L6.8,2.2C6.6,2.1,6.5,2,6.2,2c-0.3,0-5,0-5,0S0.6,2,0.6,2.9C0.6,3.8,0.6,6.4,0.6,6.4z"/>
<path id="Layer_0_3_" class="st2" d="M0.6,7.3c0,0,0.6-1,1.3-1c0.7,0,0.7,0,12.3,0c0,0,1.2,0.1,1.2,0.8"/>
<g id="_x32_hiGkG.tif" class="st0">
</g>
</svg>
