<?xml version="1.0" encoding="utf-8"?>
<!-- Generator: Adobe Illustrator 16.0.0, SVG Export Plug-In . SVG Version: 6.00 Build 0)  -->
<!DOCTYPE svg PUBLIC "-//W3C//DTD SVG 1.1//EN" "http://www.w3.org/Graphics/SVG/1.1/DTD/svg11.dtd">
<svg version="1.1" id="Layer_1" xmlns="http://www.w3.org/2000/svg" xmlns:xlink="http://www.w3.org/1999/xlink" x="0px" y="0px"
	 width="44.646px" height="49.333px" viewBox="37.682 22.306 44.646 49.333" enable-background="new 37.682 22.306 44.646 49.333"
	 xml:space="preserve">
<path fill="#FFFFFF" d="M72.36,43.279v-5.993c0-8.389-6.592-14.981-14.981-14.981s-14.981,6.592-14.981,14.981v5.993h-4.715v22.555
	h39.393V43.279H72.36z M57.378,59.238c-2.596,0-4.701-2.106-4.701-4.702c0-2.597,2.105-4.702,4.701-4.702
	c2.597,0,4.702,2.105,4.702,4.702C62.08,57.132,59.976,59.238,57.378,59.238z M66.366,43.279H48.39v-5.993
	c0-5.093,3.895-8.989,8.989-8.989c5.094,0,8.987,3.896,8.987,8.989V43.279z"/>
</svg>
