<?xml version="1.0" encoding="UTF-8"?>
<svg xmlns="http://www.w3.org/2000/svg" xmlns:xlink="http://www.w3.org/1999/xlink" width="165.09600000000003" height="114.48000000000002" viewBox="0 7.240000000000009 165.09600000000003 100" preserveAspectRatio="xMinYMid meet"><path d="M15.55 82.73L6.84 82.73L7.92 54.36L6.84 28.73L15.55 28.73L14.47 54.36L15.55 82.73ZM43.20 53.21L43.20 53.21Q39.60 53.14 35.21 56.16L35.21 56.16L35.93 82.73L27.86 82.73L28.73 56.16L27.43 46.87L27.43 46.73L34.92 46.73L35.06 52.27L36.43 51.12Q42.48 46.01 47.16 46.01L47.16 46.01Q52.06 46.01 54.65 49.50Q57.24 52.99 57.46 59.26L57.46 59.26L58.25 82.73L50.18 82.73L50.83 61.63Q50.98 56.74 48.96 54.94Q46.94 53.14 43.20 53.21ZM87.62 51.55L77.47 51.55L78.41 82.73L70.42 82.73L71.42 51.55L65.45 51.55L65.45 46.01L71.21 46.73L71.06 42.19Q70.99 39.67 71.42 37.33Q71.86 34.99 73.04 32.58Q74.23 30.17 76.79 28.73Q79.34 27.29 83.02 27.29L83.02 27.29Q86.04 27.29 87.41 27.72L87.41 27.72L88.85 34.63L88.70 34.63Q85.68 33.41 83.59 33.41L83.59 33.41Q81.22 33.41 79.88 34.78Q78.55 36.14 78.12 38.16Q77.69 40.18 77.54 43.63L77.54 43.63L77.54 46.80L87.62 46.01L87.62 51.55ZM97.13 31.68L97.13 31.68Q99.07 31.68 100.37 32.80Q101.66 33.91 101.66 35.78L101.66 35.78Q101.66 37.80 100.37 38.99Q99.07 40.18 97.13 40.18L97.13 40.18Q95.26 40.18 93.96 38.99Q92.66 37.80 92.66 35.78L92.66 35.78Q92.66 33.91 93.96 32.80Q95.26 31.68 97.13 31.68ZM92.81 46.87L92.81 46.73L100.30 46.73L100.30 46.87L101.30 82.73L93.24 82.73L94.10 56.16L92.81 46.87ZM127.58 53.21L127.58 53.21Q123.98 53.14 119.59 56.16L119.59 56.16L120.31 82.73L112.25 82.73L113.11 56.16L111.82 46.87L111.82 46.73L119.30 46.73L119.45 52.27L120.82 51.12Q126.86 46.01 131.54 46.01L131.54 46.01Q136.44 46.01 139.03 49.50Q141.62 52.99 141.84 59.26L141.84 59.26L142.63 82.73L134.57 82.73L135.22 61.63Q135.36 56.74 133.34 54.94Q131.33 53.14 127.58 53.21ZM157.39 31.68L157.39 31.68Q159.34 31.68 160.63 32.80Q161.93 33.91 161.93 35.78L161.93 35.78Q161.93 37.80 160.63 38.99Q159.34 40.18 157.39 40.18L157.39 40.18Q155.52 40.18 154.22 38.99Q152.93 37.80 152.93 35.78L152.93 35.78Q152.93 33.91 154.22 32.80Q155.52 31.68 157.39 31.68ZM153.07 46.87L153.07 46.73L160.56 46.73L160.56 46.87L161.57 82.73L153.50 82.73L154.37 56.16L153.07 46.87Z"/></svg>